G04 (created by PCBNEW-RS274X (2011-07-19)-testing) date Thu 01 Mar 2012 04:31:09 PM PST*
G01*
G70*
G90*
%MOIN*%
G04 Gerber Fmt 3.4, Leading zero omitted, Abs format*
%FSLAX34Y34*%
G04 APERTURE LIST*
%ADD10C,0.006000*%
%ADD11R,0.100000X0.050000*%
%ADD12C,0.116000*%
%ADD13C,0.039000*%
%ADD14R,0.060000X0.060000*%
%ADD15C,0.060000*%
%ADD16C,0.133900*%
%ADD17C,0.035000*%
%ADD18C,0.015000*%
%ADD19C,0.010000*%
G04 APERTURE END LIST*
G54D10*
G54D11*
X89500Y-34404D03*
X89500Y-35404D03*
X89500Y-36404D03*
X89500Y-37404D03*
X89500Y-38404D03*
X89500Y-39404D03*
X89500Y-40404D03*
X89500Y-41404D03*
X89500Y-42404D03*
X89500Y-43404D03*
X89500Y-44404D03*
X89500Y-45404D03*
X89500Y-46404D03*
G54D12*
X87280Y-29104D03*
X87280Y-51704D03*
G54D11*
X79500Y-34404D03*
X79500Y-35404D03*
X79500Y-36404D03*
X79500Y-37404D03*
X79500Y-38404D03*
X79500Y-39404D03*
X79500Y-40404D03*
X79500Y-41404D03*
X79500Y-42404D03*
X79500Y-43404D03*
X79500Y-44404D03*
X79500Y-45404D03*
X79500Y-46404D03*
G54D12*
X77280Y-29104D03*
X77280Y-51704D03*
G54D11*
X69500Y-34404D03*
X69500Y-35404D03*
X69500Y-36404D03*
X69500Y-37404D03*
X69500Y-38404D03*
X69500Y-39404D03*
X69500Y-40404D03*
X69500Y-41404D03*
X69500Y-42404D03*
X69500Y-43404D03*
X69500Y-44404D03*
X69500Y-45404D03*
X69500Y-46404D03*
G54D12*
X67280Y-29104D03*
X67280Y-51704D03*
G54D11*
X59500Y-34404D03*
X59500Y-35404D03*
X59500Y-36404D03*
X59500Y-37404D03*
X59500Y-38404D03*
X59500Y-39404D03*
X59500Y-40404D03*
X59500Y-41404D03*
X59500Y-42404D03*
X59500Y-43404D03*
X59500Y-44404D03*
X59500Y-45404D03*
X59500Y-46404D03*
G54D12*
X57280Y-29104D03*
X57280Y-51704D03*
G54D11*
X49500Y-34404D03*
X49500Y-35404D03*
X49500Y-36404D03*
X49500Y-37404D03*
X49500Y-38404D03*
X49500Y-39404D03*
X49500Y-40404D03*
X49500Y-41404D03*
X49500Y-42404D03*
X49500Y-43404D03*
X49500Y-44404D03*
X49500Y-45404D03*
X49500Y-46404D03*
G54D12*
X47280Y-29104D03*
X47280Y-51704D03*
G54D13*
X30315Y-29075D03*
X30315Y-31043D03*
G54D14*
X30000Y-40900D03*
G54D15*
X30000Y-39900D03*
G54D16*
X26000Y-29350D03*
X26000Y-51450D03*
X94000Y-51450D03*
X94000Y-29350D03*
G54D17*
X35779Y-37483D03*
G54D18*
X49500Y-45404D02*
X50178Y-45404D01*
X49500Y-39404D02*
X50178Y-39404D01*
X50431Y-39657D02*
X50178Y-39404D01*
X50431Y-45151D02*
X50431Y-39657D01*
X50178Y-45404D02*
X50431Y-45151D01*
X58822Y-45404D02*
X58822Y-39404D01*
X59500Y-45404D02*
X58822Y-45404D01*
X59500Y-39404D02*
X58822Y-39404D01*
X68822Y-45404D02*
X68822Y-39404D01*
X69500Y-45404D02*
X68822Y-45404D01*
X69500Y-39404D02*
X68822Y-39404D01*
X78822Y-45404D02*
X78822Y-39404D01*
X79500Y-45404D02*
X78822Y-45404D01*
X79500Y-39404D02*
X78822Y-39404D01*
X48822Y-40803D02*
X48822Y-37404D01*
X48865Y-40846D02*
X48822Y-40803D01*
X49944Y-40846D02*
X48865Y-40846D01*
X50178Y-41080D02*
X49944Y-40846D01*
X50178Y-43404D02*
X50178Y-41080D01*
X49500Y-37404D02*
X48822Y-37404D01*
X49500Y-43404D02*
X50178Y-43404D01*
X69500Y-43404D02*
X70178Y-43404D01*
X69500Y-37404D02*
X70178Y-37404D01*
X79500Y-43404D02*
X80178Y-43404D01*
X79500Y-37404D02*
X80178Y-37404D01*
X79500Y-37404D02*
X78822Y-37404D01*
X78569Y-37657D02*
X78822Y-37404D01*
X70431Y-37657D02*
X78569Y-37657D01*
X70431Y-37657D02*
X70178Y-37404D01*
X70431Y-43151D02*
X70431Y-37657D01*
X70178Y-43404D02*
X70431Y-43151D01*
X60445Y-43137D02*
X60178Y-43404D01*
X60445Y-37671D02*
X60445Y-43137D01*
X60178Y-37404D02*
X60445Y-37671D01*
X59500Y-37404D02*
X60178Y-37404D01*
X59500Y-43404D02*
X60178Y-43404D01*
X90178Y-43404D02*
X90178Y-37404D01*
X89500Y-43404D02*
X90178Y-43404D01*
X89500Y-37404D02*
X90178Y-37404D01*
X80178Y-43404D02*
X80257Y-43325D01*
X80257Y-37483D02*
X80178Y-37404D01*
X80257Y-43325D02*
X80257Y-37483D01*
X88743Y-43325D02*
X88822Y-43404D01*
X80257Y-43325D02*
X88743Y-43325D01*
X89500Y-43404D02*
X88822Y-43404D01*
X49500Y-35404D02*
X49500Y-36404D01*
X48527Y-36699D02*
X48822Y-36404D01*
X48527Y-42109D02*
X48527Y-36699D01*
X48822Y-42404D02*
X48527Y-42109D01*
X49500Y-36404D02*
X48822Y-36404D01*
X89500Y-36404D02*
X89161Y-36404D01*
X88822Y-36065D02*
X88822Y-35404D01*
X89161Y-36404D02*
X88822Y-36065D01*
X89500Y-35404D02*
X88822Y-35404D01*
X79500Y-35404D02*
X78822Y-35404D01*
X78822Y-35404D02*
X78822Y-36404D01*
X89500Y-42404D02*
X88822Y-42404D01*
X49500Y-42404D02*
X48822Y-42404D01*
X69500Y-42404D02*
X70178Y-42404D01*
X88822Y-36743D02*
X88822Y-42404D01*
X89161Y-36404D02*
X88822Y-36743D01*
X60178Y-38004D02*
X60178Y-42404D01*
X60136Y-37962D02*
X60178Y-38004D01*
X59056Y-37962D02*
X60136Y-37962D01*
X58822Y-37728D02*
X59056Y-37962D01*
X58822Y-36404D02*
X58822Y-37728D01*
X59500Y-36404D02*
X58822Y-36404D01*
X59500Y-42404D02*
X60178Y-42404D01*
X69500Y-35404D02*
X78822Y-35404D01*
X79500Y-36404D02*
X78822Y-36404D01*
X68520Y-36706D02*
X68822Y-36404D01*
X68520Y-38426D02*
X68520Y-36706D01*
X69031Y-38937D02*
X68520Y-38426D01*
X70135Y-38937D02*
X69031Y-38937D01*
X70178Y-38980D02*
X70135Y-38937D01*
X70178Y-42404D02*
X70178Y-38980D01*
X68218Y-36404D02*
X59500Y-36404D01*
X68520Y-36706D02*
X68218Y-36404D01*
X69500Y-36404D02*
X69161Y-36404D01*
X69161Y-36404D02*
X68822Y-36404D01*
X68822Y-36065D02*
X68822Y-35404D01*
X69161Y-36404D02*
X68822Y-36065D01*
X69500Y-35404D02*
X68822Y-35404D01*
X42700Y-44404D02*
X35779Y-37483D01*
X49500Y-44404D02*
X42700Y-44404D01*
X50178Y-34404D02*
X50178Y-38404D01*
X49500Y-34404D02*
X50178Y-34404D01*
X49500Y-38404D02*
X50178Y-38404D01*
X59500Y-34404D02*
X50178Y-34404D01*
X59500Y-41404D02*
X59500Y-40404D01*
X79500Y-41404D02*
X79500Y-40404D01*
X69500Y-41404D02*
X69500Y-40404D01*
X89500Y-41404D02*
X89500Y-40404D01*
G54D10*
G36*
X70106Y-37928D02*
X70049Y-37905D01*
X69612Y-37904D01*
X69550Y-37966D01*
X69550Y-38304D01*
X69550Y-38354D01*
X69550Y-38454D01*
X69450Y-38454D01*
X69450Y-38354D01*
X69450Y-38304D01*
X69450Y-37966D01*
X69388Y-37904D01*
X68951Y-37905D01*
X68859Y-37943D01*
X68845Y-37957D01*
X68845Y-37851D01*
X68859Y-37865D01*
X68950Y-37903D01*
X69049Y-37903D01*
X70049Y-37903D01*
X70106Y-37879D01*
X70106Y-37928D01*
X70106Y-37928D01*
G37*
G54D19*
X70106Y-37928D02*
X70049Y-37905D01*
X69612Y-37904D01*
X69550Y-37966D01*
X69550Y-38304D01*
X69550Y-38354D01*
X69550Y-38454D01*
X69450Y-38454D01*
X69450Y-38354D01*
X69450Y-38304D01*
X69450Y-37966D01*
X69388Y-37904D01*
X68951Y-37905D01*
X68859Y-37943D01*
X68845Y-37957D01*
X68845Y-37851D01*
X68859Y-37865D01*
X68950Y-37903D01*
X69049Y-37903D01*
X70049Y-37903D01*
X70106Y-37879D01*
X70106Y-37928D01*
G54D10*
G36*
X89853Y-38905D02*
X89147Y-38905D01*
X89147Y-38903D01*
X89388Y-38904D01*
X89450Y-38842D01*
X89450Y-38504D01*
X89450Y-38454D01*
X89450Y-38354D01*
X89450Y-38304D01*
X89450Y-37966D01*
X89388Y-37904D01*
X89147Y-37904D01*
X89147Y-37903D01*
X89853Y-37903D01*
X89853Y-37904D01*
X89612Y-37904D01*
X89550Y-37966D01*
X89550Y-38304D01*
X89550Y-38354D01*
X89550Y-38454D01*
X89550Y-38504D01*
X89550Y-38842D01*
X89612Y-38904D01*
X89853Y-38903D01*
X89853Y-38905D01*
X89853Y-38905D01*
G37*
G54D19*
X89853Y-38905D02*
X89147Y-38905D01*
X89147Y-38903D01*
X89388Y-38904D01*
X89450Y-38842D01*
X89450Y-38504D01*
X89450Y-38454D01*
X89450Y-38354D01*
X89450Y-38304D01*
X89450Y-37966D01*
X89388Y-37904D01*
X89147Y-37904D01*
X89147Y-37903D01*
X89853Y-37903D01*
X89853Y-37904D01*
X89612Y-37904D01*
X89550Y-37966D01*
X89550Y-38304D01*
X89550Y-38354D01*
X89550Y-38454D01*
X89550Y-38504D01*
X89550Y-38842D01*
X89612Y-38904D01*
X89853Y-38903D01*
X89853Y-38905D01*
G54D10*
G36*
X94675Y-50825D02*
X94521Y-50671D01*
X94184Y-50531D01*
X93818Y-50531D01*
X93480Y-50671D01*
X93221Y-50929D01*
X93081Y-51266D01*
X93081Y-51632D01*
X93221Y-51970D01*
X93375Y-52125D01*
X90503Y-52125D01*
X90503Y-43404D01*
X90503Y-37404D01*
X90478Y-37280D01*
X90408Y-37174D01*
X90302Y-37104D01*
X90250Y-37093D01*
X90250Y-34516D01*
X90250Y-34292D01*
X90249Y-34203D01*
X90249Y-34104D01*
X90211Y-34013D01*
X90141Y-33943D01*
X90049Y-33905D01*
X89612Y-33904D01*
X89550Y-33966D01*
X89550Y-34354D01*
X90188Y-34354D01*
X90250Y-34292D01*
X90250Y-34516D01*
X90188Y-34454D01*
X89550Y-34454D01*
X89550Y-34842D01*
X89612Y-34904D01*
X90049Y-34903D01*
X90141Y-34865D01*
X90211Y-34795D01*
X90249Y-34704D01*
X90249Y-34605D01*
X90250Y-34516D01*
X90250Y-37093D01*
X90243Y-37092D01*
X90211Y-37013D01*
X90141Y-36943D01*
X90050Y-36905D01*
X89951Y-36905D01*
X89147Y-36905D01*
X89147Y-36903D01*
X90049Y-36903D01*
X90141Y-36865D01*
X90211Y-36795D01*
X90249Y-36704D01*
X90249Y-36605D01*
X90249Y-36105D01*
X90211Y-36013D01*
X90141Y-35943D01*
X90050Y-35905D01*
X89951Y-35905D01*
X89147Y-35905D01*
X89147Y-35903D01*
X90049Y-35903D01*
X90141Y-35865D01*
X90211Y-35795D01*
X90249Y-35704D01*
X90249Y-35605D01*
X90249Y-35105D01*
X90211Y-35013D01*
X90141Y-34943D01*
X90050Y-34905D01*
X89951Y-34905D01*
X89450Y-34905D01*
X89450Y-34842D01*
X89450Y-34454D01*
X89450Y-34354D01*
X89450Y-33966D01*
X89388Y-33904D01*
X88951Y-33905D01*
X88859Y-33943D01*
X88789Y-34013D01*
X88751Y-34104D01*
X88751Y-34203D01*
X88750Y-34292D01*
X88812Y-34354D01*
X89450Y-34354D01*
X89450Y-34454D01*
X88812Y-34454D01*
X88750Y-34516D01*
X88751Y-34605D01*
X88751Y-34704D01*
X88789Y-34795D01*
X88859Y-34865D01*
X88951Y-34903D01*
X89388Y-34904D01*
X89450Y-34842D01*
X89450Y-34905D01*
X88951Y-34905D01*
X88859Y-34943D01*
X88789Y-35013D01*
X88755Y-35092D01*
X88698Y-35104D01*
X88592Y-35174D01*
X88522Y-35280D01*
X88497Y-35404D01*
X88497Y-36065D01*
X88522Y-36189D01*
X88592Y-36295D01*
X88701Y-36404D01*
X88592Y-36513D01*
X88522Y-36619D01*
X88497Y-36743D01*
X88497Y-42404D01*
X88522Y-42528D01*
X88592Y-42634D01*
X88698Y-42704D01*
X88756Y-42715D01*
X88789Y-42795D01*
X88859Y-42865D01*
X88950Y-42903D01*
X89049Y-42903D01*
X89853Y-42903D01*
X89853Y-42905D01*
X88951Y-42905D01*
X88859Y-42943D01*
X88792Y-43009D01*
X88743Y-43000D01*
X80582Y-43000D01*
X80582Y-37483D01*
X80581Y-37482D01*
X80582Y-37482D01*
X80576Y-37457D01*
X80557Y-37359D01*
X80556Y-37358D01*
X80487Y-37253D01*
X80484Y-37251D01*
X80408Y-37174D01*
X80302Y-37104D01*
X80250Y-37093D01*
X80250Y-34516D01*
X80250Y-34292D01*
X80249Y-34203D01*
X80249Y-34104D01*
X80211Y-34013D01*
X80141Y-33943D01*
X80049Y-33905D01*
X79612Y-33904D01*
X79550Y-33966D01*
X79550Y-34354D01*
X80188Y-34354D01*
X80250Y-34292D01*
X80250Y-34516D01*
X80188Y-34454D01*
X79550Y-34454D01*
X79550Y-34842D01*
X79612Y-34904D01*
X80049Y-34903D01*
X80141Y-34865D01*
X80211Y-34795D01*
X80249Y-34704D01*
X80249Y-34605D01*
X80250Y-34516D01*
X80250Y-37093D01*
X80243Y-37092D01*
X80211Y-37013D01*
X80141Y-36943D01*
X80050Y-36905D01*
X79951Y-36905D01*
X78951Y-36905D01*
X78859Y-36943D01*
X78789Y-37013D01*
X78755Y-37092D01*
X78698Y-37104D01*
X78592Y-37174D01*
X78590Y-37176D01*
X78434Y-37332D01*
X70565Y-37332D01*
X70408Y-37174D01*
X70302Y-37104D01*
X70243Y-37092D01*
X70211Y-37013D01*
X70141Y-36943D01*
X70050Y-36905D01*
X69951Y-36905D01*
X68951Y-36905D01*
X68859Y-36943D01*
X68845Y-36957D01*
X68845Y-36851D01*
X68859Y-36865D01*
X68950Y-36903D01*
X69049Y-36903D01*
X70049Y-36903D01*
X70141Y-36865D01*
X70211Y-36795D01*
X70249Y-36704D01*
X70249Y-36605D01*
X70249Y-36105D01*
X70211Y-36013D01*
X70141Y-35943D01*
X70050Y-35905D01*
X69951Y-35905D01*
X69147Y-35905D01*
X69147Y-35903D01*
X70049Y-35903D01*
X70141Y-35865D01*
X70211Y-35795D01*
X70238Y-35729D01*
X78497Y-35729D01*
X78497Y-36404D01*
X78522Y-36528D01*
X78592Y-36634D01*
X78698Y-36704D01*
X78756Y-36715D01*
X78789Y-36795D01*
X78859Y-36865D01*
X78950Y-36903D01*
X79049Y-36903D01*
X80049Y-36903D01*
X80141Y-36865D01*
X80211Y-36795D01*
X80249Y-36704D01*
X80249Y-36605D01*
X80249Y-36105D01*
X80211Y-36013D01*
X80141Y-35943D01*
X80050Y-35905D01*
X79951Y-35905D01*
X79147Y-35905D01*
X79147Y-35903D01*
X80049Y-35903D01*
X80141Y-35865D01*
X80211Y-35795D01*
X80249Y-35704D01*
X80249Y-35605D01*
X80249Y-35105D01*
X80211Y-35013D01*
X80141Y-34943D01*
X80050Y-34905D01*
X79951Y-34905D01*
X79450Y-34905D01*
X79450Y-34842D01*
X79450Y-34454D01*
X79450Y-34354D01*
X79450Y-33966D01*
X79388Y-33904D01*
X78951Y-33905D01*
X78859Y-33943D01*
X78789Y-34013D01*
X78751Y-34104D01*
X78751Y-34203D01*
X78750Y-34292D01*
X78812Y-34354D01*
X79450Y-34354D01*
X79450Y-34454D01*
X78812Y-34454D01*
X78750Y-34516D01*
X78751Y-34605D01*
X78751Y-34704D01*
X78789Y-34795D01*
X78859Y-34865D01*
X78951Y-34903D01*
X79388Y-34904D01*
X79450Y-34842D01*
X79450Y-34905D01*
X78951Y-34905D01*
X78859Y-34943D01*
X78789Y-35013D01*
X78761Y-35079D01*
X70250Y-35079D01*
X70250Y-34516D01*
X70250Y-34292D01*
X70249Y-34203D01*
X70249Y-34104D01*
X70211Y-34013D01*
X70141Y-33943D01*
X70049Y-33905D01*
X69612Y-33904D01*
X69550Y-33966D01*
X69550Y-34354D01*
X70188Y-34354D01*
X70250Y-34292D01*
X70250Y-34516D01*
X70188Y-34454D01*
X69550Y-34454D01*
X69550Y-34842D01*
X69612Y-34904D01*
X70049Y-34903D01*
X70141Y-34865D01*
X70211Y-34795D01*
X70249Y-34704D01*
X70249Y-34605D01*
X70250Y-34516D01*
X70250Y-35079D01*
X70238Y-35079D01*
X70211Y-35013D01*
X70141Y-34943D01*
X70050Y-34905D01*
X69951Y-34905D01*
X69450Y-34905D01*
X69450Y-34842D01*
X69450Y-34454D01*
X69450Y-34354D01*
X69450Y-33966D01*
X69388Y-33904D01*
X68951Y-33905D01*
X68859Y-33943D01*
X68789Y-34013D01*
X68751Y-34104D01*
X68751Y-34203D01*
X68750Y-34292D01*
X68812Y-34354D01*
X69450Y-34354D01*
X69450Y-34454D01*
X68812Y-34454D01*
X68750Y-34516D01*
X68751Y-34605D01*
X68751Y-34704D01*
X68789Y-34795D01*
X68859Y-34865D01*
X68951Y-34903D01*
X69388Y-34904D01*
X69450Y-34842D01*
X69450Y-34905D01*
X68951Y-34905D01*
X68859Y-34943D01*
X68789Y-35013D01*
X68755Y-35092D01*
X68698Y-35104D01*
X68592Y-35174D01*
X68522Y-35280D01*
X68497Y-35404D01*
X68497Y-36065D01*
X68522Y-36189D01*
X68543Y-36222D01*
X68520Y-36246D01*
X68448Y-36174D01*
X68342Y-36104D01*
X68218Y-36079D01*
X60250Y-36079D01*
X60250Y-34516D01*
X60250Y-34292D01*
X60249Y-34203D01*
X60249Y-34104D01*
X60211Y-34013D01*
X60141Y-33943D01*
X60049Y-33905D01*
X59612Y-33904D01*
X59550Y-33966D01*
X59550Y-34354D01*
X60188Y-34354D01*
X60250Y-34292D01*
X60250Y-34516D01*
X60188Y-34454D01*
X59550Y-34454D01*
X59550Y-34842D01*
X59612Y-34904D01*
X60049Y-34903D01*
X60141Y-34865D01*
X60211Y-34795D01*
X60249Y-34704D01*
X60249Y-34605D01*
X60250Y-34516D01*
X60250Y-36079D01*
X60249Y-36079D01*
X60249Y-35704D01*
X60249Y-35605D01*
X60249Y-35105D01*
X60211Y-35013D01*
X60141Y-34943D01*
X60050Y-34905D01*
X59951Y-34905D01*
X59450Y-34905D01*
X59450Y-34842D01*
X59450Y-34454D01*
X59450Y-34354D01*
X59450Y-33966D01*
X59388Y-33904D01*
X58951Y-33905D01*
X58859Y-33943D01*
X58789Y-34013D01*
X58751Y-34104D01*
X58751Y-34203D01*
X58750Y-34292D01*
X58812Y-34354D01*
X59450Y-34354D01*
X59450Y-34454D01*
X58812Y-34454D01*
X58750Y-34516D01*
X58751Y-34605D01*
X58751Y-34704D01*
X58789Y-34795D01*
X58859Y-34865D01*
X58951Y-34903D01*
X59388Y-34904D01*
X59450Y-34842D01*
X59450Y-34905D01*
X58951Y-34905D01*
X58859Y-34943D01*
X58789Y-35013D01*
X58751Y-35104D01*
X58751Y-35203D01*
X58751Y-35703D01*
X58789Y-35795D01*
X58859Y-35865D01*
X58950Y-35903D01*
X59049Y-35903D01*
X60049Y-35903D01*
X60141Y-35865D01*
X60211Y-35795D01*
X60249Y-35704D01*
X60249Y-36079D01*
X60238Y-36079D01*
X60211Y-36013D01*
X60141Y-35943D01*
X60050Y-35905D01*
X59951Y-35905D01*
X58951Y-35905D01*
X58859Y-35943D01*
X58789Y-36013D01*
X58755Y-36092D01*
X58698Y-36104D01*
X58592Y-36174D01*
X58522Y-36280D01*
X58497Y-36404D01*
X58497Y-37728D01*
X58522Y-37852D01*
X58592Y-37958D01*
X58751Y-38116D01*
X58751Y-38203D01*
X58750Y-38292D01*
X58812Y-38354D01*
X59400Y-38354D01*
X59450Y-38354D01*
X59550Y-38354D01*
X59550Y-38454D01*
X59550Y-38504D01*
X59550Y-38842D01*
X59612Y-38904D01*
X59853Y-38903D01*
X59853Y-38905D01*
X59450Y-38905D01*
X59450Y-38842D01*
X59450Y-38454D01*
X58812Y-38454D01*
X58750Y-38516D01*
X58751Y-38605D01*
X58751Y-38704D01*
X58789Y-38795D01*
X58859Y-38865D01*
X58951Y-38903D01*
X59388Y-38904D01*
X59450Y-38842D01*
X59450Y-38905D01*
X58951Y-38905D01*
X58859Y-38943D01*
X58789Y-39013D01*
X58755Y-39092D01*
X58698Y-39104D01*
X58592Y-39174D01*
X58522Y-39280D01*
X58497Y-39404D01*
X58497Y-45404D01*
X58522Y-45528D01*
X58592Y-45634D01*
X58698Y-45704D01*
X58756Y-45715D01*
X58789Y-45795D01*
X58859Y-45865D01*
X58950Y-45903D01*
X59049Y-45903D01*
X60049Y-45903D01*
X60141Y-45865D01*
X60211Y-45795D01*
X60249Y-45704D01*
X60249Y-45605D01*
X60249Y-45105D01*
X60211Y-45013D01*
X60141Y-44943D01*
X60050Y-44905D01*
X59951Y-44905D01*
X59147Y-44905D01*
X59147Y-44903D01*
X60049Y-44903D01*
X60141Y-44865D01*
X60211Y-44795D01*
X60249Y-44704D01*
X60249Y-44605D01*
X60249Y-44105D01*
X60211Y-44013D01*
X60141Y-43943D01*
X60050Y-43905D01*
X59951Y-43905D01*
X59147Y-43905D01*
X59147Y-43903D01*
X60049Y-43903D01*
X60141Y-43865D01*
X60211Y-43795D01*
X60244Y-43715D01*
X60302Y-43704D01*
X60408Y-43634D01*
X60672Y-43368D01*
X60674Y-43367D01*
X60675Y-43367D01*
X60744Y-43262D01*
X60745Y-43261D01*
X60770Y-43137D01*
X60770Y-37671D01*
X60745Y-37547D01*
X60744Y-37546D01*
X60675Y-37441D01*
X60672Y-37439D01*
X60408Y-37174D01*
X60302Y-37104D01*
X60243Y-37092D01*
X60211Y-37013D01*
X60141Y-36943D01*
X60050Y-36905D01*
X59951Y-36905D01*
X59147Y-36905D01*
X59147Y-36903D01*
X60049Y-36903D01*
X60141Y-36865D01*
X60211Y-36795D01*
X60238Y-36729D01*
X68083Y-36729D01*
X68195Y-36841D01*
X68195Y-38426D01*
X68220Y-38550D01*
X68290Y-38656D01*
X68732Y-39097D01*
X68698Y-39104D01*
X68592Y-39174D01*
X68522Y-39280D01*
X68497Y-39404D01*
X68497Y-45404D01*
X68522Y-45528D01*
X68592Y-45634D01*
X68698Y-45704D01*
X68756Y-45715D01*
X68789Y-45795D01*
X68859Y-45865D01*
X68950Y-45903D01*
X69049Y-45903D01*
X70049Y-45903D01*
X70141Y-45865D01*
X70211Y-45795D01*
X70249Y-45704D01*
X70249Y-45605D01*
X70249Y-45105D01*
X70211Y-45013D01*
X70141Y-44943D01*
X70050Y-44905D01*
X69951Y-44905D01*
X69147Y-44905D01*
X69147Y-44903D01*
X70049Y-44903D01*
X70141Y-44865D01*
X70211Y-44795D01*
X70249Y-44704D01*
X70249Y-44605D01*
X70249Y-44105D01*
X70211Y-44013D01*
X70141Y-43943D01*
X70050Y-43905D01*
X69951Y-43905D01*
X69147Y-43905D01*
X69147Y-43903D01*
X70049Y-43903D01*
X70141Y-43865D01*
X70211Y-43795D01*
X70244Y-43715D01*
X70302Y-43704D01*
X70408Y-43634D01*
X70658Y-43382D01*
X70660Y-43381D01*
X70661Y-43381D01*
X70730Y-43276D01*
X70731Y-43275D01*
X70750Y-43177D01*
X70756Y-43152D01*
X70755Y-43151D01*
X70756Y-43151D01*
X70756Y-37982D01*
X78569Y-37982D01*
X78693Y-37957D01*
X78799Y-37887D01*
X78839Y-37845D01*
X78859Y-37865D01*
X78950Y-37903D01*
X79049Y-37903D01*
X79932Y-37903D01*
X79932Y-37904D01*
X79612Y-37904D01*
X79550Y-37966D01*
X79550Y-38304D01*
X79550Y-38354D01*
X79550Y-38454D01*
X79550Y-38504D01*
X79550Y-38842D01*
X79612Y-38904D01*
X79932Y-38903D01*
X79932Y-38905D01*
X79450Y-38905D01*
X79450Y-38842D01*
X79450Y-38454D01*
X79450Y-38354D01*
X79450Y-37966D01*
X79388Y-37904D01*
X78951Y-37905D01*
X78859Y-37943D01*
X78789Y-38013D01*
X78751Y-38104D01*
X78751Y-38203D01*
X78750Y-38292D01*
X78812Y-38354D01*
X79450Y-38354D01*
X79450Y-38454D01*
X78812Y-38454D01*
X78750Y-38516D01*
X78751Y-38605D01*
X78751Y-38704D01*
X78789Y-38795D01*
X78859Y-38865D01*
X78951Y-38903D01*
X79388Y-38904D01*
X79450Y-38842D01*
X79450Y-38905D01*
X78951Y-38905D01*
X78859Y-38943D01*
X78789Y-39013D01*
X78755Y-39092D01*
X78698Y-39104D01*
X78592Y-39174D01*
X78522Y-39280D01*
X78497Y-39404D01*
X78497Y-45404D01*
X78522Y-45528D01*
X78592Y-45634D01*
X78698Y-45704D01*
X78756Y-45715D01*
X78789Y-45795D01*
X78859Y-45865D01*
X78950Y-45903D01*
X79049Y-45903D01*
X80049Y-45903D01*
X80141Y-45865D01*
X80211Y-45795D01*
X80249Y-45704D01*
X80249Y-45605D01*
X80249Y-45105D01*
X80211Y-45013D01*
X80141Y-44943D01*
X80050Y-44905D01*
X79951Y-44905D01*
X79147Y-44905D01*
X79147Y-44903D01*
X80049Y-44903D01*
X80141Y-44865D01*
X80211Y-44795D01*
X80249Y-44704D01*
X80249Y-44605D01*
X80249Y-44105D01*
X80211Y-44013D01*
X80141Y-43943D01*
X80050Y-43905D01*
X79951Y-43905D01*
X79147Y-43905D01*
X79147Y-43903D01*
X80049Y-43903D01*
X80141Y-43865D01*
X80211Y-43795D01*
X80244Y-43715D01*
X80302Y-43704D01*
X80383Y-43650D01*
X88616Y-43650D01*
X88617Y-43650D01*
X88697Y-43703D01*
X88698Y-43704D01*
X88756Y-43715D01*
X88789Y-43795D01*
X88859Y-43865D01*
X88950Y-43903D01*
X89049Y-43903D01*
X90049Y-43903D01*
X90141Y-43865D01*
X90211Y-43795D01*
X90244Y-43715D01*
X90302Y-43704D01*
X90408Y-43634D01*
X90478Y-43528D01*
X90503Y-43404D01*
X90503Y-52125D01*
X90249Y-52125D01*
X90249Y-46704D01*
X90249Y-46605D01*
X90249Y-46105D01*
X90249Y-45704D01*
X90249Y-45605D01*
X90249Y-45105D01*
X90249Y-44704D01*
X90249Y-44605D01*
X90249Y-44105D01*
X90211Y-44013D01*
X90141Y-43943D01*
X90050Y-43905D01*
X89951Y-43905D01*
X88951Y-43905D01*
X88859Y-43943D01*
X88789Y-44013D01*
X88751Y-44104D01*
X88751Y-44203D01*
X88751Y-44703D01*
X88789Y-44795D01*
X88859Y-44865D01*
X88950Y-44903D01*
X89049Y-44903D01*
X90049Y-44903D01*
X90141Y-44865D01*
X90211Y-44795D01*
X90249Y-44704D01*
X90249Y-45105D01*
X90211Y-45013D01*
X90141Y-44943D01*
X90050Y-44905D01*
X89951Y-44905D01*
X88951Y-44905D01*
X88859Y-44943D01*
X88789Y-45013D01*
X88751Y-45104D01*
X88751Y-45203D01*
X88751Y-45703D01*
X88789Y-45795D01*
X88859Y-45865D01*
X88950Y-45903D01*
X89049Y-45903D01*
X90049Y-45903D01*
X90141Y-45865D01*
X90211Y-45795D01*
X90249Y-45704D01*
X90249Y-46105D01*
X90211Y-46013D01*
X90141Y-45943D01*
X90050Y-45905D01*
X89951Y-45905D01*
X88951Y-45905D01*
X88859Y-45943D01*
X88789Y-46013D01*
X88751Y-46104D01*
X88751Y-46203D01*
X88751Y-46703D01*
X88789Y-46795D01*
X88859Y-46865D01*
X88950Y-46903D01*
X89049Y-46903D01*
X90049Y-46903D01*
X90141Y-46865D01*
X90211Y-46795D01*
X90249Y-46704D01*
X90249Y-52125D01*
X88003Y-52125D01*
X88110Y-51870D01*
X88110Y-51540D01*
X87984Y-51235D01*
X87751Y-51001D01*
X87446Y-50874D01*
X87116Y-50874D01*
X86811Y-51000D01*
X86577Y-51233D01*
X86450Y-51538D01*
X86450Y-51868D01*
X86556Y-52125D01*
X80249Y-52125D01*
X80249Y-46704D01*
X80249Y-46605D01*
X80249Y-46105D01*
X80211Y-46013D01*
X80141Y-45943D01*
X80050Y-45905D01*
X79951Y-45905D01*
X78951Y-45905D01*
X78859Y-45943D01*
X78789Y-46013D01*
X78751Y-46104D01*
X78751Y-46203D01*
X78751Y-46703D01*
X78789Y-46795D01*
X78859Y-46865D01*
X78950Y-46903D01*
X79049Y-46903D01*
X80049Y-46903D01*
X80141Y-46865D01*
X80211Y-46795D01*
X80249Y-46704D01*
X80249Y-52125D01*
X78003Y-52125D01*
X78110Y-51870D01*
X78110Y-51540D01*
X77984Y-51235D01*
X77751Y-51001D01*
X77446Y-50874D01*
X77116Y-50874D01*
X76811Y-51000D01*
X76577Y-51233D01*
X76450Y-51538D01*
X76450Y-51868D01*
X76556Y-52125D01*
X70249Y-52125D01*
X70249Y-46704D01*
X70249Y-46605D01*
X70249Y-46105D01*
X70211Y-46013D01*
X70141Y-45943D01*
X70050Y-45905D01*
X69951Y-45905D01*
X68951Y-45905D01*
X68859Y-45943D01*
X68789Y-46013D01*
X68751Y-46104D01*
X68751Y-46203D01*
X68751Y-46703D01*
X68789Y-46795D01*
X68859Y-46865D01*
X68950Y-46903D01*
X69049Y-46903D01*
X70049Y-46903D01*
X70141Y-46865D01*
X70211Y-46795D01*
X70249Y-46704D01*
X70249Y-52125D01*
X68003Y-52125D01*
X68110Y-51870D01*
X68110Y-51540D01*
X67984Y-51235D01*
X67751Y-51001D01*
X67446Y-50874D01*
X67116Y-50874D01*
X66811Y-51000D01*
X66577Y-51233D01*
X66450Y-51538D01*
X66450Y-51868D01*
X66556Y-52125D01*
X60249Y-52125D01*
X60249Y-46704D01*
X60249Y-46605D01*
X60249Y-46105D01*
X60211Y-46013D01*
X60141Y-45943D01*
X60050Y-45905D01*
X59951Y-45905D01*
X58951Y-45905D01*
X58859Y-45943D01*
X58789Y-46013D01*
X58751Y-46104D01*
X58751Y-46203D01*
X58751Y-46703D01*
X58789Y-46795D01*
X58859Y-46865D01*
X58950Y-46903D01*
X59049Y-46903D01*
X60049Y-46903D01*
X60141Y-46865D01*
X60211Y-46795D01*
X60249Y-46704D01*
X60249Y-52125D01*
X58003Y-52125D01*
X58110Y-51870D01*
X58110Y-51540D01*
X57984Y-51235D01*
X57751Y-51001D01*
X57446Y-50874D01*
X57116Y-50874D01*
X56811Y-51000D01*
X56577Y-51233D01*
X56450Y-51538D01*
X56450Y-51868D01*
X56556Y-52125D01*
X50756Y-52125D01*
X50756Y-45152D01*
X50755Y-45151D01*
X50756Y-45151D01*
X50756Y-39657D01*
X50755Y-39656D01*
X50756Y-39656D01*
X50750Y-39631D01*
X50731Y-39533D01*
X50730Y-39532D01*
X50661Y-39427D01*
X50658Y-39425D01*
X50408Y-39174D01*
X50302Y-39104D01*
X50250Y-39093D01*
X50250Y-38516D01*
X50250Y-38292D01*
X50250Y-34516D01*
X50250Y-34292D01*
X50249Y-34203D01*
X50249Y-34104D01*
X50211Y-34013D01*
X50141Y-33943D01*
X50049Y-33905D01*
X49612Y-33904D01*
X49550Y-33966D01*
X49550Y-34354D01*
X50188Y-34354D01*
X50250Y-34292D01*
X50250Y-34516D01*
X50188Y-34454D01*
X49550Y-34454D01*
X49550Y-34842D01*
X49612Y-34904D01*
X50049Y-34903D01*
X50141Y-34865D01*
X50211Y-34795D01*
X50249Y-34704D01*
X50249Y-34605D01*
X50250Y-34516D01*
X50250Y-38292D01*
X50249Y-38203D01*
X50249Y-38104D01*
X50211Y-38013D01*
X50141Y-37943D01*
X50049Y-37905D01*
X49612Y-37904D01*
X49550Y-37966D01*
X49550Y-38354D01*
X50188Y-38354D01*
X50250Y-38292D01*
X50250Y-38516D01*
X50188Y-38454D01*
X49550Y-38454D01*
X49550Y-38842D01*
X49612Y-38904D01*
X50049Y-38903D01*
X50141Y-38865D01*
X50211Y-38795D01*
X50249Y-38704D01*
X50249Y-38605D01*
X50250Y-38516D01*
X50250Y-39093D01*
X50243Y-39092D01*
X50211Y-39013D01*
X50141Y-38943D01*
X50050Y-38905D01*
X49951Y-38905D01*
X49147Y-38905D01*
X49147Y-38903D01*
X49388Y-38904D01*
X49450Y-38842D01*
X49450Y-38504D01*
X49450Y-38454D01*
X49450Y-38354D01*
X49450Y-38304D01*
X49450Y-37966D01*
X49388Y-37904D01*
X49147Y-37904D01*
X49147Y-37903D01*
X50049Y-37903D01*
X50141Y-37865D01*
X50211Y-37795D01*
X50249Y-37704D01*
X50249Y-37605D01*
X50249Y-37105D01*
X50211Y-37013D01*
X50141Y-36943D01*
X50050Y-36905D01*
X49951Y-36905D01*
X48951Y-36905D01*
X48859Y-36943D01*
X48852Y-36950D01*
X48852Y-36858D01*
X48859Y-36865D01*
X48950Y-36903D01*
X49049Y-36903D01*
X50049Y-36903D01*
X50141Y-36865D01*
X50211Y-36795D01*
X50249Y-36704D01*
X50249Y-36605D01*
X50249Y-36105D01*
X50211Y-36013D01*
X50141Y-35943D01*
X50050Y-35905D01*
X49951Y-35905D01*
X49825Y-35905D01*
X49825Y-35903D01*
X50049Y-35903D01*
X50141Y-35865D01*
X50211Y-35795D01*
X50249Y-35704D01*
X50249Y-35605D01*
X50249Y-35105D01*
X50211Y-35013D01*
X50141Y-34943D01*
X50050Y-34905D01*
X49951Y-34905D01*
X49450Y-34905D01*
X49450Y-34842D01*
X49450Y-34454D01*
X49450Y-34354D01*
X49450Y-33966D01*
X49388Y-33904D01*
X48951Y-33905D01*
X48859Y-33943D01*
X48789Y-34013D01*
X48751Y-34104D01*
X48751Y-34203D01*
X48750Y-34292D01*
X48812Y-34354D01*
X49450Y-34354D01*
X49450Y-34454D01*
X48812Y-34454D01*
X48750Y-34516D01*
X48751Y-34605D01*
X48751Y-34704D01*
X48789Y-34795D01*
X48859Y-34865D01*
X48951Y-34903D01*
X49388Y-34904D01*
X49450Y-34842D01*
X49450Y-34905D01*
X48951Y-34905D01*
X48859Y-34943D01*
X48789Y-35013D01*
X48751Y-35104D01*
X48751Y-35203D01*
X48751Y-35703D01*
X48789Y-35795D01*
X48859Y-35865D01*
X48950Y-35903D01*
X49049Y-35903D01*
X49175Y-35903D01*
X49175Y-35905D01*
X48951Y-35905D01*
X48859Y-35943D01*
X48789Y-36013D01*
X48755Y-36092D01*
X48697Y-36104D01*
X48592Y-36174D01*
X48297Y-36469D01*
X48227Y-36575D01*
X48202Y-36699D01*
X48202Y-42109D01*
X48227Y-42233D01*
X48297Y-42339D01*
X48592Y-42634D01*
X48697Y-42704D01*
X48698Y-42704D01*
X48756Y-42715D01*
X48789Y-42795D01*
X48859Y-42865D01*
X48950Y-42903D01*
X49049Y-42903D01*
X49853Y-42903D01*
X49853Y-42905D01*
X48951Y-42905D01*
X48859Y-42943D01*
X48789Y-43013D01*
X48751Y-43104D01*
X48751Y-43203D01*
X48751Y-43703D01*
X48789Y-43795D01*
X48859Y-43865D01*
X48950Y-43903D01*
X49049Y-43903D01*
X50049Y-43903D01*
X50106Y-43879D01*
X50106Y-43928D01*
X50050Y-43905D01*
X49951Y-43905D01*
X48951Y-43905D01*
X48859Y-43943D01*
X48789Y-44013D01*
X48761Y-44079D01*
X42834Y-44079D01*
X36204Y-37448D01*
X36204Y-37399D01*
X36140Y-37243D01*
X36020Y-37123D01*
X35864Y-37058D01*
X35695Y-37058D01*
X35539Y-37122D01*
X35419Y-37242D01*
X35354Y-37398D01*
X35354Y-37567D01*
X35418Y-37723D01*
X35538Y-37843D01*
X35694Y-37908D01*
X35744Y-37908D01*
X42468Y-44631D01*
X42470Y-44634D01*
X42575Y-44703D01*
X42576Y-44704D01*
X42674Y-44723D01*
X42699Y-44729D01*
X42699Y-44728D01*
X42700Y-44729D01*
X48761Y-44729D01*
X48789Y-44795D01*
X48859Y-44865D01*
X48950Y-44903D01*
X49049Y-44903D01*
X50049Y-44903D01*
X50106Y-44879D01*
X50106Y-44928D01*
X50050Y-44905D01*
X49951Y-44905D01*
X48951Y-44905D01*
X48859Y-44943D01*
X48789Y-45013D01*
X48751Y-45104D01*
X48751Y-45203D01*
X48751Y-45703D01*
X48789Y-45795D01*
X48859Y-45865D01*
X48950Y-45903D01*
X49049Y-45903D01*
X50049Y-45903D01*
X50141Y-45865D01*
X50211Y-45795D01*
X50244Y-45715D01*
X50302Y-45704D01*
X50408Y-45634D01*
X50658Y-45382D01*
X50660Y-45381D01*
X50661Y-45381D01*
X50730Y-45276D01*
X50731Y-45275D01*
X50750Y-45177D01*
X50756Y-45152D01*
X50756Y-52125D01*
X50249Y-52125D01*
X50249Y-46704D01*
X50249Y-46605D01*
X50249Y-46105D01*
X50211Y-46013D01*
X50141Y-45943D01*
X50050Y-45905D01*
X49951Y-45905D01*
X48951Y-45905D01*
X48859Y-45943D01*
X48789Y-46013D01*
X48751Y-46104D01*
X48751Y-46203D01*
X48751Y-46703D01*
X48789Y-46795D01*
X48859Y-46865D01*
X48950Y-46903D01*
X49049Y-46903D01*
X50049Y-46903D01*
X50141Y-46865D01*
X50211Y-46795D01*
X50249Y-46704D01*
X50249Y-52125D01*
X48003Y-52125D01*
X48110Y-51870D01*
X48110Y-51540D01*
X47984Y-51235D01*
X47751Y-51001D01*
X47446Y-50874D01*
X47116Y-50874D01*
X46811Y-51000D01*
X46577Y-51233D01*
X46450Y-51538D01*
X46450Y-51868D01*
X46556Y-52125D01*
X30759Y-52125D01*
X30759Y-31132D01*
X30759Y-30955D01*
X30692Y-30792D01*
X30567Y-30667D01*
X30404Y-30599D01*
X30227Y-30599D01*
X30064Y-30666D01*
X29939Y-30791D01*
X29871Y-30954D01*
X29871Y-31131D01*
X29938Y-31294D01*
X30063Y-31419D01*
X30226Y-31487D01*
X30403Y-31487D01*
X30566Y-31420D01*
X30691Y-31295D01*
X30759Y-31132D01*
X30759Y-52125D01*
X30549Y-52125D01*
X30549Y-41250D01*
X30549Y-41151D01*
X30549Y-40551D01*
X30511Y-40459D01*
X30441Y-40389D01*
X30350Y-40351D01*
X30325Y-40351D01*
X30465Y-40211D01*
X30549Y-40009D01*
X30549Y-39791D01*
X30465Y-39589D01*
X30311Y-39435D01*
X30109Y-39351D01*
X29891Y-39351D01*
X29689Y-39435D01*
X29535Y-39589D01*
X29451Y-39791D01*
X29451Y-40009D01*
X29535Y-40211D01*
X29675Y-40351D01*
X29651Y-40351D01*
X29559Y-40389D01*
X29489Y-40459D01*
X29451Y-40550D01*
X29451Y-40649D01*
X29451Y-41249D01*
X29489Y-41341D01*
X29559Y-41411D01*
X29650Y-41449D01*
X29749Y-41449D01*
X30349Y-41449D01*
X30441Y-41411D01*
X30511Y-41341D01*
X30549Y-41250D01*
X30549Y-52125D01*
X26624Y-52125D01*
X26779Y-51971D01*
X26919Y-51634D01*
X26919Y-51268D01*
X26779Y-50930D01*
X26521Y-50671D01*
X26184Y-50531D01*
X25818Y-50531D01*
X25480Y-50671D01*
X25325Y-50825D01*
X25325Y-29974D01*
X25479Y-30129D01*
X25816Y-30269D01*
X26182Y-30269D01*
X26520Y-30129D01*
X26779Y-29871D01*
X26919Y-29534D01*
X26919Y-29168D01*
X26779Y-28830D01*
X26624Y-28675D01*
X30119Y-28675D01*
X30064Y-28698D01*
X29939Y-28823D01*
X29871Y-28986D01*
X29871Y-29163D01*
X29938Y-29326D01*
X30063Y-29451D01*
X30226Y-29519D01*
X30403Y-29519D01*
X30566Y-29452D01*
X30691Y-29327D01*
X30759Y-29164D01*
X30759Y-28987D01*
X30692Y-28824D01*
X30567Y-28699D01*
X30509Y-28675D01*
X46559Y-28675D01*
X46450Y-28938D01*
X46450Y-29268D01*
X46576Y-29573D01*
X46809Y-29807D01*
X47114Y-29934D01*
X47444Y-29934D01*
X47749Y-29808D01*
X47983Y-29575D01*
X48110Y-29270D01*
X48110Y-28940D01*
X48000Y-28675D01*
X56559Y-28675D01*
X56450Y-28938D01*
X56450Y-29268D01*
X56576Y-29573D01*
X56809Y-29807D01*
X57114Y-29934D01*
X57444Y-29934D01*
X57749Y-29808D01*
X57983Y-29575D01*
X58110Y-29270D01*
X58110Y-28940D01*
X58000Y-28675D01*
X66559Y-28675D01*
X66450Y-28938D01*
X66450Y-29268D01*
X66576Y-29573D01*
X66809Y-29807D01*
X67114Y-29934D01*
X67444Y-29934D01*
X67749Y-29808D01*
X67983Y-29575D01*
X68110Y-29270D01*
X68110Y-28940D01*
X68000Y-28675D01*
X76559Y-28675D01*
X76450Y-28938D01*
X76450Y-29268D01*
X76576Y-29573D01*
X76809Y-29807D01*
X77114Y-29934D01*
X77444Y-29934D01*
X77749Y-29808D01*
X77983Y-29575D01*
X78110Y-29270D01*
X78110Y-28940D01*
X78000Y-28675D01*
X86559Y-28675D01*
X86450Y-28938D01*
X86450Y-29268D01*
X86576Y-29573D01*
X86809Y-29807D01*
X87114Y-29934D01*
X87444Y-29934D01*
X87749Y-29808D01*
X87983Y-29575D01*
X88110Y-29270D01*
X88110Y-28940D01*
X88000Y-28675D01*
X93375Y-28675D01*
X93221Y-28829D01*
X93081Y-29166D01*
X93081Y-29532D01*
X93221Y-29870D01*
X93479Y-30129D01*
X93816Y-30269D01*
X94182Y-30269D01*
X94520Y-30129D01*
X94675Y-29974D01*
X94675Y-50825D01*
X94675Y-50825D01*
G37*
G54D19*
X94675Y-50825D02*
X94521Y-50671D01*
X94184Y-50531D01*
X93818Y-50531D01*
X93480Y-50671D01*
X93221Y-50929D01*
X93081Y-51266D01*
X93081Y-51632D01*
X93221Y-51970D01*
X93375Y-52125D01*
X90503Y-52125D01*
X90503Y-43404D01*
X90503Y-37404D01*
X90478Y-37280D01*
X90408Y-37174D01*
X90302Y-37104D01*
X90250Y-37093D01*
X90250Y-34516D01*
X90250Y-34292D01*
X90249Y-34203D01*
X90249Y-34104D01*
X90211Y-34013D01*
X90141Y-33943D01*
X90049Y-33905D01*
X89612Y-33904D01*
X89550Y-33966D01*
X89550Y-34354D01*
X90188Y-34354D01*
X90250Y-34292D01*
X90250Y-34516D01*
X90188Y-34454D01*
X89550Y-34454D01*
X89550Y-34842D01*
X89612Y-34904D01*
X90049Y-34903D01*
X90141Y-34865D01*
X90211Y-34795D01*
X90249Y-34704D01*
X90249Y-34605D01*
X90250Y-34516D01*
X90250Y-37093D01*
X90243Y-37092D01*
X90211Y-37013D01*
X90141Y-36943D01*
X90050Y-36905D01*
X89951Y-36905D01*
X89147Y-36905D01*
X89147Y-36903D01*
X90049Y-36903D01*
X90141Y-36865D01*
X90211Y-36795D01*
X90249Y-36704D01*
X90249Y-36605D01*
X90249Y-36105D01*
X90211Y-36013D01*
X90141Y-35943D01*
X90050Y-35905D01*
X89951Y-35905D01*
X89147Y-35905D01*
X89147Y-35903D01*
X90049Y-35903D01*
X90141Y-35865D01*
X90211Y-35795D01*
X90249Y-35704D01*
X90249Y-35605D01*
X90249Y-35105D01*
X90211Y-35013D01*
X90141Y-34943D01*
X90050Y-34905D01*
X89951Y-34905D01*
X89450Y-34905D01*
X89450Y-34842D01*
X89450Y-34454D01*
X89450Y-34354D01*
X89450Y-33966D01*
X89388Y-33904D01*
X88951Y-33905D01*
X88859Y-33943D01*
X88789Y-34013D01*
X88751Y-34104D01*
X88751Y-34203D01*
X88750Y-34292D01*
X88812Y-34354D01*
X89450Y-34354D01*
X89450Y-34454D01*
X88812Y-34454D01*
X88750Y-34516D01*
X88751Y-34605D01*
X88751Y-34704D01*
X88789Y-34795D01*
X88859Y-34865D01*
X88951Y-34903D01*
X89388Y-34904D01*
X89450Y-34842D01*
X89450Y-34905D01*
X88951Y-34905D01*
X88859Y-34943D01*
X88789Y-35013D01*
X88755Y-35092D01*
X88698Y-35104D01*
X88592Y-35174D01*
X88522Y-35280D01*
X88497Y-35404D01*
X88497Y-36065D01*
X88522Y-36189D01*
X88592Y-36295D01*
X88701Y-36404D01*
X88592Y-36513D01*
X88522Y-36619D01*
X88497Y-36743D01*
X88497Y-42404D01*
X88522Y-42528D01*
X88592Y-42634D01*
X88698Y-42704D01*
X88756Y-42715D01*
X88789Y-42795D01*
X88859Y-42865D01*
X88950Y-42903D01*
X89049Y-42903D01*
X89853Y-42903D01*
X89853Y-42905D01*
X88951Y-42905D01*
X88859Y-42943D01*
X88792Y-43009D01*
X88743Y-43000D01*
X80582Y-43000D01*
X80582Y-37483D01*
X80581Y-37482D01*
X80582Y-37482D01*
X80576Y-37457D01*
X80557Y-37359D01*
X80556Y-37358D01*
X80487Y-37253D01*
X80484Y-37251D01*
X80408Y-37174D01*
X80302Y-37104D01*
X80250Y-37093D01*
X80250Y-34516D01*
X80250Y-34292D01*
X80249Y-34203D01*
X80249Y-34104D01*
X80211Y-34013D01*
X80141Y-33943D01*
X80049Y-33905D01*
X79612Y-33904D01*
X79550Y-33966D01*
X79550Y-34354D01*
X80188Y-34354D01*
X80250Y-34292D01*
X80250Y-34516D01*
X80188Y-34454D01*
X79550Y-34454D01*
X79550Y-34842D01*
X79612Y-34904D01*
X80049Y-34903D01*
X80141Y-34865D01*
X80211Y-34795D01*
X80249Y-34704D01*
X80249Y-34605D01*
X80250Y-34516D01*
X80250Y-37093D01*
X80243Y-37092D01*
X80211Y-37013D01*
X80141Y-36943D01*
X80050Y-36905D01*
X79951Y-36905D01*
X78951Y-36905D01*
X78859Y-36943D01*
X78789Y-37013D01*
X78755Y-37092D01*
X78698Y-37104D01*
X78592Y-37174D01*
X78590Y-37176D01*
X78434Y-37332D01*
X70565Y-37332D01*
X70408Y-37174D01*
X70302Y-37104D01*
X70243Y-37092D01*
X70211Y-37013D01*
X70141Y-36943D01*
X70050Y-36905D01*
X69951Y-36905D01*
X68951Y-36905D01*
X68859Y-36943D01*
X68845Y-36957D01*
X68845Y-36851D01*
X68859Y-36865D01*
X68950Y-36903D01*
X69049Y-36903D01*
X70049Y-36903D01*
X70141Y-36865D01*
X70211Y-36795D01*
X70249Y-36704D01*
X70249Y-36605D01*
X70249Y-36105D01*
X70211Y-36013D01*
X70141Y-35943D01*
X70050Y-35905D01*
X69951Y-35905D01*
X69147Y-35905D01*
X69147Y-35903D01*
X70049Y-35903D01*
X70141Y-35865D01*
X70211Y-35795D01*
X70238Y-35729D01*
X78497Y-35729D01*
X78497Y-36404D01*
X78522Y-36528D01*
X78592Y-36634D01*
X78698Y-36704D01*
X78756Y-36715D01*
X78789Y-36795D01*
X78859Y-36865D01*
X78950Y-36903D01*
X79049Y-36903D01*
X80049Y-36903D01*
X80141Y-36865D01*
X80211Y-36795D01*
X80249Y-36704D01*
X80249Y-36605D01*
X80249Y-36105D01*
X80211Y-36013D01*
X80141Y-35943D01*
X80050Y-35905D01*
X79951Y-35905D01*
X79147Y-35905D01*
X79147Y-35903D01*
X80049Y-35903D01*
X80141Y-35865D01*
X80211Y-35795D01*
X80249Y-35704D01*
X80249Y-35605D01*
X80249Y-35105D01*
X80211Y-35013D01*
X80141Y-34943D01*
X80050Y-34905D01*
X79951Y-34905D01*
X79450Y-34905D01*
X79450Y-34842D01*
X79450Y-34454D01*
X79450Y-34354D01*
X79450Y-33966D01*
X79388Y-33904D01*
X78951Y-33905D01*
X78859Y-33943D01*
X78789Y-34013D01*
X78751Y-34104D01*
X78751Y-34203D01*
X78750Y-34292D01*
X78812Y-34354D01*
X79450Y-34354D01*
X79450Y-34454D01*
X78812Y-34454D01*
X78750Y-34516D01*
X78751Y-34605D01*
X78751Y-34704D01*
X78789Y-34795D01*
X78859Y-34865D01*
X78951Y-34903D01*
X79388Y-34904D01*
X79450Y-34842D01*
X79450Y-34905D01*
X78951Y-34905D01*
X78859Y-34943D01*
X78789Y-35013D01*
X78761Y-35079D01*
X70250Y-35079D01*
X70250Y-34516D01*
X70250Y-34292D01*
X70249Y-34203D01*
X70249Y-34104D01*
X70211Y-34013D01*
X70141Y-33943D01*
X70049Y-33905D01*
X69612Y-33904D01*
X69550Y-33966D01*
X69550Y-34354D01*
X70188Y-34354D01*
X70250Y-34292D01*
X70250Y-34516D01*
X70188Y-34454D01*
X69550Y-34454D01*
X69550Y-34842D01*
X69612Y-34904D01*
X70049Y-34903D01*
X70141Y-34865D01*
X70211Y-34795D01*
X70249Y-34704D01*
X70249Y-34605D01*
X70250Y-34516D01*
X70250Y-35079D01*
X70238Y-35079D01*
X70211Y-35013D01*
X70141Y-34943D01*
X70050Y-34905D01*
X69951Y-34905D01*
X69450Y-34905D01*
X69450Y-34842D01*
X69450Y-34454D01*
X69450Y-34354D01*
X69450Y-33966D01*
X69388Y-33904D01*
X68951Y-33905D01*
X68859Y-33943D01*
X68789Y-34013D01*
X68751Y-34104D01*
X68751Y-34203D01*
X68750Y-34292D01*
X68812Y-34354D01*
X69450Y-34354D01*
X69450Y-34454D01*
X68812Y-34454D01*
X68750Y-34516D01*
X68751Y-34605D01*
X68751Y-34704D01*
X68789Y-34795D01*
X68859Y-34865D01*
X68951Y-34903D01*
X69388Y-34904D01*
X69450Y-34842D01*
X69450Y-34905D01*
X68951Y-34905D01*
X68859Y-34943D01*
X68789Y-35013D01*
X68755Y-35092D01*
X68698Y-35104D01*
X68592Y-35174D01*
X68522Y-35280D01*
X68497Y-35404D01*
X68497Y-36065D01*
X68522Y-36189D01*
X68543Y-36222D01*
X68520Y-36246D01*
X68448Y-36174D01*
X68342Y-36104D01*
X68218Y-36079D01*
X60250Y-36079D01*
X60250Y-34516D01*
X60250Y-34292D01*
X60249Y-34203D01*
X60249Y-34104D01*
X60211Y-34013D01*
X60141Y-33943D01*
X60049Y-33905D01*
X59612Y-33904D01*
X59550Y-33966D01*
X59550Y-34354D01*
X60188Y-34354D01*
X60250Y-34292D01*
X60250Y-34516D01*
X60188Y-34454D01*
X59550Y-34454D01*
X59550Y-34842D01*
X59612Y-34904D01*
X60049Y-34903D01*
X60141Y-34865D01*
X60211Y-34795D01*
X60249Y-34704D01*
X60249Y-34605D01*
X60250Y-34516D01*
X60250Y-36079D01*
X60249Y-36079D01*
X60249Y-35704D01*
X60249Y-35605D01*
X60249Y-35105D01*
X60211Y-35013D01*
X60141Y-34943D01*
X60050Y-34905D01*
X59951Y-34905D01*
X59450Y-34905D01*
X59450Y-34842D01*
X59450Y-34454D01*
X59450Y-34354D01*
X59450Y-33966D01*
X59388Y-33904D01*
X58951Y-33905D01*
X58859Y-33943D01*
X58789Y-34013D01*
X58751Y-34104D01*
X58751Y-34203D01*
X58750Y-34292D01*
X58812Y-34354D01*
X59450Y-34354D01*
X59450Y-34454D01*
X58812Y-34454D01*
X58750Y-34516D01*
X58751Y-34605D01*
X58751Y-34704D01*
X58789Y-34795D01*
X58859Y-34865D01*
X58951Y-34903D01*
X59388Y-34904D01*
X59450Y-34842D01*
X59450Y-34905D01*
X58951Y-34905D01*
X58859Y-34943D01*
X58789Y-35013D01*
X58751Y-35104D01*
X58751Y-35203D01*
X58751Y-35703D01*
X58789Y-35795D01*
X58859Y-35865D01*
X58950Y-35903D01*
X59049Y-35903D01*
X60049Y-35903D01*
X60141Y-35865D01*
X60211Y-35795D01*
X60249Y-35704D01*
X60249Y-36079D01*
X60238Y-36079D01*
X60211Y-36013D01*
X60141Y-35943D01*
X60050Y-35905D01*
X59951Y-35905D01*
X58951Y-35905D01*
X58859Y-35943D01*
X58789Y-36013D01*
X58755Y-36092D01*
X58698Y-36104D01*
X58592Y-36174D01*
X58522Y-36280D01*
X58497Y-36404D01*
X58497Y-37728D01*
X58522Y-37852D01*
X58592Y-37958D01*
X58751Y-38116D01*
X58751Y-38203D01*
X58750Y-38292D01*
X58812Y-38354D01*
X59400Y-38354D01*
X59450Y-38354D01*
X59550Y-38354D01*
X59550Y-38454D01*
X59550Y-38504D01*
X59550Y-38842D01*
X59612Y-38904D01*
X59853Y-38903D01*
X59853Y-38905D01*
X59450Y-38905D01*
X59450Y-38842D01*
X59450Y-38454D01*
X58812Y-38454D01*
X58750Y-38516D01*
X58751Y-38605D01*
X58751Y-38704D01*
X58789Y-38795D01*
X58859Y-38865D01*
X58951Y-38903D01*
X59388Y-38904D01*
X59450Y-38842D01*
X59450Y-38905D01*
X58951Y-38905D01*
X58859Y-38943D01*
X58789Y-39013D01*
X58755Y-39092D01*
X58698Y-39104D01*
X58592Y-39174D01*
X58522Y-39280D01*
X58497Y-39404D01*
X58497Y-45404D01*
X58522Y-45528D01*
X58592Y-45634D01*
X58698Y-45704D01*
X58756Y-45715D01*
X58789Y-45795D01*
X58859Y-45865D01*
X58950Y-45903D01*
X59049Y-45903D01*
X60049Y-45903D01*
X60141Y-45865D01*
X60211Y-45795D01*
X60249Y-45704D01*
X60249Y-45605D01*
X60249Y-45105D01*
X60211Y-45013D01*
X60141Y-44943D01*
X60050Y-44905D01*
X59951Y-44905D01*
X59147Y-44905D01*
X59147Y-44903D01*
X60049Y-44903D01*
X60141Y-44865D01*
X60211Y-44795D01*
X60249Y-44704D01*
X60249Y-44605D01*
X60249Y-44105D01*
X60211Y-44013D01*
X60141Y-43943D01*
X60050Y-43905D01*
X59951Y-43905D01*
X59147Y-43905D01*
X59147Y-43903D01*
X60049Y-43903D01*
X60141Y-43865D01*
X60211Y-43795D01*
X60244Y-43715D01*
X60302Y-43704D01*
X60408Y-43634D01*
X60672Y-43368D01*
X60674Y-43367D01*
X60675Y-43367D01*
X60744Y-43262D01*
X60745Y-43261D01*
X60770Y-43137D01*
X60770Y-37671D01*
X60745Y-37547D01*
X60744Y-37546D01*
X60675Y-37441D01*
X60672Y-37439D01*
X60408Y-37174D01*
X60302Y-37104D01*
X60243Y-37092D01*
X60211Y-37013D01*
X60141Y-36943D01*
X60050Y-36905D01*
X59951Y-36905D01*
X59147Y-36905D01*
X59147Y-36903D01*
X60049Y-36903D01*
X60141Y-36865D01*
X60211Y-36795D01*
X60238Y-36729D01*
X68083Y-36729D01*
X68195Y-36841D01*
X68195Y-38426D01*
X68220Y-38550D01*
X68290Y-38656D01*
X68732Y-39097D01*
X68698Y-39104D01*
X68592Y-39174D01*
X68522Y-39280D01*
X68497Y-39404D01*
X68497Y-45404D01*
X68522Y-45528D01*
X68592Y-45634D01*
X68698Y-45704D01*
X68756Y-45715D01*
X68789Y-45795D01*
X68859Y-45865D01*
X68950Y-45903D01*
X69049Y-45903D01*
X70049Y-45903D01*
X70141Y-45865D01*
X70211Y-45795D01*
X70249Y-45704D01*
X70249Y-45605D01*
X70249Y-45105D01*
X70211Y-45013D01*
X70141Y-44943D01*
X70050Y-44905D01*
X69951Y-44905D01*
X69147Y-44905D01*
X69147Y-44903D01*
X70049Y-44903D01*
X70141Y-44865D01*
X70211Y-44795D01*
X70249Y-44704D01*
X70249Y-44605D01*
X70249Y-44105D01*
X70211Y-44013D01*
X70141Y-43943D01*
X70050Y-43905D01*
X69951Y-43905D01*
X69147Y-43905D01*
X69147Y-43903D01*
X70049Y-43903D01*
X70141Y-43865D01*
X70211Y-43795D01*
X70244Y-43715D01*
X70302Y-43704D01*
X70408Y-43634D01*
X70658Y-43382D01*
X70660Y-43381D01*
X70661Y-43381D01*
X70730Y-43276D01*
X70731Y-43275D01*
X70750Y-43177D01*
X70756Y-43152D01*
X70755Y-43151D01*
X70756Y-43151D01*
X70756Y-37982D01*
X78569Y-37982D01*
X78693Y-37957D01*
X78799Y-37887D01*
X78839Y-37845D01*
X78859Y-37865D01*
X78950Y-37903D01*
X79049Y-37903D01*
X79932Y-37903D01*
X79932Y-37904D01*
X79612Y-37904D01*
X79550Y-37966D01*
X79550Y-38304D01*
X79550Y-38354D01*
X79550Y-38454D01*
X79550Y-38504D01*
X79550Y-38842D01*
X79612Y-38904D01*
X79932Y-38903D01*
X79932Y-38905D01*
X79450Y-38905D01*
X79450Y-38842D01*
X79450Y-38454D01*
X79450Y-38354D01*
X79450Y-37966D01*
X79388Y-37904D01*
X78951Y-37905D01*
X78859Y-37943D01*
X78789Y-38013D01*
X78751Y-38104D01*
X78751Y-38203D01*
X78750Y-38292D01*
X78812Y-38354D01*
X79450Y-38354D01*
X79450Y-38454D01*
X78812Y-38454D01*
X78750Y-38516D01*
X78751Y-38605D01*
X78751Y-38704D01*
X78789Y-38795D01*
X78859Y-38865D01*
X78951Y-38903D01*
X79388Y-38904D01*
X79450Y-38842D01*
X79450Y-38905D01*
X78951Y-38905D01*
X78859Y-38943D01*
X78789Y-39013D01*
X78755Y-39092D01*
X78698Y-39104D01*
X78592Y-39174D01*
X78522Y-39280D01*
X78497Y-39404D01*
X78497Y-45404D01*
X78522Y-45528D01*
X78592Y-45634D01*
X78698Y-45704D01*
X78756Y-45715D01*
X78789Y-45795D01*
X78859Y-45865D01*
X78950Y-45903D01*
X79049Y-45903D01*
X80049Y-45903D01*
X80141Y-45865D01*
X80211Y-45795D01*
X80249Y-45704D01*
X80249Y-45605D01*
X80249Y-45105D01*
X80211Y-45013D01*
X80141Y-44943D01*
X80050Y-44905D01*
X79951Y-44905D01*
X79147Y-44905D01*
X79147Y-44903D01*
X80049Y-44903D01*
X80141Y-44865D01*
X80211Y-44795D01*
X80249Y-44704D01*
X80249Y-44605D01*
X80249Y-44105D01*
X80211Y-44013D01*
X80141Y-43943D01*
X80050Y-43905D01*
X79951Y-43905D01*
X79147Y-43905D01*
X79147Y-43903D01*
X80049Y-43903D01*
X80141Y-43865D01*
X80211Y-43795D01*
X80244Y-43715D01*
X80302Y-43704D01*
X80383Y-43650D01*
X88616Y-43650D01*
X88617Y-43650D01*
X88697Y-43703D01*
X88698Y-43704D01*
X88756Y-43715D01*
X88789Y-43795D01*
X88859Y-43865D01*
X88950Y-43903D01*
X89049Y-43903D01*
X90049Y-43903D01*
X90141Y-43865D01*
X90211Y-43795D01*
X90244Y-43715D01*
X90302Y-43704D01*
X90408Y-43634D01*
X90478Y-43528D01*
X90503Y-43404D01*
X90503Y-52125D01*
X90249Y-52125D01*
X90249Y-46704D01*
X90249Y-46605D01*
X90249Y-46105D01*
X90249Y-45704D01*
X90249Y-45605D01*
X90249Y-45105D01*
X90249Y-44704D01*
X90249Y-44605D01*
X90249Y-44105D01*
X90211Y-44013D01*
X90141Y-43943D01*
X90050Y-43905D01*
X89951Y-43905D01*
X88951Y-43905D01*
X88859Y-43943D01*
X88789Y-44013D01*
X88751Y-44104D01*
X88751Y-44203D01*
X88751Y-44703D01*
X88789Y-44795D01*
X88859Y-44865D01*
X88950Y-44903D01*
X89049Y-44903D01*
X90049Y-44903D01*
X90141Y-44865D01*
X90211Y-44795D01*
X90249Y-44704D01*
X90249Y-45105D01*
X90211Y-45013D01*
X90141Y-44943D01*
X90050Y-44905D01*
X89951Y-44905D01*
X88951Y-44905D01*
X88859Y-44943D01*
X88789Y-45013D01*
X88751Y-45104D01*
X88751Y-45203D01*
X88751Y-45703D01*
X88789Y-45795D01*
X88859Y-45865D01*
X88950Y-45903D01*
X89049Y-45903D01*
X90049Y-45903D01*
X90141Y-45865D01*
X90211Y-45795D01*
X90249Y-45704D01*
X90249Y-46105D01*
X90211Y-46013D01*
X90141Y-45943D01*
X90050Y-45905D01*
X89951Y-45905D01*
X88951Y-45905D01*
X88859Y-45943D01*
X88789Y-46013D01*
X88751Y-46104D01*
X88751Y-46203D01*
X88751Y-46703D01*
X88789Y-46795D01*
X88859Y-46865D01*
X88950Y-46903D01*
X89049Y-46903D01*
X90049Y-46903D01*
X90141Y-46865D01*
X90211Y-46795D01*
X90249Y-46704D01*
X90249Y-52125D01*
X88003Y-52125D01*
X88110Y-51870D01*
X88110Y-51540D01*
X87984Y-51235D01*
X87751Y-51001D01*
X87446Y-50874D01*
X87116Y-50874D01*
X86811Y-51000D01*
X86577Y-51233D01*
X86450Y-51538D01*
X86450Y-51868D01*
X86556Y-52125D01*
X80249Y-52125D01*
X80249Y-46704D01*
X80249Y-46605D01*
X80249Y-46105D01*
X80211Y-46013D01*
X80141Y-45943D01*
X80050Y-45905D01*
X79951Y-45905D01*
X78951Y-45905D01*
X78859Y-45943D01*
X78789Y-46013D01*
X78751Y-46104D01*
X78751Y-46203D01*
X78751Y-46703D01*
X78789Y-46795D01*
X78859Y-46865D01*
X78950Y-46903D01*
X79049Y-46903D01*
X80049Y-46903D01*
X80141Y-46865D01*
X80211Y-46795D01*
X80249Y-46704D01*
X80249Y-52125D01*
X78003Y-52125D01*
X78110Y-51870D01*
X78110Y-51540D01*
X77984Y-51235D01*
X77751Y-51001D01*
X77446Y-50874D01*
X77116Y-50874D01*
X76811Y-51000D01*
X76577Y-51233D01*
X76450Y-51538D01*
X76450Y-51868D01*
X76556Y-52125D01*
X70249Y-52125D01*
X70249Y-46704D01*
X70249Y-46605D01*
X70249Y-46105D01*
X70211Y-46013D01*
X70141Y-45943D01*
X70050Y-45905D01*
X69951Y-45905D01*
X68951Y-45905D01*
X68859Y-45943D01*
X68789Y-46013D01*
X68751Y-46104D01*
X68751Y-46203D01*
X68751Y-46703D01*
X68789Y-46795D01*
X68859Y-46865D01*
X68950Y-46903D01*
X69049Y-46903D01*
X70049Y-46903D01*
X70141Y-46865D01*
X70211Y-46795D01*
X70249Y-46704D01*
X70249Y-52125D01*
X68003Y-52125D01*
X68110Y-51870D01*
X68110Y-51540D01*
X67984Y-51235D01*
X67751Y-51001D01*
X67446Y-50874D01*
X67116Y-50874D01*
X66811Y-51000D01*
X66577Y-51233D01*
X66450Y-51538D01*
X66450Y-51868D01*
X66556Y-52125D01*
X60249Y-52125D01*
X60249Y-46704D01*
X60249Y-46605D01*
X60249Y-46105D01*
X60211Y-46013D01*
X60141Y-45943D01*
X60050Y-45905D01*
X59951Y-45905D01*
X58951Y-45905D01*
X58859Y-45943D01*
X58789Y-46013D01*
X58751Y-46104D01*
X58751Y-46203D01*
X58751Y-46703D01*
X58789Y-46795D01*
X58859Y-46865D01*
X58950Y-46903D01*
X59049Y-46903D01*
X60049Y-46903D01*
X60141Y-46865D01*
X60211Y-46795D01*
X60249Y-46704D01*
X60249Y-52125D01*
X58003Y-52125D01*
X58110Y-51870D01*
X58110Y-51540D01*
X57984Y-51235D01*
X57751Y-51001D01*
X57446Y-50874D01*
X57116Y-50874D01*
X56811Y-51000D01*
X56577Y-51233D01*
X56450Y-51538D01*
X56450Y-51868D01*
X56556Y-52125D01*
X50756Y-52125D01*
X50756Y-45152D01*
X50755Y-45151D01*
X50756Y-45151D01*
X50756Y-39657D01*
X50755Y-39656D01*
X50756Y-39656D01*
X50750Y-39631D01*
X50731Y-39533D01*
X50730Y-39532D01*
X50661Y-39427D01*
X50658Y-39425D01*
X50408Y-39174D01*
X50302Y-39104D01*
X50250Y-39093D01*
X50250Y-38516D01*
X50250Y-38292D01*
X50250Y-34516D01*
X50250Y-34292D01*
X50249Y-34203D01*
X50249Y-34104D01*
X50211Y-34013D01*
X50141Y-33943D01*
X50049Y-33905D01*
X49612Y-33904D01*
X49550Y-33966D01*
X49550Y-34354D01*
X50188Y-34354D01*
X50250Y-34292D01*
X50250Y-34516D01*
X50188Y-34454D01*
X49550Y-34454D01*
X49550Y-34842D01*
X49612Y-34904D01*
X50049Y-34903D01*
X50141Y-34865D01*
X50211Y-34795D01*
X50249Y-34704D01*
X50249Y-34605D01*
X50250Y-34516D01*
X50250Y-38292D01*
X50249Y-38203D01*
X50249Y-38104D01*
X50211Y-38013D01*
X50141Y-37943D01*
X50049Y-37905D01*
X49612Y-37904D01*
X49550Y-37966D01*
X49550Y-38354D01*
X50188Y-38354D01*
X50250Y-38292D01*
X50250Y-38516D01*
X50188Y-38454D01*
X49550Y-38454D01*
X49550Y-38842D01*
X49612Y-38904D01*
X50049Y-38903D01*
X50141Y-38865D01*
X50211Y-38795D01*
X50249Y-38704D01*
X50249Y-38605D01*
X50250Y-38516D01*
X50250Y-39093D01*
X50243Y-39092D01*
X50211Y-39013D01*
X50141Y-38943D01*
X50050Y-38905D01*
X49951Y-38905D01*
X49147Y-38905D01*
X49147Y-38903D01*
X49388Y-38904D01*
X49450Y-38842D01*
X49450Y-38504D01*
X49450Y-38454D01*
X49450Y-38354D01*
X49450Y-38304D01*
X49450Y-37966D01*
X49388Y-37904D01*
X49147Y-37904D01*
X49147Y-37903D01*
X50049Y-37903D01*
X50141Y-37865D01*
X50211Y-37795D01*
X50249Y-37704D01*
X50249Y-37605D01*
X50249Y-37105D01*
X50211Y-37013D01*
X50141Y-36943D01*
X50050Y-36905D01*
X49951Y-36905D01*
X48951Y-36905D01*
X48859Y-36943D01*
X48852Y-36950D01*
X48852Y-36858D01*
X48859Y-36865D01*
X48950Y-36903D01*
X49049Y-36903D01*
X50049Y-36903D01*
X50141Y-36865D01*
X50211Y-36795D01*
X50249Y-36704D01*
X50249Y-36605D01*
X50249Y-36105D01*
X50211Y-36013D01*
X50141Y-35943D01*
X50050Y-35905D01*
X49951Y-35905D01*
X49825Y-35905D01*
X49825Y-35903D01*
X50049Y-35903D01*
X50141Y-35865D01*
X50211Y-35795D01*
X50249Y-35704D01*
X50249Y-35605D01*
X50249Y-35105D01*
X50211Y-35013D01*
X50141Y-34943D01*
X50050Y-34905D01*
X49951Y-34905D01*
X49450Y-34905D01*
X49450Y-34842D01*
X49450Y-34454D01*
X49450Y-34354D01*
X49450Y-33966D01*
X49388Y-33904D01*
X48951Y-33905D01*
X48859Y-33943D01*
X48789Y-34013D01*
X48751Y-34104D01*
X48751Y-34203D01*
X48750Y-34292D01*
X48812Y-34354D01*
X49450Y-34354D01*
X49450Y-34454D01*
X48812Y-34454D01*
X48750Y-34516D01*
X48751Y-34605D01*
X48751Y-34704D01*
X48789Y-34795D01*
X48859Y-34865D01*
X48951Y-34903D01*
X49388Y-34904D01*
X49450Y-34842D01*
X49450Y-34905D01*
X48951Y-34905D01*
X48859Y-34943D01*
X48789Y-35013D01*
X48751Y-35104D01*
X48751Y-35203D01*
X48751Y-35703D01*
X48789Y-35795D01*
X48859Y-35865D01*
X48950Y-35903D01*
X49049Y-35903D01*
X49175Y-35903D01*
X49175Y-35905D01*
X48951Y-35905D01*
X48859Y-35943D01*
X48789Y-36013D01*
X48755Y-36092D01*
X48697Y-36104D01*
X48592Y-36174D01*
X48297Y-36469D01*
X48227Y-36575D01*
X48202Y-36699D01*
X48202Y-42109D01*
X48227Y-42233D01*
X48297Y-42339D01*
X48592Y-42634D01*
X48697Y-42704D01*
X48698Y-42704D01*
X48756Y-42715D01*
X48789Y-42795D01*
X48859Y-42865D01*
X48950Y-42903D01*
X49049Y-42903D01*
X49853Y-42903D01*
X49853Y-42905D01*
X48951Y-42905D01*
X48859Y-42943D01*
X48789Y-43013D01*
X48751Y-43104D01*
X48751Y-43203D01*
X48751Y-43703D01*
X48789Y-43795D01*
X48859Y-43865D01*
X48950Y-43903D01*
X49049Y-43903D01*
X50049Y-43903D01*
X50106Y-43879D01*
X50106Y-43928D01*
X50050Y-43905D01*
X49951Y-43905D01*
X48951Y-43905D01*
X48859Y-43943D01*
X48789Y-44013D01*
X48761Y-44079D01*
X42834Y-44079D01*
X36204Y-37448D01*
X36204Y-37399D01*
X36140Y-37243D01*
X36020Y-37123D01*
X35864Y-37058D01*
X35695Y-37058D01*
X35539Y-37122D01*
X35419Y-37242D01*
X35354Y-37398D01*
X35354Y-37567D01*
X35418Y-37723D01*
X35538Y-37843D01*
X35694Y-37908D01*
X35744Y-37908D01*
X42468Y-44631D01*
X42470Y-44634D01*
X42575Y-44703D01*
X42576Y-44704D01*
X42674Y-44723D01*
X42699Y-44729D01*
X42699Y-44728D01*
X42700Y-44729D01*
X48761Y-44729D01*
X48789Y-44795D01*
X48859Y-44865D01*
X48950Y-44903D01*
X49049Y-44903D01*
X50049Y-44903D01*
X50106Y-44879D01*
X50106Y-44928D01*
X50050Y-44905D01*
X49951Y-44905D01*
X48951Y-44905D01*
X48859Y-44943D01*
X48789Y-45013D01*
X48751Y-45104D01*
X48751Y-45203D01*
X48751Y-45703D01*
X48789Y-45795D01*
X48859Y-45865D01*
X48950Y-45903D01*
X49049Y-45903D01*
X50049Y-45903D01*
X50141Y-45865D01*
X50211Y-45795D01*
X50244Y-45715D01*
X50302Y-45704D01*
X50408Y-45634D01*
X50658Y-45382D01*
X50660Y-45381D01*
X50661Y-45381D01*
X50730Y-45276D01*
X50731Y-45275D01*
X50750Y-45177D01*
X50756Y-45152D01*
X50756Y-52125D01*
X50249Y-52125D01*
X50249Y-46704D01*
X50249Y-46605D01*
X50249Y-46105D01*
X50211Y-46013D01*
X50141Y-45943D01*
X50050Y-45905D01*
X49951Y-45905D01*
X48951Y-45905D01*
X48859Y-45943D01*
X48789Y-46013D01*
X48751Y-46104D01*
X48751Y-46203D01*
X48751Y-46703D01*
X48789Y-46795D01*
X48859Y-46865D01*
X48950Y-46903D01*
X49049Y-46903D01*
X50049Y-46903D01*
X50141Y-46865D01*
X50211Y-46795D01*
X50249Y-46704D01*
X50249Y-52125D01*
X48003Y-52125D01*
X48110Y-51870D01*
X48110Y-51540D01*
X47984Y-51235D01*
X47751Y-51001D01*
X47446Y-50874D01*
X47116Y-50874D01*
X46811Y-51000D01*
X46577Y-51233D01*
X46450Y-51538D01*
X46450Y-51868D01*
X46556Y-52125D01*
X30759Y-52125D01*
X30759Y-31132D01*
X30759Y-30955D01*
X30692Y-30792D01*
X30567Y-30667D01*
X30404Y-30599D01*
X30227Y-30599D01*
X30064Y-30666D01*
X29939Y-30791D01*
X29871Y-30954D01*
X29871Y-31131D01*
X29938Y-31294D01*
X30063Y-31419D01*
X30226Y-31487D01*
X30403Y-31487D01*
X30566Y-31420D01*
X30691Y-31295D01*
X30759Y-31132D01*
X30759Y-52125D01*
X30549Y-52125D01*
X30549Y-41250D01*
X30549Y-41151D01*
X30549Y-40551D01*
X30511Y-40459D01*
X30441Y-40389D01*
X30350Y-40351D01*
X30325Y-40351D01*
X30465Y-40211D01*
X30549Y-40009D01*
X30549Y-39791D01*
X30465Y-39589D01*
X30311Y-39435D01*
X30109Y-39351D01*
X29891Y-39351D01*
X29689Y-39435D01*
X29535Y-39589D01*
X29451Y-39791D01*
X29451Y-40009D01*
X29535Y-40211D01*
X29675Y-40351D01*
X29651Y-40351D01*
X29559Y-40389D01*
X29489Y-40459D01*
X29451Y-40550D01*
X29451Y-40649D01*
X29451Y-41249D01*
X29489Y-41341D01*
X29559Y-41411D01*
X29650Y-41449D01*
X29749Y-41449D01*
X30349Y-41449D01*
X30441Y-41411D01*
X30511Y-41341D01*
X30549Y-41250D01*
X30549Y-52125D01*
X26624Y-52125D01*
X26779Y-51971D01*
X26919Y-51634D01*
X26919Y-51268D01*
X26779Y-50930D01*
X26521Y-50671D01*
X26184Y-50531D01*
X25818Y-50531D01*
X25480Y-50671D01*
X25325Y-50825D01*
X25325Y-29974D01*
X25479Y-30129D01*
X25816Y-30269D01*
X26182Y-30269D01*
X26520Y-30129D01*
X26779Y-29871D01*
X26919Y-29534D01*
X26919Y-29168D01*
X26779Y-28830D01*
X26624Y-28675D01*
X30119Y-28675D01*
X30064Y-28698D01*
X29939Y-28823D01*
X29871Y-28986D01*
X29871Y-29163D01*
X29938Y-29326D01*
X30063Y-29451D01*
X30226Y-29519D01*
X30403Y-29519D01*
X30566Y-29452D01*
X30691Y-29327D01*
X30759Y-29164D01*
X30759Y-28987D01*
X30692Y-28824D01*
X30567Y-28699D01*
X30509Y-28675D01*
X46559Y-28675D01*
X46450Y-28938D01*
X46450Y-29268D01*
X46576Y-29573D01*
X46809Y-29807D01*
X47114Y-29934D01*
X47444Y-29934D01*
X47749Y-29808D01*
X47983Y-29575D01*
X48110Y-29270D01*
X48110Y-28940D01*
X48000Y-28675D01*
X56559Y-28675D01*
X56450Y-28938D01*
X56450Y-29268D01*
X56576Y-29573D01*
X56809Y-29807D01*
X57114Y-29934D01*
X57444Y-29934D01*
X57749Y-29808D01*
X57983Y-29575D01*
X58110Y-29270D01*
X58110Y-28940D01*
X58000Y-28675D01*
X66559Y-28675D01*
X66450Y-28938D01*
X66450Y-29268D01*
X66576Y-29573D01*
X66809Y-29807D01*
X67114Y-29934D01*
X67444Y-29934D01*
X67749Y-29808D01*
X67983Y-29575D01*
X68110Y-29270D01*
X68110Y-28940D01*
X68000Y-28675D01*
X76559Y-28675D01*
X76450Y-28938D01*
X76450Y-29268D01*
X76576Y-29573D01*
X76809Y-29807D01*
X77114Y-29934D01*
X77444Y-29934D01*
X77749Y-29808D01*
X77983Y-29575D01*
X78110Y-29270D01*
X78110Y-28940D01*
X78000Y-28675D01*
X86559Y-28675D01*
X86450Y-28938D01*
X86450Y-29268D01*
X86576Y-29573D01*
X86809Y-29807D01*
X87114Y-29934D01*
X87444Y-29934D01*
X87749Y-29808D01*
X87983Y-29575D01*
X88110Y-29270D01*
X88110Y-28940D01*
X88000Y-28675D01*
X93375Y-28675D01*
X93221Y-28829D01*
X93081Y-29166D01*
X93081Y-29532D01*
X93221Y-29870D01*
X93479Y-30129D01*
X93816Y-30269D01*
X94182Y-30269D01*
X94520Y-30129D01*
X94675Y-29974D01*
X94675Y-50825D01*
M02*
