G04 (created by PCBNEW-RS274X (2011-05-25)-stable) date Fri 12 Oct 2012 09:19:42 AM PDT*
G01*
G70*
G90*
%MOIN*%
G04 Gerber Fmt 3.4, Leading zero omitted, Abs format*
%FSLAX34Y34*%
G04 APERTURE LIST*
%ADD10C,0.006000*%
%ADD11C,0.133900*%
%ADD12R,0.100000X0.050000*%
%ADD13C,0.116000*%
%ADD14C,0.039000*%
%ADD15R,0.045000X0.025000*%
%ADD16R,0.060000X0.060000*%
%ADD17C,0.060000*%
%ADD18C,0.035000*%
%ADD19C,0.015000*%
%ADD20C,0.010000*%
G04 APERTURE END LIST*
G54D10*
G54D11*
X77185Y-41717D03*
X57185Y-41717D03*
X37234Y-41717D03*
X37234Y-13008D03*
X57185Y-13008D03*
X77185Y-13008D03*
G54D12*
X84185Y-21362D03*
X84185Y-22362D03*
X84185Y-23362D03*
X84185Y-24362D03*
X84185Y-25362D03*
X84185Y-26362D03*
X84185Y-27362D03*
X84185Y-28362D03*
X84185Y-29362D03*
X84185Y-30362D03*
X84185Y-31362D03*
X84185Y-32362D03*
X84185Y-33362D03*
G54D13*
X81965Y-16062D03*
X81965Y-38662D03*
G54D12*
X74185Y-21362D03*
X74185Y-22362D03*
X74185Y-23362D03*
X74185Y-24362D03*
X74185Y-25362D03*
X74185Y-26362D03*
X74185Y-27362D03*
X74185Y-28362D03*
X74185Y-29362D03*
X74185Y-30362D03*
X74185Y-31362D03*
X74185Y-32362D03*
X74185Y-33362D03*
G54D13*
X71965Y-16062D03*
X71965Y-38662D03*
G54D12*
X64185Y-21362D03*
X64185Y-22362D03*
X64185Y-23362D03*
X64185Y-24362D03*
X64185Y-25362D03*
X64185Y-26362D03*
X64185Y-27362D03*
X64185Y-28362D03*
X64185Y-29362D03*
X64185Y-30362D03*
X64185Y-31362D03*
X64185Y-32362D03*
X64185Y-33362D03*
G54D13*
X61965Y-16062D03*
X61965Y-38662D03*
G54D12*
X44185Y-21362D03*
X44185Y-22362D03*
X44185Y-23362D03*
X44185Y-24362D03*
X44185Y-25362D03*
X44185Y-26362D03*
X44185Y-27362D03*
X44185Y-28362D03*
X44185Y-29362D03*
X44185Y-30362D03*
X44185Y-31362D03*
X44185Y-32362D03*
X44185Y-33362D03*
G54D13*
X41965Y-16062D03*
X41965Y-38662D03*
G54D14*
X24803Y-12736D03*
X24803Y-14704D03*
G54D15*
X46085Y-33187D03*
X46085Y-33787D03*
X66085Y-33187D03*
X66085Y-33787D03*
X76085Y-33187D03*
X76085Y-33787D03*
X86085Y-33187D03*
X86085Y-33787D03*
G54D16*
X23622Y-28256D03*
G54D17*
X23622Y-27256D03*
G54D11*
X20685Y-16354D03*
X20685Y-38370D03*
X88685Y-38370D03*
X88685Y-16354D03*
G54D12*
X54185Y-21362D03*
X54185Y-22362D03*
X54185Y-23362D03*
X54185Y-24362D03*
X54185Y-25362D03*
X54185Y-26362D03*
X54185Y-27362D03*
X54185Y-28362D03*
X54185Y-29362D03*
X54185Y-30362D03*
X54185Y-31362D03*
X54185Y-32362D03*
X54185Y-33362D03*
G54D13*
X51965Y-16062D03*
X51965Y-38662D03*
G54D15*
X56085Y-33187D03*
X56085Y-33787D03*
G54D18*
X32936Y-22059D03*
X36113Y-22652D03*
X31546Y-24304D03*
G54D19*
X44863Y-32362D02*
X44863Y-26362D01*
X44185Y-32362D02*
X44863Y-32362D01*
X44185Y-26362D02*
X44863Y-26362D01*
X54863Y-32362D02*
X54863Y-26362D01*
X54185Y-32362D02*
X54863Y-32362D01*
X54185Y-26362D02*
X54863Y-26362D01*
X64863Y-32362D02*
X64863Y-26362D01*
X64185Y-32362D02*
X64863Y-32362D01*
X64185Y-26362D02*
X64863Y-26362D01*
X73507Y-32362D02*
X73507Y-26362D01*
X74185Y-32362D02*
X73507Y-32362D01*
X74185Y-26362D02*
X73507Y-26362D01*
X83507Y-32362D02*
X83507Y-26362D01*
X84185Y-32362D02*
X83507Y-32362D01*
X84185Y-26362D02*
X83507Y-26362D01*
X43507Y-30362D02*
X43507Y-24362D01*
X44185Y-30362D02*
X43507Y-30362D01*
X44185Y-24362D02*
X43507Y-24362D01*
X63507Y-30362D02*
X63507Y-24362D01*
X64185Y-30362D02*
X63507Y-30362D01*
X64185Y-24362D02*
X63507Y-24362D01*
X84863Y-30362D02*
X84863Y-24362D01*
X84185Y-30362D02*
X84863Y-30362D01*
X84185Y-24362D02*
X84863Y-24362D01*
X63507Y-24362D02*
X54185Y-24362D01*
X53507Y-24362D02*
X53507Y-30362D01*
X54185Y-24362D02*
X53507Y-24362D01*
X54185Y-30362D02*
X53507Y-30362D01*
X74863Y-23362D02*
X74863Y-22362D01*
X74185Y-23362D02*
X74863Y-23362D01*
X74185Y-22362D02*
X74863Y-22362D01*
X74185Y-29362D02*
X74863Y-29362D01*
X74863Y-29362D02*
X74863Y-23362D01*
X84185Y-23362D02*
X83507Y-23362D01*
X74863Y-23362D02*
X83507Y-23362D01*
X42239Y-31362D02*
X44185Y-31362D01*
X32936Y-22059D02*
X42239Y-31362D01*
X52515Y-31362D02*
X54185Y-31362D01*
X45073Y-23920D02*
X52515Y-31362D01*
X37381Y-23920D02*
X45073Y-23920D01*
X36113Y-22652D02*
X37381Y-23920D01*
X59609Y-31362D02*
X64185Y-31362D01*
X58132Y-32839D02*
X59609Y-31362D01*
X40081Y-32839D02*
X58132Y-32839D01*
X31546Y-24304D02*
X40081Y-32839D01*
X85038Y-33187D02*
X84863Y-33362D01*
X86085Y-33187D02*
X85038Y-33187D01*
X84185Y-33362D02*
X84863Y-33362D01*
X74185Y-33362D02*
X74863Y-33362D01*
X64185Y-33362D02*
X64863Y-33362D01*
X44185Y-33362D02*
X44863Y-33362D01*
X45038Y-33187D02*
X46085Y-33187D01*
X44863Y-33362D02*
X45038Y-33187D01*
X53332Y-33187D02*
X53507Y-33362D01*
X46085Y-33187D02*
X53332Y-33187D01*
X54185Y-33362D02*
X53507Y-33362D01*
X54185Y-33362D02*
X54863Y-33362D01*
X55038Y-33187D02*
X56085Y-33187D01*
X54863Y-33362D02*
X55038Y-33187D01*
X63332Y-33187D02*
X63507Y-33362D01*
X56085Y-33187D02*
X63332Y-33187D01*
X64185Y-33362D02*
X63507Y-33362D01*
X65038Y-33187D02*
X66085Y-33187D01*
X64863Y-33362D02*
X65038Y-33187D01*
X73332Y-33187D02*
X73507Y-33362D01*
X66085Y-33187D02*
X73332Y-33187D01*
X74185Y-33362D02*
X73507Y-33362D01*
X75038Y-33187D02*
X76085Y-33187D01*
X74863Y-33362D02*
X75038Y-33187D01*
X83332Y-33187D02*
X83507Y-33362D01*
X76085Y-33187D02*
X83332Y-33187D01*
X84185Y-33362D02*
X83507Y-33362D01*
X74185Y-28362D02*
X74185Y-27362D01*
X84185Y-28362D02*
X84185Y-27362D01*
X64185Y-28362D02*
X64185Y-27362D01*
X44185Y-28362D02*
X44185Y-27362D01*
X54185Y-28362D02*
X54185Y-27362D01*
G54D10*
G36*
X54538Y-31863D02*
X53636Y-31863D01*
X53544Y-31901D01*
X53474Y-31971D01*
X53436Y-32062D01*
X53436Y-32161D01*
X53436Y-32514D01*
X45144Y-32514D01*
X45163Y-32486D01*
X45188Y-32362D01*
X45188Y-26362D01*
X45163Y-26238D01*
X45093Y-26132D01*
X44987Y-26062D01*
X44935Y-26051D01*
X44935Y-25474D01*
X44935Y-25250D01*
X44934Y-25161D01*
X44934Y-25062D01*
X44896Y-24971D01*
X44826Y-24901D01*
X44734Y-24863D01*
X44297Y-24862D01*
X44235Y-24924D01*
X44235Y-25312D01*
X44873Y-25312D01*
X44935Y-25250D01*
X44935Y-25474D01*
X44873Y-25412D01*
X44235Y-25412D01*
X44235Y-25800D01*
X44297Y-25862D01*
X44734Y-25861D01*
X44826Y-25823D01*
X44896Y-25753D01*
X44934Y-25662D01*
X44934Y-25563D01*
X44935Y-25474D01*
X44935Y-26051D01*
X44928Y-26050D01*
X44896Y-25971D01*
X44826Y-25901D01*
X44735Y-25863D01*
X44636Y-25863D01*
X43832Y-25863D01*
X43832Y-25861D01*
X44073Y-25862D01*
X44135Y-25800D01*
X44135Y-25462D01*
X44135Y-25412D01*
X44135Y-25312D01*
X44135Y-25262D01*
X44135Y-24924D01*
X44073Y-24862D01*
X43832Y-24862D01*
X43832Y-24861D01*
X44734Y-24861D01*
X44826Y-24823D01*
X44896Y-24753D01*
X44934Y-24662D01*
X44934Y-24563D01*
X44934Y-24245D01*
X44938Y-24245D01*
X52283Y-31589D01*
X52285Y-31592D01*
X52390Y-31661D01*
X52391Y-31662D01*
X52515Y-31687D01*
X53446Y-31687D01*
X53474Y-31753D01*
X53544Y-31823D01*
X53635Y-31861D01*
X53734Y-31861D01*
X54538Y-31861D01*
X54538Y-31863D01*
X54538Y-31863D01*
G37*
G54D20*
X54538Y-31863D02*
X53636Y-31863D01*
X53544Y-31901D01*
X53474Y-31971D01*
X53436Y-32062D01*
X53436Y-32161D01*
X53436Y-32514D01*
X45144Y-32514D01*
X45163Y-32486D01*
X45188Y-32362D01*
X45188Y-26362D01*
X45163Y-26238D01*
X45093Y-26132D01*
X44987Y-26062D01*
X44935Y-26051D01*
X44935Y-25474D01*
X44935Y-25250D01*
X44934Y-25161D01*
X44934Y-25062D01*
X44896Y-24971D01*
X44826Y-24901D01*
X44734Y-24863D01*
X44297Y-24862D01*
X44235Y-24924D01*
X44235Y-25312D01*
X44873Y-25312D01*
X44935Y-25250D01*
X44935Y-25474D01*
X44873Y-25412D01*
X44235Y-25412D01*
X44235Y-25800D01*
X44297Y-25862D01*
X44734Y-25861D01*
X44826Y-25823D01*
X44896Y-25753D01*
X44934Y-25662D01*
X44934Y-25563D01*
X44935Y-25474D01*
X44935Y-26051D01*
X44928Y-26050D01*
X44896Y-25971D01*
X44826Y-25901D01*
X44735Y-25863D01*
X44636Y-25863D01*
X43832Y-25863D01*
X43832Y-25861D01*
X44073Y-25862D01*
X44135Y-25800D01*
X44135Y-25462D01*
X44135Y-25412D01*
X44135Y-25312D01*
X44135Y-25262D01*
X44135Y-24924D01*
X44073Y-24862D01*
X43832Y-24862D01*
X43832Y-24861D01*
X44734Y-24861D01*
X44826Y-24823D01*
X44896Y-24753D01*
X44934Y-24662D01*
X44934Y-24563D01*
X44934Y-24245D01*
X44938Y-24245D01*
X52283Y-31589D01*
X52285Y-31592D01*
X52390Y-31661D01*
X52391Y-31662D01*
X52515Y-31687D01*
X53446Y-31687D01*
X53474Y-31753D01*
X53544Y-31823D01*
X53635Y-31861D01*
X53734Y-31861D01*
X54538Y-31861D01*
X54538Y-31863D01*
G54D10*
G36*
X64538Y-30863D02*
X63636Y-30863D01*
X63544Y-30901D01*
X63474Y-30971D01*
X63446Y-31037D01*
X59609Y-31037D01*
X59608Y-31037D01*
X59583Y-31042D01*
X59485Y-31062D01*
X59379Y-31132D01*
X59377Y-31134D01*
X57997Y-32514D01*
X55144Y-32514D01*
X55163Y-32486D01*
X55188Y-32362D01*
X55188Y-26362D01*
X55163Y-26238D01*
X55093Y-26132D01*
X54987Y-26062D01*
X54935Y-26051D01*
X54935Y-25474D01*
X54935Y-25250D01*
X54934Y-25161D01*
X54934Y-25062D01*
X54896Y-24971D01*
X54826Y-24901D01*
X54734Y-24863D01*
X54297Y-24862D01*
X54235Y-24924D01*
X54235Y-25312D01*
X54873Y-25312D01*
X54935Y-25250D01*
X54935Y-25474D01*
X54873Y-25412D01*
X54235Y-25412D01*
X54235Y-25800D01*
X54297Y-25862D01*
X54734Y-25861D01*
X54826Y-25823D01*
X54896Y-25753D01*
X54934Y-25662D01*
X54934Y-25563D01*
X54935Y-25474D01*
X54935Y-26051D01*
X54928Y-26050D01*
X54896Y-25971D01*
X54826Y-25901D01*
X54735Y-25863D01*
X54636Y-25863D01*
X53832Y-25863D01*
X53832Y-25861D01*
X54073Y-25862D01*
X54135Y-25800D01*
X54135Y-25462D01*
X54135Y-25412D01*
X54135Y-25312D01*
X54135Y-25262D01*
X54135Y-24924D01*
X54073Y-24862D01*
X53832Y-24862D01*
X53832Y-24861D01*
X54734Y-24861D01*
X54826Y-24823D01*
X54896Y-24753D01*
X54923Y-24687D01*
X63182Y-24687D01*
X63182Y-30362D01*
X63207Y-30486D01*
X63277Y-30592D01*
X63383Y-30662D01*
X63441Y-30673D01*
X63474Y-30753D01*
X63544Y-30823D01*
X63635Y-30861D01*
X63734Y-30861D01*
X64538Y-30861D01*
X64538Y-30863D01*
X64538Y-30863D01*
G37*
G54D20*
X64538Y-30863D02*
X63636Y-30863D01*
X63544Y-30901D01*
X63474Y-30971D01*
X63446Y-31037D01*
X59609Y-31037D01*
X59608Y-31037D01*
X59583Y-31042D01*
X59485Y-31062D01*
X59379Y-31132D01*
X59377Y-31134D01*
X57997Y-32514D01*
X55144Y-32514D01*
X55163Y-32486D01*
X55188Y-32362D01*
X55188Y-26362D01*
X55163Y-26238D01*
X55093Y-26132D01*
X54987Y-26062D01*
X54935Y-26051D01*
X54935Y-25474D01*
X54935Y-25250D01*
X54934Y-25161D01*
X54934Y-25062D01*
X54896Y-24971D01*
X54826Y-24901D01*
X54734Y-24863D01*
X54297Y-24862D01*
X54235Y-24924D01*
X54235Y-25312D01*
X54873Y-25312D01*
X54935Y-25250D01*
X54935Y-25474D01*
X54873Y-25412D01*
X54235Y-25412D01*
X54235Y-25800D01*
X54297Y-25862D01*
X54734Y-25861D01*
X54826Y-25823D01*
X54896Y-25753D01*
X54934Y-25662D01*
X54934Y-25563D01*
X54935Y-25474D01*
X54935Y-26051D01*
X54928Y-26050D01*
X54896Y-25971D01*
X54826Y-25901D01*
X54735Y-25863D01*
X54636Y-25863D01*
X53832Y-25863D01*
X53832Y-25861D01*
X54073Y-25862D01*
X54135Y-25800D01*
X54135Y-25462D01*
X54135Y-25412D01*
X54135Y-25312D01*
X54135Y-25262D01*
X54135Y-24924D01*
X54073Y-24862D01*
X53832Y-24862D01*
X53832Y-24861D01*
X54734Y-24861D01*
X54826Y-24823D01*
X54896Y-24753D01*
X54923Y-24687D01*
X63182Y-24687D01*
X63182Y-30362D01*
X63207Y-30486D01*
X63277Y-30592D01*
X63383Y-30662D01*
X63441Y-30673D01*
X63474Y-30753D01*
X63544Y-30823D01*
X63635Y-30861D01*
X63734Y-30861D01*
X64538Y-30861D01*
X64538Y-30863D01*
G54D10*
G36*
X89360Y-42392D02*
X86560Y-42392D01*
X86560Y-33899D01*
X86560Y-33675D01*
X86559Y-33613D01*
X86521Y-33521D01*
X86487Y-33487D01*
X86521Y-33453D01*
X86559Y-33362D01*
X86559Y-33263D01*
X86559Y-33013D01*
X86521Y-32921D01*
X86451Y-32851D01*
X86360Y-32813D01*
X86261Y-32813D01*
X85811Y-32813D01*
X85719Y-32851D01*
X85708Y-32862D01*
X85188Y-32862D01*
X85188Y-30362D01*
X85188Y-24362D01*
X85163Y-24238D01*
X85093Y-24132D01*
X84987Y-24062D01*
X84935Y-24051D01*
X84935Y-21474D01*
X84935Y-21250D01*
X84934Y-21161D01*
X84934Y-21062D01*
X84896Y-20971D01*
X84826Y-20901D01*
X84734Y-20863D01*
X84297Y-20862D01*
X84235Y-20924D01*
X84235Y-21312D01*
X84873Y-21312D01*
X84935Y-21250D01*
X84935Y-21474D01*
X84873Y-21412D01*
X84235Y-21412D01*
X84235Y-21800D01*
X84297Y-21862D01*
X84734Y-21861D01*
X84826Y-21823D01*
X84896Y-21753D01*
X84934Y-21662D01*
X84934Y-21563D01*
X84935Y-21474D01*
X84935Y-24051D01*
X84934Y-24051D01*
X84934Y-23662D01*
X84934Y-23563D01*
X84934Y-23063D01*
X84934Y-22662D01*
X84934Y-22563D01*
X84934Y-22063D01*
X84896Y-21971D01*
X84826Y-21901D01*
X84735Y-21863D01*
X84636Y-21863D01*
X84135Y-21863D01*
X84135Y-21800D01*
X84135Y-21412D01*
X84135Y-21312D01*
X84135Y-20924D01*
X84073Y-20862D01*
X83636Y-20863D01*
X83544Y-20901D01*
X83474Y-20971D01*
X83436Y-21062D01*
X83436Y-21161D01*
X83435Y-21250D01*
X83497Y-21312D01*
X84135Y-21312D01*
X84135Y-21412D01*
X83497Y-21412D01*
X83435Y-21474D01*
X83436Y-21563D01*
X83436Y-21662D01*
X83474Y-21753D01*
X83544Y-21823D01*
X83636Y-21861D01*
X84073Y-21862D01*
X84135Y-21800D01*
X84135Y-21863D01*
X83636Y-21863D01*
X83544Y-21901D01*
X83474Y-21971D01*
X83436Y-22062D01*
X83436Y-22161D01*
X83436Y-22661D01*
X83474Y-22753D01*
X83544Y-22823D01*
X83635Y-22861D01*
X83734Y-22861D01*
X84734Y-22861D01*
X84826Y-22823D01*
X84896Y-22753D01*
X84934Y-22662D01*
X84934Y-23063D01*
X84896Y-22971D01*
X84826Y-22901D01*
X84735Y-22863D01*
X84636Y-22863D01*
X83636Y-22863D01*
X83544Y-22901D01*
X83474Y-22971D01*
X83446Y-23037D01*
X82795Y-23037D01*
X82795Y-16228D01*
X82795Y-15898D01*
X82669Y-15593D01*
X82436Y-15359D01*
X82131Y-15232D01*
X81801Y-15232D01*
X81496Y-15358D01*
X81262Y-15591D01*
X81135Y-15896D01*
X81135Y-16226D01*
X81261Y-16531D01*
X81494Y-16765D01*
X81799Y-16892D01*
X82129Y-16892D01*
X82434Y-16766D01*
X82668Y-16533D01*
X82795Y-16228D01*
X82795Y-23037D01*
X75188Y-23037D01*
X75188Y-22362D01*
X75163Y-22238D01*
X75093Y-22132D01*
X74987Y-22062D01*
X74935Y-22051D01*
X74935Y-21474D01*
X74935Y-21250D01*
X74934Y-21161D01*
X74934Y-21062D01*
X74896Y-20971D01*
X74826Y-20901D01*
X74734Y-20863D01*
X74297Y-20862D01*
X74235Y-20924D01*
X74235Y-21312D01*
X74873Y-21312D01*
X74935Y-21250D01*
X74935Y-21474D01*
X74873Y-21412D01*
X74235Y-21412D01*
X74235Y-21800D01*
X74297Y-21862D01*
X74734Y-21861D01*
X74826Y-21823D01*
X74896Y-21753D01*
X74934Y-21662D01*
X74934Y-21563D01*
X74935Y-21474D01*
X74935Y-22051D01*
X74928Y-22050D01*
X74896Y-21971D01*
X74826Y-21901D01*
X74735Y-21863D01*
X74636Y-21863D01*
X74135Y-21863D01*
X74135Y-21800D01*
X74135Y-21412D01*
X74135Y-21312D01*
X74135Y-20924D01*
X74073Y-20862D01*
X73636Y-20863D01*
X73544Y-20901D01*
X73474Y-20971D01*
X73436Y-21062D01*
X73436Y-21161D01*
X73435Y-21250D01*
X73497Y-21312D01*
X74135Y-21312D01*
X74135Y-21412D01*
X73497Y-21412D01*
X73435Y-21474D01*
X73436Y-21563D01*
X73436Y-21662D01*
X73474Y-21753D01*
X73544Y-21823D01*
X73636Y-21861D01*
X74073Y-21862D01*
X74135Y-21800D01*
X74135Y-21863D01*
X73636Y-21863D01*
X73544Y-21901D01*
X73474Y-21971D01*
X73436Y-22062D01*
X73436Y-22161D01*
X73436Y-22661D01*
X73474Y-22753D01*
X73544Y-22823D01*
X73635Y-22861D01*
X73734Y-22861D01*
X74538Y-22861D01*
X74538Y-22863D01*
X73636Y-22863D01*
X73544Y-22901D01*
X73474Y-22971D01*
X73436Y-23062D01*
X73436Y-23161D01*
X73436Y-23661D01*
X73474Y-23753D01*
X73544Y-23823D01*
X73635Y-23861D01*
X73734Y-23861D01*
X74538Y-23861D01*
X74538Y-23863D01*
X73636Y-23863D01*
X73544Y-23901D01*
X73474Y-23971D01*
X73436Y-24062D01*
X73436Y-24161D01*
X73436Y-24661D01*
X73474Y-24753D01*
X73544Y-24823D01*
X73635Y-24861D01*
X73734Y-24861D01*
X74538Y-24861D01*
X74538Y-24862D01*
X74297Y-24862D01*
X74235Y-24924D01*
X74235Y-25262D01*
X74235Y-25312D01*
X74235Y-25412D01*
X74235Y-25462D01*
X74235Y-25800D01*
X74297Y-25862D01*
X74538Y-25861D01*
X74538Y-25863D01*
X74135Y-25863D01*
X74135Y-25800D01*
X74135Y-25412D01*
X74135Y-25312D01*
X74135Y-24924D01*
X74073Y-24862D01*
X73636Y-24863D01*
X73544Y-24901D01*
X73474Y-24971D01*
X73436Y-25062D01*
X73436Y-25161D01*
X73435Y-25250D01*
X73497Y-25312D01*
X74135Y-25312D01*
X74135Y-25412D01*
X73497Y-25412D01*
X73435Y-25474D01*
X73436Y-25563D01*
X73436Y-25662D01*
X73474Y-25753D01*
X73544Y-25823D01*
X73636Y-25861D01*
X74073Y-25862D01*
X74135Y-25800D01*
X74135Y-25863D01*
X73636Y-25863D01*
X73544Y-25901D01*
X73474Y-25971D01*
X73440Y-26050D01*
X73383Y-26062D01*
X73277Y-26132D01*
X73207Y-26238D01*
X73182Y-26362D01*
X73182Y-32362D01*
X73207Y-32486D01*
X73277Y-32592D01*
X73383Y-32662D01*
X73441Y-32673D01*
X73474Y-32753D01*
X73544Y-32823D01*
X73635Y-32861D01*
X73734Y-32861D01*
X74734Y-32861D01*
X74826Y-32823D01*
X74896Y-32753D01*
X74934Y-32662D01*
X74934Y-32563D01*
X74934Y-32063D01*
X74896Y-31971D01*
X74826Y-31901D01*
X74735Y-31863D01*
X74636Y-31863D01*
X73832Y-31863D01*
X73832Y-31861D01*
X74734Y-31861D01*
X74826Y-31823D01*
X74896Y-31753D01*
X74934Y-31662D01*
X74934Y-31563D01*
X74934Y-31063D01*
X74896Y-30971D01*
X74826Y-30901D01*
X74735Y-30863D01*
X74636Y-30863D01*
X73832Y-30863D01*
X73832Y-30861D01*
X74734Y-30861D01*
X74826Y-30823D01*
X74896Y-30753D01*
X74934Y-30662D01*
X74934Y-30563D01*
X74934Y-30063D01*
X74896Y-29971D01*
X74826Y-29901D01*
X74735Y-29863D01*
X74636Y-29863D01*
X73832Y-29863D01*
X73832Y-29861D01*
X74734Y-29861D01*
X74826Y-29823D01*
X74896Y-29753D01*
X74929Y-29673D01*
X74987Y-29662D01*
X75093Y-29592D01*
X75163Y-29486D01*
X75188Y-29362D01*
X75188Y-23687D01*
X83446Y-23687D01*
X83474Y-23753D01*
X83544Y-23823D01*
X83635Y-23861D01*
X83734Y-23861D01*
X84734Y-23861D01*
X84826Y-23823D01*
X84896Y-23753D01*
X84934Y-23662D01*
X84934Y-24051D01*
X84928Y-24050D01*
X84896Y-23971D01*
X84826Y-23901D01*
X84735Y-23863D01*
X84636Y-23863D01*
X83636Y-23863D01*
X83544Y-23901D01*
X83474Y-23971D01*
X83436Y-24062D01*
X83436Y-24161D01*
X83436Y-24661D01*
X83474Y-24753D01*
X83544Y-24823D01*
X83635Y-24861D01*
X83734Y-24861D01*
X84538Y-24861D01*
X84538Y-24862D01*
X84297Y-24862D01*
X84235Y-24924D01*
X84235Y-25262D01*
X84235Y-25312D01*
X84235Y-25412D01*
X84235Y-25462D01*
X84235Y-25800D01*
X84297Y-25862D01*
X84538Y-25861D01*
X84538Y-25863D01*
X84135Y-25863D01*
X84135Y-25800D01*
X84135Y-25412D01*
X84135Y-25312D01*
X84135Y-24924D01*
X84073Y-24862D01*
X83636Y-24863D01*
X83544Y-24901D01*
X83474Y-24971D01*
X83436Y-25062D01*
X83436Y-25161D01*
X83435Y-25250D01*
X83497Y-25312D01*
X84135Y-25312D01*
X84135Y-25412D01*
X83497Y-25412D01*
X83435Y-25474D01*
X83436Y-25563D01*
X83436Y-25662D01*
X83474Y-25753D01*
X83544Y-25823D01*
X83636Y-25861D01*
X84073Y-25862D01*
X84135Y-25800D01*
X84135Y-25863D01*
X83636Y-25863D01*
X83544Y-25901D01*
X83474Y-25971D01*
X83440Y-26050D01*
X83383Y-26062D01*
X83277Y-26132D01*
X83207Y-26238D01*
X83182Y-26362D01*
X83182Y-32362D01*
X83207Y-32486D01*
X83277Y-32592D01*
X83383Y-32662D01*
X83441Y-32673D01*
X83474Y-32753D01*
X83544Y-32823D01*
X83635Y-32861D01*
X83734Y-32861D01*
X84734Y-32861D01*
X84826Y-32823D01*
X84896Y-32753D01*
X84934Y-32662D01*
X84934Y-32563D01*
X84934Y-32063D01*
X84896Y-31971D01*
X84826Y-31901D01*
X84735Y-31863D01*
X84636Y-31863D01*
X83832Y-31863D01*
X83832Y-31861D01*
X84734Y-31861D01*
X84826Y-31823D01*
X84896Y-31753D01*
X84934Y-31662D01*
X84934Y-31563D01*
X84934Y-31063D01*
X84896Y-30971D01*
X84826Y-30901D01*
X84735Y-30863D01*
X84636Y-30863D01*
X83832Y-30863D01*
X83832Y-30861D01*
X84734Y-30861D01*
X84826Y-30823D01*
X84896Y-30753D01*
X84929Y-30673D01*
X84987Y-30662D01*
X85093Y-30592D01*
X85163Y-30486D01*
X85188Y-30362D01*
X85188Y-32862D01*
X85038Y-32862D01*
X84914Y-32887D01*
X84852Y-32927D01*
X84826Y-32901D01*
X84735Y-32863D01*
X84636Y-32863D01*
X83636Y-32863D01*
X83544Y-32901D01*
X83517Y-32927D01*
X83456Y-32887D01*
X83332Y-32862D01*
X76462Y-32862D01*
X76451Y-32851D01*
X76360Y-32813D01*
X76261Y-32813D01*
X75811Y-32813D01*
X75719Y-32851D01*
X75708Y-32862D01*
X75038Y-32862D01*
X74914Y-32887D01*
X74852Y-32927D01*
X74826Y-32901D01*
X74735Y-32863D01*
X74636Y-32863D01*
X73636Y-32863D01*
X73544Y-32901D01*
X73517Y-32927D01*
X73456Y-32887D01*
X73332Y-32862D01*
X72795Y-32862D01*
X72795Y-16228D01*
X72795Y-15898D01*
X72669Y-15593D01*
X72436Y-15359D01*
X72131Y-15232D01*
X71801Y-15232D01*
X71496Y-15358D01*
X71262Y-15591D01*
X71135Y-15896D01*
X71135Y-16226D01*
X71261Y-16531D01*
X71494Y-16765D01*
X71799Y-16892D01*
X72129Y-16892D01*
X72434Y-16766D01*
X72668Y-16533D01*
X72795Y-16228D01*
X72795Y-32862D01*
X66462Y-32862D01*
X66451Y-32851D01*
X66360Y-32813D01*
X66261Y-32813D01*
X65811Y-32813D01*
X65719Y-32851D01*
X65708Y-32862D01*
X65038Y-32862D01*
X64914Y-32887D01*
X64852Y-32927D01*
X64826Y-32901D01*
X64735Y-32863D01*
X64636Y-32863D01*
X63636Y-32863D01*
X63544Y-32901D01*
X63517Y-32927D01*
X63456Y-32887D01*
X63332Y-32862D01*
X58568Y-32862D01*
X59743Y-31687D01*
X63446Y-31687D01*
X63474Y-31753D01*
X63544Y-31823D01*
X63635Y-31861D01*
X63734Y-31861D01*
X64538Y-31861D01*
X64538Y-31863D01*
X63636Y-31863D01*
X63544Y-31901D01*
X63474Y-31971D01*
X63436Y-32062D01*
X63436Y-32161D01*
X63436Y-32661D01*
X63474Y-32753D01*
X63544Y-32823D01*
X63635Y-32861D01*
X63734Y-32861D01*
X64734Y-32861D01*
X64826Y-32823D01*
X64896Y-32753D01*
X64929Y-32673D01*
X64987Y-32662D01*
X65093Y-32592D01*
X65163Y-32486D01*
X65188Y-32362D01*
X65188Y-26362D01*
X65163Y-26238D01*
X65093Y-26132D01*
X64987Y-26062D01*
X64935Y-26051D01*
X64935Y-25474D01*
X64935Y-25250D01*
X64935Y-21474D01*
X64935Y-21250D01*
X64934Y-21161D01*
X64934Y-21062D01*
X64896Y-20971D01*
X64826Y-20901D01*
X64734Y-20863D01*
X64297Y-20862D01*
X64235Y-20924D01*
X64235Y-21312D01*
X64873Y-21312D01*
X64935Y-21250D01*
X64935Y-21474D01*
X64873Y-21412D01*
X64235Y-21412D01*
X64235Y-21800D01*
X64297Y-21862D01*
X64734Y-21861D01*
X64826Y-21823D01*
X64896Y-21753D01*
X64934Y-21662D01*
X64934Y-21563D01*
X64935Y-21474D01*
X64935Y-25250D01*
X64934Y-25161D01*
X64934Y-25062D01*
X64896Y-24971D01*
X64826Y-24901D01*
X64734Y-24863D01*
X64297Y-24862D01*
X64235Y-24924D01*
X64235Y-25312D01*
X64873Y-25312D01*
X64935Y-25250D01*
X64935Y-25474D01*
X64873Y-25412D01*
X64235Y-25412D01*
X64235Y-25800D01*
X64297Y-25862D01*
X64734Y-25861D01*
X64826Y-25823D01*
X64896Y-25753D01*
X64934Y-25662D01*
X64934Y-25563D01*
X64935Y-25474D01*
X64935Y-26051D01*
X64928Y-26050D01*
X64896Y-25971D01*
X64826Y-25901D01*
X64735Y-25863D01*
X64636Y-25863D01*
X63832Y-25863D01*
X63832Y-25861D01*
X64073Y-25862D01*
X64135Y-25800D01*
X64135Y-25462D01*
X64135Y-25412D01*
X64135Y-25312D01*
X64135Y-25262D01*
X64135Y-24924D01*
X64073Y-24862D01*
X63832Y-24862D01*
X63832Y-24861D01*
X64734Y-24861D01*
X64826Y-24823D01*
X64896Y-24753D01*
X64934Y-24662D01*
X64934Y-24563D01*
X64934Y-24063D01*
X64934Y-23662D01*
X64934Y-23563D01*
X64934Y-23063D01*
X64934Y-22662D01*
X64934Y-22563D01*
X64934Y-22063D01*
X64896Y-21971D01*
X64826Y-21901D01*
X64735Y-21863D01*
X64636Y-21863D01*
X64135Y-21863D01*
X64135Y-21800D01*
X64135Y-21412D01*
X64135Y-21312D01*
X64135Y-20924D01*
X64073Y-20862D01*
X63636Y-20863D01*
X63544Y-20901D01*
X63474Y-20971D01*
X63436Y-21062D01*
X63436Y-21161D01*
X63435Y-21250D01*
X63497Y-21312D01*
X64135Y-21312D01*
X64135Y-21412D01*
X63497Y-21412D01*
X63435Y-21474D01*
X63436Y-21563D01*
X63436Y-21662D01*
X63474Y-21753D01*
X63544Y-21823D01*
X63636Y-21861D01*
X64073Y-21862D01*
X64135Y-21800D01*
X64135Y-21863D01*
X63636Y-21863D01*
X63544Y-21901D01*
X63474Y-21971D01*
X63436Y-22062D01*
X63436Y-22161D01*
X63436Y-22661D01*
X63474Y-22753D01*
X63544Y-22823D01*
X63635Y-22861D01*
X63734Y-22861D01*
X64734Y-22861D01*
X64826Y-22823D01*
X64896Y-22753D01*
X64934Y-22662D01*
X64934Y-23063D01*
X64896Y-22971D01*
X64826Y-22901D01*
X64735Y-22863D01*
X64636Y-22863D01*
X63636Y-22863D01*
X63544Y-22901D01*
X63474Y-22971D01*
X63436Y-23062D01*
X63436Y-23161D01*
X63436Y-23661D01*
X63474Y-23753D01*
X63544Y-23823D01*
X63635Y-23861D01*
X63734Y-23861D01*
X64734Y-23861D01*
X64826Y-23823D01*
X64896Y-23753D01*
X64934Y-23662D01*
X64934Y-24063D01*
X64896Y-23971D01*
X64826Y-23901D01*
X64735Y-23863D01*
X64636Y-23863D01*
X63636Y-23863D01*
X63544Y-23901D01*
X63474Y-23971D01*
X63446Y-24037D01*
X62795Y-24037D01*
X62795Y-16228D01*
X62795Y-15898D01*
X62669Y-15593D01*
X62436Y-15359D01*
X62131Y-15232D01*
X61801Y-15232D01*
X61496Y-15358D01*
X61262Y-15591D01*
X61135Y-15896D01*
X61135Y-16226D01*
X61261Y-16531D01*
X61494Y-16765D01*
X61799Y-16892D01*
X62129Y-16892D01*
X62434Y-16766D01*
X62668Y-16533D01*
X62795Y-16228D01*
X62795Y-24037D01*
X54935Y-24037D01*
X54935Y-21474D01*
X54935Y-21250D01*
X54934Y-21161D01*
X54934Y-21062D01*
X54896Y-20971D01*
X54826Y-20901D01*
X54734Y-20863D01*
X54297Y-20862D01*
X54235Y-20924D01*
X54235Y-21312D01*
X54873Y-21312D01*
X54935Y-21250D01*
X54935Y-21474D01*
X54873Y-21412D01*
X54235Y-21412D01*
X54235Y-21800D01*
X54297Y-21862D01*
X54734Y-21861D01*
X54826Y-21823D01*
X54896Y-21753D01*
X54934Y-21662D01*
X54934Y-21563D01*
X54935Y-21474D01*
X54935Y-24037D01*
X54934Y-24037D01*
X54934Y-23662D01*
X54934Y-23563D01*
X54934Y-23063D01*
X54934Y-22662D01*
X54934Y-22563D01*
X54934Y-22063D01*
X54896Y-21971D01*
X54826Y-21901D01*
X54735Y-21863D01*
X54636Y-21863D01*
X54135Y-21863D01*
X54135Y-21800D01*
X54135Y-21412D01*
X54135Y-21312D01*
X54135Y-20924D01*
X54073Y-20862D01*
X53636Y-20863D01*
X53544Y-20901D01*
X53474Y-20971D01*
X53436Y-21062D01*
X53436Y-21161D01*
X53435Y-21250D01*
X53497Y-21312D01*
X54135Y-21312D01*
X54135Y-21412D01*
X53497Y-21412D01*
X53435Y-21474D01*
X53436Y-21563D01*
X53436Y-21662D01*
X53474Y-21753D01*
X53544Y-21823D01*
X53636Y-21861D01*
X54073Y-21862D01*
X54135Y-21800D01*
X54135Y-21863D01*
X53636Y-21863D01*
X53544Y-21901D01*
X53474Y-21971D01*
X53436Y-22062D01*
X53436Y-22161D01*
X53436Y-22661D01*
X53474Y-22753D01*
X53544Y-22823D01*
X53635Y-22861D01*
X53734Y-22861D01*
X54734Y-22861D01*
X54826Y-22823D01*
X54896Y-22753D01*
X54934Y-22662D01*
X54934Y-23063D01*
X54896Y-22971D01*
X54826Y-22901D01*
X54735Y-22863D01*
X54636Y-22863D01*
X53636Y-22863D01*
X53544Y-22901D01*
X53474Y-22971D01*
X53436Y-23062D01*
X53436Y-23161D01*
X53436Y-23661D01*
X53474Y-23753D01*
X53544Y-23823D01*
X53635Y-23861D01*
X53734Y-23861D01*
X54734Y-23861D01*
X54826Y-23823D01*
X54896Y-23753D01*
X54934Y-23662D01*
X54934Y-24037D01*
X54923Y-24037D01*
X54896Y-23971D01*
X54826Y-23901D01*
X54735Y-23863D01*
X54636Y-23863D01*
X53636Y-23863D01*
X53544Y-23901D01*
X53474Y-23971D01*
X53440Y-24050D01*
X53383Y-24062D01*
X53277Y-24132D01*
X53207Y-24238D01*
X53182Y-24362D01*
X53182Y-30362D01*
X53207Y-30486D01*
X53277Y-30592D01*
X53383Y-30662D01*
X53441Y-30673D01*
X53474Y-30753D01*
X53544Y-30823D01*
X53635Y-30861D01*
X53734Y-30861D01*
X54538Y-30861D01*
X54538Y-30863D01*
X53636Y-30863D01*
X53544Y-30901D01*
X53474Y-30971D01*
X53446Y-31037D01*
X52795Y-31037D01*
X52795Y-16228D01*
X52795Y-15898D01*
X52669Y-15593D01*
X52436Y-15359D01*
X52131Y-15232D01*
X51801Y-15232D01*
X51496Y-15358D01*
X51262Y-15591D01*
X51135Y-15896D01*
X51135Y-16226D01*
X51261Y-16531D01*
X51494Y-16765D01*
X51799Y-16892D01*
X52129Y-16892D01*
X52434Y-16766D01*
X52668Y-16533D01*
X52795Y-16228D01*
X52795Y-31037D01*
X52649Y-31037D01*
X45303Y-23690D01*
X45197Y-23620D01*
X45073Y-23595D01*
X44935Y-23595D01*
X44935Y-21474D01*
X44935Y-21250D01*
X44934Y-21161D01*
X44934Y-21062D01*
X44896Y-20971D01*
X44826Y-20901D01*
X44734Y-20863D01*
X44297Y-20862D01*
X44235Y-20924D01*
X44235Y-21312D01*
X44873Y-21312D01*
X44935Y-21250D01*
X44935Y-21474D01*
X44873Y-21412D01*
X44235Y-21412D01*
X44235Y-21800D01*
X44297Y-21862D01*
X44734Y-21861D01*
X44826Y-21823D01*
X44896Y-21753D01*
X44934Y-21662D01*
X44934Y-21563D01*
X44935Y-21474D01*
X44935Y-23595D01*
X44934Y-23595D01*
X44934Y-23563D01*
X44934Y-23063D01*
X44934Y-22662D01*
X44934Y-22563D01*
X44934Y-22063D01*
X44896Y-21971D01*
X44826Y-21901D01*
X44735Y-21863D01*
X44636Y-21863D01*
X44135Y-21863D01*
X44135Y-21800D01*
X44135Y-21412D01*
X44135Y-21312D01*
X44135Y-20924D01*
X44073Y-20862D01*
X43636Y-20863D01*
X43544Y-20901D01*
X43474Y-20971D01*
X43436Y-21062D01*
X43436Y-21161D01*
X43435Y-21250D01*
X43497Y-21312D01*
X44135Y-21312D01*
X44135Y-21412D01*
X43497Y-21412D01*
X43435Y-21474D01*
X43436Y-21563D01*
X43436Y-21662D01*
X43474Y-21753D01*
X43544Y-21823D01*
X43636Y-21861D01*
X44073Y-21862D01*
X44135Y-21800D01*
X44135Y-21863D01*
X43636Y-21863D01*
X43544Y-21901D01*
X43474Y-21971D01*
X43436Y-22062D01*
X43436Y-22161D01*
X43436Y-22661D01*
X43474Y-22753D01*
X43544Y-22823D01*
X43635Y-22861D01*
X43734Y-22861D01*
X44734Y-22861D01*
X44826Y-22823D01*
X44896Y-22753D01*
X44934Y-22662D01*
X44934Y-23063D01*
X44896Y-22971D01*
X44826Y-22901D01*
X44735Y-22863D01*
X44636Y-22863D01*
X43636Y-22863D01*
X43544Y-22901D01*
X43474Y-22971D01*
X43436Y-23062D01*
X43436Y-23161D01*
X43436Y-23595D01*
X42795Y-23595D01*
X42795Y-16228D01*
X42795Y-15898D01*
X42669Y-15593D01*
X42436Y-15359D01*
X42131Y-15232D01*
X41801Y-15232D01*
X41496Y-15358D01*
X41262Y-15591D01*
X41135Y-15896D01*
X41135Y-16226D01*
X41261Y-16531D01*
X41494Y-16765D01*
X41799Y-16892D01*
X42129Y-16892D01*
X42434Y-16766D01*
X42668Y-16533D01*
X42795Y-16228D01*
X42795Y-23595D01*
X37516Y-23595D01*
X36538Y-22617D01*
X36538Y-22568D01*
X36474Y-22412D01*
X36354Y-22292D01*
X36198Y-22227D01*
X36029Y-22227D01*
X35873Y-22291D01*
X35753Y-22411D01*
X35688Y-22567D01*
X35688Y-22736D01*
X35752Y-22892D01*
X35872Y-23012D01*
X36028Y-23077D01*
X36078Y-23077D01*
X37151Y-24150D01*
X37256Y-24220D01*
X37257Y-24220D01*
X37381Y-24245D01*
X43205Y-24245D01*
X43182Y-24362D01*
X43182Y-30362D01*
X43207Y-30486D01*
X43277Y-30592D01*
X43383Y-30662D01*
X43441Y-30673D01*
X43474Y-30753D01*
X43544Y-30823D01*
X43635Y-30861D01*
X43734Y-30861D01*
X44538Y-30861D01*
X44538Y-30863D01*
X43636Y-30863D01*
X43544Y-30901D01*
X43474Y-30971D01*
X43446Y-31037D01*
X42374Y-31037D01*
X33361Y-22024D01*
X33361Y-21975D01*
X33297Y-21819D01*
X33177Y-21699D01*
X33021Y-21634D01*
X32852Y-21634D01*
X32696Y-21698D01*
X32576Y-21818D01*
X32511Y-21974D01*
X32511Y-22143D01*
X32575Y-22299D01*
X32695Y-22419D01*
X32851Y-22484D01*
X32901Y-22484D01*
X42009Y-31592D01*
X42114Y-31662D01*
X42115Y-31662D01*
X42239Y-31687D01*
X43446Y-31687D01*
X43474Y-31753D01*
X43544Y-31823D01*
X43635Y-31861D01*
X43734Y-31861D01*
X44538Y-31861D01*
X44538Y-31863D01*
X43636Y-31863D01*
X43544Y-31901D01*
X43474Y-31971D01*
X43436Y-32062D01*
X43436Y-32161D01*
X43436Y-32514D01*
X40216Y-32514D01*
X31971Y-24269D01*
X31971Y-24220D01*
X31907Y-24064D01*
X31787Y-23944D01*
X31631Y-23879D01*
X31462Y-23879D01*
X31306Y-23943D01*
X31186Y-24063D01*
X31121Y-24219D01*
X31121Y-24388D01*
X31185Y-24544D01*
X31305Y-24664D01*
X31461Y-24729D01*
X31511Y-24729D01*
X39851Y-33069D01*
X39956Y-33139D01*
X39957Y-33139D01*
X40081Y-33164D01*
X43436Y-33164D01*
X43436Y-33661D01*
X43474Y-33753D01*
X43544Y-33823D01*
X43635Y-33861D01*
X43734Y-33861D01*
X44734Y-33861D01*
X44826Y-33823D01*
X44896Y-33753D01*
X44929Y-33673D01*
X44987Y-33662D01*
X45093Y-33592D01*
X45172Y-33512D01*
X45658Y-33512D01*
X45649Y-33521D01*
X45611Y-33613D01*
X45610Y-33675D01*
X45672Y-33737D01*
X45985Y-33737D01*
X46035Y-33737D01*
X46135Y-33737D01*
X46185Y-33737D01*
X46498Y-33737D01*
X46560Y-33675D01*
X46559Y-33613D01*
X46521Y-33521D01*
X46512Y-33512D01*
X53197Y-33512D01*
X53275Y-33589D01*
X53277Y-33592D01*
X53382Y-33661D01*
X53383Y-33662D01*
X53441Y-33673D01*
X53474Y-33753D01*
X53544Y-33823D01*
X53635Y-33861D01*
X53734Y-33861D01*
X54734Y-33861D01*
X54826Y-33823D01*
X54896Y-33753D01*
X54929Y-33673D01*
X54987Y-33662D01*
X55093Y-33592D01*
X55172Y-33512D01*
X55658Y-33512D01*
X55649Y-33521D01*
X55611Y-33613D01*
X55610Y-33675D01*
X55672Y-33737D01*
X55985Y-33737D01*
X56035Y-33737D01*
X56135Y-33737D01*
X56185Y-33737D01*
X56498Y-33737D01*
X56560Y-33675D01*
X56559Y-33613D01*
X56521Y-33521D01*
X56512Y-33512D01*
X63197Y-33512D01*
X63275Y-33589D01*
X63277Y-33592D01*
X63382Y-33661D01*
X63383Y-33662D01*
X63441Y-33673D01*
X63474Y-33753D01*
X63544Y-33823D01*
X63635Y-33861D01*
X63734Y-33861D01*
X64734Y-33861D01*
X64826Y-33823D01*
X64896Y-33753D01*
X64929Y-33673D01*
X64987Y-33662D01*
X65093Y-33592D01*
X65172Y-33512D01*
X65658Y-33512D01*
X65649Y-33521D01*
X65611Y-33613D01*
X65610Y-33675D01*
X65672Y-33737D01*
X65985Y-33737D01*
X66035Y-33737D01*
X66135Y-33737D01*
X66185Y-33737D01*
X66498Y-33737D01*
X66560Y-33675D01*
X66559Y-33613D01*
X66521Y-33521D01*
X66512Y-33512D01*
X73197Y-33512D01*
X73275Y-33589D01*
X73277Y-33592D01*
X73382Y-33661D01*
X73383Y-33662D01*
X73441Y-33673D01*
X73474Y-33753D01*
X73544Y-33823D01*
X73635Y-33861D01*
X73734Y-33861D01*
X74734Y-33861D01*
X74826Y-33823D01*
X74896Y-33753D01*
X74929Y-33673D01*
X74987Y-33662D01*
X75093Y-33592D01*
X75172Y-33512D01*
X75658Y-33512D01*
X75649Y-33521D01*
X75611Y-33613D01*
X75610Y-33675D01*
X75672Y-33737D01*
X75985Y-33737D01*
X76035Y-33737D01*
X76135Y-33737D01*
X76185Y-33737D01*
X76498Y-33737D01*
X76560Y-33675D01*
X76559Y-33613D01*
X76521Y-33521D01*
X76512Y-33512D01*
X83197Y-33512D01*
X83275Y-33589D01*
X83277Y-33592D01*
X83382Y-33661D01*
X83383Y-33662D01*
X83441Y-33673D01*
X83474Y-33753D01*
X83544Y-33823D01*
X83635Y-33861D01*
X83734Y-33861D01*
X84734Y-33861D01*
X84826Y-33823D01*
X84896Y-33753D01*
X84929Y-33673D01*
X84987Y-33662D01*
X85093Y-33592D01*
X85172Y-33512D01*
X85658Y-33512D01*
X85649Y-33521D01*
X85611Y-33613D01*
X85610Y-33675D01*
X85672Y-33737D01*
X85985Y-33737D01*
X86035Y-33737D01*
X86135Y-33737D01*
X86185Y-33737D01*
X86498Y-33737D01*
X86560Y-33675D01*
X86560Y-33899D01*
X86498Y-33837D01*
X86135Y-33837D01*
X86135Y-34100D01*
X86197Y-34162D01*
X86261Y-34161D01*
X86360Y-34161D01*
X86451Y-34123D01*
X86521Y-34053D01*
X86559Y-33961D01*
X86560Y-33899D01*
X86560Y-42392D01*
X86035Y-42392D01*
X86035Y-34100D01*
X86035Y-33837D01*
X85672Y-33837D01*
X85610Y-33899D01*
X85611Y-33961D01*
X85649Y-34053D01*
X85719Y-34123D01*
X85810Y-34161D01*
X85909Y-34161D01*
X85973Y-34162D01*
X86035Y-34100D01*
X86035Y-42392D01*
X82795Y-42392D01*
X82795Y-38828D01*
X82795Y-38498D01*
X82669Y-38193D01*
X82436Y-37959D01*
X82131Y-37832D01*
X81801Y-37832D01*
X81496Y-37958D01*
X81262Y-38191D01*
X81135Y-38496D01*
X81135Y-38826D01*
X81261Y-39131D01*
X81494Y-39365D01*
X81799Y-39492D01*
X82129Y-39492D01*
X82434Y-39366D01*
X82668Y-39133D01*
X82795Y-38828D01*
X82795Y-42392D01*
X77809Y-42392D01*
X77964Y-42238D01*
X78104Y-41901D01*
X78104Y-41535D01*
X77964Y-41197D01*
X77706Y-40938D01*
X77369Y-40798D01*
X77003Y-40798D01*
X76665Y-40938D01*
X76560Y-41042D01*
X76560Y-33899D01*
X76498Y-33837D01*
X76135Y-33837D01*
X76135Y-34100D01*
X76197Y-34162D01*
X76261Y-34161D01*
X76360Y-34161D01*
X76451Y-34123D01*
X76521Y-34053D01*
X76559Y-33961D01*
X76560Y-33899D01*
X76560Y-41042D01*
X76406Y-41196D01*
X76266Y-41533D01*
X76266Y-41899D01*
X76406Y-42237D01*
X76560Y-42392D01*
X76035Y-42392D01*
X76035Y-34100D01*
X76035Y-33837D01*
X75672Y-33837D01*
X75610Y-33899D01*
X75611Y-33961D01*
X75649Y-34053D01*
X75719Y-34123D01*
X75810Y-34161D01*
X75909Y-34161D01*
X75973Y-34162D01*
X76035Y-34100D01*
X76035Y-42392D01*
X72795Y-42392D01*
X72795Y-38828D01*
X72795Y-38498D01*
X72669Y-38193D01*
X72436Y-37959D01*
X72131Y-37832D01*
X71801Y-37832D01*
X71496Y-37958D01*
X71262Y-38191D01*
X71135Y-38496D01*
X71135Y-38826D01*
X71261Y-39131D01*
X71494Y-39365D01*
X71799Y-39492D01*
X72129Y-39492D01*
X72434Y-39366D01*
X72668Y-39133D01*
X72795Y-38828D01*
X72795Y-42392D01*
X66560Y-42392D01*
X66560Y-33899D01*
X66498Y-33837D01*
X66135Y-33837D01*
X66135Y-34100D01*
X66197Y-34162D01*
X66261Y-34161D01*
X66360Y-34161D01*
X66451Y-34123D01*
X66521Y-34053D01*
X66559Y-33961D01*
X66560Y-33899D01*
X66560Y-42392D01*
X66035Y-42392D01*
X66035Y-34100D01*
X66035Y-33837D01*
X65672Y-33837D01*
X65610Y-33899D01*
X65611Y-33961D01*
X65649Y-34053D01*
X65719Y-34123D01*
X65810Y-34161D01*
X65909Y-34161D01*
X65973Y-34162D01*
X66035Y-34100D01*
X66035Y-42392D01*
X62795Y-42392D01*
X62795Y-38828D01*
X62795Y-38498D01*
X62669Y-38193D01*
X62436Y-37959D01*
X62131Y-37832D01*
X61801Y-37832D01*
X61496Y-37958D01*
X61262Y-38191D01*
X61135Y-38496D01*
X61135Y-38826D01*
X61261Y-39131D01*
X61494Y-39365D01*
X61799Y-39492D01*
X62129Y-39492D01*
X62434Y-39366D01*
X62668Y-39133D01*
X62795Y-38828D01*
X62795Y-42392D01*
X57809Y-42392D01*
X57964Y-42238D01*
X58104Y-41901D01*
X58104Y-41535D01*
X57964Y-41197D01*
X57706Y-40938D01*
X57369Y-40798D01*
X57003Y-40798D01*
X56665Y-40938D01*
X56560Y-41042D01*
X56560Y-33899D01*
X56498Y-33837D01*
X56135Y-33837D01*
X56135Y-34100D01*
X56197Y-34162D01*
X56261Y-34161D01*
X56360Y-34161D01*
X56451Y-34123D01*
X56521Y-34053D01*
X56559Y-33961D01*
X56560Y-33899D01*
X56560Y-41042D01*
X56406Y-41196D01*
X56266Y-41533D01*
X56266Y-41899D01*
X56406Y-42237D01*
X56560Y-42392D01*
X56035Y-42392D01*
X56035Y-34100D01*
X56035Y-33837D01*
X55672Y-33837D01*
X55610Y-33899D01*
X55611Y-33961D01*
X55649Y-34053D01*
X55719Y-34123D01*
X55810Y-34161D01*
X55909Y-34161D01*
X55973Y-34162D01*
X56035Y-34100D01*
X56035Y-42392D01*
X52795Y-42392D01*
X52795Y-38828D01*
X52795Y-38498D01*
X52669Y-38193D01*
X52436Y-37959D01*
X52131Y-37832D01*
X51801Y-37832D01*
X51496Y-37958D01*
X51262Y-38191D01*
X51135Y-38496D01*
X51135Y-38826D01*
X51261Y-39131D01*
X51494Y-39365D01*
X51799Y-39492D01*
X52129Y-39492D01*
X52434Y-39366D01*
X52668Y-39133D01*
X52795Y-38828D01*
X52795Y-42392D01*
X46560Y-42392D01*
X46560Y-33899D01*
X46498Y-33837D01*
X46135Y-33837D01*
X46135Y-34100D01*
X46197Y-34162D01*
X46261Y-34161D01*
X46360Y-34161D01*
X46451Y-34123D01*
X46521Y-34053D01*
X46559Y-33961D01*
X46560Y-33899D01*
X46560Y-42392D01*
X46035Y-42392D01*
X46035Y-34100D01*
X46035Y-33837D01*
X45672Y-33837D01*
X45610Y-33899D01*
X45611Y-33961D01*
X45649Y-34053D01*
X45719Y-34123D01*
X45810Y-34161D01*
X45909Y-34161D01*
X45973Y-34162D01*
X46035Y-34100D01*
X46035Y-42392D01*
X42795Y-42392D01*
X42795Y-38828D01*
X42795Y-38498D01*
X42669Y-38193D01*
X42436Y-37959D01*
X42131Y-37832D01*
X41801Y-37832D01*
X41496Y-37958D01*
X41262Y-38191D01*
X41135Y-38496D01*
X41135Y-38826D01*
X41261Y-39131D01*
X41494Y-39365D01*
X41799Y-39492D01*
X42129Y-39492D01*
X42434Y-39366D01*
X42668Y-39133D01*
X42795Y-38828D01*
X42795Y-42392D01*
X37858Y-42392D01*
X38013Y-42238D01*
X38153Y-41901D01*
X38153Y-41535D01*
X38013Y-41197D01*
X37755Y-40938D01*
X37418Y-40798D01*
X37052Y-40798D01*
X36714Y-40938D01*
X36455Y-41196D01*
X36315Y-41533D01*
X36315Y-41899D01*
X36455Y-42237D01*
X36609Y-42392D01*
X25247Y-42392D01*
X25247Y-14793D01*
X25247Y-14616D01*
X25180Y-14453D01*
X25055Y-14328D01*
X24892Y-14260D01*
X24715Y-14260D01*
X24552Y-14327D01*
X24427Y-14452D01*
X24359Y-14615D01*
X24359Y-14792D01*
X24426Y-14955D01*
X24551Y-15080D01*
X24714Y-15148D01*
X24891Y-15148D01*
X25054Y-15081D01*
X25179Y-14956D01*
X25247Y-14793D01*
X25247Y-42392D01*
X24171Y-42392D01*
X24171Y-28606D01*
X24171Y-28507D01*
X24171Y-27907D01*
X24133Y-27815D01*
X24063Y-27745D01*
X23972Y-27707D01*
X23947Y-27707D01*
X24087Y-27567D01*
X24171Y-27365D01*
X24171Y-27147D01*
X24087Y-26945D01*
X23933Y-26791D01*
X23731Y-26707D01*
X23513Y-26707D01*
X23311Y-26791D01*
X23157Y-26945D01*
X23073Y-27147D01*
X23073Y-27365D01*
X23157Y-27567D01*
X23297Y-27707D01*
X23273Y-27707D01*
X23181Y-27745D01*
X23111Y-27815D01*
X23073Y-27906D01*
X23073Y-28005D01*
X23073Y-28605D01*
X23111Y-28697D01*
X23181Y-28767D01*
X23272Y-28805D01*
X23371Y-28805D01*
X23971Y-28805D01*
X24063Y-28767D01*
X24133Y-28697D01*
X24171Y-28606D01*
X24171Y-42392D01*
X20010Y-42392D01*
X20010Y-38994D01*
X20164Y-39149D01*
X20501Y-39289D01*
X20867Y-39289D01*
X21205Y-39149D01*
X21464Y-38891D01*
X21604Y-38554D01*
X21604Y-38188D01*
X21464Y-37850D01*
X21206Y-37591D01*
X20869Y-37451D01*
X20503Y-37451D01*
X20165Y-37591D01*
X20010Y-37745D01*
X20010Y-16978D01*
X20164Y-17133D01*
X20501Y-17273D01*
X20867Y-17273D01*
X21205Y-17133D01*
X21464Y-16875D01*
X21604Y-16538D01*
X21604Y-16172D01*
X21464Y-15834D01*
X21206Y-15575D01*
X20869Y-15435D01*
X20503Y-15435D01*
X20165Y-15575D01*
X20010Y-15729D01*
X20010Y-12333D01*
X24615Y-12333D01*
X24552Y-12359D01*
X24427Y-12484D01*
X24359Y-12647D01*
X24359Y-12824D01*
X24426Y-12987D01*
X24551Y-13112D01*
X24714Y-13180D01*
X24891Y-13180D01*
X25054Y-13113D01*
X25179Y-12988D01*
X25247Y-12825D01*
X25247Y-12648D01*
X25180Y-12485D01*
X25055Y-12360D01*
X24990Y-12333D01*
X36609Y-12333D01*
X36455Y-12487D01*
X36315Y-12824D01*
X36315Y-13190D01*
X36455Y-13528D01*
X36713Y-13787D01*
X37050Y-13927D01*
X37416Y-13927D01*
X37754Y-13787D01*
X38013Y-13529D01*
X38153Y-13192D01*
X38153Y-12826D01*
X38013Y-12488D01*
X37858Y-12333D01*
X56560Y-12333D01*
X56406Y-12487D01*
X56266Y-12824D01*
X56266Y-13190D01*
X56406Y-13528D01*
X56664Y-13787D01*
X57001Y-13927D01*
X57367Y-13927D01*
X57705Y-13787D01*
X57964Y-13529D01*
X58104Y-13192D01*
X58104Y-12826D01*
X57964Y-12488D01*
X57809Y-12333D01*
X76560Y-12333D01*
X76406Y-12487D01*
X76266Y-12824D01*
X76266Y-13190D01*
X76406Y-13528D01*
X76664Y-13787D01*
X77001Y-13927D01*
X77367Y-13927D01*
X77705Y-13787D01*
X77964Y-13529D01*
X78104Y-13192D01*
X78104Y-12826D01*
X77964Y-12488D01*
X77809Y-12333D01*
X89360Y-12333D01*
X89360Y-15729D01*
X89206Y-15575D01*
X88869Y-15435D01*
X88503Y-15435D01*
X88165Y-15575D01*
X87906Y-15833D01*
X87766Y-16170D01*
X87766Y-16536D01*
X87906Y-16874D01*
X88164Y-17133D01*
X88501Y-17273D01*
X88867Y-17273D01*
X89205Y-17133D01*
X89360Y-16978D01*
X89360Y-37745D01*
X89206Y-37591D01*
X88869Y-37451D01*
X88503Y-37451D01*
X88165Y-37591D01*
X87906Y-37849D01*
X87766Y-38186D01*
X87766Y-38552D01*
X87906Y-38890D01*
X88164Y-39149D01*
X88501Y-39289D01*
X88867Y-39289D01*
X89205Y-39149D01*
X89360Y-38994D01*
X89360Y-42392D01*
X89360Y-42392D01*
G37*
G54D20*
X89360Y-42392D02*
X86560Y-42392D01*
X86560Y-33899D01*
X86560Y-33675D01*
X86559Y-33613D01*
X86521Y-33521D01*
X86487Y-33487D01*
X86521Y-33453D01*
X86559Y-33362D01*
X86559Y-33263D01*
X86559Y-33013D01*
X86521Y-32921D01*
X86451Y-32851D01*
X86360Y-32813D01*
X86261Y-32813D01*
X85811Y-32813D01*
X85719Y-32851D01*
X85708Y-32862D01*
X85188Y-32862D01*
X85188Y-30362D01*
X85188Y-24362D01*
X85163Y-24238D01*
X85093Y-24132D01*
X84987Y-24062D01*
X84935Y-24051D01*
X84935Y-21474D01*
X84935Y-21250D01*
X84934Y-21161D01*
X84934Y-21062D01*
X84896Y-20971D01*
X84826Y-20901D01*
X84734Y-20863D01*
X84297Y-20862D01*
X84235Y-20924D01*
X84235Y-21312D01*
X84873Y-21312D01*
X84935Y-21250D01*
X84935Y-21474D01*
X84873Y-21412D01*
X84235Y-21412D01*
X84235Y-21800D01*
X84297Y-21862D01*
X84734Y-21861D01*
X84826Y-21823D01*
X84896Y-21753D01*
X84934Y-21662D01*
X84934Y-21563D01*
X84935Y-21474D01*
X84935Y-24051D01*
X84934Y-24051D01*
X84934Y-23662D01*
X84934Y-23563D01*
X84934Y-23063D01*
X84934Y-22662D01*
X84934Y-22563D01*
X84934Y-22063D01*
X84896Y-21971D01*
X84826Y-21901D01*
X84735Y-21863D01*
X84636Y-21863D01*
X84135Y-21863D01*
X84135Y-21800D01*
X84135Y-21412D01*
X84135Y-21312D01*
X84135Y-20924D01*
X84073Y-20862D01*
X83636Y-20863D01*
X83544Y-20901D01*
X83474Y-20971D01*
X83436Y-21062D01*
X83436Y-21161D01*
X83435Y-21250D01*
X83497Y-21312D01*
X84135Y-21312D01*
X84135Y-21412D01*
X83497Y-21412D01*
X83435Y-21474D01*
X83436Y-21563D01*
X83436Y-21662D01*
X83474Y-21753D01*
X83544Y-21823D01*
X83636Y-21861D01*
X84073Y-21862D01*
X84135Y-21800D01*
X84135Y-21863D01*
X83636Y-21863D01*
X83544Y-21901D01*
X83474Y-21971D01*
X83436Y-22062D01*
X83436Y-22161D01*
X83436Y-22661D01*
X83474Y-22753D01*
X83544Y-22823D01*
X83635Y-22861D01*
X83734Y-22861D01*
X84734Y-22861D01*
X84826Y-22823D01*
X84896Y-22753D01*
X84934Y-22662D01*
X84934Y-23063D01*
X84896Y-22971D01*
X84826Y-22901D01*
X84735Y-22863D01*
X84636Y-22863D01*
X83636Y-22863D01*
X83544Y-22901D01*
X83474Y-22971D01*
X83446Y-23037D01*
X82795Y-23037D01*
X82795Y-16228D01*
X82795Y-15898D01*
X82669Y-15593D01*
X82436Y-15359D01*
X82131Y-15232D01*
X81801Y-15232D01*
X81496Y-15358D01*
X81262Y-15591D01*
X81135Y-15896D01*
X81135Y-16226D01*
X81261Y-16531D01*
X81494Y-16765D01*
X81799Y-16892D01*
X82129Y-16892D01*
X82434Y-16766D01*
X82668Y-16533D01*
X82795Y-16228D01*
X82795Y-23037D01*
X75188Y-23037D01*
X75188Y-22362D01*
X75163Y-22238D01*
X75093Y-22132D01*
X74987Y-22062D01*
X74935Y-22051D01*
X74935Y-21474D01*
X74935Y-21250D01*
X74934Y-21161D01*
X74934Y-21062D01*
X74896Y-20971D01*
X74826Y-20901D01*
X74734Y-20863D01*
X74297Y-20862D01*
X74235Y-20924D01*
X74235Y-21312D01*
X74873Y-21312D01*
X74935Y-21250D01*
X74935Y-21474D01*
X74873Y-21412D01*
X74235Y-21412D01*
X74235Y-21800D01*
X74297Y-21862D01*
X74734Y-21861D01*
X74826Y-21823D01*
X74896Y-21753D01*
X74934Y-21662D01*
X74934Y-21563D01*
X74935Y-21474D01*
X74935Y-22051D01*
X74928Y-22050D01*
X74896Y-21971D01*
X74826Y-21901D01*
X74735Y-21863D01*
X74636Y-21863D01*
X74135Y-21863D01*
X74135Y-21800D01*
X74135Y-21412D01*
X74135Y-21312D01*
X74135Y-20924D01*
X74073Y-20862D01*
X73636Y-20863D01*
X73544Y-20901D01*
X73474Y-20971D01*
X73436Y-21062D01*
X73436Y-21161D01*
X73435Y-21250D01*
X73497Y-21312D01*
X74135Y-21312D01*
X74135Y-21412D01*
X73497Y-21412D01*
X73435Y-21474D01*
X73436Y-21563D01*
X73436Y-21662D01*
X73474Y-21753D01*
X73544Y-21823D01*
X73636Y-21861D01*
X74073Y-21862D01*
X74135Y-21800D01*
X74135Y-21863D01*
X73636Y-21863D01*
X73544Y-21901D01*
X73474Y-21971D01*
X73436Y-22062D01*
X73436Y-22161D01*
X73436Y-22661D01*
X73474Y-22753D01*
X73544Y-22823D01*
X73635Y-22861D01*
X73734Y-22861D01*
X74538Y-22861D01*
X74538Y-22863D01*
X73636Y-22863D01*
X73544Y-22901D01*
X73474Y-22971D01*
X73436Y-23062D01*
X73436Y-23161D01*
X73436Y-23661D01*
X73474Y-23753D01*
X73544Y-23823D01*
X73635Y-23861D01*
X73734Y-23861D01*
X74538Y-23861D01*
X74538Y-23863D01*
X73636Y-23863D01*
X73544Y-23901D01*
X73474Y-23971D01*
X73436Y-24062D01*
X73436Y-24161D01*
X73436Y-24661D01*
X73474Y-24753D01*
X73544Y-24823D01*
X73635Y-24861D01*
X73734Y-24861D01*
X74538Y-24861D01*
X74538Y-24862D01*
X74297Y-24862D01*
X74235Y-24924D01*
X74235Y-25262D01*
X74235Y-25312D01*
X74235Y-25412D01*
X74235Y-25462D01*
X74235Y-25800D01*
X74297Y-25862D01*
X74538Y-25861D01*
X74538Y-25863D01*
X74135Y-25863D01*
X74135Y-25800D01*
X74135Y-25412D01*
X74135Y-25312D01*
X74135Y-24924D01*
X74073Y-24862D01*
X73636Y-24863D01*
X73544Y-24901D01*
X73474Y-24971D01*
X73436Y-25062D01*
X73436Y-25161D01*
X73435Y-25250D01*
X73497Y-25312D01*
X74135Y-25312D01*
X74135Y-25412D01*
X73497Y-25412D01*
X73435Y-25474D01*
X73436Y-25563D01*
X73436Y-25662D01*
X73474Y-25753D01*
X73544Y-25823D01*
X73636Y-25861D01*
X74073Y-25862D01*
X74135Y-25800D01*
X74135Y-25863D01*
X73636Y-25863D01*
X73544Y-25901D01*
X73474Y-25971D01*
X73440Y-26050D01*
X73383Y-26062D01*
X73277Y-26132D01*
X73207Y-26238D01*
X73182Y-26362D01*
X73182Y-32362D01*
X73207Y-32486D01*
X73277Y-32592D01*
X73383Y-32662D01*
X73441Y-32673D01*
X73474Y-32753D01*
X73544Y-32823D01*
X73635Y-32861D01*
X73734Y-32861D01*
X74734Y-32861D01*
X74826Y-32823D01*
X74896Y-32753D01*
X74934Y-32662D01*
X74934Y-32563D01*
X74934Y-32063D01*
X74896Y-31971D01*
X74826Y-31901D01*
X74735Y-31863D01*
X74636Y-31863D01*
X73832Y-31863D01*
X73832Y-31861D01*
X74734Y-31861D01*
X74826Y-31823D01*
X74896Y-31753D01*
X74934Y-31662D01*
X74934Y-31563D01*
X74934Y-31063D01*
X74896Y-30971D01*
X74826Y-30901D01*
X74735Y-30863D01*
X74636Y-30863D01*
X73832Y-30863D01*
X73832Y-30861D01*
X74734Y-30861D01*
X74826Y-30823D01*
X74896Y-30753D01*
X74934Y-30662D01*
X74934Y-30563D01*
X74934Y-30063D01*
X74896Y-29971D01*
X74826Y-29901D01*
X74735Y-29863D01*
X74636Y-29863D01*
X73832Y-29863D01*
X73832Y-29861D01*
X74734Y-29861D01*
X74826Y-29823D01*
X74896Y-29753D01*
X74929Y-29673D01*
X74987Y-29662D01*
X75093Y-29592D01*
X75163Y-29486D01*
X75188Y-29362D01*
X75188Y-23687D01*
X83446Y-23687D01*
X83474Y-23753D01*
X83544Y-23823D01*
X83635Y-23861D01*
X83734Y-23861D01*
X84734Y-23861D01*
X84826Y-23823D01*
X84896Y-23753D01*
X84934Y-23662D01*
X84934Y-24051D01*
X84928Y-24050D01*
X84896Y-23971D01*
X84826Y-23901D01*
X84735Y-23863D01*
X84636Y-23863D01*
X83636Y-23863D01*
X83544Y-23901D01*
X83474Y-23971D01*
X83436Y-24062D01*
X83436Y-24161D01*
X83436Y-24661D01*
X83474Y-24753D01*
X83544Y-24823D01*
X83635Y-24861D01*
X83734Y-24861D01*
X84538Y-24861D01*
X84538Y-24862D01*
X84297Y-24862D01*
X84235Y-24924D01*
X84235Y-25262D01*
X84235Y-25312D01*
X84235Y-25412D01*
X84235Y-25462D01*
X84235Y-25800D01*
X84297Y-25862D01*
X84538Y-25861D01*
X84538Y-25863D01*
X84135Y-25863D01*
X84135Y-25800D01*
X84135Y-25412D01*
X84135Y-25312D01*
X84135Y-24924D01*
X84073Y-24862D01*
X83636Y-24863D01*
X83544Y-24901D01*
X83474Y-24971D01*
X83436Y-25062D01*
X83436Y-25161D01*
X83435Y-25250D01*
X83497Y-25312D01*
X84135Y-25312D01*
X84135Y-25412D01*
X83497Y-25412D01*
X83435Y-25474D01*
X83436Y-25563D01*
X83436Y-25662D01*
X83474Y-25753D01*
X83544Y-25823D01*
X83636Y-25861D01*
X84073Y-25862D01*
X84135Y-25800D01*
X84135Y-25863D01*
X83636Y-25863D01*
X83544Y-25901D01*
X83474Y-25971D01*
X83440Y-26050D01*
X83383Y-26062D01*
X83277Y-26132D01*
X83207Y-26238D01*
X83182Y-26362D01*
X83182Y-32362D01*
X83207Y-32486D01*
X83277Y-32592D01*
X83383Y-32662D01*
X83441Y-32673D01*
X83474Y-32753D01*
X83544Y-32823D01*
X83635Y-32861D01*
X83734Y-32861D01*
X84734Y-32861D01*
X84826Y-32823D01*
X84896Y-32753D01*
X84934Y-32662D01*
X84934Y-32563D01*
X84934Y-32063D01*
X84896Y-31971D01*
X84826Y-31901D01*
X84735Y-31863D01*
X84636Y-31863D01*
X83832Y-31863D01*
X83832Y-31861D01*
X84734Y-31861D01*
X84826Y-31823D01*
X84896Y-31753D01*
X84934Y-31662D01*
X84934Y-31563D01*
X84934Y-31063D01*
X84896Y-30971D01*
X84826Y-30901D01*
X84735Y-30863D01*
X84636Y-30863D01*
X83832Y-30863D01*
X83832Y-30861D01*
X84734Y-30861D01*
X84826Y-30823D01*
X84896Y-30753D01*
X84929Y-30673D01*
X84987Y-30662D01*
X85093Y-30592D01*
X85163Y-30486D01*
X85188Y-30362D01*
X85188Y-32862D01*
X85038Y-32862D01*
X84914Y-32887D01*
X84852Y-32927D01*
X84826Y-32901D01*
X84735Y-32863D01*
X84636Y-32863D01*
X83636Y-32863D01*
X83544Y-32901D01*
X83517Y-32927D01*
X83456Y-32887D01*
X83332Y-32862D01*
X76462Y-32862D01*
X76451Y-32851D01*
X76360Y-32813D01*
X76261Y-32813D01*
X75811Y-32813D01*
X75719Y-32851D01*
X75708Y-32862D01*
X75038Y-32862D01*
X74914Y-32887D01*
X74852Y-32927D01*
X74826Y-32901D01*
X74735Y-32863D01*
X74636Y-32863D01*
X73636Y-32863D01*
X73544Y-32901D01*
X73517Y-32927D01*
X73456Y-32887D01*
X73332Y-32862D01*
X72795Y-32862D01*
X72795Y-16228D01*
X72795Y-15898D01*
X72669Y-15593D01*
X72436Y-15359D01*
X72131Y-15232D01*
X71801Y-15232D01*
X71496Y-15358D01*
X71262Y-15591D01*
X71135Y-15896D01*
X71135Y-16226D01*
X71261Y-16531D01*
X71494Y-16765D01*
X71799Y-16892D01*
X72129Y-16892D01*
X72434Y-16766D01*
X72668Y-16533D01*
X72795Y-16228D01*
X72795Y-32862D01*
X66462Y-32862D01*
X66451Y-32851D01*
X66360Y-32813D01*
X66261Y-32813D01*
X65811Y-32813D01*
X65719Y-32851D01*
X65708Y-32862D01*
X65038Y-32862D01*
X64914Y-32887D01*
X64852Y-32927D01*
X64826Y-32901D01*
X64735Y-32863D01*
X64636Y-32863D01*
X63636Y-32863D01*
X63544Y-32901D01*
X63517Y-32927D01*
X63456Y-32887D01*
X63332Y-32862D01*
X58568Y-32862D01*
X59743Y-31687D01*
X63446Y-31687D01*
X63474Y-31753D01*
X63544Y-31823D01*
X63635Y-31861D01*
X63734Y-31861D01*
X64538Y-31861D01*
X64538Y-31863D01*
X63636Y-31863D01*
X63544Y-31901D01*
X63474Y-31971D01*
X63436Y-32062D01*
X63436Y-32161D01*
X63436Y-32661D01*
X63474Y-32753D01*
X63544Y-32823D01*
X63635Y-32861D01*
X63734Y-32861D01*
X64734Y-32861D01*
X64826Y-32823D01*
X64896Y-32753D01*
X64929Y-32673D01*
X64987Y-32662D01*
X65093Y-32592D01*
X65163Y-32486D01*
X65188Y-32362D01*
X65188Y-26362D01*
X65163Y-26238D01*
X65093Y-26132D01*
X64987Y-26062D01*
X64935Y-26051D01*
X64935Y-25474D01*
X64935Y-25250D01*
X64935Y-21474D01*
X64935Y-21250D01*
X64934Y-21161D01*
X64934Y-21062D01*
X64896Y-20971D01*
X64826Y-20901D01*
X64734Y-20863D01*
X64297Y-20862D01*
X64235Y-20924D01*
X64235Y-21312D01*
X64873Y-21312D01*
X64935Y-21250D01*
X64935Y-21474D01*
X64873Y-21412D01*
X64235Y-21412D01*
X64235Y-21800D01*
X64297Y-21862D01*
X64734Y-21861D01*
X64826Y-21823D01*
X64896Y-21753D01*
X64934Y-21662D01*
X64934Y-21563D01*
X64935Y-21474D01*
X64935Y-25250D01*
X64934Y-25161D01*
X64934Y-25062D01*
X64896Y-24971D01*
X64826Y-24901D01*
X64734Y-24863D01*
X64297Y-24862D01*
X64235Y-24924D01*
X64235Y-25312D01*
X64873Y-25312D01*
X64935Y-25250D01*
X64935Y-25474D01*
X64873Y-25412D01*
X64235Y-25412D01*
X64235Y-25800D01*
X64297Y-25862D01*
X64734Y-25861D01*
X64826Y-25823D01*
X64896Y-25753D01*
X64934Y-25662D01*
X64934Y-25563D01*
X64935Y-25474D01*
X64935Y-26051D01*
X64928Y-26050D01*
X64896Y-25971D01*
X64826Y-25901D01*
X64735Y-25863D01*
X64636Y-25863D01*
X63832Y-25863D01*
X63832Y-25861D01*
X64073Y-25862D01*
X64135Y-25800D01*
X64135Y-25462D01*
X64135Y-25412D01*
X64135Y-25312D01*
X64135Y-25262D01*
X64135Y-24924D01*
X64073Y-24862D01*
X63832Y-24862D01*
X63832Y-24861D01*
X64734Y-24861D01*
X64826Y-24823D01*
X64896Y-24753D01*
X64934Y-24662D01*
X64934Y-24563D01*
X64934Y-24063D01*
X64934Y-23662D01*
X64934Y-23563D01*
X64934Y-23063D01*
X64934Y-22662D01*
X64934Y-22563D01*
X64934Y-22063D01*
X64896Y-21971D01*
X64826Y-21901D01*
X64735Y-21863D01*
X64636Y-21863D01*
X64135Y-21863D01*
X64135Y-21800D01*
X64135Y-21412D01*
X64135Y-21312D01*
X64135Y-20924D01*
X64073Y-20862D01*
X63636Y-20863D01*
X63544Y-20901D01*
X63474Y-20971D01*
X63436Y-21062D01*
X63436Y-21161D01*
X63435Y-21250D01*
X63497Y-21312D01*
X64135Y-21312D01*
X64135Y-21412D01*
X63497Y-21412D01*
X63435Y-21474D01*
X63436Y-21563D01*
X63436Y-21662D01*
X63474Y-21753D01*
X63544Y-21823D01*
X63636Y-21861D01*
X64073Y-21862D01*
X64135Y-21800D01*
X64135Y-21863D01*
X63636Y-21863D01*
X63544Y-21901D01*
X63474Y-21971D01*
X63436Y-22062D01*
X63436Y-22161D01*
X63436Y-22661D01*
X63474Y-22753D01*
X63544Y-22823D01*
X63635Y-22861D01*
X63734Y-22861D01*
X64734Y-22861D01*
X64826Y-22823D01*
X64896Y-22753D01*
X64934Y-22662D01*
X64934Y-23063D01*
X64896Y-22971D01*
X64826Y-22901D01*
X64735Y-22863D01*
X64636Y-22863D01*
X63636Y-22863D01*
X63544Y-22901D01*
X63474Y-22971D01*
X63436Y-23062D01*
X63436Y-23161D01*
X63436Y-23661D01*
X63474Y-23753D01*
X63544Y-23823D01*
X63635Y-23861D01*
X63734Y-23861D01*
X64734Y-23861D01*
X64826Y-23823D01*
X64896Y-23753D01*
X64934Y-23662D01*
X64934Y-24063D01*
X64896Y-23971D01*
X64826Y-23901D01*
X64735Y-23863D01*
X64636Y-23863D01*
X63636Y-23863D01*
X63544Y-23901D01*
X63474Y-23971D01*
X63446Y-24037D01*
X62795Y-24037D01*
X62795Y-16228D01*
X62795Y-15898D01*
X62669Y-15593D01*
X62436Y-15359D01*
X62131Y-15232D01*
X61801Y-15232D01*
X61496Y-15358D01*
X61262Y-15591D01*
X61135Y-15896D01*
X61135Y-16226D01*
X61261Y-16531D01*
X61494Y-16765D01*
X61799Y-16892D01*
X62129Y-16892D01*
X62434Y-16766D01*
X62668Y-16533D01*
X62795Y-16228D01*
X62795Y-24037D01*
X54935Y-24037D01*
X54935Y-21474D01*
X54935Y-21250D01*
X54934Y-21161D01*
X54934Y-21062D01*
X54896Y-20971D01*
X54826Y-20901D01*
X54734Y-20863D01*
X54297Y-20862D01*
X54235Y-20924D01*
X54235Y-21312D01*
X54873Y-21312D01*
X54935Y-21250D01*
X54935Y-21474D01*
X54873Y-21412D01*
X54235Y-21412D01*
X54235Y-21800D01*
X54297Y-21862D01*
X54734Y-21861D01*
X54826Y-21823D01*
X54896Y-21753D01*
X54934Y-21662D01*
X54934Y-21563D01*
X54935Y-21474D01*
X54935Y-24037D01*
X54934Y-24037D01*
X54934Y-23662D01*
X54934Y-23563D01*
X54934Y-23063D01*
X54934Y-22662D01*
X54934Y-22563D01*
X54934Y-22063D01*
X54896Y-21971D01*
X54826Y-21901D01*
X54735Y-21863D01*
X54636Y-21863D01*
X54135Y-21863D01*
X54135Y-21800D01*
X54135Y-21412D01*
X54135Y-21312D01*
X54135Y-20924D01*
X54073Y-20862D01*
X53636Y-20863D01*
X53544Y-20901D01*
X53474Y-20971D01*
X53436Y-21062D01*
X53436Y-21161D01*
X53435Y-21250D01*
X53497Y-21312D01*
X54135Y-21312D01*
X54135Y-21412D01*
X53497Y-21412D01*
X53435Y-21474D01*
X53436Y-21563D01*
X53436Y-21662D01*
X53474Y-21753D01*
X53544Y-21823D01*
X53636Y-21861D01*
X54073Y-21862D01*
X54135Y-21800D01*
X54135Y-21863D01*
X53636Y-21863D01*
X53544Y-21901D01*
X53474Y-21971D01*
X53436Y-22062D01*
X53436Y-22161D01*
X53436Y-22661D01*
X53474Y-22753D01*
X53544Y-22823D01*
X53635Y-22861D01*
X53734Y-22861D01*
X54734Y-22861D01*
X54826Y-22823D01*
X54896Y-22753D01*
X54934Y-22662D01*
X54934Y-23063D01*
X54896Y-22971D01*
X54826Y-22901D01*
X54735Y-22863D01*
X54636Y-22863D01*
X53636Y-22863D01*
X53544Y-22901D01*
X53474Y-22971D01*
X53436Y-23062D01*
X53436Y-23161D01*
X53436Y-23661D01*
X53474Y-23753D01*
X53544Y-23823D01*
X53635Y-23861D01*
X53734Y-23861D01*
X54734Y-23861D01*
X54826Y-23823D01*
X54896Y-23753D01*
X54934Y-23662D01*
X54934Y-24037D01*
X54923Y-24037D01*
X54896Y-23971D01*
X54826Y-23901D01*
X54735Y-23863D01*
X54636Y-23863D01*
X53636Y-23863D01*
X53544Y-23901D01*
X53474Y-23971D01*
X53440Y-24050D01*
X53383Y-24062D01*
X53277Y-24132D01*
X53207Y-24238D01*
X53182Y-24362D01*
X53182Y-30362D01*
X53207Y-30486D01*
X53277Y-30592D01*
X53383Y-30662D01*
X53441Y-30673D01*
X53474Y-30753D01*
X53544Y-30823D01*
X53635Y-30861D01*
X53734Y-30861D01*
X54538Y-30861D01*
X54538Y-30863D01*
X53636Y-30863D01*
X53544Y-30901D01*
X53474Y-30971D01*
X53446Y-31037D01*
X52795Y-31037D01*
X52795Y-16228D01*
X52795Y-15898D01*
X52669Y-15593D01*
X52436Y-15359D01*
X52131Y-15232D01*
X51801Y-15232D01*
X51496Y-15358D01*
X51262Y-15591D01*
X51135Y-15896D01*
X51135Y-16226D01*
X51261Y-16531D01*
X51494Y-16765D01*
X51799Y-16892D01*
X52129Y-16892D01*
X52434Y-16766D01*
X52668Y-16533D01*
X52795Y-16228D01*
X52795Y-31037D01*
X52649Y-31037D01*
X45303Y-23690D01*
X45197Y-23620D01*
X45073Y-23595D01*
X44935Y-23595D01*
X44935Y-21474D01*
X44935Y-21250D01*
X44934Y-21161D01*
X44934Y-21062D01*
X44896Y-20971D01*
X44826Y-20901D01*
X44734Y-20863D01*
X44297Y-20862D01*
X44235Y-20924D01*
X44235Y-21312D01*
X44873Y-21312D01*
X44935Y-21250D01*
X44935Y-21474D01*
X44873Y-21412D01*
X44235Y-21412D01*
X44235Y-21800D01*
X44297Y-21862D01*
X44734Y-21861D01*
X44826Y-21823D01*
X44896Y-21753D01*
X44934Y-21662D01*
X44934Y-21563D01*
X44935Y-21474D01*
X44935Y-23595D01*
X44934Y-23595D01*
X44934Y-23563D01*
X44934Y-23063D01*
X44934Y-22662D01*
X44934Y-22563D01*
X44934Y-22063D01*
X44896Y-21971D01*
X44826Y-21901D01*
X44735Y-21863D01*
X44636Y-21863D01*
X44135Y-21863D01*
X44135Y-21800D01*
X44135Y-21412D01*
X44135Y-21312D01*
X44135Y-20924D01*
X44073Y-20862D01*
X43636Y-20863D01*
X43544Y-20901D01*
X43474Y-20971D01*
X43436Y-21062D01*
X43436Y-21161D01*
X43435Y-21250D01*
X43497Y-21312D01*
X44135Y-21312D01*
X44135Y-21412D01*
X43497Y-21412D01*
X43435Y-21474D01*
X43436Y-21563D01*
X43436Y-21662D01*
X43474Y-21753D01*
X43544Y-21823D01*
X43636Y-21861D01*
X44073Y-21862D01*
X44135Y-21800D01*
X44135Y-21863D01*
X43636Y-21863D01*
X43544Y-21901D01*
X43474Y-21971D01*
X43436Y-22062D01*
X43436Y-22161D01*
X43436Y-22661D01*
X43474Y-22753D01*
X43544Y-22823D01*
X43635Y-22861D01*
X43734Y-22861D01*
X44734Y-22861D01*
X44826Y-22823D01*
X44896Y-22753D01*
X44934Y-22662D01*
X44934Y-23063D01*
X44896Y-22971D01*
X44826Y-22901D01*
X44735Y-22863D01*
X44636Y-22863D01*
X43636Y-22863D01*
X43544Y-22901D01*
X43474Y-22971D01*
X43436Y-23062D01*
X43436Y-23161D01*
X43436Y-23595D01*
X42795Y-23595D01*
X42795Y-16228D01*
X42795Y-15898D01*
X42669Y-15593D01*
X42436Y-15359D01*
X42131Y-15232D01*
X41801Y-15232D01*
X41496Y-15358D01*
X41262Y-15591D01*
X41135Y-15896D01*
X41135Y-16226D01*
X41261Y-16531D01*
X41494Y-16765D01*
X41799Y-16892D01*
X42129Y-16892D01*
X42434Y-16766D01*
X42668Y-16533D01*
X42795Y-16228D01*
X42795Y-23595D01*
X37516Y-23595D01*
X36538Y-22617D01*
X36538Y-22568D01*
X36474Y-22412D01*
X36354Y-22292D01*
X36198Y-22227D01*
X36029Y-22227D01*
X35873Y-22291D01*
X35753Y-22411D01*
X35688Y-22567D01*
X35688Y-22736D01*
X35752Y-22892D01*
X35872Y-23012D01*
X36028Y-23077D01*
X36078Y-23077D01*
X37151Y-24150D01*
X37256Y-24220D01*
X37257Y-24220D01*
X37381Y-24245D01*
X43205Y-24245D01*
X43182Y-24362D01*
X43182Y-30362D01*
X43207Y-30486D01*
X43277Y-30592D01*
X43383Y-30662D01*
X43441Y-30673D01*
X43474Y-30753D01*
X43544Y-30823D01*
X43635Y-30861D01*
X43734Y-30861D01*
X44538Y-30861D01*
X44538Y-30863D01*
X43636Y-30863D01*
X43544Y-30901D01*
X43474Y-30971D01*
X43446Y-31037D01*
X42374Y-31037D01*
X33361Y-22024D01*
X33361Y-21975D01*
X33297Y-21819D01*
X33177Y-21699D01*
X33021Y-21634D01*
X32852Y-21634D01*
X32696Y-21698D01*
X32576Y-21818D01*
X32511Y-21974D01*
X32511Y-22143D01*
X32575Y-22299D01*
X32695Y-22419D01*
X32851Y-22484D01*
X32901Y-22484D01*
X42009Y-31592D01*
X42114Y-31662D01*
X42115Y-31662D01*
X42239Y-31687D01*
X43446Y-31687D01*
X43474Y-31753D01*
X43544Y-31823D01*
X43635Y-31861D01*
X43734Y-31861D01*
X44538Y-31861D01*
X44538Y-31863D01*
X43636Y-31863D01*
X43544Y-31901D01*
X43474Y-31971D01*
X43436Y-32062D01*
X43436Y-32161D01*
X43436Y-32514D01*
X40216Y-32514D01*
X31971Y-24269D01*
X31971Y-24220D01*
X31907Y-24064D01*
X31787Y-23944D01*
X31631Y-23879D01*
X31462Y-23879D01*
X31306Y-23943D01*
X31186Y-24063D01*
X31121Y-24219D01*
X31121Y-24388D01*
X31185Y-24544D01*
X31305Y-24664D01*
X31461Y-24729D01*
X31511Y-24729D01*
X39851Y-33069D01*
X39956Y-33139D01*
X39957Y-33139D01*
X40081Y-33164D01*
X43436Y-33164D01*
X43436Y-33661D01*
X43474Y-33753D01*
X43544Y-33823D01*
X43635Y-33861D01*
X43734Y-33861D01*
X44734Y-33861D01*
X44826Y-33823D01*
X44896Y-33753D01*
X44929Y-33673D01*
X44987Y-33662D01*
X45093Y-33592D01*
X45172Y-33512D01*
X45658Y-33512D01*
X45649Y-33521D01*
X45611Y-33613D01*
X45610Y-33675D01*
X45672Y-33737D01*
X45985Y-33737D01*
X46035Y-33737D01*
X46135Y-33737D01*
X46185Y-33737D01*
X46498Y-33737D01*
X46560Y-33675D01*
X46559Y-33613D01*
X46521Y-33521D01*
X46512Y-33512D01*
X53197Y-33512D01*
X53275Y-33589D01*
X53277Y-33592D01*
X53382Y-33661D01*
X53383Y-33662D01*
X53441Y-33673D01*
X53474Y-33753D01*
X53544Y-33823D01*
X53635Y-33861D01*
X53734Y-33861D01*
X54734Y-33861D01*
X54826Y-33823D01*
X54896Y-33753D01*
X54929Y-33673D01*
X54987Y-33662D01*
X55093Y-33592D01*
X55172Y-33512D01*
X55658Y-33512D01*
X55649Y-33521D01*
X55611Y-33613D01*
X55610Y-33675D01*
X55672Y-33737D01*
X55985Y-33737D01*
X56035Y-33737D01*
X56135Y-33737D01*
X56185Y-33737D01*
X56498Y-33737D01*
X56560Y-33675D01*
X56559Y-33613D01*
X56521Y-33521D01*
X56512Y-33512D01*
X63197Y-33512D01*
X63275Y-33589D01*
X63277Y-33592D01*
X63382Y-33661D01*
X63383Y-33662D01*
X63441Y-33673D01*
X63474Y-33753D01*
X63544Y-33823D01*
X63635Y-33861D01*
X63734Y-33861D01*
X64734Y-33861D01*
X64826Y-33823D01*
X64896Y-33753D01*
X64929Y-33673D01*
X64987Y-33662D01*
X65093Y-33592D01*
X65172Y-33512D01*
X65658Y-33512D01*
X65649Y-33521D01*
X65611Y-33613D01*
X65610Y-33675D01*
X65672Y-33737D01*
X65985Y-33737D01*
X66035Y-33737D01*
X66135Y-33737D01*
X66185Y-33737D01*
X66498Y-33737D01*
X66560Y-33675D01*
X66559Y-33613D01*
X66521Y-33521D01*
X66512Y-33512D01*
X73197Y-33512D01*
X73275Y-33589D01*
X73277Y-33592D01*
X73382Y-33661D01*
X73383Y-33662D01*
X73441Y-33673D01*
X73474Y-33753D01*
X73544Y-33823D01*
X73635Y-33861D01*
X73734Y-33861D01*
X74734Y-33861D01*
X74826Y-33823D01*
X74896Y-33753D01*
X74929Y-33673D01*
X74987Y-33662D01*
X75093Y-33592D01*
X75172Y-33512D01*
X75658Y-33512D01*
X75649Y-33521D01*
X75611Y-33613D01*
X75610Y-33675D01*
X75672Y-33737D01*
X75985Y-33737D01*
X76035Y-33737D01*
X76135Y-33737D01*
X76185Y-33737D01*
X76498Y-33737D01*
X76560Y-33675D01*
X76559Y-33613D01*
X76521Y-33521D01*
X76512Y-33512D01*
X83197Y-33512D01*
X83275Y-33589D01*
X83277Y-33592D01*
X83382Y-33661D01*
X83383Y-33662D01*
X83441Y-33673D01*
X83474Y-33753D01*
X83544Y-33823D01*
X83635Y-33861D01*
X83734Y-33861D01*
X84734Y-33861D01*
X84826Y-33823D01*
X84896Y-33753D01*
X84929Y-33673D01*
X84987Y-33662D01*
X85093Y-33592D01*
X85172Y-33512D01*
X85658Y-33512D01*
X85649Y-33521D01*
X85611Y-33613D01*
X85610Y-33675D01*
X85672Y-33737D01*
X85985Y-33737D01*
X86035Y-33737D01*
X86135Y-33737D01*
X86185Y-33737D01*
X86498Y-33737D01*
X86560Y-33675D01*
X86560Y-33899D01*
X86498Y-33837D01*
X86135Y-33837D01*
X86135Y-34100D01*
X86197Y-34162D01*
X86261Y-34161D01*
X86360Y-34161D01*
X86451Y-34123D01*
X86521Y-34053D01*
X86559Y-33961D01*
X86560Y-33899D01*
X86560Y-42392D01*
X86035Y-42392D01*
X86035Y-34100D01*
X86035Y-33837D01*
X85672Y-33837D01*
X85610Y-33899D01*
X85611Y-33961D01*
X85649Y-34053D01*
X85719Y-34123D01*
X85810Y-34161D01*
X85909Y-34161D01*
X85973Y-34162D01*
X86035Y-34100D01*
X86035Y-42392D01*
X82795Y-42392D01*
X82795Y-38828D01*
X82795Y-38498D01*
X82669Y-38193D01*
X82436Y-37959D01*
X82131Y-37832D01*
X81801Y-37832D01*
X81496Y-37958D01*
X81262Y-38191D01*
X81135Y-38496D01*
X81135Y-38826D01*
X81261Y-39131D01*
X81494Y-39365D01*
X81799Y-39492D01*
X82129Y-39492D01*
X82434Y-39366D01*
X82668Y-39133D01*
X82795Y-38828D01*
X82795Y-42392D01*
X77809Y-42392D01*
X77964Y-42238D01*
X78104Y-41901D01*
X78104Y-41535D01*
X77964Y-41197D01*
X77706Y-40938D01*
X77369Y-40798D01*
X77003Y-40798D01*
X76665Y-40938D01*
X76560Y-41042D01*
X76560Y-33899D01*
X76498Y-33837D01*
X76135Y-33837D01*
X76135Y-34100D01*
X76197Y-34162D01*
X76261Y-34161D01*
X76360Y-34161D01*
X76451Y-34123D01*
X76521Y-34053D01*
X76559Y-33961D01*
X76560Y-33899D01*
X76560Y-41042D01*
X76406Y-41196D01*
X76266Y-41533D01*
X76266Y-41899D01*
X76406Y-42237D01*
X76560Y-42392D01*
X76035Y-42392D01*
X76035Y-34100D01*
X76035Y-33837D01*
X75672Y-33837D01*
X75610Y-33899D01*
X75611Y-33961D01*
X75649Y-34053D01*
X75719Y-34123D01*
X75810Y-34161D01*
X75909Y-34161D01*
X75973Y-34162D01*
X76035Y-34100D01*
X76035Y-42392D01*
X72795Y-42392D01*
X72795Y-38828D01*
X72795Y-38498D01*
X72669Y-38193D01*
X72436Y-37959D01*
X72131Y-37832D01*
X71801Y-37832D01*
X71496Y-37958D01*
X71262Y-38191D01*
X71135Y-38496D01*
X71135Y-38826D01*
X71261Y-39131D01*
X71494Y-39365D01*
X71799Y-39492D01*
X72129Y-39492D01*
X72434Y-39366D01*
X72668Y-39133D01*
X72795Y-38828D01*
X72795Y-42392D01*
X66560Y-42392D01*
X66560Y-33899D01*
X66498Y-33837D01*
X66135Y-33837D01*
X66135Y-34100D01*
X66197Y-34162D01*
X66261Y-34161D01*
X66360Y-34161D01*
X66451Y-34123D01*
X66521Y-34053D01*
X66559Y-33961D01*
X66560Y-33899D01*
X66560Y-42392D01*
X66035Y-42392D01*
X66035Y-34100D01*
X66035Y-33837D01*
X65672Y-33837D01*
X65610Y-33899D01*
X65611Y-33961D01*
X65649Y-34053D01*
X65719Y-34123D01*
X65810Y-34161D01*
X65909Y-34161D01*
X65973Y-34162D01*
X66035Y-34100D01*
X66035Y-42392D01*
X62795Y-42392D01*
X62795Y-38828D01*
X62795Y-38498D01*
X62669Y-38193D01*
X62436Y-37959D01*
X62131Y-37832D01*
X61801Y-37832D01*
X61496Y-37958D01*
X61262Y-38191D01*
X61135Y-38496D01*
X61135Y-38826D01*
X61261Y-39131D01*
X61494Y-39365D01*
X61799Y-39492D01*
X62129Y-39492D01*
X62434Y-39366D01*
X62668Y-39133D01*
X62795Y-38828D01*
X62795Y-42392D01*
X57809Y-42392D01*
X57964Y-42238D01*
X58104Y-41901D01*
X58104Y-41535D01*
X57964Y-41197D01*
X57706Y-40938D01*
X57369Y-40798D01*
X57003Y-40798D01*
X56665Y-40938D01*
X56560Y-41042D01*
X56560Y-33899D01*
X56498Y-33837D01*
X56135Y-33837D01*
X56135Y-34100D01*
X56197Y-34162D01*
X56261Y-34161D01*
X56360Y-34161D01*
X56451Y-34123D01*
X56521Y-34053D01*
X56559Y-33961D01*
X56560Y-33899D01*
X56560Y-41042D01*
X56406Y-41196D01*
X56266Y-41533D01*
X56266Y-41899D01*
X56406Y-42237D01*
X56560Y-42392D01*
X56035Y-42392D01*
X56035Y-34100D01*
X56035Y-33837D01*
X55672Y-33837D01*
X55610Y-33899D01*
X55611Y-33961D01*
X55649Y-34053D01*
X55719Y-34123D01*
X55810Y-34161D01*
X55909Y-34161D01*
X55973Y-34162D01*
X56035Y-34100D01*
X56035Y-42392D01*
X52795Y-42392D01*
X52795Y-38828D01*
X52795Y-38498D01*
X52669Y-38193D01*
X52436Y-37959D01*
X52131Y-37832D01*
X51801Y-37832D01*
X51496Y-37958D01*
X51262Y-38191D01*
X51135Y-38496D01*
X51135Y-38826D01*
X51261Y-39131D01*
X51494Y-39365D01*
X51799Y-39492D01*
X52129Y-39492D01*
X52434Y-39366D01*
X52668Y-39133D01*
X52795Y-38828D01*
X52795Y-42392D01*
X46560Y-42392D01*
X46560Y-33899D01*
X46498Y-33837D01*
X46135Y-33837D01*
X46135Y-34100D01*
X46197Y-34162D01*
X46261Y-34161D01*
X46360Y-34161D01*
X46451Y-34123D01*
X46521Y-34053D01*
X46559Y-33961D01*
X46560Y-33899D01*
X46560Y-42392D01*
X46035Y-42392D01*
X46035Y-34100D01*
X46035Y-33837D01*
X45672Y-33837D01*
X45610Y-33899D01*
X45611Y-33961D01*
X45649Y-34053D01*
X45719Y-34123D01*
X45810Y-34161D01*
X45909Y-34161D01*
X45973Y-34162D01*
X46035Y-34100D01*
X46035Y-42392D01*
X42795Y-42392D01*
X42795Y-38828D01*
X42795Y-38498D01*
X42669Y-38193D01*
X42436Y-37959D01*
X42131Y-37832D01*
X41801Y-37832D01*
X41496Y-37958D01*
X41262Y-38191D01*
X41135Y-38496D01*
X41135Y-38826D01*
X41261Y-39131D01*
X41494Y-39365D01*
X41799Y-39492D01*
X42129Y-39492D01*
X42434Y-39366D01*
X42668Y-39133D01*
X42795Y-38828D01*
X42795Y-42392D01*
X37858Y-42392D01*
X38013Y-42238D01*
X38153Y-41901D01*
X38153Y-41535D01*
X38013Y-41197D01*
X37755Y-40938D01*
X37418Y-40798D01*
X37052Y-40798D01*
X36714Y-40938D01*
X36455Y-41196D01*
X36315Y-41533D01*
X36315Y-41899D01*
X36455Y-42237D01*
X36609Y-42392D01*
X25247Y-42392D01*
X25247Y-14793D01*
X25247Y-14616D01*
X25180Y-14453D01*
X25055Y-14328D01*
X24892Y-14260D01*
X24715Y-14260D01*
X24552Y-14327D01*
X24427Y-14452D01*
X24359Y-14615D01*
X24359Y-14792D01*
X24426Y-14955D01*
X24551Y-15080D01*
X24714Y-15148D01*
X24891Y-15148D01*
X25054Y-15081D01*
X25179Y-14956D01*
X25247Y-14793D01*
X25247Y-42392D01*
X24171Y-42392D01*
X24171Y-28606D01*
X24171Y-28507D01*
X24171Y-27907D01*
X24133Y-27815D01*
X24063Y-27745D01*
X23972Y-27707D01*
X23947Y-27707D01*
X24087Y-27567D01*
X24171Y-27365D01*
X24171Y-27147D01*
X24087Y-26945D01*
X23933Y-26791D01*
X23731Y-26707D01*
X23513Y-26707D01*
X23311Y-26791D01*
X23157Y-26945D01*
X23073Y-27147D01*
X23073Y-27365D01*
X23157Y-27567D01*
X23297Y-27707D01*
X23273Y-27707D01*
X23181Y-27745D01*
X23111Y-27815D01*
X23073Y-27906D01*
X23073Y-28005D01*
X23073Y-28605D01*
X23111Y-28697D01*
X23181Y-28767D01*
X23272Y-28805D01*
X23371Y-28805D01*
X23971Y-28805D01*
X24063Y-28767D01*
X24133Y-28697D01*
X24171Y-28606D01*
X24171Y-42392D01*
X20010Y-42392D01*
X20010Y-38994D01*
X20164Y-39149D01*
X20501Y-39289D01*
X20867Y-39289D01*
X21205Y-39149D01*
X21464Y-38891D01*
X21604Y-38554D01*
X21604Y-38188D01*
X21464Y-37850D01*
X21206Y-37591D01*
X20869Y-37451D01*
X20503Y-37451D01*
X20165Y-37591D01*
X20010Y-37745D01*
X20010Y-16978D01*
X20164Y-17133D01*
X20501Y-17273D01*
X20867Y-17273D01*
X21205Y-17133D01*
X21464Y-16875D01*
X21604Y-16538D01*
X21604Y-16172D01*
X21464Y-15834D01*
X21206Y-15575D01*
X20869Y-15435D01*
X20503Y-15435D01*
X20165Y-15575D01*
X20010Y-15729D01*
X20010Y-12333D01*
X24615Y-12333D01*
X24552Y-12359D01*
X24427Y-12484D01*
X24359Y-12647D01*
X24359Y-12824D01*
X24426Y-12987D01*
X24551Y-13112D01*
X24714Y-13180D01*
X24891Y-13180D01*
X25054Y-13113D01*
X25179Y-12988D01*
X25247Y-12825D01*
X25247Y-12648D01*
X25180Y-12485D01*
X25055Y-12360D01*
X24990Y-12333D01*
X36609Y-12333D01*
X36455Y-12487D01*
X36315Y-12824D01*
X36315Y-13190D01*
X36455Y-13528D01*
X36713Y-13787D01*
X37050Y-13927D01*
X37416Y-13927D01*
X37754Y-13787D01*
X38013Y-13529D01*
X38153Y-13192D01*
X38153Y-12826D01*
X38013Y-12488D01*
X37858Y-12333D01*
X56560Y-12333D01*
X56406Y-12487D01*
X56266Y-12824D01*
X56266Y-13190D01*
X56406Y-13528D01*
X56664Y-13787D01*
X57001Y-13927D01*
X57367Y-13927D01*
X57705Y-13787D01*
X57964Y-13529D01*
X58104Y-13192D01*
X58104Y-12826D01*
X57964Y-12488D01*
X57809Y-12333D01*
X76560Y-12333D01*
X76406Y-12487D01*
X76266Y-12824D01*
X76266Y-13190D01*
X76406Y-13528D01*
X76664Y-13787D01*
X77001Y-13927D01*
X77367Y-13927D01*
X77705Y-13787D01*
X77964Y-13529D01*
X78104Y-13192D01*
X78104Y-12826D01*
X77964Y-12488D01*
X77809Y-12333D01*
X89360Y-12333D01*
X89360Y-15729D01*
X89206Y-15575D01*
X88869Y-15435D01*
X88503Y-15435D01*
X88165Y-15575D01*
X87906Y-15833D01*
X87766Y-16170D01*
X87766Y-16536D01*
X87906Y-16874D01*
X88164Y-17133D01*
X88501Y-17273D01*
X88867Y-17273D01*
X89205Y-17133D01*
X89360Y-16978D01*
X89360Y-37745D01*
X89206Y-37591D01*
X88869Y-37451D01*
X88503Y-37451D01*
X88165Y-37591D01*
X87906Y-37849D01*
X87766Y-38186D01*
X87766Y-38552D01*
X87906Y-38890D01*
X88164Y-39149D01*
X88501Y-39289D01*
X88867Y-39289D01*
X89205Y-39149D01*
X89360Y-38994D01*
X89360Y-42392D01*
M02*
