M48
;DRILL file {PCBnew (2011-05-25)-stable} date Fri 12 Oct 2012 09:19:38 AM PDT
;FORMAT={-:-/ absolute / inch / decimal}
FMAT,2
INCH,TZ
T1C0.025
T2C0.030
T3C0.039
T4C0.040
T5C0.096
T6C0.116
%
G90
G05
M72
T1
X3.155Y2.430
X3.294Y2.206
X3.611Y2.265
T2
X4.418Y2.136
X4.418Y2.236
X4.418Y2.336
X4.418Y2.436
X4.418Y2.536
X4.418Y2.636
X4.418Y2.736
X4.418Y2.836
X4.418Y2.936
X4.418Y3.036
X4.418Y3.136
X4.418Y3.236
X4.418Y3.336
X5.418Y2.136
X5.418Y2.236
X5.418Y2.336
X5.418Y2.436
X5.418Y2.536
X5.418Y2.636
X5.418Y2.736
X5.418Y2.836
X5.418Y2.936
X5.418Y3.036
X5.418Y3.136
X5.418Y3.236
X5.418Y3.336
X6.418Y2.136
X6.418Y2.236
X6.418Y2.336
X6.418Y2.436
X6.418Y2.536
X6.418Y2.636
X6.418Y2.736
X6.418Y2.836
X6.418Y2.936
X6.418Y3.036
X6.418Y3.136
X6.418Y3.236
X6.418Y3.336
X7.419Y2.136
X7.419Y2.236
X7.419Y2.336
X7.419Y2.436
X7.419Y2.536
X7.419Y2.636
X7.419Y2.736
X7.419Y2.836
X7.419Y2.936
X7.419Y3.036
X7.419Y3.136
X7.419Y3.236
X7.419Y3.336
X8.418Y2.136
X8.418Y2.236
X8.418Y2.336
X8.418Y2.436
X8.418Y2.536
X8.418Y2.636
X8.418Y2.736
X8.418Y2.836
X8.418Y2.936
X8.418Y3.036
X8.418Y3.136
X8.418Y3.236
X8.418Y3.336
T3
X2.480Y1.274
X2.480Y1.470
T4
X2.362Y2.726
X2.362Y2.826
T5
X2.069Y1.635
X2.069Y3.837
X3.723Y1.301
X3.723Y4.172
X5.719Y1.301
X5.719Y4.172
X7.719Y1.301
X7.719Y4.172
X8.869Y1.635
X8.869Y3.837
T6
X4.197Y1.606
X4.197Y3.866
X5.197Y1.606
X5.197Y3.866
X6.197Y1.606
X6.197Y3.866
X7.197Y1.606
X7.197Y3.866
X8.197Y1.606
X8.197Y3.866
T0
M30
