G04 (created by PCBNEW-RS274X (2011-05-25)-stable) date Fri 12 Oct 2012 09:19:42 AM PDT*
G01*
G70*
G90*
%MOIN*%
G04 Gerber Fmt 3.4, Leading zero omitted, Abs format*
%FSLAX34Y34*%
G04 APERTURE LIST*
%ADD10C,0.006000*%
%ADD11C,0.133900*%
%ADD12R,0.100000X0.050000*%
%ADD13C,0.116000*%
%ADD14C,0.039000*%
%ADD15R,0.067000X0.110000*%
%ADD16R,0.102400X0.110000*%
%ADD17R,0.060000X0.060000*%
%ADD18C,0.060000*%
%ADD19R,0.078700X0.039400*%
%ADD20C,0.035000*%
%ADD21C,0.015000*%
%ADD22C,0.010000*%
G04 APERTURE END LIST*
G54D10*
G54D11*
X77185Y-41717D03*
X57185Y-41717D03*
X37234Y-41717D03*
X37234Y-13008D03*
X57185Y-13008D03*
X77185Y-13008D03*
G54D12*
X84185Y-21362D03*
X84185Y-22362D03*
X84185Y-23362D03*
X84185Y-24362D03*
X84185Y-25362D03*
X84185Y-26362D03*
X84185Y-27362D03*
X84185Y-28362D03*
X84185Y-29362D03*
X84185Y-30362D03*
X84185Y-31362D03*
X84185Y-32362D03*
X84185Y-33362D03*
G54D13*
X81965Y-16062D03*
X81965Y-38662D03*
G54D12*
X74185Y-21362D03*
X74185Y-22362D03*
X74185Y-23362D03*
X74185Y-24362D03*
X74185Y-25362D03*
X74185Y-26362D03*
X74185Y-27362D03*
X74185Y-28362D03*
X74185Y-29362D03*
X74185Y-30362D03*
X74185Y-31362D03*
X74185Y-32362D03*
X74185Y-33362D03*
G54D13*
X71965Y-16062D03*
X71965Y-38662D03*
G54D12*
X64185Y-21362D03*
X64185Y-22362D03*
X64185Y-23362D03*
X64185Y-24362D03*
X64185Y-25362D03*
X64185Y-26362D03*
X64185Y-27362D03*
X64185Y-28362D03*
X64185Y-29362D03*
X64185Y-30362D03*
X64185Y-31362D03*
X64185Y-32362D03*
X64185Y-33362D03*
G54D13*
X61965Y-16062D03*
X61965Y-38662D03*
G54D12*
X44185Y-21362D03*
X44185Y-22362D03*
X44185Y-23362D03*
X44185Y-24362D03*
X44185Y-25362D03*
X44185Y-26362D03*
X44185Y-27362D03*
X44185Y-28362D03*
X44185Y-29362D03*
X44185Y-30362D03*
X44185Y-31362D03*
X44185Y-32362D03*
X44185Y-33362D03*
G54D13*
X41965Y-16062D03*
X41965Y-38662D03*
G54D14*
X24803Y-12736D03*
X24803Y-14704D03*
G54D15*
X26598Y-15295D03*
X26598Y-13523D03*
G54D16*
X23189Y-13523D03*
X23189Y-15295D03*
G54D17*
X23622Y-28256D03*
G54D18*
X23622Y-27256D03*
G54D19*
X29937Y-16091D03*
X28633Y-17091D03*
X29937Y-18091D03*
X28633Y-19091D03*
X29937Y-20091D03*
X28633Y-21091D03*
X29937Y-22091D03*
X28633Y-23091D03*
X29937Y-24091D03*
X28633Y-25091D03*
X29937Y-26091D03*
X28633Y-27091D03*
X29937Y-28091D03*
X28633Y-29091D03*
X29937Y-30091D03*
X28633Y-31091D03*
X29937Y-32091D03*
X28633Y-33091D03*
X29937Y-34091D03*
X28633Y-35091D03*
X34629Y-35091D03*
X35933Y-34091D03*
X34629Y-33091D03*
X35933Y-32091D03*
X34629Y-31091D03*
X35933Y-30091D03*
X34629Y-29091D03*
X35933Y-28091D03*
X34629Y-27091D03*
X35933Y-26091D03*
X34629Y-25091D03*
X35933Y-24091D03*
X34629Y-23091D03*
X35933Y-22091D03*
X34629Y-21091D03*
X35933Y-20091D03*
X34629Y-19091D03*
X35933Y-18091D03*
X34629Y-17091D03*
X35933Y-16091D03*
G54D11*
X20685Y-16354D03*
X20685Y-38370D03*
X88685Y-38370D03*
X88685Y-16354D03*
G54D12*
X54185Y-21362D03*
X54185Y-22362D03*
X54185Y-23362D03*
X54185Y-24362D03*
X54185Y-25362D03*
X54185Y-26362D03*
X54185Y-27362D03*
X54185Y-28362D03*
X54185Y-29362D03*
X54185Y-30362D03*
X54185Y-31362D03*
X54185Y-32362D03*
X54185Y-33362D03*
G54D13*
X51965Y-16062D03*
X51965Y-38662D03*
G54D20*
X32936Y-22059D03*
X36113Y-22652D03*
X31546Y-24304D03*
G54D21*
X42127Y-26362D02*
X44185Y-26362D01*
X40265Y-24500D02*
X42127Y-26362D01*
X34664Y-24500D02*
X40265Y-24500D01*
X34058Y-23894D02*
X34664Y-24500D01*
X34058Y-23091D02*
X34058Y-23894D01*
X34629Y-23091D02*
X34058Y-23091D01*
X53079Y-25934D02*
X53507Y-26362D01*
X43076Y-25934D02*
X53079Y-25934D01*
X41233Y-24091D02*
X43076Y-25934D01*
X36505Y-24091D02*
X41233Y-24091D01*
X35933Y-24091D02*
X36505Y-24091D01*
X54185Y-26362D02*
X53507Y-26362D01*
X63079Y-26790D02*
X63507Y-26362D01*
X39549Y-26790D02*
X63079Y-26790D01*
X37850Y-25091D02*
X39549Y-26790D01*
X34629Y-25091D02*
X37850Y-25091D01*
X64185Y-26362D02*
X63507Y-26362D01*
X72078Y-27791D02*
X73507Y-26362D01*
X38205Y-27791D02*
X72078Y-27791D01*
X36505Y-26091D02*
X38205Y-27791D01*
X74185Y-26362D02*
X73507Y-26362D01*
X35933Y-26091D02*
X36505Y-26091D01*
X79139Y-26362D02*
X84185Y-26362D01*
X76710Y-28791D02*
X79139Y-26362D01*
X38275Y-28791D02*
X76710Y-28791D01*
X36575Y-27091D02*
X38275Y-28791D01*
X34629Y-27091D02*
X36575Y-27091D01*
X64185Y-30362D02*
X74185Y-30362D01*
X74185Y-30362D02*
X84185Y-30362D01*
X64185Y-24362D02*
X74185Y-24362D01*
X44863Y-24362D02*
X53507Y-24362D01*
X44185Y-24362D02*
X44863Y-24362D01*
X54185Y-24362D02*
X53507Y-24362D01*
X43153Y-30716D02*
X43507Y-30362D01*
X29580Y-30716D02*
X43153Y-30716D01*
X29205Y-31091D02*
X29580Y-30716D01*
X28633Y-31091D02*
X29205Y-31091D01*
X44185Y-30362D02*
X43507Y-30362D01*
X44185Y-29362D02*
X54185Y-29362D01*
X54185Y-29362D02*
X64185Y-29362D01*
X64185Y-29362D02*
X74185Y-29362D01*
X64185Y-23362D02*
X74185Y-23362D01*
X28633Y-21091D02*
X29205Y-21091D01*
X44185Y-23362D02*
X43507Y-23362D01*
X43507Y-22362D02*
X43507Y-23362D01*
X42611Y-21466D02*
X43507Y-22362D01*
X29580Y-21466D02*
X42611Y-21466D01*
X29205Y-21091D02*
X29580Y-21466D01*
X43507Y-22362D02*
X44185Y-22362D01*
X64185Y-22362D02*
X63507Y-22362D01*
X54185Y-22362D02*
X53507Y-22362D01*
X53507Y-23362D02*
X53507Y-22362D01*
X44185Y-23362D02*
X53507Y-23362D01*
X53507Y-23362D02*
X54185Y-23362D01*
X63507Y-22362D02*
X63507Y-23362D01*
X54185Y-23362D02*
X54863Y-23362D01*
X64185Y-23362D02*
X63507Y-23362D01*
X63507Y-23362D02*
X54863Y-23362D01*
X84863Y-23362D02*
X84863Y-22362D01*
X84185Y-23362D02*
X84863Y-23362D01*
X84185Y-22362D02*
X84863Y-22362D01*
X84863Y-29362D02*
X84863Y-23362D01*
X84185Y-29362D02*
X84863Y-29362D01*
X32904Y-22091D02*
X32936Y-22059D01*
X29937Y-22091D02*
X32904Y-22091D01*
X29644Y-22652D02*
X36113Y-22652D01*
X29205Y-23091D02*
X29644Y-22652D01*
X28633Y-23091D02*
X29205Y-23091D01*
X31333Y-24091D02*
X31546Y-24304D01*
X29937Y-24091D02*
X31333Y-24091D01*
X73079Y-31790D02*
X73507Y-31362D01*
X39982Y-31790D02*
X73079Y-31790D01*
X39907Y-31715D02*
X39982Y-31790D01*
X28368Y-31715D02*
X39907Y-31715D01*
X28062Y-31409D02*
X28368Y-31715D01*
X28062Y-25091D02*
X28062Y-31409D01*
X28633Y-25091D02*
X28062Y-25091D01*
X74185Y-31362D02*
X73507Y-31362D01*
X83079Y-30934D02*
X83507Y-31362D01*
X52634Y-30934D02*
X83079Y-30934D01*
X51491Y-29791D02*
X52634Y-30934D01*
X38850Y-29791D02*
X51491Y-29791D01*
X37526Y-28467D02*
X38850Y-29791D01*
X32885Y-28467D02*
X37526Y-28467D01*
X30509Y-26091D02*
X32885Y-28467D01*
X29937Y-26091D02*
X30509Y-26091D01*
X84185Y-31362D02*
X83507Y-31362D01*
X37077Y-33362D02*
X44185Y-33362D01*
X36182Y-32467D02*
X37077Y-33362D01*
X28173Y-32467D02*
X36182Y-32467D01*
X27677Y-31971D02*
X28173Y-32467D01*
X27677Y-19154D02*
X27677Y-31971D01*
X29366Y-17465D02*
X27677Y-19154D01*
X29366Y-16091D02*
X29366Y-17465D01*
X29937Y-16091D02*
X29366Y-16091D01*
X23189Y-15295D02*
X23189Y-13523D01*
X23189Y-26823D02*
X23189Y-15295D01*
X23622Y-27256D02*
X23189Y-26823D01*
X26598Y-13523D02*
X26598Y-15295D01*
X26598Y-25280D02*
X26598Y-15295D01*
X24100Y-27778D02*
X26598Y-25280D01*
X23622Y-27778D02*
X24100Y-27778D01*
X23622Y-28256D02*
X23622Y-27778D01*
G54D10*
G36*
X89360Y-42392D02*
X85188Y-42392D01*
X85188Y-29362D01*
X85188Y-23362D01*
X85188Y-22362D01*
X85163Y-22238D01*
X85093Y-22132D01*
X84987Y-22062D01*
X84935Y-22051D01*
X84935Y-21474D01*
X84935Y-21250D01*
X84934Y-21161D01*
X84934Y-21062D01*
X84896Y-20971D01*
X84826Y-20901D01*
X84734Y-20863D01*
X84297Y-20862D01*
X84235Y-20924D01*
X84235Y-21312D01*
X84873Y-21312D01*
X84935Y-21250D01*
X84935Y-21474D01*
X84873Y-21412D01*
X84235Y-21412D01*
X84235Y-21800D01*
X84297Y-21862D01*
X84734Y-21861D01*
X84826Y-21823D01*
X84896Y-21753D01*
X84934Y-21662D01*
X84934Y-21563D01*
X84935Y-21474D01*
X84935Y-22051D01*
X84928Y-22050D01*
X84896Y-21971D01*
X84826Y-21901D01*
X84735Y-21863D01*
X84636Y-21863D01*
X84135Y-21863D01*
X84135Y-21800D01*
X84135Y-21412D01*
X84135Y-21312D01*
X84135Y-20924D01*
X84073Y-20862D01*
X83636Y-20863D01*
X83544Y-20901D01*
X83474Y-20971D01*
X83436Y-21062D01*
X83436Y-21161D01*
X83435Y-21250D01*
X83497Y-21312D01*
X84135Y-21312D01*
X84135Y-21412D01*
X83497Y-21412D01*
X83435Y-21474D01*
X83436Y-21563D01*
X83436Y-21662D01*
X83474Y-21753D01*
X83544Y-21823D01*
X83636Y-21861D01*
X84073Y-21862D01*
X84135Y-21800D01*
X84135Y-21863D01*
X83636Y-21863D01*
X83544Y-21901D01*
X83474Y-21971D01*
X83436Y-22062D01*
X83436Y-22161D01*
X83436Y-22661D01*
X83474Y-22753D01*
X83544Y-22823D01*
X83635Y-22861D01*
X83734Y-22861D01*
X84538Y-22861D01*
X84538Y-22863D01*
X83636Y-22863D01*
X83544Y-22901D01*
X83474Y-22971D01*
X83436Y-23062D01*
X83436Y-23161D01*
X83436Y-23661D01*
X83474Y-23753D01*
X83544Y-23823D01*
X83635Y-23861D01*
X83734Y-23861D01*
X84538Y-23861D01*
X84538Y-23863D01*
X83636Y-23863D01*
X83544Y-23901D01*
X83474Y-23971D01*
X83436Y-24062D01*
X83436Y-24161D01*
X83436Y-24661D01*
X83474Y-24753D01*
X83544Y-24823D01*
X83635Y-24861D01*
X83734Y-24861D01*
X84538Y-24861D01*
X84538Y-24862D01*
X84297Y-24862D01*
X84235Y-24924D01*
X84235Y-25262D01*
X84235Y-25312D01*
X84235Y-25412D01*
X84235Y-25462D01*
X84235Y-25800D01*
X84297Y-25862D01*
X84538Y-25861D01*
X84538Y-25863D01*
X84135Y-25863D01*
X84135Y-25800D01*
X84135Y-25412D01*
X84135Y-25312D01*
X84135Y-24924D01*
X84073Y-24862D01*
X83636Y-24863D01*
X83544Y-24901D01*
X83474Y-24971D01*
X83436Y-25062D01*
X83436Y-25161D01*
X83435Y-25250D01*
X83497Y-25312D01*
X84135Y-25312D01*
X84135Y-25412D01*
X83497Y-25412D01*
X83435Y-25474D01*
X83436Y-25563D01*
X83436Y-25662D01*
X83474Y-25753D01*
X83544Y-25823D01*
X83636Y-25861D01*
X84073Y-25862D01*
X84135Y-25800D01*
X84135Y-25863D01*
X83636Y-25863D01*
X83544Y-25901D01*
X83474Y-25971D01*
X83446Y-26037D01*
X82795Y-26037D01*
X82795Y-16228D01*
X82795Y-15898D01*
X82669Y-15593D01*
X82436Y-15359D01*
X82131Y-15232D01*
X81801Y-15232D01*
X81496Y-15358D01*
X81262Y-15591D01*
X81135Y-15896D01*
X81135Y-16226D01*
X81261Y-16531D01*
X81494Y-16765D01*
X81799Y-16892D01*
X82129Y-16892D01*
X82434Y-16766D01*
X82668Y-16533D01*
X82795Y-16228D01*
X82795Y-26037D01*
X79139Y-26037D01*
X79014Y-26062D01*
X78909Y-26132D01*
X76575Y-28466D01*
X74935Y-28466D01*
X74935Y-25474D01*
X74935Y-25250D01*
X74935Y-21474D01*
X74935Y-21250D01*
X74934Y-21161D01*
X74934Y-21062D01*
X74896Y-20971D01*
X74826Y-20901D01*
X74734Y-20863D01*
X74297Y-20862D01*
X74235Y-20924D01*
X74235Y-21312D01*
X74873Y-21312D01*
X74935Y-21250D01*
X74935Y-21474D01*
X74873Y-21412D01*
X74235Y-21412D01*
X74235Y-21800D01*
X74297Y-21862D01*
X74734Y-21861D01*
X74826Y-21823D01*
X74896Y-21753D01*
X74934Y-21662D01*
X74934Y-21563D01*
X74935Y-21474D01*
X74935Y-25250D01*
X74934Y-25161D01*
X74934Y-25062D01*
X74934Y-24662D01*
X74934Y-24563D01*
X74934Y-24063D01*
X74896Y-23971D01*
X74826Y-23901D01*
X74735Y-23863D01*
X74636Y-23863D01*
X73636Y-23863D01*
X73544Y-23901D01*
X73474Y-23971D01*
X73446Y-24037D01*
X64923Y-24037D01*
X64896Y-23971D01*
X64826Y-23901D01*
X64735Y-23863D01*
X64636Y-23863D01*
X63636Y-23863D01*
X63544Y-23901D01*
X63474Y-23971D01*
X63436Y-24062D01*
X63436Y-24161D01*
X63436Y-24661D01*
X63474Y-24753D01*
X63544Y-24823D01*
X63635Y-24861D01*
X63734Y-24861D01*
X64734Y-24861D01*
X64826Y-24823D01*
X64896Y-24753D01*
X64923Y-24687D01*
X73446Y-24687D01*
X73474Y-24753D01*
X73544Y-24823D01*
X73635Y-24861D01*
X73734Y-24861D01*
X74734Y-24861D01*
X74826Y-24823D01*
X74896Y-24753D01*
X74934Y-24662D01*
X74934Y-25062D01*
X74896Y-24971D01*
X74826Y-24901D01*
X74734Y-24863D01*
X74297Y-24862D01*
X74235Y-24924D01*
X74235Y-25312D01*
X74873Y-25312D01*
X74935Y-25250D01*
X74935Y-25474D01*
X74873Y-25412D01*
X74235Y-25412D01*
X74235Y-25800D01*
X74297Y-25862D01*
X74734Y-25861D01*
X74826Y-25823D01*
X74896Y-25753D01*
X74934Y-25662D01*
X74934Y-25563D01*
X74935Y-25474D01*
X74935Y-28466D01*
X74934Y-28466D01*
X74934Y-28063D01*
X74934Y-27662D01*
X74934Y-27563D01*
X74934Y-27063D01*
X74896Y-26971D01*
X74826Y-26901D01*
X74735Y-26863D01*
X74636Y-26863D01*
X73636Y-26863D01*
X73544Y-26901D01*
X73474Y-26971D01*
X73436Y-27062D01*
X73436Y-27161D01*
X73436Y-27661D01*
X73474Y-27753D01*
X73544Y-27823D01*
X73635Y-27861D01*
X73734Y-27861D01*
X74734Y-27861D01*
X74826Y-27823D01*
X74896Y-27753D01*
X74934Y-27662D01*
X74934Y-28063D01*
X74896Y-27971D01*
X74826Y-27901D01*
X74735Y-27863D01*
X74636Y-27863D01*
X73636Y-27863D01*
X73544Y-27901D01*
X73474Y-27971D01*
X73436Y-28062D01*
X73436Y-28161D01*
X73436Y-28466D01*
X64934Y-28466D01*
X64934Y-28116D01*
X72078Y-28116D01*
X72202Y-28091D01*
X72308Y-28021D01*
X73524Y-26803D01*
X73544Y-26823D01*
X73635Y-26861D01*
X73734Y-26861D01*
X74734Y-26861D01*
X74826Y-26823D01*
X74896Y-26753D01*
X74934Y-26662D01*
X74934Y-26563D01*
X74934Y-26063D01*
X74896Y-25971D01*
X74826Y-25901D01*
X74735Y-25863D01*
X74636Y-25863D01*
X74135Y-25863D01*
X74135Y-25800D01*
X74135Y-25412D01*
X74135Y-25312D01*
X74135Y-24924D01*
X74073Y-24862D01*
X73636Y-24863D01*
X73544Y-24901D01*
X73474Y-24971D01*
X73436Y-25062D01*
X73436Y-25161D01*
X73435Y-25250D01*
X73497Y-25312D01*
X74135Y-25312D01*
X74135Y-25412D01*
X73497Y-25412D01*
X73435Y-25474D01*
X73436Y-25563D01*
X73436Y-25662D01*
X73474Y-25753D01*
X73544Y-25823D01*
X73636Y-25861D01*
X74073Y-25862D01*
X74135Y-25800D01*
X74135Y-25863D01*
X73636Y-25863D01*
X73544Y-25901D01*
X73474Y-25971D01*
X73440Y-26050D01*
X73383Y-26062D01*
X73277Y-26132D01*
X73275Y-26134D01*
X71943Y-27466D01*
X64935Y-27466D01*
X64935Y-25474D01*
X64935Y-25250D01*
X64934Y-25161D01*
X64934Y-25062D01*
X64896Y-24971D01*
X64826Y-24901D01*
X64734Y-24863D01*
X64297Y-24862D01*
X64235Y-24924D01*
X64235Y-25312D01*
X64873Y-25312D01*
X64935Y-25250D01*
X64935Y-25474D01*
X64873Y-25412D01*
X64235Y-25412D01*
X64235Y-25800D01*
X64297Y-25862D01*
X64734Y-25861D01*
X64826Y-25823D01*
X64896Y-25753D01*
X64934Y-25662D01*
X64934Y-25563D01*
X64935Y-25474D01*
X64935Y-27466D01*
X64934Y-27466D01*
X64934Y-27063D01*
X64896Y-26971D01*
X64826Y-26901D01*
X64735Y-26863D01*
X64636Y-26863D01*
X63636Y-26863D01*
X63544Y-26901D01*
X63474Y-26971D01*
X63436Y-27062D01*
X63436Y-27161D01*
X63436Y-27466D01*
X54934Y-27466D01*
X54934Y-27115D01*
X63079Y-27115D01*
X63203Y-27090D01*
X63309Y-27020D01*
X63525Y-26804D01*
X63544Y-26823D01*
X63635Y-26861D01*
X63734Y-26861D01*
X64734Y-26861D01*
X64826Y-26823D01*
X64896Y-26753D01*
X64934Y-26662D01*
X64934Y-26563D01*
X64934Y-26063D01*
X64896Y-25971D01*
X64826Y-25901D01*
X64735Y-25863D01*
X64636Y-25863D01*
X64135Y-25863D01*
X64135Y-25800D01*
X64135Y-25412D01*
X64135Y-25312D01*
X64135Y-24924D01*
X64073Y-24862D01*
X63636Y-24863D01*
X63544Y-24901D01*
X63474Y-24971D01*
X63436Y-25062D01*
X63436Y-25161D01*
X63435Y-25250D01*
X63497Y-25312D01*
X64135Y-25312D01*
X64135Y-25412D01*
X63497Y-25412D01*
X63435Y-25474D01*
X63436Y-25563D01*
X63436Y-25662D01*
X63474Y-25753D01*
X63544Y-25823D01*
X63636Y-25861D01*
X64073Y-25862D01*
X64135Y-25800D01*
X64135Y-25863D01*
X63636Y-25863D01*
X63544Y-25901D01*
X63474Y-25971D01*
X63440Y-26050D01*
X63382Y-26062D01*
X63277Y-26132D01*
X62944Y-26465D01*
X54935Y-26465D01*
X54935Y-25474D01*
X54935Y-25250D01*
X54934Y-25161D01*
X54934Y-25062D01*
X54934Y-24662D01*
X54934Y-24563D01*
X54934Y-24063D01*
X54896Y-23971D01*
X54826Y-23901D01*
X54735Y-23863D01*
X54636Y-23863D01*
X53636Y-23863D01*
X53544Y-23901D01*
X53474Y-23971D01*
X53446Y-24037D01*
X44923Y-24037D01*
X44896Y-23971D01*
X44826Y-23901D01*
X44735Y-23863D01*
X44636Y-23863D01*
X43636Y-23863D01*
X43544Y-23901D01*
X43474Y-23971D01*
X43436Y-24062D01*
X43436Y-24161D01*
X43436Y-24661D01*
X43474Y-24753D01*
X43544Y-24823D01*
X43635Y-24861D01*
X43734Y-24861D01*
X44734Y-24861D01*
X44826Y-24823D01*
X44896Y-24753D01*
X44923Y-24687D01*
X53446Y-24687D01*
X53474Y-24753D01*
X53544Y-24823D01*
X53635Y-24861D01*
X53734Y-24861D01*
X54734Y-24861D01*
X54826Y-24823D01*
X54896Y-24753D01*
X54934Y-24662D01*
X54934Y-25062D01*
X54896Y-24971D01*
X54826Y-24901D01*
X54734Y-24863D01*
X54297Y-24862D01*
X54235Y-24924D01*
X54235Y-25312D01*
X54873Y-25312D01*
X54935Y-25250D01*
X54935Y-25474D01*
X54873Y-25412D01*
X54235Y-25412D01*
X54235Y-25800D01*
X54297Y-25862D01*
X54734Y-25861D01*
X54826Y-25823D01*
X54896Y-25753D01*
X54934Y-25662D01*
X54934Y-25563D01*
X54935Y-25474D01*
X54935Y-26465D01*
X54934Y-26465D01*
X54934Y-26063D01*
X54896Y-25971D01*
X54826Y-25901D01*
X54735Y-25863D01*
X54636Y-25863D01*
X54135Y-25863D01*
X54135Y-25800D01*
X54135Y-25412D01*
X54135Y-25312D01*
X54135Y-24924D01*
X54073Y-24862D01*
X53636Y-24863D01*
X53544Y-24901D01*
X53474Y-24971D01*
X53436Y-25062D01*
X53436Y-25161D01*
X53435Y-25250D01*
X53497Y-25312D01*
X54135Y-25312D01*
X54135Y-25412D01*
X53497Y-25412D01*
X53435Y-25474D01*
X53436Y-25563D01*
X53436Y-25662D01*
X53474Y-25753D01*
X53544Y-25823D01*
X53636Y-25861D01*
X54073Y-25862D01*
X54135Y-25800D01*
X54135Y-25863D01*
X53636Y-25863D01*
X53544Y-25901D01*
X53525Y-25920D01*
X53309Y-25704D01*
X53203Y-25634D01*
X53079Y-25609D01*
X44934Y-25609D01*
X44934Y-25563D01*
X44935Y-25474D01*
X44935Y-25250D01*
X44934Y-25161D01*
X44934Y-25062D01*
X44896Y-24971D01*
X44826Y-24901D01*
X44734Y-24863D01*
X44297Y-24862D01*
X44235Y-24924D01*
X44235Y-25312D01*
X44873Y-25312D01*
X44935Y-25250D01*
X44935Y-25474D01*
X44873Y-25412D01*
X44285Y-25412D01*
X44235Y-25412D01*
X44135Y-25412D01*
X44135Y-25312D01*
X44135Y-24924D01*
X44073Y-24862D01*
X43636Y-24863D01*
X43544Y-24901D01*
X43474Y-24971D01*
X43436Y-25062D01*
X43436Y-25161D01*
X43435Y-25250D01*
X43497Y-25312D01*
X44135Y-25312D01*
X44135Y-25412D01*
X44085Y-25412D01*
X43497Y-25412D01*
X43435Y-25474D01*
X43436Y-25563D01*
X43436Y-25609D01*
X43211Y-25609D01*
X41463Y-23861D01*
X41357Y-23791D01*
X41233Y-23766D01*
X36542Y-23766D01*
X36537Y-23753D01*
X36467Y-23683D01*
X36376Y-23645D01*
X36277Y-23645D01*
X35491Y-23645D01*
X35399Y-23683D01*
X35329Y-23753D01*
X35291Y-23844D01*
X35291Y-23943D01*
X35291Y-24175D01*
X34799Y-24175D01*
X34383Y-23759D01*
X34383Y-23537D01*
X35071Y-23537D01*
X35163Y-23499D01*
X35233Y-23429D01*
X35271Y-23338D01*
X35271Y-23239D01*
X35271Y-22977D01*
X35837Y-22977D01*
X35872Y-23012D01*
X36028Y-23077D01*
X36197Y-23077D01*
X36353Y-23013D01*
X36473Y-22893D01*
X36538Y-22737D01*
X36538Y-22568D01*
X36497Y-22468D01*
X36537Y-22429D01*
X36575Y-22338D01*
X36575Y-22239D01*
X36575Y-21845D01*
X36552Y-21791D01*
X42476Y-21791D01*
X43182Y-22497D01*
X43182Y-23362D01*
X43207Y-23486D01*
X43277Y-23592D01*
X43383Y-23662D01*
X43441Y-23673D01*
X43474Y-23753D01*
X43544Y-23823D01*
X43635Y-23861D01*
X43734Y-23861D01*
X44734Y-23861D01*
X44826Y-23823D01*
X44896Y-23753D01*
X44923Y-23687D01*
X53446Y-23687D01*
X53474Y-23753D01*
X53544Y-23823D01*
X53635Y-23861D01*
X53734Y-23861D01*
X54734Y-23861D01*
X54826Y-23823D01*
X54896Y-23753D01*
X54923Y-23687D01*
X63446Y-23687D01*
X63474Y-23753D01*
X63544Y-23823D01*
X63635Y-23861D01*
X63734Y-23861D01*
X64734Y-23861D01*
X64826Y-23823D01*
X64896Y-23753D01*
X64923Y-23687D01*
X73446Y-23687D01*
X73474Y-23753D01*
X73544Y-23823D01*
X73635Y-23861D01*
X73734Y-23861D01*
X74734Y-23861D01*
X74826Y-23823D01*
X74896Y-23753D01*
X74934Y-23662D01*
X74934Y-23563D01*
X74934Y-23063D01*
X74934Y-22662D01*
X74934Y-22563D01*
X74934Y-22063D01*
X74896Y-21971D01*
X74826Y-21901D01*
X74735Y-21863D01*
X74636Y-21863D01*
X74135Y-21863D01*
X74135Y-21800D01*
X74135Y-21412D01*
X74135Y-21312D01*
X74135Y-20924D01*
X74073Y-20862D01*
X73636Y-20863D01*
X73544Y-20901D01*
X73474Y-20971D01*
X73436Y-21062D01*
X73436Y-21161D01*
X73435Y-21250D01*
X73497Y-21312D01*
X74135Y-21312D01*
X74135Y-21412D01*
X73497Y-21412D01*
X73435Y-21474D01*
X73436Y-21563D01*
X73436Y-21662D01*
X73474Y-21753D01*
X73544Y-21823D01*
X73636Y-21861D01*
X74073Y-21862D01*
X74135Y-21800D01*
X74135Y-21863D01*
X73636Y-21863D01*
X73544Y-21901D01*
X73474Y-21971D01*
X73436Y-22062D01*
X73436Y-22161D01*
X73436Y-22661D01*
X73474Y-22753D01*
X73544Y-22823D01*
X73635Y-22861D01*
X73734Y-22861D01*
X74734Y-22861D01*
X74826Y-22823D01*
X74896Y-22753D01*
X74934Y-22662D01*
X74934Y-23063D01*
X74896Y-22971D01*
X74826Y-22901D01*
X74735Y-22863D01*
X74636Y-22863D01*
X73636Y-22863D01*
X73544Y-22901D01*
X73474Y-22971D01*
X73446Y-23037D01*
X72795Y-23037D01*
X72795Y-16228D01*
X72795Y-15898D01*
X72669Y-15593D01*
X72436Y-15359D01*
X72131Y-15232D01*
X71801Y-15232D01*
X71496Y-15358D01*
X71262Y-15591D01*
X71135Y-15896D01*
X71135Y-16226D01*
X71261Y-16531D01*
X71494Y-16765D01*
X71799Y-16892D01*
X72129Y-16892D01*
X72434Y-16766D01*
X72668Y-16533D01*
X72795Y-16228D01*
X72795Y-23037D01*
X64935Y-23037D01*
X64935Y-21474D01*
X64935Y-21250D01*
X64934Y-21161D01*
X64934Y-21062D01*
X64896Y-20971D01*
X64826Y-20901D01*
X64734Y-20863D01*
X64297Y-20862D01*
X64235Y-20924D01*
X64235Y-21312D01*
X64873Y-21312D01*
X64935Y-21250D01*
X64935Y-21474D01*
X64873Y-21412D01*
X64235Y-21412D01*
X64235Y-21800D01*
X64297Y-21862D01*
X64734Y-21861D01*
X64826Y-21823D01*
X64896Y-21753D01*
X64934Y-21662D01*
X64934Y-21563D01*
X64935Y-21474D01*
X64935Y-23037D01*
X64923Y-23037D01*
X64896Y-22971D01*
X64826Y-22901D01*
X64735Y-22863D01*
X64636Y-22863D01*
X63832Y-22863D01*
X63832Y-22861D01*
X64734Y-22861D01*
X64826Y-22823D01*
X64896Y-22753D01*
X64934Y-22662D01*
X64934Y-22563D01*
X64934Y-22063D01*
X64896Y-21971D01*
X64826Y-21901D01*
X64735Y-21863D01*
X64636Y-21863D01*
X64135Y-21863D01*
X64135Y-21800D01*
X64135Y-21412D01*
X64135Y-21312D01*
X64135Y-20924D01*
X64073Y-20862D01*
X63636Y-20863D01*
X63544Y-20901D01*
X63474Y-20971D01*
X63436Y-21062D01*
X63436Y-21161D01*
X63435Y-21250D01*
X63497Y-21312D01*
X64135Y-21312D01*
X64135Y-21412D01*
X63497Y-21412D01*
X63435Y-21474D01*
X63436Y-21563D01*
X63436Y-21662D01*
X63474Y-21753D01*
X63544Y-21823D01*
X63636Y-21861D01*
X64073Y-21862D01*
X64135Y-21800D01*
X64135Y-21863D01*
X63636Y-21863D01*
X63544Y-21901D01*
X63474Y-21971D01*
X63440Y-22050D01*
X63383Y-22062D01*
X63277Y-22132D01*
X63207Y-22238D01*
X63182Y-22362D01*
X63182Y-23037D01*
X62795Y-23037D01*
X62795Y-16228D01*
X62795Y-15898D01*
X62669Y-15593D01*
X62436Y-15359D01*
X62131Y-15232D01*
X61801Y-15232D01*
X61496Y-15358D01*
X61262Y-15591D01*
X61135Y-15896D01*
X61135Y-16226D01*
X61261Y-16531D01*
X61494Y-16765D01*
X61799Y-16892D01*
X62129Y-16892D01*
X62434Y-16766D01*
X62668Y-16533D01*
X62795Y-16228D01*
X62795Y-23037D01*
X54935Y-23037D01*
X54935Y-21474D01*
X54935Y-21250D01*
X54934Y-21161D01*
X54934Y-21062D01*
X54896Y-20971D01*
X54826Y-20901D01*
X54734Y-20863D01*
X54297Y-20862D01*
X54235Y-20924D01*
X54235Y-21312D01*
X54873Y-21312D01*
X54935Y-21250D01*
X54935Y-21474D01*
X54873Y-21412D01*
X54235Y-21412D01*
X54235Y-21800D01*
X54297Y-21862D01*
X54734Y-21861D01*
X54826Y-21823D01*
X54896Y-21753D01*
X54934Y-21662D01*
X54934Y-21563D01*
X54935Y-21474D01*
X54935Y-23037D01*
X54923Y-23037D01*
X54896Y-22971D01*
X54826Y-22901D01*
X54735Y-22863D01*
X54636Y-22863D01*
X53832Y-22863D01*
X53832Y-22861D01*
X54734Y-22861D01*
X54826Y-22823D01*
X54896Y-22753D01*
X54934Y-22662D01*
X54934Y-22563D01*
X54934Y-22063D01*
X54896Y-21971D01*
X54826Y-21901D01*
X54735Y-21863D01*
X54636Y-21863D01*
X54135Y-21863D01*
X54135Y-21800D01*
X54135Y-21412D01*
X54135Y-21312D01*
X54135Y-20924D01*
X54073Y-20862D01*
X53636Y-20863D01*
X53544Y-20901D01*
X53474Y-20971D01*
X53436Y-21062D01*
X53436Y-21161D01*
X53435Y-21250D01*
X53497Y-21312D01*
X54135Y-21312D01*
X54135Y-21412D01*
X53497Y-21412D01*
X53435Y-21474D01*
X53436Y-21563D01*
X53436Y-21662D01*
X53474Y-21753D01*
X53544Y-21823D01*
X53636Y-21861D01*
X54073Y-21862D01*
X54135Y-21800D01*
X54135Y-21863D01*
X53636Y-21863D01*
X53544Y-21901D01*
X53474Y-21971D01*
X53440Y-22050D01*
X53383Y-22062D01*
X53277Y-22132D01*
X53207Y-22238D01*
X53182Y-22362D01*
X53182Y-23037D01*
X52795Y-23037D01*
X52795Y-16228D01*
X52795Y-15898D01*
X52669Y-15593D01*
X52436Y-15359D01*
X52131Y-15232D01*
X51801Y-15232D01*
X51496Y-15358D01*
X51262Y-15591D01*
X51135Y-15896D01*
X51135Y-16226D01*
X51261Y-16531D01*
X51494Y-16765D01*
X51799Y-16892D01*
X52129Y-16892D01*
X52434Y-16766D01*
X52668Y-16533D01*
X52795Y-16228D01*
X52795Y-23037D01*
X44935Y-23037D01*
X44935Y-21474D01*
X44935Y-21250D01*
X44934Y-21161D01*
X44934Y-21062D01*
X44896Y-20971D01*
X44826Y-20901D01*
X44734Y-20863D01*
X44297Y-20862D01*
X44235Y-20924D01*
X44235Y-21312D01*
X44873Y-21312D01*
X44935Y-21250D01*
X44935Y-21474D01*
X44873Y-21412D01*
X44235Y-21412D01*
X44235Y-21800D01*
X44297Y-21862D01*
X44734Y-21861D01*
X44826Y-21823D01*
X44896Y-21753D01*
X44934Y-21662D01*
X44934Y-21563D01*
X44935Y-21474D01*
X44935Y-23037D01*
X44923Y-23037D01*
X44896Y-22971D01*
X44826Y-22901D01*
X44735Y-22863D01*
X44636Y-22863D01*
X43832Y-22863D01*
X43832Y-22861D01*
X44734Y-22861D01*
X44826Y-22823D01*
X44896Y-22753D01*
X44934Y-22662D01*
X44934Y-22563D01*
X44934Y-22063D01*
X44896Y-21971D01*
X44826Y-21901D01*
X44735Y-21863D01*
X44636Y-21863D01*
X44135Y-21863D01*
X44135Y-21800D01*
X44135Y-21412D01*
X44135Y-21312D01*
X44135Y-20924D01*
X44073Y-20862D01*
X43636Y-20863D01*
X43544Y-20901D01*
X43474Y-20971D01*
X43436Y-21062D01*
X43436Y-21161D01*
X43435Y-21250D01*
X43497Y-21312D01*
X44135Y-21312D01*
X44135Y-21412D01*
X43497Y-21412D01*
X43435Y-21474D01*
X43436Y-21563D01*
X43436Y-21662D01*
X43474Y-21753D01*
X43544Y-21823D01*
X43636Y-21861D01*
X44073Y-21862D01*
X44135Y-21800D01*
X44135Y-21863D01*
X43636Y-21863D01*
X43544Y-21901D01*
X43525Y-21920D01*
X42841Y-21236D01*
X42795Y-21205D01*
X42795Y-16228D01*
X42795Y-15898D01*
X42669Y-15593D01*
X42436Y-15359D01*
X42131Y-15232D01*
X41801Y-15232D01*
X41496Y-15358D01*
X41262Y-15591D01*
X41135Y-15896D01*
X41135Y-16226D01*
X41261Y-16531D01*
X41494Y-16765D01*
X41799Y-16892D01*
X42129Y-16892D01*
X42434Y-16766D01*
X42668Y-16533D01*
X42795Y-16228D01*
X42795Y-21205D01*
X42735Y-21166D01*
X42611Y-21141D01*
X36575Y-21141D01*
X36575Y-20338D01*
X36575Y-20239D01*
X36575Y-19845D01*
X36575Y-18338D01*
X36575Y-18239D01*
X36575Y-17845D01*
X36575Y-16338D01*
X36575Y-16239D01*
X36575Y-15845D01*
X36537Y-15753D01*
X36467Y-15683D01*
X36376Y-15645D01*
X36277Y-15645D01*
X35491Y-15645D01*
X35399Y-15683D01*
X35329Y-15753D01*
X35291Y-15844D01*
X35291Y-15943D01*
X35291Y-16337D01*
X35329Y-16429D01*
X35399Y-16499D01*
X35490Y-16537D01*
X35589Y-16537D01*
X36375Y-16537D01*
X36467Y-16499D01*
X36537Y-16429D01*
X36575Y-16338D01*
X36575Y-17845D01*
X36537Y-17753D01*
X36467Y-17683D01*
X36376Y-17645D01*
X36277Y-17645D01*
X35491Y-17645D01*
X35399Y-17683D01*
X35329Y-17753D01*
X35291Y-17844D01*
X35291Y-17943D01*
X35291Y-18337D01*
X35329Y-18429D01*
X35399Y-18499D01*
X35490Y-18537D01*
X35589Y-18537D01*
X36375Y-18537D01*
X36467Y-18499D01*
X36537Y-18429D01*
X36575Y-18338D01*
X36575Y-19845D01*
X36537Y-19753D01*
X36467Y-19683D01*
X36376Y-19645D01*
X36277Y-19645D01*
X35491Y-19645D01*
X35399Y-19683D01*
X35329Y-19753D01*
X35291Y-19844D01*
X35291Y-19943D01*
X35291Y-20337D01*
X35329Y-20429D01*
X35399Y-20499D01*
X35490Y-20537D01*
X35589Y-20537D01*
X36375Y-20537D01*
X36467Y-20499D01*
X36537Y-20429D01*
X36575Y-20338D01*
X36575Y-21141D01*
X35271Y-21141D01*
X35271Y-20845D01*
X35271Y-19338D01*
X35271Y-19239D01*
X35271Y-18845D01*
X35271Y-17338D01*
X35271Y-17239D01*
X35271Y-16845D01*
X35233Y-16753D01*
X35163Y-16683D01*
X35072Y-16645D01*
X34973Y-16645D01*
X34187Y-16645D01*
X34095Y-16683D01*
X34025Y-16753D01*
X33987Y-16844D01*
X33987Y-16943D01*
X33987Y-17337D01*
X34025Y-17429D01*
X34095Y-17499D01*
X34186Y-17537D01*
X34285Y-17537D01*
X35071Y-17537D01*
X35163Y-17499D01*
X35233Y-17429D01*
X35271Y-17338D01*
X35271Y-18845D01*
X35233Y-18753D01*
X35163Y-18683D01*
X35072Y-18645D01*
X34973Y-18645D01*
X34187Y-18645D01*
X34095Y-18683D01*
X34025Y-18753D01*
X33987Y-18844D01*
X33987Y-18943D01*
X33987Y-19337D01*
X34025Y-19429D01*
X34095Y-19499D01*
X34186Y-19537D01*
X34285Y-19537D01*
X35071Y-19537D01*
X35163Y-19499D01*
X35233Y-19429D01*
X35271Y-19338D01*
X35271Y-20845D01*
X35233Y-20753D01*
X35163Y-20683D01*
X35072Y-20645D01*
X34973Y-20645D01*
X34187Y-20645D01*
X34095Y-20683D01*
X34025Y-20753D01*
X33987Y-20844D01*
X33987Y-20943D01*
X33987Y-21141D01*
X30579Y-21141D01*
X30579Y-20338D01*
X30579Y-20239D01*
X30579Y-19845D01*
X30541Y-19753D01*
X30471Y-19683D01*
X30380Y-19645D01*
X30281Y-19645D01*
X29495Y-19645D01*
X29403Y-19683D01*
X29333Y-19753D01*
X29295Y-19844D01*
X29295Y-19943D01*
X29295Y-20337D01*
X29333Y-20429D01*
X29403Y-20499D01*
X29494Y-20537D01*
X29593Y-20537D01*
X30379Y-20537D01*
X30471Y-20499D01*
X30541Y-20429D01*
X30579Y-20338D01*
X30579Y-21141D01*
X29715Y-21141D01*
X29435Y-20861D01*
X29329Y-20791D01*
X29245Y-20774D01*
X29237Y-20753D01*
X29167Y-20683D01*
X29076Y-20645D01*
X28977Y-20645D01*
X28191Y-20645D01*
X28099Y-20683D01*
X28029Y-20753D01*
X28002Y-20817D01*
X28002Y-19363D01*
X28029Y-19429D01*
X28099Y-19499D01*
X28190Y-19537D01*
X28289Y-19537D01*
X29075Y-19537D01*
X29167Y-19499D01*
X29237Y-19429D01*
X29275Y-19338D01*
X29275Y-19239D01*
X29275Y-18845D01*
X29237Y-18753D01*
X29167Y-18683D01*
X29076Y-18645D01*
X28977Y-18645D01*
X28645Y-18645D01*
X29295Y-17995D01*
X29295Y-18337D01*
X29333Y-18429D01*
X29403Y-18499D01*
X29494Y-18537D01*
X29593Y-18537D01*
X30379Y-18537D01*
X30471Y-18499D01*
X30541Y-18429D01*
X30579Y-18338D01*
X30579Y-18239D01*
X30579Y-17845D01*
X30541Y-17753D01*
X30471Y-17683D01*
X30380Y-17645D01*
X30281Y-17645D01*
X29629Y-17645D01*
X29665Y-17590D01*
X29666Y-17589D01*
X29691Y-17465D01*
X29691Y-16537D01*
X30379Y-16537D01*
X30471Y-16499D01*
X30541Y-16429D01*
X30579Y-16338D01*
X30579Y-16239D01*
X30579Y-15845D01*
X30541Y-15753D01*
X30471Y-15683D01*
X30380Y-15645D01*
X30281Y-15645D01*
X29495Y-15645D01*
X29403Y-15683D01*
X29333Y-15753D01*
X29324Y-15774D01*
X29242Y-15791D01*
X29136Y-15861D01*
X29066Y-15967D01*
X29041Y-16091D01*
X29041Y-16644D01*
X28745Y-16644D01*
X28683Y-16706D01*
X28683Y-16991D01*
X28683Y-17041D01*
X28683Y-17141D01*
X28683Y-17191D01*
X28683Y-17476D01*
X28745Y-17538D01*
X28834Y-17537D01*
X28583Y-17788D01*
X28583Y-17476D01*
X28583Y-17141D01*
X28583Y-17041D01*
X28583Y-16706D01*
X28521Y-16644D01*
X28191Y-16645D01*
X28099Y-16683D01*
X28029Y-16753D01*
X27991Y-16844D01*
X27991Y-16943D01*
X27990Y-16979D01*
X28052Y-17041D01*
X28583Y-17041D01*
X28583Y-17141D01*
X28052Y-17141D01*
X27990Y-17203D01*
X27991Y-17239D01*
X27991Y-17338D01*
X28029Y-17429D01*
X28099Y-17499D01*
X28191Y-17537D01*
X28521Y-17538D01*
X28583Y-17476D01*
X28583Y-17788D01*
X27447Y-18924D01*
X27377Y-19030D01*
X27352Y-19154D01*
X27352Y-31971D01*
X27377Y-32095D01*
X27447Y-32201D01*
X27941Y-32694D01*
X27943Y-32697D01*
X28028Y-32753D01*
X27991Y-32844D01*
X27991Y-32943D01*
X27991Y-33337D01*
X28029Y-33429D01*
X28099Y-33499D01*
X28190Y-33537D01*
X28289Y-33537D01*
X29075Y-33537D01*
X29167Y-33499D01*
X29237Y-33429D01*
X29275Y-33338D01*
X29275Y-33239D01*
X29275Y-32845D01*
X29253Y-32792D01*
X34008Y-32792D01*
X33987Y-32844D01*
X33987Y-32943D01*
X33987Y-33337D01*
X34025Y-33429D01*
X34095Y-33499D01*
X34186Y-33537D01*
X34285Y-33537D01*
X35071Y-33537D01*
X35163Y-33499D01*
X35233Y-33429D01*
X35271Y-33338D01*
X35271Y-33239D01*
X35271Y-32845D01*
X35249Y-32792D01*
X36047Y-32792D01*
X36845Y-33589D01*
X36847Y-33592D01*
X36952Y-33661D01*
X36953Y-33662D01*
X37051Y-33681D01*
X37076Y-33687D01*
X37076Y-33686D01*
X37077Y-33687D01*
X43446Y-33687D01*
X43474Y-33753D01*
X43544Y-33823D01*
X43635Y-33861D01*
X43734Y-33861D01*
X44734Y-33861D01*
X44826Y-33823D01*
X44896Y-33753D01*
X44934Y-33662D01*
X44934Y-33563D01*
X44934Y-33063D01*
X44896Y-32971D01*
X44826Y-32901D01*
X44735Y-32863D01*
X44636Y-32863D01*
X43636Y-32863D01*
X43544Y-32901D01*
X43474Y-32971D01*
X43446Y-33037D01*
X37211Y-33037D01*
X36556Y-32381D01*
X36575Y-32338D01*
X36575Y-32239D01*
X36575Y-32040D01*
X39782Y-32040D01*
X39858Y-32090D01*
X39982Y-32115D01*
X43436Y-32115D01*
X43436Y-32161D01*
X43436Y-32661D01*
X43474Y-32753D01*
X43544Y-32823D01*
X43635Y-32861D01*
X43734Y-32861D01*
X44734Y-32861D01*
X44826Y-32823D01*
X44896Y-32753D01*
X44934Y-32662D01*
X44934Y-32563D01*
X44934Y-32115D01*
X53436Y-32115D01*
X53436Y-32161D01*
X53436Y-32661D01*
X53474Y-32753D01*
X53544Y-32823D01*
X53635Y-32861D01*
X53734Y-32861D01*
X54734Y-32861D01*
X54826Y-32823D01*
X54896Y-32753D01*
X54934Y-32662D01*
X54934Y-32563D01*
X54934Y-32115D01*
X63436Y-32115D01*
X63436Y-32161D01*
X63436Y-32661D01*
X63474Y-32753D01*
X63544Y-32823D01*
X63635Y-32861D01*
X63734Y-32861D01*
X64734Y-32861D01*
X64826Y-32823D01*
X64896Y-32753D01*
X64934Y-32662D01*
X64934Y-32563D01*
X64934Y-32115D01*
X73079Y-32115D01*
X73203Y-32090D01*
X73309Y-32020D01*
X73525Y-31804D01*
X73544Y-31823D01*
X73635Y-31861D01*
X73734Y-31861D01*
X74734Y-31861D01*
X74826Y-31823D01*
X74896Y-31753D01*
X74934Y-31662D01*
X74934Y-31563D01*
X74934Y-31259D01*
X82944Y-31259D01*
X83277Y-31592D01*
X83382Y-31662D01*
X83383Y-31662D01*
X83441Y-31673D01*
X83474Y-31753D01*
X83544Y-31823D01*
X83635Y-31861D01*
X83734Y-31861D01*
X84734Y-31861D01*
X84826Y-31823D01*
X84896Y-31753D01*
X84934Y-31662D01*
X84934Y-31563D01*
X84934Y-31063D01*
X84896Y-30971D01*
X84826Y-30901D01*
X84735Y-30863D01*
X84636Y-30863D01*
X83636Y-30863D01*
X83544Y-30901D01*
X83525Y-30920D01*
X83309Y-30704D01*
X83283Y-30687D01*
X83446Y-30687D01*
X83474Y-30753D01*
X83544Y-30823D01*
X83635Y-30861D01*
X83734Y-30861D01*
X84734Y-30861D01*
X84826Y-30823D01*
X84896Y-30753D01*
X84934Y-30662D01*
X84934Y-30563D01*
X84934Y-30063D01*
X84896Y-29971D01*
X84826Y-29901D01*
X84735Y-29863D01*
X84636Y-29863D01*
X83636Y-29863D01*
X83544Y-29901D01*
X83474Y-29971D01*
X83446Y-30037D01*
X74923Y-30037D01*
X74896Y-29971D01*
X74826Y-29901D01*
X74735Y-29863D01*
X74636Y-29863D01*
X73636Y-29863D01*
X73544Y-29901D01*
X73474Y-29971D01*
X73446Y-30037D01*
X64923Y-30037D01*
X64896Y-29971D01*
X64826Y-29901D01*
X64735Y-29863D01*
X64636Y-29863D01*
X63636Y-29863D01*
X63544Y-29901D01*
X63474Y-29971D01*
X63436Y-30062D01*
X63436Y-30161D01*
X63436Y-30609D01*
X54934Y-30609D01*
X54934Y-30563D01*
X54934Y-30063D01*
X54896Y-29971D01*
X54826Y-29901D01*
X54735Y-29863D01*
X54636Y-29863D01*
X53636Y-29863D01*
X53544Y-29901D01*
X53474Y-29971D01*
X53436Y-30062D01*
X53436Y-30161D01*
X53436Y-30609D01*
X52768Y-30609D01*
X51846Y-29687D01*
X53446Y-29687D01*
X53474Y-29753D01*
X53544Y-29823D01*
X53635Y-29861D01*
X53734Y-29861D01*
X54734Y-29861D01*
X54826Y-29823D01*
X54896Y-29753D01*
X54923Y-29687D01*
X63446Y-29687D01*
X63474Y-29753D01*
X63544Y-29823D01*
X63635Y-29861D01*
X63734Y-29861D01*
X64734Y-29861D01*
X64826Y-29823D01*
X64896Y-29753D01*
X64923Y-29687D01*
X73446Y-29687D01*
X73474Y-29753D01*
X73544Y-29823D01*
X73635Y-29861D01*
X73734Y-29861D01*
X74734Y-29861D01*
X74826Y-29823D01*
X74896Y-29753D01*
X74934Y-29662D01*
X74934Y-29563D01*
X74934Y-29116D01*
X76710Y-29116D01*
X76834Y-29091D01*
X76940Y-29021D01*
X79274Y-26687D01*
X83446Y-26687D01*
X83474Y-26753D01*
X83544Y-26823D01*
X83635Y-26861D01*
X83734Y-26861D01*
X84538Y-26861D01*
X84538Y-26863D01*
X83636Y-26863D01*
X83544Y-26901D01*
X83474Y-26971D01*
X83436Y-27062D01*
X83436Y-27161D01*
X83436Y-27661D01*
X83474Y-27753D01*
X83544Y-27823D01*
X83635Y-27861D01*
X83734Y-27861D01*
X84538Y-27861D01*
X84538Y-27863D01*
X83636Y-27863D01*
X83544Y-27901D01*
X83474Y-27971D01*
X83436Y-28062D01*
X83436Y-28161D01*
X83436Y-28661D01*
X83474Y-28753D01*
X83544Y-28823D01*
X83635Y-28861D01*
X83734Y-28861D01*
X84538Y-28861D01*
X84538Y-28863D01*
X83636Y-28863D01*
X83544Y-28901D01*
X83474Y-28971D01*
X83436Y-29062D01*
X83436Y-29161D01*
X83436Y-29661D01*
X83474Y-29753D01*
X83544Y-29823D01*
X83635Y-29861D01*
X83734Y-29861D01*
X84734Y-29861D01*
X84826Y-29823D01*
X84896Y-29753D01*
X84929Y-29673D01*
X84987Y-29662D01*
X85093Y-29592D01*
X85163Y-29486D01*
X85188Y-29362D01*
X85188Y-42392D01*
X84934Y-42392D01*
X84934Y-33662D01*
X84934Y-33563D01*
X84934Y-33063D01*
X84934Y-32662D01*
X84934Y-32563D01*
X84934Y-32063D01*
X84896Y-31971D01*
X84826Y-31901D01*
X84735Y-31863D01*
X84636Y-31863D01*
X83636Y-31863D01*
X83544Y-31901D01*
X83474Y-31971D01*
X83436Y-32062D01*
X83436Y-32161D01*
X83436Y-32661D01*
X83474Y-32753D01*
X83544Y-32823D01*
X83635Y-32861D01*
X83734Y-32861D01*
X84734Y-32861D01*
X84826Y-32823D01*
X84896Y-32753D01*
X84934Y-32662D01*
X84934Y-33063D01*
X84896Y-32971D01*
X84826Y-32901D01*
X84735Y-32863D01*
X84636Y-32863D01*
X83636Y-32863D01*
X83544Y-32901D01*
X83474Y-32971D01*
X83436Y-33062D01*
X83436Y-33161D01*
X83436Y-33661D01*
X83474Y-33753D01*
X83544Y-33823D01*
X83635Y-33861D01*
X83734Y-33861D01*
X84734Y-33861D01*
X84826Y-33823D01*
X84896Y-33753D01*
X84934Y-33662D01*
X84934Y-42392D01*
X82795Y-42392D01*
X82795Y-38828D01*
X82795Y-38498D01*
X82669Y-38193D01*
X82436Y-37959D01*
X82131Y-37832D01*
X81801Y-37832D01*
X81496Y-37958D01*
X81262Y-38191D01*
X81135Y-38496D01*
X81135Y-38826D01*
X81261Y-39131D01*
X81494Y-39365D01*
X81799Y-39492D01*
X82129Y-39492D01*
X82434Y-39366D01*
X82668Y-39133D01*
X82795Y-38828D01*
X82795Y-42392D01*
X77809Y-42392D01*
X77964Y-42238D01*
X78104Y-41901D01*
X78104Y-41535D01*
X77964Y-41197D01*
X77706Y-40938D01*
X77369Y-40798D01*
X77003Y-40798D01*
X76665Y-40938D01*
X76406Y-41196D01*
X76266Y-41533D01*
X76266Y-41899D01*
X76406Y-42237D01*
X76560Y-42392D01*
X74934Y-42392D01*
X74934Y-33662D01*
X74934Y-33563D01*
X74934Y-33063D01*
X74934Y-32662D01*
X74934Y-32563D01*
X74934Y-32063D01*
X74896Y-31971D01*
X74826Y-31901D01*
X74735Y-31863D01*
X74636Y-31863D01*
X73636Y-31863D01*
X73544Y-31901D01*
X73474Y-31971D01*
X73436Y-32062D01*
X73436Y-32161D01*
X73436Y-32661D01*
X73474Y-32753D01*
X73544Y-32823D01*
X73635Y-32861D01*
X73734Y-32861D01*
X74734Y-32861D01*
X74826Y-32823D01*
X74896Y-32753D01*
X74934Y-32662D01*
X74934Y-33063D01*
X74896Y-32971D01*
X74826Y-32901D01*
X74735Y-32863D01*
X74636Y-32863D01*
X73636Y-32863D01*
X73544Y-32901D01*
X73474Y-32971D01*
X73436Y-33062D01*
X73436Y-33161D01*
X73436Y-33661D01*
X73474Y-33753D01*
X73544Y-33823D01*
X73635Y-33861D01*
X73734Y-33861D01*
X74734Y-33861D01*
X74826Y-33823D01*
X74896Y-33753D01*
X74934Y-33662D01*
X74934Y-42392D01*
X72795Y-42392D01*
X72795Y-38828D01*
X72795Y-38498D01*
X72669Y-38193D01*
X72436Y-37959D01*
X72131Y-37832D01*
X71801Y-37832D01*
X71496Y-37958D01*
X71262Y-38191D01*
X71135Y-38496D01*
X71135Y-38826D01*
X71261Y-39131D01*
X71494Y-39365D01*
X71799Y-39492D01*
X72129Y-39492D01*
X72434Y-39366D01*
X72668Y-39133D01*
X72795Y-38828D01*
X72795Y-42392D01*
X64934Y-42392D01*
X64934Y-33662D01*
X64934Y-33563D01*
X64934Y-33063D01*
X64896Y-32971D01*
X64826Y-32901D01*
X64735Y-32863D01*
X64636Y-32863D01*
X63636Y-32863D01*
X63544Y-32901D01*
X63474Y-32971D01*
X63436Y-33062D01*
X63436Y-33161D01*
X63436Y-33661D01*
X63474Y-33753D01*
X63544Y-33823D01*
X63635Y-33861D01*
X63734Y-33861D01*
X64734Y-33861D01*
X64826Y-33823D01*
X64896Y-33753D01*
X64934Y-33662D01*
X64934Y-42392D01*
X62795Y-42392D01*
X62795Y-38828D01*
X62795Y-38498D01*
X62669Y-38193D01*
X62436Y-37959D01*
X62131Y-37832D01*
X61801Y-37832D01*
X61496Y-37958D01*
X61262Y-38191D01*
X61135Y-38496D01*
X61135Y-38826D01*
X61261Y-39131D01*
X61494Y-39365D01*
X61799Y-39492D01*
X62129Y-39492D01*
X62434Y-39366D01*
X62668Y-39133D01*
X62795Y-38828D01*
X62795Y-42392D01*
X57809Y-42392D01*
X57964Y-42238D01*
X58104Y-41901D01*
X58104Y-41535D01*
X57964Y-41197D01*
X57706Y-40938D01*
X57369Y-40798D01*
X57003Y-40798D01*
X56665Y-40938D01*
X56406Y-41196D01*
X56266Y-41533D01*
X56266Y-41899D01*
X56406Y-42237D01*
X56560Y-42392D01*
X54934Y-42392D01*
X54934Y-33662D01*
X54934Y-33563D01*
X54934Y-33063D01*
X54896Y-32971D01*
X54826Y-32901D01*
X54735Y-32863D01*
X54636Y-32863D01*
X53636Y-32863D01*
X53544Y-32901D01*
X53474Y-32971D01*
X53436Y-33062D01*
X53436Y-33161D01*
X53436Y-33661D01*
X53474Y-33753D01*
X53544Y-33823D01*
X53635Y-33861D01*
X53734Y-33861D01*
X54734Y-33861D01*
X54826Y-33823D01*
X54896Y-33753D01*
X54934Y-33662D01*
X54934Y-42392D01*
X52795Y-42392D01*
X52795Y-38828D01*
X52795Y-38498D01*
X52669Y-38193D01*
X52436Y-37959D01*
X52131Y-37832D01*
X51801Y-37832D01*
X51496Y-37958D01*
X51262Y-38191D01*
X51135Y-38496D01*
X51135Y-38826D01*
X51261Y-39131D01*
X51494Y-39365D01*
X51799Y-39492D01*
X52129Y-39492D01*
X52434Y-39366D01*
X52668Y-39133D01*
X52795Y-38828D01*
X52795Y-42392D01*
X42795Y-42392D01*
X42795Y-38828D01*
X42795Y-38498D01*
X42669Y-38193D01*
X42436Y-37959D01*
X42131Y-37832D01*
X41801Y-37832D01*
X41496Y-37958D01*
X41262Y-38191D01*
X41135Y-38496D01*
X41135Y-38826D01*
X41261Y-39131D01*
X41494Y-39365D01*
X41799Y-39492D01*
X42129Y-39492D01*
X42434Y-39366D01*
X42668Y-39133D01*
X42795Y-38828D01*
X42795Y-42392D01*
X37858Y-42392D01*
X38013Y-42238D01*
X38153Y-41901D01*
X38153Y-41535D01*
X38013Y-41197D01*
X37755Y-40938D01*
X37418Y-40798D01*
X37052Y-40798D01*
X36714Y-40938D01*
X36575Y-41076D01*
X36575Y-34338D01*
X36575Y-34239D01*
X36575Y-33845D01*
X36537Y-33753D01*
X36467Y-33683D01*
X36376Y-33645D01*
X36277Y-33645D01*
X35491Y-33645D01*
X35399Y-33683D01*
X35329Y-33753D01*
X35291Y-33844D01*
X35291Y-33943D01*
X35291Y-34337D01*
X35329Y-34429D01*
X35399Y-34499D01*
X35490Y-34537D01*
X35589Y-34537D01*
X36375Y-34537D01*
X36467Y-34499D01*
X36537Y-34429D01*
X36575Y-34338D01*
X36575Y-41076D01*
X36455Y-41196D01*
X36315Y-41533D01*
X36315Y-41899D01*
X36455Y-42237D01*
X36609Y-42392D01*
X35271Y-42392D01*
X35271Y-35338D01*
X35271Y-35239D01*
X35271Y-34845D01*
X35233Y-34753D01*
X35163Y-34683D01*
X35072Y-34645D01*
X34973Y-34645D01*
X34187Y-34645D01*
X34095Y-34683D01*
X34025Y-34753D01*
X33987Y-34844D01*
X33987Y-34943D01*
X33987Y-35337D01*
X34025Y-35429D01*
X34095Y-35499D01*
X34186Y-35537D01*
X34285Y-35537D01*
X35071Y-35537D01*
X35163Y-35499D01*
X35233Y-35429D01*
X35271Y-35338D01*
X35271Y-42392D01*
X30579Y-42392D01*
X30579Y-34338D01*
X30579Y-34239D01*
X30579Y-33845D01*
X30541Y-33753D01*
X30471Y-33683D01*
X30380Y-33645D01*
X30281Y-33645D01*
X29495Y-33645D01*
X29403Y-33683D01*
X29333Y-33753D01*
X29295Y-33844D01*
X29295Y-33943D01*
X29295Y-34337D01*
X29333Y-34429D01*
X29403Y-34499D01*
X29494Y-34537D01*
X29593Y-34537D01*
X30379Y-34537D01*
X30471Y-34499D01*
X30541Y-34429D01*
X30579Y-34338D01*
X30579Y-42392D01*
X29275Y-42392D01*
X29275Y-35338D01*
X29275Y-35239D01*
X29275Y-34845D01*
X29237Y-34753D01*
X29167Y-34683D01*
X29076Y-34645D01*
X28977Y-34645D01*
X28191Y-34645D01*
X28099Y-34683D01*
X28029Y-34753D01*
X27991Y-34844D01*
X27991Y-34943D01*
X27991Y-35337D01*
X28029Y-35429D01*
X28099Y-35499D01*
X28190Y-35537D01*
X28289Y-35537D01*
X29075Y-35537D01*
X29167Y-35499D01*
X29237Y-35429D01*
X29275Y-35338D01*
X29275Y-42392D01*
X27182Y-42392D01*
X27182Y-15895D01*
X27182Y-15796D01*
X27182Y-14696D01*
X27144Y-14604D01*
X27074Y-14534D01*
X26983Y-14496D01*
X26923Y-14496D01*
X26923Y-14322D01*
X26982Y-14322D01*
X27074Y-14284D01*
X27144Y-14214D01*
X27182Y-14123D01*
X27182Y-14024D01*
X27182Y-12924D01*
X27144Y-12832D01*
X27074Y-12762D01*
X26983Y-12724D01*
X26884Y-12724D01*
X26214Y-12724D01*
X26122Y-12762D01*
X26052Y-12832D01*
X26014Y-12923D01*
X26014Y-13022D01*
X26014Y-14122D01*
X26052Y-14214D01*
X26122Y-14284D01*
X26213Y-14322D01*
X26273Y-14322D01*
X26273Y-14496D01*
X26214Y-14496D01*
X26122Y-14534D01*
X26052Y-14604D01*
X26014Y-14695D01*
X26014Y-14794D01*
X26014Y-15894D01*
X26052Y-15986D01*
X26122Y-16056D01*
X26213Y-16094D01*
X26273Y-16094D01*
X26273Y-25145D01*
X25247Y-26171D01*
X25247Y-14793D01*
X25247Y-14616D01*
X25180Y-14453D01*
X25055Y-14328D01*
X24892Y-14260D01*
X24715Y-14260D01*
X24552Y-14327D01*
X24427Y-14452D01*
X24359Y-14615D01*
X24359Y-14792D01*
X24426Y-14955D01*
X24551Y-15080D01*
X24714Y-15148D01*
X24891Y-15148D01*
X25054Y-15081D01*
X25179Y-14956D01*
X25247Y-14793D01*
X25247Y-26171D01*
X24171Y-27247D01*
X24171Y-27147D01*
X24087Y-26945D01*
X23933Y-26791D01*
X23731Y-26707D01*
X23533Y-26707D01*
X23514Y-26688D01*
X23514Y-16094D01*
X23750Y-16094D01*
X23842Y-16056D01*
X23912Y-15986D01*
X23950Y-15895D01*
X23950Y-15796D01*
X23950Y-14696D01*
X23912Y-14604D01*
X23842Y-14534D01*
X23751Y-14496D01*
X23652Y-14496D01*
X23514Y-14496D01*
X23514Y-14322D01*
X23750Y-14322D01*
X23842Y-14284D01*
X23912Y-14214D01*
X23950Y-14123D01*
X23950Y-14024D01*
X23950Y-12924D01*
X23912Y-12832D01*
X23842Y-12762D01*
X23751Y-12724D01*
X23652Y-12724D01*
X22628Y-12724D01*
X22536Y-12762D01*
X22466Y-12832D01*
X22428Y-12923D01*
X22428Y-13022D01*
X22428Y-14122D01*
X22466Y-14214D01*
X22536Y-14284D01*
X22627Y-14322D01*
X22726Y-14322D01*
X22864Y-14322D01*
X22864Y-14496D01*
X22628Y-14496D01*
X22536Y-14534D01*
X22466Y-14604D01*
X22428Y-14695D01*
X22428Y-14794D01*
X22428Y-15894D01*
X22466Y-15986D01*
X22536Y-16056D01*
X22627Y-16094D01*
X22726Y-16094D01*
X22864Y-16094D01*
X22864Y-26823D01*
X22889Y-26947D01*
X22959Y-27053D01*
X23073Y-27167D01*
X23073Y-27365D01*
X23157Y-27567D01*
X23297Y-27707D01*
X23273Y-27707D01*
X23181Y-27745D01*
X23111Y-27815D01*
X23073Y-27906D01*
X23073Y-28005D01*
X23073Y-28605D01*
X23111Y-28697D01*
X23181Y-28767D01*
X23272Y-28805D01*
X23371Y-28805D01*
X23971Y-28805D01*
X24063Y-28767D01*
X24133Y-28697D01*
X24171Y-28606D01*
X24171Y-28507D01*
X24171Y-28088D01*
X24224Y-28078D01*
X24330Y-28008D01*
X26825Y-25511D01*
X26827Y-25510D01*
X26828Y-25510D01*
X26897Y-25405D01*
X26898Y-25404D01*
X26923Y-25280D01*
X26923Y-16094D01*
X26982Y-16094D01*
X27074Y-16056D01*
X27144Y-15986D01*
X27182Y-15895D01*
X27182Y-42392D01*
X20010Y-42392D01*
X20010Y-38994D01*
X20164Y-39149D01*
X20501Y-39289D01*
X20867Y-39289D01*
X21205Y-39149D01*
X21464Y-38891D01*
X21604Y-38554D01*
X21604Y-38188D01*
X21464Y-37850D01*
X21206Y-37591D01*
X20869Y-37451D01*
X20503Y-37451D01*
X20165Y-37591D01*
X20010Y-37745D01*
X20010Y-16978D01*
X20164Y-17133D01*
X20501Y-17273D01*
X20867Y-17273D01*
X21205Y-17133D01*
X21464Y-16875D01*
X21604Y-16538D01*
X21604Y-16172D01*
X21464Y-15834D01*
X21206Y-15575D01*
X20869Y-15435D01*
X20503Y-15435D01*
X20165Y-15575D01*
X20010Y-15729D01*
X20010Y-12333D01*
X24615Y-12333D01*
X24552Y-12359D01*
X24427Y-12484D01*
X24359Y-12647D01*
X24359Y-12824D01*
X24426Y-12987D01*
X24551Y-13112D01*
X24714Y-13180D01*
X24891Y-13180D01*
X25054Y-13113D01*
X25179Y-12988D01*
X25247Y-12825D01*
X25247Y-12648D01*
X25180Y-12485D01*
X25055Y-12360D01*
X24990Y-12333D01*
X36609Y-12333D01*
X36455Y-12487D01*
X36315Y-12824D01*
X36315Y-13190D01*
X36455Y-13528D01*
X36713Y-13787D01*
X37050Y-13927D01*
X37416Y-13927D01*
X37754Y-13787D01*
X38013Y-13529D01*
X38153Y-13192D01*
X38153Y-12826D01*
X38013Y-12488D01*
X37858Y-12333D01*
X56560Y-12333D01*
X56406Y-12487D01*
X56266Y-12824D01*
X56266Y-13190D01*
X56406Y-13528D01*
X56664Y-13787D01*
X57001Y-13927D01*
X57367Y-13927D01*
X57705Y-13787D01*
X57964Y-13529D01*
X58104Y-13192D01*
X58104Y-12826D01*
X57964Y-12488D01*
X57809Y-12333D01*
X76560Y-12333D01*
X76406Y-12487D01*
X76266Y-12824D01*
X76266Y-13190D01*
X76406Y-13528D01*
X76664Y-13787D01*
X77001Y-13927D01*
X77367Y-13927D01*
X77705Y-13787D01*
X77964Y-13529D01*
X78104Y-13192D01*
X78104Y-12826D01*
X77964Y-12488D01*
X77809Y-12333D01*
X89360Y-12333D01*
X89360Y-15729D01*
X89206Y-15575D01*
X88869Y-15435D01*
X88503Y-15435D01*
X88165Y-15575D01*
X87906Y-15833D01*
X87766Y-16170D01*
X87766Y-16536D01*
X87906Y-16874D01*
X88164Y-17133D01*
X88501Y-17273D01*
X88867Y-17273D01*
X89205Y-17133D01*
X89360Y-16978D01*
X89360Y-37745D01*
X89206Y-37591D01*
X88869Y-37451D01*
X88503Y-37451D01*
X88165Y-37591D01*
X87906Y-37849D01*
X87766Y-38186D01*
X87766Y-38552D01*
X87906Y-38890D01*
X88164Y-39149D01*
X88501Y-39289D01*
X88867Y-39289D01*
X89205Y-39149D01*
X89360Y-38994D01*
X89360Y-42392D01*
X89360Y-42392D01*
G37*
G54D22*
X89360Y-42392D02*
X85188Y-42392D01*
X85188Y-29362D01*
X85188Y-23362D01*
X85188Y-22362D01*
X85163Y-22238D01*
X85093Y-22132D01*
X84987Y-22062D01*
X84935Y-22051D01*
X84935Y-21474D01*
X84935Y-21250D01*
X84934Y-21161D01*
X84934Y-21062D01*
X84896Y-20971D01*
X84826Y-20901D01*
X84734Y-20863D01*
X84297Y-20862D01*
X84235Y-20924D01*
X84235Y-21312D01*
X84873Y-21312D01*
X84935Y-21250D01*
X84935Y-21474D01*
X84873Y-21412D01*
X84235Y-21412D01*
X84235Y-21800D01*
X84297Y-21862D01*
X84734Y-21861D01*
X84826Y-21823D01*
X84896Y-21753D01*
X84934Y-21662D01*
X84934Y-21563D01*
X84935Y-21474D01*
X84935Y-22051D01*
X84928Y-22050D01*
X84896Y-21971D01*
X84826Y-21901D01*
X84735Y-21863D01*
X84636Y-21863D01*
X84135Y-21863D01*
X84135Y-21800D01*
X84135Y-21412D01*
X84135Y-21312D01*
X84135Y-20924D01*
X84073Y-20862D01*
X83636Y-20863D01*
X83544Y-20901D01*
X83474Y-20971D01*
X83436Y-21062D01*
X83436Y-21161D01*
X83435Y-21250D01*
X83497Y-21312D01*
X84135Y-21312D01*
X84135Y-21412D01*
X83497Y-21412D01*
X83435Y-21474D01*
X83436Y-21563D01*
X83436Y-21662D01*
X83474Y-21753D01*
X83544Y-21823D01*
X83636Y-21861D01*
X84073Y-21862D01*
X84135Y-21800D01*
X84135Y-21863D01*
X83636Y-21863D01*
X83544Y-21901D01*
X83474Y-21971D01*
X83436Y-22062D01*
X83436Y-22161D01*
X83436Y-22661D01*
X83474Y-22753D01*
X83544Y-22823D01*
X83635Y-22861D01*
X83734Y-22861D01*
X84538Y-22861D01*
X84538Y-22863D01*
X83636Y-22863D01*
X83544Y-22901D01*
X83474Y-22971D01*
X83436Y-23062D01*
X83436Y-23161D01*
X83436Y-23661D01*
X83474Y-23753D01*
X83544Y-23823D01*
X83635Y-23861D01*
X83734Y-23861D01*
X84538Y-23861D01*
X84538Y-23863D01*
X83636Y-23863D01*
X83544Y-23901D01*
X83474Y-23971D01*
X83436Y-24062D01*
X83436Y-24161D01*
X83436Y-24661D01*
X83474Y-24753D01*
X83544Y-24823D01*
X83635Y-24861D01*
X83734Y-24861D01*
X84538Y-24861D01*
X84538Y-24862D01*
X84297Y-24862D01*
X84235Y-24924D01*
X84235Y-25262D01*
X84235Y-25312D01*
X84235Y-25412D01*
X84235Y-25462D01*
X84235Y-25800D01*
X84297Y-25862D01*
X84538Y-25861D01*
X84538Y-25863D01*
X84135Y-25863D01*
X84135Y-25800D01*
X84135Y-25412D01*
X84135Y-25312D01*
X84135Y-24924D01*
X84073Y-24862D01*
X83636Y-24863D01*
X83544Y-24901D01*
X83474Y-24971D01*
X83436Y-25062D01*
X83436Y-25161D01*
X83435Y-25250D01*
X83497Y-25312D01*
X84135Y-25312D01*
X84135Y-25412D01*
X83497Y-25412D01*
X83435Y-25474D01*
X83436Y-25563D01*
X83436Y-25662D01*
X83474Y-25753D01*
X83544Y-25823D01*
X83636Y-25861D01*
X84073Y-25862D01*
X84135Y-25800D01*
X84135Y-25863D01*
X83636Y-25863D01*
X83544Y-25901D01*
X83474Y-25971D01*
X83446Y-26037D01*
X82795Y-26037D01*
X82795Y-16228D01*
X82795Y-15898D01*
X82669Y-15593D01*
X82436Y-15359D01*
X82131Y-15232D01*
X81801Y-15232D01*
X81496Y-15358D01*
X81262Y-15591D01*
X81135Y-15896D01*
X81135Y-16226D01*
X81261Y-16531D01*
X81494Y-16765D01*
X81799Y-16892D01*
X82129Y-16892D01*
X82434Y-16766D01*
X82668Y-16533D01*
X82795Y-16228D01*
X82795Y-26037D01*
X79139Y-26037D01*
X79014Y-26062D01*
X78909Y-26132D01*
X76575Y-28466D01*
X74935Y-28466D01*
X74935Y-25474D01*
X74935Y-25250D01*
X74935Y-21474D01*
X74935Y-21250D01*
X74934Y-21161D01*
X74934Y-21062D01*
X74896Y-20971D01*
X74826Y-20901D01*
X74734Y-20863D01*
X74297Y-20862D01*
X74235Y-20924D01*
X74235Y-21312D01*
X74873Y-21312D01*
X74935Y-21250D01*
X74935Y-21474D01*
X74873Y-21412D01*
X74235Y-21412D01*
X74235Y-21800D01*
X74297Y-21862D01*
X74734Y-21861D01*
X74826Y-21823D01*
X74896Y-21753D01*
X74934Y-21662D01*
X74934Y-21563D01*
X74935Y-21474D01*
X74935Y-25250D01*
X74934Y-25161D01*
X74934Y-25062D01*
X74934Y-24662D01*
X74934Y-24563D01*
X74934Y-24063D01*
X74896Y-23971D01*
X74826Y-23901D01*
X74735Y-23863D01*
X74636Y-23863D01*
X73636Y-23863D01*
X73544Y-23901D01*
X73474Y-23971D01*
X73446Y-24037D01*
X64923Y-24037D01*
X64896Y-23971D01*
X64826Y-23901D01*
X64735Y-23863D01*
X64636Y-23863D01*
X63636Y-23863D01*
X63544Y-23901D01*
X63474Y-23971D01*
X63436Y-24062D01*
X63436Y-24161D01*
X63436Y-24661D01*
X63474Y-24753D01*
X63544Y-24823D01*
X63635Y-24861D01*
X63734Y-24861D01*
X64734Y-24861D01*
X64826Y-24823D01*
X64896Y-24753D01*
X64923Y-24687D01*
X73446Y-24687D01*
X73474Y-24753D01*
X73544Y-24823D01*
X73635Y-24861D01*
X73734Y-24861D01*
X74734Y-24861D01*
X74826Y-24823D01*
X74896Y-24753D01*
X74934Y-24662D01*
X74934Y-25062D01*
X74896Y-24971D01*
X74826Y-24901D01*
X74734Y-24863D01*
X74297Y-24862D01*
X74235Y-24924D01*
X74235Y-25312D01*
X74873Y-25312D01*
X74935Y-25250D01*
X74935Y-25474D01*
X74873Y-25412D01*
X74235Y-25412D01*
X74235Y-25800D01*
X74297Y-25862D01*
X74734Y-25861D01*
X74826Y-25823D01*
X74896Y-25753D01*
X74934Y-25662D01*
X74934Y-25563D01*
X74935Y-25474D01*
X74935Y-28466D01*
X74934Y-28466D01*
X74934Y-28063D01*
X74934Y-27662D01*
X74934Y-27563D01*
X74934Y-27063D01*
X74896Y-26971D01*
X74826Y-26901D01*
X74735Y-26863D01*
X74636Y-26863D01*
X73636Y-26863D01*
X73544Y-26901D01*
X73474Y-26971D01*
X73436Y-27062D01*
X73436Y-27161D01*
X73436Y-27661D01*
X73474Y-27753D01*
X73544Y-27823D01*
X73635Y-27861D01*
X73734Y-27861D01*
X74734Y-27861D01*
X74826Y-27823D01*
X74896Y-27753D01*
X74934Y-27662D01*
X74934Y-28063D01*
X74896Y-27971D01*
X74826Y-27901D01*
X74735Y-27863D01*
X74636Y-27863D01*
X73636Y-27863D01*
X73544Y-27901D01*
X73474Y-27971D01*
X73436Y-28062D01*
X73436Y-28161D01*
X73436Y-28466D01*
X64934Y-28466D01*
X64934Y-28116D01*
X72078Y-28116D01*
X72202Y-28091D01*
X72308Y-28021D01*
X73524Y-26803D01*
X73544Y-26823D01*
X73635Y-26861D01*
X73734Y-26861D01*
X74734Y-26861D01*
X74826Y-26823D01*
X74896Y-26753D01*
X74934Y-26662D01*
X74934Y-26563D01*
X74934Y-26063D01*
X74896Y-25971D01*
X74826Y-25901D01*
X74735Y-25863D01*
X74636Y-25863D01*
X74135Y-25863D01*
X74135Y-25800D01*
X74135Y-25412D01*
X74135Y-25312D01*
X74135Y-24924D01*
X74073Y-24862D01*
X73636Y-24863D01*
X73544Y-24901D01*
X73474Y-24971D01*
X73436Y-25062D01*
X73436Y-25161D01*
X73435Y-25250D01*
X73497Y-25312D01*
X74135Y-25312D01*
X74135Y-25412D01*
X73497Y-25412D01*
X73435Y-25474D01*
X73436Y-25563D01*
X73436Y-25662D01*
X73474Y-25753D01*
X73544Y-25823D01*
X73636Y-25861D01*
X74073Y-25862D01*
X74135Y-25800D01*
X74135Y-25863D01*
X73636Y-25863D01*
X73544Y-25901D01*
X73474Y-25971D01*
X73440Y-26050D01*
X73383Y-26062D01*
X73277Y-26132D01*
X73275Y-26134D01*
X71943Y-27466D01*
X64935Y-27466D01*
X64935Y-25474D01*
X64935Y-25250D01*
X64934Y-25161D01*
X64934Y-25062D01*
X64896Y-24971D01*
X64826Y-24901D01*
X64734Y-24863D01*
X64297Y-24862D01*
X64235Y-24924D01*
X64235Y-25312D01*
X64873Y-25312D01*
X64935Y-25250D01*
X64935Y-25474D01*
X64873Y-25412D01*
X64235Y-25412D01*
X64235Y-25800D01*
X64297Y-25862D01*
X64734Y-25861D01*
X64826Y-25823D01*
X64896Y-25753D01*
X64934Y-25662D01*
X64934Y-25563D01*
X64935Y-25474D01*
X64935Y-27466D01*
X64934Y-27466D01*
X64934Y-27063D01*
X64896Y-26971D01*
X64826Y-26901D01*
X64735Y-26863D01*
X64636Y-26863D01*
X63636Y-26863D01*
X63544Y-26901D01*
X63474Y-26971D01*
X63436Y-27062D01*
X63436Y-27161D01*
X63436Y-27466D01*
X54934Y-27466D01*
X54934Y-27115D01*
X63079Y-27115D01*
X63203Y-27090D01*
X63309Y-27020D01*
X63525Y-26804D01*
X63544Y-26823D01*
X63635Y-26861D01*
X63734Y-26861D01*
X64734Y-26861D01*
X64826Y-26823D01*
X64896Y-26753D01*
X64934Y-26662D01*
X64934Y-26563D01*
X64934Y-26063D01*
X64896Y-25971D01*
X64826Y-25901D01*
X64735Y-25863D01*
X64636Y-25863D01*
X64135Y-25863D01*
X64135Y-25800D01*
X64135Y-25412D01*
X64135Y-25312D01*
X64135Y-24924D01*
X64073Y-24862D01*
X63636Y-24863D01*
X63544Y-24901D01*
X63474Y-24971D01*
X63436Y-25062D01*
X63436Y-25161D01*
X63435Y-25250D01*
X63497Y-25312D01*
X64135Y-25312D01*
X64135Y-25412D01*
X63497Y-25412D01*
X63435Y-25474D01*
X63436Y-25563D01*
X63436Y-25662D01*
X63474Y-25753D01*
X63544Y-25823D01*
X63636Y-25861D01*
X64073Y-25862D01*
X64135Y-25800D01*
X64135Y-25863D01*
X63636Y-25863D01*
X63544Y-25901D01*
X63474Y-25971D01*
X63440Y-26050D01*
X63382Y-26062D01*
X63277Y-26132D01*
X62944Y-26465D01*
X54935Y-26465D01*
X54935Y-25474D01*
X54935Y-25250D01*
X54934Y-25161D01*
X54934Y-25062D01*
X54934Y-24662D01*
X54934Y-24563D01*
X54934Y-24063D01*
X54896Y-23971D01*
X54826Y-23901D01*
X54735Y-23863D01*
X54636Y-23863D01*
X53636Y-23863D01*
X53544Y-23901D01*
X53474Y-23971D01*
X53446Y-24037D01*
X44923Y-24037D01*
X44896Y-23971D01*
X44826Y-23901D01*
X44735Y-23863D01*
X44636Y-23863D01*
X43636Y-23863D01*
X43544Y-23901D01*
X43474Y-23971D01*
X43436Y-24062D01*
X43436Y-24161D01*
X43436Y-24661D01*
X43474Y-24753D01*
X43544Y-24823D01*
X43635Y-24861D01*
X43734Y-24861D01*
X44734Y-24861D01*
X44826Y-24823D01*
X44896Y-24753D01*
X44923Y-24687D01*
X53446Y-24687D01*
X53474Y-24753D01*
X53544Y-24823D01*
X53635Y-24861D01*
X53734Y-24861D01*
X54734Y-24861D01*
X54826Y-24823D01*
X54896Y-24753D01*
X54934Y-24662D01*
X54934Y-25062D01*
X54896Y-24971D01*
X54826Y-24901D01*
X54734Y-24863D01*
X54297Y-24862D01*
X54235Y-24924D01*
X54235Y-25312D01*
X54873Y-25312D01*
X54935Y-25250D01*
X54935Y-25474D01*
X54873Y-25412D01*
X54235Y-25412D01*
X54235Y-25800D01*
X54297Y-25862D01*
X54734Y-25861D01*
X54826Y-25823D01*
X54896Y-25753D01*
X54934Y-25662D01*
X54934Y-25563D01*
X54935Y-25474D01*
X54935Y-26465D01*
X54934Y-26465D01*
X54934Y-26063D01*
X54896Y-25971D01*
X54826Y-25901D01*
X54735Y-25863D01*
X54636Y-25863D01*
X54135Y-25863D01*
X54135Y-25800D01*
X54135Y-25412D01*
X54135Y-25312D01*
X54135Y-24924D01*
X54073Y-24862D01*
X53636Y-24863D01*
X53544Y-24901D01*
X53474Y-24971D01*
X53436Y-25062D01*
X53436Y-25161D01*
X53435Y-25250D01*
X53497Y-25312D01*
X54135Y-25312D01*
X54135Y-25412D01*
X53497Y-25412D01*
X53435Y-25474D01*
X53436Y-25563D01*
X53436Y-25662D01*
X53474Y-25753D01*
X53544Y-25823D01*
X53636Y-25861D01*
X54073Y-25862D01*
X54135Y-25800D01*
X54135Y-25863D01*
X53636Y-25863D01*
X53544Y-25901D01*
X53525Y-25920D01*
X53309Y-25704D01*
X53203Y-25634D01*
X53079Y-25609D01*
X44934Y-25609D01*
X44934Y-25563D01*
X44935Y-25474D01*
X44935Y-25250D01*
X44934Y-25161D01*
X44934Y-25062D01*
X44896Y-24971D01*
X44826Y-24901D01*
X44734Y-24863D01*
X44297Y-24862D01*
X44235Y-24924D01*
X44235Y-25312D01*
X44873Y-25312D01*
X44935Y-25250D01*
X44935Y-25474D01*
X44873Y-25412D01*
X44285Y-25412D01*
X44235Y-25412D01*
X44135Y-25412D01*
X44135Y-25312D01*
X44135Y-24924D01*
X44073Y-24862D01*
X43636Y-24863D01*
X43544Y-24901D01*
X43474Y-24971D01*
X43436Y-25062D01*
X43436Y-25161D01*
X43435Y-25250D01*
X43497Y-25312D01*
X44135Y-25312D01*
X44135Y-25412D01*
X44085Y-25412D01*
X43497Y-25412D01*
X43435Y-25474D01*
X43436Y-25563D01*
X43436Y-25609D01*
X43211Y-25609D01*
X41463Y-23861D01*
X41357Y-23791D01*
X41233Y-23766D01*
X36542Y-23766D01*
X36537Y-23753D01*
X36467Y-23683D01*
X36376Y-23645D01*
X36277Y-23645D01*
X35491Y-23645D01*
X35399Y-23683D01*
X35329Y-23753D01*
X35291Y-23844D01*
X35291Y-23943D01*
X35291Y-24175D01*
X34799Y-24175D01*
X34383Y-23759D01*
X34383Y-23537D01*
X35071Y-23537D01*
X35163Y-23499D01*
X35233Y-23429D01*
X35271Y-23338D01*
X35271Y-23239D01*
X35271Y-22977D01*
X35837Y-22977D01*
X35872Y-23012D01*
X36028Y-23077D01*
X36197Y-23077D01*
X36353Y-23013D01*
X36473Y-22893D01*
X36538Y-22737D01*
X36538Y-22568D01*
X36497Y-22468D01*
X36537Y-22429D01*
X36575Y-22338D01*
X36575Y-22239D01*
X36575Y-21845D01*
X36552Y-21791D01*
X42476Y-21791D01*
X43182Y-22497D01*
X43182Y-23362D01*
X43207Y-23486D01*
X43277Y-23592D01*
X43383Y-23662D01*
X43441Y-23673D01*
X43474Y-23753D01*
X43544Y-23823D01*
X43635Y-23861D01*
X43734Y-23861D01*
X44734Y-23861D01*
X44826Y-23823D01*
X44896Y-23753D01*
X44923Y-23687D01*
X53446Y-23687D01*
X53474Y-23753D01*
X53544Y-23823D01*
X53635Y-23861D01*
X53734Y-23861D01*
X54734Y-23861D01*
X54826Y-23823D01*
X54896Y-23753D01*
X54923Y-23687D01*
X63446Y-23687D01*
X63474Y-23753D01*
X63544Y-23823D01*
X63635Y-23861D01*
X63734Y-23861D01*
X64734Y-23861D01*
X64826Y-23823D01*
X64896Y-23753D01*
X64923Y-23687D01*
X73446Y-23687D01*
X73474Y-23753D01*
X73544Y-23823D01*
X73635Y-23861D01*
X73734Y-23861D01*
X74734Y-23861D01*
X74826Y-23823D01*
X74896Y-23753D01*
X74934Y-23662D01*
X74934Y-23563D01*
X74934Y-23063D01*
X74934Y-22662D01*
X74934Y-22563D01*
X74934Y-22063D01*
X74896Y-21971D01*
X74826Y-21901D01*
X74735Y-21863D01*
X74636Y-21863D01*
X74135Y-21863D01*
X74135Y-21800D01*
X74135Y-21412D01*
X74135Y-21312D01*
X74135Y-20924D01*
X74073Y-20862D01*
X73636Y-20863D01*
X73544Y-20901D01*
X73474Y-20971D01*
X73436Y-21062D01*
X73436Y-21161D01*
X73435Y-21250D01*
X73497Y-21312D01*
X74135Y-21312D01*
X74135Y-21412D01*
X73497Y-21412D01*
X73435Y-21474D01*
X73436Y-21563D01*
X73436Y-21662D01*
X73474Y-21753D01*
X73544Y-21823D01*
X73636Y-21861D01*
X74073Y-21862D01*
X74135Y-21800D01*
X74135Y-21863D01*
X73636Y-21863D01*
X73544Y-21901D01*
X73474Y-21971D01*
X73436Y-22062D01*
X73436Y-22161D01*
X73436Y-22661D01*
X73474Y-22753D01*
X73544Y-22823D01*
X73635Y-22861D01*
X73734Y-22861D01*
X74734Y-22861D01*
X74826Y-22823D01*
X74896Y-22753D01*
X74934Y-22662D01*
X74934Y-23063D01*
X74896Y-22971D01*
X74826Y-22901D01*
X74735Y-22863D01*
X74636Y-22863D01*
X73636Y-22863D01*
X73544Y-22901D01*
X73474Y-22971D01*
X73446Y-23037D01*
X72795Y-23037D01*
X72795Y-16228D01*
X72795Y-15898D01*
X72669Y-15593D01*
X72436Y-15359D01*
X72131Y-15232D01*
X71801Y-15232D01*
X71496Y-15358D01*
X71262Y-15591D01*
X71135Y-15896D01*
X71135Y-16226D01*
X71261Y-16531D01*
X71494Y-16765D01*
X71799Y-16892D01*
X72129Y-16892D01*
X72434Y-16766D01*
X72668Y-16533D01*
X72795Y-16228D01*
X72795Y-23037D01*
X64935Y-23037D01*
X64935Y-21474D01*
X64935Y-21250D01*
X64934Y-21161D01*
X64934Y-21062D01*
X64896Y-20971D01*
X64826Y-20901D01*
X64734Y-20863D01*
X64297Y-20862D01*
X64235Y-20924D01*
X64235Y-21312D01*
X64873Y-21312D01*
X64935Y-21250D01*
X64935Y-21474D01*
X64873Y-21412D01*
X64235Y-21412D01*
X64235Y-21800D01*
X64297Y-21862D01*
X64734Y-21861D01*
X64826Y-21823D01*
X64896Y-21753D01*
X64934Y-21662D01*
X64934Y-21563D01*
X64935Y-21474D01*
X64935Y-23037D01*
X64923Y-23037D01*
X64896Y-22971D01*
X64826Y-22901D01*
X64735Y-22863D01*
X64636Y-22863D01*
X63832Y-22863D01*
X63832Y-22861D01*
X64734Y-22861D01*
X64826Y-22823D01*
X64896Y-22753D01*
X64934Y-22662D01*
X64934Y-22563D01*
X64934Y-22063D01*
X64896Y-21971D01*
X64826Y-21901D01*
X64735Y-21863D01*
X64636Y-21863D01*
X64135Y-21863D01*
X64135Y-21800D01*
X64135Y-21412D01*
X64135Y-21312D01*
X64135Y-20924D01*
X64073Y-20862D01*
X63636Y-20863D01*
X63544Y-20901D01*
X63474Y-20971D01*
X63436Y-21062D01*
X63436Y-21161D01*
X63435Y-21250D01*
X63497Y-21312D01*
X64135Y-21312D01*
X64135Y-21412D01*
X63497Y-21412D01*
X63435Y-21474D01*
X63436Y-21563D01*
X63436Y-21662D01*
X63474Y-21753D01*
X63544Y-21823D01*
X63636Y-21861D01*
X64073Y-21862D01*
X64135Y-21800D01*
X64135Y-21863D01*
X63636Y-21863D01*
X63544Y-21901D01*
X63474Y-21971D01*
X63440Y-22050D01*
X63383Y-22062D01*
X63277Y-22132D01*
X63207Y-22238D01*
X63182Y-22362D01*
X63182Y-23037D01*
X62795Y-23037D01*
X62795Y-16228D01*
X62795Y-15898D01*
X62669Y-15593D01*
X62436Y-15359D01*
X62131Y-15232D01*
X61801Y-15232D01*
X61496Y-15358D01*
X61262Y-15591D01*
X61135Y-15896D01*
X61135Y-16226D01*
X61261Y-16531D01*
X61494Y-16765D01*
X61799Y-16892D01*
X62129Y-16892D01*
X62434Y-16766D01*
X62668Y-16533D01*
X62795Y-16228D01*
X62795Y-23037D01*
X54935Y-23037D01*
X54935Y-21474D01*
X54935Y-21250D01*
X54934Y-21161D01*
X54934Y-21062D01*
X54896Y-20971D01*
X54826Y-20901D01*
X54734Y-20863D01*
X54297Y-20862D01*
X54235Y-20924D01*
X54235Y-21312D01*
X54873Y-21312D01*
X54935Y-21250D01*
X54935Y-21474D01*
X54873Y-21412D01*
X54235Y-21412D01*
X54235Y-21800D01*
X54297Y-21862D01*
X54734Y-21861D01*
X54826Y-21823D01*
X54896Y-21753D01*
X54934Y-21662D01*
X54934Y-21563D01*
X54935Y-21474D01*
X54935Y-23037D01*
X54923Y-23037D01*
X54896Y-22971D01*
X54826Y-22901D01*
X54735Y-22863D01*
X54636Y-22863D01*
X53832Y-22863D01*
X53832Y-22861D01*
X54734Y-22861D01*
X54826Y-22823D01*
X54896Y-22753D01*
X54934Y-22662D01*
X54934Y-22563D01*
X54934Y-22063D01*
X54896Y-21971D01*
X54826Y-21901D01*
X54735Y-21863D01*
X54636Y-21863D01*
X54135Y-21863D01*
X54135Y-21800D01*
X54135Y-21412D01*
X54135Y-21312D01*
X54135Y-20924D01*
X54073Y-20862D01*
X53636Y-20863D01*
X53544Y-20901D01*
X53474Y-20971D01*
X53436Y-21062D01*
X53436Y-21161D01*
X53435Y-21250D01*
X53497Y-21312D01*
X54135Y-21312D01*
X54135Y-21412D01*
X53497Y-21412D01*
X53435Y-21474D01*
X53436Y-21563D01*
X53436Y-21662D01*
X53474Y-21753D01*
X53544Y-21823D01*
X53636Y-21861D01*
X54073Y-21862D01*
X54135Y-21800D01*
X54135Y-21863D01*
X53636Y-21863D01*
X53544Y-21901D01*
X53474Y-21971D01*
X53440Y-22050D01*
X53383Y-22062D01*
X53277Y-22132D01*
X53207Y-22238D01*
X53182Y-22362D01*
X53182Y-23037D01*
X52795Y-23037D01*
X52795Y-16228D01*
X52795Y-15898D01*
X52669Y-15593D01*
X52436Y-15359D01*
X52131Y-15232D01*
X51801Y-15232D01*
X51496Y-15358D01*
X51262Y-15591D01*
X51135Y-15896D01*
X51135Y-16226D01*
X51261Y-16531D01*
X51494Y-16765D01*
X51799Y-16892D01*
X52129Y-16892D01*
X52434Y-16766D01*
X52668Y-16533D01*
X52795Y-16228D01*
X52795Y-23037D01*
X44935Y-23037D01*
X44935Y-21474D01*
X44935Y-21250D01*
X44934Y-21161D01*
X44934Y-21062D01*
X44896Y-20971D01*
X44826Y-20901D01*
X44734Y-20863D01*
X44297Y-20862D01*
X44235Y-20924D01*
X44235Y-21312D01*
X44873Y-21312D01*
X44935Y-21250D01*
X44935Y-21474D01*
X44873Y-21412D01*
X44235Y-21412D01*
X44235Y-21800D01*
X44297Y-21862D01*
X44734Y-21861D01*
X44826Y-21823D01*
X44896Y-21753D01*
X44934Y-21662D01*
X44934Y-21563D01*
X44935Y-21474D01*
X44935Y-23037D01*
X44923Y-23037D01*
X44896Y-22971D01*
X44826Y-22901D01*
X44735Y-22863D01*
X44636Y-22863D01*
X43832Y-22863D01*
X43832Y-22861D01*
X44734Y-22861D01*
X44826Y-22823D01*
X44896Y-22753D01*
X44934Y-22662D01*
X44934Y-22563D01*
X44934Y-22063D01*
X44896Y-21971D01*
X44826Y-21901D01*
X44735Y-21863D01*
X44636Y-21863D01*
X44135Y-21863D01*
X44135Y-21800D01*
X44135Y-21412D01*
X44135Y-21312D01*
X44135Y-20924D01*
X44073Y-20862D01*
X43636Y-20863D01*
X43544Y-20901D01*
X43474Y-20971D01*
X43436Y-21062D01*
X43436Y-21161D01*
X43435Y-21250D01*
X43497Y-21312D01*
X44135Y-21312D01*
X44135Y-21412D01*
X43497Y-21412D01*
X43435Y-21474D01*
X43436Y-21563D01*
X43436Y-21662D01*
X43474Y-21753D01*
X43544Y-21823D01*
X43636Y-21861D01*
X44073Y-21862D01*
X44135Y-21800D01*
X44135Y-21863D01*
X43636Y-21863D01*
X43544Y-21901D01*
X43525Y-21920D01*
X42841Y-21236D01*
X42795Y-21205D01*
X42795Y-16228D01*
X42795Y-15898D01*
X42669Y-15593D01*
X42436Y-15359D01*
X42131Y-15232D01*
X41801Y-15232D01*
X41496Y-15358D01*
X41262Y-15591D01*
X41135Y-15896D01*
X41135Y-16226D01*
X41261Y-16531D01*
X41494Y-16765D01*
X41799Y-16892D01*
X42129Y-16892D01*
X42434Y-16766D01*
X42668Y-16533D01*
X42795Y-16228D01*
X42795Y-21205D01*
X42735Y-21166D01*
X42611Y-21141D01*
X36575Y-21141D01*
X36575Y-20338D01*
X36575Y-20239D01*
X36575Y-19845D01*
X36575Y-18338D01*
X36575Y-18239D01*
X36575Y-17845D01*
X36575Y-16338D01*
X36575Y-16239D01*
X36575Y-15845D01*
X36537Y-15753D01*
X36467Y-15683D01*
X36376Y-15645D01*
X36277Y-15645D01*
X35491Y-15645D01*
X35399Y-15683D01*
X35329Y-15753D01*
X35291Y-15844D01*
X35291Y-15943D01*
X35291Y-16337D01*
X35329Y-16429D01*
X35399Y-16499D01*
X35490Y-16537D01*
X35589Y-16537D01*
X36375Y-16537D01*
X36467Y-16499D01*
X36537Y-16429D01*
X36575Y-16338D01*
X36575Y-17845D01*
X36537Y-17753D01*
X36467Y-17683D01*
X36376Y-17645D01*
X36277Y-17645D01*
X35491Y-17645D01*
X35399Y-17683D01*
X35329Y-17753D01*
X35291Y-17844D01*
X35291Y-17943D01*
X35291Y-18337D01*
X35329Y-18429D01*
X35399Y-18499D01*
X35490Y-18537D01*
X35589Y-18537D01*
X36375Y-18537D01*
X36467Y-18499D01*
X36537Y-18429D01*
X36575Y-18338D01*
X36575Y-19845D01*
X36537Y-19753D01*
X36467Y-19683D01*
X36376Y-19645D01*
X36277Y-19645D01*
X35491Y-19645D01*
X35399Y-19683D01*
X35329Y-19753D01*
X35291Y-19844D01*
X35291Y-19943D01*
X35291Y-20337D01*
X35329Y-20429D01*
X35399Y-20499D01*
X35490Y-20537D01*
X35589Y-20537D01*
X36375Y-20537D01*
X36467Y-20499D01*
X36537Y-20429D01*
X36575Y-20338D01*
X36575Y-21141D01*
X35271Y-21141D01*
X35271Y-20845D01*
X35271Y-19338D01*
X35271Y-19239D01*
X35271Y-18845D01*
X35271Y-17338D01*
X35271Y-17239D01*
X35271Y-16845D01*
X35233Y-16753D01*
X35163Y-16683D01*
X35072Y-16645D01*
X34973Y-16645D01*
X34187Y-16645D01*
X34095Y-16683D01*
X34025Y-16753D01*
X33987Y-16844D01*
X33987Y-16943D01*
X33987Y-17337D01*
X34025Y-17429D01*
X34095Y-17499D01*
X34186Y-17537D01*
X34285Y-17537D01*
X35071Y-17537D01*
X35163Y-17499D01*
X35233Y-17429D01*
X35271Y-17338D01*
X35271Y-18845D01*
X35233Y-18753D01*
X35163Y-18683D01*
X35072Y-18645D01*
X34973Y-18645D01*
X34187Y-18645D01*
X34095Y-18683D01*
X34025Y-18753D01*
X33987Y-18844D01*
X33987Y-18943D01*
X33987Y-19337D01*
X34025Y-19429D01*
X34095Y-19499D01*
X34186Y-19537D01*
X34285Y-19537D01*
X35071Y-19537D01*
X35163Y-19499D01*
X35233Y-19429D01*
X35271Y-19338D01*
X35271Y-20845D01*
X35233Y-20753D01*
X35163Y-20683D01*
X35072Y-20645D01*
X34973Y-20645D01*
X34187Y-20645D01*
X34095Y-20683D01*
X34025Y-20753D01*
X33987Y-20844D01*
X33987Y-20943D01*
X33987Y-21141D01*
X30579Y-21141D01*
X30579Y-20338D01*
X30579Y-20239D01*
X30579Y-19845D01*
X30541Y-19753D01*
X30471Y-19683D01*
X30380Y-19645D01*
X30281Y-19645D01*
X29495Y-19645D01*
X29403Y-19683D01*
X29333Y-19753D01*
X29295Y-19844D01*
X29295Y-19943D01*
X29295Y-20337D01*
X29333Y-20429D01*
X29403Y-20499D01*
X29494Y-20537D01*
X29593Y-20537D01*
X30379Y-20537D01*
X30471Y-20499D01*
X30541Y-20429D01*
X30579Y-20338D01*
X30579Y-21141D01*
X29715Y-21141D01*
X29435Y-20861D01*
X29329Y-20791D01*
X29245Y-20774D01*
X29237Y-20753D01*
X29167Y-20683D01*
X29076Y-20645D01*
X28977Y-20645D01*
X28191Y-20645D01*
X28099Y-20683D01*
X28029Y-20753D01*
X28002Y-20817D01*
X28002Y-19363D01*
X28029Y-19429D01*
X28099Y-19499D01*
X28190Y-19537D01*
X28289Y-19537D01*
X29075Y-19537D01*
X29167Y-19499D01*
X29237Y-19429D01*
X29275Y-19338D01*
X29275Y-19239D01*
X29275Y-18845D01*
X29237Y-18753D01*
X29167Y-18683D01*
X29076Y-18645D01*
X28977Y-18645D01*
X28645Y-18645D01*
X29295Y-17995D01*
X29295Y-18337D01*
X29333Y-18429D01*
X29403Y-18499D01*
X29494Y-18537D01*
X29593Y-18537D01*
X30379Y-18537D01*
X30471Y-18499D01*
X30541Y-18429D01*
X30579Y-18338D01*
X30579Y-18239D01*
X30579Y-17845D01*
X30541Y-17753D01*
X30471Y-17683D01*
X30380Y-17645D01*
X30281Y-17645D01*
X29629Y-17645D01*
X29665Y-17590D01*
X29666Y-17589D01*
X29691Y-17465D01*
X29691Y-16537D01*
X30379Y-16537D01*
X30471Y-16499D01*
X30541Y-16429D01*
X30579Y-16338D01*
X30579Y-16239D01*
X30579Y-15845D01*
X30541Y-15753D01*
X30471Y-15683D01*
X30380Y-15645D01*
X30281Y-15645D01*
X29495Y-15645D01*
X29403Y-15683D01*
X29333Y-15753D01*
X29324Y-15774D01*
X29242Y-15791D01*
X29136Y-15861D01*
X29066Y-15967D01*
X29041Y-16091D01*
X29041Y-16644D01*
X28745Y-16644D01*
X28683Y-16706D01*
X28683Y-16991D01*
X28683Y-17041D01*
X28683Y-17141D01*
X28683Y-17191D01*
X28683Y-17476D01*
X28745Y-17538D01*
X28834Y-17537D01*
X28583Y-17788D01*
X28583Y-17476D01*
X28583Y-17141D01*
X28583Y-17041D01*
X28583Y-16706D01*
X28521Y-16644D01*
X28191Y-16645D01*
X28099Y-16683D01*
X28029Y-16753D01*
X27991Y-16844D01*
X27991Y-16943D01*
X27990Y-16979D01*
X28052Y-17041D01*
X28583Y-17041D01*
X28583Y-17141D01*
X28052Y-17141D01*
X27990Y-17203D01*
X27991Y-17239D01*
X27991Y-17338D01*
X28029Y-17429D01*
X28099Y-17499D01*
X28191Y-17537D01*
X28521Y-17538D01*
X28583Y-17476D01*
X28583Y-17788D01*
X27447Y-18924D01*
X27377Y-19030D01*
X27352Y-19154D01*
X27352Y-31971D01*
X27377Y-32095D01*
X27447Y-32201D01*
X27941Y-32694D01*
X27943Y-32697D01*
X28028Y-32753D01*
X27991Y-32844D01*
X27991Y-32943D01*
X27991Y-33337D01*
X28029Y-33429D01*
X28099Y-33499D01*
X28190Y-33537D01*
X28289Y-33537D01*
X29075Y-33537D01*
X29167Y-33499D01*
X29237Y-33429D01*
X29275Y-33338D01*
X29275Y-33239D01*
X29275Y-32845D01*
X29253Y-32792D01*
X34008Y-32792D01*
X33987Y-32844D01*
X33987Y-32943D01*
X33987Y-33337D01*
X34025Y-33429D01*
X34095Y-33499D01*
X34186Y-33537D01*
X34285Y-33537D01*
X35071Y-33537D01*
X35163Y-33499D01*
X35233Y-33429D01*
X35271Y-33338D01*
X35271Y-33239D01*
X35271Y-32845D01*
X35249Y-32792D01*
X36047Y-32792D01*
X36845Y-33589D01*
X36847Y-33592D01*
X36952Y-33661D01*
X36953Y-33662D01*
X37051Y-33681D01*
X37076Y-33687D01*
X37076Y-33686D01*
X37077Y-33687D01*
X43446Y-33687D01*
X43474Y-33753D01*
X43544Y-33823D01*
X43635Y-33861D01*
X43734Y-33861D01*
X44734Y-33861D01*
X44826Y-33823D01*
X44896Y-33753D01*
X44934Y-33662D01*
X44934Y-33563D01*
X44934Y-33063D01*
X44896Y-32971D01*
X44826Y-32901D01*
X44735Y-32863D01*
X44636Y-32863D01*
X43636Y-32863D01*
X43544Y-32901D01*
X43474Y-32971D01*
X43446Y-33037D01*
X37211Y-33037D01*
X36556Y-32381D01*
X36575Y-32338D01*
X36575Y-32239D01*
X36575Y-32040D01*
X39782Y-32040D01*
X39858Y-32090D01*
X39982Y-32115D01*
X43436Y-32115D01*
X43436Y-32161D01*
X43436Y-32661D01*
X43474Y-32753D01*
X43544Y-32823D01*
X43635Y-32861D01*
X43734Y-32861D01*
X44734Y-32861D01*
X44826Y-32823D01*
X44896Y-32753D01*
X44934Y-32662D01*
X44934Y-32563D01*
X44934Y-32115D01*
X53436Y-32115D01*
X53436Y-32161D01*
X53436Y-32661D01*
X53474Y-32753D01*
X53544Y-32823D01*
X53635Y-32861D01*
X53734Y-32861D01*
X54734Y-32861D01*
X54826Y-32823D01*
X54896Y-32753D01*
X54934Y-32662D01*
X54934Y-32563D01*
X54934Y-32115D01*
X63436Y-32115D01*
X63436Y-32161D01*
X63436Y-32661D01*
X63474Y-32753D01*
X63544Y-32823D01*
X63635Y-32861D01*
X63734Y-32861D01*
X64734Y-32861D01*
X64826Y-32823D01*
X64896Y-32753D01*
X64934Y-32662D01*
X64934Y-32563D01*
X64934Y-32115D01*
X73079Y-32115D01*
X73203Y-32090D01*
X73309Y-32020D01*
X73525Y-31804D01*
X73544Y-31823D01*
X73635Y-31861D01*
X73734Y-31861D01*
X74734Y-31861D01*
X74826Y-31823D01*
X74896Y-31753D01*
X74934Y-31662D01*
X74934Y-31563D01*
X74934Y-31259D01*
X82944Y-31259D01*
X83277Y-31592D01*
X83382Y-31662D01*
X83383Y-31662D01*
X83441Y-31673D01*
X83474Y-31753D01*
X83544Y-31823D01*
X83635Y-31861D01*
X83734Y-31861D01*
X84734Y-31861D01*
X84826Y-31823D01*
X84896Y-31753D01*
X84934Y-31662D01*
X84934Y-31563D01*
X84934Y-31063D01*
X84896Y-30971D01*
X84826Y-30901D01*
X84735Y-30863D01*
X84636Y-30863D01*
X83636Y-30863D01*
X83544Y-30901D01*
X83525Y-30920D01*
X83309Y-30704D01*
X83283Y-30687D01*
X83446Y-30687D01*
X83474Y-30753D01*
X83544Y-30823D01*
X83635Y-30861D01*
X83734Y-30861D01*
X84734Y-30861D01*
X84826Y-30823D01*
X84896Y-30753D01*
X84934Y-30662D01*
X84934Y-30563D01*
X84934Y-30063D01*
X84896Y-29971D01*
X84826Y-29901D01*
X84735Y-29863D01*
X84636Y-29863D01*
X83636Y-29863D01*
X83544Y-29901D01*
X83474Y-29971D01*
X83446Y-30037D01*
X74923Y-30037D01*
X74896Y-29971D01*
X74826Y-29901D01*
X74735Y-29863D01*
X74636Y-29863D01*
X73636Y-29863D01*
X73544Y-29901D01*
X73474Y-29971D01*
X73446Y-30037D01*
X64923Y-30037D01*
X64896Y-29971D01*
X64826Y-29901D01*
X64735Y-29863D01*
X64636Y-29863D01*
X63636Y-29863D01*
X63544Y-29901D01*
X63474Y-29971D01*
X63436Y-30062D01*
X63436Y-30161D01*
X63436Y-30609D01*
X54934Y-30609D01*
X54934Y-30563D01*
X54934Y-30063D01*
X54896Y-29971D01*
X54826Y-29901D01*
X54735Y-29863D01*
X54636Y-29863D01*
X53636Y-29863D01*
X53544Y-29901D01*
X53474Y-29971D01*
X53436Y-30062D01*
X53436Y-30161D01*
X53436Y-30609D01*
X52768Y-30609D01*
X51846Y-29687D01*
X53446Y-29687D01*
X53474Y-29753D01*
X53544Y-29823D01*
X53635Y-29861D01*
X53734Y-29861D01*
X54734Y-29861D01*
X54826Y-29823D01*
X54896Y-29753D01*
X54923Y-29687D01*
X63446Y-29687D01*
X63474Y-29753D01*
X63544Y-29823D01*
X63635Y-29861D01*
X63734Y-29861D01*
X64734Y-29861D01*
X64826Y-29823D01*
X64896Y-29753D01*
X64923Y-29687D01*
X73446Y-29687D01*
X73474Y-29753D01*
X73544Y-29823D01*
X73635Y-29861D01*
X73734Y-29861D01*
X74734Y-29861D01*
X74826Y-29823D01*
X74896Y-29753D01*
X74934Y-29662D01*
X74934Y-29563D01*
X74934Y-29116D01*
X76710Y-29116D01*
X76834Y-29091D01*
X76940Y-29021D01*
X79274Y-26687D01*
X83446Y-26687D01*
X83474Y-26753D01*
X83544Y-26823D01*
X83635Y-26861D01*
X83734Y-26861D01*
X84538Y-26861D01*
X84538Y-26863D01*
X83636Y-26863D01*
X83544Y-26901D01*
X83474Y-26971D01*
X83436Y-27062D01*
X83436Y-27161D01*
X83436Y-27661D01*
X83474Y-27753D01*
X83544Y-27823D01*
X83635Y-27861D01*
X83734Y-27861D01*
X84538Y-27861D01*
X84538Y-27863D01*
X83636Y-27863D01*
X83544Y-27901D01*
X83474Y-27971D01*
X83436Y-28062D01*
X83436Y-28161D01*
X83436Y-28661D01*
X83474Y-28753D01*
X83544Y-28823D01*
X83635Y-28861D01*
X83734Y-28861D01*
X84538Y-28861D01*
X84538Y-28863D01*
X83636Y-28863D01*
X83544Y-28901D01*
X83474Y-28971D01*
X83436Y-29062D01*
X83436Y-29161D01*
X83436Y-29661D01*
X83474Y-29753D01*
X83544Y-29823D01*
X83635Y-29861D01*
X83734Y-29861D01*
X84734Y-29861D01*
X84826Y-29823D01*
X84896Y-29753D01*
X84929Y-29673D01*
X84987Y-29662D01*
X85093Y-29592D01*
X85163Y-29486D01*
X85188Y-29362D01*
X85188Y-42392D01*
X84934Y-42392D01*
X84934Y-33662D01*
X84934Y-33563D01*
X84934Y-33063D01*
X84934Y-32662D01*
X84934Y-32563D01*
X84934Y-32063D01*
X84896Y-31971D01*
X84826Y-31901D01*
X84735Y-31863D01*
X84636Y-31863D01*
X83636Y-31863D01*
X83544Y-31901D01*
X83474Y-31971D01*
X83436Y-32062D01*
X83436Y-32161D01*
X83436Y-32661D01*
X83474Y-32753D01*
X83544Y-32823D01*
X83635Y-32861D01*
X83734Y-32861D01*
X84734Y-32861D01*
X84826Y-32823D01*
X84896Y-32753D01*
X84934Y-32662D01*
X84934Y-33063D01*
X84896Y-32971D01*
X84826Y-32901D01*
X84735Y-32863D01*
X84636Y-32863D01*
X83636Y-32863D01*
X83544Y-32901D01*
X83474Y-32971D01*
X83436Y-33062D01*
X83436Y-33161D01*
X83436Y-33661D01*
X83474Y-33753D01*
X83544Y-33823D01*
X83635Y-33861D01*
X83734Y-33861D01*
X84734Y-33861D01*
X84826Y-33823D01*
X84896Y-33753D01*
X84934Y-33662D01*
X84934Y-42392D01*
X82795Y-42392D01*
X82795Y-38828D01*
X82795Y-38498D01*
X82669Y-38193D01*
X82436Y-37959D01*
X82131Y-37832D01*
X81801Y-37832D01*
X81496Y-37958D01*
X81262Y-38191D01*
X81135Y-38496D01*
X81135Y-38826D01*
X81261Y-39131D01*
X81494Y-39365D01*
X81799Y-39492D01*
X82129Y-39492D01*
X82434Y-39366D01*
X82668Y-39133D01*
X82795Y-38828D01*
X82795Y-42392D01*
X77809Y-42392D01*
X77964Y-42238D01*
X78104Y-41901D01*
X78104Y-41535D01*
X77964Y-41197D01*
X77706Y-40938D01*
X77369Y-40798D01*
X77003Y-40798D01*
X76665Y-40938D01*
X76406Y-41196D01*
X76266Y-41533D01*
X76266Y-41899D01*
X76406Y-42237D01*
X76560Y-42392D01*
X74934Y-42392D01*
X74934Y-33662D01*
X74934Y-33563D01*
X74934Y-33063D01*
X74934Y-32662D01*
X74934Y-32563D01*
X74934Y-32063D01*
X74896Y-31971D01*
X74826Y-31901D01*
X74735Y-31863D01*
X74636Y-31863D01*
X73636Y-31863D01*
X73544Y-31901D01*
X73474Y-31971D01*
X73436Y-32062D01*
X73436Y-32161D01*
X73436Y-32661D01*
X73474Y-32753D01*
X73544Y-32823D01*
X73635Y-32861D01*
X73734Y-32861D01*
X74734Y-32861D01*
X74826Y-32823D01*
X74896Y-32753D01*
X74934Y-32662D01*
X74934Y-33063D01*
X74896Y-32971D01*
X74826Y-32901D01*
X74735Y-32863D01*
X74636Y-32863D01*
X73636Y-32863D01*
X73544Y-32901D01*
X73474Y-32971D01*
X73436Y-33062D01*
X73436Y-33161D01*
X73436Y-33661D01*
X73474Y-33753D01*
X73544Y-33823D01*
X73635Y-33861D01*
X73734Y-33861D01*
X74734Y-33861D01*
X74826Y-33823D01*
X74896Y-33753D01*
X74934Y-33662D01*
X74934Y-42392D01*
X72795Y-42392D01*
X72795Y-38828D01*
X72795Y-38498D01*
X72669Y-38193D01*
X72436Y-37959D01*
X72131Y-37832D01*
X71801Y-37832D01*
X71496Y-37958D01*
X71262Y-38191D01*
X71135Y-38496D01*
X71135Y-38826D01*
X71261Y-39131D01*
X71494Y-39365D01*
X71799Y-39492D01*
X72129Y-39492D01*
X72434Y-39366D01*
X72668Y-39133D01*
X72795Y-38828D01*
X72795Y-42392D01*
X64934Y-42392D01*
X64934Y-33662D01*
X64934Y-33563D01*
X64934Y-33063D01*
X64896Y-32971D01*
X64826Y-32901D01*
X64735Y-32863D01*
X64636Y-32863D01*
X63636Y-32863D01*
X63544Y-32901D01*
X63474Y-32971D01*
X63436Y-33062D01*
X63436Y-33161D01*
X63436Y-33661D01*
X63474Y-33753D01*
X63544Y-33823D01*
X63635Y-33861D01*
X63734Y-33861D01*
X64734Y-33861D01*
X64826Y-33823D01*
X64896Y-33753D01*
X64934Y-33662D01*
X64934Y-42392D01*
X62795Y-42392D01*
X62795Y-38828D01*
X62795Y-38498D01*
X62669Y-38193D01*
X62436Y-37959D01*
X62131Y-37832D01*
X61801Y-37832D01*
X61496Y-37958D01*
X61262Y-38191D01*
X61135Y-38496D01*
X61135Y-38826D01*
X61261Y-39131D01*
X61494Y-39365D01*
X61799Y-39492D01*
X62129Y-39492D01*
X62434Y-39366D01*
X62668Y-39133D01*
X62795Y-38828D01*
X62795Y-42392D01*
X57809Y-42392D01*
X57964Y-42238D01*
X58104Y-41901D01*
X58104Y-41535D01*
X57964Y-41197D01*
X57706Y-40938D01*
X57369Y-40798D01*
X57003Y-40798D01*
X56665Y-40938D01*
X56406Y-41196D01*
X56266Y-41533D01*
X56266Y-41899D01*
X56406Y-42237D01*
X56560Y-42392D01*
X54934Y-42392D01*
X54934Y-33662D01*
X54934Y-33563D01*
X54934Y-33063D01*
X54896Y-32971D01*
X54826Y-32901D01*
X54735Y-32863D01*
X54636Y-32863D01*
X53636Y-32863D01*
X53544Y-32901D01*
X53474Y-32971D01*
X53436Y-33062D01*
X53436Y-33161D01*
X53436Y-33661D01*
X53474Y-33753D01*
X53544Y-33823D01*
X53635Y-33861D01*
X53734Y-33861D01*
X54734Y-33861D01*
X54826Y-33823D01*
X54896Y-33753D01*
X54934Y-33662D01*
X54934Y-42392D01*
X52795Y-42392D01*
X52795Y-38828D01*
X52795Y-38498D01*
X52669Y-38193D01*
X52436Y-37959D01*
X52131Y-37832D01*
X51801Y-37832D01*
X51496Y-37958D01*
X51262Y-38191D01*
X51135Y-38496D01*
X51135Y-38826D01*
X51261Y-39131D01*
X51494Y-39365D01*
X51799Y-39492D01*
X52129Y-39492D01*
X52434Y-39366D01*
X52668Y-39133D01*
X52795Y-38828D01*
X52795Y-42392D01*
X42795Y-42392D01*
X42795Y-38828D01*
X42795Y-38498D01*
X42669Y-38193D01*
X42436Y-37959D01*
X42131Y-37832D01*
X41801Y-37832D01*
X41496Y-37958D01*
X41262Y-38191D01*
X41135Y-38496D01*
X41135Y-38826D01*
X41261Y-39131D01*
X41494Y-39365D01*
X41799Y-39492D01*
X42129Y-39492D01*
X42434Y-39366D01*
X42668Y-39133D01*
X42795Y-38828D01*
X42795Y-42392D01*
X37858Y-42392D01*
X38013Y-42238D01*
X38153Y-41901D01*
X38153Y-41535D01*
X38013Y-41197D01*
X37755Y-40938D01*
X37418Y-40798D01*
X37052Y-40798D01*
X36714Y-40938D01*
X36575Y-41076D01*
X36575Y-34338D01*
X36575Y-34239D01*
X36575Y-33845D01*
X36537Y-33753D01*
X36467Y-33683D01*
X36376Y-33645D01*
X36277Y-33645D01*
X35491Y-33645D01*
X35399Y-33683D01*
X35329Y-33753D01*
X35291Y-33844D01*
X35291Y-33943D01*
X35291Y-34337D01*
X35329Y-34429D01*
X35399Y-34499D01*
X35490Y-34537D01*
X35589Y-34537D01*
X36375Y-34537D01*
X36467Y-34499D01*
X36537Y-34429D01*
X36575Y-34338D01*
X36575Y-41076D01*
X36455Y-41196D01*
X36315Y-41533D01*
X36315Y-41899D01*
X36455Y-42237D01*
X36609Y-42392D01*
X35271Y-42392D01*
X35271Y-35338D01*
X35271Y-35239D01*
X35271Y-34845D01*
X35233Y-34753D01*
X35163Y-34683D01*
X35072Y-34645D01*
X34973Y-34645D01*
X34187Y-34645D01*
X34095Y-34683D01*
X34025Y-34753D01*
X33987Y-34844D01*
X33987Y-34943D01*
X33987Y-35337D01*
X34025Y-35429D01*
X34095Y-35499D01*
X34186Y-35537D01*
X34285Y-35537D01*
X35071Y-35537D01*
X35163Y-35499D01*
X35233Y-35429D01*
X35271Y-35338D01*
X35271Y-42392D01*
X30579Y-42392D01*
X30579Y-34338D01*
X30579Y-34239D01*
X30579Y-33845D01*
X30541Y-33753D01*
X30471Y-33683D01*
X30380Y-33645D01*
X30281Y-33645D01*
X29495Y-33645D01*
X29403Y-33683D01*
X29333Y-33753D01*
X29295Y-33844D01*
X29295Y-33943D01*
X29295Y-34337D01*
X29333Y-34429D01*
X29403Y-34499D01*
X29494Y-34537D01*
X29593Y-34537D01*
X30379Y-34537D01*
X30471Y-34499D01*
X30541Y-34429D01*
X30579Y-34338D01*
X30579Y-42392D01*
X29275Y-42392D01*
X29275Y-35338D01*
X29275Y-35239D01*
X29275Y-34845D01*
X29237Y-34753D01*
X29167Y-34683D01*
X29076Y-34645D01*
X28977Y-34645D01*
X28191Y-34645D01*
X28099Y-34683D01*
X28029Y-34753D01*
X27991Y-34844D01*
X27991Y-34943D01*
X27991Y-35337D01*
X28029Y-35429D01*
X28099Y-35499D01*
X28190Y-35537D01*
X28289Y-35537D01*
X29075Y-35537D01*
X29167Y-35499D01*
X29237Y-35429D01*
X29275Y-35338D01*
X29275Y-42392D01*
X27182Y-42392D01*
X27182Y-15895D01*
X27182Y-15796D01*
X27182Y-14696D01*
X27144Y-14604D01*
X27074Y-14534D01*
X26983Y-14496D01*
X26923Y-14496D01*
X26923Y-14322D01*
X26982Y-14322D01*
X27074Y-14284D01*
X27144Y-14214D01*
X27182Y-14123D01*
X27182Y-14024D01*
X27182Y-12924D01*
X27144Y-12832D01*
X27074Y-12762D01*
X26983Y-12724D01*
X26884Y-12724D01*
X26214Y-12724D01*
X26122Y-12762D01*
X26052Y-12832D01*
X26014Y-12923D01*
X26014Y-13022D01*
X26014Y-14122D01*
X26052Y-14214D01*
X26122Y-14284D01*
X26213Y-14322D01*
X26273Y-14322D01*
X26273Y-14496D01*
X26214Y-14496D01*
X26122Y-14534D01*
X26052Y-14604D01*
X26014Y-14695D01*
X26014Y-14794D01*
X26014Y-15894D01*
X26052Y-15986D01*
X26122Y-16056D01*
X26213Y-16094D01*
X26273Y-16094D01*
X26273Y-25145D01*
X25247Y-26171D01*
X25247Y-14793D01*
X25247Y-14616D01*
X25180Y-14453D01*
X25055Y-14328D01*
X24892Y-14260D01*
X24715Y-14260D01*
X24552Y-14327D01*
X24427Y-14452D01*
X24359Y-14615D01*
X24359Y-14792D01*
X24426Y-14955D01*
X24551Y-15080D01*
X24714Y-15148D01*
X24891Y-15148D01*
X25054Y-15081D01*
X25179Y-14956D01*
X25247Y-14793D01*
X25247Y-26171D01*
X24171Y-27247D01*
X24171Y-27147D01*
X24087Y-26945D01*
X23933Y-26791D01*
X23731Y-26707D01*
X23533Y-26707D01*
X23514Y-26688D01*
X23514Y-16094D01*
X23750Y-16094D01*
X23842Y-16056D01*
X23912Y-15986D01*
X23950Y-15895D01*
X23950Y-15796D01*
X23950Y-14696D01*
X23912Y-14604D01*
X23842Y-14534D01*
X23751Y-14496D01*
X23652Y-14496D01*
X23514Y-14496D01*
X23514Y-14322D01*
X23750Y-14322D01*
X23842Y-14284D01*
X23912Y-14214D01*
X23950Y-14123D01*
X23950Y-14024D01*
X23950Y-12924D01*
X23912Y-12832D01*
X23842Y-12762D01*
X23751Y-12724D01*
X23652Y-12724D01*
X22628Y-12724D01*
X22536Y-12762D01*
X22466Y-12832D01*
X22428Y-12923D01*
X22428Y-13022D01*
X22428Y-14122D01*
X22466Y-14214D01*
X22536Y-14284D01*
X22627Y-14322D01*
X22726Y-14322D01*
X22864Y-14322D01*
X22864Y-14496D01*
X22628Y-14496D01*
X22536Y-14534D01*
X22466Y-14604D01*
X22428Y-14695D01*
X22428Y-14794D01*
X22428Y-15894D01*
X22466Y-15986D01*
X22536Y-16056D01*
X22627Y-16094D01*
X22726Y-16094D01*
X22864Y-16094D01*
X22864Y-26823D01*
X22889Y-26947D01*
X22959Y-27053D01*
X23073Y-27167D01*
X23073Y-27365D01*
X23157Y-27567D01*
X23297Y-27707D01*
X23273Y-27707D01*
X23181Y-27745D01*
X23111Y-27815D01*
X23073Y-27906D01*
X23073Y-28005D01*
X23073Y-28605D01*
X23111Y-28697D01*
X23181Y-28767D01*
X23272Y-28805D01*
X23371Y-28805D01*
X23971Y-28805D01*
X24063Y-28767D01*
X24133Y-28697D01*
X24171Y-28606D01*
X24171Y-28507D01*
X24171Y-28088D01*
X24224Y-28078D01*
X24330Y-28008D01*
X26825Y-25511D01*
X26827Y-25510D01*
X26828Y-25510D01*
X26897Y-25405D01*
X26898Y-25404D01*
X26923Y-25280D01*
X26923Y-16094D01*
X26982Y-16094D01*
X27074Y-16056D01*
X27144Y-15986D01*
X27182Y-15895D01*
X27182Y-42392D01*
X20010Y-42392D01*
X20010Y-38994D01*
X20164Y-39149D01*
X20501Y-39289D01*
X20867Y-39289D01*
X21205Y-39149D01*
X21464Y-38891D01*
X21604Y-38554D01*
X21604Y-38188D01*
X21464Y-37850D01*
X21206Y-37591D01*
X20869Y-37451D01*
X20503Y-37451D01*
X20165Y-37591D01*
X20010Y-37745D01*
X20010Y-16978D01*
X20164Y-17133D01*
X20501Y-17273D01*
X20867Y-17273D01*
X21205Y-17133D01*
X21464Y-16875D01*
X21604Y-16538D01*
X21604Y-16172D01*
X21464Y-15834D01*
X21206Y-15575D01*
X20869Y-15435D01*
X20503Y-15435D01*
X20165Y-15575D01*
X20010Y-15729D01*
X20010Y-12333D01*
X24615Y-12333D01*
X24552Y-12359D01*
X24427Y-12484D01*
X24359Y-12647D01*
X24359Y-12824D01*
X24426Y-12987D01*
X24551Y-13112D01*
X24714Y-13180D01*
X24891Y-13180D01*
X25054Y-13113D01*
X25179Y-12988D01*
X25247Y-12825D01*
X25247Y-12648D01*
X25180Y-12485D01*
X25055Y-12360D01*
X24990Y-12333D01*
X36609Y-12333D01*
X36455Y-12487D01*
X36315Y-12824D01*
X36315Y-13190D01*
X36455Y-13528D01*
X36713Y-13787D01*
X37050Y-13927D01*
X37416Y-13927D01*
X37754Y-13787D01*
X38013Y-13529D01*
X38153Y-13192D01*
X38153Y-12826D01*
X38013Y-12488D01*
X37858Y-12333D01*
X56560Y-12333D01*
X56406Y-12487D01*
X56266Y-12824D01*
X56266Y-13190D01*
X56406Y-13528D01*
X56664Y-13787D01*
X57001Y-13927D01*
X57367Y-13927D01*
X57705Y-13787D01*
X57964Y-13529D01*
X58104Y-13192D01*
X58104Y-12826D01*
X57964Y-12488D01*
X57809Y-12333D01*
X76560Y-12333D01*
X76406Y-12487D01*
X76266Y-12824D01*
X76266Y-13190D01*
X76406Y-13528D01*
X76664Y-13787D01*
X77001Y-13927D01*
X77367Y-13927D01*
X77705Y-13787D01*
X77964Y-13529D01*
X78104Y-13192D01*
X78104Y-12826D01*
X77964Y-12488D01*
X77809Y-12333D01*
X89360Y-12333D01*
X89360Y-15729D01*
X89206Y-15575D01*
X88869Y-15435D01*
X88503Y-15435D01*
X88165Y-15575D01*
X87906Y-15833D01*
X87766Y-16170D01*
X87766Y-16536D01*
X87906Y-16874D01*
X88164Y-17133D01*
X88501Y-17273D01*
X88867Y-17273D01*
X89205Y-17133D01*
X89360Y-16978D01*
X89360Y-37745D01*
X89206Y-37591D01*
X88869Y-37451D01*
X88503Y-37451D01*
X88165Y-37591D01*
X87906Y-37849D01*
X87766Y-38186D01*
X87766Y-38552D01*
X87906Y-38890D01*
X88164Y-39149D01*
X88501Y-39289D01*
X88867Y-39289D01*
X89205Y-39149D01*
X89360Y-38994D01*
X89360Y-42392D01*
M02*
