G04 (created by PCBNEW-RS274X (2011-05-25)-stable) date Fri 21 Sep 2012 01:47:41 PM PDT*
G01*
G70*
G90*
%MOIN*%
G04 Gerber Fmt 3.4, Leading zero omitted, Abs format*
%FSLAX34Y34*%
G04 APERTURE LIST*
%ADD10C,0.006000*%
%ADD11C,0.133900*%
%ADD12R,0.100000X0.050000*%
%ADD13C,0.116000*%
%ADD14C,0.039000*%
%ADD15R,0.045000X0.025000*%
%ADD16R,0.060000X0.060000*%
%ADD17C,0.060000*%
%ADD18C,0.035000*%
%ADD19C,0.015000*%
%ADD20C,0.010000*%
G04 APERTURE END LIST*
G54D10*
G54D11*
X77185Y-41717D03*
X57185Y-41717D03*
X37234Y-41717D03*
X37234Y-13008D03*
X57185Y-13008D03*
X77185Y-13008D03*
G54D12*
X84185Y-21362D03*
X84185Y-22362D03*
X84185Y-23362D03*
X84185Y-24362D03*
X84185Y-25362D03*
X84185Y-26362D03*
X84185Y-27362D03*
X84185Y-28362D03*
X84185Y-29362D03*
X84185Y-30362D03*
X84185Y-31362D03*
X84185Y-32362D03*
X84185Y-33362D03*
G54D13*
X81965Y-16062D03*
X81965Y-38662D03*
G54D12*
X74185Y-21362D03*
X74185Y-22362D03*
X74185Y-23362D03*
X74185Y-24362D03*
X74185Y-25362D03*
X74185Y-26362D03*
X74185Y-27362D03*
X74185Y-28362D03*
X74185Y-29362D03*
X74185Y-30362D03*
X74185Y-31362D03*
X74185Y-32362D03*
X74185Y-33362D03*
G54D13*
X71965Y-16062D03*
X71965Y-38662D03*
G54D12*
X64185Y-21362D03*
X64185Y-22362D03*
X64185Y-23362D03*
X64185Y-24362D03*
X64185Y-25362D03*
X64185Y-26362D03*
X64185Y-27362D03*
X64185Y-28362D03*
X64185Y-29362D03*
X64185Y-30362D03*
X64185Y-31362D03*
X64185Y-32362D03*
X64185Y-33362D03*
G54D13*
X61965Y-16062D03*
X61965Y-38662D03*
G54D12*
X54185Y-21362D03*
X54185Y-22362D03*
X54185Y-23362D03*
X54185Y-24362D03*
X54185Y-25362D03*
X54185Y-26362D03*
X54185Y-27362D03*
X54185Y-28362D03*
X54185Y-29362D03*
X54185Y-30362D03*
X54185Y-31362D03*
X54185Y-32362D03*
X54185Y-33362D03*
G54D13*
X51965Y-16062D03*
X51965Y-38662D03*
G54D12*
X44185Y-21362D03*
X44185Y-22362D03*
X44185Y-23362D03*
X44185Y-24362D03*
X44185Y-25362D03*
X44185Y-26362D03*
X44185Y-27362D03*
X44185Y-28362D03*
X44185Y-29362D03*
X44185Y-30362D03*
X44185Y-31362D03*
X44185Y-32362D03*
X44185Y-33362D03*
G54D13*
X41965Y-16062D03*
X41965Y-38662D03*
G54D14*
X24803Y-15886D03*
X24803Y-17854D03*
G54D15*
X46085Y-33187D03*
X46085Y-33787D03*
X56085Y-33187D03*
X56085Y-33787D03*
X66085Y-33187D03*
X66085Y-33787D03*
X76085Y-33187D03*
X76085Y-33787D03*
X86085Y-33187D03*
X86085Y-33787D03*
G54D16*
X23622Y-28256D03*
G54D17*
X23622Y-27256D03*
G54D11*
X20685Y-16354D03*
X20685Y-38370D03*
X88685Y-38370D03*
X88685Y-16354D03*
G54D18*
X30772Y-23591D03*
X45425Y-25767D03*
X59745Y-28824D03*
G54D19*
X44863Y-32362D02*
X44863Y-26362D01*
X44185Y-32362D02*
X44863Y-32362D01*
X44185Y-26362D02*
X44863Y-26362D01*
X54863Y-32362D02*
X54863Y-26362D01*
X54185Y-32362D02*
X54863Y-32362D01*
X54185Y-26362D02*
X54863Y-26362D01*
X64863Y-32362D02*
X64863Y-26362D01*
X64185Y-32362D02*
X64863Y-32362D01*
X64185Y-26362D02*
X64863Y-26362D01*
X74863Y-32362D02*
X74863Y-26362D01*
X74185Y-32362D02*
X74863Y-32362D01*
X74185Y-26362D02*
X74863Y-26362D01*
X84863Y-32362D02*
X84863Y-26362D01*
X84185Y-32362D02*
X84863Y-32362D01*
X84185Y-26362D02*
X84863Y-26362D01*
X44185Y-30362D02*
X43507Y-30362D01*
X44185Y-24362D02*
X43507Y-24362D01*
X43254Y-30109D02*
X43507Y-30362D01*
X43254Y-24615D02*
X43254Y-30109D01*
X43507Y-24362D02*
X43254Y-24615D01*
X54185Y-30362D02*
X53507Y-30362D01*
X54185Y-24362D02*
X53507Y-24362D01*
X53254Y-30109D02*
X53507Y-30362D01*
X53254Y-24615D02*
X53254Y-30109D01*
X53507Y-24362D02*
X53254Y-24615D01*
X64185Y-30362D02*
X63507Y-30362D01*
X64185Y-24362D02*
X63507Y-24362D01*
X74185Y-30362D02*
X73507Y-30362D01*
X74185Y-24362D02*
X73507Y-24362D01*
X73254Y-30109D02*
X73507Y-30362D01*
X73254Y-24615D02*
X73254Y-30109D01*
X73507Y-24362D02*
X73254Y-24615D01*
X63001Y-29856D02*
X63507Y-30362D01*
X63001Y-24868D02*
X63001Y-29856D01*
X63507Y-24362D02*
X63001Y-24868D01*
X44863Y-23362D02*
X44863Y-22362D01*
X43507Y-24988D02*
X43507Y-29362D01*
X43705Y-24790D02*
X43507Y-24988D01*
X44759Y-24790D02*
X43705Y-24790D01*
X44863Y-24686D02*
X44759Y-24790D01*
X44863Y-23362D02*
X44863Y-24686D01*
X44185Y-23362D02*
X44863Y-23362D01*
X44185Y-22362D02*
X44863Y-22362D01*
X54185Y-23362D02*
X54524Y-23362D01*
X64185Y-23362D02*
X64524Y-23362D01*
X64185Y-22362D02*
X64863Y-22362D01*
X74185Y-29362D02*
X73507Y-29362D01*
X74185Y-23362D02*
X74524Y-23362D01*
X74524Y-23362D02*
X74863Y-23362D01*
X74185Y-22362D02*
X74863Y-22362D01*
X44185Y-29362D02*
X43507Y-29362D01*
X54864Y-23702D02*
X54524Y-23362D01*
X54864Y-24762D02*
X54864Y-23702D01*
X54821Y-24805D02*
X54864Y-24762D01*
X53740Y-24805D02*
X54821Y-24805D01*
X53507Y-25038D02*
X53740Y-24805D01*
X53507Y-29362D02*
X53507Y-25038D01*
X54185Y-29362D02*
X53507Y-29362D01*
X54185Y-22362D02*
X54524Y-22362D01*
X54524Y-22362D02*
X64185Y-22362D01*
X54524Y-23362D02*
X54524Y-22362D01*
X64185Y-29362D02*
X63507Y-29362D01*
X63507Y-24938D02*
X63507Y-29362D01*
X63550Y-24895D02*
X63507Y-24938D01*
X64717Y-24895D02*
X63550Y-24895D01*
X64864Y-24748D02*
X64717Y-24895D01*
X64864Y-23702D02*
X64864Y-24748D01*
X64524Y-23362D02*
X64864Y-23702D01*
X64863Y-23023D02*
X64863Y-22362D01*
X64524Y-23362D02*
X64863Y-23023D01*
X74185Y-22362D02*
X73507Y-22362D01*
X64863Y-22362D02*
X73507Y-22362D01*
X74863Y-24762D02*
X74863Y-23362D01*
X74821Y-24804D02*
X74863Y-24762D01*
X73741Y-24804D02*
X74821Y-24804D01*
X73507Y-25038D02*
X73741Y-24804D01*
X73507Y-29362D02*
X73507Y-25038D01*
X84185Y-22362D02*
X83507Y-22362D01*
X74863Y-23023D02*
X74863Y-22692D01*
X74524Y-23362D02*
X74863Y-23023D01*
X74863Y-22692D02*
X74863Y-22362D01*
X74863Y-22692D02*
X83507Y-22692D01*
X83507Y-22692D02*
X83507Y-22362D01*
X83507Y-22692D02*
X83507Y-23362D01*
X84185Y-23362D02*
X83507Y-23362D01*
X83507Y-29362D02*
X83507Y-23362D01*
X84185Y-29362D02*
X83507Y-29362D01*
X38543Y-31362D02*
X44185Y-31362D01*
X30772Y-23591D02*
X38543Y-31362D01*
X51020Y-31362D02*
X45425Y-25767D01*
X54185Y-31362D02*
X51020Y-31362D01*
X62283Y-31362D02*
X64185Y-31362D01*
X59745Y-28824D02*
X62283Y-31362D01*
X56085Y-33187D02*
X56488Y-33187D01*
X54185Y-33362D02*
X54863Y-33362D01*
X46085Y-33187D02*
X46488Y-33187D01*
X44185Y-33362D02*
X44863Y-33362D01*
X64185Y-33362D02*
X64863Y-33362D01*
X66085Y-33187D02*
X66488Y-33187D01*
X74185Y-33362D02*
X74863Y-33362D01*
X76085Y-33187D02*
X76488Y-33187D01*
X54185Y-33362D02*
X53507Y-33362D01*
X46488Y-33362D02*
X53507Y-33362D01*
X46488Y-34085D02*
X46488Y-33362D01*
X46455Y-34118D02*
X46488Y-34085D01*
X45619Y-34118D02*
X46455Y-34118D01*
X44863Y-33362D02*
X45619Y-34118D01*
X46488Y-33362D02*
X46488Y-33187D01*
X64185Y-33362D02*
X63507Y-33362D01*
X56488Y-33362D02*
X63507Y-33362D01*
X56488Y-33187D02*
X56488Y-33362D01*
X55895Y-34394D02*
X54863Y-33362D01*
X56080Y-34394D02*
X55895Y-34394D01*
X56488Y-33986D02*
X56080Y-34394D01*
X56488Y-33362D02*
X56488Y-33986D01*
X74185Y-33362D02*
X73507Y-33362D01*
X66488Y-33362D02*
X73507Y-33362D01*
X66488Y-34085D02*
X66488Y-33362D01*
X66455Y-34118D02*
X66488Y-34085D01*
X65619Y-34118D02*
X66455Y-34118D01*
X64863Y-33362D02*
X65619Y-34118D01*
X66488Y-33362D02*
X66488Y-33187D01*
X76488Y-33362D02*
X83507Y-33362D01*
X76488Y-34085D02*
X76488Y-33362D01*
X76455Y-34118D02*
X76488Y-34085D01*
X75619Y-34118D02*
X76455Y-34118D01*
X74863Y-33362D02*
X75619Y-34118D01*
X76488Y-33362D02*
X76488Y-33187D01*
X84113Y-33362D02*
X83507Y-33362D01*
X84113Y-33362D02*
X84185Y-33362D01*
X85507Y-33362D02*
X85682Y-33187D01*
X84185Y-33362D02*
X85507Y-33362D01*
X86085Y-33187D02*
X85682Y-33187D01*
X44185Y-21362D02*
X44863Y-21362D01*
X44185Y-25362D02*
X44863Y-25362D01*
X46085Y-33787D02*
X45682Y-33787D01*
X45681Y-33787D02*
X45682Y-33787D01*
X45681Y-26537D02*
X45681Y-33787D01*
X44863Y-25719D02*
X45681Y-26537D01*
X44863Y-25362D02*
X44863Y-25719D01*
X54185Y-21362D02*
X53507Y-21362D01*
X45153Y-25072D02*
X44863Y-25362D01*
X45153Y-21507D02*
X45153Y-25072D01*
X45008Y-21507D02*
X45153Y-21507D01*
X44863Y-21362D02*
X45008Y-21507D01*
X53362Y-21507D02*
X53507Y-21362D01*
X45153Y-21507D02*
X53362Y-21507D01*
X56085Y-33787D02*
X55682Y-33787D01*
X55682Y-26181D02*
X55682Y-33787D01*
X54863Y-25362D02*
X55682Y-26181D01*
X54185Y-25362D02*
X54863Y-25362D01*
X65682Y-26181D02*
X64863Y-25362D01*
X65682Y-33787D02*
X65682Y-26181D01*
X66085Y-33787D02*
X65682Y-33787D01*
X64185Y-25362D02*
X64863Y-25362D01*
X75682Y-26181D02*
X74863Y-25362D01*
X75682Y-33787D02*
X75682Y-26181D01*
X76085Y-33787D02*
X75682Y-33787D01*
X74185Y-25362D02*
X74863Y-25362D01*
X84863Y-25362D02*
X84863Y-21362D01*
X84185Y-25362D02*
X84863Y-25362D01*
X84185Y-21362D02*
X84863Y-21362D01*
X86488Y-26987D02*
X84863Y-25362D01*
X86488Y-33787D02*
X86488Y-26987D01*
X86085Y-33787D02*
X86488Y-33787D01*
X54185Y-28362D02*
X54185Y-27362D01*
X74185Y-28362D02*
X74185Y-27362D01*
X64185Y-28362D02*
X64185Y-27362D01*
X44185Y-28362D02*
X44185Y-27362D01*
X84185Y-28362D02*
X84185Y-27362D01*
G54D10*
G36*
X46135Y-33793D02*
X46035Y-33793D01*
X46035Y-33737D01*
X46135Y-33737D01*
X46135Y-33793D01*
X46135Y-33793D01*
G37*
G54D20*
X46135Y-33793D02*
X46035Y-33793D01*
X46035Y-33737D01*
X46135Y-33737D01*
X46135Y-33793D01*
G54D10*
G36*
X56135Y-33837D02*
X56035Y-33837D01*
X56035Y-33737D01*
X56135Y-33737D01*
X56135Y-33837D01*
X56135Y-33837D01*
G37*
G54D20*
X56135Y-33837D02*
X56035Y-33837D01*
X56035Y-33737D01*
X56135Y-33737D01*
X56135Y-33837D01*
G54D10*
G36*
X66135Y-33793D02*
X66035Y-33793D01*
X66035Y-33737D01*
X66135Y-33737D01*
X66135Y-33793D01*
X66135Y-33793D01*
G37*
G54D20*
X66135Y-33793D02*
X66035Y-33793D01*
X66035Y-33737D01*
X66135Y-33737D01*
X66135Y-33793D01*
G54D10*
G36*
X76135Y-33793D02*
X76035Y-33793D01*
X76035Y-33737D01*
X76135Y-33737D01*
X76135Y-33793D01*
X76135Y-33793D01*
G37*
G54D20*
X76135Y-33793D02*
X76035Y-33793D01*
X76035Y-33737D01*
X76135Y-33737D01*
X76135Y-33793D01*
G54D10*
G36*
X89360Y-42392D02*
X86560Y-42392D01*
X86560Y-33899D01*
X86560Y-33675D01*
X86559Y-33613D01*
X86521Y-33521D01*
X86487Y-33487D01*
X86521Y-33453D01*
X86559Y-33362D01*
X86559Y-33263D01*
X86559Y-33013D01*
X86521Y-32921D01*
X86451Y-32851D01*
X86360Y-32813D01*
X86261Y-32813D01*
X85811Y-32813D01*
X85719Y-32851D01*
X85708Y-32862D01*
X85682Y-32862D01*
X85558Y-32887D01*
X85452Y-32957D01*
X85450Y-32959D01*
X85372Y-33037D01*
X85188Y-33037D01*
X85188Y-32362D01*
X85188Y-26362D01*
X85163Y-26238D01*
X85093Y-26132D01*
X84987Y-26062D01*
X84935Y-26051D01*
X84935Y-25474D01*
X84935Y-25250D01*
X84935Y-21474D01*
X84935Y-21250D01*
X84934Y-21161D01*
X84934Y-21062D01*
X84896Y-20971D01*
X84826Y-20901D01*
X84734Y-20863D01*
X84297Y-20862D01*
X84235Y-20924D01*
X84235Y-21312D01*
X84873Y-21312D01*
X84935Y-21250D01*
X84935Y-21474D01*
X84873Y-21412D01*
X84235Y-21412D01*
X84235Y-21800D01*
X84297Y-21862D01*
X84734Y-21861D01*
X84826Y-21823D01*
X84896Y-21753D01*
X84934Y-21662D01*
X84934Y-21563D01*
X84935Y-21474D01*
X84935Y-25250D01*
X84934Y-25161D01*
X84934Y-25062D01*
X84896Y-24971D01*
X84826Y-24901D01*
X84734Y-24863D01*
X84297Y-24862D01*
X84235Y-24924D01*
X84235Y-25312D01*
X84873Y-25312D01*
X84935Y-25250D01*
X84935Y-25474D01*
X84873Y-25412D01*
X84235Y-25412D01*
X84235Y-25800D01*
X84297Y-25862D01*
X84734Y-25861D01*
X84826Y-25823D01*
X84896Y-25753D01*
X84934Y-25662D01*
X84934Y-25563D01*
X84935Y-25474D01*
X84935Y-26051D01*
X84928Y-26050D01*
X84896Y-25971D01*
X84826Y-25901D01*
X84735Y-25863D01*
X84636Y-25863D01*
X83832Y-25863D01*
X83832Y-25861D01*
X84073Y-25862D01*
X84135Y-25800D01*
X84135Y-25462D01*
X84135Y-25412D01*
X84135Y-25312D01*
X84135Y-25262D01*
X84135Y-24924D01*
X84073Y-24862D01*
X83832Y-24862D01*
X83832Y-24861D01*
X84734Y-24861D01*
X84826Y-24823D01*
X84896Y-24753D01*
X84934Y-24662D01*
X84934Y-24563D01*
X84934Y-24063D01*
X84896Y-23971D01*
X84826Y-23901D01*
X84735Y-23863D01*
X84636Y-23863D01*
X83832Y-23863D01*
X83832Y-23861D01*
X84734Y-23861D01*
X84826Y-23823D01*
X84896Y-23753D01*
X84934Y-23662D01*
X84934Y-23563D01*
X84934Y-23063D01*
X84896Y-22971D01*
X84826Y-22901D01*
X84735Y-22863D01*
X84636Y-22863D01*
X83832Y-22863D01*
X83832Y-22861D01*
X84734Y-22861D01*
X84826Y-22823D01*
X84896Y-22753D01*
X84934Y-22662D01*
X84934Y-22563D01*
X84934Y-22063D01*
X84896Y-21971D01*
X84826Y-21901D01*
X84735Y-21863D01*
X84636Y-21863D01*
X84135Y-21863D01*
X84135Y-21800D01*
X84135Y-21412D01*
X84135Y-21312D01*
X84135Y-20924D01*
X84073Y-20862D01*
X83636Y-20863D01*
X83544Y-20901D01*
X83474Y-20971D01*
X83436Y-21062D01*
X83436Y-21161D01*
X83435Y-21250D01*
X83497Y-21312D01*
X84135Y-21312D01*
X84135Y-21412D01*
X83497Y-21412D01*
X83435Y-21474D01*
X83436Y-21563D01*
X83436Y-21662D01*
X83474Y-21753D01*
X83544Y-21823D01*
X83636Y-21861D01*
X84073Y-21862D01*
X84135Y-21800D01*
X84135Y-21863D01*
X83636Y-21863D01*
X83544Y-21901D01*
X83474Y-21971D01*
X83440Y-22050D01*
X83383Y-22062D01*
X83277Y-22132D01*
X83207Y-22238D01*
X83182Y-22362D01*
X83182Y-22367D01*
X82795Y-22367D01*
X82795Y-16228D01*
X82795Y-15898D01*
X82669Y-15593D01*
X82436Y-15359D01*
X82131Y-15232D01*
X81801Y-15232D01*
X81496Y-15358D01*
X81262Y-15591D01*
X81135Y-15896D01*
X81135Y-16226D01*
X81261Y-16531D01*
X81494Y-16765D01*
X81799Y-16892D01*
X82129Y-16892D01*
X82434Y-16766D01*
X82668Y-16533D01*
X82795Y-16228D01*
X82795Y-22367D01*
X75188Y-22367D01*
X75188Y-22362D01*
X75163Y-22238D01*
X75093Y-22132D01*
X74987Y-22062D01*
X74935Y-22051D01*
X74935Y-21474D01*
X74935Y-21250D01*
X74934Y-21161D01*
X74934Y-21062D01*
X74896Y-20971D01*
X74826Y-20901D01*
X74734Y-20863D01*
X74297Y-20862D01*
X74235Y-20924D01*
X74235Y-21312D01*
X74873Y-21312D01*
X74935Y-21250D01*
X74935Y-21474D01*
X74873Y-21412D01*
X74235Y-21412D01*
X74235Y-21800D01*
X74297Y-21862D01*
X74734Y-21861D01*
X74826Y-21823D01*
X74896Y-21753D01*
X74934Y-21662D01*
X74934Y-21563D01*
X74935Y-21474D01*
X74935Y-22051D01*
X74928Y-22050D01*
X74896Y-21971D01*
X74826Y-21901D01*
X74735Y-21863D01*
X74636Y-21863D01*
X74135Y-21863D01*
X74135Y-21800D01*
X74135Y-21412D01*
X74135Y-21312D01*
X74135Y-20924D01*
X74073Y-20862D01*
X73636Y-20863D01*
X73544Y-20901D01*
X73474Y-20971D01*
X73436Y-21062D01*
X73436Y-21161D01*
X73435Y-21250D01*
X73497Y-21312D01*
X74135Y-21312D01*
X74135Y-21412D01*
X73497Y-21412D01*
X73435Y-21474D01*
X73436Y-21563D01*
X73436Y-21662D01*
X73474Y-21753D01*
X73544Y-21823D01*
X73636Y-21861D01*
X74073Y-21862D01*
X74135Y-21800D01*
X74135Y-21863D01*
X73636Y-21863D01*
X73544Y-21901D01*
X73474Y-21971D01*
X73446Y-22037D01*
X72795Y-22037D01*
X72795Y-16228D01*
X72795Y-15898D01*
X72669Y-15593D01*
X72436Y-15359D01*
X72131Y-15232D01*
X71801Y-15232D01*
X71496Y-15358D01*
X71262Y-15591D01*
X71135Y-15896D01*
X71135Y-16226D01*
X71261Y-16531D01*
X71494Y-16765D01*
X71799Y-16892D01*
X72129Y-16892D01*
X72434Y-16766D01*
X72668Y-16533D01*
X72795Y-16228D01*
X72795Y-22037D01*
X64935Y-22037D01*
X64935Y-21474D01*
X64935Y-21250D01*
X64934Y-21161D01*
X64934Y-21062D01*
X64896Y-20971D01*
X64826Y-20901D01*
X64734Y-20863D01*
X64297Y-20862D01*
X64235Y-20924D01*
X64235Y-21312D01*
X64873Y-21312D01*
X64935Y-21250D01*
X64935Y-21474D01*
X64873Y-21412D01*
X64235Y-21412D01*
X64235Y-21800D01*
X64297Y-21862D01*
X64734Y-21861D01*
X64826Y-21823D01*
X64896Y-21753D01*
X64934Y-21662D01*
X64934Y-21563D01*
X64935Y-21474D01*
X64935Y-22037D01*
X64923Y-22037D01*
X64896Y-21971D01*
X64826Y-21901D01*
X64735Y-21863D01*
X64636Y-21863D01*
X64135Y-21863D01*
X64135Y-21800D01*
X64135Y-21412D01*
X64135Y-21312D01*
X64135Y-20924D01*
X64073Y-20862D01*
X63636Y-20863D01*
X63544Y-20901D01*
X63474Y-20971D01*
X63436Y-21062D01*
X63436Y-21161D01*
X63435Y-21250D01*
X63497Y-21312D01*
X64135Y-21312D01*
X64135Y-21412D01*
X63497Y-21412D01*
X63435Y-21474D01*
X63436Y-21563D01*
X63436Y-21662D01*
X63474Y-21753D01*
X63544Y-21823D01*
X63636Y-21861D01*
X64073Y-21862D01*
X64135Y-21800D01*
X64135Y-21863D01*
X63636Y-21863D01*
X63544Y-21901D01*
X63474Y-21971D01*
X63446Y-22037D01*
X62795Y-22037D01*
X62795Y-16228D01*
X62795Y-15898D01*
X62669Y-15593D01*
X62436Y-15359D01*
X62131Y-15232D01*
X61801Y-15232D01*
X61496Y-15358D01*
X61262Y-15591D01*
X61135Y-15896D01*
X61135Y-16226D01*
X61261Y-16531D01*
X61494Y-16765D01*
X61799Y-16892D01*
X62129Y-16892D01*
X62434Y-16766D01*
X62668Y-16533D01*
X62795Y-16228D01*
X62795Y-22037D01*
X54935Y-22037D01*
X54935Y-21474D01*
X54935Y-21250D01*
X54934Y-21161D01*
X54934Y-21062D01*
X54896Y-20971D01*
X54826Y-20901D01*
X54734Y-20863D01*
X54297Y-20862D01*
X54235Y-20924D01*
X54235Y-21312D01*
X54873Y-21312D01*
X54935Y-21250D01*
X54935Y-21474D01*
X54873Y-21412D01*
X54235Y-21412D01*
X54235Y-21800D01*
X54297Y-21862D01*
X54734Y-21861D01*
X54826Y-21823D01*
X54896Y-21753D01*
X54934Y-21662D01*
X54934Y-21563D01*
X54935Y-21474D01*
X54935Y-22037D01*
X54923Y-22037D01*
X54896Y-21971D01*
X54826Y-21901D01*
X54735Y-21863D01*
X54636Y-21863D01*
X54135Y-21863D01*
X54135Y-21800D01*
X54135Y-21412D01*
X54135Y-21312D01*
X54135Y-20924D01*
X54073Y-20862D01*
X53636Y-20863D01*
X53544Y-20901D01*
X53474Y-20971D01*
X53436Y-21062D01*
X53436Y-21161D01*
X53435Y-21250D01*
X53497Y-21312D01*
X54135Y-21312D01*
X54135Y-21412D01*
X53497Y-21412D01*
X53435Y-21474D01*
X53436Y-21563D01*
X53436Y-21662D01*
X53474Y-21753D01*
X53544Y-21823D01*
X53636Y-21861D01*
X54073Y-21862D01*
X54135Y-21800D01*
X54135Y-21863D01*
X53636Y-21863D01*
X53544Y-21901D01*
X53474Y-21971D01*
X53436Y-22062D01*
X53436Y-22161D01*
X53436Y-22661D01*
X53474Y-22753D01*
X53544Y-22823D01*
X53635Y-22861D01*
X53734Y-22861D01*
X54199Y-22861D01*
X54199Y-22863D01*
X53636Y-22863D01*
X53544Y-22901D01*
X53474Y-22971D01*
X53436Y-23062D01*
X53436Y-23161D01*
X53436Y-23661D01*
X53474Y-23753D01*
X53544Y-23823D01*
X53635Y-23861D01*
X53734Y-23861D01*
X54539Y-23861D01*
X54539Y-23863D01*
X53636Y-23863D01*
X53544Y-23901D01*
X53474Y-23971D01*
X53440Y-24050D01*
X53383Y-24062D01*
X53277Y-24132D01*
X53275Y-24134D01*
X53024Y-24385D01*
X52954Y-24491D01*
X52929Y-24615D01*
X52929Y-30109D01*
X52954Y-30233D01*
X53024Y-30339D01*
X53275Y-30589D01*
X53277Y-30592D01*
X53382Y-30661D01*
X53383Y-30662D01*
X53441Y-30673D01*
X53474Y-30753D01*
X53544Y-30823D01*
X53635Y-30861D01*
X53734Y-30861D01*
X54538Y-30861D01*
X54538Y-30863D01*
X53636Y-30863D01*
X53544Y-30901D01*
X53474Y-30971D01*
X53446Y-31037D01*
X52795Y-31037D01*
X52795Y-16228D01*
X52795Y-15898D01*
X52669Y-15593D01*
X52436Y-15359D01*
X52131Y-15232D01*
X51801Y-15232D01*
X51496Y-15358D01*
X51262Y-15591D01*
X51135Y-15896D01*
X51135Y-16226D01*
X51261Y-16531D01*
X51494Y-16765D01*
X51799Y-16892D01*
X52129Y-16892D01*
X52434Y-16766D01*
X52668Y-16533D01*
X52795Y-16228D01*
X52795Y-31037D01*
X51154Y-31037D01*
X45850Y-25732D01*
X45850Y-25683D01*
X45786Y-25527D01*
X45666Y-25407D01*
X45510Y-25342D01*
X45341Y-25342D01*
X45185Y-25406D01*
X45065Y-25526D01*
X45000Y-25682D01*
X45000Y-25851D01*
X45064Y-26007D01*
X45184Y-26127D01*
X45340Y-26192D01*
X45390Y-26192D01*
X50788Y-31589D01*
X50790Y-31592D01*
X50895Y-31661D01*
X50896Y-31662D01*
X51020Y-31687D01*
X53446Y-31687D01*
X53474Y-31753D01*
X53544Y-31823D01*
X53635Y-31861D01*
X53734Y-31861D01*
X54538Y-31861D01*
X54538Y-31863D01*
X53636Y-31863D01*
X53544Y-31901D01*
X53474Y-31971D01*
X53436Y-32062D01*
X53436Y-32161D01*
X53436Y-32661D01*
X53474Y-32753D01*
X53544Y-32823D01*
X53635Y-32861D01*
X53734Y-32861D01*
X54734Y-32861D01*
X54826Y-32823D01*
X54896Y-32753D01*
X54929Y-32673D01*
X54987Y-32662D01*
X55093Y-32592D01*
X55163Y-32486D01*
X55188Y-32362D01*
X55188Y-26362D01*
X55163Y-26238D01*
X55093Y-26132D01*
X54987Y-26062D01*
X54935Y-26051D01*
X54935Y-25474D01*
X54873Y-25412D01*
X54235Y-25412D01*
X54235Y-25800D01*
X54297Y-25862D01*
X54734Y-25861D01*
X54826Y-25823D01*
X54896Y-25753D01*
X54934Y-25662D01*
X54934Y-25563D01*
X54935Y-25474D01*
X54935Y-26051D01*
X54928Y-26050D01*
X54896Y-25971D01*
X54826Y-25901D01*
X54735Y-25863D01*
X54636Y-25863D01*
X53832Y-25863D01*
X53832Y-25861D01*
X54073Y-25862D01*
X54135Y-25800D01*
X54135Y-25462D01*
X54135Y-25412D01*
X54135Y-25312D01*
X54235Y-25312D01*
X54285Y-25312D01*
X54873Y-25312D01*
X54935Y-25250D01*
X54934Y-25161D01*
X54934Y-25107D01*
X54945Y-25105D01*
X55051Y-25035D01*
X55091Y-24993D01*
X55093Y-24992D01*
X55094Y-24992D01*
X55163Y-24887D01*
X55164Y-24886D01*
X55183Y-24788D01*
X55189Y-24763D01*
X55188Y-24762D01*
X55189Y-24762D01*
X55189Y-23702D01*
X55188Y-23701D01*
X55189Y-23701D01*
X55183Y-23676D01*
X55164Y-23578D01*
X55163Y-23577D01*
X55094Y-23472D01*
X55091Y-23470D01*
X54934Y-23312D01*
X54934Y-23063D01*
X54896Y-22971D01*
X54849Y-22924D01*
X54849Y-22800D01*
X54896Y-22753D01*
X54923Y-22687D01*
X63446Y-22687D01*
X63474Y-22753D01*
X63544Y-22823D01*
X63635Y-22861D01*
X63734Y-22861D01*
X64538Y-22861D01*
X64538Y-22863D01*
X63636Y-22863D01*
X63544Y-22901D01*
X63474Y-22971D01*
X63436Y-23062D01*
X63436Y-23161D01*
X63436Y-23661D01*
X63474Y-23753D01*
X63544Y-23823D01*
X63635Y-23861D01*
X63734Y-23861D01*
X64539Y-23861D01*
X64539Y-23863D01*
X63636Y-23863D01*
X63544Y-23901D01*
X63474Y-23971D01*
X63440Y-24050D01*
X63383Y-24062D01*
X63277Y-24132D01*
X63275Y-24134D01*
X62771Y-24638D01*
X62701Y-24744D01*
X62676Y-24868D01*
X62676Y-29856D01*
X62701Y-29980D01*
X62771Y-30086D01*
X63275Y-30589D01*
X63277Y-30592D01*
X63382Y-30661D01*
X63383Y-30662D01*
X63441Y-30673D01*
X63474Y-30753D01*
X63544Y-30823D01*
X63635Y-30861D01*
X63734Y-30861D01*
X64538Y-30861D01*
X64538Y-30863D01*
X63636Y-30863D01*
X63544Y-30901D01*
X63474Y-30971D01*
X63446Y-31037D01*
X62418Y-31037D01*
X60170Y-28789D01*
X60170Y-28740D01*
X60106Y-28584D01*
X59986Y-28464D01*
X59830Y-28399D01*
X59661Y-28399D01*
X59505Y-28463D01*
X59385Y-28583D01*
X59320Y-28739D01*
X59320Y-28908D01*
X59384Y-29064D01*
X59504Y-29184D01*
X59660Y-29249D01*
X59710Y-29249D01*
X62053Y-31592D01*
X62158Y-31662D01*
X62159Y-31662D01*
X62283Y-31687D01*
X63446Y-31687D01*
X63474Y-31753D01*
X63544Y-31823D01*
X63635Y-31861D01*
X63734Y-31861D01*
X64538Y-31861D01*
X64538Y-31863D01*
X63636Y-31863D01*
X63544Y-31901D01*
X63474Y-31971D01*
X63436Y-32062D01*
X63436Y-32161D01*
X63436Y-32661D01*
X63474Y-32753D01*
X63544Y-32823D01*
X63635Y-32861D01*
X63734Y-32861D01*
X64734Y-32861D01*
X64826Y-32823D01*
X64896Y-32753D01*
X64929Y-32673D01*
X64987Y-32662D01*
X65093Y-32592D01*
X65163Y-32486D01*
X65188Y-32362D01*
X65188Y-26362D01*
X65163Y-26238D01*
X65093Y-26132D01*
X64987Y-26062D01*
X64935Y-26051D01*
X64935Y-25474D01*
X64873Y-25412D01*
X64235Y-25412D01*
X64235Y-25800D01*
X64297Y-25862D01*
X64734Y-25861D01*
X64826Y-25823D01*
X64896Y-25753D01*
X64934Y-25662D01*
X64934Y-25563D01*
X64935Y-25474D01*
X64935Y-26051D01*
X64928Y-26050D01*
X64896Y-25971D01*
X64826Y-25901D01*
X64735Y-25863D01*
X64636Y-25863D01*
X63832Y-25863D01*
X63832Y-25861D01*
X64073Y-25862D01*
X64135Y-25800D01*
X64135Y-25462D01*
X64135Y-25412D01*
X64135Y-25312D01*
X64235Y-25312D01*
X64285Y-25312D01*
X64873Y-25312D01*
X64935Y-25250D01*
X64934Y-25161D01*
X64934Y-25133D01*
X64947Y-25125D01*
X65091Y-24979D01*
X65093Y-24978D01*
X65094Y-24978D01*
X65163Y-24873D01*
X65164Y-24872D01*
X65183Y-24774D01*
X65189Y-24749D01*
X65188Y-24748D01*
X65189Y-24748D01*
X65189Y-23702D01*
X65188Y-23701D01*
X65189Y-23701D01*
X65183Y-23676D01*
X65164Y-23578D01*
X65163Y-23577D01*
X65094Y-23472D01*
X65091Y-23470D01*
X64983Y-23362D01*
X65093Y-23253D01*
X65163Y-23148D01*
X65163Y-23147D01*
X65188Y-23023D01*
X65188Y-22687D01*
X73446Y-22687D01*
X73474Y-22753D01*
X73544Y-22823D01*
X73635Y-22861D01*
X73734Y-22861D01*
X74538Y-22861D01*
X74538Y-22863D01*
X73636Y-22863D01*
X73544Y-22901D01*
X73474Y-22971D01*
X73436Y-23062D01*
X73436Y-23161D01*
X73436Y-23661D01*
X73474Y-23753D01*
X73544Y-23823D01*
X73635Y-23861D01*
X73734Y-23861D01*
X74538Y-23861D01*
X74538Y-23863D01*
X73636Y-23863D01*
X73544Y-23901D01*
X73474Y-23971D01*
X73440Y-24050D01*
X73383Y-24062D01*
X73277Y-24132D01*
X73275Y-24134D01*
X73024Y-24385D01*
X72954Y-24491D01*
X72929Y-24615D01*
X72929Y-30109D01*
X72954Y-30233D01*
X73024Y-30339D01*
X73275Y-30589D01*
X73277Y-30592D01*
X73382Y-30661D01*
X73383Y-30662D01*
X73441Y-30673D01*
X73474Y-30753D01*
X73544Y-30823D01*
X73635Y-30861D01*
X73734Y-30861D01*
X74538Y-30861D01*
X74538Y-30863D01*
X73636Y-30863D01*
X73544Y-30901D01*
X73474Y-30971D01*
X73436Y-31062D01*
X73436Y-31161D01*
X73436Y-31661D01*
X73474Y-31753D01*
X73544Y-31823D01*
X73635Y-31861D01*
X73734Y-31861D01*
X74538Y-31861D01*
X74538Y-31863D01*
X73636Y-31863D01*
X73544Y-31901D01*
X73474Y-31971D01*
X73436Y-32062D01*
X73436Y-32161D01*
X73436Y-32661D01*
X73474Y-32753D01*
X73544Y-32823D01*
X73635Y-32861D01*
X73734Y-32861D01*
X74734Y-32861D01*
X74826Y-32823D01*
X74896Y-32753D01*
X74929Y-32673D01*
X74987Y-32662D01*
X75093Y-32592D01*
X75163Y-32486D01*
X75188Y-32362D01*
X75188Y-26362D01*
X75163Y-26238D01*
X75093Y-26132D01*
X74987Y-26062D01*
X74935Y-26051D01*
X74935Y-25474D01*
X74873Y-25412D01*
X74235Y-25412D01*
X74235Y-25800D01*
X74297Y-25862D01*
X74734Y-25861D01*
X74826Y-25823D01*
X74896Y-25753D01*
X74934Y-25662D01*
X74934Y-25563D01*
X74935Y-25474D01*
X74935Y-26051D01*
X74928Y-26050D01*
X74896Y-25971D01*
X74826Y-25901D01*
X74735Y-25863D01*
X74636Y-25863D01*
X73832Y-25863D01*
X73832Y-25861D01*
X74073Y-25862D01*
X74135Y-25800D01*
X74135Y-25462D01*
X74135Y-25412D01*
X74135Y-25312D01*
X74235Y-25312D01*
X74285Y-25312D01*
X74873Y-25312D01*
X74935Y-25250D01*
X74934Y-25161D01*
X74934Y-25106D01*
X74945Y-25104D01*
X75051Y-25034D01*
X75093Y-24992D01*
X75163Y-24887D01*
X75163Y-24886D01*
X75188Y-24762D01*
X75188Y-23362D01*
X75163Y-23238D01*
X75133Y-23192D01*
X75163Y-23148D01*
X75163Y-23147D01*
X75188Y-23023D01*
X75188Y-23017D01*
X83182Y-23017D01*
X83182Y-23362D01*
X83182Y-29362D01*
X83207Y-29486D01*
X83277Y-29592D01*
X83383Y-29662D01*
X83441Y-29673D01*
X83474Y-29753D01*
X83544Y-29823D01*
X83635Y-29861D01*
X83734Y-29861D01*
X84538Y-29861D01*
X84538Y-29863D01*
X83636Y-29863D01*
X83544Y-29901D01*
X83474Y-29971D01*
X83436Y-30062D01*
X83436Y-30161D01*
X83436Y-30661D01*
X83474Y-30753D01*
X83544Y-30823D01*
X83635Y-30861D01*
X83734Y-30861D01*
X84538Y-30861D01*
X84538Y-30863D01*
X83636Y-30863D01*
X83544Y-30901D01*
X83474Y-30971D01*
X83436Y-31062D01*
X83436Y-31161D01*
X83436Y-31661D01*
X83474Y-31753D01*
X83544Y-31823D01*
X83635Y-31861D01*
X83734Y-31861D01*
X84538Y-31861D01*
X84538Y-31863D01*
X83636Y-31863D01*
X83544Y-31901D01*
X83474Y-31971D01*
X83436Y-32062D01*
X83436Y-32161D01*
X83436Y-32661D01*
X83474Y-32753D01*
X83544Y-32823D01*
X83635Y-32861D01*
X83734Y-32861D01*
X84734Y-32861D01*
X84826Y-32823D01*
X84896Y-32753D01*
X84929Y-32673D01*
X84987Y-32662D01*
X85093Y-32592D01*
X85163Y-32486D01*
X85188Y-32362D01*
X85188Y-33037D01*
X84923Y-33037D01*
X84896Y-32971D01*
X84826Y-32901D01*
X84735Y-32863D01*
X84636Y-32863D01*
X83636Y-32863D01*
X83544Y-32901D01*
X83474Y-32971D01*
X83446Y-33037D01*
X76770Y-33037D01*
X76718Y-32957D01*
X76612Y-32887D01*
X76488Y-32862D01*
X76462Y-32862D01*
X76451Y-32851D01*
X76360Y-32813D01*
X76261Y-32813D01*
X75811Y-32813D01*
X75719Y-32851D01*
X75649Y-32921D01*
X75611Y-33012D01*
X75611Y-33111D01*
X75611Y-33361D01*
X75649Y-33453D01*
X75683Y-33487D01*
X75649Y-33521D01*
X75611Y-33613D01*
X75610Y-33649D01*
X75093Y-33132D01*
X74987Y-33062D01*
X74928Y-33050D01*
X74896Y-32971D01*
X74826Y-32901D01*
X74735Y-32863D01*
X74636Y-32863D01*
X73636Y-32863D01*
X73544Y-32901D01*
X73474Y-32971D01*
X73446Y-33037D01*
X66770Y-33037D01*
X66718Y-32957D01*
X66612Y-32887D01*
X66488Y-32862D01*
X66462Y-32862D01*
X66451Y-32851D01*
X66360Y-32813D01*
X66261Y-32813D01*
X65811Y-32813D01*
X65719Y-32851D01*
X65649Y-32921D01*
X65611Y-33012D01*
X65611Y-33111D01*
X65611Y-33361D01*
X65649Y-33453D01*
X65683Y-33487D01*
X65649Y-33521D01*
X65611Y-33613D01*
X65610Y-33649D01*
X65093Y-33132D01*
X64987Y-33062D01*
X64928Y-33050D01*
X64896Y-32971D01*
X64826Y-32901D01*
X64735Y-32863D01*
X64636Y-32863D01*
X63636Y-32863D01*
X63544Y-32901D01*
X63474Y-32971D01*
X63446Y-33037D01*
X56770Y-33037D01*
X56718Y-32957D01*
X56612Y-32887D01*
X56488Y-32862D01*
X56462Y-32862D01*
X56451Y-32851D01*
X56360Y-32813D01*
X56261Y-32813D01*
X55811Y-32813D01*
X55719Y-32851D01*
X55649Y-32921D01*
X55611Y-33012D01*
X55611Y-33111D01*
X55611Y-33361D01*
X55649Y-33453D01*
X55683Y-33487D01*
X55649Y-33521D01*
X55611Y-33613D01*
X55610Y-33649D01*
X55093Y-33132D01*
X54987Y-33062D01*
X54928Y-33050D01*
X54896Y-32971D01*
X54826Y-32901D01*
X54735Y-32863D01*
X54636Y-32863D01*
X53636Y-32863D01*
X53544Y-32901D01*
X53474Y-32971D01*
X53446Y-33037D01*
X46770Y-33037D01*
X46718Y-32957D01*
X46612Y-32887D01*
X46488Y-32862D01*
X46462Y-32862D01*
X46451Y-32851D01*
X46360Y-32813D01*
X46261Y-32813D01*
X45811Y-32813D01*
X45719Y-32851D01*
X45649Y-32921D01*
X45611Y-33012D01*
X45611Y-33111D01*
X45611Y-33361D01*
X45649Y-33453D01*
X45683Y-33487D01*
X45649Y-33521D01*
X45611Y-33613D01*
X45610Y-33649D01*
X45188Y-33227D01*
X45188Y-32362D01*
X45188Y-26362D01*
X45163Y-26238D01*
X45093Y-26132D01*
X44987Y-26062D01*
X44935Y-26051D01*
X44935Y-25474D01*
X44873Y-25412D01*
X44235Y-25412D01*
X44235Y-25800D01*
X44297Y-25862D01*
X44734Y-25861D01*
X44826Y-25823D01*
X44896Y-25753D01*
X44934Y-25662D01*
X44934Y-25563D01*
X44935Y-25474D01*
X44935Y-26051D01*
X44928Y-26050D01*
X44896Y-25971D01*
X44826Y-25901D01*
X44735Y-25863D01*
X44636Y-25863D01*
X43832Y-25863D01*
X43832Y-25861D01*
X44073Y-25862D01*
X44135Y-25800D01*
X44135Y-25462D01*
X44135Y-25412D01*
X44135Y-25312D01*
X44235Y-25312D01*
X44285Y-25312D01*
X44873Y-25312D01*
X44935Y-25250D01*
X44934Y-25161D01*
X44934Y-25062D01*
X44932Y-25057D01*
X44989Y-25020D01*
X45093Y-24916D01*
X45163Y-24811D01*
X45163Y-24810D01*
X45188Y-24686D01*
X45188Y-23362D01*
X45188Y-22362D01*
X45163Y-22238D01*
X45093Y-22132D01*
X44987Y-22062D01*
X44935Y-22051D01*
X44935Y-21474D01*
X44935Y-21250D01*
X44934Y-21161D01*
X44934Y-21062D01*
X44896Y-20971D01*
X44826Y-20901D01*
X44734Y-20863D01*
X44297Y-20862D01*
X44235Y-20924D01*
X44235Y-21312D01*
X44873Y-21312D01*
X44935Y-21250D01*
X44935Y-21474D01*
X44873Y-21412D01*
X44235Y-21412D01*
X44235Y-21800D01*
X44297Y-21862D01*
X44734Y-21861D01*
X44826Y-21823D01*
X44896Y-21753D01*
X44934Y-21662D01*
X44934Y-21563D01*
X44935Y-21474D01*
X44935Y-22051D01*
X44928Y-22050D01*
X44896Y-21971D01*
X44826Y-21901D01*
X44735Y-21863D01*
X44636Y-21863D01*
X44135Y-21863D01*
X44135Y-21800D01*
X44135Y-21412D01*
X44135Y-21312D01*
X44135Y-20924D01*
X44073Y-20862D01*
X43636Y-20863D01*
X43544Y-20901D01*
X43474Y-20971D01*
X43436Y-21062D01*
X43436Y-21161D01*
X43435Y-21250D01*
X43497Y-21312D01*
X44135Y-21312D01*
X44135Y-21412D01*
X43497Y-21412D01*
X43435Y-21474D01*
X43436Y-21563D01*
X43436Y-21662D01*
X43474Y-21753D01*
X43544Y-21823D01*
X43636Y-21861D01*
X44073Y-21862D01*
X44135Y-21800D01*
X44135Y-21863D01*
X43636Y-21863D01*
X43544Y-21901D01*
X43474Y-21971D01*
X43436Y-22062D01*
X43436Y-22161D01*
X43436Y-22661D01*
X43474Y-22753D01*
X43544Y-22823D01*
X43635Y-22861D01*
X43734Y-22861D01*
X44538Y-22861D01*
X44538Y-22863D01*
X43636Y-22863D01*
X43544Y-22901D01*
X43474Y-22971D01*
X43436Y-23062D01*
X43436Y-23161D01*
X43436Y-23661D01*
X43474Y-23753D01*
X43544Y-23823D01*
X43635Y-23861D01*
X43734Y-23861D01*
X44538Y-23861D01*
X44538Y-23863D01*
X43636Y-23863D01*
X43544Y-23901D01*
X43474Y-23971D01*
X43440Y-24050D01*
X43383Y-24062D01*
X43277Y-24132D01*
X43275Y-24134D01*
X43024Y-24385D01*
X42954Y-24491D01*
X42929Y-24615D01*
X42929Y-30109D01*
X42954Y-30233D01*
X43024Y-30339D01*
X43275Y-30589D01*
X43277Y-30592D01*
X43382Y-30661D01*
X43383Y-30662D01*
X43441Y-30673D01*
X43474Y-30753D01*
X43544Y-30823D01*
X43635Y-30861D01*
X43734Y-30861D01*
X44538Y-30861D01*
X44538Y-30863D01*
X43636Y-30863D01*
X43544Y-30901D01*
X43474Y-30971D01*
X43446Y-31037D01*
X42795Y-31037D01*
X42795Y-16228D01*
X42795Y-15898D01*
X42669Y-15593D01*
X42436Y-15359D01*
X42131Y-15232D01*
X41801Y-15232D01*
X41496Y-15358D01*
X41262Y-15591D01*
X41135Y-15896D01*
X41135Y-16226D01*
X41261Y-16531D01*
X41494Y-16765D01*
X41799Y-16892D01*
X42129Y-16892D01*
X42434Y-16766D01*
X42668Y-16533D01*
X42795Y-16228D01*
X42795Y-31037D01*
X38677Y-31037D01*
X31197Y-23556D01*
X31197Y-23507D01*
X31133Y-23351D01*
X31013Y-23231D01*
X30857Y-23166D01*
X30688Y-23166D01*
X30532Y-23230D01*
X30412Y-23350D01*
X30347Y-23506D01*
X30347Y-23675D01*
X30411Y-23831D01*
X30531Y-23951D01*
X30687Y-24016D01*
X30737Y-24016D01*
X38311Y-31589D01*
X38313Y-31592D01*
X38418Y-31661D01*
X38419Y-31662D01*
X38517Y-31681D01*
X38542Y-31687D01*
X38542Y-31686D01*
X38543Y-31687D01*
X43446Y-31687D01*
X43474Y-31753D01*
X43544Y-31823D01*
X43635Y-31861D01*
X43734Y-31861D01*
X44538Y-31861D01*
X44538Y-31863D01*
X43636Y-31863D01*
X43544Y-31901D01*
X43474Y-31971D01*
X43436Y-32062D01*
X43436Y-32161D01*
X43436Y-32661D01*
X43474Y-32753D01*
X43544Y-32823D01*
X43635Y-32861D01*
X43734Y-32861D01*
X44734Y-32861D01*
X44826Y-32823D01*
X44896Y-32753D01*
X44929Y-32673D01*
X44987Y-32662D01*
X45093Y-32592D01*
X45163Y-32486D01*
X45188Y-32362D01*
X45188Y-33227D01*
X45093Y-33132D01*
X44987Y-33062D01*
X44928Y-33050D01*
X44896Y-32971D01*
X44826Y-32901D01*
X44735Y-32863D01*
X44636Y-32863D01*
X43636Y-32863D01*
X43544Y-32901D01*
X43474Y-32971D01*
X43436Y-33062D01*
X43436Y-33161D01*
X43436Y-33661D01*
X43474Y-33753D01*
X43544Y-33823D01*
X43635Y-33861D01*
X43734Y-33861D01*
X44734Y-33861D01*
X44826Y-33823D01*
X44845Y-33804D01*
X45389Y-34348D01*
X45494Y-34418D01*
X45495Y-34418D01*
X45619Y-34443D01*
X46455Y-34443D01*
X46579Y-34418D01*
X46685Y-34348D01*
X46715Y-34316D01*
X46717Y-34315D01*
X46718Y-34315D01*
X46787Y-34210D01*
X46788Y-34209D01*
X46813Y-34085D01*
X46813Y-33687D01*
X53446Y-33687D01*
X53474Y-33753D01*
X53544Y-33823D01*
X53635Y-33861D01*
X53734Y-33861D01*
X54734Y-33861D01*
X54826Y-33823D01*
X54845Y-33803D01*
X55663Y-34621D01*
X55665Y-34624D01*
X55770Y-34693D01*
X55771Y-34694D01*
X55895Y-34719D01*
X56080Y-34719D01*
X56204Y-34694D01*
X56310Y-34624D01*
X56717Y-34217D01*
X56717Y-34216D01*
X56718Y-34216D01*
X56787Y-34111D01*
X56788Y-34110D01*
X56807Y-34012D01*
X56813Y-33987D01*
X56812Y-33986D01*
X56813Y-33986D01*
X56813Y-33687D01*
X63446Y-33687D01*
X63474Y-33753D01*
X63544Y-33823D01*
X63635Y-33861D01*
X63734Y-33861D01*
X64734Y-33861D01*
X64826Y-33823D01*
X64845Y-33804D01*
X65389Y-34348D01*
X65494Y-34418D01*
X65495Y-34418D01*
X65619Y-34443D01*
X66455Y-34443D01*
X66579Y-34418D01*
X66685Y-34348D01*
X66715Y-34316D01*
X66717Y-34315D01*
X66718Y-34315D01*
X66787Y-34210D01*
X66788Y-34209D01*
X66813Y-34085D01*
X66813Y-33687D01*
X73446Y-33687D01*
X73474Y-33753D01*
X73544Y-33823D01*
X73635Y-33861D01*
X73734Y-33861D01*
X74734Y-33861D01*
X74826Y-33823D01*
X74845Y-33804D01*
X75389Y-34348D01*
X75494Y-34418D01*
X75495Y-34418D01*
X75619Y-34443D01*
X76455Y-34443D01*
X76579Y-34418D01*
X76685Y-34348D01*
X76715Y-34316D01*
X76717Y-34315D01*
X76718Y-34315D01*
X76787Y-34210D01*
X76788Y-34209D01*
X76813Y-34085D01*
X76813Y-33687D01*
X83446Y-33687D01*
X83474Y-33753D01*
X83544Y-33823D01*
X83635Y-33861D01*
X83734Y-33861D01*
X84734Y-33861D01*
X84826Y-33823D01*
X84896Y-33753D01*
X84923Y-33687D01*
X85507Y-33687D01*
X85610Y-33666D01*
X85610Y-33675D01*
X85672Y-33737D01*
X85985Y-33737D01*
X86035Y-33737D01*
X86135Y-33737D01*
X86185Y-33737D01*
X86498Y-33737D01*
X86560Y-33675D01*
X86560Y-33899D01*
X86498Y-33837D01*
X86135Y-33837D01*
X86135Y-34100D01*
X86197Y-34162D01*
X86261Y-34161D01*
X86360Y-34161D01*
X86451Y-34123D01*
X86521Y-34053D01*
X86559Y-33961D01*
X86560Y-33899D01*
X86560Y-42392D01*
X86035Y-42392D01*
X86035Y-34100D01*
X86035Y-33837D01*
X85672Y-33837D01*
X85610Y-33899D01*
X85611Y-33961D01*
X85649Y-34053D01*
X85719Y-34123D01*
X85810Y-34161D01*
X85909Y-34161D01*
X85973Y-34162D01*
X86035Y-34100D01*
X86035Y-42392D01*
X82795Y-42392D01*
X82795Y-38828D01*
X82795Y-38498D01*
X82669Y-38193D01*
X82436Y-37959D01*
X82131Y-37832D01*
X81801Y-37832D01*
X81496Y-37958D01*
X81262Y-38191D01*
X81135Y-38496D01*
X81135Y-38826D01*
X81261Y-39131D01*
X81494Y-39365D01*
X81799Y-39492D01*
X82129Y-39492D01*
X82434Y-39366D01*
X82668Y-39133D01*
X82795Y-38828D01*
X82795Y-42392D01*
X77809Y-42392D01*
X77964Y-42238D01*
X78104Y-41901D01*
X78104Y-41535D01*
X77964Y-41197D01*
X77706Y-40938D01*
X77369Y-40798D01*
X77003Y-40798D01*
X76665Y-40938D01*
X76406Y-41196D01*
X76266Y-41533D01*
X76266Y-41899D01*
X76406Y-42237D01*
X76560Y-42392D01*
X72795Y-42392D01*
X72795Y-38828D01*
X72795Y-38498D01*
X72669Y-38193D01*
X72436Y-37959D01*
X72131Y-37832D01*
X71801Y-37832D01*
X71496Y-37958D01*
X71262Y-38191D01*
X71135Y-38496D01*
X71135Y-38826D01*
X71261Y-39131D01*
X71494Y-39365D01*
X71799Y-39492D01*
X72129Y-39492D01*
X72434Y-39366D01*
X72668Y-39133D01*
X72795Y-38828D01*
X72795Y-42392D01*
X62795Y-42392D01*
X62795Y-38828D01*
X62795Y-38498D01*
X62669Y-38193D01*
X62436Y-37959D01*
X62131Y-37832D01*
X61801Y-37832D01*
X61496Y-37958D01*
X61262Y-38191D01*
X61135Y-38496D01*
X61135Y-38826D01*
X61261Y-39131D01*
X61494Y-39365D01*
X61799Y-39492D01*
X62129Y-39492D01*
X62434Y-39366D01*
X62668Y-39133D01*
X62795Y-38828D01*
X62795Y-42392D01*
X57809Y-42392D01*
X57964Y-42238D01*
X58104Y-41901D01*
X58104Y-41535D01*
X57964Y-41197D01*
X57706Y-40938D01*
X57369Y-40798D01*
X57003Y-40798D01*
X56665Y-40938D01*
X56406Y-41196D01*
X56266Y-41533D01*
X56266Y-41899D01*
X56406Y-42237D01*
X56560Y-42392D01*
X52795Y-42392D01*
X52795Y-38828D01*
X52795Y-38498D01*
X52669Y-38193D01*
X52436Y-37959D01*
X52131Y-37832D01*
X51801Y-37832D01*
X51496Y-37958D01*
X51262Y-38191D01*
X51135Y-38496D01*
X51135Y-38826D01*
X51261Y-39131D01*
X51494Y-39365D01*
X51799Y-39492D01*
X52129Y-39492D01*
X52434Y-39366D01*
X52668Y-39133D01*
X52795Y-38828D01*
X52795Y-42392D01*
X42795Y-42392D01*
X42795Y-38828D01*
X42795Y-38498D01*
X42669Y-38193D01*
X42436Y-37959D01*
X42131Y-37832D01*
X41801Y-37832D01*
X41496Y-37958D01*
X41262Y-38191D01*
X41135Y-38496D01*
X41135Y-38826D01*
X41261Y-39131D01*
X41494Y-39365D01*
X41799Y-39492D01*
X42129Y-39492D01*
X42434Y-39366D01*
X42668Y-39133D01*
X42795Y-38828D01*
X42795Y-42392D01*
X37858Y-42392D01*
X38013Y-42238D01*
X38153Y-41901D01*
X38153Y-41535D01*
X38013Y-41197D01*
X37755Y-40938D01*
X37418Y-40798D01*
X37052Y-40798D01*
X36714Y-40938D01*
X36455Y-41196D01*
X36315Y-41533D01*
X36315Y-41899D01*
X36455Y-42237D01*
X36609Y-42392D01*
X25247Y-42392D01*
X25247Y-17943D01*
X25247Y-17766D01*
X25247Y-15975D01*
X25247Y-15798D01*
X25180Y-15635D01*
X25055Y-15510D01*
X24892Y-15442D01*
X24715Y-15442D01*
X24552Y-15509D01*
X24427Y-15634D01*
X24359Y-15797D01*
X24359Y-15974D01*
X24426Y-16137D01*
X24551Y-16262D01*
X24714Y-16330D01*
X24891Y-16330D01*
X25054Y-16263D01*
X25179Y-16138D01*
X25247Y-15975D01*
X25247Y-17766D01*
X25180Y-17603D01*
X25055Y-17478D01*
X24892Y-17410D01*
X24715Y-17410D01*
X24552Y-17477D01*
X24427Y-17602D01*
X24359Y-17765D01*
X24359Y-17942D01*
X24426Y-18105D01*
X24551Y-18230D01*
X24714Y-18298D01*
X24891Y-18298D01*
X25054Y-18231D01*
X25179Y-18106D01*
X25247Y-17943D01*
X25247Y-42392D01*
X24171Y-42392D01*
X24171Y-28606D01*
X24171Y-28507D01*
X24171Y-27907D01*
X24133Y-27815D01*
X24063Y-27745D01*
X23972Y-27707D01*
X23947Y-27707D01*
X24087Y-27567D01*
X24171Y-27365D01*
X24171Y-27147D01*
X24087Y-26945D01*
X23933Y-26791D01*
X23731Y-26707D01*
X23513Y-26707D01*
X23311Y-26791D01*
X23157Y-26945D01*
X23073Y-27147D01*
X23073Y-27365D01*
X23157Y-27567D01*
X23297Y-27707D01*
X23273Y-27707D01*
X23181Y-27745D01*
X23111Y-27815D01*
X23073Y-27906D01*
X23073Y-28005D01*
X23073Y-28605D01*
X23111Y-28697D01*
X23181Y-28767D01*
X23272Y-28805D01*
X23371Y-28805D01*
X23971Y-28805D01*
X24063Y-28767D01*
X24133Y-28697D01*
X24171Y-28606D01*
X24171Y-42392D01*
X20010Y-42392D01*
X20010Y-38994D01*
X20164Y-39149D01*
X20501Y-39289D01*
X20867Y-39289D01*
X21205Y-39149D01*
X21464Y-38891D01*
X21604Y-38554D01*
X21604Y-38188D01*
X21464Y-37850D01*
X21206Y-37591D01*
X20869Y-37451D01*
X20503Y-37451D01*
X20165Y-37591D01*
X20010Y-37745D01*
X20010Y-16978D01*
X20164Y-17133D01*
X20501Y-17273D01*
X20867Y-17273D01*
X21205Y-17133D01*
X21464Y-16875D01*
X21604Y-16538D01*
X21604Y-16172D01*
X21464Y-15834D01*
X21206Y-15575D01*
X20869Y-15435D01*
X20503Y-15435D01*
X20165Y-15575D01*
X20010Y-15729D01*
X20010Y-12333D01*
X36609Y-12333D01*
X36455Y-12487D01*
X36315Y-12824D01*
X36315Y-13190D01*
X36455Y-13528D01*
X36713Y-13787D01*
X37050Y-13927D01*
X37416Y-13927D01*
X37754Y-13787D01*
X38013Y-13529D01*
X38153Y-13192D01*
X38153Y-12826D01*
X38013Y-12488D01*
X37858Y-12333D01*
X56560Y-12333D01*
X56406Y-12487D01*
X56266Y-12824D01*
X56266Y-13190D01*
X56406Y-13528D01*
X56664Y-13787D01*
X57001Y-13927D01*
X57367Y-13927D01*
X57705Y-13787D01*
X57964Y-13529D01*
X58104Y-13192D01*
X58104Y-12826D01*
X57964Y-12488D01*
X57809Y-12333D01*
X76560Y-12333D01*
X76406Y-12487D01*
X76266Y-12824D01*
X76266Y-13190D01*
X76406Y-13528D01*
X76664Y-13787D01*
X77001Y-13927D01*
X77367Y-13927D01*
X77705Y-13787D01*
X77964Y-13529D01*
X78104Y-13192D01*
X78104Y-12826D01*
X77964Y-12488D01*
X77809Y-12333D01*
X89360Y-12333D01*
X89360Y-15729D01*
X89206Y-15575D01*
X88869Y-15435D01*
X88503Y-15435D01*
X88165Y-15575D01*
X87906Y-15833D01*
X87766Y-16170D01*
X87766Y-16536D01*
X87906Y-16874D01*
X88164Y-17133D01*
X88501Y-17273D01*
X88867Y-17273D01*
X89205Y-17133D01*
X89360Y-16978D01*
X89360Y-37745D01*
X89206Y-37591D01*
X88869Y-37451D01*
X88503Y-37451D01*
X88165Y-37591D01*
X87906Y-37849D01*
X87766Y-38186D01*
X87766Y-38552D01*
X87906Y-38890D01*
X88164Y-39149D01*
X88501Y-39289D01*
X88867Y-39289D01*
X89205Y-39149D01*
X89360Y-38994D01*
X89360Y-42392D01*
X89360Y-42392D01*
G37*
G54D20*
X89360Y-42392D02*
X86560Y-42392D01*
X86560Y-33899D01*
X86560Y-33675D01*
X86559Y-33613D01*
X86521Y-33521D01*
X86487Y-33487D01*
X86521Y-33453D01*
X86559Y-33362D01*
X86559Y-33263D01*
X86559Y-33013D01*
X86521Y-32921D01*
X86451Y-32851D01*
X86360Y-32813D01*
X86261Y-32813D01*
X85811Y-32813D01*
X85719Y-32851D01*
X85708Y-32862D01*
X85682Y-32862D01*
X85558Y-32887D01*
X85452Y-32957D01*
X85450Y-32959D01*
X85372Y-33037D01*
X85188Y-33037D01*
X85188Y-32362D01*
X85188Y-26362D01*
X85163Y-26238D01*
X85093Y-26132D01*
X84987Y-26062D01*
X84935Y-26051D01*
X84935Y-25474D01*
X84935Y-25250D01*
X84935Y-21474D01*
X84935Y-21250D01*
X84934Y-21161D01*
X84934Y-21062D01*
X84896Y-20971D01*
X84826Y-20901D01*
X84734Y-20863D01*
X84297Y-20862D01*
X84235Y-20924D01*
X84235Y-21312D01*
X84873Y-21312D01*
X84935Y-21250D01*
X84935Y-21474D01*
X84873Y-21412D01*
X84235Y-21412D01*
X84235Y-21800D01*
X84297Y-21862D01*
X84734Y-21861D01*
X84826Y-21823D01*
X84896Y-21753D01*
X84934Y-21662D01*
X84934Y-21563D01*
X84935Y-21474D01*
X84935Y-25250D01*
X84934Y-25161D01*
X84934Y-25062D01*
X84896Y-24971D01*
X84826Y-24901D01*
X84734Y-24863D01*
X84297Y-24862D01*
X84235Y-24924D01*
X84235Y-25312D01*
X84873Y-25312D01*
X84935Y-25250D01*
X84935Y-25474D01*
X84873Y-25412D01*
X84235Y-25412D01*
X84235Y-25800D01*
X84297Y-25862D01*
X84734Y-25861D01*
X84826Y-25823D01*
X84896Y-25753D01*
X84934Y-25662D01*
X84934Y-25563D01*
X84935Y-25474D01*
X84935Y-26051D01*
X84928Y-26050D01*
X84896Y-25971D01*
X84826Y-25901D01*
X84735Y-25863D01*
X84636Y-25863D01*
X83832Y-25863D01*
X83832Y-25861D01*
X84073Y-25862D01*
X84135Y-25800D01*
X84135Y-25462D01*
X84135Y-25412D01*
X84135Y-25312D01*
X84135Y-25262D01*
X84135Y-24924D01*
X84073Y-24862D01*
X83832Y-24862D01*
X83832Y-24861D01*
X84734Y-24861D01*
X84826Y-24823D01*
X84896Y-24753D01*
X84934Y-24662D01*
X84934Y-24563D01*
X84934Y-24063D01*
X84896Y-23971D01*
X84826Y-23901D01*
X84735Y-23863D01*
X84636Y-23863D01*
X83832Y-23863D01*
X83832Y-23861D01*
X84734Y-23861D01*
X84826Y-23823D01*
X84896Y-23753D01*
X84934Y-23662D01*
X84934Y-23563D01*
X84934Y-23063D01*
X84896Y-22971D01*
X84826Y-22901D01*
X84735Y-22863D01*
X84636Y-22863D01*
X83832Y-22863D01*
X83832Y-22861D01*
X84734Y-22861D01*
X84826Y-22823D01*
X84896Y-22753D01*
X84934Y-22662D01*
X84934Y-22563D01*
X84934Y-22063D01*
X84896Y-21971D01*
X84826Y-21901D01*
X84735Y-21863D01*
X84636Y-21863D01*
X84135Y-21863D01*
X84135Y-21800D01*
X84135Y-21412D01*
X84135Y-21312D01*
X84135Y-20924D01*
X84073Y-20862D01*
X83636Y-20863D01*
X83544Y-20901D01*
X83474Y-20971D01*
X83436Y-21062D01*
X83436Y-21161D01*
X83435Y-21250D01*
X83497Y-21312D01*
X84135Y-21312D01*
X84135Y-21412D01*
X83497Y-21412D01*
X83435Y-21474D01*
X83436Y-21563D01*
X83436Y-21662D01*
X83474Y-21753D01*
X83544Y-21823D01*
X83636Y-21861D01*
X84073Y-21862D01*
X84135Y-21800D01*
X84135Y-21863D01*
X83636Y-21863D01*
X83544Y-21901D01*
X83474Y-21971D01*
X83440Y-22050D01*
X83383Y-22062D01*
X83277Y-22132D01*
X83207Y-22238D01*
X83182Y-22362D01*
X83182Y-22367D01*
X82795Y-22367D01*
X82795Y-16228D01*
X82795Y-15898D01*
X82669Y-15593D01*
X82436Y-15359D01*
X82131Y-15232D01*
X81801Y-15232D01*
X81496Y-15358D01*
X81262Y-15591D01*
X81135Y-15896D01*
X81135Y-16226D01*
X81261Y-16531D01*
X81494Y-16765D01*
X81799Y-16892D01*
X82129Y-16892D01*
X82434Y-16766D01*
X82668Y-16533D01*
X82795Y-16228D01*
X82795Y-22367D01*
X75188Y-22367D01*
X75188Y-22362D01*
X75163Y-22238D01*
X75093Y-22132D01*
X74987Y-22062D01*
X74935Y-22051D01*
X74935Y-21474D01*
X74935Y-21250D01*
X74934Y-21161D01*
X74934Y-21062D01*
X74896Y-20971D01*
X74826Y-20901D01*
X74734Y-20863D01*
X74297Y-20862D01*
X74235Y-20924D01*
X74235Y-21312D01*
X74873Y-21312D01*
X74935Y-21250D01*
X74935Y-21474D01*
X74873Y-21412D01*
X74235Y-21412D01*
X74235Y-21800D01*
X74297Y-21862D01*
X74734Y-21861D01*
X74826Y-21823D01*
X74896Y-21753D01*
X74934Y-21662D01*
X74934Y-21563D01*
X74935Y-21474D01*
X74935Y-22051D01*
X74928Y-22050D01*
X74896Y-21971D01*
X74826Y-21901D01*
X74735Y-21863D01*
X74636Y-21863D01*
X74135Y-21863D01*
X74135Y-21800D01*
X74135Y-21412D01*
X74135Y-21312D01*
X74135Y-20924D01*
X74073Y-20862D01*
X73636Y-20863D01*
X73544Y-20901D01*
X73474Y-20971D01*
X73436Y-21062D01*
X73436Y-21161D01*
X73435Y-21250D01*
X73497Y-21312D01*
X74135Y-21312D01*
X74135Y-21412D01*
X73497Y-21412D01*
X73435Y-21474D01*
X73436Y-21563D01*
X73436Y-21662D01*
X73474Y-21753D01*
X73544Y-21823D01*
X73636Y-21861D01*
X74073Y-21862D01*
X74135Y-21800D01*
X74135Y-21863D01*
X73636Y-21863D01*
X73544Y-21901D01*
X73474Y-21971D01*
X73446Y-22037D01*
X72795Y-22037D01*
X72795Y-16228D01*
X72795Y-15898D01*
X72669Y-15593D01*
X72436Y-15359D01*
X72131Y-15232D01*
X71801Y-15232D01*
X71496Y-15358D01*
X71262Y-15591D01*
X71135Y-15896D01*
X71135Y-16226D01*
X71261Y-16531D01*
X71494Y-16765D01*
X71799Y-16892D01*
X72129Y-16892D01*
X72434Y-16766D01*
X72668Y-16533D01*
X72795Y-16228D01*
X72795Y-22037D01*
X64935Y-22037D01*
X64935Y-21474D01*
X64935Y-21250D01*
X64934Y-21161D01*
X64934Y-21062D01*
X64896Y-20971D01*
X64826Y-20901D01*
X64734Y-20863D01*
X64297Y-20862D01*
X64235Y-20924D01*
X64235Y-21312D01*
X64873Y-21312D01*
X64935Y-21250D01*
X64935Y-21474D01*
X64873Y-21412D01*
X64235Y-21412D01*
X64235Y-21800D01*
X64297Y-21862D01*
X64734Y-21861D01*
X64826Y-21823D01*
X64896Y-21753D01*
X64934Y-21662D01*
X64934Y-21563D01*
X64935Y-21474D01*
X64935Y-22037D01*
X64923Y-22037D01*
X64896Y-21971D01*
X64826Y-21901D01*
X64735Y-21863D01*
X64636Y-21863D01*
X64135Y-21863D01*
X64135Y-21800D01*
X64135Y-21412D01*
X64135Y-21312D01*
X64135Y-20924D01*
X64073Y-20862D01*
X63636Y-20863D01*
X63544Y-20901D01*
X63474Y-20971D01*
X63436Y-21062D01*
X63436Y-21161D01*
X63435Y-21250D01*
X63497Y-21312D01*
X64135Y-21312D01*
X64135Y-21412D01*
X63497Y-21412D01*
X63435Y-21474D01*
X63436Y-21563D01*
X63436Y-21662D01*
X63474Y-21753D01*
X63544Y-21823D01*
X63636Y-21861D01*
X64073Y-21862D01*
X64135Y-21800D01*
X64135Y-21863D01*
X63636Y-21863D01*
X63544Y-21901D01*
X63474Y-21971D01*
X63446Y-22037D01*
X62795Y-22037D01*
X62795Y-16228D01*
X62795Y-15898D01*
X62669Y-15593D01*
X62436Y-15359D01*
X62131Y-15232D01*
X61801Y-15232D01*
X61496Y-15358D01*
X61262Y-15591D01*
X61135Y-15896D01*
X61135Y-16226D01*
X61261Y-16531D01*
X61494Y-16765D01*
X61799Y-16892D01*
X62129Y-16892D01*
X62434Y-16766D01*
X62668Y-16533D01*
X62795Y-16228D01*
X62795Y-22037D01*
X54935Y-22037D01*
X54935Y-21474D01*
X54935Y-21250D01*
X54934Y-21161D01*
X54934Y-21062D01*
X54896Y-20971D01*
X54826Y-20901D01*
X54734Y-20863D01*
X54297Y-20862D01*
X54235Y-20924D01*
X54235Y-21312D01*
X54873Y-21312D01*
X54935Y-21250D01*
X54935Y-21474D01*
X54873Y-21412D01*
X54235Y-21412D01*
X54235Y-21800D01*
X54297Y-21862D01*
X54734Y-21861D01*
X54826Y-21823D01*
X54896Y-21753D01*
X54934Y-21662D01*
X54934Y-21563D01*
X54935Y-21474D01*
X54935Y-22037D01*
X54923Y-22037D01*
X54896Y-21971D01*
X54826Y-21901D01*
X54735Y-21863D01*
X54636Y-21863D01*
X54135Y-21863D01*
X54135Y-21800D01*
X54135Y-21412D01*
X54135Y-21312D01*
X54135Y-20924D01*
X54073Y-20862D01*
X53636Y-20863D01*
X53544Y-20901D01*
X53474Y-20971D01*
X53436Y-21062D01*
X53436Y-21161D01*
X53435Y-21250D01*
X53497Y-21312D01*
X54135Y-21312D01*
X54135Y-21412D01*
X53497Y-21412D01*
X53435Y-21474D01*
X53436Y-21563D01*
X53436Y-21662D01*
X53474Y-21753D01*
X53544Y-21823D01*
X53636Y-21861D01*
X54073Y-21862D01*
X54135Y-21800D01*
X54135Y-21863D01*
X53636Y-21863D01*
X53544Y-21901D01*
X53474Y-21971D01*
X53436Y-22062D01*
X53436Y-22161D01*
X53436Y-22661D01*
X53474Y-22753D01*
X53544Y-22823D01*
X53635Y-22861D01*
X53734Y-22861D01*
X54199Y-22861D01*
X54199Y-22863D01*
X53636Y-22863D01*
X53544Y-22901D01*
X53474Y-22971D01*
X53436Y-23062D01*
X53436Y-23161D01*
X53436Y-23661D01*
X53474Y-23753D01*
X53544Y-23823D01*
X53635Y-23861D01*
X53734Y-23861D01*
X54539Y-23861D01*
X54539Y-23863D01*
X53636Y-23863D01*
X53544Y-23901D01*
X53474Y-23971D01*
X53440Y-24050D01*
X53383Y-24062D01*
X53277Y-24132D01*
X53275Y-24134D01*
X53024Y-24385D01*
X52954Y-24491D01*
X52929Y-24615D01*
X52929Y-30109D01*
X52954Y-30233D01*
X53024Y-30339D01*
X53275Y-30589D01*
X53277Y-30592D01*
X53382Y-30661D01*
X53383Y-30662D01*
X53441Y-30673D01*
X53474Y-30753D01*
X53544Y-30823D01*
X53635Y-30861D01*
X53734Y-30861D01*
X54538Y-30861D01*
X54538Y-30863D01*
X53636Y-30863D01*
X53544Y-30901D01*
X53474Y-30971D01*
X53446Y-31037D01*
X52795Y-31037D01*
X52795Y-16228D01*
X52795Y-15898D01*
X52669Y-15593D01*
X52436Y-15359D01*
X52131Y-15232D01*
X51801Y-15232D01*
X51496Y-15358D01*
X51262Y-15591D01*
X51135Y-15896D01*
X51135Y-16226D01*
X51261Y-16531D01*
X51494Y-16765D01*
X51799Y-16892D01*
X52129Y-16892D01*
X52434Y-16766D01*
X52668Y-16533D01*
X52795Y-16228D01*
X52795Y-31037D01*
X51154Y-31037D01*
X45850Y-25732D01*
X45850Y-25683D01*
X45786Y-25527D01*
X45666Y-25407D01*
X45510Y-25342D01*
X45341Y-25342D01*
X45185Y-25406D01*
X45065Y-25526D01*
X45000Y-25682D01*
X45000Y-25851D01*
X45064Y-26007D01*
X45184Y-26127D01*
X45340Y-26192D01*
X45390Y-26192D01*
X50788Y-31589D01*
X50790Y-31592D01*
X50895Y-31661D01*
X50896Y-31662D01*
X51020Y-31687D01*
X53446Y-31687D01*
X53474Y-31753D01*
X53544Y-31823D01*
X53635Y-31861D01*
X53734Y-31861D01*
X54538Y-31861D01*
X54538Y-31863D01*
X53636Y-31863D01*
X53544Y-31901D01*
X53474Y-31971D01*
X53436Y-32062D01*
X53436Y-32161D01*
X53436Y-32661D01*
X53474Y-32753D01*
X53544Y-32823D01*
X53635Y-32861D01*
X53734Y-32861D01*
X54734Y-32861D01*
X54826Y-32823D01*
X54896Y-32753D01*
X54929Y-32673D01*
X54987Y-32662D01*
X55093Y-32592D01*
X55163Y-32486D01*
X55188Y-32362D01*
X55188Y-26362D01*
X55163Y-26238D01*
X55093Y-26132D01*
X54987Y-26062D01*
X54935Y-26051D01*
X54935Y-25474D01*
X54873Y-25412D01*
X54235Y-25412D01*
X54235Y-25800D01*
X54297Y-25862D01*
X54734Y-25861D01*
X54826Y-25823D01*
X54896Y-25753D01*
X54934Y-25662D01*
X54934Y-25563D01*
X54935Y-25474D01*
X54935Y-26051D01*
X54928Y-26050D01*
X54896Y-25971D01*
X54826Y-25901D01*
X54735Y-25863D01*
X54636Y-25863D01*
X53832Y-25863D01*
X53832Y-25861D01*
X54073Y-25862D01*
X54135Y-25800D01*
X54135Y-25462D01*
X54135Y-25412D01*
X54135Y-25312D01*
X54235Y-25312D01*
X54285Y-25312D01*
X54873Y-25312D01*
X54935Y-25250D01*
X54934Y-25161D01*
X54934Y-25107D01*
X54945Y-25105D01*
X55051Y-25035D01*
X55091Y-24993D01*
X55093Y-24992D01*
X55094Y-24992D01*
X55163Y-24887D01*
X55164Y-24886D01*
X55183Y-24788D01*
X55189Y-24763D01*
X55188Y-24762D01*
X55189Y-24762D01*
X55189Y-23702D01*
X55188Y-23701D01*
X55189Y-23701D01*
X55183Y-23676D01*
X55164Y-23578D01*
X55163Y-23577D01*
X55094Y-23472D01*
X55091Y-23470D01*
X54934Y-23312D01*
X54934Y-23063D01*
X54896Y-22971D01*
X54849Y-22924D01*
X54849Y-22800D01*
X54896Y-22753D01*
X54923Y-22687D01*
X63446Y-22687D01*
X63474Y-22753D01*
X63544Y-22823D01*
X63635Y-22861D01*
X63734Y-22861D01*
X64538Y-22861D01*
X64538Y-22863D01*
X63636Y-22863D01*
X63544Y-22901D01*
X63474Y-22971D01*
X63436Y-23062D01*
X63436Y-23161D01*
X63436Y-23661D01*
X63474Y-23753D01*
X63544Y-23823D01*
X63635Y-23861D01*
X63734Y-23861D01*
X64539Y-23861D01*
X64539Y-23863D01*
X63636Y-23863D01*
X63544Y-23901D01*
X63474Y-23971D01*
X63440Y-24050D01*
X63383Y-24062D01*
X63277Y-24132D01*
X63275Y-24134D01*
X62771Y-24638D01*
X62701Y-24744D01*
X62676Y-24868D01*
X62676Y-29856D01*
X62701Y-29980D01*
X62771Y-30086D01*
X63275Y-30589D01*
X63277Y-30592D01*
X63382Y-30661D01*
X63383Y-30662D01*
X63441Y-30673D01*
X63474Y-30753D01*
X63544Y-30823D01*
X63635Y-30861D01*
X63734Y-30861D01*
X64538Y-30861D01*
X64538Y-30863D01*
X63636Y-30863D01*
X63544Y-30901D01*
X63474Y-30971D01*
X63446Y-31037D01*
X62418Y-31037D01*
X60170Y-28789D01*
X60170Y-28740D01*
X60106Y-28584D01*
X59986Y-28464D01*
X59830Y-28399D01*
X59661Y-28399D01*
X59505Y-28463D01*
X59385Y-28583D01*
X59320Y-28739D01*
X59320Y-28908D01*
X59384Y-29064D01*
X59504Y-29184D01*
X59660Y-29249D01*
X59710Y-29249D01*
X62053Y-31592D01*
X62158Y-31662D01*
X62159Y-31662D01*
X62283Y-31687D01*
X63446Y-31687D01*
X63474Y-31753D01*
X63544Y-31823D01*
X63635Y-31861D01*
X63734Y-31861D01*
X64538Y-31861D01*
X64538Y-31863D01*
X63636Y-31863D01*
X63544Y-31901D01*
X63474Y-31971D01*
X63436Y-32062D01*
X63436Y-32161D01*
X63436Y-32661D01*
X63474Y-32753D01*
X63544Y-32823D01*
X63635Y-32861D01*
X63734Y-32861D01*
X64734Y-32861D01*
X64826Y-32823D01*
X64896Y-32753D01*
X64929Y-32673D01*
X64987Y-32662D01*
X65093Y-32592D01*
X65163Y-32486D01*
X65188Y-32362D01*
X65188Y-26362D01*
X65163Y-26238D01*
X65093Y-26132D01*
X64987Y-26062D01*
X64935Y-26051D01*
X64935Y-25474D01*
X64873Y-25412D01*
X64235Y-25412D01*
X64235Y-25800D01*
X64297Y-25862D01*
X64734Y-25861D01*
X64826Y-25823D01*
X64896Y-25753D01*
X64934Y-25662D01*
X64934Y-25563D01*
X64935Y-25474D01*
X64935Y-26051D01*
X64928Y-26050D01*
X64896Y-25971D01*
X64826Y-25901D01*
X64735Y-25863D01*
X64636Y-25863D01*
X63832Y-25863D01*
X63832Y-25861D01*
X64073Y-25862D01*
X64135Y-25800D01*
X64135Y-25462D01*
X64135Y-25412D01*
X64135Y-25312D01*
X64235Y-25312D01*
X64285Y-25312D01*
X64873Y-25312D01*
X64935Y-25250D01*
X64934Y-25161D01*
X64934Y-25133D01*
X64947Y-25125D01*
X65091Y-24979D01*
X65093Y-24978D01*
X65094Y-24978D01*
X65163Y-24873D01*
X65164Y-24872D01*
X65183Y-24774D01*
X65189Y-24749D01*
X65188Y-24748D01*
X65189Y-24748D01*
X65189Y-23702D01*
X65188Y-23701D01*
X65189Y-23701D01*
X65183Y-23676D01*
X65164Y-23578D01*
X65163Y-23577D01*
X65094Y-23472D01*
X65091Y-23470D01*
X64983Y-23362D01*
X65093Y-23253D01*
X65163Y-23148D01*
X65163Y-23147D01*
X65188Y-23023D01*
X65188Y-22687D01*
X73446Y-22687D01*
X73474Y-22753D01*
X73544Y-22823D01*
X73635Y-22861D01*
X73734Y-22861D01*
X74538Y-22861D01*
X74538Y-22863D01*
X73636Y-22863D01*
X73544Y-22901D01*
X73474Y-22971D01*
X73436Y-23062D01*
X73436Y-23161D01*
X73436Y-23661D01*
X73474Y-23753D01*
X73544Y-23823D01*
X73635Y-23861D01*
X73734Y-23861D01*
X74538Y-23861D01*
X74538Y-23863D01*
X73636Y-23863D01*
X73544Y-23901D01*
X73474Y-23971D01*
X73440Y-24050D01*
X73383Y-24062D01*
X73277Y-24132D01*
X73275Y-24134D01*
X73024Y-24385D01*
X72954Y-24491D01*
X72929Y-24615D01*
X72929Y-30109D01*
X72954Y-30233D01*
X73024Y-30339D01*
X73275Y-30589D01*
X73277Y-30592D01*
X73382Y-30661D01*
X73383Y-30662D01*
X73441Y-30673D01*
X73474Y-30753D01*
X73544Y-30823D01*
X73635Y-30861D01*
X73734Y-30861D01*
X74538Y-30861D01*
X74538Y-30863D01*
X73636Y-30863D01*
X73544Y-30901D01*
X73474Y-30971D01*
X73436Y-31062D01*
X73436Y-31161D01*
X73436Y-31661D01*
X73474Y-31753D01*
X73544Y-31823D01*
X73635Y-31861D01*
X73734Y-31861D01*
X74538Y-31861D01*
X74538Y-31863D01*
X73636Y-31863D01*
X73544Y-31901D01*
X73474Y-31971D01*
X73436Y-32062D01*
X73436Y-32161D01*
X73436Y-32661D01*
X73474Y-32753D01*
X73544Y-32823D01*
X73635Y-32861D01*
X73734Y-32861D01*
X74734Y-32861D01*
X74826Y-32823D01*
X74896Y-32753D01*
X74929Y-32673D01*
X74987Y-32662D01*
X75093Y-32592D01*
X75163Y-32486D01*
X75188Y-32362D01*
X75188Y-26362D01*
X75163Y-26238D01*
X75093Y-26132D01*
X74987Y-26062D01*
X74935Y-26051D01*
X74935Y-25474D01*
X74873Y-25412D01*
X74235Y-25412D01*
X74235Y-25800D01*
X74297Y-25862D01*
X74734Y-25861D01*
X74826Y-25823D01*
X74896Y-25753D01*
X74934Y-25662D01*
X74934Y-25563D01*
X74935Y-25474D01*
X74935Y-26051D01*
X74928Y-26050D01*
X74896Y-25971D01*
X74826Y-25901D01*
X74735Y-25863D01*
X74636Y-25863D01*
X73832Y-25863D01*
X73832Y-25861D01*
X74073Y-25862D01*
X74135Y-25800D01*
X74135Y-25462D01*
X74135Y-25412D01*
X74135Y-25312D01*
X74235Y-25312D01*
X74285Y-25312D01*
X74873Y-25312D01*
X74935Y-25250D01*
X74934Y-25161D01*
X74934Y-25106D01*
X74945Y-25104D01*
X75051Y-25034D01*
X75093Y-24992D01*
X75163Y-24887D01*
X75163Y-24886D01*
X75188Y-24762D01*
X75188Y-23362D01*
X75163Y-23238D01*
X75133Y-23192D01*
X75163Y-23148D01*
X75163Y-23147D01*
X75188Y-23023D01*
X75188Y-23017D01*
X83182Y-23017D01*
X83182Y-23362D01*
X83182Y-29362D01*
X83207Y-29486D01*
X83277Y-29592D01*
X83383Y-29662D01*
X83441Y-29673D01*
X83474Y-29753D01*
X83544Y-29823D01*
X83635Y-29861D01*
X83734Y-29861D01*
X84538Y-29861D01*
X84538Y-29863D01*
X83636Y-29863D01*
X83544Y-29901D01*
X83474Y-29971D01*
X83436Y-30062D01*
X83436Y-30161D01*
X83436Y-30661D01*
X83474Y-30753D01*
X83544Y-30823D01*
X83635Y-30861D01*
X83734Y-30861D01*
X84538Y-30861D01*
X84538Y-30863D01*
X83636Y-30863D01*
X83544Y-30901D01*
X83474Y-30971D01*
X83436Y-31062D01*
X83436Y-31161D01*
X83436Y-31661D01*
X83474Y-31753D01*
X83544Y-31823D01*
X83635Y-31861D01*
X83734Y-31861D01*
X84538Y-31861D01*
X84538Y-31863D01*
X83636Y-31863D01*
X83544Y-31901D01*
X83474Y-31971D01*
X83436Y-32062D01*
X83436Y-32161D01*
X83436Y-32661D01*
X83474Y-32753D01*
X83544Y-32823D01*
X83635Y-32861D01*
X83734Y-32861D01*
X84734Y-32861D01*
X84826Y-32823D01*
X84896Y-32753D01*
X84929Y-32673D01*
X84987Y-32662D01*
X85093Y-32592D01*
X85163Y-32486D01*
X85188Y-32362D01*
X85188Y-33037D01*
X84923Y-33037D01*
X84896Y-32971D01*
X84826Y-32901D01*
X84735Y-32863D01*
X84636Y-32863D01*
X83636Y-32863D01*
X83544Y-32901D01*
X83474Y-32971D01*
X83446Y-33037D01*
X76770Y-33037D01*
X76718Y-32957D01*
X76612Y-32887D01*
X76488Y-32862D01*
X76462Y-32862D01*
X76451Y-32851D01*
X76360Y-32813D01*
X76261Y-32813D01*
X75811Y-32813D01*
X75719Y-32851D01*
X75649Y-32921D01*
X75611Y-33012D01*
X75611Y-33111D01*
X75611Y-33361D01*
X75649Y-33453D01*
X75683Y-33487D01*
X75649Y-33521D01*
X75611Y-33613D01*
X75610Y-33649D01*
X75093Y-33132D01*
X74987Y-33062D01*
X74928Y-33050D01*
X74896Y-32971D01*
X74826Y-32901D01*
X74735Y-32863D01*
X74636Y-32863D01*
X73636Y-32863D01*
X73544Y-32901D01*
X73474Y-32971D01*
X73446Y-33037D01*
X66770Y-33037D01*
X66718Y-32957D01*
X66612Y-32887D01*
X66488Y-32862D01*
X66462Y-32862D01*
X66451Y-32851D01*
X66360Y-32813D01*
X66261Y-32813D01*
X65811Y-32813D01*
X65719Y-32851D01*
X65649Y-32921D01*
X65611Y-33012D01*
X65611Y-33111D01*
X65611Y-33361D01*
X65649Y-33453D01*
X65683Y-33487D01*
X65649Y-33521D01*
X65611Y-33613D01*
X65610Y-33649D01*
X65093Y-33132D01*
X64987Y-33062D01*
X64928Y-33050D01*
X64896Y-32971D01*
X64826Y-32901D01*
X64735Y-32863D01*
X64636Y-32863D01*
X63636Y-32863D01*
X63544Y-32901D01*
X63474Y-32971D01*
X63446Y-33037D01*
X56770Y-33037D01*
X56718Y-32957D01*
X56612Y-32887D01*
X56488Y-32862D01*
X56462Y-32862D01*
X56451Y-32851D01*
X56360Y-32813D01*
X56261Y-32813D01*
X55811Y-32813D01*
X55719Y-32851D01*
X55649Y-32921D01*
X55611Y-33012D01*
X55611Y-33111D01*
X55611Y-33361D01*
X55649Y-33453D01*
X55683Y-33487D01*
X55649Y-33521D01*
X55611Y-33613D01*
X55610Y-33649D01*
X55093Y-33132D01*
X54987Y-33062D01*
X54928Y-33050D01*
X54896Y-32971D01*
X54826Y-32901D01*
X54735Y-32863D01*
X54636Y-32863D01*
X53636Y-32863D01*
X53544Y-32901D01*
X53474Y-32971D01*
X53446Y-33037D01*
X46770Y-33037D01*
X46718Y-32957D01*
X46612Y-32887D01*
X46488Y-32862D01*
X46462Y-32862D01*
X46451Y-32851D01*
X46360Y-32813D01*
X46261Y-32813D01*
X45811Y-32813D01*
X45719Y-32851D01*
X45649Y-32921D01*
X45611Y-33012D01*
X45611Y-33111D01*
X45611Y-33361D01*
X45649Y-33453D01*
X45683Y-33487D01*
X45649Y-33521D01*
X45611Y-33613D01*
X45610Y-33649D01*
X45188Y-33227D01*
X45188Y-32362D01*
X45188Y-26362D01*
X45163Y-26238D01*
X45093Y-26132D01*
X44987Y-26062D01*
X44935Y-26051D01*
X44935Y-25474D01*
X44873Y-25412D01*
X44235Y-25412D01*
X44235Y-25800D01*
X44297Y-25862D01*
X44734Y-25861D01*
X44826Y-25823D01*
X44896Y-25753D01*
X44934Y-25662D01*
X44934Y-25563D01*
X44935Y-25474D01*
X44935Y-26051D01*
X44928Y-26050D01*
X44896Y-25971D01*
X44826Y-25901D01*
X44735Y-25863D01*
X44636Y-25863D01*
X43832Y-25863D01*
X43832Y-25861D01*
X44073Y-25862D01*
X44135Y-25800D01*
X44135Y-25462D01*
X44135Y-25412D01*
X44135Y-25312D01*
X44235Y-25312D01*
X44285Y-25312D01*
X44873Y-25312D01*
X44935Y-25250D01*
X44934Y-25161D01*
X44934Y-25062D01*
X44932Y-25057D01*
X44989Y-25020D01*
X45093Y-24916D01*
X45163Y-24811D01*
X45163Y-24810D01*
X45188Y-24686D01*
X45188Y-23362D01*
X45188Y-22362D01*
X45163Y-22238D01*
X45093Y-22132D01*
X44987Y-22062D01*
X44935Y-22051D01*
X44935Y-21474D01*
X44935Y-21250D01*
X44934Y-21161D01*
X44934Y-21062D01*
X44896Y-20971D01*
X44826Y-20901D01*
X44734Y-20863D01*
X44297Y-20862D01*
X44235Y-20924D01*
X44235Y-21312D01*
X44873Y-21312D01*
X44935Y-21250D01*
X44935Y-21474D01*
X44873Y-21412D01*
X44235Y-21412D01*
X44235Y-21800D01*
X44297Y-21862D01*
X44734Y-21861D01*
X44826Y-21823D01*
X44896Y-21753D01*
X44934Y-21662D01*
X44934Y-21563D01*
X44935Y-21474D01*
X44935Y-22051D01*
X44928Y-22050D01*
X44896Y-21971D01*
X44826Y-21901D01*
X44735Y-21863D01*
X44636Y-21863D01*
X44135Y-21863D01*
X44135Y-21800D01*
X44135Y-21412D01*
X44135Y-21312D01*
X44135Y-20924D01*
X44073Y-20862D01*
X43636Y-20863D01*
X43544Y-20901D01*
X43474Y-20971D01*
X43436Y-21062D01*
X43436Y-21161D01*
X43435Y-21250D01*
X43497Y-21312D01*
X44135Y-21312D01*
X44135Y-21412D01*
X43497Y-21412D01*
X43435Y-21474D01*
X43436Y-21563D01*
X43436Y-21662D01*
X43474Y-21753D01*
X43544Y-21823D01*
X43636Y-21861D01*
X44073Y-21862D01*
X44135Y-21800D01*
X44135Y-21863D01*
X43636Y-21863D01*
X43544Y-21901D01*
X43474Y-21971D01*
X43436Y-22062D01*
X43436Y-22161D01*
X43436Y-22661D01*
X43474Y-22753D01*
X43544Y-22823D01*
X43635Y-22861D01*
X43734Y-22861D01*
X44538Y-22861D01*
X44538Y-22863D01*
X43636Y-22863D01*
X43544Y-22901D01*
X43474Y-22971D01*
X43436Y-23062D01*
X43436Y-23161D01*
X43436Y-23661D01*
X43474Y-23753D01*
X43544Y-23823D01*
X43635Y-23861D01*
X43734Y-23861D01*
X44538Y-23861D01*
X44538Y-23863D01*
X43636Y-23863D01*
X43544Y-23901D01*
X43474Y-23971D01*
X43440Y-24050D01*
X43383Y-24062D01*
X43277Y-24132D01*
X43275Y-24134D01*
X43024Y-24385D01*
X42954Y-24491D01*
X42929Y-24615D01*
X42929Y-30109D01*
X42954Y-30233D01*
X43024Y-30339D01*
X43275Y-30589D01*
X43277Y-30592D01*
X43382Y-30661D01*
X43383Y-30662D01*
X43441Y-30673D01*
X43474Y-30753D01*
X43544Y-30823D01*
X43635Y-30861D01*
X43734Y-30861D01*
X44538Y-30861D01*
X44538Y-30863D01*
X43636Y-30863D01*
X43544Y-30901D01*
X43474Y-30971D01*
X43446Y-31037D01*
X42795Y-31037D01*
X42795Y-16228D01*
X42795Y-15898D01*
X42669Y-15593D01*
X42436Y-15359D01*
X42131Y-15232D01*
X41801Y-15232D01*
X41496Y-15358D01*
X41262Y-15591D01*
X41135Y-15896D01*
X41135Y-16226D01*
X41261Y-16531D01*
X41494Y-16765D01*
X41799Y-16892D01*
X42129Y-16892D01*
X42434Y-16766D01*
X42668Y-16533D01*
X42795Y-16228D01*
X42795Y-31037D01*
X38677Y-31037D01*
X31197Y-23556D01*
X31197Y-23507D01*
X31133Y-23351D01*
X31013Y-23231D01*
X30857Y-23166D01*
X30688Y-23166D01*
X30532Y-23230D01*
X30412Y-23350D01*
X30347Y-23506D01*
X30347Y-23675D01*
X30411Y-23831D01*
X30531Y-23951D01*
X30687Y-24016D01*
X30737Y-24016D01*
X38311Y-31589D01*
X38313Y-31592D01*
X38418Y-31661D01*
X38419Y-31662D01*
X38517Y-31681D01*
X38542Y-31687D01*
X38542Y-31686D01*
X38543Y-31687D01*
X43446Y-31687D01*
X43474Y-31753D01*
X43544Y-31823D01*
X43635Y-31861D01*
X43734Y-31861D01*
X44538Y-31861D01*
X44538Y-31863D01*
X43636Y-31863D01*
X43544Y-31901D01*
X43474Y-31971D01*
X43436Y-32062D01*
X43436Y-32161D01*
X43436Y-32661D01*
X43474Y-32753D01*
X43544Y-32823D01*
X43635Y-32861D01*
X43734Y-32861D01*
X44734Y-32861D01*
X44826Y-32823D01*
X44896Y-32753D01*
X44929Y-32673D01*
X44987Y-32662D01*
X45093Y-32592D01*
X45163Y-32486D01*
X45188Y-32362D01*
X45188Y-33227D01*
X45093Y-33132D01*
X44987Y-33062D01*
X44928Y-33050D01*
X44896Y-32971D01*
X44826Y-32901D01*
X44735Y-32863D01*
X44636Y-32863D01*
X43636Y-32863D01*
X43544Y-32901D01*
X43474Y-32971D01*
X43436Y-33062D01*
X43436Y-33161D01*
X43436Y-33661D01*
X43474Y-33753D01*
X43544Y-33823D01*
X43635Y-33861D01*
X43734Y-33861D01*
X44734Y-33861D01*
X44826Y-33823D01*
X44845Y-33804D01*
X45389Y-34348D01*
X45494Y-34418D01*
X45495Y-34418D01*
X45619Y-34443D01*
X46455Y-34443D01*
X46579Y-34418D01*
X46685Y-34348D01*
X46715Y-34316D01*
X46717Y-34315D01*
X46718Y-34315D01*
X46787Y-34210D01*
X46788Y-34209D01*
X46813Y-34085D01*
X46813Y-33687D01*
X53446Y-33687D01*
X53474Y-33753D01*
X53544Y-33823D01*
X53635Y-33861D01*
X53734Y-33861D01*
X54734Y-33861D01*
X54826Y-33823D01*
X54845Y-33803D01*
X55663Y-34621D01*
X55665Y-34624D01*
X55770Y-34693D01*
X55771Y-34694D01*
X55895Y-34719D01*
X56080Y-34719D01*
X56204Y-34694D01*
X56310Y-34624D01*
X56717Y-34217D01*
X56717Y-34216D01*
X56718Y-34216D01*
X56787Y-34111D01*
X56788Y-34110D01*
X56807Y-34012D01*
X56813Y-33987D01*
X56812Y-33986D01*
X56813Y-33986D01*
X56813Y-33687D01*
X63446Y-33687D01*
X63474Y-33753D01*
X63544Y-33823D01*
X63635Y-33861D01*
X63734Y-33861D01*
X64734Y-33861D01*
X64826Y-33823D01*
X64845Y-33804D01*
X65389Y-34348D01*
X65494Y-34418D01*
X65495Y-34418D01*
X65619Y-34443D01*
X66455Y-34443D01*
X66579Y-34418D01*
X66685Y-34348D01*
X66715Y-34316D01*
X66717Y-34315D01*
X66718Y-34315D01*
X66787Y-34210D01*
X66788Y-34209D01*
X66813Y-34085D01*
X66813Y-33687D01*
X73446Y-33687D01*
X73474Y-33753D01*
X73544Y-33823D01*
X73635Y-33861D01*
X73734Y-33861D01*
X74734Y-33861D01*
X74826Y-33823D01*
X74845Y-33804D01*
X75389Y-34348D01*
X75494Y-34418D01*
X75495Y-34418D01*
X75619Y-34443D01*
X76455Y-34443D01*
X76579Y-34418D01*
X76685Y-34348D01*
X76715Y-34316D01*
X76717Y-34315D01*
X76718Y-34315D01*
X76787Y-34210D01*
X76788Y-34209D01*
X76813Y-34085D01*
X76813Y-33687D01*
X83446Y-33687D01*
X83474Y-33753D01*
X83544Y-33823D01*
X83635Y-33861D01*
X83734Y-33861D01*
X84734Y-33861D01*
X84826Y-33823D01*
X84896Y-33753D01*
X84923Y-33687D01*
X85507Y-33687D01*
X85610Y-33666D01*
X85610Y-33675D01*
X85672Y-33737D01*
X85985Y-33737D01*
X86035Y-33737D01*
X86135Y-33737D01*
X86185Y-33737D01*
X86498Y-33737D01*
X86560Y-33675D01*
X86560Y-33899D01*
X86498Y-33837D01*
X86135Y-33837D01*
X86135Y-34100D01*
X86197Y-34162D01*
X86261Y-34161D01*
X86360Y-34161D01*
X86451Y-34123D01*
X86521Y-34053D01*
X86559Y-33961D01*
X86560Y-33899D01*
X86560Y-42392D01*
X86035Y-42392D01*
X86035Y-34100D01*
X86035Y-33837D01*
X85672Y-33837D01*
X85610Y-33899D01*
X85611Y-33961D01*
X85649Y-34053D01*
X85719Y-34123D01*
X85810Y-34161D01*
X85909Y-34161D01*
X85973Y-34162D01*
X86035Y-34100D01*
X86035Y-42392D01*
X82795Y-42392D01*
X82795Y-38828D01*
X82795Y-38498D01*
X82669Y-38193D01*
X82436Y-37959D01*
X82131Y-37832D01*
X81801Y-37832D01*
X81496Y-37958D01*
X81262Y-38191D01*
X81135Y-38496D01*
X81135Y-38826D01*
X81261Y-39131D01*
X81494Y-39365D01*
X81799Y-39492D01*
X82129Y-39492D01*
X82434Y-39366D01*
X82668Y-39133D01*
X82795Y-38828D01*
X82795Y-42392D01*
X77809Y-42392D01*
X77964Y-42238D01*
X78104Y-41901D01*
X78104Y-41535D01*
X77964Y-41197D01*
X77706Y-40938D01*
X77369Y-40798D01*
X77003Y-40798D01*
X76665Y-40938D01*
X76406Y-41196D01*
X76266Y-41533D01*
X76266Y-41899D01*
X76406Y-42237D01*
X76560Y-42392D01*
X72795Y-42392D01*
X72795Y-38828D01*
X72795Y-38498D01*
X72669Y-38193D01*
X72436Y-37959D01*
X72131Y-37832D01*
X71801Y-37832D01*
X71496Y-37958D01*
X71262Y-38191D01*
X71135Y-38496D01*
X71135Y-38826D01*
X71261Y-39131D01*
X71494Y-39365D01*
X71799Y-39492D01*
X72129Y-39492D01*
X72434Y-39366D01*
X72668Y-39133D01*
X72795Y-38828D01*
X72795Y-42392D01*
X62795Y-42392D01*
X62795Y-38828D01*
X62795Y-38498D01*
X62669Y-38193D01*
X62436Y-37959D01*
X62131Y-37832D01*
X61801Y-37832D01*
X61496Y-37958D01*
X61262Y-38191D01*
X61135Y-38496D01*
X61135Y-38826D01*
X61261Y-39131D01*
X61494Y-39365D01*
X61799Y-39492D01*
X62129Y-39492D01*
X62434Y-39366D01*
X62668Y-39133D01*
X62795Y-38828D01*
X62795Y-42392D01*
X57809Y-42392D01*
X57964Y-42238D01*
X58104Y-41901D01*
X58104Y-41535D01*
X57964Y-41197D01*
X57706Y-40938D01*
X57369Y-40798D01*
X57003Y-40798D01*
X56665Y-40938D01*
X56406Y-41196D01*
X56266Y-41533D01*
X56266Y-41899D01*
X56406Y-42237D01*
X56560Y-42392D01*
X52795Y-42392D01*
X52795Y-38828D01*
X52795Y-38498D01*
X52669Y-38193D01*
X52436Y-37959D01*
X52131Y-37832D01*
X51801Y-37832D01*
X51496Y-37958D01*
X51262Y-38191D01*
X51135Y-38496D01*
X51135Y-38826D01*
X51261Y-39131D01*
X51494Y-39365D01*
X51799Y-39492D01*
X52129Y-39492D01*
X52434Y-39366D01*
X52668Y-39133D01*
X52795Y-38828D01*
X52795Y-42392D01*
X42795Y-42392D01*
X42795Y-38828D01*
X42795Y-38498D01*
X42669Y-38193D01*
X42436Y-37959D01*
X42131Y-37832D01*
X41801Y-37832D01*
X41496Y-37958D01*
X41262Y-38191D01*
X41135Y-38496D01*
X41135Y-38826D01*
X41261Y-39131D01*
X41494Y-39365D01*
X41799Y-39492D01*
X42129Y-39492D01*
X42434Y-39366D01*
X42668Y-39133D01*
X42795Y-38828D01*
X42795Y-42392D01*
X37858Y-42392D01*
X38013Y-42238D01*
X38153Y-41901D01*
X38153Y-41535D01*
X38013Y-41197D01*
X37755Y-40938D01*
X37418Y-40798D01*
X37052Y-40798D01*
X36714Y-40938D01*
X36455Y-41196D01*
X36315Y-41533D01*
X36315Y-41899D01*
X36455Y-42237D01*
X36609Y-42392D01*
X25247Y-42392D01*
X25247Y-17943D01*
X25247Y-17766D01*
X25247Y-15975D01*
X25247Y-15798D01*
X25180Y-15635D01*
X25055Y-15510D01*
X24892Y-15442D01*
X24715Y-15442D01*
X24552Y-15509D01*
X24427Y-15634D01*
X24359Y-15797D01*
X24359Y-15974D01*
X24426Y-16137D01*
X24551Y-16262D01*
X24714Y-16330D01*
X24891Y-16330D01*
X25054Y-16263D01*
X25179Y-16138D01*
X25247Y-15975D01*
X25247Y-17766D01*
X25180Y-17603D01*
X25055Y-17478D01*
X24892Y-17410D01*
X24715Y-17410D01*
X24552Y-17477D01*
X24427Y-17602D01*
X24359Y-17765D01*
X24359Y-17942D01*
X24426Y-18105D01*
X24551Y-18230D01*
X24714Y-18298D01*
X24891Y-18298D01*
X25054Y-18231D01*
X25179Y-18106D01*
X25247Y-17943D01*
X25247Y-42392D01*
X24171Y-42392D01*
X24171Y-28606D01*
X24171Y-28507D01*
X24171Y-27907D01*
X24133Y-27815D01*
X24063Y-27745D01*
X23972Y-27707D01*
X23947Y-27707D01*
X24087Y-27567D01*
X24171Y-27365D01*
X24171Y-27147D01*
X24087Y-26945D01*
X23933Y-26791D01*
X23731Y-26707D01*
X23513Y-26707D01*
X23311Y-26791D01*
X23157Y-26945D01*
X23073Y-27147D01*
X23073Y-27365D01*
X23157Y-27567D01*
X23297Y-27707D01*
X23273Y-27707D01*
X23181Y-27745D01*
X23111Y-27815D01*
X23073Y-27906D01*
X23073Y-28005D01*
X23073Y-28605D01*
X23111Y-28697D01*
X23181Y-28767D01*
X23272Y-28805D01*
X23371Y-28805D01*
X23971Y-28805D01*
X24063Y-28767D01*
X24133Y-28697D01*
X24171Y-28606D01*
X24171Y-42392D01*
X20010Y-42392D01*
X20010Y-38994D01*
X20164Y-39149D01*
X20501Y-39289D01*
X20867Y-39289D01*
X21205Y-39149D01*
X21464Y-38891D01*
X21604Y-38554D01*
X21604Y-38188D01*
X21464Y-37850D01*
X21206Y-37591D01*
X20869Y-37451D01*
X20503Y-37451D01*
X20165Y-37591D01*
X20010Y-37745D01*
X20010Y-16978D01*
X20164Y-17133D01*
X20501Y-17273D01*
X20867Y-17273D01*
X21205Y-17133D01*
X21464Y-16875D01*
X21604Y-16538D01*
X21604Y-16172D01*
X21464Y-15834D01*
X21206Y-15575D01*
X20869Y-15435D01*
X20503Y-15435D01*
X20165Y-15575D01*
X20010Y-15729D01*
X20010Y-12333D01*
X36609Y-12333D01*
X36455Y-12487D01*
X36315Y-12824D01*
X36315Y-13190D01*
X36455Y-13528D01*
X36713Y-13787D01*
X37050Y-13927D01*
X37416Y-13927D01*
X37754Y-13787D01*
X38013Y-13529D01*
X38153Y-13192D01*
X38153Y-12826D01*
X38013Y-12488D01*
X37858Y-12333D01*
X56560Y-12333D01*
X56406Y-12487D01*
X56266Y-12824D01*
X56266Y-13190D01*
X56406Y-13528D01*
X56664Y-13787D01*
X57001Y-13927D01*
X57367Y-13927D01*
X57705Y-13787D01*
X57964Y-13529D01*
X58104Y-13192D01*
X58104Y-12826D01*
X57964Y-12488D01*
X57809Y-12333D01*
X76560Y-12333D01*
X76406Y-12487D01*
X76266Y-12824D01*
X76266Y-13190D01*
X76406Y-13528D01*
X76664Y-13787D01*
X77001Y-13927D01*
X77367Y-13927D01*
X77705Y-13787D01*
X77964Y-13529D01*
X78104Y-13192D01*
X78104Y-12826D01*
X77964Y-12488D01*
X77809Y-12333D01*
X89360Y-12333D01*
X89360Y-15729D01*
X89206Y-15575D01*
X88869Y-15435D01*
X88503Y-15435D01*
X88165Y-15575D01*
X87906Y-15833D01*
X87766Y-16170D01*
X87766Y-16536D01*
X87906Y-16874D01*
X88164Y-17133D01*
X88501Y-17273D01*
X88867Y-17273D01*
X89205Y-17133D01*
X89360Y-16978D01*
X89360Y-37745D01*
X89206Y-37591D01*
X88869Y-37451D01*
X88503Y-37451D01*
X88165Y-37591D01*
X87906Y-37849D01*
X87766Y-38186D01*
X87766Y-38552D01*
X87906Y-38890D01*
X88164Y-39149D01*
X88501Y-39289D01*
X88867Y-39289D01*
X89205Y-39149D01*
X89360Y-38994D01*
X89360Y-42392D01*
M02*
