G04 (created by PCBNEW-RS274X (2011-07-19)-testing) date Fri 17 Feb 2012 12:28:35 PM PST*
G01*
G70*
G90*
%MOIN*%
G04 Gerber Fmt 3.4, Leading zero omitted, Abs format*
%FSLAX34Y34*%
G04 APERTURE LIST*
%ADD10C,0.006000*%
%ADD11C,0.012000*%
%ADD12C,0.015000*%
%ADD13C,0.005000*%
%ADD14C,0.004500*%
G04 APERTURE END LIST*
G54D10*
G54D11*
X26524Y-43157D02*
X25724Y-43157D01*
X25724Y-42757D02*
X25724Y-42643D01*
X25762Y-42585D01*
X25838Y-42528D01*
X25990Y-42500D01*
X26257Y-42500D01*
X26410Y-42528D01*
X26486Y-42585D01*
X26524Y-42643D01*
X26524Y-42757D01*
X26486Y-42814D01*
X26410Y-42871D01*
X26257Y-42900D01*
X25990Y-42900D01*
X25838Y-42871D01*
X25762Y-42814D01*
X25724Y-42757D01*
X26524Y-41442D02*
X26143Y-41642D01*
X26524Y-41785D02*
X25724Y-41785D01*
X25724Y-41557D01*
X25762Y-41499D01*
X25800Y-41471D01*
X25876Y-41442D01*
X25990Y-41442D01*
X26067Y-41471D01*
X26105Y-41499D01*
X26143Y-41557D01*
X26143Y-41785D01*
X26524Y-41099D02*
X26486Y-41157D01*
X26448Y-41185D01*
X26371Y-41214D01*
X26143Y-41214D01*
X26067Y-41185D01*
X26029Y-41157D01*
X25990Y-41099D01*
X25990Y-41014D01*
X26029Y-40957D01*
X26067Y-40928D01*
X26143Y-40899D01*
X26371Y-40899D01*
X26448Y-40928D01*
X26486Y-40957D01*
X26524Y-41014D01*
X26524Y-41099D01*
X26524Y-40385D02*
X25724Y-40385D01*
X26486Y-40385D02*
X26524Y-40442D01*
X26524Y-40556D01*
X26486Y-40614D01*
X26448Y-40642D01*
X26371Y-40671D01*
X26143Y-40671D01*
X26067Y-40642D01*
X26029Y-40614D01*
X25990Y-40556D01*
X25990Y-40442D01*
X26029Y-40385D01*
X26486Y-39871D02*
X26524Y-39928D01*
X26524Y-40042D01*
X26486Y-40099D01*
X26410Y-40128D01*
X26105Y-40128D01*
X26029Y-40099D01*
X25990Y-40042D01*
X25990Y-39928D01*
X26029Y-39871D01*
X26105Y-39842D01*
X26181Y-39842D01*
X26257Y-40128D01*
X26524Y-39499D02*
X26486Y-39557D01*
X26448Y-39585D01*
X26371Y-39614D01*
X26143Y-39614D01*
X26067Y-39585D01*
X26029Y-39557D01*
X25990Y-39499D01*
X25990Y-39414D01*
X26029Y-39357D01*
X26067Y-39328D01*
X26143Y-39299D01*
X26371Y-39299D01*
X26448Y-39328D01*
X26486Y-39357D01*
X26524Y-39414D01*
X26524Y-39499D01*
X26524Y-38585D02*
X25724Y-38585D01*
X25990Y-38299D02*
X26524Y-38299D01*
X26067Y-38299D02*
X26029Y-38271D01*
X25990Y-38213D01*
X25990Y-38128D01*
X26029Y-38071D01*
X26105Y-38042D01*
X26524Y-38042D01*
X26486Y-37499D02*
X26524Y-37556D01*
X26524Y-37670D01*
X26486Y-37728D01*
X26448Y-37756D01*
X26371Y-37785D01*
X26143Y-37785D01*
X26067Y-37756D01*
X26029Y-37728D01*
X25990Y-37670D01*
X25990Y-37556D01*
X26029Y-37499D01*
X26448Y-37242D02*
X26486Y-37214D01*
X26524Y-37242D01*
X26486Y-37271D01*
X26448Y-37242D01*
X26524Y-37242D01*
X26964Y-47227D02*
X26964Y-47513D01*
X27345Y-47542D01*
X27307Y-47513D01*
X27269Y-47456D01*
X27269Y-47313D01*
X27307Y-47256D01*
X27345Y-47227D01*
X27421Y-47199D01*
X27611Y-47199D01*
X27688Y-47227D01*
X27726Y-47256D01*
X27764Y-47313D01*
X27764Y-47456D01*
X27726Y-47513D01*
X27688Y-47542D01*
X27459Y-46942D02*
X27459Y-46485D01*
X27726Y-45942D02*
X27764Y-45999D01*
X27764Y-46113D01*
X27726Y-46171D01*
X27688Y-46199D01*
X27611Y-46228D01*
X27383Y-46228D01*
X27307Y-46199D01*
X27269Y-46171D01*
X27230Y-46113D01*
X27230Y-45999D01*
X27269Y-45942D01*
X27764Y-45685D02*
X26964Y-45685D01*
X27764Y-45428D02*
X27345Y-45428D01*
X27269Y-45457D01*
X27230Y-45514D01*
X27230Y-45599D01*
X27269Y-45657D01*
X27307Y-45685D01*
X27764Y-44885D02*
X27345Y-44885D01*
X27269Y-44914D01*
X27230Y-44971D01*
X27230Y-45085D01*
X27269Y-45142D01*
X27726Y-44885D02*
X27764Y-44942D01*
X27764Y-45085D01*
X27726Y-45142D01*
X27650Y-45171D01*
X27573Y-45171D01*
X27497Y-45142D01*
X27459Y-45085D01*
X27459Y-44942D01*
X27421Y-44885D01*
X27230Y-44599D02*
X27764Y-44599D01*
X27307Y-44599D02*
X27269Y-44571D01*
X27230Y-44513D01*
X27230Y-44428D01*
X27269Y-44371D01*
X27345Y-44342D01*
X27764Y-44342D01*
X27230Y-44056D02*
X27764Y-44056D01*
X27307Y-44056D02*
X27269Y-44028D01*
X27230Y-43970D01*
X27230Y-43885D01*
X27269Y-43828D01*
X27345Y-43799D01*
X27764Y-43799D01*
X27726Y-43285D02*
X27764Y-43342D01*
X27764Y-43456D01*
X27726Y-43513D01*
X27650Y-43542D01*
X27345Y-43542D01*
X27269Y-43513D01*
X27230Y-43456D01*
X27230Y-43342D01*
X27269Y-43285D01*
X27345Y-43256D01*
X27421Y-43256D01*
X27497Y-43542D01*
X27764Y-42913D02*
X27726Y-42971D01*
X27650Y-42999D01*
X26964Y-42999D01*
X27726Y-41971D02*
X27764Y-42028D01*
X27764Y-42142D01*
X27726Y-42200D01*
X27688Y-42228D01*
X27611Y-42257D01*
X27383Y-42257D01*
X27307Y-42228D01*
X27269Y-42200D01*
X27230Y-42142D01*
X27230Y-42028D01*
X27269Y-41971D01*
X27764Y-41457D02*
X27345Y-41457D01*
X27269Y-41486D01*
X27230Y-41543D01*
X27230Y-41657D01*
X27269Y-41714D01*
X27726Y-41457D02*
X27764Y-41514D01*
X27764Y-41657D01*
X27726Y-41714D01*
X27650Y-41743D01*
X27573Y-41743D01*
X27497Y-41714D01*
X27459Y-41657D01*
X27459Y-41514D01*
X27421Y-41457D01*
X27230Y-41171D02*
X28030Y-41171D01*
X27269Y-41171D02*
X27230Y-41114D01*
X27230Y-41000D01*
X27269Y-40943D01*
X27307Y-40914D01*
X27383Y-40885D01*
X27611Y-40885D01*
X27688Y-40914D01*
X27726Y-40943D01*
X27764Y-41000D01*
X27764Y-41114D01*
X27726Y-41171D01*
X27764Y-40628D02*
X27230Y-40628D01*
X26964Y-40628D02*
X27002Y-40657D01*
X27040Y-40628D01*
X27002Y-40600D01*
X26964Y-40628D01*
X27040Y-40628D01*
X27764Y-40256D02*
X27726Y-40314D01*
X27650Y-40342D01*
X26964Y-40342D01*
X27764Y-39942D02*
X27726Y-40000D01*
X27650Y-40028D01*
X26964Y-40028D01*
X27764Y-39457D02*
X27345Y-39457D01*
X27269Y-39486D01*
X27230Y-39543D01*
X27230Y-39657D01*
X27269Y-39714D01*
X27726Y-39457D02*
X27764Y-39514D01*
X27764Y-39657D01*
X27726Y-39714D01*
X27650Y-39743D01*
X27573Y-39743D01*
X27497Y-39714D01*
X27459Y-39657D01*
X27459Y-39514D01*
X27421Y-39457D01*
X27764Y-39171D02*
X27230Y-39171D01*
X27383Y-39171D02*
X27307Y-39143D01*
X27269Y-39114D01*
X27230Y-39057D01*
X27230Y-39000D01*
X27230Y-38857D02*
X27764Y-38714D01*
X27230Y-38572D02*
X27764Y-38714D01*
X27954Y-38772D01*
X27992Y-38800D01*
X28030Y-38857D01*
X27726Y-37915D02*
X27764Y-37858D01*
X27764Y-37743D01*
X27726Y-37686D01*
X27650Y-37658D01*
X27611Y-37658D01*
X27535Y-37686D01*
X27497Y-37743D01*
X27497Y-37829D01*
X27459Y-37886D01*
X27383Y-37915D01*
X27345Y-37915D01*
X27269Y-37886D01*
X27230Y-37829D01*
X27230Y-37743D01*
X27269Y-37686D01*
X27726Y-37172D02*
X27764Y-37229D01*
X27764Y-37343D01*
X27726Y-37400D01*
X27650Y-37429D01*
X27345Y-37429D01*
X27269Y-37400D01*
X27230Y-37343D01*
X27230Y-37229D01*
X27269Y-37172D01*
X27345Y-37143D01*
X27421Y-37143D01*
X27497Y-37429D01*
X27230Y-36886D02*
X27764Y-36886D01*
X27307Y-36886D02*
X27269Y-36858D01*
X27230Y-36800D01*
X27230Y-36715D01*
X27269Y-36658D01*
X27345Y-36629D01*
X27764Y-36629D01*
X27726Y-36372D02*
X27764Y-36315D01*
X27764Y-36200D01*
X27726Y-36143D01*
X27650Y-36115D01*
X27611Y-36115D01*
X27535Y-36143D01*
X27497Y-36200D01*
X27497Y-36286D01*
X27459Y-36343D01*
X27383Y-36372D01*
X27345Y-36372D01*
X27269Y-36343D01*
X27230Y-36286D01*
X27230Y-36200D01*
X27269Y-36143D01*
X27764Y-35771D02*
X27726Y-35829D01*
X27688Y-35857D01*
X27611Y-35886D01*
X27383Y-35886D01*
X27307Y-35857D01*
X27269Y-35829D01*
X27230Y-35771D01*
X27230Y-35686D01*
X27269Y-35629D01*
X27307Y-35600D01*
X27383Y-35571D01*
X27611Y-35571D01*
X27688Y-35600D01*
X27726Y-35629D01*
X27764Y-35686D01*
X27764Y-35771D01*
X27764Y-35314D02*
X27230Y-35314D01*
X27383Y-35314D02*
X27307Y-35286D01*
X27269Y-35257D01*
X27230Y-35200D01*
X27230Y-35143D01*
X27230Y-34543D02*
X27764Y-34400D01*
X27230Y-34258D01*
X27764Y-33715D02*
X27764Y-34058D01*
X27764Y-33886D02*
X26964Y-33886D01*
X27078Y-33943D01*
X27154Y-34001D01*
X27192Y-34058D01*
X27688Y-33458D02*
X27726Y-33430D01*
X27764Y-33458D01*
X27726Y-33487D01*
X27688Y-33458D01*
X27764Y-33458D01*
X26964Y-33058D02*
X26964Y-33001D01*
X27002Y-32944D01*
X27040Y-32915D01*
X27116Y-32886D01*
X27269Y-32858D01*
X27459Y-32858D01*
X27611Y-32886D01*
X27688Y-32915D01*
X27726Y-32944D01*
X27764Y-33001D01*
X27764Y-33058D01*
X27726Y-33115D01*
X27688Y-33144D01*
X27611Y-33172D01*
X27459Y-33201D01*
X27269Y-33201D01*
X27116Y-33172D01*
X27040Y-33144D01*
X27002Y-33115D01*
X26964Y-33058D01*
G54D12*
X89500Y-46404D02*
X90700Y-46404D01*
X89500Y-45404D02*
X90700Y-45404D01*
X89500Y-44404D02*
X90700Y-44404D01*
X89500Y-43404D02*
X90700Y-43404D01*
X89500Y-42404D02*
X90700Y-42404D01*
X89500Y-41404D02*
X90700Y-41404D01*
X89500Y-40404D02*
X90700Y-40404D01*
X89500Y-39404D02*
X90700Y-39404D01*
X89500Y-38404D02*
X90700Y-38404D01*
X89500Y-37404D02*
X90700Y-37404D01*
X89500Y-36404D02*
X90700Y-36404D01*
X89500Y-35404D02*
X90700Y-35404D01*
X89500Y-34404D02*
X90700Y-34404D01*
X85000Y-52504D02*
X90000Y-52504D01*
X85000Y-28304D02*
X85000Y-52504D01*
X90000Y-52504D02*
X90000Y-28304D01*
X87500Y-28304D02*
X85000Y-28304D01*
X87500Y-28304D02*
X90000Y-28304D01*
X79500Y-46404D02*
X80700Y-46404D01*
X79500Y-45404D02*
X80700Y-45404D01*
X79500Y-44404D02*
X80700Y-44404D01*
X79500Y-43404D02*
X80700Y-43404D01*
X79500Y-42404D02*
X80700Y-42404D01*
X79500Y-41404D02*
X80700Y-41404D01*
X79500Y-40404D02*
X80700Y-40404D01*
X79500Y-39404D02*
X80700Y-39404D01*
X79500Y-38404D02*
X80700Y-38404D01*
X79500Y-37404D02*
X80700Y-37404D01*
X79500Y-36404D02*
X80700Y-36404D01*
X79500Y-35404D02*
X80700Y-35404D01*
X79500Y-34404D02*
X80700Y-34404D01*
X75000Y-52504D02*
X80000Y-52504D01*
X75000Y-28304D02*
X75000Y-52504D01*
X80000Y-52504D02*
X80000Y-28304D01*
X77500Y-28304D02*
X75000Y-28304D01*
X77500Y-28304D02*
X80000Y-28304D01*
X69500Y-46404D02*
X70700Y-46404D01*
X69500Y-45404D02*
X70700Y-45404D01*
X69500Y-44404D02*
X70700Y-44404D01*
X69500Y-43404D02*
X70700Y-43404D01*
X69500Y-42404D02*
X70700Y-42404D01*
X69500Y-41404D02*
X70700Y-41404D01*
X69500Y-40404D02*
X70700Y-40404D01*
X69500Y-39404D02*
X70700Y-39404D01*
X69500Y-38404D02*
X70700Y-38404D01*
X69500Y-37404D02*
X70700Y-37404D01*
X69500Y-36404D02*
X70700Y-36404D01*
X69500Y-35404D02*
X70700Y-35404D01*
X69500Y-34404D02*
X70700Y-34404D01*
X65000Y-52504D02*
X70000Y-52504D01*
X65000Y-28304D02*
X65000Y-52504D01*
X70000Y-52504D02*
X70000Y-28304D01*
X67500Y-28304D02*
X65000Y-28304D01*
X67500Y-28304D02*
X70000Y-28304D01*
X59500Y-46404D02*
X60700Y-46404D01*
X59500Y-45404D02*
X60700Y-45404D01*
X59500Y-44404D02*
X60700Y-44404D01*
X59500Y-43404D02*
X60700Y-43404D01*
X59500Y-42404D02*
X60700Y-42404D01*
X59500Y-41404D02*
X60700Y-41404D01*
X59500Y-40404D02*
X60700Y-40404D01*
X59500Y-39404D02*
X60700Y-39404D01*
X59500Y-38404D02*
X60700Y-38404D01*
X59500Y-37404D02*
X60700Y-37404D01*
X59500Y-36404D02*
X60700Y-36404D01*
X59500Y-35404D02*
X60700Y-35404D01*
X59500Y-34404D02*
X60700Y-34404D01*
X55000Y-52504D02*
X60000Y-52504D01*
X55000Y-28304D02*
X55000Y-52504D01*
X60000Y-52504D02*
X60000Y-28304D01*
X57500Y-28304D02*
X55000Y-28304D01*
X57500Y-28304D02*
X60000Y-28304D01*
X49500Y-46404D02*
X50700Y-46404D01*
X49500Y-45404D02*
X50700Y-45404D01*
X49500Y-44404D02*
X50700Y-44404D01*
X49500Y-43404D02*
X50700Y-43404D01*
X49500Y-42404D02*
X50700Y-42404D01*
X49500Y-41404D02*
X50700Y-41404D01*
X49500Y-40404D02*
X50700Y-40404D01*
X49500Y-39404D02*
X50700Y-39404D01*
X49500Y-38404D02*
X50700Y-38404D01*
X49500Y-37404D02*
X50700Y-37404D01*
X49500Y-36404D02*
X50700Y-36404D01*
X49500Y-35404D02*
X50700Y-35404D01*
X49500Y-34404D02*
X50700Y-34404D01*
X45000Y-52504D02*
X50000Y-52504D01*
X45000Y-28304D02*
X45000Y-52504D01*
X50000Y-52504D02*
X50000Y-28304D01*
X47500Y-28304D02*
X45000Y-28304D01*
X47500Y-28304D02*
X50000Y-28304D01*
X28740Y-28504D02*
X31890Y-28504D01*
X31890Y-28504D02*
X31890Y-32126D01*
X31890Y-32126D02*
X28740Y-32126D01*
X28740Y-32126D02*
X28740Y-28504D01*
G54D13*
X51150Y-46850D02*
X51150Y-45950D01*
X51150Y-45950D02*
X51650Y-45950D01*
X51650Y-45950D02*
X51650Y-46850D01*
X51650Y-46850D02*
X51150Y-46850D01*
X61150Y-46850D02*
X61150Y-45950D01*
X61150Y-45950D02*
X61650Y-45950D01*
X61650Y-45950D02*
X61650Y-46850D01*
X61650Y-46850D02*
X61150Y-46850D01*
X71150Y-46850D02*
X71150Y-45950D01*
X71150Y-45950D02*
X71650Y-45950D01*
X71650Y-45950D02*
X71650Y-46850D01*
X71650Y-46850D02*
X71150Y-46850D01*
X81150Y-46850D02*
X81150Y-45950D01*
X81150Y-45950D02*
X81650Y-45950D01*
X81650Y-45950D02*
X81650Y-46850D01*
X81650Y-46850D02*
X81150Y-46850D01*
X91150Y-46850D02*
X91150Y-45950D01*
X91150Y-45950D02*
X91650Y-45950D01*
X91650Y-45950D02*
X91650Y-46850D01*
X91650Y-46850D02*
X91150Y-46850D01*
G54D10*
X30500Y-41400D02*
X29500Y-41400D01*
X29500Y-41400D02*
X29500Y-39400D01*
X29500Y-39400D02*
X30500Y-39400D01*
X30500Y-39400D02*
X30500Y-41400D01*
G54D12*
X35000Y-48600D02*
X34500Y-48600D01*
X40000Y-48600D02*
X40500Y-48600D01*
X35050Y-28300D02*
X34500Y-28300D01*
X40000Y-28300D02*
X40500Y-28300D01*
X36900Y-28300D02*
X36903Y-28352D01*
X36910Y-28404D01*
X36921Y-28455D01*
X36937Y-28505D01*
X36957Y-28553D01*
X36981Y-28599D01*
X37009Y-28644D01*
X37041Y-28685D01*
X37076Y-28724D01*
X37115Y-28759D01*
X37156Y-28791D01*
X37201Y-28819D01*
X37247Y-28843D01*
X37295Y-28863D01*
X37345Y-28879D01*
X37396Y-28890D01*
X37448Y-28897D01*
X37500Y-28900D01*
X37500Y-28900D02*
X37552Y-28897D01*
X37604Y-28890D01*
X37655Y-28879D01*
X37705Y-28863D01*
X37753Y-28843D01*
X37800Y-28819D01*
X37844Y-28791D01*
X37885Y-28759D01*
X37924Y-28724D01*
X37959Y-28685D01*
X37991Y-28644D01*
X38019Y-28599D01*
X38043Y-28553D01*
X38063Y-28505D01*
X38079Y-28455D01*
X38090Y-28404D01*
X38097Y-28352D01*
X38100Y-28300D01*
X35000Y-28300D02*
X36900Y-28300D01*
X40000Y-28300D02*
X38100Y-28300D01*
X34500Y-28350D02*
X34500Y-48600D01*
X35000Y-48600D02*
X40000Y-48600D01*
X40500Y-48600D02*
X40500Y-28350D01*
G54D11*
X85543Y-30861D02*
X86029Y-30861D01*
X86086Y-30833D01*
X86114Y-30804D01*
X86143Y-30747D01*
X86143Y-30633D01*
X86114Y-30575D01*
X86086Y-30547D01*
X86029Y-30518D01*
X85543Y-30518D01*
X85543Y-29946D02*
X85543Y-30232D01*
X85829Y-30261D01*
X85800Y-30232D01*
X85771Y-30175D01*
X85771Y-30032D01*
X85800Y-29975D01*
X85829Y-29946D01*
X85886Y-29918D01*
X86029Y-29918D01*
X86086Y-29946D01*
X86114Y-29975D01*
X86143Y-30032D01*
X86143Y-30175D01*
X86114Y-30232D01*
X86086Y-30261D01*
X85743Y-51060D02*
X85743Y-50717D01*
X86343Y-50888D02*
X85743Y-50888D01*
X86171Y-50546D02*
X86171Y-50260D01*
X86343Y-50603D02*
X85743Y-50403D01*
X86343Y-50203D01*
X85743Y-49889D02*
X85743Y-49775D01*
X85771Y-49717D01*
X85829Y-49660D01*
X85943Y-49632D01*
X86143Y-49632D01*
X86257Y-49660D01*
X86314Y-49717D01*
X86343Y-49775D01*
X86343Y-49889D01*
X86314Y-49946D01*
X86257Y-50003D01*
X86143Y-50032D01*
X85943Y-50032D01*
X85829Y-50003D01*
X85771Y-49946D01*
X85743Y-49889D01*
X86314Y-49403D02*
X86343Y-49317D01*
X86343Y-49174D01*
X86314Y-49117D01*
X86286Y-49088D01*
X86229Y-49060D01*
X86171Y-49060D01*
X86114Y-49088D01*
X86086Y-49117D01*
X86057Y-49174D01*
X86029Y-49288D01*
X86000Y-49346D01*
X85971Y-49374D01*
X85914Y-49403D01*
X85857Y-49403D01*
X85800Y-49374D01*
X85771Y-49346D01*
X85743Y-49288D01*
X85743Y-49146D01*
X85771Y-49060D01*
X86400Y-48946D02*
X86400Y-48489D01*
X85743Y-48432D02*
X85743Y-48089D01*
X86343Y-48260D02*
X85743Y-48260D01*
X86314Y-47918D02*
X86343Y-47832D01*
X86343Y-47689D01*
X86314Y-47632D01*
X86286Y-47603D01*
X86229Y-47575D01*
X86171Y-47575D01*
X86114Y-47603D01*
X86086Y-47632D01*
X86057Y-47689D01*
X86029Y-47803D01*
X86000Y-47861D01*
X85971Y-47889D01*
X85914Y-47918D01*
X85857Y-47918D01*
X85800Y-47889D01*
X85771Y-47861D01*
X85743Y-47803D01*
X85743Y-47661D01*
X85771Y-47575D01*
X86343Y-47032D02*
X86343Y-47318D01*
X85743Y-47318D01*
X86343Y-46518D02*
X86343Y-46861D01*
X86343Y-46689D02*
X85743Y-46689D01*
X85829Y-46746D01*
X85886Y-46804D01*
X85914Y-46861D01*
X85943Y-46004D02*
X86343Y-46004D01*
X85714Y-46147D02*
X86143Y-46290D01*
X86143Y-45918D01*
X85743Y-45576D02*
X85743Y-45519D01*
X85771Y-45462D01*
X85800Y-45433D01*
X85857Y-45404D01*
X85971Y-45376D01*
X86114Y-45376D01*
X86229Y-45404D01*
X86286Y-45433D01*
X86314Y-45462D01*
X86343Y-45519D01*
X86343Y-45576D01*
X86314Y-45633D01*
X86286Y-45662D01*
X86229Y-45690D01*
X86114Y-45719D01*
X85971Y-45719D01*
X85857Y-45690D01*
X85800Y-45662D01*
X85771Y-45633D01*
X85743Y-45576D01*
X85743Y-44862D02*
X85743Y-44976D01*
X85771Y-45033D01*
X85800Y-45062D01*
X85886Y-45119D01*
X86000Y-45148D01*
X86229Y-45148D01*
X86286Y-45119D01*
X86314Y-45091D01*
X86343Y-45033D01*
X86343Y-44919D01*
X86314Y-44862D01*
X86286Y-44833D01*
X86229Y-44805D01*
X86086Y-44805D01*
X86029Y-44833D01*
X86000Y-44862D01*
X85971Y-44919D01*
X85971Y-45033D01*
X86000Y-45091D01*
X86029Y-45119D01*
X86086Y-45148D01*
X86343Y-44205D02*
X86057Y-44405D01*
X86343Y-44548D02*
X85743Y-44548D01*
X85743Y-44320D01*
X85771Y-44262D01*
X85800Y-44234D01*
X85857Y-44205D01*
X85943Y-44205D01*
X86000Y-44234D01*
X86029Y-44262D01*
X86057Y-44320D01*
X86057Y-44548D01*
X75543Y-30861D02*
X76029Y-30861D01*
X76086Y-30833D01*
X76114Y-30804D01*
X76143Y-30747D01*
X76143Y-30633D01*
X76114Y-30575D01*
X76086Y-30547D01*
X76029Y-30518D01*
X75543Y-30518D01*
X75743Y-29975D02*
X76143Y-29975D01*
X75514Y-30118D02*
X75943Y-30261D01*
X75943Y-29889D01*
X75743Y-51060D02*
X75743Y-50717D01*
X76343Y-50888D02*
X75743Y-50888D01*
X76171Y-50546D02*
X76171Y-50260D01*
X76343Y-50603D02*
X75743Y-50403D01*
X76343Y-50203D01*
X75743Y-49889D02*
X75743Y-49775D01*
X75771Y-49717D01*
X75829Y-49660D01*
X75943Y-49632D01*
X76143Y-49632D01*
X76257Y-49660D01*
X76314Y-49717D01*
X76343Y-49775D01*
X76343Y-49889D01*
X76314Y-49946D01*
X76257Y-50003D01*
X76143Y-50032D01*
X75943Y-50032D01*
X75829Y-50003D01*
X75771Y-49946D01*
X75743Y-49889D01*
X76314Y-49403D02*
X76343Y-49317D01*
X76343Y-49174D01*
X76314Y-49117D01*
X76286Y-49088D01*
X76229Y-49060D01*
X76171Y-49060D01*
X76114Y-49088D01*
X76086Y-49117D01*
X76057Y-49174D01*
X76029Y-49288D01*
X76000Y-49346D01*
X75971Y-49374D01*
X75914Y-49403D01*
X75857Y-49403D01*
X75800Y-49374D01*
X75771Y-49346D01*
X75743Y-49288D01*
X75743Y-49146D01*
X75771Y-49060D01*
X76400Y-48946D02*
X76400Y-48489D01*
X75743Y-48432D02*
X75743Y-48089D01*
X76343Y-48260D02*
X75743Y-48260D01*
X76314Y-47918D02*
X76343Y-47832D01*
X76343Y-47689D01*
X76314Y-47632D01*
X76286Y-47603D01*
X76229Y-47575D01*
X76171Y-47575D01*
X76114Y-47603D01*
X76086Y-47632D01*
X76057Y-47689D01*
X76029Y-47803D01*
X76000Y-47861D01*
X75971Y-47889D01*
X75914Y-47918D01*
X75857Y-47918D01*
X75800Y-47889D01*
X75771Y-47861D01*
X75743Y-47803D01*
X75743Y-47661D01*
X75771Y-47575D01*
X76343Y-47032D02*
X76343Y-47318D01*
X75743Y-47318D01*
X76343Y-46518D02*
X76343Y-46861D01*
X76343Y-46689D02*
X75743Y-46689D01*
X75829Y-46746D01*
X75886Y-46804D01*
X75914Y-46861D01*
X75943Y-46004D02*
X76343Y-46004D01*
X75714Y-46147D02*
X76143Y-46290D01*
X76143Y-45918D01*
X75743Y-45576D02*
X75743Y-45519D01*
X75771Y-45462D01*
X75800Y-45433D01*
X75857Y-45404D01*
X75971Y-45376D01*
X76114Y-45376D01*
X76229Y-45404D01*
X76286Y-45433D01*
X76314Y-45462D01*
X76343Y-45519D01*
X76343Y-45576D01*
X76314Y-45633D01*
X76286Y-45662D01*
X76229Y-45690D01*
X76114Y-45719D01*
X75971Y-45719D01*
X75857Y-45690D01*
X75800Y-45662D01*
X75771Y-45633D01*
X75743Y-45576D01*
X75743Y-44862D02*
X75743Y-44976D01*
X75771Y-45033D01*
X75800Y-45062D01*
X75886Y-45119D01*
X76000Y-45148D01*
X76229Y-45148D01*
X76286Y-45119D01*
X76314Y-45091D01*
X76343Y-45033D01*
X76343Y-44919D01*
X76314Y-44862D01*
X76286Y-44833D01*
X76229Y-44805D01*
X76086Y-44805D01*
X76029Y-44833D01*
X76000Y-44862D01*
X75971Y-44919D01*
X75971Y-45033D01*
X76000Y-45091D01*
X76029Y-45119D01*
X76086Y-45148D01*
X76343Y-44205D02*
X76057Y-44405D01*
X76343Y-44548D02*
X75743Y-44548D01*
X75743Y-44320D01*
X75771Y-44262D01*
X75800Y-44234D01*
X75857Y-44205D01*
X75943Y-44205D01*
X76000Y-44234D01*
X76029Y-44262D01*
X76057Y-44320D01*
X76057Y-44548D01*
X65543Y-30861D02*
X66029Y-30861D01*
X66086Y-30833D01*
X66114Y-30804D01*
X66143Y-30747D01*
X66143Y-30633D01*
X66114Y-30575D01*
X66086Y-30547D01*
X66029Y-30518D01*
X65543Y-30518D01*
X65543Y-30289D02*
X65543Y-29918D01*
X65771Y-30118D01*
X65771Y-30032D01*
X65800Y-29975D01*
X65829Y-29946D01*
X65886Y-29918D01*
X66029Y-29918D01*
X66086Y-29946D01*
X66114Y-29975D01*
X66143Y-30032D01*
X66143Y-30204D01*
X66114Y-30261D01*
X66086Y-30289D01*
X65743Y-51060D02*
X65743Y-50717D01*
X66343Y-50888D02*
X65743Y-50888D01*
X66171Y-50546D02*
X66171Y-50260D01*
X66343Y-50603D02*
X65743Y-50403D01*
X66343Y-50203D01*
X65743Y-49889D02*
X65743Y-49775D01*
X65771Y-49717D01*
X65829Y-49660D01*
X65943Y-49632D01*
X66143Y-49632D01*
X66257Y-49660D01*
X66314Y-49717D01*
X66343Y-49775D01*
X66343Y-49889D01*
X66314Y-49946D01*
X66257Y-50003D01*
X66143Y-50032D01*
X65943Y-50032D01*
X65829Y-50003D01*
X65771Y-49946D01*
X65743Y-49889D01*
X66314Y-49403D02*
X66343Y-49317D01*
X66343Y-49174D01*
X66314Y-49117D01*
X66286Y-49088D01*
X66229Y-49060D01*
X66171Y-49060D01*
X66114Y-49088D01*
X66086Y-49117D01*
X66057Y-49174D01*
X66029Y-49288D01*
X66000Y-49346D01*
X65971Y-49374D01*
X65914Y-49403D01*
X65857Y-49403D01*
X65800Y-49374D01*
X65771Y-49346D01*
X65743Y-49288D01*
X65743Y-49146D01*
X65771Y-49060D01*
X66400Y-48946D02*
X66400Y-48489D01*
X65743Y-48432D02*
X65743Y-48089D01*
X66343Y-48260D02*
X65743Y-48260D01*
X66314Y-47918D02*
X66343Y-47832D01*
X66343Y-47689D01*
X66314Y-47632D01*
X66286Y-47603D01*
X66229Y-47575D01*
X66171Y-47575D01*
X66114Y-47603D01*
X66086Y-47632D01*
X66057Y-47689D01*
X66029Y-47803D01*
X66000Y-47861D01*
X65971Y-47889D01*
X65914Y-47918D01*
X65857Y-47918D01*
X65800Y-47889D01*
X65771Y-47861D01*
X65743Y-47803D01*
X65743Y-47661D01*
X65771Y-47575D01*
X66343Y-47032D02*
X66343Y-47318D01*
X65743Y-47318D01*
X66343Y-46518D02*
X66343Y-46861D01*
X66343Y-46689D02*
X65743Y-46689D01*
X65829Y-46746D01*
X65886Y-46804D01*
X65914Y-46861D01*
X65943Y-46004D02*
X66343Y-46004D01*
X65714Y-46147D02*
X66143Y-46290D01*
X66143Y-45918D01*
X65743Y-45576D02*
X65743Y-45519D01*
X65771Y-45462D01*
X65800Y-45433D01*
X65857Y-45404D01*
X65971Y-45376D01*
X66114Y-45376D01*
X66229Y-45404D01*
X66286Y-45433D01*
X66314Y-45462D01*
X66343Y-45519D01*
X66343Y-45576D01*
X66314Y-45633D01*
X66286Y-45662D01*
X66229Y-45690D01*
X66114Y-45719D01*
X65971Y-45719D01*
X65857Y-45690D01*
X65800Y-45662D01*
X65771Y-45633D01*
X65743Y-45576D01*
X65743Y-44862D02*
X65743Y-44976D01*
X65771Y-45033D01*
X65800Y-45062D01*
X65886Y-45119D01*
X66000Y-45148D01*
X66229Y-45148D01*
X66286Y-45119D01*
X66314Y-45091D01*
X66343Y-45033D01*
X66343Y-44919D01*
X66314Y-44862D01*
X66286Y-44833D01*
X66229Y-44805D01*
X66086Y-44805D01*
X66029Y-44833D01*
X66000Y-44862D01*
X65971Y-44919D01*
X65971Y-45033D01*
X66000Y-45091D01*
X66029Y-45119D01*
X66086Y-45148D01*
X66343Y-44205D02*
X66057Y-44405D01*
X66343Y-44548D02*
X65743Y-44548D01*
X65743Y-44320D01*
X65771Y-44262D01*
X65800Y-44234D01*
X65857Y-44205D01*
X65943Y-44205D01*
X66000Y-44234D01*
X66029Y-44262D01*
X66057Y-44320D01*
X66057Y-44548D01*
X55543Y-30861D02*
X56029Y-30861D01*
X56086Y-30833D01*
X56114Y-30804D01*
X56143Y-30747D01*
X56143Y-30633D01*
X56114Y-30575D01*
X56086Y-30547D01*
X56029Y-30518D01*
X55543Y-30518D01*
X55600Y-30261D02*
X55571Y-30232D01*
X55543Y-30175D01*
X55543Y-30032D01*
X55571Y-29975D01*
X55600Y-29946D01*
X55657Y-29918D01*
X55714Y-29918D01*
X55800Y-29946D01*
X56143Y-30289D01*
X56143Y-29918D01*
X55743Y-51060D02*
X55743Y-50717D01*
X56343Y-50888D02*
X55743Y-50888D01*
X56171Y-50546D02*
X56171Y-50260D01*
X56343Y-50603D02*
X55743Y-50403D01*
X56343Y-50203D01*
X55743Y-49889D02*
X55743Y-49775D01*
X55771Y-49717D01*
X55829Y-49660D01*
X55943Y-49632D01*
X56143Y-49632D01*
X56257Y-49660D01*
X56314Y-49717D01*
X56343Y-49775D01*
X56343Y-49889D01*
X56314Y-49946D01*
X56257Y-50003D01*
X56143Y-50032D01*
X55943Y-50032D01*
X55829Y-50003D01*
X55771Y-49946D01*
X55743Y-49889D01*
X56314Y-49403D02*
X56343Y-49317D01*
X56343Y-49174D01*
X56314Y-49117D01*
X56286Y-49088D01*
X56229Y-49060D01*
X56171Y-49060D01*
X56114Y-49088D01*
X56086Y-49117D01*
X56057Y-49174D01*
X56029Y-49288D01*
X56000Y-49346D01*
X55971Y-49374D01*
X55914Y-49403D01*
X55857Y-49403D01*
X55800Y-49374D01*
X55771Y-49346D01*
X55743Y-49288D01*
X55743Y-49146D01*
X55771Y-49060D01*
X56400Y-48946D02*
X56400Y-48489D01*
X55743Y-48432D02*
X55743Y-48089D01*
X56343Y-48260D02*
X55743Y-48260D01*
X56314Y-47918D02*
X56343Y-47832D01*
X56343Y-47689D01*
X56314Y-47632D01*
X56286Y-47603D01*
X56229Y-47575D01*
X56171Y-47575D01*
X56114Y-47603D01*
X56086Y-47632D01*
X56057Y-47689D01*
X56029Y-47803D01*
X56000Y-47861D01*
X55971Y-47889D01*
X55914Y-47918D01*
X55857Y-47918D01*
X55800Y-47889D01*
X55771Y-47861D01*
X55743Y-47803D01*
X55743Y-47661D01*
X55771Y-47575D01*
X56343Y-47032D02*
X56343Y-47318D01*
X55743Y-47318D01*
X56343Y-46518D02*
X56343Y-46861D01*
X56343Y-46689D02*
X55743Y-46689D01*
X55829Y-46746D01*
X55886Y-46804D01*
X55914Y-46861D01*
X55943Y-46004D02*
X56343Y-46004D01*
X55714Y-46147D02*
X56143Y-46290D01*
X56143Y-45918D01*
X55743Y-45576D02*
X55743Y-45519D01*
X55771Y-45462D01*
X55800Y-45433D01*
X55857Y-45404D01*
X55971Y-45376D01*
X56114Y-45376D01*
X56229Y-45404D01*
X56286Y-45433D01*
X56314Y-45462D01*
X56343Y-45519D01*
X56343Y-45576D01*
X56314Y-45633D01*
X56286Y-45662D01*
X56229Y-45690D01*
X56114Y-45719D01*
X55971Y-45719D01*
X55857Y-45690D01*
X55800Y-45662D01*
X55771Y-45633D01*
X55743Y-45576D01*
X55743Y-44862D02*
X55743Y-44976D01*
X55771Y-45033D01*
X55800Y-45062D01*
X55886Y-45119D01*
X56000Y-45148D01*
X56229Y-45148D01*
X56286Y-45119D01*
X56314Y-45091D01*
X56343Y-45033D01*
X56343Y-44919D01*
X56314Y-44862D01*
X56286Y-44833D01*
X56229Y-44805D01*
X56086Y-44805D01*
X56029Y-44833D01*
X56000Y-44862D01*
X55971Y-44919D01*
X55971Y-45033D01*
X56000Y-45091D01*
X56029Y-45119D01*
X56086Y-45148D01*
X56343Y-44205D02*
X56057Y-44405D01*
X56343Y-44548D02*
X55743Y-44548D01*
X55743Y-44320D01*
X55771Y-44262D01*
X55800Y-44234D01*
X55857Y-44205D01*
X55943Y-44205D01*
X56000Y-44234D01*
X56029Y-44262D01*
X56057Y-44320D01*
X56057Y-44548D01*
X45543Y-30861D02*
X46029Y-30861D01*
X46086Y-30833D01*
X46114Y-30804D01*
X46143Y-30747D01*
X46143Y-30633D01*
X46114Y-30575D01*
X46086Y-30547D01*
X46029Y-30518D01*
X45543Y-30518D01*
X46143Y-29918D02*
X46143Y-30261D01*
X46143Y-30089D02*
X45543Y-30089D01*
X45629Y-30146D01*
X45686Y-30204D01*
X45714Y-30261D01*
X45743Y-51060D02*
X45743Y-50717D01*
X46343Y-50888D02*
X45743Y-50888D01*
X46171Y-50546D02*
X46171Y-50260D01*
X46343Y-50603D02*
X45743Y-50403D01*
X46343Y-50203D01*
X45743Y-49889D02*
X45743Y-49775D01*
X45771Y-49717D01*
X45829Y-49660D01*
X45943Y-49632D01*
X46143Y-49632D01*
X46257Y-49660D01*
X46314Y-49717D01*
X46343Y-49775D01*
X46343Y-49889D01*
X46314Y-49946D01*
X46257Y-50003D01*
X46143Y-50032D01*
X45943Y-50032D01*
X45829Y-50003D01*
X45771Y-49946D01*
X45743Y-49889D01*
X46314Y-49403D02*
X46343Y-49317D01*
X46343Y-49174D01*
X46314Y-49117D01*
X46286Y-49088D01*
X46229Y-49060D01*
X46171Y-49060D01*
X46114Y-49088D01*
X46086Y-49117D01*
X46057Y-49174D01*
X46029Y-49288D01*
X46000Y-49346D01*
X45971Y-49374D01*
X45914Y-49403D01*
X45857Y-49403D01*
X45800Y-49374D01*
X45771Y-49346D01*
X45743Y-49288D01*
X45743Y-49146D01*
X45771Y-49060D01*
X46400Y-48946D02*
X46400Y-48489D01*
X45743Y-48432D02*
X45743Y-48089D01*
X46343Y-48260D02*
X45743Y-48260D01*
X46314Y-47918D02*
X46343Y-47832D01*
X46343Y-47689D01*
X46314Y-47632D01*
X46286Y-47603D01*
X46229Y-47575D01*
X46171Y-47575D01*
X46114Y-47603D01*
X46086Y-47632D01*
X46057Y-47689D01*
X46029Y-47803D01*
X46000Y-47861D01*
X45971Y-47889D01*
X45914Y-47918D01*
X45857Y-47918D01*
X45800Y-47889D01*
X45771Y-47861D01*
X45743Y-47803D01*
X45743Y-47661D01*
X45771Y-47575D01*
X46343Y-47032D02*
X46343Y-47318D01*
X45743Y-47318D01*
X46343Y-46518D02*
X46343Y-46861D01*
X46343Y-46689D02*
X45743Y-46689D01*
X45829Y-46746D01*
X45886Y-46804D01*
X45914Y-46861D01*
X45943Y-46004D02*
X46343Y-46004D01*
X45714Y-46147D02*
X46143Y-46290D01*
X46143Y-45918D01*
X45743Y-45576D02*
X45743Y-45519D01*
X45771Y-45462D01*
X45800Y-45433D01*
X45857Y-45404D01*
X45971Y-45376D01*
X46114Y-45376D01*
X46229Y-45404D01*
X46286Y-45433D01*
X46314Y-45462D01*
X46343Y-45519D01*
X46343Y-45576D01*
X46314Y-45633D01*
X46286Y-45662D01*
X46229Y-45690D01*
X46114Y-45719D01*
X45971Y-45719D01*
X45857Y-45690D01*
X45800Y-45662D01*
X45771Y-45633D01*
X45743Y-45576D01*
X45743Y-44862D02*
X45743Y-44976D01*
X45771Y-45033D01*
X45800Y-45062D01*
X45886Y-45119D01*
X46000Y-45148D01*
X46229Y-45148D01*
X46286Y-45119D01*
X46314Y-45091D01*
X46343Y-45033D01*
X46343Y-44919D01*
X46314Y-44862D01*
X46286Y-44833D01*
X46229Y-44805D01*
X46086Y-44805D01*
X46029Y-44833D01*
X46000Y-44862D01*
X45971Y-44919D01*
X45971Y-45033D01*
X46000Y-45091D01*
X46029Y-45119D01*
X46086Y-45148D01*
X46343Y-44205D02*
X46057Y-44405D01*
X46343Y-44548D02*
X45743Y-44548D01*
X45743Y-44320D01*
X45771Y-44262D01*
X45800Y-44234D01*
X45857Y-44205D01*
X45943Y-44205D01*
X46000Y-44234D01*
X46029Y-44262D01*
X46057Y-44320D01*
X46057Y-44548D01*
X29958Y-33143D02*
X29958Y-32543D01*
X30186Y-32543D01*
X30244Y-32571D01*
X30272Y-32600D01*
X30301Y-32657D01*
X30301Y-32743D01*
X30272Y-32800D01*
X30244Y-32829D01*
X30186Y-32857D01*
X29958Y-32857D01*
X30872Y-33143D02*
X30529Y-33143D01*
X30701Y-33143D02*
X30701Y-32543D01*
X30644Y-32629D01*
X30586Y-32686D01*
X30529Y-32714D01*
G54D14*
X51487Y-47329D02*
X51500Y-47338D01*
X51513Y-47364D01*
X51513Y-47381D01*
X51500Y-47406D01*
X51473Y-47424D01*
X51447Y-47432D01*
X51393Y-47441D01*
X51353Y-47441D01*
X51300Y-47432D01*
X51273Y-47424D01*
X51247Y-47406D01*
X51233Y-47381D01*
X51233Y-47364D01*
X51247Y-47338D01*
X51260Y-47329D01*
X51513Y-47158D02*
X51513Y-47261D01*
X51513Y-47209D02*
X51233Y-47209D01*
X51273Y-47226D01*
X51300Y-47244D01*
X51313Y-47261D01*
X61487Y-47429D02*
X61500Y-47438D01*
X61513Y-47464D01*
X61513Y-47481D01*
X61500Y-47506D01*
X61473Y-47524D01*
X61447Y-47532D01*
X61393Y-47541D01*
X61353Y-47541D01*
X61300Y-47532D01*
X61273Y-47524D01*
X61247Y-47506D01*
X61233Y-47481D01*
X61233Y-47464D01*
X61247Y-47438D01*
X61260Y-47429D01*
X61260Y-47361D02*
X61247Y-47352D01*
X61233Y-47335D01*
X61233Y-47292D01*
X61247Y-47275D01*
X61260Y-47266D01*
X61287Y-47258D01*
X61313Y-47258D01*
X61353Y-47266D01*
X61513Y-47369D01*
X61513Y-47258D01*
X71487Y-47329D02*
X71500Y-47338D01*
X71513Y-47364D01*
X71513Y-47381D01*
X71500Y-47406D01*
X71473Y-47424D01*
X71447Y-47432D01*
X71393Y-47441D01*
X71353Y-47441D01*
X71300Y-47432D01*
X71273Y-47424D01*
X71247Y-47406D01*
X71233Y-47381D01*
X71233Y-47364D01*
X71247Y-47338D01*
X71260Y-47329D01*
X71233Y-47269D02*
X71233Y-47158D01*
X71340Y-47218D01*
X71340Y-47192D01*
X71353Y-47175D01*
X71367Y-47166D01*
X71393Y-47158D01*
X71460Y-47158D01*
X71487Y-47166D01*
X71500Y-47175D01*
X71513Y-47192D01*
X71513Y-47244D01*
X71500Y-47261D01*
X71487Y-47269D01*
X81487Y-47329D02*
X81500Y-47338D01*
X81513Y-47364D01*
X81513Y-47381D01*
X81500Y-47406D01*
X81473Y-47424D01*
X81447Y-47432D01*
X81393Y-47441D01*
X81353Y-47441D01*
X81300Y-47432D01*
X81273Y-47424D01*
X81247Y-47406D01*
X81233Y-47381D01*
X81233Y-47364D01*
X81247Y-47338D01*
X81260Y-47329D01*
X81327Y-47175D02*
X81513Y-47175D01*
X81220Y-47218D02*
X81420Y-47261D01*
X81420Y-47149D01*
X91487Y-47329D02*
X91500Y-47338D01*
X91513Y-47364D01*
X91513Y-47381D01*
X91500Y-47406D01*
X91473Y-47424D01*
X91447Y-47432D01*
X91393Y-47441D01*
X91353Y-47441D01*
X91300Y-47432D01*
X91273Y-47424D01*
X91247Y-47406D01*
X91233Y-47381D01*
X91233Y-47364D01*
X91247Y-47338D01*
X91260Y-47329D01*
X91233Y-47166D02*
X91233Y-47252D01*
X91367Y-47261D01*
X91353Y-47252D01*
X91340Y-47235D01*
X91340Y-47192D01*
X91353Y-47175D01*
X91367Y-47166D01*
X91393Y-47158D01*
X91460Y-47158D01*
X91487Y-47166D01*
X91500Y-47175D01*
X91513Y-47192D01*
X91513Y-47235D01*
X91500Y-47252D01*
X91487Y-47261D01*
G54D10*
X30021Y-38922D02*
X29721Y-38922D01*
X29721Y-38807D01*
X29736Y-38779D01*
X29750Y-38764D01*
X29779Y-38750D01*
X29821Y-38750D01*
X29850Y-38764D01*
X29864Y-38779D01*
X29879Y-38807D01*
X29879Y-38922D01*
X29750Y-38636D02*
X29736Y-38622D01*
X29721Y-38593D01*
X29721Y-38522D01*
X29736Y-38493D01*
X29750Y-38479D01*
X29779Y-38464D01*
X29807Y-38464D01*
X29850Y-38479D01*
X30021Y-38650D01*
X30021Y-38464D01*
G54D11*
X37143Y-39153D02*
X37629Y-39153D01*
X37686Y-39125D01*
X37714Y-39096D01*
X37743Y-39039D01*
X37743Y-38925D01*
X37714Y-38867D01*
X37686Y-38839D01*
X37629Y-38810D01*
X37143Y-38810D01*
X37143Y-38267D02*
X37143Y-38381D01*
X37171Y-38438D01*
X37200Y-38467D01*
X37286Y-38524D01*
X37400Y-38553D01*
X37629Y-38553D01*
X37686Y-38524D01*
X37714Y-38496D01*
X37743Y-38438D01*
X37743Y-38324D01*
X37714Y-38267D01*
X37686Y-38238D01*
X37629Y-38210D01*
X37486Y-38210D01*
X37429Y-38238D01*
X37400Y-38267D01*
X37371Y-38324D01*
X37371Y-38438D01*
X37400Y-38496D01*
X37429Y-38524D01*
X37486Y-38553D01*
X35107Y-49643D02*
X35107Y-49043D01*
X35307Y-49471D01*
X35507Y-49043D01*
X35507Y-49643D01*
X35764Y-49471D02*
X36050Y-49471D01*
X35707Y-49643D02*
X35907Y-49043D01*
X36107Y-49643D01*
X36307Y-49643D02*
X36307Y-49043D01*
X36535Y-49043D01*
X36593Y-49071D01*
X36621Y-49100D01*
X36650Y-49157D01*
X36650Y-49243D01*
X36621Y-49300D01*
X36593Y-49329D01*
X36535Y-49357D01*
X36307Y-49357D01*
X37193Y-49643D02*
X36907Y-49643D01*
X36907Y-49043D01*
X37393Y-49329D02*
X37593Y-49329D01*
X37679Y-49643D02*
X37393Y-49643D01*
X37393Y-49043D01*
X37679Y-49043D01*
X37793Y-49700D02*
X38250Y-49700D01*
X38393Y-49643D02*
X38393Y-49043D01*
X38593Y-49471D01*
X38793Y-49043D01*
X38793Y-49643D01*
X39079Y-49643D02*
X39079Y-49043D01*
X39365Y-49643D02*
X39365Y-49043D01*
X39708Y-49643D01*
X39708Y-49043D01*
X39994Y-49643D02*
X39994Y-49043D01*
M02*
