M48
;DRILL file {PCBnew (2011-07-19)-testing} date Fri 17 Feb 2012 12:28:40 PM PST
;FORMAT={2:4/ absolute / inch / suppress trailing zeros}
FMAT,2
INCH,LZ
T1C0.030
T2C0.039
T3C0.040
T4C0.096
T5C0.116
%
G90
G05
M72
T1
X0495Y-034404
X0495Y-035404
X0495Y-036404
X0495Y-037404
X0495Y-038404
X0495Y-039404
X0495Y-040404
X0495Y-041404
X0495Y-042404
X0495Y-043404
X0495Y-044404
X0495Y-045404
X0495Y-046404
X0595Y-034404
X0595Y-035404
X0595Y-036404
X0595Y-037404
X0595Y-038404
X0595Y-039404
X0595Y-040404
X0595Y-041404
X0595Y-042404
X0595Y-043404
X0595Y-044404
X0595Y-045404
X0595Y-046404
X0695Y-034404
X0695Y-035404
X0695Y-036404
X0695Y-037404
X0695Y-038404
X0695Y-039404
X0695Y-040404
X0695Y-041404
X0695Y-042404
X0695Y-043404
X0695Y-044404
X0695Y-045404
X0695Y-046404
X0795Y-034404
X0795Y-035404
X0795Y-036404
X0795Y-037404
X0795Y-038404
X0795Y-039404
X0795Y-040404
X0795Y-041404
X0795Y-042404
X0795Y-043404
X0795Y-044404
X0795Y-045404
X0795Y-046404
X0895Y-034404
X0895Y-035404
X0895Y-036404
X0895Y-037404
X0895Y-038404
X0895Y-039404
X0895Y-040404
X0895Y-041404
X0895Y-042404
X0895Y-043404
X0895Y-044404
X0895Y-045404
X0895Y-046404
T2
X030315Y-029587
X030315Y-031555
T3
X03Y-0399
X03Y-0409
T4
X026Y-02935
X026Y-05145
X094Y-02935
X094Y-05145
T5
X04728Y-029104
X04728Y-051704
X05728Y-029104
X05728Y-051704
X06728Y-029104
X06728Y-051704
X07728Y-029104
X07728Y-051704
X08728Y-029104
X08728Y-051704
T0
M30
