G04 (created by PCBNEW-RS274X (2011-07-19)-testing) date Fri 17 Feb 2012 12:28:35 PM PST*
G01*
G70*
G90*
%MOIN*%
G04 Gerber Fmt 3.4, Leading zero omitted, Abs format*
%FSLAX34Y34*%
G04 APERTURE LIST*
%ADD10C,0.006000*%
%ADD11R,0.120000X0.070000*%
%ADD12C,0.136000*%
%ADD13C,0.059000*%
%ADD14R,0.087000X0.130000*%
%ADD15R,0.122400X0.130000*%
%ADD16R,0.065000X0.045000*%
%ADD17R,0.080000X0.080000*%
%ADD18C,0.080000*%
%ADD19R,0.098700X0.059400*%
%ADD20C,0.153900*%
G04 APERTURE END LIST*
G54D10*
G54D11*
X89500Y-34404D03*
X89500Y-35404D03*
X89500Y-36404D03*
X89500Y-37404D03*
X89500Y-38404D03*
X89500Y-39404D03*
X89500Y-40404D03*
X89500Y-41404D03*
X89500Y-42404D03*
X89500Y-43404D03*
X89500Y-44404D03*
X89500Y-45404D03*
X89500Y-46404D03*
G54D12*
X87280Y-29104D03*
X87280Y-51704D03*
G54D11*
X79500Y-34404D03*
X79500Y-35404D03*
X79500Y-36404D03*
X79500Y-37404D03*
X79500Y-38404D03*
X79500Y-39404D03*
X79500Y-40404D03*
X79500Y-41404D03*
X79500Y-42404D03*
X79500Y-43404D03*
X79500Y-44404D03*
X79500Y-45404D03*
X79500Y-46404D03*
G54D12*
X77280Y-29104D03*
X77280Y-51704D03*
G54D11*
X69500Y-34404D03*
X69500Y-35404D03*
X69500Y-36404D03*
X69500Y-37404D03*
X69500Y-38404D03*
X69500Y-39404D03*
X69500Y-40404D03*
X69500Y-41404D03*
X69500Y-42404D03*
X69500Y-43404D03*
X69500Y-44404D03*
X69500Y-45404D03*
X69500Y-46404D03*
G54D12*
X67280Y-29104D03*
X67280Y-51704D03*
G54D11*
X59500Y-34404D03*
X59500Y-35404D03*
X59500Y-36404D03*
X59500Y-37404D03*
X59500Y-38404D03*
X59500Y-39404D03*
X59500Y-40404D03*
X59500Y-41404D03*
X59500Y-42404D03*
X59500Y-43404D03*
X59500Y-44404D03*
X59500Y-45404D03*
X59500Y-46404D03*
G54D12*
X57280Y-29104D03*
X57280Y-51704D03*
G54D11*
X49500Y-34404D03*
X49500Y-35404D03*
X49500Y-36404D03*
X49500Y-37404D03*
X49500Y-38404D03*
X49500Y-39404D03*
X49500Y-40404D03*
X49500Y-41404D03*
X49500Y-42404D03*
X49500Y-43404D03*
X49500Y-44404D03*
X49500Y-45404D03*
X49500Y-46404D03*
G54D12*
X47280Y-29104D03*
X47280Y-51704D03*
G54D13*
X30315Y-31555D03*
X30315Y-29587D03*
G54D14*
X28520Y-28996D03*
X28520Y-30768D03*
G54D15*
X31929Y-30768D03*
X31929Y-28996D03*
G54D16*
X51400Y-46700D03*
X51400Y-46100D03*
X61400Y-46700D03*
X61400Y-46100D03*
X71400Y-46700D03*
X71400Y-46100D03*
X81400Y-46700D03*
X81400Y-46100D03*
X91400Y-46700D03*
X91400Y-46100D03*
G54D17*
X30000Y-40900D03*
G54D18*
X30000Y-39900D03*
G54D19*
X35154Y-29100D03*
X33850Y-30100D03*
X35154Y-31100D03*
X33850Y-32100D03*
X35154Y-33100D03*
X33850Y-34100D03*
X35154Y-35100D03*
X33850Y-36100D03*
X35154Y-37100D03*
X33850Y-38100D03*
X35154Y-39100D03*
X33850Y-40100D03*
X35154Y-41100D03*
X33850Y-42100D03*
X35154Y-43100D03*
X33850Y-44100D03*
X35154Y-45100D03*
X33850Y-46100D03*
X35154Y-47100D03*
X33850Y-48100D03*
X39846Y-48100D03*
X41150Y-47100D03*
X39846Y-46100D03*
X41150Y-45100D03*
X39846Y-44100D03*
X41150Y-43100D03*
X39846Y-42100D03*
X41150Y-41100D03*
X39846Y-40100D03*
X41150Y-39100D03*
X39846Y-38100D03*
X41150Y-37100D03*
X39846Y-36100D03*
X41150Y-35100D03*
X39846Y-34100D03*
X41150Y-33100D03*
X39846Y-32100D03*
X41150Y-31100D03*
X39846Y-30100D03*
X41150Y-29100D03*
G54D20*
X26000Y-29350D03*
X26000Y-51450D03*
X94000Y-51450D03*
X94000Y-29350D03*
M02*
