  0
SECTION
  2
BLOCKS
  0
ENDSEC
  0
SECTION
  2
ENTITIES
  0
LINE
  8
0
 10
-184.15
 11
-184.15
 20
-150.44
 21
150.44
  0
LINE
  8
0
 10
-184.15
 11
-184.138
 20
150.44
 21
150.628
  0
LINE
  8
0
 10
-184.138
 11
-184.103
 20
150.628
 21
150.813
  0
LINE
  8
0
 10
-184.103
 11
-184.045
 20
150.813
 21
150.992
  0
LINE
  8
0
 10
-184.045
 11
-183.964
 20
150.992
 21
151.163
  0
LINE
  8
0
 10
-183.964
 11
-183.864
 20
151.163
 21
151.322
  0
LINE
  8
0
 10
-183.864
 11
-183.743
 20
151.322
 21
151.467
  0
LINE
  8
0
 10
-183.743
 11
-183.606
 20
151.467
 21
151.596
  0
LINE
  8
0
 10
-183.606
 11
-183.454
 20
151.596
 21
151.706
  0
LINE
  8
0
 10
-183.454
 11
-183.289
 20
151.706
 21
151.797
  0
LINE
  8
0
 10
-183.289
 11
-183.114
 20
151.797
 21
151.867
  0
LINE
  8
0
 10
-183.114
 11
-182.931
 20
151.867
 21
151.913
  0
LINE
  8
0
 10
-182.931
 11
-182.744
 20
151.913
 21
151.937
  0
LINE
  8
0
 10
-182.744
 11
-182.65
 20
151.937
 21
151.937
  0
LINE
  8
0
 10
-182.65
 11
-182.65
 20
151.937
 21
151.94
  0
LINE
  8
0
 10
-182.65
 11
182.65
 20
151.94
 21
151.94
  0
LINE
  8
0
 10
182.65
 11
182.65
 20
151.94
 21
151.937
  0
LINE
  8
0
 10
182.65
 11
182.744
 20
151.937
 21
151.937
  0
LINE
  8
0
 10
182.744
 11
182.931
 20
151.937
 21
151.913
  0
LINE
  8
0
 10
182.931
 11
183.114
 20
151.913
 21
151.867
  0
LINE
  8
0
 10
183.114
 11
183.289
 20
151.867
 21
151.797
  0
LINE
  8
0
 10
183.289
 11
183.454
 20
151.797
 21
151.706
  0
LINE
  8
0
 10
183.454
 11
183.606
 20
151.706
 21
151.596
  0
LINE
  8
0
 10
183.606
 11
183.743
 20
151.596
 21
151.467
  0
LINE
  8
0
 10
183.743
 11
183.864
 20
151.467
 21
151.322
  0
LINE
  8
0
 10
183.864
 11
183.964
 20
151.322
 21
151.163
  0
LINE
  8
0
 10
183.964
 11
184.045
 20
151.163
 21
150.992
  0
LINE
  8
0
 10
184.045
 11
184.103
 20
150.992
 21
150.813
  0
LINE
  8
0
 10
184.103
 11
184.138
 20
150.813
 21
150.628
  0
LINE
  8
0
 10
184.138
 11
184.15
 20
150.628
 21
150.44
  0
LINE
  8
0
 10
184.15
 11
184.15
 20
150.44
 21
-150.44
  0
LINE
  8
0
 10
184.15
 11
184.138
 20
-150.44
 21
-150.628
  0
LINE
  8
0
 10
184.138
 11
184.103
 20
-150.628
 21
-150.813
  0
LINE
  8
0
 10
184.103
 11
184.045
 20
-150.813
 21
-150.992
  0
LINE
  8
0
 10
184.045
 11
183.964
 20
-150.992
 21
-151.163
  0
LINE
  8
0
 10
183.964
 11
183.864
 20
-151.163
 21
-151.322
  0
LINE
  8
0
 10
183.864
 11
183.743
 20
-151.322
 21
-151.467
  0
LINE
  8
0
 10
183.743
 11
183.606
 20
-151.467
 21
-151.596
  0
LINE
  8
0
 10
183.606
 11
183.454
 20
-151.596
 21
-151.706
  0
LINE
  8
0
 10
183.454
 11
183.289
 20
-151.706
 21
-151.797
  0
LINE
  8
0
 10
183.289
 11
183.114
 20
-151.797
 21
-151.867
  0
LINE
  8
0
 10
183.114
 11
182.931
 20
-151.867
 21
-151.913
  0
LINE
  8
0
 10
182.931
 11
182.744
 20
-151.913
 21
-151.937
  0
LINE
  8
0
 10
182.744
 11
182.65
 20
-151.937
 21
-151.937
  0
LINE
  8
0
 10
182.65
 11
182.65
 20
-151.937
 21
-151.94
  0
LINE
  8
0
 10
182.65
 11
-182.65
 20
-151.94
 21
-151.94
  0
LINE
  8
0
 10
-182.65
 11
-182.65
 20
-151.94
 21
-151.937
  0
LINE
  8
0
 10
-182.65
 11
-182.744
 20
-151.937
 21
-151.937
  0
LINE
  8
0
 10
-182.744
 11
-182.931
 20
-151.937
 21
-151.913
  0
LINE
  8
0
 10
-182.931
 11
-183.114
 20
-151.913
 21
-151.867
  0
LINE
  8
0
 10
-183.114
 11
-183.289
 20
-151.867
 21
-151.797
  0
LINE
  8
0
 10
-183.289
 11
-183.454
 20
-151.797
 21
-151.706
  0
LINE
  8
0
 10
-183.454
 11
-183.606
 20
-151.706
 21
-151.596
  0
LINE
  8
0
 10
-183.606
 11
-183.743
 20
-151.596
 21
-151.467
  0
LINE
  8
0
 10
-183.743
 11
-183.864
 20
-151.467
 21
-151.322
  0
LINE
  8
0
 10
-183.864
 11
-183.964
 20
-151.322
 21
-151.163
  0
LINE
  8
0
 10
-183.964
 11
-184.045
 20
-151.163
 21
-150.992
  0
LINE
  8
0
 10
-184.045
 11
-184.103
 20
-150.992
 21
-150.813
  0
LINE
  8
0
 10
-184.103
 11
-184.138
 20
-150.813
 21
-150.628
  0
LINE
  8
0
 10
-184.138
 11
-184.15
 20
-150.628
 21
-150.44
  0
LINE
  8
0
 10
-138.43
 11
-138.43
 20
-128.445
 21
-123.715
  0
LINE
  8
0
 10
-138.43
 11
-115.57
 20
-123.715
 21
-123.715
  0
LINE
  8
0
 10
-115.57
 11
-115.57
 20
-123.715
 21
-128.445
  0
LINE
  8
0
 10
-115.57
 11
-138.43
 20
-128.445
 21
-128.445
  0
LINE
  8
0
 10
-138.43
 11
-138.43
 20
123.715
 21
128.445
  0
LINE
  8
0
 10
-138.43
 11
-115.57
 20
128.445
 21
128.445
  0
LINE
  8
0
 10
-115.57
 11
-115.57
 20
128.445
 21
123.715
  0
LINE
  8
0
 10
-115.57
 11
-138.43
 20
123.715
 21
123.715
  0
LINE
  8
0
 10
-97.803
 11
-97.783
 20
-139.24
 21
-138.92
  0
LINE
  8
0
 10
-97.783
 11
-97.723
 20
-138.92
 21
-138.605
  0
LINE
  8
0
 10
-97.723
 11
-97.623
 20
-138.605
 21
-138.3
  0
LINE
  8
0
 10
-97.623
 11
-97.487
 20
-138.3
 21
-138.01
  0
LINE
  8
0
 10
-97.487
 11
-97.315
 20
-138.01
 21
-137.74
  0
LINE
  8
0
 10
-97.315
 11
-97.111
 20
-137.74
 21
-137.493
  0
LINE
  8
0
 10
-97.111
 11
-96.877
 20
-137.493
 21
-137.273
  0
LINE
  8
0
 10
-96.877
 11
-96.618
 20
-137.273
 21
-137.085
  0
LINE
  8
0
 10
-96.618
 11
-96.337
 20
-137.085
 21
-136.93
  0
LINE
  8
0
 10
-96.337
 11
-96.039
 20
-136.93
 21
-136.812
  0
LINE
  8
0
 10
-96.039
 11
-95.728
 20
-136.812
 21
-136.733
  0
LINE
  8
0
 10
-95.728
 11
-95.41
 20
-136.733
 21
-136.692
  0
LINE
  8
0
 10
-95.41
 11
-95.09
 20
-136.692
 21
-136.692
  0
LINE
  8
0
 10
-95.09
 11
-94.772
 20
-136.692
 21
-136.733
  0
LINE
  8
0
 10
-94.772
 11
-94.461
 20
-136.733
 21
-136.812
  0
LINE
  8
0
 10
-94.461
 11
-94.163
 20
-136.812
 21
-136.93
  0
LINE
  8
0
 10
-94.163
 11
-93.882
 20
-136.93
 21
-137.085
  0
LINE
  8
0
 10
-93.882
 11
-93.623
 20
-137.085
 21
-137.273
  0
LINE
  8
0
 10
-93.623
 11
-93.389
 20
-137.273
 21
-137.493
  0
LINE
  8
0
 10
-93.389
 11
-93.185
 20
-137.493
 21
-137.74
  0
LINE
  8
0
 10
-93.185
 11
-93.013
 20
-137.74
 21
-138.01
  0
LINE
  8
0
 10
-93.013
 11
-92.877
 20
-138.01
 21
-138.3
  0
LINE
  8
0
 10
-92.877
 11
-92.777
 20
-138.3
 21
-138.605
  0
LINE
  8
0
 10
-92.777
 11
-92.717
 20
-138.605
 21
-138.92
  0
LINE
  8
0
 10
-92.717
 11
-92.697
 20
-138.92
 21
-139.24
  0
LINE
  8
0
 10
-92.697
 11
-92.717
 20
-139.24
 21
-139.56
  0
LINE
  8
0
 10
-92.717
 11
-92.777
 20
-139.56
 21
-139.875
  0
LINE
  8
0
 10
-92.777
 11
-92.877
 20
-139.875
 21
-140.18
  0
LINE
  8
0
 10
-92.877
 11
-93.013
 20
-140.18
 21
-140.47
  0
LINE
  8
0
 10
-93.013
 11
-93.185
 20
-140.47
 21
-140.74
  0
LINE
  8
0
 10
-93.185
 11
-93.389
 20
-140.74
 21
-140.987
  0
LINE
  8
0
 10
-93.389
 11
-93.623
 20
-140.987
 21
-141.207
  0
LINE
  8
0
 10
-93.623
 11
-93.882
 20
-141.207
 21
-141.395
  0
LINE
  8
0
 10
-93.882
 11
-94.163
 20
-141.395
 21
-141.55
  0
LINE
  8
0
 10
-94.163
 11
-94.461
 20
-141.55
 21
-141.668
  0
LINE
  8
0
 10
-94.461
 11
-94.772
 20
-141.668
 21
-141.747
  0
LINE
  8
0
 10
-94.772
 11
-95.09
 20
-141.747
 21
-141.788
  0
LINE
  8
0
 10
-95.09
 11
-95.41
 20
-141.788
 21
-141.788
  0
LINE
  8
0
 10
-95.41
 11
-95.728
 20
-141.788
 21
-141.747
  0
LINE
  8
0
 10
-95.728
 11
-96.039
 20
-141.747
 21
-141.668
  0
LINE
  8
0
 10
-96.039
 11
-96.337
 20
-141.668
 21
-141.55
  0
LINE
  8
0
 10
-96.337
 11
-96.618
 20
-141.55
 21
-141.395
  0
LINE
  8
0
 10
-96.618
 11
-96.877
 20
-141.395
 21
-141.207
  0
LINE
  8
0
 10
-96.877
 11
-97.111
 20
-141.207
 21
-140.987
  0
LINE
  8
0
 10
-97.111
 11
-97.315
 20
-140.987
 21
-140.74
  0
LINE
  8
0
 10
-97.315
 11
-97.487
 20
-140.74
 21
-140.47
  0
LINE
  8
0
 10
-97.487
 11
-97.623
 20
-140.47
 21
-140.18
  0
LINE
  8
0
 10
-97.623
 11
-97.723
 20
-140.18
 21
-139.875
  0
LINE
  8
0
 10
-97.723
 11
-97.783
 20
-139.875
 21
-139.56
  0
LINE
  8
0
 10
-97.783
 11
-97.803
 20
-139.56
 21
-139.24
  0
LINE
  8
0
 10
-97.803
 11
-97.783
 20
139.24
 21
139.56
  0
LINE
  8
0
 10
-97.783
 11
-97.723
 20
139.56
 21
139.875
  0
LINE
  8
0
 10
-97.723
 11
-97.623
 20
139.875
 21
140.18
  0
LINE
  8
0
 10
-97.623
 11
-97.487
 20
140.18
 21
140.47
  0
LINE
  8
0
 10
-97.487
 11
-97.315
 20
140.47
 21
140.74
  0
LINE
  8
0
 10
-97.315
 11
-97.111
 20
140.74
 21
140.987
  0
LINE
  8
0
 10
-97.111
 11
-96.877
 20
140.987
 21
141.207
  0
LINE
  8
0
 10
-96.877
 11
-96.618
 20
141.207
 21
141.395
  0
LINE
  8
0
 10
-96.618
 11
-96.337
 20
141.395
 21
141.55
  0
LINE
  8
0
 10
-96.337
 11
-96.039
 20
141.55
 21
141.668
  0
LINE
  8
0
 10
-96.039
 11
-95.728
 20
141.668
 21
141.747
  0
LINE
  8
0
 10
-95.728
 11
-95.41
 20
141.747
 21
141.788
  0
LINE
  8
0
 10
-95.41
 11
-95.09
 20
141.788
 21
141.788
  0
LINE
  8
0
 10
-95.09
 11
-94.772
 20
141.788
 21
141.747
  0
LINE
  8
0
 10
-94.772
 11
-94.461
 20
141.747
 21
141.668
  0
LINE
  8
0
 10
-94.461
 11
-94.163
 20
141.668
 21
141.55
  0
LINE
  8
0
 10
-94.163
 11
-93.882
 20
141.55
 21
141.395
  0
LINE
  8
0
 10
-93.882
 11
-93.623
 20
141.395
 21
141.207
  0
LINE
  8
0
 10
-93.623
 11
-93.389
 20
141.207
 21
140.987
  0
LINE
  8
0
 10
-93.389
 11
-93.185
 20
140.987
 21
140.74
  0
LINE
  8
0
 10
-93.185
 11
-93.013
 20
140.74
 21
140.47
  0
LINE
  8
0
 10
-93.013
 11
-92.877
 20
140.47
 21
140.18
  0
LINE
  8
0
 10
-92.877
 11
-92.777
 20
140.18
 21
139.875
  0
LINE
  8
0
 10
-92.777
 11
-92.717
 20
139.875
 21
139.56
  0
LINE
  8
0
 10
-92.717
 11
-92.697
 20
139.56
 21
139.24
  0
LINE
  8
0
 10
-92.697
 11
-92.717
 20
139.24
 21
138.92
  0
LINE
  8
0
 10
-92.717
 11
-92.777
 20
138.92
 21
138.605
  0
LINE
  8
0
 10
-92.777
 11
-92.877
 20
138.605
 21
138.3
  0
LINE
  8
0
 10
-92.877
 11
-93.013
 20
138.3
 21
138.01
  0
LINE
  8
0
 10
-93.013
 11
-93.185
 20
138.01
 21
137.74
  0
LINE
  8
0
 10
-93.185
 11
-93.389
 20
137.74
 21
137.493
  0
LINE
  8
0
 10
-93.389
 11
-93.623
 20
137.493
 21
137.273
  0
LINE
  8
0
 10
-93.623
 11
-93.882
 20
137.273
 21
137.085
  0
LINE
  8
0
 10
-93.882
 11
-94.163
 20
137.085
 21
136.93
  0
LINE
  8
0
 10
-94.163
 11
-94.461
 20
136.93
 21
136.812
  0
LINE
  8
0
 10
-94.461
 11
-94.772
 20
136.812
 21
136.733
  0
LINE
  8
0
 10
-94.772
 11
-95.09
 20
136.733
 21
136.692
  0
LINE
  8
0
 10
-95.09
 11
-95.41
 20
136.692
 21
136.692
  0
LINE
  8
0
 10
-95.41
 11
-95.728
 20
136.692
 21
136.733
  0
LINE
  8
0
 10
-95.728
 11
-96.039
 20
136.733
 21
136.812
  0
LINE
  8
0
 10
-96.039
 11
-96.337
 20
136.812
 21
136.93
  0
LINE
  8
0
 10
-96.337
 11
-96.618
 20
136.93
 21
137.085
  0
LINE
  8
0
 10
-96.618
 11
-96.877
 20
137.085
 21
137.273
  0
LINE
  8
0
 10
-96.877
 11
-97.111
 20
137.273
 21
137.493
  0
LINE
  8
0
 10
-97.111
 11
-97.315
 20
137.493
 21
137.74
  0
LINE
  8
0
 10
-97.315
 11
-97.487
 20
137.74
 21
138.01
  0
LINE
  8
0
 10
-97.487
 11
-97.623
 20
138.01
 21
138.3
  0
LINE
  8
0
 10
-97.623
 11
-97.723
 20
138.3
 21
138.605
  0
LINE
  8
0
 10
-97.723
 11
-97.783
 20
138.605
 21
138.92
  0
LINE
  8
0
 10
-97.783
 11
-97.803
 20
138.92
 21
139.24
  0
LINE
  8
0
 10
-74.93
 11
-74.93
 20
-128.445
 21
-123.715
  0
LINE
  8
0
 10
-74.93
 11
-52.07
 20
-123.715
 21
-123.715
  0
LINE
  8
0
 10
-52.07
 11
-52.07
 20
-123.715
 21
-128.445
  0
LINE
  8
0
 10
-52.07
 11
-74.93
 20
-128.445
 21
-128.445
  0
LINE
  8
0
 10
-74.93
 11
-74.93
 20
123.715
 21
128.445
  0
LINE
  8
0
 10
-74.93
 11
-52.07
 20
128.445
 21
128.445
  0
LINE
  8
0
 10
-52.07
 11
-52.07
 20
128.445
 21
123.715
  0
LINE
  8
0
 10
-52.07
 11
-74.93
 20
123.715
 21
123.715
  0
LINE
  8
0
 10
-34.303
 11
-34.283
 20
-139.24
 21
-138.92
  0
LINE
  8
0
 10
-34.283
 11
-34.223
 20
-138.92
 21
-138.605
  0
LINE
  8
0
 10
-34.223
 11
-34.123
 20
-138.605
 21
-138.3
  0
LINE
  8
0
 10
-34.123
 11
-33.987
 20
-138.3
 21
-138.01
  0
LINE
  8
0
 10
-33.987
 11
-33.815
 20
-138.01
 21
-137.74
  0
LINE
  8
0
 10
-33.815
 11
-33.611
 20
-137.74
 21
-137.493
  0
LINE
  8
0
 10
-33.611
 11
-33.377
 20
-137.493
 21
-137.273
  0
LINE
  8
0
 10
-33.377
 11
-33.118
 20
-137.273
 21
-137.085
  0
LINE
  8
0
 10
-33.118
 11
-32.837
 20
-137.085
 21
-136.93
  0
LINE
  8
0
 10
-32.837
 11
-32.539
 20
-136.93
 21
-136.812
  0
LINE
  8
0
 10
-32.539
 11
-32.228
 20
-136.812
 21
-136.733
  0
LINE
  8
0
 10
-32.228
 11
-31.91
 20
-136.733
 21
-136.692
  0
LINE
  8
0
 10
-31.91
 11
-31.59
 20
-136.692
 21
-136.692
  0
LINE
  8
0
 10
-31.59
 11
-31.272
 20
-136.692
 21
-136.733
  0
LINE
  8
0
 10
-31.272
 11
-30.961
 20
-136.733
 21
-136.812
  0
LINE
  8
0
 10
-30.961
 11
-30.663
 20
-136.812
 21
-136.93
  0
LINE
  8
0
 10
-30.663
 11
-30.382
 20
-136.93
 21
-137.085
  0
LINE
  8
0
 10
-30.382
 11
-30.123
 20
-137.085
 21
-137.273
  0
LINE
  8
0
 10
-30.123
 11
-29.889
 20
-137.273
 21
-137.493
  0
LINE
  8
0
 10
-29.889
 11
-29.685
 20
-137.493
 21
-137.74
  0
LINE
  8
0
 10
-29.685
 11
-29.513
 20
-137.74
 21
-138.01
  0
LINE
  8
0
 10
-29.513
 11
-29.377
 20
-138.01
 21
-138.3
  0
LINE
  8
0
 10
-29.377
 11
-29.277
 20
-138.3
 21
-138.605
  0
LINE
  8
0
 10
-29.277
 11
-29.217
 20
-138.605
 21
-138.92
  0
LINE
  8
0
 10
-29.217
 11
-29.197
 20
-138.92
 21
-139.24
  0
LINE
  8
0
 10
-29.197
 11
-29.217
 20
-139.24
 21
-139.56
  0
LINE
  8
0
 10
-29.217
 11
-29.277
 20
-139.56
 21
-139.875
  0
LINE
  8
0
 10
-29.277
 11
-29.377
 20
-139.875
 21
-140.18
  0
LINE
  8
0
 10
-29.377
 11
-29.513
 20
-140.18
 21
-140.47
  0
LINE
  8
0
 10
-29.513
 11
-29.685
 20
-140.47
 21
-140.74
  0
LINE
  8
0
 10
-29.685
 11
-29.889
 20
-140.74
 21
-140.987
  0
LINE
  8
0
 10
-29.889
 11
-30.123
 20
-140.987
 21
-141.207
  0
LINE
  8
0
 10
-30.123
 11
-30.382
 20
-141.207
 21
-141.395
  0
LINE
  8
0
 10
-30.382
 11
-30.663
 20
-141.395
 21
-141.55
  0
LINE
  8
0
 10
-30.663
 11
-30.961
 20
-141.55
 21
-141.668
  0
LINE
  8
0
 10
-30.961
 11
-31.272
 20
-141.668
 21
-141.747
  0
LINE
  8
0
 10
-31.272
 11
-31.59
 20
-141.747
 21
-141.788
  0
LINE
  8
0
 10
-31.59
 11
-31.91
 20
-141.788
 21
-141.788
  0
LINE
  8
0
 10
-31.91
 11
-32.228
 20
-141.788
 21
-141.747
  0
LINE
  8
0
 10
-32.228
 11
-32.539
 20
-141.747
 21
-141.668
  0
LINE
  8
0
 10
-32.539
 11
-32.837
 20
-141.668
 21
-141.55
  0
LINE
  8
0
 10
-32.837
 11
-33.118
 20
-141.55
 21
-141.395
  0
LINE
  8
0
 10
-33.118
 11
-33.377
 20
-141.395
 21
-141.207
  0
LINE
  8
0
 10
-33.377
 11
-33.611
 20
-141.207
 21
-140.987
  0
LINE
  8
0
 10
-33.611
 11
-33.815
 20
-140.987
 21
-140.74
  0
LINE
  8
0
 10
-33.815
 11
-33.987
 20
-140.74
 21
-140.47
  0
LINE
  8
0
 10
-33.987
 11
-34.123
 20
-140.47
 21
-140.18
  0
LINE
  8
0
 10
-34.123
 11
-34.223
 20
-140.18
 21
-139.875
  0
LINE
  8
0
 10
-34.223
 11
-34.283
 20
-139.875
 21
-139.56
  0
LINE
  8
0
 10
-34.283
 11
-34.303
 20
-139.56
 21
-139.24
  0
LINE
  8
0
 10
-34.303
 11
-34.283
 20
139.24
 21
139.56
  0
LINE
  8
0
 10
-34.283
 11
-34.223
 20
139.56
 21
139.875
  0
LINE
  8
0
 10
-34.223
 11
-34.123
 20
139.875
 21
140.18
  0
LINE
  8
0
 10
-34.123
 11
-33.987
 20
140.18
 21
140.47
  0
LINE
  8
0
 10
-33.987
 11
-33.815
 20
140.47
 21
140.74
  0
LINE
  8
0
 10
-33.815
 11
-33.611
 20
140.74
 21
140.987
  0
LINE
  8
0
 10
-33.611
 11
-33.377
 20
140.987
 21
141.207
  0
LINE
  8
0
 10
-33.377
 11
-33.118
 20
141.207
 21
141.395
  0
LINE
  8
0
 10
-33.118
 11
-32.837
 20
141.395
 21
141.55
  0
LINE
  8
0
 10
-32.837
 11
-32.539
 20
141.55
 21
141.668
  0
LINE
  8
0
 10
-32.539
 11
-32.228
 20
141.668
 21
141.747
  0
LINE
  8
0
 10
-32.228
 11
-31.91
 20
141.747
 21
141.788
  0
LINE
  8
0
 10
-31.91
 11
-31.59
 20
141.788
 21
141.788
  0
LINE
  8
0
 10
-31.59
 11
-31.272
 20
141.788
 21
141.747
  0
LINE
  8
0
 10
-31.272
 11
-30.961
 20
141.747
 21
141.668
  0
LINE
  8
0
 10
-30.961
 11
-30.663
 20
141.668
 21
141.55
  0
LINE
  8
0
 10
-30.663
 11
-30.382
 20
141.55
 21
141.395
  0
LINE
  8
0
 10
-30.382
 11
-30.123
 20
141.395
 21
141.207
  0
LINE
  8
0
 10
-30.123
 11
-29.889
 20
141.207
 21
140.987
  0
LINE
  8
0
 10
-29.889
 11
-29.685
 20
140.987
 21
140.74
  0
LINE
  8
0
 10
-29.685
 11
-29.513
 20
140.74
 21
140.47
  0
LINE
  8
0
 10
-29.513
 11
-29.377
 20
140.47
 21
140.18
  0
LINE
  8
0
 10
-29.377
 11
-29.277
 20
140.18
 21
139.875
  0
LINE
  8
0
 10
-29.277
 11
-29.217
 20
139.875
 21
139.56
  0
LINE
  8
0
 10
-29.217
 11
-29.197
 20
139.56
 21
139.24
  0
LINE
  8
0
 10
-29.197
 11
-29.217
 20
139.24
 21
138.92
  0
LINE
  8
0
 10
-29.217
 11
-29.277
 20
138.92
 21
138.605
  0
LINE
  8
0
 10
-29.277
 11
-29.377
 20
138.605
 21
138.3
  0
LINE
  8
0
 10
-29.377
 11
-29.513
 20
138.3
 21
138.01
  0
LINE
  8
0
 10
-29.513
 11
-29.685
 20
138.01
 21
137.74
  0
LINE
  8
0
 10
-29.685
 11
-29.889
 20
137.74
 21
137.493
  0
LINE
  8
0
 10
-29.889
 11
-30.123
 20
137.493
 21
137.273
  0
LINE
  8
0
 10
-30.123
 11
-30.382
 20
137.273
 21
137.085
  0
LINE
  8
0
 10
-30.382
 11
-30.663
 20
137.085
 21
136.93
  0
LINE
  8
0
 10
-30.663
 11
-30.961
 20
136.93
 21
136.812
  0
LINE
  8
0
 10
-30.961
 11
-31.272
 20
136.812
 21
136.733
  0
LINE
  8
0
 10
-31.272
 11
-31.59
 20
136.733
 21
136.692
  0
LINE
  8
0
 10
-31.59
 11
-31.91
 20
136.692
 21
136.692
  0
LINE
  8
0
 10
-31.91
 11
-32.228
 20
136.692
 21
136.733
  0
LINE
  8
0
 10
-32.228
 11
-32.539
 20
136.733
 21
136.812
  0
LINE
  8
0
 10
-32.539
 11
-32.837
 20
136.812
 21
136.93
  0
LINE
  8
0
 10
-32.837
 11
-33.118
 20
136.93
 21
137.085
  0
LINE
  8
0
 10
-33.118
 11
-33.377
 20
137.085
 21
137.273
  0
LINE
  8
0
 10
-33.377
 11
-33.611
 20
137.273
 21
137.493
  0
LINE
  8
0
 10
-33.611
 11
-33.815
 20
137.493
 21
137.74
  0
LINE
  8
0
 10
-33.815
 11
-33.987
 20
137.74
 21
138.01
  0
LINE
  8
0
 10
-33.987
 11
-34.123
 20
138.01
 21
138.3
  0
LINE
  8
0
 10
-34.123
 11
-34.223
 20
138.3
 21
138.605
  0
LINE
  8
0
 10
-34.223
 11
-34.283
 20
138.605
 21
138.92
  0
LINE
  8
0
 10
-34.283
 11
-34.303
 20
138.92
 21
139.24
  0
LINE
  8
0
 10
-11.43
 11
-11.43
 20
-128.445
 21
-123.715
  0
LINE
  8
0
 10
-11.43
 11
11.43
 20
-123.715
 21
-123.715
  0
LINE
  8
0
 10
11.43
 11
11.43
 20
-123.715
 21
-128.445
  0
LINE
  8
0
 10
11.43
 11
-11.43
 20
-128.445
 21
-128.445
  0
LINE
  8
0
 10
-11.43
 11
-11.43
 20
123.715
 21
128.445
  0
LINE
  8
0
 10
-11.43
 11
11.43
 20
128.445
 21
128.445
  0
LINE
  8
0
 10
11.43
 11
11.43
 20
128.445
 21
123.715
  0
LINE
  8
0
 10
11.43
 11
-11.43
 20
123.715
 21
123.715
  0
LINE
  8
0
 10
29.197
 11
29.217
 20
-139.24
 21
-138.92
  0
LINE
  8
0
 10
29.217
 11
29.277
 20
-138.92
 21
-138.605
  0
LINE
  8
0
 10
29.277
 11
29.377
 20
-138.605
 21
-138.3
  0
LINE
  8
0
 10
29.377
 11
29.513
 20
-138.3
 21
-138.01
  0
LINE
  8
0
 10
29.513
 11
29.685
 20
-138.01
 21
-137.74
  0
LINE
  8
0
 10
29.685
 11
29.889
 20
-137.74
 21
-137.493
  0
LINE
  8
0
 10
29.889
 11
30.123
 20
-137.493
 21
-137.273
  0
LINE
  8
0
 10
30.123
 11
30.382
 20
-137.273
 21
-137.085
  0
LINE
  8
0
 10
30.382
 11
30.663
 20
-137.085
 21
-136.93
  0
LINE
  8
0
 10
30.663
 11
30.961
 20
-136.93
 21
-136.812
  0
LINE
  8
0
 10
30.961
 11
31.272
 20
-136.812
 21
-136.733
  0
LINE
  8
0
 10
31.272
 11
31.59
 20
-136.733
 21
-136.692
  0
LINE
  8
0
 10
31.59
 11
31.91
 20
-136.692
 21
-136.692
  0
LINE
  8
0
 10
31.91
 11
32.228
 20
-136.692
 21
-136.733
  0
LINE
  8
0
 10
32.228
 11
32.539
 20
-136.733
 21
-136.812
  0
LINE
  8
0
 10
32.539
 11
32.837
 20
-136.812
 21
-136.93
  0
LINE
  8
0
 10
32.837
 11
33.118
 20
-136.93
 21
-137.085
  0
LINE
  8
0
 10
33.118
 11
33.377
 20
-137.085
 21
-137.273
  0
LINE
  8
0
 10
33.377
 11
33.611
 20
-137.273
 21
-137.493
  0
LINE
  8
0
 10
33.611
 11
33.815
 20
-137.493
 21
-137.74
  0
LINE
  8
0
 10
33.815
 11
33.987
 20
-137.74
 21
-138.01
  0
LINE
  8
0
 10
33.987
 11
34.123
 20
-138.01
 21
-138.3
  0
LINE
  8
0
 10
34.123
 11
34.223
 20
-138.3
 21
-138.605
  0
LINE
  8
0
 10
34.223
 11
34.283
 20
-138.605
 21
-138.92
  0
LINE
  8
0
 10
34.283
 11
34.303
 20
-138.92
 21
-139.24
  0
LINE
  8
0
 10
34.303
 11
34.283
 20
-139.24
 21
-139.56
  0
LINE
  8
0
 10
34.283
 11
34.223
 20
-139.56
 21
-139.875
  0
LINE
  8
0
 10
34.223
 11
34.123
 20
-139.875
 21
-140.18
  0
LINE
  8
0
 10
34.123
 11
33.987
 20
-140.18
 21
-140.47
  0
LINE
  8
0
 10
33.987
 11
33.815
 20
-140.47
 21
-140.74
  0
LINE
  8
0
 10
33.815
 11
33.611
 20
-140.74
 21
-140.987
  0
LINE
  8
0
 10
33.611
 11
33.377
 20
-140.987
 21
-141.207
  0
LINE
  8
0
 10
33.377
 11
33.118
 20
-141.207
 21
-141.395
  0
LINE
  8
0
 10
33.118
 11
32.837
 20
-141.395
 21
-141.55
  0
LINE
  8
0
 10
32.837
 11
32.539
 20
-141.55
 21
-141.668
  0
LINE
  8
0
 10
32.539
 11
32.228
 20
-141.668
 21
-141.747
  0
LINE
  8
0
 10
32.228
 11
31.91
 20
-141.747
 21
-141.788
  0
LINE
  8
0
 10
31.91
 11
31.59
 20
-141.788
 21
-141.788
  0
LINE
  8
0
 10
31.59
 11
31.272
 20
-141.788
 21
-141.747
  0
LINE
  8
0
 10
31.272
 11
30.961
 20
-141.747
 21
-141.668
  0
LINE
  8
0
 10
30.961
 11
30.663
 20
-141.668
 21
-141.55
  0
LINE
  8
0
 10
30.663
 11
30.382
 20
-141.55
 21
-141.395
  0
LINE
  8
0
 10
30.382
 11
30.123
 20
-141.395
 21
-141.207
  0
LINE
  8
0
 10
30.123
 11
29.889
 20
-141.207
 21
-140.987
  0
LINE
  8
0
 10
29.889
 11
29.685
 20
-140.987
 21
-140.74
  0
LINE
  8
0
 10
29.685
 11
29.513
 20
-140.74
 21
-140.47
  0
LINE
  8
0
 10
29.513
 11
29.377
 20
-140.47
 21
-140.18
  0
LINE
  8
0
 10
29.377
 11
29.277
 20
-140.18
 21
-139.875
  0
LINE
  8
0
 10
29.277
 11
29.217
 20
-139.875
 21
-139.56
  0
LINE
  8
0
 10
29.217
 11
29.197
 20
-139.56
 21
-139.24
  0
LINE
  8
0
 10
29.197
 11
29.217
 20
139.24
 21
139.56
  0
LINE
  8
0
 10
29.217
 11
29.277
 20
139.56
 21
139.875
  0
LINE
  8
0
 10
29.277
 11
29.377
 20
139.875
 21
140.18
  0
LINE
  8
0
 10
29.377
 11
29.513
 20
140.18
 21
140.47
  0
LINE
  8
0
 10
29.513
 11
29.685
 20
140.47
 21
140.74
  0
LINE
  8
0
 10
29.685
 11
29.889
 20
140.74
 21
140.987
  0
LINE
  8
0
 10
29.889
 11
30.123
 20
140.987
 21
141.207
  0
LINE
  8
0
 10
30.123
 11
30.382
 20
141.207
 21
141.395
  0
LINE
  8
0
 10
30.382
 11
30.663
 20
141.395
 21
141.55
  0
LINE
  8
0
 10
30.663
 11
30.961
 20
141.55
 21
141.668
  0
LINE
  8
0
 10
30.961
 11
31.272
 20
141.668
 21
141.747
  0
LINE
  8
0
 10
31.272
 11
31.59
 20
141.747
 21
141.788
  0
LINE
  8
0
 10
31.59
 11
31.91
 20
141.788
 21
141.788
  0
LINE
  8
0
 10
31.91
 11
32.228
 20
141.788
 21
141.747
  0
LINE
  8
0
 10
32.228
 11
32.539
 20
141.747
 21
141.668
  0
LINE
  8
0
 10
32.539
 11
32.837
 20
141.668
 21
141.55
  0
LINE
  8
0
 10
32.837
 11
33.118
 20
141.55
 21
141.395
  0
LINE
  8
0
 10
33.118
 11
33.377
 20
141.395
 21
141.207
  0
LINE
  8
0
 10
33.377
 11
33.611
 20
141.207
 21
140.987
  0
LINE
  8
0
 10
33.611
 11
33.815
 20
140.987
 21
140.74
  0
LINE
  8
0
 10
33.815
 11
33.987
 20
140.74
 21
140.47
  0
LINE
  8
0
 10
33.987
 11
34.123
 20
140.47
 21
140.18
  0
LINE
  8
0
 10
34.123
 11
34.223
 20
140.18
 21
139.875
  0
LINE
  8
0
 10
34.223
 11
34.283
 20
139.875
 21
139.56
  0
LINE
  8
0
 10
34.283
 11
34.303
 20
139.56
 21
139.24
  0
LINE
  8
0
 10
34.303
 11
34.283
 20
139.24
 21
138.92
  0
LINE
  8
0
 10
34.283
 11
34.223
 20
138.92
 21
138.605
  0
LINE
  8
0
 10
34.223
 11
34.123
 20
138.605
 21
138.3
  0
LINE
  8
0
 10
34.123
 11
33.987
 20
138.3
 21
138.01
  0
LINE
  8
0
 10
33.987
 11
33.815
 20
138.01
 21
137.74
  0
LINE
  8
0
 10
33.815
 11
33.611
 20
137.74
 21
137.493
  0
LINE
  8
0
 10
33.611
 11
33.377
 20
137.493
 21
137.273
  0
LINE
  8
0
 10
33.377
 11
33.118
 20
137.273
 21
137.085
  0
LINE
  8
0
 10
33.118
 11
32.837
 20
137.085
 21
136.93
  0
LINE
  8
0
 10
32.837
 11
32.539
 20
136.93
 21
136.812
  0
LINE
  8
0
 10
32.539
 11
32.228
 20
136.812
 21
136.733
  0
LINE
  8
0
 10
32.228
 11
31.91
 20
136.733
 21
136.692
  0
LINE
  8
0
 10
31.91
 11
31.59
 20
136.692
 21
136.692
  0
LINE
  8
0
 10
31.59
 11
31.272
 20
136.692
 21
136.733
  0
LINE
  8
0
 10
31.272
 11
30.961
 20
136.733
 21
136.812
  0
LINE
  8
0
 10
30.961
 11
30.663
 20
136.812
 21
136.93
  0
LINE
  8
0
 10
30.663
 11
30.382
 20
136.93
 21
137.085
  0
LINE
  8
0
 10
30.382
 11
30.123
 20
137.085
 21
137.273
  0
LINE
  8
0
 10
30.123
 11
29.889
 20
137.273
 21
137.493
  0
LINE
  8
0
 10
29.889
 11
29.685
 20
137.493
 21
137.74
  0
LINE
  8
0
 10
29.685
 11
29.513
 20
137.74
 21
138.01
  0
LINE
  8
0
 10
29.513
 11
29.377
 20
138.01
 21
138.3
  0
LINE
  8
0
 10
29.377
 11
29.277
 20
138.3
 21
138.605
  0
LINE
  8
0
 10
29.277
 11
29.217
 20
138.605
 21
138.92
  0
LINE
  8
0
 10
29.217
 11
29.197
 20
138.92
 21
139.24
  0
LINE
  8
0
 10
52.07
 11
52.07
 20
-128.445
 21
-123.715
  0
LINE
  8
0
 10
52.07
 11
74.93
 20
-123.715
 21
-123.715
  0
LINE
  8
0
 10
74.93
 11
74.93
 20
-123.715
 21
-128.445
  0
LINE
  8
0
 10
74.93
 11
52.07
 20
-128.445
 21
-128.445
  0
LINE
  8
0
 10
52.07
 11
52.07
 20
123.715
 21
128.445
  0
LINE
  8
0
 10
52.07
 11
74.93
 20
128.445
 21
128.445
  0
LINE
  8
0
 10
74.93
 11
74.93
 20
128.445
 21
123.715
  0
LINE
  8
0
 10
74.93
 11
52.07
 20
123.715
 21
123.715
  0
LINE
  8
0
 10
92.697
 11
92.717
 20
-139.24
 21
-138.92
  0
LINE
  8
0
 10
92.717
 11
92.777
 20
-138.92
 21
-138.605
  0
LINE
  8
0
 10
92.777
 11
92.877
 20
-138.605
 21
-138.3
  0
LINE
  8
0
 10
92.877
 11
93.013
 20
-138.3
 21
-138.01
  0
LINE
  8
0
 10
93.013
 11
93.185
 20
-138.01
 21
-137.74
  0
LINE
  8
0
 10
93.185
 11
93.389
 20
-137.74
 21
-137.493
  0
LINE
  8
0
 10
93.389
 11
93.623
 20
-137.493
 21
-137.273
  0
LINE
  8
0
 10
93.623
 11
93.882
 20
-137.273
 21
-137.085
  0
LINE
  8
0
 10
93.882
 11
94.163
 20
-137.085
 21
-136.93
  0
LINE
  8
0
 10
94.163
 11
94.461
 20
-136.93
 21
-136.812
  0
LINE
  8
0
 10
94.461
 11
94.772
 20
-136.812
 21
-136.733
  0
LINE
  8
0
 10
94.772
 11
95.09
 20
-136.733
 21
-136.692
  0
LINE
  8
0
 10
95.09
 11
95.41
 20
-136.692
 21
-136.692
  0
LINE
  8
0
 10
95.41
 11
95.728
 20
-136.692
 21
-136.733
  0
LINE
  8
0
 10
95.728
 11
96.039
 20
-136.733
 21
-136.812
  0
LINE
  8
0
 10
96.039
 11
96.337
 20
-136.812
 21
-136.93
  0
LINE
  8
0
 10
96.337
 11
96.618
 20
-136.93
 21
-137.085
  0
LINE
  8
0
 10
96.618
 11
96.877
 20
-137.085
 21
-137.273
  0
LINE
  8
0
 10
96.877
 11
97.111
 20
-137.273
 21
-137.493
  0
LINE
  8
0
 10
97.111
 11
97.315
 20
-137.493
 21
-137.74
  0
LINE
  8
0
 10
97.315
 11
97.487
 20
-137.74
 21
-138.01
  0
LINE
  8
0
 10
97.487
 11
97.623
 20
-138.01
 21
-138.3
  0
LINE
  8
0
 10
97.623
 11
97.723
 20
-138.3
 21
-138.605
  0
LINE
  8
0
 10
97.723
 11
97.783
 20
-138.605
 21
-138.92
  0
LINE
  8
0
 10
97.783
 11
97.803
 20
-138.92
 21
-139.24
  0
LINE
  8
0
 10
97.803
 11
97.783
 20
-139.24
 21
-139.56
  0
LINE
  8
0
 10
97.783
 11
97.723
 20
-139.56
 21
-139.875
  0
LINE
  8
0
 10
97.723
 11
97.623
 20
-139.875
 21
-140.18
  0
LINE
  8
0
 10
97.623
 11
97.487
 20
-140.18
 21
-140.47
  0
LINE
  8
0
 10
97.487
 11
97.315
 20
-140.47
 21
-140.74
  0
LINE
  8
0
 10
97.315
 11
97.111
 20
-140.74
 21
-140.987
  0
LINE
  8
0
 10
97.111
 11
96.877
 20
-140.987
 21
-141.207
  0
LINE
  8
0
 10
96.877
 11
96.618
 20
-141.207
 21
-141.395
  0
LINE
  8
0
 10
96.618
 11
96.337
 20
-141.395
 21
-141.55
  0
LINE
  8
0
 10
96.337
 11
96.039
 20
-141.55
 21
-141.668
  0
LINE
  8
0
 10
96.039
 11
95.728
 20
-141.668
 21
-141.747
  0
LINE
  8
0
 10
95.728
 11
95.41
 20
-141.747
 21
-141.788
  0
LINE
  8
0
 10
95.41
 11
95.09
 20
-141.788
 21
-141.788
  0
LINE
  8
0
 10
95.09
 11
94.772
 20
-141.788
 21
-141.747
  0
LINE
  8
0
 10
94.772
 11
94.461
 20
-141.747
 21
-141.668
  0
LINE
  8
0
 10
94.461
 11
94.163
 20
-141.668
 21
-141.55
  0
LINE
  8
0
 10
94.163
 11
93.882
 20
-141.55
 21
-141.395
  0
LINE
  8
0
 10
93.882
 11
93.623
 20
-141.395
 21
-141.207
  0
LINE
  8
0
 10
93.623
 11
93.389
 20
-141.207
 21
-140.987
  0
LINE
  8
0
 10
93.389
 11
93.185
 20
-140.987
 21
-140.74
  0
LINE
  8
0
 10
93.185
 11
93.013
 20
-140.74
 21
-140.47
  0
LINE
  8
0
 10
93.013
 11
92.877
 20
-140.47
 21
-140.18
  0
LINE
  8
0
 10
92.877
 11
92.777
 20
-140.18
 21
-139.875
  0
LINE
  8
0
 10
92.777
 11
92.717
 20
-139.875
 21
-139.56
  0
LINE
  8
0
 10
92.717
 11
92.697
 20
-139.56
 21
-139.24
  0
LINE
  8
0
 10
92.697
 11
92.717
 20
139.24
 21
139.56
  0
LINE
  8
0
 10
92.717
 11
92.777
 20
139.56
 21
139.875
  0
LINE
  8
0
 10
92.777
 11
92.877
 20
139.875
 21
140.18
  0
LINE
  8
0
 10
92.877
 11
93.013
 20
140.18
 21
140.47
  0
LINE
  8
0
 10
93.013
 11
93.185
 20
140.47
 21
140.74
  0
LINE
  8
0
 10
93.185
 11
93.389
 20
140.74
 21
140.987
  0
LINE
  8
0
 10
93.389
 11
93.623
 20
140.987
 21
141.207
  0
LINE
  8
0
 10
93.623
 11
93.882
 20
141.207
 21
141.395
  0
LINE
  8
0
 10
93.882
 11
94.163
 20
141.395
 21
141.55
  0
LINE
  8
0
 10
94.163
 11
94.461
 20
141.55
 21
141.668
  0
LINE
  8
0
 10
94.461
 11
94.772
 20
141.668
 21
141.747
  0
LINE
  8
0
 10
94.772
 11
95.09
 20
141.747
 21
141.788
  0
LINE
  8
0
 10
95.09
 11
95.41
 20
141.788
 21
141.788
  0
LINE
  8
0
 10
95.41
 11
95.728
 20
141.788
 21
141.747
  0
LINE
  8
0
 10
95.728
 11
96.039
 20
141.747
 21
141.668
  0
LINE
  8
0
 10
96.039
 11
96.337
 20
141.668
 21
141.55
  0
LINE
  8
0
 10
96.337
 11
96.618
 20
141.55
 21
141.395
  0
LINE
  8
0
 10
96.618
 11
96.877
 20
141.395
 21
141.207
  0
LINE
  8
0
 10
96.877
 11
97.111
 20
141.207
 21
140.987
  0
LINE
  8
0
 10
97.111
 11
97.315
 20
140.987
 21
140.74
  0
LINE
  8
0
 10
97.315
 11
97.487
 20
140.74
 21
140.47
  0
LINE
  8
0
 10
97.487
 11
97.623
 20
140.47
 21
140.18
  0
LINE
  8
0
 10
97.623
 11
97.723
 20
140.18
 21
139.875
  0
LINE
  8
0
 10
97.723
 11
97.783
 20
139.875
 21
139.56
  0
LINE
  8
0
 10
97.783
 11
97.803
 20
139.56
 21
139.24
  0
LINE
  8
0
 10
97.803
 11
97.783
 20
139.24
 21
138.92
  0
LINE
  8
0
 10
97.783
 11
97.723
 20
138.92
 21
138.605
  0
LINE
  8
0
 10
97.723
 11
97.623
 20
138.605
 21
138.3
  0
LINE
  8
0
 10
97.623
 11
97.487
 20
138.3
 21
138.01
  0
LINE
  8
0
 10
97.487
 11
97.315
 20
138.01
 21
137.74
  0
LINE
  8
0
 10
97.315
 11
97.111
 20
137.74
 21
137.493
  0
LINE
  8
0
 10
97.111
 11
96.877
 20
137.493
 21
137.273
  0
LINE
  8
0
 10
96.877
 11
96.618
 20
137.273
 21
137.085
  0
LINE
  8
0
 10
96.618
 11
96.337
 20
137.085
 21
136.93
  0
LINE
  8
0
 10
96.337
 11
96.039
 20
136.93
 21
136.812
  0
LINE
  8
0
 10
96.039
 11
95.728
 20
136.812
 21
136.733
  0
LINE
  8
0
 10
95.728
 11
95.41
 20
136.733
 21
136.692
  0
LINE
  8
0
 10
95.41
 11
95.09
 20
136.692
 21
136.692
  0
LINE
  8
0
 10
95.09
 11
94.772
 20
136.692
 21
136.733
  0
LINE
  8
0
 10
94.772
 11
94.461
 20
136.733
 21
136.812
  0
LINE
  8
0
 10
94.461
 11
94.163
 20
136.812
 21
136.93
  0
LINE
  8
0
 10
94.163
 11
93.882
 20
136.93
 21
137.085
  0
LINE
  8
0
 10
93.882
 11
93.623
 20
137.085
 21
137.273
  0
LINE
  8
0
 10
93.623
 11
93.389
 20
137.273
 21
137.493
  0
LINE
  8
0
 10
93.389
 11
93.185
 20
137.493
 21
137.74
  0
LINE
  8
0
 10
93.185
 11
93.013
 20
137.74
 21
138.01
  0
LINE
  8
0
 10
93.013
 11
92.877
 20
138.01
 21
138.3
  0
LINE
  8
0
 10
92.877
 11
92.777
 20
138.3
 21
138.605
  0
LINE
  8
0
 10
92.777
 11
92.717
 20
138.605
 21
138.92
  0
LINE
  8
0
 10
92.717
 11
92.697
 20
138.92
 21
139.24
  0
LINE
  8
0
 10
115.57
 11
115.57
 20
-128.445
 21
-123.715
  0
LINE
  8
0
 10
115.57
 11
138.43
 20
-123.715
 21
-123.715
  0
LINE
  8
0
 10
138.43
 11
138.43
 20
-123.715
 21
-128.445
  0
LINE
  8
0
 10
138.43
 11
115.57
 20
-128.445
 21
-128.445
  0
LINE
  8
0
 10
115.57
 11
115.57
 20
123.715
 21
128.445
  0
LINE
  8
0
 10
115.57
 11
138.43
 20
128.445
 21
128.445
  0
LINE
  8
0
 10
138.43
 11
138.43
 20
128.445
 21
123.715
  0
LINE
  8
0
 10
138.43
 11
115.57
 20
123.715
 21
123.715
  0
ENDSEC
  0
SECTION
  2
OBJECTS
  0
DICTIONARY
  0
ENDSEC
  0
EOF
