  0
SECTION
  2
BLOCKS
  0
ENDSEC
  0
SECTION
  2
ENTITIES
  0
LINE
  8
0
 10
-184.15
 11
-184.15
 20
-150.99
 21
150.99
  0
LINE
  8
0
 10
-184.15
 11
-184.138
 20
150.99
 21
151.178
  0
LINE
  8
0
 10
-184.138
 11
-184.103
 20
151.178
 21
151.363
  0
LINE
  8
0
 10
-184.103
 11
-184.045
 20
151.363
 21
151.542
  0
LINE
  8
0
 10
-184.045
 11
-183.964
 20
151.542
 21
151.713
  0
LINE
  8
0
 10
-183.964
 11
-183.864
 20
151.713
 21
151.872
  0
LINE
  8
0
 10
-183.864
 11
-183.743
 20
151.872
 21
152.017
  0
LINE
  8
0
 10
-183.743
 11
-183.606
 20
152.017
 21
152.146
  0
LINE
  8
0
 10
-183.606
 11
-183.454
 20
152.146
 21
152.256
  0
LINE
  8
0
 10
-183.454
 11
-183.289
 20
152.256
 21
152.347
  0
LINE
  8
0
 10
-183.289
 11
-183.114
 20
152.347
 21
152.417
  0
LINE
  8
0
 10
-183.114
 11
-182.931
 20
152.417
 21
152.463
  0
LINE
  8
0
 10
-182.931
 11
-182.744
 20
152.463
 21
152.487
  0
LINE
  8
0
 10
-182.744
 11
-182.65
 20
152.487
 21
152.487
  0
LINE
  8
0
 10
-182.65
 11
-182.65
 20
152.487
 21
152.49
  0
LINE
  8
0
 10
-182.65
 11
182.65
 20
152.49
 21
152.49
  0
LINE
  8
0
 10
182.65
 11
182.65
 20
152.49
 21
152.487
  0
LINE
  8
0
 10
182.65
 11
182.744
 20
152.487
 21
152.487
  0
LINE
  8
0
 10
182.744
 11
182.931
 20
152.487
 21
152.463
  0
LINE
  8
0
 10
182.931
 11
183.114
 20
152.463
 21
152.417
  0
LINE
  8
0
 10
183.114
 11
183.289
 20
152.417
 21
152.347
  0
LINE
  8
0
 10
183.289
 11
183.454
 20
152.347
 21
152.256
  0
LINE
  8
0
 10
183.454
 11
183.606
 20
152.256
 21
152.146
  0
LINE
  8
0
 10
183.606
 11
183.743
 20
152.146
 21
152.017
  0
LINE
  8
0
 10
183.743
 11
183.864
 20
152.017
 21
151.872
  0
LINE
  8
0
 10
183.864
 11
183.964
 20
151.872
 21
151.713
  0
LINE
  8
0
 10
183.964
 11
184.045
 20
151.713
 21
151.542
  0
LINE
  8
0
 10
184.045
 11
184.103
 20
151.542
 21
151.363
  0
LINE
  8
0
 10
184.103
 11
184.138
 20
151.363
 21
151.178
  0
LINE
  8
0
 10
184.138
 11
184.15
 20
151.178
 21
150.99
  0
LINE
  8
0
 10
184.15
 11
184.15
 20
150.99
 21
-150.99
  0
LINE
  8
0
 10
184.15
 11
184.138
 20
-150.99
 21
-151.178
  0
LINE
  8
0
 10
184.138
 11
184.103
 20
-151.178
 21
-151.363
  0
LINE
  8
0
 10
184.103
 11
184.045
 20
-151.363
 21
-151.542
  0
LINE
  8
0
 10
184.045
 11
183.964
 20
-151.542
 21
-151.713
  0
LINE
  8
0
 10
183.964
 11
183.864
 20
-151.713
 21
-151.872
  0
LINE
  8
0
 10
183.864
 11
183.743
 20
-151.872
 21
-152.017
  0
LINE
  8
0
 10
183.743
 11
183.606
 20
-152.017
 21
-152.146
  0
LINE
  8
0
 10
183.606
 11
183.454
 20
-152.146
 21
-152.256
  0
LINE
  8
0
 10
183.454
 11
183.289
 20
-152.256
 21
-152.347
  0
LINE
  8
0
 10
183.289
 11
183.114
 20
-152.347
 21
-152.417
  0
LINE
  8
0
 10
183.114
 11
182.931
 20
-152.417
 21
-152.463
  0
LINE
  8
0
 10
182.931
 11
182.744
 20
-152.463
 21
-152.487
  0
LINE
  8
0
 10
182.744
 11
182.65
 20
-152.487
 21
-152.487
  0
LINE
  8
0
 10
182.65
 11
182.65
 20
-152.487
 21
-152.49
  0
LINE
  8
0
 10
182.65
 11
-182.65
 20
-152.49
 21
-152.49
  0
LINE
  8
0
 10
-182.65
 11
-182.65
 20
-152.49
 21
-152.487
  0
LINE
  8
0
 10
-182.65
 11
-182.744
 20
-152.487
 21
-152.487
  0
LINE
  8
0
 10
-182.744
 11
-182.931
 20
-152.487
 21
-152.463
  0
LINE
  8
0
 10
-182.931
 11
-183.114
 20
-152.463
 21
-152.417
  0
LINE
  8
0
 10
-183.114
 11
-183.289
 20
-152.417
 21
-152.347
  0
LINE
  8
0
 10
-183.289
 11
-183.454
 20
-152.347
 21
-152.256
  0
LINE
  8
0
 10
-183.454
 11
-183.606
 20
-152.256
 21
-152.146
  0
LINE
  8
0
 10
-183.606
 11
-183.743
 20
-152.146
 21
-152.017
  0
LINE
  8
0
 10
-183.743
 11
-183.864
 20
-152.017
 21
-151.872
  0
LINE
  8
0
 10
-183.864
 11
-183.964
 20
-151.872
 21
-151.713
  0
LINE
  8
0
 10
-183.964
 11
-184.045
 20
-151.713
 21
-151.542
  0
LINE
  8
0
 10
-184.045
 11
-184.103
 20
-151.542
 21
-151.363
  0
LINE
  8
0
 10
-184.103
 11
-184.138
 20
-151.363
 21
-151.178
  0
LINE
  8
0
 10
-184.138
 11
-184.15
 20
-151.178
 21
-150.99
  0
LINE
  8
0
 10
-139.446
 11
-139.446
 20
-130.773
 21
-124.727
  0
LINE
  8
0
 10
-139.446
 11
-114.554
 20
-124.727
 21
-124.727
  0
LINE
  8
0
 10
-114.554
 11
-114.554
 20
-124.727
 21
-130.773
  0
LINE
  8
0
 10
-114.554
 11
-139.446
 20
-130.773
 21
-130.773
  0
LINE
  8
0
 10
-139.446
 11
-139.446
 20
124.727
 21
130.773
  0
LINE
  8
0
 10
-139.446
 11
-114.554
 20
130.773
 21
130.773
  0
LINE
  8
0
 10
-114.554
 11
-114.554
 20
130.773
 21
124.727
  0
LINE
  8
0
 10
-114.554
 11
-139.446
 20
124.727
 21
124.727
  0
LINE
  8
0
 10
-97.803
 11
-97.783
 20
-139.79
 21
-139.47
  0
LINE
  8
0
 10
-97.783
 11
-97.723
 20
-139.47
 21
-139.155
  0
LINE
  8
0
 10
-97.723
 11
-97.623
 20
-139.155
 21
-138.85
  0
LINE
  8
0
 10
-97.623
 11
-97.487
 20
-138.85
 21
-138.56
  0
LINE
  8
0
 10
-97.487
 11
-97.315
 20
-138.56
 21
-138.29
  0
LINE
  8
0
 10
-97.315
 11
-97.111
 20
-138.29
 21
-138.043
  0
LINE
  8
0
 10
-97.111
 11
-96.877
 20
-138.043
 21
-137.823
  0
LINE
  8
0
 10
-96.877
 11
-96.618
 20
-137.823
 21
-137.635
  0
LINE
  8
0
 10
-96.618
 11
-96.337
 20
-137.635
 21
-137.48
  0
LINE
  8
0
 10
-96.337
 11
-96.039
 20
-137.48
 21
-137.362
  0
LINE
  8
0
 10
-96.039
 11
-95.728
 20
-137.362
 21
-137.283
  0
LINE
  8
0
 10
-95.728
 11
-95.41
 20
-137.283
 21
-137.242
  0
LINE
  8
0
 10
-95.41
 11
-95.09
 20
-137.242
 21
-137.242
  0
LINE
  8
0
 10
-95.09
 11
-94.772
 20
-137.242
 21
-137.283
  0
LINE
  8
0
 10
-94.772
 11
-94.461
 20
-137.283
 21
-137.362
  0
LINE
  8
0
 10
-94.461
 11
-94.163
 20
-137.362
 21
-137.48
  0
LINE
  8
0
 10
-94.163
 11
-93.882
 20
-137.48
 21
-137.635
  0
LINE
  8
0
 10
-93.882
 11
-93.623
 20
-137.635
 21
-137.823
  0
LINE
  8
0
 10
-93.623
 11
-93.389
 20
-137.823
 21
-138.043
  0
LINE
  8
0
 10
-93.389
 11
-93.185
 20
-138.043
 21
-138.29
  0
LINE
  8
0
 10
-93.185
 11
-93.013
 20
-138.29
 21
-138.56
  0
LINE
  8
0
 10
-93.013
 11
-92.877
 20
-138.56
 21
-138.85
  0
LINE
  8
0
 10
-92.877
 11
-92.777
 20
-138.85
 21
-139.155
  0
LINE
  8
0
 10
-92.777
 11
-92.717
 20
-139.155
 21
-139.47
  0
LINE
  8
0
 10
-92.717
 11
-92.697
 20
-139.47
 21
-139.79
  0
LINE
  8
0
 10
-92.697
 11
-92.717
 20
-139.79
 21
-140.11
  0
LINE
  8
0
 10
-92.717
 11
-92.777
 20
-140.11
 21
-140.425
  0
LINE
  8
0
 10
-92.777
 11
-92.877
 20
-140.425
 21
-140.73
  0
LINE
  8
0
 10
-92.877
 11
-93.013
 20
-140.73
 21
-141.02
  0
LINE
  8
0
 10
-93.013
 11
-93.185
 20
-141.02
 21
-141.29
  0
LINE
  8
0
 10
-93.185
 11
-93.389
 20
-141.29
 21
-141.537
  0
LINE
  8
0
 10
-93.389
 11
-93.623
 20
-141.537
 21
-141.757
  0
LINE
  8
0
 10
-93.623
 11
-93.882
 20
-141.757
 21
-141.945
  0
LINE
  8
0
 10
-93.882
 11
-94.163
 20
-141.945
 21
-142.1
  0
LINE
  8
0
 10
-94.163
 11
-94.461
 20
-142.1
 21
-142.218
  0
LINE
  8
0
 10
-94.461
 11
-94.772
 20
-142.218
 21
-142.297
  0
LINE
  8
0
 10
-94.772
 11
-95.09
 20
-142.297
 21
-142.338
  0
LINE
  8
0
 10
-95.09
 11
-95.41
 20
-142.338
 21
-142.338
  0
LINE
  8
0
 10
-95.41
 11
-95.728
 20
-142.338
 21
-142.297
  0
LINE
  8
0
 10
-95.728
 11
-96.039
 20
-142.297
 21
-142.218
  0
LINE
  8
0
 10
-96.039
 11
-96.337
 20
-142.218
 21
-142.1
  0
LINE
  8
0
 10
-96.337
 11
-96.618
 20
-142.1
 21
-141.945
  0
LINE
  8
0
 10
-96.618
 11
-96.877
 20
-141.945
 21
-141.757
  0
LINE
  8
0
 10
-96.877
 11
-97.111
 20
-141.757
 21
-141.537
  0
LINE
  8
0
 10
-97.111
 11
-97.315
 20
-141.537
 21
-141.29
  0
LINE
  8
0
 10
-97.315
 11
-97.487
 20
-141.29
 21
-141.02
  0
LINE
  8
0
 10
-97.487
 11
-97.623
 20
-141.02
 21
-140.73
  0
LINE
  8
0
 10
-97.623
 11
-97.723
 20
-140.73
 21
-140.425
  0
LINE
  8
0
 10
-97.723
 11
-97.783
 20
-140.425
 21
-140.11
  0
LINE
  8
0
 10
-97.783
 11
-97.803
 20
-140.11
 21
-139.79
  0
LINE
  8
0
 10
-97.803
 11
-97.783
 20
139.79
 21
140.11
  0
LINE
  8
0
 10
-97.783
 11
-97.723
 20
140.11
 21
140.425
  0
LINE
  8
0
 10
-97.723
 11
-97.623
 20
140.425
 21
140.73
  0
LINE
  8
0
 10
-97.623
 11
-97.487
 20
140.73
 21
141.02
  0
LINE
  8
0
 10
-97.487
 11
-97.315
 20
141.02
 21
141.29
  0
LINE
  8
0
 10
-97.315
 11
-97.111
 20
141.29
 21
141.537
  0
LINE
  8
0
 10
-97.111
 11
-96.877
 20
141.537
 21
141.757
  0
LINE
  8
0
 10
-96.877
 11
-96.618
 20
141.757
 21
141.945
  0
LINE
  8
0
 10
-96.618
 11
-96.337
 20
141.945
 21
142.1
  0
LINE
  8
0
 10
-96.337
 11
-96.039
 20
142.1
 21
142.218
  0
LINE
  8
0
 10
-96.039
 11
-95.728
 20
142.218
 21
142.297
  0
LINE
  8
0
 10
-95.728
 11
-95.41
 20
142.297
 21
142.338
  0
LINE
  8
0
 10
-95.41
 11
-95.09
 20
142.338
 21
142.338
  0
LINE
  8
0
 10
-95.09
 11
-94.772
 20
142.338
 21
142.297
  0
LINE
  8
0
 10
-94.772
 11
-94.461
 20
142.297
 21
142.218
  0
LINE
  8
0
 10
-94.461
 11
-94.163
 20
142.218
 21
142.1
  0
LINE
  8
0
 10
-94.163
 11
-93.882
 20
142.1
 21
141.945
  0
LINE
  8
0
 10
-93.882
 11
-93.623
 20
141.945
 21
141.757
  0
LINE
  8
0
 10
-93.623
 11
-93.389
 20
141.757
 21
141.537
  0
LINE
  8
0
 10
-93.389
 11
-93.185
 20
141.537
 21
141.29
  0
LINE
  8
0
 10
-93.185
 11
-93.013
 20
141.29
 21
141.02
  0
LINE
  8
0
 10
-93.013
 11
-92.877
 20
141.02
 21
140.73
  0
LINE
  8
0
 10
-92.877
 11
-92.777
 20
140.73
 21
140.425
  0
LINE
  8
0
 10
-92.777
 11
-92.717
 20
140.425
 21
140.11
  0
LINE
  8
0
 10
-92.717
 11
-92.697
 20
140.11
 21
139.79
  0
LINE
  8
0
 10
-92.697
 11
-92.717
 20
139.79
 21
139.47
  0
LINE
  8
0
 10
-92.717
 11
-92.777
 20
139.47
 21
139.155
  0
LINE
  8
0
 10
-92.777
 11
-92.877
 20
139.155
 21
138.85
  0
LINE
  8
0
 10
-92.877
 11
-93.013
 20
138.85
 21
138.56
  0
LINE
  8
0
 10
-93.013
 11
-93.185
 20
138.56
 21
138.29
  0
LINE
  8
0
 10
-93.185
 11
-93.389
 20
138.29
 21
138.043
  0
LINE
  8
0
 10
-93.389
 11
-93.623
 20
138.043
 21
137.823
  0
LINE
  8
0
 10
-93.623
 11
-93.882
 20
137.823
 21
137.635
  0
LINE
  8
0
 10
-93.882
 11
-94.163
 20
137.635
 21
137.48
  0
LINE
  8
0
 10
-94.163
 11
-94.461
 20
137.48
 21
137.362
  0
LINE
  8
0
 10
-94.461
 11
-94.772
 20
137.362
 21
137.283
  0
LINE
  8
0
 10
-94.772
 11
-95.09
 20
137.283
 21
137.242
  0
LINE
  8
0
 10
-95.09
 11
-95.41
 20
137.242
 21
137.242
  0
LINE
  8
0
 10
-95.41
 11
-95.728
 20
137.242
 21
137.283
  0
LINE
  8
0
 10
-95.728
 11
-96.039
 20
137.283
 21
137.362
  0
LINE
  8
0
 10
-96.039
 11
-96.337
 20
137.362
 21
137.48
  0
LINE
  8
0
 10
-96.337
 11
-96.618
 20
137.48
 21
137.635
  0
LINE
  8
0
 10
-96.618
 11
-96.877
 20
137.635
 21
137.823
  0
LINE
  8
0
 10
-96.877
 11
-97.111
 20
137.823
 21
138.043
  0
LINE
  8
0
 10
-97.111
 11
-97.315
 20
138.043
 21
138.29
  0
LINE
  8
0
 10
-97.315
 11
-97.487
 20
138.29
 21
138.56
  0
LINE
  8
0
 10
-97.487
 11
-97.623
 20
138.56
 21
138.85
  0
LINE
  8
0
 10
-97.623
 11
-97.723
 20
138.85
 21
139.155
  0
LINE
  8
0
 10
-97.723
 11
-97.783
 20
139.155
 21
139.47
  0
LINE
  8
0
 10
-97.783
 11
-97.803
 20
139.47
 21
139.79
  0
LINE
  8
0
 10
-75.946
 11
-75.946
 20
-130.773
 21
-124.727
  0
LINE
  8
0
 10
-75.946
 11
-51.054
 20
-124.727
 21
-124.727
  0
LINE
  8
0
 10
-51.054
 11
-51.054
 20
-124.727
 21
-130.773
  0
LINE
  8
0
 10
-51.054
 11
-75.946
 20
-130.773
 21
-130.773
  0
LINE
  8
0
 10
-75.946
 11
-75.946
 20
124.727
 21
130.773
  0
LINE
  8
0
 10
-75.946
 11
-51.054
 20
130.773
 21
130.773
  0
LINE
  8
0
 10
-51.054
 11
-51.054
 20
130.773
 21
124.727
  0
LINE
  8
0
 10
-51.054
 11
-75.946
 20
124.727
 21
124.727
  0
LINE
  8
0
 10
-34.303
 11
-34.283
 20
-139.79
 21
-139.47
  0
LINE
  8
0
 10
-34.283
 11
-34.223
 20
-139.47
 21
-139.155
  0
LINE
  8
0
 10
-34.223
 11
-34.123
 20
-139.155
 21
-138.85
  0
LINE
  8
0
 10
-34.123
 11
-33.987
 20
-138.85
 21
-138.56
  0
LINE
  8
0
 10
-33.987
 11
-33.815
 20
-138.56
 21
-138.29
  0
LINE
  8
0
 10
-33.815
 11
-33.611
 20
-138.29
 21
-138.043
  0
LINE
  8
0
 10
-33.611
 11
-33.377
 20
-138.043
 21
-137.823
  0
LINE
  8
0
 10
-33.377
 11
-33.118
 20
-137.823
 21
-137.635
  0
LINE
  8
0
 10
-33.118
 11
-32.837
 20
-137.635
 21
-137.48
  0
LINE
  8
0
 10
-32.837
 11
-32.539
 20
-137.48
 21
-137.362
  0
LINE
  8
0
 10
-32.539
 11
-32.228
 20
-137.362
 21
-137.283
  0
LINE
  8
0
 10
-32.228
 11
-31.91
 20
-137.283
 21
-137.242
  0
LINE
  8
0
 10
-31.91
 11
-31.59
 20
-137.242
 21
-137.242
  0
LINE
  8
0
 10
-31.59
 11
-31.272
 20
-137.242
 21
-137.283
  0
LINE
  8
0
 10
-31.272
 11
-30.961
 20
-137.283
 21
-137.362
  0
LINE
  8
0
 10
-30.961
 11
-30.663
 20
-137.362
 21
-137.48
  0
LINE
  8
0
 10
-30.663
 11
-30.382
 20
-137.48
 21
-137.635
  0
LINE
  8
0
 10
-30.382
 11
-30.123
 20
-137.635
 21
-137.823
  0
LINE
  8
0
 10
-30.123
 11
-29.889
 20
-137.823
 21
-138.043
  0
LINE
  8
0
 10
-29.889
 11
-29.685
 20
-138.043
 21
-138.29
  0
LINE
  8
0
 10
-29.685
 11
-29.513
 20
-138.29
 21
-138.56
  0
LINE
  8
0
 10
-29.513
 11
-29.377
 20
-138.56
 21
-138.85
  0
LINE
  8
0
 10
-29.377
 11
-29.277
 20
-138.85
 21
-139.155
  0
LINE
  8
0
 10
-29.277
 11
-29.217
 20
-139.155
 21
-139.47
  0
LINE
  8
0
 10
-29.217
 11
-29.197
 20
-139.47
 21
-139.79
  0
LINE
  8
0
 10
-29.197
 11
-29.217
 20
-139.79
 21
-140.11
  0
LINE
  8
0
 10
-29.217
 11
-29.277
 20
-140.11
 21
-140.425
  0
LINE
  8
0
 10
-29.277
 11
-29.377
 20
-140.425
 21
-140.73
  0
LINE
  8
0
 10
-29.377
 11
-29.513
 20
-140.73
 21
-141.02
  0
LINE
  8
0
 10
-29.513
 11
-29.685
 20
-141.02
 21
-141.29
  0
LINE
  8
0
 10
-29.685
 11
-29.889
 20
-141.29
 21
-141.537
  0
LINE
  8
0
 10
-29.889
 11
-30.123
 20
-141.537
 21
-141.757
  0
LINE
  8
0
 10
-30.123
 11
-30.382
 20
-141.757
 21
-141.945
  0
LINE
  8
0
 10
-30.382
 11
-30.663
 20
-141.945
 21
-142.1
  0
LINE
  8
0
 10
-30.663
 11
-30.961
 20
-142.1
 21
-142.218
  0
LINE
  8
0
 10
-30.961
 11
-31.272
 20
-142.218
 21
-142.297
  0
LINE
  8
0
 10
-31.272
 11
-31.59
 20
-142.297
 21
-142.338
  0
LINE
  8
0
 10
-31.59
 11
-31.91
 20
-142.338
 21
-142.338
  0
LINE
  8
0
 10
-31.91
 11
-32.228
 20
-142.338
 21
-142.297
  0
LINE
  8
0
 10
-32.228
 11
-32.539
 20
-142.297
 21
-142.218
  0
LINE
  8
0
 10
-32.539
 11
-32.837
 20
-142.218
 21
-142.1
  0
LINE
  8
0
 10
-32.837
 11
-33.118
 20
-142.1
 21
-141.945
  0
LINE
  8
0
 10
-33.118
 11
-33.377
 20
-141.945
 21
-141.757
  0
LINE
  8
0
 10
-33.377
 11
-33.611
 20
-141.757
 21
-141.537
  0
LINE
  8
0
 10
-33.611
 11
-33.815
 20
-141.537
 21
-141.29
  0
LINE
  8
0
 10
-33.815
 11
-33.987
 20
-141.29
 21
-141.02
  0
LINE
  8
0
 10
-33.987
 11
-34.123
 20
-141.02
 21
-140.73
  0
LINE
  8
0
 10
-34.123
 11
-34.223
 20
-140.73
 21
-140.425
  0
LINE
  8
0
 10
-34.223
 11
-34.283
 20
-140.425
 21
-140.11
  0
LINE
  8
0
 10
-34.283
 11
-34.303
 20
-140.11
 21
-139.79
  0
LINE
  8
0
 10
-34.303
 11
-34.283
 20
139.79
 21
140.11
  0
LINE
  8
0
 10
-34.283
 11
-34.223
 20
140.11
 21
140.425
  0
LINE
  8
0
 10
-34.223
 11
-34.123
 20
140.425
 21
140.73
  0
LINE
  8
0
 10
-34.123
 11
-33.987
 20
140.73
 21
141.02
  0
LINE
  8
0
 10
-33.987
 11
-33.815
 20
141.02
 21
141.29
  0
LINE
  8
0
 10
-33.815
 11
-33.611
 20
141.29
 21
141.537
  0
LINE
  8
0
 10
-33.611
 11
-33.377
 20
141.537
 21
141.757
  0
LINE
  8
0
 10
-33.377
 11
-33.118
 20
141.757
 21
141.945
  0
LINE
  8
0
 10
-33.118
 11
-32.837
 20
141.945
 21
142.1
  0
LINE
  8
0
 10
-32.837
 11
-32.539
 20
142.1
 21
142.218
  0
LINE
  8
0
 10
-32.539
 11
-32.228
 20
142.218
 21
142.297
  0
LINE
  8
0
 10
-32.228
 11
-31.91
 20
142.297
 21
142.338
  0
LINE
  8
0
 10
-31.91
 11
-31.59
 20
142.338
 21
142.338
  0
LINE
  8
0
 10
-31.59
 11
-31.272
 20
142.338
 21
142.297
  0
LINE
  8
0
 10
-31.272
 11
-30.961
 20
142.297
 21
142.218
  0
LINE
  8
0
 10
-30.961
 11
-30.663
 20
142.218
 21
142.1
  0
LINE
  8
0
 10
-30.663
 11
-30.382
 20
142.1
 21
141.945
  0
LINE
  8
0
 10
-30.382
 11
-30.123
 20
141.945
 21
141.757
  0
LINE
  8
0
 10
-30.123
 11
-29.889
 20
141.757
 21
141.537
  0
LINE
  8
0
 10
-29.889
 11
-29.685
 20
141.537
 21
141.29
  0
LINE
  8
0
 10
-29.685
 11
-29.513
 20
141.29
 21
141.02
  0
LINE
  8
0
 10
-29.513
 11
-29.377
 20
141.02
 21
140.73
  0
LINE
  8
0
 10
-29.377
 11
-29.277
 20
140.73
 21
140.425
  0
LINE
  8
0
 10
-29.277
 11
-29.217
 20
140.425
 21
140.11
  0
LINE
  8
0
 10
-29.217
 11
-29.197
 20
140.11
 21
139.79
  0
LINE
  8
0
 10
-29.197
 11
-29.217
 20
139.79
 21
139.47
  0
LINE
  8
0
 10
-29.217
 11
-29.277
 20
139.47
 21
139.155
  0
LINE
  8
0
 10
-29.277
 11
-29.377
 20
139.155
 21
138.85
  0
LINE
  8
0
 10
-29.377
 11
-29.513
 20
138.85
 21
138.56
  0
LINE
  8
0
 10
-29.513
 11
-29.685
 20
138.56
 21
138.29
  0
LINE
  8
0
 10
-29.685
 11
-29.889
 20
138.29
 21
138.043
  0
LINE
  8
0
 10
-29.889
 11
-30.123
 20
138.043
 21
137.823
  0
LINE
  8
0
 10
-30.123
 11
-30.382
 20
137.823
 21
137.635
  0
LINE
  8
0
 10
-30.382
 11
-30.663
 20
137.635
 21
137.48
  0
LINE
  8
0
 10
-30.663
 11
-30.961
 20
137.48
 21
137.362
  0
LINE
  8
0
 10
-30.961
 11
-31.272
 20
137.362
 21
137.283
  0
LINE
  8
0
 10
-31.272
 11
-31.59
 20
137.283
 21
137.242
  0
LINE
  8
0
 10
-31.59
 11
-31.91
 20
137.242
 21
137.242
  0
LINE
  8
0
 10
-31.91
 11
-32.228
 20
137.242
 21
137.283
  0
LINE
  8
0
 10
-32.228
 11
-32.539
 20
137.283
 21
137.362
  0
LINE
  8
0
 10
-32.539
 11
-32.837
 20
137.362
 21
137.48
  0
LINE
  8
0
 10
-32.837
 11
-33.118
 20
137.48
 21
137.635
  0
LINE
  8
0
 10
-33.118
 11
-33.377
 20
137.635
 21
137.823
  0
LINE
  8
0
 10
-33.377
 11
-33.611
 20
137.823
 21
138.043
  0
LINE
  8
0
 10
-33.611
 11
-33.815
 20
138.043
 21
138.29
  0
LINE
  8
0
 10
-33.815
 11
-33.987
 20
138.29
 21
138.56
  0
LINE
  8
0
 10
-33.987
 11
-34.123
 20
138.56
 21
138.85
  0
LINE
  8
0
 10
-34.123
 11
-34.223
 20
138.85
 21
139.155
  0
LINE
  8
0
 10
-34.223
 11
-34.283
 20
139.155
 21
139.47
  0
LINE
  8
0
 10
-34.283
 11
-34.303
 20
139.47
 21
139.79
  0
LINE
  8
0
 10
-12.446
 11
-12.446
 20
-130.773
 21
-124.727
  0
LINE
  8
0
 10
-12.446
 11
12.446
 20
-124.727
 21
-124.727
  0
LINE
  8
0
 10
12.446
 11
12.446
 20
-124.727
 21
-130.773
  0
LINE
  8
0
 10
12.446
 11
-12.446
 20
-130.773
 21
-130.773
  0
LINE
  8
0
 10
-12.446
 11
-12.446
 20
124.727
 21
130.773
  0
LINE
  8
0
 10
-12.446
 11
12.446
 20
130.773
 21
130.773
  0
LINE
  8
0
 10
12.446
 11
12.446
 20
130.773
 21
124.727
  0
LINE
  8
0
 10
12.446
 11
-12.446
 20
124.727
 21
124.727
  0
LINE
  8
0
 10
29.197
 11
29.217
 20
-139.79
 21
-139.47
  0
LINE
  8
0
 10
29.217
 11
29.277
 20
-139.47
 21
-139.155
  0
LINE
  8
0
 10
29.277
 11
29.377
 20
-139.155
 21
-138.85
  0
LINE
  8
0
 10
29.377
 11
29.513
 20
-138.85
 21
-138.56
  0
LINE
  8
0
 10
29.513
 11
29.685
 20
-138.56
 21
-138.29
  0
LINE
  8
0
 10
29.685
 11
29.889
 20
-138.29
 21
-138.043
  0
LINE
  8
0
 10
29.889
 11
30.123
 20
-138.043
 21
-137.823
  0
LINE
  8
0
 10
30.123
 11
30.382
 20
-137.823
 21
-137.635
  0
LINE
  8
0
 10
30.382
 11
30.663
 20
-137.635
 21
-137.48
  0
LINE
  8
0
 10
30.663
 11
30.961
 20
-137.48
 21
-137.362
  0
LINE
  8
0
 10
30.961
 11
31.272
 20
-137.362
 21
-137.283
  0
LINE
  8
0
 10
31.272
 11
31.59
 20
-137.283
 21
-137.242
  0
LINE
  8
0
 10
31.59
 11
31.91
 20
-137.242
 21
-137.242
  0
LINE
  8
0
 10
31.91
 11
32.228
 20
-137.242
 21
-137.283
  0
LINE
  8
0
 10
32.228
 11
32.539
 20
-137.283
 21
-137.362
  0
LINE
  8
0
 10
32.539
 11
32.837
 20
-137.362
 21
-137.48
  0
LINE
  8
0
 10
32.837
 11
33.118
 20
-137.48
 21
-137.635
  0
LINE
  8
0
 10
33.118
 11
33.377
 20
-137.635
 21
-137.823
  0
LINE
  8
0
 10
33.377
 11
33.611
 20
-137.823
 21
-138.043
  0
LINE
  8
0
 10
33.611
 11
33.815
 20
-138.043
 21
-138.29
  0
LINE
  8
0
 10
33.815
 11
33.987
 20
-138.29
 21
-138.56
  0
LINE
  8
0
 10
33.987
 11
34.123
 20
-138.56
 21
-138.85
  0
LINE
  8
0
 10
34.123
 11
34.223
 20
-138.85
 21
-139.155
  0
LINE
  8
0
 10
34.223
 11
34.283
 20
-139.155
 21
-139.47
  0
LINE
  8
0
 10
34.283
 11
34.303
 20
-139.47
 21
-139.79
  0
LINE
  8
0
 10
34.303
 11
34.283
 20
-139.79
 21
-140.11
  0
LINE
  8
0
 10
34.283
 11
34.223
 20
-140.11
 21
-140.425
  0
LINE
  8
0
 10
34.223
 11
34.123
 20
-140.425
 21
-140.73
  0
LINE
  8
0
 10
34.123
 11
33.987
 20
-140.73
 21
-141.02
  0
LINE
  8
0
 10
33.987
 11
33.815
 20
-141.02
 21
-141.29
  0
LINE
  8
0
 10
33.815
 11
33.611
 20
-141.29
 21
-141.537
  0
LINE
  8
0
 10
33.611
 11
33.377
 20
-141.537
 21
-141.757
  0
LINE
  8
0
 10
33.377
 11
33.118
 20
-141.757
 21
-141.945
  0
LINE
  8
0
 10
33.118
 11
32.837
 20
-141.945
 21
-142.1
  0
LINE
  8
0
 10
32.837
 11
32.539
 20
-142.1
 21
-142.218
  0
LINE
  8
0
 10
32.539
 11
32.228
 20
-142.218
 21
-142.297
  0
LINE
  8
0
 10
32.228
 11
31.91
 20
-142.297
 21
-142.338
  0
LINE
  8
0
 10
31.91
 11
31.59
 20
-142.338
 21
-142.338
  0
LINE
  8
0
 10
31.59
 11
31.272
 20
-142.338
 21
-142.297
  0
LINE
  8
0
 10
31.272
 11
30.961
 20
-142.297
 21
-142.218
  0
LINE
  8
0
 10
30.961
 11
30.663
 20
-142.218
 21
-142.1
  0
LINE
  8
0
 10
30.663
 11
30.382
 20
-142.1
 21
-141.945
  0
LINE
  8
0
 10
30.382
 11
30.123
 20
-141.945
 21
-141.757
  0
LINE
  8
0
 10
30.123
 11
29.889
 20
-141.757
 21
-141.537
  0
LINE
  8
0
 10
29.889
 11
29.685
 20
-141.537
 21
-141.29
  0
LINE
  8
0
 10
29.685
 11
29.513
 20
-141.29
 21
-141.02
  0
LINE
  8
0
 10
29.513
 11
29.377
 20
-141.02
 21
-140.73
  0
LINE
  8
0
 10
29.377
 11
29.277
 20
-140.73
 21
-140.425
  0
LINE
  8
0
 10
29.277
 11
29.217
 20
-140.425
 21
-140.11
  0
LINE
  8
0
 10
29.217
 11
29.197
 20
-140.11
 21
-139.79
  0
LINE
  8
0
 10
29.197
 11
29.217
 20
139.79
 21
140.11
  0
LINE
  8
0
 10
29.217
 11
29.277
 20
140.11
 21
140.425
  0
LINE
  8
0
 10
29.277
 11
29.377
 20
140.425
 21
140.73
  0
LINE
  8
0
 10
29.377
 11
29.513
 20
140.73
 21
141.02
  0
LINE
  8
0
 10
29.513
 11
29.685
 20
141.02
 21
141.29
  0
LINE
  8
0
 10
29.685
 11
29.889
 20
141.29
 21
141.537
  0
LINE
  8
0
 10
29.889
 11
30.123
 20
141.537
 21
141.757
  0
LINE
  8
0
 10
30.123
 11
30.382
 20
141.757
 21
141.945
  0
LINE
  8
0
 10
30.382
 11
30.663
 20
141.945
 21
142.1
  0
LINE
  8
0
 10
30.663
 11
30.961
 20
142.1
 21
142.218
  0
LINE
  8
0
 10
30.961
 11
31.272
 20
142.218
 21
142.297
  0
LINE
  8
0
 10
31.272
 11
31.59
 20
142.297
 21
142.338
  0
LINE
  8
0
 10
31.59
 11
31.91
 20
142.338
 21
142.338
  0
LINE
  8
0
 10
31.91
 11
32.228
 20
142.338
 21
142.297
  0
LINE
  8
0
 10
32.228
 11
32.539
 20
142.297
 21
142.218
  0
LINE
  8
0
 10
32.539
 11
32.837
 20
142.218
 21
142.1
  0
LINE
  8
0
 10
32.837
 11
33.118
 20
142.1
 21
141.945
  0
LINE
  8
0
 10
33.118
 11
33.377
 20
141.945
 21
141.757
  0
LINE
  8
0
 10
33.377
 11
33.611
 20
141.757
 21
141.537
  0
LINE
  8
0
 10
33.611
 11
33.815
 20
141.537
 21
141.29
  0
LINE
  8
0
 10
33.815
 11
33.987
 20
141.29
 21
141.02
  0
LINE
  8
0
 10
33.987
 11
34.123
 20
141.02
 21
140.73
  0
LINE
  8
0
 10
34.123
 11
34.223
 20
140.73
 21
140.425
  0
LINE
  8
0
 10
34.223
 11
34.283
 20
140.425
 21
140.11
  0
LINE
  8
0
 10
34.283
 11
34.303
 20
140.11
 21
139.79
  0
LINE
  8
0
 10
34.303
 11
34.283
 20
139.79
 21
139.47
  0
LINE
  8
0
 10
34.283
 11
34.223
 20
139.47
 21
139.155
  0
LINE
  8
0
 10
34.223
 11
34.123
 20
139.155
 21
138.85
  0
LINE
  8
0
 10
34.123
 11
33.987
 20
138.85
 21
138.56
  0
LINE
  8
0
 10
33.987
 11
33.815
 20
138.56
 21
138.29
  0
LINE
  8
0
 10
33.815
 11
33.611
 20
138.29
 21
138.043
  0
LINE
  8
0
 10
33.611
 11
33.377
 20
138.043
 21
137.823
  0
LINE
  8
0
 10
33.377
 11
33.118
 20
137.823
 21
137.635
  0
LINE
  8
0
 10
33.118
 11
32.837
 20
137.635
 21
137.48
  0
LINE
  8
0
 10
32.837
 11
32.539
 20
137.48
 21
137.362
  0
LINE
  8
0
 10
32.539
 11
32.228
 20
137.362
 21
137.283
  0
LINE
  8
0
 10
32.228
 11
31.91
 20
137.283
 21
137.242
  0
LINE
  8
0
 10
31.91
 11
31.59
 20
137.242
 21
137.242
  0
LINE
  8
0
 10
31.59
 11
31.272
 20
137.242
 21
137.283
  0
LINE
  8
0
 10
31.272
 11
30.961
 20
137.283
 21
137.362
  0
LINE
  8
0
 10
30.961
 11
30.663
 20
137.362
 21
137.48
  0
LINE
  8
0
 10
30.663
 11
30.382
 20
137.48
 21
137.635
  0
LINE
  8
0
 10
30.382
 11
30.123
 20
137.635
 21
137.823
  0
LINE
  8
0
 10
30.123
 11
29.889
 20
137.823
 21
138.043
  0
LINE
  8
0
 10
29.889
 11
29.685
 20
138.043
 21
138.29
  0
LINE
  8
0
 10
29.685
 11
29.513
 20
138.29
 21
138.56
  0
LINE
  8
0
 10
29.513
 11
29.377
 20
138.56
 21
138.85
  0
LINE
  8
0
 10
29.377
 11
29.277
 20
138.85
 21
139.155
  0
LINE
  8
0
 10
29.277
 11
29.217
 20
139.155
 21
139.47
  0
LINE
  8
0
 10
29.217
 11
29.197
 20
139.47
 21
139.79
  0
LINE
  8
0
 10
51.054
 11
51.054
 20
-130.773
 21
-124.727
  0
LINE
  8
0
 10
51.054
 11
75.946
 20
-124.727
 21
-124.727
  0
LINE
  8
0
 10
75.946
 11
75.946
 20
-124.727
 21
-130.773
  0
LINE
  8
0
 10
75.946
 11
51.054
 20
-130.773
 21
-130.773
  0
LINE
  8
0
 10
51.054
 11
51.054
 20
124.727
 21
130.773
  0
LINE
  8
0
 10
51.054
 11
75.946
 20
130.773
 21
130.773
  0
LINE
  8
0
 10
75.946
 11
75.946
 20
130.773
 21
124.727
  0
LINE
  8
0
 10
75.946
 11
51.054
 20
124.727
 21
124.727
  0
LINE
  8
0
 10
92.697
 11
92.717
 20
-139.79
 21
-139.47
  0
LINE
  8
0
 10
92.717
 11
92.777
 20
-139.47
 21
-139.155
  0
LINE
  8
0
 10
92.777
 11
92.877
 20
-139.155
 21
-138.85
  0
LINE
  8
0
 10
92.877
 11
93.013
 20
-138.85
 21
-138.56
  0
LINE
  8
0
 10
93.013
 11
93.185
 20
-138.56
 21
-138.29
  0
LINE
  8
0
 10
93.185
 11
93.389
 20
-138.29
 21
-138.043
  0
LINE
  8
0
 10
93.389
 11
93.623
 20
-138.043
 21
-137.823
  0
LINE
  8
0
 10
93.623
 11
93.882
 20
-137.823
 21
-137.635
  0
LINE
  8
0
 10
93.882
 11
94.163
 20
-137.635
 21
-137.48
  0
LINE
  8
0
 10
94.163
 11
94.461
 20
-137.48
 21
-137.362
  0
LINE
  8
0
 10
94.461
 11
94.772
 20
-137.362
 21
-137.283
  0
LINE
  8
0
 10
94.772
 11
95.09
 20
-137.283
 21
-137.242
  0
LINE
  8
0
 10
95.09
 11
95.41
 20
-137.242
 21
-137.242
  0
LINE
  8
0
 10
95.41
 11
95.728
 20
-137.242
 21
-137.283
  0
LINE
  8
0
 10
95.728
 11
96.039
 20
-137.283
 21
-137.362
  0
LINE
  8
0
 10
96.039
 11
96.337
 20
-137.362
 21
-137.48
  0
LINE
  8
0
 10
96.337
 11
96.618
 20
-137.48
 21
-137.635
  0
LINE
  8
0
 10
96.618
 11
96.877
 20
-137.635
 21
-137.823
  0
LINE
  8
0
 10
96.877
 11
97.111
 20
-137.823
 21
-138.043
  0
LINE
  8
0
 10
97.111
 11
97.315
 20
-138.043
 21
-138.29
  0
LINE
  8
0
 10
97.315
 11
97.487
 20
-138.29
 21
-138.56
  0
LINE
  8
0
 10
97.487
 11
97.623
 20
-138.56
 21
-138.85
  0
LINE
  8
0
 10
97.623
 11
97.723
 20
-138.85
 21
-139.155
  0
LINE
  8
0
 10
97.723
 11
97.783
 20
-139.155
 21
-139.47
  0
LINE
  8
0
 10
97.783
 11
97.803
 20
-139.47
 21
-139.79
  0
LINE
  8
0
 10
97.803
 11
97.783
 20
-139.79
 21
-140.11
  0
LINE
  8
0
 10
97.783
 11
97.723
 20
-140.11
 21
-140.425
  0
LINE
  8
0
 10
97.723
 11
97.623
 20
-140.425
 21
-140.73
  0
LINE
  8
0
 10
97.623
 11
97.487
 20
-140.73
 21
-141.02
  0
LINE
  8
0
 10
97.487
 11
97.315
 20
-141.02
 21
-141.29
  0
LINE
  8
0
 10
97.315
 11
97.111
 20
-141.29
 21
-141.537
  0
LINE
  8
0
 10
97.111
 11
96.877
 20
-141.537
 21
-141.757
  0
LINE
  8
0
 10
96.877
 11
96.618
 20
-141.757
 21
-141.945
  0
LINE
  8
0
 10
96.618
 11
96.337
 20
-141.945
 21
-142.1
  0
LINE
  8
0
 10
96.337
 11
96.039
 20
-142.1
 21
-142.218
  0
LINE
  8
0
 10
96.039
 11
95.728
 20
-142.218
 21
-142.297
  0
LINE
  8
0
 10
95.728
 11
95.41
 20
-142.297
 21
-142.338
  0
LINE
  8
0
 10
95.41
 11
95.09
 20
-142.338
 21
-142.338
  0
LINE
  8
0
 10
95.09
 11
94.772
 20
-142.338
 21
-142.297
  0
LINE
  8
0
 10
94.772
 11
94.461
 20
-142.297
 21
-142.218
  0
LINE
  8
0
 10
94.461
 11
94.163
 20
-142.218
 21
-142.1
  0
LINE
  8
0
 10
94.163
 11
93.882
 20
-142.1
 21
-141.945
  0
LINE
  8
0
 10
93.882
 11
93.623
 20
-141.945
 21
-141.757
  0
LINE
  8
0
 10
93.623
 11
93.389
 20
-141.757
 21
-141.537
  0
LINE
  8
0
 10
93.389
 11
93.185
 20
-141.537
 21
-141.29
  0
LINE
  8
0
 10
93.185
 11
93.013
 20
-141.29
 21
-141.02
  0
LINE
  8
0
 10
93.013
 11
92.877
 20
-141.02
 21
-140.73
  0
LINE
  8
0
 10
92.877
 11
92.777
 20
-140.73
 21
-140.425
  0
LINE
  8
0
 10
92.777
 11
92.717
 20
-140.425
 21
-140.11
  0
LINE
  8
0
 10
92.717
 11
92.697
 20
-140.11
 21
-139.79
  0
LINE
  8
0
 10
92.697
 11
92.717
 20
139.79
 21
140.11
  0
LINE
  8
0
 10
92.717
 11
92.777
 20
140.11
 21
140.425
  0
LINE
  8
0
 10
92.777
 11
92.877
 20
140.425
 21
140.73
  0
LINE
  8
0
 10
92.877
 11
93.013
 20
140.73
 21
141.02
  0
LINE
  8
0
 10
93.013
 11
93.185
 20
141.02
 21
141.29
  0
LINE
  8
0
 10
93.185
 11
93.389
 20
141.29
 21
141.537
  0
LINE
  8
0
 10
93.389
 11
93.623
 20
141.537
 21
141.757
  0
LINE
  8
0
 10
93.623
 11
93.882
 20
141.757
 21
141.945
  0
LINE
  8
0
 10
93.882
 11
94.163
 20
141.945
 21
142.1
  0
LINE
  8
0
 10
94.163
 11
94.461
 20
142.1
 21
142.218
  0
LINE
  8
0
 10
94.461
 11
94.772
 20
142.218
 21
142.297
  0
LINE
  8
0
 10
94.772
 11
95.09
 20
142.297
 21
142.338
  0
LINE
  8
0
 10
95.09
 11
95.41
 20
142.338
 21
142.338
  0
LINE
  8
0
 10
95.41
 11
95.728
 20
142.338
 21
142.297
  0
LINE
  8
0
 10
95.728
 11
96.039
 20
142.297
 21
142.218
  0
LINE
  8
0
 10
96.039
 11
96.337
 20
142.218
 21
142.1
  0
LINE
  8
0
 10
96.337
 11
96.618
 20
142.1
 21
141.945
  0
LINE
  8
0
 10
96.618
 11
96.877
 20
141.945
 21
141.757
  0
LINE
  8
0
 10
96.877
 11
97.111
 20
141.757
 21
141.537
  0
LINE
  8
0
 10
97.111
 11
97.315
 20
141.537
 21
141.29
  0
LINE
  8
0
 10
97.315
 11
97.487
 20
141.29
 21
141.02
  0
LINE
  8
0
 10
97.487
 11
97.623
 20
141.02
 21
140.73
  0
LINE
  8
0
 10
97.623
 11
97.723
 20
140.73
 21
140.425
  0
LINE
  8
0
 10
97.723
 11
97.783
 20
140.425
 21
140.11
  0
LINE
  8
0
 10
97.783
 11
97.803
 20
140.11
 21
139.79
  0
LINE
  8
0
 10
97.803
 11
97.783
 20
139.79
 21
139.47
  0
LINE
  8
0
 10
97.783
 11
97.723
 20
139.47
 21
139.155
  0
LINE
  8
0
 10
97.723
 11
97.623
 20
139.155
 21
138.85
  0
LINE
  8
0
 10
97.623
 11
97.487
 20
138.85
 21
138.56
  0
LINE
  8
0
 10
97.487
 11
97.315
 20
138.56
 21
138.29
  0
LINE
  8
0
 10
97.315
 11
97.111
 20
138.29
 21
138.043
  0
LINE
  8
0
 10
97.111
 11
96.877
 20
138.043
 21
137.823
  0
LINE
  8
0
 10
96.877
 11
96.618
 20
137.823
 21
137.635
  0
LINE
  8
0
 10
96.618
 11
96.337
 20
137.635
 21
137.48
  0
LINE
  8
0
 10
96.337
 11
96.039
 20
137.48
 21
137.362
  0
LINE
  8
0
 10
96.039
 11
95.728
 20
137.362
 21
137.283
  0
LINE
  8
0
 10
95.728
 11
95.41
 20
137.283
 21
137.242
  0
LINE
  8
0
 10
95.41
 11
95.09
 20
137.242
 21
137.242
  0
LINE
  8
0
 10
95.09
 11
94.772
 20
137.242
 21
137.283
  0
LINE
  8
0
 10
94.772
 11
94.461
 20
137.283
 21
137.362
  0
LINE
  8
0
 10
94.461
 11
94.163
 20
137.362
 21
137.48
  0
LINE
  8
0
 10
94.163
 11
93.882
 20
137.48
 21
137.635
  0
LINE
  8
0
 10
93.882
 11
93.623
 20
137.635
 21
137.823
  0
LINE
  8
0
 10
93.623
 11
93.389
 20
137.823
 21
138.043
  0
LINE
  8
0
 10
93.389
 11
93.185
 20
138.043
 21
138.29
  0
LINE
  8
0
 10
93.185
 11
93.013
 20
138.29
 21
138.56
  0
LINE
  8
0
 10
93.013
 11
92.877
 20
138.56
 21
138.85
  0
LINE
  8
0
 10
92.877
 11
92.777
 20
138.85
 21
139.155
  0
LINE
  8
0
 10
92.777
 11
92.717
 20
139.155
 21
139.47
  0
LINE
  8
0
 10
92.717
 11
92.697
 20
139.47
 21
139.79
  0
LINE
  8
0
 10
114.554
 11
114.554
 20
-130.773
 21
-124.727
  0
LINE
  8
0
 10
114.554
 11
139.446
 20
-124.727
 21
-124.727
  0
LINE
  8
0
 10
139.446
 11
139.446
 20
-124.727
 21
-130.773
  0
LINE
  8
0
 10
139.446
 11
114.554
 20
-130.773
 21
-130.773
  0
LINE
  8
0
 10
114.554
 11
114.554
 20
124.727
 21
130.773
  0
LINE
  8
0
 10
114.554
 11
139.446
 20
130.773
 21
130.773
  0
LINE
  8
0
 10
139.446
 11
139.446
 20
130.773
 21
124.727
  0
LINE
  8
0
 10
139.446
 11
114.554
 20
124.727
 21
124.727
  0
ENDSEC
  0
SECTION
  2
OBJECTS
  0
DICTIONARY
  0
ENDSEC
  0
EOF
