  0
SECTION
  2
BLOCKS
  0
ENDSEC
  0
SECTION
  2
ENTITIES
  0
LINE
  8
0
 10
-184.15
 11
-184.15
 20
-76.2
 21
-58.5
  0
LINE
  8
0
 10
-184.15
 11
-158.75
 20
-58.5
 21
-58.5
  0
LINE
  8
0
 10
-158.75
 11
-158.75
 20
-58.5
 21
-55.5
  0
LINE
  8
0
 10
-158.75
 11
-184.15
 20
-55.5
 21
-55.5
  0
LINE
  8
0
 10
-184.15
 11
-184.15
 20
-55.5
 21
-49.5
  0
LINE
  8
0
 10
-184.15
 11
-158.75
 20
-49.5
 21
-49.5
  0
LINE
  8
0
 10
-158.75
 11
-158.75
 20
-49.5
 21
-46.5
  0
LINE
  8
0
 10
-158.75
 11
-184.15
 20
-46.5
 21
-46.5
  0
LINE
  8
0
 10
-184.15
 11
-184.15
 20
-46.5
 21
-40.5
  0
LINE
  8
0
 10
-184.15
 11
-158.75
 20
-40.5
 21
-40.5
  0
LINE
  8
0
 10
-158.75
 11
-158.75
 20
-40.5
 21
-37.5
  0
LINE
  8
0
 10
-158.75
 11
-184.15
 20
-37.5
 21
-37.5
  0
LINE
  8
0
 10
-184.15
 11
-184.15
 20
-37.5
 21
-31.5
  0
LINE
  8
0
 10
-184.15
 11
-158.75
 20
-31.5
 21
-31.5
  0
LINE
  8
0
 10
-158.75
 11
-158.75
 20
-31.5
 21
-28.5
  0
LINE
  8
0
 10
-158.75
 11
-184.15
 20
-28.5
 21
-28.5
  0
LINE
  8
0
 10
-184.15
 11
-184.15
 20
-28.5
 21
-22.5
  0
LINE
  8
0
 10
-184.15
 11
-158.75
 20
-22.5
 21
-22.5
  0
LINE
  8
0
 10
-158.75
 11
-158.75
 20
-22.5
 21
-19.5
  0
LINE
  8
0
 10
-158.75
 11
-184.15
 20
-19.5
 21
-19.5
  0
LINE
  8
0
 10
-184.15
 11
-184.15
 20
-19.5
 21
-13.5
  0
LINE
  8
0
 10
-184.15
 11
-158.75
 20
-13.5
 21
-13.5
  0
LINE
  8
0
 10
-158.75
 11
-158.75
 20
-13.5
 21
-10.5
  0
LINE
  8
0
 10
-158.75
 11
-184.15
 20
-10.5
 21
-10.5
  0
LINE
  8
0
 10
-184.15
 11
-184.15
 20
-10.5
 21
76.2
  0
LINE
  8
0
 10
-184.15
 11
184.15
 20
76.2
 21
76.2
  0
LINE
  8
0
 10
184.15
 11
184.15
 20
76.2
 21
-7.5
  0
LINE
  8
0
 10
184.15
 11
158.75
 20
-7.5
 21
-7.5
  0
LINE
  8
0
 10
158.75
 11
158.75
 20
-7.5
 21
-10.5
  0
LINE
  8
0
 10
158.75
 11
184.15
 20
-10.5
 21
-10.5
  0
LINE
  8
0
 10
184.15
 11
184.15
 20
-10.5
 21
-16.5
  0
LINE
  8
0
 10
184.15
 11
158.75
 20
-16.5
 21
-16.5
  0
LINE
  8
0
 10
158.75
 11
158.75
 20
-16.5
 21
-19.5
  0
LINE
  8
0
 10
158.75
 11
184.15
 20
-19.5
 21
-19.5
  0
LINE
  8
0
 10
184.15
 11
184.15
 20
-19.5
 21
-25.5
  0
LINE
  8
0
 10
184.15
 11
158.75
 20
-25.5
 21
-25.5
  0
LINE
  8
0
 10
158.75
 11
158.75
 20
-25.5
 21
-28.5
  0
LINE
  8
0
 10
158.75
 11
184.15
 20
-28.5
 21
-28.5
  0
LINE
  8
0
 10
184.15
 11
184.15
 20
-28.5
 21
-34.5
  0
LINE
  8
0
 10
184.15
 11
158.75
 20
-34.5
 21
-34.5
  0
LINE
  8
0
 10
158.75
 11
158.75
 20
-34.5
 21
-37.5
  0
LINE
  8
0
 10
158.75
 11
184.15
 20
-37.5
 21
-37.5
  0
LINE
  8
0
 10
184.15
 11
184.15
 20
-37.5
 21
-43.5
  0
LINE
  8
0
 10
184.15
 11
158.75
 20
-43.5
 21
-43.5
  0
LINE
  8
0
 10
158.75
 11
158.75
 20
-43.5
 21
-46.5
  0
LINE
  8
0
 10
158.75
 11
184.15
 20
-46.5
 21
-46.5
  0
LINE
  8
0
 10
184.15
 11
184.15
 20
-46.5
 21
-52.5
  0
LINE
  8
0
 10
184.15
 11
158.75
 20
-52.5
 21
-52.5
  0
LINE
  8
0
 10
158.75
 11
158.75
 20
-52.5
 21
-55.5
  0
LINE
  8
0
 10
158.75
 11
184.15
 20
-55.5
 21
-55.5
  0
LINE
  8
0
 10
184.15
 11
184.15
 20
-55.5
 21
-76.2
  0
LINE
  8
0
 10
184.15
 11
139.7
 20
-76.2
 21
-76.2
  0
LINE
  8
0
 10
139.7
 11
139.7
 20
-76.2
 21
-82.2
  0
LINE
  8
0
 10
139.7
 11
114.3
 20
-82.2
 21
-82.2
  0
LINE
  8
0
 10
114.3
 11
114.3
 20
-82.2
 21
-76.2
  0
LINE
  8
0
 10
114.3
 11
76.2
 20
-76.2
 21
-76.2
  0
LINE
  8
0
 10
76.2
 11
76.2
 20
-76.2
 21
-82.2
  0
LINE
  8
0
 10
76.2
 11
50.8
 20
-82.2
 21
-82.2
  0
LINE
  8
0
 10
50.8
 11
50.8
 20
-82.2
 21
-76.2
  0
LINE
  8
0
 10
50.8
 11
12.7
 20
-76.2
 21
-76.2
  0
LINE
  8
0
 10
12.7
 11
12.7
 20
-76.2
 21
-82.2
  0
LINE
  8
0
 10
12.7
 11
-12.7
 20
-82.2
 21
-82.2
  0
LINE
  8
0
 10
-12.7
 11
-12.7
 20
-82.2
 21
-76.2
  0
LINE
  8
0
 10
-12.7
 11
-50.8
 20
-76.2
 21
-76.2
  0
LINE
  8
0
 10
-50.8
 11
-50.8
 20
-76.2
 21
-82.2
  0
LINE
  8
0
 10
-50.8
 11
-76.2
 20
-82.2
 21
-82.2
  0
LINE
  8
0
 10
-76.2
 11
-76.2
 20
-82.2
 21
-76.2
  0
LINE
  8
0
 10
-76.2
 11
-114.3
 20
-76.2
 21
-76.2
  0
LINE
  8
0
 10
-114.3
 11
-114.3
 20
-76.2
 21
-82.2
  0
LINE
  8
0
 10
-114.3
 11
-139.7
 20
-82.2
 21
-82.2
  0
LINE
  8
0
 10
-139.7
 11
-139.7
 20
-82.2
 21
-76.2
  0
LINE
  8
0
 10
-139.7
 11
-184.15
 20
-76.2
 21
-76.2
  0
LINE
  8
0
 10
-174.714
 11
-174.688
 20
50.8
 21
51.209
  0
LINE
  8
0
 10
-174.688
 11
-174.611
 20
51.209
 21
51.612
  0
LINE
  8
0
 10
-174.611
 11
-174.485
 20
51.612
 21
52.002
  0
LINE
  8
0
 10
-174.485
 11
-174.31
 20
52.002
 21
52.372
  0
LINE
  8
0
 10
-174.31
 11
-174.091
 20
52.372
 21
52.718
  0
LINE
  8
0
 10
-174.091
 11
-173.829
 20
52.718
 21
53.034
  0
LINE
  8
0
 10
-173.829
 11
-173.53
 20
53.034
 21
53.315
  0
LINE
  8
0
 10
-173.53
 11
-173.199
 20
53.315
 21
53.556
  0
LINE
  8
0
 10
-173.199
 11
-172.84
 20
53.556
 21
53.753
  0
LINE
  8
0
 10
-172.84
 11
-172.459
 20
53.753
 21
53.904
  0
LINE
  8
0
 10
-172.459
 11
-172.062
 20
53.904
 21
54.006
  0
LINE
  8
0
 10
-172.062
 11
-171.655
 20
54.006
 21
54.057
  0
LINE
  8
0
 10
-171.655
 11
-171.245
 20
54.057
 21
54.057
  0
LINE
  8
0
 10
-171.245
 11
-170.838
 20
54.057
 21
54.006
  0
LINE
  8
0
 10
-170.838
 11
-170.441
 20
54.006
 21
53.904
  0
LINE
  8
0
 10
-170.441
 11
-170.06
 20
53.904
 21
53.753
  0
LINE
  8
0
 10
-170.06
 11
-169.701
 20
53.753
 21
53.556
  0
LINE
  8
0
 10
-169.701
 11
-169.37
 20
53.556
 21
53.315
  0
LINE
  8
0
 10
-169.37
 11
-169.071
 20
53.315
 21
53.034
  0
LINE
  8
0
 10
-169.071
 11
-168.809
 20
53.034
 21
52.718
  0
LINE
  8
0
 10
-168.809
 11
-168.59
 20
52.718
 21
52.372
  0
LINE
  8
0
 10
-168.59
 11
-168.415
 20
52.372
 21
52.002
  0
LINE
  8
0
 10
-168.415
 11
-168.289
 20
52.002
 21
51.612
  0
LINE
  8
0
 10
-168.289
 11
-168.212
 20
51.612
 21
51.209
  0
LINE
  8
0
 10
-168.212
 11
-168.186
 20
51.209
 21
50.8
  0
LINE
  8
0
 10
-168.186
 11
-168.212
 20
50.8
 21
50.391
  0
LINE
  8
0
 10
-168.212
 11
-168.289
 20
50.391
 21
49.988
  0
LINE
  8
0
 10
-168.289
 11
-168.415
 20
49.988
 21
49.598
  0
LINE
  8
0
 10
-168.415
 11
-168.59
 20
49.598
 21
49.228
  0
LINE
  8
0
 10
-168.59
 11
-168.809
 20
49.228
 21
48.882
  0
LINE
  8
0
 10
-168.809
 11
-169.071
 20
48.882
 21
48.566
  0
LINE
  8
0
 10
-169.071
 11
-169.37
 20
48.566
 21
48.285
  0
LINE
  8
0
 10
-169.37
 11
-169.701
 20
48.285
 21
48.044
  0
LINE
  8
0
 10
-169.701
 11
-170.06
 20
48.044
 21
47.847
  0
LINE
  8
0
 10
-170.06
 11
-170.441
 20
47.847
 21
47.696
  0
LINE
  8
0
 10
-170.441
 11
-170.838
 20
47.696
 21
47.594
  0
LINE
  8
0
 10
-170.838
 11
-171.245
 20
47.594
 21
47.543
  0
LINE
  8
0
 10
-171.245
 11
-171.655
 20
47.543
 21
47.543
  0
LINE
  8
0
 10
-171.655
 11
-172.062
 20
47.543
 21
47.594
  0
LINE
  8
0
 10
-172.062
 11
-172.459
 20
47.594
 21
47.696
  0
LINE
  8
0
 10
-172.459
 11
-172.84
 20
47.696
 21
47.847
  0
LINE
  8
0
 10
-172.84
 11
-173.199
 20
47.847
 21
48.044
  0
LINE
  8
0
 10
-173.199
 11
-173.53
 20
48.044
 21
48.285
  0
LINE
  8
0
 10
-173.53
 11
-173.829
 20
48.285
 21
48.566
  0
LINE
  8
0
 10
-173.829
 11
-174.091
 20
48.566
 21
48.882
  0
LINE
  8
0
 10
-174.091
 11
-174.31
 20
48.882
 21
49.228
  0
LINE
  8
0
 10
-174.31
 11
-174.485
 20
49.228
 21
49.598
  0
LINE
  8
0
 10
-174.485
 11
-174.611
 20
49.598
 21
49.988
  0
LINE
  8
0
 10
-174.611
 11
-174.688
 20
49.988
 21
50.391
  0
LINE
  8
0
 10
-174.688
 11
-174.714
 20
50.391
 21
50.8
  0
LINE
  8
0
 10
-130.264
 11
-130.238
 20
-44.45
 21
-44.041
  0
LINE
  8
0
 10
-130.238
 11
-130.161
 20
-44.041
 21
-43.638
  0
LINE
  8
0
 10
-130.161
 11
-130.035
 20
-43.638
 21
-43.248
  0
LINE
  8
0
 10
-130.035
 11
-129.86
 20
-43.248
 21
-42.878
  0
LINE
  8
0
 10
-129.86
 11
-129.641
 20
-42.878
 21
-42.532
  0
LINE
  8
0
 10
-129.641
 11
-129.379
 20
-42.532
 21
-42.216
  0
LINE
  8
0
 10
-129.379
 11
-129.08
 20
-42.216
 21
-41.935
  0
LINE
  8
0
 10
-129.08
 11
-128.749
 20
-41.935
 21
-41.694
  0
LINE
  8
0
 10
-128.749
 11
-128.39
 20
-41.694
 21
-41.497
  0
LINE
  8
0
 10
-128.39
 11
-128.009
 20
-41.497
 21
-41.346
  0
LINE
  8
0
 10
-128.009
 11
-127.612
 20
-41.346
 21
-41.244
  0
LINE
  8
0
 10
-127.612
 11
-127.205
 20
-41.244
 21
-41.193
  0
LINE
  8
0
 10
-127.205
 11
-126.795
 20
-41.193
 21
-41.193
  0
LINE
  8
0
 10
-126.795
 11
-126.388
 20
-41.193
 21
-41.244
  0
LINE
  8
0
 10
-126.388
 11
-125.991
 20
-41.244
 21
-41.346
  0
LINE
  8
0
 10
-125.991
 11
-125.61
 20
-41.346
 21
-41.497
  0
LINE
  8
0
 10
-125.61
 11
-125.251
 20
-41.497
 21
-41.694
  0
LINE
  8
0
 10
-125.251
 11
-124.92
 20
-41.694
 21
-41.935
  0
LINE
  8
0
 10
-124.92
 11
-124.621
 20
-41.935
 21
-42.216
  0
LINE
  8
0
 10
-124.621
 11
-124.359
 20
-42.216
 21
-42.532
  0
LINE
  8
0
 10
-124.359
 11
-124.14
 20
-42.532
 21
-42.878
  0
LINE
  8
0
 10
-124.14
 11
-123.965
 20
-42.878
 21
-43.248
  0
LINE
  8
0
 10
-123.965
 11
-123.839
 20
-43.248
 21
-43.638
  0
LINE
  8
0
 10
-123.839
 11
-123.762
 20
-43.638
 21
-44.041
  0
LINE
  8
0
 10
-123.762
 11
-123.736
 20
-44.041
 21
-44.45
  0
LINE
  8
0
 10
-123.736
 11
-123.762
 20
-44.45
 21
-44.859
  0
LINE
  8
0
 10
-123.762
 11
-123.839
 20
-44.859
 21
-45.262
  0
LINE
  8
0
 10
-123.839
 11
-123.965
 20
-45.262
 21
-45.652
  0
LINE
  8
0
 10
-123.965
 11
-124.14
 20
-45.652
 21
-46.022
  0
LINE
  8
0
 10
-124.14
 11
-124.359
 20
-46.022
 21
-46.368
  0
LINE
  8
0
 10
-124.359
 11
-124.621
 20
-46.368
 21
-46.684
  0
LINE
  8
0
 10
-124.621
 11
-124.92
 20
-46.684
 21
-46.965
  0
LINE
  8
0
 10
-124.92
 11
-125.251
 20
-46.965
 21
-47.206
  0
LINE
  8
0
 10
-125.251
 11
-125.61
 20
-47.206
 21
-47.403
  0
LINE
  8
0
 10
-125.61
 11
-125.991
 20
-47.403
 21
-47.554
  0
LINE
  8
0
 10
-125.991
 11
-126.388
 20
-47.554
 21
-47.656
  0
LINE
  8
0
 10
-126.388
 11
-126.795
 20
-47.656
 21
-47.707
  0
LINE
  8
0
 10
-126.795
 11
-127.205
 20
-47.707
 21
-47.707
  0
LINE
  8
0
 10
-127.205
 11
-127.612
 20
-47.707
 21
-47.656
  0
LINE
  8
0
 10
-127.612
 11
-128.009
 20
-47.656
 21
-47.554
  0
LINE
  8
0
 10
-128.009
 11
-128.39
 20
-47.554
 21
-47.403
  0
LINE
  8
0
 10
-128.39
 11
-128.749
 20
-47.403
 21
-47.206
  0
LINE
  8
0
 10
-128.749
 11
-129.08
 20
-47.206
 21
-46.965
  0
LINE
  8
0
 10
-129.08
 11
-129.379
 20
-46.965
 21
-46.684
  0
LINE
  8
0
 10
-129.379
 11
-129.641
 20
-46.684
 21
-46.368
  0
LINE
  8
0
 10
-129.641
 11
-129.86
 20
-46.368
 21
-46.022
  0
LINE
  8
0
 10
-129.86
 11
-130.035
 20
-46.022
 21
-45.652
  0
LINE
  8
0
 10
-130.035
 11
-130.161
 20
-45.652
 21
-45.262
  0
LINE
  8
0
 10
-130.161
 11
-130.238
 20
-45.262
 21
-44.859
  0
LINE
  8
0
 10
-130.238
 11
-130.264
 20
-44.859
 21
-44.45
  0
LINE
  8
0
 10
-130.264
 11
-130.238
 20
44.45
 21
44.859
  0
LINE
  8
0
 10
-130.238
 11
-130.161
 20
44.859
 21
45.262
  0
LINE
  8
0
 10
-130.161
 11
-130.035
 20
45.262
 21
45.652
  0
LINE
  8
0
 10
-130.035
 11
-129.86
 20
45.652
 21
46.022
  0
LINE
  8
0
 10
-129.86
 11
-129.641
 20
46.022
 21
46.368
  0
LINE
  8
0
 10
-129.641
 11
-129.379
 20
46.368
 21
46.684
  0
LINE
  8
0
 10
-129.379
 11
-129.08
 20
46.684
 21
46.965
  0
LINE
  8
0
 10
-129.08
 11
-128.749
 20
46.965
 21
47.206
  0
LINE
  8
0
 10
-128.749
 11
-128.39
 20
47.206
 21
47.403
  0
LINE
  8
0
 10
-128.39
 11
-128.009
 20
47.403
 21
47.554
  0
LINE
  8
0
 10
-128.009
 11
-127.612
 20
47.554
 21
47.656
  0
LINE
  8
0
 10
-127.612
 11
-127.205
 20
47.656
 21
47.707
  0
LINE
  8
0
 10
-127.205
 11
-126.795
 20
47.707
 21
47.707
  0
LINE
  8
0
 10
-126.795
 11
-126.388
 20
47.707
 21
47.656
  0
LINE
  8
0
 10
-126.388
 11
-125.991
 20
47.656
 21
47.554
  0
LINE
  8
0
 10
-125.991
 11
-125.61
 20
47.554
 21
47.403
  0
LINE
  8
0
 10
-125.61
 11
-125.251
 20
47.403
 21
47.206
  0
LINE
  8
0
 10
-125.251
 11
-124.92
 20
47.206
 21
46.965
  0
LINE
  8
0
 10
-124.92
 11
-124.621
 20
46.965
 21
46.684
  0
LINE
  8
0
 10
-124.621
 11
-124.359
 20
46.684
 21
46.368
  0
LINE
  8
0
 10
-124.359
 11
-124.14
 20
46.368
 21
46.022
  0
LINE
  8
0
 10
-124.14
 11
-123.965
 20
46.022
 21
45.652
  0
LINE
  8
0
 10
-123.965
 11
-123.839
 20
45.652
 21
45.262
  0
LINE
  8
0
 10
-123.839
 11
-123.762
 20
45.262
 21
44.859
  0
LINE
  8
0
 10
-123.762
 11
-123.736
 20
44.859
 21
44.45
  0
LINE
  8
0
 10
-123.736
 11
-123.762
 20
44.45
 21
44.041
  0
LINE
  8
0
 10
-123.762
 11
-123.839
 20
44.041
 21
43.638
  0
LINE
  8
0
 10
-123.839
 11
-123.965
 20
43.638
 21
43.248
  0
LINE
  8
0
 10
-123.965
 11
-124.14
 20
43.248
 21
42.878
  0
LINE
  8
0
 10
-124.14
 11
-124.359
 20
42.878
 21
42.532
  0
LINE
  8
0
 10
-124.359
 11
-124.621
 20
42.532
 21
42.216
  0
LINE
  8
0
 10
-124.621
 11
-124.92
 20
42.216
 21
41.935
  0
LINE
  8
0
 10
-124.92
 11
-125.251
 20
41.935
 21
41.694
  0
LINE
  8
0
 10
-125.251
 11
-125.61
 20
41.694
 21
41.497
  0
LINE
  8
0
 10
-125.61
 11
-125.991
 20
41.497
 21
41.346
  0
LINE
  8
0
 10
-125.991
 11
-126.388
 20
41.346
 21
41.244
  0
LINE
  8
0
 10
-126.388
 11
-126.795
 20
41.244
 21
41.193
  0
LINE
  8
0
 10
-126.795
 11
-127.205
 20
41.193
 21
41.193
  0
LINE
  8
0
 10
-127.205
 11
-127.612
 20
41.193
 21
41.244
  0
LINE
  8
0
 10
-127.612
 11
-128.009
 20
41.244
 21
41.346
  0
LINE
  8
0
 10
-128.009
 11
-128.39
 20
41.346
 21
41.497
  0
LINE
  8
0
 10
-128.39
 11
-128.749
 20
41.497
 21
41.694
  0
LINE
  8
0
 10
-128.749
 11
-129.08
 20
41.694
 21
41.935
  0
LINE
  8
0
 10
-129.08
 11
-129.379
 20
41.935
 21
42.216
  0
LINE
  8
0
 10
-129.379
 11
-129.641
 20
42.216
 21
42.532
  0
LINE
  8
0
 10
-129.641
 11
-129.86
 20
42.532
 21
42.878
  0
LINE
  8
0
 10
-129.86
 11
-130.035
 20
42.878
 21
43.248
  0
LINE
  8
0
 10
-130.035
 11
-130.161
 20
43.248
 21
43.638
  0
LINE
  8
0
 10
-130.161
 11
-130.238
 20
43.638
 21
44.041
  0
LINE
  8
0
 10
-130.238
 11
-130.264
 20
44.041
 21
44.45
  0
LINE
  8
0
 10
-97.803
 11
-97.783
 20
-63.5
 21
-63.18
  0
LINE
  8
0
 10
-97.783
 11
-97.723
 20
-63.18
 21
-62.865
  0
LINE
  8
0
 10
-97.723
 11
-97.623
 20
-62.865
 21
-62.56
  0
LINE
  8
0
 10
-97.623
 11
-97.487
 20
-62.56
 21
-62.27
  0
LINE
  8
0
 10
-97.487
 11
-97.315
 20
-62.27
 21
-62
  0
LINE
  8
0
 10
-97.315
 11
-97.111
 20
-62
 21
-61.753
  0
LINE
  8
0
 10
-97.111
 11
-96.877
 20
-61.753
 21
-61.533
  0
LINE
  8
0
 10
-96.877
 11
-96.618
 20
-61.533
 21
-61.345
  0
LINE
  8
0
 10
-96.618
 11
-96.337
 20
-61.345
 21
-61.19
  0
LINE
  8
0
 10
-96.337
 11
-96.039
 20
-61.19
 21
-61.072
  0
LINE
  8
0
 10
-96.039
 11
-95.728
 20
-61.072
 21
-60.993
  0
LINE
  8
0
 10
-95.728
 11
-95.41
 20
-60.993
 21
-60.952
  0
LINE
  8
0
 10
-95.41
 11
-95.09
 20
-60.952
 21
-60.952
  0
LINE
  8
0
 10
-95.09
 11
-94.772
 20
-60.952
 21
-60.993
  0
LINE
  8
0
 10
-94.772
 11
-94.461
 20
-60.993
 21
-61.072
  0
LINE
  8
0
 10
-94.461
 11
-94.163
 20
-61.072
 21
-61.19
  0
LINE
  8
0
 10
-94.163
 11
-93.882
 20
-61.19
 21
-61.345
  0
LINE
  8
0
 10
-93.882
 11
-93.623
 20
-61.345
 21
-61.533
  0
LINE
  8
0
 10
-93.623
 11
-93.389
 20
-61.533
 21
-61.753
  0
LINE
  8
0
 10
-93.389
 11
-93.185
 20
-61.753
 21
-62
  0
LINE
  8
0
 10
-93.185
 11
-93.013
 20
-62
 21
-62.27
  0
LINE
  8
0
 10
-93.013
 11
-92.877
 20
-62.27
 21
-62.56
  0
LINE
  8
0
 10
-92.877
 11
-92.777
 20
-62.56
 21
-62.865
  0
LINE
  8
0
 10
-92.777
 11
-92.717
 20
-62.865
 21
-63.18
  0
LINE
  8
0
 10
-92.717
 11
-92.697
 20
-63.18
 21
-63.5
  0
LINE
  8
0
 10
-92.697
 11
-92.717
 20
-63.5
 21
-63.82
  0
LINE
  8
0
 10
-92.717
 11
-92.777
 20
-63.82
 21
-64.135
  0
LINE
  8
0
 10
-92.777
 11
-92.877
 20
-64.135
 21
-64.44
  0
LINE
  8
0
 10
-92.877
 11
-93.013
 20
-64.44
 21
-64.73
  0
LINE
  8
0
 10
-93.013
 11
-93.185
 20
-64.73
 21
-65
  0
LINE
  8
0
 10
-93.185
 11
-93.389
 20
-65
 21
-65.247
  0
LINE
  8
0
 10
-93.389
 11
-93.623
 20
-65.247
 21
-65.467
  0
LINE
  8
0
 10
-93.623
 11
-93.882
 20
-65.467
 21
-65.655
  0
LINE
  8
0
 10
-93.882
 11
-94.163
 20
-65.655
 21
-65.81
  0
LINE
  8
0
 10
-94.163
 11
-94.461
 20
-65.81
 21
-65.928
  0
LINE
  8
0
 10
-94.461
 11
-94.772
 20
-65.928
 21
-66.007
  0
LINE
  8
0
 10
-94.772
 11
-95.09
 20
-66.007
 21
-66.048
  0
LINE
  8
0
 10
-95.09
 11
-95.41
 20
-66.048
 21
-66.048
  0
LINE
  8
0
 10
-95.41
 11
-95.728
 20
-66.048
 21
-66.007
  0
LINE
  8
0
 10
-95.728
 11
-96.039
 20
-66.007
 21
-65.928
  0
LINE
  8
0
 10
-96.039
 11
-96.337
 20
-65.928
 21
-65.81
  0
LINE
  8
0
 10
-96.337
 11
-96.618
 20
-65.81
 21
-65.655
  0
LINE
  8
0
 10
-96.618
 11
-96.877
 20
-65.655
 21
-65.467
  0
LINE
  8
0
 10
-96.877
 11
-97.111
 20
-65.467
 21
-65.247
  0
LINE
  8
0
 10
-97.111
 11
-97.315
 20
-65.247
 21
-65
  0
LINE
  8
0
 10
-97.315
 11
-97.487
 20
-65
 21
-64.73
  0
LINE
  8
0
 10
-97.487
 11
-97.623
 20
-64.73
 21
-64.44
  0
LINE
  8
0
 10
-97.623
 11
-97.723
 20
-64.44
 21
-64.135
  0
LINE
  8
0
 10
-97.723
 11
-97.783
 20
-64.135
 21
-63.82
  0
LINE
  8
0
 10
-97.783
 11
-97.803
 20
-63.82
 21
-63.5
  0
LINE
  8
0
 10
-34.303
 11
-34.283
 20
-63.5
 21
-63.18
  0
LINE
  8
0
 10
-34.283
 11
-34.223
 20
-63.18
 21
-62.865
  0
LINE
  8
0
 10
-34.223
 11
-34.123
 20
-62.865
 21
-62.56
  0
LINE
  8
0
 10
-34.123
 11
-33.987
 20
-62.56
 21
-62.27
  0
LINE
  8
0
 10
-33.987
 11
-33.815
 20
-62.27
 21
-62
  0
LINE
  8
0
 10
-33.815
 11
-33.611
 20
-62
 21
-61.753
  0
LINE
  8
0
 10
-33.611
 11
-33.377
 20
-61.753
 21
-61.533
  0
LINE
  8
0
 10
-33.377
 11
-33.118
 20
-61.533
 21
-61.345
  0
LINE
  8
0
 10
-33.118
 11
-32.837
 20
-61.345
 21
-61.19
  0
LINE
  8
0
 10
-32.837
 11
-32.539
 20
-61.19
 21
-61.072
  0
LINE
  8
0
 10
-32.539
 11
-32.228
 20
-61.072
 21
-60.993
  0
LINE
  8
0
 10
-32.228
 11
-31.91
 20
-60.993
 21
-60.952
  0
LINE
  8
0
 10
-31.91
 11
-31.59
 20
-60.952
 21
-60.952
  0
LINE
  8
0
 10
-31.59
 11
-31.272
 20
-60.952
 21
-60.993
  0
LINE
  8
0
 10
-31.272
 11
-30.961
 20
-60.993
 21
-61.072
  0
LINE
  8
0
 10
-30.961
 11
-30.663
 20
-61.072
 21
-61.19
  0
LINE
  8
0
 10
-30.663
 11
-30.382
 20
-61.19
 21
-61.345
  0
LINE
  8
0
 10
-30.382
 11
-30.123
 20
-61.345
 21
-61.533
  0
LINE
  8
0
 10
-30.123
 11
-29.889
 20
-61.533
 21
-61.753
  0
LINE
  8
0
 10
-29.889
 11
-29.685
 20
-61.753
 21
-62
  0
LINE
  8
0
 10
-29.685
 11
-29.513
 20
-62
 21
-62.27
  0
LINE
  8
0
 10
-29.513
 11
-29.377
 20
-62.27
 21
-62.56
  0
LINE
  8
0
 10
-29.377
 11
-29.277
 20
-62.56
 21
-62.865
  0
LINE
  8
0
 10
-29.277
 11
-29.217
 20
-62.865
 21
-63.18
  0
LINE
  8
0
 10
-29.217
 11
-29.197
 20
-63.18
 21
-63.5
  0
LINE
  8
0
 10
-29.197
 11
-29.217
 20
-63.5
 21
-63.82
  0
LINE
  8
0
 10
-29.217
 11
-29.277
 20
-63.82
 21
-64.135
  0
LINE
  8
0
 10
-29.277
 11
-29.377
 20
-64.135
 21
-64.44
  0
LINE
  8
0
 10
-29.377
 11
-29.513
 20
-64.44
 21
-64.73
  0
LINE
  8
0
 10
-29.513
 11
-29.685
 20
-64.73
 21
-65
  0
LINE
  8
0
 10
-29.685
 11
-29.889
 20
-65
 21
-65.247
  0
LINE
  8
0
 10
-29.889
 11
-30.123
 20
-65.247
 21
-65.467
  0
LINE
  8
0
 10
-30.123
 11
-30.382
 20
-65.467
 21
-65.655
  0
LINE
  8
0
 10
-30.382
 11
-30.663
 20
-65.655
 21
-65.81
  0
LINE
  8
0
 10
-30.663
 11
-30.961
 20
-65.81
 21
-65.928
  0
LINE
  8
0
 10
-30.961
 11
-31.272
 20
-65.928
 21
-66.007
  0
LINE
  8
0
 10
-31.272
 11
-31.59
 20
-66.007
 21
-66.048
  0
LINE
  8
0
 10
-31.59
 11
-31.91
 20
-66.048
 21
-66.048
  0
LINE
  8
0
 10
-31.91
 11
-32.228
 20
-66.048
 21
-66.007
  0
LINE
  8
0
 10
-32.228
 11
-32.539
 20
-66.007
 21
-65.928
  0
LINE
  8
0
 10
-32.539
 11
-32.837
 20
-65.928
 21
-65.81
  0
LINE
  8
0
 10
-32.837
 11
-33.118
 20
-65.81
 21
-65.655
  0
LINE
  8
0
 10
-33.118
 11
-33.377
 20
-65.655
 21
-65.467
  0
LINE
  8
0
 10
-33.377
 11
-33.611
 20
-65.467
 21
-65.247
  0
LINE
  8
0
 10
-33.611
 11
-33.815
 20
-65.247
 21
-65
  0
LINE
  8
0
 10
-33.815
 11
-33.987
 20
-65
 21
-64.73
  0
LINE
  8
0
 10
-33.987
 11
-34.123
 20
-64.73
 21
-64.44
  0
LINE
  8
0
 10
-34.123
 11
-34.223
 20
-64.44
 21
-64.135
  0
LINE
  8
0
 10
-34.223
 11
-34.283
 20
-64.135
 21
-63.82
  0
LINE
  8
0
 10
-34.283
 11
-34.303
 20
-63.82
 21
-63.5
  0
LINE
  8
0
 10
-3.264
 11
-3.238
 20
-44.45
 21
-44.041
  0
LINE
  8
0
 10
-3.238
 11
-3.161
 20
-44.041
 21
-43.638
  0
LINE
  8
0
 10
-3.161
 11
-3.035
 20
-43.638
 21
-43.248
  0
LINE
  8
0
 10
-3.035
 11
-2.86
 20
-43.248
 21
-42.878
  0
LINE
  8
0
 10
-2.86
 11
-2.641
 20
-42.878
 21
-42.532
  0
LINE
  8
0
 10
-2.641
 11
-2.379
 20
-42.532
 21
-42.216
  0
LINE
  8
0
 10
-2.379
 11
-2.08
 20
-42.216
 21
-41.935
  0
LINE
  8
0
 10
-2.08
 11
-1.749
 20
-41.935
 21
-41.694
  0
LINE
  8
0
 10
-1.749
 11
-1.39
 20
-41.694
 21
-41.497
  0
LINE
  8
0
 10
-1.39
 11
-1.009
 20
-41.497
 21
-41.346
  0
LINE
  8
0
 10
-1.009
 11
-0.612
 20
-41.346
 21
-41.244
  0
LINE
  8
0
 10
-0.612
 11
-0.205
 20
-41.244
 21
-41.193
  0
LINE
  8
0
 10
-0.205
 11
0.205
 20
-41.193
 21
-41.193
  0
LINE
  8
0
 10
0.205
 11
0.612
 20
-41.193
 21
-41.244
  0
LINE
  8
0
 10
0.612
 11
1.009
 20
-41.244
 21
-41.346
  0
LINE
  8
0
 10
1.009
 11
1.39
 20
-41.346
 21
-41.497
  0
LINE
  8
0
 10
1.39
 11
1.749
 20
-41.497
 21
-41.694
  0
LINE
  8
0
 10
1.749
 11
2.08
 20
-41.694
 21
-41.935
  0
LINE
  8
0
 10
2.08
 11
2.379
 20
-41.935
 21
-42.216
  0
LINE
  8
0
 10
2.379
 11
2.641
 20
-42.216
 21
-42.532
  0
LINE
  8
0
 10
2.641
 11
2.86
 20
-42.532
 21
-42.878
  0
LINE
  8
0
 10
2.86
 11
3.035
 20
-42.878
 21
-43.248
  0
LINE
  8
0
 10
3.035
 11
3.161
 20
-43.248
 21
-43.638
  0
LINE
  8
0
 10
3.161
 11
3.238
 20
-43.638
 21
-44.041
  0
LINE
  8
0
 10
3.238
 11
3.264
 20
-44.041
 21
-44.45
  0
LINE
  8
0
 10
3.264
 11
3.238
 20
-44.45
 21
-44.859
  0
LINE
  8
0
 10
3.238
 11
3.161
 20
-44.859
 21
-45.262
  0
LINE
  8
0
 10
3.161
 11
3.035
 20
-45.262
 21
-45.652
  0
LINE
  8
0
 10
3.035
 11
2.86
 20
-45.652
 21
-46.022
  0
LINE
  8
0
 10
2.86
 11
2.641
 20
-46.022
 21
-46.368
  0
LINE
  8
0
 10
2.641
 11
2.379
 20
-46.368
 21
-46.684
  0
LINE
  8
0
 10
2.379
 11
2.08
 20
-46.684
 21
-46.965
  0
LINE
  8
0
 10
2.08
 11
1.749
 20
-46.965
 21
-47.206
  0
LINE
  8
0
 10
1.749
 11
1.39
 20
-47.206
 21
-47.403
  0
LINE
  8
0
 10
1.39
 11
1.009
 20
-47.403
 21
-47.554
  0
LINE
  8
0
 10
1.009
 11
0.612
 20
-47.554
 21
-47.656
  0
LINE
  8
0
 10
0.612
 11
0.205
 20
-47.656
 21
-47.707
  0
LINE
  8
0
 10
0.205
 11
-0.205
 20
-47.707
 21
-47.707
  0
LINE
  8
0
 10
-0.205
 11
-0.612
 20
-47.707
 21
-47.656
  0
LINE
  8
0
 10
-0.612
 11
-1.009
 20
-47.656
 21
-47.554
  0
LINE
  8
0
 10
-1.009
 11
-1.39
 20
-47.554
 21
-47.403
  0
LINE
  8
0
 10
-1.39
 11
-1.749
 20
-47.403
 21
-47.206
  0
LINE
  8
0
 10
-1.749
 11
-2.08
 20
-47.206
 21
-46.965
  0
LINE
  8
0
 10
-2.08
 11
-2.379
 20
-46.965
 21
-46.684
  0
LINE
  8
0
 10
-2.379
 11
-2.641
 20
-46.684
 21
-46.368
  0
LINE
  8
0
 10
-2.641
 11
-2.86
 20
-46.368
 21
-46.022
  0
LINE
  8
0
 10
-2.86
 11
-3.035
 20
-46.022
 21
-45.652
  0
LINE
  8
0
 10
-3.035
 11
-3.161
 20
-45.652
 21
-45.262
  0
LINE
  8
0
 10
-3.161
 11
-3.238
 20
-45.262
 21
-44.859
  0
LINE
  8
0
 10
-3.238
 11
-3.264
 20
-44.859
 21
-44.45
  0
LINE
  8
0
 10
-3.264
 11
-3.238
 20
44.45
 21
44.859
  0
LINE
  8
0
 10
-3.238
 11
-3.161
 20
44.859
 21
45.262
  0
LINE
  8
0
 10
-3.161
 11
-3.035
 20
45.262
 21
45.652
  0
LINE
  8
0
 10
-3.035
 11
-2.86
 20
45.652
 21
46.022
  0
LINE
  8
0
 10
-2.86
 11
-2.641
 20
46.022
 21
46.368
  0
LINE
  8
0
 10
-2.641
 11
-2.379
 20
46.368
 21
46.684
  0
LINE
  8
0
 10
-2.379
 11
-2.08
 20
46.684
 21
46.965
  0
LINE
  8
0
 10
-2.08
 11
-1.749
 20
46.965
 21
47.206
  0
LINE
  8
0
 10
-1.749
 11
-1.39
 20
47.206
 21
47.403
  0
LINE
  8
0
 10
-1.39
 11
-1.009
 20
47.403
 21
47.554
  0
LINE
  8
0
 10
-1.009
 11
-0.612
 20
47.554
 21
47.656
  0
LINE
  8
0
 10
-0.612
 11
-0.205
 20
47.656
 21
47.707
  0
LINE
  8
0
 10
-0.205
 11
0.205
 20
47.707
 21
47.707
  0
LINE
  8
0
 10
0.205
 11
0.612
 20
47.707
 21
47.656
  0
LINE
  8
0
 10
0.612
 11
1.009
 20
47.656
 21
47.554
  0
LINE
  8
0
 10
1.009
 11
1.39
 20
47.554
 21
47.403
  0
LINE
  8
0
 10
1.39
 11
1.749
 20
47.403
 21
47.206
  0
LINE
  8
0
 10
1.749
 11
2.08
 20
47.206
 21
46.965
  0
LINE
  8
0
 10
2.08
 11
2.379
 20
46.965
 21
46.684
  0
LINE
  8
0
 10
2.379
 11
2.641
 20
46.684
 21
46.368
  0
LINE
  8
0
 10
2.641
 11
2.86
 20
46.368
 21
46.022
  0
LINE
  8
0
 10
2.86
 11
3.035
 20
46.022
 21
45.652
  0
LINE
  8
0
 10
3.035
 11
3.161
 20
45.652
 21
45.262
  0
LINE
  8
0
 10
3.161
 11
3.238
 20
45.262
 21
44.859
  0
LINE
  8
0
 10
3.238
 11
3.264
 20
44.859
 21
44.45
  0
LINE
  8
0
 10
3.264
 11
3.238
 20
44.45
 21
44.041
  0
LINE
  8
0
 10
3.238
 11
3.161
 20
44.041
 21
43.638
  0
LINE
  8
0
 10
3.161
 11
3.035
 20
43.638
 21
43.248
  0
LINE
  8
0
 10
3.035
 11
2.86
 20
43.248
 21
42.878
  0
LINE
  8
0
 10
2.86
 11
2.641
 20
42.878
 21
42.532
  0
LINE
  8
0
 10
2.641
 11
2.379
 20
42.532
 21
42.216
  0
LINE
  8
0
 10
2.379
 11
2.08
 20
42.216
 21
41.935
  0
LINE
  8
0
 10
2.08
 11
1.749
 20
41.935
 21
41.694
  0
LINE
  8
0
 10
1.749
 11
1.39
 20
41.694
 21
41.497
  0
LINE
  8
0
 10
1.39
 11
1.009
 20
41.497
 21
41.346
  0
LINE
  8
0
 10
1.009
 11
0.612
 20
41.346
 21
41.244
  0
LINE
  8
0
 10
0.612
 11
0.205
 20
41.244
 21
41.193
  0
LINE
  8
0
 10
0.205
 11
-0.205
 20
41.193
 21
41.193
  0
LINE
  8
0
 10
-0.205
 11
-0.612
 20
41.193
 21
41.244
  0
LINE
  8
0
 10
-0.612
 11
-1.009
 20
41.244
 21
41.346
  0
LINE
  8
0
 10
-1.009
 11
-1.39
 20
41.346
 21
41.497
  0
LINE
  8
0
 10
-1.39
 11
-1.749
 20
41.497
 21
41.694
  0
LINE
  8
0
 10
-1.749
 11
-2.08
 20
41.694
 21
41.935
  0
LINE
  8
0
 10
-2.08
 11
-2.379
 20
41.935
 21
42.216
  0
LINE
  8
0
 10
-2.379
 11
-2.641
 20
42.216
 21
42.532
  0
LINE
  8
0
 10
-2.641
 11
-2.86
 20
42.532
 21
42.878
  0
LINE
  8
0
 10
-2.86
 11
-3.035
 20
42.878
 21
43.248
  0
LINE
  8
0
 10
-3.035
 11
-3.161
 20
43.248
 21
43.638
  0
LINE
  8
0
 10
-3.161
 11
-3.238
 20
43.638
 21
44.041
  0
LINE
  8
0
 10
-3.238
 11
-3.264
 20
44.041
 21
44.45
  0
LINE
  8
0
 10
29.197
 11
29.217
 20
-63.5
 21
-63.18
  0
LINE
  8
0
 10
29.217
 11
29.277
 20
-63.18
 21
-62.865
  0
LINE
  8
0
 10
29.277
 11
29.377
 20
-62.865
 21
-62.56
  0
LINE
  8
0
 10
29.377
 11
29.513
 20
-62.56
 21
-62.27
  0
LINE
  8
0
 10
29.513
 11
29.685
 20
-62.27
 21
-62
  0
LINE
  8
0
 10
29.685
 11
29.889
 20
-62
 21
-61.753
  0
LINE
  8
0
 10
29.889
 11
30.123
 20
-61.753
 21
-61.533
  0
LINE
  8
0
 10
30.123
 11
30.382
 20
-61.533
 21
-61.345
  0
LINE
  8
0
 10
30.382
 11
30.663
 20
-61.345
 21
-61.19
  0
LINE
  8
0
 10
30.663
 11
30.961
 20
-61.19
 21
-61.072
  0
LINE
  8
0
 10
30.961
 11
31.272
 20
-61.072
 21
-60.993
  0
LINE
  8
0
 10
31.272
 11
31.59
 20
-60.993
 21
-60.952
  0
LINE
  8
0
 10
31.59
 11
31.91
 20
-60.952
 21
-60.952
  0
LINE
  8
0
 10
31.91
 11
32.228
 20
-60.952
 21
-60.993
  0
LINE
  8
0
 10
32.228
 11
32.539
 20
-60.993
 21
-61.072
  0
LINE
  8
0
 10
32.539
 11
32.837
 20
-61.072
 21
-61.19
  0
LINE
  8
0
 10
32.837
 11
33.118
 20
-61.19
 21
-61.345
  0
LINE
  8
0
 10
33.118
 11
33.377
 20
-61.345
 21
-61.533
  0
LINE
  8
0
 10
33.377
 11
33.611
 20
-61.533
 21
-61.753
  0
LINE
  8
0
 10
33.611
 11
33.815
 20
-61.753
 21
-62
  0
LINE
  8
0
 10
33.815
 11
33.987
 20
-62
 21
-62.27
  0
LINE
  8
0
 10
33.987
 11
34.123
 20
-62.27
 21
-62.56
  0
LINE
  8
0
 10
34.123
 11
34.223
 20
-62.56
 21
-62.865
  0
LINE
  8
0
 10
34.223
 11
34.283
 20
-62.865
 21
-63.18
  0
LINE
  8
0
 10
34.283
 11
34.303
 20
-63.18
 21
-63.5
  0
LINE
  8
0
 10
34.303
 11
34.283
 20
-63.5
 21
-63.82
  0
LINE
  8
0
 10
34.283
 11
34.223
 20
-63.82
 21
-64.135
  0
LINE
  8
0
 10
34.223
 11
34.123
 20
-64.135
 21
-64.44
  0
LINE
  8
0
 10
34.123
 11
33.987
 20
-64.44
 21
-64.73
  0
LINE
  8
0
 10
33.987
 11
33.815
 20
-64.73
 21
-65
  0
LINE
  8
0
 10
33.815
 11
33.611
 20
-65
 21
-65.247
  0
LINE
  8
0
 10
33.611
 11
33.377
 20
-65.247
 21
-65.467
  0
LINE
  8
0
 10
33.377
 11
33.118
 20
-65.467
 21
-65.655
  0
LINE
  8
0
 10
33.118
 11
32.837
 20
-65.655
 21
-65.81
  0
LINE
  8
0
 10
32.837
 11
32.539
 20
-65.81
 21
-65.928
  0
LINE
  8
0
 10
32.539
 11
32.228
 20
-65.928
 21
-66.007
  0
LINE
  8
0
 10
32.228
 11
31.91
 20
-66.007
 21
-66.048
  0
LINE
  8
0
 10
31.91
 11
31.59
 20
-66.048
 21
-66.048
  0
LINE
  8
0
 10
31.59
 11
31.272
 20
-66.048
 21
-66.007
  0
LINE
  8
0
 10
31.272
 11
30.961
 20
-66.007
 21
-65.928
  0
LINE
  8
0
 10
30.961
 11
30.663
 20
-65.928
 21
-65.81
  0
LINE
  8
0
 10
30.663
 11
30.382
 20
-65.81
 21
-65.655
  0
LINE
  8
0
 10
30.382
 11
30.123
 20
-65.655
 21
-65.467
  0
LINE
  8
0
 10
30.123
 11
29.889
 20
-65.467
 21
-65.247
  0
LINE
  8
0
 10
29.889
 11
29.685
 20
-65.247
 21
-65
  0
LINE
  8
0
 10
29.685
 11
29.513
 20
-65
 21
-64.73
  0
LINE
  8
0
 10
29.513
 11
29.377
 20
-64.73
 21
-64.44
  0
LINE
  8
0
 10
29.377
 11
29.277
 20
-64.44
 21
-64.135
  0
LINE
  8
0
 10
29.277
 11
29.217
 20
-64.135
 21
-63.82
  0
LINE
  8
0
 10
29.217
 11
29.197
 20
-63.82
 21
-63.5
  0
LINE
  8
0
 10
92.697
 11
92.717
 20
-63.5
 21
-63.18
  0
LINE
  8
0
 10
92.717
 11
92.777
 20
-63.18
 21
-62.865
  0
LINE
  8
0
 10
92.777
 11
92.877
 20
-62.865
 21
-62.56
  0
LINE
  8
0
 10
92.877
 11
93.013
 20
-62.56
 21
-62.27
  0
LINE
  8
0
 10
93.013
 11
93.185
 20
-62.27
 21
-62
  0
LINE
  8
0
 10
93.185
 11
93.389
 20
-62
 21
-61.753
  0
LINE
  8
0
 10
93.389
 11
93.623
 20
-61.753
 21
-61.533
  0
LINE
  8
0
 10
93.623
 11
93.882
 20
-61.533
 21
-61.345
  0
LINE
  8
0
 10
93.882
 11
94.163
 20
-61.345
 21
-61.19
  0
LINE
  8
0
 10
94.163
 11
94.461
 20
-61.19
 21
-61.072
  0
LINE
  8
0
 10
94.461
 11
94.772
 20
-61.072
 21
-60.993
  0
LINE
  8
0
 10
94.772
 11
95.09
 20
-60.993
 21
-60.952
  0
LINE
  8
0
 10
95.09
 11
95.41
 20
-60.952
 21
-60.952
  0
LINE
  8
0
 10
95.41
 11
95.728
 20
-60.952
 21
-60.993
  0
LINE
  8
0
 10
95.728
 11
96.039
 20
-60.993
 21
-61.072
  0
LINE
  8
0
 10
96.039
 11
96.337
 20
-61.072
 21
-61.19
  0
LINE
  8
0
 10
96.337
 11
96.618
 20
-61.19
 21
-61.345
  0
LINE
  8
0
 10
96.618
 11
96.877
 20
-61.345
 21
-61.533
  0
LINE
  8
0
 10
96.877
 11
97.111
 20
-61.533
 21
-61.753
  0
LINE
  8
0
 10
97.111
 11
97.315
 20
-61.753
 21
-62
  0
LINE
  8
0
 10
97.315
 11
97.487
 20
-62
 21
-62.27
  0
LINE
  8
0
 10
97.487
 11
97.623
 20
-62.27
 21
-62.56
  0
LINE
  8
0
 10
97.623
 11
97.723
 20
-62.56
 21
-62.865
  0
LINE
  8
0
 10
97.723
 11
97.783
 20
-62.865
 21
-63.18
  0
LINE
  8
0
 10
97.783
 11
97.803
 20
-63.18
 21
-63.5
  0
LINE
  8
0
 10
97.803
 11
97.783
 20
-63.5
 21
-63.82
  0
LINE
  8
0
 10
97.783
 11
97.723
 20
-63.82
 21
-64.135
  0
LINE
  8
0
 10
97.723
 11
97.623
 20
-64.135
 21
-64.44
  0
LINE
  8
0
 10
97.623
 11
97.487
 20
-64.44
 21
-64.73
  0
LINE
  8
0
 10
97.487
 11
97.315
 20
-64.73
 21
-65
  0
LINE
  8
0
 10
97.315
 11
97.111
 20
-65
 21
-65.247
  0
LINE
  8
0
 10
97.111
 11
96.877
 20
-65.247
 21
-65.467
  0
LINE
  8
0
 10
96.877
 11
96.618
 20
-65.467
 21
-65.655
  0
LINE
  8
0
 10
96.618
 11
96.337
 20
-65.655
 21
-65.81
  0
LINE
  8
0
 10
96.337
 11
96.039
 20
-65.81
 21
-65.928
  0
LINE
  8
0
 10
96.039
 11
95.728
 20
-65.928
 21
-66.007
  0
LINE
  8
0
 10
95.728
 11
95.41
 20
-66.007
 21
-66.048
  0
LINE
  8
0
 10
95.41
 11
95.09
 20
-66.048
 21
-66.048
  0
LINE
  8
0
 10
95.09
 11
94.772
 20
-66.048
 21
-66.007
  0
LINE
  8
0
 10
94.772
 11
94.461
 20
-66.007
 21
-65.928
  0
LINE
  8
0
 10
94.461
 11
94.163
 20
-65.928
 21
-65.81
  0
LINE
  8
0
 10
94.163
 11
93.882
 20
-65.81
 21
-65.655
  0
LINE
  8
0
 10
93.882
 11
93.623
 20
-65.655
 21
-65.467
  0
LINE
  8
0
 10
93.623
 11
93.389
 20
-65.467
 21
-65.247
  0
LINE
  8
0
 10
93.389
 11
93.185
 20
-65.247
 21
-65
  0
LINE
  8
0
 10
93.185
 11
93.013
 20
-65
 21
-64.73
  0
LINE
  8
0
 10
93.013
 11
92.877
 20
-64.73
 21
-64.44
  0
LINE
  8
0
 10
92.877
 11
92.777
 20
-64.44
 21
-64.135
  0
LINE
  8
0
 10
92.777
 11
92.717
 20
-64.135
 21
-63.82
  0
LINE
  8
0
 10
92.717
 11
92.697
 20
-63.82
 21
-63.5
  0
LINE
  8
0
 10
123.736
 11
123.762
 20
-44.45
 21
-44.041
  0
LINE
  8
0
 10
123.762
 11
123.839
 20
-44.041
 21
-43.638
  0
LINE
  8
0
 10
123.839
 11
123.965
 20
-43.638
 21
-43.248
  0
LINE
  8
0
 10
123.965
 11
124.14
 20
-43.248
 21
-42.878
  0
LINE
  8
0
 10
124.14
 11
124.359
 20
-42.878
 21
-42.532
  0
LINE
  8
0
 10
124.359
 11
124.621
 20
-42.532
 21
-42.216
  0
LINE
  8
0
 10
124.621
 11
124.92
 20
-42.216
 21
-41.935
  0
LINE
  8
0
 10
124.92
 11
125.251
 20
-41.935
 21
-41.694
  0
LINE
  8
0
 10
125.251
 11
125.61
 20
-41.694
 21
-41.497
  0
LINE
  8
0
 10
125.61
 11
125.991
 20
-41.497
 21
-41.346
  0
LINE
  8
0
 10
125.991
 11
126.388
 20
-41.346
 21
-41.244
  0
LINE
  8
0
 10
126.388
 11
126.795
 20
-41.244
 21
-41.193
  0
LINE
  8
0
 10
126.795
 11
127.205
 20
-41.193
 21
-41.193
  0
LINE
  8
0
 10
127.205
 11
127.612
 20
-41.193
 21
-41.244
  0
LINE
  8
0
 10
127.612
 11
128.009
 20
-41.244
 21
-41.346
  0
LINE
  8
0
 10
128.009
 11
128.39
 20
-41.346
 21
-41.497
  0
LINE
  8
0
 10
128.39
 11
128.749
 20
-41.497
 21
-41.694
  0
LINE
  8
0
 10
128.749
 11
129.08
 20
-41.694
 21
-41.935
  0
LINE
  8
0
 10
129.08
 11
129.379
 20
-41.935
 21
-42.216
  0
LINE
  8
0
 10
129.379
 11
129.641
 20
-42.216
 21
-42.532
  0
LINE
  8
0
 10
129.641
 11
129.86
 20
-42.532
 21
-42.878
  0
LINE
  8
0
 10
129.86
 11
130.035
 20
-42.878
 21
-43.248
  0
LINE
  8
0
 10
130.035
 11
130.161
 20
-43.248
 21
-43.638
  0
LINE
  8
0
 10
130.161
 11
130.238
 20
-43.638
 21
-44.041
  0
LINE
  8
0
 10
130.238
 11
130.264
 20
-44.041
 21
-44.45
  0
LINE
  8
0
 10
130.264
 11
130.238
 20
-44.45
 21
-44.859
  0
LINE
  8
0
 10
130.238
 11
130.161
 20
-44.859
 21
-45.262
  0
LINE
  8
0
 10
130.161
 11
130.035
 20
-45.262
 21
-45.652
  0
LINE
  8
0
 10
130.035
 11
129.86
 20
-45.652
 21
-46.022
  0
LINE
  8
0
 10
129.86
 11
129.641
 20
-46.022
 21
-46.368
  0
LINE
  8
0
 10
129.641
 11
129.379
 20
-46.368
 21
-46.684
  0
LINE
  8
0
 10
129.379
 11
129.08
 20
-46.684
 21
-46.965
  0
LINE
  8
0
 10
129.08
 11
128.749
 20
-46.965
 21
-47.206
  0
LINE
  8
0
 10
128.749
 11
128.39
 20
-47.206
 21
-47.403
  0
LINE
  8
0
 10
128.39
 11
128.009
 20
-47.403
 21
-47.554
  0
LINE
  8
0
 10
128.009
 11
127.612
 20
-47.554
 21
-47.656
  0
LINE
  8
0
 10
127.612
 11
127.205
 20
-47.656
 21
-47.707
  0
LINE
  8
0
 10
127.205
 11
126.795
 20
-47.707
 21
-47.707
  0
LINE
  8
0
 10
126.795
 11
126.388
 20
-47.707
 21
-47.656
  0
LINE
  8
0
 10
126.388
 11
125.991
 20
-47.656
 21
-47.554
  0
LINE
  8
0
 10
125.991
 11
125.61
 20
-47.554
 21
-47.403
  0
LINE
  8
0
 10
125.61
 11
125.251
 20
-47.403
 21
-47.206
  0
LINE
  8
0
 10
125.251
 11
124.92
 20
-47.206
 21
-46.965
  0
LINE
  8
0
 10
124.92
 11
124.621
 20
-46.965
 21
-46.684
  0
LINE
  8
0
 10
124.621
 11
124.359
 20
-46.684
 21
-46.368
  0
LINE
  8
0
 10
124.359
 11
124.14
 20
-46.368
 21
-46.022
  0
LINE
  8
0
 10
124.14
 11
123.965
 20
-46.022
 21
-45.652
  0
LINE
  8
0
 10
123.965
 11
123.839
 20
-45.652
 21
-45.262
  0
LINE
  8
0
 10
123.839
 11
123.762
 20
-45.262
 21
-44.859
  0
LINE
  8
0
 10
123.762
 11
123.736
 20
-44.859
 21
-44.45
  0
LINE
  8
0
 10
123.736
 11
123.762
 20
44.45
 21
44.859
  0
LINE
  8
0
 10
123.762
 11
123.839
 20
44.859
 21
45.262
  0
LINE
  8
0
 10
123.839
 11
123.965
 20
45.262
 21
45.652
  0
LINE
  8
0
 10
123.965
 11
124.14
 20
45.652
 21
46.022
  0
LINE
  8
0
 10
124.14
 11
124.359
 20
46.022
 21
46.368
  0
LINE
  8
0
 10
124.359
 11
124.621
 20
46.368
 21
46.684
  0
LINE
  8
0
 10
124.621
 11
124.92
 20
46.684
 21
46.965
  0
LINE
  8
0
 10
124.92
 11
125.251
 20
46.965
 21
47.206
  0
LINE
  8
0
 10
125.251
 11
125.61
 20
47.206
 21
47.403
  0
LINE
  8
0
 10
125.61
 11
125.991
 20
47.403
 21
47.554
  0
LINE
  8
0
 10
125.991
 11
126.388
 20
47.554
 21
47.656
  0
LINE
  8
0
 10
126.388
 11
126.795
 20
47.656
 21
47.707
  0
LINE
  8
0
 10
126.795
 11
127.205
 20
47.707
 21
47.707
  0
LINE
  8
0
 10
127.205
 11
127.612
 20
47.707
 21
47.656
  0
LINE
  8
0
 10
127.612
 11
128.009
 20
47.656
 21
47.554
  0
LINE
  8
0
 10
128.009
 11
128.39
 20
47.554
 21
47.403
  0
LINE
  8
0
 10
128.39
 11
128.749
 20
47.403
 21
47.206
  0
LINE
  8
0
 10
128.749
 11
129.08
 20
47.206
 21
46.965
  0
LINE
  8
0
 10
129.08
 11
129.379
 20
46.965
 21
46.684
  0
LINE
  8
0
 10
129.379
 11
129.641
 20
46.684
 21
46.368
  0
LINE
  8
0
 10
129.641
 11
129.86
 20
46.368
 21
46.022
  0
LINE
  8
0
 10
129.86
 11
130.035
 20
46.022
 21
45.652
  0
LINE
  8
0
 10
130.035
 11
130.161
 20
45.652
 21
45.262
  0
LINE
  8
0
 10
130.161
 11
130.238
 20
45.262
 21
44.859
  0
LINE
  8
0
 10
130.238
 11
130.264
 20
44.859
 21
44.45
  0
LINE
  8
0
 10
130.264
 11
130.238
 20
44.45
 21
44.041
  0
LINE
  8
0
 10
130.238
 11
130.161
 20
44.041
 21
43.638
  0
LINE
  8
0
 10
130.161
 11
130.035
 20
43.638
 21
43.248
  0
LINE
  8
0
 10
130.035
 11
129.86
 20
43.248
 21
42.878
  0
LINE
  8
0
 10
129.86
 11
129.641
 20
42.878
 21
42.532
  0
LINE
  8
0
 10
129.641
 11
129.379
 20
42.532
 21
42.216
  0
LINE
  8
0
 10
129.379
 11
129.08
 20
42.216
 21
41.935
  0
LINE
  8
0
 10
129.08
 11
128.749
 20
41.935
 21
41.694
  0
LINE
  8
0
 10
128.749
 11
128.39
 20
41.694
 21
41.497
  0
LINE
  8
0
 10
128.39
 11
128.009
 20
41.497
 21
41.346
  0
LINE
  8
0
 10
128.009
 11
127.612
 20
41.346
 21
41.244
  0
LINE
  8
0
 10
127.612
 11
127.205
 20
41.244
 21
41.193
  0
LINE
  8
0
 10
127.205
 11
126.795
 20
41.193
 21
41.193
  0
LINE
  8
0
 10
126.795
 11
126.388
 20
41.193
 21
41.244
  0
LINE
  8
0
 10
126.388
 11
125.991
 20
41.244
 21
41.346
  0
LINE
  8
0
 10
125.991
 11
125.61
 20
41.346
 21
41.497
  0
LINE
  8
0
 10
125.61
 11
125.251
 20
41.497
 21
41.694
  0
LINE
  8
0
 10
125.251
 11
124.92
 20
41.694
 21
41.935
  0
LINE
  8
0
 10
124.92
 11
124.621
 20
41.935
 21
42.216
  0
LINE
  8
0
 10
124.621
 11
124.359
 20
42.216
 21
42.532
  0
LINE
  8
0
 10
124.359
 11
124.14
 20
42.532
 21
42.878
  0
LINE
  8
0
 10
124.14
 11
123.965
 20
42.878
 21
43.248
  0
LINE
  8
0
 10
123.965
 11
123.839
 20
43.248
 21
43.638
  0
LINE
  8
0
 10
123.839
 11
123.762
 20
43.638
 21
44.041
  0
LINE
  8
0
 10
123.762
 11
123.736
 20
44.041
 21
44.45
  0
LINE
  8
0
 10
168.186
 11
168.212
 20
50.8
 21
51.209
  0
LINE
  8
0
 10
168.212
 11
168.289
 20
51.209
 21
51.612
  0
LINE
  8
0
 10
168.289
 11
168.415
 20
51.612
 21
52.002
  0
LINE
  8
0
 10
168.415
 11
168.59
 20
52.002
 21
52.372
  0
LINE
  8
0
 10
168.59
 11
168.809
 20
52.372
 21
52.718
  0
LINE
  8
0
 10
168.809
 11
169.071
 20
52.718
 21
53.034
  0
LINE
  8
0
 10
169.071
 11
169.37
 20
53.034
 21
53.315
  0
LINE
  8
0
 10
169.37
 11
169.701
 20
53.315
 21
53.556
  0
LINE
  8
0
 10
169.701
 11
170.06
 20
53.556
 21
53.753
  0
LINE
  8
0
 10
170.06
 11
170.441
 20
53.753
 21
53.904
  0
LINE
  8
0
 10
170.441
 11
170.838
 20
53.904
 21
54.006
  0
LINE
  8
0
 10
170.838
 11
171.245
 20
54.006
 21
54.057
  0
LINE
  8
0
 10
171.245
 11
171.655
 20
54.057
 21
54.057
  0
LINE
  8
0
 10
171.655
 11
172.062
 20
54.057
 21
54.006
  0
LINE
  8
0
 10
172.062
 11
172.459
 20
54.006
 21
53.904
  0
LINE
  8
0
 10
172.459
 11
172.84
 20
53.904
 21
53.753
  0
LINE
  8
0
 10
172.84
 11
173.199
 20
53.753
 21
53.556
  0
LINE
  8
0
 10
173.199
 11
173.53
 20
53.556
 21
53.315
  0
LINE
  8
0
 10
173.53
 11
173.829
 20
53.315
 21
53.034
  0
LINE
  8
0
 10
173.829
 11
174.091
 20
53.034
 21
52.718
  0
LINE
  8
0
 10
174.091
 11
174.31
 20
52.718
 21
52.372
  0
LINE
  8
0
 10
174.31
 11
174.485
 20
52.372
 21
52.002
  0
LINE
  8
0
 10
174.485
 11
174.611
 20
52.002
 21
51.612
  0
LINE
  8
0
 10
174.611
 11
174.688
 20
51.612
 21
51.209
  0
LINE
  8
0
 10
174.688
 11
174.714
 20
51.209
 21
50.8
  0
LINE
  8
0
 10
174.714
 11
174.688
 20
50.8
 21
50.391
  0
LINE
  8
0
 10
174.688
 11
174.611
 20
50.391
 21
49.988
  0
LINE
  8
0
 10
174.611
 11
174.485
 20
49.988
 21
49.598
  0
LINE
  8
0
 10
174.485
 11
174.31
 20
49.598
 21
49.228
  0
LINE
  8
0
 10
174.31
 11
174.091
 20
49.228
 21
48.882
  0
LINE
  8
0
 10
174.091
 11
173.829
 20
48.882
 21
48.566
  0
LINE
  8
0
 10
173.829
 11
173.53
 20
48.566
 21
48.285
  0
LINE
  8
0
 10
173.53
 11
173.199
 20
48.285
 21
48.044
  0
LINE
  8
0
 10
173.199
 11
172.84
 20
48.044
 21
47.847
  0
LINE
  8
0
 10
172.84
 11
172.459
 20
47.847
 21
47.696
  0
LINE
  8
0
 10
172.459
 11
172.062
 20
47.696
 21
47.594
  0
LINE
  8
0
 10
172.062
 11
171.655
 20
47.594
 21
47.543
  0
LINE
  8
0
 10
171.655
 11
171.245
 20
47.543
 21
47.543
  0
LINE
  8
0
 10
171.245
 11
170.838
 20
47.543
 21
47.594
  0
LINE
  8
0
 10
170.838
 11
170.441
 20
47.594
 21
47.696
  0
LINE
  8
0
 10
170.441
 11
170.06
 20
47.696
 21
47.847
  0
LINE
  8
0
 10
170.06
 11
169.701
 20
47.847
 21
48.044
  0
LINE
  8
0
 10
169.701
 11
169.37
 20
48.044
 21
48.285
  0
LINE
  8
0
 10
169.37
 11
169.071
 20
48.285
 21
48.566
  0
LINE
  8
0
 10
169.071
 11
168.809
 20
48.566
 21
48.882
  0
LINE
  8
0
 10
168.809
 11
168.59
 20
48.882
 21
49.228
  0
LINE
  8
0
 10
168.59
 11
168.415
 20
49.228
 21
49.598
  0
LINE
  8
0
 10
168.415
 11
168.289
 20
49.598
 21
49.988
  0
LINE
  8
0
 10
168.289
 11
168.212
 20
49.988
 21
50.391
  0
LINE
  8
0
 10
168.212
 11
168.186
 20
50.391
 21
50.8
  0
ENDSEC
  0
SECTION
  2
OBJECTS
  0
DICTIONARY
  0
ENDSEC
  0
EOF
