  0
SECTION
  2
BLOCKS
  0
ENDSEC
  0
SECTION
  2
ENTITIES
  0
LINE
  8
0
 10
-158.75
 11
-158.75
 20
-49.3
 21
49.3
  0
LINE
  8
0
 10
-158.75
 11
-158.738
 20
49.3
 21
49.488
  0
LINE
  8
0
 10
-158.738
 11
-158.703
 20
49.488
 21
49.673
  0
LINE
  8
0
 10
-158.703
 11
-158.645
 20
49.673
 21
49.852
  0
LINE
  8
0
 10
-158.645
 11
-158.564
 20
49.852
 21
50.023
  0
LINE
  8
0
 10
-158.564
 11
-158.464
 20
50.023
 21
50.182
  0
LINE
  8
0
 10
-158.464
 11
-158.343
 20
50.182
 21
50.327
  0
LINE
  8
0
 10
-158.343
 11
-158.206
 20
50.327
 21
50.456
  0
LINE
  8
0
 10
-158.206
 11
-158.054
 20
50.456
 21
50.566
  0
LINE
  8
0
 10
-158.054
 11
-157.889
 20
50.566
 21
50.657
  0
LINE
  8
0
 10
-157.889
 11
-157.714
 20
50.657
 21
50.727
  0
LINE
  8
0
 10
-157.714
 11
-157.531
 20
50.727
 21
50.773
  0
LINE
  8
0
 10
-157.531
 11
-157.344
 20
50.773
 21
50.797
  0
LINE
  8
0
 10
-157.344
 11
-157.25
 20
50.797
 21
50.797
  0
LINE
  8
0
 10
-157.25
 11
-157.25
 20
50.797
 21
50.8
  0
LINE
  8
0
 10
-157.25
 11
-108.969
 20
50.8
 21
50.8
  0
LINE
  8
0
 10
-108.969
 11
-149.274
 20
50.8
 21
10.495
  0
LINE
  8
0
 10
-149.274
 11
-147.153
 20
10.495
 21
8.374
  0
LINE
  8
0
 10
-147.153
 11
-104.726
 20
8.374
 21
50.8
  0
LINE
  8
0
 10
-104.726
 11
-45.469
 20
50.8
 21
50.8
  0
LINE
  8
0
 10
-45.469
 11
-85.774
 20
50.8
 21
10.495
  0
LINE
  8
0
 10
-85.774
 11
-83.653
 20
10.495
 21
8.374
  0
LINE
  8
0
 10
-83.653
 11
-41.226
 20
8.374
 21
50.8
  0
LINE
  8
0
 10
-41.226
 11
18.031
 20
50.8
 21
50.8
  0
LINE
  8
0
 10
18.031
 11
-22.274
 20
50.8
 21
10.495
  0
LINE
  8
0
 10
-22.274
 11
-20.153
 20
10.495
 21
8.374
  0
LINE
  8
0
 10
-20.153
 11
22.274
 20
8.374
 21
50.8
  0
LINE
  8
0
 10
22.274
 11
81.531
 20
50.8
 21
50.8
  0
LINE
  8
0
 10
81.531
 11
41.226
 20
50.8
 21
10.495
  0
LINE
  8
0
 10
41.226
 11
43.347
 20
10.495
 21
8.374
  0
LINE
  8
0
 10
43.347
 11
85.774
 20
8.374
 21
50.8
  0
LINE
  8
0
 10
85.774
 11
145.031
 20
50.8
 21
50.8
  0
LINE
  8
0
 10
145.031
 11
104.726
 20
50.8
 21
10.495
  0
LINE
  8
0
 10
104.726
 11
106.847
 20
10.495
 21
8.374
  0
LINE
  8
0
 10
106.847
 11
149.274
 20
8.374
 21
50.8
  0
LINE
  8
0
 10
149.274
 11
157.25
 20
50.8
 21
50.8
  0
LINE
  8
0
 10
157.25
 11
157.25
 20
50.8
 21
50.797
  0
LINE
  8
0
 10
157.25
 11
157.344
 20
50.797
 21
50.797
  0
LINE
  8
0
 10
157.344
 11
157.531
 20
50.797
 21
50.773
  0
LINE
  8
0
 10
157.531
 11
157.714
 20
50.773
 21
50.727
  0
LINE
  8
0
 10
157.714
 11
157.889
 20
50.727
 21
50.657
  0
LINE
  8
0
 10
157.889
 11
158.054
 20
50.657
 21
50.566
  0
LINE
  8
0
 10
158.054
 11
158.206
 20
50.566
 21
50.456
  0
LINE
  8
0
 10
158.206
 11
158.343
 20
50.456
 21
50.327
  0
LINE
  8
0
 10
158.343
 11
158.464
 20
50.327
 21
50.182
  0
LINE
  8
0
 10
158.464
 11
158.564
 20
50.182
 21
50.023
  0
LINE
  8
0
 10
158.564
 11
158.645
 20
50.023
 21
49.852
  0
LINE
  8
0
 10
158.645
 11
158.703
 20
49.852
 21
49.673
  0
LINE
  8
0
 10
158.703
 11
158.738
 20
49.673
 21
49.488
  0
LINE
  8
0
 10
158.738
 11
158.75
 20
49.488
 21
49.3
  0
LINE
  8
0
 10
158.75
 11
158.75
 20
49.3
 21
-49.3
  0
LINE
  8
0
 10
158.75
 11
158.738
 20
-49.3
 21
-49.488
  0
LINE
  8
0
 10
158.738
 11
158.703
 20
-49.488
 21
-49.673
  0
LINE
  8
0
 10
158.703
 11
158.645
 20
-49.673
 21
-49.852
  0
LINE
  8
0
 10
158.645
 11
158.564
 20
-49.852
 21
-50.023
  0
LINE
  8
0
 10
158.564
 11
158.464
 20
-50.023
 21
-50.182
  0
LINE
  8
0
 10
158.464
 11
158.343
 20
-50.182
 21
-50.327
  0
LINE
  8
0
 10
158.343
 11
158.206
 20
-50.327
 21
-50.456
  0
LINE
  8
0
 10
158.206
 11
158.054
 20
-50.456
 21
-50.566
  0
LINE
  8
0
 10
158.054
 11
157.889
 20
-50.566
 21
-50.657
  0
LINE
  8
0
 10
157.889
 11
157.714
 20
-50.657
 21
-50.727
  0
LINE
  8
0
 10
157.714
 11
157.531
 20
-50.727
 21
-50.773
  0
LINE
  8
0
 10
157.531
 11
157.344
 20
-50.773
 21
-50.797
  0
LINE
  8
0
 10
157.344
 11
157.25
 20
-50.797
 21
-50.797
  0
LINE
  8
0
 10
157.25
 11
157.25
 20
-50.797
 21
-50.8
  0
LINE
  8
0
 10
157.25
 11
-157.25
 20
-50.8
 21
-50.8
  0
LINE
  8
0
 10
-157.25
 11
-157.25
 20
-50.8
 21
-50.797
  0
LINE
  8
0
 10
-157.25
 11
-157.344
 20
-50.797
 21
-50.797
  0
LINE
  8
0
 10
-157.344
 11
-157.531
 20
-50.797
 21
-50.773
  0
LINE
  8
0
 10
-157.531
 11
-157.714
 20
-50.773
 21
-50.727
  0
LINE
  8
0
 10
-157.714
 11
-157.889
 20
-50.727
 21
-50.657
  0
LINE
  8
0
 10
-157.889
 11
-158.054
 20
-50.657
 21
-50.566
  0
LINE
  8
0
 10
-158.054
 11
-158.206
 20
-50.566
 21
-50.456
  0
LINE
  8
0
 10
-158.206
 11
-158.343
 20
-50.456
 21
-50.327
  0
LINE
  8
0
 10
-158.343
 11
-158.464
 20
-50.327
 21
-50.182
  0
LINE
  8
0
 10
-158.464
 11
-158.564
 20
-50.182
 21
-50.023
  0
LINE
  8
0
 10
-158.564
 11
-158.645
 20
-50.023
 21
-49.852
  0
LINE
  8
0
 10
-158.645
 11
-158.703
 20
-49.852
 21
-49.673
  0
LINE
  8
0
 10
-158.703
 11
-158.738
 20
-49.673
 21
-49.488
  0
LINE
  8
0
 10
-158.738
 11
-158.75
 20
-49.488
 21
-49.3
  0
LINE
  8
0
 10
-129.553
 11
-129.533
 20
-44.45
 21
-44.13
  0
LINE
  8
0
 10
-129.533
 11
-129.473
 20
-44.13
 21
-43.815
  0
LINE
  8
0
 10
-129.473
 11
-129.373
 20
-43.815
 21
-43.51
  0
LINE
  8
0
 10
-129.373
 11
-129.237
 20
-43.51
 21
-43.22
  0
LINE
  8
0
 10
-129.237
 11
-129.065
 20
-43.22
 21
-42.95
  0
LINE
  8
0
 10
-129.065
 11
-128.861
 20
-42.95
 21
-42.703
  0
LINE
  8
0
 10
-128.861
 11
-128.627
 20
-42.703
 21
-42.483
  0
LINE
  8
0
 10
-128.627
 11
-128.368
 20
-42.483
 21
-42.295
  0
LINE
  8
0
 10
-128.368
 11
-128.087
 20
-42.295
 21
-42.14
  0
LINE
  8
0
 10
-128.087
 11
-127.789
 20
-42.14
 21
-42.022
  0
LINE
  8
0
 10
-127.789
 11
-127.478
 20
-42.022
 21
-41.943
  0
LINE
  8
0
 10
-127.478
 11
-127.16
 20
-41.943
 21
-41.902
  0
LINE
  8
0
 10
-127.16
 11
-126.84
 20
-41.902
 21
-41.902
  0
LINE
  8
0
 10
-126.84
 11
-126.522
 20
-41.902
 21
-41.943
  0
LINE
  8
0
 10
-126.522
 11
-126.211
 20
-41.943
 21
-42.022
  0
LINE
  8
0
 10
-126.211
 11
-125.913
 20
-42.022
 21
-42.14
  0
LINE
  8
0
 10
-125.913
 11
-125.632
 20
-42.14
 21
-42.295
  0
LINE
  8
0
 10
-125.632
 11
-125.373
 20
-42.295
 21
-42.483
  0
LINE
  8
0
 10
-125.373
 11
-125.139
 20
-42.483
 21
-42.703
  0
LINE
  8
0
 10
-125.139
 11
-124.935
 20
-42.703
 21
-42.95
  0
LINE
  8
0
 10
-124.935
 11
-124.763
 20
-42.95
 21
-43.22
  0
LINE
  8
0
 10
-124.763
 11
-124.627
 20
-43.22
 21
-43.51
  0
LINE
  8
0
 10
-124.627
 11
-124.527
 20
-43.51
 21
-43.815
  0
LINE
  8
0
 10
-124.527
 11
-124.467
 20
-43.815
 21
-44.13
  0
LINE
  8
0
 10
-124.467
 11
-124.447
 20
-44.13
 21
-44.45
  0
LINE
  8
0
 10
-124.447
 11
-124.467
 20
-44.45
 21
-44.77
  0
LINE
  8
0
 10
-124.467
 11
-124.527
 20
-44.77
 21
-45.085
  0
LINE
  8
0
 10
-124.527
 11
-124.627
 20
-45.085
 21
-45.39
  0
LINE
  8
0
 10
-124.627
 11
-124.763
 20
-45.39
 21
-45.68
  0
LINE
  8
0
 10
-124.763
 11
-124.935
 20
-45.68
 21
-45.95
  0
LINE
  8
0
 10
-124.935
 11
-125.139
 20
-45.95
 21
-46.197
  0
LINE
  8
0
 10
-125.139
 11
-125.373
 20
-46.197
 21
-46.417
  0
LINE
  8
0
 10
-125.373
 11
-125.632
 20
-46.417
 21
-46.605
  0
LINE
  8
0
 10
-125.632
 11
-125.913
 20
-46.605
 21
-46.76
  0
LINE
  8
0
 10
-125.913
 11
-126.211
 20
-46.76
 21
-46.878
  0
LINE
  8
0
 10
-126.211
 11
-126.522
 20
-46.878
 21
-46.957
  0
LINE
  8
0
 10
-126.522
 11
-126.84
 20
-46.957
 21
-46.998
  0
LINE
  8
0
 10
-126.84
 11
-127.16
 20
-46.998
 21
-46.998
  0
LINE
  8
0
 10
-127.16
 11
-127.478
 20
-46.998
 21
-46.957
  0
LINE
  8
0
 10
-127.478
 11
-127.789
 20
-46.957
 21
-46.878
  0
LINE
  8
0
 10
-127.789
 11
-128.087
 20
-46.878
 21
-46.76
  0
LINE
  8
0
 10
-128.087
 11
-128.368
 20
-46.76
 21
-46.605
  0
LINE
  8
0
 10
-128.368
 11
-128.627
 20
-46.605
 21
-46.417
  0
LINE
  8
0
 10
-128.627
 11
-128.861
 20
-46.417
 21
-46.197
  0
LINE
  8
0
 10
-128.861
 11
-129.065
 20
-46.197
 21
-45.95
  0
LINE
  8
0
 10
-129.065
 11
-129.237
 20
-45.95
 21
-45.68
  0
LINE
  8
0
 10
-129.237
 11
-129.373
 20
-45.68
 21
-45.39
  0
LINE
  8
0
 10
-129.373
 11
-129.473
 20
-45.39
 21
-45.085
  0
LINE
  8
0
 10
-129.473
 11
-129.533
 20
-45.085
 21
-44.77
  0
LINE
  8
0
 10
-129.533
 11
-129.553
 20
-44.77
 21
-44.45
  0
LINE
  8
0
 10
-129.553
 11
-129.533
 20
44.45
 21
44.77
  0
LINE
  8
0
 10
-129.533
 11
-129.473
 20
44.77
 21
45.085
  0
LINE
  8
0
 10
-129.473
 11
-129.373
 20
45.085
 21
45.39
  0
LINE
  8
0
 10
-129.373
 11
-129.237
 20
45.39
 21
45.68
  0
LINE
  8
0
 10
-129.237
 11
-129.065
 20
45.68
 21
45.95
  0
LINE
  8
0
 10
-129.065
 11
-128.861
 20
45.95
 21
46.197
  0
LINE
  8
0
 10
-128.861
 11
-128.627
 20
46.197
 21
46.417
  0
LINE
  8
0
 10
-128.627
 11
-128.368
 20
46.417
 21
46.605
  0
LINE
  8
0
 10
-128.368
 11
-128.087
 20
46.605
 21
46.76
  0
LINE
  8
0
 10
-128.087
 11
-127.789
 20
46.76
 21
46.878
  0
LINE
  8
0
 10
-127.789
 11
-127.478
 20
46.878
 21
46.957
  0
LINE
  8
0
 10
-127.478
 11
-127.16
 20
46.957
 21
46.998
  0
LINE
  8
0
 10
-127.16
 11
-126.84
 20
46.998
 21
46.998
  0
LINE
  8
0
 10
-126.84
 11
-126.522
 20
46.998
 21
46.957
  0
LINE
  8
0
 10
-126.522
 11
-126.211
 20
46.957
 21
46.878
  0
LINE
  8
0
 10
-126.211
 11
-125.913
 20
46.878
 21
46.76
  0
LINE
  8
0
 10
-125.913
 11
-125.632
 20
46.76
 21
46.605
  0
LINE
  8
0
 10
-125.632
 11
-125.373
 20
46.605
 21
46.417
  0
LINE
  8
0
 10
-125.373
 11
-125.139
 20
46.417
 21
46.197
  0
LINE
  8
0
 10
-125.139
 11
-124.935
 20
46.197
 21
45.95
  0
LINE
  8
0
 10
-124.935
 11
-124.763
 20
45.95
 21
45.68
  0
LINE
  8
0
 10
-124.763
 11
-124.627
 20
45.68
 21
45.39
  0
LINE
  8
0
 10
-124.627
 11
-124.527
 20
45.39
 21
45.085
  0
LINE
  8
0
 10
-124.527
 11
-124.467
 20
45.085
 21
44.77
  0
LINE
  8
0
 10
-124.467
 11
-124.447
 20
44.77
 21
44.45
  0
LINE
  8
0
 10
-124.447
 11
-124.467
 20
44.45
 21
44.13
  0
LINE
  8
0
 10
-124.467
 11
-124.527
 20
44.13
 21
43.815
  0
LINE
  8
0
 10
-124.527
 11
-124.627
 20
43.815
 21
43.51
  0
LINE
  8
0
 10
-124.627
 11
-124.763
 20
43.51
 21
43.22
  0
LINE
  8
0
 10
-124.763
 11
-124.935
 20
43.22
 21
42.95
  0
LINE
  8
0
 10
-124.935
 11
-125.139
 20
42.95
 21
42.703
  0
LINE
  8
0
 10
-125.139
 11
-125.373
 20
42.703
 21
42.483
  0
LINE
  8
0
 10
-125.373
 11
-125.632
 20
42.483
 21
42.295
  0
LINE
  8
0
 10
-125.632
 11
-125.913
 20
42.295
 21
42.14
  0
LINE
  8
0
 10
-125.913
 11
-126.211
 20
42.14
 21
42.022
  0
LINE
  8
0
 10
-126.211
 11
-126.522
 20
42.022
 21
41.943
  0
LINE
  8
0
 10
-126.522
 11
-126.84
 20
41.943
 21
41.902
  0
LINE
  8
0
 10
-126.84
 11
-127.16
 20
41.902
 21
41.902
  0
LINE
  8
0
 10
-127.16
 11
-127.478
 20
41.902
 21
41.943
  0
LINE
  8
0
 10
-127.478
 11
-127.789
 20
41.943
 21
42.022
  0
LINE
  8
0
 10
-127.789
 11
-128.087
 20
42.022
 21
42.14
  0
LINE
  8
0
 10
-128.087
 11
-128.368
 20
42.14
 21
42.295
  0
LINE
  8
0
 10
-128.368
 11
-128.627
 20
42.295
 21
42.483
  0
LINE
  8
0
 10
-128.627
 11
-128.861
 20
42.483
 21
42.703
  0
LINE
  8
0
 10
-128.861
 11
-129.065
 20
42.703
 21
42.95
  0
LINE
  8
0
 10
-129.065
 11
-129.237
 20
42.95
 21
43.22
  0
LINE
  8
0
 10
-129.237
 11
-129.373
 20
43.22
 21
43.51
  0
LINE
  8
0
 10
-129.373
 11
-129.473
 20
43.51
 21
43.815
  0
LINE
  8
0
 10
-129.473
 11
-129.533
 20
43.815
 21
44.13
  0
LINE
  8
0
 10
-129.533
 11
-129.553
 20
44.13
 21
44.45
  0
LINE
  8
0
 10
-2.553
 11
-2.533
 20
-44.45
 21
-44.13
  0
LINE
  8
0
 10
-2.533
 11
-2.473
 20
-44.13
 21
-43.815
  0
LINE
  8
0
 10
-2.473
 11
-2.373
 20
-43.815
 21
-43.51
  0
LINE
  8
0
 10
-2.373
 11
-2.237
 20
-43.51
 21
-43.22
  0
LINE
  8
0
 10
-2.237
 11
-2.065
 20
-43.22
 21
-42.95
  0
LINE
  8
0
 10
-2.065
 11
-1.861
 20
-42.95
 21
-42.703
  0
LINE
  8
0
 10
-1.861
 11
-1.627
 20
-42.703
 21
-42.483
  0
LINE
  8
0
 10
-1.627
 11
-1.368
 20
-42.483
 21
-42.295
  0
LINE
  8
0
 10
-1.368
 11
-1.087
 20
-42.295
 21
-42.14
  0
LINE
  8
0
 10
-1.087
 11
-0.789
 20
-42.14
 21
-42.022
  0
LINE
  8
0
 10
-0.789
 11
-0.478
 20
-42.022
 21
-41.943
  0
LINE
  8
0
 10
-0.478
 11
-0.16
 20
-41.943
 21
-41.902
  0
LINE
  8
0
 10
-0.16
 11
0.16
 20
-41.902
 21
-41.902
  0
LINE
  8
0
 10
0.16
 11
0.478
 20
-41.902
 21
-41.943
  0
LINE
  8
0
 10
0.478
 11
0.789
 20
-41.943
 21
-42.022
  0
LINE
  8
0
 10
0.789
 11
1.087
 20
-42.022
 21
-42.14
  0
LINE
  8
0
 10
1.087
 11
1.368
 20
-42.14
 21
-42.295
  0
LINE
  8
0
 10
1.368
 11
1.627
 20
-42.295
 21
-42.483
  0
LINE
  8
0
 10
1.627
 11
1.861
 20
-42.483
 21
-42.703
  0
LINE
  8
0
 10
1.861
 11
2.065
 20
-42.703
 21
-42.95
  0
LINE
  8
0
 10
2.065
 11
2.237
 20
-42.95
 21
-43.22
  0
LINE
  8
0
 10
2.237
 11
2.373
 20
-43.22
 21
-43.51
  0
LINE
  8
0
 10
2.373
 11
2.473
 20
-43.51
 21
-43.815
  0
LINE
  8
0
 10
2.473
 11
2.533
 20
-43.815
 21
-44.13
  0
LINE
  8
0
 10
2.533
 11
2.553
 20
-44.13
 21
-44.45
  0
LINE
  8
0
 10
2.553
 11
2.533
 20
-44.45
 21
-44.77
  0
LINE
  8
0
 10
2.533
 11
2.473
 20
-44.77
 21
-45.085
  0
LINE
  8
0
 10
2.473
 11
2.373
 20
-45.085
 21
-45.39
  0
LINE
  8
0
 10
2.373
 11
2.237
 20
-45.39
 21
-45.68
  0
LINE
  8
0
 10
2.237
 11
2.065
 20
-45.68
 21
-45.95
  0
LINE
  8
0
 10
2.065
 11
1.861
 20
-45.95
 21
-46.197
  0
LINE
  8
0
 10
1.861
 11
1.627
 20
-46.197
 21
-46.417
  0
LINE
  8
0
 10
1.627
 11
1.368
 20
-46.417
 21
-46.605
  0
LINE
  8
0
 10
1.368
 11
1.087
 20
-46.605
 21
-46.76
  0
LINE
  8
0
 10
1.087
 11
0.789
 20
-46.76
 21
-46.878
  0
LINE
  8
0
 10
0.789
 11
0.478
 20
-46.878
 21
-46.957
  0
LINE
  8
0
 10
0.478
 11
0.16
 20
-46.957
 21
-46.998
  0
LINE
  8
0
 10
0.16
 11
-0.16
 20
-46.998
 21
-46.998
  0
LINE
  8
0
 10
-0.16
 11
-0.478
 20
-46.998
 21
-46.957
  0
LINE
  8
0
 10
-0.478
 11
-0.789
 20
-46.957
 21
-46.878
  0
LINE
  8
0
 10
-0.789
 11
-1.087
 20
-46.878
 21
-46.76
  0
LINE
  8
0
 10
-1.087
 11
-1.368
 20
-46.76
 21
-46.605
  0
LINE
  8
0
 10
-1.368
 11
-1.627
 20
-46.605
 21
-46.417
  0
LINE
  8
0
 10
-1.627
 11
-1.861
 20
-46.417
 21
-46.197
  0
LINE
  8
0
 10
-1.861
 11
-2.065
 20
-46.197
 21
-45.95
  0
LINE
  8
0
 10
-2.065
 11
-2.237
 20
-45.95
 21
-45.68
  0
LINE
  8
0
 10
-2.237
 11
-2.373
 20
-45.68
 21
-45.39
  0
LINE
  8
0
 10
-2.373
 11
-2.473
 20
-45.39
 21
-45.085
  0
LINE
  8
0
 10
-2.473
 11
-2.533
 20
-45.085
 21
-44.77
  0
LINE
  8
0
 10
-2.533
 11
-2.553
 20
-44.77
 21
-44.45
  0
LINE
  8
0
 10
-2.553
 11
-2.533
 20
44.45
 21
44.77
  0
LINE
  8
0
 10
-2.533
 11
-2.473
 20
44.77
 21
45.085
  0
LINE
  8
0
 10
-2.473
 11
-2.373
 20
45.085
 21
45.39
  0
LINE
  8
0
 10
-2.373
 11
-2.237
 20
45.39
 21
45.68
  0
LINE
  8
0
 10
-2.237
 11
-2.065
 20
45.68
 21
45.95
  0
LINE
  8
0
 10
-2.065
 11
-1.861
 20
45.95
 21
46.197
  0
LINE
  8
0
 10
-1.861
 11
-1.627
 20
46.197
 21
46.417
  0
LINE
  8
0
 10
-1.627
 11
-1.368
 20
46.417
 21
46.605
  0
LINE
  8
0
 10
-1.368
 11
-1.087
 20
46.605
 21
46.76
  0
LINE
  8
0
 10
-1.087
 11
-0.789
 20
46.76
 21
46.878
  0
LINE
  8
0
 10
-0.789
 11
-0.478
 20
46.878
 21
46.957
  0
LINE
  8
0
 10
-0.478
 11
-0.16
 20
46.957
 21
46.998
  0
LINE
  8
0
 10
-0.16
 11
0.16
 20
46.998
 21
46.998
  0
LINE
  8
0
 10
0.16
 11
0.478
 20
46.998
 21
46.957
  0
LINE
  8
0
 10
0.478
 11
0.789
 20
46.957
 21
46.878
  0
LINE
  8
0
 10
0.789
 11
1.087
 20
46.878
 21
46.76
  0
LINE
  8
0
 10
1.087
 11
1.368
 20
46.76
 21
46.605
  0
LINE
  8
0
 10
1.368
 11
1.627
 20
46.605
 21
46.417
  0
LINE
  8
0
 10
1.627
 11
1.861
 20
46.417
 21
46.197
  0
LINE
  8
0
 10
1.861
 11
2.065
 20
46.197
 21
45.95
  0
LINE
  8
0
 10
2.065
 11
2.237
 20
45.95
 21
45.68
  0
LINE
  8
0
 10
2.237
 11
2.373
 20
45.68
 21
45.39
  0
LINE
  8
0
 10
2.373
 11
2.473
 20
45.39
 21
45.085
  0
LINE
  8
0
 10
2.473
 11
2.533
 20
45.085
 21
44.77
  0
LINE
  8
0
 10
2.533
 11
2.553
 20
44.77
 21
44.45
  0
LINE
  8
0
 10
2.553
 11
2.533
 20
44.45
 21
44.13
  0
LINE
  8
0
 10
2.533
 11
2.473
 20
44.13
 21
43.815
  0
LINE
  8
0
 10
2.473
 11
2.373
 20
43.815
 21
43.51
  0
LINE
  8
0
 10
2.373
 11
2.237
 20
43.51
 21
43.22
  0
LINE
  8
0
 10
2.237
 11
2.065
 20
43.22
 21
42.95
  0
LINE
  8
0
 10
2.065
 11
1.861
 20
42.95
 21
42.703
  0
LINE
  8
0
 10
1.861
 11
1.627
 20
42.703
 21
42.483
  0
LINE
  8
0
 10
1.627
 11
1.368
 20
42.483
 21
42.295
  0
LINE
  8
0
 10
1.368
 11
1.087
 20
42.295
 21
42.14
  0
LINE
  8
0
 10
1.087
 11
0.789
 20
42.14
 21
42.022
  0
LINE
  8
0
 10
0.789
 11
0.478
 20
42.022
 21
41.943
  0
LINE
  8
0
 10
0.478
 11
0.16
 20
41.943
 21
41.902
  0
LINE
  8
0
 10
0.16
 11
-0.16
 20
41.902
 21
41.902
  0
LINE
  8
0
 10
-0.16
 11
-0.478
 20
41.902
 21
41.943
  0
LINE
  8
0
 10
-0.478
 11
-0.789
 20
41.943
 21
42.022
  0
LINE
  8
0
 10
-0.789
 11
-1.087
 20
42.022
 21
42.14
  0
LINE
  8
0
 10
-1.087
 11
-1.368
 20
42.14
 21
42.295
  0
LINE
  8
0
 10
-1.368
 11
-1.627
 20
42.295
 21
42.483
  0
LINE
  8
0
 10
-1.627
 11
-1.861
 20
42.483
 21
42.703
  0
LINE
  8
0
 10
-1.861
 11
-2.065
 20
42.703
 21
42.95
  0
LINE
  8
0
 10
-2.065
 11
-2.237
 20
42.95
 21
43.22
  0
LINE
  8
0
 10
-2.237
 11
-2.373
 20
43.22
 21
43.51
  0
LINE
  8
0
 10
-2.373
 11
-2.473
 20
43.51
 21
43.815
  0
LINE
  8
0
 10
-2.473
 11
-2.533
 20
43.815
 21
44.13
  0
LINE
  8
0
 10
-2.533
 11
-2.553
 20
44.13
 21
44.45
  0
LINE
  8
0
 10
124.447
 11
124.467
 20
-44.45
 21
-44.13
  0
LINE
  8
0
 10
124.467
 11
124.527
 20
-44.13
 21
-43.815
  0
LINE
  8
0
 10
124.527
 11
124.627
 20
-43.815
 21
-43.51
  0
LINE
  8
0
 10
124.627
 11
124.763
 20
-43.51
 21
-43.22
  0
LINE
  8
0
 10
124.763
 11
124.935
 20
-43.22
 21
-42.95
  0
LINE
  8
0
 10
124.935
 11
125.139
 20
-42.95
 21
-42.703
  0
LINE
  8
0
 10
125.139
 11
125.373
 20
-42.703
 21
-42.483
  0
LINE
  8
0
 10
125.373
 11
125.632
 20
-42.483
 21
-42.295
  0
LINE
  8
0
 10
125.632
 11
125.913
 20
-42.295
 21
-42.14
  0
LINE
  8
0
 10
125.913
 11
126.211
 20
-42.14
 21
-42.022
  0
LINE
  8
0
 10
126.211
 11
126.522
 20
-42.022
 21
-41.943
  0
LINE
  8
0
 10
126.522
 11
126.84
 20
-41.943
 21
-41.902
  0
LINE
  8
0
 10
126.84
 11
127.16
 20
-41.902
 21
-41.902
  0
LINE
  8
0
 10
127.16
 11
127.478
 20
-41.902
 21
-41.943
  0
LINE
  8
0
 10
127.478
 11
127.789
 20
-41.943
 21
-42.022
  0
LINE
  8
0
 10
127.789
 11
128.087
 20
-42.022
 21
-42.14
  0
LINE
  8
0
 10
128.087
 11
128.368
 20
-42.14
 21
-42.295
  0
LINE
  8
0
 10
128.368
 11
128.627
 20
-42.295
 21
-42.483
  0
LINE
  8
0
 10
128.627
 11
128.861
 20
-42.483
 21
-42.703
  0
LINE
  8
0
 10
128.861
 11
129.065
 20
-42.703
 21
-42.95
  0
LINE
  8
0
 10
129.065
 11
129.237
 20
-42.95
 21
-43.22
  0
LINE
  8
0
 10
129.237
 11
129.373
 20
-43.22
 21
-43.51
  0
LINE
  8
0
 10
129.373
 11
129.473
 20
-43.51
 21
-43.815
  0
LINE
  8
0
 10
129.473
 11
129.533
 20
-43.815
 21
-44.13
  0
LINE
  8
0
 10
129.533
 11
129.553
 20
-44.13
 21
-44.45
  0
LINE
  8
0
 10
129.553
 11
129.533
 20
-44.45
 21
-44.77
  0
LINE
  8
0
 10
129.533
 11
129.473
 20
-44.77
 21
-45.085
  0
LINE
  8
0
 10
129.473
 11
129.373
 20
-45.085
 21
-45.39
  0
LINE
  8
0
 10
129.373
 11
129.237
 20
-45.39
 21
-45.68
  0
LINE
  8
0
 10
129.237
 11
129.065
 20
-45.68
 21
-45.95
  0
LINE
  8
0
 10
129.065
 11
128.861
 20
-45.95
 21
-46.197
  0
LINE
  8
0
 10
128.861
 11
128.627
 20
-46.197
 21
-46.417
  0
LINE
  8
0
 10
128.627
 11
128.368
 20
-46.417
 21
-46.605
  0
LINE
  8
0
 10
128.368
 11
128.087
 20
-46.605
 21
-46.76
  0
LINE
  8
0
 10
128.087
 11
127.789
 20
-46.76
 21
-46.878
  0
LINE
  8
0
 10
127.789
 11
127.478
 20
-46.878
 21
-46.957
  0
LINE
  8
0
 10
127.478
 11
127.16
 20
-46.957
 21
-46.998
  0
LINE
  8
0
 10
127.16
 11
126.84
 20
-46.998
 21
-46.998
  0
LINE
  8
0
 10
126.84
 11
126.522
 20
-46.998
 21
-46.957
  0
LINE
  8
0
 10
126.522
 11
126.211
 20
-46.957
 21
-46.878
  0
LINE
  8
0
 10
126.211
 11
125.913
 20
-46.878
 21
-46.76
  0
LINE
  8
0
 10
125.913
 11
125.632
 20
-46.76
 21
-46.605
  0
LINE
  8
0
 10
125.632
 11
125.373
 20
-46.605
 21
-46.417
  0
LINE
  8
0
 10
125.373
 11
125.139
 20
-46.417
 21
-46.197
  0
LINE
  8
0
 10
125.139
 11
124.935
 20
-46.197
 21
-45.95
  0
LINE
  8
0
 10
124.935
 11
124.763
 20
-45.95
 21
-45.68
  0
LINE
  8
0
 10
124.763
 11
124.627
 20
-45.68
 21
-45.39
  0
LINE
  8
0
 10
124.627
 11
124.527
 20
-45.39
 21
-45.085
  0
LINE
  8
0
 10
124.527
 11
124.467
 20
-45.085
 21
-44.77
  0
LINE
  8
0
 10
124.467
 11
124.447
 20
-44.77
 21
-44.45
  0
LINE
  8
0
 10
124.447
 11
124.467
 20
44.45
 21
44.77
  0
LINE
  8
0
 10
124.467
 11
124.527
 20
44.77
 21
45.085
  0
LINE
  8
0
 10
124.527
 11
124.627
 20
45.085
 21
45.39
  0
LINE
  8
0
 10
124.627
 11
124.763
 20
45.39
 21
45.68
  0
LINE
  8
0
 10
124.763
 11
124.935
 20
45.68
 21
45.95
  0
LINE
  8
0
 10
124.935
 11
125.139
 20
45.95
 21
46.197
  0
LINE
  8
0
 10
125.139
 11
125.373
 20
46.197
 21
46.417
  0
LINE
  8
0
 10
125.373
 11
125.632
 20
46.417
 21
46.605
  0
LINE
  8
0
 10
125.632
 11
125.913
 20
46.605
 21
46.76
  0
LINE
  8
0
 10
125.913
 11
126.211
 20
46.76
 21
46.878
  0
LINE
  8
0
 10
126.211
 11
126.522
 20
46.878
 21
46.957
  0
LINE
  8
0
 10
126.522
 11
126.84
 20
46.957
 21
46.998
  0
LINE
  8
0
 10
126.84
 11
127.16
 20
46.998
 21
46.998
  0
LINE
  8
0
 10
127.16
 11
127.478
 20
46.998
 21
46.957
  0
LINE
  8
0
 10
127.478
 11
127.789
 20
46.957
 21
46.878
  0
LINE
  8
0
 10
127.789
 11
128.087
 20
46.878
 21
46.76
  0
LINE
  8
0
 10
128.087
 11
128.368
 20
46.76
 21
46.605
  0
LINE
  8
0
 10
128.368
 11
128.627
 20
46.605
 21
46.417
  0
LINE
  8
0
 10
128.627
 11
128.861
 20
46.417
 21
46.197
  0
LINE
  8
0
 10
128.861
 11
129.065
 20
46.197
 21
45.95
  0
LINE
  8
0
 10
129.065
 11
129.237
 20
45.95
 21
45.68
  0
LINE
  8
0
 10
129.237
 11
129.373
 20
45.68
 21
45.39
  0
LINE
  8
0
 10
129.373
 11
129.473
 20
45.39
 21
45.085
  0
LINE
  8
0
 10
129.473
 11
129.533
 20
45.085
 21
44.77
  0
LINE
  8
0
 10
129.533
 11
129.553
 20
44.77
 21
44.45
  0
LINE
  8
0
 10
129.553
 11
129.533
 20
44.45
 21
44.13
  0
LINE
  8
0
 10
129.533
 11
129.473
 20
44.13
 21
43.815
  0
LINE
  8
0
 10
129.473
 11
129.373
 20
43.815
 21
43.51
  0
LINE
  8
0
 10
129.373
 11
129.237
 20
43.51
 21
43.22
  0
LINE
  8
0
 10
129.237
 11
129.065
 20
43.22
 21
42.95
  0
LINE
  8
0
 10
129.065
 11
128.861
 20
42.95
 21
42.703
  0
LINE
  8
0
 10
128.861
 11
128.627
 20
42.703
 21
42.483
  0
LINE
  8
0
 10
128.627
 11
128.368
 20
42.483
 21
42.295
  0
LINE
  8
0
 10
128.368
 11
128.087
 20
42.295
 21
42.14
  0
LINE
  8
0
 10
128.087
 11
127.789
 20
42.14
 21
42.022
  0
LINE
  8
0
 10
127.789
 11
127.478
 20
42.022
 21
41.943
  0
LINE
  8
0
 10
127.478
 11
127.16
 20
41.943
 21
41.902
  0
LINE
  8
0
 10
127.16
 11
126.84
 20
41.902
 21
41.902
  0
LINE
  8
0
 10
126.84
 11
126.522
 20
41.902
 21
41.943
  0
LINE
  8
0
 10
126.522
 11
126.211
 20
41.943
 21
42.022
  0
LINE
  8
0
 10
126.211
 11
125.913
 20
42.022
 21
42.14
  0
LINE
  8
0
 10
125.913
 11
125.632
 20
42.14
 21
42.295
  0
LINE
  8
0
 10
125.632
 11
125.373
 20
42.295
 21
42.483
  0
LINE
  8
0
 10
125.373
 11
125.139
 20
42.483
 21
42.703
  0
LINE
  8
0
 10
125.139
 11
124.935
 20
42.703
 21
42.95
  0
LINE
  8
0
 10
124.935
 11
124.763
 20
42.95
 21
43.22
  0
LINE
  8
0
 10
124.763
 11
124.627
 20
43.22
 21
43.51
  0
LINE
  8
0
 10
124.627
 11
124.527
 20
43.51
 21
43.815
  0
LINE
  8
0
 10
124.527
 11
124.467
 20
43.815
 21
44.13
  0
LINE
  8
0
 10
124.467
 11
124.447
 20
44.13
 21
44.45
  0
ENDSEC
  0
SECTION
  2
OBJECTS
  0
DICTIONARY
  0
ENDSEC
  0
EOF
