  0
SECTION
  2
BLOCKS
  0
ENDSEC
  0
SECTION
  2
ENTITIES
  0
LINE
  8
0
 10
-12.7
 11
-12.7
 20
-127.58
 21
127.58
  0
LINE
  8
0
 10
-12.7
 11
-12.688
 20
127.58
 21
127.768
  0
LINE
  8
0
 10
-12.688
 11
-12.653
 20
127.768
 21
127.953
  0
LINE
  8
0
 10
-12.653
 11
-12.595
 20
127.953
 21
128.132
  0
LINE
  8
0
 10
-12.595
 11
-12.514
 20
128.132
 21
128.303
  0
LINE
  8
0
 10
-12.514
 11
-12.414
 20
128.303
 21
128.462
  0
LINE
  8
0
 10
-12.414
 11
-12.293
 20
128.462
 21
128.607
  0
LINE
  8
0
 10
-12.293
 11
-12.156
 20
128.607
 21
128.736
  0
LINE
  8
0
 10
-12.156
 11
-12.004
 20
128.736
 21
128.846
  0
LINE
  8
0
 10
-12.004
 11
-11.839
 20
128.846
 21
128.937
  0
LINE
  8
0
 10
-11.839
 11
-11.664
 20
128.937
 21
129.007
  0
LINE
  8
0
 10
-11.664
 11
-11.481
 20
129.007
 21
129.053
  0
LINE
  8
0
 10
-11.481
 11
-11.294
 20
129.053
 21
129.077
  0
LINE
  8
0
 10
-11.294
 11
-11.2
 20
129.077
 21
129.077
  0
LINE
  8
0
 10
-11.2
 11
-11.2
 20
129.077
 21
129.08
  0
LINE
  8
0
 10
-11.2
 11
11.2
 20
129.08
 21
129.08
  0
LINE
  8
0
 10
11.2
 11
11.2
 20
129.08
 21
129.077
  0
LINE
  8
0
 10
11.2
 11
11.294
 20
129.077
 21
129.077
  0
LINE
  8
0
 10
11.294
 11
11.481
 20
129.077
 21
129.053
  0
LINE
  8
0
 10
11.481
 11
11.664
 20
129.053
 21
129.007
  0
LINE
  8
0
 10
11.664
 11
11.839
 20
129.007
 21
128.937
  0
LINE
  8
0
 10
11.839
 11
12.004
 20
128.937
 21
128.846
  0
LINE
  8
0
 10
12.004
 11
12.156
 20
128.846
 21
128.736
  0
LINE
  8
0
 10
12.156
 11
12.293
 20
128.736
 21
128.607
  0
LINE
  8
0
 10
12.293
 11
12.414
 20
128.607
 21
128.462
  0
LINE
  8
0
 10
12.414
 11
12.514
 20
128.462
 21
128.303
  0
LINE
  8
0
 10
12.514
 11
12.595
 20
128.303
 21
128.132
  0
LINE
  8
0
 10
12.595
 11
12.653
 20
128.132
 21
127.953
  0
LINE
  8
0
 10
12.653
 11
12.688
 20
127.953
 21
127.768
  0
LINE
  8
0
 10
12.688
 11
12.7
 20
127.768
 21
127.58
  0
LINE
  8
0
 10
12.7
 11
12.7
 20
127.58
 21
-127.58
  0
LINE
  8
0
 10
12.7
 11
12.688
 20
-127.58
 21
-127.768
  0
LINE
  8
0
 10
12.688
 11
12.653
 20
-127.768
 21
-127.953
  0
LINE
  8
0
 10
12.653
 11
12.595
 20
-127.953
 21
-128.132
  0
LINE
  8
0
 10
12.595
 11
12.514
 20
-128.132
 21
-128.303
  0
LINE
  8
0
 10
12.514
 11
12.414
 20
-128.303
 21
-128.462
  0
LINE
  8
0
 10
12.414
 11
12.293
 20
-128.462
 21
-128.607
  0
LINE
  8
0
 10
12.293
 11
12.156
 20
-128.607
 21
-128.736
  0
LINE
  8
0
 10
12.156
 11
12.004
 20
-128.736
 21
-128.846
  0
LINE
  8
0
 10
12.004
 11
11.839
 20
-128.846
 21
-128.937
  0
LINE
  8
0
 10
11.839
 11
11.664
 20
-128.937
 21
-129.007
  0
LINE
  8
0
 10
11.664
 11
11.481
 20
-129.007
 21
-129.053
  0
LINE
  8
0
 10
11.481
 11
11.294
 20
-129.053
 21
-129.077
  0
LINE
  8
0
 10
11.294
 11
11.2
 20
-129.077
 21
-129.077
  0
LINE
  8
0
 10
11.2
 11
11.2
 20
-129.077
 21
-129.08
  0
LINE
  8
0
 10
11.2
 11
-11.2
 20
-129.08
 21
-129.08
  0
LINE
  8
0
 10
-11.2
 11
-11.2
 20
-129.08
 21
-129.077
  0
LINE
  8
0
 10
-11.2
 11
-11.294
 20
-129.077
 21
-129.077
  0
LINE
  8
0
 10
-11.294
 11
-11.481
 20
-129.077
 21
-129.053
  0
LINE
  8
0
 10
-11.481
 11
-11.664
 20
-129.053
 21
-129.007
  0
LINE
  8
0
 10
-11.664
 11
-11.839
 20
-129.007
 21
-128.937
  0
LINE
  8
0
 10
-11.839
 11
-12.004
 20
-128.937
 21
-128.846
  0
LINE
  8
0
 10
-12.004
 11
-12.156
 20
-128.846
 21
-128.736
  0
LINE
  8
0
 10
-12.156
 11
-12.293
 20
-128.736
 21
-128.607
  0
LINE
  8
0
 10
-12.293
 11
-12.414
 20
-128.607
 21
-128.462
  0
LINE
  8
0
 10
-12.414
 11
-12.514
 20
-128.462
 21
-128.303
  0
LINE
  8
0
 10
-12.514
 11
-12.595
 20
-128.303
 21
-128.132
  0
LINE
  8
0
 10
-12.595
 11
-12.653
 20
-128.132
 21
-127.953
  0
LINE
  8
0
 10
-12.653
 11
-12.688
 20
-127.953
 21
-127.768
  0
LINE
  8
0
 10
-12.688
 11
-12.7
 20
-127.768
 21
-127.58
  0
LINE
  8
0
 10
-2.553
 11
-2.533
 20
-61.54
 21
-61.22
  0
LINE
  8
0
 10
-2.533
 11
-2.473
 20
-61.22
 21
-60.905
  0
LINE
  8
0
 10
-2.473
 11
-2.373
 20
-60.905
 21
-60.6
  0
LINE
  8
0
 10
-2.373
 11
-2.237
 20
-60.6
 21
-60.31
  0
LINE
  8
0
 10
-2.237
 11
-2.065
 20
-60.31
 21
-60.04
  0
LINE
  8
0
 10
-2.065
 11
-1.861
 20
-60.04
 21
-59.793
  0
LINE
  8
0
 10
-1.861
 11
-1.627
 20
-59.793
 21
-59.573
  0
LINE
  8
0
 10
-1.627
 11
-1.368
 20
-59.573
 21
-59.385
  0
LINE
  8
0
 10
-1.368
 11
-1.087
 20
-59.385
 21
-59.23
  0
LINE
  8
0
 10
-1.087
 11
-0.789
 20
-59.23
 21
-59.112
  0
LINE
  8
0
 10
-0.789
 11
-0.478
 20
-59.112
 21
-59.033
  0
LINE
  8
0
 10
-0.478
 11
-0.16
 20
-59.033
 21
-58.992
  0
LINE
  8
0
 10
-0.16
 11
0.16
 20
-58.992
 21
-58.992
  0
LINE
  8
0
 10
0.16
 11
0.478
 20
-58.992
 21
-59.033
  0
LINE
  8
0
 10
0.478
 11
0.789
 20
-59.033
 21
-59.112
  0
LINE
  8
0
 10
0.789
 11
1.087
 20
-59.112
 21
-59.23
  0
LINE
  8
0
 10
1.087
 11
1.368
 20
-59.23
 21
-59.385
  0
LINE
  8
0
 10
1.368
 11
1.627
 20
-59.385
 21
-59.573
  0
LINE
  8
0
 10
1.627
 11
1.861
 20
-59.573
 21
-59.793
  0
LINE
  8
0
 10
1.861
 11
2.065
 20
-59.793
 21
-60.04
  0
LINE
  8
0
 10
2.065
 11
2.237
 20
-60.04
 21
-60.31
  0
LINE
  8
0
 10
2.237
 11
2.373
 20
-60.31
 21
-60.6
  0
LINE
  8
0
 10
2.373
 11
2.473
 20
-60.6
 21
-60.905
  0
LINE
  8
0
 10
2.473
 11
2.533
 20
-60.905
 21
-61.22
  0
LINE
  8
0
 10
2.533
 11
2.553
 20
-61.22
 21
-61.54
  0
LINE
  8
0
 10
2.553
 11
2.533
 20
-61.54
 21
-61.86
  0
LINE
  8
0
 10
2.533
 11
2.473
 20
-61.86
 21
-62.175
  0
LINE
  8
0
 10
2.473
 11
2.373
 20
-62.175
 21
-62.48
  0
LINE
  8
0
 10
2.373
 11
2.237
 20
-62.48
 21
-62.77
  0
LINE
  8
0
 10
2.237
 11
2.065
 20
-62.77
 21
-63.04
  0
LINE
  8
0
 10
2.065
 11
1.861
 20
-63.04
 21
-63.287
  0
LINE
  8
0
 10
1.861
 11
1.627
 20
-63.287
 21
-63.507
  0
LINE
  8
0
 10
1.627
 11
1.368
 20
-63.507
 21
-63.695
  0
LINE
  8
0
 10
1.368
 11
1.087
 20
-63.695
 21
-63.85
  0
LINE
  8
0
 10
1.087
 11
0.789
 20
-63.85
 21
-63.968
  0
LINE
  8
0
 10
0.789
 11
0.478
 20
-63.968
 21
-64.047
  0
LINE
  8
0
 10
0.478
 11
0.16
 20
-64.047
 21
-64.088
  0
LINE
  8
0
 10
0.16
 11
-0.16
 20
-64.088
 21
-64.088
  0
LINE
  8
0
 10
-0.16
 11
-0.478
 20
-64.088
 21
-64.047
  0
LINE
  8
0
 10
-0.478
 11
-0.789
 20
-64.047
 21
-63.968
  0
LINE
  8
0
 10
-0.789
 11
-1.087
 20
-63.968
 21
-63.85
  0
LINE
  8
0
 10
-1.087
 11
-1.368
 20
-63.85
 21
-63.695
  0
LINE
  8
0
 10
-1.368
 11
-1.627
 20
-63.695
 21
-63.507
  0
LINE
  8
0
 10
-1.627
 11
-1.861
 20
-63.507
 21
-63.287
  0
LINE
  8
0
 10
-1.861
 11
-2.065
 20
-63.287
 21
-63.04
  0
LINE
  8
0
 10
-2.065
 11
-2.237
 20
-63.04
 21
-62.77
  0
LINE
  8
0
 10
-2.237
 11
-2.373
 20
-62.77
 21
-62.48
  0
LINE
  8
0
 10
-2.373
 11
-2.473
 20
-62.48
 21
-62.175
  0
LINE
  8
0
 10
-2.473
 11
-2.533
 20
-62.175
 21
-61.86
  0
LINE
  8
0
 10
-2.533
 11
-2.553
 20
-61.86
 21
-61.54
  0
LINE
  8
0
 10
-2.553
 11
-2.533
 20
61.54
 21
61.86
  0
LINE
  8
0
 10
-2.533
 11
-2.473
 20
61.86
 21
62.175
  0
LINE
  8
0
 10
-2.473
 11
-2.373
 20
62.175
 21
62.48
  0
LINE
  8
0
 10
-2.373
 11
-2.237
 20
62.48
 21
62.77
  0
LINE
  8
0
 10
-2.237
 11
-2.065
 20
62.77
 21
63.04
  0
LINE
  8
0
 10
-2.065
 11
-1.861
 20
63.04
 21
63.287
  0
LINE
  8
0
 10
-1.861
 11
-1.627
 20
63.287
 21
63.507
  0
LINE
  8
0
 10
-1.627
 11
-1.368
 20
63.507
 21
63.695
  0
LINE
  8
0
 10
-1.368
 11
-1.087
 20
63.695
 21
63.85
  0
LINE
  8
0
 10
-1.087
 11
-0.789
 20
63.85
 21
63.968
  0
LINE
  8
0
 10
-0.789
 11
-0.478
 20
63.968
 21
64.047
  0
LINE
  8
0
 10
-0.478
 11
-0.16
 20
64.047
 21
64.088
  0
LINE
  8
0
 10
-0.16
 11
0.16
 20
64.088
 21
64.088
  0
LINE
  8
0
 10
0.16
 11
0.478
 20
64.088
 21
64.047
  0
LINE
  8
0
 10
0.478
 11
0.789
 20
64.047
 21
63.968
  0
LINE
  8
0
 10
0.789
 11
1.087
 20
63.968
 21
63.85
  0
LINE
  8
0
 10
1.087
 11
1.368
 20
63.85
 21
63.695
  0
LINE
  8
0
 10
1.368
 11
1.627
 20
63.695
 21
63.507
  0
LINE
  8
0
 10
1.627
 11
1.861
 20
63.507
 21
63.287
  0
LINE
  8
0
 10
1.861
 11
2.065
 20
63.287
 21
63.04
  0
LINE
  8
0
 10
2.065
 11
2.237
 20
63.04
 21
62.77
  0
LINE
  8
0
 10
2.237
 11
2.373
 20
62.77
 21
62.48
  0
LINE
  8
0
 10
2.373
 11
2.473
 20
62.48
 21
62.175
  0
LINE
  8
0
 10
2.473
 11
2.533
 20
62.175
 21
61.86
  0
LINE
  8
0
 10
2.533
 11
2.553
 20
61.86
 21
61.54
  0
LINE
  8
0
 10
2.553
 11
2.533
 20
61.54
 21
61.22
  0
LINE
  8
0
 10
2.533
 11
2.473
 20
61.22
 21
60.905
  0
LINE
  8
0
 10
2.473
 11
2.373
 20
60.905
 21
60.6
  0
LINE
  8
0
 10
2.373
 11
2.237
 20
60.6
 21
60.31
  0
LINE
  8
0
 10
2.237
 11
2.065
 20
60.31
 21
60.04
  0
LINE
  8
0
 10
2.065
 11
1.861
 20
60.04
 21
59.793
  0
LINE
  8
0
 10
1.861
 11
1.627
 20
59.793
 21
59.573
  0
LINE
  8
0
 10
1.627
 11
1.368
 20
59.573
 21
59.385
  0
LINE
  8
0
 10
1.368
 11
1.087
 20
59.385
 21
59.23
  0
LINE
  8
0
 10
1.087
 11
0.789
 20
59.23
 21
59.112
  0
LINE
  8
0
 10
0.789
 11
0.478
 20
59.112
 21
59.033
  0
LINE
  8
0
 10
0.478
 11
0.16
 20
59.033
 21
58.992
  0
LINE
  8
0
 10
0.16
 11
-0.16
 20
58.992
 21
58.992
  0
LINE
  8
0
 10
-0.16
 11
-0.478
 20
58.992
 21
59.033
  0
LINE
  8
0
 10
-0.478
 11
-0.789
 20
59.033
 21
59.112
  0
LINE
  8
0
 10
-0.789
 11
-1.087
 20
59.112
 21
59.23
  0
LINE
  8
0
 10
-1.087
 11
-1.368
 20
59.23
 21
59.385
  0
LINE
  8
0
 10
-1.368
 11
-1.627
 20
59.385
 21
59.573
  0
LINE
  8
0
 10
-1.627
 11
-1.861
 20
59.573
 21
59.793
  0
LINE
  8
0
 10
-1.861
 11
-2.065
 20
59.793
 21
60.04
  0
LINE
  8
0
 10
-2.065
 11
-2.237
 20
60.04
 21
60.31
  0
LINE
  8
0
 10
-2.237
 11
-2.373
 20
60.31
 21
60.6
  0
LINE
  8
0
 10
-2.373
 11
-2.473
 20
60.6
 21
60.905
  0
LINE
  8
0
 10
-2.473
 11
-2.533
 20
60.905
 21
61.22
  0
LINE
  8
0
 10
-2.533
 11
-2.553
 20
61.22
 21
61.54
  0
ENDSEC
  0
SECTION
  2
OBJECTS
  0
DICTIONARY
  0
ENDSEC
  0
EOF
