  0
SECTION
  2
BLOCKS
  0
ENDSEC
  0
SECTION
  2
ENTITIES
  0
LINE
  8
0
 10
-12.7
 11
-12.7
 20
-129.4
 21
129.4
  0
LINE
  8
0
 10
-12.7
 11
-12.688
 20
129.4
 21
129.588
  0
LINE
  8
0
 10
-12.688
 11
-12.653
 20
129.588
 21
129.773
  0
LINE
  8
0
 10
-12.653
 11
-12.595
 20
129.773
 21
129.952
  0
LINE
  8
0
 10
-12.595
 11
-12.514
 20
129.952
 21
130.123
  0
LINE
  8
0
 10
-12.514
 11
-12.414
 20
130.123
 21
130.282
  0
LINE
  8
0
 10
-12.414
 11
-12.293
 20
130.282
 21
130.427
  0
LINE
  8
0
 10
-12.293
 11
-12.156
 20
130.427
 21
130.556
  0
LINE
  8
0
 10
-12.156
 11
-12.004
 20
130.556
 21
130.666
  0
LINE
  8
0
 10
-12.004
 11
-11.839
 20
130.666
 21
130.757
  0
LINE
  8
0
 10
-11.839
 11
-11.664
 20
130.757
 21
130.827
  0
LINE
  8
0
 10
-11.664
 11
-11.481
 20
130.827
 21
130.873
  0
LINE
  8
0
 10
-11.481
 11
-11.294
 20
130.873
 21
130.897
  0
LINE
  8
0
 10
-11.294
 11
-11.2
 20
130.897
 21
130.897
  0
LINE
  8
0
 10
-11.2
 11
-11.2
 20
130.897
 21
130.9
  0
LINE
  8
0
 10
-11.2
 11
11.2
 20
130.9
 21
130.9
  0
LINE
  8
0
 10
11.2
 11
11.2
 20
130.9
 21
130.897
  0
LINE
  8
0
 10
11.2
 11
11.294
 20
130.897
 21
130.897
  0
LINE
  8
0
 10
11.294
 11
11.481
 20
130.897
 21
130.873
  0
LINE
  8
0
 10
11.481
 11
11.664
 20
130.873
 21
130.827
  0
LINE
  8
0
 10
11.664
 11
11.839
 20
130.827
 21
130.757
  0
LINE
  8
0
 10
11.839
 11
12.004
 20
130.757
 21
130.666
  0
LINE
  8
0
 10
12.004
 11
12.156
 20
130.666
 21
130.556
  0
LINE
  8
0
 10
12.156
 11
12.293
 20
130.556
 21
130.427
  0
LINE
  8
0
 10
12.293
 11
12.414
 20
130.427
 21
130.282
  0
LINE
  8
0
 10
12.414
 11
12.514
 20
130.282
 21
130.123
  0
LINE
  8
0
 10
12.514
 11
12.595
 20
130.123
 21
129.952
  0
LINE
  8
0
 10
12.595
 11
12.653
 20
129.952
 21
129.773
  0
LINE
  8
0
 10
12.653
 11
12.688
 20
129.773
 21
129.588
  0
LINE
  8
0
 10
12.688
 11
12.7
 20
129.588
 21
129.4
  0
LINE
  8
0
 10
12.7
 11
12.7
 20
129.4
 21
-129.4
  0
LINE
  8
0
 10
12.7
 11
12.688
 20
-129.4
 21
-129.588
  0
LINE
  8
0
 10
12.688
 11
12.653
 20
-129.588
 21
-129.773
  0
LINE
  8
0
 10
12.653
 11
12.595
 20
-129.773
 21
-129.952
  0
LINE
  8
0
 10
12.595
 11
12.514
 20
-129.952
 21
-130.123
  0
LINE
  8
0
 10
12.514
 11
12.414
 20
-130.123
 21
-130.282
  0
LINE
  8
0
 10
12.414
 11
12.293
 20
-130.282
 21
-130.427
  0
LINE
  8
0
 10
12.293
 11
12.156
 20
-130.427
 21
-130.556
  0
LINE
  8
0
 10
12.156
 11
12.004
 20
-130.556
 21
-130.666
  0
LINE
  8
0
 10
12.004
 11
11.839
 20
-130.666
 21
-130.757
  0
LINE
  8
0
 10
11.839
 11
11.664
 20
-130.757
 21
-130.827
  0
LINE
  8
0
 10
11.664
 11
11.481
 20
-130.827
 21
-130.873
  0
LINE
  8
0
 10
11.481
 11
11.294
 20
-130.873
 21
-130.897
  0
LINE
  8
0
 10
11.294
 11
11.2
 20
-130.897
 21
-130.897
  0
LINE
  8
0
 10
11.2
 11
11.2
 20
-130.897
 21
-130.9
  0
LINE
  8
0
 10
11.2
 11
-11.2
 20
-130.9
 21
-130.9
  0
LINE
  8
0
 10
-11.2
 11
-11.2
 20
-130.9
 21
-130.897
  0
LINE
  8
0
 10
-11.2
 11
-11.294
 20
-130.897
 21
-130.897
  0
LINE
  8
0
 10
-11.294
 11
-11.481
 20
-130.897
 21
-130.873
  0
LINE
  8
0
 10
-11.481
 11
-11.664
 20
-130.873
 21
-130.827
  0
LINE
  8
0
 10
-11.664
 11
-11.839
 20
-130.827
 21
-130.757
  0
LINE
  8
0
 10
-11.839
 11
-12.004
 20
-130.757
 21
-130.666
  0
LINE
  8
0
 10
-12.004
 11
-12.156
 20
-130.666
 21
-130.556
  0
LINE
  8
0
 10
-12.156
 11
-12.293
 20
-130.556
 21
-130.427
  0
LINE
  8
0
 10
-12.293
 11
-12.414
 20
-130.427
 21
-130.282
  0
LINE
  8
0
 10
-12.414
 11
-12.514
 20
-130.282
 21
-130.123
  0
LINE
  8
0
 10
-12.514
 11
-12.595
 20
-130.123
 21
-129.952
  0
LINE
  8
0
 10
-12.595
 11
-12.653
 20
-129.952
 21
-129.773
  0
LINE
  8
0
 10
-12.653
 11
-12.688
 20
-129.773
 21
-129.588
  0
LINE
  8
0
 10
-12.688
 11
-12.7
 20
-129.588
 21
-129.4
  0
LINE
  8
0
 10
-2.553
 11
-2.533
 20
-62.3
 21
-61.98
  0
LINE
  8
0
 10
-2.533
 11
-2.473
 20
-61.98
 21
-61.665
  0
LINE
  8
0
 10
-2.473
 11
-2.373
 20
-61.665
 21
-61.36
  0
LINE
  8
0
 10
-2.373
 11
-2.237
 20
-61.36
 21
-61.07
  0
LINE
  8
0
 10
-2.237
 11
-2.065
 20
-61.07
 21
-60.8
  0
LINE
  8
0
 10
-2.065
 11
-1.861
 20
-60.8
 21
-60.553
  0
LINE
  8
0
 10
-1.861
 11
-1.627
 20
-60.553
 21
-60.333
  0
LINE
  8
0
 10
-1.627
 11
-1.368
 20
-60.333
 21
-60.145
  0
LINE
  8
0
 10
-1.368
 11
-1.087
 20
-60.145
 21
-59.99
  0
LINE
  8
0
 10
-1.087
 11
-0.789
 20
-59.99
 21
-59.872
  0
LINE
  8
0
 10
-0.789
 11
-0.478
 20
-59.872
 21
-59.793
  0
LINE
  8
0
 10
-0.478
 11
-0.16
 20
-59.793
 21
-59.752
  0
LINE
  8
0
 10
-0.16
 11
0.16
 20
-59.752
 21
-59.752
  0
LINE
  8
0
 10
0.16
 11
0.478
 20
-59.752
 21
-59.793
  0
LINE
  8
0
 10
0.478
 11
0.789
 20
-59.793
 21
-59.872
  0
LINE
  8
0
 10
0.789
 11
1.087
 20
-59.872
 21
-59.99
  0
LINE
  8
0
 10
1.087
 11
1.368
 20
-59.99
 21
-60.145
  0
LINE
  8
0
 10
1.368
 11
1.627
 20
-60.145
 21
-60.333
  0
LINE
  8
0
 10
1.627
 11
1.861
 20
-60.333
 21
-60.553
  0
LINE
  8
0
 10
1.861
 11
2.065
 20
-60.553
 21
-60.8
  0
LINE
  8
0
 10
2.065
 11
2.237
 20
-60.8
 21
-61.07
  0
LINE
  8
0
 10
2.237
 11
2.373
 20
-61.07
 21
-61.36
  0
LINE
  8
0
 10
2.373
 11
2.473
 20
-61.36
 21
-61.665
  0
LINE
  8
0
 10
2.473
 11
2.533
 20
-61.665
 21
-61.98
  0
LINE
  8
0
 10
2.533
 11
2.553
 20
-61.98
 21
-62.3
  0
LINE
  8
0
 10
2.553
 11
2.533
 20
-62.3
 21
-62.62
  0
LINE
  8
0
 10
2.533
 11
2.473
 20
-62.62
 21
-62.935
  0
LINE
  8
0
 10
2.473
 11
2.373
 20
-62.935
 21
-63.24
  0
LINE
  8
0
 10
2.373
 11
2.237
 20
-63.24
 21
-63.53
  0
LINE
  8
0
 10
2.237
 11
2.065
 20
-63.53
 21
-63.8
  0
LINE
  8
0
 10
2.065
 11
1.861
 20
-63.8
 21
-64.047
  0
LINE
  8
0
 10
1.861
 11
1.627
 20
-64.047
 21
-64.267
  0
LINE
  8
0
 10
1.627
 11
1.368
 20
-64.267
 21
-64.455
  0
LINE
  8
0
 10
1.368
 11
1.087
 20
-64.455
 21
-64.61
  0
LINE
  8
0
 10
1.087
 11
0.789
 20
-64.61
 21
-64.728
  0
LINE
  8
0
 10
0.789
 11
0.478
 20
-64.728
 21
-64.807
  0
LINE
  8
0
 10
0.478
 11
0.16
 20
-64.807
 21
-64.848
  0
LINE
  8
0
 10
0.16
 11
-0.16
 20
-64.848
 21
-64.848
  0
LINE
  8
0
 10
-0.16
 11
-0.478
 20
-64.848
 21
-64.807
  0
LINE
  8
0
 10
-0.478
 11
-0.789
 20
-64.807
 21
-64.728
  0
LINE
  8
0
 10
-0.789
 11
-1.087
 20
-64.728
 21
-64.61
  0
LINE
  8
0
 10
-1.087
 11
-1.368
 20
-64.61
 21
-64.455
  0
LINE
  8
0
 10
-1.368
 11
-1.627
 20
-64.455
 21
-64.267
  0
LINE
  8
0
 10
-1.627
 11
-1.861
 20
-64.267
 21
-64.047
  0
LINE
  8
0
 10
-1.861
 11
-2.065
 20
-64.047
 21
-63.8
  0
LINE
  8
0
 10
-2.065
 11
-2.237
 20
-63.8
 21
-63.53
  0
LINE
  8
0
 10
-2.237
 11
-2.373
 20
-63.53
 21
-63.24
  0
LINE
  8
0
 10
-2.373
 11
-2.473
 20
-63.24
 21
-62.935
  0
LINE
  8
0
 10
-2.473
 11
-2.533
 20
-62.935
 21
-62.62
  0
LINE
  8
0
 10
-2.533
 11
-2.553
 20
-62.62
 21
-62.3
  0
LINE
  8
0
 10
-2.553
 11
-2.533
 20
62.3
 21
62.62
  0
LINE
  8
0
 10
-2.533
 11
-2.473
 20
62.62
 21
62.935
  0
LINE
  8
0
 10
-2.473
 11
-2.373
 20
62.935
 21
63.24
  0
LINE
  8
0
 10
-2.373
 11
-2.237
 20
63.24
 21
63.53
  0
LINE
  8
0
 10
-2.237
 11
-2.065
 20
63.53
 21
63.8
  0
LINE
  8
0
 10
-2.065
 11
-1.861
 20
63.8
 21
64.047
  0
LINE
  8
0
 10
-1.861
 11
-1.627
 20
64.047
 21
64.267
  0
LINE
  8
0
 10
-1.627
 11
-1.368
 20
64.267
 21
64.455
  0
LINE
  8
0
 10
-1.368
 11
-1.087
 20
64.455
 21
64.61
  0
LINE
  8
0
 10
-1.087
 11
-0.789
 20
64.61
 21
64.728
  0
LINE
  8
0
 10
-0.789
 11
-0.478
 20
64.728
 21
64.807
  0
LINE
  8
0
 10
-0.478
 11
-0.16
 20
64.807
 21
64.848
  0
LINE
  8
0
 10
-0.16
 11
0.16
 20
64.848
 21
64.848
  0
LINE
  8
0
 10
0.16
 11
0.478
 20
64.848
 21
64.807
  0
LINE
  8
0
 10
0.478
 11
0.789
 20
64.807
 21
64.728
  0
LINE
  8
0
 10
0.789
 11
1.087
 20
64.728
 21
64.61
  0
LINE
  8
0
 10
1.087
 11
1.368
 20
64.61
 21
64.455
  0
LINE
  8
0
 10
1.368
 11
1.627
 20
64.455
 21
64.267
  0
LINE
  8
0
 10
1.627
 11
1.861
 20
64.267
 21
64.047
  0
LINE
  8
0
 10
1.861
 11
2.065
 20
64.047
 21
63.8
  0
LINE
  8
0
 10
2.065
 11
2.237
 20
63.8
 21
63.53
  0
LINE
  8
0
 10
2.237
 11
2.373
 20
63.53
 21
63.24
  0
LINE
  8
0
 10
2.373
 11
2.473
 20
63.24
 21
62.935
  0
LINE
  8
0
 10
2.473
 11
2.533
 20
62.935
 21
62.62
  0
LINE
  8
0
 10
2.533
 11
2.553
 20
62.62
 21
62.3
  0
LINE
  8
0
 10
2.553
 11
2.533
 20
62.3
 21
61.98
  0
LINE
  8
0
 10
2.533
 11
2.473
 20
61.98
 21
61.665
  0
LINE
  8
0
 10
2.473
 11
2.373
 20
61.665
 21
61.36
  0
LINE
  8
0
 10
2.373
 11
2.237
 20
61.36
 21
61.07
  0
LINE
  8
0
 10
2.237
 11
2.065
 20
61.07
 21
60.8
  0
LINE
  8
0
 10
2.065
 11
1.861
 20
60.8
 21
60.553
  0
LINE
  8
0
 10
1.861
 11
1.627
 20
60.553
 21
60.333
  0
LINE
  8
0
 10
1.627
 11
1.368
 20
60.333
 21
60.145
  0
LINE
  8
0
 10
1.368
 11
1.087
 20
60.145
 21
59.99
  0
LINE
  8
0
 10
1.087
 11
0.789
 20
59.99
 21
59.872
  0
LINE
  8
0
 10
0.789
 11
0.478
 20
59.872
 21
59.793
  0
LINE
  8
0
 10
0.478
 11
0.16
 20
59.793
 21
59.752
  0
LINE
  8
0
 10
0.16
 11
-0.16
 20
59.752
 21
59.752
  0
LINE
  8
0
 10
-0.16
 11
-0.478
 20
59.752
 21
59.793
  0
LINE
  8
0
 10
-0.478
 11
-0.789
 20
59.793
 21
59.872
  0
LINE
  8
0
 10
-0.789
 11
-1.087
 20
59.872
 21
59.99
  0
LINE
  8
0
 10
-1.087
 11
-1.368
 20
59.99
 21
60.145
  0
LINE
  8
0
 10
-1.368
 11
-1.627
 20
60.145
 21
60.333
  0
LINE
  8
0
 10
-1.627
 11
-1.861
 20
60.333
 21
60.553
  0
LINE
  8
0
 10
-1.861
 11
-2.065
 20
60.553
 21
60.8
  0
LINE
  8
0
 10
-2.065
 11
-2.237
 20
60.8
 21
61.07
  0
LINE
  8
0
 10
-2.237
 11
-2.373
 20
61.07
 21
61.36
  0
LINE
  8
0
 10
-2.373
 11
-2.473
 20
61.36
 21
61.665
  0
LINE
  8
0
 10
-2.473
 11
-2.533
 20
61.665
 21
61.98
  0
LINE
  8
0
 10
-2.533
 11
-2.553
 20
61.98
 21
62.3
  0
ENDSEC
  0
SECTION
  2
OBJECTS
  0
DICTIONARY
  0
ENDSEC
  0
EOF
