  0
SECTION
  2
BLOCKS
  0
ENDSEC
  0
SECTION
  2
ENTITIES
  0
LINE
  8
0
 10
-184.15
 11
-184.15
 20
-123.08
 21
123.08
  0
LINE
  8
0
 10
-184.15
 11
-158.75
 20
123.08
 21
123.08
  0
LINE
  8
0
 10
-158.75
 11
-158.75
 20
123.08
 21
117.08
  0
LINE
  8
0
 10
-158.75
 11
158.75
 20
117.08
 21
117.08
  0
LINE
  8
0
 10
158.75
 11
158.75
 20
117.08
 21
129.08
  0
LINE
  8
0
 10
158.75
 11
184.15
 20
129.08
 21
129.08
  0
LINE
  8
0
 10
184.15
 11
184.15
 20
129.08
 21
-129.08
  0
LINE
  8
0
 10
184.15
 11
158.75
 20
-129.08
 21
-129.08
  0
LINE
  8
0
 10
158.75
 11
158.75
 20
-129.08
 21
-117.08
  0
LINE
  8
0
 10
158.75
 11
-158.75
 20
-117.08
 21
-117.08
  0
LINE
  8
0
 10
-158.75
 11
-158.75
 20
-117.08
 21
-123.08
  0
LINE
  8
0
 10
-158.75
 11
-184.15
 20
-123.08
 21
-123.08
  0
LINE
  8
0
 10
-174.714
 11
-174.688
 20
-61.54
 21
-61.131
  0
LINE
  8
0
 10
-174.688
 11
-174.611
 20
-61.131
 21
-60.728
  0
LINE
  8
0
 10
-174.611
 11
-174.485
 20
-60.728
 21
-60.338
  0
LINE
  8
0
 10
-174.485
 11
-174.31
 20
-60.338
 21
-59.968
  0
LINE
  8
0
 10
-174.31
 11
-174.091
 20
-59.968
 21
-59.622
  0
LINE
  8
0
 10
-174.091
 11
-173.829
 20
-59.622
 21
-59.306
  0
LINE
  8
0
 10
-173.829
 11
-173.53
 20
-59.306
 21
-59.025
  0
LINE
  8
0
 10
-173.53
 11
-173.199
 20
-59.025
 21
-58.784
  0
LINE
  8
0
 10
-173.199
 11
-172.84
 20
-58.784
 21
-58.587
  0
LINE
  8
0
 10
-172.84
 11
-172.459
 20
-58.587
 21
-58.436
  0
LINE
  8
0
 10
-172.459
 11
-172.062
 20
-58.436
 21
-58.334
  0
LINE
  8
0
 10
-172.062
 11
-171.655
 20
-58.334
 21
-58.283
  0
LINE
  8
0
 10
-171.655
 11
-171.245
 20
-58.283
 21
-58.283
  0
LINE
  8
0
 10
-171.245
 11
-170.838
 20
-58.283
 21
-58.334
  0
LINE
  8
0
 10
-170.838
 11
-170.441
 20
-58.334
 21
-58.436
  0
LINE
  8
0
 10
-170.441
 11
-170.06
 20
-58.436
 21
-58.587
  0
LINE
  8
0
 10
-170.06
 11
-169.701
 20
-58.587
 21
-58.784
  0
LINE
  8
0
 10
-169.701
 11
-169.37
 20
-58.784
 21
-59.025
  0
LINE
  8
0
 10
-169.37
 11
-169.071
 20
-59.025
 21
-59.306
  0
LINE
  8
0
 10
-169.071
 11
-168.809
 20
-59.306
 21
-59.622
  0
LINE
  8
0
 10
-168.809
 11
-168.59
 20
-59.622
 21
-59.968
  0
LINE
  8
0
 10
-168.59
 11
-168.415
 20
-59.968
 21
-60.338
  0
LINE
  8
0
 10
-168.415
 11
-168.289
 20
-60.338
 21
-60.728
  0
LINE
  8
0
 10
-168.289
 11
-168.212
 20
-60.728
 21
-61.131
  0
LINE
  8
0
 10
-168.212
 11
-168.186
 20
-61.131
 21
-61.54
  0
LINE
  8
0
 10
-168.186
 11
-168.212
 20
-61.54
 21
-61.949
  0
LINE
  8
0
 10
-168.212
 11
-168.289
 20
-61.949
 21
-62.352
  0
LINE
  8
0
 10
-168.289
 11
-168.415
 20
-62.352
 21
-62.742
  0
LINE
  8
0
 10
-168.415
 11
-168.59
 20
-62.742
 21
-63.112
  0
LINE
  8
0
 10
-168.59
 11
-168.809
 20
-63.112
 21
-63.458
  0
LINE
  8
0
 10
-168.809
 11
-169.071
 20
-63.458
 21
-63.774
  0
LINE
  8
0
 10
-169.071
 11
-169.37
 20
-63.774
 21
-64.055
  0
LINE
  8
0
 10
-169.37
 11
-169.701
 20
-64.055
 21
-64.296
  0
LINE
  8
0
 10
-169.701
 11
-170.06
 20
-64.296
 21
-64.493
  0
LINE
  8
0
 10
-170.06
 11
-170.441
 20
-64.493
 21
-64.644
  0
LINE
  8
0
 10
-170.441
 11
-170.838
 20
-64.644
 21
-64.746
  0
LINE
  8
0
 10
-170.838
 11
-171.245
 20
-64.746
 21
-64.797
  0
LINE
  8
0
 10
-171.245
 11
-171.655
 20
-64.797
 21
-64.797
  0
LINE
  8
0
 10
-171.655
 11
-172.062
 20
-64.797
 21
-64.746
  0
LINE
  8
0
 10
-172.062
 11
-172.459
 20
-64.746
 21
-64.644
  0
LINE
  8
0
 10
-172.459
 11
-172.84
 20
-64.644
 21
-64.493
  0
LINE
  8
0
 10
-172.84
 11
-173.199
 20
-64.493
 21
-64.296
  0
LINE
  8
0
 10
-173.199
 11
-173.53
 20
-64.296
 21
-64.055
  0
LINE
  8
0
 10
-173.53
 11
-173.829
 20
-64.055
 21
-63.774
  0
LINE
  8
0
 10
-173.829
 11
-174.091
 20
-63.774
 21
-63.458
  0
LINE
  8
0
 10
-174.091
 11
-174.31
 20
-63.458
 21
-63.112
  0
LINE
  8
0
 10
-174.31
 11
-174.485
 20
-63.112
 21
-62.742
  0
LINE
  8
0
 10
-174.485
 11
-174.611
 20
-62.742
 21
-62.352
  0
LINE
  8
0
 10
-174.611
 11
-174.688
 20
-62.352
 21
-61.949
  0
LINE
  8
0
 10
-174.688
 11
-174.714
 20
-61.949
 21
-61.54
  0
LINE
  8
0
 10
-174.714
 11
-174.688
 20
61.54
 21
61.949
  0
LINE
  8
0
 10
-174.688
 11
-174.611
 20
61.949
 21
62.352
  0
LINE
  8
0
 10
-174.611
 11
-174.485
 20
62.352
 21
62.742
  0
LINE
  8
0
 10
-174.485
 11
-174.31
 20
62.742
 21
63.112
  0
LINE
  8
0
 10
-174.31
 11
-174.091
 20
63.112
 21
63.458
  0
LINE
  8
0
 10
-174.091
 11
-173.829
 20
63.458
 21
63.774
  0
LINE
  8
0
 10
-173.829
 11
-173.53
 20
63.774
 21
64.055
  0
LINE
  8
0
 10
-173.53
 11
-173.199
 20
64.055
 21
64.296
  0
LINE
  8
0
 10
-173.199
 11
-172.84
 20
64.296
 21
64.493
  0
LINE
  8
0
 10
-172.84
 11
-172.459
 20
64.493
 21
64.644
  0
LINE
  8
0
 10
-172.459
 11
-172.062
 20
64.644
 21
64.746
  0
LINE
  8
0
 10
-172.062
 11
-171.655
 20
64.746
 21
64.797
  0
LINE
  8
0
 10
-171.655
 11
-171.245
 20
64.797
 21
64.797
  0
LINE
  8
0
 10
-171.245
 11
-170.838
 20
64.797
 21
64.746
  0
LINE
  8
0
 10
-170.838
 11
-170.441
 20
64.746
 21
64.644
  0
LINE
  8
0
 10
-170.441
 11
-170.06
 20
64.644
 21
64.493
  0
LINE
  8
0
 10
-170.06
 11
-169.701
 20
64.493
 21
64.296
  0
LINE
  8
0
 10
-169.701
 11
-169.37
 20
64.296
 21
64.055
  0
LINE
  8
0
 10
-169.37
 11
-169.071
 20
64.055
 21
63.774
  0
LINE
  8
0
 10
-169.071
 11
-168.809
 20
63.774
 21
63.458
  0
LINE
  8
0
 10
-168.809
 11
-168.59
 20
63.458
 21
63.112
  0
LINE
  8
0
 10
-168.59
 11
-168.415
 20
63.112
 21
62.742
  0
LINE
  8
0
 10
-168.415
 11
-168.289
 20
62.742
 21
62.352
  0
LINE
  8
0
 10
-168.289
 11
-168.212
 20
62.352
 21
61.949
  0
LINE
  8
0
 10
-168.212
 11
-168.186
 20
61.949
 21
61.54
  0
LINE
  8
0
 10
-168.186
 11
-168.212
 20
61.54
 21
61.131
  0
LINE
  8
0
 10
-168.212
 11
-168.289
 20
61.131
 21
60.728
  0
LINE
  8
0
 10
-168.289
 11
-168.415
 20
60.728
 21
60.338
  0
LINE
  8
0
 10
-168.415
 11
-168.59
 20
60.338
 21
59.968
  0
LINE
  8
0
 10
-168.59
 11
-168.809
 20
59.968
 21
59.622
  0
LINE
  8
0
 10
-168.809
 11
-169.071
 20
59.622
 21
59.306
  0
LINE
  8
0
 10
-169.071
 11
-169.37
 20
59.306
 21
59.025
  0
LINE
  8
0
 10
-169.37
 11
-169.701
 20
59.025
 21
58.784
  0
LINE
  8
0
 10
-169.701
 11
-170.06
 20
58.784
 21
58.587
  0
LINE
  8
0
 10
-170.06
 11
-170.441
 20
58.587
 21
58.436
  0
LINE
  8
0
 10
-170.441
 11
-170.838
 20
58.436
 21
58.334
  0
LINE
  8
0
 10
-170.838
 11
-171.245
 20
58.334
 21
58.283
  0
LINE
  8
0
 10
-171.245
 11
-171.655
 20
58.283
 21
58.283
  0
LINE
  8
0
 10
-171.655
 11
-172.062
 20
58.283
 21
58.334
  0
LINE
  8
0
 10
-172.062
 11
-172.459
 20
58.334
 21
58.436
  0
LINE
  8
0
 10
-172.459
 11
-172.84
 20
58.436
 21
58.587
  0
LINE
  8
0
 10
-172.84
 11
-173.199
 20
58.587
 21
58.784
  0
LINE
  8
0
 10
-173.199
 11
-173.53
 20
58.784
 21
59.025
  0
LINE
  8
0
 10
-173.53
 11
-173.829
 20
59.025
 21
59.306
  0
LINE
  8
0
 10
-173.829
 11
-174.091
 20
59.306
 21
59.622
  0
LINE
  8
0
 10
-174.091
 11
-174.31
 20
59.622
 21
59.968
  0
LINE
  8
0
 10
-174.31
 11
-174.485
 20
59.968
 21
60.338
  0
LINE
  8
0
 10
-174.485
 11
-174.611
 20
60.338
 21
60.728
  0
LINE
  8
0
 10
-174.611
 11
-174.688
 20
60.728
 21
61.131
  0
LINE
  8
0
 10
-174.688
 11
-174.714
 20
61.131
 21
61.54
  0
ENDSEC
  0
SECTION
  2
OBJECTS
  0
DICTIONARY
  0
ENDSEC
  0
EOF
