  0
SECTION
  2
BLOCKS
  0
ENDSEC
  0
SECTION
  2
ENTITIES
  0
LINE
  8
0
 10
-184.15
 11
-184.15
 20
-118.3
 21
118.3
  0
LINE
  8
0
 10
-184.15
 11
158.75
 20
118.3
 21
118.3
  0
LINE
  8
0
 10
158.75
 11
158.75
 20
118.3
 21
130.9
  0
LINE
  8
0
 10
158.75
 11
184.15
 20
130.9
 21
130.9
  0
LINE
  8
0
 10
184.15
 11
184.15
 20
130.9
 21
-130.9
  0
LINE
  8
0
 10
184.15
 11
158.75
 20
-130.9
 21
-130.9
  0
LINE
  8
0
 10
158.75
 11
158.75
 20
-130.9
 21
-118.3
  0
LINE
  8
0
 10
158.75
 11
-184.15
 20
-118.3
 21
-118.3
  0
LINE
  8
0
 10
-174.714
 11
-174.688
 20
-62.3
 21
-61.891
  0
LINE
  8
0
 10
-174.688
 11
-174.611
 20
-61.891
 21
-61.488
  0
LINE
  8
0
 10
-174.611
 11
-174.485
 20
-61.488
 21
-61.098
  0
LINE
  8
0
 10
-174.485
 11
-174.31
 20
-61.098
 21
-60.728
  0
LINE
  8
0
 10
-174.31
 11
-174.091
 20
-60.728
 21
-60.382
  0
LINE
  8
0
 10
-174.091
 11
-173.829
 20
-60.382
 21
-60.066
  0
LINE
  8
0
 10
-173.829
 11
-173.53
 20
-60.066
 21
-59.785
  0
LINE
  8
0
 10
-173.53
 11
-173.199
 20
-59.785
 21
-59.544
  0
LINE
  8
0
 10
-173.199
 11
-172.84
 20
-59.544
 21
-59.347
  0
LINE
  8
0
 10
-172.84
 11
-172.459
 20
-59.347
 21
-59.196
  0
LINE
  8
0
 10
-172.459
 11
-172.062
 20
-59.196
 21
-59.094
  0
LINE
  8
0
 10
-172.062
 11
-171.655
 20
-59.094
 21
-59.043
  0
LINE
  8
0
 10
-171.655
 11
-171.245
 20
-59.043
 21
-59.043
  0
LINE
  8
0
 10
-171.245
 11
-170.838
 20
-59.043
 21
-59.094
  0
LINE
  8
0
 10
-170.838
 11
-170.441
 20
-59.094
 21
-59.196
  0
LINE
  8
0
 10
-170.441
 11
-170.06
 20
-59.196
 21
-59.347
  0
LINE
  8
0
 10
-170.06
 11
-169.701
 20
-59.347
 21
-59.544
  0
LINE
  8
0
 10
-169.701
 11
-169.37
 20
-59.544
 21
-59.785
  0
LINE
  8
0
 10
-169.37
 11
-169.071
 20
-59.785
 21
-60.066
  0
LINE
  8
0
 10
-169.071
 11
-168.809
 20
-60.066
 21
-60.382
  0
LINE
  8
0
 10
-168.809
 11
-168.59
 20
-60.382
 21
-60.728
  0
LINE
  8
0
 10
-168.59
 11
-168.415
 20
-60.728
 21
-61.098
  0
LINE
  8
0
 10
-168.415
 11
-168.289
 20
-61.098
 21
-61.488
  0
LINE
  8
0
 10
-168.289
 11
-168.212
 20
-61.488
 21
-61.891
  0
LINE
  8
0
 10
-168.212
 11
-168.186
 20
-61.891
 21
-62.3
  0
LINE
  8
0
 10
-168.186
 11
-168.212
 20
-62.3
 21
-62.709
  0
LINE
  8
0
 10
-168.212
 11
-168.289
 20
-62.709
 21
-63.112
  0
LINE
  8
0
 10
-168.289
 11
-168.415
 20
-63.112
 21
-63.502
  0
LINE
  8
0
 10
-168.415
 11
-168.59
 20
-63.502
 21
-63.872
  0
LINE
  8
0
 10
-168.59
 11
-168.809
 20
-63.872
 21
-64.218
  0
LINE
  8
0
 10
-168.809
 11
-169.071
 20
-64.218
 21
-64.534
  0
LINE
  8
0
 10
-169.071
 11
-169.37
 20
-64.534
 21
-64.815
  0
LINE
  8
0
 10
-169.37
 11
-169.701
 20
-64.815
 21
-65.056
  0
LINE
  8
0
 10
-169.701
 11
-170.06
 20
-65.056
 21
-65.253
  0
LINE
  8
0
 10
-170.06
 11
-170.441
 20
-65.253
 21
-65.404
  0
LINE
  8
0
 10
-170.441
 11
-170.838
 20
-65.404
 21
-65.506
  0
LINE
  8
0
 10
-170.838
 11
-171.245
 20
-65.506
 21
-65.557
  0
LINE
  8
0
 10
-171.245
 11
-171.655
 20
-65.557
 21
-65.557
  0
LINE
  8
0
 10
-171.655
 11
-172.062
 20
-65.557
 21
-65.506
  0
LINE
  8
0
 10
-172.062
 11
-172.459
 20
-65.506
 21
-65.404
  0
LINE
  8
0
 10
-172.459
 11
-172.84
 20
-65.404
 21
-65.253
  0
LINE
  8
0
 10
-172.84
 11
-173.199
 20
-65.253
 21
-65.056
  0
LINE
  8
0
 10
-173.199
 11
-173.53
 20
-65.056
 21
-64.815
  0
LINE
  8
0
 10
-173.53
 11
-173.829
 20
-64.815
 21
-64.534
  0
LINE
  8
0
 10
-173.829
 11
-174.091
 20
-64.534
 21
-64.218
  0
LINE
  8
0
 10
-174.091
 11
-174.31
 20
-64.218
 21
-63.872
  0
LINE
  8
0
 10
-174.31
 11
-174.485
 20
-63.872
 21
-63.502
  0
LINE
  8
0
 10
-174.485
 11
-174.611
 20
-63.502
 21
-63.112
  0
LINE
  8
0
 10
-174.611
 11
-174.688
 20
-63.112
 21
-62.709
  0
LINE
  8
0
 10
-174.688
 11
-174.714
 20
-62.709
 21
-62.3
  0
LINE
  8
0
 10
-174.714
 11
-174.688
 20
62.3
 21
62.709
  0
LINE
  8
0
 10
-174.688
 11
-174.611
 20
62.709
 21
63.112
  0
LINE
  8
0
 10
-174.611
 11
-174.485
 20
63.112
 21
63.502
  0
LINE
  8
0
 10
-174.485
 11
-174.31
 20
63.502
 21
63.872
  0
LINE
  8
0
 10
-174.31
 11
-174.091
 20
63.872
 21
64.218
  0
LINE
  8
0
 10
-174.091
 11
-173.829
 20
64.218
 21
64.534
  0
LINE
  8
0
 10
-173.829
 11
-173.53
 20
64.534
 21
64.815
  0
LINE
  8
0
 10
-173.53
 11
-173.199
 20
64.815
 21
65.056
  0
LINE
  8
0
 10
-173.199
 11
-172.84
 20
65.056
 21
65.253
  0
LINE
  8
0
 10
-172.84
 11
-172.459
 20
65.253
 21
65.404
  0
LINE
  8
0
 10
-172.459
 11
-172.062
 20
65.404
 21
65.506
  0
LINE
  8
0
 10
-172.062
 11
-171.655
 20
65.506
 21
65.557
  0
LINE
  8
0
 10
-171.655
 11
-171.245
 20
65.557
 21
65.557
  0
LINE
  8
0
 10
-171.245
 11
-170.838
 20
65.557
 21
65.506
  0
LINE
  8
0
 10
-170.838
 11
-170.441
 20
65.506
 21
65.404
  0
LINE
  8
0
 10
-170.441
 11
-170.06
 20
65.404
 21
65.253
  0
LINE
  8
0
 10
-170.06
 11
-169.701
 20
65.253
 21
65.056
  0
LINE
  8
0
 10
-169.701
 11
-169.37
 20
65.056
 21
64.815
  0
LINE
  8
0
 10
-169.37
 11
-169.071
 20
64.815
 21
64.534
  0
LINE
  8
0
 10
-169.071
 11
-168.809
 20
64.534
 21
64.218
  0
LINE
  8
0
 10
-168.809
 11
-168.59
 20
64.218
 21
63.872
  0
LINE
  8
0
 10
-168.59
 11
-168.415
 20
63.872
 21
63.502
  0
LINE
  8
0
 10
-168.415
 11
-168.289
 20
63.502
 21
63.112
  0
LINE
  8
0
 10
-168.289
 11
-168.212
 20
63.112
 21
62.709
  0
LINE
  8
0
 10
-168.212
 11
-168.186
 20
62.709
 21
62.3
  0
LINE
  8
0
 10
-168.186
 11
-168.212
 20
62.3
 21
61.891
  0
LINE
  8
0
 10
-168.212
 11
-168.289
 20
61.891
 21
61.488
  0
LINE
  8
0
 10
-168.289
 11
-168.415
 20
61.488
 21
61.098
  0
LINE
  8
0
 10
-168.415
 11
-168.59
 20
61.098
 21
60.728
  0
LINE
  8
0
 10
-168.59
 11
-168.809
 20
60.728
 21
60.382
  0
LINE
  8
0
 10
-168.809
 11
-169.071
 20
60.382
 21
60.066
  0
LINE
  8
0
 10
-169.071
 11
-169.37
 20
60.066
 21
59.785
  0
LINE
  8
0
 10
-169.37
 11
-169.701
 20
59.785
 21
59.544
  0
LINE
  8
0
 10
-169.701
 11
-170.06
 20
59.544
 21
59.347
  0
LINE
  8
0
 10
-170.06
 11
-170.441
 20
59.347
 21
59.196
  0
LINE
  8
0
 10
-170.441
 11
-170.838
 20
59.196
 21
59.094
  0
LINE
  8
0
 10
-170.838
 11
-171.245
 20
59.094
 21
59.043
  0
LINE
  8
0
 10
-171.245
 11
-171.655
 20
59.043
 21
59.043
  0
LINE
  8
0
 10
-171.655
 11
-172.062
 20
59.043
 21
59.094
  0
LINE
  8
0
 10
-172.062
 11
-172.459
 20
59.094
 21
59.196
  0
LINE
  8
0
 10
-172.459
 11
-172.84
 20
59.196
 21
59.347
  0
LINE
  8
0
 10
-172.84
 11
-173.199
 20
59.347
 21
59.544
  0
LINE
  8
0
 10
-173.199
 11
-173.53
 20
59.544
 21
59.785
  0
LINE
  8
0
 10
-173.53
 11
-173.829
 20
59.785
 21
60.066
  0
LINE
  8
0
 10
-173.829
 11
-174.091
 20
60.066
 21
60.382
  0
LINE
  8
0
 10
-174.091
 11
-174.31
 20
60.382
 21
60.728
  0
LINE
  8
0
 10
-174.31
 11
-174.485
 20
60.728
 21
61.098
  0
LINE
  8
0
 10
-174.485
 11
-174.611
 20
61.098
 21
61.488
  0
LINE
  8
0
 10
-174.611
 11
-174.688
 20
61.488
 21
61.891
  0
LINE
  8
0
 10
-174.688
 11
-174.714
 20
61.891
 21
62.3
  0
ENDSEC
  0
SECTION
  2
OBJECTS
  0
DICTIONARY
  0
ENDSEC
  0
EOF
