G04 (created by PCBNEW (2013-jul-07)-stable) date Sun 18 Sep 2016 12:28:55 PM PDT*
%MOIN*%
G04 Gerber Fmt 3.4, Leading zero omitted, Abs format*
%FSLAX34Y34*%
G01*
G70*
G90*
G04 APERTURE LIST*
%ADD10C,0.00590551*%
%ADD11C,0.012*%
%ADD12C,0.005*%
%ADD13C,0.015*%
%ADD14C,0.0059*%
G04 APERTURE END LIST*
G54D10*
G54D11*
X22760Y-35967D02*
X22960Y-35967D01*
X23046Y-36281D02*
X22760Y-36281D01*
X22760Y-35681D01*
X23046Y-35681D01*
X23246Y-36281D02*
X23560Y-35881D01*
X23246Y-35881D02*
X23560Y-36281D01*
X23788Y-35881D02*
X23788Y-36481D01*
X23788Y-35910D02*
X23846Y-35881D01*
X23960Y-35881D01*
X24017Y-35910D01*
X24046Y-35939D01*
X24074Y-35996D01*
X24074Y-36167D01*
X24046Y-36224D01*
X24017Y-36253D01*
X23960Y-36281D01*
X23846Y-36281D01*
X23788Y-36253D01*
X24331Y-36281D02*
X24331Y-35881D01*
X24331Y-35996D02*
X24360Y-35939D01*
X24388Y-35910D01*
X24446Y-35881D01*
X24503Y-35881D01*
X24931Y-36253D02*
X24874Y-36281D01*
X24760Y-36281D01*
X24703Y-36253D01*
X24674Y-36196D01*
X24674Y-35967D01*
X24703Y-35910D01*
X24760Y-35881D01*
X24874Y-35881D01*
X24931Y-35910D01*
X24960Y-35967D01*
X24960Y-36024D01*
X24674Y-36081D01*
X25188Y-36253D02*
X25246Y-36281D01*
X25360Y-36281D01*
X25417Y-36253D01*
X25446Y-36196D01*
X25446Y-36167D01*
X25417Y-36110D01*
X25360Y-36081D01*
X25274Y-36081D01*
X25217Y-36053D01*
X25188Y-35996D01*
X25188Y-35967D01*
X25217Y-35910D01*
X25274Y-35881D01*
X25360Y-35881D01*
X25417Y-35910D01*
X25674Y-36253D02*
X25731Y-36281D01*
X25846Y-36281D01*
X25903Y-36253D01*
X25931Y-36196D01*
X25931Y-36167D01*
X25903Y-36110D01*
X25846Y-36081D01*
X25760Y-36081D01*
X25703Y-36053D01*
X25674Y-35996D01*
X25674Y-35967D01*
X25703Y-35910D01*
X25760Y-35881D01*
X25846Y-35881D01*
X25903Y-35910D01*
X26274Y-36281D02*
X26217Y-36253D01*
X26188Y-36224D01*
X26160Y-36167D01*
X26160Y-35996D01*
X26188Y-35939D01*
X26217Y-35910D01*
X26274Y-35881D01*
X26360Y-35881D01*
X26417Y-35910D01*
X26446Y-35939D01*
X26474Y-35996D01*
X26474Y-36167D01*
X26446Y-36224D01*
X26417Y-36253D01*
X26360Y-36281D01*
X26274Y-36281D01*
X27474Y-36281D02*
X27188Y-36281D01*
X27188Y-35681D01*
X27674Y-35967D02*
X27874Y-35967D01*
X27960Y-36281D02*
X27674Y-36281D01*
X27674Y-35681D01*
X27960Y-35681D01*
X28217Y-36281D02*
X28217Y-35681D01*
X28360Y-35681D01*
X28446Y-35710D01*
X28503Y-35767D01*
X28531Y-35824D01*
X28560Y-35939D01*
X28560Y-36024D01*
X28531Y-36139D01*
X28503Y-36196D01*
X28446Y-36253D01*
X28360Y-36281D01*
X28217Y-36281D01*
X29474Y-35967D02*
X29560Y-35996D01*
X29588Y-36024D01*
X29617Y-36081D01*
X29617Y-36167D01*
X29588Y-36224D01*
X29560Y-36253D01*
X29503Y-36281D01*
X29274Y-36281D01*
X29274Y-35681D01*
X29474Y-35681D01*
X29531Y-35710D01*
X29560Y-35739D01*
X29588Y-35796D01*
X29588Y-35853D01*
X29560Y-35910D01*
X29531Y-35939D01*
X29474Y-35967D01*
X29274Y-35967D01*
X29960Y-36281D02*
X29903Y-36253D01*
X29874Y-36224D01*
X29846Y-36167D01*
X29846Y-35996D01*
X29874Y-35939D01*
X29903Y-35910D01*
X29960Y-35881D01*
X30046Y-35881D01*
X30103Y-35910D01*
X30131Y-35939D01*
X30160Y-35996D01*
X30160Y-36167D01*
X30131Y-36224D01*
X30103Y-36253D01*
X30046Y-36281D01*
X29960Y-36281D01*
X30674Y-36281D02*
X30674Y-35967D01*
X30646Y-35910D01*
X30588Y-35881D01*
X30474Y-35881D01*
X30417Y-35910D01*
X30674Y-36253D02*
X30617Y-36281D01*
X30474Y-36281D01*
X30417Y-36253D01*
X30388Y-36196D01*
X30388Y-36139D01*
X30417Y-36081D01*
X30474Y-36053D01*
X30617Y-36053D01*
X30674Y-36024D01*
X30960Y-36281D02*
X30960Y-35881D01*
X30960Y-35996D02*
X30988Y-35939D01*
X31017Y-35910D01*
X31074Y-35881D01*
X31131Y-35881D01*
X31588Y-36281D02*
X31588Y-35681D01*
X31588Y-36253D02*
X31531Y-36281D01*
X31417Y-36281D01*
X31360Y-36253D01*
X31331Y-36224D01*
X31303Y-36167D01*
X31303Y-35996D01*
X31331Y-35939D01*
X31360Y-35910D01*
X31417Y-35881D01*
X31531Y-35881D01*
X31588Y-35910D01*
X32274Y-35881D02*
X32417Y-36281D01*
X32560Y-35881D01*
X33103Y-36281D02*
X32760Y-36281D01*
X32931Y-36281D02*
X32931Y-35681D01*
X32874Y-35767D01*
X32817Y-35824D01*
X32760Y-35853D01*
X33360Y-36224D02*
X33388Y-36253D01*
X33360Y-36281D01*
X33331Y-36253D01*
X33360Y-36224D01*
X33360Y-36281D01*
X33617Y-35739D02*
X33646Y-35710D01*
X33703Y-35681D01*
X33846Y-35681D01*
X33903Y-35710D01*
X33931Y-35739D01*
X33960Y-35796D01*
X33960Y-35853D01*
X33931Y-35939D01*
X33588Y-36281D01*
X33960Y-36281D01*
X20927Y-54286D02*
X20327Y-54286D01*
X20327Y-53886D02*
X20327Y-53772D01*
X20356Y-53715D01*
X20413Y-53658D01*
X20527Y-53629D01*
X20727Y-53629D01*
X20842Y-53658D01*
X20899Y-53715D01*
X20927Y-53772D01*
X20927Y-53886D01*
X20899Y-53944D01*
X20842Y-54001D01*
X20727Y-54029D01*
X20527Y-54029D01*
X20413Y-54001D01*
X20356Y-53944D01*
X20327Y-53886D01*
X20927Y-52572D02*
X20642Y-52772D01*
X20927Y-52915D02*
X20327Y-52915D01*
X20327Y-52686D01*
X20356Y-52629D01*
X20385Y-52601D01*
X20442Y-52572D01*
X20527Y-52572D01*
X20585Y-52601D01*
X20613Y-52629D01*
X20642Y-52686D01*
X20642Y-52915D01*
X20927Y-52229D02*
X20899Y-52286D01*
X20870Y-52315D01*
X20813Y-52344D01*
X20642Y-52344D01*
X20585Y-52315D01*
X20556Y-52286D01*
X20527Y-52229D01*
X20527Y-52144D01*
X20556Y-52086D01*
X20585Y-52058D01*
X20642Y-52029D01*
X20813Y-52029D01*
X20870Y-52058D01*
X20899Y-52086D01*
X20927Y-52144D01*
X20927Y-52229D01*
X20927Y-51515D02*
X20327Y-51515D01*
X20899Y-51515D02*
X20927Y-51572D01*
X20927Y-51686D01*
X20899Y-51744D01*
X20870Y-51772D01*
X20813Y-51801D01*
X20642Y-51801D01*
X20585Y-51772D01*
X20556Y-51744D01*
X20527Y-51686D01*
X20527Y-51572D01*
X20556Y-51515D01*
X20899Y-51001D02*
X20927Y-51058D01*
X20927Y-51172D01*
X20899Y-51229D01*
X20842Y-51258D01*
X20613Y-51258D01*
X20556Y-51229D01*
X20527Y-51172D01*
X20527Y-51058D01*
X20556Y-51001D01*
X20613Y-50972D01*
X20670Y-50972D01*
X20727Y-51258D01*
X20927Y-50629D02*
X20899Y-50686D01*
X20870Y-50715D01*
X20813Y-50744D01*
X20642Y-50744D01*
X20585Y-50715D01*
X20556Y-50686D01*
X20527Y-50629D01*
X20527Y-50544D01*
X20556Y-50486D01*
X20585Y-50458D01*
X20642Y-50429D01*
X20813Y-50429D01*
X20870Y-50458D01*
X20899Y-50486D01*
X20927Y-50544D01*
X20927Y-50629D01*
X20927Y-49715D02*
X20327Y-49715D01*
X20527Y-49429D02*
X20927Y-49429D01*
X20585Y-49429D02*
X20556Y-49401D01*
X20527Y-49344D01*
X20527Y-49258D01*
X20556Y-49201D01*
X20613Y-49172D01*
X20927Y-49172D01*
X20899Y-48629D02*
X20927Y-48686D01*
X20927Y-48801D01*
X20899Y-48858D01*
X20870Y-48886D01*
X20813Y-48915D01*
X20642Y-48915D01*
X20585Y-48886D01*
X20556Y-48858D01*
X20527Y-48801D01*
X20527Y-48686D01*
X20556Y-48629D01*
X20870Y-48372D02*
X20899Y-48344D01*
X20927Y-48372D01*
X20899Y-48401D01*
X20870Y-48372D01*
X20927Y-48372D01*
X21156Y-47458D02*
X21127Y-47486D01*
X21042Y-47544D01*
X20985Y-47572D01*
X20899Y-47601D01*
X20756Y-47629D01*
X20642Y-47629D01*
X20499Y-47601D01*
X20413Y-47572D01*
X20356Y-47544D01*
X20270Y-47486D01*
X20242Y-47458D01*
X20327Y-46972D02*
X20327Y-47086D01*
X20356Y-47144D01*
X20385Y-47172D01*
X20470Y-47229D01*
X20585Y-47258D01*
X20813Y-47258D01*
X20870Y-47229D01*
X20899Y-47201D01*
X20927Y-47144D01*
X20927Y-47029D01*
X20899Y-46972D01*
X20870Y-46944D01*
X20813Y-46915D01*
X20670Y-46915D01*
X20613Y-46944D01*
X20585Y-46972D01*
X20556Y-47029D01*
X20556Y-47144D01*
X20585Y-47201D01*
X20613Y-47229D01*
X20670Y-47258D01*
X20385Y-46686D02*
X20356Y-46658D01*
X20327Y-46601D01*
X20327Y-46458D01*
X20356Y-46401D01*
X20385Y-46372D01*
X20442Y-46344D01*
X20499Y-46344D01*
X20585Y-46372D01*
X20927Y-46715D01*
X20927Y-46344D01*
X20327Y-45829D02*
X20327Y-45944D01*
X20356Y-46001D01*
X20385Y-46029D01*
X20470Y-46086D01*
X20585Y-46115D01*
X20813Y-46115D01*
X20870Y-46086D01*
X20899Y-46058D01*
X20927Y-46001D01*
X20927Y-45886D01*
X20899Y-45829D01*
X20870Y-45801D01*
X20813Y-45772D01*
X20670Y-45772D01*
X20613Y-45801D01*
X20585Y-45829D01*
X20556Y-45886D01*
X20556Y-46001D01*
X20585Y-46058D01*
X20613Y-46086D01*
X20670Y-46115D01*
X21156Y-45572D02*
X21127Y-45544D01*
X21042Y-45486D01*
X20985Y-45458D01*
X20899Y-45429D01*
X20756Y-45401D01*
X20642Y-45401D01*
X20499Y-45429D01*
X20413Y-45458D01*
X20356Y-45486D01*
X20270Y-45544D01*
X20242Y-45572D01*
X20327Y-44715D02*
X20327Y-44315D01*
X20927Y-44572D01*
X20927Y-44058D02*
X20927Y-43944D01*
X20899Y-43886D01*
X20870Y-43858D01*
X20785Y-43801D01*
X20670Y-43772D01*
X20442Y-43772D01*
X20385Y-43801D01*
X20356Y-43829D01*
X20327Y-43886D01*
X20327Y-44001D01*
X20356Y-44058D01*
X20385Y-44086D01*
X20442Y-44115D01*
X20585Y-44115D01*
X20642Y-44086D01*
X20670Y-44058D01*
X20699Y-44001D01*
X20699Y-43886D01*
X20670Y-43829D01*
X20642Y-43801D01*
X20585Y-43772D01*
X20327Y-43572D02*
X20327Y-43201D01*
X20556Y-43401D01*
X20556Y-43315D01*
X20585Y-43258D01*
X20613Y-43229D01*
X20670Y-43201D01*
X20813Y-43201D01*
X20870Y-43229D01*
X20899Y-43258D01*
X20927Y-43315D01*
X20927Y-43486D01*
X20899Y-43544D01*
X20870Y-43572D01*
X20699Y-42944D02*
X20699Y-42486D01*
X20585Y-42115D02*
X20556Y-42172D01*
X20527Y-42201D01*
X20470Y-42229D01*
X20442Y-42229D01*
X20385Y-42201D01*
X20356Y-42172D01*
X20327Y-42115D01*
X20327Y-42001D01*
X20356Y-41944D01*
X20385Y-41915D01*
X20442Y-41886D01*
X20470Y-41886D01*
X20527Y-41915D01*
X20556Y-41944D01*
X20585Y-42001D01*
X20585Y-42115D01*
X20613Y-42172D01*
X20642Y-42201D01*
X20699Y-42229D01*
X20813Y-42229D01*
X20870Y-42201D01*
X20899Y-42172D01*
X20927Y-42115D01*
X20927Y-42001D01*
X20899Y-41944D01*
X20870Y-41915D01*
X20813Y-41886D01*
X20699Y-41886D01*
X20642Y-41915D01*
X20613Y-41944D01*
X20585Y-42001D01*
X20385Y-41658D02*
X20356Y-41629D01*
X20327Y-41572D01*
X20327Y-41429D01*
X20356Y-41372D01*
X20385Y-41344D01*
X20442Y-41315D01*
X20499Y-41315D01*
X20585Y-41344D01*
X20927Y-41686D01*
X20927Y-41315D01*
X20585Y-40972D02*
X20556Y-41029D01*
X20527Y-41058D01*
X20470Y-41086D01*
X20442Y-41086D01*
X20385Y-41058D01*
X20356Y-41029D01*
X20327Y-40972D01*
X20327Y-40858D01*
X20356Y-40801D01*
X20385Y-40772D01*
X20442Y-40743D01*
X20470Y-40743D01*
X20527Y-40772D01*
X20556Y-40801D01*
X20585Y-40858D01*
X20585Y-40972D01*
X20613Y-41029D01*
X20642Y-41058D01*
X20699Y-41086D01*
X20813Y-41086D01*
X20870Y-41058D01*
X20899Y-41029D01*
X20927Y-40972D01*
X20927Y-40858D01*
X20899Y-40801D01*
X20870Y-40772D01*
X20813Y-40743D01*
X20699Y-40743D01*
X20642Y-40772D01*
X20613Y-40801D01*
X20585Y-40858D01*
X20527Y-40229D02*
X20927Y-40229D01*
X20299Y-40372D02*
X20727Y-40515D01*
X20727Y-40143D01*
G54D12*
X41935Y-56904D02*
G75*
G03X41935Y-56904I-50J0D01*
G74*
G01*
X41885Y-57354D02*
X41885Y-56954D01*
X41885Y-56954D02*
X42485Y-56954D01*
X42485Y-56954D02*
X42485Y-57354D01*
X42485Y-57754D02*
X42485Y-58154D01*
X42485Y-58154D02*
X41885Y-58154D01*
X41885Y-58154D02*
X41885Y-57754D01*
X41935Y-55403D02*
G75*
G03X41935Y-55403I-50J0D01*
G74*
G01*
X41885Y-55853D02*
X41885Y-55453D01*
X41885Y-55453D02*
X42485Y-55453D01*
X42485Y-55453D02*
X42485Y-55853D01*
X42485Y-56253D02*
X42485Y-56653D01*
X42485Y-56653D02*
X41885Y-56653D01*
X41885Y-56653D02*
X41885Y-56253D01*
X41935Y-53902D02*
G75*
G03X41935Y-53902I-50J0D01*
G74*
G01*
X41885Y-54352D02*
X41885Y-53952D01*
X41885Y-53952D02*
X42485Y-53952D01*
X42485Y-53952D02*
X42485Y-54352D01*
X42485Y-54752D02*
X42485Y-55152D01*
X42485Y-55152D02*
X41885Y-55152D01*
X41885Y-55152D02*
X41885Y-54752D01*
X41935Y-52401D02*
G75*
G03X41935Y-52401I-50J0D01*
G74*
G01*
X41885Y-52851D02*
X41885Y-52451D01*
X41885Y-52451D02*
X42485Y-52451D01*
X42485Y-52451D02*
X42485Y-52851D01*
X42485Y-53251D02*
X42485Y-53651D01*
X42485Y-53651D02*
X41885Y-53651D01*
X41885Y-53651D02*
X41885Y-53251D01*
X41935Y-50900D02*
G75*
G03X41935Y-50900I-50J0D01*
G74*
G01*
X41885Y-51350D02*
X41885Y-50950D01*
X41885Y-50950D02*
X42485Y-50950D01*
X42485Y-50950D02*
X42485Y-51350D01*
X42485Y-51750D02*
X42485Y-52150D01*
X42485Y-52150D02*
X41885Y-52150D01*
X41885Y-52150D02*
X41885Y-51750D01*
X41935Y-49399D02*
G75*
G03X41935Y-49399I-50J0D01*
G74*
G01*
X41885Y-49849D02*
X41885Y-49449D01*
X41885Y-49449D02*
X42485Y-49449D01*
X42485Y-49449D02*
X42485Y-49849D01*
X42485Y-50249D02*
X42485Y-50649D01*
X42485Y-50649D02*
X41885Y-50649D01*
X41885Y-50649D02*
X41885Y-50249D01*
X41935Y-47898D02*
G75*
G03X41935Y-47898I-50J0D01*
G74*
G01*
X41885Y-48348D02*
X41885Y-47948D01*
X41885Y-47948D02*
X42485Y-47948D01*
X42485Y-47948D02*
X42485Y-48348D01*
X42485Y-48748D02*
X42485Y-49148D01*
X42485Y-49148D02*
X41885Y-49148D01*
X41885Y-49148D02*
X41885Y-48748D01*
X41935Y-46397D02*
G75*
G03X41935Y-46397I-50J0D01*
G74*
G01*
X41885Y-46847D02*
X41885Y-46447D01*
X41885Y-46447D02*
X42485Y-46447D01*
X42485Y-46447D02*
X42485Y-46847D01*
X42485Y-47247D02*
X42485Y-47647D01*
X42485Y-47647D02*
X41885Y-47647D01*
X41885Y-47647D02*
X41885Y-47247D01*
X41935Y-44896D02*
G75*
G03X41935Y-44896I-50J0D01*
G74*
G01*
X41885Y-45346D02*
X41885Y-44946D01*
X41885Y-44946D02*
X42485Y-44946D01*
X42485Y-44946D02*
X42485Y-45346D01*
X42485Y-45746D02*
X42485Y-46146D01*
X42485Y-46146D02*
X41885Y-46146D01*
X41885Y-46146D02*
X41885Y-45746D01*
X41935Y-43395D02*
G75*
G03X41935Y-43395I-50J0D01*
G74*
G01*
X41885Y-43845D02*
X41885Y-43445D01*
X41885Y-43445D02*
X42485Y-43445D01*
X42485Y-43445D02*
X42485Y-43845D01*
X42485Y-44245D02*
X42485Y-44645D01*
X42485Y-44645D02*
X41885Y-44645D01*
X41885Y-44645D02*
X41885Y-44245D01*
X41935Y-41894D02*
G75*
G03X41935Y-41894I-50J0D01*
G74*
G01*
X41885Y-42344D02*
X41885Y-41944D01*
X41885Y-41944D02*
X42485Y-41944D01*
X42485Y-41944D02*
X42485Y-42344D01*
X42485Y-42744D02*
X42485Y-43144D01*
X42485Y-43144D02*
X41885Y-43144D01*
X41885Y-43144D02*
X41885Y-42744D01*
X41935Y-40393D02*
G75*
G03X41935Y-40393I-50J0D01*
G74*
G01*
X41885Y-40843D02*
X41885Y-40443D01*
X41885Y-40443D02*
X42485Y-40443D01*
X42485Y-40443D02*
X42485Y-40843D01*
X42485Y-41243D02*
X42485Y-41643D01*
X42485Y-41643D02*
X41885Y-41643D01*
X41885Y-41643D02*
X41885Y-41243D01*
X41935Y-38892D02*
G75*
G03X41935Y-38892I-50J0D01*
G74*
G01*
X41885Y-39342D02*
X41885Y-38942D01*
X41885Y-38942D02*
X42485Y-38942D01*
X42485Y-38942D02*
X42485Y-39342D01*
X42485Y-39742D02*
X42485Y-40142D01*
X42485Y-40142D02*
X41885Y-40142D01*
X41885Y-40142D02*
X41885Y-39742D01*
X41935Y-37391D02*
G75*
G03X41935Y-37391I-50J0D01*
G74*
G01*
X41885Y-37841D02*
X41885Y-37441D01*
X41885Y-37441D02*
X42485Y-37441D01*
X42485Y-37441D02*
X42485Y-37841D01*
X42485Y-38241D02*
X42485Y-38641D01*
X42485Y-38641D02*
X41885Y-38641D01*
X41885Y-38641D02*
X41885Y-38241D01*
X41935Y-35890D02*
G75*
G03X41935Y-35890I-50J0D01*
G74*
G01*
X41885Y-36340D02*
X41885Y-35940D01*
X41885Y-35940D02*
X42485Y-35940D01*
X42485Y-35940D02*
X42485Y-36340D01*
X42485Y-36740D02*
X42485Y-37140D01*
X42485Y-37140D02*
X41885Y-37140D01*
X41885Y-37140D02*
X41885Y-36740D01*
G54D13*
X25808Y-47299D02*
X29308Y-47299D01*
X25808Y-45299D02*
X29308Y-45299D01*
X25808Y-47299D02*
X25808Y-45299D01*
X29308Y-47299D02*
X29308Y-45299D01*
G54D12*
X81935Y-35890D02*
G75*
G03X81935Y-35890I-50J0D01*
G74*
G01*
X81885Y-36340D02*
X81885Y-35940D01*
X81885Y-35940D02*
X82485Y-35940D01*
X82485Y-35940D02*
X82485Y-36340D01*
X82485Y-36740D02*
X82485Y-37140D01*
X82485Y-37140D02*
X81885Y-37140D01*
X81885Y-37140D02*
X81885Y-36740D01*
X71935Y-56904D02*
G75*
G03X71935Y-56904I-50J0D01*
G74*
G01*
X71885Y-57354D02*
X71885Y-56954D01*
X71885Y-56954D02*
X72485Y-56954D01*
X72485Y-56954D02*
X72485Y-57354D01*
X72485Y-57754D02*
X72485Y-58154D01*
X72485Y-58154D02*
X71885Y-58154D01*
X71885Y-58154D02*
X71885Y-57754D01*
X71935Y-55403D02*
G75*
G03X71935Y-55403I-50J0D01*
G74*
G01*
X71885Y-55853D02*
X71885Y-55453D01*
X71885Y-55453D02*
X72485Y-55453D01*
X72485Y-55453D02*
X72485Y-55853D01*
X72485Y-56253D02*
X72485Y-56653D01*
X72485Y-56653D02*
X71885Y-56653D01*
X71885Y-56653D02*
X71885Y-56253D01*
X71935Y-53902D02*
G75*
G03X71935Y-53902I-50J0D01*
G74*
G01*
X71885Y-54352D02*
X71885Y-53952D01*
X71885Y-53952D02*
X72485Y-53952D01*
X72485Y-53952D02*
X72485Y-54352D01*
X72485Y-54752D02*
X72485Y-55152D01*
X72485Y-55152D02*
X71885Y-55152D01*
X71885Y-55152D02*
X71885Y-54752D01*
X71935Y-52401D02*
G75*
G03X71935Y-52401I-50J0D01*
G74*
G01*
X71885Y-52851D02*
X71885Y-52451D01*
X71885Y-52451D02*
X72485Y-52451D01*
X72485Y-52451D02*
X72485Y-52851D01*
X72485Y-53251D02*
X72485Y-53651D01*
X72485Y-53651D02*
X71885Y-53651D01*
X71885Y-53651D02*
X71885Y-53251D01*
X71935Y-50900D02*
G75*
G03X71935Y-50900I-50J0D01*
G74*
G01*
X71885Y-51350D02*
X71885Y-50950D01*
X71885Y-50950D02*
X72485Y-50950D01*
X72485Y-50950D02*
X72485Y-51350D01*
X72485Y-51750D02*
X72485Y-52150D01*
X72485Y-52150D02*
X71885Y-52150D01*
X71885Y-52150D02*
X71885Y-51750D01*
X71935Y-49399D02*
G75*
G03X71935Y-49399I-50J0D01*
G74*
G01*
X71885Y-49849D02*
X71885Y-49449D01*
X71885Y-49449D02*
X72485Y-49449D01*
X72485Y-49449D02*
X72485Y-49849D01*
X72485Y-50249D02*
X72485Y-50649D01*
X72485Y-50649D02*
X71885Y-50649D01*
X71885Y-50649D02*
X71885Y-50249D01*
X71935Y-47898D02*
G75*
G03X71935Y-47898I-50J0D01*
G74*
G01*
X71885Y-48348D02*
X71885Y-47948D01*
X71885Y-47948D02*
X72485Y-47948D01*
X72485Y-47948D02*
X72485Y-48348D01*
X72485Y-48748D02*
X72485Y-49148D01*
X72485Y-49148D02*
X71885Y-49148D01*
X71885Y-49148D02*
X71885Y-48748D01*
X71935Y-46397D02*
G75*
G03X71935Y-46397I-50J0D01*
G74*
G01*
X71885Y-46847D02*
X71885Y-46447D01*
X71885Y-46447D02*
X72485Y-46447D01*
X72485Y-46447D02*
X72485Y-46847D01*
X72485Y-47247D02*
X72485Y-47647D01*
X72485Y-47647D02*
X71885Y-47647D01*
X71885Y-47647D02*
X71885Y-47247D01*
X71935Y-44896D02*
G75*
G03X71935Y-44896I-50J0D01*
G74*
G01*
X71885Y-45346D02*
X71885Y-44946D01*
X71885Y-44946D02*
X72485Y-44946D01*
X72485Y-44946D02*
X72485Y-45346D01*
X72485Y-45746D02*
X72485Y-46146D01*
X72485Y-46146D02*
X71885Y-46146D01*
X71885Y-46146D02*
X71885Y-45746D01*
X71935Y-43395D02*
G75*
G03X71935Y-43395I-50J0D01*
G74*
G01*
X71885Y-43845D02*
X71885Y-43445D01*
X71885Y-43445D02*
X72485Y-43445D01*
X72485Y-43445D02*
X72485Y-43845D01*
X72485Y-44245D02*
X72485Y-44645D01*
X72485Y-44645D02*
X71885Y-44645D01*
X71885Y-44645D02*
X71885Y-44245D01*
X71935Y-41894D02*
G75*
G03X71935Y-41894I-50J0D01*
G74*
G01*
X71885Y-42344D02*
X71885Y-41944D01*
X71885Y-41944D02*
X72485Y-41944D01*
X72485Y-41944D02*
X72485Y-42344D01*
X72485Y-42744D02*
X72485Y-43144D01*
X72485Y-43144D02*
X71885Y-43144D01*
X71885Y-43144D02*
X71885Y-42744D01*
X71935Y-40393D02*
G75*
G03X71935Y-40393I-50J0D01*
G74*
G01*
X71885Y-40843D02*
X71885Y-40443D01*
X71885Y-40443D02*
X72485Y-40443D01*
X72485Y-40443D02*
X72485Y-40843D01*
X72485Y-41243D02*
X72485Y-41643D01*
X72485Y-41643D02*
X71885Y-41643D01*
X71885Y-41643D02*
X71885Y-41243D01*
X71935Y-38892D02*
G75*
G03X71935Y-38892I-50J0D01*
G74*
G01*
X71885Y-39342D02*
X71885Y-38942D01*
X71885Y-38942D02*
X72485Y-38942D01*
X72485Y-38942D02*
X72485Y-39342D01*
X72485Y-39742D02*
X72485Y-40142D01*
X72485Y-40142D02*
X71885Y-40142D01*
X71885Y-40142D02*
X71885Y-39742D01*
X81935Y-37391D02*
G75*
G03X81935Y-37391I-50J0D01*
G74*
G01*
X81885Y-37841D02*
X81885Y-37441D01*
X81885Y-37441D02*
X82485Y-37441D01*
X82485Y-37441D02*
X82485Y-37841D01*
X82485Y-38241D02*
X82485Y-38641D01*
X82485Y-38641D02*
X81885Y-38641D01*
X81885Y-38641D02*
X81885Y-38241D01*
X81935Y-38892D02*
G75*
G03X81935Y-38892I-50J0D01*
G74*
G01*
X81885Y-39342D02*
X81885Y-38942D01*
X81885Y-38942D02*
X82485Y-38942D01*
X82485Y-38942D02*
X82485Y-39342D01*
X82485Y-39742D02*
X82485Y-40142D01*
X82485Y-40142D02*
X81885Y-40142D01*
X81885Y-40142D02*
X81885Y-39742D01*
X81935Y-40393D02*
G75*
G03X81935Y-40393I-50J0D01*
G74*
G01*
X81885Y-40843D02*
X81885Y-40443D01*
X81885Y-40443D02*
X82485Y-40443D01*
X82485Y-40443D02*
X82485Y-40843D01*
X82485Y-41243D02*
X82485Y-41643D01*
X82485Y-41643D02*
X81885Y-41643D01*
X81885Y-41643D02*
X81885Y-41243D01*
X81935Y-41894D02*
G75*
G03X81935Y-41894I-50J0D01*
G74*
G01*
X81885Y-42344D02*
X81885Y-41944D01*
X81885Y-41944D02*
X82485Y-41944D01*
X82485Y-41944D02*
X82485Y-42344D01*
X82485Y-42744D02*
X82485Y-43144D01*
X82485Y-43144D02*
X81885Y-43144D01*
X81885Y-43144D02*
X81885Y-42744D01*
X81935Y-43395D02*
G75*
G03X81935Y-43395I-50J0D01*
G74*
G01*
X81885Y-43845D02*
X81885Y-43445D01*
X81885Y-43445D02*
X82485Y-43445D01*
X82485Y-43445D02*
X82485Y-43845D01*
X82485Y-44245D02*
X82485Y-44645D01*
X82485Y-44645D02*
X81885Y-44645D01*
X81885Y-44645D02*
X81885Y-44245D01*
X81937Y-44945D02*
G75*
G03X81937Y-44945I-50J0D01*
G74*
G01*
X81887Y-45395D02*
X81887Y-44995D01*
X81887Y-44995D02*
X82487Y-44995D01*
X82487Y-44995D02*
X82487Y-45395D01*
X82487Y-45795D02*
X82487Y-46195D01*
X82487Y-46195D02*
X81887Y-46195D01*
X81887Y-46195D02*
X81887Y-45795D01*
X81935Y-46397D02*
G75*
G03X81935Y-46397I-50J0D01*
G74*
G01*
X81885Y-46847D02*
X81885Y-46447D01*
X81885Y-46447D02*
X82485Y-46447D01*
X82485Y-46447D02*
X82485Y-46847D01*
X82485Y-47247D02*
X82485Y-47647D01*
X82485Y-47647D02*
X81885Y-47647D01*
X81885Y-47647D02*
X81885Y-47247D01*
X81935Y-47898D02*
G75*
G03X81935Y-47898I-50J0D01*
G74*
G01*
X81885Y-48348D02*
X81885Y-47948D01*
X81885Y-47948D02*
X82485Y-47948D01*
X82485Y-47948D02*
X82485Y-48348D01*
X82485Y-48748D02*
X82485Y-49148D01*
X82485Y-49148D02*
X81885Y-49148D01*
X81885Y-49148D02*
X81885Y-48748D01*
X81935Y-49399D02*
G75*
G03X81935Y-49399I-50J0D01*
G74*
G01*
X81885Y-49849D02*
X81885Y-49449D01*
X81885Y-49449D02*
X82485Y-49449D01*
X82485Y-49449D02*
X82485Y-49849D01*
X82485Y-50249D02*
X82485Y-50649D01*
X82485Y-50649D02*
X81885Y-50649D01*
X81885Y-50649D02*
X81885Y-50249D01*
X81935Y-50900D02*
G75*
G03X81935Y-50900I-50J0D01*
G74*
G01*
X81885Y-51350D02*
X81885Y-50950D01*
X81885Y-50950D02*
X82485Y-50950D01*
X82485Y-50950D02*
X82485Y-51350D01*
X82485Y-51750D02*
X82485Y-52150D01*
X82485Y-52150D02*
X81885Y-52150D01*
X81885Y-52150D02*
X81885Y-51750D01*
X81935Y-52401D02*
G75*
G03X81935Y-52401I-50J0D01*
G74*
G01*
X81885Y-52851D02*
X81885Y-52451D01*
X81885Y-52451D02*
X82485Y-52451D01*
X82485Y-52451D02*
X82485Y-52851D01*
X82485Y-53251D02*
X82485Y-53651D01*
X82485Y-53651D02*
X81885Y-53651D01*
X81885Y-53651D02*
X81885Y-53251D01*
X81935Y-53902D02*
G75*
G03X81935Y-53902I-50J0D01*
G74*
G01*
X81885Y-54352D02*
X81885Y-53952D01*
X81885Y-53952D02*
X82485Y-53952D01*
X82485Y-53952D02*
X82485Y-54352D01*
X82485Y-54752D02*
X82485Y-55152D01*
X82485Y-55152D02*
X81885Y-55152D01*
X81885Y-55152D02*
X81885Y-54752D01*
X81935Y-55403D02*
G75*
G03X81935Y-55403I-50J0D01*
G74*
G01*
X81885Y-55853D02*
X81885Y-55453D01*
X81885Y-55453D02*
X82485Y-55453D01*
X82485Y-55453D02*
X82485Y-55853D01*
X82485Y-56253D02*
X82485Y-56653D01*
X82485Y-56653D02*
X81885Y-56653D01*
X81885Y-56653D02*
X81885Y-56253D01*
X81935Y-56904D02*
G75*
G03X81935Y-56904I-50J0D01*
G74*
G01*
X81885Y-57354D02*
X81885Y-56954D01*
X81885Y-56954D02*
X82485Y-56954D01*
X82485Y-56954D02*
X82485Y-57354D01*
X82485Y-57754D02*
X82485Y-58154D01*
X82485Y-58154D02*
X81885Y-58154D01*
X81885Y-58154D02*
X81885Y-57754D01*
X51935Y-35890D02*
G75*
G03X51935Y-35890I-50J0D01*
G74*
G01*
X51885Y-36340D02*
X51885Y-35940D01*
X51885Y-35940D02*
X52485Y-35940D01*
X52485Y-35940D02*
X52485Y-36340D01*
X52485Y-36740D02*
X52485Y-37140D01*
X52485Y-37140D02*
X51885Y-37140D01*
X51885Y-37140D02*
X51885Y-36740D01*
X51935Y-37391D02*
G75*
G03X51935Y-37391I-50J0D01*
G74*
G01*
X51885Y-37841D02*
X51885Y-37441D01*
X51885Y-37441D02*
X52485Y-37441D01*
X52485Y-37441D02*
X52485Y-37841D01*
X52485Y-38241D02*
X52485Y-38641D01*
X52485Y-38641D02*
X51885Y-38641D01*
X51885Y-38641D02*
X51885Y-38241D01*
X51935Y-38892D02*
G75*
G03X51935Y-38892I-50J0D01*
G74*
G01*
X51885Y-39342D02*
X51885Y-38942D01*
X51885Y-38942D02*
X52485Y-38942D01*
X52485Y-38942D02*
X52485Y-39342D01*
X52485Y-39742D02*
X52485Y-40142D01*
X52485Y-40142D02*
X51885Y-40142D01*
X51885Y-40142D02*
X51885Y-39742D01*
X51935Y-40393D02*
G75*
G03X51935Y-40393I-50J0D01*
G74*
G01*
X51885Y-40843D02*
X51885Y-40443D01*
X51885Y-40443D02*
X52485Y-40443D01*
X52485Y-40443D02*
X52485Y-40843D01*
X52485Y-41243D02*
X52485Y-41643D01*
X52485Y-41643D02*
X51885Y-41643D01*
X51885Y-41643D02*
X51885Y-41243D01*
X51935Y-41894D02*
G75*
G03X51935Y-41894I-50J0D01*
G74*
G01*
X51885Y-42344D02*
X51885Y-41944D01*
X51885Y-41944D02*
X52485Y-41944D01*
X52485Y-41944D02*
X52485Y-42344D01*
X52485Y-42744D02*
X52485Y-43144D01*
X52485Y-43144D02*
X51885Y-43144D01*
X51885Y-43144D02*
X51885Y-42744D01*
X51935Y-43395D02*
G75*
G03X51935Y-43395I-50J0D01*
G74*
G01*
X51885Y-43845D02*
X51885Y-43445D01*
X51885Y-43445D02*
X52485Y-43445D01*
X52485Y-43445D02*
X52485Y-43845D01*
X52485Y-44245D02*
X52485Y-44645D01*
X52485Y-44645D02*
X51885Y-44645D01*
X51885Y-44645D02*
X51885Y-44245D01*
X51935Y-44896D02*
G75*
G03X51935Y-44896I-50J0D01*
G74*
G01*
X51885Y-45346D02*
X51885Y-44946D01*
X51885Y-44946D02*
X52485Y-44946D01*
X52485Y-44946D02*
X52485Y-45346D01*
X52485Y-45746D02*
X52485Y-46146D01*
X52485Y-46146D02*
X51885Y-46146D01*
X51885Y-46146D02*
X51885Y-45746D01*
X51935Y-46397D02*
G75*
G03X51935Y-46397I-50J0D01*
G74*
G01*
X51885Y-46847D02*
X51885Y-46447D01*
X51885Y-46447D02*
X52485Y-46447D01*
X52485Y-46447D02*
X52485Y-46847D01*
X52485Y-47247D02*
X52485Y-47647D01*
X52485Y-47647D02*
X51885Y-47647D01*
X51885Y-47647D02*
X51885Y-47247D01*
X51935Y-47898D02*
G75*
G03X51935Y-47898I-50J0D01*
G74*
G01*
X51885Y-48348D02*
X51885Y-47948D01*
X51885Y-47948D02*
X52485Y-47948D01*
X52485Y-47948D02*
X52485Y-48348D01*
X52485Y-48748D02*
X52485Y-49148D01*
X52485Y-49148D02*
X51885Y-49148D01*
X51885Y-49148D02*
X51885Y-48748D01*
X51935Y-49399D02*
G75*
G03X51935Y-49399I-50J0D01*
G74*
G01*
X51885Y-49849D02*
X51885Y-49449D01*
X51885Y-49449D02*
X52485Y-49449D01*
X52485Y-49449D02*
X52485Y-49849D01*
X52485Y-50249D02*
X52485Y-50649D01*
X52485Y-50649D02*
X51885Y-50649D01*
X51885Y-50649D02*
X51885Y-50249D01*
X51935Y-50900D02*
G75*
G03X51935Y-50900I-50J0D01*
G74*
G01*
X51885Y-51350D02*
X51885Y-50950D01*
X51885Y-50950D02*
X52485Y-50950D01*
X52485Y-50950D02*
X52485Y-51350D01*
X52485Y-51750D02*
X52485Y-52150D01*
X52485Y-52150D02*
X51885Y-52150D01*
X51885Y-52150D02*
X51885Y-51750D01*
X51935Y-52401D02*
G75*
G03X51935Y-52401I-50J0D01*
G74*
G01*
X51885Y-52851D02*
X51885Y-52451D01*
X51885Y-52451D02*
X52485Y-52451D01*
X52485Y-52451D02*
X52485Y-52851D01*
X52485Y-53251D02*
X52485Y-53651D01*
X52485Y-53651D02*
X51885Y-53651D01*
X51885Y-53651D02*
X51885Y-53251D01*
X51935Y-53902D02*
G75*
G03X51935Y-53902I-50J0D01*
G74*
G01*
X51885Y-54352D02*
X51885Y-53952D01*
X51885Y-53952D02*
X52485Y-53952D01*
X52485Y-53952D02*
X52485Y-54352D01*
X52485Y-54752D02*
X52485Y-55152D01*
X52485Y-55152D02*
X51885Y-55152D01*
X51885Y-55152D02*
X51885Y-54752D01*
X51935Y-55403D02*
G75*
G03X51935Y-55403I-50J0D01*
G74*
G01*
X51885Y-55853D02*
X51885Y-55453D01*
X51885Y-55453D02*
X52485Y-55453D01*
X52485Y-55453D02*
X52485Y-55853D01*
X52485Y-56253D02*
X52485Y-56653D01*
X52485Y-56653D02*
X51885Y-56653D01*
X51885Y-56653D02*
X51885Y-56253D01*
X51935Y-56904D02*
G75*
G03X51935Y-56904I-50J0D01*
G74*
G01*
X51885Y-57354D02*
X51885Y-56954D01*
X51885Y-56954D02*
X52485Y-56954D01*
X52485Y-56954D02*
X52485Y-57354D01*
X52485Y-57754D02*
X52485Y-58154D01*
X52485Y-58154D02*
X51885Y-58154D01*
X51885Y-58154D02*
X51885Y-57754D01*
X61935Y-35890D02*
G75*
G03X61935Y-35890I-50J0D01*
G74*
G01*
X61885Y-36340D02*
X61885Y-35940D01*
X61885Y-35940D02*
X62485Y-35940D01*
X62485Y-35940D02*
X62485Y-36340D01*
X62485Y-36740D02*
X62485Y-37140D01*
X62485Y-37140D02*
X61885Y-37140D01*
X61885Y-37140D02*
X61885Y-36740D01*
X61935Y-37391D02*
G75*
G03X61935Y-37391I-50J0D01*
G74*
G01*
X61885Y-37841D02*
X61885Y-37441D01*
X61885Y-37441D02*
X62485Y-37441D01*
X62485Y-37441D02*
X62485Y-37841D01*
X62485Y-38241D02*
X62485Y-38641D01*
X62485Y-38641D02*
X61885Y-38641D01*
X61885Y-38641D02*
X61885Y-38241D01*
X61935Y-38892D02*
G75*
G03X61935Y-38892I-50J0D01*
G74*
G01*
X61885Y-39342D02*
X61885Y-38942D01*
X61885Y-38942D02*
X62485Y-38942D01*
X62485Y-38942D02*
X62485Y-39342D01*
X62485Y-39742D02*
X62485Y-40142D01*
X62485Y-40142D02*
X61885Y-40142D01*
X61885Y-40142D02*
X61885Y-39742D01*
X61935Y-40393D02*
G75*
G03X61935Y-40393I-50J0D01*
G74*
G01*
X61885Y-40843D02*
X61885Y-40443D01*
X61885Y-40443D02*
X62485Y-40443D01*
X62485Y-40443D02*
X62485Y-40843D01*
X62485Y-41243D02*
X62485Y-41643D01*
X62485Y-41643D02*
X61885Y-41643D01*
X61885Y-41643D02*
X61885Y-41243D01*
X61935Y-41894D02*
G75*
G03X61935Y-41894I-50J0D01*
G74*
G01*
X61885Y-42344D02*
X61885Y-41944D01*
X61885Y-41944D02*
X62485Y-41944D01*
X62485Y-41944D02*
X62485Y-42344D01*
X62485Y-42744D02*
X62485Y-43144D01*
X62485Y-43144D02*
X61885Y-43144D01*
X61885Y-43144D02*
X61885Y-42744D01*
X61935Y-43395D02*
G75*
G03X61935Y-43395I-50J0D01*
G74*
G01*
X61885Y-43845D02*
X61885Y-43445D01*
X61885Y-43445D02*
X62485Y-43445D01*
X62485Y-43445D02*
X62485Y-43845D01*
X62485Y-44245D02*
X62485Y-44645D01*
X62485Y-44645D02*
X61885Y-44645D01*
X61885Y-44645D02*
X61885Y-44245D01*
X61935Y-44896D02*
G75*
G03X61935Y-44896I-50J0D01*
G74*
G01*
X61885Y-45346D02*
X61885Y-44946D01*
X61885Y-44946D02*
X62485Y-44946D01*
X62485Y-44946D02*
X62485Y-45346D01*
X62485Y-45746D02*
X62485Y-46146D01*
X62485Y-46146D02*
X61885Y-46146D01*
X61885Y-46146D02*
X61885Y-45746D01*
X61935Y-46397D02*
G75*
G03X61935Y-46397I-50J0D01*
G74*
G01*
X61885Y-46847D02*
X61885Y-46447D01*
X61885Y-46447D02*
X62485Y-46447D01*
X62485Y-46447D02*
X62485Y-46847D01*
X62485Y-47247D02*
X62485Y-47647D01*
X62485Y-47647D02*
X61885Y-47647D01*
X61885Y-47647D02*
X61885Y-47247D01*
X61935Y-47898D02*
G75*
G03X61935Y-47898I-50J0D01*
G74*
G01*
X61885Y-48348D02*
X61885Y-47948D01*
X61885Y-47948D02*
X62485Y-47948D01*
X62485Y-47948D02*
X62485Y-48348D01*
X62485Y-48748D02*
X62485Y-49148D01*
X62485Y-49148D02*
X61885Y-49148D01*
X61885Y-49148D02*
X61885Y-48748D01*
X61935Y-49399D02*
G75*
G03X61935Y-49399I-50J0D01*
G74*
G01*
X61885Y-49849D02*
X61885Y-49449D01*
X61885Y-49449D02*
X62485Y-49449D01*
X62485Y-49449D02*
X62485Y-49849D01*
X62485Y-50249D02*
X62485Y-50649D01*
X62485Y-50649D02*
X61885Y-50649D01*
X61885Y-50649D02*
X61885Y-50249D01*
X61935Y-50900D02*
G75*
G03X61935Y-50900I-50J0D01*
G74*
G01*
X61885Y-51350D02*
X61885Y-50950D01*
X61885Y-50950D02*
X62485Y-50950D01*
X62485Y-50950D02*
X62485Y-51350D01*
X62485Y-51750D02*
X62485Y-52150D01*
X62485Y-52150D02*
X61885Y-52150D01*
X61885Y-52150D02*
X61885Y-51750D01*
X61935Y-52401D02*
G75*
G03X61935Y-52401I-50J0D01*
G74*
G01*
X61885Y-52851D02*
X61885Y-52451D01*
X61885Y-52451D02*
X62485Y-52451D01*
X62485Y-52451D02*
X62485Y-52851D01*
X62485Y-53251D02*
X62485Y-53651D01*
X62485Y-53651D02*
X61885Y-53651D01*
X61885Y-53651D02*
X61885Y-53251D01*
X61935Y-53902D02*
G75*
G03X61935Y-53902I-50J0D01*
G74*
G01*
X61885Y-54352D02*
X61885Y-53952D01*
X61885Y-53952D02*
X62485Y-53952D01*
X62485Y-53952D02*
X62485Y-54352D01*
X62485Y-54752D02*
X62485Y-55152D01*
X62485Y-55152D02*
X61885Y-55152D01*
X61885Y-55152D02*
X61885Y-54752D01*
X61935Y-55403D02*
G75*
G03X61935Y-55403I-50J0D01*
G74*
G01*
X61885Y-55853D02*
X61885Y-55453D01*
X61885Y-55453D02*
X62485Y-55453D01*
X62485Y-55453D02*
X62485Y-55853D01*
X62485Y-56253D02*
X62485Y-56653D01*
X62485Y-56653D02*
X61885Y-56653D01*
X61885Y-56653D02*
X61885Y-56253D01*
X61935Y-56904D02*
G75*
G03X61935Y-56904I-50J0D01*
G74*
G01*
X61885Y-57354D02*
X61885Y-56954D01*
X61885Y-56954D02*
X62485Y-56954D01*
X62485Y-56954D02*
X62485Y-57354D01*
X62485Y-57754D02*
X62485Y-58154D01*
X62485Y-58154D02*
X61885Y-58154D01*
X61885Y-58154D02*
X61885Y-57754D01*
X71935Y-35890D02*
G75*
G03X71935Y-35890I-50J0D01*
G74*
G01*
X71885Y-36340D02*
X71885Y-35940D01*
X71885Y-35940D02*
X72485Y-35940D01*
X72485Y-35940D02*
X72485Y-36340D01*
X72485Y-36740D02*
X72485Y-37140D01*
X72485Y-37140D02*
X71885Y-37140D01*
X71885Y-37140D02*
X71885Y-36740D01*
X71935Y-37391D02*
G75*
G03X71935Y-37391I-50J0D01*
G74*
G01*
X71885Y-37841D02*
X71885Y-37441D01*
X71885Y-37441D02*
X72485Y-37441D01*
X72485Y-37441D02*
X72485Y-37841D01*
X72485Y-38241D02*
X72485Y-38641D01*
X72485Y-38641D02*
X71885Y-38641D01*
X71885Y-38641D02*
X71885Y-38241D01*
X42654Y-58872D02*
X41754Y-58872D01*
X41754Y-58872D02*
X41754Y-58372D01*
X41754Y-58372D02*
X42654Y-58372D01*
X42654Y-58372D02*
X42654Y-58872D01*
X51754Y-58333D02*
X52654Y-58333D01*
X52654Y-58333D02*
X52654Y-58833D01*
X52654Y-58833D02*
X51754Y-58833D01*
X51754Y-58833D02*
X51754Y-58333D01*
X62654Y-58872D02*
X61754Y-58872D01*
X61754Y-58872D02*
X61754Y-58372D01*
X61754Y-58372D02*
X62654Y-58372D01*
X62654Y-58372D02*
X62654Y-58872D01*
X72654Y-58872D02*
X71754Y-58872D01*
X71754Y-58872D02*
X71754Y-58372D01*
X71754Y-58372D02*
X72654Y-58372D01*
X72654Y-58372D02*
X72654Y-58872D01*
X81754Y-58372D02*
X82654Y-58372D01*
X82654Y-58372D02*
X82654Y-58872D01*
X82654Y-58872D02*
X81754Y-58872D01*
X81754Y-58872D02*
X81754Y-58372D01*
G54D14*
X40995Y-57673D02*
X40995Y-57378D01*
X41066Y-57378D01*
X41108Y-57392D01*
X41136Y-57420D01*
X41150Y-57448D01*
X41164Y-57504D01*
X41164Y-57546D01*
X41150Y-57603D01*
X41136Y-57631D01*
X41108Y-57659D01*
X41066Y-57673D01*
X40995Y-57673D01*
X41445Y-57673D02*
X41276Y-57673D01*
X41361Y-57673D02*
X41361Y-57378D01*
X41332Y-57420D01*
X41304Y-57448D01*
X41276Y-57462D01*
X41712Y-57378D02*
X41571Y-57378D01*
X41557Y-57518D01*
X41571Y-57504D01*
X41599Y-57490D01*
X41670Y-57490D01*
X41698Y-57504D01*
X41712Y-57518D01*
X41726Y-57546D01*
X41726Y-57617D01*
X41712Y-57645D01*
X41698Y-57659D01*
X41670Y-57673D01*
X41599Y-57673D01*
X41571Y-57659D01*
X41557Y-57645D01*
X40995Y-56172D02*
X40995Y-55877D01*
X41066Y-55877D01*
X41108Y-55891D01*
X41136Y-55919D01*
X41150Y-55947D01*
X41164Y-56003D01*
X41164Y-56045D01*
X41150Y-56102D01*
X41136Y-56130D01*
X41108Y-56158D01*
X41066Y-56172D01*
X40995Y-56172D01*
X41445Y-56172D02*
X41276Y-56172D01*
X41361Y-56172D02*
X41361Y-55877D01*
X41332Y-55919D01*
X41304Y-55947D01*
X41276Y-55961D01*
X41698Y-55975D02*
X41698Y-56172D01*
X41627Y-55863D02*
X41557Y-56074D01*
X41740Y-56074D01*
X40995Y-54671D02*
X40995Y-54376D01*
X41066Y-54376D01*
X41108Y-54390D01*
X41136Y-54418D01*
X41150Y-54446D01*
X41164Y-54502D01*
X41164Y-54544D01*
X41150Y-54601D01*
X41136Y-54629D01*
X41108Y-54657D01*
X41066Y-54671D01*
X40995Y-54671D01*
X41445Y-54671D02*
X41276Y-54671D01*
X41361Y-54671D02*
X41361Y-54376D01*
X41332Y-54418D01*
X41304Y-54446D01*
X41276Y-54460D01*
X41543Y-54376D02*
X41726Y-54376D01*
X41627Y-54488D01*
X41670Y-54488D01*
X41698Y-54502D01*
X41712Y-54516D01*
X41726Y-54544D01*
X41726Y-54615D01*
X41712Y-54643D01*
X41698Y-54657D01*
X41670Y-54671D01*
X41585Y-54671D01*
X41557Y-54657D01*
X41543Y-54643D01*
X40995Y-53170D02*
X40995Y-52875D01*
X41066Y-52875D01*
X41108Y-52889D01*
X41136Y-52917D01*
X41150Y-52945D01*
X41164Y-53001D01*
X41164Y-53043D01*
X41150Y-53100D01*
X41136Y-53128D01*
X41108Y-53156D01*
X41066Y-53170D01*
X40995Y-53170D01*
X41445Y-53170D02*
X41276Y-53170D01*
X41361Y-53170D02*
X41361Y-52875D01*
X41332Y-52917D01*
X41304Y-52945D01*
X41276Y-52959D01*
X41557Y-52903D02*
X41571Y-52889D01*
X41599Y-52875D01*
X41670Y-52875D01*
X41698Y-52889D01*
X41712Y-52903D01*
X41726Y-52931D01*
X41726Y-52959D01*
X41712Y-53001D01*
X41543Y-53170D01*
X41726Y-53170D01*
X40995Y-51669D02*
X40995Y-51374D01*
X41066Y-51374D01*
X41108Y-51388D01*
X41136Y-51416D01*
X41150Y-51444D01*
X41164Y-51500D01*
X41164Y-51542D01*
X41150Y-51599D01*
X41136Y-51627D01*
X41108Y-51655D01*
X41066Y-51669D01*
X40995Y-51669D01*
X41445Y-51669D02*
X41276Y-51669D01*
X41361Y-51669D02*
X41361Y-51374D01*
X41332Y-51416D01*
X41304Y-51444D01*
X41276Y-51458D01*
X41726Y-51669D02*
X41557Y-51669D01*
X41641Y-51669D02*
X41641Y-51374D01*
X41613Y-51416D01*
X41585Y-51444D01*
X41557Y-51458D01*
X40995Y-50168D02*
X40995Y-49873D01*
X41066Y-49873D01*
X41108Y-49887D01*
X41136Y-49915D01*
X41150Y-49943D01*
X41164Y-49999D01*
X41164Y-50041D01*
X41150Y-50098D01*
X41136Y-50126D01*
X41108Y-50154D01*
X41066Y-50168D01*
X40995Y-50168D01*
X41445Y-50168D02*
X41276Y-50168D01*
X41361Y-50168D02*
X41361Y-49873D01*
X41332Y-49915D01*
X41304Y-49943D01*
X41276Y-49957D01*
X41627Y-49873D02*
X41656Y-49873D01*
X41684Y-49887D01*
X41698Y-49901D01*
X41712Y-49929D01*
X41726Y-49985D01*
X41726Y-50056D01*
X41712Y-50112D01*
X41698Y-50140D01*
X41684Y-50154D01*
X41656Y-50168D01*
X41627Y-50168D01*
X41599Y-50154D01*
X41585Y-50140D01*
X41571Y-50112D01*
X41557Y-50056D01*
X41557Y-49985D01*
X41571Y-49929D01*
X41585Y-49901D01*
X41599Y-49887D01*
X41627Y-49873D01*
X41278Y-48667D02*
X41278Y-48372D01*
X41348Y-48372D01*
X41390Y-48386D01*
X41418Y-48414D01*
X41432Y-48442D01*
X41446Y-48498D01*
X41446Y-48540D01*
X41432Y-48597D01*
X41418Y-48625D01*
X41390Y-48653D01*
X41348Y-48667D01*
X41278Y-48667D01*
X41587Y-48667D02*
X41643Y-48667D01*
X41671Y-48653D01*
X41685Y-48639D01*
X41713Y-48597D01*
X41727Y-48540D01*
X41727Y-48428D01*
X41713Y-48400D01*
X41699Y-48386D01*
X41671Y-48372D01*
X41615Y-48372D01*
X41587Y-48386D01*
X41573Y-48400D01*
X41559Y-48428D01*
X41559Y-48498D01*
X41573Y-48526D01*
X41587Y-48540D01*
X41615Y-48555D01*
X41671Y-48555D01*
X41699Y-48540D01*
X41713Y-48526D01*
X41727Y-48498D01*
X41278Y-47166D02*
X41278Y-46871D01*
X41348Y-46871D01*
X41390Y-46885D01*
X41418Y-46913D01*
X41432Y-46941D01*
X41446Y-46997D01*
X41446Y-47039D01*
X41432Y-47096D01*
X41418Y-47124D01*
X41390Y-47152D01*
X41348Y-47166D01*
X41278Y-47166D01*
X41615Y-46997D02*
X41587Y-46983D01*
X41573Y-46969D01*
X41559Y-46941D01*
X41559Y-46927D01*
X41573Y-46899D01*
X41587Y-46885D01*
X41615Y-46871D01*
X41671Y-46871D01*
X41699Y-46885D01*
X41713Y-46899D01*
X41727Y-46927D01*
X41727Y-46941D01*
X41713Y-46969D01*
X41699Y-46983D01*
X41671Y-46997D01*
X41615Y-46997D01*
X41587Y-47011D01*
X41573Y-47025D01*
X41559Y-47054D01*
X41559Y-47110D01*
X41573Y-47138D01*
X41587Y-47152D01*
X41615Y-47166D01*
X41671Y-47166D01*
X41699Y-47152D01*
X41713Y-47138D01*
X41727Y-47110D01*
X41727Y-47054D01*
X41713Y-47025D01*
X41699Y-47011D01*
X41671Y-46997D01*
X41278Y-45665D02*
X41278Y-45370D01*
X41348Y-45370D01*
X41390Y-45384D01*
X41418Y-45412D01*
X41432Y-45440D01*
X41446Y-45496D01*
X41446Y-45538D01*
X41432Y-45595D01*
X41418Y-45623D01*
X41390Y-45651D01*
X41348Y-45665D01*
X41278Y-45665D01*
X41545Y-45370D02*
X41741Y-45370D01*
X41615Y-45665D01*
X41278Y-44164D02*
X41278Y-43869D01*
X41348Y-43869D01*
X41390Y-43883D01*
X41418Y-43911D01*
X41432Y-43939D01*
X41446Y-43995D01*
X41446Y-44037D01*
X41432Y-44094D01*
X41418Y-44122D01*
X41390Y-44150D01*
X41348Y-44164D01*
X41278Y-44164D01*
X41699Y-43869D02*
X41643Y-43869D01*
X41615Y-43883D01*
X41601Y-43897D01*
X41573Y-43939D01*
X41559Y-43995D01*
X41559Y-44108D01*
X41573Y-44136D01*
X41587Y-44150D01*
X41615Y-44164D01*
X41671Y-44164D01*
X41699Y-44150D01*
X41713Y-44136D01*
X41727Y-44108D01*
X41727Y-44037D01*
X41713Y-44009D01*
X41699Y-43995D01*
X41671Y-43981D01*
X41615Y-43981D01*
X41587Y-43995D01*
X41573Y-44009D01*
X41559Y-44037D01*
X41278Y-42663D02*
X41278Y-42368D01*
X41348Y-42368D01*
X41390Y-42382D01*
X41418Y-42410D01*
X41432Y-42438D01*
X41446Y-42494D01*
X41446Y-42536D01*
X41432Y-42593D01*
X41418Y-42621D01*
X41390Y-42649D01*
X41348Y-42663D01*
X41278Y-42663D01*
X41713Y-42368D02*
X41573Y-42368D01*
X41559Y-42508D01*
X41573Y-42494D01*
X41601Y-42480D01*
X41671Y-42480D01*
X41699Y-42494D01*
X41713Y-42508D01*
X41727Y-42536D01*
X41727Y-42607D01*
X41713Y-42635D01*
X41699Y-42649D01*
X41671Y-42663D01*
X41601Y-42663D01*
X41573Y-42649D01*
X41559Y-42635D01*
X41278Y-41162D02*
X41278Y-40867D01*
X41348Y-40867D01*
X41390Y-40881D01*
X41418Y-40909D01*
X41432Y-40937D01*
X41446Y-40993D01*
X41446Y-41035D01*
X41432Y-41092D01*
X41418Y-41120D01*
X41390Y-41148D01*
X41348Y-41162D01*
X41278Y-41162D01*
X41699Y-40965D02*
X41699Y-41162D01*
X41629Y-40853D02*
X41559Y-41064D01*
X41741Y-41064D01*
X41278Y-39661D02*
X41278Y-39366D01*
X41348Y-39366D01*
X41390Y-39380D01*
X41418Y-39408D01*
X41432Y-39436D01*
X41446Y-39492D01*
X41446Y-39534D01*
X41432Y-39591D01*
X41418Y-39619D01*
X41390Y-39647D01*
X41348Y-39661D01*
X41278Y-39661D01*
X41545Y-39366D02*
X41727Y-39366D01*
X41629Y-39478D01*
X41671Y-39478D01*
X41699Y-39492D01*
X41713Y-39506D01*
X41727Y-39534D01*
X41727Y-39605D01*
X41713Y-39633D01*
X41699Y-39647D01*
X41671Y-39661D01*
X41587Y-39661D01*
X41559Y-39647D01*
X41545Y-39633D01*
X41278Y-38160D02*
X41278Y-37865D01*
X41348Y-37865D01*
X41390Y-37879D01*
X41418Y-37907D01*
X41432Y-37935D01*
X41446Y-37991D01*
X41446Y-38033D01*
X41432Y-38090D01*
X41418Y-38118D01*
X41390Y-38146D01*
X41348Y-38160D01*
X41278Y-38160D01*
X41559Y-37893D02*
X41573Y-37879D01*
X41601Y-37865D01*
X41671Y-37865D01*
X41699Y-37879D01*
X41713Y-37893D01*
X41727Y-37921D01*
X41727Y-37949D01*
X41713Y-37991D01*
X41545Y-38160D01*
X41727Y-38160D01*
X41278Y-36659D02*
X41278Y-36364D01*
X41348Y-36364D01*
X41390Y-36378D01*
X41418Y-36406D01*
X41432Y-36434D01*
X41446Y-36490D01*
X41446Y-36532D01*
X41432Y-36589D01*
X41418Y-36617D01*
X41390Y-36645D01*
X41348Y-36659D01*
X41278Y-36659D01*
X41727Y-36659D02*
X41559Y-36659D01*
X41643Y-36659D02*
X41643Y-36364D01*
X41615Y-36406D01*
X41587Y-36434D01*
X41559Y-36448D01*
X27341Y-47836D02*
X27341Y-47541D01*
X27453Y-47541D01*
X27481Y-47555D01*
X27495Y-47569D01*
X27509Y-47597D01*
X27509Y-47639D01*
X27495Y-47667D01*
X27481Y-47681D01*
X27453Y-47695D01*
X27341Y-47695D01*
X27790Y-47836D02*
X27622Y-47836D01*
X27706Y-47836D02*
X27706Y-47541D01*
X27678Y-47583D01*
X27650Y-47611D01*
X27622Y-47625D01*
X80995Y-36659D02*
X80995Y-36364D01*
X81066Y-36364D01*
X81108Y-36378D01*
X81136Y-36406D01*
X81150Y-36434D01*
X81164Y-36490D01*
X81164Y-36532D01*
X81150Y-36589D01*
X81136Y-36617D01*
X81108Y-36645D01*
X81066Y-36659D01*
X80995Y-36659D01*
X81417Y-36364D02*
X81361Y-36364D01*
X81332Y-36378D01*
X81318Y-36392D01*
X81290Y-36434D01*
X81276Y-36490D01*
X81276Y-36603D01*
X81290Y-36631D01*
X81304Y-36645D01*
X81332Y-36659D01*
X81389Y-36659D01*
X81417Y-36645D01*
X81431Y-36631D01*
X81445Y-36603D01*
X81445Y-36532D01*
X81431Y-36504D01*
X81417Y-36490D01*
X81389Y-36476D01*
X81332Y-36476D01*
X81304Y-36490D01*
X81290Y-36504D01*
X81276Y-36532D01*
X81726Y-36659D02*
X81557Y-36659D01*
X81641Y-36659D02*
X81641Y-36364D01*
X81613Y-36406D01*
X81585Y-36434D01*
X81557Y-36448D01*
X70995Y-57673D02*
X70995Y-57378D01*
X71066Y-57378D01*
X71108Y-57392D01*
X71136Y-57420D01*
X71150Y-57448D01*
X71164Y-57504D01*
X71164Y-57546D01*
X71150Y-57603D01*
X71136Y-57631D01*
X71108Y-57659D01*
X71066Y-57673D01*
X70995Y-57673D01*
X71417Y-57378D02*
X71361Y-57378D01*
X71332Y-57392D01*
X71318Y-57406D01*
X71290Y-57448D01*
X71276Y-57504D01*
X71276Y-57617D01*
X71290Y-57645D01*
X71304Y-57659D01*
X71332Y-57673D01*
X71389Y-57673D01*
X71417Y-57659D01*
X71431Y-57645D01*
X71445Y-57617D01*
X71445Y-57546D01*
X71431Y-57518D01*
X71417Y-57504D01*
X71389Y-57490D01*
X71332Y-57490D01*
X71304Y-57504D01*
X71290Y-57518D01*
X71276Y-57546D01*
X71627Y-57378D02*
X71656Y-57378D01*
X71684Y-57392D01*
X71698Y-57406D01*
X71712Y-57434D01*
X71726Y-57490D01*
X71726Y-57561D01*
X71712Y-57617D01*
X71698Y-57645D01*
X71684Y-57659D01*
X71656Y-57673D01*
X71627Y-57673D01*
X71599Y-57659D01*
X71585Y-57645D01*
X71571Y-57617D01*
X71557Y-57561D01*
X71557Y-57490D01*
X71571Y-57434D01*
X71585Y-57406D01*
X71599Y-57392D01*
X71627Y-57378D01*
X70995Y-56172D02*
X70995Y-55877D01*
X71066Y-55877D01*
X71108Y-55891D01*
X71136Y-55919D01*
X71150Y-55947D01*
X71164Y-56003D01*
X71164Y-56045D01*
X71150Y-56102D01*
X71136Y-56130D01*
X71108Y-56158D01*
X71066Y-56172D01*
X70995Y-56172D01*
X71431Y-55877D02*
X71290Y-55877D01*
X71276Y-56017D01*
X71290Y-56003D01*
X71318Y-55989D01*
X71389Y-55989D01*
X71417Y-56003D01*
X71431Y-56017D01*
X71445Y-56045D01*
X71445Y-56116D01*
X71431Y-56144D01*
X71417Y-56158D01*
X71389Y-56172D01*
X71318Y-56172D01*
X71290Y-56158D01*
X71276Y-56144D01*
X71585Y-56172D02*
X71641Y-56172D01*
X71670Y-56158D01*
X71684Y-56144D01*
X71712Y-56102D01*
X71726Y-56045D01*
X71726Y-55933D01*
X71712Y-55905D01*
X71698Y-55891D01*
X71670Y-55877D01*
X71613Y-55877D01*
X71585Y-55891D01*
X71571Y-55905D01*
X71557Y-55933D01*
X71557Y-56003D01*
X71571Y-56031D01*
X71585Y-56045D01*
X71613Y-56060D01*
X71670Y-56060D01*
X71698Y-56045D01*
X71712Y-56031D01*
X71726Y-56003D01*
X70995Y-54671D02*
X70995Y-54376D01*
X71066Y-54376D01*
X71108Y-54390D01*
X71136Y-54418D01*
X71150Y-54446D01*
X71164Y-54502D01*
X71164Y-54544D01*
X71150Y-54601D01*
X71136Y-54629D01*
X71108Y-54657D01*
X71066Y-54671D01*
X70995Y-54671D01*
X71431Y-54376D02*
X71290Y-54376D01*
X71276Y-54516D01*
X71290Y-54502D01*
X71318Y-54488D01*
X71389Y-54488D01*
X71417Y-54502D01*
X71431Y-54516D01*
X71445Y-54544D01*
X71445Y-54615D01*
X71431Y-54643D01*
X71417Y-54657D01*
X71389Y-54671D01*
X71318Y-54671D01*
X71290Y-54657D01*
X71276Y-54643D01*
X71613Y-54502D02*
X71585Y-54488D01*
X71571Y-54474D01*
X71557Y-54446D01*
X71557Y-54432D01*
X71571Y-54404D01*
X71585Y-54390D01*
X71613Y-54376D01*
X71670Y-54376D01*
X71698Y-54390D01*
X71712Y-54404D01*
X71726Y-54432D01*
X71726Y-54446D01*
X71712Y-54474D01*
X71698Y-54488D01*
X71670Y-54502D01*
X71613Y-54502D01*
X71585Y-54516D01*
X71571Y-54530D01*
X71557Y-54559D01*
X71557Y-54615D01*
X71571Y-54643D01*
X71585Y-54657D01*
X71613Y-54671D01*
X71670Y-54671D01*
X71698Y-54657D01*
X71712Y-54643D01*
X71726Y-54615D01*
X71726Y-54559D01*
X71712Y-54530D01*
X71698Y-54516D01*
X71670Y-54502D01*
X70995Y-53170D02*
X70995Y-52875D01*
X71066Y-52875D01*
X71108Y-52889D01*
X71136Y-52917D01*
X71150Y-52945D01*
X71164Y-53001D01*
X71164Y-53043D01*
X71150Y-53100D01*
X71136Y-53128D01*
X71108Y-53156D01*
X71066Y-53170D01*
X70995Y-53170D01*
X71431Y-52875D02*
X71290Y-52875D01*
X71276Y-53015D01*
X71290Y-53001D01*
X71318Y-52987D01*
X71389Y-52987D01*
X71417Y-53001D01*
X71431Y-53015D01*
X71445Y-53043D01*
X71445Y-53114D01*
X71431Y-53142D01*
X71417Y-53156D01*
X71389Y-53170D01*
X71318Y-53170D01*
X71290Y-53156D01*
X71276Y-53142D01*
X71543Y-52875D02*
X71740Y-52875D01*
X71613Y-53170D01*
X70995Y-51669D02*
X70995Y-51374D01*
X71066Y-51374D01*
X71108Y-51388D01*
X71136Y-51416D01*
X71150Y-51444D01*
X71164Y-51500D01*
X71164Y-51542D01*
X71150Y-51599D01*
X71136Y-51627D01*
X71108Y-51655D01*
X71066Y-51669D01*
X70995Y-51669D01*
X71431Y-51374D02*
X71290Y-51374D01*
X71276Y-51514D01*
X71290Y-51500D01*
X71318Y-51486D01*
X71389Y-51486D01*
X71417Y-51500D01*
X71431Y-51514D01*
X71445Y-51542D01*
X71445Y-51613D01*
X71431Y-51641D01*
X71417Y-51655D01*
X71389Y-51669D01*
X71318Y-51669D01*
X71290Y-51655D01*
X71276Y-51641D01*
X71698Y-51374D02*
X71641Y-51374D01*
X71613Y-51388D01*
X71599Y-51402D01*
X71571Y-51444D01*
X71557Y-51500D01*
X71557Y-51613D01*
X71571Y-51641D01*
X71585Y-51655D01*
X71613Y-51669D01*
X71670Y-51669D01*
X71698Y-51655D01*
X71712Y-51641D01*
X71726Y-51613D01*
X71726Y-51542D01*
X71712Y-51514D01*
X71698Y-51500D01*
X71670Y-51486D01*
X71613Y-51486D01*
X71585Y-51500D01*
X71571Y-51514D01*
X71557Y-51542D01*
X70995Y-50168D02*
X70995Y-49873D01*
X71066Y-49873D01*
X71108Y-49887D01*
X71136Y-49915D01*
X71150Y-49943D01*
X71164Y-49999D01*
X71164Y-50041D01*
X71150Y-50098D01*
X71136Y-50126D01*
X71108Y-50154D01*
X71066Y-50168D01*
X70995Y-50168D01*
X71431Y-49873D02*
X71290Y-49873D01*
X71276Y-50013D01*
X71290Y-49999D01*
X71318Y-49985D01*
X71389Y-49985D01*
X71417Y-49999D01*
X71431Y-50013D01*
X71445Y-50041D01*
X71445Y-50112D01*
X71431Y-50140D01*
X71417Y-50154D01*
X71389Y-50168D01*
X71318Y-50168D01*
X71290Y-50154D01*
X71276Y-50140D01*
X71712Y-49873D02*
X71571Y-49873D01*
X71557Y-50013D01*
X71571Y-49999D01*
X71599Y-49985D01*
X71670Y-49985D01*
X71698Y-49999D01*
X71712Y-50013D01*
X71726Y-50041D01*
X71726Y-50112D01*
X71712Y-50140D01*
X71698Y-50154D01*
X71670Y-50168D01*
X71599Y-50168D01*
X71571Y-50154D01*
X71557Y-50140D01*
X70995Y-48667D02*
X70995Y-48372D01*
X71066Y-48372D01*
X71108Y-48386D01*
X71136Y-48414D01*
X71150Y-48442D01*
X71164Y-48498D01*
X71164Y-48540D01*
X71150Y-48597D01*
X71136Y-48625D01*
X71108Y-48653D01*
X71066Y-48667D01*
X70995Y-48667D01*
X71431Y-48372D02*
X71290Y-48372D01*
X71276Y-48512D01*
X71290Y-48498D01*
X71318Y-48484D01*
X71389Y-48484D01*
X71417Y-48498D01*
X71431Y-48512D01*
X71445Y-48540D01*
X71445Y-48611D01*
X71431Y-48639D01*
X71417Y-48653D01*
X71389Y-48667D01*
X71318Y-48667D01*
X71290Y-48653D01*
X71276Y-48639D01*
X71698Y-48470D02*
X71698Y-48667D01*
X71627Y-48358D02*
X71557Y-48569D01*
X71740Y-48569D01*
X70995Y-47166D02*
X70995Y-46871D01*
X71066Y-46871D01*
X71108Y-46885D01*
X71136Y-46913D01*
X71150Y-46941D01*
X71164Y-46997D01*
X71164Y-47039D01*
X71150Y-47096D01*
X71136Y-47124D01*
X71108Y-47152D01*
X71066Y-47166D01*
X70995Y-47166D01*
X71431Y-46871D02*
X71290Y-46871D01*
X71276Y-47011D01*
X71290Y-46997D01*
X71318Y-46983D01*
X71389Y-46983D01*
X71417Y-46997D01*
X71431Y-47011D01*
X71445Y-47039D01*
X71445Y-47110D01*
X71431Y-47138D01*
X71417Y-47152D01*
X71389Y-47166D01*
X71318Y-47166D01*
X71290Y-47152D01*
X71276Y-47138D01*
X71543Y-46871D02*
X71726Y-46871D01*
X71627Y-46983D01*
X71670Y-46983D01*
X71698Y-46997D01*
X71712Y-47011D01*
X71726Y-47039D01*
X71726Y-47110D01*
X71712Y-47138D01*
X71698Y-47152D01*
X71670Y-47166D01*
X71585Y-47166D01*
X71557Y-47152D01*
X71543Y-47138D01*
X70995Y-45665D02*
X70995Y-45370D01*
X71066Y-45370D01*
X71108Y-45384D01*
X71136Y-45412D01*
X71150Y-45440D01*
X71164Y-45496D01*
X71164Y-45538D01*
X71150Y-45595D01*
X71136Y-45623D01*
X71108Y-45651D01*
X71066Y-45665D01*
X70995Y-45665D01*
X71431Y-45370D02*
X71290Y-45370D01*
X71276Y-45510D01*
X71290Y-45496D01*
X71318Y-45482D01*
X71389Y-45482D01*
X71417Y-45496D01*
X71431Y-45510D01*
X71445Y-45538D01*
X71445Y-45609D01*
X71431Y-45637D01*
X71417Y-45651D01*
X71389Y-45665D01*
X71318Y-45665D01*
X71290Y-45651D01*
X71276Y-45637D01*
X71557Y-45398D02*
X71571Y-45384D01*
X71599Y-45370D01*
X71670Y-45370D01*
X71698Y-45384D01*
X71712Y-45398D01*
X71726Y-45426D01*
X71726Y-45454D01*
X71712Y-45496D01*
X71543Y-45665D01*
X71726Y-45665D01*
X70995Y-44164D02*
X70995Y-43869D01*
X71066Y-43869D01*
X71108Y-43883D01*
X71136Y-43911D01*
X71150Y-43939D01*
X71164Y-43995D01*
X71164Y-44037D01*
X71150Y-44094D01*
X71136Y-44122D01*
X71108Y-44150D01*
X71066Y-44164D01*
X70995Y-44164D01*
X71431Y-43869D02*
X71290Y-43869D01*
X71276Y-44009D01*
X71290Y-43995D01*
X71318Y-43981D01*
X71389Y-43981D01*
X71417Y-43995D01*
X71431Y-44009D01*
X71445Y-44037D01*
X71445Y-44108D01*
X71431Y-44136D01*
X71417Y-44150D01*
X71389Y-44164D01*
X71318Y-44164D01*
X71290Y-44150D01*
X71276Y-44136D01*
X71726Y-44164D02*
X71557Y-44164D01*
X71641Y-44164D02*
X71641Y-43869D01*
X71613Y-43911D01*
X71585Y-43939D01*
X71557Y-43953D01*
X70995Y-42663D02*
X70995Y-42368D01*
X71066Y-42368D01*
X71108Y-42382D01*
X71136Y-42410D01*
X71150Y-42438D01*
X71164Y-42494D01*
X71164Y-42536D01*
X71150Y-42593D01*
X71136Y-42621D01*
X71108Y-42649D01*
X71066Y-42663D01*
X70995Y-42663D01*
X71431Y-42368D02*
X71290Y-42368D01*
X71276Y-42508D01*
X71290Y-42494D01*
X71318Y-42480D01*
X71389Y-42480D01*
X71417Y-42494D01*
X71431Y-42508D01*
X71445Y-42536D01*
X71445Y-42607D01*
X71431Y-42635D01*
X71417Y-42649D01*
X71389Y-42663D01*
X71318Y-42663D01*
X71290Y-42649D01*
X71276Y-42635D01*
X71627Y-42368D02*
X71656Y-42368D01*
X71684Y-42382D01*
X71698Y-42396D01*
X71712Y-42424D01*
X71726Y-42480D01*
X71726Y-42551D01*
X71712Y-42607D01*
X71698Y-42635D01*
X71684Y-42649D01*
X71656Y-42663D01*
X71627Y-42663D01*
X71599Y-42649D01*
X71585Y-42635D01*
X71571Y-42607D01*
X71557Y-42551D01*
X71557Y-42480D01*
X71571Y-42424D01*
X71585Y-42396D01*
X71599Y-42382D01*
X71627Y-42368D01*
X70995Y-41162D02*
X70995Y-40867D01*
X71066Y-40867D01*
X71108Y-40881D01*
X71136Y-40909D01*
X71150Y-40937D01*
X71164Y-40993D01*
X71164Y-41035D01*
X71150Y-41092D01*
X71136Y-41120D01*
X71108Y-41148D01*
X71066Y-41162D01*
X70995Y-41162D01*
X71417Y-40965D02*
X71417Y-41162D01*
X71346Y-40853D02*
X71276Y-41064D01*
X71459Y-41064D01*
X71585Y-41162D02*
X71641Y-41162D01*
X71670Y-41148D01*
X71684Y-41134D01*
X71712Y-41092D01*
X71726Y-41035D01*
X71726Y-40923D01*
X71712Y-40895D01*
X71698Y-40881D01*
X71670Y-40867D01*
X71613Y-40867D01*
X71585Y-40881D01*
X71571Y-40895D01*
X71557Y-40923D01*
X71557Y-40993D01*
X71571Y-41021D01*
X71585Y-41035D01*
X71613Y-41050D01*
X71670Y-41050D01*
X71698Y-41035D01*
X71712Y-41021D01*
X71726Y-40993D01*
X70995Y-39661D02*
X70995Y-39366D01*
X71066Y-39366D01*
X71108Y-39380D01*
X71136Y-39408D01*
X71150Y-39436D01*
X71164Y-39492D01*
X71164Y-39534D01*
X71150Y-39591D01*
X71136Y-39619D01*
X71108Y-39647D01*
X71066Y-39661D01*
X70995Y-39661D01*
X71417Y-39464D02*
X71417Y-39661D01*
X71346Y-39352D02*
X71276Y-39563D01*
X71459Y-39563D01*
X71613Y-39492D02*
X71585Y-39478D01*
X71571Y-39464D01*
X71557Y-39436D01*
X71557Y-39422D01*
X71571Y-39394D01*
X71585Y-39380D01*
X71613Y-39366D01*
X71670Y-39366D01*
X71698Y-39380D01*
X71712Y-39394D01*
X71726Y-39422D01*
X71726Y-39436D01*
X71712Y-39464D01*
X71698Y-39478D01*
X71670Y-39492D01*
X71613Y-39492D01*
X71585Y-39506D01*
X71571Y-39520D01*
X71557Y-39549D01*
X71557Y-39605D01*
X71571Y-39633D01*
X71585Y-39647D01*
X71613Y-39661D01*
X71670Y-39661D01*
X71698Y-39647D01*
X71712Y-39633D01*
X71726Y-39605D01*
X71726Y-39549D01*
X71712Y-39520D01*
X71698Y-39506D01*
X71670Y-39492D01*
X80995Y-38160D02*
X80995Y-37865D01*
X81066Y-37865D01*
X81108Y-37879D01*
X81136Y-37907D01*
X81150Y-37935D01*
X81164Y-37991D01*
X81164Y-38033D01*
X81150Y-38090D01*
X81136Y-38118D01*
X81108Y-38146D01*
X81066Y-38160D01*
X80995Y-38160D01*
X81417Y-37865D02*
X81361Y-37865D01*
X81332Y-37879D01*
X81318Y-37893D01*
X81290Y-37935D01*
X81276Y-37991D01*
X81276Y-38104D01*
X81290Y-38132D01*
X81304Y-38146D01*
X81332Y-38160D01*
X81389Y-38160D01*
X81417Y-38146D01*
X81431Y-38132D01*
X81445Y-38104D01*
X81445Y-38033D01*
X81431Y-38005D01*
X81417Y-37991D01*
X81389Y-37977D01*
X81332Y-37977D01*
X81304Y-37991D01*
X81290Y-38005D01*
X81276Y-38033D01*
X81557Y-37893D02*
X81571Y-37879D01*
X81599Y-37865D01*
X81670Y-37865D01*
X81698Y-37879D01*
X81712Y-37893D01*
X81726Y-37921D01*
X81726Y-37949D01*
X81712Y-37991D01*
X81543Y-38160D01*
X81726Y-38160D01*
X80995Y-39661D02*
X80995Y-39366D01*
X81066Y-39366D01*
X81108Y-39380D01*
X81136Y-39408D01*
X81150Y-39436D01*
X81164Y-39492D01*
X81164Y-39534D01*
X81150Y-39591D01*
X81136Y-39619D01*
X81108Y-39647D01*
X81066Y-39661D01*
X80995Y-39661D01*
X81417Y-39366D02*
X81361Y-39366D01*
X81332Y-39380D01*
X81318Y-39394D01*
X81290Y-39436D01*
X81276Y-39492D01*
X81276Y-39605D01*
X81290Y-39633D01*
X81304Y-39647D01*
X81332Y-39661D01*
X81389Y-39661D01*
X81417Y-39647D01*
X81431Y-39633D01*
X81445Y-39605D01*
X81445Y-39534D01*
X81431Y-39506D01*
X81417Y-39492D01*
X81389Y-39478D01*
X81332Y-39478D01*
X81304Y-39492D01*
X81290Y-39506D01*
X81276Y-39534D01*
X81543Y-39366D02*
X81726Y-39366D01*
X81627Y-39478D01*
X81670Y-39478D01*
X81698Y-39492D01*
X81712Y-39506D01*
X81726Y-39534D01*
X81726Y-39605D01*
X81712Y-39633D01*
X81698Y-39647D01*
X81670Y-39661D01*
X81585Y-39661D01*
X81557Y-39647D01*
X81543Y-39633D01*
X80995Y-41162D02*
X80995Y-40867D01*
X81066Y-40867D01*
X81108Y-40881D01*
X81136Y-40909D01*
X81150Y-40937D01*
X81164Y-40993D01*
X81164Y-41035D01*
X81150Y-41092D01*
X81136Y-41120D01*
X81108Y-41148D01*
X81066Y-41162D01*
X80995Y-41162D01*
X81417Y-40867D02*
X81361Y-40867D01*
X81332Y-40881D01*
X81318Y-40895D01*
X81290Y-40937D01*
X81276Y-40993D01*
X81276Y-41106D01*
X81290Y-41134D01*
X81304Y-41148D01*
X81332Y-41162D01*
X81389Y-41162D01*
X81417Y-41148D01*
X81431Y-41134D01*
X81445Y-41106D01*
X81445Y-41035D01*
X81431Y-41007D01*
X81417Y-40993D01*
X81389Y-40979D01*
X81332Y-40979D01*
X81304Y-40993D01*
X81290Y-41007D01*
X81276Y-41035D01*
X81698Y-40965D02*
X81698Y-41162D01*
X81627Y-40853D02*
X81557Y-41064D01*
X81740Y-41064D01*
X80995Y-42663D02*
X80995Y-42368D01*
X81066Y-42368D01*
X81108Y-42382D01*
X81136Y-42410D01*
X81150Y-42438D01*
X81164Y-42494D01*
X81164Y-42536D01*
X81150Y-42593D01*
X81136Y-42621D01*
X81108Y-42649D01*
X81066Y-42663D01*
X80995Y-42663D01*
X81417Y-42368D02*
X81361Y-42368D01*
X81332Y-42382D01*
X81318Y-42396D01*
X81290Y-42438D01*
X81276Y-42494D01*
X81276Y-42607D01*
X81290Y-42635D01*
X81304Y-42649D01*
X81332Y-42663D01*
X81389Y-42663D01*
X81417Y-42649D01*
X81431Y-42635D01*
X81445Y-42607D01*
X81445Y-42536D01*
X81431Y-42508D01*
X81417Y-42494D01*
X81389Y-42480D01*
X81332Y-42480D01*
X81304Y-42494D01*
X81290Y-42508D01*
X81276Y-42536D01*
X81712Y-42368D02*
X81571Y-42368D01*
X81557Y-42508D01*
X81571Y-42494D01*
X81599Y-42480D01*
X81670Y-42480D01*
X81698Y-42494D01*
X81712Y-42508D01*
X81726Y-42536D01*
X81726Y-42607D01*
X81712Y-42635D01*
X81698Y-42649D01*
X81670Y-42663D01*
X81599Y-42663D01*
X81571Y-42649D01*
X81557Y-42635D01*
X80995Y-44164D02*
X80995Y-43869D01*
X81066Y-43869D01*
X81108Y-43883D01*
X81136Y-43911D01*
X81150Y-43939D01*
X81164Y-43995D01*
X81164Y-44037D01*
X81150Y-44094D01*
X81136Y-44122D01*
X81108Y-44150D01*
X81066Y-44164D01*
X80995Y-44164D01*
X81417Y-43869D02*
X81361Y-43869D01*
X81332Y-43883D01*
X81318Y-43897D01*
X81290Y-43939D01*
X81276Y-43995D01*
X81276Y-44108D01*
X81290Y-44136D01*
X81304Y-44150D01*
X81332Y-44164D01*
X81389Y-44164D01*
X81417Y-44150D01*
X81431Y-44136D01*
X81445Y-44108D01*
X81445Y-44037D01*
X81431Y-44009D01*
X81417Y-43995D01*
X81389Y-43981D01*
X81332Y-43981D01*
X81304Y-43995D01*
X81290Y-44009D01*
X81276Y-44037D01*
X81698Y-43869D02*
X81641Y-43869D01*
X81613Y-43883D01*
X81599Y-43897D01*
X81571Y-43939D01*
X81557Y-43995D01*
X81557Y-44108D01*
X81571Y-44136D01*
X81585Y-44150D01*
X81613Y-44164D01*
X81670Y-44164D01*
X81698Y-44150D01*
X81712Y-44136D01*
X81726Y-44108D01*
X81726Y-44037D01*
X81712Y-44009D01*
X81698Y-43995D01*
X81670Y-43981D01*
X81613Y-43981D01*
X81585Y-43995D01*
X81571Y-44009D01*
X81557Y-44037D01*
X80997Y-45714D02*
X80997Y-45419D01*
X81068Y-45419D01*
X81110Y-45433D01*
X81138Y-45461D01*
X81152Y-45489D01*
X81166Y-45545D01*
X81166Y-45587D01*
X81152Y-45644D01*
X81138Y-45672D01*
X81110Y-45700D01*
X81068Y-45714D01*
X80997Y-45714D01*
X81419Y-45419D02*
X81363Y-45419D01*
X81334Y-45433D01*
X81320Y-45447D01*
X81292Y-45489D01*
X81278Y-45545D01*
X81278Y-45658D01*
X81292Y-45686D01*
X81306Y-45700D01*
X81334Y-45714D01*
X81391Y-45714D01*
X81419Y-45700D01*
X81433Y-45686D01*
X81447Y-45658D01*
X81447Y-45587D01*
X81433Y-45559D01*
X81419Y-45545D01*
X81391Y-45531D01*
X81334Y-45531D01*
X81306Y-45545D01*
X81292Y-45559D01*
X81278Y-45587D01*
X81545Y-45419D02*
X81742Y-45419D01*
X81615Y-45714D01*
X80995Y-47166D02*
X80995Y-46871D01*
X81066Y-46871D01*
X81108Y-46885D01*
X81136Y-46913D01*
X81150Y-46941D01*
X81164Y-46997D01*
X81164Y-47039D01*
X81150Y-47096D01*
X81136Y-47124D01*
X81108Y-47152D01*
X81066Y-47166D01*
X80995Y-47166D01*
X81417Y-46871D02*
X81361Y-46871D01*
X81332Y-46885D01*
X81318Y-46899D01*
X81290Y-46941D01*
X81276Y-46997D01*
X81276Y-47110D01*
X81290Y-47138D01*
X81304Y-47152D01*
X81332Y-47166D01*
X81389Y-47166D01*
X81417Y-47152D01*
X81431Y-47138D01*
X81445Y-47110D01*
X81445Y-47039D01*
X81431Y-47011D01*
X81417Y-46997D01*
X81389Y-46983D01*
X81332Y-46983D01*
X81304Y-46997D01*
X81290Y-47011D01*
X81276Y-47039D01*
X81613Y-46997D02*
X81585Y-46983D01*
X81571Y-46969D01*
X81557Y-46941D01*
X81557Y-46927D01*
X81571Y-46899D01*
X81585Y-46885D01*
X81613Y-46871D01*
X81670Y-46871D01*
X81698Y-46885D01*
X81712Y-46899D01*
X81726Y-46927D01*
X81726Y-46941D01*
X81712Y-46969D01*
X81698Y-46983D01*
X81670Y-46997D01*
X81613Y-46997D01*
X81585Y-47011D01*
X81571Y-47025D01*
X81557Y-47054D01*
X81557Y-47110D01*
X81571Y-47138D01*
X81585Y-47152D01*
X81613Y-47166D01*
X81670Y-47166D01*
X81698Y-47152D01*
X81712Y-47138D01*
X81726Y-47110D01*
X81726Y-47054D01*
X81712Y-47025D01*
X81698Y-47011D01*
X81670Y-46997D01*
X80995Y-48667D02*
X80995Y-48372D01*
X81066Y-48372D01*
X81108Y-48386D01*
X81136Y-48414D01*
X81150Y-48442D01*
X81164Y-48498D01*
X81164Y-48540D01*
X81150Y-48597D01*
X81136Y-48625D01*
X81108Y-48653D01*
X81066Y-48667D01*
X80995Y-48667D01*
X81417Y-48372D02*
X81361Y-48372D01*
X81332Y-48386D01*
X81318Y-48400D01*
X81290Y-48442D01*
X81276Y-48498D01*
X81276Y-48611D01*
X81290Y-48639D01*
X81304Y-48653D01*
X81332Y-48667D01*
X81389Y-48667D01*
X81417Y-48653D01*
X81431Y-48639D01*
X81445Y-48611D01*
X81445Y-48540D01*
X81431Y-48512D01*
X81417Y-48498D01*
X81389Y-48484D01*
X81332Y-48484D01*
X81304Y-48498D01*
X81290Y-48512D01*
X81276Y-48540D01*
X81585Y-48667D02*
X81641Y-48667D01*
X81670Y-48653D01*
X81684Y-48639D01*
X81712Y-48597D01*
X81726Y-48540D01*
X81726Y-48428D01*
X81712Y-48400D01*
X81698Y-48386D01*
X81670Y-48372D01*
X81613Y-48372D01*
X81585Y-48386D01*
X81571Y-48400D01*
X81557Y-48428D01*
X81557Y-48498D01*
X81571Y-48526D01*
X81585Y-48540D01*
X81613Y-48555D01*
X81670Y-48555D01*
X81698Y-48540D01*
X81712Y-48526D01*
X81726Y-48498D01*
X80995Y-50168D02*
X80995Y-49873D01*
X81066Y-49873D01*
X81108Y-49887D01*
X81136Y-49915D01*
X81150Y-49943D01*
X81164Y-49999D01*
X81164Y-50041D01*
X81150Y-50098D01*
X81136Y-50126D01*
X81108Y-50154D01*
X81066Y-50168D01*
X80995Y-50168D01*
X81262Y-49873D02*
X81459Y-49873D01*
X81332Y-50168D01*
X81627Y-49873D02*
X81656Y-49873D01*
X81684Y-49887D01*
X81698Y-49901D01*
X81712Y-49929D01*
X81726Y-49985D01*
X81726Y-50056D01*
X81712Y-50112D01*
X81698Y-50140D01*
X81684Y-50154D01*
X81656Y-50168D01*
X81627Y-50168D01*
X81599Y-50154D01*
X81585Y-50140D01*
X81571Y-50112D01*
X81557Y-50056D01*
X81557Y-49985D01*
X81571Y-49929D01*
X81585Y-49901D01*
X81599Y-49887D01*
X81627Y-49873D01*
X80995Y-51669D02*
X80995Y-51374D01*
X81066Y-51374D01*
X81108Y-51388D01*
X81136Y-51416D01*
X81150Y-51444D01*
X81164Y-51500D01*
X81164Y-51542D01*
X81150Y-51599D01*
X81136Y-51627D01*
X81108Y-51655D01*
X81066Y-51669D01*
X80995Y-51669D01*
X81262Y-51374D02*
X81459Y-51374D01*
X81332Y-51669D01*
X81726Y-51669D02*
X81557Y-51669D01*
X81641Y-51669D02*
X81641Y-51374D01*
X81613Y-51416D01*
X81585Y-51444D01*
X81557Y-51458D01*
X80995Y-53170D02*
X80995Y-52875D01*
X81066Y-52875D01*
X81108Y-52889D01*
X81136Y-52917D01*
X81150Y-52945D01*
X81164Y-53001D01*
X81164Y-53043D01*
X81150Y-53100D01*
X81136Y-53128D01*
X81108Y-53156D01*
X81066Y-53170D01*
X80995Y-53170D01*
X81262Y-52875D02*
X81459Y-52875D01*
X81332Y-53170D01*
X81557Y-52903D02*
X81571Y-52889D01*
X81599Y-52875D01*
X81670Y-52875D01*
X81698Y-52889D01*
X81712Y-52903D01*
X81726Y-52931D01*
X81726Y-52959D01*
X81712Y-53001D01*
X81543Y-53170D01*
X81726Y-53170D01*
X80995Y-54671D02*
X80995Y-54376D01*
X81066Y-54376D01*
X81108Y-54390D01*
X81136Y-54418D01*
X81150Y-54446D01*
X81164Y-54502D01*
X81164Y-54544D01*
X81150Y-54601D01*
X81136Y-54629D01*
X81108Y-54657D01*
X81066Y-54671D01*
X80995Y-54671D01*
X81262Y-54376D02*
X81459Y-54376D01*
X81332Y-54671D01*
X81543Y-54376D02*
X81726Y-54376D01*
X81627Y-54488D01*
X81670Y-54488D01*
X81698Y-54502D01*
X81712Y-54516D01*
X81726Y-54544D01*
X81726Y-54615D01*
X81712Y-54643D01*
X81698Y-54657D01*
X81670Y-54671D01*
X81585Y-54671D01*
X81557Y-54657D01*
X81543Y-54643D01*
X80995Y-56172D02*
X80995Y-55877D01*
X81066Y-55877D01*
X81108Y-55891D01*
X81136Y-55919D01*
X81150Y-55947D01*
X81164Y-56003D01*
X81164Y-56045D01*
X81150Y-56102D01*
X81136Y-56130D01*
X81108Y-56158D01*
X81066Y-56172D01*
X80995Y-56172D01*
X81262Y-55877D02*
X81459Y-55877D01*
X81332Y-56172D01*
X81698Y-55975D02*
X81698Y-56172D01*
X81627Y-55863D02*
X81557Y-56074D01*
X81740Y-56074D01*
X80995Y-57673D02*
X80995Y-57378D01*
X81066Y-57378D01*
X81108Y-57392D01*
X81136Y-57420D01*
X81150Y-57448D01*
X81164Y-57504D01*
X81164Y-57546D01*
X81150Y-57603D01*
X81136Y-57631D01*
X81108Y-57659D01*
X81066Y-57673D01*
X80995Y-57673D01*
X81262Y-57378D02*
X81459Y-57378D01*
X81332Y-57673D01*
X81712Y-57378D02*
X81571Y-57378D01*
X81557Y-57518D01*
X81571Y-57504D01*
X81599Y-57490D01*
X81670Y-57490D01*
X81698Y-57504D01*
X81712Y-57518D01*
X81726Y-57546D01*
X81726Y-57617D01*
X81712Y-57645D01*
X81698Y-57659D01*
X81670Y-57673D01*
X81599Y-57673D01*
X81571Y-57659D01*
X81557Y-57645D01*
X50995Y-36659D02*
X50995Y-36364D01*
X51066Y-36364D01*
X51108Y-36378D01*
X51136Y-36406D01*
X51150Y-36434D01*
X51164Y-36490D01*
X51164Y-36532D01*
X51150Y-36589D01*
X51136Y-36617D01*
X51108Y-36645D01*
X51066Y-36659D01*
X50995Y-36659D01*
X51445Y-36659D02*
X51276Y-36659D01*
X51361Y-36659D02*
X51361Y-36364D01*
X51332Y-36406D01*
X51304Y-36434D01*
X51276Y-36448D01*
X51698Y-36364D02*
X51641Y-36364D01*
X51613Y-36378D01*
X51599Y-36392D01*
X51571Y-36434D01*
X51557Y-36490D01*
X51557Y-36603D01*
X51571Y-36631D01*
X51585Y-36645D01*
X51613Y-36659D01*
X51670Y-36659D01*
X51698Y-36645D01*
X51712Y-36631D01*
X51726Y-36603D01*
X51726Y-36532D01*
X51712Y-36504D01*
X51698Y-36490D01*
X51670Y-36476D01*
X51613Y-36476D01*
X51585Y-36490D01*
X51571Y-36504D01*
X51557Y-36532D01*
X50995Y-38160D02*
X50995Y-37865D01*
X51066Y-37865D01*
X51108Y-37879D01*
X51136Y-37907D01*
X51150Y-37935D01*
X51164Y-37991D01*
X51164Y-38033D01*
X51150Y-38090D01*
X51136Y-38118D01*
X51108Y-38146D01*
X51066Y-38160D01*
X50995Y-38160D01*
X51445Y-38160D02*
X51276Y-38160D01*
X51361Y-38160D02*
X51361Y-37865D01*
X51332Y-37907D01*
X51304Y-37935D01*
X51276Y-37949D01*
X51543Y-37865D02*
X51740Y-37865D01*
X51613Y-38160D01*
X50995Y-39661D02*
X50995Y-39366D01*
X51066Y-39366D01*
X51108Y-39380D01*
X51136Y-39408D01*
X51150Y-39436D01*
X51164Y-39492D01*
X51164Y-39534D01*
X51150Y-39591D01*
X51136Y-39619D01*
X51108Y-39647D01*
X51066Y-39661D01*
X50995Y-39661D01*
X51445Y-39661D02*
X51276Y-39661D01*
X51361Y-39661D02*
X51361Y-39366D01*
X51332Y-39408D01*
X51304Y-39436D01*
X51276Y-39450D01*
X51613Y-39492D02*
X51585Y-39478D01*
X51571Y-39464D01*
X51557Y-39436D01*
X51557Y-39422D01*
X51571Y-39394D01*
X51585Y-39380D01*
X51613Y-39366D01*
X51670Y-39366D01*
X51698Y-39380D01*
X51712Y-39394D01*
X51726Y-39422D01*
X51726Y-39436D01*
X51712Y-39464D01*
X51698Y-39478D01*
X51670Y-39492D01*
X51613Y-39492D01*
X51585Y-39506D01*
X51571Y-39520D01*
X51557Y-39549D01*
X51557Y-39605D01*
X51571Y-39633D01*
X51585Y-39647D01*
X51613Y-39661D01*
X51670Y-39661D01*
X51698Y-39647D01*
X51712Y-39633D01*
X51726Y-39605D01*
X51726Y-39549D01*
X51712Y-39520D01*
X51698Y-39506D01*
X51670Y-39492D01*
X50995Y-41162D02*
X50995Y-40867D01*
X51066Y-40867D01*
X51108Y-40881D01*
X51136Y-40909D01*
X51150Y-40937D01*
X51164Y-40993D01*
X51164Y-41035D01*
X51150Y-41092D01*
X51136Y-41120D01*
X51108Y-41148D01*
X51066Y-41162D01*
X50995Y-41162D01*
X51445Y-41162D02*
X51276Y-41162D01*
X51361Y-41162D02*
X51361Y-40867D01*
X51332Y-40909D01*
X51304Y-40937D01*
X51276Y-40951D01*
X51585Y-41162D02*
X51641Y-41162D01*
X51670Y-41148D01*
X51684Y-41134D01*
X51712Y-41092D01*
X51726Y-41035D01*
X51726Y-40923D01*
X51712Y-40895D01*
X51698Y-40881D01*
X51670Y-40867D01*
X51613Y-40867D01*
X51585Y-40881D01*
X51571Y-40895D01*
X51557Y-40923D01*
X51557Y-40993D01*
X51571Y-41021D01*
X51585Y-41035D01*
X51613Y-41050D01*
X51670Y-41050D01*
X51698Y-41035D01*
X51712Y-41021D01*
X51726Y-40993D01*
X50995Y-42663D02*
X50995Y-42368D01*
X51066Y-42368D01*
X51108Y-42382D01*
X51136Y-42410D01*
X51150Y-42438D01*
X51164Y-42494D01*
X51164Y-42536D01*
X51150Y-42593D01*
X51136Y-42621D01*
X51108Y-42649D01*
X51066Y-42663D01*
X50995Y-42663D01*
X51276Y-42396D02*
X51290Y-42382D01*
X51318Y-42368D01*
X51389Y-42368D01*
X51417Y-42382D01*
X51431Y-42396D01*
X51445Y-42424D01*
X51445Y-42452D01*
X51431Y-42494D01*
X51262Y-42663D01*
X51445Y-42663D01*
X51627Y-42368D02*
X51656Y-42368D01*
X51684Y-42382D01*
X51698Y-42396D01*
X51712Y-42424D01*
X51726Y-42480D01*
X51726Y-42551D01*
X51712Y-42607D01*
X51698Y-42635D01*
X51684Y-42649D01*
X51656Y-42663D01*
X51627Y-42663D01*
X51599Y-42649D01*
X51585Y-42635D01*
X51571Y-42607D01*
X51557Y-42551D01*
X51557Y-42480D01*
X51571Y-42424D01*
X51585Y-42396D01*
X51599Y-42382D01*
X51627Y-42368D01*
X50995Y-44164D02*
X50995Y-43869D01*
X51066Y-43869D01*
X51108Y-43883D01*
X51136Y-43911D01*
X51150Y-43939D01*
X51164Y-43995D01*
X51164Y-44037D01*
X51150Y-44094D01*
X51136Y-44122D01*
X51108Y-44150D01*
X51066Y-44164D01*
X50995Y-44164D01*
X51276Y-43897D02*
X51290Y-43883D01*
X51318Y-43869D01*
X51389Y-43869D01*
X51417Y-43883D01*
X51431Y-43897D01*
X51445Y-43925D01*
X51445Y-43953D01*
X51431Y-43995D01*
X51262Y-44164D01*
X51445Y-44164D01*
X51726Y-44164D02*
X51557Y-44164D01*
X51641Y-44164D02*
X51641Y-43869D01*
X51613Y-43911D01*
X51585Y-43939D01*
X51557Y-43953D01*
X50995Y-45665D02*
X50995Y-45370D01*
X51066Y-45370D01*
X51108Y-45384D01*
X51136Y-45412D01*
X51150Y-45440D01*
X51164Y-45496D01*
X51164Y-45538D01*
X51150Y-45595D01*
X51136Y-45623D01*
X51108Y-45651D01*
X51066Y-45665D01*
X50995Y-45665D01*
X51276Y-45398D02*
X51290Y-45384D01*
X51318Y-45370D01*
X51389Y-45370D01*
X51417Y-45384D01*
X51431Y-45398D01*
X51445Y-45426D01*
X51445Y-45454D01*
X51431Y-45496D01*
X51262Y-45665D01*
X51445Y-45665D01*
X51557Y-45398D02*
X51571Y-45384D01*
X51599Y-45370D01*
X51670Y-45370D01*
X51698Y-45384D01*
X51712Y-45398D01*
X51726Y-45426D01*
X51726Y-45454D01*
X51712Y-45496D01*
X51543Y-45665D01*
X51726Y-45665D01*
X50995Y-47166D02*
X50995Y-46871D01*
X51066Y-46871D01*
X51108Y-46885D01*
X51136Y-46913D01*
X51150Y-46941D01*
X51164Y-46997D01*
X51164Y-47039D01*
X51150Y-47096D01*
X51136Y-47124D01*
X51108Y-47152D01*
X51066Y-47166D01*
X50995Y-47166D01*
X51276Y-46899D02*
X51290Y-46885D01*
X51318Y-46871D01*
X51389Y-46871D01*
X51417Y-46885D01*
X51431Y-46899D01*
X51445Y-46927D01*
X51445Y-46955D01*
X51431Y-46997D01*
X51262Y-47166D01*
X51445Y-47166D01*
X51543Y-46871D02*
X51726Y-46871D01*
X51627Y-46983D01*
X51670Y-46983D01*
X51698Y-46997D01*
X51712Y-47011D01*
X51726Y-47039D01*
X51726Y-47110D01*
X51712Y-47138D01*
X51698Y-47152D01*
X51670Y-47166D01*
X51585Y-47166D01*
X51557Y-47152D01*
X51543Y-47138D01*
X50995Y-48667D02*
X50995Y-48372D01*
X51066Y-48372D01*
X51108Y-48386D01*
X51136Y-48414D01*
X51150Y-48442D01*
X51164Y-48498D01*
X51164Y-48540D01*
X51150Y-48597D01*
X51136Y-48625D01*
X51108Y-48653D01*
X51066Y-48667D01*
X50995Y-48667D01*
X51276Y-48400D02*
X51290Y-48386D01*
X51318Y-48372D01*
X51389Y-48372D01*
X51417Y-48386D01*
X51431Y-48400D01*
X51445Y-48428D01*
X51445Y-48456D01*
X51431Y-48498D01*
X51262Y-48667D01*
X51445Y-48667D01*
X51698Y-48470D02*
X51698Y-48667D01*
X51627Y-48358D02*
X51557Y-48569D01*
X51740Y-48569D01*
X50995Y-50168D02*
X50995Y-49873D01*
X51066Y-49873D01*
X51108Y-49887D01*
X51136Y-49915D01*
X51150Y-49943D01*
X51164Y-49999D01*
X51164Y-50041D01*
X51150Y-50098D01*
X51136Y-50126D01*
X51108Y-50154D01*
X51066Y-50168D01*
X50995Y-50168D01*
X51276Y-49901D02*
X51290Y-49887D01*
X51318Y-49873D01*
X51389Y-49873D01*
X51417Y-49887D01*
X51431Y-49901D01*
X51445Y-49929D01*
X51445Y-49957D01*
X51431Y-49999D01*
X51262Y-50168D01*
X51445Y-50168D01*
X51712Y-49873D02*
X51571Y-49873D01*
X51557Y-50013D01*
X51571Y-49999D01*
X51599Y-49985D01*
X51670Y-49985D01*
X51698Y-49999D01*
X51712Y-50013D01*
X51726Y-50041D01*
X51726Y-50112D01*
X51712Y-50140D01*
X51698Y-50154D01*
X51670Y-50168D01*
X51599Y-50168D01*
X51571Y-50154D01*
X51557Y-50140D01*
X50995Y-51669D02*
X50995Y-51374D01*
X51066Y-51374D01*
X51108Y-51388D01*
X51136Y-51416D01*
X51150Y-51444D01*
X51164Y-51500D01*
X51164Y-51542D01*
X51150Y-51599D01*
X51136Y-51627D01*
X51108Y-51655D01*
X51066Y-51669D01*
X50995Y-51669D01*
X51276Y-51402D02*
X51290Y-51388D01*
X51318Y-51374D01*
X51389Y-51374D01*
X51417Y-51388D01*
X51431Y-51402D01*
X51445Y-51430D01*
X51445Y-51458D01*
X51431Y-51500D01*
X51262Y-51669D01*
X51445Y-51669D01*
X51698Y-51374D02*
X51641Y-51374D01*
X51613Y-51388D01*
X51599Y-51402D01*
X51571Y-51444D01*
X51557Y-51500D01*
X51557Y-51613D01*
X51571Y-51641D01*
X51585Y-51655D01*
X51613Y-51669D01*
X51670Y-51669D01*
X51698Y-51655D01*
X51712Y-51641D01*
X51726Y-51613D01*
X51726Y-51542D01*
X51712Y-51514D01*
X51698Y-51500D01*
X51670Y-51486D01*
X51613Y-51486D01*
X51585Y-51500D01*
X51571Y-51514D01*
X51557Y-51542D01*
X50995Y-53170D02*
X50995Y-52875D01*
X51066Y-52875D01*
X51108Y-52889D01*
X51136Y-52917D01*
X51150Y-52945D01*
X51164Y-53001D01*
X51164Y-53043D01*
X51150Y-53100D01*
X51136Y-53128D01*
X51108Y-53156D01*
X51066Y-53170D01*
X50995Y-53170D01*
X51276Y-52903D02*
X51290Y-52889D01*
X51318Y-52875D01*
X51389Y-52875D01*
X51417Y-52889D01*
X51431Y-52903D01*
X51445Y-52931D01*
X51445Y-52959D01*
X51431Y-53001D01*
X51262Y-53170D01*
X51445Y-53170D01*
X51543Y-52875D02*
X51740Y-52875D01*
X51613Y-53170D01*
X50995Y-54671D02*
X50995Y-54376D01*
X51066Y-54376D01*
X51108Y-54390D01*
X51136Y-54418D01*
X51150Y-54446D01*
X51164Y-54502D01*
X51164Y-54544D01*
X51150Y-54601D01*
X51136Y-54629D01*
X51108Y-54657D01*
X51066Y-54671D01*
X50995Y-54671D01*
X51276Y-54404D02*
X51290Y-54390D01*
X51318Y-54376D01*
X51389Y-54376D01*
X51417Y-54390D01*
X51431Y-54404D01*
X51445Y-54432D01*
X51445Y-54460D01*
X51431Y-54502D01*
X51262Y-54671D01*
X51445Y-54671D01*
X51613Y-54502D02*
X51585Y-54488D01*
X51571Y-54474D01*
X51557Y-54446D01*
X51557Y-54432D01*
X51571Y-54404D01*
X51585Y-54390D01*
X51613Y-54376D01*
X51670Y-54376D01*
X51698Y-54390D01*
X51712Y-54404D01*
X51726Y-54432D01*
X51726Y-54446D01*
X51712Y-54474D01*
X51698Y-54488D01*
X51670Y-54502D01*
X51613Y-54502D01*
X51585Y-54516D01*
X51571Y-54530D01*
X51557Y-54559D01*
X51557Y-54615D01*
X51571Y-54643D01*
X51585Y-54657D01*
X51613Y-54671D01*
X51670Y-54671D01*
X51698Y-54657D01*
X51712Y-54643D01*
X51726Y-54615D01*
X51726Y-54559D01*
X51712Y-54530D01*
X51698Y-54516D01*
X51670Y-54502D01*
X50995Y-56172D02*
X50995Y-55877D01*
X51066Y-55877D01*
X51108Y-55891D01*
X51136Y-55919D01*
X51150Y-55947D01*
X51164Y-56003D01*
X51164Y-56045D01*
X51150Y-56102D01*
X51136Y-56130D01*
X51108Y-56158D01*
X51066Y-56172D01*
X50995Y-56172D01*
X51276Y-55905D02*
X51290Y-55891D01*
X51318Y-55877D01*
X51389Y-55877D01*
X51417Y-55891D01*
X51431Y-55905D01*
X51445Y-55933D01*
X51445Y-55961D01*
X51431Y-56003D01*
X51262Y-56172D01*
X51445Y-56172D01*
X51585Y-56172D02*
X51641Y-56172D01*
X51670Y-56158D01*
X51684Y-56144D01*
X51712Y-56102D01*
X51726Y-56045D01*
X51726Y-55933D01*
X51712Y-55905D01*
X51698Y-55891D01*
X51670Y-55877D01*
X51613Y-55877D01*
X51585Y-55891D01*
X51571Y-55905D01*
X51557Y-55933D01*
X51557Y-56003D01*
X51571Y-56031D01*
X51585Y-56045D01*
X51613Y-56060D01*
X51670Y-56060D01*
X51698Y-56045D01*
X51712Y-56031D01*
X51726Y-56003D01*
X50995Y-57673D02*
X50995Y-57378D01*
X51066Y-57378D01*
X51108Y-57392D01*
X51136Y-57420D01*
X51150Y-57448D01*
X51164Y-57504D01*
X51164Y-57546D01*
X51150Y-57603D01*
X51136Y-57631D01*
X51108Y-57659D01*
X51066Y-57673D01*
X50995Y-57673D01*
X51262Y-57378D02*
X51445Y-57378D01*
X51346Y-57490D01*
X51389Y-57490D01*
X51417Y-57504D01*
X51431Y-57518D01*
X51445Y-57546D01*
X51445Y-57617D01*
X51431Y-57645D01*
X51417Y-57659D01*
X51389Y-57673D01*
X51304Y-57673D01*
X51276Y-57659D01*
X51262Y-57645D01*
X51627Y-57378D02*
X51656Y-57378D01*
X51684Y-57392D01*
X51698Y-57406D01*
X51712Y-57434D01*
X51726Y-57490D01*
X51726Y-57561D01*
X51712Y-57617D01*
X51698Y-57645D01*
X51684Y-57659D01*
X51656Y-57673D01*
X51627Y-57673D01*
X51599Y-57659D01*
X51585Y-57645D01*
X51571Y-57617D01*
X51557Y-57561D01*
X51557Y-57490D01*
X51571Y-57434D01*
X51585Y-57406D01*
X51599Y-57392D01*
X51627Y-57378D01*
X60995Y-36659D02*
X60995Y-36364D01*
X61066Y-36364D01*
X61108Y-36378D01*
X61136Y-36406D01*
X61150Y-36434D01*
X61164Y-36490D01*
X61164Y-36532D01*
X61150Y-36589D01*
X61136Y-36617D01*
X61108Y-36645D01*
X61066Y-36659D01*
X60995Y-36659D01*
X61262Y-36364D02*
X61445Y-36364D01*
X61346Y-36476D01*
X61389Y-36476D01*
X61417Y-36490D01*
X61431Y-36504D01*
X61445Y-36532D01*
X61445Y-36603D01*
X61431Y-36631D01*
X61417Y-36645D01*
X61389Y-36659D01*
X61304Y-36659D01*
X61276Y-36645D01*
X61262Y-36631D01*
X61726Y-36659D02*
X61557Y-36659D01*
X61641Y-36659D02*
X61641Y-36364D01*
X61613Y-36406D01*
X61585Y-36434D01*
X61557Y-36448D01*
X60995Y-38160D02*
X60995Y-37865D01*
X61066Y-37865D01*
X61108Y-37879D01*
X61136Y-37907D01*
X61150Y-37935D01*
X61164Y-37991D01*
X61164Y-38033D01*
X61150Y-38090D01*
X61136Y-38118D01*
X61108Y-38146D01*
X61066Y-38160D01*
X60995Y-38160D01*
X61262Y-37865D02*
X61445Y-37865D01*
X61346Y-37977D01*
X61389Y-37977D01*
X61417Y-37991D01*
X61431Y-38005D01*
X61445Y-38033D01*
X61445Y-38104D01*
X61431Y-38132D01*
X61417Y-38146D01*
X61389Y-38160D01*
X61304Y-38160D01*
X61276Y-38146D01*
X61262Y-38132D01*
X61557Y-37893D02*
X61571Y-37879D01*
X61599Y-37865D01*
X61670Y-37865D01*
X61698Y-37879D01*
X61712Y-37893D01*
X61726Y-37921D01*
X61726Y-37949D01*
X61712Y-37991D01*
X61543Y-38160D01*
X61726Y-38160D01*
X60995Y-39661D02*
X60995Y-39366D01*
X61066Y-39366D01*
X61108Y-39380D01*
X61136Y-39408D01*
X61150Y-39436D01*
X61164Y-39492D01*
X61164Y-39534D01*
X61150Y-39591D01*
X61136Y-39619D01*
X61108Y-39647D01*
X61066Y-39661D01*
X60995Y-39661D01*
X61262Y-39366D02*
X61445Y-39366D01*
X61346Y-39478D01*
X61389Y-39478D01*
X61417Y-39492D01*
X61431Y-39506D01*
X61445Y-39534D01*
X61445Y-39605D01*
X61431Y-39633D01*
X61417Y-39647D01*
X61389Y-39661D01*
X61304Y-39661D01*
X61276Y-39647D01*
X61262Y-39633D01*
X61543Y-39366D02*
X61726Y-39366D01*
X61627Y-39478D01*
X61670Y-39478D01*
X61698Y-39492D01*
X61712Y-39506D01*
X61726Y-39534D01*
X61726Y-39605D01*
X61712Y-39633D01*
X61698Y-39647D01*
X61670Y-39661D01*
X61585Y-39661D01*
X61557Y-39647D01*
X61543Y-39633D01*
X60995Y-41162D02*
X60995Y-40867D01*
X61066Y-40867D01*
X61108Y-40881D01*
X61136Y-40909D01*
X61150Y-40937D01*
X61164Y-40993D01*
X61164Y-41035D01*
X61150Y-41092D01*
X61136Y-41120D01*
X61108Y-41148D01*
X61066Y-41162D01*
X60995Y-41162D01*
X61262Y-40867D02*
X61445Y-40867D01*
X61346Y-40979D01*
X61389Y-40979D01*
X61417Y-40993D01*
X61431Y-41007D01*
X61445Y-41035D01*
X61445Y-41106D01*
X61431Y-41134D01*
X61417Y-41148D01*
X61389Y-41162D01*
X61304Y-41162D01*
X61276Y-41148D01*
X61262Y-41134D01*
X61698Y-40965D02*
X61698Y-41162D01*
X61627Y-40853D02*
X61557Y-41064D01*
X61740Y-41064D01*
X60995Y-42663D02*
X60995Y-42368D01*
X61066Y-42368D01*
X61108Y-42382D01*
X61136Y-42410D01*
X61150Y-42438D01*
X61164Y-42494D01*
X61164Y-42536D01*
X61150Y-42593D01*
X61136Y-42621D01*
X61108Y-42649D01*
X61066Y-42663D01*
X60995Y-42663D01*
X61262Y-42368D02*
X61445Y-42368D01*
X61346Y-42480D01*
X61389Y-42480D01*
X61417Y-42494D01*
X61431Y-42508D01*
X61445Y-42536D01*
X61445Y-42607D01*
X61431Y-42635D01*
X61417Y-42649D01*
X61389Y-42663D01*
X61304Y-42663D01*
X61276Y-42649D01*
X61262Y-42635D01*
X61712Y-42368D02*
X61571Y-42368D01*
X61557Y-42508D01*
X61571Y-42494D01*
X61599Y-42480D01*
X61670Y-42480D01*
X61698Y-42494D01*
X61712Y-42508D01*
X61726Y-42536D01*
X61726Y-42607D01*
X61712Y-42635D01*
X61698Y-42649D01*
X61670Y-42663D01*
X61599Y-42663D01*
X61571Y-42649D01*
X61557Y-42635D01*
X60995Y-44164D02*
X60995Y-43869D01*
X61066Y-43869D01*
X61108Y-43883D01*
X61136Y-43911D01*
X61150Y-43939D01*
X61164Y-43995D01*
X61164Y-44037D01*
X61150Y-44094D01*
X61136Y-44122D01*
X61108Y-44150D01*
X61066Y-44164D01*
X60995Y-44164D01*
X61262Y-43869D02*
X61445Y-43869D01*
X61346Y-43981D01*
X61389Y-43981D01*
X61417Y-43995D01*
X61431Y-44009D01*
X61445Y-44037D01*
X61445Y-44108D01*
X61431Y-44136D01*
X61417Y-44150D01*
X61389Y-44164D01*
X61304Y-44164D01*
X61276Y-44150D01*
X61262Y-44136D01*
X61698Y-43869D02*
X61641Y-43869D01*
X61613Y-43883D01*
X61599Y-43897D01*
X61571Y-43939D01*
X61557Y-43995D01*
X61557Y-44108D01*
X61571Y-44136D01*
X61585Y-44150D01*
X61613Y-44164D01*
X61670Y-44164D01*
X61698Y-44150D01*
X61712Y-44136D01*
X61726Y-44108D01*
X61726Y-44037D01*
X61712Y-44009D01*
X61698Y-43995D01*
X61670Y-43981D01*
X61613Y-43981D01*
X61585Y-43995D01*
X61571Y-44009D01*
X61557Y-44037D01*
X60995Y-45665D02*
X60995Y-45370D01*
X61066Y-45370D01*
X61108Y-45384D01*
X61136Y-45412D01*
X61150Y-45440D01*
X61164Y-45496D01*
X61164Y-45538D01*
X61150Y-45595D01*
X61136Y-45623D01*
X61108Y-45651D01*
X61066Y-45665D01*
X60995Y-45665D01*
X61262Y-45370D02*
X61445Y-45370D01*
X61346Y-45482D01*
X61389Y-45482D01*
X61417Y-45496D01*
X61431Y-45510D01*
X61445Y-45538D01*
X61445Y-45609D01*
X61431Y-45637D01*
X61417Y-45651D01*
X61389Y-45665D01*
X61304Y-45665D01*
X61276Y-45651D01*
X61262Y-45637D01*
X61543Y-45370D02*
X61740Y-45370D01*
X61613Y-45665D01*
X60995Y-47166D02*
X60995Y-46871D01*
X61066Y-46871D01*
X61108Y-46885D01*
X61136Y-46913D01*
X61150Y-46941D01*
X61164Y-46997D01*
X61164Y-47039D01*
X61150Y-47096D01*
X61136Y-47124D01*
X61108Y-47152D01*
X61066Y-47166D01*
X60995Y-47166D01*
X61262Y-46871D02*
X61445Y-46871D01*
X61346Y-46983D01*
X61389Y-46983D01*
X61417Y-46997D01*
X61431Y-47011D01*
X61445Y-47039D01*
X61445Y-47110D01*
X61431Y-47138D01*
X61417Y-47152D01*
X61389Y-47166D01*
X61304Y-47166D01*
X61276Y-47152D01*
X61262Y-47138D01*
X61613Y-46997D02*
X61585Y-46983D01*
X61571Y-46969D01*
X61557Y-46941D01*
X61557Y-46927D01*
X61571Y-46899D01*
X61585Y-46885D01*
X61613Y-46871D01*
X61670Y-46871D01*
X61698Y-46885D01*
X61712Y-46899D01*
X61726Y-46927D01*
X61726Y-46941D01*
X61712Y-46969D01*
X61698Y-46983D01*
X61670Y-46997D01*
X61613Y-46997D01*
X61585Y-47011D01*
X61571Y-47025D01*
X61557Y-47054D01*
X61557Y-47110D01*
X61571Y-47138D01*
X61585Y-47152D01*
X61613Y-47166D01*
X61670Y-47166D01*
X61698Y-47152D01*
X61712Y-47138D01*
X61726Y-47110D01*
X61726Y-47054D01*
X61712Y-47025D01*
X61698Y-47011D01*
X61670Y-46997D01*
X60995Y-48667D02*
X60995Y-48372D01*
X61066Y-48372D01*
X61108Y-48386D01*
X61136Y-48414D01*
X61150Y-48442D01*
X61164Y-48498D01*
X61164Y-48540D01*
X61150Y-48597D01*
X61136Y-48625D01*
X61108Y-48653D01*
X61066Y-48667D01*
X60995Y-48667D01*
X61262Y-48372D02*
X61445Y-48372D01*
X61346Y-48484D01*
X61389Y-48484D01*
X61417Y-48498D01*
X61431Y-48512D01*
X61445Y-48540D01*
X61445Y-48611D01*
X61431Y-48639D01*
X61417Y-48653D01*
X61389Y-48667D01*
X61304Y-48667D01*
X61276Y-48653D01*
X61262Y-48639D01*
X61585Y-48667D02*
X61641Y-48667D01*
X61670Y-48653D01*
X61684Y-48639D01*
X61712Y-48597D01*
X61726Y-48540D01*
X61726Y-48428D01*
X61712Y-48400D01*
X61698Y-48386D01*
X61670Y-48372D01*
X61613Y-48372D01*
X61585Y-48386D01*
X61571Y-48400D01*
X61557Y-48428D01*
X61557Y-48498D01*
X61571Y-48526D01*
X61585Y-48540D01*
X61613Y-48555D01*
X61670Y-48555D01*
X61698Y-48540D01*
X61712Y-48526D01*
X61726Y-48498D01*
X60995Y-50168D02*
X60995Y-49873D01*
X61066Y-49873D01*
X61108Y-49887D01*
X61136Y-49915D01*
X61150Y-49943D01*
X61164Y-49999D01*
X61164Y-50041D01*
X61150Y-50098D01*
X61136Y-50126D01*
X61108Y-50154D01*
X61066Y-50168D01*
X60995Y-50168D01*
X61417Y-49971D02*
X61417Y-50168D01*
X61346Y-49859D02*
X61276Y-50070D01*
X61459Y-50070D01*
X61627Y-49873D02*
X61656Y-49873D01*
X61684Y-49887D01*
X61698Y-49901D01*
X61712Y-49929D01*
X61726Y-49985D01*
X61726Y-50056D01*
X61712Y-50112D01*
X61698Y-50140D01*
X61684Y-50154D01*
X61656Y-50168D01*
X61627Y-50168D01*
X61599Y-50154D01*
X61585Y-50140D01*
X61571Y-50112D01*
X61557Y-50056D01*
X61557Y-49985D01*
X61571Y-49929D01*
X61585Y-49901D01*
X61599Y-49887D01*
X61627Y-49873D01*
X60995Y-51669D02*
X60995Y-51374D01*
X61066Y-51374D01*
X61108Y-51388D01*
X61136Y-51416D01*
X61150Y-51444D01*
X61164Y-51500D01*
X61164Y-51542D01*
X61150Y-51599D01*
X61136Y-51627D01*
X61108Y-51655D01*
X61066Y-51669D01*
X60995Y-51669D01*
X61417Y-51472D02*
X61417Y-51669D01*
X61346Y-51360D02*
X61276Y-51571D01*
X61459Y-51571D01*
X61726Y-51669D02*
X61557Y-51669D01*
X61641Y-51669D02*
X61641Y-51374D01*
X61613Y-51416D01*
X61585Y-51444D01*
X61557Y-51458D01*
X60995Y-53170D02*
X60995Y-52875D01*
X61066Y-52875D01*
X61108Y-52889D01*
X61136Y-52917D01*
X61150Y-52945D01*
X61164Y-53001D01*
X61164Y-53043D01*
X61150Y-53100D01*
X61136Y-53128D01*
X61108Y-53156D01*
X61066Y-53170D01*
X60995Y-53170D01*
X61417Y-52973D02*
X61417Y-53170D01*
X61346Y-52861D02*
X61276Y-53072D01*
X61459Y-53072D01*
X61557Y-52903D02*
X61571Y-52889D01*
X61599Y-52875D01*
X61670Y-52875D01*
X61698Y-52889D01*
X61712Y-52903D01*
X61726Y-52931D01*
X61726Y-52959D01*
X61712Y-53001D01*
X61543Y-53170D01*
X61726Y-53170D01*
X60995Y-54671D02*
X60995Y-54376D01*
X61066Y-54376D01*
X61108Y-54390D01*
X61136Y-54418D01*
X61150Y-54446D01*
X61164Y-54502D01*
X61164Y-54544D01*
X61150Y-54601D01*
X61136Y-54629D01*
X61108Y-54657D01*
X61066Y-54671D01*
X60995Y-54671D01*
X61417Y-54474D02*
X61417Y-54671D01*
X61346Y-54362D02*
X61276Y-54573D01*
X61459Y-54573D01*
X61543Y-54376D02*
X61726Y-54376D01*
X61627Y-54488D01*
X61670Y-54488D01*
X61698Y-54502D01*
X61712Y-54516D01*
X61726Y-54544D01*
X61726Y-54615D01*
X61712Y-54643D01*
X61698Y-54657D01*
X61670Y-54671D01*
X61585Y-54671D01*
X61557Y-54657D01*
X61543Y-54643D01*
X60995Y-56172D02*
X60995Y-55877D01*
X61066Y-55877D01*
X61108Y-55891D01*
X61136Y-55919D01*
X61150Y-55947D01*
X61164Y-56003D01*
X61164Y-56045D01*
X61150Y-56102D01*
X61136Y-56130D01*
X61108Y-56158D01*
X61066Y-56172D01*
X60995Y-56172D01*
X61417Y-55975D02*
X61417Y-56172D01*
X61346Y-55863D02*
X61276Y-56074D01*
X61459Y-56074D01*
X61698Y-55975D02*
X61698Y-56172D01*
X61627Y-55863D02*
X61557Y-56074D01*
X61740Y-56074D01*
X60995Y-57673D02*
X60995Y-57378D01*
X61066Y-57378D01*
X61108Y-57392D01*
X61136Y-57420D01*
X61150Y-57448D01*
X61164Y-57504D01*
X61164Y-57546D01*
X61150Y-57603D01*
X61136Y-57631D01*
X61108Y-57659D01*
X61066Y-57673D01*
X60995Y-57673D01*
X61417Y-57476D02*
X61417Y-57673D01*
X61346Y-57364D02*
X61276Y-57575D01*
X61459Y-57575D01*
X61712Y-57378D02*
X61571Y-57378D01*
X61557Y-57518D01*
X61571Y-57504D01*
X61599Y-57490D01*
X61670Y-57490D01*
X61698Y-57504D01*
X61712Y-57518D01*
X61726Y-57546D01*
X61726Y-57617D01*
X61712Y-57645D01*
X61698Y-57659D01*
X61670Y-57673D01*
X61599Y-57673D01*
X61571Y-57659D01*
X61557Y-57645D01*
X70995Y-36659D02*
X70995Y-36364D01*
X71066Y-36364D01*
X71108Y-36378D01*
X71136Y-36406D01*
X71150Y-36434D01*
X71164Y-36490D01*
X71164Y-36532D01*
X71150Y-36589D01*
X71136Y-36617D01*
X71108Y-36645D01*
X71066Y-36659D01*
X70995Y-36659D01*
X71417Y-36462D02*
X71417Y-36659D01*
X71346Y-36350D02*
X71276Y-36561D01*
X71459Y-36561D01*
X71698Y-36364D02*
X71641Y-36364D01*
X71613Y-36378D01*
X71599Y-36392D01*
X71571Y-36434D01*
X71557Y-36490D01*
X71557Y-36603D01*
X71571Y-36631D01*
X71585Y-36645D01*
X71613Y-36659D01*
X71670Y-36659D01*
X71698Y-36645D01*
X71712Y-36631D01*
X71726Y-36603D01*
X71726Y-36532D01*
X71712Y-36504D01*
X71698Y-36490D01*
X71670Y-36476D01*
X71613Y-36476D01*
X71585Y-36490D01*
X71571Y-36504D01*
X71557Y-36532D01*
X70995Y-38160D02*
X70995Y-37865D01*
X71066Y-37865D01*
X71108Y-37879D01*
X71136Y-37907D01*
X71150Y-37935D01*
X71164Y-37991D01*
X71164Y-38033D01*
X71150Y-38090D01*
X71136Y-38118D01*
X71108Y-38146D01*
X71066Y-38160D01*
X70995Y-38160D01*
X71417Y-37963D02*
X71417Y-38160D01*
X71346Y-37851D02*
X71276Y-38062D01*
X71459Y-38062D01*
X71543Y-37865D02*
X71740Y-37865D01*
X71613Y-38160D01*
X41288Y-58741D02*
X41190Y-58600D01*
X41120Y-58741D02*
X41120Y-58446D01*
X41232Y-58446D01*
X41260Y-58460D01*
X41274Y-58474D01*
X41288Y-58502D01*
X41288Y-58544D01*
X41274Y-58572D01*
X41260Y-58586D01*
X41232Y-58600D01*
X41120Y-58600D01*
X41569Y-58741D02*
X41401Y-58741D01*
X41485Y-58741D02*
X41485Y-58446D01*
X41457Y-58488D01*
X41429Y-58516D01*
X41401Y-58530D01*
X53020Y-58702D02*
X52922Y-58561D01*
X52852Y-58702D02*
X52852Y-58407D01*
X52964Y-58407D01*
X52992Y-58421D01*
X53006Y-58435D01*
X53020Y-58463D01*
X53020Y-58505D01*
X53006Y-58533D01*
X52992Y-58547D01*
X52964Y-58561D01*
X52852Y-58561D01*
X53133Y-58435D02*
X53147Y-58421D01*
X53175Y-58407D01*
X53245Y-58407D01*
X53273Y-58421D01*
X53287Y-58435D01*
X53301Y-58463D01*
X53301Y-58491D01*
X53287Y-58533D01*
X53119Y-58702D01*
X53301Y-58702D01*
X61288Y-58741D02*
X61190Y-58600D01*
X61120Y-58741D02*
X61120Y-58446D01*
X61232Y-58446D01*
X61260Y-58460D01*
X61274Y-58474D01*
X61288Y-58502D01*
X61288Y-58544D01*
X61274Y-58572D01*
X61260Y-58586D01*
X61232Y-58600D01*
X61120Y-58600D01*
X61387Y-58446D02*
X61569Y-58446D01*
X61471Y-58558D01*
X61513Y-58558D01*
X61541Y-58572D01*
X61555Y-58586D01*
X61569Y-58614D01*
X61569Y-58685D01*
X61555Y-58713D01*
X61541Y-58727D01*
X61513Y-58741D01*
X61429Y-58741D01*
X61401Y-58727D01*
X61387Y-58713D01*
X71288Y-58741D02*
X71190Y-58600D01*
X71120Y-58741D02*
X71120Y-58446D01*
X71232Y-58446D01*
X71260Y-58460D01*
X71274Y-58474D01*
X71288Y-58502D01*
X71288Y-58544D01*
X71274Y-58572D01*
X71260Y-58586D01*
X71232Y-58600D01*
X71120Y-58600D01*
X71541Y-58544D02*
X71541Y-58741D01*
X71471Y-58432D02*
X71401Y-58643D01*
X71583Y-58643D01*
X83020Y-58741D02*
X82922Y-58600D01*
X82852Y-58741D02*
X82852Y-58446D01*
X82964Y-58446D01*
X82992Y-58460D01*
X83006Y-58474D01*
X83020Y-58502D01*
X83020Y-58544D01*
X83006Y-58572D01*
X82992Y-58586D01*
X82964Y-58600D01*
X82852Y-58600D01*
X83287Y-58446D02*
X83147Y-58446D01*
X83133Y-58586D01*
X83147Y-58572D01*
X83175Y-58558D01*
X83245Y-58558D01*
X83273Y-58572D01*
X83287Y-58586D01*
X83301Y-58614D01*
X83301Y-58685D01*
X83287Y-58713D01*
X83273Y-58727D01*
X83245Y-58741D01*
X83175Y-58741D01*
X83147Y-58727D01*
X83133Y-58713D01*
M02*
