G04 (created by PCBNEW-RS274X (2011-07-19)-testing) date Fri 17 Feb 2012 12:26:42 PM PST*
G01*
G70*
G90*
%MOIN*%
G04 Gerber Fmt 3.4, Leading zero omitted, Abs format*
%FSLAX34Y34*%
G04 APERTURE LIST*
%ADD10C,0.006000*%
%ADD11R,0.080000X0.100000*%
%ADD12R,0.075000X0.055000*%
%ADD13R,0.079100X0.090900*%
%ADD14R,0.067200X0.090900*%
%ADD15C,0.153900*%
G04 APERTURE END LIST*
G54D10*
G54D11*
X37550Y-38000D03*
X38850Y-38000D03*
G54D12*
X47500Y-51327D03*
X47500Y-52077D03*
X47500Y-49752D03*
X47500Y-50502D03*
X47500Y-48177D03*
X47500Y-48927D03*
X47500Y-46602D03*
X47500Y-47352D03*
X47500Y-45027D03*
X47500Y-45777D03*
X47500Y-43453D03*
X47500Y-44203D03*
X47500Y-41878D03*
X47500Y-42628D03*
X47500Y-40303D03*
X47500Y-41053D03*
X47500Y-38728D03*
X47500Y-39478D03*
X47500Y-37153D03*
X47500Y-37903D03*
X47500Y-35579D03*
X47500Y-36329D03*
X47500Y-34004D03*
X47500Y-34754D03*
X47500Y-32429D03*
X47500Y-33179D03*
X47500Y-30854D03*
X47500Y-31604D03*
X47500Y-29279D03*
X47500Y-30029D03*
G54D13*
X29508Y-36398D03*
X30492Y-36398D03*
G54D14*
X29508Y-33602D03*
X30492Y-33602D03*
G54D15*
X26000Y-51450D03*
X26000Y-29350D03*
G54D11*
X37550Y-44050D03*
X38850Y-44050D03*
X37550Y-42500D03*
X38850Y-42500D03*
X37550Y-41000D03*
X38850Y-41000D03*
X37550Y-39500D03*
X38850Y-39500D03*
G54D12*
X87500Y-29279D03*
X87500Y-30029D03*
X77500Y-51327D03*
X77500Y-52077D03*
X77500Y-49752D03*
X77500Y-50502D03*
X77500Y-48177D03*
X77500Y-48927D03*
X77500Y-46602D03*
X77500Y-47352D03*
X77500Y-45027D03*
X77500Y-45777D03*
X77500Y-43453D03*
X77500Y-44203D03*
X77500Y-41878D03*
X77500Y-42628D03*
X77500Y-40303D03*
X77500Y-41053D03*
X77500Y-38728D03*
X77500Y-39478D03*
X77500Y-37153D03*
X77500Y-37903D03*
X77500Y-35579D03*
X77500Y-36329D03*
X77500Y-34004D03*
X77500Y-34754D03*
X77500Y-32429D03*
X77500Y-33179D03*
X87500Y-30854D03*
X87500Y-31604D03*
X87500Y-32429D03*
X87500Y-33179D03*
X87500Y-34004D03*
X87500Y-34754D03*
X87500Y-35579D03*
X87500Y-36329D03*
X87500Y-37153D03*
X87500Y-37903D03*
X87500Y-38728D03*
X87500Y-39478D03*
X87500Y-40303D03*
X87500Y-41053D03*
X87500Y-41878D03*
X87500Y-42628D03*
X87500Y-43453D03*
X87500Y-44203D03*
X87500Y-45027D03*
X87500Y-45777D03*
X87500Y-46602D03*
X87500Y-47352D03*
X87500Y-48177D03*
X87500Y-48927D03*
X87500Y-49752D03*
X87500Y-50502D03*
X87500Y-51327D03*
X87500Y-52077D03*
X57500Y-29279D03*
X57500Y-30029D03*
X57500Y-30854D03*
X57500Y-31604D03*
X57500Y-32429D03*
X57500Y-33179D03*
X57500Y-34004D03*
X57500Y-34754D03*
X57500Y-35579D03*
X57500Y-36329D03*
X57500Y-37153D03*
X57500Y-37903D03*
X57500Y-38728D03*
X57500Y-39478D03*
X57500Y-40303D03*
X57500Y-41053D03*
X57500Y-41878D03*
X57500Y-42628D03*
X57500Y-43453D03*
X57500Y-44203D03*
X57500Y-45027D03*
X57500Y-45777D03*
X57500Y-46602D03*
X57500Y-47352D03*
X57500Y-48177D03*
X57500Y-48927D03*
X57500Y-49752D03*
X57500Y-50502D03*
X57500Y-51327D03*
X57500Y-52077D03*
X67500Y-29279D03*
X67500Y-30029D03*
X67500Y-30854D03*
X67500Y-31604D03*
X67500Y-32429D03*
X67500Y-33179D03*
X67500Y-34004D03*
X67500Y-34754D03*
X67500Y-35579D03*
X67500Y-36329D03*
X67500Y-37153D03*
X67500Y-37903D03*
X67500Y-38728D03*
X67500Y-39478D03*
X67500Y-40303D03*
X67500Y-41053D03*
X67500Y-41878D03*
X67500Y-42628D03*
X67500Y-43453D03*
X67500Y-44203D03*
X67500Y-45027D03*
X67500Y-45777D03*
X67500Y-46602D03*
X67500Y-47352D03*
X67500Y-48177D03*
X67500Y-48927D03*
X67500Y-49752D03*
X67500Y-50502D03*
X67500Y-51327D03*
X67500Y-52077D03*
X77500Y-29279D03*
X77500Y-30029D03*
X77500Y-30854D03*
X77500Y-31604D03*
G54D15*
X94000Y-51450D03*
X94000Y-29350D03*
X43700Y-29350D03*
X43700Y-51450D03*
M02*
