G04 (created by PCBNEW-RS274X (2011-07-19)-testing) date Fri 17 Feb 2012 12:26:42 PM PST*
G01*
G70*
G90*
%MOIN*%
G04 Gerber Fmt 3.4, Leading zero omitted, Abs format*
%FSLAX34Y34*%
G04 APERTURE LIST*
%ADD10C,0.006000*%
%ADD11C,0.012000*%
%ADD12C,0.005000*%
%ADD13C,0.015000*%
%ADD14C,0.003900*%
G04 APERTURE END LIST*
G54D10*
G54D11*
X33186Y-30324D02*
X33186Y-29524D01*
X33586Y-29524D02*
X33700Y-29524D01*
X33758Y-29562D01*
X33815Y-29638D01*
X33843Y-29790D01*
X33843Y-30057D01*
X33815Y-30210D01*
X33758Y-30286D01*
X33700Y-30324D01*
X33586Y-30324D01*
X33529Y-30286D01*
X33472Y-30210D01*
X33443Y-30057D01*
X33443Y-29790D01*
X33472Y-29638D01*
X33529Y-29562D01*
X33586Y-29524D01*
X34901Y-30324D02*
X34701Y-29943D01*
X34558Y-30324D02*
X34558Y-29524D01*
X34786Y-29524D01*
X34844Y-29562D01*
X34872Y-29600D01*
X34901Y-29676D01*
X34901Y-29790D01*
X34872Y-29867D01*
X34844Y-29905D01*
X34786Y-29943D01*
X34558Y-29943D01*
X35244Y-30324D02*
X35186Y-30286D01*
X35158Y-30248D01*
X35129Y-30171D01*
X35129Y-29943D01*
X35158Y-29867D01*
X35186Y-29829D01*
X35244Y-29790D01*
X35329Y-29790D01*
X35386Y-29829D01*
X35415Y-29867D01*
X35444Y-29943D01*
X35444Y-30171D01*
X35415Y-30248D01*
X35386Y-30286D01*
X35329Y-30324D01*
X35244Y-30324D01*
X35958Y-30324D02*
X35958Y-29524D01*
X35958Y-30286D02*
X35901Y-30324D01*
X35787Y-30324D01*
X35729Y-30286D01*
X35701Y-30248D01*
X35672Y-30171D01*
X35672Y-29943D01*
X35701Y-29867D01*
X35729Y-29829D01*
X35787Y-29790D01*
X35901Y-29790D01*
X35958Y-29829D01*
X36472Y-30286D02*
X36415Y-30324D01*
X36301Y-30324D01*
X36244Y-30286D01*
X36215Y-30210D01*
X36215Y-29905D01*
X36244Y-29829D01*
X36301Y-29790D01*
X36415Y-29790D01*
X36472Y-29829D01*
X36501Y-29905D01*
X36501Y-29981D01*
X36215Y-30057D01*
X36844Y-30324D02*
X36786Y-30286D01*
X36758Y-30248D01*
X36729Y-30171D01*
X36729Y-29943D01*
X36758Y-29867D01*
X36786Y-29829D01*
X36844Y-29790D01*
X36929Y-29790D01*
X36986Y-29829D01*
X37015Y-29867D01*
X37044Y-29943D01*
X37044Y-30171D01*
X37015Y-30248D01*
X36986Y-30286D01*
X36929Y-30324D01*
X36844Y-30324D01*
X28645Y-30764D02*
X28359Y-30764D01*
X28330Y-31145D01*
X28359Y-31107D01*
X28416Y-31069D01*
X28559Y-31069D01*
X28616Y-31107D01*
X28645Y-31145D01*
X28673Y-31221D01*
X28673Y-31411D01*
X28645Y-31488D01*
X28616Y-31526D01*
X28559Y-31564D01*
X28416Y-31564D01*
X28359Y-31526D01*
X28330Y-31488D01*
X29644Y-31526D02*
X29587Y-31564D01*
X29473Y-31564D01*
X29415Y-31526D01*
X29387Y-31488D01*
X29358Y-31411D01*
X29358Y-31183D01*
X29387Y-31107D01*
X29415Y-31069D01*
X29473Y-31030D01*
X29587Y-31030D01*
X29644Y-31069D01*
X29901Y-31564D02*
X29901Y-30764D01*
X30158Y-31564D02*
X30158Y-31145D01*
X30129Y-31069D01*
X30072Y-31030D01*
X29987Y-31030D01*
X29929Y-31069D01*
X29901Y-31107D01*
X30701Y-31564D02*
X30701Y-31145D01*
X30672Y-31069D01*
X30615Y-31030D01*
X30501Y-31030D01*
X30444Y-31069D01*
X30701Y-31526D02*
X30644Y-31564D01*
X30501Y-31564D01*
X30444Y-31526D01*
X30415Y-31450D01*
X30415Y-31373D01*
X30444Y-31297D01*
X30501Y-31259D01*
X30644Y-31259D01*
X30701Y-31221D01*
X30987Y-31030D02*
X30987Y-31564D01*
X30987Y-31107D02*
X31015Y-31069D01*
X31073Y-31030D01*
X31158Y-31030D01*
X31215Y-31069D01*
X31244Y-31145D01*
X31244Y-31564D01*
X31530Y-31030D02*
X31530Y-31564D01*
X31530Y-31107D02*
X31558Y-31069D01*
X31616Y-31030D01*
X31701Y-31030D01*
X31758Y-31069D01*
X31787Y-31145D01*
X31787Y-31564D01*
X32301Y-31526D02*
X32244Y-31564D01*
X32130Y-31564D01*
X32073Y-31526D01*
X32044Y-31450D01*
X32044Y-31145D01*
X32073Y-31069D01*
X32130Y-31030D01*
X32244Y-31030D01*
X32301Y-31069D01*
X32330Y-31145D01*
X32330Y-31221D01*
X32044Y-31297D01*
X32673Y-31564D02*
X32615Y-31526D01*
X32587Y-31450D01*
X32587Y-30764D01*
X33615Y-31526D02*
X33558Y-31564D01*
X33444Y-31564D01*
X33386Y-31526D01*
X33358Y-31488D01*
X33329Y-31411D01*
X33329Y-31183D01*
X33358Y-31107D01*
X33386Y-31069D01*
X33444Y-31030D01*
X33558Y-31030D01*
X33615Y-31069D01*
X34129Y-31564D02*
X34129Y-31145D01*
X34100Y-31069D01*
X34043Y-31030D01*
X33929Y-31030D01*
X33872Y-31069D01*
X34129Y-31526D02*
X34072Y-31564D01*
X33929Y-31564D01*
X33872Y-31526D01*
X33843Y-31450D01*
X33843Y-31373D01*
X33872Y-31297D01*
X33929Y-31259D01*
X34072Y-31259D01*
X34129Y-31221D01*
X34415Y-31030D02*
X34415Y-31830D01*
X34415Y-31069D02*
X34472Y-31030D01*
X34586Y-31030D01*
X34643Y-31069D01*
X34672Y-31107D01*
X34701Y-31183D01*
X34701Y-31411D01*
X34672Y-31488D01*
X34643Y-31526D01*
X34586Y-31564D01*
X34472Y-31564D01*
X34415Y-31526D01*
X34958Y-31564D02*
X34958Y-31030D01*
X34958Y-30764D02*
X34929Y-30802D01*
X34958Y-30840D01*
X34986Y-30802D01*
X34958Y-30764D01*
X34958Y-30840D01*
X35330Y-31564D02*
X35272Y-31526D01*
X35244Y-31450D01*
X35244Y-30764D01*
X35644Y-31564D02*
X35586Y-31526D01*
X35558Y-31450D01*
X35558Y-30764D01*
X36129Y-31564D02*
X36129Y-31145D01*
X36100Y-31069D01*
X36043Y-31030D01*
X35929Y-31030D01*
X35872Y-31069D01*
X36129Y-31526D02*
X36072Y-31564D01*
X35929Y-31564D01*
X35872Y-31526D01*
X35843Y-31450D01*
X35843Y-31373D01*
X35872Y-31297D01*
X35929Y-31259D01*
X36072Y-31259D01*
X36129Y-31221D01*
X36415Y-31564D02*
X36415Y-31030D01*
X36415Y-31183D02*
X36443Y-31107D01*
X36472Y-31069D01*
X36529Y-31030D01*
X36586Y-31030D01*
X36729Y-31030D02*
X36872Y-31564D01*
X37014Y-31030D02*
X36872Y-31564D01*
X36814Y-31754D01*
X36786Y-31792D01*
X36729Y-31830D01*
X37986Y-31564D02*
X37700Y-31564D01*
X37700Y-30764D01*
X38186Y-31145D02*
X38386Y-31145D01*
X38472Y-31564D02*
X38186Y-31564D01*
X38186Y-30764D01*
X38472Y-30764D01*
X38729Y-31564D02*
X38729Y-30764D01*
X38872Y-30764D01*
X38957Y-30802D01*
X39015Y-30878D01*
X39043Y-30954D01*
X39072Y-31107D01*
X39072Y-31221D01*
X39043Y-31373D01*
X39015Y-31450D01*
X38957Y-31526D01*
X38872Y-31564D01*
X38729Y-31564D01*
X39729Y-31030D02*
X39872Y-31564D01*
X40014Y-31030D01*
X41014Y-31564D02*
X40671Y-31564D01*
X40843Y-31564D02*
X40843Y-30764D01*
X40786Y-30878D01*
X40728Y-30954D01*
X40671Y-30992D01*
X41271Y-31488D02*
X41299Y-31526D01*
X41271Y-31564D01*
X41242Y-31526D01*
X41271Y-31488D01*
X41271Y-31564D01*
X41671Y-30764D02*
X41728Y-30764D01*
X41785Y-30802D01*
X41814Y-30840D01*
X41843Y-30916D01*
X41871Y-31069D01*
X41871Y-31259D01*
X41843Y-31411D01*
X41814Y-31488D01*
X41785Y-31526D01*
X41728Y-31564D01*
X41671Y-31564D01*
X41614Y-31526D01*
X41585Y-31488D01*
X41557Y-31411D01*
X41528Y-31259D01*
X41528Y-31069D01*
X41557Y-30916D01*
X41585Y-30840D01*
X41614Y-30802D01*
X41671Y-30764D01*
G54D12*
X37200Y-37550D02*
X37200Y-38450D01*
X37200Y-38450D02*
X37850Y-38450D01*
X38550Y-37550D02*
X39200Y-37550D01*
X39200Y-37550D02*
X39200Y-38450D01*
X39200Y-38450D02*
X38550Y-38450D01*
X37850Y-37550D02*
X37200Y-37550D01*
X47250Y-51052D02*
X47249Y-51061D01*
X47246Y-51071D01*
X47241Y-51079D01*
X47235Y-51087D01*
X47227Y-51093D01*
X47219Y-51098D01*
X47210Y-51100D01*
X47200Y-51101D01*
X47191Y-51101D01*
X47182Y-51098D01*
X47173Y-51093D01*
X47166Y-51087D01*
X47159Y-51080D01*
X47155Y-51071D01*
X47152Y-51062D01*
X47151Y-51052D01*
X47151Y-51043D01*
X47154Y-51034D01*
X47158Y-51025D01*
X47165Y-51018D01*
X47172Y-51011D01*
X47180Y-51007D01*
X47190Y-51004D01*
X47199Y-51003D01*
X47208Y-51003D01*
X47218Y-51006D01*
X47226Y-51010D01*
X47234Y-51016D01*
X47240Y-51024D01*
X47245Y-51032D01*
X47248Y-51041D01*
X47249Y-51051D01*
X47250Y-51052D01*
X47200Y-51502D02*
X47200Y-51102D01*
X47200Y-51102D02*
X47800Y-51102D01*
X47800Y-51102D02*
X47800Y-51502D01*
X47800Y-51902D02*
X47800Y-52302D01*
X47800Y-52302D02*
X47200Y-52302D01*
X47200Y-52302D02*
X47200Y-51902D01*
X47250Y-49477D02*
X47249Y-49486D01*
X47246Y-49496D01*
X47241Y-49504D01*
X47235Y-49512D01*
X47227Y-49518D01*
X47219Y-49523D01*
X47210Y-49525D01*
X47200Y-49526D01*
X47191Y-49526D01*
X47182Y-49523D01*
X47173Y-49518D01*
X47166Y-49512D01*
X47159Y-49505D01*
X47155Y-49496D01*
X47152Y-49487D01*
X47151Y-49477D01*
X47151Y-49468D01*
X47154Y-49459D01*
X47158Y-49450D01*
X47165Y-49443D01*
X47172Y-49436D01*
X47180Y-49432D01*
X47190Y-49429D01*
X47199Y-49428D01*
X47208Y-49428D01*
X47218Y-49431D01*
X47226Y-49435D01*
X47234Y-49441D01*
X47240Y-49449D01*
X47245Y-49457D01*
X47248Y-49466D01*
X47249Y-49476D01*
X47250Y-49477D01*
X47200Y-49927D02*
X47200Y-49527D01*
X47200Y-49527D02*
X47800Y-49527D01*
X47800Y-49527D02*
X47800Y-49927D01*
X47800Y-50327D02*
X47800Y-50727D01*
X47800Y-50727D02*
X47200Y-50727D01*
X47200Y-50727D02*
X47200Y-50327D01*
X47250Y-47902D02*
X47249Y-47911D01*
X47246Y-47921D01*
X47241Y-47929D01*
X47235Y-47937D01*
X47227Y-47943D01*
X47219Y-47948D01*
X47210Y-47950D01*
X47200Y-47951D01*
X47191Y-47951D01*
X47182Y-47948D01*
X47173Y-47943D01*
X47166Y-47937D01*
X47159Y-47930D01*
X47155Y-47921D01*
X47152Y-47912D01*
X47151Y-47902D01*
X47151Y-47893D01*
X47154Y-47884D01*
X47158Y-47875D01*
X47165Y-47868D01*
X47172Y-47861D01*
X47180Y-47857D01*
X47190Y-47854D01*
X47199Y-47853D01*
X47208Y-47853D01*
X47218Y-47856D01*
X47226Y-47860D01*
X47234Y-47866D01*
X47240Y-47874D01*
X47245Y-47882D01*
X47248Y-47891D01*
X47249Y-47901D01*
X47250Y-47902D01*
X47200Y-48352D02*
X47200Y-47952D01*
X47200Y-47952D02*
X47800Y-47952D01*
X47800Y-47952D02*
X47800Y-48352D01*
X47800Y-48752D02*
X47800Y-49152D01*
X47800Y-49152D02*
X47200Y-49152D01*
X47200Y-49152D02*
X47200Y-48752D01*
X47250Y-46327D02*
X47249Y-46336D01*
X47246Y-46346D01*
X47241Y-46354D01*
X47235Y-46362D01*
X47227Y-46368D01*
X47219Y-46373D01*
X47210Y-46375D01*
X47200Y-46376D01*
X47191Y-46376D01*
X47182Y-46373D01*
X47173Y-46368D01*
X47166Y-46362D01*
X47159Y-46355D01*
X47155Y-46346D01*
X47152Y-46337D01*
X47151Y-46327D01*
X47151Y-46318D01*
X47154Y-46309D01*
X47158Y-46300D01*
X47165Y-46293D01*
X47172Y-46286D01*
X47180Y-46282D01*
X47190Y-46279D01*
X47199Y-46278D01*
X47208Y-46278D01*
X47218Y-46281D01*
X47226Y-46285D01*
X47234Y-46291D01*
X47240Y-46299D01*
X47245Y-46307D01*
X47248Y-46316D01*
X47249Y-46326D01*
X47250Y-46327D01*
X47200Y-46777D02*
X47200Y-46377D01*
X47200Y-46377D02*
X47800Y-46377D01*
X47800Y-46377D02*
X47800Y-46777D01*
X47800Y-47177D02*
X47800Y-47577D01*
X47800Y-47577D02*
X47200Y-47577D01*
X47200Y-47577D02*
X47200Y-47177D01*
X47250Y-44752D02*
X47249Y-44761D01*
X47246Y-44771D01*
X47241Y-44779D01*
X47235Y-44787D01*
X47227Y-44793D01*
X47219Y-44798D01*
X47210Y-44800D01*
X47200Y-44801D01*
X47191Y-44801D01*
X47182Y-44798D01*
X47173Y-44793D01*
X47166Y-44787D01*
X47159Y-44780D01*
X47155Y-44771D01*
X47152Y-44762D01*
X47151Y-44752D01*
X47151Y-44743D01*
X47154Y-44734D01*
X47158Y-44725D01*
X47165Y-44718D01*
X47172Y-44711D01*
X47180Y-44707D01*
X47190Y-44704D01*
X47199Y-44703D01*
X47208Y-44703D01*
X47218Y-44706D01*
X47226Y-44710D01*
X47234Y-44716D01*
X47240Y-44724D01*
X47245Y-44732D01*
X47248Y-44741D01*
X47249Y-44751D01*
X47250Y-44752D01*
X47200Y-45202D02*
X47200Y-44802D01*
X47200Y-44802D02*
X47800Y-44802D01*
X47800Y-44802D02*
X47800Y-45202D01*
X47800Y-45602D02*
X47800Y-46002D01*
X47800Y-46002D02*
X47200Y-46002D01*
X47200Y-46002D02*
X47200Y-45602D01*
X47250Y-43178D02*
X47249Y-43187D01*
X47246Y-43197D01*
X47241Y-43205D01*
X47235Y-43213D01*
X47227Y-43219D01*
X47219Y-43224D01*
X47210Y-43226D01*
X47200Y-43227D01*
X47191Y-43227D01*
X47182Y-43224D01*
X47173Y-43219D01*
X47166Y-43213D01*
X47159Y-43206D01*
X47155Y-43197D01*
X47152Y-43188D01*
X47151Y-43178D01*
X47151Y-43169D01*
X47154Y-43160D01*
X47158Y-43151D01*
X47165Y-43144D01*
X47172Y-43137D01*
X47180Y-43133D01*
X47190Y-43130D01*
X47199Y-43129D01*
X47208Y-43129D01*
X47218Y-43132D01*
X47226Y-43136D01*
X47234Y-43142D01*
X47240Y-43150D01*
X47245Y-43158D01*
X47248Y-43167D01*
X47249Y-43177D01*
X47250Y-43178D01*
X47200Y-43628D02*
X47200Y-43228D01*
X47200Y-43228D02*
X47800Y-43228D01*
X47800Y-43228D02*
X47800Y-43628D01*
X47800Y-44028D02*
X47800Y-44428D01*
X47800Y-44428D02*
X47200Y-44428D01*
X47200Y-44428D02*
X47200Y-44028D01*
X47250Y-41603D02*
X47249Y-41612D01*
X47246Y-41622D01*
X47241Y-41630D01*
X47235Y-41638D01*
X47227Y-41644D01*
X47219Y-41649D01*
X47210Y-41651D01*
X47200Y-41652D01*
X47191Y-41652D01*
X47182Y-41649D01*
X47173Y-41644D01*
X47166Y-41638D01*
X47159Y-41631D01*
X47155Y-41622D01*
X47152Y-41613D01*
X47151Y-41603D01*
X47151Y-41594D01*
X47154Y-41585D01*
X47158Y-41576D01*
X47165Y-41569D01*
X47172Y-41562D01*
X47180Y-41558D01*
X47190Y-41555D01*
X47199Y-41554D01*
X47208Y-41554D01*
X47218Y-41557D01*
X47226Y-41561D01*
X47234Y-41567D01*
X47240Y-41575D01*
X47245Y-41583D01*
X47248Y-41592D01*
X47249Y-41602D01*
X47250Y-41603D01*
X47200Y-42053D02*
X47200Y-41653D01*
X47200Y-41653D02*
X47800Y-41653D01*
X47800Y-41653D02*
X47800Y-42053D01*
X47800Y-42453D02*
X47800Y-42853D01*
X47800Y-42853D02*
X47200Y-42853D01*
X47200Y-42853D02*
X47200Y-42453D01*
X47250Y-40028D02*
X47249Y-40037D01*
X47246Y-40047D01*
X47241Y-40055D01*
X47235Y-40063D01*
X47227Y-40069D01*
X47219Y-40074D01*
X47210Y-40076D01*
X47200Y-40077D01*
X47191Y-40077D01*
X47182Y-40074D01*
X47173Y-40069D01*
X47166Y-40063D01*
X47159Y-40056D01*
X47155Y-40047D01*
X47152Y-40038D01*
X47151Y-40028D01*
X47151Y-40019D01*
X47154Y-40010D01*
X47158Y-40001D01*
X47165Y-39994D01*
X47172Y-39987D01*
X47180Y-39983D01*
X47190Y-39980D01*
X47199Y-39979D01*
X47208Y-39979D01*
X47218Y-39982D01*
X47226Y-39986D01*
X47234Y-39992D01*
X47240Y-40000D01*
X47245Y-40008D01*
X47248Y-40017D01*
X47249Y-40027D01*
X47250Y-40028D01*
X47200Y-40478D02*
X47200Y-40078D01*
X47200Y-40078D02*
X47800Y-40078D01*
X47800Y-40078D02*
X47800Y-40478D01*
X47800Y-40878D02*
X47800Y-41278D01*
X47800Y-41278D02*
X47200Y-41278D01*
X47200Y-41278D02*
X47200Y-40878D01*
X47250Y-38453D02*
X47249Y-38462D01*
X47246Y-38472D01*
X47241Y-38480D01*
X47235Y-38488D01*
X47227Y-38494D01*
X47219Y-38499D01*
X47210Y-38501D01*
X47200Y-38502D01*
X47191Y-38502D01*
X47182Y-38499D01*
X47173Y-38494D01*
X47166Y-38488D01*
X47159Y-38481D01*
X47155Y-38472D01*
X47152Y-38463D01*
X47151Y-38453D01*
X47151Y-38444D01*
X47154Y-38435D01*
X47158Y-38426D01*
X47165Y-38419D01*
X47172Y-38412D01*
X47180Y-38408D01*
X47190Y-38405D01*
X47199Y-38404D01*
X47208Y-38404D01*
X47218Y-38407D01*
X47226Y-38411D01*
X47234Y-38417D01*
X47240Y-38425D01*
X47245Y-38433D01*
X47248Y-38442D01*
X47249Y-38452D01*
X47250Y-38453D01*
X47200Y-38903D02*
X47200Y-38503D01*
X47200Y-38503D02*
X47800Y-38503D01*
X47800Y-38503D02*
X47800Y-38903D01*
X47800Y-39303D02*
X47800Y-39703D01*
X47800Y-39703D02*
X47200Y-39703D01*
X47200Y-39703D02*
X47200Y-39303D01*
X47250Y-36878D02*
X47249Y-36887D01*
X47246Y-36897D01*
X47241Y-36905D01*
X47235Y-36913D01*
X47227Y-36919D01*
X47219Y-36924D01*
X47210Y-36926D01*
X47200Y-36927D01*
X47191Y-36927D01*
X47182Y-36924D01*
X47173Y-36919D01*
X47166Y-36913D01*
X47159Y-36906D01*
X47155Y-36897D01*
X47152Y-36888D01*
X47151Y-36878D01*
X47151Y-36869D01*
X47154Y-36860D01*
X47158Y-36851D01*
X47165Y-36844D01*
X47172Y-36837D01*
X47180Y-36833D01*
X47190Y-36830D01*
X47199Y-36829D01*
X47208Y-36829D01*
X47218Y-36832D01*
X47226Y-36836D01*
X47234Y-36842D01*
X47240Y-36850D01*
X47245Y-36858D01*
X47248Y-36867D01*
X47249Y-36877D01*
X47250Y-36878D01*
X47200Y-37328D02*
X47200Y-36928D01*
X47200Y-36928D02*
X47800Y-36928D01*
X47800Y-36928D02*
X47800Y-37328D01*
X47800Y-37728D02*
X47800Y-38128D01*
X47800Y-38128D02*
X47200Y-38128D01*
X47200Y-38128D02*
X47200Y-37728D01*
X47250Y-35304D02*
X47249Y-35313D01*
X47246Y-35323D01*
X47241Y-35331D01*
X47235Y-35339D01*
X47227Y-35345D01*
X47219Y-35350D01*
X47210Y-35352D01*
X47200Y-35353D01*
X47191Y-35353D01*
X47182Y-35350D01*
X47173Y-35345D01*
X47166Y-35339D01*
X47159Y-35332D01*
X47155Y-35323D01*
X47152Y-35314D01*
X47151Y-35304D01*
X47151Y-35295D01*
X47154Y-35286D01*
X47158Y-35277D01*
X47165Y-35270D01*
X47172Y-35263D01*
X47180Y-35259D01*
X47190Y-35256D01*
X47199Y-35255D01*
X47208Y-35255D01*
X47218Y-35258D01*
X47226Y-35262D01*
X47234Y-35268D01*
X47240Y-35276D01*
X47245Y-35284D01*
X47248Y-35293D01*
X47249Y-35303D01*
X47250Y-35304D01*
X47200Y-35754D02*
X47200Y-35354D01*
X47200Y-35354D02*
X47800Y-35354D01*
X47800Y-35354D02*
X47800Y-35754D01*
X47800Y-36154D02*
X47800Y-36554D01*
X47800Y-36554D02*
X47200Y-36554D01*
X47200Y-36554D02*
X47200Y-36154D01*
X47250Y-33729D02*
X47249Y-33738D01*
X47246Y-33748D01*
X47241Y-33756D01*
X47235Y-33764D01*
X47227Y-33770D01*
X47219Y-33775D01*
X47210Y-33777D01*
X47200Y-33778D01*
X47191Y-33778D01*
X47182Y-33775D01*
X47173Y-33770D01*
X47166Y-33764D01*
X47159Y-33757D01*
X47155Y-33748D01*
X47152Y-33739D01*
X47151Y-33729D01*
X47151Y-33720D01*
X47154Y-33711D01*
X47158Y-33702D01*
X47165Y-33695D01*
X47172Y-33688D01*
X47180Y-33684D01*
X47190Y-33681D01*
X47199Y-33680D01*
X47208Y-33680D01*
X47218Y-33683D01*
X47226Y-33687D01*
X47234Y-33693D01*
X47240Y-33701D01*
X47245Y-33709D01*
X47248Y-33718D01*
X47249Y-33728D01*
X47250Y-33729D01*
X47200Y-34179D02*
X47200Y-33779D01*
X47200Y-33779D02*
X47800Y-33779D01*
X47800Y-33779D02*
X47800Y-34179D01*
X47800Y-34579D02*
X47800Y-34979D01*
X47800Y-34979D02*
X47200Y-34979D01*
X47200Y-34979D02*
X47200Y-34579D01*
X47250Y-32154D02*
X47249Y-32163D01*
X47246Y-32173D01*
X47241Y-32181D01*
X47235Y-32189D01*
X47227Y-32195D01*
X47219Y-32200D01*
X47210Y-32202D01*
X47200Y-32203D01*
X47191Y-32203D01*
X47182Y-32200D01*
X47173Y-32195D01*
X47166Y-32189D01*
X47159Y-32182D01*
X47155Y-32173D01*
X47152Y-32164D01*
X47151Y-32154D01*
X47151Y-32145D01*
X47154Y-32136D01*
X47158Y-32127D01*
X47165Y-32120D01*
X47172Y-32113D01*
X47180Y-32109D01*
X47190Y-32106D01*
X47199Y-32105D01*
X47208Y-32105D01*
X47218Y-32108D01*
X47226Y-32112D01*
X47234Y-32118D01*
X47240Y-32126D01*
X47245Y-32134D01*
X47248Y-32143D01*
X47249Y-32153D01*
X47250Y-32154D01*
X47200Y-32604D02*
X47200Y-32204D01*
X47200Y-32204D02*
X47800Y-32204D01*
X47800Y-32204D02*
X47800Y-32604D01*
X47800Y-33004D02*
X47800Y-33404D01*
X47800Y-33404D02*
X47200Y-33404D01*
X47200Y-33404D02*
X47200Y-33004D01*
X47250Y-30579D02*
X47249Y-30588D01*
X47246Y-30598D01*
X47241Y-30606D01*
X47235Y-30614D01*
X47227Y-30620D01*
X47219Y-30625D01*
X47210Y-30627D01*
X47200Y-30628D01*
X47191Y-30628D01*
X47182Y-30625D01*
X47173Y-30620D01*
X47166Y-30614D01*
X47159Y-30607D01*
X47155Y-30598D01*
X47152Y-30589D01*
X47151Y-30579D01*
X47151Y-30570D01*
X47154Y-30561D01*
X47158Y-30552D01*
X47165Y-30545D01*
X47172Y-30538D01*
X47180Y-30534D01*
X47190Y-30531D01*
X47199Y-30530D01*
X47208Y-30530D01*
X47218Y-30533D01*
X47226Y-30537D01*
X47234Y-30543D01*
X47240Y-30551D01*
X47245Y-30559D01*
X47248Y-30568D01*
X47249Y-30578D01*
X47250Y-30579D01*
X47200Y-31029D02*
X47200Y-30629D01*
X47200Y-30629D02*
X47800Y-30629D01*
X47800Y-30629D02*
X47800Y-31029D01*
X47800Y-31429D02*
X47800Y-31829D01*
X47800Y-31829D02*
X47200Y-31829D01*
X47200Y-31829D02*
X47200Y-31429D01*
X47250Y-29004D02*
X47249Y-29013D01*
X47246Y-29023D01*
X47241Y-29031D01*
X47235Y-29039D01*
X47227Y-29045D01*
X47219Y-29050D01*
X47210Y-29052D01*
X47200Y-29053D01*
X47191Y-29053D01*
X47182Y-29050D01*
X47173Y-29045D01*
X47166Y-29039D01*
X47159Y-29032D01*
X47155Y-29023D01*
X47152Y-29014D01*
X47151Y-29004D01*
X47151Y-28995D01*
X47154Y-28986D01*
X47158Y-28977D01*
X47165Y-28970D01*
X47172Y-28963D01*
X47180Y-28959D01*
X47190Y-28956D01*
X47199Y-28955D01*
X47208Y-28955D01*
X47218Y-28958D01*
X47226Y-28962D01*
X47234Y-28968D01*
X47240Y-28976D01*
X47245Y-28984D01*
X47248Y-28993D01*
X47249Y-29003D01*
X47250Y-29004D01*
X47200Y-29454D02*
X47200Y-29054D01*
X47200Y-29054D02*
X47800Y-29054D01*
X47800Y-29054D02*
X47800Y-29454D01*
X47800Y-29854D02*
X47800Y-30254D01*
X47800Y-30254D02*
X47200Y-30254D01*
X47200Y-30254D02*
X47200Y-29854D01*
G54D13*
X29000Y-33250D02*
X29000Y-36750D01*
X31000Y-33250D02*
X31000Y-36750D01*
X29000Y-33250D02*
X31000Y-33250D01*
X29000Y-36750D02*
X31000Y-36750D01*
G54D12*
X37200Y-43600D02*
X37200Y-44500D01*
X37200Y-44500D02*
X37850Y-44500D01*
X38550Y-43600D02*
X39200Y-43600D01*
X39200Y-43600D02*
X39200Y-44500D01*
X39200Y-44500D02*
X38550Y-44500D01*
X37850Y-43600D02*
X37200Y-43600D01*
X37200Y-42050D02*
X37200Y-42950D01*
X37200Y-42950D02*
X37850Y-42950D01*
X38550Y-42050D02*
X39200Y-42050D01*
X39200Y-42050D02*
X39200Y-42950D01*
X39200Y-42950D02*
X38550Y-42950D01*
X37850Y-42050D02*
X37200Y-42050D01*
X37200Y-40550D02*
X37200Y-41450D01*
X37200Y-41450D02*
X37850Y-41450D01*
X38550Y-40550D02*
X39200Y-40550D01*
X39200Y-40550D02*
X39200Y-41450D01*
X39200Y-41450D02*
X38550Y-41450D01*
X37850Y-40550D02*
X37200Y-40550D01*
X37200Y-39050D02*
X37200Y-39950D01*
X37200Y-39950D02*
X37850Y-39950D01*
X38550Y-39050D02*
X39200Y-39050D01*
X39200Y-39050D02*
X39200Y-39950D01*
X39200Y-39950D02*
X38550Y-39950D01*
X37850Y-39050D02*
X37200Y-39050D01*
X87250Y-29004D02*
X87249Y-29013D01*
X87246Y-29023D01*
X87241Y-29031D01*
X87235Y-29039D01*
X87227Y-29045D01*
X87219Y-29050D01*
X87210Y-29052D01*
X87200Y-29053D01*
X87191Y-29053D01*
X87182Y-29050D01*
X87173Y-29045D01*
X87166Y-29039D01*
X87159Y-29032D01*
X87155Y-29023D01*
X87152Y-29014D01*
X87151Y-29004D01*
X87151Y-28995D01*
X87154Y-28986D01*
X87158Y-28977D01*
X87165Y-28970D01*
X87172Y-28963D01*
X87180Y-28959D01*
X87190Y-28956D01*
X87199Y-28955D01*
X87208Y-28955D01*
X87218Y-28958D01*
X87226Y-28962D01*
X87234Y-28968D01*
X87240Y-28976D01*
X87245Y-28984D01*
X87248Y-28993D01*
X87249Y-29003D01*
X87250Y-29004D01*
X87200Y-29454D02*
X87200Y-29054D01*
X87200Y-29054D02*
X87800Y-29054D01*
X87800Y-29054D02*
X87800Y-29454D01*
X87800Y-29854D02*
X87800Y-30254D01*
X87800Y-30254D02*
X87200Y-30254D01*
X87200Y-30254D02*
X87200Y-29854D01*
X77250Y-51052D02*
X77249Y-51061D01*
X77246Y-51071D01*
X77241Y-51079D01*
X77235Y-51087D01*
X77227Y-51093D01*
X77219Y-51098D01*
X77210Y-51100D01*
X77200Y-51101D01*
X77191Y-51101D01*
X77182Y-51098D01*
X77173Y-51093D01*
X77166Y-51087D01*
X77159Y-51080D01*
X77155Y-51071D01*
X77152Y-51062D01*
X77151Y-51052D01*
X77151Y-51043D01*
X77154Y-51034D01*
X77158Y-51025D01*
X77165Y-51018D01*
X77172Y-51011D01*
X77180Y-51007D01*
X77190Y-51004D01*
X77199Y-51003D01*
X77208Y-51003D01*
X77218Y-51006D01*
X77226Y-51010D01*
X77234Y-51016D01*
X77240Y-51024D01*
X77245Y-51032D01*
X77248Y-51041D01*
X77249Y-51051D01*
X77250Y-51052D01*
X77200Y-51502D02*
X77200Y-51102D01*
X77200Y-51102D02*
X77800Y-51102D01*
X77800Y-51102D02*
X77800Y-51502D01*
X77800Y-51902D02*
X77800Y-52302D01*
X77800Y-52302D02*
X77200Y-52302D01*
X77200Y-52302D02*
X77200Y-51902D01*
X77250Y-49477D02*
X77249Y-49486D01*
X77246Y-49496D01*
X77241Y-49504D01*
X77235Y-49512D01*
X77227Y-49518D01*
X77219Y-49523D01*
X77210Y-49525D01*
X77200Y-49526D01*
X77191Y-49526D01*
X77182Y-49523D01*
X77173Y-49518D01*
X77166Y-49512D01*
X77159Y-49505D01*
X77155Y-49496D01*
X77152Y-49487D01*
X77151Y-49477D01*
X77151Y-49468D01*
X77154Y-49459D01*
X77158Y-49450D01*
X77165Y-49443D01*
X77172Y-49436D01*
X77180Y-49432D01*
X77190Y-49429D01*
X77199Y-49428D01*
X77208Y-49428D01*
X77218Y-49431D01*
X77226Y-49435D01*
X77234Y-49441D01*
X77240Y-49449D01*
X77245Y-49457D01*
X77248Y-49466D01*
X77249Y-49476D01*
X77250Y-49477D01*
X77200Y-49927D02*
X77200Y-49527D01*
X77200Y-49527D02*
X77800Y-49527D01*
X77800Y-49527D02*
X77800Y-49927D01*
X77800Y-50327D02*
X77800Y-50727D01*
X77800Y-50727D02*
X77200Y-50727D01*
X77200Y-50727D02*
X77200Y-50327D01*
X77250Y-47902D02*
X77249Y-47911D01*
X77246Y-47921D01*
X77241Y-47929D01*
X77235Y-47937D01*
X77227Y-47943D01*
X77219Y-47948D01*
X77210Y-47950D01*
X77200Y-47951D01*
X77191Y-47951D01*
X77182Y-47948D01*
X77173Y-47943D01*
X77166Y-47937D01*
X77159Y-47930D01*
X77155Y-47921D01*
X77152Y-47912D01*
X77151Y-47902D01*
X77151Y-47893D01*
X77154Y-47884D01*
X77158Y-47875D01*
X77165Y-47868D01*
X77172Y-47861D01*
X77180Y-47857D01*
X77190Y-47854D01*
X77199Y-47853D01*
X77208Y-47853D01*
X77218Y-47856D01*
X77226Y-47860D01*
X77234Y-47866D01*
X77240Y-47874D01*
X77245Y-47882D01*
X77248Y-47891D01*
X77249Y-47901D01*
X77250Y-47902D01*
X77200Y-48352D02*
X77200Y-47952D01*
X77200Y-47952D02*
X77800Y-47952D01*
X77800Y-47952D02*
X77800Y-48352D01*
X77800Y-48752D02*
X77800Y-49152D01*
X77800Y-49152D02*
X77200Y-49152D01*
X77200Y-49152D02*
X77200Y-48752D01*
X77250Y-46327D02*
X77249Y-46336D01*
X77246Y-46346D01*
X77241Y-46354D01*
X77235Y-46362D01*
X77227Y-46368D01*
X77219Y-46373D01*
X77210Y-46375D01*
X77200Y-46376D01*
X77191Y-46376D01*
X77182Y-46373D01*
X77173Y-46368D01*
X77166Y-46362D01*
X77159Y-46355D01*
X77155Y-46346D01*
X77152Y-46337D01*
X77151Y-46327D01*
X77151Y-46318D01*
X77154Y-46309D01*
X77158Y-46300D01*
X77165Y-46293D01*
X77172Y-46286D01*
X77180Y-46282D01*
X77190Y-46279D01*
X77199Y-46278D01*
X77208Y-46278D01*
X77218Y-46281D01*
X77226Y-46285D01*
X77234Y-46291D01*
X77240Y-46299D01*
X77245Y-46307D01*
X77248Y-46316D01*
X77249Y-46326D01*
X77250Y-46327D01*
X77200Y-46777D02*
X77200Y-46377D01*
X77200Y-46377D02*
X77800Y-46377D01*
X77800Y-46377D02*
X77800Y-46777D01*
X77800Y-47177D02*
X77800Y-47577D01*
X77800Y-47577D02*
X77200Y-47577D01*
X77200Y-47577D02*
X77200Y-47177D01*
X77250Y-44752D02*
X77249Y-44761D01*
X77246Y-44771D01*
X77241Y-44779D01*
X77235Y-44787D01*
X77227Y-44793D01*
X77219Y-44798D01*
X77210Y-44800D01*
X77200Y-44801D01*
X77191Y-44801D01*
X77182Y-44798D01*
X77173Y-44793D01*
X77166Y-44787D01*
X77159Y-44780D01*
X77155Y-44771D01*
X77152Y-44762D01*
X77151Y-44752D01*
X77151Y-44743D01*
X77154Y-44734D01*
X77158Y-44725D01*
X77165Y-44718D01*
X77172Y-44711D01*
X77180Y-44707D01*
X77190Y-44704D01*
X77199Y-44703D01*
X77208Y-44703D01*
X77218Y-44706D01*
X77226Y-44710D01*
X77234Y-44716D01*
X77240Y-44724D01*
X77245Y-44732D01*
X77248Y-44741D01*
X77249Y-44751D01*
X77250Y-44752D01*
X77200Y-45202D02*
X77200Y-44802D01*
X77200Y-44802D02*
X77800Y-44802D01*
X77800Y-44802D02*
X77800Y-45202D01*
X77800Y-45602D02*
X77800Y-46002D01*
X77800Y-46002D02*
X77200Y-46002D01*
X77200Y-46002D02*
X77200Y-45602D01*
X77250Y-43178D02*
X77249Y-43187D01*
X77246Y-43197D01*
X77241Y-43205D01*
X77235Y-43213D01*
X77227Y-43219D01*
X77219Y-43224D01*
X77210Y-43226D01*
X77200Y-43227D01*
X77191Y-43227D01*
X77182Y-43224D01*
X77173Y-43219D01*
X77166Y-43213D01*
X77159Y-43206D01*
X77155Y-43197D01*
X77152Y-43188D01*
X77151Y-43178D01*
X77151Y-43169D01*
X77154Y-43160D01*
X77158Y-43151D01*
X77165Y-43144D01*
X77172Y-43137D01*
X77180Y-43133D01*
X77190Y-43130D01*
X77199Y-43129D01*
X77208Y-43129D01*
X77218Y-43132D01*
X77226Y-43136D01*
X77234Y-43142D01*
X77240Y-43150D01*
X77245Y-43158D01*
X77248Y-43167D01*
X77249Y-43177D01*
X77250Y-43178D01*
X77200Y-43628D02*
X77200Y-43228D01*
X77200Y-43228D02*
X77800Y-43228D01*
X77800Y-43228D02*
X77800Y-43628D01*
X77800Y-44028D02*
X77800Y-44428D01*
X77800Y-44428D02*
X77200Y-44428D01*
X77200Y-44428D02*
X77200Y-44028D01*
X77250Y-41603D02*
X77249Y-41612D01*
X77246Y-41622D01*
X77241Y-41630D01*
X77235Y-41638D01*
X77227Y-41644D01*
X77219Y-41649D01*
X77210Y-41651D01*
X77200Y-41652D01*
X77191Y-41652D01*
X77182Y-41649D01*
X77173Y-41644D01*
X77166Y-41638D01*
X77159Y-41631D01*
X77155Y-41622D01*
X77152Y-41613D01*
X77151Y-41603D01*
X77151Y-41594D01*
X77154Y-41585D01*
X77158Y-41576D01*
X77165Y-41569D01*
X77172Y-41562D01*
X77180Y-41558D01*
X77190Y-41555D01*
X77199Y-41554D01*
X77208Y-41554D01*
X77218Y-41557D01*
X77226Y-41561D01*
X77234Y-41567D01*
X77240Y-41575D01*
X77245Y-41583D01*
X77248Y-41592D01*
X77249Y-41602D01*
X77250Y-41603D01*
X77200Y-42053D02*
X77200Y-41653D01*
X77200Y-41653D02*
X77800Y-41653D01*
X77800Y-41653D02*
X77800Y-42053D01*
X77800Y-42453D02*
X77800Y-42853D01*
X77800Y-42853D02*
X77200Y-42853D01*
X77200Y-42853D02*
X77200Y-42453D01*
X77250Y-40028D02*
X77249Y-40037D01*
X77246Y-40047D01*
X77241Y-40055D01*
X77235Y-40063D01*
X77227Y-40069D01*
X77219Y-40074D01*
X77210Y-40076D01*
X77200Y-40077D01*
X77191Y-40077D01*
X77182Y-40074D01*
X77173Y-40069D01*
X77166Y-40063D01*
X77159Y-40056D01*
X77155Y-40047D01*
X77152Y-40038D01*
X77151Y-40028D01*
X77151Y-40019D01*
X77154Y-40010D01*
X77158Y-40001D01*
X77165Y-39994D01*
X77172Y-39987D01*
X77180Y-39983D01*
X77190Y-39980D01*
X77199Y-39979D01*
X77208Y-39979D01*
X77218Y-39982D01*
X77226Y-39986D01*
X77234Y-39992D01*
X77240Y-40000D01*
X77245Y-40008D01*
X77248Y-40017D01*
X77249Y-40027D01*
X77250Y-40028D01*
X77200Y-40478D02*
X77200Y-40078D01*
X77200Y-40078D02*
X77800Y-40078D01*
X77800Y-40078D02*
X77800Y-40478D01*
X77800Y-40878D02*
X77800Y-41278D01*
X77800Y-41278D02*
X77200Y-41278D01*
X77200Y-41278D02*
X77200Y-40878D01*
X77250Y-38453D02*
X77249Y-38462D01*
X77246Y-38472D01*
X77241Y-38480D01*
X77235Y-38488D01*
X77227Y-38494D01*
X77219Y-38499D01*
X77210Y-38501D01*
X77200Y-38502D01*
X77191Y-38502D01*
X77182Y-38499D01*
X77173Y-38494D01*
X77166Y-38488D01*
X77159Y-38481D01*
X77155Y-38472D01*
X77152Y-38463D01*
X77151Y-38453D01*
X77151Y-38444D01*
X77154Y-38435D01*
X77158Y-38426D01*
X77165Y-38419D01*
X77172Y-38412D01*
X77180Y-38408D01*
X77190Y-38405D01*
X77199Y-38404D01*
X77208Y-38404D01*
X77218Y-38407D01*
X77226Y-38411D01*
X77234Y-38417D01*
X77240Y-38425D01*
X77245Y-38433D01*
X77248Y-38442D01*
X77249Y-38452D01*
X77250Y-38453D01*
X77200Y-38903D02*
X77200Y-38503D01*
X77200Y-38503D02*
X77800Y-38503D01*
X77800Y-38503D02*
X77800Y-38903D01*
X77800Y-39303D02*
X77800Y-39703D01*
X77800Y-39703D02*
X77200Y-39703D01*
X77200Y-39703D02*
X77200Y-39303D01*
X77250Y-36878D02*
X77249Y-36887D01*
X77246Y-36897D01*
X77241Y-36905D01*
X77235Y-36913D01*
X77227Y-36919D01*
X77219Y-36924D01*
X77210Y-36926D01*
X77200Y-36927D01*
X77191Y-36927D01*
X77182Y-36924D01*
X77173Y-36919D01*
X77166Y-36913D01*
X77159Y-36906D01*
X77155Y-36897D01*
X77152Y-36888D01*
X77151Y-36878D01*
X77151Y-36869D01*
X77154Y-36860D01*
X77158Y-36851D01*
X77165Y-36844D01*
X77172Y-36837D01*
X77180Y-36833D01*
X77190Y-36830D01*
X77199Y-36829D01*
X77208Y-36829D01*
X77218Y-36832D01*
X77226Y-36836D01*
X77234Y-36842D01*
X77240Y-36850D01*
X77245Y-36858D01*
X77248Y-36867D01*
X77249Y-36877D01*
X77250Y-36878D01*
X77200Y-37328D02*
X77200Y-36928D01*
X77200Y-36928D02*
X77800Y-36928D01*
X77800Y-36928D02*
X77800Y-37328D01*
X77800Y-37728D02*
X77800Y-38128D01*
X77800Y-38128D02*
X77200Y-38128D01*
X77200Y-38128D02*
X77200Y-37728D01*
X77250Y-35304D02*
X77249Y-35313D01*
X77246Y-35323D01*
X77241Y-35331D01*
X77235Y-35339D01*
X77227Y-35345D01*
X77219Y-35350D01*
X77210Y-35352D01*
X77200Y-35353D01*
X77191Y-35353D01*
X77182Y-35350D01*
X77173Y-35345D01*
X77166Y-35339D01*
X77159Y-35332D01*
X77155Y-35323D01*
X77152Y-35314D01*
X77151Y-35304D01*
X77151Y-35295D01*
X77154Y-35286D01*
X77158Y-35277D01*
X77165Y-35270D01*
X77172Y-35263D01*
X77180Y-35259D01*
X77190Y-35256D01*
X77199Y-35255D01*
X77208Y-35255D01*
X77218Y-35258D01*
X77226Y-35262D01*
X77234Y-35268D01*
X77240Y-35276D01*
X77245Y-35284D01*
X77248Y-35293D01*
X77249Y-35303D01*
X77250Y-35304D01*
X77200Y-35754D02*
X77200Y-35354D01*
X77200Y-35354D02*
X77800Y-35354D01*
X77800Y-35354D02*
X77800Y-35754D01*
X77800Y-36154D02*
X77800Y-36554D01*
X77800Y-36554D02*
X77200Y-36554D01*
X77200Y-36554D02*
X77200Y-36154D01*
X77250Y-33729D02*
X77249Y-33738D01*
X77246Y-33748D01*
X77241Y-33756D01*
X77235Y-33764D01*
X77227Y-33770D01*
X77219Y-33775D01*
X77210Y-33777D01*
X77200Y-33778D01*
X77191Y-33778D01*
X77182Y-33775D01*
X77173Y-33770D01*
X77166Y-33764D01*
X77159Y-33757D01*
X77155Y-33748D01*
X77152Y-33739D01*
X77151Y-33729D01*
X77151Y-33720D01*
X77154Y-33711D01*
X77158Y-33702D01*
X77165Y-33695D01*
X77172Y-33688D01*
X77180Y-33684D01*
X77190Y-33681D01*
X77199Y-33680D01*
X77208Y-33680D01*
X77218Y-33683D01*
X77226Y-33687D01*
X77234Y-33693D01*
X77240Y-33701D01*
X77245Y-33709D01*
X77248Y-33718D01*
X77249Y-33728D01*
X77250Y-33729D01*
X77200Y-34179D02*
X77200Y-33779D01*
X77200Y-33779D02*
X77800Y-33779D01*
X77800Y-33779D02*
X77800Y-34179D01*
X77800Y-34579D02*
X77800Y-34979D01*
X77800Y-34979D02*
X77200Y-34979D01*
X77200Y-34979D02*
X77200Y-34579D01*
X77250Y-32154D02*
X77249Y-32163D01*
X77246Y-32173D01*
X77241Y-32181D01*
X77235Y-32189D01*
X77227Y-32195D01*
X77219Y-32200D01*
X77210Y-32202D01*
X77200Y-32203D01*
X77191Y-32203D01*
X77182Y-32200D01*
X77173Y-32195D01*
X77166Y-32189D01*
X77159Y-32182D01*
X77155Y-32173D01*
X77152Y-32164D01*
X77151Y-32154D01*
X77151Y-32145D01*
X77154Y-32136D01*
X77158Y-32127D01*
X77165Y-32120D01*
X77172Y-32113D01*
X77180Y-32109D01*
X77190Y-32106D01*
X77199Y-32105D01*
X77208Y-32105D01*
X77218Y-32108D01*
X77226Y-32112D01*
X77234Y-32118D01*
X77240Y-32126D01*
X77245Y-32134D01*
X77248Y-32143D01*
X77249Y-32153D01*
X77250Y-32154D01*
X77200Y-32604D02*
X77200Y-32204D01*
X77200Y-32204D02*
X77800Y-32204D01*
X77800Y-32204D02*
X77800Y-32604D01*
X77800Y-33004D02*
X77800Y-33404D01*
X77800Y-33404D02*
X77200Y-33404D01*
X77200Y-33404D02*
X77200Y-33004D01*
X87250Y-30579D02*
X87249Y-30588D01*
X87246Y-30598D01*
X87241Y-30606D01*
X87235Y-30614D01*
X87227Y-30620D01*
X87219Y-30625D01*
X87210Y-30627D01*
X87200Y-30628D01*
X87191Y-30628D01*
X87182Y-30625D01*
X87173Y-30620D01*
X87166Y-30614D01*
X87159Y-30607D01*
X87155Y-30598D01*
X87152Y-30589D01*
X87151Y-30579D01*
X87151Y-30570D01*
X87154Y-30561D01*
X87158Y-30552D01*
X87165Y-30545D01*
X87172Y-30538D01*
X87180Y-30534D01*
X87190Y-30531D01*
X87199Y-30530D01*
X87208Y-30530D01*
X87218Y-30533D01*
X87226Y-30537D01*
X87234Y-30543D01*
X87240Y-30551D01*
X87245Y-30559D01*
X87248Y-30568D01*
X87249Y-30578D01*
X87250Y-30579D01*
X87200Y-31029D02*
X87200Y-30629D01*
X87200Y-30629D02*
X87800Y-30629D01*
X87800Y-30629D02*
X87800Y-31029D01*
X87800Y-31429D02*
X87800Y-31829D01*
X87800Y-31829D02*
X87200Y-31829D01*
X87200Y-31829D02*
X87200Y-31429D01*
X87250Y-32154D02*
X87249Y-32163D01*
X87246Y-32173D01*
X87241Y-32181D01*
X87235Y-32189D01*
X87227Y-32195D01*
X87219Y-32200D01*
X87210Y-32202D01*
X87200Y-32203D01*
X87191Y-32203D01*
X87182Y-32200D01*
X87173Y-32195D01*
X87166Y-32189D01*
X87159Y-32182D01*
X87155Y-32173D01*
X87152Y-32164D01*
X87151Y-32154D01*
X87151Y-32145D01*
X87154Y-32136D01*
X87158Y-32127D01*
X87165Y-32120D01*
X87172Y-32113D01*
X87180Y-32109D01*
X87190Y-32106D01*
X87199Y-32105D01*
X87208Y-32105D01*
X87218Y-32108D01*
X87226Y-32112D01*
X87234Y-32118D01*
X87240Y-32126D01*
X87245Y-32134D01*
X87248Y-32143D01*
X87249Y-32153D01*
X87250Y-32154D01*
X87200Y-32604D02*
X87200Y-32204D01*
X87200Y-32204D02*
X87800Y-32204D01*
X87800Y-32204D02*
X87800Y-32604D01*
X87800Y-33004D02*
X87800Y-33404D01*
X87800Y-33404D02*
X87200Y-33404D01*
X87200Y-33404D02*
X87200Y-33004D01*
X87250Y-33729D02*
X87249Y-33738D01*
X87246Y-33748D01*
X87241Y-33756D01*
X87235Y-33764D01*
X87227Y-33770D01*
X87219Y-33775D01*
X87210Y-33777D01*
X87200Y-33778D01*
X87191Y-33778D01*
X87182Y-33775D01*
X87173Y-33770D01*
X87166Y-33764D01*
X87159Y-33757D01*
X87155Y-33748D01*
X87152Y-33739D01*
X87151Y-33729D01*
X87151Y-33720D01*
X87154Y-33711D01*
X87158Y-33702D01*
X87165Y-33695D01*
X87172Y-33688D01*
X87180Y-33684D01*
X87190Y-33681D01*
X87199Y-33680D01*
X87208Y-33680D01*
X87218Y-33683D01*
X87226Y-33687D01*
X87234Y-33693D01*
X87240Y-33701D01*
X87245Y-33709D01*
X87248Y-33718D01*
X87249Y-33728D01*
X87250Y-33729D01*
X87200Y-34179D02*
X87200Y-33779D01*
X87200Y-33779D02*
X87800Y-33779D01*
X87800Y-33779D02*
X87800Y-34179D01*
X87800Y-34579D02*
X87800Y-34979D01*
X87800Y-34979D02*
X87200Y-34979D01*
X87200Y-34979D02*
X87200Y-34579D01*
X87250Y-35304D02*
X87249Y-35313D01*
X87246Y-35323D01*
X87241Y-35331D01*
X87235Y-35339D01*
X87227Y-35345D01*
X87219Y-35350D01*
X87210Y-35352D01*
X87200Y-35353D01*
X87191Y-35353D01*
X87182Y-35350D01*
X87173Y-35345D01*
X87166Y-35339D01*
X87159Y-35332D01*
X87155Y-35323D01*
X87152Y-35314D01*
X87151Y-35304D01*
X87151Y-35295D01*
X87154Y-35286D01*
X87158Y-35277D01*
X87165Y-35270D01*
X87172Y-35263D01*
X87180Y-35259D01*
X87190Y-35256D01*
X87199Y-35255D01*
X87208Y-35255D01*
X87218Y-35258D01*
X87226Y-35262D01*
X87234Y-35268D01*
X87240Y-35276D01*
X87245Y-35284D01*
X87248Y-35293D01*
X87249Y-35303D01*
X87250Y-35304D01*
X87200Y-35754D02*
X87200Y-35354D01*
X87200Y-35354D02*
X87800Y-35354D01*
X87800Y-35354D02*
X87800Y-35754D01*
X87800Y-36154D02*
X87800Y-36554D01*
X87800Y-36554D02*
X87200Y-36554D01*
X87200Y-36554D02*
X87200Y-36154D01*
X87250Y-36878D02*
X87249Y-36887D01*
X87246Y-36897D01*
X87241Y-36905D01*
X87235Y-36913D01*
X87227Y-36919D01*
X87219Y-36924D01*
X87210Y-36926D01*
X87200Y-36927D01*
X87191Y-36927D01*
X87182Y-36924D01*
X87173Y-36919D01*
X87166Y-36913D01*
X87159Y-36906D01*
X87155Y-36897D01*
X87152Y-36888D01*
X87151Y-36878D01*
X87151Y-36869D01*
X87154Y-36860D01*
X87158Y-36851D01*
X87165Y-36844D01*
X87172Y-36837D01*
X87180Y-36833D01*
X87190Y-36830D01*
X87199Y-36829D01*
X87208Y-36829D01*
X87218Y-36832D01*
X87226Y-36836D01*
X87234Y-36842D01*
X87240Y-36850D01*
X87245Y-36858D01*
X87248Y-36867D01*
X87249Y-36877D01*
X87250Y-36878D01*
X87200Y-37328D02*
X87200Y-36928D01*
X87200Y-36928D02*
X87800Y-36928D01*
X87800Y-36928D02*
X87800Y-37328D01*
X87800Y-37728D02*
X87800Y-38128D01*
X87800Y-38128D02*
X87200Y-38128D01*
X87200Y-38128D02*
X87200Y-37728D01*
X87250Y-38453D02*
X87249Y-38462D01*
X87246Y-38472D01*
X87241Y-38480D01*
X87235Y-38488D01*
X87227Y-38494D01*
X87219Y-38499D01*
X87210Y-38501D01*
X87200Y-38502D01*
X87191Y-38502D01*
X87182Y-38499D01*
X87173Y-38494D01*
X87166Y-38488D01*
X87159Y-38481D01*
X87155Y-38472D01*
X87152Y-38463D01*
X87151Y-38453D01*
X87151Y-38444D01*
X87154Y-38435D01*
X87158Y-38426D01*
X87165Y-38419D01*
X87172Y-38412D01*
X87180Y-38408D01*
X87190Y-38405D01*
X87199Y-38404D01*
X87208Y-38404D01*
X87218Y-38407D01*
X87226Y-38411D01*
X87234Y-38417D01*
X87240Y-38425D01*
X87245Y-38433D01*
X87248Y-38442D01*
X87249Y-38452D01*
X87250Y-38453D01*
X87200Y-38903D02*
X87200Y-38503D01*
X87200Y-38503D02*
X87800Y-38503D01*
X87800Y-38503D02*
X87800Y-38903D01*
X87800Y-39303D02*
X87800Y-39703D01*
X87800Y-39703D02*
X87200Y-39703D01*
X87200Y-39703D02*
X87200Y-39303D01*
X87250Y-40028D02*
X87249Y-40037D01*
X87246Y-40047D01*
X87241Y-40055D01*
X87235Y-40063D01*
X87227Y-40069D01*
X87219Y-40074D01*
X87210Y-40076D01*
X87200Y-40077D01*
X87191Y-40077D01*
X87182Y-40074D01*
X87173Y-40069D01*
X87166Y-40063D01*
X87159Y-40056D01*
X87155Y-40047D01*
X87152Y-40038D01*
X87151Y-40028D01*
X87151Y-40019D01*
X87154Y-40010D01*
X87158Y-40001D01*
X87165Y-39994D01*
X87172Y-39987D01*
X87180Y-39983D01*
X87190Y-39980D01*
X87199Y-39979D01*
X87208Y-39979D01*
X87218Y-39982D01*
X87226Y-39986D01*
X87234Y-39992D01*
X87240Y-40000D01*
X87245Y-40008D01*
X87248Y-40017D01*
X87249Y-40027D01*
X87250Y-40028D01*
X87200Y-40478D02*
X87200Y-40078D01*
X87200Y-40078D02*
X87800Y-40078D01*
X87800Y-40078D02*
X87800Y-40478D01*
X87800Y-40878D02*
X87800Y-41278D01*
X87800Y-41278D02*
X87200Y-41278D01*
X87200Y-41278D02*
X87200Y-40878D01*
X87250Y-41603D02*
X87249Y-41612D01*
X87246Y-41622D01*
X87241Y-41630D01*
X87235Y-41638D01*
X87227Y-41644D01*
X87219Y-41649D01*
X87210Y-41651D01*
X87200Y-41652D01*
X87191Y-41652D01*
X87182Y-41649D01*
X87173Y-41644D01*
X87166Y-41638D01*
X87159Y-41631D01*
X87155Y-41622D01*
X87152Y-41613D01*
X87151Y-41603D01*
X87151Y-41594D01*
X87154Y-41585D01*
X87158Y-41576D01*
X87165Y-41569D01*
X87172Y-41562D01*
X87180Y-41558D01*
X87190Y-41555D01*
X87199Y-41554D01*
X87208Y-41554D01*
X87218Y-41557D01*
X87226Y-41561D01*
X87234Y-41567D01*
X87240Y-41575D01*
X87245Y-41583D01*
X87248Y-41592D01*
X87249Y-41602D01*
X87250Y-41603D01*
X87200Y-42053D02*
X87200Y-41653D01*
X87200Y-41653D02*
X87800Y-41653D01*
X87800Y-41653D02*
X87800Y-42053D01*
X87800Y-42453D02*
X87800Y-42853D01*
X87800Y-42853D02*
X87200Y-42853D01*
X87200Y-42853D02*
X87200Y-42453D01*
X87250Y-43178D02*
X87249Y-43187D01*
X87246Y-43197D01*
X87241Y-43205D01*
X87235Y-43213D01*
X87227Y-43219D01*
X87219Y-43224D01*
X87210Y-43226D01*
X87200Y-43227D01*
X87191Y-43227D01*
X87182Y-43224D01*
X87173Y-43219D01*
X87166Y-43213D01*
X87159Y-43206D01*
X87155Y-43197D01*
X87152Y-43188D01*
X87151Y-43178D01*
X87151Y-43169D01*
X87154Y-43160D01*
X87158Y-43151D01*
X87165Y-43144D01*
X87172Y-43137D01*
X87180Y-43133D01*
X87190Y-43130D01*
X87199Y-43129D01*
X87208Y-43129D01*
X87218Y-43132D01*
X87226Y-43136D01*
X87234Y-43142D01*
X87240Y-43150D01*
X87245Y-43158D01*
X87248Y-43167D01*
X87249Y-43177D01*
X87250Y-43178D01*
X87200Y-43628D02*
X87200Y-43228D01*
X87200Y-43228D02*
X87800Y-43228D01*
X87800Y-43228D02*
X87800Y-43628D01*
X87800Y-44028D02*
X87800Y-44428D01*
X87800Y-44428D02*
X87200Y-44428D01*
X87200Y-44428D02*
X87200Y-44028D01*
X87250Y-44752D02*
X87249Y-44761D01*
X87246Y-44771D01*
X87241Y-44779D01*
X87235Y-44787D01*
X87227Y-44793D01*
X87219Y-44798D01*
X87210Y-44800D01*
X87200Y-44801D01*
X87191Y-44801D01*
X87182Y-44798D01*
X87173Y-44793D01*
X87166Y-44787D01*
X87159Y-44780D01*
X87155Y-44771D01*
X87152Y-44762D01*
X87151Y-44752D01*
X87151Y-44743D01*
X87154Y-44734D01*
X87158Y-44725D01*
X87165Y-44718D01*
X87172Y-44711D01*
X87180Y-44707D01*
X87190Y-44704D01*
X87199Y-44703D01*
X87208Y-44703D01*
X87218Y-44706D01*
X87226Y-44710D01*
X87234Y-44716D01*
X87240Y-44724D01*
X87245Y-44732D01*
X87248Y-44741D01*
X87249Y-44751D01*
X87250Y-44752D01*
X87200Y-45202D02*
X87200Y-44802D01*
X87200Y-44802D02*
X87800Y-44802D01*
X87800Y-44802D02*
X87800Y-45202D01*
X87800Y-45602D02*
X87800Y-46002D01*
X87800Y-46002D02*
X87200Y-46002D01*
X87200Y-46002D02*
X87200Y-45602D01*
X87250Y-46327D02*
X87249Y-46336D01*
X87246Y-46346D01*
X87241Y-46354D01*
X87235Y-46362D01*
X87227Y-46368D01*
X87219Y-46373D01*
X87210Y-46375D01*
X87200Y-46376D01*
X87191Y-46376D01*
X87182Y-46373D01*
X87173Y-46368D01*
X87166Y-46362D01*
X87159Y-46355D01*
X87155Y-46346D01*
X87152Y-46337D01*
X87151Y-46327D01*
X87151Y-46318D01*
X87154Y-46309D01*
X87158Y-46300D01*
X87165Y-46293D01*
X87172Y-46286D01*
X87180Y-46282D01*
X87190Y-46279D01*
X87199Y-46278D01*
X87208Y-46278D01*
X87218Y-46281D01*
X87226Y-46285D01*
X87234Y-46291D01*
X87240Y-46299D01*
X87245Y-46307D01*
X87248Y-46316D01*
X87249Y-46326D01*
X87250Y-46327D01*
X87200Y-46777D02*
X87200Y-46377D01*
X87200Y-46377D02*
X87800Y-46377D01*
X87800Y-46377D02*
X87800Y-46777D01*
X87800Y-47177D02*
X87800Y-47577D01*
X87800Y-47577D02*
X87200Y-47577D01*
X87200Y-47577D02*
X87200Y-47177D01*
X87250Y-47902D02*
X87249Y-47911D01*
X87246Y-47921D01*
X87241Y-47929D01*
X87235Y-47937D01*
X87227Y-47943D01*
X87219Y-47948D01*
X87210Y-47950D01*
X87200Y-47951D01*
X87191Y-47951D01*
X87182Y-47948D01*
X87173Y-47943D01*
X87166Y-47937D01*
X87159Y-47930D01*
X87155Y-47921D01*
X87152Y-47912D01*
X87151Y-47902D01*
X87151Y-47893D01*
X87154Y-47884D01*
X87158Y-47875D01*
X87165Y-47868D01*
X87172Y-47861D01*
X87180Y-47857D01*
X87190Y-47854D01*
X87199Y-47853D01*
X87208Y-47853D01*
X87218Y-47856D01*
X87226Y-47860D01*
X87234Y-47866D01*
X87240Y-47874D01*
X87245Y-47882D01*
X87248Y-47891D01*
X87249Y-47901D01*
X87250Y-47902D01*
X87200Y-48352D02*
X87200Y-47952D01*
X87200Y-47952D02*
X87800Y-47952D01*
X87800Y-47952D02*
X87800Y-48352D01*
X87800Y-48752D02*
X87800Y-49152D01*
X87800Y-49152D02*
X87200Y-49152D01*
X87200Y-49152D02*
X87200Y-48752D01*
X87250Y-49477D02*
X87249Y-49486D01*
X87246Y-49496D01*
X87241Y-49504D01*
X87235Y-49512D01*
X87227Y-49518D01*
X87219Y-49523D01*
X87210Y-49525D01*
X87200Y-49526D01*
X87191Y-49526D01*
X87182Y-49523D01*
X87173Y-49518D01*
X87166Y-49512D01*
X87159Y-49505D01*
X87155Y-49496D01*
X87152Y-49487D01*
X87151Y-49477D01*
X87151Y-49468D01*
X87154Y-49459D01*
X87158Y-49450D01*
X87165Y-49443D01*
X87172Y-49436D01*
X87180Y-49432D01*
X87190Y-49429D01*
X87199Y-49428D01*
X87208Y-49428D01*
X87218Y-49431D01*
X87226Y-49435D01*
X87234Y-49441D01*
X87240Y-49449D01*
X87245Y-49457D01*
X87248Y-49466D01*
X87249Y-49476D01*
X87250Y-49477D01*
X87200Y-49927D02*
X87200Y-49527D01*
X87200Y-49527D02*
X87800Y-49527D01*
X87800Y-49527D02*
X87800Y-49927D01*
X87800Y-50327D02*
X87800Y-50727D01*
X87800Y-50727D02*
X87200Y-50727D01*
X87200Y-50727D02*
X87200Y-50327D01*
X87250Y-51052D02*
X87249Y-51061D01*
X87246Y-51071D01*
X87241Y-51079D01*
X87235Y-51087D01*
X87227Y-51093D01*
X87219Y-51098D01*
X87210Y-51100D01*
X87200Y-51101D01*
X87191Y-51101D01*
X87182Y-51098D01*
X87173Y-51093D01*
X87166Y-51087D01*
X87159Y-51080D01*
X87155Y-51071D01*
X87152Y-51062D01*
X87151Y-51052D01*
X87151Y-51043D01*
X87154Y-51034D01*
X87158Y-51025D01*
X87165Y-51018D01*
X87172Y-51011D01*
X87180Y-51007D01*
X87190Y-51004D01*
X87199Y-51003D01*
X87208Y-51003D01*
X87218Y-51006D01*
X87226Y-51010D01*
X87234Y-51016D01*
X87240Y-51024D01*
X87245Y-51032D01*
X87248Y-51041D01*
X87249Y-51051D01*
X87250Y-51052D01*
X87200Y-51502D02*
X87200Y-51102D01*
X87200Y-51102D02*
X87800Y-51102D01*
X87800Y-51102D02*
X87800Y-51502D01*
X87800Y-51902D02*
X87800Y-52302D01*
X87800Y-52302D02*
X87200Y-52302D01*
X87200Y-52302D02*
X87200Y-51902D01*
X57250Y-29004D02*
X57249Y-29013D01*
X57246Y-29023D01*
X57241Y-29031D01*
X57235Y-29039D01*
X57227Y-29045D01*
X57219Y-29050D01*
X57210Y-29052D01*
X57200Y-29053D01*
X57191Y-29053D01*
X57182Y-29050D01*
X57173Y-29045D01*
X57166Y-29039D01*
X57159Y-29032D01*
X57155Y-29023D01*
X57152Y-29014D01*
X57151Y-29004D01*
X57151Y-28995D01*
X57154Y-28986D01*
X57158Y-28977D01*
X57165Y-28970D01*
X57172Y-28963D01*
X57180Y-28959D01*
X57190Y-28956D01*
X57199Y-28955D01*
X57208Y-28955D01*
X57218Y-28958D01*
X57226Y-28962D01*
X57234Y-28968D01*
X57240Y-28976D01*
X57245Y-28984D01*
X57248Y-28993D01*
X57249Y-29003D01*
X57250Y-29004D01*
X57200Y-29454D02*
X57200Y-29054D01*
X57200Y-29054D02*
X57800Y-29054D01*
X57800Y-29054D02*
X57800Y-29454D01*
X57800Y-29854D02*
X57800Y-30254D01*
X57800Y-30254D02*
X57200Y-30254D01*
X57200Y-30254D02*
X57200Y-29854D01*
X57250Y-30579D02*
X57249Y-30588D01*
X57246Y-30598D01*
X57241Y-30606D01*
X57235Y-30614D01*
X57227Y-30620D01*
X57219Y-30625D01*
X57210Y-30627D01*
X57200Y-30628D01*
X57191Y-30628D01*
X57182Y-30625D01*
X57173Y-30620D01*
X57166Y-30614D01*
X57159Y-30607D01*
X57155Y-30598D01*
X57152Y-30589D01*
X57151Y-30579D01*
X57151Y-30570D01*
X57154Y-30561D01*
X57158Y-30552D01*
X57165Y-30545D01*
X57172Y-30538D01*
X57180Y-30534D01*
X57190Y-30531D01*
X57199Y-30530D01*
X57208Y-30530D01*
X57218Y-30533D01*
X57226Y-30537D01*
X57234Y-30543D01*
X57240Y-30551D01*
X57245Y-30559D01*
X57248Y-30568D01*
X57249Y-30578D01*
X57250Y-30579D01*
X57200Y-31029D02*
X57200Y-30629D01*
X57200Y-30629D02*
X57800Y-30629D01*
X57800Y-30629D02*
X57800Y-31029D01*
X57800Y-31429D02*
X57800Y-31829D01*
X57800Y-31829D02*
X57200Y-31829D01*
X57200Y-31829D02*
X57200Y-31429D01*
X57250Y-32154D02*
X57249Y-32163D01*
X57246Y-32173D01*
X57241Y-32181D01*
X57235Y-32189D01*
X57227Y-32195D01*
X57219Y-32200D01*
X57210Y-32202D01*
X57200Y-32203D01*
X57191Y-32203D01*
X57182Y-32200D01*
X57173Y-32195D01*
X57166Y-32189D01*
X57159Y-32182D01*
X57155Y-32173D01*
X57152Y-32164D01*
X57151Y-32154D01*
X57151Y-32145D01*
X57154Y-32136D01*
X57158Y-32127D01*
X57165Y-32120D01*
X57172Y-32113D01*
X57180Y-32109D01*
X57190Y-32106D01*
X57199Y-32105D01*
X57208Y-32105D01*
X57218Y-32108D01*
X57226Y-32112D01*
X57234Y-32118D01*
X57240Y-32126D01*
X57245Y-32134D01*
X57248Y-32143D01*
X57249Y-32153D01*
X57250Y-32154D01*
X57200Y-32604D02*
X57200Y-32204D01*
X57200Y-32204D02*
X57800Y-32204D01*
X57800Y-32204D02*
X57800Y-32604D01*
X57800Y-33004D02*
X57800Y-33404D01*
X57800Y-33404D02*
X57200Y-33404D01*
X57200Y-33404D02*
X57200Y-33004D01*
X57250Y-33729D02*
X57249Y-33738D01*
X57246Y-33748D01*
X57241Y-33756D01*
X57235Y-33764D01*
X57227Y-33770D01*
X57219Y-33775D01*
X57210Y-33777D01*
X57200Y-33778D01*
X57191Y-33778D01*
X57182Y-33775D01*
X57173Y-33770D01*
X57166Y-33764D01*
X57159Y-33757D01*
X57155Y-33748D01*
X57152Y-33739D01*
X57151Y-33729D01*
X57151Y-33720D01*
X57154Y-33711D01*
X57158Y-33702D01*
X57165Y-33695D01*
X57172Y-33688D01*
X57180Y-33684D01*
X57190Y-33681D01*
X57199Y-33680D01*
X57208Y-33680D01*
X57218Y-33683D01*
X57226Y-33687D01*
X57234Y-33693D01*
X57240Y-33701D01*
X57245Y-33709D01*
X57248Y-33718D01*
X57249Y-33728D01*
X57250Y-33729D01*
X57200Y-34179D02*
X57200Y-33779D01*
X57200Y-33779D02*
X57800Y-33779D01*
X57800Y-33779D02*
X57800Y-34179D01*
X57800Y-34579D02*
X57800Y-34979D01*
X57800Y-34979D02*
X57200Y-34979D01*
X57200Y-34979D02*
X57200Y-34579D01*
X57250Y-35304D02*
X57249Y-35313D01*
X57246Y-35323D01*
X57241Y-35331D01*
X57235Y-35339D01*
X57227Y-35345D01*
X57219Y-35350D01*
X57210Y-35352D01*
X57200Y-35353D01*
X57191Y-35353D01*
X57182Y-35350D01*
X57173Y-35345D01*
X57166Y-35339D01*
X57159Y-35332D01*
X57155Y-35323D01*
X57152Y-35314D01*
X57151Y-35304D01*
X57151Y-35295D01*
X57154Y-35286D01*
X57158Y-35277D01*
X57165Y-35270D01*
X57172Y-35263D01*
X57180Y-35259D01*
X57190Y-35256D01*
X57199Y-35255D01*
X57208Y-35255D01*
X57218Y-35258D01*
X57226Y-35262D01*
X57234Y-35268D01*
X57240Y-35276D01*
X57245Y-35284D01*
X57248Y-35293D01*
X57249Y-35303D01*
X57250Y-35304D01*
X57200Y-35754D02*
X57200Y-35354D01*
X57200Y-35354D02*
X57800Y-35354D01*
X57800Y-35354D02*
X57800Y-35754D01*
X57800Y-36154D02*
X57800Y-36554D01*
X57800Y-36554D02*
X57200Y-36554D01*
X57200Y-36554D02*
X57200Y-36154D01*
X57250Y-36878D02*
X57249Y-36887D01*
X57246Y-36897D01*
X57241Y-36905D01*
X57235Y-36913D01*
X57227Y-36919D01*
X57219Y-36924D01*
X57210Y-36926D01*
X57200Y-36927D01*
X57191Y-36927D01*
X57182Y-36924D01*
X57173Y-36919D01*
X57166Y-36913D01*
X57159Y-36906D01*
X57155Y-36897D01*
X57152Y-36888D01*
X57151Y-36878D01*
X57151Y-36869D01*
X57154Y-36860D01*
X57158Y-36851D01*
X57165Y-36844D01*
X57172Y-36837D01*
X57180Y-36833D01*
X57190Y-36830D01*
X57199Y-36829D01*
X57208Y-36829D01*
X57218Y-36832D01*
X57226Y-36836D01*
X57234Y-36842D01*
X57240Y-36850D01*
X57245Y-36858D01*
X57248Y-36867D01*
X57249Y-36877D01*
X57250Y-36878D01*
X57200Y-37328D02*
X57200Y-36928D01*
X57200Y-36928D02*
X57800Y-36928D01*
X57800Y-36928D02*
X57800Y-37328D01*
X57800Y-37728D02*
X57800Y-38128D01*
X57800Y-38128D02*
X57200Y-38128D01*
X57200Y-38128D02*
X57200Y-37728D01*
X57250Y-38453D02*
X57249Y-38462D01*
X57246Y-38472D01*
X57241Y-38480D01*
X57235Y-38488D01*
X57227Y-38494D01*
X57219Y-38499D01*
X57210Y-38501D01*
X57200Y-38502D01*
X57191Y-38502D01*
X57182Y-38499D01*
X57173Y-38494D01*
X57166Y-38488D01*
X57159Y-38481D01*
X57155Y-38472D01*
X57152Y-38463D01*
X57151Y-38453D01*
X57151Y-38444D01*
X57154Y-38435D01*
X57158Y-38426D01*
X57165Y-38419D01*
X57172Y-38412D01*
X57180Y-38408D01*
X57190Y-38405D01*
X57199Y-38404D01*
X57208Y-38404D01*
X57218Y-38407D01*
X57226Y-38411D01*
X57234Y-38417D01*
X57240Y-38425D01*
X57245Y-38433D01*
X57248Y-38442D01*
X57249Y-38452D01*
X57250Y-38453D01*
X57200Y-38903D02*
X57200Y-38503D01*
X57200Y-38503D02*
X57800Y-38503D01*
X57800Y-38503D02*
X57800Y-38903D01*
X57800Y-39303D02*
X57800Y-39703D01*
X57800Y-39703D02*
X57200Y-39703D01*
X57200Y-39703D02*
X57200Y-39303D01*
X57250Y-40028D02*
X57249Y-40037D01*
X57246Y-40047D01*
X57241Y-40055D01*
X57235Y-40063D01*
X57227Y-40069D01*
X57219Y-40074D01*
X57210Y-40076D01*
X57200Y-40077D01*
X57191Y-40077D01*
X57182Y-40074D01*
X57173Y-40069D01*
X57166Y-40063D01*
X57159Y-40056D01*
X57155Y-40047D01*
X57152Y-40038D01*
X57151Y-40028D01*
X57151Y-40019D01*
X57154Y-40010D01*
X57158Y-40001D01*
X57165Y-39994D01*
X57172Y-39987D01*
X57180Y-39983D01*
X57190Y-39980D01*
X57199Y-39979D01*
X57208Y-39979D01*
X57218Y-39982D01*
X57226Y-39986D01*
X57234Y-39992D01*
X57240Y-40000D01*
X57245Y-40008D01*
X57248Y-40017D01*
X57249Y-40027D01*
X57250Y-40028D01*
X57200Y-40478D02*
X57200Y-40078D01*
X57200Y-40078D02*
X57800Y-40078D01*
X57800Y-40078D02*
X57800Y-40478D01*
X57800Y-40878D02*
X57800Y-41278D01*
X57800Y-41278D02*
X57200Y-41278D01*
X57200Y-41278D02*
X57200Y-40878D01*
X57250Y-41603D02*
X57249Y-41612D01*
X57246Y-41622D01*
X57241Y-41630D01*
X57235Y-41638D01*
X57227Y-41644D01*
X57219Y-41649D01*
X57210Y-41651D01*
X57200Y-41652D01*
X57191Y-41652D01*
X57182Y-41649D01*
X57173Y-41644D01*
X57166Y-41638D01*
X57159Y-41631D01*
X57155Y-41622D01*
X57152Y-41613D01*
X57151Y-41603D01*
X57151Y-41594D01*
X57154Y-41585D01*
X57158Y-41576D01*
X57165Y-41569D01*
X57172Y-41562D01*
X57180Y-41558D01*
X57190Y-41555D01*
X57199Y-41554D01*
X57208Y-41554D01*
X57218Y-41557D01*
X57226Y-41561D01*
X57234Y-41567D01*
X57240Y-41575D01*
X57245Y-41583D01*
X57248Y-41592D01*
X57249Y-41602D01*
X57250Y-41603D01*
X57200Y-42053D02*
X57200Y-41653D01*
X57200Y-41653D02*
X57800Y-41653D01*
X57800Y-41653D02*
X57800Y-42053D01*
X57800Y-42453D02*
X57800Y-42853D01*
X57800Y-42853D02*
X57200Y-42853D01*
X57200Y-42853D02*
X57200Y-42453D01*
X57250Y-43178D02*
X57249Y-43187D01*
X57246Y-43197D01*
X57241Y-43205D01*
X57235Y-43213D01*
X57227Y-43219D01*
X57219Y-43224D01*
X57210Y-43226D01*
X57200Y-43227D01*
X57191Y-43227D01*
X57182Y-43224D01*
X57173Y-43219D01*
X57166Y-43213D01*
X57159Y-43206D01*
X57155Y-43197D01*
X57152Y-43188D01*
X57151Y-43178D01*
X57151Y-43169D01*
X57154Y-43160D01*
X57158Y-43151D01*
X57165Y-43144D01*
X57172Y-43137D01*
X57180Y-43133D01*
X57190Y-43130D01*
X57199Y-43129D01*
X57208Y-43129D01*
X57218Y-43132D01*
X57226Y-43136D01*
X57234Y-43142D01*
X57240Y-43150D01*
X57245Y-43158D01*
X57248Y-43167D01*
X57249Y-43177D01*
X57250Y-43178D01*
X57200Y-43628D02*
X57200Y-43228D01*
X57200Y-43228D02*
X57800Y-43228D01*
X57800Y-43228D02*
X57800Y-43628D01*
X57800Y-44028D02*
X57800Y-44428D01*
X57800Y-44428D02*
X57200Y-44428D01*
X57200Y-44428D02*
X57200Y-44028D01*
X57250Y-44752D02*
X57249Y-44761D01*
X57246Y-44771D01*
X57241Y-44779D01*
X57235Y-44787D01*
X57227Y-44793D01*
X57219Y-44798D01*
X57210Y-44800D01*
X57200Y-44801D01*
X57191Y-44801D01*
X57182Y-44798D01*
X57173Y-44793D01*
X57166Y-44787D01*
X57159Y-44780D01*
X57155Y-44771D01*
X57152Y-44762D01*
X57151Y-44752D01*
X57151Y-44743D01*
X57154Y-44734D01*
X57158Y-44725D01*
X57165Y-44718D01*
X57172Y-44711D01*
X57180Y-44707D01*
X57190Y-44704D01*
X57199Y-44703D01*
X57208Y-44703D01*
X57218Y-44706D01*
X57226Y-44710D01*
X57234Y-44716D01*
X57240Y-44724D01*
X57245Y-44732D01*
X57248Y-44741D01*
X57249Y-44751D01*
X57250Y-44752D01*
X57200Y-45202D02*
X57200Y-44802D01*
X57200Y-44802D02*
X57800Y-44802D01*
X57800Y-44802D02*
X57800Y-45202D01*
X57800Y-45602D02*
X57800Y-46002D01*
X57800Y-46002D02*
X57200Y-46002D01*
X57200Y-46002D02*
X57200Y-45602D01*
X57250Y-46327D02*
X57249Y-46336D01*
X57246Y-46346D01*
X57241Y-46354D01*
X57235Y-46362D01*
X57227Y-46368D01*
X57219Y-46373D01*
X57210Y-46375D01*
X57200Y-46376D01*
X57191Y-46376D01*
X57182Y-46373D01*
X57173Y-46368D01*
X57166Y-46362D01*
X57159Y-46355D01*
X57155Y-46346D01*
X57152Y-46337D01*
X57151Y-46327D01*
X57151Y-46318D01*
X57154Y-46309D01*
X57158Y-46300D01*
X57165Y-46293D01*
X57172Y-46286D01*
X57180Y-46282D01*
X57190Y-46279D01*
X57199Y-46278D01*
X57208Y-46278D01*
X57218Y-46281D01*
X57226Y-46285D01*
X57234Y-46291D01*
X57240Y-46299D01*
X57245Y-46307D01*
X57248Y-46316D01*
X57249Y-46326D01*
X57250Y-46327D01*
X57200Y-46777D02*
X57200Y-46377D01*
X57200Y-46377D02*
X57800Y-46377D01*
X57800Y-46377D02*
X57800Y-46777D01*
X57800Y-47177D02*
X57800Y-47577D01*
X57800Y-47577D02*
X57200Y-47577D01*
X57200Y-47577D02*
X57200Y-47177D01*
X57250Y-47902D02*
X57249Y-47911D01*
X57246Y-47921D01*
X57241Y-47929D01*
X57235Y-47937D01*
X57227Y-47943D01*
X57219Y-47948D01*
X57210Y-47950D01*
X57200Y-47951D01*
X57191Y-47951D01*
X57182Y-47948D01*
X57173Y-47943D01*
X57166Y-47937D01*
X57159Y-47930D01*
X57155Y-47921D01*
X57152Y-47912D01*
X57151Y-47902D01*
X57151Y-47893D01*
X57154Y-47884D01*
X57158Y-47875D01*
X57165Y-47868D01*
X57172Y-47861D01*
X57180Y-47857D01*
X57190Y-47854D01*
X57199Y-47853D01*
X57208Y-47853D01*
X57218Y-47856D01*
X57226Y-47860D01*
X57234Y-47866D01*
X57240Y-47874D01*
X57245Y-47882D01*
X57248Y-47891D01*
X57249Y-47901D01*
X57250Y-47902D01*
X57200Y-48352D02*
X57200Y-47952D01*
X57200Y-47952D02*
X57800Y-47952D01*
X57800Y-47952D02*
X57800Y-48352D01*
X57800Y-48752D02*
X57800Y-49152D01*
X57800Y-49152D02*
X57200Y-49152D01*
X57200Y-49152D02*
X57200Y-48752D01*
X57250Y-49477D02*
X57249Y-49486D01*
X57246Y-49496D01*
X57241Y-49504D01*
X57235Y-49512D01*
X57227Y-49518D01*
X57219Y-49523D01*
X57210Y-49525D01*
X57200Y-49526D01*
X57191Y-49526D01*
X57182Y-49523D01*
X57173Y-49518D01*
X57166Y-49512D01*
X57159Y-49505D01*
X57155Y-49496D01*
X57152Y-49487D01*
X57151Y-49477D01*
X57151Y-49468D01*
X57154Y-49459D01*
X57158Y-49450D01*
X57165Y-49443D01*
X57172Y-49436D01*
X57180Y-49432D01*
X57190Y-49429D01*
X57199Y-49428D01*
X57208Y-49428D01*
X57218Y-49431D01*
X57226Y-49435D01*
X57234Y-49441D01*
X57240Y-49449D01*
X57245Y-49457D01*
X57248Y-49466D01*
X57249Y-49476D01*
X57250Y-49477D01*
X57200Y-49927D02*
X57200Y-49527D01*
X57200Y-49527D02*
X57800Y-49527D01*
X57800Y-49527D02*
X57800Y-49927D01*
X57800Y-50327D02*
X57800Y-50727D01*
X57800Y-50727D02*
X57200Y-50727D01*
X57200Y-50727D02*
X57200Y-50327D01*
X57250Y-51052D02*
X57249Y-51061D01*
X57246Y-51071D01*
X57241Y-51079D01*
X57235Y-51087D01*
X57227Y-51093D01*
X57219Y-51098D01*
X57210Y-51100D01*
X57200Y-51101D01*
X57191Y-51101D01*
X57182Y-51098D01*
X57173Y-51093D01*
X57166Y-51087D01*
X57159Y-51080D01*
X57155Y-51071D01*
X57152Y-51062D01*
X57151Y-51052D01*
X57151Y-51043D01*
X57154Y-51034D01*
X57158Y-51025D01*
X57165Y-51018D01*
X57172Y-51011D01*
X57180Y-51007D01*
X57190Y-51004D01*
X57199Y-51003D01*
X57208Y-51003D01*
X57218Y-51006D01*
X57226Y-51010D01*
X57234Y-51016D01*
X57240Y-51024D01*
X57245Y-51032D01*
X57248Y-51041D01*
X57249Y-51051D01*
X57250Y-51052D01*
X57200Y-51502D02*
X57200Y-51102D01*
X57200Y-51102D02*
X57800Y-51102D01*
X57800Y-51102D02*
X57800Y-51502D01*
X57800Y-51902D02*
X57800Y-52302D01*
X57800Y-52302D02*
X57200Y-52302D01*
X57200Y-52302D02*
X57200Y-51902D01*
X67250Y-29004D02*
X67249Y-29013D01*
X67246Y-29023D01*
X67241Y-29031D01*
X67235Y-29039D01*
X67227Y-29045D01*
X67219Y-29050D01*
X67210Y-29052D01*
X67200Y-29053D01*
X67191Y-29053D01*
X67182Y-29050D01*
X67173Y-29045D01*
X67166Y-29039D01*
X67159Y-29032D01*
X67155Y-29023D01*
X67152Y-29014D01*
X67151Y-29004D01*
X67151Y-28995D01*
X67154Y-28986D01*
X67158Y-28977D01*
X67165Y-28970D01*
X67172Y-28963D01*
X67180Y-28959D01*
X67190Y-28956D01*
X67199Y-28955D01*
X67208Y-28955D01*
X67218Y-28958D01*
X67226Y-28962D01*
X67234Y-28968D01*
X67240Y-28976D01*
X67245Y-28984D01*
X67248Y-28993D01*
X67249Y-29003D01*
X67250Y-29004D01*
X67200Y-29454D02*
X67200Y-29054D01*
X67200Y-29054D02*
X67800Y-29054D01*
X67800Y-29054D02*
X67800Y-29454D01*
X67800Y-29854D02*
X67800Y-30254D01*
X67800Y-30254D02*
X67200Y-30254D01*
X67200Y-30254D02*
X67200Y-29854D01*
X67250Y-30579D02*
X67249Y-30588D01*
X67246Y-30598D01*
X67241Y-30606D01*
X67235Y-30614D01*
X67227Y-30620D01*
X67219Y-30625D01*
X67210Y-30627D01*
X67200Y-30628D01*
X67191Y-30628D01*
X67182Y-30625D01*
X67173Y-30620D01*
X67166Y-30614D01*
X67159Y-30607D01*
X67155Y-30598D01*
X67152Y-30589D01*
X67151Y-30579D01*
X67151Y-30570D01*
X67154Y-30561D01*
X67158Y-30552D01*
X67165Y-30545D01*
X67172Y-30538D01*
X67180Y-30534D01*
X67190Y-30531D01*
X67199Y-30530D01*
X67208Y-30530D01*
X67218Y-30533D01*
X67226Y-30537D01*
X67234Y-30543D01*
X67240Y-30551D01*
X67245Y-30559D01*
X67248Y-30568D01*
X67249Y-30578D01*
X67250Y-30579D01*
X67200Y-31029D02*
X67200Y-30629D01*
X67200Y-30629D02*
X67800Y-30629D01*
X67800Y-30629D02*
X67800Y-31029D01*
X67800Y-31429D02*
X67800Y-31829D01*
X67800Y-31829D02*
X67200Y-31829D01*
X67200Y-31829D02*
X67200Y-31429D01*
X67250Y-32154D02*
X67249Y-32163D01*
X67246Y-32173D01*
X67241Y-32181D01*
X67235Y-32189D01*
X67227Y-32195D01*
X67219Y-32200D01*
X67210Y-32202D01*
X67200Y-32203D01*
X67191Y-32203D01*
X67182Y-32200D01*
X67173Y-32195D01*
X67166Y-32189D01*
X67159Y-32182D01*
X67155Y-32173D01*
X67152Y-32164D01*
X67151Y-32154D01*
X67151Y-32145D01*
X67154Y-32136D01*
X67158Y-32127D01*
X67165Y-32120D01*
X67172Y-32113D01*
X67180Y-32109D01*
X67190Y-32106D01*
X67199Y-32105D01*
X67208Y-32105D01*
X67218Y-32108D01*
X67226Y-32112D01*
X67234Y-32118D01*
X67240Y-32126D01*
X67245Y-32134D01*
X67248Y-32143D01*
X67249Y-32153D01*
X67250Y-32154D01*
X67200Y-32604D02*
X67200Y-32204D01*
X67200Y-32204D02*
X67800Y-32204D01*
X67800Y-32204D02*
X67800Y-32604D01*
X67800Y-33004D02*
X67800Y-33404D01*
X67800Y-33404D02*
X67200Y-33404D01*
X67200Y-33404D02*
X67200Y-33004D01*
X67250Y-33729D02*
X67249Y-33738D01*
X67246Y-33748D01*
X67241Y-33756D01*
X67235Y-33764D01*
X67227Y-33770D01*
X67219Y-33775D01*
X67210Y-33777D01*
X67200Y-33778D01*
X67191Y-33778D01*
X67182Y-33775D01*
X67173Y-33770D01*
X67166Y-33764D01*
X67159Y-33757D01*
X67155Y-33748D01*
X67152Y-33739D01*
X67151Y-33729D01*
X67151Y-33720D01*
X67154Y-33711D01*
X67158Y-33702D01*
X67165Y-33695D01*
X67172Y-33688D01*
X67180Y-33684D01*
X67190Y-33681D01*
X67199Y-33680D01*
X67208Y-33680D01*
X67218Y-33683D01*
X67226Y-33687D01*
X67234Y-33693D01*
X67240Y-33701D01*
X67245Y-33709D01*
X67248Y-33718D01*
X67249Y-33728D01*
X67250Y-33729D01*
X67200Y-34179D02*
X67200Y-33779D01*
X67200Y-33779D02*
X67800Y-33779D01*
X67800Y-33779D02*
X67800Y-34179D01*
X67800Y-34579D02*
X67800Y-34979D01*
X67800Y-34979D02*
X67200Y-34979D01*
X67200Y-34979D02*
X67200Y-34579D01*
X67250Y-35304D02*
X67249Y-35313D01*
X67246Y-35323D01*
X67241Y-35331D01*
X67235Y-35339D01*
X67227Y-35345D01*
X67219Y-35350D01*
X67210Y-35352D01*
X67200Y-35353D01*
X67191Y-35353D01*
X67182Y-35350D01*
X67173Y-35345D01*
X67166Y-35339D01*
X67159Y-35332D01*
X67155Y-35323D01*
X67152Y-35314D01*
X67151Y-35304D01*
X67151Y-35295D01*
X67154Y-35286D01*
X67158Y-35277D01*
X67165Y-35270D01*
X67172Y-35263D01*
X67180Y-35259D01*
X67190Y-35256D01*
X67199Y-35255D01*
X67208Y-35255D01*
X67218Y-35258D01*
X67226Y-35262D01*
X67234Y-35268D01*
X67240Y-35276D01*
X67245Y-35284D01*
X67248Y-35293D01*
X67249Y-35303D01*
X67250Y-35304D01*
X67200Y-35754D02*
X67200Y-35354D01*
X67200Y-35354D02*
X67800Y-35354D01*
X67800Y-35354D02*
X67800Y-35754D01*
X67800Y-36154D02*
X67800Y-36554D01*
X67800Y-36554D02*
X67200Y-36554D01*
X67200Y-36554D02*
X67200Y-36154D01*
X67250Y-36878D02*
X67249Y-36887D01*
X67246Y-36897D01*
X67241Y-36905D01*
X67235Y-36913D01*
X67227Y-36919D01*
X67219Y-36924D01*
X67210Y-36926D01*
X67200Y-36927D01*
X67191Y-36927D01*
X67182Y-36924D01*
X67173Y-36919D01*
X67166Y-36913D01*
X67159Y-36906D01*
X67155Y-36897D01*
X67152Y-36888D01*
X67151Y-36878D01*
X67151Y-36869D01*
X67154Y-36860D01*
X67158Y-36851D01*
X67165Y-36844D01*
X67172Y-36837D01*
X67180Y-36833D01*
X67190Y-36830D01*
X67199Y-36829D01*
X67208Y-36829D01*
X67218Y-36832D01*
X67226Y-36836D01*
X67234Y-36842D01*
X67240Y-36850D01*
X67245Y-36858D01*
X67248Y-36867D01*
X67249Y-36877D01*
X67250Y-36878D01*
X67200Y-37328D02*
X67200Y-36928D01*
X67200Y-36928D02*
X67800Y-36928D01*
X67800Y-36928D02*
X67800Y-37328D01*
X67800Y-37728D02*
X67800Y-38128D01*
X67800Y-38128D02*
X67200Y-38128D01*
X67200Y-38128D02*
X67200Y-37728D01*
X67250Y-38453D02*
X67249Y-38462D01*
X67246Y-38472D01*
X67241Y-38480D01*
X67235Y-38488D01*
X67227Y-38494D01*
X67219Y-38499D01*
X67210Y-38501D01*
X67200Y-38502D01*
X67191Y-38502D01*
X67182Y-38499D01*
X67173Y-38494D01*
X67166Y-38488D01*
X67159Y-38481D01*
X67155Y-38472D01*
X67152Y-38463D01*
X67151Y-38453D01*
X67151Y-38444D01*
X67154Y-38435D01*
X67158Y-38426D01*
X67165Y-38419D01*
X67172Y-38412D01*
X67180Y-38408D01*
X67190Y-38405D01*
X67199Y-38404D01*
X67208Y-38404D01*
X67218Y-38407D01*
X67226Y-38411D01*
X67234Y-38417D01*
X67240Y-38425D01*
X67245Y-38433D01*
X67248Y-38442D01*
X67249Y-38452D01*
X67250Y-38453D01*
X67200Y-38903D02*
X67200Y-38503D01*
X67200Y-38503D02*
X67800Y-38503D01*
X67800Y-38503D02*
X67800Y-38903D01*
X67800Y-39303D02*
X67800Y-39703D01*
X67800Y-39703D02*
X67200Y-39703D01*
X67200Y-39703D02*
X67200Y-39303D01*
X67250Y-40028D02*
X67249Y-40037D01*
X67246Y-40047D01*
X67241Y-40055D01*
X67235Y-40063D01*
X67227Y-40069D01*
X67219Y-40074D01*
X67210Y-40076D01*
X67200Y-40077D01*
X67191Y-40077D01*
X67182Y-40074D01*
X67173Y-40069D01*
X67166Y-40063D01*
X67159Y-40056D01*
X67155Y-40047D01*
X67152Y-40038D01*
X67151Y-40028D01*
X67151Y-40019D01*
X67154Y-40010D01*
X67158Y-40001D01*
X67165Y-39994D01*
X67172Y-39987D01*
X67180Y-39983D01*
X67190Y-39980D01*
X67199Y-39979D01*
X67208Y-39979D01*
X67218Y-39982D01*
X67226Y-39986D01*
X67234Y-39992D01*
X67240Y-40000D01*
X67245Y-40008D01*
X67248Y-40017D01*
X67249Y-40027D01*
X67250Y-40028D01*
X67200Y-40478D02*
X67200Y-40078D01*
X67200Y-40078D02*
X67800Y-40078D01*
X67800Y-40078D02*
X67800Y-40478D01*
X67800Y-40878D02*
X67800Y-41278D01*
X67800Y-41278D02*
X67200Y-41278D01*
X67200Y-41278D02*
X67200Y-40878D01*
X67250Y-41603D02*
X67249Y-41612D01*
X67246Y-41622D01*
X67241Y-41630D01*
X67235Y-41638D01*
X67227Y-41644D01*
X67219Y-41649D01*
X67210Y-41651D01*
X67200Y-41652D01*
X67191Y-41652D01*
X67182Y-41649D01*
X67173Y-41644D01*
X67166Y-41638D01*
X67159Y-41631D01*
X67155Y-41622D01*
X67152Y-41613D01*
X67151Y-41603D01*
X67151Y-41594D01*
X67154Y-41585D01*
X67158Y-41576D01*
X67165Y-41569D01*
X67172Y-41562D01*
X67180Y-41558D01*
X67190Y-41555D01*
X67199Y-41554D01*
X67208Y-41554D01*
X67218Y-41557D01*
X67226Y-41561D01*
X67234Y-41567D01*
X67240Y-41575D01*
X67245Y-41583D01*
X67248Y-41592D01*
X67249Y-41602D01*
X67250Y-41603D01*
X67200Y-42053D02*
X67200Y-41653D01*
X67200Y-41653D02*
X67800Y-41653D01*
X67800Y-41653D02*
X67800Y-42053D01*
X67800Y-42453D02*
X67800Y-42853D01*
X67800Y-42853D02*
X67200Y-42853D01*
X67200Y-42853D02*
X67200Y-42453D01*
X67250Y-43178D02*
X67249Y-43187D01*
X67246Y-43197D01*
X67241Y-43205D01*
X67235Y-43213D01*
X67227Y-43219D01*
X67219Y-43224D01*
X67210Y-43226D01*
X67200Y-43227D01*
X67191Y-43227D01*
X67182Y-43224D01*
X67173Y-43219D01*
X67166Y-43213D01*
X67159Y-43206D01*
X67155Y-43197D01*
X67152Y-43188D01*
X67151Y-43178D01*
X67151Y-43169D01*
X67154Y-43160D01*
X67158Y-43151D01*
X67165Y-43144D01*
X67172Y-43137D01*
X67180Y-43133D01*
X67190Y-43130D01*
X67199Y-43129D01*
X67208Y-43129D01*
X67218Y-43132D01*
X67226Y-43136D01*
X67234Y-43142D01*
X67240Y-43150D01*
X67245Y-43158D01*
X67248Y-43167D01*
X67249Y-43177D01*
X67250Y-43178D01*
X67200Y-43628D02*
X67200Y-43228D01*
X67200Y-43228D02*
X67800Y-43228D01*
X67800Y-43228D02*
X67800Y-43628D01*
X67800Y-44028D02*
X67800Y-44428D01*
X67800Y-44428D02*
X67200Y-44428D01*
X67200Y-44428D02*
X67200Y-44028D01*
X67250Y-44752D02*
X67249Y-44761D01*
X67246Y-44771D01*
X67241Y-44779D01*
X67235Y-44787D01*
X67227Y-44793D01*
X67219Y-44798D01*
X67210Y-44800D01*
X67200Y-44801D01*
X67191Y-44801D01*
X67182Y-44798D01*
X67173Y-44793D01*
X67166Y-44787D01*
X67159Y-44780D01*
X67155Y-44771D01*
X67152Y-44762D01*
X67151Y-44752D01*
X67151Y-44743D01*
X67154Y-44734D01*
X67158Y-44725D01*
X67165Y-44718D01*
X67172Y-44711D01*
X67180Y-44707D01*
X67190Y-44704D01*
X67199Y-44703D01*
X67208Y-44703D01*
X67218Y-44706D01*
X67226Y-44710D01*
X67234Y-44716D01*
X67240Y-44724D01*
X67245Y-44732D01*
X67248Y-44741D01*
X67249Y-44751D01*
X67250Y-44752D01*
X67200Y-45202D02*
X67200Y-44802D01*
X67200Y-44802D02*
X67800Y-44802D01*
X67800Y-44802D02*
X67800Y-45202D01*
X67800Y-45602D02*
X67800Y-46002D01*
X67800Y-46002D02*
X67200Y-46002D01*
X67200Y-46002D02*
X67200Y-45602D01*
X67250Y-46327D02*
X67249Y-46336D01*
X67246Y-46346D01*
X67241Y-46354D01*
X67235Y-46362D01*
X67227Y-46368D01*
X67219Y-46373D01*
X67210Y-46375D01*
X67200Y-46376D01*
X67191Y-46376D01*
X67182Y-46373D01*
X67173Y-46368D01*
X67166Y-46362D01*
X67159Y-46355D01*
X67155Y-46346D01*
X67152Y-46337D01*
X67151Y-46327D01*
X67151Y-46318D01*
X67154Y-46309D01*
X67158Y-46300D01*
X67165Y-46293D01*
X67172Y-46286D01*
X67180Y-46282D01*
X67190Y-46279D01*
X67199Y-46278D01*
X67208Y-46278D01*
X67218Y-46281D01*
X67226Y-46285D01*
X67234Y-46291D01*
X67240Y-46299D01*
X67245Y-46307D01*
X67248Y-46316D01*
X67249Y-46326D01*
X67250Y-46327D01*
X67200Y-46777D02*
X67200Y-46377D01*
X67200Y-46377D02*
X67800Y-46377D01*
X67800Y-46377D02*
X67800Y-46777D01*
X67800Y-47177D02*
X67800Y-47577D01*
X67800Y-47577D02*
X67200Y-47577D01*
X67200Y-47577D02*
X67200Y-47177D01*
X67250Y-47902D02*
X67249Y-47911D01*
X67246Y-47921D01*
X67241Y-47929D01*
X67235Y-47937D01*
X67227Y-47943D01*
X67219Y-47948D01*
X67210Y-47950D01*
X67200Y-47951D01*
X67191Y-47951D01*
X67182Y-47948D01*
X67173Y-47943D01*
X67166Y-47937D01*
X67159Y-47930D01*
X67155Y-47921D01*
X67152Y-47912D01*
X67151Y-47902D01*
X67151Y-47893D01*
X67154Y-47884D01*
X67158Y-47875D01*
X67165Y-47868D01*
X67172Y-47861D01*
X67180Y-47857D01*
X67190Y-47854D01*
X67199Y-47853D01*
X67208Y-47853D01*
X67218Y-47856D01*
X67226Y-47860D01*
X67234Y-47866D01*
X67240Y-47874D01*
X67245Y-47882D01*
X67248Y-47891D01*
X67249Y-47901D01*
X67250Y-47902D01*
X67200Y-48352D02*
X67200Y-47952D01*
X67200Y-47952D02*
X67800Y-47952D01*
X67800Y-47952D02*
X67800Y-48352D01*
X67800Y-48752D02*
X67800Y-49152D01*
X67800Y-49152D02*
X67200Y-49152D01*
X67200Y-49152D02*
X67200Y-48752D01*
X67250Y-49477D02*
X67249Y-49486D01*
X67246Y-49496D01*
X67241Y-49504D01*
X67235Y-49512D01*
X67227Y-49518D01*
X67219Y-49523D01*
X67210Y-49525D01*
X67200Y-49526D01*
X67191Y-49526D01*
X67182Y-49523D01*
X67173Y-49518D01*
X67166Y-49512D01*
X67159Y-49505D01*
X67155Y-49496D01*
X67152Y-49487D01*
X67151Y-49477D01*
X67151Y-49468D01*
X67154Y-49459D01*
X67158Y-49450D01*
X67165Y-49443D01*
X67172Y-49436D01*
X67180Y-49432D01*
X67190Y-49429D01*
X67199Y-49428D01*
X67208Y-49428D01*
X67218Y-49431D01*
X67226Y-49435D01*
X67234Y-49441D01*
X67240Y-49449D01*
X67245Y-49457D01*
X67248Y-49466D01*
X67249Y-49476D01*
X67250Y-49477D01*
X67200Y-49927D02*
X67200Y-49527D01*
X67200Y-49527D02*
X67800Y-49527D01*
X67800Y-49527D02*
X67800Y-49927D01*
X67800Y-50327D02*
X67800Y-50727D01*
X67800Y-50727D02*
X67200Y-50727D01*
X67200Y-50727D02*
X67200Y-50327D01*
X67250Y-51052D02*
X67249Y-51061D01*
X67246Y-51071D01*
X67241Y-51079D01*
X67235Y-51087D01*
X67227Y-51093D01*
X67219Y-51098D01*
X67210Y-51100D01*
X67200Y-51101D01*
X67191Y-51101D01*
X67182Y-51098D01*
X67173Y-51093D01*
X67166Y-51087D01*
X67159Y-51080D01*
X67155Y-51071D01*
X67152Y-51062D01*
X67151Y-51052D01*
X67151Y-51043D01*
X67154Y-51034D01*
X67158Y-51025D01*
X67165Y-51018D01*
X67172Y-51011D01*
X67180Y-51007D01*
X67190Y-51004D01*
X67199Y-51003D01*
X67208Y-51003D01*
X67218Y-51006D01*
X67226Y-51010D01*
X67234Y-51016D01*
X67240Y-51024D01*
X67245Y-51032D01*
X67248Y-51041D01*
X67249Y-51051D01*
X67250Y-51052D01*
X67200Y-51502D02*
X67200Y-51102D01*
X67200Y-51102D02*
X67800Y-51102D01*
X67800Y-51102D02*
X67800Y-51502D01*
X67800Y-51902D02*
X67800Y-52302D01*
X67800Y-52302D02*
X67200Y-52302D01*
X67200Y-52302D02*
X67200Y-51902D01*
X77250Y-29004D02*
X77249Y-29013D01*
X77246Y-29023D01*
X77241Y-29031D01*
X77235Y-29039D01*
X77227Y-29045D01*
X77219Y-29050D01*
X77210Y-29052D01*
X77200Y-29053D01*
X77191Y-29053D01*
X77182Y-29050D01*
X77173Y-29045D01*
X77166Y-29039D01*
X77159Y-29032D01*
X77155Y-29023D01*
X77152Y-29014D01*
X77151Y-29004D01*
X77151Y-28995D01*
X77154Y-28986D01*
X77158Y-28977D01*
X77165Y-28970D01*
X77172Y-28963D01*
X77180Y-28959D01*
X77190Y-28956D01*
X77199Y-28955D01*
X77208Y-28955D01*
X77218Y-28958D01*
X77226Y-28962D01*
X77234Y-28968D01*
X77240Y-28976D01*
X77245Y-28984D01*
X77248Y-28993D01*
X77249Y-29003D01*
X77250Y-29004D01*
X77200Y-29454D02*
X77200Y-29054D01*
X77200Y-29054D02*
X77800Y-29054D01*
X77800Y-29054D02*
X77800Y-29454D01*
X77800Y-29854D02*
X77800Y-30254D01*
X77800Y-30254D02*
X77200Y-30254D01*
X77200Y-30254D02*
X77200Y-29854D01*
X77250Y-30579D02*
X77249Y-30588D01*
X77246Y-30598D01*
X77241Y-30606D01*
X77235Y-30614D01*
X77227Y-30620D01*
X77219Y-30625D01*
X77210Y-30627D01*
X77200Y-30628D01*
X77191Y-30628D01*
X77182Y-30625D01*
X77173Y-30620D01*
X77166Y-30614D01*
X77159Y-30607D01*
X77155Y-30598D01*
X77152Y-30589D01*
X77151Y-30579D01*
X77151Y-30570D01*
X77154Y-30561D01*
X77158Y-30552D01*
X77165Y-30545D01*
X77172Y-30538D01*
X77180Y-30534D01*
X77190Y-30531D01*
X77199Y-30530D01*
X77208Y-30530D01*
X77218Y-30533D01*
X77226Y-30537D01*
X77234Y-30543D01*
X77240Y-30551D01*
X77245Y-30559D01*
X77248Y-30568D01*
X77249Y-30578D01*
X77250Y-30579D01*
X77200Y-31029D02*
X77200Y-30629D01*
X77200Y-30629D02*
X77800Y-30629D01*
X77800Y-30629D02*
X77800Y-31029D01*
X77800Y-31429D02*
X77800Y-31829D01*
X77800Y-31829D02*
X77200Y-31829D01*
X77200Y-31829D02*
X77200Y-31429D01*
X39650Y-38121D02*
X39550Y-37979D01*
X39478Y-38121D02*
X39478Y-37821D01*
X39593Y-37821D01*
X39621Y-37836D01*
X39636Y-37850D01*
X39650Y-37879D01*
X39650Y-37921D01*
X39636Y-37950D01*
X39621Y-37964D01*
X39593Y-37979D01*
X39478Y-37979D01*
X39936Y-38121D02*
X39764Y-38121D01*
X39850Y-38121D02*
X39850Y-37821D01*
X39821Y-37864D01*
X39793Y-37893D01*
X39764Y-37907D01*
X47051Y-52003D02*
X46801Y-52003D01*
X46801Y-51944D01*
X46813Y-51908D01*
X46837Y-51884D01*
X46861Y-51873D01*
X46908Y-51861D01*
X46944Y-51861D01*
X46992Y-51873D01*
X47015Y-51884D01*
X47039Y-51908D01*
X47051Y-51944D01*
X47051Y-52003D01*
X47051Y-51623D02*
X47051Y-51765D01*
X47051Y-51694D02*
X46801Y-51694D01*
X46837Y-51718D01*
X46861Y-51742D01*
X46873Y-51765D01*
X46801Y-51396D02*
X46801Y-51515D01*
X46920Y-51527D01*
X46908Y-51515D01*
X46896Y-51492D01*
X46896Y-51432D01*
X46908Y-51408D01*
X46920Y-51396D01*
X46944Y-51385D01*
X47004Y-51385D01*
X47027Y-51396D01*
X47039Y-51408D01*
X47051Y-51432D01*
X47051Y-51492D01*
X47039Y-51515D01*
X47027Y-51527D01*
X47051Y-50453D02*
X46801Y-50453D01*
X46801Y-50394D01*
X46813Y-50358D01*
X46837Y-50334D01*
X46861Y-50323D01*
X46908Y-50311D01*
X46944Y-50311D01*
X46992Y-50323D01*
X47015Y-50334D01*
X47039Y-50358D01*
X47051Y-50394D01*
X47051Y-50453D01*
X47051Y-50073D02*
X47051Y-50215D01*
X47051Y-50144D02*
X46801Y-50144D01*
X46837Y-50168D01*
X46861Y-50192D01*
X46873Y-50215D01*
X46885Y-49858D02*
X47051Y-49858D01*
X46789Y-49918D02*
X46968Y-49977D01*
X46968Y-49823D01*
X47051Y-48853D02*
X46801Y-48853D01*
X46801Y-48794D01*
X46813Y-48758D01*
X46837Y-48734D01*
X46861Y-48723D01*
X46908Y-48711D01*
X46944Y-48711D01*
X46992Y-48723D01*
X47015Y-48734D01*
X47039Y-48758D01*
X47051Y-48794D01*
X47051Y-48853D01*
X47051Y-48473D02*
X47051Y-48615D01*
X47051Y-48544D02*
X46801Y-48544D01*
X46837Y-48568D01*
X46861Y-48592D01*
X46873Y-48615D01*
X46801Y-48389D02*
X46801Y-48235D01*
X46896Y-48318D01*
X46896Y-48282D01*
X46908Y-48258D01*
X46920Y-48246D01*
X46944Y-48235D01*
X47004Y-48235D01*
X47027Y-48246D01*
X47039Y-48258D01*
X47051Y-48282D01*
X47051Y-48354D01*
X47039Y-48377D01*
X47027Y-48389D01*
X47051Y-47253D02*
X46801Y-47253D01*
X46801Y-47194D01*
X46813Y-47158D01*
X46837Y-47134D01*
X46861Y-47123D01*
X46908Y-47111D01*
X46944Y-47111D01*
X46992Y-47123D01*
X47015Y-47134D01*
X47039Y-47158D01*
X47051Y-47194D01*
X47051Y-47253D01*
X47051Y-46873D02*
X47051Y-47015D01*
X47051Y-46944D02*
X46801Y-46944D01*
X46837Y-46968D01*
X46861Y-46992D01*
X46873Y-47015D01*
X46825Y-46777D02*
X46813Y-46765D01*
X46801Y-46742D01*
X46801Y-46682D01*
X46813Y-46658D01*
X46825Y-46646D01*
X46849Y-46635D01*
X46873Y-46635D01*
X46908Y-46646D01*
X47051Y-46789D01*
X47051Y-46635D01*
X47051Y-45703D02*
X46801Y-45703D01*
X46801Y-45644D01*
X46813Y-45608D01*
X46837Y-45584D01*
X46861Y-45573D01*
X46908Y-45561D01*
X46944Y-45561D01*
X46992Y-45573D01*
X47015Y-45584D01*
X47039Y-45608D01*
X47051Y-45644D01*
X47051Y-45703D01*
X47051Y-45323D02*
X47051Y-45465D01*
X47051Y-45394D02*
X46801Y-45394D01*
X46837Y-45418D01*
X46861Y-45442D01*
X46873Y-45465D01*
X47051Y-45085D02*
X47051Y-45227D01*
X47051Y-45156D02*
X46801Y-45156D01*
X46837Y-45180D01*
X46861Y-45204D01*
X46873Y-45227D01*
X47051Y-44153D02*
X46801Y-44153D01*
X46801Y-44094D01*
X46813Y-44058D01*
X46837Y-44034D01*
X46861Y-44023D01*
X46908Y-44011D01*
X46944Y-44011D01*
X46992Y-44023D01*
X47015Y-44034D01*
X47039Y-44058D01*
X47051Y-44094D01*
X47051Y-44153D01*
X47051Y-43773D02*
X47051Y-43915D01*
X47051Y-43844D02*
X46801Y-43844D01*
X46837Y-43868D01*
X46861Y-43892D01*
X46873Y-43915D01*
X46801Y-43618D02*
X46801Y-43594D01*
X46813Y-43570D01*
X46825Y-43558D01*
X46849Y-43546D01*
X46896Y-43535D01*
X46956Y-43535D01*
X47004Y-43546D01*
X47027Y-43558D01*
X47039Y-43570D01*
X47051Y-43594D01*
X47051Y-43618D01*
X47039Y-43642D01*
X47027Y-43654D01*
X47004Y-43665D01*
X46956Y-43677D01*
X46896Y-43677D01*
X46849Y-43665D01*
X46825Y-43654D01*
X46813Y-43642D01*
X46801Y-43618D01*
X47051Y-42434D02*
X46801Y-42434D01*
X46801Y-42375D01*
X46813Y-42339D01*
X46837Y-42315D01*
X46861Y-42304D01*
X46908Y-42292D01*
X46944Y-42292D01*
X46992Y-42304D01*
X47015Y-42315D01*
X47039Y-42339D01*
X47051Y-42375D01*
X47051Y-42434D01*
X47051Y-42173D02*
X47051Y-42125D01*
X47039Y-42101D01*
X47027Y-42089D01*
X46992Y-42065D01*
X46944Y-42054D01*
X46849Y-42054D01*
X46825Y-42065D01*
X46813Y-42077D01*
X46801Y-42101D01*
X46801Y-42149D01*
X46813Y-42173D01*
X46825Y-42184D01*
X46849Y-42196D01*
X46908Y-42196D01*
X46932Y-42184D01*
X46944Y-42173D01*
X46956Y-42149D01*
X46956Y-42101D01*
X46944Y-42077D01*
X46932Y-42065D01*
X46908Y-42054D01*
X47051Y-40834D02*
X46801Y-40834D01*
X46801Y-40775D01*
X46813Y-40739D01*
X46837Y-40715D01*
X46861Y-40704D01*
X46908Y-40692D01*
X46944Y-40692D01*
X46992Y-40704D01*
X47015Y-40715D01*
X47039Y-40739D01*
X47051Y-40775D01*
X47051Y-40834D01*
X46908Y-40549D02*
X46896Y-40573D01*
X46885Y-40584D01*
X46861Y-40596D01*
X46849Y-40596D01*
X46825Y-40584D01*
X46813Y-40573D01*
X46801Y-40549D01*
X46801Y-40501D01*
X46813Y-40477D01*
X46825Y-40465D01*
X46849Y-40454D01*
X46861Y-40454D01*
X46885Y-40465D01*
X46896Y-40477D01*
X46908Y-40501D01*
X46908Y-40549D01*
X46920Y-40573D01*
X46932Y-40584D01*
X46956Y-40596D01*
X47004Y-40596D01*
X47027Y-40584D01*
X47039Y-40573D01*
X47051Y-40549D01*
X47051Y-40501D01*
X47039Y-40477D01*
X47027Y-40465D01*
X47004Y-40454D01*
X46956Y-40454D01*
X46932Y-40465D01*
X46920Y-40477D01*
X46908Y-40501D01*
X47051Y-39284D02*
X46801Y-39284D01*
X46801Y-39225D01*
X46813Y-39189D01*
X46837Y-39165D01*
X46861Y-39154D01*
X46908Y-39142D01*
X46944Y-39142D01*
X46992Y-39154D01*
X47015Y-39165D01*
X47039Y-39189D01*
X47051Y-39225D01*
X47051Y-39284D01*
X46801Y-39058D02*
X46801Y-38892D01*
X47051Y-38999D01*
X47051Y-37734D02*
X46801Y-37734D01*
X46801Y-37675D01*
X46813Y-37639D01*
X46837Y-37615D01*
X46861Y-37604D01*
X46908Y-37592D01*
X46944Y-37592D01*
X46992Y-37604D01*
X47015Y-37615D01*
X47039Y-37639D01*
X47051Y-37675D01*
X47051Y-37734D01*
X46801Y-37377D02*
X46801Y-37425D01*
X46813Y-37449D01*
X46825Y-37461D01*
X46861Y-37484D01*
X46908Y-37496D01*
X47004Y-37496D01*
X47027Y-37484D01*
X47039Y-37473D01*
X47051Y-37449D01*
X47051Y-37401D01*
X47039Y-37377D01*
X47027Y-37365D01*
X47004Y-37354D01*
X46944Y-37354D01*
X46920Y-37365D01*
X46908Y-37377D01*
X46896Y-37401D01*
X46896Y-37449D01*
X46908Y-37473D01*
X46920Y-37484D01*
X46944Y-37496D01*
X47051Y-36084D02*
X46801Y-36084D01*
X46801Y-36025D01*
X46813Y-35989D01*
X46837Y-35965D01*
X46861Y-35954D01*
X46908Y-35942D01*
X46944Y-35942D01*
X46992Y-35954D01*
X47015Y-35965D01*
X47039Y-35989D01*
X47051Y-36025D01*
X47051Y-36084D01*
X46801Y-35715D02*
X46801Y-35834D01*
X46920Y-35846D01*
X46908Y-35834D01*
X46896Y-35811D01*
X46896Y-35751D01*
X46908Y-35727D01*
X46920Y-35715D01*
X46944Y-35704D01*
X47004Y-35704D01*
X47027Y-35715D01*
X47039Y-35727D01*
X47051Y-35751D01*
X47051Y-35811D01*
X47039Y-35834D01*
X47027Y-35846D01*
X47051Y-34584D02*
X46801Y-34584D01*
X46801Y-34525D01*
X46813Y-34489D01*
X46837Y-34465D01*
X46861Y-34454D01*
X46908Y-34442D01*
X46944Y-34442D01*
X46992Y-34454D01*
X47015Y-34465D01*
X47039Y-34489D01*
X47051Y-34525D01*
X47051Y-34584D01*
X46885Y-34227D02*
X47051Y-34227D01*
X46789Y-34287D02*
X46968Y-34346D01*
X46968Y-34192D01*
X47051Y-32984D02*
X46801Y-32984D01*
X46801Y-32925D01*
X46813Y-32889D01*
X46837Y-32865D01*
X46861Y-32854D01*
X46908Y-32842D01*
X46944Y-32842D01*
X46992Y-32854D01*
X47015Y-32865D01*
X47039Y-32889D01*
X47051Y-32925D01*
X47051Y-32984D01*
X46801Y-32758D02*
X46801Y-32604D01*
X46896Y-32687D01*
X46896Y-32651D01*
X46908Y-32627D01*
X46920Y-32615D01*
X46944Y-32604D01*
X47004Y-32604D01*
X47027Y-32615D01*
X47039Y-32627D01*
X47051Y-32651D01*
X47051Y-32723D01*
X47039Y-32746D01*
X47027Y-32758D01*
X47051Y-31434D02*
X46801Y-31434D01*
X46801Y-31375D01*
X46813Y-31339D01*
X46837Y-31315D01*
X46861Y-31304D01*
X46908Y-31292D01*
X46944Y-31292D01*
X46992Y-31304D01*
X47015Y-31315D01*
X47039Y-31339D01*
X47051Y-31375D01*
X47051Y-31434D01*
X46825Y-31196D02*
X46813Y-31184D01*
X46801Y-31161D01*
X46801Y-31101D01*
X46813Y-31077D01*
X46825Y-31065D01*
X46849Y-31054D01*
X46873Y-31054D01*
X46908Y-31065D01*
X47051Y-31208D01*
X47051Y-31054D01*
X47051Y-29834D02*
X46801Y-29834D01*
X46801Y-29775D01*
X46813Y-29739D01*
X46837Y-29715D01*
X46861Y-29704D01*
X46908Y-29692D01*
X46944Y-29692D01*
X46992Y-29704D01*
X47015Y-29715D01*
X47039Y-29739D01*
X47051Y-29775D01*
X47051Y-29834D01*
X47051Y-29454D02*
X47051Y-29596D01*
X47051Y-29525D02*
X46801Y-29525D01*
X46837Y-29549D01*
X46861Y-29573D01*
X46873Y-29596D01*
G54D11*
X27658Y-35243D02*
X27658Y-34643D01*
X27886Y-34643D01*
X27944Y-34671D01*
X27972Y-34700D01*
X28001Y-34757D01*
X28001Y-34843D01*
X27972Y-34900D01*
X27944Y-34929D01*
X27886Y-34957D01*
X27658Y-34957D01*
X28572Y-35243D02*
X28229Y-35243D01*
X28401Y-35243D02*
X28401Y-34643D01*
X28344Y-34729D01*
X28286Y-34786D01*
X28229Y-34814D01*
G54D12*
X39650Y-44171D02*
X39550Y-44029D01*
X39478Y-44171D02*
X39478Y-43871D01*
X39593Y-43871D01*
X39621Y-43886D01*
X39636Y-43900D01*
X39650Y-43929D01*
X39650Y-43971D01*
X39636Y-44000D01*
X39621Y-44014D01*
X39593Y-44029D01*
X39478Y-44029D01*
X39921Y-43871D02*
X39778Y-43871D01*
X39764Y-44014D01*
X39778Y-44000D01*
X39807Y-43986D01*
X39878Y-43986D01*
X39907Y-44000D01*
X39921Y-44014D01*
X39936Y-44043D01*
X39936Y-44114D01*
X39921Y-44143D01*
X39907Y-44157D01*
X39878Y-44171D01*
X39807Y-44171D01*
X39778Y-44157D01*
X39764Y-44143D01*
X39650Y-42621D02*
X39550Y-42479D01*
X39478Y-42621D02*
X39478Y-42321D01*
X39593Y-42321D01*
X39621Y-42336D01*
X39636Y-42350D01*
X39650Y-42379D01*
X39650Y-42421D01*
X39636Y-42450D01*
X39621Y-42464D01*
X39593Y-42479D01*
X39478Y-42479D01*
X39907Y-42421D02*
X39907Y-42621D01*
X39836Y-42307D02*
X39764Y-42521D01*
X39950Y-42521D01*
X39650Y-41121D02*
X39550Y-40979D01*
X39478Y-41121D02*
X39478Y-40821D01*
X39593Y-40821D01*
X39621Y-40836D01*
X39636Y-40850D01*
X39650Y-40879D01*
X39650Y-40921D01*
X39636Y-40950D01*
X39621Y-40964D01*
X39593Y-40979D01*
X39478Y-40979D01*
X39750Y-40821D02*
X39936Y-40821D01*
X39836Y-40936D01*
X39878Y-40936D01*
X39907Y-40950D01*
X39921Y-40964D01*
X39936Y-40993D01*
X39936Y-41064D01*
X39921Y-41093D01*
X39907Y-41107D01*
X39878Y-41121D01*
X39793Y-41121D01*
X39764Y-41107D01*
X39750Y-41093D01*
X39650Y-39621D02*
X39550Y-39479D01*
X39478Y-39621D02*
X39478Y-39321D01*
X39593Y-39321D01*
X39621Y-39336D01*
X39636Y-39350D01*
X39650Y-39379D01*
X39650Y-39421D01*
X39636Y-39450D01*
X39621Y-39464D01*
X39593Y-39479D01*
X39478Y-39479D01*
X39764Y-39350D02*
X39778Y-39336D01*
X39807Y-39321D01*
X39878Y-39321D01*
X39907Y-39336D01*
X39921Y-39350D01*
X39936Y-39379D01*
X39936Y-39407D01*
X39921Y-39450D01*
X39750Y-39621D01*
X39936Y-39621D01*
X87051Y-29953D02*
X86801Y-29953D01*
X86801Y-29894D01*
X86813Y-29858D01*
X86837Y-29834D01*
X86861Y-29823D01*
X86908Y-29811D01*
X86944Y-29811D01*
X86992Y-29823D01*
X87015Y-29834D01*
X87039Y-29858D01*
X87051Y-29894D01*
X87051Y-29953D01*
X86801Y-29596D02*
X86801Y-29644D01*
X86813Y-29668D01*
X86825Y-29680D01*
X86861Y-29703D01*
X86908Y-29715D01*
X87004Y-29715D01*
X87027Y-29703D01*
X87039Y-29692D01*
X87051Y-29668D01*
X87051Y-29620D01*
X87039Y-29596D01*
X87027Y-29584D01*
X87004Y-29573D01*
X86944Y-29573D01*
X86920Y-29584D01*
X86908Y-29596D01*
X86896Y-29620D01*
X86896Y-29668D01*
X86908Y-29692D01*
X86920Y-29703D01*
X86944Y-29715D01*
X87051Y-29335D02*
X87051Y-29477D01*
X87051Y-29406D02*
X86801Y-29406D01*
X86837Y-29430D01*
X86861Y-29454D01*
X86873Y-29477D01*
X77051Y-52003D02*
X76801Y-52003D01*
X76801Y-51944D01*
X76813Y-51908D01*
X76837Y-51884D01*
X76861Y-51873D01*
X76908Y-51861D01*
X76944Y-51861D01*
X76992Y-51873D01*
X77015Y-51884D01*
X77039Y-51908D01*
X77051Y-51944D01*
X77051Y-52003D01*
X76801Y-51646D02*
X76801Y-51694D01*
X76813Y-51718D01*
X76825Y-51730D01*
X76861Y-51753D01*
X76908Y-51765D01*
X77004Y-51765D01*
X77027Y-51753D01*
X77039Y-51742D01*
X77051Y-51718D01*
X77051Y-51670D01*
X77039Y-51646D01*
X77027Y-51634D01*
X77004Y-51623D01*
X76944Y-51623D01*
X76920Y-51634D01*
X76908Y-51646D01*
X76896Y-51670D01*
X76896Y-51718D01*
X76908Y-51742D01*
X76920Y-51753D01*
X76944Y-51765D01*
X76801Y-51468D02*
X76801Y-51444D01*
X76813Y-51420D01*
X76825Y-51408D01*
X76849Y-51396D01*
X76896Y-51385D01*
X76956Y-51385D01*
X77004Y-51396D01*
X77027Y-51408D01*
X77039Y-51420D01*
X77051Y-51444D01*
X77051Y-51468D01*
X77039Y-51492D01*
X77027Y-51504D01*
X77004Y-51515D01*
X76956Y-51527D01*
X76896Y-51527D01*
X76849Y-51515D01*
X76825Y-51504D01*
X76813Y-51492D01*
X76801Y-51468D01*
X77051Y-50403D02*
X76801Y-50403D01*
X76801Y-50344D01*
X76813Y-50308D01*
X76837Y-50284D01*
X76861Y-50273D01*
X76908Y-50261D01*
X76944Y-50261D01*
X76992Y-50273D01*
X77015Y-50284D01*
X77039Y-50308D01*
X77051Y-50344D01*
X77051Y-50403D01*
X76801Y-50034D02*
X76801Y-50153D01*
X76920Y-50165D01*
X76908Y-50153D01*
X76896Y-50130D01*
X76896Y-50070D01*
X76908Y-50046D01*
X76920Y-50034D01*
X76944Y-50023D01*
X77004Y-50023D01*
X77027Y-50034D01*
X77039Y-50046D01*
X77051Y-50070D01*
X77051Y-50130D01*
X77039Y-50153D01*
X77027Y-50165D01*
X77051Y-49904D02*
X77051Y-49856D01*
X77039Y-49832D01*
X77027Y-49820D01*
X76992Y-49796D01*
X76944Y-49785D01*
X76849Y-49785D01*
X76825Y-49796D01*
X76813Y-49808D01*
X76801Y-49832D01*
X76801Y-49880D01*
X76813Y-49904D01*
X76825Y-49915D01*
X76849Y-49927D01*
X76908Y-49927D01*
X76932Y-49915D01*
X76944Y-49904D01*
X76956Y-49880D01*
X76956Y-49832D01*
X76944Y-49808D01*
X76932Y-49796D01*
X76908Y-49785D01*
X77051Y-48853D02*
X76801Y-48853D01*
X76801Y-48794D01*
X76813Y-48758D01*
X76837Y-48734D01*
X76861Y-48723D01*
X76908Y-48711D01*
X76944Y-48711D01*
X76992Y-48723D01*
X77015Y-48734D01*
X77039Y-48758D01*
X77051Y-48794D01*
X77051Y-48853D01*
X76801Y-48484D02*
X76801Y-48603D01*
X76920Y-48615D01*
X76908Y-48603D01*
X76896Y-48580D01*
X76896Y-48520D01*
X76908Y-48496D01*
X76920Y-48484D01*
X76944Y-48473D01*
X77004Y-48473D01*
X77027Y-48484D01*
X77039Y-48496D01*
X77051Y-48520D01*
X77051Y-48580D01*
X77039Y-48603D01*
X77027Y-48615D01*
X76908Y-48330D02*
X76896Y-48354D01*
X76885Y-48365D01*
X76861Y-48377D01*
X76849Y-48377D01*
X76825Y-48365D01*
X76813Y-48354D01*
X76801Y-48330D01*
X76801Y-48282D01*
X76813Y-48258D01*
X76825Y-48246D01*
X76849Y-48235D01*
X76861Y-48235D01*
X76885Y-48246D01*
X76896Y-48258D01*
X76908Y-48282D01*
X76908Y-48330D01*
X76920Y-48354D01*
X76932Y-48365D01*
X76956Y-48377D01*
X77004Y-48377D01*
X77027Y-48365D01*
X77039Y-48354D01*
X77051Y-48330D01*
X77051Y-48282D01*
X77039Y-48258D01*
X77027Y-48246D01*
X77004Y-48235D01*
X76956Y-48235D01*
X76932Y-48246D01*
X76920Y-48258D01*
X76908Y-48282D01*
X77051Y-47253D02*
X76801Y-47253D01*
X76801Y-47194D01*
X76813Y-47158D01*
X76837Y-47134D01*
X76861Y-47123D01*
X76908Y-47111D01*
X76944Y-47111D01*
X76992Y-47123D01*
X77015Y-47134D01*
X77039Y-47158D01*
X77051Y-47194D01*
X77051Y-47253D01*
X76801Y-46884D02*
X76801Y-47003D01*
X76920Y-47015D01*
X76908Y-47003D01*
X76896Y-46980D01*
X76896Y-46920D01*
X76908Y-46896D01*
X76920Y-46884D01*
X76944Y-46873D01*
X77004Y-46873D01*
X77027Y-46884D01*
X77039Y-46896D01*
X77051Y-46920D01*
X77051Y-46980D01*
X77039Y-47003D01*
X77027Y-47015D01*
X76801Y-46789D02*
X76801Y-46623D01*
X77051Y-46730D01*
X77051Y-45703D02*
X76801Y-45703D01*
X76801Y-45644D01*
X76813Y-45608D01*
X76837Y-45584D01*
X76861Y-45573D01*
X76908Y-45561D01*
X76944Y-45561D01*
X76992Y-45573D01*
X77015Y-45584D01*
X77039Y-45608D01*
X77051Y-45644D01*
X77051Y-45703D01*
X76801Y-45334D02*
X76801Y-45453D01*
X76920Y-45465D01*
X76908Y-45453D01*
X76896Y-45430D01*
X76896Y-45370D01*
X76908Y-45346D01*
X76920Y-45334D01*
X76944Y-45323D01*
X77004Y-45323D01*
X77027Y-45334D01*
X77039Y-45346D01*
X77051Y-45370D01*
X77051Y-45430D01*
X77039Y-45453D01*
X77027Y-45465D01*
X76801Y-45108D02*
X76801Y-45156D01*
X76813Y-45180D01*
X76825Y-45192D01*
X76861Y-45215D01*
X76908Y-45227D01*
X77004Y-45227D01*
X77027Y-45215D01*
X77039Y-45204D01*
X77051Y-45180D01*
X77051Y-45132D01*
X77039Y-45108D01*
X77027Y-45096D01*
X77004Y-45085D01*
X76944Y-45085D01*
X76920Y-45096D01*
X76908Y-45108D01*
X76896Y-45132D01*
X76896Y-45180D01*
X76908Y-45204D01*
X76920Y-45215D01*
X76944Y-45227D01*
X77051Y-44153D02*
X76801Y-44153D01*
X76801Y-44094D01*
X76813Y-44058D01*
X76837Y-44034D01*
X76861Y-44023D01*
X76908Y-44011D01*
X76944Y-44011D01*
X76992Y-44023D01*
X77015Y-44034D01*
X77039Y-44058D01*
X77051Y-44094D01*
X77051Y-44153D01*
X76801Y-43784D02*
X76801Y-43903D01*
X76920Y-43915D01*
X76908Y-43903D01*
X76896Y-43880D01*
X76896Y-43820D01*
X76908Y-43796D01*
X76920Y-43784D01*
X76944Y-43773D01*
X77004Y-43773D01*
X77027Y-43784D01*
X77039Y-43796D01*
X77051Y-43820D01*
X77051Y-43880D01*
X77039Y-43903D01*
X77027Y-43915D01*
X76801Y-43546D02*
X76801Y-43665D01*
X76920Y-43677D01*
X76908Y-43665D01*
X76896Y-43642D01*
X76896Y-43582D01*
X76908Y-43558D01*
X76920Y-43546D01*
X76944Y-43535D01*
X77004Y-43535D01*
X77027Y-43546D01*
X77039Y-43558D01*
X77051Y-43582D01*
X77051Y-43642D01*
X77039Y-43665D01*
X77027Y-43677D01*
X77051Y-42553D02*
X76801Y-42553D01*
X76801Y-42494D01*
X76813Y-42458D01*
X76837Y-42434D01*
X76861Y-42423D01*
X76908Y-42411D01*
X76944Y-42411D01*
X76992Y-42423D01*
X77015Y-42434D01*
X77039Y-42458D01*
X77051Y-42494D01*
X77051Y-42553D01*
X76801Y-42184D02*
X76801Y-42303D01*
X76920Y-42315D01*
X76908Y-42303D01*
X76896Y-42280D01*
X76896Y-42220D01*
X76908Y-42196D01*
X76920Y-42184D01*
X76944Y-42173D01*
X77004Y-42173D01*
X77027Y-42184D01*
X77039Y-42196D01*
X77051Y-42220D01*
X77051Y-42280D01*
X77039Y-42303D01*
X77027Y-42315D01*
X76885Y-41958D02*
X77051Y-41958D01*
X76789Y-42018D02*
X76968Y-42077D01*
X76968Y-41923D01*
X77051Y-41003D02*
X76801Y-41003D01*
X76801Y-40944D01*
X76813Y-40908D01*
X76837Y-40884D01*
X76861Y-40873D01*
X76908Y-40861D01*
X76944Y-40861D01*
X76992Y-40873D01*
X77015Y-40884D01*
X77039Y-40908D01*
X77051Y-40944D01*
X77051Y-41003D01*
X76801Y-40634D02*
X76801Y-40753D01*
X76920Y-40765D01*
X76908Y-40753D01*
X76896Y-40730D01*
X76896Y-40670D01*
X76908Y-40646D01*
X76920Y-40634D01*
X76944Y-40623D01*
X77004Y-40623D01*
X77027Y-40634D01*
X77039Y-40646D01*
X77051Y-40670D01*
X77051Y-40730D01*
X77039Y-40753D01*
X77027Y-40765D01*
X76801Y-40539D02*
X76801Y-40385D01*
X76896Y-40468D01*
X76896Y-40432D01*
X76908Y-40408D01*
X76920Y-40396D01*
X76944Y-40385D01*
X77004Y-40385D01*
X77027Y-40396D01*
X77039Y-40408D01*
X77051Y-40432D01*
X77051Y-40504D01*
X77039Y-40527D01*
X77027Y-40539D01*
X77051Y-39403D02*
X76801Y-39403D01*
X76801Y-39344D01*
X76813Y-39308D01*
X76837Y-39284D01*
X76861Y-39273D01*
X76908Y-39261D01*
X76944Y-39261D01*
X76992Y-39273D01*
X77015Y-39284D01*
X77039Y-39308D01*
X77051Y-39344D01*
X77051Y-39403D01*
X76801Y-39034D02*
X76801Y-39153D01*
X76920Y-39165D01*
X76908Y-39153D01*
X76896Y-39130D01*
X76896Y-39070D01*
X76908Y-39046D01*
X76920Y-39034D01*
X76944Y-39023D01*
X77004Y-39023D01*
X77027Y-39034D01*
X77039Y-39046D01*
X77051Y-39070D01*
X77051Y-39130D01*
X77039Y-39153D01*
X77027Y-39165D01*
X76825Y-38927D02*
X76813Y-38915D01*
X76801Y-38892D01*
X76801Y-38832D01*
X76813Y-38808D01*
X76825Y-38796D01*
X76849Y-38785D01*
X76873Y-38785D01*
X76908Y-38796D01*
X77051Y-38939D01*
X77051Y-38785D01*
X77051Y-37803D02*
X76801Y-37803D01*
X76801Y-37744D01*
X76813Y-37708D01*
X76837Y-37684D01*
X76861Y-37673D01*
X76908Y-37661D01*
X76944Y-37661D01*
X76992Y-37673D01*
X77015Y-37684D01*
X77039Y-37708D01*
X77051Y-37744D01*
X77051Y-37803D01*
X76801Y-37434D02*
X76801Y-37553D01*
X76920Y-37565D01*
X76908Y-37553D01*
X76896Y-37530D01*
X76896Y-37470D01*
X76908Y-37446D01*
X76920Y-37434D01*
X76944Y-37423D01*
X77004Y-37423D01*
X77027Y-37434D01*
X77039Y-37446D01*
X77051Y-37470D01*
X77051Y-37530D01*
X77039Y-37553D01*
X77027Y-37565D01*
X77051Y-37185D02*
X77051Y-37327D01*
X77051Y-37256D02*
X76801Y-37256D01*
X76837Y-37280D01*
X76861Y-37304D01*
X76873Y-37327D01*
X77051Y-36253D02*
X76801Y-36253D01*
X76801Y-36194D01*
X76813Y-36158D01*
X76837Y-36134D01*
X76861Y-36123D01*
X76908Y-36111D01*
X76944Y-36111D01*
X76992Y-36123D01*
X77015Y-36134D01*
X77039Y-36158D01*
X77051Y-36194D01*
X77051Y-36253D01*
X76801Y-35884D02*
X76801Y-36003D01*
X76920Y-36015D01*
X76908Y-36003D01*
X76896Y-35980D01*
X76896Y-35920D01*
X76908Y-35896D01*
X76920Y-35884D01*
X76944Y-35873D01*
X77004Y-35873D01*
X77027Y-35884D01*
X77039Y-35896D01*
X77051Y-35920D01*
X77051Y-35980D01*
X77039Y-36003D01*
X77027Y-36015D01*
X76801Y-35718D02*
X76801Y-35694D01*
X76813Y-35670D01*
X76825Y-35658D01*
X76849Y-35646D01*
X76896Y-35635D01*
X76956Y-35635D01*
X77004Y-35646D01*
X77027Y-35658D01*
X77039Y-35670D01*
X77051Y-35694D01*
X77051Y-35718D01*
X77039Y-35742D01*
X77027Y-35754D01*
X77004Y-35765D01*
X76956Y-35777D01*
X76896Y-35777D01*
X76849Y-35765D01*
X76825Y-35754D01*
X76813Y-35742D01*
X76801Y-35718D01*
X77051Y-34703D02*
X76801Y-34703D01*
X76801Y-34644D01*
X76813Y-34608D01*
X76837Y-34584D01*
X76861Y-34573D01*
X76908Y-34561D01*
X76944Y-34561D01*
X76992Y-34573D01*
X77015Y-34584D01*
X77039Y-34608D01*
X77051Y-34644D01*
X77051Y-34703D01*
X76885Y-34346D02*
X77051Y-34346D01*
X76789Y-34406D02*
X76968Y-34465D01*
X76968Y-34311D01*
X77051Y-34204D02*
X77051Y-34156D01*
X77039Y-34132D01*
X77027Y-34120D01*
X76992Y-34096D01*
X76944Y-34085D01*
X76849Y-34085D01*
X76825Y-34096D01*
X76813Y-34108D01*
X76801Y-34132D01*
X76801Y-34180D01*
X76813Y-34204D01*
X76825Y-34215D01*
X76849Y-34227D01*
X76908Y-34227D01*
X76932Y-34215D01*
X76944Y-34204D01*
X76956Y-34180D01*
X76956Y-34132D01*
X76944Y-34108D01*
X76932Y-34096D01*
X76908Y-34085D01*
X77051Y-33103D02*
X76801Y-33103D01*
X76801Y-33044D01*
X76813Y-33008D01*
X76837Y-32984D01*
X76861Y-32973D01*
X76908Y-32961D01*
X76944Y-32961D01*
X76992Y-32973D01*
X77015Y-32984D01*
X77039Y-33008D01*
X77051Y-33044D01*
X77051Y-33103D01*
X76885Y-32746D02*
X77051Y-32746D01*
X76789Y-32806D02*
X76968Y-32865D01*
X76968Y-32711D01*
X76908Y-32580D02*
X76896Y-32604D01*
X76885Y-32615D01*
X76861Y-32627D01*
X76849Y-32627D01*
X76825Y-32615D01*
X76813Y-32604D01*
X76801Y-32580D01*
X76801Y-32532D01*
X76813Y-32508D01*
X76825Y-32496D01*
X76849Y-32485D01*
X76861Y-32485D01*
X76885Y-32496D01*
X76896Y-32508D01*
X76908Y-32532D01*
X76908Y-32580D01*
X76920Y-32604D01*
X76932Y-32615D01*
X76956Y-32627D01*
X77004Y-32627D01*
X77027Y-32615D01*
X77039Y-32604D01*
X77051Y-32580D01*
X77051Y-32532D01*
X77039Y-32508D01*
X77027Y-32496D01*
X77004Y-32485D01*
X76956Y-32485D01*
X76932Y-32496D01*
X76920Y-32508D01*
X76908Y-32532D01*
X87051Y-31553D02*
X86801Y-31553D01*
X86801Y-31494D01*
X86813Y-31458D01*
X86837Y-31434D01*
X86861Y-31423D01*
X86908Y-31411D01*
X86944Y-31411D01*
X86992Y-31423D01*
X87015Y-31434D01*
X87039Y-31458D01*
X87051Y-31494D01*
X87051Y-31553D01*
X86801Y-31196D02*
X86801Y-31244D01*
X86813Y-31268D01*
X86825Y-31280D01*
X86861Y-31303D01*
X86908Y-31315D01*
X87004Y-31315D01*
X87027Y-31303D01*
X87039Y-31292D01*
X87051Y-31268D01*
X87051Y-31220D01*
X87039Y-31196D01*
X87027Y-31184D01*
X87004Y-31173D01*
X86944Y-31173D01*
X86920Y-31184D01*
X86908Y-31196D01*
X86896Y-31220D01*
X86896Y-31268D01*
X86908Y-31292D01*
X86920Y-31303D01*
X86944Y-31315D01*
X86825Y-31077D02*
X86813Y-31065D01*
X86801Y-31042D01*
X86801Y-30982D01*
X86813Y-30958D01*
X86825Y-30946D01*
X86849Y-30935D01*
X86873Y-30935D01*
X86908Y-30946D01*
X87051Y-31089D01*
X87051Y-30935D01*
X87051Y-33103D02*
X86801Y-33103D01*
X86801Y-33044D01*
X86813Y-33008D01*
X86837Y-32984D01*
X86861Y-32973D01*
X86908Y-32961D01*
X86944Y-32961D01*
X86992Y-32973D01*
X87015Y-32984D01*
X87039Y-33008D01*
X87051Y-33044D01*
X87051Y-33103D01*
X86801Y-32746D02*
X86801Y-32794D01*
X86813Y-32818D01*
X86825Y-32830D01*
X86861Y-32853D01*
X86908Y-32865D01*
X87004Y-32865D01*
X87027Y-32853D01*
X87039Y-32842D01*
X87051Y-32818D01*
X87051Y-32770D01*
X87039Y-32746D01*
X87027Y-32734D01*
X87004Y-32723D01*
X86944Y-32723D01*
X86920Y-32734D01*
X86908Y-32746D01*
X86896Y-32770D01*
X86896Y-32818D01*
X86908Y-32842D01*
X86920Y-32853D01*
X86944Y-32865D01*
X86801Y-32639D02*
X86801Y-32485D01*
X86896Y-32568D01*
X86896Y-32532D01*
X86908Y-32508D01*
X86920Y-32496D01*
X86944Y-32485D01*
X87004Y-32485D01*
X87027Y-32496D01*
X87039Y-32508D01*
X87051Y-32532D01*
X87051Y-32604D01*
X87039Y-32627D01*
X87027Y-32639D01*
X87051Y-34703D02*
X86801Y-34703D01*
X86801Y-34644D01*
X86813Y-34608D01*
X86837Y-34584D01*
X86861Y-34573D01*
X86908Y-34561D01*
X86944Y-34561D01*
X86992Y-34573D01*
X87015Y-34584D01*
X87039Y-34608D01*
X87051Y-34644D01*
X87051Y-34703D01*
X86801Y-34346D02*
X86801Y-34394D01*
X86813Y-34418D01*
X86825Y-34430D01*
X86861Y-34453D01*
X86908Y-34465D01*
X87004Y-34465D01*
X87027Y-34453D01*
X87039Y-34442D01*
X87051Y-34418D01*
X87051Y-34370D01*
X87039Y-34346D01*
X87027Y-34334D01*
X87004Y-34323D01*
X86944Y-34323D01*
X86920Y-34334D01*
X86908Y-34346D01*
X86896Y-34370D01*
X86896Y-34418D01*
X86908Y-34442D01*
X86920Y-34453D01*
X86944Y-34465D01*
X86885Y-34108D02*
X87051Y-34108D01*
X86789Y-34168D02*
X86968Y-34227D01*
X86968Y-34073D01*
X87051Y-36253D02*
X86801Y-36253D01*
X86801Y-36194D01*
X86813Y-36158D01*
X86837Y-36134D01*
X86861Y-36123D01*
X86908Y-36111D01*
X86944Y-36111D01*
X86992Y-36123D01*
X87015Y-36134D01*
X87039Y-36158D01*
X87051Y-36194D01*
X87051Y-36253D01*
X86801Y-35896D02*
X86801Y-35944D01*
X86813Y-35968D01*
X86825Y-35980D01*
X86861Y-36003D01*
X86908Y-36015D01*
X87004Y-36015D01*
X87027Y-36003D01*
X87039Y-35992D01*
X87051Y-35968D01*
X87051Y-35920D01*
X87039Y-35896D01*
X87027Y-35884D01*
X87004Y-35873D01*
X86944Y-35873D01*
X86920Y-35884D01*
X86908Y-35896D01*
X86896Y-35920D01*
X86896Y-35968D01*
X86908Y-35992D01*
X86920Y-36003D01*
X86944Y-36015D01*
X86801Y-35646D02*
X86801Y-35765D01*
X86920Y-35777D01*
X86908Y-35765D01*
X86896Y-35742D01*
X86896Y-35682D01*
X86908Y-35658D01*
X86920Y-35646D01*
X86944Y-35635D01*
X87004Y-35635D01*
X87027Y-35646D01*
X87039Y-35658D01*
X87051Y-35682D01*
X87051Y-35742D01*
X87039Y-35765D01*
X87027Y-35777D01*
X87051Y-37903D02*
X86801Y-37903D01*
X86801Y-37844D01*
X86813Y-37808D01*
X86837Y-37784D01*
X86861Y-37773D01*
X86908Y-37761D01*
X86944Y-37761D01*
X86992Y-37773D01*
X87015Y-37784D01*
X87039Y-37808D01*
X87051Y-37844D01*
X87051Y-37903D01*
X86801Y-37546D02*
X86801Y-37594D01*
X86813Y-37618D01*
X86825Y-37630D01*
X86861Y-37653D01*
X86908Y-37665D01*
X87004Y-37665D01*
X87027Y-37653D01*
X87039Y-37642D01*
X87051Y-37618D01*
X87051Y-37570D01*
X87039Y-37546D01*
X87027Y-37534D01*
X87004Y-37523D01*
X86944Y-37523D01*
X86920Y-37534D01*
X86908Y-37546D01*
X86896Y-37570D01*
X86896Y-37618D01*
X86908Y-37642D01*
X86920Y-37653D01*
X86944Y-37665D01*
X86801Y-37308D02*
X86801Y-37356D01*
X86813Y-37380D01*
X86825Y-37392D01*
X86861Y-37415D01*
X86908Y-37427D01*
X87004Y-37427D01*
X87027Y-37415D01*
X87039Y-37404D01*
X87051Y-37380D01*
X87051Y-37332D01*
X87039Y-37308D01*
X87027Y-37296D01*
X87004Y-37285D01*
X86944Y-37285D01*
X86920Y-37296D01*
X86908Y-37308D01*
X86896Y-37332D01*
X86896Y-37380D01*
X86908Y-37404D01*
X86920Y-37415D01*
X86944Y-37427D01*
X87051Y-39403D02*
X86801Y-39403D01*
X86801Y-39344D01*
X86813Y-39308D01*
X86837Y-39284D01*
X86861Y-39273D01*
X86908Y-39261D01*
X86944Y-39261D01*
X86992Y-39273D01*
X87015Y-39284D01*
X87039Y-39308D01*
X87051Y-39344D01*
X87051Y-39403D01*
X86801Y-39046D02*
X86801Y-39094D01*
X86813Y-39118D01*
X86825Y-39130D01*
X86861Y-39153D01*
X86908Y-39165D01*
X87004Y-39165D01*
X87027Y-39153D01*
X87039Y-39142D01*
X87051Y-39118D01*
X87051Y-39070D01*
X87039Y-39046D01*
X87027Y-39034D01*
X87004Y-39023D01*
X86944Y-39023D01*
X86920Y-39034D01*
X86908Y-39046D01*
X86896Y-39070D01*
X86896Y-39118D01*
X86908Y-39142D01*
X86920Y-39153D01*
X86944Y-39165D01*
X86801Y-38939D02*
X86801Y-38773D01*
X87051Y-38880D01*
X87051Y-41003D02*
X86801Y-41003D01*
X86801Y-40944D01*
X86813Y-40908D01*
X86837Y-40884D01*
X86861Y-40873D01*
X86908Y-40861D01*
X86944Y-40861D01*
X86992Y-40873D01*
X87015Y-40884D01*
X87039Y-40908D01*
X87051Y-40944D01*
X87051Y-41003D01*
X86801Y-40646D02*
X86801Y-40694D01*
X86813Y-40718D01*
X86825Y-40730D01*
X86861Y-40753D01*
X86908Y-40765D01*
X87004Y-40765D01*
X87027Y-40753D01*
X87039Y-40742D01*
X87051Y-40718D01*
X87051Y-40670D01*
X87039Y-40646D01*
X87027Y-40634D01*
X87004Y-40623D01*
X86944Y-40623D01*
X86920Y-40634D01*
X86908Y-40646D01*
X86896Y-40670D01*
X86896Y-40718D01*
X86908Y-40742D01*
X86920Y-40753D01*
X86944Y-40765D01*
X86908Y-40480D02*
X86896Y-40504D01*
X86885Y-40515D01*
X86861Y-40527D01*
X86849Y-40527D01*
X86825Y-40515D01*
X86813Y-40504D01*
X86801Y-40480D01*
X86801Y-40432D01*
X86813Y-40408D01*
X86825Y-40396D01*
X86849Y-40385D01*
X86861Y-40385D01*
X86885Y-40396D01*
X86896Y-40408D01*
X86908Y-40432D01*
X86908Y-40480D01*
X86920Y-40504D01*
X86932Y-40515D01*
X86956Y-40527D01*
X87004Y-40527D01*
X87027Y-40515D01*
X87039Y-40504D01*
X87051Y-40480D01*
X87051Y-40432D01*
X87039Y-40408D01*
X87027Y-40396D01*
X87004Y-40385D01*
X86956Y-40385D01*
X86932Y-40396D01*
X86920Y-40408D01*
X86908Y-40432D01*
X87051Y-42553D02*
X86801Y-42553D01*
X86801Y-42494D01*
X86813Y-42458D01*
X86837Y-42434D01*
X86861Y-42423D01*
X86908Y-42411D01*
X86944Y-42411D01*
X86992Y-42423D01*
X87015Y-42434D01*
X87039Y-42458D01*
X87051Y-42494D01*
X87051Y-42553D01*
X86801Y-42196D02*
X86801Y-42244D01*
X86813Y-42268D01*
X86825Y-42280D01*
X86861Y-42303D01*
X86908Y-42315D01*
X87004Y-42315D01*
X87027Y-42303D01*
X87039Y-42292D01*
X87051Y-42268D01*
X87051Y-42220D01*
X87039Y-42196D01*
X87027Y-42184D01*
X87004Y-42173D01*
X86944Y-42173D01*
X86920Y-42184D01*
X86908Y-42196D01*
X86896Y-42220D01*
X86896Y-42268D01*
X86908Y-42292D01*
X86920Y-42303D01*
X86944Y-42315D01*
X87051Y-42054D02*
X87051Y-42006D01*
X87039Y-41982D01*
X87027Y-41970D01*
X86992Y-41946D01*
X86944Y-41935D01*
X86849Y-41935D01*
X86825Y-41946D01*
X86813Y-41958D01*
X86801Y-41982D01*
X86801Y-42030D01*
X86813Y-42054D01*
X86825Y-42065D01*
X86849Y-42077D01*
X86908Y-42077D01*
X86932Y-42065D01*
X86944Y-42054D01*
X86956Y-42030D01*
X86956Y-41982D01*
X86944Y-41958D01*
X86932Y-41946D01*
X86908Y-41935D01*
X87051Y-44153D02*
X86801Y-44153D01*
X86801Y-44094D01*
X86813Y-44058D01*
X86837Y-44034D01*
X86861Y-44023D01*
X86908Y-44011D01*
X86944Y-44011D01*
X86992Y-44023D01*
X87015Y-44034D01*
X87039Y-44058D01*
X87051Y-44094D01*
X87051Y-44153D01*
X86801Y-43927D02*
X86801Y-43761D01*
X87051Y-43868D01*
X86801Y-43618D02*
X86801Y-43594D01*
X86813Y-43570D01*
X86825Y-43558D01*
X86849Y-43546D01*
X86896Y-43535D01*
X86956Y-43535D01*
X87004Y-43546D01*
X87027Y-43558D01*
X87039Y-43570D01*
X87051Y-43594D01*
X87051Y-43618D01*
X87039Y-43642D01*
X87027Y-43654D01*
X87004Y-43665D01*
X86956Y-43677D01*
X86896Y-43677D01*
X86849Y-43665D01*
X86825Y-43654D01*
X86813Y-43642D01*
X86801Y-43618D01*
X87051Y-45703D02*
X86801Y-45703D01*
X86801Y-45644D01*
X86813Y-45608D01*
X86837Y-45584D01*
X86861Y-45573D01*
X86908Y-45561D01*
X86944Y-45561D01*
X86992Y-45573D01*
X87015Y-45584D01*
X87039Y-45608D01*
X87051Y-45644D01*
X87051Y-45703D01*
X86801Y-45477D02*
X86801Y-45311D01*
X87051Y-45418D01*
X87051Y-45085D02*
X87051Y-45227D01*
X87051Y-45156D02*
X86801Y-45156D01*
X86837Y-45180D01*
X86861Y-45204D01*
X86873Y-45227D01*
X87051Y-47303D02*
X86801Y-47303D01*
X86801Y-47244D01*
X86813Y-47208D01*
X86837Y-47184D01*
X86861Y-47173D01*
X86908Y-47161D01*
X86944Y-47161D01*
X86992Y-47173D01*
X87015Y-47184D01*
X87039Y-47208D01*
X87051Y-47244D01*
X87051Y-47303D01*
X86801Y-47077D02*
X86801Y-46911D01*
X87051Y-47018D01*
X86825Y-46827D02*
X86813Y-46815D01*
X86801Y-46792D01*
X86801Y-46732D01*
X86813Y-46708D01*
X86825Y-46696D01*
X86849Y-46685D01*
X86873Y-46685D01*
X86908Y-46696D01*
X87051Y-46839D01*
X87051Y-46685D01*
X87051Y-48853D02*
X86801Y-48853D01*
X86801Y-48794D01*
X86813Y-48758D01*
X86837Y-48734D01*
X86861Y-48723D01*
X86908Y-48711D01*
X86944Y-48711D01*
X86992Y-48723D01*
X87015Y-48734D01*
X87039Y-48758D01*
X87051Y-48794D01*
X87051Y-48853D01*
X86801Y-48627D02*
X86801Y-48461D01*
X87051Y-48568D01*
X86801Y-48389D02*
X86801Y-48235D01*
X86896Y-48318D01*
X86896Y-48282D01*
X86908Y-48258D01*
X86920Y-48246D01*
X86944Y-48235D01*
X87004Y-48235D01*
X87027Y-48246D01*
X87039Y-48258D01*
X87051Y-48282D01*
X87051Y-48354D01*
X87039Y-48377D01*
X87027Y-48389D01*
X87051Y-50453D02*
X86801Y-50453D01*
X86801Y-50394D01*
X86813Y-50358D01*
X86837Y-50334D01*
X86861Y-50323D01*
X86908Y-50311D01*
X86944Y-50311D01*
X86992Y-50323D01*
X87015Y-50334D01*
X87039Y-50358D01*
X87051Y-50394D01*
X87051Y-50453D01*
X86801Y-50227D02*
X86801Y-50061D01*
X87051Y-50168D01*
X86885Y-49858D02*
X87051Y-49858D01*
X86789Y-49918D02*
X86968Y-49977D01*
X86968Y-49823D01*
X87051Y-52003D02*
X86801Y-52003D01*
X86801Y-51944D01*
X86813Y-51908D01*
X86837Y-51884D01*
X86861Y-51873D01*
X86908Y-51861D01*
X86944Y-51861D01*
X86992Y-51873D01*
X87015Y-51884D01*
X87039Y-51908D01*
X87051Y-51944D01*
X87051Y-52003D01*
X86801Y-51777D02*
X86801Y-51611D01*
X87051Y-51718D01*
X86801Y-51396D02*
X86801Y-51515D01*
X86920Y-51527D01*
X86908Y-51515D01*
X86896Y-51492D01*
X86896Y-51432D01*
X86908Y-51408D01*
X86920Y-51396D01*
X86944Y-51385D01*
X87004Y-51385D01*
X87027Y-51396D01*
X87039Y-51408D01*
X87051Y-51432D01*
X87051Y-51492D01*
X87039Y-51515D01*
X87027Y-51527D01*
X57051Y-29953D02*
X56801Y-29953D01*
X56801Y-29894D01*
X56813Y-29858D01*
X56837Y-29834D01*
X56861Y-29823D01*
X56908Y-29811D01*
X56944Y-29811D01*
X56992Y-29823D01*
X57015Y-29834D01*
X57039Y-29858D01*
X57051Y-29894D01*
X57051Y-29953D01*
X57051Y-29573D02*
X57051Y-29715D01*
X57051Y-29644D02*
X56801Y-29644D01*
X56837Y-29668D01*
X56861Y-29692D01*
X56873Y-29715D01*
X56801Y-29358D02*
X56801Y-29406D01*
X56813Y-29430D01*
X56825Y-29442D01*
X56861Y-29465D01*
X56908Y-29477D01*
X57004Y-29477D01*
X57027Y-29465D01*
X57039Y-29454D01*
X57051Y-29430D01*
X57051Y-29382D01*
X57039Y-29358D01*
X57027Y-29346D01*
X57004Y-29335D01*
X56944Y-29335D01*
X56920Y-29346D01*
X56908Y-29358D01*
X56896Y-29382D01*
X56896Y-29430D01*
X56908Y-29454D01*
X56920Y-29465D01*
X56944Y-29477D01*
X57051Y-31503D02*
X56801Y-31503D01*
X56801Y-31444D01*
X56813Y-31408D01*
X56837Y-31384D01*
X56861Y-31373D01*
X56908Y-31361D01*
X56944Y-31361D01*
X56992Y-31373D01*
X57015Y-31384D01*
X57039Y-31408D01*
X57051Y-31444D01*
X57051Y-31503D01*
X57051Y-31123D02*
X57051Y-31265D01*
X57051Y-31194D02*
X56801Y-31194D01*
X56837Y-31218D01*
X56861Y-31242D01*
X56873Y-31265D01*
X56801Y-31039D02*
X56801Y-30873D01*
X57051Y-30980D01*
X57051Y-33103D02*
X56801Y-33103D01*
X56801Y-33044D01*
X56813Y-33008D01*
X56837Y-32984D01*
X56861Y-32973D01*
X56908Y-32961D01*
X56944Y-32961D01*
X56992Y-32973D01*
X57015Y-32984D01*
X57039Y-33008D01*
X57051Y-33044D01*
X57051Y-33103D01*
X57051Y-32723D02*
X57051Y-32865D01*
X57051Y-32794D02*
X56801Y-32794D01*
X56837Y-32818D01*
X56861Y-32842D01*
X56873Y-32865D01*
X56908Y-32580D02*
X56896Y-32604D01*
X56885Y-32615D01*
X56861Y-32627D01*
X56849Y-32627D01*
X56825Y-32615D01*
X56813Y-32604D01*
X56801Y-32580D01*
X56801Y-32532D01*
X56813Y-32508D01*
X56825Y-32496D01*
X56849Y-32485D01*
X56861Y-32485D01*
X56885Y-32496D01*
X56896Y-32508D01*
X56908Y-32532D01*
X56908Y-32580D01*
X56920Y-32604D01*
X56932Y-32615D01*
X56956Y-32627D01*
X57004Y-32627D01*
X57027Y-32615D01*
X57039Y-32604D01*
X57051Y-32580D01*
X57051Y-32532D01*
X57039Y-32508D01*
X57027Y-32496D01*
X57004Y-32485D01*
X56956Y-32485D01*
X56932Y-32496D01*
X56920Y-32508D01*
X56908Y-32532D01*
X57051Y-34653D02*
X56801Y-34653D01*
X56801Y-34594D01*
X56813Y-34558D01*
X56837Y-34534D01*
X56861Y-34523D01*
X56908Y-34511D01*
X56944Y-34511D01*
X56992Y-34523D01*
X57015Y-34534D01*
X57039Y-34558D01*
X57051Y-34594D01*
X57051Y-34653D01*
X57051Y-34273D02*
X57051Y-34415D01*
X57051Y-34344D02*
X56801Y-34344D01*
X56837Y-34368D01*
X56861Y-34392D01*
X56873Y-34415D01*
X57051Y-34154D02*
X57051Y-34106D01*
X57039Y-34082D01*
X57027Y-34070D01*
X56992Y-34046D01*
X56944Y-34035D01*
X56849Y-34035D01*
X56825Y-34046D01*
X56813Y-34058D01*
X56801Y-34082D01*
X56801Y-34130D01*
X56813Y-34154D01*
X56825Y-34165D01*
X56849Y-34177D01*
X56908Y-34177D01*
X56932Y-34165D01*
X56944Y-34154D01*
X56956Y-34130D01*
X56956Y-34082D01*
X56944Y-34058D01*
X56932Y-34046D01*
X56908Y-34035D01*
X57051Y-36253D02*
X56801Y-36253D01*
X56801Y-36194D01*
X56813Y-36158D01*
X56837Y-36134D01*
X56861Y-36123D01*
X56908Y-36111D01*
X56944Y-36111D01*
X56992Y-36123D01*
X57015Y-36134D01*
X57039Y-36158D01*
X57051Y-36194D01*
X57051Y-36253D01*
X56825Y-36015D02*
X56813Y-36003D01*
X56801Y-35980D01*
X56801Y-35920D01*
X56813Y-35896D01*
X56825Y-35884D01*
X56849Y-35873D01*
X56873Y-35873D01*
X56908Y-35884D01*
X57051Y-36027D01*
X57051Y-35873D01*
X56801Y-35718D02*
X56801Y-35694D01*
X56813Y-35670D01*
X56825Y-35658D01*
X56849Y-35646D01*
X56896Y-35635D01*
X56956Y-35635D01*
X57004Y-35646D01*
X57027Y-35658D01*
X57039Y-35670D01*
X57051Y-35694D01*
X57051Y-35718D01*
X57039Y-35742D01*
X57027Y-35754D01*
X57004Y-35765D01*
X56956Y-35777D01*
X56896Y-35777D01*
X56849Y-35765D01*
X56825Y-35754D01*
X56813Y-35742D01*
X56801Y-35718D01*
X57051Y-37803D02*
X56801Y-37803D01*
X56801Y-37744D01*
X56813Y-37708D01*
X56837Y-37684D01*
X56861Y-37673D01*
X56908Y-37661D01*
X56944Y-37661D01*
X56992Y-37673D01*
X57015Y-37684D01*
X57039Y-37708D01*
X57051Y-37744D01*
X57051Y-37803D01*
X56825Y-37565D02*
X56813Y-37553D01*
X56801Y-37530D01*
X56801Y-37470D01*
X56813Y-37446D01*
X56825Y-37434D01*
X56849Y-37423D01*
X56873Y-37423D01*
X56908Y-37434D01*
X57051Y-37577D01*
X57051Y-37423D01*
X57051Y-37185D02*
X57051Y-37327D01*
X57051Y-37256D02*
X56801Y-37256D01*
X56837Y-37280D01*
X56861Y-37304D01*
X56873Y-37327D01*
X57051Y-39403D02*
X56801Y-39403D01*
X56801Y-39344D01*
X56813Y-39308D01*
X56837Y-39284D01*
X56861Y-39273D01*
X56908Y-39261D01*
X56944Y-39261D01*
X56992Y-39273D01*
X57015Y-39284D01*
X57039Y-39308D01*
X57051Y-39344D01*
X57051Y-39403D01*
X56825Y-39165D02*
X56813Y-39153D01*
X56801Y-39130D01*
X56801Y-39070D01*
X56813Y-39046D01*
X56825Y-39034D01*
X56849Y-39023D01*
X56873Y-39023D01*
X56908Y-39034D01*
X57051Y-39177D01*
X57051Y-39023D01*
X56825Y-38927D02*
X56813Y-38915D01*
X56801Y-38892D01*
X56801Y-38832D01*
X56813Y-38808D01*
X56825Y-38796D01*
X56849Y-38785D01*
X56873Y-38785D01*
X56908Y-38796D01*
X57051Y-38939D01*
X57051Y-38785D01*
X57051Y-41003D02*
X56801Y-41003D01*
X56801Y-40944D01*
X56813Y-40908D01*
X56837Y-40884D01*
X56861Y-40873D01*
X56908Y-40861D01*
X56944Y-40861D01*
X56992Y-40873D01*
X57015Y-40884D01*
X57039Y-40908D01*
X57051Y-40944D01*
X57051Y-41003D01*
X56825Y-40765D02*
X56813Y-40753D01*
X56801Y-40730D01*
X56801Y-40670D01*
X56813Y-40646D01*
X56825Y-40634D01*
X56849Y-40623D01*
X56873Y-40623D01*
X56908Y-40634D01*
X57051Y-40777D01*
X57051Y-40623D01*
X56801Y-40539D02*
X56801Y-40385D01*
X56896Y-40468D01*
X56896Y-40432D01*
X56908Y-40408D01*
X56920Y-40396D01*
X56944Y-40385D01*
X57004Y-40385D01*
X57027Y-40396D01*
X57039Y-40408D01*
X57051Y-40432D01*
X57051Y-40504D01*
X57039Y-40527D01*
X57027Y-40539D01*
X57051Y-42553D02*
X56801Y-42553D01*
X56801Y-42494D01*
X56813Y-42458D01*
X56837Y-42434D01*
X56861Y-42423D01*
X56908Y-42411D01*
X56944Y-42411D01*
X56992Y-42423D01*
X57015Y-42434D01*
X57039Y-42458D01*
X57051Y-42494D01*
X57051Y-42553D01*
X56825Y-42315D02*
X56813Y-42303D01*
X56801Y-42280D01*
X56801Y-42220D01*
X56813Y-42196D01*
X56825Y-42184D01*
X56849Y-42173D01*
X56873Y-42173D01*
X56908Y-42184D01*
X57051Y-42327D01*
X57051Y-42173D01*
X56885Y-41958D02*
X57051Y-41958D01*
X56789Y-42018D02*
X56968Y-42077D01*
X56968Y-41923D01*
X57051Y-44153D02*
X56801Y-44153D01*
X56801Y-44094D01*
X56813Y-44058D01*
X56837Y-44034D01*
X56861Y-44023D01*
X56908Y-44011D01*
X56944Y-44011D01*
X56992Y-44023D01*
X57015Y-44034D01*
X57039Y-44058D01*
X57051Y-44094D01*
X57051Y-44153D01*
X56825Y-43915D02*
X56813Y-43903D01*
X56801Y-43880D01*
X56801Y-43820D01*
X56813Y-43796D01*
X56825Y-43784D01*
X56849Y-43773D01*
X56873Y-43773D01*
X56908Y-43784D01*
X57051Y-43927D01*
X57051Y-43773D01*
X56801Y-43546D02*
X56801Y-43665D01*
X56920Y-43677D01*
X56908Y-43665D01*
X56896Y-43642D01*
X56896Y-43582D01*
X56908Y-43558D01*
X56920Y-43546D01*
X56944Y-43535D01*
X57004Y-43535D01*
X57027Y-43546D01*
X57039Y-43558D01*
X57051Y-43582D01*
X57051Y-43642D01*
X57039Y-43665D01*
X57027Y-43677D01*
X57051Y-45703D02*
X56801Y-45703D01*
X56801Y-45644D01*
X56813Y-45608D01*
X56837Y-45584D01*
X56861Y-45573D01*
X56908Y-45561D01*
X56944Y-45561D01*
X56992Y-45573D01*
X57015Y-45584D01*
X57039Y-45608D01*
X57051Y-45644D01*
X57051Y-45703D01*
X56825Y-45465D02*
X56813Y-45453D01*
X56801Y-45430D01*
X56801Y-45370D01*
X56813Y-45346D01*
X56825Y-45334D01*
X56849Y-45323D01*
X56873Y-45323D01*
X56908Y-45334D01*
X57051Y-45477D01*
X57051Y-45323D01*
X56801Y-45108D02*
X56801Y-45156D01*
X56813Y-45180D01*
X56825Y-45192D01*
X56861Y-45215D01*
X56908Y-45227D01*
X57004Y-45227D01*
X57027Y-45215D01*
X57039Y-45204D01*
X57051Y-45180D01*
X57051Y-45132D01*
X57039Y-45108D01*
X57027Y-45096D01*
X57004Y-45085D01*
X56944Y-45085D01*
X56920Y-45096D01*
X56908Y-45108D01*
X56896Y-45132D01*
X56896Y-45180D01*
X56908Y-45204D01*
X56920Y-45215D01*
X56944Y-45227D01*
X57051Y-47303D02*
X56801Y-47303D01*
X56801Y-47244D01*
X56813Y-47208D01*
X56837Y-47184D01*
X56861Y-47173D01*
X56908Y-47161D01*
X56944Y-47161D01*
X56992Y-47173D01*
X57015Y-47184D01*
X57039Y-47208D01*
X57051Y-47244D01*
X57051Y-47303D01*
X56825Y-47065D02*
X56813Y-47053D01*
X56801Y-47030D01*
X56801Y-46970D01*
X56813Y-46946D01*
X56825Y-46934D01*
X56849Y-46923D01*
X56873Y-46923D01*
X56908Y-46934D01*
X57051Y-47077D01*
X57051Y-46923D01*
X56801Y-46839D02*
X56801Y-46673D01*
X57051Y-46780D01*
X57051Y-48853D02*
X56801Y-48853D01*
X56801Y-48794D01*
X56813Y-48758D01*
X56837Y-48734D01*
X56861Y-48723D01*
X56908Y-48711D01*
X56944Y-48711D01*
X56992Y-48723D01*
X57015Y-48734D01*
X57039Y-48758D01*
X57051Y-48794D01*
X57051Y-48853D01*
X56825Y-48615D02*
X56813Y-48603D01*
X56801Y-48580D01*
X56801Y-48520D01*
X56813Y-48496D01*
X56825Y-48484D01*
X56849Y-48473D01*
X56873Y-48473D01*
X56908Y-48484D01*
X57051Y-48627D01*
X57051Y-48473D01*
X56908Y-48330D02*
X56896Y-48354D01*
X56885Y-48365D01*
X56861Y-48377D01*
X56849Y-48377D01*
X56825Y-48365D01*
X56813Y-48354D01*
X56801Y-48330D01*
X56801Y-48282D01*
X56813Y-48258D01*
X56825Y-48246D01*
X56849Y-48235D01*
X56861Y-48235D01*
X56885Y-48246D01*
X56896Y-48258D01*
X56908Y-48282D01*
X56908Y-48330D01*
X56920Y-48354D01*
X56932Y-48365D01*
X56956Y-48377D01*
X57004Y-48377D01*
X57027Y-48365D01*
X57039Y-48354D01*
X57051Y-48330D01*
X57051Y-48282D01*
X57039Y-48258D01*
X57027Y-48246D01*
X57004Y-48235D01*
X56956Y-48235D01*
X56932Y-48246D01*
X56920Y-48258D01*
X56908Y-48282D01*
X57051Y-50453D02*
X56801Y-50453D01*
X56801Y-50394D01*
X56813Y-50358D01*
X56837Y-50334D01*
X56861Y-50323D01*
X56908Y-50311D01*
X56944Y-50311D01*
X56992Y-50323D01*
X57015Y-50334D01*
X57039Y-50358D01*
X57051Y-50394D01*
X57051Y-50453D01*
X56825Y-50215D02*
X56813Y-50203D01*
X56801Y-50180D01*
X56801Y-50120D01*
X56813Y-50096D01*
X56825Y-50084D01*
X56849Y-50073D01*
X56873Y-50073D01*
X56908Y-50084D01*
X57051Y-50227D01*
X57051Y-50073D01*
X57051Y-49954D02*
X57051Y-49906D01*
X57039Y-49882D01*
X57027Y-49870D01*
X56992Y-49846D01*
X56944Y-49835D01*
X56849Y-49835D01*
X56825Y-49846D01*
X56813Y-49858D01*
X56801Y-49882D01*
X56801Y-49930D01*
X56813Y-49954D01*
X56825Y-49965D01*
X56849Y-49977D01*
X56908Y-49977D01*
X56932Y-49965D01*
X56944Y-49954D01*
X56956Y-49930D01*
X56956Y-49882D01*
X56944Y-49858D01*
X56932Y-49846D01*
X56908Y-49835D01*
X57051Y-52003D02*
X56801Y-52003D01*
X56801Y-51944D01*
X56813Y-51908D01*
X56837Y-51884D01*
X56861Y-51873D01*
X56908Y-51861D01*
X56944Y-51861D01*
X56992Y-51873D01*
X57015Y-51884D01*
X57039Y-51908D01*
X57051Y-51944D01*
X57051Y-52003D01*
X56801Y-51777D02*
X56801Y-51623D01*
X56896Y-51706D01*
X56896Y-51670D01*
X56908Y-51646D01*
X56920Y-51634D01*
X56944Y-51623D01*
X57004Y-51623D01*
X57027Y-51634D01*
X57039Y-51646D01*
X57051Y-51670D01*
X57051Y-51742D01*
X57039Y-51765D01*
X57027Y-51777D01*
X56801Y-51468D02*
X56801Y-51444D01*
X56813Y-51420D01*
X56825Y-51408D01*
X56849Y-51396D01*
X56896Y-51385D01*
X56956Y-51385D01*
X57004Y-51396D01*
X57027Y-51408D01*
X57039Y-51420D01*
X57051Y-51444D01*
X57051Y-51468D01*
X57039Y-51492D01*
X57027Y-51504D01*
X57004Y-51515D01*
X56956Y-51527D01*
X56896Y-51527D01*
X56849Y-51515D01*
X56825Y-51504D01*
X56813Y-51492D01*
X56801Y-51468D01*
X67051Y-29953D02*
X66801Y-29953D01*
X66801Y-29894D01*
X66813Y-29858D01*
X66837Y-29834D01*
X66861Y-29823D01*
X66908Y-29811D01*
X66944Y-29811D01*
X66992Y-29823D01*
X67015Y-29834D01*
X67039Y-29858D01*
X67051Y-29894D01*
X67051Y-29953D01*
X66801Y-29727D02*
X66801Y-29573D01*
X66896Y-29656D01*
X66896Y-29620D01*
X66908Y-29596D01*
X66920Y-29584D01*
X66944Y-29573D01*
X67004Y-29573D01*
X67027Y-29584D01*
X67039Y-29596D01*
X67051Y-29620D01*
X67051Y-29692D01*
X67039Y-29715D01*
X67027Y-29727D01*
X67051Y-29335D02*
X67051Y-29477D01*
X67051Y-29406D02*
X66801Y-29406D01*
X66837Y-29430D01*
X66861Y-29454D01*
X66873Y-29477D01*
X67051Y-31553D02*
X66801Y-31553D01*
X66801Y-31494D01*
X66813Y-31458D01*
X66837Y-31434D01*
X66861Y-31423D01*
X66908Y-31411D01*
X66944Y-31411D01*
X66992Y-31423D01*
X67015Y-31434D01*
X67039Y-31458D01*
X67051Y-31494D01*
X67051Y-31553D01*
X66801Y-31327D02*
X66801Y-31173D01*
X66896Y-31256D01*
X66896Y-31220D01*
X66908Y-31196D01*
X66920Y-31184D01*
X66944Y-31173D01*
X67004Y-31173D01*
X67027Y-31184D01*
X67039Y-31196D01*
X67051Y-31220D01*
X67051Y-31292D01*
X67039Y-31315D01*
X67027Y-31327D01*
X66825Y-31077D02*
X66813Y-31065D01*
X66801Y-31042D01*
X66801Y-30982D01*
X66813Y-30958D01*
X66825Y-30946D01*
X66849Y-30935D01*
X66873Y-30935D01*
X66908Y-30946D01*
X67051Y-31089D01*
X67051Y-30935D01*
X67051Y-33103D02*
X66801Y-33103D01*
X66801Y-33044D01*
X66813Y-33008D01*
X66837Y-32984D01*
X66861Y-32973D01*
X66908Y-32961D01*
X66944Y-32961D01*
X66992Y-32973D01*
X67015Y-32984D01*
X67039Y-33008D01*
X67051Y-33044D01*
X67051Y-33103D01*
X66801Y-32877D02*
X66801Y-32723D01*
X66896Y-32806D01*
X66896Y-32770D01*
X66908Y-32746D01*
X66920Y-32734D01*
X66944Y-32723D01*
X67004Y-32723D01*
X67027Y-32734D01*
X67039Y-32746D01*
X67051Y-32770D01*
X67051Y-32842D01*
X67039Y-32865D01*
X67027Y-32877D01*
X66801Y-32639D02*
X66801Y-32485D01*
X66896Y-32568D01*
X66896Y-32532D01*
X66908Y-32508D01*
X66920Y-32496D01*
X66944Y-32485D01*
X67004Y-32485D01*
X67027Y-32496D01*
X67039Y-32508D01*
X67051Y-32532D01*
X67051Y-32604D01*
X67039Y-32627D01*
X67027Y-32639D01*
X67051Y-34703D02*
X66801Y-34703D01*
X66801Y-34644D01*
X66813Y-34608D01*
X66837Y-34584D01*
X66861Y-34573D01*
X66908Y-34561D01*
X66944Y-34561D01*
X66992Y-34573D01*
X67015Y-34584D01*
X67039Y-34608D01*
X67051Y-34644D01*
X67051Y-34703D01*
X66801Y-34477D02*
X66801Y-34323D01*
X66896Y-34406D01*
X66896Y-34370D01*
X66908Y-34346D01*
X66920Y-34334D01*
X66944Y-34323D01*
X67004Y-34323D01*
X67027Y-34334D01*
X67039Y-34346D01*
X67051Y-34370D01*
X67051Y-34442D01*
X67039Y-34465D01*
X67027Y-34477D01*
X66885Y-34108D02*
X67051Y-34108D01*
X66789Y-34168D02*
X66968Y-34227D01*
X66968Y-34073D01*
X67051Y-36253D02*
X66801Y-36253D01*
X66801Y-36194D01*
X66813Y-36158D01*
X66837Y-36134D01*
X66861Y-36123D01*
X66908Y-36111D01*
X66944Y-36111D01*
X66992Y-36123D01*
X67015Y-36134D01*
X67039Y-36158D01*
X67051Y-36194D01*
X67051Y-36253D01*
X66801Y-36027D02*
X66801Y-35873D01*
X66896Y-35956D01*
X66896Y-35920D01*
X66908Y-35896D01*
X66920Y-35884D01*
X66944Y-35873D01*
X67004Y-35873D01*
X67027Y-35884D01*
X67039Y-35896D01*
X67051Y-35920D01*
X67051Y-35992D01*
X67039Y-36015D01*
X67027Y-36027D01*
X66801Y-35646D02*
X66801Y-35765D01*
X66920Y-35777D01*
X66908Y-35765D01*
X66896Y-35742D01*
X66896Y-35682D01*
X66908Y-35658D01*
X66920Y-35646D01*
X66944Y-35635D01*
X67004Y-35635D01*
X67027Y-35646D01*
X67039Y-35658D01*
X67051Y-35682D01*
X67051Y-35742D01*
X67039Y-35765D01*
X67027Y-35777D01*
X67051Y-37853D02*
X66801Y-37853D01*
X66801Y-37794D01*
X66813Y-37758D01*
X66837Y-37734D01*
X66861Y-37723D01*
X66908Y-37711D01*
X66944Y-37711D01*
X66992Y-37723D01*
X67015Y-37734D01*
X67039Y-37758D01*
X67051Y-37794D01*
X67051Y-37853D01*
X66801Y-37627D02*
X66801Y-37473D01*
X66896Y-37556D01*
X66896Y-37520D01*
X66908Y-37496D01*
X66920Y-37484D01*
X66944Y-37473D01*
X67004Y-37473D01*
X67027Y-37484D01*
X67039Y-37496D01*
X67051Y-37520D01*
X67051Y-37592D01*
X67039Y-37615D01*
X67027Y-37627D01*
X66801Y-37258D02*
X66801Y-37306D01*
X66813Y-37330D01*
X66825Y-37342D01*
X66861Y-37365D01*
X66908Y-37377D01*
X67004Y-37377D01*
X67027Y-37365D01*
X67039Y-37354D01*
X67051Y-37330D01*
X67051Y-37282D01*
X67039Y-37258D01*
X67027Y-37246D01*
X67004Y-37235D01*
X66944Y-37235D01*
X66920Y-37246D01*
X66908Y-37258D01*
X66896Y-37282D01*
X66896Y-37330D01*
X66908Y-37354D01*
X66920Y-37365D01*
X66944Y-37377D01*
X67051Y-39403D02*
X66801Y-39403D01*
X66801Y-39344D01*
X66813Y-39308D01*
X66837Y-39284D01*
X66861Y-39273D01*
X66908Y-39261D01*
X66944Y-39261D01*
X66992Y-39273D01*
X67015Y-39284D01*
X67039Y-39308D01*
X67051Y-39344D01*
X67051Y-39403D01*
X66801Y-39177D02*
X66801Y-39023D01*
X66896Y-39106D01*
X66896Y-39070D01*
X66908Y-39046D01*
X66920Y-39034D01*
X66944Y-39023D01*
X67004Y-39023D01*
X67027Y-39034D01*
X67039Y-39046D01*
X67051Y-39070D01*
X67051Y-39142D01*
X67039Y-39165D01*
X67027Y-39177D01*
X66801Y-38939D02*
X66801Y-38773D01*
X67051Y-38880D01*
X67051Y-41003D02*
X66801Y-41003D01*
X66801Y-40944D01*
X66813Y-40908D01*
X66837Y-40884D01*
X66861Y-40873D01*
X66908Y-40861D01*
X66944Y-40861D01*
X66992Y-40873D01*
X67015Y-40884D01*
X67039Y-40908D01*
X67051Y-40944D01*
X67051Y-41003D01*
X66801Y-40777D02*
X66801Y-40623D01*
X66896Y-40706D01*
X66896Y-40670D01*
X66908Y-40646D01*
X66920Y-40634D01*
X66944Y-40623D01*
X67004Y-40623D01*
X67027Y-40634D01*
X67039Y-40646D01*
X67051Y-40670D01*
X67051Y-40742D01*
X67039Y-40765D01*
X67027Y-40777D01*
X66908Y-40480D02*
X66896Y-40504D01*
X66885Y-40515D01*
X66861Y-40527D01*
X66849Y-40527D01*
X66825Y-40515D01*
X66813Y-40504D01*
X66801Y-40480D01*
X66801Y-40432D01*
X66813Y-40408D01*
X66825Y-40396D01*
X66849Y-40385D01*
X66861Y-40385D01*
X66885Y-40396D01*
X66896Y-40408D01*
X66908Y-40432D01*
X66908Y-40480D01*
X66920Y-40504D01*
X66932Y-40515D01*
X66956Y-40527D01*
X67004Y-40527D01*
X67027Y-40515D01*
X67039Y-40504D01*
X67051Y-40480D01*
X67051Y-40432D01*
X67039Y-40408D01*
X67027Y-40396D01*
X67004Y-40385D01*
X66956Y-40385D01*
X66932Y-40396D01*
X66920Y-40408D01*
X66908Y-40432D01*
X67051Y-42553D02*
X66801Y-42553D01*
X66801Y-42494D01*
X66813Y-42458D01*
X66837Y-42434D01*
X66861Y-42423D01*
X66908Y-42411D01*
X66944Y-42411D01*
X66992Y-42423D01*
X67015Y-42434D01*
X67039Y-42458D01*
X67051Y-42494D01*
X67051Y-42553D01*
X66801Y-42327D02*
X66801Y-42173D01*
X66896Y-42256D01*
X66896Y-42220D01*
X66908Y-42196D01*
X66920Y-42184D01*
X66944Y-42173D01*
X67004Y-42173D01*
X67027Y-42184D01*
X67039Y-42196D01*
X67051Y-42220D01*
X67051Y-42292D01*
X67039Y-42315D01*
X67027Y-42327D01*
X67051Y-42054D02*
X67051Y-42006D01*
X67039Y-41982D01*
X67027Y-41970D01*
X66992Y-41946D01*
X66944Y-41935D01*
X66849Y-41935D01*
X66825Y-41946D01*
X66813Y-41958D01*
X66801Y-41982D01*
X66801Y-42030D01*
X66813Y-42054D01*
X66825Y-42065D01*
X66849Y-42077D01*
X66908Y-42077D01*
X66932Y-42065D01*
X66944Y-42054D01*
X66956Y-42030D01*
X66956Y-41982D01*
X66944Y-41958D01*
X66932Y-41946D01*
X66908Y-41935D01*
X67051Y-44103D02*
X66801Y-44103D01*
X66801Y-44044D01*
X66813Y-44008D01*
X66837Y-43984D01*
X66861Y-43973D01*
X66908Y-43961D01*
X66944Y-43961D01*
X66992Y-43973D01*
X67015Y-43984D01*
X67039Y-44008D01*
X67051Y-44044D01*
X67051Y-44103D01*
X66885Y-43746D02*
X67051Y-43746D01*
X66789Y-43806D02*
X66968Y-43865D01*
X66968Y-43711D01*
X66801Y-43568D02*
X66801Y-43544D01*
X66813Y-43520D01*
X66825Y-43508D01*
X66849Y-43496D01*
X66896Y-43485D01*
X66956Y-43485D01*
X67004Y-43496D01*
X67027Y-43508D01*
X67039Y-43520D01*
X67051Y-43544D01*
X67051Y-43568D01*
X67039Y-43592D01*
X67027Y-43604D01*
X67004Y-43615D01*
X66956Y-43627D01*
X66896Y-43627D01*
X66849Y-43615D01*
X66825Y-43604D01*
X66813Y-43592D01*
X66801Y-43568D01*
X67051Y-45703D02*
X66801Y-45703D01*
X66801Y-45644D01*
X66813Y-45608D01*
X66837Y-45584D01*
X66861Y-45573D01*
X66908Y-45561D01*
X66944Y-45561D01*
X66992Y-45573D01*
X67015Y-45584D01*
X67039Y-45608D01*
X67051Y-45644D01*
X67051Y-45703D01*
X66885Y-45346D02*
X67051Y-45346D01*
X66789Y-45406D02*
X66968Y-45465D01*
X66968Y-45311D01*
X67051Y-45085D02*
X67051Y-45227D01*
X67051Y-45156D02*
X66801Y-45156D01*
X66837Y-45180D01*
X66861Y-45204D01*
X66873Y-45227D01*
X67051Y-47303D02*
X66801Y-47303D01*
X66801Y-47244D01*
X66813Y-47208D01*
X66837Y-47184D01*
X66861Y-47173D01*
X66908Y-47161D01*
X66944Y-47161D01*
X66992Y-47173D01*
X67015Y-47184D01*
X67039Y-47208D01*
X67051Y-47244D01*
X67051Y-47303D01*
X66885Y-46946D02*
X67051Y-46946D01*
X66789Y-47006D02*
X66968Y-47065D01*
X66968Y-46911D01*
X66825Y-46827D02*
X66813Y-46815D01*
X66801Y-46792D01*
X66801Y-46732D01*
X66813Y-46708D01*
X66825Y-46696D01*
X66849Y-46685D01*
X66873Y-46685D01*
X66908Y-46696D01*
X67051Y-46839D01*
X67051Y-46685D01*
X67051Y-48853D02*
X66801Y-48853D01*
X66801Y-48794D01*
X66813Y-48758D01*
X66837Y-48734D01*
X66861Y-48723D01*
X66908Y-48711D01*
X66944Y-48711D01*
X66992Y-48723D01*
X67015Y-48734D01*
X67039Y-48758D01*
X67051Y-48794D01*
X67051Y-48853D01*
X66885Y-48496D02*
X67051Y-48496D01*
X66789Y-48556D02*
X66968Y-48615D01*
X66968Y-48461D01*
X66801Y-48389D02*
X66801Y-48235D01*
X66896Y-48318D01*
X66896Y-48282D01*
X66908Y-48258D01*
X66920Y-48246D01*
X66944Y-48235D01*
X67004Y-48235D01*
X67027Y-48246D01*
X67039Y-48258D01*
X67051Y-48282D01*
X67051Y-48354D01*
X67039Y-48377D01*
X67027Y-48389D01*
X67051Y-50453D02*
X66801Y-50453D01*
X66801Y-50394D01*
X66813Y-50358D01*
X66837Y-50334D01*
X66861Y-50323D01*
X66908Y-50311D01*
X66944Y-50311D01*
X66992Y-50323D01*
X67015Y-50334D01*
X67039Y-50358D01*
X67051Y-50394D01*
X67051Y-50453D01*
X66885Y-50096D02*
X67051Y-50096D01*
X66789Y-50156D02*
X66968Y-50215D01*
X66968Y-50061D01*
X66885Y-49858D02*
X67051Y-49858D01*
X66789Y-49918D02*
X66968Y-49977D01*
X66968Y-49823D01*
X67051Y-52003D02*
X66801Y-52003D01*
X66801Y-51944D01*
X66813Y-51908D01*
X66837Y-51884D01*
X66861Y-51873D01*
X66908Y-51861D01*
X66944Y-51861D01*
X66992Y-51873D01*
X67015Y-51884D01*
X67039Y-51908D01*
X67051Y-51944D01*
X67051Y-52003D01*
X66885Y-51646D02*
X67051Y-51646D01*
X66789Y-51706D02*
X66968Y-51765D01*
X66968Y-51611D01*
X66801Y-51396D02*
X66801Y-51515D01*
X66920Y-51527D01*
X66908Y-51515D01*
X66896Y-51492D01*
X66896Y-51432D01*
X66908Y-51408D01*
X66920Y-51396D01*
X66944Y-51385D01*
X67004Y-51385D01*
X67027Y-51396D01*
X67039Y-51408D01*
X67051Y-51432D01*
X67051Y-51492D01*
X67039Y-51515D01*
X67027Y-51527D01*
X77051Y-29953D02*
X76801Y-29953D01*
X76801Y-29894D01*
X76813Y-29858D01*
X76837Y-29834D01*
X76861Y-29823D01*
X76908Y-29811D01*
X76944Y-29811D01*
X76992Y-29823D01*
X77015Y-29834D01*
X77039Y-29858D01*
X77051Y-29894D01*
X77051Y-29953D01*
X76885Y-29596D02*
X77051Y-29596D01*
X76789Y-29656D02*
X76968Y-29715D01*
X76968Y-29561D01*
X76801Y-29358D02*
X76801Y-29406D01*
X76813Y-29430D01*
X76825Y-29442D01*
X76861Y-29465D01*
X76908Y-29477D01*
X77004Y-29477D01*
X77027Y-29465D01*
X77039Y-29454D01*
X77051Y-29430D01*
X77051Y-29382D01*
X77039Y-29358D01*
X77027Y-29346D01*
X77004Y-29335D01*
X76944Y-29335D01*
X76920Y-29346D01*
X76908Y-29358D01*
X76896Y-29382D01*
X76896Y-29430D01*
X76908Y-29454D01*
X76920Y-29465D01*
X76944Y-29477D01*
X77051Y-31503D02*
X76801Y-31503D01*
X76801Y-31444D01*
X76813Y-31408D01*
X76837Y-31384D01*
X76861Y-31373D01*
X76908Y-31361D01*
X76944Y-31361D01*
X76992Y-31373D01*
X77015Y-31384D01*
X77039Y-31408D01*
X77051Y-31444D01*
X77051Y-31503D01*
X76885Y-31146D02*
X77051Y-31146D01*
X76789Y-31206D02*
X76968Y-31265D01*
X76968Y-31111D01*
X76801Y-31039D02*
X76801Y-30873D01*
X77051Y-30980D01*
G54D14*
M02*
