G04 (created by PCBNEW-RS274X (2011-07-19)-testing) date Fri 17 Feb 2012 12:26:42 PM PST*
G01*
G70*
G90*
%MOIN*%
G04 Gerber Fmt 3.4, Leading zero omitted, Abs format*
%FSLAX34Y34*%
G04 APERTURE LIST*
%ADD10C,0.006000*%
%ADD11R,0.060000X0.080000*%
%ADD12R,0.055000X0.035000*%
%ADD13R,0.059100X0.070900*%
%ADD14R,0.047200X0.070900*%
%ADD15C,0.133900*%
%ADD16C,0.035000*%
%ADD17C,0.020000*%
%ADD18C,0.010000*%
G04 APERTURE END LIST*
G54D10*
G54D11*
X37550Y-38000D03*
X38850Y-38000D03*
G54D12*
X47500Y-51327D03*
X47500Y-52077D03*
X47500Y-49752D03*
X47500Y-50502D03*
X47500Y-48177D03*
X47500Y-48927D03*
X47500Y-46602D03*
X47500Y-47352D03*
X47500Y-45027D03*
X47500Y-45777D03*
X47500Y-43453D03*
X47500Y-44203D03*
X47500Y-41878D03*
X47500Y-42628D03*
X47500Y-40303D03*
X47500Y-41053D03*
X47500Y-38728D03*
X47500Y-39478D03*
X47500Y-37153D03*
X47500Y-37903D03*
X47500Y-35579D03*
X47500Y-36329D03*
X47500Y-34004D03*
X47500Y-34754D03*
X47500Y-32429D03*
X47500Y-33179D03*
X47500Y-30854D03*
X47500Y-31604D03*
X47500Y-29279D03*
X47500Y-30029D03*
G54D13*
X29508Y-36398D03*
X30492Y-36398D03*
G54D14*
X29508Y-33602D03*
X30492Y-33602D03*
G54D15*
X26000Y-51450D03*
X26000Y-29350D03*
G54D11*
X37550Y-44050D03*
X38850Y-44050D03*
X37550Y-42500D03*
X38850Y-42500D03*
X37550Y-41000D03*
X38850Y-41000D03*
X37550Y-39500D03*
X38850Y-39500D03*
G54D12*
X87500Y-29279D03*
X87500Y-30029D03*
X77500Y-51327D03*
X77500Y-52077D03*
X77500Y-49752D03*
X77500Y-50502D03*
X77500Y-48177D03*
X77500Y-48927D03*
X77500Y-46602D03*
X77500Y-47352D03*
X77500Y-45027D03*
X77500Y-45777D03*
X77500Y-43453D03*
X77500Y-44203D03*
X77500Y-41878D03*
X77500Y-42628D03*
X77500Y-40303D03*
X77500Y-41053D03*
X77500Y-38728D03*
X77500Y-39478D03*
X77500Y-37153D03*
X77500Y-37903D03*
X77500Y-35579D03*
X77500Y-36329D03*
X77500Y-34004D03*
X77500Y-34754D03*
X77500Y-32429D03*
X77500Y-33179D03*
X87500Y-30854D03*
X87500Y-31604D03*
X87500Y-32429D03*
X87500Y-33179D03*
X87500Y-34004D03*
X87500Y-34754D03*
X87500Y-35579D03*
X87500Y-36329D03*
X87500Y-37153D03*
X87500Y-37903D03*
X87500Y-38728D03*
X87500Y-39478D03*
X87500Y-40303D03*
X87500Y-41053D03*
X87500Y-41878D03*
X87500Y-42628D03*
X87500Y-43453D03*
X87500Y-44203D03*
X87500Y-45027D03*
X87500Y-45777D03*
X87500Y-46602D03*
X87500Y-47352D03*
X87500Y-48177D03*
X87500Y-48927D03*
X87500Y-49752D03*
X87500Y-50502D03*
X87500Y-51327D03*
X87500Y-52077D03*
X57500Y-29279D03*
X57500Y-30029D03*
X57500Y-30854D03*
X57500Y-31604D03*
X57500Y-32429D03*
X57500Y-33179D03*
X57500Y-34004D03*
X57500Y-34754D03*
X57500Y-35579D03*
X57500Y-36329D03*
X57500Y-37153D03*
X57500Y-37903D03*
X57500Y-38728D03*
X57500Y-39478D03*
X57500Y-40303D03*
X57500Y-41053D03*
X57500Y-41878D03*
X57500Y-42628D03*
X57500Y-43453D03*
X57500Y-44203D03*
X57500Y-45027D03*
X57500Y-45777D03*
X57500Y-46602D03*
X57500Y-47352D03*
X57500Y-48177D03*
X57500Y-48927D03*
X57500Y-49752D03*
X57500Y-50502D03*
X57500Y-51327D03*
X57500Y-52077D03*
X67500Y-29279D03*
X67500Y-30029D03*
X67500Y-30854D03*
X67500Y-31604D03*
X67500Y-32429D03*
X67500Y-33179D03*
X67500Y-34004D03*
X67500Y-34754D03*
X67500Y-35579D03*
X67500Y-36329D03*
X67500Y-37153D03*
X67500Y-37903D03*
X67500Y-38728D03*
X67500Y-39478D03*
X67500Y-40303D03*
X67500Y-41053D03*
X67500Y-41878D03*
X67500Y-42628D03*
X67500Y-43453D03*
X67500Y-44203D03*
X67500Y-45027D03*
X67500Y-45777D03*
X67500Y-46602D03*
X67500Y-47352D03*
X67500Y-48177D03*
X67500Y-48927D03*
X67500Y-49752D03*
X67500Y-50502D03*
X67500Y-51327D03*
X67500Y-52077D03*
X77500Y-29279D03*
X77500Y-30029D03*
X77500Y-30854D03*
X77500Y-31604D03*
G54D15*
X94000Y-51450D03*
X94000Y-29350D03*
X43700Y-29350D03*
X43700Y-51450D03*
G54D16*
X85520Y-34004D03*
X84944Y-41113D03*
X46910Y-43497D03*
X68240Y-29627D03*
X68068Y-34004D03*
X46620Y-40742D03*
X48083Y-34004D03*
X46325Y-38000D03*
X49232Y-40083D03*
X46608Y-39387D03*
X72961Y-39837D03*
X46624Y-42097D03*
G54D17*
X29508Y-33602D02*
X29508Y-36398D01*
X31110Y-38000D02*
X37550Y-38000D01*
X29508Y-36398D02*
X31110Y-38000D01*
X37550Y-41000D02*
X37550Y-39500D01*
X37550Y-39500D02*
X37550Y-38000D01*
X37550Y-42500D02*
X37550Y-41000D01*
X37550Y-44050D02*
X37550Y-42500D01*
X87500Y-33179D02*
X87500Y-33557D01*
X30492Y-33602D02*
X30492Y-34159D01*
X47500Y-33179D02*
X47500Y-33452D01*
X30492Y-36398D02*
X30492Y-34159D01*
X30492Y-34159D02*
X46983Y-34159D01*
X47145Y-33452D02*
X47500Y-33452D01*
X46983Y-33614D02*
X47145Y-33452D01*
X46983Y-34159D02*
X46983Y-33614D01*
X57500Y-37903D02*
X57902Y-37903D01*
X57500Y-33179D02*
X57500Y-33557D01*
X57878Y-33557D02*
X57500Y-33557D01*
X57978Y-33657D02*
X57878Y-33557D01*
X57978Y-37827D02*
X57978Y-33657D01*
X57902Y-37903D02*
X57978Y-37827D01*
X57500Y-42628D02*
X57500Y-43006D01*
X57979Y-46873D02*
X57500Y-47352D01*
X57979Y-43107D02*
X57979Y-46873D01*
X57878Y-43006D02*
X57979Y-43107D01*
X57500Y-43006D02*
X57878Y-43006D01*
X57979Y-51598D02*
X57500Y-52077D01*
X57979Y-47831D02*
X57979Y-51598D01*
X57500Y-47352D02*
X57979Y-47831D01*
X66938Y-42066D02*
X66938Y-41868D01*
X67500Y-42628D02*
X66938Y-42066D01*
X57979Y-41868D02*
X66938Y-41868D01*
X57979Y-42149D02*
X57979Y-41868D01*
X57500Y-42628D02*
X57979Y-42149D01*
X57979Y-37980D02*
X57902Y-37903D01*
X57979Y-41868D02*
X57979Y-37980D01*
X67500Y-33179D02*
X67500Y-33368D01*
X77500Y-33179D02*
X77022Y-33179D01*
X77500Y-47352D02*
X77022Y-47352D01*
X77022Y-43106D02*
X77022Y-47352D01*
X77500Y-42628D02*
X77022Y-43106D01*
X58458Y-52077D02*
X67500Y-52077D01*
X57979Y-51598D02*
X58458Y-52077D01*
X68006Y-51571D02*
X68006Y-47858D01*
X67500Y-52077D02*
X68006Y-51571D01*
X68006Y-47858D02*
X67500Y-47352D01*
X68006Y-47858D02*
X77021Y-47858D01*
X77021Y-47353D02*
X77022Y-47352D01*
X77021Y-47858D02*
X77021Y-47353D01*
X77021Y-51598D02*
X77021Y-47858D01*
X77500Y-52077D02*
X77021Y-51598D01*
X77500Y-52077D02*
X77978Y-52077D01*
X77978Y-52077D02*
X87500Y-52077D01*
X87979Y-47831D02*
X87500Y-47352D01*
X87979Y-51598D02*
X87979Y-47831D01*
X87500Y-52077D02*
X87979Y-51598D01*
X77500Y-37903D02*
X77978Y-37903D01*
X87500Y-37903D02*
X77978Y-37903D01*
X46983Y-37386D02*
X46983Y-34159D01*
X47500Y-37903D02*
X46983Y-37386D01*
X47500Y-52077D02*
X47978Y-52077D01*
X57500Y-52077D02*
X47978Y-52077D01*
X47500Y-37903D02*
X47500Y-38281D01*
X47978Y-47830D02*
X47978Y-52077D01*
X47500Y-47352D02*
X47978Y-47830D01*
X47878Y-38281D02*
X47500Y-38281D01*
X48002Y-38405D02*
X47878Y-38281D01*
X48002Y-42126D02*
X48002Y-38405D01*
X47500Y-42628D02*
X48002Y-42126D01*
X47979Y-46873D02*
X47500Y-47352D01*
X47979Y-43107D02*
X47979Y-46873D01*
X47500Y-42628D02*
X47979Y-43107D01*
X67122Y-38281D02*
X67500Y-38281D01*
X66938Y-38465D02*
X67122Y-38281D01*
X66938Y-41868D02*
X66938Y-38465D01*
X67335Y-33368D02*
X67500Y-33368D01*
X67021Y-33682D02*
X67335Y-33368D01*
X67021Y-37424D02*
X67021Y-33682D01*
X67500Y-37903D02*
X67021Y-37424D01*
X67689Y-33179D02*
X67500Y-33368D01*
X77022Y-33179D02*
X67689Y-33179D01*
X67500Y-37903D02*
X67500Y-38281D01*
X88024Y-46828D02*
X87500Y-47352D01*
X88024Y-43152D02*
X88024Y-46828D01*
X87500Y-42628D02*
X88024Y-43152D01*
X87878Y-33557D02*
X87500Y-33557D01*
X87979Y-33658D02*
X87878Y-33557D01*
X87979Y-37424D02*
X87979Y-33658D01*
X87500Y-37903D02*
X87979Y-37424D01*
X87878Y-38281D02*
X87500Y-38281D01*
X87979Y-38382D02*
X87878Y-38281D01*
X87979Y-42149D02*
X87979Y-38382D01*
X87500Y-42628D02*
X87979Y-42149D01*
X87500Y-37903D02*
X87500Y-38281D01*
X77500Y-50502D02*
X77500Y-51327D01*
X67500Y-51327D02*
X67500Y-50502D01*
X67500Y-49752D02*
X67500Y-48927D01*
X77500Y-34754D02*
X77500Y-35579D01*
X77500Y-36329D02*
X77500Y-37153D01*
X77500Y-39478D02*
X77500Y-40303D01*
X77500Y-41053D02*
X77500Y-41878D01*
X77500Y-44203D02*
X77500Y-45027D01*
X77500Y-45777D02*
X77500Y-46602D01*
X77500Y-48927D02*
X77500Y-49752D01*
X87500Y-51327D02*
X87500Y-50502D01*
X87500Y-49752D02*
X87500Y-48927D01*
X87500Y-48177D02*
X87500Y-47799D01*
X87021Y-43932D02*
X87500Y-43453D01*
X87021Y-47698D02*
X87021Y-43932D01*
X87122Y-47799D02*
X87021Y-47698D01*
X87500Y-47799D02*
X87122Y-47799D01*
X87021Y-42974D02*
X87021Y-41113D01*
X87122Y-43075D02*
X87021Y-42974D01*
X87500Y-43075D02*
X87122Y-43075D01*
X87021Y-39207D02*
X87500Y-38728D01*
X87021Y-41113D02*
X87021Y-39207D01*
X87021Y-41113D02*
X84944Y-41113D01*
X87500Y-43453D02*
X87500Y-43075D01*
X86923Y-29856D02*
X87500Y-29279D01*
X86923Y-34004D02*
X86923Y-29856D01*
X85520Y-34004D02*
X86923Y-34004D01*
X86923Y-34004D02*
X87500Y-34004D01*
X38850Y-44050D02*
X39353Y-44050D01*
X39906Y-43497D02*
X46910Y-43497D01*
X39353Y-44050D02*
X39906Y-43497D01*
X87500Y-46602D02*
X87500Y-45777D01*
X87500Y-45027D02*
X87500Y-44203D01*
X87500Y-41878D02*
X87500Y-41053D01*
X67500Y-46602D02*
X67500Y-45777D01*
X67500Y-45027D02*
X67500Y-44203D01*
X67500Y-41878D02*
X67500Y-41053D01*
X67500Y-40303D02*
X67500Y-39478D01*
X67500Y-37153D02*
X67500Y-36329D01*
X67500Y-35579D02*
X67500Y-34754D01*
X67500Y-48177D02*
X67500Y-47799D01*
X67500Y-29279D02*
X67978Y-29279D01*
X68240Y-29541D02*
X68240Y-29627D01*
X67978Y-29279D02*
X68240Y-29541D01*
X67021Y-43932D02*
X67500Y-43453D01*
X67021Y-47698D02*
X67021Y-43932D01*
X67122Y-47799D02*
X67021Y-47698D01*
X67500Y-47799D02*
X67122Y-47799D01*
X67500Y-43453D02*
X67500Y-43075D01*
X67979Y-39207D02*
X67500Y-38728D01*
X67979Y-42974D02*
X67979Y-39207D01*
X67878Y-43075D02*
X67979Y-42974D01*
X67500Y-43075D02*
X67878Y-43075D01*
X67500Y-34004D02*
X67979Y-34004D01*
X67979Y-34004D02*
X68068Y-34004D01*
X67979Y-38249D02*
X67500Y-38728D01*
X67979Y-34004D02*
X67979Y-38249D01*
X39611Y-40742D02*
X39353Y-41000D01*
X46620Y-40742D02*
X39611Y-40742D01*
X38850Y-41000D02*
X39353Y-41000D01*
X67500Y-32429D02*
X67500Y-31604D01*
X67500Y-30854D02*
X67500Y-30029D01*
X47500Y-48927D02*
X47500Y-49752D01*
X47500Y-50502D02*
X47500Y-51327D01*
X47500Y-30029D02*
X47500Y-30854D01*
X47500Y-31604D02*
X47500Y-32429D01*
X47500Y-34754D02*
X47500Y-35579D01*
X47500Y-36329D02*
X47500Y-37153D01*
X47500Y-39478D02*
X47500Y-40303D01*
X47500Y-41053D02*
X47500Y-41878D01*
X47500Y-44203D02*
X47500Y-45027D01*
X38850Y-38000D02*
X39353Y-38000D01*
X47021Y-43932D02*
X47500Y-43453D01*
X47021Y-47698D02*
X47021Y-43932D01*
X47122Y-47799D02*
X47021Y-47698D01*
X47500Y-47799D02*
X47122Y-47799D01*
X47500Y-48177D02*
X47500Y-47799D01*
X48083Y-34004D02*
X47500Y-34004D01*
X48083Y-29862D02*
X48083Y-34004D01*
X47500Y-29279D02*
X48083Y-29862D01*
X47022Y-38697D02*
X47022Y-38728D01*
X46325Y-38000D02*
X47022Y-38697D01*
X39353Y-38000D02*
X46325Y-38000D01*
X47500Y-38728D02*
X47037Y-38728D01*
X47037Y-38728D02*
X47022Y-38728D01*
X47122Y-43075D02*
X47500Y-43075D01*
X47022Y-42975D02*
X47122Y-43075D01*
X47022Y-38728D02*
X47022Y-42975D01*
X47500Y-43453D02*
X47500Y-43075D01*
X47500Y-45777D02*
X47500Y-46602D01*
X57500Y-40303D02*
X57500Y-39478D01*
X57500Y-37153D02*
X57500Y-36329D01*
X57500Y-35579D02*
X57500Y-34754D01*
X57500Y-32429D02*
X57500Y-31604D01*
X57500Y-30854D02*
X57500Y-30029D01*
X77500Y-31604D02*
X77500Y-32429D01*
X77500Y-30854D02*
X77500Y-30029D01*
X57500Y-51327D02*
X57500Y-50502D01*
X57500Y-49752D02*
X57500Y-48927D01*
X57500Y-48177D02*
X57500Y-47799D01*
X57500Y-43453D02*
X57022Y-43453D01*
X57021Y-29758D02*
X57500Y-29279D01*
X57021Y-33525D02*
X57021Y-29758D01*
X57500Y-34004D02*
X57021Y-33525D01*
X57022Y-47699D02*
X57022Y-43453D01*
X57122Y-47799D02*
X57022Y-47699D01*
X57500Y-47799D02*
X57122Y-47799D01*
X38850Y-39500D02*
X39353Y-39500D01*
X39466Y-39387D02*
X46608Y-39387D01*
X39353Y-39500D02*
X39466Y-39387D01*
X57022Y-40083D02*
X49232Y-40083D01*
X57022Y-43453D02*
X57022Y-40083D01*
X57022Y-39206D02*
X57500Y-38728D01*
X57022Y-40083D02*
X57022Y-39206D01*
X56970Y-34534D02*
X57500Y-34004D01*
X56970Y-38198D02*
X56970Y-34534D01*
X57122Y-38350D02*
X56970Y-38198D01*
X57500Y-38350D02*
X57122Y-38350D01*
X57500Y-38728D02*
X57500Y-38350D01*
X57500Y-46602D02*
X57500Y-45777D01*
X57500Y-45027D02*
X57500Y-44203D01*
X57500Y-41878D02*
X57500Y-41053D01*
X87500Y-35579D02*
X87500Y-34754D01*
X87500Y-32429D02*
X87500Y-31604D01*
X87500Y-30854D02*
X87500Y-30029D01*
X87500Y-40303D02*
X87500Y-39478D01*
X87500Y-37153D02*
X87500Y-36329D01*
X77500Y-34004D02*
X77500Y-33956D01*
X78002Y-33454D02*
X77500Y-33956D01*
X78002Y-29781D02*
X78002Y-33454D01*
X77500Y-29279D02*
X78002Y-29781D01*
X38850Y-42500D02*
X39353Y-42500D01*
X39756Y-42097D02*
X46624Y-42097D01*
X39353Y-42500D02*
X39756Y-42097D01*
X77500Y-43453D02*
X77500Y-43264D01*
X77878Y-47799D02*
X77500Y-47799D01*
X77979Y-47698D02*
X77878Y-47799D01*
X77979Y-43743D02*
X77979Y-47698D01*
X77500Y-43264D02*
X77979Y-43743D01*
X77500Y-48177D02*
X77500Y-47799D01*
X76984Y-34472D02*
X76984Y-38690D01*
X77500Y-33956D02*
X76984Y-34472D01*
X75837Y-39837D02*
X76984Y-38690D01*
X72961Y-39837D02*
X75837Y-39837D01*
X76984Y-38690D02*
X77022Y-38728D01*
X77337Y-38728D02*
X77022Y-38728D01*
X77337Y-38728D02*
X77500Y-38728D01*
X77665Y-43264D02*
X77500Y-43264D01*
X77979Y-42950D02*
X77665Y-43264D01*
X77979Y-39207D02*
X77979Y-42950D01*
X77500Y-38728D02*
X77979Y-39207D01*
G54D10*
G36*
X94675Y-50825D02*
X94521Y-50671D01*
X94184Y-50531D01*
X93818Y-50531D01*
X93480Y-50671D01*
X93221Y-50929D01*
X93081Y-51266D01*
X93081Y-51632D01*
X93221Y-51970D01*
X93375Y-52125D01*
X88025Y-52125D01*
X88025Y-51965D01*
X88024Y-51853D01*
X87986Y-51761D01*
X87927Y-51702D01*
X87986Y-51643D01*
X88024Y-51552D01*
X88024Y-51453D01*
X88024Y-51103D01*
X87986Y-51011D01*
X87916Y-50941D01*
X87852Y-50914D01*
X87916Y-50888D01*
X87986Y-50818D01*
X88024Y-50727D01*
X88024Y-50628D01*
X88024Y-50278D01*
X87986Y-50186D01*
X87927Y-50127D01*
X87986Y-50068D01*
X88024Y-49977D01*
X88024Y-49878D01*
X88024Y-49528D01*
X87986Y-49436D01*
X87916Y-49366D01*
X87852Y-49339D01*
X87916Y-49313D01*
X87986Y-49243D01*
X88024Y-49152D01*
X88024Y-49053D01*
X88024Y-48703D01*
X87986Y-48611D01*
X87927Y-48552D01*
X87986Y-48493D01*
X88024Y-48402D01*
X88024Y-48303D01*
X88024Y-47953D01*
X87986Y-47861D01*
X87916Y-47791D01*
X87852Y-47764D01*
X87916Y-47738D01*
X87986Y-47668D01*
X88024Y-47576D01*
X88025Y-47464D01*
X87963Y-47402D01*
X87600Y-47402D01*
X87550Y-47402D01*
X87450Y-47402D01*
X87450Y-47302D01*
X87550Y-47302D01*
X87600Y-47302D01*
X87963Y-47302D01*
X88025Y-47240D01*
X88024Y-47128D01*
X87986Y-47036D01*
X87927Y-46977D01*
X87986Y-46918D01*
X88024Y-46827D01*
X88024Y-46728D01*
X88024Y-46378D01*
X87986Y-46286D01*
X87916Y-46216D01*
X87852Y-46189D01*
X87916Y-46163D01*
X87986Y-46093D01*
X88024Y-46002D01*
X88024Y-45903D01*
X88024Y-45553D01*
X87986Y-45461D01*
X87927Y-45402D01*
X87986Y-45343D01*
X88024Y-45252D01*
X88024Y-45153D01*
X88024Y-44803D01*
X87986Y-44711D01*
X87916Y-44641D01*
X87853Y-44614D01*
X87916Y-44589D01*
X87986Y-44519D01*
X88024Y-44428D01*
X88024Y-44329D01*
X88024Y-43979D01*
X87986Y-43887D01*
X87927Y-43828D01*
X87986Y-43769D01*
X88024Y-43678D01*
X88024Y-43579D01*
X88024Y-43229D01*
X87986Y-43137D01*
X87916Y-43067D01*
X87852Y-43040D01*
X87916Y-43014D01*
X87986Y-42944D01*
X88024Y-42852D01*
X88025Y-42740D01*
X87963Y-42678D01*
X87600Y-42678D01*
X87550Y-42678D01*
X87450Y-42678D01*
X87450Y-42578D01*
X87550Y-42578D01*
X87600Y-42578D01*
X87963Y-42578D01*
X88025Y-42516D01*
X88024Y-42404D01*
X87986Y-42312D01*
X87927Y-42253D01*
X87986Y-42194D01*
X88024Y-42103D01*
X88024Y-42004D01*
X88024Y-41654D01*
X87986Y-41562D01*
X87916Y-41492D01*
X87852Y-41465D01*
X87916Y-41439D01*
X87986Y-41369D01*
X88024Y-41278D01*
X88024Y-41179D01*
X88024Y-40829D01*
X87986Y-40737D01*
X87927Y-40678D01*
X87986Y-40619D01*
X88024Y-40528D01*
X88024Y-40429D01*
X88024Y-40079D01*
X87986Y-39987D01*
X87916Y-39917D01*
X87852Y-39890D01*
X87916Y-39864D01*
X87986Y-39794D01*
X88024Y-39703D01*
X88024Y-39604D01*
X88024Y-39254D01*
X87986Y-39162D01*
X87927Y-39103D01*
X87986Y-39044D01*
X88024Y-38953D01*
X88024Y-38854D01*
X88024Y-38504D01*
X87986Y-38412D01*
X87916Y-38342D01*
X87852Y-38315D01*
X87916Y-38289D01*
X87986Y-38219D01*
X88024Y-38127D01*
X88025Y-38015D01*
X88025Y-37791D01*
X88024Y-37679D01*
X87986Y-37587D01*
X87927Y-37528D01*
X87986Y-37469D01*
X88024Y-37378D01*
X88024Y-37279D01*
X88024Y-36929D01*
X87986Y-36837D01*
X87916Y-36767D01*
X87853Y-36740D01*
X87916Y-36715D01*
X87986Y-36645D01*
X88024Y-36554D01*
X88024Y-36455D01*
X88024Y-36105D01*
X87986Y-36013D01*
X87927Y-35954D01*
X87986Y-35895D01*
X88024Y-35804D01*
X88024Y-35705D01*
X88024Y-35355D01*
X87986Y-35263D01*
X87916Y-35193D01*
X87852Y-35166D01*
X87916Y-35140D01*
X87986Y-35070D01*
X88024Y-34979D01*
X88024Y-34880D01*
X88024Y-34530D01*
X87986Y-34438D01*
X87927Y-34379D01*
X87986Y-34320D01*
X88024Y-34229D01*
X88024Y-34130D01*
X88024Y-33780D01*
X87986Y-33688D01*
X87916Y-33618D01*
X87852Y-33591D01*
X87916Y-33565D01*
X87986Y-33495D01*
X88024Y-33403D01*
X88025Y-33291D01*
X87963Y-33229D01*
X87600Y-33229D01*
X87550Y-33229D01*
X87450Y-33229D01*
X87450Y-33129D01*
X87550Y-33129D01*
X87600Y-33129D01*
X87963Y-33129D01*
X88025Y-33067D01*
X88024Y-32955D01*
X87986Y-32863D01*
X87927Y-32804D01*
X87986Y-32745D01*
X88024Y-32654D01*
X88024Y-32555D01*
X88024Y-32205D01*
X87986Y-32113D01*
X87916Y-32043D01*
X87852Y-32016D01*
X87916Y-31990D01*
X87986Y-31920D01*
X88024Y-31829D01*
X88024Y-31730D01*
X88024Y-31380D01*
X87986Y-31288D01*
X87927Y-31229D01*
X87986Y-31170D01*
X88024Y-31079D01*
X88024Y-30980D01*
X88024Y-30630D01*
X87986Y-30538D01*
X87916Y-30468D01*
X87852Y-30441D01*
X87916Y-30415D01*
X87986Y-30345D01*
X88024Y-30254D01*
X88024Y-30155D01*
X88024Y-29805D01*
X87986Y-29713D01*
X87927Y-29654D01*
X87986Y-29595D01*
X88024Y-29504D01*
X88024Y-29405D01*
X88024Y-29055D01*
X87986Y-28963D01*
X87916Y-28893D01*
X87825Y-28855D01*
X87726Y-28855D01*
X87176Y-28855D01*
X87084Y-28893D01*
X87014Y-28963D01*
X86976Y-29054D01*
X86976Y-29153D01*
X86976Y-29309D01*
X86676Y-29609D01*
X86600Y-29722D01*
X86573Y-29856D01*
X86573Y-33654D01*
X85771Y-33654D01*
X85761Y-33644D01*
X85605Y-33579D01*
X85436Y-33579D01*
X85280Y-33643D01*
X85160Y-33763D01*
X85095Y-33919D01*
X85095Y-34088D01*
X85159Y-34244D01*
X85279Y-34364D01*
X85435Y-34429D01*
X85604Y-34429D01*
X85760Y-34365D01*
X85771Y-34354D01*
X86923Y-34354D01*
X87048Y-34354D01*
X87073Y-34379D01*
X87014Y-34438D01*
X86976Y-34529D01*
X86976Y-34628D01*
X86976Y-34978D01*
X87014Y-35070D01*
X87084Y-35140D01*
X87147Y-35166D01*
X87084Y-35193D01*
X87014Y-35263D01*
X86976Y-35354D01*
X86976Y-35453D01*
X86976Y-35803D01*
X87014Y-35895D01*
X87073Y-35954D01*
X87014Y-36013D01*
X86976Y-36104D01*
X86976Y-36203D01*
X86976Y-36553D01*
X87014Y-36645D01*
X87084Y-36715D01*
X87146Y-36741D01*
X87084Y-36767D01*
X87014Y-36837D01*
X86976Y-36928D01*
X86976Y-37027D01*
X86976Y-37377D01*
X87014Y-37469D01*
X87073Y-37528D01*
X87014Y-37587D01*
X86976Y-37679D01*
X86975Y-37791D01*
X87037Y-37853D01*
X87400Y-37853D01*
X87450Y-37853D01*
X87550Y-37853D01*
X87600Y-37853D01*
X87963Y-37853D01*
X88025Y-37791D01*
X88025Y-38015D01*
X87963Y-37953D01*
X87600Y-37953D01*
X87550Y-37953D01*
X87450Y-37953D01*
X87400Y-37953D01*
X87037Y-37953D01*
X86975Y-38015D01*
X86976Y-38127D01*
X87014Y-38219D01*
X87084Y-38289D01*
X87147Y-38315D01*
X87084Y-38342D01*
X87014Y-38412D01*
X86976Y-38503D01*
X86976Y-38602D01*
X86976Y-38757D01*
X86774Y-38960D01*
X86698Y-39073D01*
X86671Y-39207D01*
X86671Y-40763D01*
X85195Y-40763D01*
X85185Y-40753D01*
X85029Y-40688D01*
X84860Y-40688D01*
X84704Y-40752D01*
X84584Y-40872D01*
X84519Y-41028D01*
X84519Y-41197D01*
X84583Y-41353D01*
X84703Y-41473D01*
X84859Y-41538D01*
X85028Y-41538D01*
X85184Y-41474D01*
X85195Y-41463D01*
X86671Y-41463D01*
X86671Y-42974D01*
X86698Y-43108D01*
X86774Y-43221D01*
X86874Y-43322D01*
X86875Y-43322D01*
X86976Y-43390D01*
X86976Y-43482D01*
X86774Y-43685D01*
X86698Y-43798D01*
X86671Y-43932D01*
X86671Y-47698D01*
X86698Y-47832D01*
X86774Y-47945D01*
X86874Y-48046D01*
X86875Y-48046D01*
X86976Y-48114D01*
X86976Y-48401D01*
X87014Y-48493D01*
X87073Y-48552D01*
X87014Y-48611D01*
X86976Y-48702D01*
X86976Y-48801D01*
X86976Y-49151D01*
X87014Y-49243D01*
X87084Y-49313D01*
X87147Y-49339D01*
X87084Y-49366D01*
X87014Y-49436D01*
X86976Y-49527D01*
X86976Y-49626D01*
X86976Y-49976D01*
X87014Y-50068D01*
X87073Y-50127D01*
X87014Y-50186D01*
X86976Y-50277D01*
X86976Y-50376D01*
X86976Y-50726D01*
X87014Y-50818D01*
X87084Y-50888D01*
X87147Y-50914D01*
X87084Y-50941D01*
X87014Y-51011D01*
X86976Y-51102D01*
X86976Y-51201D01*
X86976Y-51551D01*
X87014Y-51643D01*
X87073Y-51702D01*
X87014Y-51761D01*
X86976Y-51853D01*
X86975Y-51965D01*
X87037Y-52027D01*
X87400Y-52027D01*
X87450Y-52027D01*
X87550Y-52027D01*
X87600Y-52027D01*
X87963Y-52027D01*
X88025Y-51965D01*
X88025Y-52125D01*
X78352Y-52125D01*
X78352Y-33454D01*
X78352Y-29781D01*
X78351Y-29780D01*
X78325Y-29647D01*
X78279Y-29578D01*
X78249Y-29534D01*
X78249Y-29533D01*
X78024Y-29308D01*
X78024Y-29055D01*
X77986Y-28963D01*
X77916Y-28893D01*
X77825Y-28855D01*
X77726Y-28855D01*
X77176Y-28855D01*
X77084Y-28893D01*
X77014Y-28963D01*
X76976Y-29054D01*
X76976Y-29153D01*
X76976Y-29503D01*
X77014Y-29595D01*
X77073Y-29654D01*
X77014Y-29713D01*
X76976Y-29804D01*
X76976Y-29903D01*
X76976Y-30253D01*
X77014Y-30345D01*
X77084Y-30415D01*
X77147Y-30441D01*
X77084Y-30468D01*
X77014Y-30538D01*
X76976Y-30629D01*
X76976Y-30728D01*
X76976Y-31078D01*
X77014Y-31170D01*
X77073Y-31229D01*
X77014Y-31288D01*
X76976Y-31379D01*
X76976Y-31478D01*
X76976Y-31828D01*
X77014Y-31920D01*
X77084Y-31990D01*
X77147Y-32016D01*
X77084Y-32043D01*
X77014Y-32113D01*
X76976Y-32204D01*
X76976Y-32303D01*
X76976Y-32653D01*
X77014Y-32745D01*
X77073Y-32804D01*
X77014Y-32863D01*
X76976Y-32955D01*
X76975Y-33067D01*
X77037Y-33129D01*
X77400Y-33129D01*
X77450Y-33129D01*
X77550Y-33129D01*
X77550Y-33229D01*
X77450Y-33229D01*
X77400Y-33229D01*
X77037Y-33229D01*
X76975Y-33291D01*
X76976Y-33403D01*
X77014Y-33495D01*
X77084Y-33565D01*
X77147Y-33591D01*
X77084Y-33618D01*
X77014Y-33688D01*
X76976Y-33779D01*
X76976Y-33878D01*
X76976Y-33985D01*
X76737Y-34225D01*
X76661Y-34338D01*
X76634Y-34472D01*
X76634Y-38545D01*
X75692Y-39487D01*
X73212Y-39487D01*
X73202Y-39477D01*
X73046Y-39412D01*
X72877Y-39412D01*
X72721Y-39476D01*
X72601Y-39596D01*
X72536Y-39752D01*
X72536Y-39921D01*
X72600Y-40077D01*
X72720Y-40197D01*
X72876Y-40262D01*
X73045Y-40262D01*
X73201Y-40198D01*
X73212Y-40187D01*
X75837Y-40187D01*
X75837Y-40186D01*
X75971Y-40160D01*
X76084Y-40084D01*
X77069Y-39099D01*
X77073Y-39103D01*
X77014Y-39162D01*
X76976Y-39253D01*
X76976Y-39352D01*
X76976Y-39702D01*
X77014Y-39794D01*
X77084Y-39864D01*
X77147Y-39890D01*
X77084Y-39917D01*
X77014Y-39987D01*
X76976Y-40078D01*
X76976Y-40177D01*
X76976Y-40527D01*
X77014Y-40619D01*
X77073Y-40678D01*
X77014Y-40737D01*
X76976Y-40828D01*
X76976Y-40927D01*
X76976Y-41277D01*
X77014Y-41369D01*
X77084Y-41439D01*
X77147Y-41465D01*
X77084Y-41492D01*
X77014Y-41562D01*
X76976Y-41653D01*
X76976Y-41752D01*
X76976Y-42102D01*
X77014Y-42194D01*
X77073Y-42253D01*
X77014Y-42312D01*
X76976Y-42404D01*
X76975Y-42516D01*
X77037Y-42578D01*
X77400Y-42578D01*
X77450Y-42578D01*
X77550Y-42578D01*
X77550Y-42678D01*
X77450Y-42678D01*
X77400Y-42678D01*
X77037Y-42678D01*
X76975Y-42740D01*
X76976Y-42852D01*
X77014Y-42944D01*
X77084Y-43014D01*
X77147Y-43040D01*
X77084Y-43067D01*
X77014Y-43137D01*
X76976Y-43228D01*
X76976Y-43327D01*
X76976Y-43677D01*
X77014Y-43769D01*
X77073Y-43828D01*
X77014Y-43887D01*
X76976Y-43978D01*
X76976Y-44077D01*
X76976Y-44427D01*
X77014Y-44519D01*
X77084Y-44589D01*
X77146Y-44615D01*
X77084Y-44641D01*
X77014Y-44711D01*
X76976Y-44802D01*
X76976Y-44901D01*
X76976Y-45251D01*
X77014Y-45343D01*
X77073Y-45402D01*
X77014Y-45461D01*
X76976Y-45552D01*
X76976Y-45651D01*
X76976Y-46001D01*
X77014Y-46093D01*
X77084Y-46163D01*
X77147Y-46189D01*
X77084Y-46216D01*
X77014Y-46286D01*
X76976Y-46377D01*
X76976Y-46476D01*
X76976Y-46826D01*
X77014Y-46918D01*
X77073Y-46977D01*
X77014Y-47036D01*
X76976Y-47128D01*
X76975Y-47240D01*
X77037Y-47302D01*
X77400Y-47302D01*
X77450Y-47302D01*
X77550Y-47302D01*
X77550Y-47402D01*
X77450Y-47402D01*
X77400Y-47402D01*
X77037Y-47402D01*
X76975Y-47464D01*
X76976Y-47576D01*
X77014Y-47668D01*
X77084Y-47738D01*
X77147Y-47764D01*
X77084Y-47791D01*
X77014Y-47861D01*
X76976Y-47952D01*
X76976Y-48051D01*
X76976Y-48401D01*
X77014Y-48493D01*
X77073Y-48552D01*
X77014Y-48611D01*
X76976Y-48702D01*
X76976Y-48801D01*
X76976Y-49151D01*
X77014Y-49243D01*
X77084Y-49313D01*
X77147Y-49339D01*
X77084Y-49366D01*
X77014Y-49436D01*
X76976Y-49527D01*
X76976Y-49626D01*
X76976Y-49976D01*
X77014Y-50068D01*
X77073Y-50127D01*
X77014Y-50186D01*
X76976Y-50277D01*
X76976Y-50376D01*
X76976Y-50726D01*
X77014Y-50818D01*
X77084Y-50888D01*
X77147Y-50914D01*
X77084Y-50941D01*
X77014Y-51011D01*
X76976Y-51102D01*
X76976Y-51201D01*
X76976Y-51551D01*
X77014Y-51643D01*
X77073Y-51702D01*
X77014Y-51761D01*
X76976Y-51853D01*
X76975Y-51965D01*
X77037Y-52027D01*
X77400Y-52027D01*
X77450Y-52027D01*
X77550Y-52027D01*
X77600Y-52027D01*
X77963Y-52027D01*
X78025Y-51965D01*
X78024Y-51853D01*
X77986Y-51761D01*
X77927Y-51702D01*
X77986Y-51643D01*
X78024Y-51552D01*
X78024Y-51453D01*
X78024Y-51103D01*
X77986Y-51011D01*
X77916Y-50941D01*
X77852Y-50914D01*
X77916Y-50888D01*
X77986Y-50818D01*
X78024Y-50727D01*
X78024Y-50628D01*
X78024Y-50278D01*
X77986Y-50186D01*
X77927Y-50127D01*
X77986Y-50068D01*
X78024Y-49977D01*
X78024Y-49878D01*
X78024Y-49528D01*
X77986Y-49436D01*
X77916Y-49366D01*
X77852Y-49339D01*
X77916Y-49313D01*
X77986Y-49243D01*
X78024Y-49152D01*
X78024Y-49053D01*
X78024Y-48703D01*
X77986Y-48611D01*
X77927Y-48552D01*
X77986Y-48493D01*
X78024Y-48402D01*
X78024Y-48303D01*
X78024Y-48113D01*
X78125Y-48046D01*
X78226Y-47946D01*
X78226Y-47945D01*
X78302Y-47832D01*
X78328Y-47699D01*
X78329Y-47698D01*
X78329Y-43743D01*
X78302Y-43609D01*
X78226Y-43496D01*
X78226Y-43495D01*
X78077Y-43346D01*
X78226Y-43198D01*
X78226Y-43197D01*
X78302Y-43084D01*
X78328Y-42950D01*
X78329Y-42950D01*
X78329Y-39207D01*
X78302Y-39073D01*
X78226Y-38960D01*
X78226Y-38959D01*
X78024Y-38757D01*
X78024Y-38504D01*
X77986Y-38412D01*
X77916Y-38342D01*
X77852Y-38315D01*
X77916Y-38289D01*
X77986Y-38219D01*
X78024Y-38127D01*
X78025Y-38015D01*
X77963Y-37953D01*
X77600Y-37953D01*
X77550Y-37953D01*
X77450Y-37953D01*
X77450Y-37853D01*
X77550Y-37853D01*
X77600Y-37853D01*
X77963Y-37853D01*
X78025Y-37791D01*
X78024Y-37679D01*
X77986Y-37587D01*
X77927Y-37528D01*
X77986Y-37469D01*
X78024Y-37378D01*
X78024Y-37279D01*
X78024Y-36929D01*
X77986Y-36837D01*
X77916Y-36767D01*
X77853Y-36740D01*
X77916Y-36715D01*
X77986Y-36645D01*
X78024Y-36554D01*
X78024Y-36455D01*
X78024Y-36105D01*
X77986Y-36013D01*
X77927Y-35954D01*
X77986Y-35895D01*
X78024Y-35804D01*
X78024Y-35705D01*
X78024Y-35355D01*
X77986Y-35263D01*
X77916Y-35193D01*
X77852Y-35166D01*
X77916Y-35140D01*
X77986Y-35070D01*
X78024Y-34979D01*
X78024Y-34880D01*
X78024Y-34530D01*
X77986Y-34438D01*
X77927Y-34379D01*
X77986Y-34320D01*
X78024Y-34229D01*
X78024Y-34130D01*
X78024Y-33926D01*
X78249Y-33702D01*
X78249Y-33701D01*
X78279Y-33656D01*
X78324Y-33588D01*
X78325Y-33588D01*
X78351Y-33455D01*
X78352Y-33454D01*
X78352Y-52125D01*
X68665Y-52125D01*
X68665Y-29712D01*
X68665Y-29543D01*
X68601Y-29387D01*
X68481Y-29267D01*
X68446Y-29252D01*
X68225Y-29032D01*
X68112Y-28956D01*
X67978Y-28929D01*
X67952Y-28929D01*
X67916Y-28893D01*
X67825Y-28855D01*
X67726Y-28855D01*
X67176Y-28855D01*
X67084Y-28893D01*
X67014Y-28963D01*
X66976Y-29054D01*
X66976Y-29153D01*
X66976Y-29503D01*
X67014Y-29595D01*
X67073Y-29654D01*
X67014Y-29713D01*
X66976Y-29804D01*
X66976Y-29903D01*
X66976Y-30253D01*
X67014Y-30345D01*
X67084Y-30415D01*
X67147Y-30441D01*
X67084Y-30468D01*
X67014Y-30538D01*
X66976Y-30629D01*
X66976Y-30728D01*
X66976Y-31078D01*
X67014Y-31170D01*
X67073Y-31229D01*
X67014Y-31288D01*
X66976Y-31379D01*
X66976Y-31478D01*
X66976Y-31828D01*
X67014Y-31920D01*
X67084Y-31990D01*
X67147Y-32016D01*
X67084Y-32043D01*
X67014Y-32113D01*
X66976Y-32204D01*
X66976Y-32303D01*
X66976Y-32653D01*
X67014Y-32745D01*
X67073Y-32804D01*
X67014Y-32863D01*
X66976Y-32955D01*
X66975Y-33067D01*
X67037Y-33129D01*
X67400Y-33129D01*
X67450Y-33129D01*
X67550Y-33129D01*
X67600Y-33129D01*
X67963Y-33129D01*
X68025Y-33067D01*
X68024Y-32955D01*
X67986Y-32863D01*
X67927Y-32804D01*
X67986Y-32745D01*
X68024Y-32654D01*
X68024Y-32555D01*
X68024Y-32205D01*
X67986Y-32113D01*
X67916Y-32043D01*
X67852Y-32016D01*
X67916Y-31990D01*
X67986Y-31920D01*
X68024Y-31829D01*
X68024Y-31730D01*
X68024Y-31380D01*
X67986Y-31288D01*
X67927Y-31229D01*
X67986Y-31170D01*
X68024Y-31079D01*
X68024Y-30980D01*
X68024Y-30630D01*
X67986Y-30538D01*
X67916Y-30468D01*
X67852Y-30441D01*
X67916Y-30415D01*
X67986Y-30345D01*
X68024Y-30254D01*
X68024Y-30155D01*
X68024Y-29997D01*
X68155Y-30052D01*
X68324Y-30052D01*
X68480Y-29988D01*
X68600Y-29868D01*
X68665Y-29712D01*
X68665Y-52125D01*
X68493Y-52125D01*
X68493Y-34089D01*
X68493Y-33920D01*
X68429Y-33764D01*
X68309Y-33644D01*
X68153Y-33579D01*
X67984Y-33579D01*
X67902Y-33612D01*
X67852Y-33591D01*
X67916Y-33565D01*
X67986Y-33495D01*
X68024Y-33403D01*
X68025Y-33291D01*
X67963Y-33229D01*
X67600Y-33229D01*
X67550Y-33229D01*
X67450Y-33229D01*
X67400Y-33229D01*
X67037Y-33229D01*
X66975Y-33291D01*
X66976Y-33403D01*
X67014Y-33495D01*
X67084Y-33565D01*
X67147Y-33591D01*
X67084Y-33618D01*
X67014Y-33688D01*
X66976Y-33779D01*
X66976Y-33878D01*
X66976Y-34228D01*
X67014Y-34320D01*
X67073Y-34379D01*
X67014Y-34438D01*
X66976Y-34529D01*
X66976Y-34628D01*
X66976Y-34978D01*
X67014Y-35070D01*
X67084Y-35140D01*
X67147Y-35166D01*
X67084Y-35193D01*
X67014Y-35263D01*
X66976Y-35354D01*
X66976Y-35453D01*
X66976Y-35803D01*
X67014Y-35895D01*
X67073Y-35954D01*
X67014Y-36013D01*
X66976Y-36104D01*
X66976Y-36203D01*
X66976Y-36553D01*
X67014Y-36645D01*
X67084Y-36715D01*
X67146Y-36741D01*
X67084Y-36767D01*
X67014Y-36837D01*
X66976Y-36928D01*
X66976Y-37027D01*
X66976Y-37377D01*
X67014Y-37469D01*
X67073Y-37528D01*
X67014Y-37587D01*
X66976Y-37679D01*
X66975Y-37791D01*
X67037Y-37853D01*
X67400Y-37853D01*
X67450Y-37853D01*
X67550Y-37853D01*
X67550Y-37953D01*
X67450Y-37953D01*
X67400Y-37953D01*
X67037Y-37953D01*
X66975Y-38015D01*
X66976Y-38127D01*
X67014Y-38219D01*
X67084Y-38289D01*
X67147Y-38315D01*
X67084Y-38342D01*
X67014Y-38412D01*
X66976Y-38503D01*
X66976Y-38602D01*
X66976Y-38952D01*
X67014Y-39044D01*
X67073Y-39103D01*
X67014Y-39162D01*
X66976Y-39253D01*
X66976Y-39352D01*
X66976Y-39702D01*
X67014Y-39794D01*
X67084Y-39864D01*
X67147Y-39890D01*
X67084Y-39917D01*
X67014Y-39987D01*
X66976Y-40078D01*
X66976Y-40177D01*
X66976Y-40527D01*
X67014Y-40619D01*
X67073Y-40678D01*
X67014Y-40737D01*
X66976Y-40828D01*
X66976Y-40927D01*
X66976Y-41277D01*
X67014Y-41369D01*
X67084Y-41439D01*
X67147Y-41465D01*
X67084Y-41492D01*
X67014Y-41562D01*
X66976Y-41653D01*
X66976Y-41752D01*
X66976Y-42102D01*
X67014Y-42194D01*
X67073Y-42253D01*
X67014Y-42312D01*
X66976Y-42404D01*
X66975Y-42516D01*
X67037Y-42578D01*
X67400Y-42578D01*
X67450Y-42578D01*
X67550Y-42578D01*
X67550Y-42678D01*
X67450Y-42678D01*
X67400Y-42678D01*
X67037Y-42678D01*
X66975Y-42740D01*
X66976Y-42852D01*
X67014Y-42944D01*
X67084Y-43014D01*
X67147Y-43040D01*
X67084Y-43067D01*
X67014Y-43137D01*
X66976Y-43228D01*
X66976Y-43327D01*
X66976Y-43482D01*
X66774Y-43685D01*
X66698Y-43798D01*
X66671Y-43932D01*
X66671Y-47698D01*
X66698Y-47832D01*
X66774Y-47945D01*
X66874Y-48046D01*
X66875Y-48046D01*
X66976Y-48114D01*
X66976Y-48401D01*
X67014Y-48493D01*
X67073Y-48552D01*
X67014Y-48611D01*
X66976Y-48702D01*
X66976Y-48801D01*
X66976Y-49151D01*
X67014Y-49243D01*
X67084Y-49313D01*
X67147Y-49339D01*
X67084Y-49366D01*
X67014Y-49436D01*
X66976Y-49527D01*
X66976Y-49626D01*
X66976Y-49976D01*
X67014Y-50068D01*
X67073Y-50127D01*
X67014Y-50186D01*
X66976Y-50277D01*
X66976Y-50376D01*
X66976Y-50726D01*
X67014Y-50818D01*
X67084Y-50888D01*
X67147Y-50914D01*
X67084Y-50941D01*
X67014Y-51011D01*
X66976Y-51102D01*
X66976Y-51201D01*
X66976Y-51551D01*
X67014Y-51643D01*
X67073Y-51702D01*
X67014Y-51761D01*
X66976Y-51853D01*
X66975Y-51965D01*
X67037Y-52027D01*
X67400Y-52027D01*
X67450Y-52027D01*
X67550Y-52027D01*
X67600Y-52027D01*
X67963Y-52027D01*
X68025Y-51965D01*
X68024Y-51853D01*
X67986Y-51761D01*
X67927Y-51702D01*
X67986Y-51643D01*
X68024Y-51552D01*
X68024Y-51453D01*
X68024Y-51103D01*
X67986Y-51011D01*
X67916Y-50941D01*
X67852Y-50914D01*
X67916Y-50888D01*
X67986Y-50818D01*
X68024Y-50727D01*
X68024Y-50628D01*
X68024Y-50278D01*
X67986Y-50186D01*
X67927Y-50127D01*
X67986Y-50068D01*
X68024Y-49977D01*
X68024Y-49878D01*
X68024Y-49528D01*
X67986Y-49436D01*
X67916Y-49366D01*
X67852Y-49339D01*
X67916Y-49313D01*
X67986Y-49243D01*
X68024Y-49152D01*
X68024Y-49053D01*
X68024Y-48703D01*
X67986Y-48611D01*
X67927Y-48552D01*
X67986Y-48493D01*
X68024Y-48402D01*
X68024Y-48303D01*
X68024Y-47953D01*
X67986Y-47861D01*
X67916Y-47791D01*
X67852Y-47764D01*
X67916Y-47738D01*
X67986Y-47668D01*
X68024Y-47576D01*
X68025Y-47464D01*
X67963Y-47402D01*
X67600Y-47402D01*
X67550Y-47402D01*
X67450Y-47402D01*
X67450Y-47302D01*
X67550Y-47302D01*
X67600Y-47302D01*
X67963Y-47302D01*
X68025Y-47240D01*
X68024Y-47128D01*
X67986Y-47036D01*
X67927Y-46977D01*
X67986Y-46918D01*
X68024Y-46827D01*
X68024Y-46728D01*
X68024Y-46378D01*
X67986Y-46286D01*
X67916Y-46216D01*
X67852Y-46189D01*
X67916Y-46163D01*
X67986Y-46093D01*
X68024Y-46002D01*
X68024Y-45903D01*
X68024Y-45553D01*
X67986Y-45461D01*
X67927Y-45402D01*
X67986Y-45343D01*
X68024Y-45252D01*
X68024Y-45153D01*
X68024Y-44803D01*
X67986Y-44711D01*
X67916Y-44641D01*
X67853Y-44614D01*
X67916Y-44589D01*
X67986Y-44519D01*
X68024Y-44428D01*
X68024Y-44329D01*
X68024Y-43979D01*
X67986Y-43887D01*
X67927Y-43828D01*
X67986Y-43769D01*
X68024Y-43678D01*
X68024Y-43579D01*
X68024Y-43389D01*
X68125Y-43322D01*
X68226Y-43222D01*
X68226Y-43221D01*
X68302Y-43108D01*
X68328Y-42975D01*
X68329Y-42974D01*
X68329Y-39207D01*
X68302Y-39073D01*
X68226Y-38960D01*
X68226Y-38959D01*
X68024Y-38757D01*
X68024Y-38698D01*
X68226Y-38497D01*
X68226Y-38496D01*
X68302Y-38383D01*
X68328Y-38249D01*
X68329Y-38249D01*
X68329Y-34344D01*
X68428Y-34245D01*
X68493Y-34089D01*
X68493Y-52125D01*
X58025Y-52125D01*
X58025Y-51965D01*
X58024Y-51853D01*
X57986Y-51761D01*
X57927Y-51702D01*
X57986Y-51643D01*
X58024Y-51552D01*
X58024Y-51453D01*
X58024Y-51103D01*
X57986Y-51011D01*
X57916Y-50941D01*
X57852Y-50914D01*
X57916Y-50888D01*
X57986Y-50818D01*
X58024Y-50727D01*
X58024Y-50628D01*
X58024Y-50278D01*
X57986Y-50186D01*
X57927Y-50127D01*
X57986Y-50068D01*
X58024Y-49977D01*
X58024Y-49878D01*
X58024Y-49528D01*
X57986Y-49436D01*
X57916Y-49366D01*
X57852Y-49339D01*
X57916Y-49313D01*
X57986Y-49243D01*
X58024Y-49152D01*
X58024Y-49053D01*
X58024Y-48703D01*
X57986Y-48611D01*
X57927Y-48552D01*
X57986Y-48493D01*
X58024Y-48402D01*
X58024Y-48303D01*
X58024Y-47953D01*
X57986Y-47861D01*
X57916Y-47791D01*
X57852Y-47764D01*
X57916Y-47738D01*
X57986Y-47668D01*
X58024Y-47576D01*
X58025Y-47464D01*
X57963Y-47402D01*
X57600Y-47402D01*
X57550Y-47402D01*
X57450Y-47402D01*
X57450Y-47302D01*
X57550Y-47302D01*
X57600Y-47302D01*
X57963Y-47302D01*
X58025Y-47240D01*
X58024Y-47128D01*
X57986Y-47036D01*
X57927Y-46977D01*
X57986Y-46918D01*
X58024Y-46827D01*
X58024Y-46728D01*
X58024Y-46378D01*
X57986Y-46286D01*
X57916Y-46216D01*
X57852Y-46189D01*
X57916Y-46163D01*
X57986Y-46093D01*
X58024Y-46002D01*
X58024Y-45903D01*
X58024Y-45553D01*
X57986Y-45461D01*
X57927Y-45402D01*
X57986Y-45343D01*
X58024Y-45252D01*
X58024Y-45153D01*
X58024Y-44803D01*
X57986Y-44711D01*
X57916Y-44641D01*
X57853Y-44614D01*
X57916Y-44589D01*
X57986Y-44519D01*
X58024Y-44428D01*
X58024Y-44329D01*
X58024Y-43979D01*
X57986Y-43887D01*
X57927Y-43828D01*
X57986Y-43769D01*
X58024Y-43678D01*
X58024Y-43579D01*
X58024Y-43229D01*
X57986Y-43137D01*
X57916Y-43067D01*
X57852Y-43040D01*
X57916Y-43014D01*
X57986Y-42944D01*
X58024Y-42852D01*
X58025Y-42740D01*
X57963Y-42678D01*
X57600Y-42678D01*
X57550Y-42678D01*
X57450Y-42678D01*
X57450Y-42578D01*
X57550Y-42578D01*
X57600Y-42578D01*
X57963Y-42578D01*
X58025Y-42516D01*
X58024Y-42404D01*
X57986Y-42312D01*
X57927Y-42253D01*
X57986Y-42194D01*
X58024Y-42103D01*
X58024Y-42004D01*
X58024Y-41654D01*
X57986Y-41562D01*
X57916Y-41492D01*
X57852Y-41465D01*
X57916Y-41439D01*
X57986Y-41369D01*
X58024Y-41278D01*
X58024Y-41179D01*
X58024Y-40829D01*
X57986Y-40737D01*
X57927Y-40678D01*
X57986Y-40619D01*
X58024Y-40528D01*
X58024Y-40429D01*
X58024Y-40079D01*
X57986Y-39987D01*
X57916Y-39917D01*
X57852Y-39890D01*
X57916Y-39864D01*
X57986Y-39794D01*
X58024Y-39703D01*
X58024Y-39604D01*
X58024Y-39254D01*
X57986Y-39162D01*
X57927Y-39103D01*
X57986Y-39044D01*
X58024Y-38953D01*
X58024Y-38854D01*
X58024Y-38504D01*
X57986Y-38412D01*
X57916Y-38342D01*
X57852Y-38315D01*
X57916Y-38289D01*
X57986Y-38219D01*
X58024Y-38127D01*
X58025Y-38015D01*
X57963Y-37953D01*
X57600Y-37953D01*
X57550Y-37953D01*
X57450Y-37953D01*
X57450Y-37853D01*
X57550Y-37853D01*
X57600Y-37853D01*
X57963Y-37853D01*
X58025Y-37791D01*
X58024Y-37679D01*
X57986Y-37587D01*
X57927Y-37528D01*
X57986Y-37469D01*
X58024Y-37378D01*
X58024Y-37279D01*
X58024Y-36929D01*
X57986Y-36837D01*
X57916Y-36767D01*
X57853Y-36740D01*
X57916Y-36715D01*
X57986Y-36645D01*
X58024Y-36554D01*
X58024Y-36455D01*
X58024Y-36105D01*
X57986Y-36013D01*
X57927Y-35954D01*
X57986Y-35895D01*
X58024Y-35804D01*
X58024Y-35705D01*
X58024Y-35355D01*
X57986Y-35263D01*
X57916Y-35193D01*
X57852Y-35166D01*
X57916Y-35140D01*
X57986Y-35070D01*
X58024Y-34979D01*
X58024Y-34880D01*
X58024Y-34530D01*
X57986Y-34438D01*
X57927Y-34379D01*
X57986Y-34320D01*
X58024Y-34229D01*
X58024Y-34130D01*
X58024Y-33780D01*
X57986Y-33688D01*
X57916Y-33618D01*
X57852Y-33591D01*
X57916Y-33565D01*
X57986Y-33495D01*
X58024Y-33403D01*
X58025Y-33291D01*
X57963Y-33229D01*
X57600Y-33229D01*
X57550Y-33229D01*
X57450Y-33229D01*
X57450Y-33129D01*
X57550Y-33129D01*
X57600Y-33129D01*
X57963Y-33129D01*
X58025Y-33067D01*
X58024Y-32955D01*
X57986Y-32863D01*
X57927Y-32804D01*
X57986Y-32745D01*
X58024Y-32654D01*
X58024Y-32555D01*
X58024Y-32205D01*
X57986Y-32113D01*
X57916Y-32043D01*
X57852Y-32016D01*
X57916Y-31990D01*
X57986Y-31920D01*
X58024Y-31829D01*
X58024Y-31730D01*
X58024Y-31380D01*
X57986Y-31288D01*
X57927Y-31229D01*
X57986Y-31170D01*
X58024Y-31079D01*
X58024Y-30980D01*
X58024Y-30630D01*
X57986Y-30538D01*
X57916Y-30468D01*
X57852Y-30441D01*
X57916Y-30415D01*
X57986Y-30345D01*
X58024Y-30254D01*
X58024Y-30155D01*
X58024Y-29805D01*
X57986Y-29713D01*
X57927Y-29654D01*
X57986Y-29595D01*
X58024Y-29504D01*
X58024Y-29405D01*
X58024Y-29055D01*
X57986Y-28963D01*
X57916Y-28893D01*
X57825Y-28855D01*
X57726Y-28855D01*
X57176Y-28855D01*
X57084Y-28893D01*
X57014Y-28963D01*
X56976Y-29054D01*
X56976Y-29153D01*
X56976Y-29308D01*
X56774Y-29511D01*
X56698Y-29624D01*
X56671Y-29758D01*
X56671Y-33525D01*
X56698Y-33659D01*
X56774Y-33772D01*
X56976Y-33974D01*
X56976Y-34033D01*
X56723Y-34287D01*
X56647Y-34400D01*
X56620Y-34534D01*
X56620Y-38198D01*
X56647Y-38332D01*
X56723Y-38445D01*
X56874Y-38597D01*
X56875Y-38597D01*
X56919Y-38627D01*
X56976Y-38664D01*
X56976Y-38757D01*
X56775Y-38959D01*
X56699Y-39072D01*
X56672Y-39206D01*
X56672Y-39733D01*
X49483Y-39733D01*
X49473Y-39723D01*
X49317Y-39658D01*
X49148Y-39658D01*
X48992Y-39722D01*
X48872Y-39842D01*
X48807Y-39998D01*
X48807Y-40167D01*
X48871Y-40323D01*
X48991Y-40443D01*
X49147Y-40508D01*
X49316Y-40508D01*
X49472Y-40444D01*
X49483Y-40433D01*
X56672Y-40433D01*
X56672Y-43453D01*
X56672Y-47699D01*
X56699Y-47833D01*
X56775Y-47946D01*
X56874Y-48046D01*
X56875Y-48046D01*
X56976Y-48114D01*
X56976Y-48401D01*
X57014Y-48493D01*
X57073Y-48552D01*
X57014Y-48611D01*
X56976Y-48702D01*
X56976Y-48801D01*
X56976Y-49151D01*
X57014Y-49243D01*
X57084Y-49313D01*
X57147Y-49339D01*
X57084Y-49366D01*
X57014Y-49436D01*
X56976Y-49527D01*
X56976Y-49626D01*
X56976Y-49976D01*
X57014Y-50068D01*
X57073Y-50127D01*
X57014Y-50186D01*
X56976Y-50277D01*
X56976Y-50376D01*
X56976Y-50726D01*
X57014Y-50818D01*
X57084Y-50888D01*
X57147Y-50914D01*
X57084Y-50941D01*
X57014Y-51011D01*
X56976Y-51102D01*
X56976Y-51201D01*
X56976Y-51551D01*
X57014Y-51643D01*
X57073Y-51702D01*
X57014Y-51761D01*
X56976Y-51853D01*
X56975Y-51965D01*
X57037Y-52027D01*
X57400Y-52027D01*
X57450Y-52027D01*
X57550Y-52027D01*
X57600Y-52027D01*
X57963Y-52027D01*
X58025Y-51965D01*
X58025Y-52125D01*
X48508Y-52125D01*
X48508Y-34089D01*
X48508Y-33920D01*
X48444Y-33764D01*
X48433Y-33753D01*
X48433Y-29862D01*
X48406Y-29728D01*
X48330Y-29615D01*
X48330Y-29614D01*
X48024Y-29308D01*
X48024Y-29055D01*
X47986Y-28963D01*
X47916Y-28893D01*
X47825Y-28855D01*
X47726Y-28855D01*
X47176Y-28855D01*
X47084Y-28893D01*
X47014Y-28963D01*
X46976Y-29054D01*
X46976Y-29153D01*
X46976Y-29503D01*
X47014Y-29595D01*
X47073Y-29654D01*
X47014Y-29713D01*
X46976Y-29804D01*
X46976Y-29903D01*
X46976Y-30253D01*
X47014Y-30345D01*
X47084Y-30415D01*
X47147Y-30441D01*
X47084Y-30468D01*
X47014Y-30538D01*
X46976Y-30629D01*
X46976Y-30728D01*
X46976Y-31078D01*
X47014Y-31170D01*
X47073Y-31229D01*
X47014Y-31288D01*
X46976Y-31379D01*
X46976Y-31478D01*
X46976Y-31828D01*
X47014Y-31920D01*
X47084Y-31990D01*
X47147Y-32016D01*
X47084Y-32043D01*
X47014Y-32113D01*
X46976Y-32204D01*
X46976Y-32303D01*
X46976Y-32653D01*
X47014Y-32745D01*
X47073Y-32804D01*
X47014Y-32863D01*
X46976Y-32955D01*
X46975Y-33067D01*
X47037Y-33129D01*
X47400Y-33129D01*
X47450Y-33129D01*
X47550Y-33129D01*
X47550Y-33229D01*
X47450Y-33229D01*
X47400Y-33229D01*
X47037Y-33229D01*
X46975Y-33291D01*
X46976Y-33403D01*
X47014Y-33495D01*
X47084Y-33565D01*
X47147Y-33591D01*
X47084Y-33618D01*
X47014Y-33688D01*
X46976Y-33779D01*
X46976Y-33878D01*
X46976Y-34228D01*
X47014Y-34320D01*
X47073Y-34379D01*
X47014Y-34438D01*
X46976Y-34529D01*
X46976Y-34628D01*
X46976Y-34978D01*
X47014Y-35070D01*
X47084Y-35140D01*
X47147Y-35166D01*
X47084Y-35193D01*
X47014Y-35263D01*
X46976Y-35354D01*
X46976Y-35453D01*
X46976Y-35803D01*
X47014Y-35895D01*
X47073Y-35954D01*
X47014Y-36013D01*
X46976Y-36104D01*
X46976Y-36203D01*
X46976Y-36553D01*
X47014Y-36645D01*
X47084Y-36715D01*
X47146Y-36741D01*
X47084Y-36767D01*
X47014Y-36837D01*
X46976Y-36928D01*
X46976Y-37027D01*
X46976Y-37377D01*
X47014Y-37469D01*
X47073Y-37528D01*
X47014Y-37587D01*
X46976Y-37679D01*
X46975Y-37791D01*
X47037Y-37853D01*
X47400Y-37853D01*
X47450Y-37853D01*
X47550Y-37853D01*
X47600Y-37853D01*
X47963Y-37853D01*
X48025Y-37791D01*
X48024Y-37679D01*
X47986Y-37587D01*
X47927Y-37528D01*
X47986Y-37469D01*
X48024Y-37378D01*
X48024Y-37279D01*
X48024Y-36929D01*
X47986Y-36837D01*
X47916Y-36767D01*
X47853Y-36740D01*
X47916Y-36715D01*
X47986Y-36645D01*
X48024Y-36554D01*
X48024Y-36455D01*
X48024Y-36105D01*
X47986Y-36013D01*
X47927Y-35954D01*
X47986Y-35895D01*
X48024Y-35804D01*
X48024Y-35705D01*
X48024Y-35355D01*
X47986Y-35263D01*
X47916Y-35193D01*
X47852Y-35166D01*
X47916Y-35140D01*
X47986Y-35070D01*
X48024Y-34979D01*
X48024Y-34880D01*
X48024Y-34530D01*
X47986Y-34438D01*
X47962Y-34414D01*
X47998Y-34429D01*
X48167Y-34429D01*
X48323Y-34365D01*
X48443Y-34245D01*
X48508Y-34089D01*
X48508Y-52125D01*
X48025Y-52125D01*
X48025Y-51965D01*
X48024Y-51853D01*
X47986Y-51761D01*
X47927Y-51702D01*
X47986Y-51643D01*
X48024Y-51552D01*
X48024Y-51453D01*
X48024Y-51103D01*
X47986Y-51011D01*
X47916Y-50941D01*
X47852Y-50914D01*
X47916Y-50888D01*
X47986Y-50818D01*
X48024Y-50727D01*
X48024Y-50628D01*
X48024Y-50278D01*
X47986Y-50186D01*
X47927Y-50127D01*
X47986Y-50068D01*
X48024Y-49977D01*
X48024Y-49878D01*
X48024Y-49528D01*
X47986Y-49436D01*
X47916Y-49366D01*
X47852Y-49339D01*
X47916Y-49313D01*
X47986Y-49243D01*
X48024Y-49152D01*
X48024Y-49053D01*
X48024Y-48703D01*
X47986Y-48611D01*
X47927Y-48552D01*
X47986Y-48493D01*
X48024Y-48402D01*
X48024Y-48303D01*
X48024Y-47953D01*
X47986Y-47861D01*
X47916Y-47791D01*
X47852Y-47764D01*
X47916Y-47738D01*
X47986Y-47668D01*
X48024Y-47576D01*
X48025Y-47464D01*
X47963Y-47402D01*
X47600Y-47402D01*
X47550Y-47402D01*
X47450Y-47402D01*
X47450Y-47302D01*
X47550Y-47302D01*
X47600Y-47302D01*
X47963Y-47302D01*
X48025Y-47240D01*
X48024Y-47128D01*
X47986Y-47036D01*
X47927Y-46977D01*
X47986Y-46918D01*
X48024Y-46827D01*
X48024Y-46728D01*
X48024Y-46378D01*
X47986Y-46286D01*
X47916Y-46216D01*
X47852Y-46189D01*
X47916Y-46163D01*
X47986Y-46093D01*
X48024Y-46002D01*
X48024Y-45903D01*
X48024Y-45553D01*
X47986Y-45461D01*
X47927Y-45402D01*
X47986Y-45343D01*
X48024Y-45252D01*
X48024Y-45153D01*
X48024Y-44803D01*
X47986Y-44711D01*
X47916Y-44641D01*
X47853Y-44614D01*
X47916Y-44589D01*
X47986Y-44519D01*
X48024Y-44428D01*
X48024Y-44329D01*
X48024Y-43979D01*
X47986Y-43887D01*
X47927Y-43828D01*
X47986Y-43769D01*
X48024Y-43678D01*
X48024Y-43579D01*
X48024Y-43229D01*
X47986Y-43137D01*
X47916Y-43067D01*
X47852Y-43040D01*
X47916Y-43014D01*
X47986Y-42944D01*
X48024Y-42852D01*
X48025Y-42740D01*
X47963Y-42678D01*
X47600Y-42678D01*
X47550Y-42678D01*
X47450Y-42678D01*
X47450Y-42578D01*
X47550Y-42578D01*
X47600Y-42578D01*
X47963Y-42578D01*
X48025Y-42516D01*
X48024Y-42404D01*
X47986Y-42312D01*
X47927Y-42253D01*
X47986Y-42194D01*
X48024Y-42103D01*
X48024Y-42004D01*
X48024Y-41654D01*
X47986Y-41562D01*
X47916Y-41492D01*
X47852Y-41465D01*
X47916Y-41439D01*
X47986Y-41369D01*
X48024Y-41278D01*
X48024Y-41179D01*
X48024Y-40829D01*
X47986Y-40737D01*
X47927Y-40678D01*
X47986Y-40619D01*
X48024Y-40528D01*
X48024Y-40429D01*
X48024Y-40079D01*
X47986Y-39987D01*
X47916Y-39917D01*
X47852Y-39890D01*
X47916Y-39864D01*
X47986Y-39794D01*
X48024Y-39703D01*
X48024Y-39604D01*
X48024Y-39254D01*
X47986Y-39162D01*
X47927Y-39103D01*
X47986Y-39044D01*
X48024Y-38953D01*
X48024Y-38854D01*
X48024Y-38504D01*
X47986Y-38412D01*
X47916Y-38342D01*
X47852Y-38315D01*
X47916Y-38289D01*
X47986Y-38219D01*
X48024Y-38127D01*
X48025Y-38015D01*
X47963Y-37953D01*
X47600Y-37953D01*
X47550Y-37953D01*
X47450Y-37953D01*
X47400Y-37953D01*
X47037Y-37953D01*
X46975Y-38015D01*
X46976Y-38127D01*
X46996Y-38177D01*
X46750Y-37930D01*
X46750Y-37916D01*
X46686Y-37760D01*
X46566Y-37640D01*
X46410Y-37575D01*
X46241Y-37575D01*
X46085Y-37639D01*
X46074Y-37650D01*
X39399Y-37650D01*
X39399Y-37551D01*
X39361Y-37459D01*
X39291Y-37389D01*
X39200Y-37351D01*
X39101Y-37351D01*
X38501Y-37351D01*
X38409Y-37389D01*
X38339Y-37459D01*
X38301Y-37550D01*
X38301Y-37649D01*
X38301Y-38449D01*
X38339Y-38541D01*
X38409Y-38611D01*
X38500Y-38649D01*
X38599Y-38649D01*
X39199Y-38649D01*
X39291Y-38611D01*
X39361Y-38541D01*
X39399Y-38450D01*
X39399Y-38351D01*
X39399Y-38350D01*
X46074Y-38350D01*
X46084Y-38360D01*
X46240Y-38425D01*
X46255Y-38425D01*
X46672Y-38841D01*
X46672Y-38962D01*
X46524Y-38962D01*
X46368Y-39026D01*
X46357Y-39037D01*
X39466Y-39037D01*
X39398Y-39050D01*
X39361Y-38959D01*
X39291Y-38889D01*
X39200Y-38851D01*
X39101Y-38851D01*
X38501Y-38851D01*
X38409Y-38889D01*
X38339Y-38959D01*
X38301Y-39050D01*
X38301Y-39149D01*
X38301Y-39949D01*
X38339Y-40041D01*
X38409Y-40111D01*
X38500Y-40149D01*
X38599Y-40149D01*
X39199Y-40149D01*
X39291Y-40111D01*
X39361Y-40041D01*
X39399Y-39950D01*
X39399Y-39851D01*
X39399Y-39840D01*
X39487Y-39823D01*
X39600Y-39747D01*
X39610Y-39737D01*
X46357Y-39737D01*
X46367Y-39747D01*
X46523Y-39812D01*
X46672Y-39812D01*
X46672Y-40317D01*
X46536Y-40317D01*
X46380Y-40381D01*
X46369Y-40392D01*
X39611Y-40392D01*
X39477Y-40419D01*
X39373Y-40488D01*
X39361Y-40459D01*
X39291Y-40389D01*
X39200Y-40351D01*
X39101Y-40351D01*
X38501Y-40351D01*
X38409Y-40389D01*
X38339Y-40459D01*
X38301Y-40550D01*
X38301Y-40649D01*
X38301Y-41449D01*
X38339Y-41541D01*
X38409Y-41611D01*
X38500Y-41649D01*
X38599Y-41649D01*
X39199Y-41649D01*
X39291Y-41611D01*
X39361Y-41541D01*
X39399Y-41450D01*
X39399Y-41351D01*
X39399Y-41340D01*
X39487Y-41323D01*
X39600Y-41247D01*
X39755Y-41092D01*
X46369Y-41092D01*
X46379Y-41102D01*
X46535Y-41167D01*
X46672Y-41167D01*
X46672Y-41672D01*
X46540Y-41672D01*
X46384Y-41736D01*
X46373Y-41747D01*
X39756Y-41747D01*
X39622Y-41774D01*
X39553Y-41819D01*
X39508Y-41850D01*
X39372Y-41986D01*
X39361Y-41959D01*
X39291Y-41889D01*
X39200Y-41851D01*
X39101Y-41851D01*
X38501Y-41851D01*
X38409Y-41889D01*
X38339Y-41959D01*
X38301Y-42050D01*
X38301Y-42149D01*
X38301Y-42949D01*
X38339Y-43041D01*
X38409Y-43111D01*
X38500Y-43149D01*
X38599Y-43149D01*
X39199Y-43149D01*
X39291Y-43111D01*
X39361Y-43041D01*
X39399Y-42950D01*
X39399Y-42851D01*
X39399Y-42840D01*
X39487Y-42823D01*
X39600Y-42747D01*
X39900Y-42447D01*
X46373Y-42447D01*
X46383Y-42457D01*
X46539Y-42522D01*
X46672Y-42522D01*
X46672Y-42975D01*
X46699Y-43109D01*
X46706Y-43120D01*
X46670Y-43136D01*
X46659Y-43147D01*
X39906Y-43147D01*
X39772Y-43174D01*
X39658Y-43250D01*
X39372Y-43536D01*
X39361Y-43509D01*
X39291Y-43439D01*
X39200Y-43401D01*
X39101Y-43401D01*
X38501Y-43401D01*
X38409Y-43439D01*
X38339Y-43509D01*
X38301Y-43600D01*
X38301Y-43699D01*
X38301Y-44499D01*
X38339Y-44591D01*
X38409Y-44661D01*
X38500Y-44699D01*
X38599Y-44699D01*
X39199Y-44699D01*
X39291Y-44661D01*
X39361Y-44591D01*
X39399Y-44500D01*
X39399Y-44401D01*
X39399Y-44390D01*
X39487Y-44373D01*
X39600Y-44297D01*
X40050Y-43847D01*
X46659Y-43847D01*
X46669Y-43857D01*
X46684Y-43863D01*
X46671Y-43932D01*
X46671Y-47698D01*
X46698Y-47832D01*
X46774Y-47945D01*
X46874Y-48046D01*
X46875Y-48046D01*
X46976Y-48114D01*
X46976Y-48401D01*
X47014Y-48493D01*
X47073Y-48552D01*
X47014Y-48611D01*
X46976Y-48702D01*
X46976Y-48801D01*
X46976Y-49151D01*
X47014Y-49243D01*
X47084Y-49313D01*
X47147Y-49339D01*
X47084Y-49366D01*
X47014Y-49436D01*
X46976Y-49527D01*
X46976Y-49626D01*
X46976Y-49976D01*
X47014Y-50068D01*
X47073Y-50127D01*
X47014Y-50186D01*
X46976Y-50277D01*
X46976Y-50376D01*
X46976Y-50726D01*
X47014Y-50818D01*
X47084Y-50888D01*
X47147Y-50914D01*
X47084Y-50941D01*
X47014Y-51011D01*
X46976Y-51102D01*
X46976Y-51201D01*
X46976Y-51551D01*
X47014Y-51643D01*
X47073Y-51702D01*
X47014Y-51761D01*
X46976Y-51853D01*
X46975Y-51965D01*
X47037Y-52027D01*
X47400Y-52027D01*
X47450Y-52027D01*
X47550Y-52027D01*
X47600Y-52027D01*
X47963Y-52027D01*
X48025Y-51965D01*
X48025Y-52125D01*
X44324Y-52125D01*
X44479Y-51971D01*
X44619Y-51634D01*
X44619Y-51268D01*
X44479Y-50930D01*
X44221Y-50671D01*
X43884Y-50531D01*
X43518Y-50531D01*
X43180Y-50671D01*
X42921Y-50929D01*
X42781Y-51266D01*
X42781Y-51632D01*
X42921Y-51970D01*
X43075Y-52125D01*
X38099Y-52125D01*
X38099Y-44500D01*
X38099Y-44401D01*
X38099Y-43601D01*
X38061Y-43509D01*
X37991Y-43439D01*
X37900Y-43401D01*
X37900Y-43148D01*
X37991Y-43111D01*
X38061Y-43041D01*
X38099Y-42950D01*
X38099Y-42851D01*
X38099Y-42051D01*
X38061Y-41959D01*
X37991Y-41889D01*
X37900Y-41851D01*
X37900Y-41648D01*
X37991Y-41611D01*
X38061Y-41541D01*
X38099Y-41450D01*
X38099Y-41351D01*
X38099Y-40551D01*
X38061Y-40459D01*
X37991Y-40389D01*
X37900Y-40351D01*
X37900Y-40148D01*
X37991Y-40111D01*
X38061Y-40041D01*
X38099Y-39950D01*
X38099Y-39851D01*
X38099Y-39051D01*
X38061Y-38959D01*
X37991Y-38889D01*
X37900Y-38851D01*
X37900Y-38648D01*
X37991Y-38611D01*
X38061Y-38541D01*
X38099Y-38450D01*
X38099Y-38351D01*
X38099Y-37551D01*
X38061Y-37459D01*
X37991Y-37389D01*
X37900Y-37351D01*
X37801Y-37351D01*
X37201Y-37351D01*
X37109Y-37389D01*
X37039Y-37459D01*
X37001Y-37550D01*
X37001Y-37649D01*
X37001Y-37650D01*
X31254Y-37650D01*
X30606Y-37001D01*
X30836Y-37001D01*
X30928Y-36963D01*
X30998Y-36893D01*
X31036Y-36802D01*
X31036Y-36703D01*
X31037Y-36510D01*
X31037Y-36286D01*
X31036Y-36093D01*
X31036Y-35994D01*
X30998Y-35903D01*
X30978Y-35883D01*
X30978Y-33714D01*
X30978Y-33490D01*
X30977Y-33297D01*
X30977Y-33198D01*
X30939Y-33107D01*
X30869Y-33037D01*
X30777Y-32999D01*
X30604Y-32998D01*
X30542Y-33060D01*
X30542Y-33552D01*
X30916Y-33552D01*
X30978Y-33490D01*
X30978Y-33714D01*
X30916Y-33652D01*
X30542Y-33652D01*
X30542Y-34144D01*
X30604Y-34206D01*
X30777Y-34205D01*
X30869Y-34167D01*
X30939Y-34097D01*
X30977Y-34006D01*
X30977Y-33907D01*
X30978Y-33714D01*
X30978Y-35883D01*
X30928Y-35833D01*
X30836Y-35795D01*
X30604Y-35794D01*
X30542Y-35856D01*
X30542Y-36348D01*
X30975Y-36348D01*
X31037Y-36286D01*
X31037Y-36510D01*
X30975Y-36448D01*
X30592Y-36448D01*
X30542Y-36448D01*
X30442Y-36448D01*
X30442Y-36348D01*
X30442Y-36298D01*
X30442Y-35856D01*
X30442Y-34144D01*
X30442Y-33652D01*
X30442Y-33552D01*
X30442Y-33060D01*
X30380Y-32998D01*
X30207Y-32999D01*
X30115Y-33037D01*
X30045Y-33107D01*
X30007Y-33198D01*
X30007Y-33297D01*
X30006Y-33490D01*
X30068Y-33552D01*
X30442Y-33552D01*
X30442Y-33652D01*
X30068Y-33652D01*
X30006Y-33714D01*
X30007Y-33907D01*
X30007Y-34006D01*
X30045Y-34097D01*
X30115Y-34167D01*
X30207Y-34205D01*
X30380Y-34206D01*
X30442Y-34144D01*
X30442Y-35856D01*
X30380Y-35794D01*
X30148Y-35795D01*
X30056Y-35833D01*
X30000Y-35889D01*
X29944Y-35833D01*
X29858Y-35797D01*
X29858Y-34178D01*
X29885Y-34167D01*
X29955Y-34097D01*
X29993Y-34006D01*
X29993Y-33907D01*
X29993Y-33199D01*
X29955Y-33107D01*
X29885Y-33037D01*
X29794Y-32999D01*
X29695Y-32999D01*
X29223Y-32999D01*
X29131Y-33037D01*
X29061Y-33107D01*
X29023Y-33198D01*
X29023Y-33297D01*
X29023Y-34005D01*
X29061Y-34097D01*
X29131Y-34167D01*
X29158Y-34178D01*
X29158Y-35797D01*
X29072Y-35833D01*
X29002Y-35903D01*
X28964Y-35994D01*
X28964Y-36093D01*
X28964Y-36801D01*
X29002Y-36893D01*
X29072Y-36963D01*
X29163Y-37001D01*
X29262Y-37001D01*
X29616Y-37001D01*
X30862Y-38247D01*
X30863Y-38247D01*
X30976Y-38323D01*
X31110Y-38350D01*
X37001Y-38350D01*
X37001Y-38449D01*
X37039Y-38541D01*
X37109Y-38611D01*
X37200Y-38649D01*
X37200Y-38851D01*
X37109Y-38889D01*
X37039Y-38959D01*
X37001Y-39050D01*
X37001Y-39149D01*
X37001Y-39949D01*
X37039Y-40041D01*
X37109Y-40111D01*
X37200Y-40149D01*
X37200Y-40351D01*
X37109Y-40389D01*
X37039Y-40459D01*
X37001Y-40550D01*
X37001Y-40649D01*
X37001Y-41449D01*
X37039Y-41541D01*
X37109Y-41611D01*
X37200Y-41649D01*
X37200Y-41851D01*
X37109Y-41889D01*
X37039Y-41959D01*
X37001Y-42050D01*
X37001Y-42149D01*
X37001Y-42949D01*
X37039Y-43041D01*
X37109Y-43111D01*
X37200Y-43149D01*
X37200Y-43401D01*
X37109Y-43439D01*
X37039Y-43509D01*
X37001Y-43600D01*
X37001Y-43699D01*
X37001Y-44499D01*
X37039Y-44591D01*
X37109Y-44661D01*
X37200Y-44699D01*
X37299Y-44699D01*
X37899Y-44699D01*
X37991Y-44661D01*
X38061Y-44591D01*
X38099Y-44500D01*
X38099Y-52125D01*
X26624Y-52125D01*
X26779Y-51971D01*
X26919Y-51634D01*
X26919Y-51268D01*
X26779Y-50930D01*
X26521Y-50671D01*
X26184Y-50531D01*
X25818Y-50531D01*
X25480Y-50671D01*
X25325Y-50825D01*
X25325Y-29974D01*
X25479Y-30129D01*
X25816Y-30269D01*
X26182Y-30269D01*
X26520Y-30129D01*
X26779Y-29871D01*
X26919Y-29534D01*
X26919Y-29168D01*
X26779Y-28830D01*
X26624Y-28675D01*
X43075Y-28675D01*
X42921Y-28829D01*
X42781Y-29166D01*
X42781Y-29532D01*
X42921Y-29870D01*
X43179Y-30129D01*
X43516Y-30269D01*
X43882Y-30269D01*
X44220Y-30129D01*
X44479Y-29871D01*
X44619Y-29534D01*
X44619Y-29168D01*
X44479Y-28830D01*
X44324Y-28675D01*
X93375Y-28675D01*
X93221Y-28829D01*
X93081Y-29166D01*
X93081Y-29532D01*
X93221Y-29870D01*
X93479Y-30129D01*
X93816Y-30269D01*
X94182Y-30269D01*
X94520Y-30129D01*
X94675Y-29974D01*
X94675Y-50825D01*
X94675Y-50825D01*
G37*
G54D18*
X94675Y-50825D02*
X94521Y-50671D01*
X94184Y-50531D01*
X93818Y-50531D01*
X93480Y-50671D01*
X93221Y-50929D01*
X93081Y-51266D01*
X93081Y-51632D01*
X93221Y-51970D01*
X93375Y-52125D01*
X88025Y-52125D01*
X88025Y-51965D01*
X88024Y-51853D01*
X87986Y-51761D01*
X87927Y-51702D01*
X87986Y-51643D01*
X88024Y-51552D01*
X88024Y-51453D01*
X88024Y-51103D01*
X87986Y-51011D01*
X87916Y-50941D01*
X87852Y-50914D01*
X87916Y-50888D01*
X87986Y-50818D01*
X88024Y-50727D01*
X88024Y-50628D01*
X88024Y-50278D01*
X87986Y-50186D01*
X87927Y-50127D01*
X87986Y-50068D01*
X88024Y-49977D01*
X88024Y-49878D01*
X88024Y-49528D01*
X87986Y-49436D01*
X87916Y-49366D01*
X87852Y-49339D01*
X87916Y-49313D01*
X87986Y-49243D01*
X88024Y-49152D01*
X88024Y-49053D01*
X88024Y-48703D01*
X87986Y-48611D01*
X87927Y-48552D01*
X87986Y-48493D01*
X88024Y-48402D01*
X88024Y-48303D01*
X88024Y-47953D01*
X87986Y-47861D01*
X87916Y-47791D01*
X87852Y-47764D01*
X87916Y-47738D01*
X87986Y-47668D01*
X88024Y-47576D01*
X88025Y-47464D01*
X87963Y-47402D01*
X87600Y-47402D01*
X87550Y-47402D01*
X87450Y-47402D01*
X87450Y-47302D01*
X87550Y-47302D01*
X87600Y-47302D01*
X87963Y-47302D01*
X88025Y-47240D01*
X88024Y-47128D01*
X87986Y-47036D01*
X87927Y-46977D01*
X87986Y-46918D01*
X88024Y-46827D01*
X88024Y-46728D01*
X88024Y-46378D01*
X87986Y-46286D01*
X87916Y-46216D01*
X87852Y-46189D01*
X87916Y-46163D01*
X87986Y-46093D01*
X88024Y-46002D01*
X88024Y-45903D01*
X88024Y-45553D01*
X87986Y-45461D01*
X87927Y-45402D01*
X87986Y-45343D01*
X88024Y-45252D01*
X88024Y-45153D01*
X88024Y-44803D01*
X87986Y-44711D01*
X87916Y-44641D01*
X87853Y-44614D01*
X87916Y-44589D01*
X87986Y-44519D01*
X88024Y-44428D01*
X88024Y-44329D01*
X88024Y-43979D01*
X87986Y-43887D01*
X87927Y-43828D01*
X87986Y-43769D01*
X88024Y-43678D01*
X88024Y-43579D01*
X88024Y-43229D01*
X87986Y-43137D01*
X87916Y-43067D01*
X87852Y-43040D01*
X87916Y-43014D01*
X87986Y-42944D01*
X88024Y-42852D01*
X88025Y-42740D01*
X87963Y-42678D01*
X87600Y-42678D01*
X87550Y-42678D01*
X87450Y-42678D01*
X87450Y-42578D01*
X87550Y-42578D01*
X87600Y-42578D01*
X87963Y-42578D01*
X88025Y-42516D01*
X88024Y-42404D01*
X87986Y-42312D01*
X87927Y-42253D01*
X87986Y-42194D01*
X88024Y-42103D01*
X88024Y-42004D01*
X88024Y-41654D01*
X87986Y-41562D01*
X87916Y-41492D01*
X87852Y-41465D01*
X87916Y-41439D01*
X87986Y-41369D01*
X88024Y-41278D01*
X88024Y-41179D01*
X88024Y-40829D01*
X87986Y-40737D01*
X87927Y-40678D01*
X87986Y-40619D01*
X88024Y-40528D01*
X88024Y-40429D01*
X88024Y-40079D01*
X87986Y-39987D01*
X87916Y-39917D01*
X87852Y-39890D01*
X87916Y-39864D01*
X87986Y-39794D01*
X88024Y-39703D01*
X88024Y-39604D01*
X88024Y-39254D01*
X87986Y-39162D01*
X87927Y-39103D01*
X87986Y-39044D01*
X88024Y-38953D01*
X88024Y-38854D01*
X88024Y-38504D01*
X87986Y-38412D01*
X87916Y-38342D01*
X87852Y-38315D01*
X87916Y-38289D01*
X87986Y-38219D01*
X88024Y-38127D01*
X88025Y-38015D01*
X88025Y-37791D01*
X88024Y-37679D01*
X87986Y-37587D01*
X87927Y-37528D01*
X87986Y-37469D01*
X88024Y-37378D01*
X88024Y-37279D01*
X88024Y-36929D01*
X87986Y-36837D01*
X87916Y-36767D01*
X87853Y-36740D01*
X87916Y-36715D01*
X87986Y-36645D01*
X88024Y-36554D01*
X88024Y-36455D01*
X88024Y-36105D01*
X87986Y-36013D01*
X87927Y-35954D01*
X87986Y-35895D01*
X88024Y-35804D01*
X88024Y-35705D01*
X88024Y-35355D01*
X87986Y-35263D01*
X87916Y-35193D01*
X87852Y-35166D01*
X87916Y-35140D01*
X87986Y-35070D01*
X88024Y-34979D01*
X88024Y-34880D01*
X88024Y-34530D01*
X87986Y-34438D01*
X87927Y-34379D01*
X87986Y-34320D01*
X88024Y-34229D01*
X88024Y-34130D01*
X88024Y-33780D01*
X87986Y-33688D01*
X87916Y-33618D01*
X87852Y-33591D01*
X87916Y-33565D01*
X87986Y-33495D01*
X88024Y-33403D01*
X88025Y-33291D01*
X87963Y-33229D01*
X87600Y-33229D01*
X87550Y-33229D01*
X87450Y-33229D01*
X87450Y-33129D01*
X87550Y-33129D01*
X87600Y-33129D01*
X87963Y-33129D01*
X88025Y-33067D01*
X88024Y-32955D01*
X87986Y-32863D01*
X87927Y-32804D01*
X87986Y-32745D01*
X88024Y-32654D01*
X88024Y-32555D01*
X88024Y-32205D01*
X87986Y-32113D01*
X87916Y-32043D01*
X87852Y-32016D01*
X87916Y-31990D01*
X87986Y-31920D01*
X88024Y-31829D01*
X88024Y-31730D01*
X88024Y-31380D01*
X87986Y-31288D01*
X87927Y-31229D01*
X87986Y-31170D01*
X88024Y-31079D01*
X88024Y-30980D01*
X88024Y-30630D01*
X87986Y-30538D01*
X87916Y-30468D01*
X87852Y-30441D01*
X87916Y-30415D01*
X87986Y-30345D01*
X88024Y-30254D01*
X88024Y-30155D01*
X88024Y-29805D01*
X87986Y-29713D01*
X87927Y-29654D01*
X87986Y-29595D01*
X88024Y-29504D01*
X88024Y-29405D01*
X88024Y-29055D01*
X87986Y-28963D01*
X87916Y-28893D01*
X87825Y-28855D01*
X87726Y-28855D01*
X87176Y-28855D01*
X87084Y-28893D01*
X87014Y-28963D01*
X86976Y-29054D01*
X86976Y-29153D01*
X86976Y-29309D01*
X86676Y-29609D01*
X86600Y-29722D01*
X86573Y-29856D01*
X86573Y-33654D01*
X85771Y-33654D01*
X85761Y-33644D01*
X85605Y-33579D01*
X85436Y-33579D01*
X85280Y-33643D01*
X85160Y-33763D01*
X85095Y-33919D01*
X85095Y-34088D01*
X85159Y-34244D01*
X85279Y-34364D01*
X85435Y-34429D01*
X85604Y-34429D01*
X85760Y-34365D01*
X85771Y-34354D01*
X86923Y-34354D01*
X87048Y-34354D01*
X87073Y-34379D01*
X87014Y-34438D01*
X86976Y-34529D01*
X86976Y-34628D01*
X86976Y-34978D01*
X87014Y-35070D01*
X87084Y-35140D01*
X87147Y-35166D01*
X87084Y-35193D01*
X87014Y-35263D01*
X86976Y-35354D01*
X86976Y-35453D01*
X86976Y-35803D01*
X87014Y-35895D01*
X87073Y-35954D01*
X87014Y-36013D01*
X86976Y-36104D01*
X86976Y-36203D01*
X86976Y-36553D01*
X87014Y-36645D01*
X87084Y-36715D01*
X87146Y-36741D01*
X87084Y-36767D01*
X87014Y-36837D01*
X86976Y-36928D01*
X86976Y-37027D01*
X86976Y-37377D01*
X87014Y-37469D01*
X87073Y-37528D01*
X87014Y-37587D01*
X86976Y-37679D01*
X86975Y-37791D01*
X87037Y-37853D01*
X87400Y-37853D01*
X87450Y-37853D01*
X87550Y-37853D01*
X87600Y-37853D01*
X87963Y-37853D01*
X88025Y-37791D01*
X88025Y-38015D01*
X87963Y-37953D01*
X87600Y-37953D01*
X87550Y-37953D01*
X87450Y-37953D01*
X87400Y-37953D01*
X87037Y-37953D01*
X86975Y-38015D01*
X86976Y-38127D01*
X87014Y-38219D01*
X87084Y-38289D01*
X87147Y-38315D01*
X87084Y-38342D01*
X87014Y-38412D01*
X86976Y-38503D01*
X86976Y-38602D01*
X86976Y-38757D01*
X86774Y-38960D01*
X86698Y-39073D01*
X86671Y-39207D01*
X86671Y-40763D01*
X85195Y-40763D01*
X85185Y-40753D01*
X85029Y-40688D01*
X84860Y-40688D01*
X84704Y-40752D01*
X84584Y-40872D01*
X84519Y-41028D01*
X84519Y-41197D01*
X84583Y-41353D01*
X84703Y-41473D01*
X84859Y-41538D01*
X85028Y-41538D01*
X85184Y-41474D01*
X85195Y-41463D01*
X86671Y-41463D01*
X86671Y-42974D01*
X86698Y-43108D01*
X86774Y-43221D01*
X86874Y-43322D01*
X86875Y-43322D01*
X86976Y-43390D01*
X86976Y-43482D01*
X86774Y-43685D01*
X86698Y-43798D01*
X86671Y-43932D01*
X86671Y-47698D01*
X86698Y-47832D01*
X86774Y-47945D01*
X86874Y-48046D01*
X86875Y-48046D01*
X86976Y-48114D01*
X86976Y-48401D01*
X87014Y-48493D01*
X87073Y-48552D01*
X87014Y-48611D01*
X86976Y-48702D01*
X86976Y-48801D01*
X86976Y-49151D01*
X87014Y-49243D01*
X87084Y-49313D01*
X87147Y-49339D01*
X87084Y-49366D01*
X87014Y-49436D01*
X86976Y-49527D01*
X86976Y-49626D01*
X86976Y-49976D01*
X87014Y-50068D01*
X87073Y-50127D01*
X87014Y-50186D01*
X86976Y-50277D01*
X86976Y-50376D01*
X86976Y-50726D01*
X87014Y-50818D01*
X87084Y-50888D01*
X87147Y-50914D01*
X87084Y-50941D01*
X87014Y-51011D01*
X86976Y-51102D01*
X86976Y-51201D01*
X86976Y-51551D01*
X87014Y-51643D01*
X87073Y-51702D01*
X87014Y-51761D01*
X86976Y-51853D01*
X86975Y-51965D01*
X87037Y-52027D01*
X87400Y-52027D01*
X87450Y-52027D01*
X87550Y-52027D01*
X87600Y-52027D01*
X87963Y-52027D01*
X88025Y-51965D01*
X88025Y-52125D01*
X78352Y-52125D01*
X78352Y-33454D01*
X78352Y-29781D01*
X78351Y-29780D01*
X78325Y-29647D01*
X78279Y-29578D01*
X78249Y-29534D01*
X78249Y-29533D01*
X78024Y-29308D01*
X78024Y-29055D01*
X77986Y-28963D01*
X77916Y-28893D01*
X77825Y-28855D01*
X77726Y-28855D01*
X77176Y-28855D01*
X77084Y-28893D01*
X77014Y-28963D01*
X76976Y-29054D01*
X76976Y-29153D01*
X76976Y-29503D01*
X77014Y-29595D01*
X77073Y-29654D01*
X77014Y-29713D01*
X76976Y-29804D01*
X76976Y-29903D01*
X76976Y-30253D01*
X77014Y-30345D01*
X77084Y-30415D01*
X77147Y-30441D01*
X77084Y-30468D01*
X77014Y-30538D01*
X76976Y-30629D01*
X76976Y-30728D01*
X76976Y-31078D01*
X77014Y-31170D01*
X77073Y-31229D01*
X77014Y-31288D01*
X76976Y-31379D01*
X76976Y-31478D01*
X76976Y-31828D01*
X77014Y-31920D01*
X77084Y-31990D01*
X77147Y-32016D01*
X77084Y-32043D01*
X77014Y-32113D01*
X76976Y-32204D01*
X76976Y-32303D01*
X76976Y-32653D01*
X77014Y-32745D01*
X77073Y-32804D01*
X77014Y-32863D01*
X76976Y-32955D01*
X76975Y-33067D01*
X77037Y-33129D01*
X77400Y-33129D01*
X77450Y-33129D01*
X77550Y-33129D01*
X77550Y-33229D01*
X77450Y-33229D01*
X77400Y-33229D01*
X77037Y-33229D01*
X76975Y-33291D01*
X76976Y-33403D01*
X77014Y-33495D01*
X77084Y-33565D01*
X77147Y-33591D01*
X77084Y-33618D01*
X77014Y-33688D01*
X76976Y-33779D01*
X76976Y-33878D01*
X76976Y-33985D01*
X76737Y-34225D01*
X76661Y-34338D01*
X76634Y-34472D01*
X76634Y-38545D01*
X75692Y-39487D01*
X73212Y-39487D01*
X73202Y-39477D01*
X73046Y-39412D01*
X72877Y-39412D01*
X72721Y-39476D01*
X72601Y-39596D01*
X72536Y-39752D01*
X72536Y-39921D01*
X72600Y-40077D01*
X72720Y-40197D01*
X72876Y-40262D01*
X73045Y-40262D01*
X73201Y-40198D01*
X73212Y-40187D01*
X75837Y-40187D01*
X75837Y-40186D01*
X75971Y-40160D01*
X76084Y-40084D01*
X77069Y-39099D01*
X77073Y-39103D01*
X77014Y-39162D01*
X76976Y-39253D01*
X76976Y-39352D01*
X76976Y-39702D01*
X77014Y-39794D01*
X77084Y-39864D01*
X77147Y-39890D01*
X77084Y-39917D01*
X77014Y-39987D01*
X76976Y-40078D01*
X76976Y-40177D01*
X76976Y-40527D01*
X77014Y-40619D01*
X77073Y-40678D01*
X77014Y-40737D01*
X76976Y-40828D01*
X76976Y-40927D01*
X76976Y-41277D01*
X77014Y-41369D01*
X77084Y-41439D01*
X77147Y-41465D01*
X77084Y-41492D01*
X77014Y-41562D01*
X76976Y-41653D01*
X76976Y-41752D01*
X76976Y-42102D01*
X77014Y-42194D01*
X77073Y-42253D01*
X77014Y-42312D01*
X76976Y-42404D01*
X76975Y-42516D01*
X77037Y-42578D01*
X77400Y-42578D01*
X77450Y-42578D01*
X77550Y-42578D01*
X77550Y-42678D01*
X77450Y-42678D01*
X77400Y-42678D01*
X77037Y-42678D01*
X76975Y-42740D01*
X76976Y-42852D01*
X77014Y-42944D01*
X77084Y-43014D01*
X77147Y-43040D01*
X77084Y-43067D01*
X77014Y-43137D01*
X76976Y-43228D01*
X76976Y-43327D01*
X76976Y-43677D01*
X77014Y-43769D01*
X77073Y-43828D01*
X77014Y-43887D01*
X76976Y-43978D01*
X76976Y-44077D01*
X76976Y-44427D01*
X77014Y-44519D01*
X77084Y-44589D01*
X77146Y-44615D01*
X77084Y-44641D01*
X77014Y-44711D01*
X76976Y-44802D01*
X76976Y-44901D01*
X76976Y-45251D01*
X77014Y-45343D01*
X77073Y-45402D01*
X77014Y-45461D01*
X76976Y-45552D01*
X76976Y-45651D01*
X76976Y-46001D01*
X77014Y-46093D01*
X77084Y-46163D01*
X77147Y-46189D01*
X77084Y-46216D01*
X77014Y-46286D01*
X76976Y-46377D01*
X76976Y-46476D01*
X76976Y-46826D01*
X77014Y-46918D01*
X77073Y-46977D01*
X77014Y-47036D01*
X76976Y-47128D01*
X76975Y-47240D01*
X77037Y-47302D01*
X77400Y-47302D01*
X77450Y-47302D01*
X77550Y-47302D01*
X77550Y-47402D01*
X77450Y-47402D01*
X77400Y-47402D01*
X77037Y-47402D01*
X76975Y-47464D01*
X76976Y-47576D01*
X77014Y-47668D01*
X77084Y-47738D01*
X77147Y-47764D01*
X77084Y-47791D01*
X77014Y-47861D01*
X76976Y-47952D01*
X76976Y-48051D01*
X76976Y-48401D01*
X77014Y-48493D01*
X77073Y-48552D01*
X77014Y-48611D01*
X76976Y-48702D01*
X76976Y-48801D01*
X76976Y-49151D01*
X77014Y-49243D01*
X77084Y-49313D01*
X77147Y-49339D01*
X77084Y-49366D01*
X77014Y-49436D01*
X76976Y-49527D01*
X76976Y-49626D01*
X76976Y-49976D01*
X77014Y-50068D01*
X77073Y-50127D01*
X77014Y-50186D01*
X76976Y-50277D01*
X76976Y-50376D01*
X76976Y-50726D01*
X77014Y-50818D01*
X77084Y-50888D01*
X77147Y-50914D01*
X77084Y-50941D01*
X77014Y-51011D01*
X76976Y-51102D01*
X76976Y-51201D01*
X76976Y-51551D01*
X77014Y-51643D01*
X77073Y-51702D01*
X77014Y-51761D01*
X76976Y-51853D01*
X76975Y-51965D01*
X77037Y-52027D01*
X77400Y-52027D01*
X77450Y-52027D01*
X77550Y-52027D01*
X77600Y-52027D01*
X77963Y-52027D01*
X78025Y-51965D01*
X78024Y-51853D01*
X77986Y-51761D01*
X77927Y-51702D01*
X77986Y-51643D01*
X78024Y-51552D01*
X78024Y-51453D01*
X78024Y-51103D01*
X77986Y-51011D01*
X77916Y-50941D01*
X77852Y-50914D01*
X77916Y-50888D01*
X77986Y-50818D01*
X78024Y-50727D01*
X78024Y-50628D01*
X78024Y-50278D01*
X77986Y-50186D01*
X77927Y-50127D01*
X77986Y-50068D01*
X78024Y-49977D01*
X78024Y-49878D01*
X78024Y-49528D01*
X77986Y-49436D01*
X77916Y-49366D01*
X77852Y-49339D01*
X77916Y-49313D01*
X77986Y-49243D01*
X78024Y-49152D01*
X78024Y-49053D01*
X78024Y-48703D01*
X77986Y-48611D01*
X77927Y-48552D01*
X77986Y-48493D01*
X78024Y-48402D01*
X78024Y-48303D01*
X78024Y-48113D01*
X78125Y-48046D01*
X78226Y-47946D01*
X78226Y-47945D01*
X78302Y-47832D01*
X78328Y-47699D01*
X78329Y-47698D01*
X78329Y-43743D01*
X78302Y-43609D01*
X78226Y-43496D01*
X78226Y-43495D01*
X78077Y-43346D01*
X78226Y-43198D01*
X78226Y-43197D01*
X78302Y-43084D01*
X78328Y-42950D01*
X78329Y-42950D01*
X78329Y-39207D01*
X78302Y-39073D01*
X78226Y-38960D01*
X78226Y-38959D01*
X78024Y-38757D01*
X78024Y-38504D01*
X77986Y-38412D01*
X77916Y-38342D01*
X77852Y-38315D01*
X77916Y-38289D01*
X77986Y-38219D01*
X78024Y-38127D01*
X78025Y-38015D01*
X77963Y-37953D01*
X77600Y-37953D01*
X77550Y-37953D01*
X77450Y-37953D01*
X77450Y-37853D01*
X77550Y-37853D01*
X77600Y-37853D01*
X77963Y-37853D01*
X78025Y-37791D01*
X78024Y-37679D01*
X77986Y-37587D01*
X77927Y-37528D01*
X77986Y-37469D01*
X78024Y-37378D01*
X78024Y-37279D01*
X78024Y-36929D01*
X77986Y-36837D01*
X77916Y-36767D01*
X77853Y-36740D01*
X77916Y-36715D01*
X77986Y-36645D01*
X78024Y-36554D01*
X78024Y-36455D01*
X78024Y-36105D01*
X77986Y-36013D01*
X77927Y-35954D01*
X77986Y-35895D01*
X78024Y-35804D01*
X78024Y-35705D01*
X78024Y-35355D01*
X77986Y-35263D01*
X77916Y-35193D01*
X77852Y-35166D01*
X77916Y-35140D01*
X77986Y-35070D01*
X78024Y-34979D01*
X78024Y-34880D01*
X78024Y-34530D01*
X77986Y-34438D01*
X77927Y-34379D01*
X77986Y-34320D01*
X78024Y-34229D01*
X78024Y-34130D01*
X78024Y-33926D01*
X78249Y-33702D01*
X78249Y-33701D01*
X78279Y-33656D01*
X78324Y-33588D01*
X78325Y-33588D01*
X78351Y-33455D01*
X78352Y-33454D01*
X78352Y-52125D01*
X68665Y-52125D01*
X68665Y-29712D01*
X68665Y-29543D01*
X68601Y-29387D01*
X68481Y-29267D01*
X68446Y-29252D01*
X68225Y-29032D01*
X68112Y-28956D01*
X67978Y-28929D01*
X67952Y-28929D01*
X67916Y-28893D01*
X67825Y-28855D01*
X67726Y-28855D01*
X67176Y-28855D01*
X67084Y-28893D01*
X67014Y-28963D01*
X66976Y-29054D01*
X66976Y-29153D01*
X66976Y-29503D01*
X67014Y-29595D01*
X67073Y-29654D01*
X67014Y-29713D01*
X66976Y-29804D01*
X66976Y-29903D01*
X66976Y-30253D01*
X67014Y-30345D01*
X67084Y-30415D01*
X67147Y-30441D01*
X67084Y-30468D01*
X67014Y-30538D01*
X66976Y-30629D01*
X66976Y-30728D01*
X66976Y-31078D01*
X67014Y-31170D01*
X67073Y-31229D01*
X67014Y-31288D01*
X66976Y-31379D01*
X66976Y-31478D01*
X66976Y-31828D01*
X67014Y-31920D01*
X67084Y-31990D01*
X67147Y-32016D01*
X67084Y-32043D01*
X67014Y-32113D01*
X66976Y-32204D01*
X66976Y-32303D01*
X66976Y-32653D01*
X67014Y-32745D01*
X67073Y-32804D01*
X67014Y-32863D01*
X66976Y-32955D01*
X66975Y-33067D01*
X67037Y-33129D01*
X67400Y-33129D01*
X67450Y-33129D01*
X67550Y-33129D01*
X67600Y-33129D01*
X67963Y-33129D01*
X68025Y-33067D01*
X68024Y-32955D01*
X67986Y-32863D01*
X67927Y-32804D01*
X67986Y-32745D01*
X68024Y-32654D01*
X68024Y-32555D01*
X68024Y-32205D01*
X67986Y-32113D01*
X67916Y-32043D01*
X67852Y-32016D01*
X67916Y-31990D01*
X67986Y-31920D01*
X68024Y-31829D01*
X68024Y-31730D01*
X68024Y-31380D01*
X67986Y-31288D01*
X67927Y-31229D01*
X67986Y-31170D01*
X68024Y-31079D01*
X68024Y-30980D01*
X68024Y-30630D01*
X67986Y-30538D01*
X67916Y-30468D01*
X67852Y-30441D01*
X67916Y-30415D01*
X67986Y-30345D01*
X68024Y-30254D01*
X68024Y-30155D01*
X68024Y-29997D01*
X68155Y-30052D01*
X68324Y-30052D01*
X68480Y-29988D01*
X68600Y-29868D01*
X68665Y-29712D01*
X68665Y-52125D01*
X68493Y-52125D01*
X68493Y-34089D01*
X68493Y-33920D01*
X68429Y-33764D01*
X68309Y-33644D01*
X68153Y-33579D01*
X67984Y-33579D01*
X67902Y-33612D01*
X67852Y-33591D01*
X67916Y-33565D01*
X67986Y-33495D01*
X68024Y-33403D01*
X68025Y-33291D01*
X67963Y-33229D01*
X67600Y-33229D01*
X67550Y-33229D01*
X67450Y-33229D01*
X67400Y-33229D01*
X67037Y-33229D01*
X66975Y-33291D01*
X66976Y-33403D01*
X67014Y-33495D01*
X67084Y-33565D01*
X67147Y-33591D01*
X67084Y-33618D01*
X67014Y-33688D01*
X66976Y-33779D01*
X66976Y-33878D01*
X66976Y-34228D01*
X67014Y-34320D01*
X67073Y-34379D01*
X67014Y-34438D01*
X66976Y-34529D01*
X66976Y-34628D01*
X66976Y-34978D01*
X67014Y-35070D01*
X67084Y-35140D01*
X67147Y-35166D01*
X67084Y-35193D01*
X67014Y-35263D01*
X66976Y-35354D01*
X66976Y-35453D01*
X66976Y-35803D01*
X67014Y-35895D01*
X67073Y-35954D01*
X67014Y-36013D01*
X66976Y-36104D01*
X66976Y-36203D01*
X66976Y-36553D01*
X67014Y-36645D01*
X67084Y-36715D01*
X67146Y-36741D01*
X67084Y-36767D01*
X67014Y-36837D01*
X66976Y-36928D01*
X66976Y-37027D01*
X66976Y-37377D01*
X67014Y-37469D01*
X67073Y-37528D01*
X67014Y-37587D01*
X66976Y-37679D01*
X66975Y-37791D01*
X67037Y-37853D01*
X67400Y-37853D01*
X67450Y-37853D01*
X67550Y-37853D01*
X67550Y-37953D01*
X67450Y-37953D01*
X67400Y-37953D01*
X67037Y-37953D01*
X66975Y-38015D01*
X66976Y-38127D01*
X67014Y-38219D01*
X67084Y-38289D01*
X67147Y-38315D01*
X67084Y-38342D01*
X67014Y-38412D01*
X66976Y-38503D01*
X66976Y-38602D01*
X66976Y-38952D01*
X67014Y-39044D01*
X67073Y-39103D01*
X67014Y-39162D01*
X66976Y-39253D01*
X66976Y-39352D01*
X66976Y-39702D01*
X67014Y-39794D01*
X67084Y-39864D01*
X67147Y-39890D01*
X67084Y-39917D01*
X67014Y-39987D01*
X66976Y-40078D01*
X66976Y-40177D01*
X66976Y-40527D01*
X67014Y-40619D01*
X67073Y-40678D01*
X67014Y-40737D01*
X66976Y-40828D01*
X66976Y-40927D01*
X66976Y-41277D01*
X67014Y-41369D01*
X67084Y-41439D01*
X67147Y-41465D01*
X67084Y-41492D01*
X67014Y-41562D01*
X66976Y-41653D01*
X66976Y-41752D01*
X66976Y-42102D01*
X67014Y-42194D01*
X67073Y-42253D01*
X67014Y-42312D01*
X66976Y-42404D01*
X66975Y-42516D01*
X67037Y-42578D01*
X67400Y-42578D01*
X67450Y-42578D01*
X67550Y-42578D01*
X67550Y-42678D01*
X67450Y-42678D01*
X67400Y-42678D01*
X67037Y-42678D01*
X66975Y-42740D01*
X66976Y-42852D01*
X67014Y-42944D01*
X67084Y-43014D01*
X67147Y-43040D01*
X67084Y-43067D01*
X67014Y-43137D01*
X66976Y-43228D01*
X66976Y-43327D01*
X66976Y-43482D01*
X66774Y-43685D01*
X66698Y-43798D01*
X66671Y-43932D01*
X66671Y-47698D01*
X66698Y-47832D01*
X66774Y-47945D01*
X66874Y-48046D01*
X66875Y-48046D01*
X66976Y-48114D01*
X66976Y-48401D01*
X67014Y-48493D01*
X67073Y-48552D01*
X67014Y-48611D01*
X66976Y-48702D01*
X66976Y-48801D01*
X66976Y-49151D01*
X67014Y-49243D01*
X67084Y-49313D01*
X67147Y-49339D01*
X67084Y-49366D01*
X67014Y-49436D01*
X66976Y-49527D01*
X66976Y-49626D01*
X66976Y-49976D01*
X67014Y-50068D01*
X67073Y-50127D01*
X67014Y-50186D01*
X66976Y-50277D01*
X66976Y-50376D01*
X66976Y-50726D01*
X67014Y-50818D01*
X67084Y-50888D01*
X67147Y-50914D01*
X67084Y-50941D01*
X67014Y-51011D01*
X66976Y-51102D01*
X66976Y-51201D01*
X66976Y-51551D01*
X67014Y-51643D01*
X67073Y-51702D01*
X67014Y-51761D01*
X66976Y-51853D01*
X66975Y-51965D01*
X67037Y-52027D01*
X67400Y-52027D01*
X67450Y-52027D01*
X67550Y-52027D01*
X67600Y-52027D01*
X67963Y-52027D01*
X68025Y-51965D01*
X68024Y-51853D01*
X67986Y-51761D01*
X67927Y-51702D01*
X67986Y-51643D01*
X68024Y-51552D01*
X68024Y-51453D01*
X68024Y-51103D01*
X67986Y-51011D01*
X67916Y-50941D01*
X67852Y-50914D01*
X67916Y-50888D01*
X67986Y-50818D01*
X68024Y-50727D01*
X68024Y-50628D01*
X68024Y-50278D01*
X67986Y-50186D01*
X67927Y-50127D01*
X67986Y-50068D01*
X68024Y-49977D01*
X68024Y-49878D01*
X68024Y-49528D01*
X67986Y-49436D01*
X67916Y-49366D01*
X67852Y-49339D01*
X67916Y-49313D01*
X67986Y-49243D01*
X68024Y-49152D01*
X68024Y-49053D01*
X68024Y-48703D01*
X67986Y-48611D01*
X67927Y-48552D01*
X67986Y-48493D01*
X68024Y-48402D01*
X68024Y-48303D01*
X68024Y-47953D01*
X67986Y-47861D01*
X67916Y-47791D01*
X67852Y-47764D01*
X67916Y-47738D01*
X67986Y-47668D01*
X68024Y-47576D01*
X68025Y-47464D01*
X67963Y-47402D01*
X67600Y-47402D01*
X67550Y-47402D01*
X67450Y-47402D01*
X67450Y-47302D01*
X67550Y-47302D01*
X67600Y-47302D01*
X67963Y-47302D01*
X68025Y-47240D01*
X68024Y-47128D01*
X67986Y-47036D01*
X67927Y-46977D01*
X67986Y-46918D01*
X68024Y-46827D01*
X68024Y-46728D01*
X68024Y-46378D01*
X67986Y-46286D01*
X67916Y-46216D01*
X67852Y-46189D01*
X67916Y-46163D01*
X67986Y-46093D01*
X68024Y-46002D01*
X68024Y-45903D01*
X68024Y-45553D01*
X67986Y-45461D01*
X67927Y-45402D01*
X67986Y-45343D01*
X68024Y-45252D01*
X68024Y-45153D01*
X68024Y-44803D01*
X67986Y-44711D01*
X67916Y-44641D01*
X67853Y-44614D01*
X67916Y-44589D01*
X67986Y-44519D01*
X68024Y-44428D01*
X68024Y-44329D01*
X68024Y-43979D01*
X67986Y-43887D01*
X67927Y-43828D01*
X67986Y-43769D01*
X68024Y-43678D01*
X68024Y-43579D01*
X68024Y-43389D01*
X68125Y-43322D01*
X68226Y-43222D01*
X68226Y-43221D01*
X68302Y-43108D01*
X68328Y-42975D01*
X68329Y-42974D01*
X68329Y-39207D01*
X68302Y-39073D01*
X68226Y-38960D01*
X68226Y-38959D01*
X68024Y-38757D01*
X68024Y-38698D01*
X68226Y-38497D01*
X68226Y-38496D01*
X68302Y-38383D01*
X68328Y-38249D01*
X68329Y-38249D01*
X68329Y-34344D01*
X68428Y-34245D01*
X68493Y-34089D01*
X68493Y-52125D01*
X58025Y-52125D01*
X58025Y-51965D01*
X58024Y-51853D01*
X57986Y-51761D01*
X57927Y-51702D01*
X57986Y-51643D01*
X58024Y-51552D01*
X58024Y-51453D01*
X58024Y-51103D01*
X57986Y-51011D01*
X57916Y-50941D01*
X57852Y-50914D01*
X57916Y-50888D01*
X57986Y-50818D01*
X58024Y-50727D01*
X58024Y-50628D01*
X58024Y-50278D01*
X57986Y-50186D01*
X57927Y-50127D01*
X57986Y-50068D01*
X58024Y-49977D01*
X58024Y-49878D01*
X58024Y-49528D01*
X57986Y-49436D01*
X57916Y-49366D01*
X57852Y-49339D01*
X57916Y-49313D01*
X57986Y-49243D01*
X58024Y-49152D01*
X58024Y-49053D01*
X58024Y-48703D01*
X57986Y-48611D01*
X57927Y-48552D01*
X57986Y-48493D01*
X58024Y-48402D01*
X58024Y-48303D01*
X58024Y-47953D01*
X57986Y-47861D01*
X57916Y-47791D01*
X57852Y-47764D01*
X57916Y-47738D01*
X57986Y-47668D01*
X58024Y-47576D01*
X58025Y-47464D01*
X57963Y-47402D01*
X57600Y-47402D01*
X57550Y-47402D01*
X57450Y-47402D01*
X57450Y-47302D01*
X57550Y-47302D01*
X57600Y-47302D01*
X57963Y-47302D01*
X58025Y-47240D01*
X58024Y-47128D01*
X57986Y-47036D01*
X57927Y-46977D01*
X57986Y-46918D01*
X58024Y-46827D01*
X58024Y-46728D01*
X58024Y-46378D01*
X57986Y-46286D01*
X57916Y-46216D01*
X57852Y-46189D01*
X57916Y-46163D01*
X57986Y-46093D01*
X58024Y-46002D01*
X58024Y-45903D01*
X58024Y-45553D01*
X57986Y-45461D01*
X57927Y-45402D01*
X57986Y-45343D01*
X58024Y-45252D01*
X58024Y-45153D01*
X58024Y-44803D01*
X57986Y-44711D01*
X57916Y-44641D01*
X57853Y-44614D01*
X57916Y-44589D01*
X57986Y-44519D01*
X58024Y-44428D01*
X58024Y-44329D01*
X58024Y-43979D01*
X57986Y-43887D01*
X57927Y-43828D01*
X57986Y-43769D01*
X58024Y-43678D01*
X58024Y-43579D01*
X58024Y-43229D01*
X57986Y-43137D01*
X57916Y-43067D01*
X57852Y-43040D01*
X57916Y-43014D01*
X57986Y-42944D01*
X58024Y-42852D01*
X58025Y-42740D01*
X57963Y-42678D01*
X57600Y-42678D01*
X57550Y-42678D01*
X57450Y-42678D01*
X57450Y-42578D01*
X57550Y-42578D01*
X57600Y-42578D01*
X57963Y-42578D01*
X58025Y-42516D01*
X58024Y-42404D01*
X57986Y-42312D01*
X57927Y-42253D01*
X57986Y-42194D01*
X58024Y-42103D01*
X58024Y-42004D01*
X58024Y-41654D01*
X57986Y-41562D01*
X57916Y-41492D01*
X57852Y-41465D01*
X57916Y-41439D01*
X57986Y-41369D01*
X58024Y-41278D01*
X58024Y-41179D01*
X58024Y-40829D01*
X57986Y-40737D01*
X57927Y-40678D01*
X57986Y-40619D01*
X58024Y-40528D01*
X58024Y-40429D01*
X58024Y-40079D01*
X57986Y-39987D01*
X57916Y-39917D01*
X57852Y-39890D01*
X57916Y-39864D01*
X57986Y-39794D01*
X58024Y-39703D01*
X58024Y-39604D01*
X58024Y-39254D01*
X57986Y-39162D01*
X57927Y-39103D01*
X57986Y-39044D01*
X58024Y-38953D01*
X58024Y-38854D01*
X58024Y-38504D01*
X57986Y-38412D01*
X57916Y-38342D01*
X57852Y-38315D01*
X57916Y-38289D01*
X57986Y-38219D01*
X58024Y-38127D01*
X58025Y-38015D01*
X57963Y-37953D01*
X57600Y-37953D01*
X57550Y-37953D01*
X57450Y-37953D01*
X57450Y-37853D01*
X57550Y-37853D01*
X57600Y-37853D01*
X57963Y-37853D01*
X58025Y-37791D01*
X58024Y-37679D01*
X57986Y-37587D01*
X57927Y-37528D01*
X57986Y-37469D01*
X58024Y-37378D01*
X58024Y-37279D01*
X58024Y-36929D01*
X57986Y-36837D01*
X57916Y-36767D01*
X57853Y-36740D01*
X57916Y-36715D01*
X57986Y-36645D01*
X58024Y-36554D01*
X58024Y-36455D01*
X58024Y-36105D01*
X57986Y-36013D01*
X57927Y-35954D01*
X57986Y-35895D01*
X58024Y-35804D01*
X58024Y-35705D01*
X58024Y-35355D01*
X57986Y-35263D01*
X57916Y-35193D01*
X57852Y-35166D01*
X57916Y-35140D01*
X57986Y-35070D01*
X58024Y-34979D01*
X58024Y-34880D01*
X58024Y-34530D01*
X57986Y-34438D01*
X57927Y-34379D01*
X57986Y-34320D01*
X58024Y-34229D01*
X58024Y-34130D01*
X58024Y-33780D01*
X57986Y-33688D01*
X57916Y-33618D01*
X57852Y-33591D01*
X57916Y-33565D01*
X57986Y-33495D01*
X58024Y-33403D01*
X58025Y-33291D01*
X57963Y-33229D01*
X57600Y-33229D01*
X57550Y-33229D01*
X57450Y-33229D01*
X57450Y-33129D01*
X57550Y-33129D01*
X57600Y-33129D01*
X57963Y-33129D01*
X58025Y-33067D01*
X58024Y-32955D01*
X57986Y-32863D01*
X57927Y-32804D01*
X57986Y-32745D01*
X58024Y-32654D01*
X58024Y-32555D01*
X58024Y-32205D01*
X57986Y-32113D01*
X57916Y-32043D01*
X57852Y-32016D01*
X57916Y-31990D01*
X57986Y-31920D01*
X58024Y-31829D01*
X58024Y-31730D01*
X58024Y-31380D01*
X57986Y-31288D01*
X57927Y-31229D01*
X57986Y-31170D01*
X58024Y-31079D01*
X58024Y-30980D01*
X58024Y-30630D01*
X57986Y-30538D01*
X57916Y-30468D01*
X57852Y-30441D01*
X57916Y-30415D01*
X57986Y-30345D01*
X58024Y-30254D01*
X58024Y-30155D01*
X58024Y-29805D01*
X57986Y-29713D01*
X57927Y-29654D01*
X57986Y-29595D01*
X58024Y-29504D01*
X58024Y-29405D01*
X58024Y-29055D01*
X57986Y-28963D01*
X57916Y-28893D01*
X57825Y-28855D01*
X57726Y-28855D01*
X57176Y-28855D01*
X57084Y-28893D01*
X57014Y-28963D01*
X56976Y-29054D01*
X56976Y-29153D01*
X56976Y-29308D01*
X56774Y-29511D01*
X56698Y-29624D01*
X56671Y-29758D01*
X56671Y-33525D01*
X56698Y-33659D01*
X56774Y-33772D01*
X56976Y-33974D01*
X56976Y-34033D01*
X56723Y-34287D01*
X56647Y-34400D01*
X56620Y-34534D01*
X56620Y-38198D01*
X56647Y-38332D01*
X56723Y-38445D01*
X56874Y-38597D01*
X56875Y-38597D01*
X56919Y-38627D01*
X56976Y-38664D01*
X56976Y-38757D01*
X56775Y-38959D01*
X56699Y-39072D01*
X56672Y-39206D01*
X56672Y-39733D01*
X49483Y-39733D01*
X49473Y-39723D01*
X49317Y-39658D01*
X49148Y-39658D01*
X48992Y-39722D01*
X48872Y-39842D01*
X48807Y-39998D01*
X48807Y-40167D01*
X48871Y-40323D01*
X48991Y-40443D01*
X49147Y-40508D01*
X49316Y-40508D01*
X49472Y-40444D01*
X49483Y-40433D01*
X56672Y-40433D01*
X56672Y-43453D01*
X56672Y-47699D01*
X56699Y-47833D01*
X56775Y-47946D01*
X56874Y-48046D01*
X56875Y-48046D01*
X56976Y-48114D01*
X56976Y-48401D01*
X57014Y-48493D01*
X57073Y-48552D01*
X57014Y-48611D01*
X56976Y-48702D01*
X56976Y-48801D01*
X56976Y-49151D01*
X57014Y-49243D01*
X57084Y-49313D01*
X57147Y-49339D01*
X57084Y-49366D01*
X57014Y-49436D01*
X56976Y-49527D01*
X56976Y-49626D01*
X56976Y-49976D01*
X57014Y-50068D01*
X57073Y-50127D01*
X57014Y-50186D01*
X56976Y-50277D01*
X56976Y-50376D01*
X56976Y-50726D01*
X57014Y-50818D01*
X57084Y-50888D01*
X57147Y-50914D01*
X57084Y-50941D01*
X57014Y-51011D01*
X56976Y-51102D01*
X56976Y-51201D01*
X56976Y-51551D01*
X57014Y-51643D01*
X57073Y-51702D01*
X57014Y-51761D01*
X56976Y-51853D01*
X56975Y-51965D01*
X57037Y-52027D01*
X57400Y-52027D01*
X57450Y-52027D01*
X57550Y-52027D01*
X57600Y-52027D01*
X57963Y-52027D01*
X58025Y-51965D01*
X58025Y-52125D01*
X48508Y-52125D01*
X48508Y-34089D01*
X48508Y-33920D01*
X48444Y-33764D01*
X48433Y-33753D01*
X48433Y-29862D01*
X48406Y-29728D01*
X48330Y-29615D01*
X48330Y-29614D01*
X48024Y-29308D01*
X48024Y-29055D01*
X47986Y-28963D01*
X47916Y-28893D01*
X47825Y-28855D01*
X47726Y-28855D01*
X47176Y-28855D01*
X47084Y-28893D01*
X47014Y-28963D01*
X46976Y-29054D01*
X46976Y-29153D01*
X46976Y-29503D01*
X47014Y-29595D01*
X47073Y-29654D01*
X47014Y-29713D01*
X46976Y-29804D01*
X46976Y-29903D01*
X46976Y-30253D01*
X47014Y-30345D01*
X47084Y-30415D01*
X47147Y-30441D01*
X47084Y-30468D01*
X47014Y-30538D01*
X46976Y-30629D01*
X46976Y-30728D01*
X46976Y-31078D01*
X47014Y-31170D01*
X47073Y-31229D01*
X47014Y-31288D01*
X46976Y-31379D01*
X46976Y-31478D01*
X46976Y-31828D01*
X47014Y-31920D01*
X47084Y-31990D01*
X47147Y-32016D01*
X47084Y-32043D01*
X47014Y-32113D01*
X46976Y-32204D01*
X46976Y-32303D01*
X46976Y-32653D01*
X47014Y-32745D01*
X47073Y-32804D01*
X47014Y-32863D01*
X46976Y-32955D01*
X46975Y-33067D01*
X47037Y-33129D01*
X47400Y-33129D01*
X47450Y-33129D01*
X47550Y-33129D01*
X47550Y-33229D01*
X47450Y-33229D01*
X47400Y-33229D01*
X47037Y-33229D01*
X46975Y-33291D01*
X46976Y-33403D01*
X47014Y-33495D01*
X47084Y-33565D01*
X47147Y-33591D01*
X47084Y-33618D01*
X47014Y-33688D01*
X46976Y-33779D01*
X46976Y-33878D01*
X46976Y-34228D01*
X47014Y-34320D01*
X47073Y-34379D01*
X47014Y-34438D01*
X46976Y-34529D01*
X46976Y-34628D01*
X46976Y-34978D01*
X47014Y-35070D01*
X47084Y-35140D01*
X47147Y-35166D01*
X47084Y-35193D01*
X47014Y-35263D01*
X46976Y-35354D01*
X46976Y-35453D01*
X46976Y-35803D01*
X47014Y-35895D01*
X47073Y-35954D01*
X47014Y-36013D01*
X46976Y-36104D01*
X46976Y-36203D01*
X46976Y-36553D01*
X47014Y-36645D01*
X47084Y-36715D01*
X47146Y-36741D01*
X47084Y-36767D01*
X47014Y-36837D01*
X46976Y-36928D01*
X46976Y-37027D01*
X46976Y-37377D01*
X47014Y-37469D01*
X47073Y-37528D01*
X47014Y-37587D01*
X46976Y-37679D01*
X46975Y-37791D01*
X47037Y-37853D01*
X47400Y-37853D01*
X47450Y-37853D01*
X47550Y-37853D01*
X47600Y-37853D01*
X47963Y-37853D01*
X48025Y-37791D01*
X48024Y-37679D01*
X47986Y-37587D01*
X47927Y-37528D01*
X47986Y-37469D01*
X48024Y-37378D01*
X48024Y-37279D01*
X48024Y-36929D01*
X47986Y-36837D01*
X47916Y-36767D01*
X47853Y-36740D01*
X47916Y-36715D01*
X47986Y-36645D01*
X48024Y-36554D01*
X48024Y-36455D01*
X48024Y-36105D01*
X47986Y-36013D01*
X47927Y-35954D01*
X47986Y-35895D01*
X48024Y-35804D01*
X48024Y-35705D01*
X48024Y-35355D01*
X47986Y-35263D01*
X47916Y-35193D01*
X47852Y-35166D01*
X47916Y-35140D01*
X47986Y-35070D01*
X48024Y-34979D01*
X48024Y-34880D01*
X48024Y-34530D01*
X47986Y-34438D01*
X47962Y-34414D01*
X47998Y-34429D01*
X48167Y-34429D01*
X48323Y-34365D01*
X48443Y-34245D01*
X48508Y-34089D01*
X48508Y-52125D01*
X48025Y-52125D01*
X48025Y-51965D01*
X48024Y-51853D01*
X47986Y-51761D01*
X47927Y-51702D01*
X47986Y-51643D01*
X48024Y-51552D01*
X48024Y-51453D01*
X48024Y-51103D01*
X47986Y-51011D01*
X47916Y-50941D01*
X47852Y-50914D01*
X47916Y-50888D01*
X47986Y-50818D01*
X48024Y-50727D01*
X48024Y-50628D01*
X48024Y-50278D01*
X47986Y-50186D01*
X47927Y-50127D01*
X47986Y-50068D01*
X48024Y-49977D01*
X48024Y-49878D01*
X48024Y-49528D01*
X47986Y-49436D01*
X47916Y-49366D01*
X47852Y-49339D01*
X47916Y-49313D01*
X47986Y-49243D01*
X48024Y-49152D01*
X48024Y-49053D01*
X48024Y-48703D01*
X47986Y-48611D01*
X47927Y-48552D01*
X47986Y-48493D01*
X48024Y-48402D01*
X48024Y-48303D01*
X48024Y-47953D01*
X47986Y-47861D01*
X47916Y-47791D01*
X47852Y-47764D01*
X47916Y-47738D01*
X47986Y-47668D01*
X48024Y-47576D01*
X48025Y-47464D01*
X47963Y-47402D01*
X47600Y-47402D01*
X47550Y-47402D01*
X47450Y-47402D01*
X47450Y-47302D01*
X47550Y-47302D01*
X47600Y-47302D01*
X47963Y-47302D01*
X48025Y-47240D01*
X48024Y-47128D01*
X47986Y-47036D01*
X47927Y-46977D01*
X47986Y-46918D01*
X48024Y-46827D01*
X48024Y-46728D01*
X48024Y-46378D01*
X47986Y-46286D01*
X47916Y-46216D01*
X47852Y-46189D01*
X47916Y-46163D01*
X47986Y-46093D01*
X48024Y-46002D01*
X48024Y-45903D01*
X48024Y-45553D01*
X47986Y-45461D01*
X47927Y-45402D01*
X47986Y-45343D01*
X48024Y-45252D01*
X48024Y-45153D01*
X48024Y-44803D01*
X47986Y-44711D01*
X47916Y-44641D01*
X47853Y-44614D01*
X47916Y-44589D01*
X47986Y-44519D01*
X48024Y-44428D01*
X48024Y-44329D01*
X48024Y-43979D01*
X47986Y-43887D01*
X47927Y-43828D01*
X47986Y-43769D01*
X48024Y-43678D01*
X48024Y-43579D01*
X48024Y-43229D01*
X47986Y-43137D01*
X47916Y-43067D01*
X47852Y-43040D01*
X47916Y-43014D01*
X47986Y-42944D01*
X48024Y-42852D01*
X48025Y-42740D01*
X47963Y-42678D01*
X47600Y-42678D01*
X47550Y-42678D01*
X47450Y-42678D01*
X47450Y-42578D01*
X47550Y-42578D01*
X47600Y-42578D01*
X47963Y-42578D01*
X48025Y-42516D01*
X48024Y-42404D01*
X47986Y-42312D01*
X47927Y-42253D01*
X47986Y-42194D01*
X48024Y-42103D01*
X48024Y-42004D01*
X48024Y-41654D01*
X47986Y-41562D01*
X47916Y-41492D01*
X47852Y-41465D01*
X47916Y-41439D01*
X47986Y-41369D01*
X48024Y-41278D01*
X48024Y-41179D01*
X48024Y-40829D01*
X47986Y-40737D01*
X47927Y-40678D01*
X47986Y-40619D01*
X48024Y-40528D01*
X48024Y-40429D01*
X48024Y-40079D01*
X47986Y-39987D01*
X47916Y-39917D01*
X47852Y-39890D01*
X47916Y-39864D01*
X47986Y-39794D01*
X48024Y-39703D01*
X48024Y-39604D01*
X48024Y-39254D01*
X47986Y-39162D01*
X47927Y-39103D01*
X47986Y-39044D01*
X48024Y-38953D01*
X48024Y-38854D01*
X48024Y-38504D01*
X47986Y-38412D01*
X47916Y-38342D01*
X47852Y-38315D01*
X47916Y-38289D01*
X47986Y-38219D01*
X48024Y-38127D01*
X48025Y-38015D01*
X47963Y-37953D01*
X47600Y-37953D01*
X47550Y-37953D01*
X47450Y-37953D01*
X47400Y-37953D01*
X47037Y-37953D01*
X46975Y-38015D01*
X46976Y-38127D01*
X46996Y-38177D01*
X46750Y-37930D01*
X46750Y-37916D01*
X46686Y-37760D01*
X46566Y-37640D01*
X46410Y-37575D01*
X46241Y-37575D01*
X46085Y-37639D01*
X46074Y-37650D01*
X39399Y-37650D01*
X39399Y-37551D01*
X39361Y-37459D01*
X39291Y-37389D01*
X39200Y-37351D01*
X39101Y-37351D01*
X38501Y-37351D01*
X38409Y-37389D01*
X38339Y-37459D01*
X38301Y-37550D01*
X38301Y-37649D01*
X38301Y-38449D01*
X38339Y-38541D01*
X38409Y-38611D01*
X38500Y-38649D01*
X38599Y-38649D01*
X39199Y-38649D01*
X39291Y-38611D01*
X39361Y-38541D01*
X39399Y-38450D01*
X39399Y-38351D01*
X39399Y-38350D01*
X46074Y-38350D01*
X46084Y-38360D01*
X46240Y-38425D01*
X46255Y-38425D01*
X46672Y-38841D01*
X46672Y-38962D01*
X46524Y-38962D01*
X46368Y-39026D01*
X46357Y-39037D01*
X39466Y-39037D01*
X39398Y-39050D01*
X39361Y-38959D01*
X39291Y-38889D01*
X39200Y-38851D01*
X39101Y-38851D01*
X38501Y-38851D01*
X38409Y-38889D01*
X38339Y-38959D01*
X38301Y-39050D01*
X38301Y-39149D01*
X38301Y-39949D01*
X38339Y-40041D01*
X38409Y-40111D01*
X38500Y-40149D01*
X38599Y-40149D01*
X39199Y-40149D01*
X39291Y-40111D01*
X39361Y-40041D01*
X39399Y-39950D01*
X39399Y-39851D01*
X39399Y-39840D01*
X39487Y-39823D01*
X39600Y-39747D01*
X39610Y-39737D01*
X46357Y-39737D01*
X46367Y-39747D01*
X46523Y-39812D01*
X46672Y-39812D01*
X46672Y-40317D01*
X46536Y-40317D01*
X46380Y-40381D01*
X46369Y-40392D01*
X39611Y-40392D01*
X39477Y-40419D01*
X39373Y-40488D01*
X39361Y-40459D01*
X39291Y-40389D01*
X39200Y-40351D01*
X39101Y-40351D01*
X38501Y-40351D01*
X38409Y-40389D01*
X38339Y-40459D01*
X38301Y-40550D01*
X38301Y-40649D01*
X38301Y-41449D01*
X38339Y-41541D01*
X38409Y-41611D01*
X38500Y-41649D01*
X38599Y-41649D01*
X39199Y-41649D01*
X39291Y-41611D01*
X39361Y-41541D01*
X39399Y-41450D01*
X39399Y-41351D01*
X39399Y-41340D01*
X39487Y-41323D01*
X39600Y-41247D01*
X39755Y-41092D01*
X46369Y-41092D01*
X46379Y-41102D01*
X46535Y-41167D01*
X46672Y-41167D01*
X46672Y-41672D01*
X46540Y-41672D01*
X46384Y-41736D01*
X46373Y-41747D01*
X39756Y-41747D01*
X39622Y-41774D01*
X39553Y-41819D01*
X39508Y-41850D01*
X39372Y-41986D01*
X39361Y-41959D01*
X39291Y-41889D01*
X39200Y-41851D01*
X39101Y-41851D01*
X38501Y-41851D01*
X38409Y-41889D01*
X38339Y-41959D01*
X38301Y-42050D01*
X38301Y-42149D01*
X38301Y-42949D01*
X38339Y-43041D01*
X38409Y-43111D01*
X38500Y-43149D01*
X38599Y-43149D01*
X39199Y-43149D01*
X39291Y-43111D01*
X39361Y-43041D01*
X39399Y-42950D01*
X39399Y-42851D01*
X39399Y-42840D01*
X39487Y-42823D01*
X39600Y-42747D01*
X39900Y-42447D01*
X46373Y-42447D01*
X46383Y-42457D01*
X46539Y-42522D01*
X46672Y-42522D01*
X46672Y-42975D01*
X46699Y-43109D01*
X46706Y-43120D01*
X46670Y-43136D01*
X46659Y-43147D01*
X39906Y-43147D01*
X39772Y-43174D01*
X39658Y-43250D01*
X39372Y-43536D01*
X39361Y-43509D01*
X39291Y-43439D01*
X39200Y-43401D01*
X39101Y-43401D01*
X38501Y-43401D01*
X38409Y-43439D01*
X38339Y-43509D01*
X38301Y-43600D01*
X38301Y-43699D01*
X38301Y-44499D01*
X38339Y-44591D01*
X38409Y-44661D01*
X38500Y-44699D01*
X38599Y-44699D01*
X39199Y-44699D01*
X39291Y-44661D01*
X39361Y-44591D01*
X39399Y-44500D01*
X39399Y-44401D01*
X39399Y-44390D01*
X39487Y-44373D01*
X39600Y-44297D01*
X40050Y-43847D01*
X46659Y-43847D01*
X46669Y-43857D01*
X46684Y-43863D01*
X46671Y-43932D01*
X46671Y-47698D01*
X46698Y-47832D01*
X46774Y-47945D01*
X46874Y-48046D01*
X46875Y-48046D01*
X46976Y-48114D01*
X46976Y-48401D01*
X47014Y-48493D01*
X47073Y-48552D01*
X47014Y-48611D01*
X46976Y-48702D01*
X46976Y-48801D01*
X46976Y-49151D01*
X47014Y-49243D01*
X47084Y-49313D01*
X47147Y-49339D01*
X47084Y-49366D01*
X47014Y-49436D01*
X46976Y-49527D01*
X46976Y-49626D01*
X46976Y-49976D01*
X47014Y-50068D01*
X47073Y-50127D01*
X47014Y-50186D01*
X46976Y-50277D01*
X46976Y-50376D01*
X46976Y-50726D01*
X47014Y-50818D01*
X47084Y-50888D01*
X47147Y-50914D01*
X47084Y-50941D01*
X47014Y-51011D01*
X46976Y-51102D01*
X46976Y-51201D01*
X46976Y-51551D01*
X47014Y-51643D01*
X47073Y-51702D01*
X47014Y-51761D01*
X46976Y-51853D01*
X46975Y-51965D01*
X47037Y-52027D01*
X47400Y-52027D01*
X47450Y-52027D01*
X47550Y-52027D01*
X47600Y-52027D01*
X47963Y-52027D01*
X48025Y-51965D01*
X48025Y-52125D01*
X44324Y-52125D01*
X44479Y-51971D01*
X44619Y-51634D01*
X44619Y-51268D01*
X44479Y-50930D01*
X44221Y-50671D01*
X43884Y-50531D01*
X43518Y-50531D01*
X43180Y-50671D01*
X42921Y-50929D01*
X42781Y-51266D01*
X42781Y-51632D01*
X42921Y-51970D01*
X43075Y-52125D01*
X38099Y-52125D01*
X38099Y-44500D01*
X38099Y-44401D01*
X38099Y-43601D01*
X38061Y-43509D01*
X37991Y-43439D01*
X37900Y-43401D01*
X37900Y-43148D01*
X37991Y-43111D01*
X38061Y-43041D01*
X38099Y-42950D01*
X38099Y-42851D01*
X38099Y-42051D01*
X38061Y-41959D01*
X37991Y-41889D01*
X37900Y-41851D01*
X37900Y-41648D01*
X37991Y-41611D01*
X38061Y-41541D01*
X38099Y-41450D01*
X38099Y-41351D01*
X38099Y-40551D01*
X38061Y-40459D01*
X37991Y-40389D01*
X37900Y-40351D01*
X37900Y-40148D01*
X37991Y-40111D01*
X38061Y-40041D01*
X38099Y-39950D01*
X38099Y-39851D01*
X38099Y-39051D01*
X38061Y-38959D01*
X37991Y-38889D01*
X37900Y-38851D01*
X37900Y-38648D01*
X37991Y-38611D01*
X38061Y-38541D01*
X38099Y-38450D01*
X38099Y-38351D01*
X38099Y-37551D01*
X38061Y-37459D01*
X37991Y-37389D01*
X37900Y-37351D01*
X37801Y-37351D01*
X37201Y-37351D01*
X37109Y-37389D01*
X37039Y-37459D01*
X37001Y-37550D01*
X37001Y-37649D01*
X37001Y-37650D01*
X31254Y-37650D01*
X30606Y-37001D01*
X30836Y-37001D01*
X30928Y-36963D01*
X30998Y-36893D01*
X31036Y-36802D01*
X31036Y-36703D01*
X31037Y-36510D01*
X31037Y-36286D01*
X31036Y-36093D01*
X31036Y-35994D01*
X30998Y-35903D01*
X30978Y-35883D01*
X30978Y-33714D01*
X30978Y-33490D01*
X30977Y-33297D01*
X30977Y-33198D01*
X30939Y-33107D01*
X30869Y-33037D01*
X30777Y-32999D01*
X30604Y-32998D01*
X30542Y-33060D01*
X30542Y-33552D01*
X30916Y-33552D01*
X30978Y-33490D01*
X30978Y-33714D01*
X30916Y-33652D01*
X30542Y-33652D01*
X30542Y-34144D01*
X30604Y-34206D01*
X30777Y-34205D01*
X30869Y-34167D01*
X30939Y-34097D01*
X30977Y-34006D01*
X30977Y-33907D01*
X30978Y-33714D01*
X30978Y-35883D01*
X30928Y-35833D01*
X30836Y-35795D01*
X30604Y-35794D01*
X30542Y-35856D01*
X30542Y-36348D01*
X30975Y-36348D01*
X31037Y-36286D01*
X31037Y-36510D01*
X30975Y-36448D01*
X30592Y-36448D01*
X30542Y-36448D01*
X30442Y-36448D01*
X30442Y-36348D01*
X30442Y-36298D01*
X30442Y-35856D01*
X30442Y-34144D01*
X30442Y-33652D01*
X30442Y-33552D01*
X30442Y-33060D01*
X30380Y-32998D01*
X30207Y-32999D01*
X30115Y-33037D01*
X30045Y-33107D01*
X30007Y-33198D01*
X30007Y-33297D01*
X30006Y-33490D01*
X30068Y-33552D01*
X30442Y-33552D01*
X30442Y-33652D01*
X30068Y-33652D01*
X30006Y-33714D01*
X30007Y-33907D01*
X30007Y-34006D01*
X30045Y-34097D01*
X30115Y-34167D01*
X30207Y-34205D01*
X30380Y-34206D01*
X30442Y-34144D01*
X30442Y-35856D01*
X30380Y-35794D01*
X30148Y-35795D01*
X30056Y-35833D01*
X30000Y-35889D01*
X29944Y-35833D01*
X29858Y-35797D01*
X29858Y-34178D01*
X29885Y-34167D01*
X29955Y-34097D01*
X29993Y-34006D01*
X29993Y-33907D01*
X29993Y-33199D01*
X29955Y-33107D01*
X29885Y-33037D01*
X29794Y-32999D01*
X29695Y-32999D01*
X29223Y-32999D01*
X29131Y-33037D01*
X29061Y-33107D01*
X29023Y-33198D01*
X29023Y-33297D01*
X29023Y-34005D01*
X29061Y-34097D01*
X29131Y-34167D01*
X29158Y-34178D01*
X29158Y-35797D01*
X29072Y-35833D01*
X29002Y-35903D01*
X28964Y-35994D01*
X28964Y-36093D01*
X28964Y-36801D01*
X29002Y-36893D01*
X29072Y-36963D01*
X29163Y-37001D01*
X29262Y-37001D01*
X29616Y-37001D01*
X30862Y-38247D01*
X30863Y-38247D01*
X30976Y-38323D01*
X31110Y-38350D01*
X37001Y-38350D01*
X37001Y-38449D01*
X37039Y-38541D01*
X37109Y-38611D01*
X37200Y-38649D01*
X37200Y-38851D01*
X37109Y-38889D01*
X37039Y-38959D01*
X37001Y-39050D01*
X37001Y-39149D01*
X37001Y-39949D01*
X37039Y-40041D01*
X37109Y-40111D01*
X37200Y-40149D01*
X37200Y-40351D01*
X37109Y-40389D01*
X37039Y-40459D01*
X37001Y-40550D01*
X37001Y-40649D01*
X37001Y-41449D01*
X37039Y-41541D01*
X37109Y-41611D01*
X37200Y-41649D01*
X37200Y-41851D01*
X37109Y-41889D01*
X37039Y-41959D01*
X37001Y-42050D01*
X37001Y-42149D01*
X37001Y-42949D01*
X37039Y-43041D01*
X37109Y-43111D01*
X37200Y-43149D01*
X37200Y-43401D01*
X37109Y-43439D01*
X37039Y-43509D01*
X37001Y-43600D01*
X37001Y-43699D01*
X37001Y-44499D01*
X37039Y-44591D01*
X37109Y-44661D01*
X37200Y-44699D01*
X37299Y-44699D01*
X37899Y-44699D01*
X37991Y-44661D01*
X38061Y-44591D01*
X38099Y-44500D01*
X38099Y-52125D01*
X26624Y-52125D01*
X26779Y-51971D01*
X26919Y-51634D01*
X26919Y-51268D01*
X26779Y-50930D01*
X26521Y-50671D01*
X26184Y-50531D01*
X25818Y-50531D01*
X25480Y-50671D01*
X25325Y-50825D01*
X25325Y-29974D01*
X25479Y-30129D01*
X25816Y-30269D01*
X26182Y-30269D01*
X26520Y-30129D01*
X26779Y-29871D01*
X26919Y-29534D01*
X26919Y-29168D01*
X26779Y-28830D01*
X26624Y-28675D01*
X43075Y-28675D01*
X42921Y-28829D01*
X42781Y-29166D01*
X42781Y-29532D01*
X42921Y-29870D01*
X43179Y-30129D01*
X43516Y-30269D01*
X43882Y-30269D01*
X44220Y-30129D01*
X44479Y-29871D01*
X44619Y-29534D01*
X44619Y-29168D01*
X44479Y-28830D01*
X44324Y-28675D01*
X93375Y-28675D01*
X93221Y-28829D01*
X93081Y-29166D01*
X93081Y-29532D01*
X93221Y-29870D01*
X93479Y-30129D01*
X93816Y-30269D01*
X94182Y-30269D01*
X94520Y-30129D01*
X94675Y-29974D01*
X94675Y-50825D01*
M02*
