  0
SECTION
  2
BLOCKS
  0
ENDSEC
  0
SECTION
  2
ENTITIES
  0
LINE
  8
0
 10
63.75
 11
63.75
 20
-22.391
 21
-15.391
  0
LINE
  8
0
 10
63.75
 11
67.1
 20
-15.391
 21
-15.391
  0
LINE
  8
0
 10
67.1
 11
67.1
 20
-15.391
 21
53.173
  0
LINE
  8
0
 10
67.1
 11
63.75
 20
53.173
 21
53.173
  0
LINE
  8
0
 10
63.75
 11
63.75
 20
53.173
 21
60.173
  0
LINE
  8
0
 10
63.75
 11
67.1
 20
60.173
 21
60.173
  0
LINE
  8
0
 10
67.1
 11
67.1
 20
60.173
 21
104.95
  0
LINE
  8
0
 10
67.1
 11
73.125
 20
104.95
 21
104.95
  0
LINE
  8
0
 10
73.125
 11
73.125
 20
104.95
 21
100.1
  0
LINE
  8
0
 10
73.125
 11
80.125
 20
100.1
 21
100.1
  0
LINE
  8
0
 10
80.125
 11
80.125
 20
100.1
 21
104.95
  0
LINE
  8
0
 10
80.125
 11
86.15
 20
104.95
 21
104.95
  0
LINE
  8
0
 10
86.15
 11
86.15
 20
104.95
 21
72.605
  0
LINE
  8
0
 10
86.15
 11
84.75
 20
72.605
 21
72.605
  0
LINE
  8
0
 10
84.75
 11
84.725
 20
72.605
 21
72.603
  0
LINE
  8
0
 10
84.725
 11
84.7
 20
72.603
 21
72.599
  0
LINE
  8
0
 10
84.7
 11
84.676
 20
72.599
 21
72.591
  0
LINE
  8
0
 10
84.676
 11
84.654
 20
72.591
 21
72.58
  0
LINE
  8
0
 10
84.654
 11
84.632
 20
72.58
 21
72.567
  0
LINE
  8
0
 10
84.632
 11
84.613
 20
72.567
 21
72.551
  0
LINE
  8
0
 10
84.613
 11
84.596
 20
72.551
 21
72.532
  0
LINE
  8
0
 10
84.596
 11
84.581
 20
72.532
 21
72.512
  0
LINE
  8
0
 10
84.581
 11
84.569
 20
72.512
 21
72.49
  0
LINE
  8
0
 10
84.569
 11
84.56
 20
72.49
 21
72.467
  0
LINE
  8
0
 10
84.56
 11
84.554
 20
72.467
 21
72.442
  0
LINE
  8
0
 10
84.554
 11
84.55
 20
72.442
 21
72.418
  0
LINE
  8
0
 10
84.55
 11
84.55
 20
72.418
 21
63.792
  0
LINE
  8
0
 10
84.55
 11
84.554
 20
63.792
 21
63.768
  0
LINE
  8
0
 10
84.554
 11
84.56
 20
63.768
 21
63.743
  0
LINE
  8
0
 10
84.56
 11
84.569
 20
63.743
 21
63.72
  0
LINE
  8
0
 10
84.569
 11
84.581
 20
63.72
 21
63.698
  0
LINE
  8
0
 10
84.581
 11
84.596
 20
63.698
 21
63.678
  0
LINE
  8
0
 10
84.596
 11
84.613
 20
63.678
 21
63.659
  0
LINE
  8
0
 10
84.613
 11
84.632
 20
63.659
 21
63.643
  0
LINE
  8
0
 10
84.632
 11
84.654
 20
63.643
 21
63.63
  0
LINE
  8
0
 10
84.654
 11
84.676
 20
63.63
 21
63.619
  0
LINE
  8
0
 10
84.676
 11
84.7
 20
63.619
 21
63.611
  0
LINE
  8
0
 10
84.7
 11
84.725
 20
63.611
 21
63.607
  0
LINE
  8
0
 10
84.725
 11
84.75
 20
63.607
 21
63.605
  0
LINE
  8
0
 10
84.75
 11
86.15
 20
63.605
 21
63.605
  0
LINE
  8
0
 10
86.15
 11
86.15
 20
63.605
 21
60.173
  0
LINE
  8
0
 10
86.15
 11
89.5
 20
60.173
 21
60.173
  0
LINE
  8
0
 10
89.5
 11
89.5
 20
60.173
 21
53.173
  0
LINE
  8
0
 10
89.5
 11
86.15
 20
53.173
 21
53.173
  0
LINE
  8
0
 10
86.15
 11
86.15
 20
53.173
 21
47.205
  0
LINE
  8
0
 10
86.15
 11
84.75
 20
47.205
 21
47.205
  0
LINE
  8
0
 10
84.75
 11
84.725
 20
47.205
 21
47.203
  0
LINE
  8
0
 10
84.725
 11
84.7
 20
47.203
 21
47.199
  0
LINE
  8
0
 10
84.7
 11
84.676
 20
47.199
 21
47.191
  0
LINE
  8
0
 10
84.676
 11
84.654
 20
47.191
 21
47.18
  0
LINE
  8
0
 10
84.654
 11
84.632
 20
47.18
 21
47.167
  0
LINE
  8
0
 10
84.632
 11
84.613
 20
47.167
 21
47.151
  0
LINE
  8
0
 10
84.613
 11
84.596
 20
47.151
 21
47.132
  0
LINE
  8
0
 10
84.596
 11
84.581
 20
47.132
 21
47.112
  0
LINE
  8
0
 10
84.581
 11
84.569
 20
47.112
 21
47.09
  0
LINE
  8
0
 10
84.569
 11
84.56
 20
47.09
 21
47.067
  0
LINE
  8
0
 10
84.56
 11
84.554
 20
47.067
 21
47.042
  0
LINE
  8
0
 10
84.554
 11
84.55
 20
47.042
 21
47.018
  0
LINE
  8
0
 10
84.55
 11
84.55
 20
47.018
 21
38.392
  0
LINE
  8
0
 10
84.55
 11
84.554
 20
38.392
 21
38.368
  0
LINE
  8
0
 10
84.554
 11
84.56
 20
38.368
 21
38.343
  0
LINE
  8
0
 10
84.56
 11
84.569
 20
38.343
 21
38.32
  0
LINE
  8
0
 10
84.569
 11
84.581
 20
38.32
 21
38.298
  0
LINE
  8
0
 10
84.581
 11
84.596
 20
38.298
 21
38.278
  0
LINE
  8
0
 10
84.596
 11
84.613
 20
38.278
 21
38.259
  0
LINE
  8
0
 10
84.613
 11
84.632
 20
38.259
 21
38.243
  0
LINE
  8
0
 10
84.632
 11
84.654
 20
38.243
 21
38.23
  0
LINE
  8
0
 10
84.654
 11
84.676
 20
38.23
 21
38.219
  0
LINE
  8
0
 10
84.676
 11
84.7
 20
38.219
 21
38.211
  0
LINE
  8
0
 10
84.7
 11
84.725
 20
38.211
 21
38.207
  0
LINE
  8
0
 10
84.725
 11
84.75
 20
38.207
 21
38.205
  0
LINE
  8
0
 10
84.75
 11
86.15
 20
38.205
 21
38.205
  0
LINE
  8
0
 10
86.15
 11
86.15
 20
38.205
 21
21.805
  0
LINE
  8
0
 10
86.15
 11
84.75
 20
21.805
 21
21.805
  0
LINE
  8
0
 10
84.75
 11
84.725
 20
21.805
 21
21.803
  0
LINE
  8
0
 10
84.725
 11
84.7
 20
21.803
 21
21.799
  0
LINE
  8
0
 10
84.7
 11
84.676
 20
21.799
 21
21.791
  0
LINE
  8
0
 10
84.676
 11
84.654
 20
21.791
 21
21.78
  0
LINE
  8
0
 10
84.654
 11
84.632
 20
21.78
 21
21.767
  0
LINE
  8
0
 10
84.632
 11
84.613
 20
21.767
 21
21.751
  0
LINE
  8
0
 10
84.613
 11
84.596
 20
21.751
 21
21.732
  0
LINE
  8
0
 10
84.596
 11
84.581
 20
21.732
 21
21.712
  0
LINE
  8
0
 10
84.581
 11
84.569
 20
21.712
 21
21.69
  0
LINE
  8
0
 10
84.569
 11
84.56
 20
21.69
 21
21.667
  0
LINE
  8
0
 10
84.56
 11
84.554
 20
21.667
 21
21.642
  0
LINE
  8
0
 10
84.554
 11
84.55
 20
21.642
 21
21.618
  0
LINE
  8
0
 10
84.55
 11
84.55
 20
21.618
 21
12.992
  0
LINE
  8
0
 10
84.55
 11
84.554
 20
12.992
 21
12.968
  0
LINE
  8
0
 10
84.554
 11
84.56
 20
12.968
 21
12.943
  0
LINE
  8
0
 10
84.56
 11
84.569
 20
12.943
 21
12.92
  0
LINE
  8
0
 10
84.569
 11
84.581
 20
12.92
 21
12.898
  0
LINE
  8
0
 10
84.581
 11
84.596
 20
12.898
 21
12.878
  0
LINE
  8
0
 10
84.596
 11
84.613
 20
12.878
 21
12.859
  0
LINE
  8
0
 10
84.613
 11
84.632
 20
12.859
 21
12.843
  0
LINE
  8
0
 10
84.632
 11
84.654
 20
12.843
 21
12.83
  0
LINE
  8
0
 10
84.654
 11
84.676
 20
12.83
 21
12.819
  0
LINE
  8
0
 10
84.676
 11
84.7
 20
12.819
 21
12.811
  0
LINE
  8
0
 10
84.7
 11
84.725
 20
12.811
 21
12.807
  0
LINE
  8
0
 10
84.725
 11
84.75
 20
12.807
 21
12.805
  0
LINE
  8
0
 10
84.75
 11
86.15
 20
12.805
 21
12.805
  0
LINE
  8
0
 10
86.15
 11
86.15
 20
12.805
 21
-3.595
  0
LINE
  8
0
 10
86.15
 11
84.75
 20
-3.595
 21
-3.595
  0
LINE
  8
0
 10
84.75
 11
84.725
 20
-3.595
 21
-3.597
  0
LINE
  8
0
 10
84.725
 11
84.7
 20
-3.597
 21
-3.601
  0
LINE
  8
0
 10
84.7
 11
84.676
 20
-3.601
 21
-3.609
  0
LINE
  8
0
 10
84.676
 11
84.654
 20
-3.609
 21
-3.62
  0
LINE
  8
0
 10
84.654
 11
84.632
 20
-3.62
 21
-3.633
  0
LINE
  8
0
 10
84.632
 11
84.613
 20
-3.633
 21
-3.649
  0
LINE
  8
0
 10
84.613
 11
84.596
 20
-3.649
 21
-3.668
  0
LINE
  8
0
 10
84.596
 11
84.581
 20
-3.668
 21
-3.688
  0
LINE
  8
0
 10
84.581
 11
84.569
 20
-3.688
 21
-3.71
  0
LINE
  8
0
 10
84.569
 11
84.56
 20
-3.71
 21
-3.733
  0
LINE
  8
0
 10
84.56
 11
84.554
 20
-3.733
 21
-3.758
  0
LINE
  8
0
 10
84.554
 11
84.55
 20
-3.758
 21
-3.782
  0
LINE
  8
0
 10
84.55
 11
84.55
 20
-3.782
 21
-12.408
  0
LINE
  8
0
 10
84.55
 11
84.554
 20
-12.408
 21
-12.432
  0
LINE
  8
0
 10
84.554
 11
84.56
 20
-12.432
 21
-12.457
  0
LINE
  8
0
 10
84.56
 11
84.569
 20
-12.457
 21
-12.48
  0
LINE
  8
0
 10
84.569
 11
84.581
 20
-12.48
 21
-12.502
  0
LINE
  8
0
 10
84.581
 11
84.596
 20
-12.502
 21
-12.522
  0
LINE
  8
0
 10
84.596
 11
84.613
 20
-12.522
 21
-12.541
  0
LINE
  8
0
 10
84.613
 11
84.632
 20
-12.541
 21
-12.557
  0
LINE
  8
0
 10
84.632
 11
84.654
 20
-12.557
 21
-12.57
  0
LINE
  8
0
 10
84.654
 11
84.676
 20
-12.57
 21
-12.581
  0
LINE
  8
0
 10
84.676
 11
84.7
 20
-12.581
 21
-12.589
  0
LINE
  8
0
 10
84.7
 11
84.725
 20
-12.589
 21
-12.593
  0
LINE
  8
0
 10
84.725
 11
84.75
 20
-12.593
 21
-12.595
  0
LINE
  8
0
 10
84.75
 11
86.15
 20
-12.595
 21
-12.595
  0
LINE
  8
0
 10
86.15
 11
86.15
 20
-12.595
 21
-15.391
  0
LINE
  8
0
 10
86.15
 11
89.5
 20
-15.391
 21
-15.391
  0
LINE
  8
0
 10
89.5
 11
89.5
 20
-15.391
 21
-22.391
  0
LINE
  8
0
 10
89.5
 11
86.15
 20
-22.391
 21
-22.391
  0
LINE
  8
0
 10
86.15
 11
86.15
 20
-22.391
 21
-28.995
  0
LINE
  8
0
 10
86.15
 11
84.75
 20
-28.995
 21
-28.995
  0
LINE
  8
0
 10
84.75
 11
84.725
 20
-28.995
 21
-28.997
  0
LINE
  8
0
 10
84.725
 11
84.7
 20
-28.997
 21
-29.001
  0
LINE
  8
0
 10
84.7
 11
84.676
 20
-29.001
 21
-29.009
  0
LINE
  8
0
 10
84.676
 11
84.654
 20
-29.009
 21
-29.02
  0
LINE
  8
0
 10
84.654
 11
84.632
 20
-29.02
 21
-29.033
  0
LINE
  8
0
 10
84.632
 11
84.613
 20
-29.033
 21
-29.049
  0
LINE
  8
0
 10
84.613
 11
84.596
 20
-29.049
 21
-29.068
  0
LINE
  8
0
 10
84.596
 11
84.581
 20
-29.068
 21
-29.088
  0
LINE
  8
0
 10
84.581
 11
84.569
 20
-29.088
 21
-29.11
  0
LINE
  8
0
 10
84.569
 11
84.56
 20
-29.11
 21
-29.133
  0
LINE
  8
0
 10
84.56
 11
84.554
 20
-29.133
 21
-29.158
  0
LINE
  8
0
 10
84.554
 11
84.55
 20
-29.158
 21
-29.182
  0
LINE
  8
0
 10
84.55
 11
84.55
 20
-29.182
 21
-37.808
  0
LINE
  8
0
 10
84.55
 11
84.554
 20
-37.808
 21
-37.832
  0
LINE
  8
0
 10
84.554
 11
84.56
 20
-37.832
 21
-37.857
  0
LINE
  8
0
 10
84.56
 11
84.569
 20
-37.857
 21
-37.88
  0
LINE
  8
0
 10
84.569
 11
84.581
 20
-37.88
 21
-37.902
  0
LINE
  8
0
 10
84.581
 11
84.596
 20
-37.902
 21
-37.922
  0
LINE
  8
0
 10
84.596
 11
84.613
 20
-37.922
 21
-37.941
  0
LINE
  8
0
 10
84.613
 11
84.632
 20
-37.941
 21
-37.957
  0
LINE
  8
0
 10
84.632
 11
84.654
 20
-37.957
 21
-37.97
  0
LINE
  8
0
 10
84.654
 11
84.676
 20
-37.97
 21
-37.981
  0
LINE
  8
0
 10
84.676
 11
84.7
 20
-37.981
 21
-37.989
  0
LINE
  8
0
 10
84.7
 11
84.725
 20
-37.989
 21
-37.993
  0
LINE
  8
0
 10
84.725
 11
84.75
 20
-37.993
 21
-37.995
  0
LINE
  8
0
 10
84.75
 11
86.15
 20
-37.995
 21
-37.995
  0
LINE
  8
0
 10
86.15
 11
86.15
 20
-37.995
 21
-104.95
  0
LINE
  8
0
 10
86.15
 11
80.125
 20
-104.95
 21
-104.95
  0
LINE
  8
0
 10
80.125
 11
80.125
 20
-104.95
 21
-100.1
  0
LINE
  8
0
 10
80.125
 11
73.125
 20
-100.1
 21
-100.1
  0
LINE
  8
0
 10
73.125
 11
73.125
 20
-100.1
 21
-104.95
  0
LINE
  8
0
 10
73.125
 11
67.1
 20
-104.95
 21
-104.95
  0
LINE
  8
0
 10
67.1
 11
67.1
 20
-104.95
 21
-22.391
  0
LINE
  8
0
 10
67.1
 11
63.75
 20
-22.391
 21
-22.391
  0
ENDSEC
  0
SECTION
  2
OBJECTS
  0
DICTIONARY
  0
ENDSEC
  0
EOF
