999
dxflib 2.2.0.0
  0
SECTION
  2
HEADER
  9
$ACADVER
  1
AC1015
  9
$HANDSEED
  5
FFFF
  9
$DIMASZ
 40
2.5
  9
$PLIMMIN
 10
0.0
 20
0.0
  9
$DIMEXE
 40
1.25
  9
$DIMGAP
 40
0.625
  9
$PLIMMAX
 10
210.0
 20
297.0
  9
$INSUNITS
 70
4
  9
$DIMSTYLE
  2
Standard
  9
$DIMEXO
 40
0.625
  9
$DIMTXT
 40
2.5
  0
ENDSEC
  0
SECTION
  2
TABLES
  0
TABLE
  2
VPORT
  5
8
100
AcDbSymbolTable
 70
1
  0
VPORT
  5
30
100
AcDbSymbolTableRecord
100
AcDbViewportTableRecord
  2
*Active
 70
0
 10
0.0
 20
0.0
 11
1.0
 21
1.0
 12
286.3055555555554861
 22
148.5
 13
0.0
 23
0.0
 14
10.0
 24
10.0
 15
10.0
 25
10.0
 16
0.0
 26
0.0
 36
1.0
 17
0.0
 27
0.0
 37
0.0
 40
297.0
 41
1.92798353909465
 42
50.0
 43
0.0
 44
0.0
 50
0.0
 51
0.0
 71
0
 72
100
 73
1
 74
3
 75
1
 76
1
 77
0
 78
0
281
0
 65
1
110
0.0
120
0.0
130
0.0
111
1.0
121
0.0
131
0.0
112
0.0
122
1.0
132
0.0
 79
0
146
0.0
  0
ENDTAB
  0
TABLE
  2
LTYPE
  5
5
100
AcDbSymbolTable
 70
21
  0
LTYPE
  5
14
100
AcDbSymbolTableRecord
100
AcDbLinetypeTableRecord
  2
ByBlock
 70
0
  3

 72
65
 73
0
 40
0.0
  0
LTYPE
  5
15
100
AcDbSymbolTableRecord
100
AcDbLinetypeTableRecord
  2
ByLayer
 70
0
  3

 72
65
 73
0
 40
0.0
  0
LTYPE
  5
16
100
AcDbSymbolTableRecord
100
AcDbLinetypeTableRecord
  2
CONTINUOUS
 70
0
  3
Solid line
 72
65
 73
0
 40
0.0
  0
LTYPE
  5
31
100
AcDbSymbolTableRecord
100
AcDbLinetypeTableRecord
  2
DOT
 70
0
  3
Dot . . . . . . . . . . . . . . . . . . . . . .
 72
65
 73
2
 40
6.3499999999999996
 49
0.0
 74
0
 49
-6.3499999999999996
 74
0
  0
LTYPE
  5
32
100
AcDbSymbolTableRecord
100
AcDbLinetypeTableRecord
  2
DOT2
 70
0
  3
Dot (.5x) .....................................
 72
65
 73
2
 40
3.1749999999999998
 49
0.0
 74
0
 49
-3.1749999999999998
 74
0
  0
LTYPE
  5
33
100
AcDbSymbolTableRecord
100
AcDbLinetypeTableRecord
  2
DOTX2
 70
0
  3
Dot (2x) .  .  .  .  .  .  .  .  .  .  .  .  .
 72
65
 73
2
 40
12.6999999999999993
 49
0.0
 74
0
 49
-12.6999999999999993
 74
0
  0
LTYPE
  5
34
100
AcDbSymbolTableRecord
100
AcDbLinetypeTableRecord
  2
DASHED
 70
0
  3
Dashed __ __ __ __ __ __ __ __ __ __ __ __ __ _
 72
65
 73
2
 40
19.0500000000000007
 49
12.6999999999999993
 74
0
 49
-6.3499999999999996
 74
0
  0
LTYPE
  5
35
100
AcDbSymbolTableRecord
100
AcDbLinetypeTableRecord
  2
DASHED2
 70
0
  3
Dashed (.5x) _ _ _ _ _ _ _ _ _ _ _ _ _ _ _ _ _
 72
65
 73
2
 40
9.5250000000000004
 49
6.3499999999999996
 74
0
 49
-3.1749999999999998
 74
0
  0
LTYPE
  5
36
100
AcDbSymbolTableRecord
100
AcDbLinetypeTableRecord
  2
DASHEDX2
 70
0
  3
Dashed (2x) ____  ____  ____  ____  ____  ___
 72
65
 73
2
 40
38.1000000000000014
 49
25.3999999999999986
 74
0
 49
-12.6999999999999993
 74
0
  0
LTYPE
  5
37
100
AcDbSymbolTableRecord
100
AcDbLinetypeTableRecord
  2
DASHDOT
 70
0
  3
Dash dot __ . __ . __ . __ . __ . __ . __ . __
 72
65
 73
4
 40
25.3999999999999986
 49
12.6999999999999993
 74
0
 49
-6.3499999999999996
 74
0
 49
0.0
 74
0
 49
-6.3499999999999996
 74
0
  0
LTYPE
  5
38
100
AcDbSymbolTableRecord
100
AcDbLinetypeTableRecord
  2
DASHDOT2
 70
0
  3
Dash dot (.5x) _._._._._._._._._._._._._._._.
 72
65
 73
4
 40
12.6999999999999993
 49
6.3499999999999996
 74
0
 49
-3.1749999999999998
 74
0
 49
0.0
 74
0
 49
-3.1749999999999998
 74
0
  0
LTYPE
  5
39
100
AcDbSymbolTableRecord
100
AcDbLinetypeTableRecord
  2
DASHDOTX2
 70
0
  3
Dash dot (2x) ____  .  ____  .  ____  .  ___
 72
65
 73
4
 40
50.7999999999999972
 49
25.3999999999999986
 74
0
 49
-12.6999999999999993
 74
0
 49
0.0
 74
0
 49
-12.6999999999999993
 74
0
  0
LTYPE
  5
3A
100
AcDbSymbolTableRecord
100
AcDbLinetypeTableRecord
  2
DIVIDE
 70
0
  3
Divide ____ . . ____ . . ____ . . ____ . . ____
 72
65
 73
6
 40
31.75
 49
12.6999999999999993
 74
0
 49
-6.3499999999999996
 74
0
 49
0.0
 74
0
 49
-6.3499999999999996
 74
0
 49
0.0
 74
0
 49
-6.3499999999999996
 74
0
  0
LTYPE
  5
3B
100
AcDbSymbolTableRecord
100
AcDbLinetypeTableRecord
  2
DIVIDE2
 70
0
  3
Divide (.5x) __..__..__..__..__..__..__..__.._
 72
65
 73
6
 40
15.875
 49
6.3499999999999996
 74
0
 49
-3.1749999999999998
 74
0
 49
0.0
 74
0
 49
-3.1749999999999998
 74
0
 49
0.0
 74
0
 49
-3.1749999999999998
 74
0
  0
LTYPE
  5
3C
100
AcDbSymbolTableRecord
100
AcDbLinetypeTableRecord
  2
DIVIDEX2
 70
0
  3
Divide (2x) ________  .  .  ________  .  .  _
 72
65
 73
6
 40
63.5
 49
25.3999999999999986
 74
0
 49
-12.6999999999999993
 74
0
 49
0.0
 74
0
 49
-12.6999999999999993
 74
0
 49
0.0
 74
0
 49
-12.6999999999999993
 74
0
  0
LTYPE
  5
3D
100
AcDbSymbolTableRecord
100
AcDbLinetypeTableRecord
  2
CENTER
 70
0
  3
Center ____ _ ____ _ ____ _ ____ _ ____ _ ____
 72
65
 73
4
 40
50.7999999999999972
 49
31.75
 74
0
 49
-6.3499999999999996
 74
0
 49
6.3499999999999996
 74
0
 49
-6.3499999999999996
 74
0
  0
LTYPE
  5
3E
100
AcDbSymbolTableRecord
100
AcDbLinetypeTableRecord
  2
CENTER2
 70
0
  3
Center (.5x) ___ _ ___ _ ___ _ ___ _ ___ _ ___
 72
65
 73
4
 40
28.5749999999999993
 49
19.0500000000000007
 74
0
 49
-3.1749999999999998
 74
0
 49
3.1749999999999998
 74
0
 49
-3.1749999999999998
 74
0
  0
LTYPE
  5
3F
100
AcDbSymbolTableRecord
100
AcDbLinetypeTableRecord
  2
CENTERX2
 70
0
  3
Center (2x) ________  __  ________  __  _____
 72
65
 73
4
 40
101.5999999999999943
 49
63.5
 74
0
 49
-12.6999999999999993
 74
0
 49
12.6999999999999993
 74
0
 49
-12.6999999999999993
 74
0
  0
LTYPE
  5
40
100
AcDbSymbolTableRecord
100
AcDbLinetypeTableRecord
  2
BORDER
 70
0
  3
Border __ __ . __ __ . __ __ . __ __ . __ __ .
 72
65
 73
6
 40
44.4500000000000028
 49
12.6999999999999993
 74
0
 49
-6.3499999999999996
 74
0
 49
12.6999999999999993
 74
0
 49
-6.3499999999999996
 74
0
 49
0.0
 74
0
 49
-6.3499999999999996
 74
0
  0
LTYPE
  5
41
100
AcDbSymbolTableRecord
100
AcDbLinetypeTableRecord
  2
BORDER2
 70
0
  3
Border (.5x) __.__.__.__.__.__.__.__.__.__.__.
 72
65
 73
6
 40
22.2250000000000014
 49
6.3499999999999996
 74
0
 49
-3.1749999999999998
 74
0
 49
6.3499999999999996
 74
0
 49
-3.1749999999999998
 74
0
 49
0.0
 74
0
 49
-3.1749999999999998
 74
0
  0
LTYPE
  5
42
100
AcDbSymbolTableRecord
100
AcDbLinetypeTableRecord
  2
BORDERX2
 70
0
  3
Border (2x) ____  ____  .  ____  ____  .  ___
 72
65
 73
6
 40
88.9000000000000057
 49
25.3999999999999986
 74
0
 49
-12.6999999999999993
 74
0
 49
25.3999999999999986
 74
0
 49
-12.6999999999999993
 74
0
 49
0.0
 74
0
 49
-12.6999999999999993
 74
0
  0
ENDTAB
  0
TABLE
  2
LAYER
  5
2
100
AcDbSymbolTable
 70
1
  0
LAYER
  5
10
100
AcDbSymbolTableRecord
100
AcDbLayerTableRecord
  2
0
 70
0
 62
7
  6
CONTINUOUS
370
0
390
F
  0
ENDTAB
  0
TABLE
  2
STYLE
  5
3
100
AcDbSymbolTable
 70
1
  0
STYLE
  5
11
100
AcDbSymbolTableRecord
100
AcDbTextStyleTableRecord
  2
Standard
 70
0
 40
0.0
 41
0.75
 50
0.0
 71
0
 42
2.5
  3
txt
  4

  0
ENDTAB
  0
TABLE
  2
VIEW
  5
6
100
AcDbSymbolTable
 70
0
  0
ENDTAB
  0
TABLE
  2
UCS
  5
7
100
AcDbSymbolTable
 70
0
  0
ENDTAB
  0
TABLE
  2
APPID
  5
9
100
AcDbSymbolTable
 70
1
  0
APPID
  5
12
100
AcDbSymbolTableRecord
100
AcDbRegAppTableRecord
  2
ACAD
 70
0
  0
ENDTAB
  0
TABLE
  2
DIMSTYLE
  5
A
100
AcDbSymbolTable
 70
1
100
AcDbDimStyleTable
 71
0
  0
DIMSTYLE
105
27
100
AcDbSymbolTableRecord
100
AcDbDimStyleTableRecord
  2
Standard
 41
2.5
 42
0.625
 43
3.75
 44
1.25
 70
0
 73
0
 74
0
 77
1
 78
8
140
2.5
141
2.5
143
0.03937007874016
147
0.625
171
3
172
1
271
2
272
2
274
3
278
44
283
0
284
8
340
11
  0
ENDTAB
  0
TABLE
  2
BLOCK_RECORD
  5
1
100
AcDbSymbolTable
 70
1
  0
BLOCK_RECORD
  5
1F
100
AcDbSymbolTableRecord
100
AcDbBlockTableRecord
  2
*Model_Space
340
22
  0
BLOCK_RECORD
  5
1B
100
AcDbSymbolTableRecord
100
AcDbBlockTableRecord
  2
*Paper_Space
340
1E
  0
BLOCK_RECORD
  5
23
100
AcDbSymbolTableRecord
100
AcDbBlockTableRecord
  2
*Paper_Space0
340
26
  0
ENDTAB
  0
ENDSEC
  0
SECTION
  2
BLOCKS
  0
BLOCK
  5
20
100
AcDbEntity
  8
0
100
AcDbBlockBegin
  2
*Model_Space
 70
0
 10
0.0
 20
0.0
 30
0.0
  3
*Model_Space
  1

  0
ENDBLK
  5
21
100
AcDbEntity
  8
0
100
AcDbBlockEnd
  0
BLOCK
  5
1C
100
AcDbEntity
 67
1
  8
0
100
AcDbBlockBegin
  2
*Paper_Space
 70
0
 10
0.0
 20
0.0
 30
0.0
  3
*Paper_Space
  1

  0
ENDBLK
  5
1D
100
AcDbEntity
 67
1
  8
0
100
AcDbBlockEnd
  0
BLOCK
  5
24
100
AcDbEntity
  8
0
100
AcDbBlockBegin
  2
*Paper_Space0
 70
0
 10
0.0
 20
0.0
 30
0.0
  3
*Paper_Space0
  1

  0
ENDBLK
  5
25
100
AcDbEntity
  8
0
100
AcDbBlockEnd
  0
ENDSEC
  0
SECTION
  2
ENTITIES
  0
LINE
  5
43
100
AcDbEntity
100
AcDbLine
  8
0
 62
256
370
-1
  6
ByLayer
 10
62.25
 20
-22.3909999999999982
 30
0.0
 11
62.25
 21
-15.391
 31
0.0
  0
LINE
  5
44
100
AcDbEntity
100
AcDbLine
  8
0
 62
256
370
-1
  6
ByLayer
 10
62.25
 20
-15.391
 30
0.0
 11
67.0999999999999943
 21
-15.391
 31
0.0
  0
LINE
  5
45
100
AcDbEntity
100
AcDbLine
  8
0
 62
256
370
-1
  6
ByLayer
 10
67.0999999999999943
 20
-15.391
 30
0.0
 11
67.0999999999999943
 21
53.1730000000000018
 31
0.0
  0
LINE
  5
46
100
AcDbEntity
100
AcDbLine
  8
0
 62
256
370
-1
  6
ByLayer
 10
67.0999999999999943
 20
53.1730000000000018
 30
0.0
 11
62.25
 21
53.1730000000000018
 31
0.0
  0
LINE
  5
47
100
AcDbEntity
100
AcDbLine
  8
0
 62
256
370
-1
  6
ByLayer
 10
62.25
 20
53.1730000000000018
 30
0.0
 11
62.25
 21
60.1730000000000018
 31
0.0
  0
LINE
  5
48
100
AcDbEntity
100
AcDbLine
  8
0
 62
256
370
-1
  6
ByLayer
 10
62.25
 20
60.1730000000000018
 30
0.0
 11
67.0999999999999943
 21
60.1730000000000018
 31
0.0
  0
LINE
  5
49
100
AcDbEntity
100
AcDbLine
  8
0
 62
256
370
-1
  6
ByLayer
 10
67.0999999999999943
 20
60.1730000000000018
 30
0.0
 11
67.0999999999999943
 21
104.9500000000000028
 31
0.0
  0
LINE
  5
4A
100
AcDbEntity
100
AcDbLine
  8
0
 62
256
370
-1
  6
ByLayer
 10
67.0999999999999943
 20
104.9500000000000028
 30
0.0
 11
73.125
 21
104.9500000000000028
 31
0.0
  0
LINE
  5
4B
100
AcDbEntity
100
AcDbLine
  8
0
 62
256
370
-1
  6
ByLayer
 10
73.125
 20
104.9500000000000028
 30
0.0
 11
73.125
 21
101.5999999999999943
 31
0.0
  0
LINE
  5
4C
100
AcDbEntity
100
AcDbLine
  8
0
 62
256
370
-1
  6
ByLayer
 10
73.125
 20
101.5999999999999943
 30
0.0
 11
80.125
 21
101.5999999999999943
 31
0.0
  0
LINE
  5
4D
100
AcDbEntity
100
AcDbLine
  8
0
 62
256
370
-1
  6
ByLayer
 10
80.125
 20
101.5999999999999943
 30
0.0
 11
80.125
 21
104.9500000000000028
 31
0.0
  0
LINE
  5
4E
100
AcDbEntity
100
AcDbLine
  8
0
 62
256
370
-1
  6
ByLayer
 10
80.125
 20
104.9500000000000028
 30
0.0
 11
86.1500000000000057
 21
104.9500000000000028
 31
0.0
  0
LINE
  5
4F
100
AcDbEntity
100
AcDbLine
  8
0
 62
256
370
-1
  6
ByLayer
 10
86.1500000000000057
 20
104.9500000000000028
 30
0.0
 11
86.1500000000000057
 21
72.605000000000004
 31
0.0
  0
LINE
  5
50
100
AcDbEntity
100
AcDbLine
  8
0
 62
256
370
-1
  6
ByLayer
 10
86.1500000000000057
 20
72.605000000000004
 30
0.0
 11
84.75
 21
72.605000000000004
 31
0.0
  0
LINE
  5
51
100
AcDbEntity
100
AcDbLine
  8
0
 62
256
370
-1
  6
ByLayer
 10
84.75
 20
72.605000000000004
 30
0.0
 11
84.7249999999999943
 21
72.6029999999999944
 31
0.0
  0
LINE
  5
52
100
AcDbEntity
100
AcDbLine
  8
0
 62
256
370
-1
  6
ByLayer
 10
84.7249999999999943
 20
72.6029999999999944
 30
0.0
 11
84.7000000000000028
 21
72.5990000000000038
 31
0.0
  0
LINE
  5
53
100
AcDbEntity
100
AcDbLine
  8
0
 62
256
370
-1
  6
ByLayer
 10
84.7000000000000028
 20
72.5990000000000038
 30
0.0
 11
84.6760000000000019
 21
72.590999999999994
 31
0.0
  0
LINE
  5
54
100
AcDbEntity
100
AcDbLine
  8
0
 62
256
370
-1
  6
ByLayer
 10
84.6760000000000019
 20
72.590999999999994
 30
0.0
 11
84.6539999999999964
 21
72.5799999999999983
 31
0.0
  0
LINE
  5
55
100
AcDbEntity
100
AcDbLine
  8
0
 62
256
370
-1
  6
ByLayer
 10
84.6539999999999964
 20
72.5799999999999983
 30
0.0
 11
84.632000000000005
 21
72.5669999999999931
 31
0.0
  0
LINE
  5
56
100
AcDbEntity
100
AcDbLine
  8
0
 62
256
370
-1
  6
ByLayer
 10
84.632000000000005
 20
72.5669999999999931
 30
0.0
 11
84.6129999999999995
 21
72.5510000000000019
 31
0.0
  0
LINE
  5
57
100
AcDbEntity
100
AcDbLine
  8
0
 62
256
370
-1
  6
ByLayer
 10
84.6129999999999995
 20
72.5510000000000019
 30
0.0
 11
84.5960000000000036
 21
72.5319999999999965
 31
0.0
  0
LINE
  5
58
100
AcDbEntity
100
AcDbLine
  8
0
 62
256
370
-1
  6
ByLayer
 10
84.5960000000000036
 20
72.5319999999999965
 30
0.0
 11
84.5810000000000031
 21
72.5120000000000005
 31
0.0
  0
LINE
  5
59
100
AcDbEntity
100
AcDbLine
  8
0
 62
256
370
-1
  6
ByLayer
 10
84.5810000000000031
 20
72.5120000000000005
 30
0.0
 11
84.5690000000000026
 21
72.4899999999999949
 31
0.0
  0
LINE
  5
5A
100
AcDbEntity
100
AcDbLine
  8
0
 62
256
370
-1
  6
ByLayer
 10
84.5690000000000026
 20
72.4899999999999949
 30
0.0
 11
84.5600000000000023
 21
72.4669999999999987
 31
0.0
  0
LINE
  5
5B
100
AcDbEntity
100
AcDbLine
  8
0
 62
256
370
-1
  6
ByLayer
 10
84.5600000000000023
 20
72.4669999999999987
 30
0.0
 11
84.554000000000002
 21
72.4419999999999931
 31
0.0
  0
LINE
  5
5C
100
AcDbEntity
100
AcDbLine
  8
0
 62
256
370
-1
  6
ByLayer
 10
84.554000000000002
 20
72.4419999999999931
 30
0.0
 11
84.5499999999999972
 21
72.4180000000000064
 31
0.0
  0
LINE
  5
5D
100
AcDbEntity
100
AcDbLine
  8
0
 62
256
370
-1
  6
ByLayer
 10
84.5499999999999972
 20
72.4180000000000064
 30
0.0
 11
84.5499999999999972
 21
63.7920000000000016
 31
0.0
  0
LINE
  5
5E
100
AcDbEntity
100
AcDbLine
  8
0
 62
256
370
-1
  6
ByLayer
 10
84.5499999999999972
 20
63.7920000000000016
 30
0.0
 11
84.554000000000002
 21
63.7680000000000007
 31
0.0
  0
LINE
  5
5F
100
AcDbEntity
100
AcDbLine
  8
0
 62
256
370
-1
  6
ByLayer
 10
84.554000000000002
 20
63.7680000000000007
 30
0.0
 11
84.5600000000000023
 21
63.7430000000000021
 31
0.0
  0
LINE
  5
60
100
AcDbEntity
100
AcDbLine
  8
0
 62
256
370
-1
  6
ByLayer
 10
84.5600000000000023
 20
63.7430000000000021
 30
0.0
 11
84.5690000000000026
 21
63.7199999999999989
 31
0.0
  0
LINE
  5
61
100
AcDbEntity
100
AcDbLine
  8
0
 62
256
370
-1
  6
ByLayer
 10
84.5690000000000026
 20
63.7199999999999989
 30
0.0
 11
84.5810000000000031
 21
63.6980000000000004
 31
0.0
  0
LINE
  5
62
100
AcDbEntity
100
AcDbLine
  8
0
 62
256
370
-1
  6
ByLayer
 10
84.5810000000000031
 20
63.6980000000000004
 30
0.0
 11
84.5960000000000036
 21
63.6779999999999973
 31
0.0
  0
LINE
  5
63
100
AcDbEntity
100
AcDbLine
  8
0
 62
256
370
-1
  6
ByLayer
 10
84.5960000000000036
 20
63.6779999999999973
 30
0.0
 11
84.6129999999999995
 21
63.6589999999999989
 31
0.0
  0
LINE
  5
64
100
AcDbEntity
100
AcDbLine
  8
0
 62
256
370
-1
  6
ByLayer
 10
84.6129999999999995
 20
63.6589999999999989
 30
0.0
 11
84.632000000000005
 21
63.6430000000000007
 31
0.0
  0
LINE
  5
65
100
AcDbEntity
100
AcDbLine
  8
0
 62
256
370
-1
  6
ByLayer
 10
84.632000000000005
 20
63.6430000000000007
 30
0.0
 11
84.6539999999999964
 21
63.6300000000000026
 31
0.0
  0
LINE
  5
66
100
AcDbEntity
100
AcDbLine
  8
0
 62
256
370
-1
  6
ByLayer
 10
84.6539999999999964
 20
63.6300000000000026
 30
0.0
 11
84.6760000000000019
 21
63.6189999999999998
 31
0.0
  0
LINE
  5
67
100
AcDbEntity
100
AcDbLine
  8
0
 62
256
370
-1
  6
ByLayer
 10
84.6760000000000019
 20
63.6189999999999998
 30
0.0
 11
84.7000000000000028
 21
63.6109999999999971
 31
0.0
  0
LINE
  5
68
100
AcDbEntity
100
AcDbLine
  8
0
 62
256
370
-1
  6
ByLayer
 10
84.7000000000000028
 20
63.6109999999999971
 30
0.0
 11
84.7249999999999943
 21
63.6069999999999993
 31
0.0
  0
LINE
  5
69
100
AcDbEntity
100
AcDbLine
  8
0
 62
256
370
-1
  6
ByLayer
 10
84.7249999999999943
 20
63.6069999999999993
 30
0.0
 11
84.75
 21
63.6049999999999969
 31
0.0
  0
LINE
  5
6A
100
AcDbEntity
100
AcDbLine
  8
0
 62
256
370
-1
  6
ByLayer
 10
84.75
 20
63.6049999999999969
 30
0.0
 11
86.1500000000000057
 21
63.6049999999999969
 31
0.0
  0
LINE
  5
6B
100
AcDbEntity
100
AcDbLine
  8
0
 62
256
370
-1
  6
ByLayer
 10
86.1500000000000057
 20
63.6049999999999969
 30
0.0
 11
86.1500000000000057
 21
60.1730000000000018
 31
0.0
  0
LINE
  5
6C
100
AcDbEntity
100
AcDbLine
  8
0
 62
256
370
-1
  6
ByLayer
 10
86.1500000000000057
 20
60.1730000000000018
 30
0.0
 11
89.5
 21
60.1730000000000018
 31
0.0
  0
LINE
  5
6D
100
AcDbEntity
100
AcDbLine
  8
0
 62
256
370
-1
  6
ByLayer
 10
89.5
 20
60.1730000000000018
 30
0.0
 11
89.5
 21
53.1730000000000018
 31
0.0
  0
LINE
  5
6E
100
AcDbEntity
100
AcDbLine
  8
0
 62
256
370
-1
  6
ByLayer
 10
89.5
 20
53.1730000000000018
 30
0.0
 11
86.1500000000000057
 21
53.1730000000000018
 31
0.0
  0
LINE
  5
6F
100
AcDbEntity
100
AcDbLine
  8
0
 62
256
370
-1
  6
ByLayer
 10
86.1500000000000057
 20
53.1730000000000018
 30
0.0
 11
86.1500000000000057
 21
47.2049999999999983
 31
0.0
  0
LINE
  5
70
100
AcDbEntity
100
AcDbLine
  8
0
 62
256
370
-1
  6
ByLayer
 10
86.1500000000000057
 20
47.2049999999999983
 30
0.0
 11
84.75
 21
47.2049999999999983
 31
0.0
  0
LINE
  5
71
100
AcDbEntity
100
AcDbLine
  8
0
 62
256
370
-1
  6
ByLayer
 10
84.75
 20
47.2049999999999983
 30
0.0
 11
84.7249999999999943
 21
47.203000000000003
 31
0.0
  0
LINE
  5
72
100
AcDbEntity
100
AcDbLine
  8
0
 62
256
370
-1
  6
ByLayer
 10
84.7249999999999943
 20
47.203000000000003
 30
0.0
 11
84.7000000000000028
 21
47.1989999999999981
 31
0.0
  0
LINE
  5
73
100
AcDbEntity
100
AcDbLine
  8
0
 62
256
370
-1
  6
ByLayer
 10
84.7000000000000028
 20
47.1989999999999981
 30
0.0
 11
84.6760000000000019
 21
47.1910000000000025
 31
0.0
  0
LINE
  5
74
100
AcDbEntity
100
AcDbLine
  8
0
 62
256
370
-1
  6
ByLayer
 10
84.6760000000000019
 20
47.1910000000000025
 30
0.0
 11
84.6539999999999964
 21
47.1799999999999997
 31
0.0
  0
LINE
  5
75
100
AcDbEntity
100
AcDbLine
  8
0
 62
256
370
-1
  6
ByLayer
 10
84.6539999999999964
 20
47.1799999999999997
 30
0.0
 11
84.632000000000005
 21
47.1670000000000016
 31
0.0
  0
LINE
  5
76
100
AcDbEntity
100
AcDbLine
  8
0
 62
256
370
-1
  6
ByLayer
 10
84.632000000000005
 20
47.1670000000000016
 30
0.0
 11
84.6129999999999995
 21
47.1510000000000034
 31
0.0
  0
LINE
  5
77
100
AcDbEntity
100
AcDbLine
  8
0
 62
256
370
-1
  6
ByLayer
 10
84.6129999999999995
 20
47.1510000000000034
 30
0.0
 11
84.5960000000000036
 21
47.1319999999999979
 31
0.0
  0
LINE
  5
78
100
AcDbEntity
100
AcDbLine
  8
0
 62
256
370
-1
  6
ByLayer
 10
84.5960000000000036
 20
47.1319999999999979
 30
0.0
 11
84.5810000000000031
 21
47.1120000000000019
 31
0.0
  0
LINE
  5
79
100
AcDbEntity
100
AcDbLine
  8
0
 62
256
370
-1
  6
ByLayer
 10
84.5810000000000031
 20
47.1120000000000019
 30
0.0
 11
84.5690000000000026
 21
47.0900000000000034
 31
0.0
  0
LINE
  5
7A
100
AcDbEntity
100
AcDbLine
  8
0
 62
256
370
-1
  6
ByLayer
 10
84.5690000000000026
 20
47.0900000000000034
 30
0.0
 11
84.5600000000000023
 21
47.0670000000000002
 31
0.0
  0
LINE
  5
7B
100
AcDbEntity
100
AcDbLine
  8
0
 62
256
370
-1
  6
ByLayer
 10
84.5600000000000023
 20
47.0670000000000002
 30
0.0
 11
84.554000000000002
 21
47.0420000000000016
 31
0.0
  0
LINE
  5
7C
100
AcDbEntity
100
AcDbLine
  8
0
 62
256
370
-1
  6
ByLayer
 10
84.554000000000002
 20
47.0420000000000016
 30
0.0
 11
84.5499999999999972
 21
47.0180000000000007
 31
0.0
  0
LINE
  5
7D
100
AcDbEntity
100
AcDbLine
  8
0
 62
256
370
-1
  6
ByLayer
 10
84.5499999999999972
 20
47.0180000000000007
 30
0.0
 11
84.5499999999999972
 21
38.392000000000003
 31
0.0
  0
LINE
  5
7E
100
AcDbEntity
100
AcDbLine
  8
0
 62
256
370
-1
  6
ByLayer
 10
84.5499999999999972
 20
38.392000000000003
 30
0.0
 11
84.554000000000002
 21
38.3680000000000021
 31
0.0
  0
LINE
  5
7F
100
AcDbEntity
100
AcDbLine
  8
0
 62
256
370
-1
  6
ByLayer
 10
84.554000000000002
 20
38.3680000000000021
 30
0.0
 11
84.5600000000000023
 21
38.3430000000000035
 31
0.0
  0
LINE
  5
80
100
AcDbEntity
100
AcDbLine
  8
0
 62
256
370
-1
  6
ByLayer
 10
84.5600000000000023
 20
38.3430000000000035
 30
0.0
 11
84.5690000000000026
 21
38.3200000000000003
 31
0.0
  0
LINE
  5
81
100
AcDbEntity
100
AcDbLine
  8
0
 62
256
370
-1
  6
ByLayer
 10
84.5690000000000026
 20
38.3200000000000003
 30
0.0
 11
84.5810000000000031
 21
38.2980000000000018
 31
0.0
  0
LINE
  5
82
100
AcDbEntity
100
AcDbLine
  8
0
 62
256
370
-1
  6
ByLayer
 10
84.5810000000000031
 20
38.2980000000000018
 30
0.0
 11
84.5960000000000036
 21
38.2779999999999987
 31
0.0
  0
LINE
  5
83
100
AcDbEntity
100
AcDbLine
  8
0
 62
256
370
-1
  6
ByLayer
 10
84.5960000000000036
 20
38.2779999999999987
 30
0.0
 11
84.6129999999999995
 21
38.2590000000000003
 31
0.0
  0
LINE
  5
84
100
AcDbEntity
100
AcDbLine
  8
0
 62
256
370
-1
  6
ByLayer
 10
84.6129999999999995
 20
38.2590000000000003
 30
0.0
 11
84.632000000000005
 21
38.2430000000000021
 31
0.0
  0
LINE
  5
85
100
AcDbEntity
100
AcDbLine
  8
0
 62
256
370
-1
  6
ByLayer
 10
84.632000000000005
 20
38.2430000000000021
 30
0.0
 11
84.6539999999999964
 21
38.2299999999999969
 31
0.0
  0
LINE
  5
86
100
AcDbEntity
100
AcDbLine
  8
0
 62
256
370
-1
  6
ByLayer
 10
84.6539999999999964
 20
38.2299999999999969
 30
0.0
 11
84.6760000000000019
 21
38.2190000000000012
 31
0.0
  0
LINE
  5
87
100
AcDbEntity
100
AcDbLine
  8
0
 62
256
370
-1
  6
ByLayer
 10
84.6760000000000019
 20
38.2190000000000012
 30
0.0
 11
84.7000000000000028
 21
38.2109999999999985
 31
0.0
  0
LINE
  5
88
100
AcDbEntity
100
AcDbLine
  8
0
 62
256
370
-1
  6
ByLayer
 10
84.7000000000000028
 20
38.2109999999999985
 30
0.0
 11
84.7249999999999943
 21
38.2070000000000007
 31
0.0
  0
LINE
  5
89
100
AcDbEntity
100
AcDbLine
  8
0
 62
256
370
-1
  6
ByLayer
 10
84.7249999999999943
 20
38.2070000000000007
 30
0.0
 11
84.75
 21
38.2049999999999983
 31
0.0
  0
LINE
  5
8A
100
AcDbEntity
100
AcDbLine
  8
0
 62
256
370
-1
  6
ByLayer
 10
84.75
 20
38.2049999999999983
 30
0.0
 11
86.1500000000000057
 21
38.2049999999999983
 31
0.0
  0
LINE
  5
8B
100
AcDbEntity
100
AcDbLine
  8
0
 62
256
370
-1
  6
ByLayer
 10
86.1500000000000057
 20
38.2049999999999983
 30
0.0
 11
86.1500000000000057
 21
21.8049999999999997
 31
0.0
  0
LINE
  5
8C
100
AcDbEntity
100
AcDbLine
  8
0
 62
256
370
-1
  6
ByLayer
 10
86.1500000000000057
 20
21.8049999999999997
 30
0.0
 11
84.75
 21
21.8049999999999997
 31
0.0
  0
LINE
  5
8D
100
AcDbEntity
100
AcDbLine
  8
0
 62
256
370
-1
  6
ByLayer
 10
84.75
 20
21.8049999999999997
 30
0.0
 11
84.7249999999999943
 21
21.8030000000000008
 31
0.0
  0
LINE
  5
8E
100
AcDbEntity
100
AcDbLine
  8
0
 62
256
370
-1
  6
ByLayer
 10
84.7249999999999943
 20
21.8030000000000008
 30
0.0
 11
84.7000000000000028
 21
21.7989999999999995
 31
0.0
  0
LINE
  5
8F
100
AcDbEntity
100
AcDbLine
  8
0
 62
256
370
-1
  6
ByLayer
 10
84.7000000000000028
 20
21.7989999999999995
 30
0.0
 11
84.6760000000000019
 21
21.7910000000000004
 31
0.0
  0
LINE
  5
90
100
AcDbEntity
100
AcDbLine
  8
0
 62
256
370
-1
  6
ByLayer
 10
84.6760000000000019
 20
21.7910000000000004
 30
0.0
 11
84.6539999999999964
 21
21.7800000000000011
 31
0.0
  0
LINE
  5
91
100
AcDbEntity
100
AcDbLine
  8
0
 62
256
370
-1
  6
ByLayer
 10
84.6539999999999964
 20
21.7800000000000011
 30
0.0
 11
84.632000000000005
 21
21.7669999999999995
 31
0.0
  0
LINE
  5
92
100
AcDbEntity
100
AcDbLine
  8
0
 62
256
370
-1
  6
ByLayer
 10
84.632000000000005
 20
21.7669999999999995
 30
0.0
 11
84.6129999999999995
 21
21.7510000000000012
 31
0.0
  0
LINE
  5
93
100
AcDbEntity
100
AcDbLine
  8
0
 62
256
370
-1
  6
ByLayer
 10
84.6129999999999995
 20
21.7510000000000012
 30
0.0
 11
84.5960000000000036
 21
21.7319999999999993
 31
0.0
  0
LINE
  5
94
100
AcDbEntity
100
AcDbLine
  8
0
 62
256
370
-1
  6
ByLayer
 10
84.5960000000000036
 20
21.7319999999999993
 30
0.0
 11
84.5810000000000031
 21
21.7119999999999997
 31
0.0
  0
LINE
  5
95
100
AcDbEntity
100
AcDbLine
  8
0
 62
256
370
-1
  6
ByLayer
 10
84.5810000000000031
 20
21.7119999999999997
 30
0.0
 11
84.5690000000000026
 21
21.6900000000000013
 31
0.0
  0
LINE
  5
96
100
AcDbEntity
100
AcDbLine
  8
0
 62
256
370
-1
  6
ByLayer
 10
84.5690000000000026
 20
21.6900000000000013
 30
0.0
 11
84.5600000000000023
 21
21.6670000000000016
 31
0.0
  0
LINE
  5
97
100
AcDbEntity
100
AcDbLine
  8
0
 62
256
370
-1
  6
ByLayer
 10
84.5600000000000023
 20
21.6670000000000016
 30
0.0
 11
84.554000000000002
 21
21.6419999999999995
 31
0.0
  0
LINE
  5
98
100
AcDbEntity
100
AcDbLine
  8
0
 62
256
370
-1
  6
ByLayer
 10
84.554000000000002
 20
21.6419999999999995
 30
0.0
 11
84.5499999999999972
 21
21.6179999999999986
 31
0.0
  0
LINE
  5
99
100
AcDbEntity
100
AcDbLine
  8
0
 62
256
370
-1
  6
ByLayer
 10
84.5499999999999972
 20
21.6179999999999986
 30
0.0
 11
84.5499999999999972
 21
12.9920000000000009
 31
0.0
  0
LINE
  5
9A
100
AcDbEntity
100
AcDbLine
  8
0
 62
256
370
-1
  6
ByLayer
 10
84.5499999999999972
 20
12.9920000000000009
 30
0.0
 11
84.554000000000002
 21
12.968
 31
0.0
  0
LINE
  5
9B
100
AcDbEntity
100
AcDbLine
  8
0
 62
256
370
-1
  6
ByLayer
 10
84.554000000000002
 20
12.968
 30
0.0
 11
84.5600000000000023
 21
12.9429999999999996
 31
0.0
  0
LINE
  5
9C
100
AcDbEntity
100
AcDbLine
  8
0
 62
256
370
-1
  6
ByLayer
 10
84.5600000000000023
 20
12.9429999999999996
 30
0.0
 11
84.5690000000000026
 21
12.9199999999999999
 31
0.0
  0
LINE
  5
9D
100
AcDbEntity
100
AcDbLine
  8
0
 62
256
370
-1
  6
ByLayer
 10
84.5690000000000026
 20
12.9199999999999999
 30
0.0
 11
84.5810000000000031
 21
12.8979999999999997
 31
0.0
  0
LINE
  5
9E
100
AcDbEntity
100
AcDbLine
  8
0
 62
256
370
-1
  6
ByLayer
 10
84.5810000000000031
 20
12.8979999999999997
 30
0.0
 11
84.5960000000000036
 21
12.8780000000000001
 31
0.0
  0
LINE
  5
9F
100
AcDbEntity
100
AcDbLine
  8
0
 62
256
370
-1
  6
ByLayer
 10
84.5960000000000036
 20
12.8780000000000001
 30
0.0
 11
84.6129999999999995
 21
12.859
 31
0.0
  0
LINE
  5
A0
100
AcDbEntity
100
AcDbLine
  8
0
 62
256
370
-1
  6
ByLayer
 10
84.6129999999999995
 20
12.859
 30
0.0
 11
84.632000000000005
 21
12.843
 31
0.0
  0
LINE
  5
A1
100
AcDbEntity
100
AcDbLine
  8
0
 62
256
370
-1
  6
ByLayer
 10
84.632000000000005
 20
12.843
 30
0.0
 11
84.6539999999999964
 21
12.8300000000000001
 31
0.0
  0
LINE
  5
A2
100
AcDbEntity
100
AcDbLine
  8
0
 62
256
370
-1
  6
ByLayer
 10
84.6539999999999964
 20
12.8300000000000001
 30
0.0
 11
84.6760000000000019
 21
12.8190000000000008
 31
0.0
  0
LINE
  5
A3
100
AcDbEntity
100
AcDbLine
  8
0
 62
256
370
-1
  6
ByLayer
 10
84.6760000000000019
 20
12.8190000000000008
 30
0.0
 11
84.7000000000000028
 21
12.8109999999999999
 31
0.0
  0
LINE
  5
A4
100
AcDbEntity
100
AcDbLine
  8
0
 62
256
370
-1
  6
ByLayer
 10
84.7000000000000028
 20
12.8109999999999999
 30
0.0
 11
84.7249999999999943
 21
12.8070000000000004
 31
0.0
  0
LINE
  5
A5
100
AcDbEntity
100
AcDbLine
  8
0
 62
256
370
-1
  6
ByLayer
 10
84.7249999999999943
 20
12.8070000000000004
 30
0.0
 11
84.75
 21
12.8049999999999997
 31
0.0
  0
LINE
  5
A6
100
AcDbEntity
100
AcDbLine
  8
0
 62
256
370
-1
  6
ByLayer
 10
84.75
 20
12.8049999999999997
 30
0.0
 11
86.1500000000000057
 21
12.8049999999999997
 31
0.0
  0
LINE
  5
A7
100
AcDbEntity
100
AcDbLine
  8
0
 62
256
370
-1
  6
ByLayer
 10
86.1500000000000057
 20
12.8049999999999997
 30
0.0
 11
86.1500000000000057
 21
-3.5950000000000002
 31
0.0
  0
LINE
  5
A8
100
AcDbEntity
100
AcDbLine
  8
0
 62
256
370
-1
  6
ByLayer
 10
86.1500000000000057
 20
-3.5950000000000002
 30
0.0
 11
84.75
 21
-3.5950000000000002
 31
0.0
  0
LINE
  5
A9
100
AcDbEntity
100
AcDbLine
  8
0
 62
256
370
-1
  6
ByLayer
 10
84.75
 20
-3.5950000000000002
 30
0.0
 11
84.7249999999999943
 21
-3.597
 31
0.0
  0
LINE
  5
AA
100
AcDbEntity
100
AcDbLine
  8
0
 62
256
370
-1
  6
ByLayer
 10
84.7249999999999943
 20
-3.597
 30
0.0
 11
84.7000000000000028
 21
-3.601
 31
0.0
  0
LINE
  5
AB
100
AcDbEntity
100
AcDbLine
  8
0
 62
256
370
-1
  6
ByLayer
 10
84.7000000000000028
 20
-3.601
 30
0.0
 11
84.6760000000000019
 21
-3.609
 31
0.0
  0
LINE
  5
AC
100
AcDbEntity
100
AcDbLine
  8
0
 62
256
370
-1
  6
ByLayer
 10
84.6760000000000019
 20
-3.609
 30
0.0
 11
84.6539999999999964
 21
-3.6200000000000001
 31
0.0
  0
LINE
  5
AD
100
AcDbEntity
100
AcDbLine
  8
0
 62
256
370
-1
  6
ByLayer
 10
84.6539999999999964
 20
-3.6200000000000001
 30
0.0
 11
84.632000000000005
 21
-3.633
 31
0.0
  0
LINE
  5
AE
100
AcDbEntity
100
AcDbLine
  8
0
 62
256
370
-1
  6
ByLayer
 10
84.632000000000005
 20
-3.633
 30
0.0
 11
84.6129999999999995
 21
-3.649
 31
0.0
  0
LINE
  5
AF
100
AcDbEntity
100
AcDbLine
  8
0
 62
256
370
-1
  6
ByLayer
 10
84.6129999999999995
 20
-3.649
 30
0.0
 11
84.5960000000000036
 21
-3.6680000000000001
 31
0.0
  0
LINE
  5
B0
100
AcDbEntity
100
AcDbLine
  8
0
 62
256
370
-1
  6
ByLayer
 10
84.5960000000000036
 20
-3.6680000000000001
 30
0.0
 11
84.5810000000000031
 21
-3.6880000000000002
 31
0.0
  0
LINE
  5
B1
100
AcDbEntity
100
AcDbLine
  8
0
 62
256
370
-1
  6
ByLayer
 10
84.5810000000000031
 20
-3.6880000000000002
 30
0.0
 11
84.5690000000000026
 21
-3.71
 31
0.0
  0
LINE
  5
B2
100
AcDbEntity
100
AcDbLine
  8
0
 62
256
370
-1
  6
ByLayer
 10
84.5690000000000026
 20
-3.71
 30
0.0
 11
84.5600000000000023
 21
-3.7330000000000001
 31
0.0
  0
LINE
  5
B3
100
AcDbEntity
100
AcDbLine
  8
0
 62
256
370
-1
  6
ByLayer
 10
84.5600000000000023
 20
-3.7330000000000001
 30
0.0
 11
84.554000000000002
 21
-3.758
 31
0.0
  0
LINE
  5
B4
100
AcDbEntity
100
AcDbLine
  8
0
 62
256
370
-1
  6
ByLayer
 10
84.554000000000002
 20
-3.758
 30
0.0
 11
84.5499999999999972
 21
-3.782
 31
0.0
  0
LINE
  5
B5
100
AcDbEntity
100
AcDbLine
  8
0
 62
256
370
-1
  6
ByLayer
 10
84.5499999999999972
 20
-3.782
 30
0.0
 11
84.5499999999999972
 21
-12.4079999999999995
 31
0.0
  0
LINE
  5
B6
100
AcDbEntity
100
AcDbLine
  8
0
 62
256
370
-1
  6
ByLayer
 10
84.5499999999999972
 20
-12.4079999999999995
 30
0.0
 11
84.554000000000002
 21
-12.4320000000000004
 31
0.0
  0
LINE
  5
B7
100
AcDbEntity
100
AcDbLine
  8
0
 62
256
370
-1
  6
ByLayer
 10
84.554000000000002
 20
-12.4320000000000004
 30
0.0
 11
84.5600000000000023
 21
-12.4570000000000007
 31
0.0
  0
LINE
  5
B8
100
AcDbEntity
100
AcDbLine
  8
0
 62
256
370
-1
  6
ByLayer
 10
84.5600000000000023
 20
-12.4570000000000007
 30
0.0
 11
84.5690000000000026
 21
-12.4800000000000004
 31
0.0
  0
LINE
  5
B9
100
AcDbEntity
100
AcDbLine
  8
0
 62
256
370
-1
  6
ByLayer
 10
84.5690000000000026
 20
-12.4800000000000004
 30
0.0
 11
84.5810000000000031
 21
-12.5020000000000007
 31
0.0
  0
LINE
  5
BA
100
AcDbEntity
100
AcDbLine
  8
0
 62
256
370
-1
  6
ByLayer
 10
84.5810000000000031
 20
-12.5020000000000007
 30
0.0
 11
84.5960000000000036
 21
-12.5220000000000002
 31
0.0
  0
LINE
  5
BB
100
AcDbEntity
100
AcDbLine
  8
0
 62
256
370
-1
  6
ByLayer
 10
84.5960000000000036
 20
-12.5220000000000002
 30
0.0
 11
84.6129999999999995
 21
-12.5410000000000004
 31
0.0
  0
LINE
  5
BC
100
AcDbEntity
100
AcDbLine
  8
0
 62
256
370
-1
  6
ByLayer
 10
84.6129999999999995
 20
-12.5410000000000004
 30
0.0
 11
84.632000000000005
 21
-12.5570000000000004
 31
0.0
  0
LINE
  5
BD
100
AcDbEntity
100
AcDbLine
  8
0
 62
256
370
-1
  6
ByLayer
 10
84.632000000000005
 20
-12.5570000000000004
 30
0.0
 11
84.6539999999999964
 21
-12.5700000000000003
 31
0.0
  0
LINE
  5
BE
100
AcDbEntity
100
AcDbLine
  8
0
 62
256
370
-1
  6
ByLayer
 10
84.6539999999999964
 20
-12.5700000000000003
 30
0.0
 11
84.6760000000000019
 21
-12.5809999999999995
 31
0.0
  0
LINE
  5
BF
100
AcDbEntity
100
AcDbLine
  8
0
 62
256
370
-1
  6
ByLayer
 10
84.6760000000000019
 20
-12.5809999999999995
 30
0.0
 11
84.7000000000000028
 21
-12.5890000000000004
 31
0.0
  0
LINE
  5
C0
100
AcDbEntity
100
AcDbLine
  8
0
 62
256
370
-1
  6
ByLayer
 10
84.7000000000000028
 20
-12.5890000000000004
 30
0.0
 11
84.7249999999999943
 21
-12.593
 31
0.0
  0
LINE
  5
C1
100
AcDbEntity
100
AcDbLine
  8
0
 62
256
370
-1
  6
ByLayer
 10
84.7249999999999943
 20
-12.593
 30
0.0
 11
84.75
 21
-12.5950000000000006
 31
0.0
  0
LINE
  5
C2
100
AcDbEntity
100
AcDbLine
  8
0
 62
256
370
-1
  6
ByLayer
 10
84.75
 20
-12.5950000000000006
 30
0.0
 11
86.1500000000000057
 21
-12.5950000000000006
 31
0.0
  0
LINE
  5
C3
100
AcDbEntity
100
AcDbLine
  8
0
 62
256
370
-1
  6
ByLayer
 10
86.1500000000000057
 20
-12.5950000000000006
 30
0.0
 11
86.1500000000000057
 21
-15.391
 31
0.0
  0
LINE
  5
C4
100
AcDbEntity
100
AcDbLine
  8
0
 62
256
370
-1
  6
ByLayer
 10
86.1500000000000057
 20
-15.391
 30
0.0
 11
89.5
 21
-15.391
 31
0.0
  0
LINE
  5
C5
100
AcDbEntity
100
AcDbLine
  8
0
 62
256
370
-1
  6
ByLayer
 10
89.5
 20
-15.391
 30
0.0
 11
89.5
 21
-22.3909999999999982
 31
0.0
  0
LINE
  5
C6
100
AcDbEntity
100
AcDbLine
  8
0
 62
256
370
-1
  6
ByLayer
 10
89.5
 20
-22.3909999999999982
 30
0.0
 11
86.1500000000000057
 21
-22.3909999999999982
 31
0.0
  0
LINE
  5
C7
100
AcDbEntity
100
AcDbLine
  8
0
 62
256
370
-1
  6
ByLayer
 10
86.1500000000000057
 20
-22.3909999999999982
 30
0.0
 11
86.1500000000000057
 21
-28.995000000000001
 31
0.0
  0
LINE
  5
C8
100
AcDbEntity
100
AcDbLine
  8
0
 62
256
370
-1
  6
ByLayer
 10
86.1500000000000057
 20
-28.995000000000001
 30
0.0
 11
84.75
 21
-28.995000000000001
 31
0.0
  0
LINE
  5
C9
100
AcDbEntity
100
AcDbLine
  8
0
 62
256
370
-1
  6
ByLayer
 10
84.75
 20
-28.995000000000001
 30
0.0
 11
84.7249999999999943
 21
-28.9969999999999999
 31
0.0
  0
LINE
  5
CA
100
AcDbEntity
100
AcDbLine
  8
0
 62
256
370
-1
  6
ByLayer
 10
84.7249999999999943
 20
-28.9969999999999999
 30
0.0
 11
84.7000000000000028
 21
-29.0010000000000012
 31
0.0
  0
LINE
  5
CB
100
AcDbEntity
100
AcDbLine
  8
0
 62
256
370
-1
  6
ByLayer
 10
84.7000000000000028
 20
-29.0010000000000012
 30
0.0
 11
84.6760000000000019
 21
-29.0090000000000003
 31
0.0
  0
LINE
  5
CC
100
AcDbEntity
100
AcDbLine
  8
0
 62
256
370
-1
  6
ByLayer
 10
84.6760000000000019
 20
-29.0090000000000003
 30
0.0
 11
84.6539999999999964
 21
-29.0199999999999996
 31
0.0
  0
LINE
  5
CD
100
AcDbEntity
100
AcDbLine
  8
0
 62
256
370
-1
  6
ByLayer
 10
84.6539999999999964
 20
-29.0199999999999996
 30
0.0
 11
84.632000000000005
 21
-29.0330000000000013
 31
0.0
  0
LINE
  5
CE
100
AcDbEntity
100
AcDbLine
  8
0
 62
256
370
-1
  6
ByLayer
 10
84.632000000000005
 20
-29.0330000000000013
 30
0.0
 11
84.6129999999999995
 21
-29.0489999999999995
 31
0.0
  0
LINE
  5
CF
100
AcDbEntity
100
AcDbLine
  8
0
 62
256
370
-1
  6
ByLayer
 10
84.6129999999999995
 20
-29.0489999999999995
 30
0.0
 11
84.5960000000000036
 21
-29.0680000000000014
 31
0.0
  0
LINE
  5
D0
100
AcDbEntity
100
AcDbLine
  8
0
 62
256
370
-1
  6
ByLayer
 10
84.5960000000000036
 20
-29.0680000000000014
 30
0.0
 11
84.5810000000000031
 21
-29.088000000000001
 31
0.0
  0
LINE
  5
D1
100
AcDbEntity
100
AcDbLine
  8
0
 62
256
370
-1
  6
ByLayer
 10
84.5810000000000031
 20
-29.088000000000001
 30
0.0
 11
84.5690000000000026
 21
-29.1099999999999994
 31
0.0
  0
LINE
  5
D2
100
AcDbEntity
100
AcDbLine
  8
0
 62
256
370
-1
  6
ByLayer
 10
84.5690000000000026
 20
-29.1099999999999994
 30
0.0
 11
84.5600000000000023
 21
-29.1329999999999991
 31
0.0
  0
LINE
  5
D3
100
AcDbEntity
100
AcDbLine
  8
0
 62
256
370
-1
  6
ByLayer
 10
84.5600000000000023
 20
-29.1329999999999991
 30
0.0
 11
84.554000000000002
 21
-29.1580000000000013
 31
0.0
  0
LINE
  5
D4
100
AcDbEntity
100
AcDbLine
  8
0
 62
256
370
-1
  6
ByLayer
 10
84.554000000000002
 20
-29.1580000000000013
 30
0.0
 11
84.5499999999999972
 21
-29.1819999999999986
 31
0.0
  0
LINE
  5
D5
100
AcDbEntity
100
AcDbLine
  8
0
 62
256
370
-1
  6
ByLayer
 10
84.5499999999999972
 20
-29.1819999999999986
 30
0.0
 11
84.5499999999999972
 21
-37.8079999999999998
 31
0.0
  0
LINE
  5
D6
100
AcDbEntity
100
AcDbLine
  8
0
 62
256
370
-1
  6
ByLayer
 10
84.5499999999999972
 20
-37.8079999999999998
 30
0.0
 11
84.554000000000002
 21
-37.8320000000000007
 31
0.0
  0
LINE
  5
D7
100
AcDbEntity
100
AcDbLine
  8
0
 62
256
370
-1
  6
ByLayer
 10
84.554000000000002
 20
-37.8320000000000007
 30
0.0
 11
84.5600000000000023
 21
-37.8569999999999993
 31
0.0
  0
LINE
  5
D8
100
AcDbEntity
100
AcDbLine
  8
0
 62
256
370
-1
  6
ByLayer
 10
84.5600000000000023
 20
-37.8569999999999993
 30
0.0
 11
84.5690000000000026
 21
-37.8800000000000026
 31
0.0
  0
LINE
  5
D9
100
AcDbEntity
100
AcDbLine
  8
0
 62
256
370
-1
  6
ByLayer
 10
84.5690000000000026
 20
-37.8800000000000026
 30
0.0
 11
84.5810000000000031
 21
-37.902000000000001
 31
0.0
  0
LINE
  5
DA
100
AcDbEntity
100
AcDbLine
  8
0
 62
256
370
-1
  6
ByLayer
 10
84.5810000000000031
 20
-37.902000000000001
 30
0.0
 11
84.5960000000000036
 21
-37.921999999999997
 31
0.0
  0
LINE
  5
DB
100
AcDbEntity
100
AcDbLine
  8
0
 62
256
370
-1
  6
ByLayer
 10
84.5960000000000036
 20
-37.921999999999997
 30
0.0
 11
84.6129999999999995
 21
-37.9410000000000025
 31
0.0
  0
LINE
  5
DC
100
AcDbEntity
100
AcDbLine
  8
0
 62
256
370
-1
  6
ByLayer
 10
84.6129999999999995
 20
-37.9410000000000025
 30
0.0
 11
84.632000000000005
 21
-37.9570000000000007
 31
0.0
  0
LINE
  5
DD
100
AcDbEntity
100
AcDbLine
  8
0
 62
256
370
-1
  6
ByLayer
 10
84.632000000000005
 20
-37.9570000000000007
 30
0.0
 11
84.6539999999999964
 21
-37.9699999999999989
 31
0.0
  0
LINE
  5
DE
100
AcDbEntity
100
AcDbLine
  8
0
 62
256
370
-1
  6
ByLayer
 10
84.6539999999999964
 20
-37.9699999999999989
 30
0.0
 11
84.6760000000000019
 21
-37.9810000000000016
 31
0.0
  0
LINE
  5
DF
100
AcDbEntity
100
AcDbLine
  8
0
 62
256
370
-1
  6
ByLayer
 10
84.6760000000000019
 20
-37.9810000000000016
 30
0.0
 11
84.7000000000000028
 21
-37.9889999999999972
 31
0.0
  0
LINE
  5
E0
100
AcDbEntity
100
AcDbLine
  8
0
 62
256
370
-1
  6
ByLayer
 10
84.7000000000000028
 20
-37.9889999999999972
 30
0.0
 11
84.7249999999999943
 21
-37.9930000000000021
 31
0.0
  0
LINE
  5
E1
100
AcDbEntity
100
AcDbLine
  8
0
 62
256
370
-1
  6
ByLayer
 10
84.7249999999999943
 20
-37.9930000000000021
 30
0.0
 11
84.75
 21
-37.9949999999999974
 31
0.0
  0
LINE
  5
E2
100
AcDbEntity
100
AcDbLine
  8
0
 62
256
370
-1
  6
ByLayer
 10
84.75
 20
-37.9949999999999974
 30
0.0
 11
86.1500000000000057
 21
-37.9949999999999974
 31
0.0
  0
LINE
  5
E3
100
AcDbEntity
100
AcDbLine
  8
0
 62
256
370
-1
  6
ByLayer
 10
86.1500000000000057
 20
-37.9949999999999974
 30
0.0
 11
86.1500000000000057
 21
-104.9500000000000028
 31
0.0
  0
LINE
  5
E4
100
AcDbEntity
100
AcDbLine
  8
0
 62
256
370
-1
  6
ByLayer
 10
86.1500000000000057
 20
-104.9500000000000028
 30
0.0
 11
80.125
 21
-104.9500000000000028
 31
0.0
  0
LINE
  5
E5
100
AcDbEntity
100
AcDbLine
  8
0
 62
256
370
-1
  6
ByLayer
 10
80.125
 20
-104.9500000000000028
 30
0.0
 11
80.125
 21
-101.5999999999999943
 31
0.0
  0
LINE
  5
E6
100
AcDbEntity
100
AcDbLine
  8
0
 62
256
370
-1
  6
ByLayer
 10
80.125
 20
-101.5999999999999943
 30
0.0
 11
73.125
 21
-101.5999999999999943
 31
0.0
  0
LINE
  5
E7
100
AcDbEntity
100
AcDbLine
  8
0
 62
256
370
-1
  6
ByLayer
 10
73.125
 20
-101.5999999999999943
 30
0.0
 11
73.125
 21
-104.9500000000000028
 31
0.0
  0
LINE
  5
E8
100
AcDbEntity
100
AcDbLine
  8
0
 62
256
370
-1
  6
ByLayer
 10
73.125
 20
-104.9500000000000028
 30
0.0
 11
67.0999999999999943
 21
-104.9500000000000028
 31
0.0
  0
LINE
  5
E9
100
AcDbEntity
100
AcDbLine
  8
0
 62
256
370
-1
  6
ByLayer
 10
67.0999999999999943
 20
-104.9500000000000028
 30
0.0
 11
67.0999999999999943
 21
-22.3909999999999982
 31
0.0
  0
LINE
  5
EA
100
AcDbEntity
100
AcDbLine
  8
0
 62
256
370
-1
  6
ByLayer
 10
67.0999999999999943
 20
-22.3909999999999982
 30
0.0
 11
62.25
 21
-22.3909999999999982
 31
0.0
  0
ENDSEC
  0
SECTION
  2
OBJECTS
  0
DICTIONARY
  5
C
100
AcDbDictionary
280
0
281
1
  3
ACAD_GROUP
350
D
  3
ACAD_LAYOUT
350
1A
  3
ACAD_MLINESTYLE
350
17
  3
ACAD_PLOTSETTINGS
350
19
  3
ACAD_PLOTSTYLENAME
350
E
  3
AcDbVariableDictionary
350
EB
  0
DICTIONARY
  5
D
100
AcDbDictionary
280
0
281
1
  0
ACDBDICTIONARYWDFLT
  5
E
100
AcDbDictionary
281
1
  3
Normal
350
F
100
AcDbDictionaryWithDefault
340
F
  0
ACDBPLACEHOLDER
  5
F
  0
DICTIONARY
  5
17
100
AcDbDictionary
280
0
281
1
  3
Standard
350
18
  0
MLINESTYLE
  5
18
100
AcDbMlineStyle
  2
STANDARD
 70
0
  3

 62
256
 51
90.0
 52
90.0
 71
2
 49
0.5
 62
256
  6
BYLAYER
 49
-0.5
 62
256
  6
BYLAYER
  0
DICTIONARY
  5
19
100
AcDbDictionary
280
0
281
1
  0
DICTIONARY
  5
1A
100
AcDbDictionary
281
1
  3
Layout1
350
1E
  3
Layout2
350
26
  3
Model
350
22
  0
LAYOUT
  5
1E
100
AcDbPlotSettings
  1

  2
C:\Program Files\AutoCAD 2002\plotters\DWF ePlot (optimized for plotting).pc3
  4

  6

 40
0.0
 41
0.0
 42
0.0
 43
0.0
 44
0.0
 45
0.0
 46
0.0
 47
0.0
 48
0.0
 49
0.0
140
0.0
141
0.0
142
1.0
143
1.0
 70
688
 72
0
 73
0
 74
5
  7

 75
16
147
1.0
148
0.0
149
0.0
100
AcDbLayout
  1
Layout1
 70
1
 71
1
 10
0.0
 20
0.0
 11
420.0
 21
297.0
 12
0.0
 22
0.0
 32
0.0
 14
100000000000000000000.0
 24
100000000000000000000.0
 34
100000000000000000000.0
 15
-100000000000000000000.0
 25
-100000000000000000000.0
 35
-100000000000000000000.0
146
0.0
 13
0.0
 23
0.0
 33
0.0
 16
1.0
 26
0.0
 36
0.0
 17
0.0
 27
1.0
 37
0.0
 76
0
330
1B
  0
LAYOUT
  5
22
100
AcDbPlotSettings
  1

  2
C:\Program Files\AutoCAD 2002\plotters\DWF ePlot (optimized for plotting).pc3
  4

  6

 40
0.0
 41
0.0
 42
0.0
 43
0.0
 44
0.0
 45
0.0
 46
0.0
 47
0.0
 48
0.0
 49
0.0
140
0.0
141
0.0
142
1.0
143
1.0
 70
1712
 72
0
 73
0
 74
0
  7

 75
0
147
1.0
148
0.0
149
0.0
100
AcDbLayout
  1
Model
 70
1
 71
0
 10
0.0
 20
0.0
 11
12.0
 21
9.0
 12
0.0
 22
0.0
 32
0.0
 14
0.0
 24
0.0
 34
0.0
 15
0.0
 25
0.0
 35
0.0
146
0.0
 13
0.0
 23
0.0
 33
0.0
 16
1.0
 26
0.0
 36
0.0
 17
0.0
 27
1.0
 37
0.0
 76
0
330
1F
  0
LAYOUT
  5
26
100
AcDbPlotSettings
  1

  2
C:\Program Files\AutoCAD 2002\plotters\DWF ePlot (optimized for plotting).pc3
  4

  6

 40
0.0
 41
0.0
 42
0.0
 43
0.0
 44
0.0
 45
0.0
 46
0.0
 47
0.0
 48
0.0
 49
0.0
140
0.0
141
0.0
142
1.0
143
1.0
 70
688
 72
0
 73
0
 74
5
  7

 75
16
147
1.0
148
0.0
149
0.0
100
AcDbLayout
  1
Layout2
 70
1
 71
2
 10
0.0
 20
0.0
 11
12.0
 21
9.0
 12
0.0
 22
0.0
 32
0.0
 14
0.0
 24
0.0
 34
0.0
 15
0.0
 25
0.0
 35
0.0
146
0.0
 13
0.0
 23
0.0
 33
0.0
 16
1.0
 26
0.0
 36
0.0
 17
0.0
 27
1.0
 37
0.0
 76
0
330
23
  0
DICTIONARY
  5
EB
100
AcDbDictionary
281
1
  3
DIMASSOC
350
ED
  3
HIDETEXT
350
EC
  0
DICTIONARYVAR
  5
EC
100
DictionaryVariables
280
0
  1
2
  0
DICTIONARYVAR
  5
ED
100
DictionaryVariables
280
0
  1
1
  0
ENDSEC
  0
EOF
