  0
SECTION
  2
BLOCKS
  0
ENDSEC
  0
SECTION
  2
ENTITIES
  0
LINE
  8
0
 10
62.25
 11
62.25
 20
-22.391
 21
-15.391
  0
LINE
  8
0
 10
62.25
 11
67.1
 20
-15.391
 21
-15.391
  0
LINE
  8
0
 10
67.1
 11
67.1
 20
-15.391
 21
53.173
  0
LINE
  8
0
 10
67.1
 11
62.25
 20
53.173
 21
53.173
  0
LINE
  8
0
 10
62.25
 11
62.25
 20
53.173
 21
60.173
  0
LINE
  8
0
 10
62.25
 11
67.1
 20
60.173
 21
60.173
  0
LINE
  8
0
 10
67.1
 11
67.1
 20
60.173
 21
104.95
  0
LINE
  8
0
 10
67.1
 11
73.125
 20
104.95
 21
104.95
  0
LINE
  8
0
 10
73.125
 11
73.125
 20
104.95
 21
101.6
  0
LINE
  8
0
 10
73.125
 11
80.125
 20
101.6
 21
101.6
  0
LINE
  8
0
 10
80.125
 11
80.125
 20
101.6
 21
104.95
  0
LINE
  8
0
 10
80.125
 11
86.15
 20
104.95
 21
104.95
  0
LINE
  8
0
 10
86.15
 11
86.15
 20
104.95
 21
73.305
  0
LINE
  8
0
 10
86.15
 11
84.75
 20
73.305
 21
73.305
  0
LINE
  8
0
 10
84.75
 11
84.725
 20
73.305
 21
73.303
  0
LINE
  8
0
 10
84.725
 11
84.7
 20
73.303
 21
73.299
  0
LINE
  8
0
 10
84.7
 11
84.676
 20
73.299
 21
73.291
  0
LINE
  8
0
 10
84.676
 11
84.654
 20
73.291
 21
73.28
  0
LINE
  8
0
 10
84.654
 11
84.632
 20
73.28
 21
73.267
  0
LINE
  8
0
 10
84.632
 11
84.613
 20
73.267
 21
73.251
  0
LINE
  8
0
 10
84.613
 11
84.596
 20
73.251
 21
73.232
  0
LINE
  8
0
 10
84.596
 11
84.581
 20
73.232
 21
73.212
  0
LINE
  8
0
 10
84.581
 11
84.569
 20
73.212
 21
73.19
  0
LINE
  8
0
 10
84.569
 11
84.56
 20
73.19
 21
73.167
  0
LINE
  8
0
 10
84.56
 11
84.554
 20
73.167
 21
73.142
  0
LINE
  8
0
 10
84.554
 11
84.55
 20
73.142
 21
73.118
  0
LINE
  8
0
 10
84.55
 11
84.55
 20
73.118
 21
64.492
  0
LINE
  8
0
 10
84.55
 11
84.554
 20
64.492
 21
64.468
  0
LINE
  8
0
 10
84.554
 11
84.56
 20
64.468
 21
64.443
  0
LINE
  8
0
 10
84.56
 11
84.569
 20
64.443
 21
64.42
  0
LINE
  8
0
 10
84.569
 11
84.581
 20
64.42
 21
64.398
  0
LINE
  8
0
 10
84.581
 11
84.596
 20
64.398
 21
64.378
  0
LINE
  8
0
 10
84.596
 11
84.613
 20
64.378
 21
64.359
  0
LINE
  8
0
 10
84.613
 11
84.632
 20
64.359
 21
64.343
  0
LINE
  8
0
 10
84.632
 11
84.654
 20
64.343
 21
64.33
  0
LINE
  8
0
 10
84.654
 11
84.676
 20
64.33
 21
64.319
  0
LINE
  8
0
 10
84.676
 11
84.7
 20
64.319
 21
64.311
  0
LINE
  8
0
 10
84.7
 11
84.725
 20
64.311
 21
64.307
  0
LINE
  8
0
 10
84.725
 11
84.75
 20
64.307
 21
64.305
  0
LINE
  8
0
 10
84.75
 11
86.15
 20
64.305
 21
64.305
  0
LINE
  8
0
 10
86.15
 11
86.15
 20
64.305
 21
60.173
  0
LINE
  8
0
 10
86.15
 11
89.5
 20
60.173
 21
60.173
  0
LINE
  8
0
 10
89.5
 11
89.5
 20
60.173
 21
53.173
  0
LINE
  8
0
 10
89.5
 11
86.15
 20
53.173
 21
53.173
  0
LINE
  8
0
 10
86.15
 11
86.15
 20
53.173
 21
47.905
  0
LINE
  8
0
 10
86.15
 11
84.75
 20
47.905
 21
47.905
  0
LINE
  8
0
 10
84.75
 11
84.725
 20
47.905
 21
47.903
  0
LINE
  8
0
 10
84.725
 11
84.7
 20
47.903
 21
47.899
  0
LINE
  8
0
 10
84.7
 11
84.676
 20
47.899
 21
47.891
  0
LINE
  8
0
 10
84.676
 11
84.654
 20
47.891
 21
47.88
  0
LINE
  8
0
 10
84.654
 11
84.632
 20
47.88
 21
47.867
  0
LINE
  8
0
 10
84.632
 11
84.613
 20
47.867
 21
47.851
  0
LINE
  8
0
 10
84.613
 11
84.596
 20
47.851
 21
47.832
  0
LINE
  8
0
 10
84.596
 11
84.581
 20
47.832
 21
47.812
  0
LINE
  8
0
 10
84.581
 11
84.569
 20
47.812
 21
47.79
  0
LINE
  8
0
 10
84.569
 11
84.56
 20
47.79
 21
47.767
  0
LINE
  8
0
 10
84.56
 11
84.554
 20
47.767
 21
47.742
  0
LINE
  8
0
 10
84.554
 11
84.55
 20
47.742
 21
47.718
  0
LINE
  8
0
 10
84.55
 11
84.55
 20
47.718
 21
39.092
  0
LINE
  8
0
 10
84.55
 11
84.554
 20
39.092
 21
39.068
  0
LINE
  8
0
 10
84.554
 11
84.56
 20
39.068
 21
39.043
  0
LINE
  8
0
 10
84.56
 11
84.569
 20
39.043
 21
39.02
  0
LINE
  8
0
 10
84.569
 11
84.581
 20
39.02
 21
38.998
  0
LINE
  8
0
 10
84.581
 11
84.596
 20
38.998
 21
38.978
  0
LINE
  8
0
 10
84.596
 11
84.613
 20
38.978
 21
38.959
  0
LINE
  8
0
 10
84.613
 11
84.632
 20
38.959
 21
38.943
  0
LINE
  8
0
 10
84.632
 11
84.654
 20
38.943
 21
38.93
  0
LINE
  8
0
 10
84.654
 11
84.676
 20
38.93
 21
38.919
  0
LINE
  8
0
 10
84.676
 11
84.7
 20
38.919
 21
38.911
  0
LINE
  8
0
 10
84.7
 11
84.725
 20
38.911
 21
38.907
  0
LINE
  8
0
 10
84.725
 11
84.75
 20
38.907
 21
38.905
  0
LINE
  8
0
 10
84.75
 11
86.15
 20
38.905
 21
38.905
  0
LINE
  8
0
 10
86.15
 11
86.15
 20
38.905
 21
22.505
  0
LINE
  8
0
 10
86.15
 11
84.75
 20
22.505
 21
22.505
  0
LINE
  8
0
 10
84.75
 11
84.725
 20
22.505
 21
22.503
  0
LINE
  8
0
 10
84.725
 11
84.7
 20
22.503
 21
22.499
  0
LINE
  8
0
 10
84.7
 11
84.676
 20
22.499
 21
22.491
  0
LINE
  8
0
 10
84.676
 11
84.654
 20
22.491
 21
22.48
  0
LINE
  8
0
 10
84.654
 11
84.632
 20
22.48
 21
22.467
  0
LINE
  8
0
 10
84.632
 11
84.613
 20
22.467
 21
22.451
  0
LINE
  8
0
 10
84.613
 11
84.596
 20
22.451
 21
22.432
  0
LINE
  8
0
 10
84.596
 11
84.581
 20
22.432
 21
22.412
  0
LINE
  8
0
 10
84.581
 11
84.569
 20
22.412
 21
22.39
  0
LINE
  8
0
 10
84.569
 11
84.56
 20
22.39
 21
22.367
  0
LINE
  8
0
 10
84.56
 11
84.554
 20
22.367
 21
22.342
  0
LINE
  8
0
 10
84.554
 11
84.55
 20
22.342
 21
22.318
  0
LINE
  8
0
 10
84.55
 11
84.55
 20
22.318
 21
13.692
  0
LINE
  8
0
 10
84.55
 11
84.554
 20
13.692
 21
13.668
  0
LINE
  8
0
 10
84.554
 11
84.56
 20
13.668
 21
13.643
  0
LINE
  8
0
 10
84.56
 11
84.569
 20
13.643
 21
13.62
  0
LINE
  8
0
 10
84.569
 11
84.581
 20
13.62
 21
13.598
  0
LINE
  8
0
 10
84.581
 11
84.596
 20
13.598
 21
13.578
  0
LINE
  8
0
 10
84.596
 11
84.613
 20
13.578
 21
13.559
  0
LINE
  8
0
 10
84.613
 11
84.632
 20
13.559
 21
13.543
  0
LINE
  8
0
 10
84.632
 11
84.654
 20
13.543
 21
13.53
  0
LINE
  8
0
 10
84.654
 11
84.676
 20
13.53
 21
13.519
  0
LINE
  8
0
 10
84.676
 11
84.7
 20
13.519
 21
13.511
  0
LINE
  8
0
 10
84.7
 11
84.725
 20
13.511
 21
13.507
  0
LINE
  8
0
 10
84.725
 11
84.75
 20
13.507
 21
13.505
  0
LINE
  8
0
 10
84.75
 11
86.15
 20
13.505
 21
13.505
  0
LINE
  8
0
 10
86.15
 11
86.15
 20
13.505
 21
-2.895
  0
LINE
  8
0
 10
86.15
 11
84.75
 20
-2.895
 21
-2.895
  0
LINE
  8
0
 10
84.75
 11
84.725
 20
-2.895
 21
-2.897
  0
LINE
  8
0
 10
84.725
 11
84.7
 20
-2.897
 21
-2.901
  0
LINE
  8
0
 10
84.7
 11
84.676
 20
-2.901
 21
-2.909
  0
LINE
  8
0
 10
84.676
 11
84.654
 20
-2.909
 21
-2.92
  0
LINE
  8
0
 10
84.654
 11
84.632
 20
-2.92
 21
-2.933
  0
LINE
  8
0
 10
84.632
 11
84.613
 20
-2.933
 21
-2.949
  0
LINE
  8
0
 10
84.613
 11
84.596
 20
-2.949
 21
-2.968
  0
LINE
  8
0
 10
84.596
 11
84.581
 20
-2.968
 21
-2.988
  0
LINE
  8
0
 10
84.581
 11
84.569
 20
-2.988
 21
-3.01
  0
LINE
  8
0
 10
84.569
 11
84.56
 20
-3.01
 21
-3.033
  0
LINE
  8
0
 10
84.56
 11
84.554
 20
-3.033
 21
-3.058
  0
LINE
  8
0
 10
84.554
 11
84.55
 20
-3.058
 21
-3.082
  0
LINE
  8
0
 10
84.55
 11
84.55
 20
-3.082
 21
-11.708
  0
LINE
  8
0
 10
84.55
 11
84.554
 20
-11.708
 21
-11.732
  0
LINE
  8
0
 10
84.554
 11
84.56
 20
-11.732
 21
-11.757
  0
LINE
  8
0
 10
84.56
 11
84.569
 20
-11.757
 21
-11.78
  0
LINE
  8
0
 10
84.569
 11
84.581
 20
-11.78
 21
-11.802
  0
LINE
  8
0
 10
84.581
 11
84.596
 20
-11.802
 21
-11.822
  0
LINE
  8
0
 10
84.596
 11
84.613
 20
-11.822
 21
-11.841
  0
LINE
  8
0
 10
84.613
 11
84.632
 20
-11.841
 21
-11.857
  0
LINE
  8
0
 10
84.632
 11
84.654
 20
-11.857
 21
-11.87
  0
LINE
  8
0
 10
84.654
 11
84.676
 20
-11.87
 21
-11.881
  0
LINE
  8
0
 10
84.676
 11
84.7
 20
-11.881
 21
-11.889
  0
LINE
  8
0
 10
84.7
 11
84.725
 20
-11.889
 21
-11.893
  0
LINE
  8
0
 10
84.725
 11
84.75
 20
-11.893
 21
-11.895
  0
LINE
  8
0
 10
84.75
 11
86.15
 20
-11.895
 21
-11.895
  0
LINE
  8
0
 10
86.15
 11
86.15
 20
-11.895
 21
-15.391
  0
LINE
  8
0
 10
86.15
 11
89.5
 20
-15.391
 21
-15.391
  0
LINE
  8
0
 10
89.5
 11
89.5
 20
-15.391
 21
-22.391
  0
LINE
  8
0
 10
89.5
 11
86.15
 20
-22.391
 21
-22.391
  0
LINE
  8
0
 10
86.15
 11
86.15
 20
-22.391
 21
-28.295
  0
LINE
  8
0
 10
86.15
 11
84.75
 20
-28.295
 21
-28.295
  0
LINE
  8
0
 10
84.75
 11
84.725
 20
-28.295
 21
-28.297
  0
LINE
  8
0
 10
84.725
 11
84.7
 20
-28.297
 21
-28.301
  0
LINE
  8
0
 10
84.7
 11
84.676
 20
-28.301
 21
-28.309
  0
LINE
  8
0
 10
84.676
 11
84.654
 20
-28.309
 21
-28.32
  0
LINE
  8
0
 10
84.654
 11
84.632
 20
-28.32
 21
-28.333
  0
LINE
  8
0
 10
84.632
 11
84.613
 20
-28.333
 21
-28.349
  0
LINE
  8
0
 10
84.613
 11
84.596
 20
-28.349
 21
-28.368
  0
LINE
  8
0
 10
84.596
 11
84.581
 20
-28.368
 21
-28.388
  0
LINE
  8
0
 10
84.581
 11
84.569
 20
-28.388
 21
-28.41
  0
LINE
  8
0
 10
84.569
 11
84.56
 20
-28.41
 21
-28.433
  0
LINE
  8
0
 10
84.56
 11
84.554
 20
-28.433
 21
-28.458
  0
LINE
  8
0
 10
84.554
 11
84.55
 20
-28.458
 21
-28.482
  0
LINE
  8
0
 10
84.55
 11
84.55
 20
-28.482
 21
-37.108
  0
LINE
  8
0
 10
84.55
 11
84.554
 20
-37.108
 21
-37.132
  0
LINE
  8
0
 10
84.554
 11
84.56
 20
-37.132
 21
-37.157
  0
LINE
  8
0
 10
84.56
 11
84.569
 20
-37.157
 21
-37.18
  0
LINE
  8
0
 10
84.569
 11
84.581
 20
-37.18
 21
-37.202
  0
LINE
  8
0
 10
84.581
 11
84.596
 20
-37.202
 21
-37.222
  0
LINE
  8
0
 10
84.596
 11
84.613
 20
-37.222
 21
-37.241
  0
LINE
  8
0
 10
84.613
 11
84.632
 20
-37.241
 21
-37.257
  0
LINE
  8
0
 10
84.632
 11
84.654
 20
-37.257
 21
-37.27
  0
LINE
  8
0
 10
84.654
 11
84.676
 20
-37.27
 21
-37.281
  0
LINE
  8
0
 10
84.676
 11
84.7
 20
-37.281
 21
-37.289
  0
LINE
  8
0
 10
84.7
 11
84.725
 20
-37.289
 21
-37.293
  0
LINE
  8
0
 10
84.725
 11
84.75
 20
-37.293
 21
-37.295
  0
LINE
  8
0
 10
84.75
 11
86.15
 20
-37.295
 21
-37.295
  0
LINE
  8
0
 10
86.15
 11
86.15
 20
-37.295
 21
-104.95
  0
LINE
  8
0
 10
86.15
 11
80.125
 20
-104.95
 21
-104.95
  0
LINE
  8
0
 10
80.125
 11
80.125
 20
-104.95
 21
-101.6
  0
LINE
  8
0
 10
80.125
 11
73.125
 20
-101.6
 21
-101.6
  0
LINE
  8
0
 10
73.125
 11
73.125
 20
-101.6
 21
-104.95
  0
LINE
  8
0
 10
73.125
 11
67.1
 20
-104.95
 21
-104.95
  0
LINE
  8
0
 10
67.1
 11
67.1
 20
-104.95
 21
-22.391
  0
LINE
  8
0
 10
67.1
 11
62.25
 20
-22.391
 21
-22.391
  0
ENDSEC
  0
SECTION
  2
OBJECTS
  0
DICTIONARY
  0
ENDSEC
  0
EOF
