  0
SECTION
  2
BLOCKS
  0
ENDSEC
  0
SECTION
  2
ENTITIES
  0
LINE
  8
0
 10
-48
 11
-48
 20
-122.85
 21
-79.536
  0
LINE
  8
0
 10
-48
 11
-33.7
 20
-79.536
 21
-79.536
  0
LINE
  8
0
 10
-33.7
 11
-33.7
 20
-79.536
 21
-76.426
  0
LINE
  8
0
 10
-33.7
 11
-30.5
 20
-76.426
 21
-76.426
  0
LINE
  8
0
 10
-30.5
 11
-30.5
 20
-76.426
 21
-79.426
  0
LINE
  8
0
 10
-30.5
 11
-21.204
 20
-79.426
 21
-79.426
  0
LINE
  8
0
 10
-21.204
 11
-21.204
 20
-79.426
 21
-71.374
  0
LINE
  8
0
 10
-21.204
 11
-33.7
 20
-71.374
 21
-71.374
  0
LINE
  8
0
 10
-33.7
 11
-33.7
 20
-71.374
 21
-68.264
  0
LINE
  8
0
 10
-33.7
 11
-48
 20
-68.264
 21
-68.264
  0
LINE
  8
0
 10
-48
 11
-48
 20
-68.264
 21
122.85
  0
LINE
  8
0
 10
-48
 11
-47.988
 20
122.85
 21
123.038
  0
LINE
  8
0
 10
-47.988
 11
-47.953
 20
123.038
 21
123.223
  0
LINE
  8
0
 10
-47.953
 11
-47.895
 20
123.223
 21
123.402
  0
LINE
  8
0
 10
-47.895
 11
-47.814
 20
123.402
 21
123.573
  0
LINE
  8
0
 10
-47.814
 11
-47.714
 20
123.573
 21
123.732
  0
LINE
  8
0
 10
-47.714
 11
-47.593
 20
123.732
 21
123.877
  0
LINE
  8
0
 10
-47.593
 11
-47.456
 20
123.877
 21
124.006
  0
LINE
  8
0
 10
-47.456
 11
-47.304
 20
124.006
 21
124.116
  0
LINE
  8
0
 10
-47.304
 11
-47.139
 20
124.116
 21
124.207
  0
LINE
  8
0
 10
-47.139
 11
-46.964
 20
124.207
 21
124.277
  0
LINE
  8
0
 10
-46.964
 11
-46.781
 20
124.277
 21
124.323
  0
LINE
  8
0
 10
-46.781
 11
-46.594
 20
124.323
 21
124.347
  0
LINE
  8
0
 10
-46.594
 11
-46.5
 20
124.347
 21
124.347
  0
LINE
  8
0
 10
-46.5
 11
-46.5
 20
124.347
 21
124.35
  0
LINE
  8
0
 10
-46.5
 11
46.5
 20
124.35
 21
124.35
  0
LINE
  8
0
 10
46.5
 11
46.5
 20
124.35
 21
124.347
  0
LINE
  8
0
 10
46.5
 11
46.594
 20
124.347
 21
124.347
  0
LINE
  8
0
 10
46.594
 11
46.781
 20
124.347
 21
124.323
  0
LINE
  8
0
 10
46.781
 11
46.964
 20
124.323
 21
124.277
  0
LINE
  8
0
 10
46.964
 11
47.139
 20
124.277
 21
124.207
  0
LINE
  8
0
 10
47.139
 11
47.304
 20
124.207
 21
124.116
  0
LINE
  8
0
 10
47.304
 11
47.456
 20
124.116
 21
124.006
  0
LINE
  8
0
 10
47.456
 11
47.593
 20
124.006
 21
123.877
  0
LINE
  8
0
 10
47.593
 11
47.714
 20
123.877
 21
123.732
  0
LINE
  8
0
 10
47.714
 11
47.814
 20
123.732
 21
123.573
  0
LINE
  8
0
 10
47.814
 11
47.895
 20
123.573
 21
123.402
  0
LINE
  8
0
 10
47.895
 11
47.953
 20
123.402
 21
123.223
  0
LINE
  8
0
 10
47.953
 11
47.988
 20
123.223
 21
123.038
  0
LINE
  8
0
 10
47.988
 11
48
 20
123.038
 21
122.85
  0
LINE
  8
0
 10
48
 11
48
 20
122.85
 21
-122.85
  0
LINE
  8
0
 10
48
 11
47.988
 20
-122.85
 21
-123.038
  0
LINE
  8
0
 10
47.988
 11
47.953
 20
-123.038
 21
-123.223
  0
LINE
  8
0
 10
47.953
 11
47.895
 20
-123.223
 21
-123.402
  0
LINE
  8
0
 10
47.895
 11
47.814
 20
-123.402
 21
-123.573
  0
LINE
  8
0
 10
47.814
 11
47.714
 20
-123.573
 21
-123.732
  0
LINE
  8
0
 10
47.714
 11
47.593
 20
-123.732
 21
-123.877
  0
LINE
  8
0
 10
47.593
 11
47.456
 20
-123.877
 21
-124.006
  0
LINE
  8
0
 10
47.456
 11
47.304
 20
-124.006
 21
-124.116
  0
LINE
  8
0
 10
47.304
 11
47.139
 20
-124.116
 21
-124.207
  0
LINE
  8
0
 10
47.139
 11
46.964
 20
-124.207
 21
-124.277
  0
LINE
  8
0
 10
46.964
 11
46.781
 20
-124.277
 21
-124.323
  0
LINE
  8
0
 10
46.781
 11
46.594
 20
-124.323
 21
-124.347
  0
LINE
  8
0
 10
46.594
 11
46.5
 20
-124.347
 21
-124.347
  0
LINE
  8
0
 10
46.5
 11
46.5
 20
-124.347
 21
-124.35
  0
LINE
  8
0
 10
46.5
 11
-46.5
 20
-124.35
 21
-124.35
  0
LINE
  8
0
 10
-46.5
 11
-46.5
 20
-124.35
 21
-124.347
  0
LINE
  8
0
 10
-46.5
 11
-46.594
 20
-124.347
 21
-124.347
  0
LINE
  8
0
 10
-46.594
 11
-46.781
 20
-124.347
 21
-124.323
  0
LINE
  8
0
 10
-46.781
 11
-46.964
 20
-124.323
 21
-124.277
  0
LINE
  8
0
 10
-46.964
 11
-47.139
 20
-124.277
 21
-124.207
  0
LINE
  8
0
 10
-47.139
 11
-47.304
 20
-124.207
 21
-124.116
  0
LINE
  8
0
 10
-47.304
 11
-47.456
 20
-124.116
 21
-124.006
  0
LINE
  8
0
 10
-47.456
 11
-47.593
 20
-124.006
 21
-123.877
  0
LINE
  8
0
 10
-47.593
 11
-47.714
 20
-123.877
 21
-123.732
  0
LINE
  8
0
 10
-47.714
 11
-47.814
 20
-123.732
 21
-123.573
  0
LINE
  8
0
 10
-47.814
 11
-47.895
 20
-123.573
 21
-123.402
  0
LINE
  8
0
 10
-47.895
 11
-47.953
 20
-123.402
 21
-123.223
  0
LINE
  8
0
 10
-47.953
 11
-47.988
 20
-123.223
 21
-123.038
  0
LINE
  8
0
 10
-47.988
 11
-48
 20
-123.038
 21
-122.85
  0
LINE
  8
0
 10
-37.274
 11
-37.268
 20
-44.325
 21
-44.223
  0
LINE
  8
0
 10
-37.268
 11
-37.248
 20
-44.223
 21
-44.123
  0
LINE
  8
0
 10
-37.248
 11
-37.217
 20
-44.123
 21
-44.025
  0
LINE
  8
0
 10
-37.217
 11
-37.173
 20
-44.025
 21
-43.933
  0
LINE
  8
0
 10
-37.173
 11
-37.119
 20
-43.933
 21
-43.847
  0
LINE
  8
0
 10
-37.119
 11
-37.053
 20
-43.847
 21
-43.768
  0
LINE
  8
0
 10
-37.053
 11
-36.979
 20
-43.768
 21
-43.698
  0
LINE
  8
0
 10
-36.979
 11
-36.896
 20
-43.698
 21
-43.638
  0
LINE
  8
0
 10
-36.896
 11
-36.807
 20
-43.638
 21
-43.588
  0
LINE
  8
0
 10
-36.807
 11
-36.712
 20
-43.588
 21
-43.551
  0
LINE
  8
0
 10
-36.712
 11
-36.613
 20
-43.551
 21
-43.525
  0
LINE
  8
0
 10
-36.613
 11
-36.511
 20
-43.525
 21
-43.513
  0
LINE
  8
0
 10
-36.511
 11
-36.409
 20
-43.513
 21
-43.513
  0
LINE
  8
0
 10
-36.409
 11
-36.307
 20
-43.513
 21
-43.525
  0
LINE
  8
0
 10
-36.307
 11
-36.208
 20
-43.525
 21
-43.551
  0
LINE
  8
0
 10
-36.208
 11
-36.113
 20
-43.551
 21
-43.588
  0
LINE
  8
0
 10
-36.113
 11
-36.024
 20
-43.588
 21
-43.638
  0
LINE
  8
0
 10
-36.024
 11
-35.941
 20
-43.638
 21
-43.698
  0
LINE
  8
0
 10
-35.941
 11
-35.867
 20
-43.698
 21
-43.768
  0
LINE
  8
0
 10
-35.867
 11
-35.801
 20
-43.768
 21
-43.847
  0
LINE
  8
0
 10
-35.801
 11
-35.747
 20
-43.847
 21
-43.933
  0
LINE
  8
0
 10
-35.747
 11
-35.703
 20
-43.933
 21
-44.025
  0
LINE
  8
0
 10
-35.703
 11
-35.672
 20
-44.025
 21
-44.123
  0
LINE
  8
0
 10
-35.672
 11
-35.652
 20
-44.123
 21
-44.223
  0
LINE
  8
0
 10
-35.652
 11
-35.646
 20
-44.223
 21
-44.325
  0
LINE
  8
0
 10
-35.646
 11
-35.652
 20
-44.325
 21
-44.427
  0
LINE
  8
0
 10
-35.652
 11
-35.672
 20
-44.427
 21
-44.527
  0
LINE
  8
0
 10
-35.672
 11
-35.703
 20
-44.527
 21
-44.625
  0
LINE
  8
0
 10
-35.703
 11
-35.747
 20
-44.625
 21
-44.717
  0
LINE
  8
0
 10
-35.747
 11
-35.801
 20
-44.717
 21
-44.803
  0
LINE
  8
0
 10
-35.801
 11
-35.867
 20
-44.803
 21
-44.882
  0
LINE
  8
0
 10
-35.867
 11
-35.941
 20
-44.882
 21
-44.952
  0
LINE
  8
0
 10
-35.941
 11
-36.024
 20
-44.952
 21
-45.012
  0
LINE
  8
0
 10
-36.024
 11
-36.113
 20
-45.012
 21
-45.062
  0
LINE
  8
0
 10
-36.113
 11
-36.208
 20
-45.062
 21
-45.099
  0
LINE
  8
0
 10
-36.208
 11
-36.307
 20
-45.099
 21
-45.125
  0
LINE
  8
0
 10
-36.307
 11
-36.409
 20
-45.125
 21
-45.137
  0
LINE
  8
0
 10
-36.409
 11
-36.511
 20
-45.137
 21
-45.137
  0
LINE
  8
0
 10
-36.511
 11
-36.613
 20
-45.137
 21
-45.125
  0
LINE
  8
0
 10
-36.613
 11
-36.712
 20
-45.125
 21
-45.099
  0
LINE
  8
0
 10
-36.712
 11
-36.807
 20
-45.099
 21
-45.062
  0
LINE
  8
0
 10
-36.807
 11
-36.896
 20
-45.062
 21
-45.012
  0
LINE
  8
0
 10
-36.896
 11
-36.979
 20
-45.012
 21
-44.952
  0
LINE
  8
0
 10
-36.979
 11
-37.053
 20
-44.952
 21
-44.882
  0
LINE
  8
0
 10
-37.053
 11
-37.119
 20
-44.882
 21
-44.803
  0
LINE
  8
0
 10
-37.119
 11
-37.173
 20
-44.803
 21
-44.717
  0
LINE
  8
0
 10
-37.173
 11
-37.217
 20
-44.717
 21
-44.625
  0
LINE
  8
0
 10
-37.217
 11
-37.248
 20
-44.625
 21
-44.527
  0
LINE
  8
0
 10
-37.248
 11
-37.268
 20
-44.527
 21
-44.427
  0
LINE
  8
0
 10
-37.268
 11
-37.274
 20
-44.427
 21
-44.325
  0
LINE
  8
0
 10
-37.274
 11
-37.268
 20
6.35
 21
6.452
  0
LINE
  8
0
 10
-37.268
 11
-37.248
 20
6.452
 21
6.552
  0
LINE
  8
0
 10
-37.248
 11
-37.217
 20
6.552
 21
6.65
  0
LINE
  8
0
 10
-37.217
 11
-37.173
 20
6.65
 21
6.742
  0
LINE
  8
0
 10
-37.173
 11
-37.119
 20
6.742
 21
6.828
  0
LINE
  8
0
 10
-37.119
 11
-37.053
 20
6.828
 21
6.907
  0
LINE
  8
0
 10
-37.053
 11
-36.979
 20
6.907
 21
6.977
  0
LINE
  8
0
 10
-36.979
 11
-36.896
 20
6.977
 21
7.037
  0
LINE
  8
0
 10
-36.896
 11
-36.807
 20
7.037
 21
7.087
  0
LINE
  8
0
 10
-36.807
 11
-36.712
 20
7.087
 21
7.124
  0
LINE
  8
0
 10
-36.712
 11
-36.613
 20
7.124
 21
7.15
  0
LINE
  8
0
 10
-36.613
 11
-36.511
 20
7.15
 21
7.162
  0
LINE
  8
0
 10
-36.511
 11
-36.409
 20
7.162
 21
7.162
  0
LINE
  8
0
 10
-36.409
 11
-36.307
 20
7.162
 21
7.15
  0
LINE
  8
0
 10
-36.307
 11
-36.208
 20
7.15
 21
7.124
  0
LINE
  8
0
 10
-36.208
 11
-36.113
 20
7.124
 21
7.087
  0
LINE
  8
0
 10
-36.113
 11
-36.024
 20
7.087
 21
7.037
  0
LINE
  8
0
 10
-36.024
 11
-35.941
 20
7.037
 21
6.977
  0
LINE
  8
0
 10
-35.941
 11
-35.867
 20
6.977
 21
6.907
  0
LINE
  8
0
 10
-35.867
 11
-35.801
 20
6.907
 21
6.828
  0
LINE
  8
0
 10
-35.801
 11
-35.747
 20
6.828
 21
6.742
  0
LINE
  8
0
 10
-35.747
 11
-35.703
 20
6.742
 21
6.65
  0
LINE
  8
0
 10
-35.703
 11
-35.672
 20
6.65
 21
6.552
  0
LINE
  8
0
 10
-35.672
 11
-35.652
 20
6.552
 21
6.452
  0
LINE
  8
0
 10
-35.652
 11
-35.646
 20
6.452
 21
6.35
  0
LINE
  8
0
 10
-35.646
 11
-35.652
 20
6.35
 21
6.248
  0
LINE
  8
0
 10
-35.652
 11
-35.672
 20
6.248
 21
6.148
  0
LINE
  8
0
 10
-35.672
 11
-35.703
 20
6.148
 21
6.05
  0
LINE
  8
0
 10
-35.703
 11
-35.747
 20
6.05
 21
5.958
  0
LINE
  8
0
 10
-35.747
 11
-35.801
 20
5.958
 21
5.872
  0
LINE
  8
0
 10
-35.801
 11
-35.867
 20
5.872
 21
5.793
  0
LINE
  8
0
 10
-35.867
 11
-35.941
 20
5.793
 21
5.723
  0
LINE
  8
0
 10
-35.941
 11
-36.024
 20
5.723
 21
5.663
  0
LINE
  8
0
 10
-36.024
 11
-36.113
 20
5.663
 21
5.613
  0
LINE
  8
0
 10
-36.113
 11
-36.208
 20
5.613
 21
5.576
  0
LINE
  8
0
 10
-36.208
 11
-36.307
 20
5.576
 21
5.55
  0
LINE
  8
0
 10
-36.307
 11
-36.409
 20
5.55
 21
5.538
  0
LINE
  8
0
 10
-36.409
 11
-36.511
 20
5.538
 21
5.538
  0
LINE
  8
0
 10
-36.511
 11
-36.613
 20
5.538
 21
5.55
  0
LINE
  8
0
 10
-36.613
 11
-36.712
 20
5.55
 21
5.576
  0
LINE
  8
0
 10
-36.712
 11
-36.807
 20
5.576
 21
5.613
  0
LINE
  8
0
 10
-36.807
 11
-36.896
 20
5.613
 21
5.663
  0
LINE
  8
0
 10
-36.896
 11
-36.979
 20
5.663
 21
5.723
  0
LINE
  8
0
 10
-36.979
 11
-37.053
 20
5.723
 21
5.793
  0
LINE
  8
0
 10
-37.053
 11
-37.119
 20
5.793
 21
5.872
  0
LINE
  8
0
 10
-37.119
 11
-37.173
 20
5.872
 21
5.958
  0
LINE
  8
0
 10
-37.173
 11
-37.217
 20
5.958
 21
6.05
  0
LINE
  8
0
 10
-37.217
 11
-37.248
 20
6.05
 21
6.148
  0
LINE
  8
0
 10
-37.248
 11
-37.268
 20
6.148
 21
6.248
  0
LINE
  8
0
 10
-37.268
 11
-37.274
 20
6.248
 21
6.35
  0
LINE
  8
0
 10
-37.274
 11
-37.268
 20
57.15
 21
57.252
  0
LINE
  8
0
 10
-37.268
 11
-37.248
 20
57.252
 21
57.352
  0
LINE
  8
0
 10
-37.248
 11
-37.217
 20
57.352
 21
57.45
  0
LINE
  8
0
 10
-37.217
 11
-37.173
 20
57.45
 21
57.542
  0
LINE
  8
0
 10
-37.173
 11
-37.119
 20
57.542
 21
57.628
  0
LINE
  8
0
 10
-37.119
 11
-37.053
 20
57.628
 21
57.707
  0
LINE
  8
0
 10
-37.053
 11
-36.979
 20
57.707
 21
57.777
  0
LINE
  8
0
 10
-36.979
 11
-36.896
 20
57.777
 21
57.837
  0
LINE
  8
0
 10
-36.896
 11
-36.807
 20
57.837
 21
57.887
  0
LINE
  8
0
 10
-36.807
 11
-36.712
 20
57.887
 21
57.924
  0
LINE
  8
0
 10
-36.712
 11
-36.613
 20
57.924
 21
57.95
  0
LINE
  8
0
 10
-36.613
 11
-36.511
 20
57.95
 21
57.962
  0
LINE
  8
0
 10
-36.511
 11
-36.409
 20
57.962
 21
57.962
  0
LINE
  8
0
 10
-36.409
 11
-36.307
 20
57.962
 21
57.95
  0
LINE
  8
0
 10
-36.307
 11
-36.208
 20
57.95
 21
57.924
  0
LINE
  8
0
 10
-36.208
 11
-36.113
 20
57.924
 21
57.887
  0
LINE
  8
0
 10
-36.113
 11
-36.024
 20
57.887
 21
57.837
  0
LINE
  8
0
 10
-36.024
 11
-35.941
 20
57.837
 21
57.777
  0
LINE
  8
0
 10
-35.941
 11
-35.867
 20
57.777
 21
57.707
  0
LINE
  8
0
 10
-35.867
 11
-35.801
 20
57.707
 21
57.628
  0
LINE
  8
0
 10
-35.801
 11
-35.747
 20
57.628
 21
57.542
  0
LINE
  8
0
 10
-35.747
 11
-35.703
 20
57.542
 21
57.45
  0
LINE
  8
0
 10
-35.703
 11
-35.672
 20
57.45
 21
57.352
  0
LINE
  8
0
 10
-35.672
 11
-35.652
 20
57.352
 21
57.252
  0
LINE
  8
0
 10
-35.652
 11
-35.646
 20
57.252
 21
57.15
  0
LINE
  8
0
 10
-35.646
 11
-35.652
 20
57.15
 21
57.048
  0
LINE
  8
0
 10
-35.652
 11
-35.672
 20
57.048
 21
56.948
  0
LINE
  8
0
 10
-35.672
 11
-35.703
 20
56.948
 21
56.85
  0
LINE
  8
0
 10
-35.703
 11
-35.747
 20
56.85
 21
56.758
  0
LINE
  8
0
 10
-35.747
 11
-35.801
 20
56.758
 21
56.672
  0
LINE
  8
0
 10
-35.801
 11
-35.867
 20
56.672
 21
56.593
  0
LINE
  8
0
 10
-35.867
 11
-35.941
 20
56.593
 21
56.523
  0
LINE
  8
0
 10
-35.941
 11
-36.024
 20
56.523
 21
56.463
  0
LINE
  8
0
 10
-36.024
 11
-36.113
 20
56.463
 21
56.413
  0
LINE
  8
0
 10
-36.113
 11
-36.208
 20
56.413
 21
56.376
  0
LINE
  8
0
 10
-36.208
 11
-36.307
 20
56.376
 21
56.35
  0
LINE
  8
0
 10
-36.307
 11
-36.409
 20
56.35
 21
56.338
  0
LINE
  8
0
 10
-36.409
 11
-36.511
 20
56.338
 21
56.338
  0
LINE
  8
0
 10
-36.511
 11
-36.613
 20
56.338
 21
56.35
  0
LINE
  8
0
 10
-36.613
 11
-36.712
 20
56.35
 21
56.376
  0
LINE
  8
0
 10
-36.712
 11
-36.807
 20
56.376
 21
56.413
  0
LINE
  8
0
 10
-36.807
 11
-36.896
 20
56.413
 21
56.463
  0
LINE
  8
0
 10
-36.896
 11
-36.979
 20
56.463
 21
56.523
  0
LINE
  8
0
 10
-36.979
 11
-37.053
 20
56.523
 21
56.593
  0
LINE
  8
0
 10
-37.053
 11
-37.119
 20
56.593
 21
56.672
  0
LINE
  8
0
 10
-37.119
 11
-37.173
 20
56.672
 21
56.758
  0
LINE
  8
0
 10
-37.173
 11
-37.217
 20
56.758
 21
56.85
  0
LINE
  8
0
 10
-37.217
 11
-37.248
 20
56.85
 21
56.948
  0
LINE
  8
0
 10
-37.248
 11
-37.268
 20
56.948
 21
57.048
  0
LINE
  8
0
 10
-37.268
 11
-37.274
 20
57.048
 21
57.15
  0
LINE
  8
0
 10
-33.7
 11
-33.7
 20
-22.328
 21
-15.328
  0
LINE
  8
0
 10
-33.7
 11
-30.7
 20
-15.328
 21
-15.328
  0
LINE
  8
0
 10
-30.7
 11
-30.7
 20
-15.328
 21
-22.328
  0
LINE
  8
0
 10
-30.7
 11
-33.7
 20
-22.328
 21
-22.328
  0
LINE
  8
0
 10
-33.7
 11
-33.7
 20
52.984
 21
59.984
  0
LINE
  8
0
 10
-33.7
 11
-30.7
 20
59.984
 21
59.984
  0
LINE
  8
0
 10
-30.7
 11
-30.7
 20
59.984
 21
52.984
  0
LINE
  8
0
 10
-30.7
 11
-33.7
 20
52.984
 21
52.984
  0
LINE
  8
0
 10
-30.665
 11
-30.665
 20
-38.35
 21
-25.4
  0
LINE
  8
0
 10
-30.665
 11
30.665
 20
-25.4
 21
-25.4
  0
LINE
  8
0
 10
30.665
 11
30.665
 20
-25.4
 21
-38.35
  0
LINE
  8
0
 10
30.665
 11
-30.665
 20
-38.35
 21
-38.35
  0
LINE
  8
0
 10
-30.665
 11
-30.665
 20
-12.95
 21
0
  0
LINE
  8
0
 10
-30.665
 11
30.665
 20
0
 21
0
  0
LINE
  8
0
 10
30.665
 11
30.665
 20
0
 21
-12.95
  0
LINE
  8
0
 10
30.665
 11
-30.665
 20
-12.95
 21
-12.95
  0
LINE
  8
0
 10
-30.665
 11
-30.665
 20
12.45
 21
25.4
  0
LINE
  8
0
 10
-30.665
 11
30.665
 20
25.4
 21
25.4
  0
LINE
  8
0
 10
30.665
 11
30.665
 20
25.4
 21
12.45
  0
LINE
  8
0
 10
30.665
 11
-30.665
 20
12.45
 21
12.45
  0
LINE
  8
0
 10
-30.665
 11
-30.665
 20
37.85
 21
50.8
  0
LINE
  8
0
 10
-30.665
 11
30.665
 20
50.8
 21
50.8
  0
LINE
  8
0
 10
30.665
 11
30.665
 20
50.8
 21
37.85
  0
LINE
  8
0
 10
30.665
 11
-30.665
 20
37.85
 21
37.85
  0
LINE
  8
0
 10
-30.665
 11
-30.665
 20
63.25
 21
76.2
  0
LINE
  8
0
 10
-30.665
 11
30.665
 20
76.2
 21
76.2
  0
LINE
  8
0
 10
30.665
 11
30.665
 20
76.2
 21
63.25
  0
LINE
  8
0
 10
30.665
 11
-30.665
 20
63.25
 21
63.25
  0
LINE
  8
0
 10
-30.5
 11
-30.5
 20
-66.044
 21
-47.756
  0
LINE
  8
0
 10
-30.5
 11
20.808
 20
-47.756
 21
-47.756
  0
LINE
  8
0
 10
20.808
 11
20.808
 20
-47.756
 21
-66.044
  0
LINE
  8
0
 10
20.808
 11
-30.5
 20
-66.044
 21
-66.044
  0
LINE
  8
0
 10
-28.874
 11
-28.868
 20
-43.255
 21
-43.153
  0
LINE
  8
0
 10
-28.868
 11
-28.848
 20
-43.153
 21
-43.053
  0
LINE
  8
0
 10
-28.848
 11
-28.817
 20
-43.053
 21
-42.955
  0
LINE
  8
0
 10
-28.817
 11
-28.773
 20
-42.955
 21
-42.863
  0
LINE
  8
0
 10
-28.773
 11
-28.719
 20
-42.863
 21
-42.777
  0
LINE
  8
0
 10
-28.719
 11
-28.653
 20
-42.777
 21
-42.698
  0
LINE
  8
0
 10
-28.653
 11
-28.579
 20
-42.698
 21
-42.628
  0
LINE
  8
0
 10
-28.579
 11
-28.496
 20
-42.628
 21
-42.568
  0
LINE
  8
0
 10
-28.496
 11
-28.407
 20
-42.568
 21
-42.518
  0
LINE
  8
0
 10
-28.407
 11
-28.312
 20
-42.518
 21
-42.481
  0
LINE
  8
0
 10
-28.312
 11
-28.213
 20
-42.481
 21
-42.455
  0
LINE
  8
0
 10
-28.213
 11
-28.111
 20
-42.455
 21
-42.443
  0
LINE
  8
0
 10
-28.111
 11
-28.009
 20
-42.443
 21
-42.443
  0
LINE
  8
0
 10
-28.009
 11
-27.907
 20
-42.443
 21
-42.455
  0
LINE
  8
0
 10
-27.907
 11
-27.808
 20
-42.455
 21
-42.481
  0
LINE
  8
0
 10
-27.808
 11
-27.713
 20
-42.481
 21
-42.518
  0
LINE
  8
0
 10
-27.713
 11
-27.624
 20
-42.518
 21
-42.568
  0
LINE
  8
0
 10
-27.624
 11
-27.541
 20
-42.568
 21
-42.628
  0
LINE
  8
0
 10
-27.541
 11
-27.467
 20
-42.628
 21
-42.698
  0
LINE
  8
0
 10
-27.467
 11
-27.401
 20
-42.698
 21
-42.777
  0
LINE
  8
0
 10
-27.401
 11
-27.347
 20
-42.777
 21
-42.863
  0
LINE
  8
0
 10
-27.347
 11
-27.303
 20
-42.863
 21
-42.955
  0
LINE
  8
0
 10
-27.303
 11
-27.272
 20
-42.955
 21
-43.053
  0
LINE
  8
0
 10
-27.272
 11
-27.252
 20
-43.053
 21
-43.153
  0
LINE
  8
0
 10
-27.252
 11
-27.246
 20
-43.153
 21
-43.255
  0
LINE
  8
0
 10
-27.246
 11
-27.252
 20
-43.255
 21
-43.357
  0
LINE
  8
0
 10
-27.252
 11
-27.272
 20
-43.357
 21
-43.457
  0
LINE
  8
0
 10
-27.272
 11
-27.303
 20
-43.457
 21
-43.555
  0
LINE
  8
0
 10
-27.303
 11
-27.347
 20
-43.555
 21
-43.647
  0
LINE
  8
0
 10
-27.347
 11
-27.401
 20
-43.647
 21
-43.733
  0
LINE
  8
0
 10
-27.401
 11
-27.467
 20
-43.733
 21
-43.812
  0
LINE
  8
0
 10
-27.467
 11
-27.541
 20
-43.812
 21
-43.882
  0
LINE
  8
0
 10
-27.541
 11
-27.624
 20
-43.882
 21
-43.942
  0
LINE
  8
0
 10
-27.624
 11
-27.713
 20
-43.942
 21
-43.992
  0
LINE
  8
0
 10
-27.713
 11
-27.808
 20
-43.992
 21
-44.029
  0
LINE
  8
0
 10
-27.808
 11
-27.907
 20
-44.029
 21
-44.055
  0
LINE
  8
0
 10
-27.907
 11
-28.009
 20
-44.055
 21
-44.067
  0
LINE
  8
0
 10
-28.009
 11
-28.111
 20
-44.067
 21
-44.067
  0
LINE
  8
0
 10
-28.111
 11
-28.213
 20
-44.067
 21
-44.055
  0
LINE
  8
0
 10
-28.213
 11
-28.312
 20
-44.055
 21
-44.029
  0
LINE
  8
0
 10
-28.312
 11
-28.407
 20
-44.029
 21
-43.992
  0
LINE
  8
0
 10
-28.407
 11
-28.496
 20
-43.992
 21
-43.942
  0
LINE
  8
0
 10
-28.496
 11
-28.579
 20
-43.942
 21
-43.882
  0
LINE
  8
0
 10
-28.579
 11
-28.653
 20
-43.882
 21
-43.812
  0
LINE
  8
0
 10
-28.653
 11
-28.719
 20
-43.812
 21
-43.733
  0
LINE
  8
0
 10
-28.719
 11
-28.773
 20
-43.733
 21
-43.647
  0
LINE
  8
0
 10
-28.773
 11
-28.817
 20
-43.647
 21
-43.555
  0
LINE
  8
0
 10
-28.817
 11
-28.848
 20
-43.555
 21
-43.457
  0
LINE
  8
0
 10
-28.848
 11
-28.868
 20
-43.457
 21
-43.357
  0
LINE
  8
0
 10
-28.868
 11
-28.874
 20
-43.357
 21
-43.255
  0
LINE
  8
0
 10
-28.874
 11
-28.868
 20
-23.035
 21
-22.933
  0
LINE
  8
0
 10
-28.868
 11
-28.848
 20
-22.933
 21
-22.833
  0
LINE
  8
0
 10
-28.848
 11
-28.817
 20
-22.833
 21
-22.735
  0
LINE
  8
0
 10
-28.817
 11
-28.773
 20
-22.735
 21
-22.643
  0
LINE
  8
0
 10
-28.773
 11
-28.719
 20
-22.643
 21
-22.557
  0
LINE
  8
0
 10
-28.719
 11
-28.653
 20
-22.557
 21
-22.478
  0
LINE
  8
0
 10
-28.653
 11
-28.579
 20
-22.478
 21
-22.408
  0
LINE
  8
0
 10
-28.579
 11
-28.496
 20
-22.408
 21
-22.348
  0
LINE
  8
0
 10
-28.496
 11
-28.407
 20
-22.348
 21
-22.298
  0
LINE
  8
0
 10
-28.407
 11
-28.312
 20
-22.298
 21
-22.261
  0
LINE
  8
0
 10
-28.312
 11
-28.213
 20
-22.261
 21
-22.235
  0
LINE
  8
0
 10
-28.213
 11
-28.111
 20
-22.235
 21
-22.223
  0
LINE
  8
0
 10
-28.111
 11
-28.009
 20
-22.223
 21
-22.223
  0
LINE
  8
0
 10
-28.009
 11
-27.907
 20
-22.223
 21
-22.235
  0
LINE
  8
0
 10
-27.907
 11
-27.808
 20
-22.235
 21
-22.261
  0
LINE
  8
0
 10
-27.808
 11
-27.713
 20
-22.261
 21
-22.298
  0
LINE
  8
0
 10
-27.713
 11
-27.624
 20
-22.298
 21
-22.348
  0
LINE
  8
0
 10
-27.624
 11
-27.541
 20
-22.348
 21
-22.408
  0
LINE
  8
0
 10
-27.541
 11
-27.467
 20
-22.408
 21
-22.478
  0
LINE
  8
0
 10
-27.467
 11
-27.401
 20
-22.478
 21
-22.557
  0
LINE
  8
0
 10
-27.401
 11
-27.347
 20
-22.557
 21
-22.643
  0
LINE
  8
0
 10
-27.347
 11
-27.303
 20
-22.643
 21
-22.735
  0
LINE
  8
0
 10
-27.303
 11
-27.272
 20
-22.735
 21
-22.833
  0
LINE
  8
0
 10
-27.272
 11
-27.252
 20
-22.833
 21
-22.933
  0
LINE
  8
0
 10
-27.252
 11
-27.246
 20
-22.933
 21
-23.035
  0
LINE
  8
0
 10
-27.246
 11
-27.252
 20
-23.035
 21
-23.137
  0
LINE
  8
0
 10
-27.252
 11
-27.272
 20
-23.137
 21
-23.237
  0
LINE
  8
0
 10
-27.272
 11
-27.303
 20
-23.237
 21
-23.335
  0
LINE
  8
0
 10
-27.303
 11
-27.347
 20
-23.335
 21
-23.427
  0
LINE
  8
0
 10
-27.347
 11
-27.401
 20
-23.427
 21
-23.513
  0
LINE
  8
0
 10
-27.401
 11
-27.467
 20
-23.513
 21
-23.592
  0
LINE
  8
0
 10
-27.467
 11
-27.541
 20
-23.592
 21
-23.662
  0
LINE
  8
0
 10
-27.541
 11
-27.624
 20
-23.662
 21
-23.722
  0
LINE
  8
0
 10
-27.624
 11
-27.713
 20
-23.722
 21
-23.772
  0
LINE
  8
0
 10
-27.713
 11
-27.808
 20
-23.772
 21
-23.809
  0
LINE
  8
0
 10
-27.808
 11
-27.907
 20
-23.809
 21
-23.835
  0
LINE
  8
0
 10
-27.907
 11
-28.009
 20
-23.835
 21
-23.847
  0
LINE
  8
0
 10
-28.009
 11
-28.111
 20
-23.847
 21
-23.847
  0
LINE
  8
0
 10
-28.111
 11
-28.213
 20
-23.847
 21
-23.835
  0
LINE
  8
0
 10
-28.213
 11
-28.312
 20
-23.835
 21
-23.809
  0
LINE
  8
0
 10
-28.312
 11
-28.407
 20
-23.809
 21
-23.772
  0
LINE
  8
0
 10
-28.407
 11
-28.496
 20
-23.772
 21
-23.722
  0
LINE
  8
0
 10
-28.496
 11
-28.579
 20
-23.722
 21
-23.662
  0
LINE
  8
0
 10
-28.579
 11
-28.653
 20
-23.662
 21
-23.592
  0
LINE
  8
0
 10
-28.653
 11
-28.719
 20
-23.592
 21
-23.513
  0
LINE
  8
0
 10
-28.719
 11
-28.773
 20
-23.513
 21
-23.427
  0
LINE
  8
0
 10
-28.773
 11
-28.817
 20
-23.427
 21
-23.335
  0
LINE
  8
0
 10
-28.817
 11
-28.848
 20
-23.335
 21
-23.237
  0
LINE
  8
0
 10
-28.848
 11
-28.868
 20
-23.237
 21
-23.137
  0
LINE
  8
0
 10
-28.868
 11
-28.874
 20
-23.137
 21
-23.035
  0
LINE
  8
0
 10
-28.874
 11
-28.868
 20
-17.855
 21
-17.753
  0
LINE
  8
0
 10
-28.868
 11
-28.848
 20
-17.753
 21
-17.653
  0
LINE
  8
0
 10
-28.848
 11
-28.817
 20
-17.653
 21
-17.555
  0
LINE
  8
0
 10
-28.817
 11
-28.773
 20
-17.555
 21
-17.463
  0
LINE
  8
0
 10
-28.773
 11
-28.719
 20
-17.463
 21
-17.377
  0
LINE
  8
0
 10
-28.719
 11
-28.653
 20
-17.377
 21
-17.298
  0
LINE
  8
0
 10
-28.653
 11
-28.579
 20
-17.298
 21
-17.228
  0
LINE
  8
0
 10
-28.579
 11
-28.496
 20
-17.228
 21
-17.168
  0
LINE
  8
0
 10
-28.496
 11
-28.407
 20
-17.168
 21
-17.118
  0
LINE
  8
0
 10
-28.407
 11
-28.312
 20
-17.118
 21
-17.081
  0
LINE
  8
0
 10
-28.312
 11
-28.213
 20
-17.081
 21
-17.055
  0
LINE
  8
0
 10
-28.213
 11
-28.111
 20
-17.055
 21
-17.043
  0
LINE
  8
0
 10
-28.111
 11
-28.009
 20
-17.043
 21
-17.043
  0
LINE
  8
0
 10
-28.009
 11
-27.907
 20
-17.043
 21
-17.055
  0
LINE
  8
0
 10
-27.907
 11
-27.808
 20
-17.055
 21
-17.081
  0
LINE
  8
0
 10
-27.808
 11
-27.713
 20
-17.081
 21
-17.118
  0
LINE
  8
0
 10
-27.713
 11
-27.624
 20
-17.118
 21
-17.168
  0
LINE
  8
0
 10
-27.624
 11
-27.541
 20
-17.168
 21
-17.228
  0
LINE
  8
0
 10
-27.541
 11
-27.467
 20
-17.228
 21
-17.298
  0
LINE
  8
0
 10
-27.467
 11
-27.401
 20
-17.298
 21
-17.377
  0
LINE
  8
0
 10
-27.401
 11
-27.347
 20
-17.377
 21
-17.463
  0
LINE
  8
0
 10
-27.347
 11
-27.303
 20
-17.463
 21
-17.555
  0
LINE
  8
0
 10
-27.303
 11
-27.272
 20
-17.555
 21
-17.653
  0
LINE
  8
0
 10
-27.272
 11
-27.252
 20
-17.653
 21
-17.753
  0
LINE
  8
0
 10
-27.252
 11
-27.246
 20
-17.753
 21
-17.855
  0
LINE
  8
0
 10
-27.246
 11
-27.252
 20
-17.855
 21
-17.957
  0
LINE
  8
0
 10
-27.252
 11
-27.272
 20
-17.957
 21
-18.057
  0
LINE
  8
0
 10
-27.272
 11
-27.303
 20
-18.057
 21
-18.155
  0
LINE
  8
0
 10
-27.303
 11
-27.347
 20
-18.155
 21
-18.247
  0
LINE
  8
0
 10
-27.347
 11
-27.401
 20
-18.247
 21
-18.333
  0
LINE
  8
0
 10
-27.401
 11
-27.467
 20
-18.333
 21
-18.412
  0
LINE
  8
0
 10
-27.467
 11
-27.541
 20
-18.412
 21
-18.482
  0
LINE
  8
0
 10
-27.541
 11
-27.624
 20
-18.482
 21
-18.542
  0
LINE
  8
0
 10
-27.624
 11
-27.713
 20
-18.542
 21
-18.592
  0
LINE
  8
0
 10
-27.713
 11
-27.808
 20
-18.592
 21
-18.629
  0
LINE
  8
0
 10
-27.808
 11
-27.907
 20
-18.629
 21
-18.655
  0
LINE
  8
0
 10
-27.907
 11
-28.009
 20
-18.655
 21
-18.667
  0
LINE
  8
0
 10
-28.009
 11
-28.111
 20
-18.667
 21
-18.667
  0
LINE
  8
0
 10
-28.111
 11
-28.213
 20
-18.667
 21
-18.655
  0
LINE
  8
0
 10
-28.213
 11
-28.312
 20
-18.655
 21
-18.629
  0
LINE
  8
0
 10
-28.312
 11
-28.407
 20
-18.629
 21
-18.592
  0
LINE
  8
0
 10
-28.407
 11
-28.496
 20
-18.592
 21
-18.542
  0
LINE
  8
0
 10
-28.496
 11
-28.579
 20
-18.542
 21
-18.482
  0
LINE
  8
0
 10
-28.579
 11
-28.653
 20
-18.482
 21
-18.412
  0
LINE
  8
0
 10
-28.653
 11
-28.719
 20
-18.412
 21
-18.333
  0
LINE
  8
0
 10
-28.719
 11
-28.773
 20
-18.333
 21
-18.247
  0
LINE
  8
0
 10
-28.773
 11
-28.817
 20
-18.247
 21
-18.155
  0
LINE
  8
0
 10
-28.817
 11
-28.848
 20
-18.155
 21
-18.057
  0
LINE
  8
0
 10
-28.848
 11
-28.868
 20
-18.057
 21
-17.957
  0
LINE
  8
0
 10
-28.868
 11
-28.874
 20
-17.957
 21
-17.855
  0
LINE
  8
0
 10
-28.874
 11
-28.868
 20
2.365
 21
2.467
  0
LINE
  8
0
 10
-28.868
 11
-28.848
 20
2.467
 21
2.567
  0
LINE
  8
0
 10
-28.848
 11
-28.817
 20
2.567
 21
2.665
  0
LINE
  8
0
 10
-28.817
 11
-28.773
 20
2.665
 21
2.757
  0
LINE
  8
0
 10
-28.773
 11
-28.719
 20
2.757
 21
2.843
  0
LINE
  8
0
 10
-28.719
 11
-28.653
 20
2.843
 21
2.922
  0
LINE
  8
0
 10
-28.653
 11
-28.579
 20
2.922
 21
2.992
  0
LINE
  8
0
 10
-28.579
 11
-28.496
 20
2.992
 21
3.052
  0
LINE
  8
0
 10
-28.496
 11
-28.407
 20
3.052
 21
3.102
  0
LINE
  8
0
 10
-28.407
 11
-28.312
 20
3.102
 21
3.139
  0
LINE
  8
0
 10
-28.312
 11
-28.213
 20
3.139
 21
3.165
  0
LINE
  8
0
 10
-28.213
 11
-28.111
 20
3.165
 21
3.177
  0
LINE
  8
0
 10
-28.111
 11
-28.009
 20
3.177
 21
3.177
  0
LINE
  8
0
 10
-28.009
 11
-27.907
 20
3.177
 21
3.165
  0
LINE
  8
0
 10
-27.907
 11
-27.808
 20
3.165
 21
3.139
  0
LINE
  8
0
 10
-27.808
 11
-27.713
 20
3.139
 21
3.102
  0
LINE
  8
0
 10
-27.713
 11
-27.624
 20
3.102
 21
3.052
  0
LINE
  8
0
 10
-27.624
 11
-27.541
 20
3.052
 21
2.992
  0
LINE
  8
0
 10
-27.541
 11
-27.467
 20
2.992
 21
2.922
  0
LINE
  8
0
 10
-27.467
 11
-27.401
 20
2.922
 21
2.843
  0
LINE
  8
0
 10
-27.401
 11
-27.347
 20
2.843
 21
2.757
  0
LINE
  8
0
 10
-27.347
 11
-27.303
 20
2.757
 21
2.665
  0
LINE
  8
0
 10
-27.303
 11
-27.272
 20
2.665
 21
2.567
  0
LINE
  8
0
 10
-27.272
 11
-27.252
 20
2.567
 21
2.467
  0
LINE
  8
0
 10
-27.252
 11
-27.246
 20
2.467
 21
2.365
  0
LINE
  8
0
 10
-27.246
 11
-27.252
 20
2.365
 21
2.263
  0
LINE
  8
0
 10
-27.252
 11
-27.272
 20
2.263
 21
2.163
  0
LINE
  8
0
 10
-27.272
 11
-27.303
 20
2.163
 21
2.065
  0
LINE
  8
0
 10
-27.303
 11
-27.347
 20
2.065
 21
1.973
  0
LINE
  8
0
 10
-27.347
 11
-27.401
 20
1.973
 21
1.887
  0
LINE
  8
0
 10
-27.401
 11
-27.467
 20
1.887
 21
1.808
  0
LINE
  8
0
 10
-27.467
 11
-27.541
 20
1.808
 21
1.738
  0
LINE
  8
0
 10
-27.541
 11
-27.624
 20
1.738
 21
1.678
  0
LINE
  8
0
 10
-27.624
 11
-27.713
 20
1.678
 21
1.628
  0
LINE
  8
0
 10
-27.713
 11
-27.808
 20
1.628
 21
1.591
  0
LINE
  8
0
 10
-27.808
 11
-27.907
 20
1.591
 21
1.565
  0
LINE
  8
0
 10
-27.907
 11
-28.009
 20
1.565
 21
1.553
  0
LINE
  8
0
 10
-28.009
 11
-28.111
 20
1.553
 21
1.553
  0
LINE
  8
0
 10
-28.111
 11
-28.213
 20
1.553
 21
1.565
  0
LINE
  8
0
 10
-28.213
 11
-28.312
 20
1.565
 21
1.591
  0
LINE
  8
0
 10
-28.312
 11
-28.407
 20
1.591
 21
1.628
  0
LINE
  8
0
 10
-28.407
 11
-28.496
 20
1.628
 21
1.678
  0
LINE
  8
0
 10
-28.496
 11
-28.579
 20
1.678
 21
1.738
  0
LINE
  8
0
 10
-28.579
 11
-28.653
 20
1.738
 21
1.808
  0
LINE
  8
0
 10
-28.653
 11
-28.719
 20
1.808
 21
1.887
  0
LINE
  8
0
 10
-28.719
 11
-28.773
 20
1.887
 21
1.973
  0
LINE
  8
0
 10
-28.773
 11
-28.817
 20
1.973
 21
2.065
  0
LINE
  8
0
 10
-28.817
 11
-28.848
 20
2.065
 21
2.163
  0
LINE
  8
0
 10
-28.848
 11
-28.868
 20
2.163
 21
2.263
  0
LINE
  8
0
 10
-28.868
 11
-28.874
 20
2.263
 21
2.365
  0
LINE
  8
0
 10
-28.874
 11
-28.868
 20
7.545
 21
7.647
  0
LINE
  8
0
 10
-28.868
 11
-28.848
 20
7.647
 21
7.747
  0
LINE
  8
0
 10
-28.848
 11
-28.817
 20
7.747
 21
7.845
  0
LINE
  8
0
 10
-28.817
 11
-28.773
 20
7.845
 21
7.937
  0
LINE
  8
0
 10
-28.773
 11
-28.719
 20
7.937
 21
8.023
  0
LINE
  8
0
 10
-28.719
 11
-28.653
 20
8.023
 21
8.102
  0
LINE
  8
0
 10
-28.653
 11
-28.579
 20
8.102
 21
8.172
  0
LINE
  8
0
 10
-28.579
 11
-28.496
 20
8.172
 21
8.232
  0
LINE
  8
0
 10
-28.496
 11
-28.407
 20
8.232
 21
8.282
  0
LINE
  8
0
 10
-28.407
 11
-28.312
 20
8.282
 21
8.319
  0
LINE
  8
0
 10
-28.312
 11
-28.213
 20
8.319
 21
8.345
  0
LINE
  8
0
 10
-28.213
 11
-28.111
 20
8.345
 21
8.357
  0
LINE
  8
0
 10
-28.111
 11
-28.009
 20
8.357
 21
8.357
  0
LINE
  8
0
 10
-28.009
 11
-27.907
 20
8.357
 21
8.345
  0
LINE
  8
0
 10
-27.907
 11
-27.808
 20
8.345
 21
8.319
  0
LINE
  8
0
 10
-27.808
 11
-27.713
 20
8.319
 21
8.282
  0
LINE
  8
0
 10
-27.713
 11
-27.624
 20
8.282
 21
8.232
  0
LINE
  8
0
 10
-27.624
 11
-27.541
 20
8.232
 21
8.172
  0
LINE
  8
0
 10
-27.541
 11
-27.467
 20
8.172
 21
8.102
  0
LINE
  8
0
 10
-27.467
 11
-27.401
 20
8.102
 21
8.023
  0
LINE
  8
0
 10
-27.401
 11
-27.347
 20
8.023
 21
7.937
  0
LINE
  8
0
 10
-27.347
 11
-27.303
 20
7.937
 21
7.845
  0
LINE
  8
0
 10
-27.303
 11
-27.272
 20
7.845
 21
7.747
  0
LINE
  8
0
 10
-27.272
 11
-27.252
 20
7.747
 21
7.647
  0
LINE
  8
0
 10
-27.252
 11
-27.246
 20
7.647
 21
7.545
  0
LINE
  8
0
 10
-27.246
 11
-27.252
 20
7.545
 21
7.443
  0
LINE
  8
0
 10
-27.252
 11
-27.272
 20
7.443
 21
7.343
  0
LINE
  8
0
 10
-27.272
 11
-27.303
 20
7.343
 21
7.245
  0
LINE
  8
0
 10
-27.303
 11
-27.347
 20
7.245
 21
7.153
  0
LINE
  8
0
 10
-27.347
 11
-27.401
 20
7.153
 21
7.067
  0
LINE
  8
0
 10
-27.401
 11
-27.467
 20
7.067
 21
6.988
  0
LINE
  8
0
 10
-27.467
 11
-27.541
 20
6.988
 21
6.918
  0
LINE
  8
0
 10
-27.541
 11
-27.624
 20
6.918
 21
6.858
  0
LINE
  8
0
 10
-27.624
 11
-27.713
 20
6.858
 21
6.808
  0
LINE
  8
0
 10
-27.713
 11
-27.808
 20
6.808
 21
6.771
  0
LINE
  8
0
 10
-27.808
 11
-27.907
 20
6.771
 21
6.745
  0
LINE
  8
0
 10
-27.907
 11
-28.009
 20
6.745
 21
6.733
  0
LINE
  8
0
 10
-28.009
 11
-28.111
 20
6.733
 21
6.733
  0
LINE
  8
0
 10
-28.111
 11
-28.213
 20
6.733
 21
6.745
  0
LINE
  8
0
 10
-28.213
 11
-28.312
 20
6.745
 21
6.771
  0
LINE
  8
0
 10
-28.312
 11
-28.407
 20
6.771
 21
6.808
  0
LINE
  8
0
 10
-28.407
 11
-28.496
 20
6.808
 21
6.858
  0
LINE
  8
0
 10
-28.496
 11
-28.579
 20
6.858
 21
6.918
  0
LINE
  8
0
 10
-28.579
 11
-28.653
 20
6.918
 21
6.988
  0
LINE
  8
0
 10
-28.653
 11
-28.719
 20
6.988
 21
7.067
  0
LINE
  8
0
 10
-28.719
 11
-28.773
 20
7.067
 21
7.153
  0
LINE
  8
0
 10
-28.773
 11
-28.817
 20
7.153
 21
7.245
  0
LINE
  8
0
 10
-28.817
 11
-28.848
 20
7.245
 21
7.343
  0
LINE
  8
0
 10
-28.848
 11
-28.868
 20
7.343
 21
7.443
  0
LINE
  8
0
 10
-28.868
 11
-28.874
 20
7.443
 21
7.545
  0
LINE
  8
0
 10
-28.874
 11
-28.868
 20
27.765
 21
27.867
  0
LINE
  8
0
 10
-28.868
 11
-28.848
 20
27.867
 21
27.967
  0
LINE
  8
0
 10
-28.848
 11
-28.817
 20
27.967
 21
28.065
  0
LINE
  8
0
 10
-28.817
 11
-28.773
 20
28.065
 21
28.157
  0
LINE
  8
0
 10
-28.773
 11
-28.719
 20
28.157
 21
28.243
  0
LINE
  8
0
 10
-28.719
 11
-28.653
 20
28.243
 21
28.322
  0
LINE
  8
0
 10
-28.653
 11
-28.579
 20
28.322
 21
28.392
  0
LINE
  8
0
 10
-28.579
 11
-28.496
 20
28.392
 21
28.452
  0
LINE
  8
0
 10
-28.496
 11
-28.407
 20
28.452
 21
28.502
  0
LINE
  8
0
 10
-28.407
 11
-28.312
 20
28.502
 21
28.539
  0
LINE
  8
0
 10
-28.312
 11
-28.213
 20
28.539
 21
28.565
  0
LINE
  8
0
 10
-28.213
 11
-28.111
 20
28.565
 21
28.577
  0
LINE
  8
0
 10
-28.111
 11
-28.009
 20
28.577
 21
28.577
  0
LINE
  8
0
 10
-28.009
 11
-27.907
 20
28.577
 21
28.565
  0
LINE
  8
0
 10
-27.907
 11
-27.808
 20
28.565
 21
28.539
  0
LINE
  8
0
 10
-27.808
 11
-27.713
 20
28.539
 21
28.502
  0
LINE
  8
0
 10
-27.713
 11
-27.624
 20
28.502
 21
28.452
  0
LINE
  8
0
 10
-27.624
 11
-27.541
 20
28.452
 21
28.392
  0
LINE
  8
0
 10
-27.541
 11
-27.467
 20
28.392
 21
28.322
  0
LINE
  8
0
 10
-27.467
 11
-27.401
 20
28.322
 21
28.243
  0
LINE
  8
0
 10
-27.401
 11
-27.347
 20
28.243
 21
28.157
  0
LINE
  8
0
 10
-27.347
 11
-27.303
 20
28.157
 21
28.065
  0
LINE
  8
0
 10
-27.303
 11
-27.272
 20
28.065
 21
27.967
  0
LINE
  8
0
 10
-27.272
 11
-27.252
 20
27.967
 21
27.867
  0
LINE
  8
0
 10
-27.252
 11
-27.246
 20
27.867
 21
27.765
  0
LINE
  8
0
 10
-27.246
 11
-27.252
 20
27.765
 21
27.663
  0
LINE
  8
0
 10
-27.252
 11
-27.272
 20
27.663
 21
27.563
  0
LINE
  8
0
 10
-27.272
 11
-27.303
 20
27.563
 21
27.465
  0
LINE
  8
0
 10
-27.303
 11
-27.347
 20
27.465
 21
27.373
  0
LINE
  8
0
 10
-27.347
 11
-27.401
 20
27.373
 21
27.287
  0
LINE
  8
0
 10
-27.401
 11
-27.467
 20
27.287
 21
27.208
  0
LINE
  8
0
 10
-27.467
 11
-27.541
 20
27.208
 21
27.138
  0
LINE
  8
0
 10
-27.541
 11
-27.624
 20
27.138
 21
27.078
  0
LINE
  8
0
 10
-27.624
 11
-27.713
 20
27.078
 21
27.028
  0
LINE
  8
0
 10
-27.713
 11
-27.808
 20
27.028
 21
26.991
  0
LINE
  8
0
 10
-27.808
 11
-27.907
 20
26.991
 21
26.965
  0
LINE
  8
0
 10
-27.907
 11
-28.009
 20
26.965
 21
26.953
  0
LINE
  8
0
 10
-28.009
 11
-28.111
 20
26.953
 21
26.953
  0
LINE
  8
0
 10
-28.111
 11
-28.213
 20
26.953
 21
26.965
  0
LINE
  8
0
 10
-28.213
 11
-28.312
 20
26.965
 21
26.991
  0
LINE
  8
0
 10
-28.312
 11
-28.407
 20
26.991
 21
27.028
  0
LINE
  8
0
 10
-28.407
 11
-28.496
 20
27.028
 21
27.078
  0
LINE
  8
0
 10
-28.496
 11
-28.579
 20
27.078
 21
27.138
  0
LINE
  8
0
 10
-28.579
 11
-28.653
 20
27.138
 21
27.208
  0
LINE
  8
0
 10
-28.653
 11
-28.719
 20
27.208
 21
27.287
  0
LINE
  8
0
 10
-28.719
 11
-28.773
 20
27.287
 21
27.373
  0
LINE
  8
0
 10
-28.773
 11
-28.817
 20
27.373
 21
27.465
  0
LINE
  8
0
 10
-28.817
 11
-28.848
 20
27.465
 21
27.563
  0
LINE
  8
0
 10
-28.848
 11
-28.868
 20
27.563
 21
27.663
  0
LINE
  8
0
 10
-28.868
 11
-28.874
 20
27.663
 21
27.765
  0
LINE
  8
0
 10
-28.874
 11
-28.868
 20
32.945
 21
33.047
  0
LINE
  8
0
 10
-28.868
 11
-28.848
 20
33.047
 21
33.147
  0
LINE
  8
0
 10
-28.848
 11
-28.817
 20
33.147
 21
33.245
  0
LINE
  8
0
 10
-28.817
 11
-28.773
 20
33.245
 21
33.337
  0
LINE
  8
0
 10
-28.773
 11
-28.719
 20
33.337
 21
33.423
  0
LINE
  8
0
 10
-28.719
 11
-28.653
 20
33.423
 21
33.502
  0
LINE
  8
0
 10
-28.653
 11
-28.579
 20
33.502
 21
33.572
  0
LINE
  8
0
 10
-28.579
 11
-28.496
 20
33.572
 21
33.632
  0
LINE
  8
0
 10
-28.496
 11
-28.407
 20
33.632
 21
33.682
  0
LINE
  8
0
 10
-28.407
 11
-28.312
 20
33.682
 21
33.719
  0
LINE
  8
0
 10
-28.312
 11
-28.213
 20
33.719
 21
33.745
  0
LINE
  8
0
 10
-28.213
 11
-28.111
 20
33.745
 21
33.757
  0
LINE
  8
0
 10
-28.111
 11
-28.009
 20
33.757
 21
33.757
  0
LINE
  8
0
 10
-28.009
 11
-27.907
 20
33.757
 21
33.745
  0
LINE
  8
0
 10
-27.907
 11
-27.808
 20
33.745
 21
33.719
  0
LINE
  8
0
 10
-27.808
 11
-27.713
 20
33.719
 21
33.682
  0
LINE
  8
0
 10
-27.713
 11
-27.624
 20
33.682
 21
33.632
  0
LINE
  8
0
 10
-27.624
 11
-27.541
 20
33.632
 21
33.572
  0
LINE
  8
0
 10
-27.541
 11
-27.467
 20
33.572
 21
33.502
  0
LINE
  8
0
 10
-27.467
 11
-27.401
 20
33.502
 21
33.423
  0
LINE
  8
0
 10
-27.401
 11
-27.347
 20
33.423
 21
33.337
  0
LINE
  8
0
 10
-27.347
 11
-27.303
 20
33.337
 21
33.245
  0
LINE
  8
0
 10
-27.303
 11
-27.272
 20
33.245
 21
33.147
  0
LINE
  8
0
 10
-27.272
 11
-27.252
 20
33.147
 21
33.047
  0
LINE
  8
0
 10
-27.252
 11
-27.246
 20
33.047
 21
32.945
  0
LINE
  8
0
 10
-27.246
 11
-27.252
 20
32.945
 21
32.843
  0
LINE
  8
0
 10
-27.252
 11
-27.272
 20
32.843
 21
32.743
  0
LINE
  8
0
 10
-27.272
 11
-27.303
 20
32.743
 21
32.645
  0
LINE
  8
0
 10
-27.303
 11
-27.347
 20
32.645
 21
32.553
  0
LINE
  8
0
 10
-27.347
 11
-27.401
 20
32.553
 21
32.467
  0
LINE
  8
0
 10
-27.401
 11
-27.467
 20
32.467
 21
32.388
  0
LINE
  8
0
 10
-27.467
 11
-27.541
 20
32.388
 21
32.318
  0
LINE
  8
0
 10
-27.541
 11
-27.624
 20
32.318
 21
32.258
  0
LINE
  8
0
 10
-27.624
 11
-27.713
 20
32.258
 21
32.208
  0
LINE
  8
0
 10
-27.713
 11
-27.808
 20
32.208
 21
32.171
  0
LINE
  8
0
 10
-27.808
 11
-27.907
 20
32.171
 21
32.145
  0
LINE
  8
0
 10
-27.907
 11
-28.009
 20
32.145
 21
32.133
  0
LINE
  8
0
 10
-28.009
 11
-28.111
 20
32.133
 21
32.133
  0
LINE
  8
0
 10
-28.111
 11
-28.213
 20
32.133
 21
32.145
  0
LINE
  8
0
 10
-28.213
 11
-28.312
 20
32.145
 21
32.171
  0
LINE
  8
0
 10
-28.312
 11
-28.407
 20
32.171
 21
32.208
  0
LINE
  8
0
 10
-28.407
 11
-28.496
 20
32.208
 21
32.258
  0
LINE
  8
0
 10
-28.496
 11
-28.579
 20
32.258
 21
32.318
  0
LINE
  8
0
 10
-28.579
 11
-28.653
 20
32.318
 21
32.388
  0
LINE
  8
0
 10
-28.653
 11
-28.719
 20
32.388
 21
32.467
  0
LINE
  8
0
 10
-28.719
 11
-28.773
 20
32.467
 21
32.553
  0
LINE
  8
0
 10
-28.773
 11
-28.817
 20
32.553
 21
32.645
  0
LINE
  8
0
 10
-28.817
 11
-28.848
 20
32.645
 21
32.743
  0
LINE
  8
0
 10
-28.848
 11
-28.868
 20
32.743
 21
32.843
  0
LINE
  8
0
 10
-28.868
 11
-28.874
 20
32.843
 21
32.945
  0
LINE
  8
0
 10
-28.874
 11
-28.868
 20
53.165
 21
53.267
  0
LINE
  8
0
 10
-28.868
 11
-28.848
 20
53.267
 21
53.367
  0
LINE
  8
0
 10
-28.848
 11
-28.817
 20
53.367
 21
53.465
  0
LINE
  8
0
 10
-28.817
 11
-28.773
 20
53.465
 21
53.557
  0
LINE
  8
0
 10
-28.773
 11
-28.719
 20
53.557
 21
53.643
  0
LINE
  8
0
 10
-28.719
 11
-28.653
 20
53.643
 21
53.722
  0
LINE
  8
0
 10
-28.653
 11
-28.579
 20
53.722
 21
53.792
  0
LINE
  8
0
 10
-28.579
 11
-28.496
 20
53.792
 21
53.852
  0
LINE
  8
0
 10
-28.496
 11
-28.407
 20
53.852
 21
53.902
  0
LINE
  8
0
 10
-28.407
 11
-28.312
 20
53.902
 21
53.939
  0
LINE
  8
0
 10
-28.312
 11
-28.213
 20
53.939
 21
53.965
  0
LINE
  8
0
 10
-28.213
 11
-28.111
 20
53.965
 21
53.977
  0
LINE
  8
0
 10
-28.111
 11
-28.009
 20
53.977
 21
53.977
  0
LINE
  8
0
 10
-28.009
 11
-27.907
 20
53.977
 21
53.965
  0
LINE
  8
0
 10
-27.907
 11
-27.808
 20
53.965
 21
53.939
  0
LINE
  8
0
 10
-27.808
 11
-27.713
 20
53.939
 21
53.902
  0
LINE
  8
0
 10
-27.713
 11
-27.624
 20
53.902
 21
53.852
  0
LINE
  8
0
 10
-27.624
 11
-27.541
 20
53.852
 21
53.792
  0
LINE
  8
0
 10
-27.541
 11
-27.467
 20
53.792
 21
53.722
  0
LINE
  8
0
 10
-27.467
 11
-27.401
 20
53.722
 21
53.643
  0
LINE
  8
0
 10
-27.401
 11
-27.347
 20
53.643
 21
53.557
  0
LINE
  8
0
 10
-27.347
 11
-27.303
 20
53.557
 21
53.465
  0
LINE
  8
0
 10
-27.303
 11
-27.272
 20
53.465
 21
53.367
  0
LINE
  8
0
 10
-27.272
 11
-27.252
 20
53.367
 21
53.267
  0
LINE
  8
0
 10
-27.252
 11
-27.246
 20
53.267
 21
53.165
  0
LINE
  8
0
 10
-27.246
 11
-27.252
 20
53.165
 21
53.063
  0
LINE
  8
0
 10
-27.252
 11
-27.272
 20
53.063
 21
52.963
  0
LINE
  8
0
 10
-27.272
 11
-27.303
 20
52.963
 21
52.865
  0
LINE
  8
0
 10
-27.303
 11
-27.347
 20
52.865
 21
52.773
  0
LINE
  8
0
 10
-27.347
 11
-27.401
 20
52.773
 21
52.687
  0
LINE
  8
0
 10
-27.401
 11
-27.467
 20
52.687
 21
52.608
  0
LINE
  8
0
 10
-27.467
 11
-27.541
 20
52.608
 21
52.538
  0
LINE
  8
0
 10
-27.541
 11
-27.624
 20
52.538
 21
52.478
  0
LINE
  8
0
 10
-27.624
 11
-27.713
 20
52.478
 21
52.428
  0
LINE
  8
0
 10
-27.713
 11
-27.808
 20
52.428
 21
52.391
  0
LINE
  8
0
 10
-27.808
 11
-27.907
 20
52.391
 21
52.365
  0
LINE
  8
0
 10
-27.907
 11
-28.009
 20
52.365
 21
52.353
  0
LINE
  8
0
 10
-28.009
 11
-28.111
 20
52.353
 21
52.353
  0
LINE
  8
0
 10
-28.111
 11
-28.213
 20
52.353
 21
52.365
  0
LINE
  8
0
 10
-28.213
 11
-28.312
 20
52.365
 21
52.391
  0
LINE
  8
0
 10
-28.312
 11
-28.407
 20
52.391
 21
52.428
  0
LINE
  8
0
 10
-28.407
 11
-28.496
 20
52.428
 21
52.478
  0
LINE
  8
0
 10
-28.496
 11
-28.579
 20
52.478
 21
52.538
  0
LINE
  8
0
 10
-28.579
 11
-28.653
 20
52.538
 21
52.608
  0
LINE
  8
0
 10
-28.653
 11
-28.719
 20
52.608
 21
52.687
  0
LINE
  8
0
 10
-28.719
 11
-28.773
 20
52.687
 21
52.773
  0
LINE
  8
0
 10
-28.773
 11
-28.817
 20
52.773
 21
52.865
  0
LINE
  8
0
 10
-28.817
 11
-28.848
 20
52.865
 21
52.963
  0
LINE
  8
0
 10
-28.848
 11
-28.868
 20
52.963
 21
53.063
  0
LINE
  8
0
 10
-28.868
 11
-28.874
 20
53.063
 21
53.165
  0
LINE
  8
0
 10
-28.874
 11
-28.868
 20
58.345
 21
58.447
  0
LINE
  8
0
 10
-28.868
 11
-28.848
 20
58.447
 21
58.547
  0
LINE
  8
0
 10
-28.848
 11
-28.817
 20
58.547
 21
58.645
  0
LINE
  8
0
 10
-28.817
 11
-28.773
 20
58.645
 21
58.737
  0
LINE
  8
0
 10
-28.773
 11
-28.719
 20
58.737
 21
58.823
  0
LINE
  8
0
 10
-28.719
 11
-28.653
 20
58.823
 21
58.902
  0
LINE
  8
0
 10
-28.653
 11
-28.579
 20
58.902
 21
58.972
  0
LINE
  8
0
 10
-28.579
 11
-28.496
 20
58.972
 21
59.032
  0
LINE
  8
0
 10
-28.496
 11
-28.407
 20
59.032
 21
59.082
  0
LINE
  8
0
 10
-28.407
 11
-28.312
 20
59.082
 21
59.119
  0
LINE
  8
0
 10
-28.312
 11
-28.213
 20
59.119
 21
59.145
  0
LINE
  8
0
 10
-28.213
 11
-28.111
 20
59.145
 21
59.157
  0
LINE
  8
0
 10
-28.111
 11
-28.009
 20
59.157
 21
59.157
  0
LINE
  8
0
 10
-28.009
 11
-27.907
 20
59.157
 21
59.145
  0
LINE
  8
0
 10
-27.907
 11
-27.808
 20
59.145
 21
59.119
  0
LINE
  8
0
 10
-27.808
 11
-27.713
 20
59.119
 21
59.082
  0
LINE
  8
0
 10
-27.713
 11
-27.624
 20
59.082
 21
59.032
  0
LINE
  8
0
 10
-27.624
 11
-27.541
 20
59.032
 21
58.972
  0
LINE
  8
0
 10
-27.541
 11
-27.467
 20
58.972
 21
58.902
  0
LINE
  8
0
 10
-27.467
 11
-27.401
 20
58.902
 21
58.823
  0
LINE
  8
0
 10
-27.401
 11
-27.347
 20
58.823
 21
58.737
  0
LINE
  8
0
 10
-27.347
 11
-27.303
 20
58.737
 21
58.645
  0
LINE
  8
0
 10
-27.303
 11
-27.272
 20
58.645
 21
58.547
  0
LINE
  8
0
 10
-27.272
 11
-27.252
 20
58.547
 21
58.447
  0
LINE
  8
0
 10
-27.252
 11
-27.246
 20
58.447
 21
58.345
  0
LINE
  8
0
 10
-27.246
 11
-27.252
 20
58.345
 21
58.243
  0
LINE
  8
0
 10
-27.252
 11
-27.272
 20
58.243
 21
58.143
  0
LINE
  8
0
 10
-27.272
 11
-27.303
 20
58.143
 21
58.045
  0
LINE
  8
0
 10
-27.303
 11
-27.347
 20
58.045
 21
57.953
  0
LINE
  8
0
 10
-27.347
 11
-27.401
 20
57.953
 21
57.867
  0
LINE
  8
0
 10
-27.401
 11
-27.467
 20
57.867
 21
57.788
  0
LINE
  8
0
 10
-27.467
 11
-27.541
 20
57.788
 21
57.718
  0
LINE
  8
0
 10
-27.541
 11
-27.624
 20
57.718
 21
57.658
  0
LINE
  8
0
 10
-27.624
 11
-27.713
 20
57.658
 21
57.608
  0
LINE
  8
0
 10
-27.713
 11
-27.808
 20
57.608
 21
57.571
  0
LINE
  8
0
 10
-27.808
 11
-27.907
 20
57.571
 21
57.545
  0
LINE
  8
0
 10
-27.907
 11
-28.009
 20
57.545
 21
57.533
  0
LINE
  8
0
 10
-28.009
 11
-28.111
 20
57.533
 21
57.533
  0
LINE
  8
0
 10
-28.111
 11
-28.213
 20
57.533
 21
57.545
  0
LINE
  8
0
 10
-28.213
 11
-28.312
 20
57.545
 21
57.571
  0
LINE
  8
0
 10
-28.312
 11
-28.407
 20
57.571
 21
57.608
  0
LINE
  8
0
 10
-28.407
 11
-28.496
 20
57.608
 21
57.658
  0
LINE
  8
0
 10
-28.496
 11
-28.579
 20
57.658
 21
57.718
  0
LINE
  8
0
 10
-28.579
 11
-28.653
 20
57.718
 21
57.788
  0
LINE
  8
0
 10
-28.653
 11
-28.719
 20
57.788
 21
57.867
  0
LINE
  8
0
 10
-28.719
 11
-28.773
 20
57.867
 21
57.953
  0
LINE
  8
0
 10
-28.773
 11
-28.817
 20
57.953
 21
58.045
  0
LINE
  8
0
 10
-28.817
 11
-28.848
 20
58.045
 21
58.143
  0
LINE
  8
0
 10
-28.848
 11
-28.868
 20
58.143
 21
58.243
  0
LINE
  8
0
 10
-28.868
 11
-28.874
 20
58.243
 21
58.345
  0
LINE
  8
0
 10
-28.874
 11
-28.868
 20
78.565
 21
78.667
  0
LINE
  8
0
 10
-28.868
 11
-28.848
 20
78.667
 21
78.767
  0
LINE
  8
0
 10
-28.848
 11
-28.817
 20
78.767
 21
78.865
  0
LINE
  8
0
 10
-28.817
 11
-28.773
 20
78.865
 21
78.957
  0
LINE
  8
0
 10
-28.773
 11
-28.719
 20
78.957
 21
79.043
  0
LINE
  8
0
 10
-28.719
 11
-28.653
 20
79.043
 21
79.122
  0
LINE
  8
0
 10
-28.653
 11
-28.579
 20
79.122
 21
79.192
  0
LINE
  8
0
 10
-28.579
 11
-28.496
 20
79.192
 21
79.252
  0
LINE
  8
0
 10
-28.496
 11
-28.407
 20
79.252
 21
79.302
  0
LINE
  8
0
 10
-28.407
 11
-28.312
 20
79.302
 21
79.339
  0
LINE
  8
0
 10
-28.312
 11
-28.213
 20
79.339
 21
79.365
  0
LINE
  8
0
 10
-28.213
 11
-28.111
 20
79.365
 21
79.377
  0
LINE
  8
0
 10
-28.111
 11
-28.009
 20
79.377
 21
79.377
  0
LINE
  8
0
 10
-28.009
 11
-27.907
 20
79.377
 21
79.365
  0
LINE
  8
0
 10
-27.907
 11
-27.808
 20
79.365
 21
79.339
  0
LINE
  8
0
 10
-27.808
 11
-27.713
 20
79.339
 21
79.302
  0
LINE
  8
0
 10
-27.713
 11
-27.624
 20
79.302
 21
79.252
  0
LINE
  8
0
 10
-27.624
 11
-27.541
 20
79.252
 21
79.192
  0
LINE
  8
0
 10
-27.541
 11
-27.467
 20
79.192
 21
79.122
  0
LINE
  8
0
 10
-27.467
 11
-27.401
 20
79.122
 21
79.043
  0
LINE
  8
0
 10
-27.401
 11
-27.347
 20
79.043
 21
78.957
  0
LINE
  8
0
 10
-27.347
 11
-27.303
 20
78.957
 21
78.865
  0
LINE
  8
0
 10
-27.303
 11
-27.272
 20
78.865
 21
78.767
  0
LINE
  8
0
 10
-27.272
 11
-27.252
 20
78.767
 21
78.667
  0
LINE
  8
0
 10
-27.252
 11
-27.246
 20
78.667
 21
78.565
  0
LINE
  8
0
 10
-27.246
 11
-27.252
 20
78.565
 21
78.463
  0
LINE
  8
0
 10
-27.252
 11
-27.272
 20
78.463
 21
78.363
  0
LINE
  8
0
 10
-27.272
 11
-27.303
 20
78.363
 21
78.265
  0
LINE
  8
0
 10
-27.303
 11
-27.347
 20
78.265
 21
78.173
  0
LINE
  8
0
 10
-27.347
 11
-27.401
 20
78.173
 21
78.087
  0
LINE
  8
0
 10
-27.401
 11
-27.467
 20
78.087
 21
78.008
  0
LINE
  8
0
 10
-27.467
 11
-27.541
 20
78.008
 21
77.938
  0
LINE
  8
0
 10
-27.541
 11
-27.624
 20
77.938
 21
77.878
  0
LINE
  8
0
 10
-27.624
 11
-27.713
 20
77.878
 21
77.828
  0
LINE
  8
0
 10
-27.713
 11
-27.808
 20
77.828
 21
77.791
  0
LINE
  8
0
 10
-27.808
 11
-27.907
 20
77.791
 21
77.765
  0
LINE
  8
0
 10
-27.907
 11
-28.009
 20
77.765
 21
77.753
  0
LINE
  8
0
 10
-28.009
 11
-28.111
 20
77.753
 21
77.753
  0
LINE
  8
0
 10
-28.111
 11
-28.213
 20
77.753
 21
77.765
  0
LINE
  8
0
 10
-28.213
 11
-28.312
 20
77.765
 21
77.791
  0
LINE
  8
0
 10
-28.312
 11
-28.407
 20
77.791
 21
77.828
  0
LINE
  8
0
 10
-28.407
 11
-28.496
 20
77.828
 21
77.878
  0
LINE
  8
0
 10
-28.496
 11
-28.579
 20
77.878
 21
77.938
  0
LINE
  8
0
 10
-28.579
 11
-28.653
 20
77.938
 21
78.008
  0
LINE
  8
0
 10
-28.653
 11
-28.719
 20
78.008
 21
78.087
  0
LINE
  8
0
 10
-28.719
 11
-28.773
 20
78.087
 21
78.173
  0
LINE
  8
0
 10
-28.773
 11
-28.817
 20
78.173
 21
78.265
  0
LINE
  8
0
 10
-28.817
 11
-28.848
 20
78.265
 21
78.363
  0
LINE
  8
0
 10
-28.848
 11
-28.868
 20
78.363
 21
78.463
  0
LINE
  8
0
 10
-28.868
 11
-28.874
 20
78.463
 21
78.565
  0
LINE
  8
0
 10
-28.774
 11
-28.768
 20
-86.36
 21
-86.258
  0
LINE
  8
0
 10
-28.768
 11
-28.748
 20
-86.258
 21
-86.158
  0
LINE
  8
0
 10
-28.748
 11
-28.717
 20
-86.158
 21
-86.06
  0
LINE
  8
0
 10
-28.717
 11
-28.673
 20
-86.06
 21
-85.968
  0
LINE
  8
0
 10
-28.673
 11
-28.619
 20
-85.968
 21
-85.882
  0
LINE
  8
0
 10
-28.619
 11
-28.553
 20
-85.882
 21
-85.803
  0
LINE
  8
0
 10
-28.553
 11
-28.479
 20
-85.803
 21
-85.733
  0
LINE
  8
0
 10
-28.479
 11
-28.396
 20
-85.733
 21
-85.673
  0
LINE
  8
0
 10
-28.396
 11
-28.307
 20
-85.673
 21
-85.623
  0
LINE
  8
0
 10
-28.307
 11
-28.212
 20
-85.623
 21
-85.586
  0
LINE
  8
0
 10
-28.212
 11
-28.113
 20
-85.586
 21
-85.56
  0
LINE
  8
0
 10
-28.113
 11
-28.011
 20
-85.56
 21
-85.548
  0
LINE
  8
0
 10
-28.011
 11
-27.909
 20
-85.548
 21
-85.548
  0
LINE
  8
0
 10
-27.909
 11
-27.807
 20
-85.548
 21
-85.56
  0
LINE
  8
0
 10
-27.807
 11
-27.708
 20
-85.56
 21
-85.586
  0
LINE
  8
0
 10
-27.708
 11
-27.613
 20
-85.586
 21
-85.623
  0
LINE
  8
0
 10
-27.613
 11
-27.524
 20
-85.623
 21
-85.673
  0
LINE
  8
0
 10
-27.524
 11
-27.441
 20
-85.673
 21
-85.733
  0
LINE
  8
0
 10
-27.441
 11
-27.367
 20
-85.733
 21
-85.803
  0
LINE
  8
0
 10
-27.367
 11
-27.301
 20
-85.803
 21
-85.882
  0
LINE
  8
0
 10
-27.301
 11
-27.247
 20
-85.882
 21
-85.968
  0
LINE
  8
0
 10
-27.247
 11
-27.203
 20
-85.968
 21
-86.06
  0
LINE
  8
0
 10
-27.203
 11
-27.172
 20
-86.06
 21
-86.158
  0
LINE
  8
0
 10
-27.172
 11
-27.152
 20
-86.158
 21
-86.258
  0
LINE
  8
0
 10
-27.152
 11
-27.146
 20
-86.258
 21
-86.36
  0
LINE
  8
0
 10
-27.146
 11
-27.152
 20
-86.36
 21
-86.462
  0
LINE
  8
0
 10
-27.152
 11
-27.172
 20
-86.462
 21
-86.562
  0
LINE
  8
0
 10
-27.172
 11
-27.203
 20
-86.562
 21
-86.66
  0
LINE
  8
0
 10
-27.203
 11
-27.247
 20
-86.66
 21
-86.752
  0
LINE
  8
0
 10
-27.247
 11
-27.301
 20
-86.752
 21
-86.838
  0
LINE
  8
0
 10
-27.301
 11
-27.367
 20
-86.838
 21
-86.917
  0
LINE
  8
0
 10
-27.367
 11
-27.441
 20
-86.917
 21
-86.987
  0
LINE
  8
0
 10
-27.441
 11
-27.524
 20
-86.987
 21
-87.047
  0
LINE
  8
0
 10
-27.524
 11
-27.613
 20
-87.047
 21
-87.097
  0
LINE
  8
0
 10
-27.613
 11
-27.708
 20
-87.097
 21
-87.134
  0
LINE
  8
0
 10
-27.708
 11
-27.807
 20
-87.134
 21
-87.16
  0
LINE
  8
0
 10
-27.807
 11
-27.909
 20
-87.16
 21
-87.172
  0
LINE
  8
0
 10
-27.909
 11
-28.011
 20
-87.172
 21
-87.172
  0
LINE
  8
0
 10
-28.011
 11
-28.113
 20
-87.172
 21
-87.16
  0
LINE
  8
0
 10
-28.113
 11
-28.212
 20
-87.16
 21
-87.134
  0
LINE
  8
0
 10
-28.212
 11
-28.307
 20
-87.134
 21
-87.097
  0
LINE
  8
0
 10
-28.307
 11
-28.396
 20
-87.097
 21
-87.047
  0
LINE
  8
0
 10
-28.396
 11
-28.479
 20
-87.047
 21
-86.987
  0
LINE
  8
0
 10
-28.479
 11
-28.553
 20
-86.987
 21
-86.917
  0
LINE
  8
0
 10
-28.553
 11
-28.619
 20
-86.917
 21
-86.838
  0
LINE
  8
0
 10
-28.619
 11
-28.673
 20
-86.838
 21
-86.752
  0
LINE
  8
0
 10
-28.673
 11
-28.717
 20
-86.752
 21
-86.66
  0
LINE
  8
0
 10
-28.717
 11
-28.748
 20
-86.66
 21
-86.562
  0
LINE
  8
0
 10
-28.748
 11
-28.768
 20
-86.562
 21
-86.462
  0
LINE
  8
0
 10
-28.768
 11
-28.774
 20
-86.462
 21
-86.36
  0
LINE
  8
0
 10
-28.774
 11
-28.768
 20
86.36
 21
86.462
  0
LINE
  8
0
 10
-28.768
 11
-28.748
 20
86.462
 21
86.562
  0
LINE
  8
0
 10
-28.748
 11
-28.717
 20
86.562
 21
86.66
  0
LINE
  8
0
 10
-28.717
 11
-28.673
 20
86.66
 21
86.752
  0
LINE
  8
0
 10
-28.673
 11
-28.619
 20
86.752
 21
86.838
  0
LINE
  8
0
 10
-28.619
 11
-28.553
 20
86.838
 21
86.917
  0
LINE
  8
0
 10
-28.553
 11
-28.479
 20
86.917
 21
86.987
  0
LINE
  8
0
 10
-28.479
 11
-28.396
 20
86.987
 21
87.047
  0
LINE
  8
0
 10
-28.396
 11
-28.307
 20
87.047
 21
87.097
  0
LINE
  8
0
 10
-28.307
 11
-28.212
 20
87.097
 21
87.134
  0
LINE
  8
0
 10
-28.212
 11
-28.113
 20
87.134
 21
87.16
  0
LINE
  8
0
 10
-28.113
 11
-28.011
 20
87.16
 21
87.172
  0
LINE
  8
0
 10
-28.011
 11
-27.909
 20
87.172
 21
87.172
  0
LINE
  8
0
 10
-27.909
 11
-27.807
 20
87.172
 21
87.16
  0
LINE
  8
0
 10
-27.807
 11
-27.708
 20
87.16
 21
87.134
  0
LINE
  8
0
 10
-27.708
 11
-27.613
 20
87.134
 21
87.097
  0
LINE
  8
0
 10
-27.613
 11
-27.524
 20
87.097
 21
87.047
  0
LINE
  8
0
 10
-27.524
 11
-27.441
 20
87.047
 21
86.987
  0
LINE
  8
0
 10
-27.441
 11
-27.367
 20
86.987
 21
86.917
  0
LINE
  8
0
 10
-27.367
 11
-27.301
 20
86.917
 21
86.838
  0
LINE
  8
0
 10
-27.301
 11
-27.247
 20
86.838
 21
86.752
  0
LINE
  8
0
 10
-27.247
 11
-27.203
 20
86.752
 21
86.66
  0
LINE
  8
0
 10
-27.203
 11
-27.172
 20
86.66
 21
86.562
  0
LINE
  8
0
 10
-27.172
 11
-27.152
 20
86.562
 21
86.462
  0
LINE
  8
0
 10
-27.152
 11
-27.146
 20
86.462
 21
86.36
  0
LINE
  8
0
 10
-27.146
 11
-27.152
 20
86.36
 21
86.258
  0
LINE
  8
0
 10
-27.152
 11
-27.172
 20
86.258
 21
86.158
  0
LINE
  8
0
 10
-27.172
 11
-27.203
 20
86.158
 21
86.06
  0
LINE
  8
0
 10
-27.203
 11
-27.247
 20
86.06
 21
85.968
  0
LINE
  8
0
 10
-27.247
 11
-27.301
 20
85.968
 21
85.882
  0
LINE
  8
0
 10
-27.301
 11
-27.367
 20
85.882
 21
85.803
  0
LINE
  8
0
 10
-27.367
 11
-27.441
 20
85.803
 21
85.733
  0
LINE
  8
0
 10
-27.441
 11
-27.524
 20
85.733
 21
85.673
  0
LINE
  8
0
 10
-27.524
 11
-27.613
 20
85.673
 21
85.623
  0
LINE
  8
0
 10
-27.613
 11
-27.708
 20
85.623
 21
85.586
  0
LINE
  8
0
 10
-27.708
 11
-27.807
 20
85.586
 21
85.56
  0
LINE
  8
0
 10
-27.807
 11
-27.909
 20
85.56
 21
85.548
  0
LINE
  8
0
 10
-27.909
 11
-28.011
 20
85.548
 21
85.548
  0
LINE
  8
0
 10
-28.011
 11
-28.113
 20
85.548
 21
85.56
  0
LINE
  8
0
 10
-28.113
 11
-28.212
 20
85.56
 21
85.586
  0
LINE
  8
0
 10
-28.212
 11
-28.307
 20
85.586
 21
85.623
  0
LINE
  8
0
 10
-28.307
 11
-28.396
 20
85.623
 21
85.673
  0
LINE
  8
0
 10
-28.396
 11
-28.479
 20
85.673
 21
85.733
  0
LINE
  8
0
 10
-28.479
 11
-28.553
 20
85.733
 21
85.803
  0
LINE
  8
0
 10
-28.553
 11
-28.619
 20
85.803
 21
85.882
  0
LINE
  8
0
 10
-28.619
 11
-28.673
 20
85.882
 21
85.968
  0
LINE
  8
0
 10
-28.673
 11
-28.717
 20
85.968
 21
86.06
  0
LINE
  8
0
 10
-28.717
 11
-28.748
 20
86.06
 21
86.158
  0
LINE
  8
0
 10
-28.748
 11
-28.768
 20
86.158
 21
86.258
  0
LINE
  8
0
 10
-28.768
 11
-28.774
 20
86.258
 21
86.36
  0
LINE
  8
0
 10
-28.154
 11
-28.145
 20
-97.923
 21
-97.782
  0
LINE
  8
0
 10
-28.145
 11
-28.118
 20
-97.782
 21
-97.642
  0
LINE
  8
0
 10
-28.118
 11
-28.074
 20
-97.642
 21
-97.507
  0
LINE
  8
0
 10
-28.074
 11
-28.014
 20
-97.507
 21
-97.379
  0
LINE
  8
0
 10
-28.014
 11
-27.938
 20
-97.379
 21
-97.259
  0
LINE
  8
0
 10
-27.938
 11
-27.847
 20
-97.259
 21
-97.15
  0
LINE
  8
0
 10
-27.847
 11
-27.744
 20
-97.15
 21
-97.052
  0
LINE
  8
0
 10
-27.744
 11
-27.629
 20
-97.052
 21
-96.969
  0
LINE
  8
0
 10
-27.629
 11
-27.505
 20
-96.969
 21
-96.901
  0
LINE
  8
0
 10
-27.505
 11
-27.373
 20
-96.901
 21
-96.848
  0
LINE
  8
0
 10
-27.373
 11
-27.235
 20
-96.848
 21
-96.813
  0
LINE
  8
0
 10
-27.235
 11
-27.094
 20
-96.813
 21
-96.795
  0
LINE
  8
0
 10
-27.094
 11
-26.952
 20
-96.795
 21
-96.795
  0
LINE
  8
0
 10
-26.952
 11
-26.812
 20
-96.795
 21
-96.813
  0
LINE
  8
0
 10
-26.812
 11
-26.674
 20
-96.813
 21
-96.848
  0
LINE
  8
0
 10
-26.674
 11
-26.542
 20
-96.848
 21
-96.901
  0
LINE
  8
0
 10
-26.542
 11
-26.418
 20
-96.901
 21
-96.969
  0
LINE
  8
0
 10
-26.418
 11
-26.303
 20
-96.969
 21
-97.052
  0
LINE
  8
0
 10
-26.303
 11
-26.199
 20
-97.052
 21
-97.15
  0
LINE
  8
0
 10
-26.199
 11
-26.109
 20
-97.15
 21
-97.259
  0
LINE
  8
0
 10
-26.109
 11
-26.033
 20
-97.259
 21
-97.379
  0
LINE
  8
0
 10
-26.033
 11
-25.972
 20
-97.379
 21
-97.507
  0
LINE
  8
0
 10
-25.972
 11
-25.929
 20
-97.507
 21
-97.642
  0
LINE
  8
0
 10
-25.929
 11
-25.902
 20
-97.642
 21
-97.782
  0
LINE
  8
0
 10
-25.902
 11
-25.893
 20
-97.782
 21
-97.923
  0
LINE
  8
0
 10
-25.893
 11
-25.902
 20
-97.923
 21
-98.065
  0
LINE
  8
0
 10
-25.902
 11
-25.929
 20
-98.065
 21
-98.204
  0
LINE
  8
0
 10
-25.929
 11
-25.972
 20
-98.204
 21
-98.339
  0
LINE
  8
0
 10
-25.972
 11
-26.033
 20
-98.339
 21
-98.468
  0
LINE
  8
0
 10
-26.033
 11
-26.109
 20
-98.468
 21
-98.588
  0
LINE
  8
0
 10
-26.109
 11
-26.199
 20
-98.588
 21
-98.697
  0
LINE
  8
0
 10
-26.199
 11
-26.303
 20
-98.697
 21
-98.794
  0
LINE
  8
0
 10
-26.303
 11
-26.418
 20
-98.794
 21
-98.878
  0
LINE
  8
0
 10
-26.418
 11
-26.542
 20
-98.878
 21
-98.946
  0
LINE
  8
0
 10
-26.542
 11
-26.674
 20
-98.946
 21
-98.998
  0
LINE
  8
0
 10
-26.674
 11
-26.812
 20
-98.998
 21
-99.034
  0
LINE
  8
0
 10
-26.812
 11
-26.952
 20
-99.034
 21
-99.051
  0
LINE
  8
0
 10
-26.952
 11
-27.094
 20
-99.051
 21
-99.051
  0
LINE
  8
0
 10
-27.094
 11
-27.235
 20
-99.051
 21
-99.034
  0
LINE
  8
0
 10
-27.235
 11
-27.373
 20
-99.034
 21
-98.998
  0
LINE
  8
0
 10
-27.373
 11
-27.505
 20
-98.998
 21
-98.946
  0
LINE
  8
0
 10
-27.505
 11
-27.629
 20
-98.946
 21
-98.878
  0
LINE
  8
0
 10
-27.629
 11
-27.744
 20
-98.878
 21
-98.794
  0
LINE
  8
0
 10
-27.744
 11
-27.847
 20
-98.794
 21
-98.697
  0
LINE
  8
0
 10
-27.847
 11
-27.938
 20
-98.697
 21
-98.588
  0
LINE
  8
0
 10
-27.938
 11
-28.014
 20
-98.588
 21
-98.468
  0
LINE
  8
0
 10
-28.014
 11
-28.074
 20
-98.468
 21
-98.339
  0
LINE
  8
0
 10
-28.074
 11
-28.118
 20
-98.339
 21
-98.204
  0
LINE
  8
0
 10
-28.118
 11
-28.145
 20
-98.204
 21
-98.065
  0
LINE
  8
0
 10
-28.145
 11
-28.154
 20
-98.065
 21
-97.923
  0
LINE
  8
0
 10
-28.154
 11
-28.145
 20
97.923
 21
98.065
  0
LINE
  8
0
 10
-28.145
 11
-28.118
 20
98.065
 21
98.204
  0
LINE
  8
0
 10
-28.118
 11
-28.074
 20
98.204
 21
98.339
  0
LINE
  8
0
 10
-28.074
 11
-28.014
 20
98.339
 21
98.468
  0
LINE
  8
0
 10
-28.014
 11
-27.938
 20
98.468
 21
98.588
  0
LINE
  8
0
 10
-27.938
 11
-27.847
 20
98.588
 21
98.697
  0
LINE
  8
0
 10
-27.847
 11
-27.744
 20
98.697
 21
98.794
  0
LINE
  8
0
 10
-27.744
 11
-27.629
 20
98.794
 21
98.878
  0
LINE
  8
0
 10
-27.629
 11
-27.505
 20
98.878
 21
98.946
  0
LINE
  8
0
 10
-27.505
 11
-27.373
 20
98.946
 21
98.998
  0
LINE
  8
0
 10
-27.373
 11
-27.235
 20
98.998
 21
99.034
  0
LINE
  8
0
 10
-27.235
 11
-27.094
 20
99.034
 21
99.051
  0
LINE
  8
0
 10
-27.094
 11
-26.952
 20
99.051
 21
99.051
  0
LINE
  8
0
 10
-26.952
 11
-26.812
 20
99.051
 21
99.034
  0
LINE
  8
0
 10
-26.812
 11
-26.674
 20
99.034
 21
98.998
  0
LINE
  8
0
 10
-26.674
 11
-26.542
 20
98.998
 21
98.946
  0
LINE
  8
0
 10
-26.542
 11
-26.418
 20
98.946
 21
98.878
  0
LINE
  8
0
 10
-26.418
 11
-26.303
 20
98.878
 21
98.794
  0
LINE
  8
0
 10
-26.303
 11
-26.199
 20
98.794
 21
98.697
  0
LINE
  8
0
 10
-26.199
 11
-26.109
 20
98.697
 21
98.588
  0
LINE
  8
0
 10
-26.109
 11
-26.033
 20
98.588
 21
98.468
  0
LINE
  8
0
 10
-26.033
 11
-25.972
 20
98.468
 21
98.339
  0
LINE
  8
0
 10
-25.972
 11
-25.929
 20
98.339
 21
98.204
  0
LINE
  8
0
 10
-25.929
 11
-25.902
 20
98.204
 21
98.065
  0
LINE
  8
0
 10
-25.902
 11
-25.893
 20
98.065
 21
97.923
  0
LINE
  8
0
 10
-25.893
 11
-25.902
 20
97.923
 21
97.782
  0
LINE
  8
0
 10
-25.902
 11
-25.929
 20
97.782
 21
97.642
  0
LINE
  8
0
 10
-25.929
 11
-25.972
 20
97.642
 21
97.507
  0
LINE
  8
0
 10
-25.972
 11
-26.033
 20
97.507
 21
97.379
  0
LINE
  8
0
 10
-26.033
 11
-26.109
 20
97.379
 21
97.259
  0
LINE
  8
0
 10
-26.109
 11
-26.199
 20
97.259
 21
97.15
  0
LINE
  8
0
 10
-26.199
 11
-26.303
 20
97.15
 21
97.052
  0
LINE
  8
0
 10
-26.303
 11
-26.418
 20
97.052
 21
96.969
  0
LINE
  8
0
 10
-26.418
 11
-26.542
 20
96.969
 21
96.901
  0
LINE
  8
0
 10
-26.542
 11
-26.674
 20
96.901
 21
96.848
  0
LINE
  8
0
 10
-26.674
 11
-26.812
 20
96.848
 21
96.813
  0
LINE
  8
0
 10
-26.812
 11
-26.952
 20
96.813
 21
96.795
  0
LINE
  8
0
 10
-26.952
 11
-27.094
 20
96.795
 21
96.795
  0
LINE
  8
0
 10
-27.094
 11
-27.235
 20
96.795
 21
96.813
  0
LINE
  8
0
 10
-27.235
 11
-27.373
 20
96.813
 21
96.848
  0
LINE
  8
0
 10
-27.373
 11
-27.505
 20
96.848
 21
96.901
  0
LINE
  8
0
 10
-27.505
 11
-27.629
 20
96.901
 21
96.969
  0
LINE
  8
0
 10
-27.629
 11
-27.744
 20
96.969
 21
97.052
  0
LINE
  8
0
 10
-27.744
 11
-27.847
 20
97.052
 21
97.15
  0
LINE
  8
0
 10
-27.847
 11
-27.938
 20
97.15
 21
97.259
  0
LINE
  8
0
 10
-27.938
 11
-28.014
 20
97.259
 21
97.379
  0
LINE
  8
0
 10
-28.014
 11
-28.074
 20
97.379
 21
97.507
  0
LINE
  8
0
 10
-28.074
 11
-28.118
 20
97.507
 21
97.642
  0
LINE
  8
0
 10
-28.118
 11
-28.145
 20
97.642
 21
97.782
  0
LINE
  8
0
 10
-28.145
 11
-28.154
 20
97.782
 21
97.923
  0
LINE
  8
0
 10
-18.85
 11
-18.85
 20
-104.6
 21
-101.6
  0
LINE
  8
0
 10
-18.85
 11
-11.85
 20
-101.6
 21
-101.6
  0
LINE
  8
0
 10
-11.85
 11
-11.85
 20
-101.6
 21
-104.6
  0
LINE
  8
0
 10
-11.85
 11
-18.85
 20
-104.6
 21
-104.6
  0
LINE
  8
0
 10
-18.85
 11
-18.85
 20
101.6
 21
104.6
  0
LINE
  8
0
 10
-18.85
 11
-11.85
 20
104.6
 21
104.6
  0
LINE
  8
0
 10
-11.85
 11
-11.85
 20
104.6
 21
101.6
  0
LINE
  8
0
 10
-11.85
 11
-18.85
 20
101.6
 21
101.6
  0
LINE
  8
0
 10
-3
 11
-3
 20
-80.9
 21
-76.9
  0
LINE
  8
0
 10
-3
 11
3
 20
-76.9
 21
-76.9
  0
LINE
  8
0
 10
3
 11
3
 20
-76.9
 21
-80.9
  0
LINE
  8
0
 10
3
 11
-3
 20
-80.9
 21
-80.9
  0
LINE
  8
0
 10
11.85
 11
11.85
 20
-104.6
 21
-101.6
  0
LINE
  8
0
 10
11.85
 11
18.85
 20
-101.6
 21
-101.6
  0
LINE
  8
0
 10
18.85
 11
18.85
 20
-101.6
 21
-104.6
  0
LINE
  8
0
 10
18.85
 11
11.85
 20
-104.6
 21
-104.6
  0
LINE
  8
0
 10
11.85
 11
11.85
 20
101.6
 21
104.6
  0
LINE
  8
0
 10
11.85
 11
18.85
 20
104.6
 21
104.6
  0
LINE
  8
0
 10
18.85
 11
18.85
 20
104.6
 21
101.6
  0
LINE
  8
0
 10
18.85
 11
11.85
 20
101.6
 21
101.6
  0
LINE
  8
0
 10
25.893
 11
25.902
 20
-97.923
 21
-97.782
  0
LINE
  8
0
 10
25.902
 11
25.929
 20
-97.782
 21
-97.642
  0
LINE
  8
0
 10
25.929
 11
25.972
 20
-97.642
 21
-97.507
  0
LINE
  8
0
 10
25.972
 11
26.033
 20
-97.507
 21
-97.379
  0
LINE
  8
0
 10
26.033
 11
26.109
 20
-97.379
 21
-97.259
  0
LINE
  8
0
 10
26.109
 11
26.199
 20
-97.259
 21
-97.15
  0
LINE
  8
0
 10
26.199
 11
26.303
 20
-97.15
 21
-97.052
  0
LINE
  8
0
 10
26.303
 11
26.418
 20
-97.052
 21
-96.969
  0
LINE
  8
0
 10
26.418
 11
26.542
 20
-96.969
 21
-96.901
  0
LINE
  8
0
 10
26.542
 11
26.674
 20
-96.901
 21
-96.848
  0
LINE
  8
0
 10
26.674
 11
26.812
 20
-96.848
 21
-96.813
  0
LINE
  8
0
 10
26.812
 11
26.952
 20
-96.813
 21
-96.795
  0
LINE
  8
0
 10
26.952
 11
27.094
 20
-96.795
 21
-96.795
  0
LINE
  8
0
 10
27.094
 11
27.235
 20
-96.795
 21
-96.813
  0
LINE
  8
0
 10
27.235
 11
27.373
 20
-96.813
 21
-96.848
  0
LINE
  8
0
 10
27.373
 11
27.505
 20
-96.848
 21
-96.901
  0
LINE
  8
0
 10
27.505
 11
27.629
 20
-96.901
 21
-96.969
  0
LINE
  8
0
 10
27.629
 11
27.744
 20
-96.969
 21
-97.052
  0
LINE
  8
0
 10
27.744
 11
27.847
 20
-97.052
 21
-97.15
  0
LINE
  8
0
 10
27.847
 11
27.938
 20
-97.15
 21
-97.259
  0
LINE
  8
0
 10
27.938
 11
28.014
 20
-97.259
 21
-97.379
  0
LINE
  8
0
 10
28.014
 11
28.074
 20
-97.379
 21
-97.507
  0
LINE
  8
0
 10
28.074
 11
28.118
 20
-97.507
 21
-97.642
  0
LINE
  8
0
 10
28.118
 11
28.145
 20
-97.642
 21
-97.782
  0
LINE
  8
0
 10
28.145
 11
28.154
 20
-97.782
 21
-97.923
  0
LINE
  8
0
 10
28.154
 11
28.145
 20
-97.923
 21
-98.065
  0
LINE
  8
0
 10
28.145
 11
28.118
 20
-98.065
 21
-98.204
  0
LINE
  8
0
 10
28.118
 11
28.074
 20
-98.204
 21
-98.339
  0
LINE
  8
0
 10
28.074
 11
28.014
 20
-98.339
 21
-98.468
  0
LINE
  8
0
 10
28.014
 11
27.938
 20
-98.468
 21
-98.588
  0
LINE
  8
0
 10
27.938
 11
27.847
 20
-98.588
 21
-98.697
  0
LINE
  8
0
 10
27.847
 11
27.744
 20
-98.697
 21
-98.794
  0
LINE
  8
0
 10
27.744
 11
27.629
 20
-98.794
 21
-98.878
  0
LINE
  8
0
 10
27.629
 11
27.505
 20
-98.878
 21
-98.946
  0
LINE
  8
0
 10
27.505
 11
27.373
 20
-98.946
 21
-98.998
  0
LINE
  8
0
 10
27.373
 11
27.235
 20
-98.998
 21
-99.034
  0
LINE
  8
0
 10
27.235
 11
27.094
 20
-99.034
 21
-99.051
  0
LINE
  8
0
 10
27.094
 11
26.952
 20
-99.051
 21
-99.051
  0
LINE
  8
0
 10
26.952
 11
26.812
 20
-99.051
 21
-99.034
  0
LINE
  8
0
 10
26.812
 11
26.674
 20
-99.034
 21
-98.998
  0
LINE
  8
0
 10
26.674
 11
26.542
 20
-98.998
 21
-98.946
  0
LINE
  8
0
 10
26.542
 11
26.418
 20
-98.946
 21
-98.878
  0
LINE
  8
0
 10
26.418
 11
26.303
 20
-98.878
 21
-98.794
  0
LINE
  8
0
 10
26.303
 11
26.199
 20
-98.794
 21
-98.697
  0
LINE
  8
0
 10
26.199
 11
26.109
 20
-98.697
 21
-98.588
  0
LINE
  8
0
 10
26.109
 11
26.033
 20
-98.588
 21
-98.468
  0
LINE
  8
0
 10
26.033
 11
25.972
 20
-98.468
 21
-98.339
  0
LINE
  8
0
 10
25.972
 11
25.929
 20
-98.339
 21
-98.204
  0
LINE
  8
0
 10
25.929
 11
25.902
 20
-98.204
 21
-98.065
  0
LINE
  8
0
 10
25.902
 11
25.893
 20
-98.065
 21
-97.923
  0
LINE
  8
0
 10
25.893
 11
25.902
 20
97.923
 21
98.065
  0
LINE
  8
0
 10
25.902
 11
25.929
 20
98.065
 21
98.204
  0
LINE
  8
0
 10
25.929
 11
25.972
 20
98.204
 21
98.339
  0
LINE
  8
0
 10
25.972
 11
26.033
 20
98.339
 21
98.468
  0
LINE
  8
0
 10
26.033
 11
26.109
 20
98.468
 21
98.588
  0
LINE
  8
0
 10
26.109
 11
26.199
 20
98.588
 21
98.697
  0
LINE
  8
0
 10
26.199
 11
26.303
 20
98.697
 21
98.794
  0
LINE
  8
0
 10
26.303
 11
26.418
 20
98.794
 21
98.878
  0
LINE
  8
0
 10
26.418
 11
26.542
 20
98.878
 21
98.946
  0
LINE
  8
0
 10
26.542
 11
26.674
 20
98.946
 21
98.998
  0
LINE
  8
0
 10
26.674
 11
26.812
 20
98.998
 21
99.034
  0
LINE
  8
0
 10
26.812
 11
26.952
 20
99.034
 21
99.051
  0
LINE
  8
0
 10
26.952
 11
27.094
 20
99.051
 21
99.051
  0
LINE
  8
0
 10
27.094
 11
27.235
 20
99.051
 21
99.034
  0
LINE
  8
0
 10
27.235
 11
27.373
 20
99.034
 21
98.998
  0
LINE
  8
0
 10
27.373
 11
27.505
 20
98.998
 21
98.946
  0
LINE
  8
0
 10
27.505
 11
27.629
 20
98.946
 21
98.878
  0
LINE
  8
0
 10
27.629
 11
27.744
 20
98.878
 21
98.794
  0
LINE
  8
0
 10
27.744
 11
27.847
 20
98.794
 21
98.697
  0
LINE
  8
0
 10
27.847
 11
27.938
 20
98.697
 21
98.588
  0
LINE
  8
0
 10
27.938
 11
28.014
 20
98.588
 21
98.468
  0
LINE
  8
0
 10
28.014
 11
28.074
 20
98.468
 21
98.339
  0
LINE
  8
0
 10
28.074
 11
28.118
 20
98.339
 21
98.204
  0
LINE
  8
0
 10
28.118
 11
28.145
 20
98.204
 21
98.065
  0
LINE
  8
0
 10
28.145
 11
28.154
 20
98.065
 21
97.923
  0
LINE
  8
0
 10
28.154
 11
28.145
 20
97.923
 21
97.782
  0
LINE
  8
0
 10
28.145
 11
28.118
 20
97.782
 21
97.642
  0
LINE
  8
0
 10
28.118
 11
28.074
 20
97.642
 21
97.507
  0
LINE
  8
0
 10
28.074
 11
28.014
 20
97.507
 21
97.379
  0
LINE
  8
0
 10
28.014
 11
27.938
 20
97.379
 21
97.259
  0
LINE
  8
0
 10
27.938
 11
27.847
 20
97.259
 21
97.15
  0
LINE
  8
0
 10
27.847
 11
27.744
 20
97.15
 21
97.052
  0
LINE
  8
0
 10
27.744
 11
27.629
 20
97.052
 21
96.969
  0
LINE
  8
0
 10
27.629
 11
27.505
 20
96.969
 21
96.901
  0
LINE
  8
0
 10
27.505
 11
27.373
 20
96.901
 21
96.848
  0
LINE
  8
0
 10
27.373
 11
27.235
 20
96.848
 21
96.813
  0
LINE
  8
0
 10
27.235
 11
27.094
 20
96.813
 21
96.795
  0
LINE
  8
0
 10
27.094
 11
26.952
 20
96.795
 21
96.795
  0
LINE
  8
0
 10
26.952
 11
26.812
 20
96.795
 21
96.813
  0
LINE
  8
0
 10
26.812
 11
26.674
 20
96.813
 21
96.848
  0
LINE
  8
0
 10
26.674
 11
26.542
 20
96.848
 21
96.901
  0
LINE
  8
0
 10
26.542
 11
26.418
 20
96.901
 21
96.969
  0
LINE
  8
0
 10
26.418
 11
26.303
 20
96.969
 21
97.052
  0
LINE
  8
0
 10
26.303
 11
26.199
 20
97.052
 21
97.15
  0
LINE
  8
0
 10
26.199
 11
26.109
 20
97.15
 21
97.259
  0
LINE
  8
0
 10
26.109
 11
26.033
 20
97.259
 21
97.379
  0
LINE
  8
0
 10
26.033
 11
25.972
 20
97.379
 21
97.507
  0
LINE
  8
0
 10
25.972
 11
25.929
 20
97.507
 21
97.642
  0
LINE
  8
0
 10
25.929
 11
25.902
 20
97.642
 21
97.782
  0
LINE
  8
0
 10
25.902
 11
25.893
 20
97.782
 21
97.923
  0
LINE
  8
0
 10
27.146
 11
27.152
 20
-86.36
 21
-86.258
  0
LINE
  8
0
 10
27.152
 11
27.172
 20
-86.258
 21
-86.158
  0
LINE
  8
0
 10
27.172
 11
27.203
 20
-86.158
 21
-86.06
  0
LINE
  8
0
 10
27.203
 11
27.247
 20
-86.06
 21
-85.968
  0
LINE
  8
0
 10
27.247
 11
27.301
 20
-85.968
 21
-85.882
  0
LINE
  8
0
 10
27.301
 11
27.367
 20
-85.882
 21
-85.803
  0
LINE
  8
0
 10
27.367
 11
27.441
 20
-85.803
 21
-85.733
  0
LINE
  8
0
 10
27.441
 11
27.524
 20
-85.733
 21
-85.673
  0
LINE
  8
0
 10
27.524
 11
27.613
 20
-85.673
 21
-85.623
  0
LINE
  8
0
 10
27.613
 11
27.708
 20
-85.623
 21
-85.586
  0
LINE
  8
0
 10
27.708
 11
27.807
 20
-85.586
 21
-85.56
  0
LINE
  8
0
 10
27.807
 11
27.909
 20
-85.56
 21
-85.548
  0
LINE
  8
0
 10
27.909
 11
28.011
 20
-85.548
 21
-85.548
  0
LINE
  8
0
 10
28.011
 11
28.113
 20
-85.548
 21
-85.56
  0
LINE
  8
0
 10
28.113
 11
28.212
 20
-85.56
 21
-85.586
  0
LINE
  8
0
 10
28.212
 11
28.307
 20
-85.586
 21
-85.623
  0
LINE
  8
0
 10
28.307
 11
28.396
 20
-85.623
 21
-85.673
  0
LINE
  8
0
 10
28.396
 11
28.479
 20
-85.673
 21
-85.733
  0
LINE
  8
0
 10
28.479
 11
28.553
 20
-85.733
 21
-85.803
  0
LINE
  8
0
 10
28.553
 11
28.619
 20
-85.803
 21
-85.882
  0
LINE
  8
0
 10
28.619
 11
28.673
 20
-85.882
 21
-85.968
  0
LINE
  8
0
 10
28.673
 11
28.717
 20
-85.968
 21
-86.06
  0
LINE
  8
0
 10
28.717
 11
28.748
 20
-86.06
 21
-86.158
  0
LINE
  8
0
 10
28.748
 11
28.768
 20
-86.158
 21
-86.258
  0
LINE
  8
0
 10
28.768
 11
28.774
 20
-86.258
 21
-86.36
  0
LINE
  8
0
 10
28.774
 11
28.768
 20
-86.36
 21
-86.462
  0
LINE
  8
0
 10
28.768
 11
28.748
 20
-86.462
 21
-86.562
  0
LINE
  8
0
 10
28.748
 11
28.717
 20
-86.562
 21
-86.66
  0
LINE
  8
0
 10
28.717
 11
28.673
 20
-86.66
 21
-86.752
  0
LINE
  8
0
 10
28.673
 11
28.619
 20
-86.752
 21
-86.838
  0
LINE
  8
0
 10
28.619
 11
28.553
 20
-86.838
 21
-86.917
  0
LINE
  8
0
 10
28.553
 11
28.479
 20
-86.917
 21
-86.987
  0
LINE
  8
0
 10
28.479
 11
28.396
 20
-86.987
 21
-87.047
  0
LINE
  8
0
 10
28.396
 11
28.307
 20
-87.047
 21
-87.097
  0
LINE
  8
0
 10
28.307
 11
28.212
 20
-87.097
 21
-87.134
  0
LINE
  8
0
 10
28.212
 11
28.113
 20
-87.134
 21
-87.16
  0
LINE
  8
0
 10
28.113
 11
28.011
 20
-87.16
 21
-87.172
  0
LINE
  8
0
 10
28.011
 11
27.909
 20
-87.172
 21
-87.172
  0
LINE
  8
0
 10
27.909
 11
27.807
 20
-87.172
 21
-87.16
  0
LINE
  8
0
 10
27.807
 11
27.708
 20
-87.16
 21
-87.134
  0
LINE
  8
0
 10
27.708
 11
27.613
 20
-87.134
 21
-87.097
  0
LINE
  8
0
 10
27.613
 11
27.524
 20
-87.097
 21
-87.047
  0
LINE
  8
0
 10
27.524
 11
27.441
 20
-87.047
 21
-86.987
  0
LINE
  8
0
 10
27.441
 11
27.367
 20
-86.987
 21
-86.917
  0
LINE
  8
0
 10
27.367
 11
27.301
 20
-86.917
 21
-86.838
  0
LINE
  8
0
 10
27.301
 11
27.247
 20
-86.838
 21
-86.752
  0
LINE
  8
0
 10
27.247
 11
27.203
 20
-86.752
 21
-86.66
  0
LINE
  8
0
 10
27.203
 11
27.172
 20
-86.66
 21
-86.562
  0
LINE
  8
0
 10
27.172
 11
27.152
 20
-86.562
 21
-86.462
  0
LINE
  8
0
 10
27.152
 11
27.146
 20
-86.462
 21
-86.36
  0
LINE
  8
0
 10
27.146
 11
27.152
 20
86.36
 21
86.462
  0
LINE
  8
0
 10
27.152
 11
27.172
 20
86.462
 21
86.562
  0
LINE
  8
0
 10
27.172
 11
27.203
 20
86.562
 21
86.66
  0
LINE
  8
0
 10
27.203
 11
27.247
 20
86.66
 21
86.752
  0
LINE
  8
0
 10
27.247
 11
27.301
 20
86.752
 21
86.838
  0
LINE
  8
0
 10
27.301
 11
27.367
 20
86.838
 21
86.917
  0
LINE
  8
0
 10
27.367
 11
27.441
 20
86.917
 21
86.987
  0
LINE
  8
0
 10
27.441
 11
27.524
 20
86.987
 21
87.047
  0
LINE
  8
0
 10
27.524
 11
27.613
 20
87.047
 21
87.097
  0
LINE
  8
0
 10
27.613
 11
27.708
 20
87.097
 21
87.134
  0
LINE
  8
0
 10
27.708
 11
27.807
 20
87.134
 21
87.16
  0
LINE
  8
0
 10
27.807
 11
27.909
 20
87.16
 21
87.172
  0
LINE
  8
0
 10
27.909
 11
28.011
 20
87.172
 21
87.172
  0
LINE
  8
0
 10
28.011
 11
28.113
 20
87.172
 21
87.16
  0
LINE
  8
0
 10
28.113
 11
28.212
 20
87.16
 21
87.134
  0
LINE
  8
0
 10
28.212
 11
28.307
 20
87.134
 21
87.097
  0
LINE
  8
0
 10
28.307
 11
28.396
 20
87.097
 21
87.047
  0
LINE
  8
0
 10
28.396
 11
28.479
 20
87.047
 21
86.987
  0
LINE
  8
0
 10
28.479
 11
28.553
 20
86.987
 21
86.917
  0
LINE
  8
0
 10
28.553
 11
28.619
 20
86.917
 21
86.838
  0
LINE
  8
0
 10
28.619
 11
28.673
 20
86.838
 21
86.752
  0
LINE
  8
0
 10
28.673
 11
28.717
 20
86.752
 21
86.66
  0
LINE
  8
0
 10
28.717
 11
28.748
 20
86.66
 21
86.562
  0
LINE
  8
0
 10
28.748
 11
28.768
 20
86.562
 21
86.462
  0
LINE
  8
0
 10
28.768
 11
28.774
 20
86.462
 21
86.36
  0
LINE
  8
0
 10
28.774
 11
28.768
 20
86.36
 21
86.258
  0
LINE
  8
0
 10
28.768
 11
28.748
 20
86.258
 21
86.158
  0
LINE
  8
0
 10
28.748
 11
28.717
 20
86.158
 21
86.06
  0
LINE
  8
0
 10
28.717
 11
28.673
 20
86.06
 21
85.968
  0
LINE
  8
0
 10
28.673
 11
28.619
 20
85.968
 21
85.882
  0
LINE
  8
0
 10
28.619
 11
28.553
 20
85.882
 21
85.803
  0
LINE
  8
0
 10
28.553
 11
28.479
 20
85.803
 21
85.733
  0
LINE
  8
0
 10
28.479
 11
28.396
 20
85.733
 21
85.673
  0
LINE
  8
0
 10
28.396
 11
28.307
 20
85.673
 21
85.623
  0
LINE
  8
0
 10
28.307
 11
28.212
 20
85.623
 21
85.586
  0
LINE
  8
0
 10
28.212
 11
28.113
 20
85.586
 21
85.56
  0
LINE
  8
0
 10
28.113
 11
28.011
 20
85.56
 21
85.548
  0
LINE
  8
0
 10
28.011
 11
27.909
 20
85.548
 21
85.548
  0
LINE
  8
0
 10
27.909
 11
27.807
 20
85.548
 21
85.56
  0
LINE
  8
0
 10
27.807
 11
27.708
 20
85.56
 21
85.586
  0
LINE
  8
0
 10
27.708
 11
27.613
 20
85.586
 21
85.623
  0
LINE
  8
0
 10
27.613
 11
27.524
 20
85.623
 21
85.673
  0
LINE
  8
0
 10
27.524
 11
27.441
 20
85.673
 21
85.733
  0
LINE
  8
0
 10
27.441
 11
27.367
 20
85.733
 21
85.803
  0
LINE
  8
0
 10
27.367
 11
27.301
 20
85.803
 21
85.882
  0
LINE
  8
0
 10
27.301
 11
27.247
 20
85.882
 21
85.968
  0
LINE
  8
0
 10
27.247
 11
27.203
 20
85.968
 21
86.06
  0
LINE
  8
0
 10
27.203
 11
27.172
 20
86.06
 21
86.158
  0
LINE
  8
0
 10
27.172
 11
27.152
 20
86.158
 21
86.258
  0
LINE
  8
0
 10
27.152
 11
27.146
 20
86.258
 21
86.36
  0
LINE
  8
0
 10
27.246
 11
27.252
 20
-43.255
 21
-43.153
  0
LINE
  8
0
 10
27.252
 11
27.272
 20
-43.153
 21
-43.053
  0
LINE
  8
0
 10
27.272
 11
27.303
 20
-43.053
 21
-42.955
  0
LINE
  8
0
 10
27.303
 11
27.347
 20
-42.955
 21
-42.863
  0
LINE
  8
0
 10
27.347
 11
27.401
 20
-42.863
 21
-42.777
  0
LINE
  8
0
 10
27.401
 11
27.467
 20
-42.777
 21
-42.698
  0
LINE
  8
0
 10
27.467
 11
27.541
 20
-42.698
 21
-42.628
  0
LINE
  8
0
 10
27.541
 11
27.624
 20
-42.628
 21
-42.568
  0
LINE
  8
0
 10
27.624
 11
27.713
 20
-42.568
 21
-42.518
  0
LINE
  8
0
 10
27.713
 11
27.808
 20
-42.518
 21
-42.481
  0
LINE
  8
0
 10
27.808
 11
27.907
 20
-42.481
 21
-42.455
  0
LINE
  8
0
 10
27.907
 11
28.009
 20
-42.455
 21
-42.443
  0
LINE
  8
0
 10
28.009
 11
28.111
 20
-42.443
 21
-42.443
  0
LINE
  8
0
 10
28.111
 11
28.213
 20
-42.443
 21
-42.455
  0
LINE
  8
0
 10
28.213
 11
28.312
 20
-42.455
 21
-42.481
  0
LINE
  8
0
 10
28.312
 11
28.407
 20
-42.481
 21
-42.518
  0
LINE
  8
0
 10
28.407
 11
28.496
 20
-42.518
 21
-42.568
  0
LINE
  8
0
 10
28.496
 11
28.579
 20
-42.568
 21
-42.628
  0
LINE
  8
0
 10
28.579
 11
28.653
 20
-42.628
 21
-42.698
  0
LINE
  8
0
 10
28.653
 11
28.719
 20
-42.698
 21
-42.777
  0
LINE
  8
0
 10
28.719
 11
28.773
 20
-42.777
 21
-42.863
  0
LINE
  8
0
 10
28.773
 11
28.817
 20
-42.863
 21
-42.955
  0
LINE
  8
0
 10
28.817
 11
28.848
 20
-42.955
 21
-43.053
  0
LINE
  8
0
 10
28.848
 11
28.868
 20
-43.053
 21
-43.153
  0
LINE
  8
0
 10
28.868
 11
28.874
 20
-43.153
 21
-43.255
  0
LINE
  8
0
 10
28.874
 11
28.868
 20
-43.255
 21
-43.357
  0
LINE
  8
0
 10
28.868
 11
28.848
 20
-43.357
 21
-43.457
  0
LINE
  8
0
 10
28.848
 11
28.817
 20
-43.457
 21
-43.555
  0
LINE
  8
0
 10
28.817
 11
28.773
 20
-43.555
 21
-43.647
  0
LINE
  8
0
 10
28.773
 11
28.719
 20
-43.647
 21
-43.733
  0
LINE
  8
0
 10
28.719
 11
28.653
 20
-43.733
 21
-43.812
  0
LINE
  8
0
 10
28.653
 11
28.579
 20
-43.812
 21
-43.882
  0
LINE
  8
0
 10
28.579
 11
28.496
 20
-43.882
 21
-43.942
  0
LINE
  8
0
 10
28.496
 11
28.407
 20
-43.942
 21
-43.992
  0
LINE
  8
0
 10
28.407
 11
28.312
 20
-43.992
 21
-44.029
  0
LINE
  8
0
 10
28.312
 11
28.213
 20
-44.029
 21
-44.055
  0
LINE
  8
0
 10
28.213
 11
28.111
 20
-44.055
 21
-44.067
  0
LINE
  8
0
 10
28.111
 11
28.009
 20
-44.067
 21
-44.067
  0
LINE
  8
0
 10
28.009
 11
27.907
 20
-44.067
 21
-44.055
  0
LINE
  8
0
 10
27.907
 11
27.808
 20
-44.055
 21
-44.029
  0
LINE
  8
0
 10
27.808
 11
27.713
 20
-44.029
 21
-43.992
  0
LINE
  8
0
 10
27.713
 11
27.624
 20
-43.992
 21
-43.942
  0
LINE
  8
0
 10
27.624
 11
27.541
 20
-43.942
 21
-43.882
  0
LINE
  8
0
 10
27.541
 11
27.467
 20
-43.882
 21
-43.812
  0
LINE
  8
0
 10
27.467
 11
27.401
 20
-43.812
 21
-43.733
  0
LINE
  8
0
 10
27.401
 11
27.347
 20
-43.733
 21
-43.647
  0
LINE
  8
0
 10
27.347
 11
27.303
 20
-43.647
 21
-43.555
  0
LINE
  8
0
 10
27.303
 11
27.272
 20
-43.555
 21
-43.457
  0
LINE
  8
0
 10
27.272
 11
27.252
 20
-43.457
 21
-43.357
  0
LINE
  8
0
 10
27.252
 11
27.246
 20
-43.357
 21
-43.255
  0
LINE
  8
0
 10
27.246
 11
27.252
 20
-23.035
 21
-22.933
  0
LINE
  8
0
 10
27.252
 11
27.272
 20
-22.933
 21
-22.833
  0
LINE
  8
0
 10
27.272
 11
27.303
 20
-22.833
 21
-22.735
  0
LINE
  8
0
 10
27.303
 11
27.347
 20
-22.735
 21
-22.643
  0
LINE
  8
0
 10
27.347
 11
27.401
 20
-22.643
 21
-22.557
  0
LINE
  8
0
 10
27.401
 11
27.467
 20
-22.557
 21
-22.478
  0
LINE
  8
0
 10
27.467
 11
27.541
 20
-22.478
 21
-22.408
  0
LINE
  8
0
 10
27.541
 11
27.624
 20
-22.408
 21
-22.348
  0
LINE
  8
0
 10
27.624
 11
27.713
 20
-22.348
 21
-22.298
  0
LINE
  8
0
 10
27.713
 11
27.808
 20
-22.298
 21
-22.261
  0
LINE
  8
0
 10
27.808
 11
27.907
 20
-22.261
 21
-22.235
  0
LINE
  8
0
 10
27.907
 11
28.009
 20
-22.235
 21
-22.223
  0
LINE
  8
0
 10
28.009
 11
28.111
 20
-22.223
 21
-22.223
  0
LINE
  8
0
 10
28.111
 11
28.213
 20
-22.223
 21
-22.235
  0
LINE
  8
0
 10
28.213
 11
28.312
 20
-22.235
 21
-22.261
  0
LINE
  8
0
 10
28.312
 11
28.407
 20
-22.261
 21
-22.298
  0
LINE
  8
0
 10
28.407
 11
28.496
 20
-22.298
 21
-22.348
  0
LINE
  8
0
 10
28.496
 11
28.579
 20
-22.348
 21
-22.408
  0
LINE
  8
0
 10
28.579
 11
28.653
 20
-22.408
 21
-22.478
  0
LINE
  8
0
 10
28.653
 11
28.719
 20
-22.478
 21
-22.557
  0
LINE
  8
0
 10
28.719
 11
28.773
 20
-22.557
 21
-22.643
  0
LINE
  8
0
 10
28.773
 11
28.817
 20
-22.643
 21
-22.735
  0
LINE
  8
0
 10
28.817
 11
28.848
 20
-22.735
 21
-22.833
  0
LINE
  8
0
 10
28.848
 11
28.868
 20
-22.833
 21
-22.933
  0
LINE
  8
0
 10
28.868
 11
28.874
 20
-22.933
 21
-23.035
  0
LINE
  8
0
 10
28.874
 11
28.868
 20
-23.035
 21
-23.137
  0
LINE
  8
0
 10
28.868
 11
28.848
 20
-23.137
 21
-23.237
  0
LINE
  8
0
 10
28.848
 11
28.817
 20
-23.237
 21
-23.335
  0
LINE
  8
0
 10
28.817
 11
28.773
 20
-23.335
 21
-23.427
  0
LINE
  8
0
 10
28.773
 11
28.719
 20
-23.427
 21
-23.513
  0
LINE
  8
0
 10
28.719
 11
28.653
 20
-23.513
 21
-23.592
  0
LINE
  8
0
 10
28.653
 11
28.579
 20
-23.592
 21
-23.662
  0
LINE
  8
0
 10
28.579
 11
28.496
 20
-23.662
 21
-23.722
  0
LINE
  8
0
 10
28.496
 11
28.407
 20
-23.722
 21
-23.772
  0
LINE
  8
0
 10
28.407
 11
28.312
 20
-23.772
 21
-23.809
  0
LINE
  8
0
 10
28.312
 11
28.213
 20
-23.809
 21
-23.835
  0
LINE
  8
0
 10
28.213
 11
28.111
 20
-23.835
 21
-23.847
  0
LINE
  8
0
 10
28.111
 11
28.009
 20
-23.847
 21
-23.847
  0
LINE
  8
0
 10
28.009
 11
27.907
 20
-23.847
 21
-23.835
  0
LINE
  8
0
 10
27.907
 11
27.808
 20
-23.835
 21
-23.809
  0
LINE
  8
0
 10
27.808
 11
27.713
 20
-23.809
 21
-23.772
  0
LINE
  8
0
 10
27.713
 11
27.624
 20
-23.772
 21
-23.722
  0
LINE
  8
0
 10
27.624
 11
27.541
 20
-23.722
 21
-23.662
  0
LINE
  8
0
 10
27.541
 11
27.467
 20
-23.662
 21
-23.592
  0
LINE
  8
0
 10
27.467
 11
27.401
 20
-23.592
 21
-23.513
  0
LINE
  8
0
 10
27.401
 11
27.347
 20
-23.513
 21
-23.427
  0
LINE
  8
0
 10
27.347
 11
27.303
 20
-23.427
 21
-23.335
  0
LINE
  8
0
 10
27.303
 11
27.272
 20
-23.335
 21
-23.237
  0
LINE
  8
0
 10
27.272
 11
27.252
 20
-23.237
 21
-23.137
  0
LINE
  8
0
 10
27.252
 11
27.246
 20
-23.137
 21
-23.035
  0
LINE
  8
0
 10
27.246
 11
27.252
 20
-17.855
 21
-17.753
  0
LINE
  8
0
 10
27.252
 11
27.272
 20
-17.753
 21
-17.653
  0
LINE
  8
0
 10
27.272
 11
27.303
 20
-17.653
 21
-17.555
  0
LINE
  8
0
 10
27.303
 11
27.347
 20
-17.555
 21
-17.463
  0
LINE
  8
0
 10
27.347
 11
27.401
 20
-17.463
 21
-17.377
  0
LINE
  8
0
 10
27.401
 11
27.467
 20
-17.377
 21
-17.298
  0
LINE
  8
0
 10
27.467
 11
27.541
 20
-17.298
 21
-17.228
  0
LINE
  8
0
 10
27.541
 11
27.624
 20
-17.228
 21
-17.168
  0
LINE
  8
0
 10
27.624
 11
27.713
 20
-17.168
 21
-17.118
  0
LINE
  8
0
 10
27.713
 11
27.808
 20
-17.118
 21
-17.081
  0
LINE
  8
0
 10
27.808
 11
27.907
 20
-17.081
 21
-17.055
  0
LINE
  8
0
 10
27.907
 11
28.009
 20
-17.055
 21
-17.043
  0
LINE
  8
0
 10
28.009
 11
28.111
 20
-17.043
 21
-17.043
  0
LINE
  8
0
 10
28.111
 11
28.213
 20
-17.043
 21
-17.055
  0
LINE
  8
0
 10
28.213
 11
28.312
 20
-17.055
 21
-17.081
  0
LINE
  8
0
 10
28.312
 11
28.407
 20
-17.081
 21
-17.118
  0
LINE
  8
0
 10
28.407
 11
28.496
 20
-17.118
 21
-17.168
  0
LINE
  8
0
 10
28.496
 11
28.579
 20
-17.168
 21
-17.228
  0
LINE
  8
0
 10
28.579
 11
28.653
 20
-17.228
 21
-17.298
  0
LINE
  8
0
 10
28.653
 11
28.719
 20
-17.298
 21
-17.377
  0
LINE
  8
0
 10
28.719
 11
28.773
 20
-17.377
 21
-17.463
  0
LINE
  8
0
 10
28.773
 11
28.817
 20
-17.463
 21
-17.555
  0
LINE
  8
0
 10
28.817
 11
28.848
 20
-17.555
 21
-17.653
  0
LINE
  8
0
 10
28.848
 11
28.868
 20
-17.653
 21
-17.753
  0
LINE
  8
0
 10
28.868
 11
28.874
 20
-17.753
 21
-17.855
  0
LINE
  8
0
 10
28.874
 11
28.868
 20
-17.855
 21
-17.957
  0
LINE
  8
0
 10
28.868
 11
28.848
 20
-17.957
 21
-18.057
  0
LINE
  8
0
 10
28.848
 11
28.817
 20
-18.057
 21
-18.155
  0
LINE
  8
0
 10
28.817
 11
28.773
 20
-18.155
 21
-18.247
  0
LINE
  8
0
 10
28.773
 11
28.719
 20
-18.247
 21
-18.333
  0
LINE
  8
0
 10
28.719
 11
28.653
 20
-18.333
 21
-18.412
  0
LINE
  8
0
 10
28.653
 11
28.579
 20
-18.412
 21
-18.482
  0
LINE
  8
0
 10
28.579
 11
28.496
 20
-18.482
 21
-18.542
  0
LINE
  8
0
 10
28.496
 11
28.407
 20
-18.542
 21
-18.592
  0
LINE
  8
0
 10
28.407
 11
28.312
 20
-18.592
 21
-18.629
  0
LINE
  8
0
 10
28.312
 11
28.213
 20
-18.629
 21
-18.655
  0
LINE
  8
0
 10
28.213
 11
28.111
 20
-18.655
 21
-18.667
  0
LINE
  8
0
 10
28.111
 11
28.009
 20
-18.667
 21
-18.667
  0
LINE
  8
0
 10
28.009
 11
27.907
 20
-18.667
 21
-18.655
  0
LINE
  8
0
 10
27.907
 11
27.808
 20
-18.655
 21
-18.629
  0
LINE
  8
0
 10
27.808
 11
27.713
 20
-18.629
 21
-18.592
  0
LINE
  8
0
 10
27.713
 11
27.624
 20
-18.592
 21
-18.542
  0
LINE
  8
0
 10
27.624
 11
27.541
 20
-18.542
 21
-18.482
  0
LINE
  8
0
 10
27.541
 11
27.467
 20
-18.482
 21
-18.412
  0
LINE
  8
0
 10
27.467
 11
27.401
 20
-18.412
 21
-18.333
  0
LINE
  8
0
 10
27.401
 11
27.347
 20
-18.333
 21
-18.247
  0
LINE
  8
0
 10
27.347
 11
27.303
 20
-18.247
 21
-18.155
  0
LINE
  8
0
 10
27.303
 11
27.272
 20
-18.155
 21
-18.057
  0
LINE
  8
0
 10
27.272
 11
27.252
 20
-18.057
 21
-17.957
  0
LINE
  8
0
 10
27.252
 11
27.246
 20
-17.957
 21
-17.855
  0
LINE
  8
0
 10
27.246
 11
27.252
 20
2.365
 21
2.467
  0
LINE
  8
0
 10
27.252
 11
27.272
 20
2.467
 21
2.567
  0
LINE
  8
0
 10
27.272
 11
27.303
 20
2.567
 21
2.665
  0
LINE
  8
0
 10
27.303
 11
27.347
 20
2.665
 21
2.757
  0
LINE
  8
0
 10
27.347
 11
27.401
 20
2.757
 21
2.843
  0
LINE
  8
0
 10
27.401
 11
27.467
 20
2.843
 21
2.922
  0
LINE
  8
0
 10
27.467
 11
27.541
 20
2.922
 21
2.992
  0
LINE
  8
0
 10
27.541
 11
27.624
 20
2.992
 21
3.052
  0
LINE
  8
0
 10
27.624
 11
27.713
 20
3.052
 21
3.102
  0
LINE
  8
0
 10
27.713
 11
27.808
 20
3.102
 21
3.139
  0
LINE
  8
0
 10
27.808
 11
27.907
 20
3.139
 21
3.165
  0
LINE
  8
0
 10
27.907
 11
28.009
 20
3.165
 21
3.177
  0
LINE
  8
0
 10
28.009
 11
28.111
 20
3.177
 21
3.177
  0
LINE
  8
0
 10
28.111
 11
28.213
 20
3.177
 21
3.165
  0
LINE
  8
0
 10
28.213
 11
28.312
 20
3.165
 21
3.139
  0
LINE
  8
0
 10
28.312
 11
28.407
 20
3.139
 21
3.102
  0
LINE
  8
0
 10
28.407
 11
28.496
 20
3.102
 21
3.052
  0
LINE
  8
0
 10
28.496
 11
28.579
 20
3.052
 21
2.992
  0
LINE
  8
0
 10
28.579
 11
28.653
 20
2.992
 21
2.922
  0
LINE
  8
0
 10
28.653
 11
28.719
 20
2.922
 21
2.843
  0
LINE
  8
0
 10
28.719
 11
28.773
 20
2.843
 21
2.757
  0
LINE
  8
0
 10
28.773
 11
28.817
 20
2.757
 21
2.665
  0
LINE
  8
0
 10
28.817
 11
28.848
 20
2.665
 21
2.567
  0
LINE
  8
0
 10
28.848
 11
28.868
 20
2.567
 21
2.467
  0
LINE
  8
0
 10
28.868
 11
28.874
 20
2.467
 21
2.365
  0
LINE
  8
0
 10
28.874
 11
28.868
 20
2.365
 21
2.263
  0
LINE
  8
0
 10
28.868
 11
28.848
 20
2.263
 21
2.163
  0
LINE
  8
0
 10
28.848
 11
28.817
 20
2.163
 21
2.065
  0
LINE
  8
0
 10
28.817
 11
28.773
 20
2.065
 21
1.973
  0
LINE
  8
0
 10
28.773
 11
28.719
 20
1.973
 21
1.887
  0
LINE
  8
0
 10
28.719
 11
28.653
 20
1.887
 21
1.808
  0
LINE
  8
0
 10
28.653
 11
28.579
 20
1.808
 21
1.738
  0
LINE
  8
0
 10
28.579
 11
28.496
 20
1.738
 21
1.678
  0
LINE
  8
0
 10
28.496
 11
28.407
 20
1.678
 21
1.628
  0
LINE
  8
0
 10
28.407
 11
28.312
 20
1.628
 21
1.591
  0
LINE
  8
0
 10
28.312
 11
28.213
 20
1.591
 21
1.565
  0
LINE
  8
0
 10
28.213
 11
28.111
 20
1.565
 21
1.553
  0
LINE
  8
0
 10
28.111
 11
28.009
 20
1.553
 21
1.553
  0
LINE
  8
0
 10
28.009
 11
27.907
 20
1.553
 21
1.565
  0
LINE
  8
0
 10
27.907
 11
27.808
 20
1.565
 21
1.591
  0
LINE
  8
0
 10
27.808
 11
27.713
 20
1.591
 21
1.628
  0
LINE
  8
0
 10
27.713
 11
27.624
 20
1.628
 21
1.678
  0
LINE
  8
0
 10
27.624
 11
27.541
 20
1.678
 21
1.738
  0
LINE
  8
0
 10
27.541
 11
27.467
 20
1.738
 21
1.808
  0
LINE
  8
0
 10
27.467
 11
27.401
 20
1.808
 21
1.887
  0
LINE
  8
0
 10
27.401
 11
27.347
 20
1.887
 21
1.973
  0
LINE
  8
0
 10
27.347
 11
27.303
 20
1.973
 21
2.065
  0
LINE
  8
0
 10
27.303
 11
27.272
 20
2.065
 21
2.163
  0
LINE
  8
0
 10
27.272
 11
27.252
 20
2.163
 21
2.263
  0
LINE
  8
0
 10
27.252
 11
27.246
 20
2.263
 21
2.365
  0
LINE
  8
0
 10
27.246
 11
27.252
 20
7.545
 21
7.647
  0
LINE
  8
0
 10
27.252
 11
27.272
 20
7.647
 21
7.747
  0
LINE
  8
0
 10
27.272
 11
27.303
 20
7.747
 21
7.845
  0
LINE
  8
0
 10
27.303
 11
27.347
 20
7.845
 21
7.937
  0
LINE
  8
0
 10
27.347
 11
27.401
 20
7.937
 21
8.023
  0
LINE
  8
0
 10
27.401
 11
27.467
 20
8.023
 21
8.102
  0
LINE
  8
0
 10
27.467
 11
27.541
 20
8.102
 21
8.172
  0
LINE
  8
0
 10
27.541
 11
27.624
 20
8.172
 21
8.232
  0
LINE
  8
0
 10
27.624
 11
27.713
 20
8.232
 21
8.282
  0
LINE
  8
0
 10
27.713
 11
27.808
 20
8.282
 21
8.319
  0
LINE
  8
0
 10
27.808
 11
27.907
 20
8.319
 21
8.345
  0
LINE
  8
0
 10
27.907
 11
28.009
 20
8.345
 21
8.357
  0
LINE
  8
0
 10
28.009
 11
28.111
 20
8.357
 21
8.357
  0
LINE
  8
0
 10
28.111
 11
28.213
 20
8.357
 21
8.345
  0
LINE
  8
0
 10
28.213
 11
28.312
 20
8.345
 21
8.319
  0
LINE
  8
0
 10
28.312
 11
28.407
 20
8.319
 21
8.282
  0
LINE
  8
0
 10
28.407
 11
28.496
 20
8.282
 21
8.232
  0
LINE
  8
0
 10
28.496
 11
28.579
 20
8.232
 21
8.172
  0
LINE
  8
0
 10
28.579
 11
28.653
 20
8.172
 21
8.102
  0
LINE
  8
0
 10
28.653
 11
28.719
 20
8.102
 21
8.023
  0
LINE
  8
0
 10
28.719
 11
28.773
 20
8.023
 21
7.937
  0
LINE
  8
0
 10
28.773
 11
28.817
 20
7.937
 21
7.845
  0
LINE
  8
0
 10
28.817
 11
28.848
 20
7.845
 21
7.747
  0
LINE
  8
0
 10
28.848
 11
28.868
 20
7.747
 21
7.647
  0
LINE
  8
0
 10
28.868
 11
28.874
 20
7.647
 21
7.545
  0
LINE
  8
0
 10
28.874
 11
28.868
 20
7.545
 21
7.443
  0
LINE
  8
0
 10
28.868
 11
28.848
 20
7.443
 21
7.343
  0
LINE
  8
0
 10
28.848
 11
28.817
 20
7.343
 21
7.245
  0
LINE
  8
0
 10
28.817
 11
28.773
 20
7.245
 21
7.153
  0
LINE
  8
0
 10
28.773
 11
28.719
 20
7.153
 21
7.067
  0
LINE
  8
0
 10
28.719
 11
28.653
 20
7.067
 21
6.988
  0
LINE
  8
0
 10
28.653
 11
28.579
 20
6.988
 21
6.918
  0
LINE
  8
0
 10
28.579
 11
28.496
 20
6.918
 21
6.858
  0
LINE
  8
0
 10
28.496
 11
28.407
 20
6.858
 21
6.808
  0
LINE
  8
0
 10
28.407
 11
28.312
 20
6.808
 21
6.771
  0
LINE
  8
0
 10
28.312
 11
28.213
 20
6.771
 21
6.745
  0
LINE
  8
0
 10
28.213
 11
28.111
 20
6.745
 21
6.733
  0
LINE
  8
0
 10
28.111
 11
28.009
 20
6.733
 21
6.733
  0
LINE
  8
0
 10
28.009
 11
27.907
 20
6.733
 21
6.745
  0
LINE
  8
0
 10
27.907
 11
27.808
 20
6.745
 21
6.771
  0
LINE
  8
0
 10
27.808
 11
27.713
 20
6.771
 21
6.808
  0
LINE
  8
0
 10
27.713
 11
27.624
 20
6.808
 21
6.858
  0
LINE
  8
0
 10
27.624
 11
27.541
 20
6.858
 21
6.918
  0
LINE
  8
0
 10
27.541
 11
27.467
 20
6.918
 21
6.988
  0
LINE
  8
0
 10
27.467
 11
27.401
 20
6.988
 21
7.067
  0
LINE
  8
0
 10
27.401
 11
27.347
 20
7.067
 21
7.153
  0
LINE
  8
0
 10
27.347
 11
27.303
 20
7.153
 21
7.245
  0
LINE
  8
0
 10
27.303
 11
27.272
 20
7.245
 21
7.343
  0
LINE
  8
0
 10
27.272
 11
27.252
 20
7.343
 21
7.443
  0
LINE
  8
0
 10
27.252
 11
27.246
 20
7.443
 21
7.545
  0
LINE
  8
0
 10
27.246
 11
27.252
 20
27.765
 21
27.867
  0
LINE
  8
0
 10
27.252
 11
27.272
 20
27.867
 21
27.967
  0
LINE
  8
0
 10
27.272
 11
27.303
 20
27.967
 21
28.065
  0
LINE
  8
0
 10
27.303
 11
27.347
 20
28.065
 21
28.157
  0
LINE
  8
0
 10
27.347
 11
27.401
 20
28.157
 21
28.243
  0
LINE
  8
0
 10
27.401
 11
27.467
 20
28.243
 21
28.322
  0
LINE
  8
0
 10
27.467
 11
27.541
 20
28.322
 21
28.392
  0
LINE
  8
0
 10
27.541
 11
27.624
 20
28.392
 21
28.452
  0
LINE
  8
0
 10
27.624
 11
27.713
 20
28.452
 21
28.502
  0
LINE
  8
0
 10
27.713
 11
27.808
 20
28.502
 21
28.539
  0
LINE
  8
0
 10
27.808
 11
27.907
 20
28.539
 21
28.565
  0
LINE
  8
0
 10
27.907
 11
28.009
 20
28.565
 21
28.577
  0
LINE
  8
0
 10
28.009
 11
28.111
 20
28.577
 21
28.577
  0
LINE
  8
0
 10
28.111
 11
28.213
 20
28.577
 21
28.565
  0
LINE
  8
0
 10
28.213
 11
28.312
 20
28.565
 21
28.539
  0
LINE
  8
0
 10
28.312
 11
28.407
 20
28.539
 21
28.502
  0
LINE
  8
0
 10
28.407
 11
28.496
 20
28.502
 21
28.452
  0
LINE
  8
0
 10
28.496
 11
28.579
 20
28.452
 21
28.392
  0
LINE
  8
0
 10
28.579
 11
28.653
 20
28.392
 21
28.322
  0
LINE
  8
0
 10
28.653
 11
28.719
 20
28.322
 21
28.243
  0
LINE
  8
0
 10
28.719
 11
28.773
 20
28.243
 21
28.157
  0
LINE
  8
0
 10
28.773
 11
28.817
 20
28.157
 21
28.065
  0
LINE
  8
0
 10
28.817
 11
28.848
 20
28.065
 21
27.967
  0
LINE
  8
0
 10
28.848
 11
28.868
 20
27.967
 21
27.867
  0
LINE
  8
0
 10
28.868
 11
28.874
 20
27.867
 21
27.765
  0
LINE
  8
0
 10
28.874
 11
28.868
 20
27.765
 21
27.663
  0
LINE
  8
0
 10
28.868
 11
28.848
 20
27.663
 21
27.563
  0
LINE
  8
0
 10
28.848
 11
28.817
 20
27.563
 21
27.465
  0
LINE
  8
0
 10
28.817
 11
28.773
 20
27.465
 21
27.373
  0
LINE
  8
0
 10
28.773
 11
28.719
 20
27.373
 21
27.287
  0
LINE
  8
0
 10
28.719
 11
28.653
 20
27.287
 21
27.208
  0
LINE
  8
0
 10
28.653
 11
28.579
 20
27.208
 21
27.138
  0
LINE
  8
0
 10
28.579
 11
28.496
 20
27.138
 21
27.078
  0
LINE
  8
0
 10
28.496
 11
28.407
 20
27.078
 21
27.028
  0
LINE
  8
0
 10
28.407
 11
28.312
 20
27.028
 21
26.991
  0
LINE
  8
0
 10
28.312
 11
28.213
 20
26.991
 21
26.965
  0
LINE
  8
0
 10
28.213
 11
28.111
 20
26.965
 21
26.953
  0
LINE
  8
0
 10
28.111
 11
28.009
 20
26.953
 21
26.953
  0
LINE
  8
0
 10
28.009
 11
27.907
 20
26.953
 21
26.965
  0
LINE
  8
0
 10
27.907
 11
27.808
 20
26.965
 21
26.991
  0
LINE
  8
0
 10
27.808
 11
27.713
 20
26.991
 21
27.028
  0
LINE
  8
0
 10
27.713
 11
27.624
 20
27.028
 21
27.078
  0
LINE
  8
0
 10
27.624
 11
27.541
 20
27.078
 21
27.138
  0
LINE
  8
0
 10
27.541
 11
27.467
 20
27.138
 21
27.208
  0
LINE
  8
0
 10
27.467
 11
27.401
 20
27.208
 21
27.287
  0
LINE
  8
0
 10
27.401
 11
27.347
 20
27.287
 21
27.373
  0
LINE
  8
0
 10
27.347
 11
27.303
 20
27.373
 21
27.465
  0
LINE
  8
0
 10
27.303
 11
27.272
 20
27.465
 21
27.563
  0
LINE
  8
0
 10
27.272
 11
27.252
 20
27.563
 21
27.663
  0
LINE
  8
0
 10
27.252
 11
27.246
 20
27.663
 21
27.765
  0
LINE
  8
0
 10
27.246
 11
27.252
 20
32.945
 21
33.047
  0
LINE
  8
0
 10
27.252
 11
27.272
 20
33.047
 21
33.147
  0
LINE
  8
0
 10
27.272
 11
27.303
 20
33.147
 21
33.245
  0
LINE
  8
0
 10
27.303
 11
27.347
 20
33.245
 21
33.337
  0
LINE
  8
0
 10
27.347
 11
27.401
 20
33.337
 21
33.423
  0
LINE
  8
0
 10
27.401
 11
27.467
 20
33.423
 21
33.502
  0
LINE
  8
0
 10
27.467
 11
27.541
 20
33.502
 21
33.572
  0
LINE
  8
0
 10
27.541
 11
27.624
 20
33.572
 21
33.632
  0
LINE
  8
0
 10
27.624
 11
27.713
 20
33.632
 21
33.682
  0
LINE
  8
0
 10
27.713
 11
27.808
 20
33.682
 21
33.719
  0
LINE
  8
0
 10
27.808
 11
27.907
 20
33.719
 21
33.745
  0
LINE
  8
0
 10
27.907
 11
28.009
 20
33.745
 21
33.757
  0
LINE
  8
0
 10
28.009
 11
28.111
 20
33.757
 21
33.757
  0
LINE
  8
0
 10
28.111
 11
28.213
 20
33.757
 21
33.745
  0
LINE
  8
0
 10
28.213
 11
28.312
 20
33.745
 21
33.719
  0
LINE
  8
0
 10
28.312
 11
28.407
 20
33.719
 21
33.682
  0
LINE
  8
0
 10
28.407
 11
28.496
 20
33.682
 21
33.632
  0
LINE
  8
0
 10
28.496
 11
28.579
 20
33.632
 21
33.572
  0
LINE
  8
0
 10
28.579
 11
28.653
 20
33.572
 21
33.502
  0
LINE
  8
0
 10
28.653
 11
28.719
 20
33.502
 21
33.423
  0
LINE
  8
0
 10
28.719
 11
28.773
 20
33.423
 21
33.337
  0
LINE
  8
0
 10
28.773
 11
28.817
 20
33.337
 21
33.245
  0
LINE
  8
0
 10
28.817
 11
28.848
 20
33.245
 21
33.147
  0
LINE
  8
0
 10
28.848
 11
28.868
 20
33.147
 21
33.047
  0
LINE
  8
0
 10
28.868
 11
28.874
 20
33.047
 21
32.945
  0
LINE
  8
0
 10
28.874
 11
28.868
 20
32.945
 21
32.843
  0
LINE
  8
0
 10
28.868
 11
28.848
 20
32.843
 21
32.743
  0
LINE
  8
0
 10
28.848
 11
28.817
 20
32.743
 21
32.645
  0
LINE
  8
0
 10
28.817
 11
28.773
 20
32.645
 21
32.553
  0
LINE
  8
0
 10
28.773
 11
28.719
 20
32.553
 21
32.467
  0
LINE
  8
0
 10
28.719
 11
28.653
 20
32.467
 21
32.388
  0
LINE
  8
0
 10
28.653
 11
28.579
 20
32.388
 21
32.318
  0
LINE
  8
0
 10
28.579
 11
28.496
 20
32.318
 21
32.258
  0
LINE
  8
0
 10
28.496
 11
28.407
 20
32.258
 21
32.208
  0
LINE
  8
0
 10
28.407
 11
28.312
 20
32.208
 21
32.171
  0
LINE
  8
0
 10
28.312
 11
28.213
 20
32.171
 21
32.145
  0
LINE
  8
0
 10
28.213
 11
28.111
 20
32.145
 21
32.133
  0
LINE
  8
0
 10
28.111
 11
28.009
 20
32.133
 21
32.133
  0
LINE
  8
0
 10
28.009
 11
27.907
 20
32.133
 21
32.145
  0
LINE
  8
0
 10
27.907
 11
27.808
 20
32.145
 21
32.171
  0
LINE
  8
0
 10
27.808
 11
27.713
 20
32.171
 21
32.208
  0
LINE
  8
0
 10
27.713
 11
27.624
 20
32.208
 21
32.258
  0
LINE
  8
0
 10
27.624
 11
27.541
 20
32.258
 21
32.318
  0
LINE
  8
0
 10
27.541
 11
27.467
 20
32.318
 21
32.388
  0
LINE
  8
0
 10
27.467
 11
27.401
 20
32.388
 21
32.467
  0
LINE
  8
0
 10
27.401
 11
27.347
 20
32.467
 21
32.553
  0
LINE
  8
0
 10
27.347
 11
27.303
 20
32.553
 21
32.645
  0
LINE
  8
0
 10
27.303
 11
27.272
 20
32.645
 21
32.743
  0
LINE
  8
0
 10
27.272
 11
27.252
 20
32.743
 21
32.843
  0
LINE
  8
0
 10
27.252
 11
27.246
 20
32.843
 21
32.945
  0
LINE
  8
0
 10
27.246
 11
27.252
 20
53.165
 21
53.267
  0
LINE
  8
0
 10
27.252
 11
27.272
 20
53.267
 21
53.367
  0
LINE
  8
0
 10
27.272
 11
27.303
 20
53.367
 21
53.465
  0
LINE
  8
0
 10
27.303
 11
27.347
 20
53.465
 21
53.557
  0
LINE
  8
0
 10
27.347
 11
27.401
 20
53.557
 21
53.643
  0
LINE
  8
0
 10
27.401
 11
27.467
 20
53.643
 21
53.722
  0
LINE
  8
0
 10
27.467
 11
27.541
 20
53.722
 21
53.792
  0
LINE
  8
0
 10
27.541
 11
27.624
 20
53.792
 21
53.852
  0
LINE
  8
0
 10
27.624
 11
27.713
 20
53.852
 21
53.902
  0
LINE
  8
0
 10
27.713
 11
27.808
 20
53.902
 21
53.939
  0
LINE
  8
0
 10
27.808
 11
27.907
 20
53.939
 21
53.965
  0
LINE
  8
0
 10
27.907
 11
28.009
 20
53.965
 21
53.977
  0
LINE
  8
0
 10
28.009
 11
28.111
 20
53.977
 21
53.977
  0
LINE
  8
0
 10
28.111
 11
28.213
 20
53.977
 21
53.965
  0
LINE
  8
0
 10
28.213
 11
28.312
 20
53.965
 21
53.939
  0
LINE
  8
0
 10
28.312
 11
28.407
 20
53.939
 21
53.902
  0
LINE
  8
0
 10
28.407
 11
28.496
 20
53.902
 21
53.852
  0
LINE
  8
0
 10
28.496
 11
28.579
 20
53.852
 21
53.792
  0
LINE
  8
0
 10
28.579
 11
28.653
 20
53.792
 21
53.722
  0
LINE
  8
0
 10
28.653
 11
28.719
 20
53.722
 21
53.643
  0
LINE
  8
0
 10
28.719
 11
28.773
 20
53.643
 21
53.557
  0
LINE
  8
0
 10
28.773
 11
28.817
 20
53.557
 21
53.465
  0
LINE
  8
0
 10
28.817
 11
28.848
 20
53.465
 21
53.367
  0
LINE
  8
0
 10
28.848
 11
28.868
 20
53.367
 21
53.267
  0
LINE
  8
0
 10
28.868
 11
28.874
 20
53.267
 21
53.165
  0
LINE
  8
0
 10
28.874
 11
28.868
 20
53.165
 21
53.063
  0
LINE
  8
0
 10
28.868
 11
28.848
 20
53.063
 21
52.963
  0
LINE
  8
0
 10
28.848
 11
28.817
 20
52.963
 21
52.865
  0
LINE
  8
0
 10
28.817
 11
28.773
 20
52.865
 21
52.773
  0
LINE
  8
0
 10
28.773
 11
28.719
 20
52.773
 21
52.687
  0
LINE
  8
0
 10
28.719
 11
28.653
 20
52.687
 21
52.608
  0
LINE
  8
0
 10
28.653
 11
28.579
 20
52.608
 21
52.538
  0
LINE
  8
0
 10
28.579
 11
28.496
 20
52.538
 21
52.478
  0
LINE
  8
0
 10
28.496
 11
28.407
 20
52.478
 21
52.428
  0
LINE
  8
0
 10
28.407
 11
28.312
 20
52.428
 21
52.391
  0
LINE
  8
0
 10
28.312
 11
28.213
 20
52.391
 21
52.365
  0
LINE
  8
0
 10
28.213
 11
28.111
 20
52.365
 21
52.353
  0
LINE
  8
0
 10
28.111
 11
28.009
 20
52.353
 21
52.353
  0
LINE
  8
0
 10
28.009
 11
27.907
 20
52.353
 21
52.365
  0
LINE
  8
0
 10
27.907
 11
27.808
 20
52.365
 21
52.391
  0
LINE
  8
0
 10
27.808
 11
27.713
 20
52.391
 21
52.428
  0
LINE
  8
0
 10
27.713
 11
27.624
 20
52.428
 21
52.478
  0
LINE
  8
0
 10
27.624
 11
27.541
 20
52.478
 21
52.538
  0
LINE
  8
0
 10
27.541
 11
27.467
 20
52.538
 21
52.608
  0
LINE
  8
0
 10
27.467
 11
27.401
 20
52.608
 21
52.687
  0
LINE
  8
0
 10
27.401
 11
27.347
 20
52.687
 21
52.773
  0
LINE
  8
0
 10
27.347
 11
27.303
 20
52.773
 21
52.865
  0
LINE
  8
0
 10
27.303
 11
27.272
 20
52.865
 21
52.963
  0
LINE
  8
0
 10
27.272
 11
27.252
 20
52.963
 21
53.063
  0
LINE
  8
0
 10
27.252
 11
27.246
 20
53.063
 21
53.165
  0
LINE
  8
0
 10
27.246
 11
27.252
 20
58.345
 21
58.447
  0
LINE
  8
0
 10
27.252
 11
27.272
 20
58.447
 21
58.547
  0
LINE
  8
0
 10
27.272
 11
27.303
 20
58.547
 21
58.645
  0
LINE
  8
0
 10
27.303
 11
27.347
 20
58.645
 21
58.737
  0
LINE
  8
0
 10
27.347
 11
27.401
 20
58.737
 21
58.823
  0
LINE
  8
0
 10
27.401
 11
27.467
 20
58.823
 21
58.902
  0
LINE
  8
0
 10
27.467
 11
27.541
 20
58.902
 21
58.972
  0
LINE
  8
0
 10
27.541
 11
27.624
 20
58.972
 21
59.032
  0
LINE
  8
0
 10
27.624
 11
27.713
 20
59.032
 21
59.082
  0
LINE
  8
0
 10
27.713
 11
27.808
 20
59.082
 21
59.119
  0
LINE
  8
0
 10
27.808
 11
27.907
 20
59.119
 21
59.145
  0
LINE
  8
0
 10
27.907
 11
28.009
 20
59.145
 21
59.157
  0
LINE
  8
0
 10
28.009
 11
28.111
 20
59.157
 21
59.157
  0
LINE
  8
0
 10
28.111
 11
28.213
 20
59.157
 21
59.145
  0
LINE
  8
0
 10
28.213
 11
28.312
 20
59.145
 21
59.119
  0
LINE
  8
0
 10
28.312
 11
28.407
 20
59.119
 21
59.082
  0
LINE
  8
0
 10
28.407
 11
28.496
 20
59.082
 21
59.032
  0
LINE
  8
0
 10
28.496
 11
28.579
 20
59.032
 21
58.972
  0
LINE
  8
0
 10
28.579
 11
28.653
 20
58.972
 21
58.902
  0
LINE
  8
0
 10
28.653
 11
28.719
 20
58.902
 21
58.823
  0
LINE
  8
0
 10
28.719
 11
28.773
 20
58.823
 21
58.737
  0
LINE
  8
0
 10
28.773
 11
28.817
 20
58.737
 21
58.645
  0
LINE
  8
0
 10
28.817
 11
28.848
 20
58.645
 21
58.547
  0
LINE
  8
0
 10
28.848
 11
28.868
 20
58.547
 21
58.447
  0
LINE
  8
0
 10
28.868
 11
28.874
 20
58.447
 21
58.345
  0
LINE
  8
0
 10
28.874
 11
28.868
 20
58.345
 21
58.243
  0
LINE
  8
0
 10
28.868
 11
28.848
 20
58.243
 21
58.143
  0
LINE
  8
0
 10
28.848
 11
28.817
 20
58.143
 21
58.045
  0
LINE
  8
0
 10
28.817
 11
28.773
 20
58.045
 21
57.953
  0
LINE
  8
0
 10
28.773
 11
28.719
 20
57.953
 21
57.867
  0
LINE
  8
0
 10
28.719
 11
28.653
 20
57.867
 21
57.788
  0
LINE
  8
0
 10
28.653
 11
28.579
 20
57.788
 21
57.718
  0
LINE
  8
0
 10
28.579
 11
28.496
 20
57.718
 21
57.658
  0
LINE
  8
0
 10
28.496
 11
28.407
 20
57.658
 21
57.608
  0
LINE
  8
0
 10
28.407
 11
28.312
 20
57.608
 21
57.571
  0
LINE
  8
0
 10
28.312
 11
28.213
 20
57.571
 21
57.545
  0
LINE
  8
0
 10
28.213
 11
28.111
 20
57.545
 21
57.533
  0
LINE
  8
0
 10
28.111
 11
28.009
 20
57.533
 21
57.533
  0
LINE
  8
0
 10
28.009
 11
27.907
 20
57.533
 21
57.545
  0
LINE
  8
0
 10
27.907
 11
27.808
 20
57.545
 21
57.571
  0
LINE
  8
0
 10
27.808
 11
27.713
 20
57.571
 21
57.608
  0
LINE
  8
0
 10
27.713
 11
27.624
 20
57.608
 21
57.658
  0
LINE
  8
0
 10
27.624
 11
27.541
 20
57.658
 21
57.718
  0
LINE
  8
0
 10
27.541
 11
27.467
 20
57.718
 21
57.788
  0
LINE
  8
0
 10
27.467
 11
27.401
 20
57.788
 21
57.867
  0
LINE
  8
0
 10
27.401
 11
27.347
 20
57.867
 21
57.953
  0
LINE
  8
0
 10
27.347
 11
27.303
 20
57.953
 21
58.045
  0
LINE
  8
0
 10
27.303
 11
27.272
 20
58.045
 21
58.143
  0
LINE
  8
0
 10
27.272
 11
27.252
 20
58.143
 21
58.243
  0
LINE
  8
0
 10
27.252
 11
27.246
 20
58.243
 21
58.345
  0
LINE
  8
0
 10
27.246
 11
27.252
 20
78.565
 21
78.667
  0
LINE
  8
0
 10
27.252
 11
27.272
 20
78.667
 21
78.767
  0
LINE
  8
0
 10
27.272
 11
27.303
 20
78.767
 21
78.865
  0
LINE
  8
0
 10
27.303
 11
27.347
 20
78.865
 21
78.957
  0
LINE
  8
0
 10
27.347
 11
27.401
 20
78.957
 21
79.043
  0
LINE
  8
0
 10
27.401
 11
27.467
 20
79.043
 21
79.122
  0
LINE
  8
0
 10
27.467
 11
27.541
 20
79.122
 21
79.192
  0
LINE
  8
0
 10
27.541
 11
27.624
 20
79.192
 21
79.252
  0
LINE
  8
0
 10
27.624
 11
27.713
 20
79.252
 21
79.302
  0
LINE
  8
0
 10
27.713
 11
27.808
 20
79.302
 21
79.339
  0
LINE
  8
0
 10
27.808
 11
27.907
 20
79.339
 21
79.365
  0
LINE
  8
0
 10
27.907
 11
28.009
 20
79.365
 21
79.377
  0
LINE
  8
0
 10
28.009
 11
28.111
 20
79.377
 21
79.377
  0
LINE
  8
0
 10
28.111
 11
28.213
 20
79.377
 21
79.365
  0
LINE
  8
0
 10
28.213
 11
28.312
 20
79.365
 21
79.339
  0
LINE
  8
0
 10
28.312
 11
28.407
 20
79.339
 21
79.302
  0
LINE
  8
0
 10
28.407
 11
28.496
 20
79.302
 21
79.252
  0
LINE
  8
0
 10
28.496
 11
28.579
 20
79.252
 21
79.192
  0
LINE
  8
0
 10
28.579
 11
28.653
 20
79.192
 21
79.122
  0
LINE
  8
0
 10
28.653
 11
28.719
 20
79.122
 21
79.043
  0
LINE
  8
0
 10
28.719
 11
28.773
 20
79.043
 21
78.957
  0
LINE
  8
0
 10
28.773
 11
28.817
 20
78.957
 21
78.865
  0
LINE
  8
0
 10
28.817
 11
28.848
 20
78.865
 21
78.767
  0
LINE
  8
0
 10
28.848
 11
28.868
 20
78.767
 21
78.667
  0
LINE
  8
0
 10
28.868
 11
28.874
 20
78.667
 21
78.565
  0
LINE
  8
0
 10
28.874
 11
28.868
 20
78.565
 21
78.463
  0
LINE
  8
0
 10
28.868
 11
28.848
 20
78.463
 21
78.363
  0
LINE
  8
0
 10
28.848
 11
28.817
 20
78.363
 21
78.265
  0
LINE
  8
0
 10
28.817
 11
28.773
 20
78.265
 21
78.173
  0
LINE
  8
0
 10
28.773
 11
28.719
 20
78.173
 21
78.087
  0
LINE
  8
0
 10
28.719
 11
28.653
 20
78.087
 21
78.008
  0
LINE
  8
0
 10
28.653
 11
28.579
 20
78.008
 21
77.938
  0
LINE
  8
0
 10
28.579
 11
28.496
 20
77.938
 21
77.878
  0
LINE
  8
0
 10
28.496
 11
28.407
 20
77.878
 21
77.828
  0
LINE
  8
0
 10
28.407
 11
28.312
 20
77.828
 21
77.791
  0
LINE
  8
0
 10
28.312
 11
28.213
 20
77.791
 21
77.765
  0
LINE
  8
0
 10
28.213
 11
28.111
 20
77.765
 21
77.753
  0
LINE
  8
0
 10
28.111
 11
28.009
 20
77.753
 21
77.753
  0
LINE
  8
0
 10
28.009
 11
27.907
 20
77.753
 21
77.765
  0
LINE
  8
0
 10
27.907
 11
27.808
 20
77.765
 21
77.791
  0
LINE
  8
0
 10
27.808
 11
27.713
 20
77.791
 21
77.828
  0
LINE
  8
0
 10
27.713
 11
27.624
 20
77.828
 21
77.878
  0
LINE
  8
0
 10
27.624
 11
27.541
 20
77.878
 21
77.938
  0
LINE
  8
0
 10
27.541
 11
27.467
 20
77.938
 21
78.008
  0
LINE
  8
0
 10
27.467
 11
27.401
 20
78.008
 21
78.087
  0
LINE
  8
0
 10
27.401
 11
27.347
 20
78.087
 21
78.173
  0
LINE
  8
0
 10
27.347
 11
27.303
 20
78.173
 21
78.265
  0
LINE
  8
0
 10
27.303
 11
27.272
 20
78.265
 21
78.363
  0
LINE
  8
0
 10
27.272
 11
27.252
 20
78.363
 21
78.463
  0
LINE
  8
0
 10
27.252
 11
27.246
 20
78.463
 21
78.565
  0
LINE
  8
0
 10
30.7
 11
30.7
 20
-22.328
 21
-15.328
  0
LINE
  8
0
 10
30.7
 11
33.7
 20
-15.328
 21
-15.328
  0
LINE
  8
0
 10
33.7
 11
33.7
 20
-15.328
 21
-22.328
  0
LINE
  8
0
 10
33.7
 11
30.7
 20
-22.328
 21
-22.328
  0
LINE
  8
0
 10
30.7
 11
30.7
 20
52.984
 21
59.984
  0
LINE
  8
0
 10
30.7
 11
33.7
 20
59.984
 21
59.984
  0
LINE
  8
0
 10
33.7
 11
33.7
 20
59.984
 21
52.984
  0
LINE
  8
0
 10
33.7
 11
30.7
 20
52.984
 21
52.984
  0
LINE
  8
0
 10
35.646
 11
35.652
 20
-44.325
 21
-44.223
  0
LINE
  8
0
 10
35.652
 11
35.672
 20
-44.223
 21
-44.123
  0
LINE
  8
0
 10
35.672
 11
35.703
 20
-44.123
 21
-44.025
  0
LINE
  8
0
 10
35.703
 11
35.747
 20
-44.025
 21
-43.933
  0
LINE
  8
0
 10
35.747
 11
35.801
 20
-43.933
 21
-43.847
  0
LINE
  8
0
 10
35.801
 11
35.867
 20
-43.847
 21
-43.768
  0
LINE
  8
0
 10
35.867
 11
35.941
 20
-43.768
 21
-43.698
  0
LINE
  8
0
 10
35.941
 11
36.024
 20
-43.698
 21
-43.638
  0
LINE
  8
0
 10
36.024
 11
36.113
 20
-43.638
 21
-43.588
  0
LINE
  8
0
 10
36.113
 11
36.208
 20
-43.588
 21
-43.551
  0
LINE
  8
0
 10
36.208
 11
36.307
 20
-43.551
 21
-43.525
  0
LINE
  8
0
 10
36.307
 11
36.409
 20
-43.525
 21
-43.513
  0
LINE
  8
0
 10
36.409
 11
36.511
 20
-43.513
 21
-43.513
  0
LINE
  8
0
 10
36.511
 11
36.613
 20
-43.513
 21
-43.525
  0
LINE
  8
0
 10
36.613
 11
36.712
 20
-43.525
 21
-43.551
  0
LINE
  8
0
 10
36.712
 11
36.807
 20
-43.551
 21
-43.588
  0
LINE
  8
0
 10
36.807
 11
36.896
 20
-43.588
 21
-43.638
  0
LINE
  8
0
 10
36.896
 11
36.979
 20
-43.638
 21
-43.698
  0
LINE
  8
0
 10
36.979
 11
37.053
 20
-43.698
 21
-43.768
  0
LINE
  8
0
 10
37.053
 11
37.119
 20
-43.768
 21
-43.847
  0
LINE
  8
0
 10
37.119
 11
37.173
 20
-43.847
 21
-43.933
  0
LINE
  8
0
 10
37.173
 11
37.217
 20
-43.933
 21
-44.025
  0
LINE
  8
0
 10
37.217
 11
37.248
 20
-44.025
 21
-44.123
  0
LINE
  8
0
 10
37.248
 11
37.268
 20
-44.123
 21
-44.223
  0
LINE
  8
0
 10
37.268
 11
37.274
 20
-44.223
 21
-44.325
  0
LINE
  8
0
 10
37.274
 11
37.268
 20
-44.325
 21
-44.427
  0
LINE
  8
0
 10
37.268
 11
37.248
 20
-44.427
 21
-44.527
  0
LINE
  8
0
 10
37.248
 11
37.217
 20
-44.527
 21
-44.625
  0
LINE
  8
0
 10
37.217
 11
37.173
 20
-44.625
 21
-44.717
  0
LINE
  8
0
 10
37.173
 11
37.119
 20
-44.717
 21
-44.803
  0
LINE
  8
0
 10
37.119
 11
37.053
 20
-44.803
 21
-44.882
  0
LINE
  8
0
 10
37.053
 11
36.979
 20
-44.882
 21
-44.952
  0
LINE
  8
0
 10
36.979
 11
36.896
 20
-44.952
 21
-45.012
  0
LINE
  8
0
 10
36.896
 11
36.807
 20
-45.012
 21
-45.062
  0
LINE
  8
0
 10
36.807
 11
36.712
 20
-45.062
 21
-45.099
  0
LINE
  8
0
 10
36.712
 11
36.613
 20
-45.099
 21
-45.125
  0
LINE
  8
0
 10
36.613
 11
36.511
 20
-45.125
 21
-45.137
  0
LINE
  8
0
 10
36.511
 11
36.409
 20
-45.137
 21
-45.137
  0
LINE
  8
0
 10
36.409
 11
36.307
 20
-45.137
 21
-45.125
  0
LINE
  8
0
 10
36.307
 11
36.208
 20
-45.125
 21
-45.099
  0
LINE
  8
0
 10
36.208
 11
36.113
 20
-45.099
 21
-45.062
  0
LINE
  8
0
 10
36.113
 11
36.024
 20
-45.062
 21
-45.012
  0
LINE
  8
0
 10
36.024
 11
35.941
 20
-45.012
 21
-44.952
  0
LINE
  8
0
 10
35.941
 11
35.867
 20
-44.952
 21
-44.882
  0
LINE
  8
0
 10
35.867
 11
35.801
 20
-44.882
 21
-44.803
  0
LINE
  8
0
 10
35.801
 11
35.747
 20
-44.803
 21
-44.717
  0
LINE
  8
0
 10
35.747
 11
35.703
 20
-44.717
 21
-44.625
  0
LINE
  8
0
 10
35.703
 11
35.672
 20
-44.625
 21
-44.527
  0
LINE
  8
0
 10
35.672
 11
35.652
 20
-44.527
 21
-44.427
  0
LINE
  8
0
 10
35.652
 11
35.646
 20
-44.427
 21
-44.325
  0
LINE
  8
0
 10
35.646
 11
35.652
 20
6.35
 21
6.452
  0
LINE
  8
0
 10
35.652
 11
35.672
 20
6.452
 21
6.552
  0
LINE
  8
0
 10
35.672
 11
35.703
 20
6.552
 21
6.65
  0
LINE
  8
0
 10
35.703
 11
35.747
 20
6.65
 21
6.742
  0
LINE
  8
0
 10
35.747
 11
35.801
 20
6.742
 21
6.828
  0
LINE
  8
0
 10
35.801
 11
35.867
 20
6.828
 21
6.907
  0
LINE
  8
0
 10
35.867
 11
35.941
 20
6.907
 21
6.977
  0
LINE
  8
0
 10
35.941
 11
36.024
 20
6.977
 21
7.037
  0
LINE
  8
0
 10
36.024
 11
36.113
 20
7.037
 21
7.087
  0
LINE
  8
0
 10
36.113
 11
36.208
 20
7.087
 21
7.124
  0
LINE
  8
0
 10
36.208
 11
36.307
 20
7.124
 21
7.15
  0
LINE
  8
0
 10
36.307
 11
36.409
 20
7.15
 21
7.162
  0
LINE
  8
0
 10
36.409
 11
36.511
 20
7.162
 21
7.162
  0
LINE
  8
0
 10
36.511
 11
36.613
 20
7.162
 21
7.15
  0
LINE
  8
0
 10
36.613
 11
36.712
 20
7.15
 21
7.124
  0
LINE
  8
0
 10
36.712
 11
36.807
 20
7.124
 21
7.087
  0
LINE
  8
0
 10
36.807
 11
36.896
 20
7.087
 21
7.037
  0
LINE
  8
0
 10
36.896
 11
36.979
 20
7.037
 21
6.977
  0
LINE
  8
0
 10
36.979
 11
37.053
 20
6.977
 21
6.907
  0
LINE
  8
0
 10
37.053
 11
37.119
 20
6.907
 21
6.828
  0
LINE
  8
0
 10
37.119
 11
37.173
 20
6.828
 21
6.742
  0
LINE
  8
0
 10
37.173
 11
37.217
 20
6.742
 21
6.65
  0
LINE
  8
0
 10
37.217
 11
37.248
 20
6.65
 21
6.552
  0
LINE
  8
0
 10
37.248
 11
37.268
 20
6.552
 21
6.452
  0
LINE
  8
0
 10
37.268
 11
37.274
 20
6.452
 21
6.35
  0
LINE
  8
0
 10
37.274
 11
37.268
 20
6.35
 21
6.248
  0
LINE
  8
0
 10
37.268
 11
37.248
 20
6.248
 21
6.148
  0
LINE
  8
0
 10
37.248
 11
37.217
 20
6.148
 21
6.05
  0
LINE
  8
0
 10
37.217
 11
37.173
 20
6.05
 21
5.958
  0
LINE
  8
0
 10
37.173
 11
37.119
 20
5.958
 21
5.872
  0
LINE
  8
0
 10
37.119
 11
37.053
 20
5.872
 21
5.793
  0
LINE
  8
0
 10
37.053
 11
36.979
 20
5.793
 21
5.723
  0
LINE
  8
0
 10
36.979
 11
36.896
 20
5.723
 21
5.663
  0
LINE
  8
0
 10
36.896
 11
36.807
 20
5.663
 21
5.613
  0
LINE
  8
0
 10
36.807
 11
36.712
 20
5.613
 21
5.576
  0
LINE
  8
0
 10
36.712
 11
36.613
 20
5.576
 21
5.55
  0
LINE
  8
0
 10
36.613
 11
36.511
 20
5.55
 21
5.538
  0
LINE
  8
0
 10
36.511
 11
36.409
 20
5.538
 21
5.538
  0
LINE
  8
0
 10
36.409
 11
36.307
 20
5.538
 21
5.55
  0
LINE
  8
0
 10
36.307
 11
36.208
 20
5.55
 21
5.576
  0
LINE
  8
0
 10
36.208
 11
36.113
 20
5.576
 21
5.613
  0
LINE
  8
0
 10
36.113
 11
36.024
 20
5.613
 21
5.663
  0
LINE
  8
0
 10
36.024
 11
35.941
 20
5.663
 21
5.723
  0
LINE
  8
0
 10
35.941
 11
35.867
 20
5.723
 21
5.793
  0
LINE
  8
0
 10
35.867
 11
35.801
 20
5.793
 21
5.872
  0
LINE
  8
0
 10
35.801
 11
35.747
 20
5.872
 21
5.958
  0
LINE
  8
0
 10
35.747
 11
35.703
 20
5.958
 21
6.05
  0
LINE
  8
0
 10
35.703
 11
35.672
 20
6.05
 21
6.148
  0
LINE
  8
0
 10
35.672
 11
35.652
 20
6.148
 21
6.248
  0
LINE
  8
0
 10
35.652
 11
35.646
 20
6.248
 21
6.35
  0
LINE
  8
0
 10
35.646
 11
35.652
 20
57.15
 21
57.252
  0
LINE
  8
0
 10
35.652
 11
35.672
 20
57.252
 21
57.352
  0
LINE
  8
0
 10
35.672
 11
35.703
 20
57.352
 21
57.45
  0
LINE
  8
0
 10
35.703
 11
35.747
 20
57.45
 21
57.542
  0
LINE
  8
0
 10
35.747
 11
35.801
 20
57.542
 21
57.628
  0
LINE
  8
0
 10
35.801
 11
35.867
 20
57.628
 21
57.707
  0
LINE
  8
0
 10
35.867
 11
35.941
 20
57.707
 21
57.777
  0
LINE
  8
0
 10
35.941
 11
36.024
 20
57.777
 21
57.837
  0
LINE
  8
0
 10
36.024
 11
36.113
 20
57.837
 21
57.887
  0
LINE
  8
0
 10
36.113
 11
36.208
 20
57.887
 21
57.924
  0
LINE
  8
0
 10
36.208
 11
36.307
 20
57.924
 21
57.95
  0
LINE
  8
0
 10
36.307
 11
36.409
 20
57.95
 21
57.962
  0
LINE
  8
0
 10
36.409
 11
36.511
 20
57.962
 21
57.962
  0
LINE
  8
0
 10
36.511
 11
36.613
 20
57.962
 21
57.95
  0
LINE
  8
0
 10
36.613
 11
36.712
 20
57.95
 21
57.924
  0
LINE
  8
0
 10
36.712
 11
36.807
 20
57.924
 21
57.887
  0
LINE
  8
0
 10
36.807
 11
36.896
 20
57.887
 21
57.837
  0
LINE
  8
0
 10
36.896
 11
36.979
 20
57.837
 21
57.777
  0
LINE
  8
0
 10
36.979
 11
37.053
 20
57.777
 21
57.707
  0
LINE
  8
0
 10
37.053
 11
37.119
 20
57.707
 21
57.628
  0
LINE
  8
0
 10
37.119
 11
37.173
 20
57.628
 21
57.542
  0
LINE
  8
0
 10
37.173
 11
37.217
 20
57.542
 21
57.45
  0
LINE
  8
0
 10
37.217
 11
37.248
 20
57.45
 21
57.352
  0
LINE
  8
0
 10
37.248
 11
37.268
 20
57.352
 21
57.252
  0
LINE
  8
0
 10
37.268
 11
37.274
 20
57.252
 21
57.15
  0
LINE
  8
0
 10
37.274
 11
37.268
 20
57.15
 21
57.048
  0
LINE
  8
0
 10
37.268
 11
37.248
 20
57.048
 21
56.948
  0
LINE
  8
0
 10
37.248
 11
37.217
 20
56.948
 21
56.85
  0
LINE
  8
0
 10
37.217
 11
37.173
 20
56.85
 21
56.758
  0
LINE
  8
0
 10
37.173
 11
37.119
 20
56.758
 21
56.672
  0
LINE
  8
0
 10
37.119
 11
37.053
 20
56.672
 21
56.593
  0
LINE
  8
0
 10
37.053
 11
36.979
 20
56.593
 21
56.523
  0
LINE
  8
0
 10
36.979
 11
36.896
 20
56.523
 21
56.463
  0
LINE
  8
0
 10
36.896
 11
36.807
 20
56.463
 21
56.413
  0
LINE
  8
0
 10
36.807
 11
36.712
 20
56.413
 21
56.376
  0
LINE
  8
0
 10
36.712
 11
36.613
 20
56.376
 21
56.35
  0
LINE
  8
0
 10
36.613
 11
36.511
 20
56.35
 21
56.338
  0
LINE
  8
0
 10
36.511
 11
36.409
 20
56.338
 21
56.338
  0
LINE
  8
0
 10
36.409
 11
36.307
 20
56.338
 21
56.35
  0
LINE
  8
0
 10
36.307
 11
36.208
 20
56.35
 21
56.376
  0
LINE
  8
0
 10
36.208
 11
36.113
 20
56.376
 21
56.413
  0
LINE
  8
0
 10
36.113
 11
36.024
 20
56.413
 21
56.463
  0
LINE
  8
0
 10
36.024
 11
35.941
 20
56.463
 21
56.523
  0
LINE
  8
0
 10
35.941
 11
35.867
 20
56.523
 21
56.593
  0
LINE
  8
0
 10
35.867
 11
35.801
 20
56.593
 21
56.672
  0
LINE
  8
0
 10
35.801
 11
35.747
 20
56.672
 21
56.758
  0
LINE
  8
0
 10
35.747
 11
35.703
 20
56.758
 21
56.85
  0
LINE
  8
0
 10
35.703
 11
35.672
 20
56.85
 21
56.948
  0
LINE
  8
0
 10
35.672
 11
35.652
 20
56.948
 21
57.048
  0
LINE
  8
0
 10
35.652
 11
35.646
 20
57.048
 21
57.15
  0
LINE
  8
0
 10
41.5
 11
41.516
 20
-33.495
 21
-33.244
  0
LINE
  8
0
 10
41.516
 11
41.563
 20
-33.244
 21
-32.998
  0
LINE
  8
0
 10
41.563
 11
41.64
 20
-32.998
 21
-32.759
  0
LINE
  8
0
 10
41.64
 11
41.747
 20
-32.759
 21
-32.531
  0
LINE
  8
0
 10
41.747
 11
41.882
 20
-32.531
 21
-32.319
  0
LINE
  8
0
 10
41.882
 11
42.042
 20
-32.319
 21
-32.126
  0
LINE
  8
0
 10
42.042
 11
42.225
 20
-32.126
 21
-31.954
  0
LINE
  8
0
 10
42.225
 11
42.428
 20
-31.954
 21
-31.806
  0
LINE
  8
0
 10
42.428
 11
42.648
 20
-31.806
 21
-31.685
  0
LINE
  8
0
 10
42.648
 11
42.882
 20
-31.685
 21
-31.593
  0
LINE
  8
0
 10
42.882
 11
43.125
 20
-31.593
 21
-31.53
  0
LINE
  8
0
 10
43.125
 11
43.374
 20
-31.53
 21
-31.499
  0
LINE
  8
0
 10
43.374
 11
43.626
 20
-31.499
 21
-31.499
  0
LINE
  8
0
 10
43.626
 11
43.875
 20
-31.499
 21
-31.53
  0
LINE
  8
0
 10
43.875
 11
44.118
 20
-31.53
 21
-31.593
  0
LINE
  8
0
 10
44.118
 11
44.352
 20
-31.593
 21
-31.685
  0
LINE
  8
0
 10
44.352
 11
44.572
 20
-31.685
 21
-31.806
  0
LINE
  8
0
 10
44.572
 11
44.775
 20
-31.806
 21
-31.954
  0
LINE
  8
0
 10
44.775
 11
44.958
 20
-31.954
 21
-32.126
  0
LINE
  8
0
 10
44.958
 11
45.118
 20
-32.126
 21
-32.319
  0
LINE
  8
0
 10
45.118
 11
45.253
 20
-32.319
 21
-32.531
  0
LINE
  8
0
 10
45.253
 11
45.36
 20
-32.531
 21
-32.759
  0
LINE
  8
0
 10
45.36
 11
45.437
 20
-32.759
 21
-32.998
  0
LINE
  8
0
 10
45.437
 11
45.484
 20
-32.998
 21
-33.244
  0
LINE
  8
0
 10
45.484
 11
45.5
 20
-33.244
 21
-33.495
  0
LINE
  8
0
 10
45.5
 11
45.484
 20
-33.495
 21
-33.746
  0
LINE
  8
0
 10
45.484
 11
45.437
 20
-33.746
 21
-33.992
  0
LINE
  8
0
 10
45.437
 11
45.36
 20
-33.992
 21
-34.231
  0
LINE
  8
0
 10
45.36
 11
45.253
 20
-34.231
 21
-34.459
  0
LINE
  8
0
 10
45.253
 11
45.118
 20
-34.459
 21
-34.671
  0
LINE
  8
0
 10
45.118
 11
44.958
 20
-34.671
 21
-34.864
  0
LINE
  8
0
 10
44.958
 11
44.775
 20
-34.864
 21
-35.036
  0
LINE
  8
0
 10
44.775
 11
44.572
 20
-35.036
 21
-35.184
  0
LINE
  8
0
 10
44.572
 11
44.352
 20
-35.184
 21
-35.305
  0
LINE
  8
0
 10
44.352
 11
44.118
 20
-35.305
 21
-35.397
  0
LINE
  8
0
 10
44.118
 11
43.875
 20
-35.397
 21
-35.46
  0
LINE
  8
0
 10
43.875
 11
43.626
 20
-35.46
 21
-35.491
  0
LINE
  8
0
 10
43.626
 11
43.374
 20
-35.491
 21
-35.491
  0
LINE
  8
0
 10
43.374
 11
43.125
 20
-35.491
 21
-35.46
  0
LINE
  8
0
 10
43.125
 11
42.882
 20
-35.46
 21
-35.397
  0
LINE
  8
0
 10
42.882
 11
42.648
 20
-35.397
 21
-35.305
  0
LINE
  8
0
 10
42.648
 11
42.428
 20
-35.305
 21
-35.184
  0
LINE
  8
0
 10
42.428
 11
42.225
 20
-35.184
 21
-35.036
  0
LINE
  8
0
 10
42.225
 11
42.042
 20
-35.036
 21
-34.864
  0
LINE
  8
0
 10
42.042
 11
41.882
 20
-34.864
 21
-34.671
  0
LINE
  8
0
 10
41.882
 11
41.747
 20
-34.671
 21
-34.459
  0
LINE
  8
0
 10
41.747
 11
41.64
 20
-34.459
 21
-34.231
  0
LINE
  8
0
 10
41.64
 11
41.563
 20
-34.231
 21
-33.992
  0
LINE
  8
0
 10
41.563
 11
41.516
 20
-33.992
 21
-33.746
  0
LINE
  8
0
 10
41.516
 11
41.5
 20
-33.746
 21
-33.495
  0
LINE
  8
0
 10
41.5
 11
41.516
 20
-8.095
 21
-7.844
  0
LINE
  8
0
 10
41.516
 11
41.563
 20
-7.844
 21
-7.598
  0
LINE
  8
0
 10
41.563
 11
41.64
 20
-7.598
 21
-7.359
  0
LINE
  8
0
 10
41.64
 11
41.747
 20
-7.359
 21
-7.131
  0
LINE
  8
0
 10
41.747
 11
41.882
 20
-7.131
 21
-6.919
  0
LINE
  8
0
 10
41.882
 11
42.042
 20
-6.919
 21
-6.726
  0
LINE
  8
0
 10
42.042
 11
42.225
 20
-6.726
 21
-6.554
  0
LINE
  8
0
 10
42.225
 11
42.428
 20
-6.554
 21
-6.406
  0
LINE
  8
0
 10
42.428
 11
42.648
 20
-6.406
 21
-6.285
  0
LINE
  8
0
 10
42.648
 11
42.882
 20
-6.285
 21
-6.193
  0
LINE
  8
0
 10
42.882
 11
43.125
 20
-6.193
 21
-6.13
  0
LINE
  8
0
 10
43.125
 11
43.374
 20
-6.13
 21
-6.099
  0
LINE
  8
0
 10
43.374
 11
43.626
 20
-6.099
 21
-6.099
  0
LINE
  8
0
 10
43.626
 11
43.875
 20
-6.099
 21
-6.13
  0
LINE
  8
0
 10
43.875
 11
44.118
 20
-6.13
 21
-6.193
  0
LINE
  8
0
 10
44.118
 11
44.352
 20
-6.193
 21
-6.285
  0
LINE
  8
0
 10
44.352
 11
44.572
 20
-6.285
 21
-6.406
  0
LINE
  8
0
 10
44.572
 11
44.775
 20
-6.406
 21
-6.554
  0
LINE
  8
0
 10
44.775
 11
44.958
 20
-6.554
 21
-6.726
  0
LINE
  8
0
 10
44.958
 11
45.118
 20
-6.726
 21
-6.919
  0
LINE
  8
0
 10
45.118
 11
45.253
 20
-6.919
 21
-7.131
  0
LINE
  8
0
 10
45.253
 11
45.36
 20
-7.131
 21
-7.359
  0
LINE
  8
0
 10
45.36
 11
45.437
 20
-7.359
 21
-7.598
  0
LINE
  8
0
 10
45.437
 11
45.484
 20
-7.598
 21
-7.844
  0
LINE
  8
0
 10
45.484
 11
45.5
 20
-7.844
 21
-8.095
  0
LINE
  8
0
 10
45.5
 11
45.484
 20
-8.095
 21
-8.346
  0
LINE
  8
0
 10
45.484
 11
45.437
 20
-8.346
 21
-8.592
  0
LINE
  8
0
 10
45.437
 11
45.36
 20
-8.592
 21
-8.831
  0
LINE
  8
0
 10
45.36
 11
45.253
 20
-8.831
 21
-9.059
  0
LINE
  8
0
 10
45.253
 11
45.118
 20
-9.059
 21
-9.271
  0
LINE
  8
0
 10
45.118
 11
44.958
 20
-9.271
 21
-9.464
  0
LINE
  8
0
 10
44.958
 11
44.775
 20
-9.464
 21
-9.636
  0
LINE
  8
0
 10
44.775
 11
44.572
 20
-9.636
 21
-9.784
  0
LINE
  8
0
 10
44.572
 11
44.352
 20
-9.784
 21
-9.905
  0
LINE
  8
0
 10
44.352
 11
44.118
 20
-9.905
 21
-9.997
  0
LINE
  8
0
 10
44.118
 11
43.875
 20
-9.997
 21
-10.06
  0
LINE
  8
0
 10
43.875
 11
43.626
 20
-10.06
 21
-10.091
  0
LINE
  8
0
 10
43.626
 11
43.374
 20
-10.091
 21
-10.091
  0
LINE
  8
0
 10
43.374
 11
43.125
 20
-10.091
 21
-10.06
  0
LINE
  8
0
 10
43.125
 11
42.882
 20
-10.06
 21
-9.997
  0
LINE
  8
0
 10
42.882
 11
42.648
 20
-9.997
 21
-9.905
  0
LINE
  8
0
 10
42.648
 11
42.428
 20
-9.905
 21
-9.784
  0
LINE
  8
0
 10
42.428
 11
42.225
 20
-9.784
 21
-9.636
  0
LINE
  8
0
 10
42.225
 11
42.042
 20
-9.636
 21
-9.464
  0
LINE
  8
0
 10
42.042
 11
41.882
 20
-9.464
 21
-9.271
  0
LINE
  8
0
 10
41.882
 11
41.747
 20
-9.271
 21
-9.059
  0
LINE
  8
0
 10
41.747
 11
41.64
 20
-9.059
 21
-8.831
  0
LINE
  8
0
 10
41.64
 11
41.563
 20
-8.831
 21
-8.592
  0
LINE
  8
0
 10
41.563
 11
41.516
 20
-8.592
 21
-8.346
  0
LINE
  8
0
 10
41.516
 11
41.5
 20
-8.346
 21
-8.095
  0
LINE
  8
0
 10
41.5
 11
41.516
 20
17.305
 21
17.556
  0
LINE
  8
0
 10
41.516
 11
41.563
 20
17.556
 21
17.802
  0
LINE
  8
0
 10
41.563
 11
41.64
 20
17.802
 21
18.041
  0
LINE
  8
0
 10
41.64
 11
41.747
 20
18.041
 21
18.269
  0
LINE
  8
0
 10
41.747
 11
41.882
 20
18.269
 21
18.481
  0
LINE
  8
0
 10
41.882
 11
42.042
 20
18.481
 21
18.674
  0
LINE
  8
0
 10
42.042
 11
42.225
 20
18.674
 21
18.846
  0
LINE
  8
0
 10
42.225
 11
42.428
 20
18.846
 21
18.994
  0
LINE
  8
0
 10
42.428
 11
42.648
 20
18.994
 21
19.115
  0
LINE
  8
0
 10
42.648
 11
42.882
 20
19.115
 21
19.207
  0
LINE
  8
0
 10
42.882
 11
43.125
 20
19.207
 21
19.27
  0
LINE
  8
0
 10
43.125
 11
43.374
 20
19.27
 21
19.301
  0
LINE
  8
0
 10
43.374
 11
43.626
 20
19.301
 21
19.301
  0
LINE
  8
0
 10
43.626
 11
43.875
 20
19.301
 21
19.27
  0
LINE
  8
0
 10
43.875
 11
44.118
 20
19.27
 21
19.207
  0
LINE
  8
0
 10
44.118
 11
44.352
 20
19.207
 21
19.115
  0
LINE
  8
0
 10
44.352
 11
44.572
 20
19.115
 21
18.994
  0
LINE
  8
0
 10
44.572
 11
44.775
 20
18.994
 21
18.846
  0
LINE
  8
0
 10
44.775
 11
44.958
 20
18.846
 21
18.674
  0
LINE
  8
0
 10
44.958
 11
45.118
 20
18.674
 21
18.481
  0
LINE
  8
0
 10
45.118
 11
45.253
 20
18.481
 21
18.269
  0
LINE
  8
0
 10
45.253
 11
45.36
 20
18.269
 21
18.041
  0
LINE
  8
0
 10
45.36
 11
45.437
 20
18.041
 21
17.802
  0
LINE
  8
0
 10
45.437
 11
45.484
 20
17.802
 21
17.556
  0
LINE
  8
0
 10
45.484
 11
45.5
 20
17.556
 21
17.305
  0
LINE
  8
0
 10
45.5
 11
45.484
 20
17.305
 21
17.054
  0
LINE
  8
0
 10
45.484
 11
45.437
 20
17.054
 21
16.808
  0
LINE
  8
0
 10
45.437
 11
45.36
 20
16.808
 21
16.569
  0
LINE
  8
0
 10
45.36
 11
45.253
 20
16.569
 21
16.341
  0
LINE
  8
0
 10
45.253
 11
45.118
 20
16.341
 21
16.129
  0
LINE
  8
0
 10
45.118
 11
44.958
 20
16.129
 21
15.936
  0
LINE
  8
0
 10
44.958
 11
44.775
 20
15.936
 21
15.764
  0
LINE
  8
0
 10
44.775
 11
44.572
 20
15.764
 21
15.616
  0
LINE
  8
0
 10
44.572
 11
44.352
 20
15.616
 21
15.495
  0
LINE
  8
0
 10
44.352
 11
44.118
 20
15.495
 21
15.403
  0
LINE
  8
0
 10
44.118
 11
43.875
 20
15.403
 21
15.34
  0
LINE
  8
0
 10
43.875
 11
43.626
 20
15.34
 21
15.309
  0
LINE
  8
0
 10
43.626
 11
43.374
 20
15.309
 21
15.309
  0
LINE
  8
0
 10
43.374
 11
43.125
 20
15.309
 21
15.34
  0
LINE
  8
0
 10
43.125
 11
42.882
 20
15.34
 21
15.403
  0
LINE
  8
0
 10
42.882
 11
42.648
 20
15.403
 21
15.495
  0
LINE
  8
0
 10
42.648
 11
42.428
 20
15.495
 21
15.616
  0
LINE
  8
0
 10
42.428
 11
42.225
 20
15.616
 21
15.764
  0
LINE
  8
0
 10
42.225
 11
42.042
 20
15.764
 21
15.936
  0
LINE
  8
0
 10
42.042
 11
41.882
 20
15.936
 21
16.129
  0
LINE
  8
0
 10
41.882
 11
41.747
 20
16.129
 21
16.341
  0
LINE
  8
0
 10
41.747
 11
41.64
 20
16.341
 21
16.569
  0
LINE
  8
0
 10
41.64
 11
41.563
 20
16.569
 21
16.808
  0
LINE
  8
0
 10
41.563
 11
41.516
 20
16.808
 21
17.054
  0
LINE
  8
0
 10
41.516
 11
41.5
 20
17.054
 21
17.305
  0
LINE
  8
0
 10
41.5
 11
41.516
 20
42.705
 21
42.956
  0
LINE
  8
0
 10
41.516
 11
41.563
 20
42.956
 21
43.202
  0
LINE
  8
0
 10
41.563
 11
41.64
 20
43.202
 21
43.441
  0
LINE
  8
0
 10
41.64
 11
41.747
 20
43.441
 21
43.669
  0
LINE
  8
0
 10
41.747
 11
41.882
 20
43.669
 21
43.881
  0
LINE
  8
0
 10
41.882
 11
42.042
 20
43.881
 21
44.074
  0
LINE
  8
0
 10
42.042
 11
42.225
 20
44.074
 21
44.246
  0
LINE
  8
0
 10
42.225
 11
42.428
 20
44.246
 21
44.394
  0
LINE
  8
0
 10
42.428
 11
42.648
 20
44.394
 21
44.515
  0
LINE
  8
0
 10
42.648
 11
42.882
 20
44.515
 21
44.607
  0
LINE
  8
0
 10
42.882
 11
43.125
 20
44.607
 21
44.67
  0
LINE
  8
0
 10
43.125
 11
43.374
 20
44.67
 21
44.701
  0
LINE
  8
0
 10
43.374
 11
43.626
 20
44.701
 21
44.701
  0
LINE
  8
0
 10
43.626
 11
43.875
 20
44.701
 21
44.67
  0
LINE
  8
0
 10
43.875
 11
44.118
 20
44.67
 21
44.607
  0
LINE
  8
0
 10
44.118
 11
44.352
 20
44.607
 21
44.515
  0
LINE
  8
0
 10
44.352
 11
44.572
 20
44.515
 21
44.394
  0
LINE
  8
0
 10
44.572
 11
44.775
 20
44.394
 21
44.246
  0
LINE
  8
0
 10
44.775
 11
44.958
 20
44.246
 21
44.074
  0
LINE
  8
0
 10
44.958
 11
45.118
 20
44.074
 21
43.881
  0
LINE
  8
0
 10
45.118
 11
45.253
 20
43.881
 21
43.669
  0
LINE
  8
0
 10
45.253
 11
45.36
 20
43.669
 21
43.441
  0
LINE
  8
0
 10
45.36
 11
45.437
 20
43.441
 21
43.202
  0
LINE
  8
0
 10
45.437
 11
45.484
 20
43.202
 21
42.956
  0
LINE
  8
0
 10
45.484
 11
45.5
 20
42.956
 21
42.705
  0
LINE
  8
0
 10
45.5
 11
45.484
 20
42.705
 21
42.454
  0
LINE
  8
0
 10
45.484
 11
45.437
 20
42.454
 21
42.208
  0
LINE
  8
0
 10
45.437
 11
45.36
 20
42.208
 21
41.969
  0
LINE
  8
0
 10
45.36
 11
45.253
 20
41.969
 21
41.741
  0
LINE
  8
0
 10
45.253
 11
45.118
 20
41.741
 21
41.529
  0
LINE
  8
0
 10
45.118
 11
44.958
 20
41.529
 21
41.336
  0
LINE
  8
0
 10
44.958
 11
44.775
 20
41.336
 21
41.164
  0
LINE
  8
0
 10
44.775
 11
44.572
 20
41.164
 21
41.016
  0
LINE
  8
0
 10
44.572
 11
44.352
 20
41.016
 21
40.895
  0
LINE
  8
0
 10
44.352
 11
44.118
 20
40.895
 21
40.803
  0
LINE
  8
0
 10
44.118
 11
43.875
 20
40.803
 21
40.74
  0
LINE
  8
0
 10
43.875
 11
43.626
 20
40.74
 21
40.709
  0
LINE
  8
0
 10
43.626
 11
43.374
 20
40.709
 21
40.709
  0
LINE
  8
0
 10
43.374
 11
43.125
 20
40.709
 21
40.74
  0
LINE
  8
0
 10
43.125
 11
42.882
 20
40.74
 21
40.803
  0
LINE
  8
0
 10
42.882
 11
42.648
 20
40.803
 21
40.895
  0
LINE
  8
0
 10
42.648
 11
42.428
 20
40.895
 21
41.016
  0
LINE
  8
0
 10
42.428
 11
42.225
 20
41.016
 21
41.164
  0
LINE
  8
0
 10
42.225
 11
42.042
 20
41.164
 21
41.336
  0
LINE
  8
0
 10
42.042
 11
41.882
 20
41.336
 21
41.529
  0
LINE
  8
0
 10
41.882
 11
41.747
 20
41.529
 21
41.741
  0
LINE
  8
0
 10
41.747
 11
41.64
 20
41.741
 21
41.969
  0
LINE
  8
0
 10
41.64
 11
41.563
 20
41.969
 21
42.208
  0
LINE
  8
0
 10
41.563
 11
41.516
 20
42.208
 21
42.454
  0
LINE
  8
0
 10
41.516
 11
41.5
 20
42.454
 21
42.705
  0
LINE
  8
0
 10
41.5
 11
41.516
 20
68.105
 21
68.356
  0
LINE
  8
0
 10
41.516
 11
41.563
 20
68.356
 21
68.602
  0
LINE
  8
0
 10
41.563
 11
41.64
 20
68.602
 21
68.841
  0
LINE
  8
0
 10
41.64
 11
41.747
 20
68.841
 21
69.069
  0
LINE
  8
0
 10
41.747
 11
41.882
 20
69.069
 21
69.281
  0
LINE
  8
0
 10
41.882
 11
42.042
 20
69.281
 21
69.474
  0
LINE
  8
0
 10
42.042
 11
42.225
 20
69.474
 21
69.646
  0
LINE
  8
0
 10
42.225
 11
42.428
 20
69.646
 21
69.794
  0
LINE
  8
0
 10
42.428
 11
42.648
 20
69.794
 21
69.915
  0
LINE
  8
0
 10
42.648
 11
42.882
 20
69.915
 21
70.007
  0
LINE
  8
0
 10
42.882
 11
43.125
 20
70.007
 21
70.07
  0
LINE
  8
0
 10
43.125
 11
43.374
 20
70.07
 21
70.101
  0
LINE
  8
0
 10
43.374
 11
43.626
 20
70.101
 21
70.101
  0
LINE
  8
0
 10
43.626
 11
43.875
 20
70.101
 21
70.07
  0
LINE
  8
0
 10
43.875
 11
44.118
 20
70.07
 21
70.007
  0
LINE
  8
0
 10
44.118
 11
44.352
 20
70.007
 21
69.915
  0
LINE
  8
0
 10
44.352
 11
44.572
 20
69.915
 21
69.794
  0
LINE
  8
0
 10
44.572
 11
44.775
 20
69.794
 21
69.646
  0
LINE
  8
0
 10
44.775
 11
44.958
 20
69.646
 21
69.474
  0
LINE
  8
0
 10
44.958
 11
45.118
 20
69.474
 21
69.281
  0
LINE
  8
0
 10
45.118
 11
45.253
 20
69.281
 21
69.069
  0
LINE
  8
0
 10
45.253
 11
45.36
 20
69.069
 21
68.841
  0
LINE
  8
0
 10
45.36
 11
45.437
 20
68.841
 21
68.602
  0
LINE
  8
0
 10
45.437
 11
45.484
 20
68.602
 21
68.356
  0
LINE
  8
0
 10
45.484
 11
45.5
 20
68.356
 21
68.105
  0
LINE
  8
0
 10
45.5
 11
45.484
 20
68.105
 21
67.854
  0
LINE
  8
0
 10
45.484
 11
45.437
 20
67.854
 21
67.608
  0
LINE
  8
0
 10
45.437
 11
45.36
 20
67.608
 21
67.369
  0
LINE
  8
0
 10
45.36
 11
45.253
 20
67.369
 21
67.141
  0
LINE
  8
0
 10
45.253
 11
45.118
 20
67.141
 21
66.929
  0
LINE
  8
0
 10
45.118
 11
44.958
 20
66.929
 21
66.736
  0
LINE
  8
0
 10
44.958
 11
44.775
 20
66.736
 21
66.564
  0
LINE
  8
0
 10
44.775
 11
44.572
 20
66.564
 21
66.416
  0
LINE
  8
0
 10
44.572
 11
44.352
 20
66.416
 21
66.295
  0
LINE
  8
0
 10
44.352
 11
44.118
 20
66.295
 21
66.203
  0
LINE
  8
0
 10
44.118
 11
43.875
 20
66.203
 21
66.14
  0
LINE
  8
0
 10
43.875
 11
43.626
 20
66.14
 21
66.109
  0
LINE
  8
0
 10
43.626
 11
43.374
 20
66.109
 21
66.109
  0
LINE
  8
0
 10
43.374
 11
43.125
 20
66.109
 21
66.14
  0
LINE
  8
0
 10
43.125
 11
42.882
 20
66.14
 21
66.203
  0
LINE
  8
0
 10
42.882
 11
42.648
 20
66.203
 21
66.295
  0
LINE
  8
0
 10
42.648
 11
42.428
 20
66.295
 21
66.416
  0
LINE
  8
0
 10
42.428
 11
42.225
 20
66.416
 21
66.564
  0
LINE
  8
0
 10
42.225
 11
42.042
 20
66.564
 21
66.736
  0
LINE
  8
0
 10
42.042
 11
41.882
 20
66.736
 21
66.929
  0
LINE
  8
0
 10
41.882
 11
41.747
 20
66.929
 21
67.141
  0
LINE
  8
0
 10
41.747
 11
41.64
 20
67.141
 21
67.369
  0
LINE
  8
0
 10
41.64
 11
41.563
 20
67.369
 21
67.608
  0
LINE
  8
0
 10
41.563
 11
41.516
 20
67.608
 21
67.854
  0
LINE
  8
0
 10
41.516
 11
41.5
 20
67.854
 21
68.105
  0
ENDSEC
  0
SECTION
  2
OBJECTS
  0
DICTIONARY
  0
ENDSEC
  0
EOF
