  0
SECTION
  2
BLOCKS
  0
ENDSEC
  0
SECTION
  2
ENTITIES
  0
LINE
  8
0
 10
-37.274
 11
-37.268
 20
-44.325
 21
-44.223
  0
LINE
  8
0
 10
-37.268
 11
-37.248
 20
-44.223
 21
-44.123
  0
LINE
  8
0
 10
-37.248
 11
-37.217
 20
-44.123
 21
-44.025
  0
LINE
  8
0
 10
-37.217
 11
-37.173
 20
-44.025
 21
-43.933
  0
LINE
  8
0
 10
-37.173
 11
-37.119
 20
-43.933
 21
-43.847
  0
LINE
  8
0
 10
-37.119
 11
-37.053
 20
-43.847
 21
-43.768
  0
LINE
  8
0
 10
-37.053
 11
-36.979
 20
-43.768
 21
-43.698
  0
LINE
  8
0
 10
-36.979
 11
-36.896
 20
-43.698
 21
-43.638
  0
LINE
  8
0
 10
-36.896
 11
-36.807
 20
-43.638
 21
-43.588
  0
LINE
  8
0
 10
-36.807
 11
-36.712
 20
-43.588
 21
-43.551
  0
LINE
  8
0
 10
-36.712
 11
-36.613
 20
-43.551
 21
-43.525
  0
LINE
  8
0
 10
-36.613
 11
-36.511
 20
-43.525
 21
-43.513
  0
LINE
  8
0
 10
-36.511
 11
-36.409
 20
-43.513
 21
-43.513
  0
LINE
  8
0
 10
-36.409
 11
-36.307
 20
-43.513
 21
-43.525
  0
LINE
  8
0
 10
-36.307
 11
-36.208
 20
-43.525
 21
-43.551
  0
LINE
  8
0
 10
-36.208
 11
-36.113
 20
-43.551
 21
-43.588
  0
LINE
  8
0
 10
-36.113
 11
-36.024
 20
-43.588
 21
-43.638
  0
LINE
  8
0
 10
-36.024
 11
-35.941
 20
-43.638
 21
-43.698
  0
LINE
  8
0
 10
-35.941
 11
-35.867
 20
-43.698
 21
-43.768
  0
LINE
  8
0
 10
-35.867
 11
-35.801
 20
-43.768
 21
-43.847
  0
LINE
  8
0
 10
-35.801
 11
-35.747
 20
-43.847
 21
-43.933
  0
LINE
  8
0
 10
-35.747
 11
-35.703
 20
-43.933
 21
-44.025
  0
LINE
  8
0
 10
-35.703
 11
-35.672
 20
-44.025
 21
-44.123
  0
LINE
  8
0
 10
-35.672
 11
-35.652
 20
-44.123
 21
-44.223
  0
LINE
  8
0
 10
-35.652
 11
-35.646
 20
-44.223
 21
-44.325
  0
LINE
  8
0
 10
-35.646
 11
-35.652
 20
-44.325
 21
-44.427
  0
LINE
  8
0
 10
-35.652
 11
-35.672
 20
-44.427
 21
-44.527
  0
LINE
  8
0
 10
-35.672
 11
-35.703
 20
-44.527
 21
-44.625
  0
LINE
  8
0
 10
-35.703
 11
-35.747
 20
-44.625
 21
-44.717
  0
LINE
  8
0
 10
-35.747
 11
-35.801
 20
-44.717
 21
-44.803
  0
LINE
  8
0
 10
-35.801
 11
-35.867
 20
-44.803
 21
-44.882
  0
LINE
  8
0
 10
-35.867
 11
-35.941
 20
-44.882
 21
-44.952
  0
LINE
  8
0
 10
-35.941
 11
-36.024
 20
-44.952
 21
-45.012
  0
LINE
  8
0
 10
-36.024
 11
-36.113
 20
-45.012
 21
-45.062
  0
LINE
  8
0
 10
-36.113
 11
-36.208
 20
-45.062
 21
-45.099
  0
LINE
  8
0
 10
-36.208
 11
-36.307
 20
-45.099
 21
-45.125
  0
LINE
  8
0
 10
-36.307
 11
-36.409
 20
-45.125
 21
-45.137
  0
LINE
  8
0
 10
-36.409
 11
-36.511
 20
-45.137
 21
-45.137
  0
LINE
  8
0
 10
-36.511
 11
-36.613
 20
-45.137
 21
-45.125
  0
LINE
  8
0
 10
-36.613
 11
-36.712
 20
-45.125
 21
-45.099
  0
LINE
  8
0
 10
-36.712
 11
-36.807
 20
-45.099
 21
-45.062
  0
LINE
  8
0
 10
-36.807
 11
-36.896
 20
-45.062
 21
-45.012
  0
LINE
  8
0
 10
-36.896
 11
-36.979
 20
-45.012
 21
-44.952
  0
LINE
  8
0
 10
-36.979
 11
-37.053
 20
-44.952
 21
-44.882
  0
LINE
  8
0
 10
-37.053
 11
-37.119
 20
-44.882
 21
-44.803
  0
LINE
  8
0
 10
-37.119
 11
-37.173
 20
-44.803
 21
-44.717
  0
LINE
  8
0
 10
-37.173
 11
-37.217
 20
-44.717
 21
-44.625
  0
LINE
  8
0
 10
-37.217
 11
-37.248
 20
-44.625
 21
-44.527
  0
LINE
  8
0
 10
-37.248
 11
-37.268
 20
-44.527
 21
-44.427
  0
LINE
  8
0
 10
-37.268
 11
-37.274
 20
-44.427
 21
-44.325
  0
LINE
  8
0
 10
-37.274
 11
-37.268
 20
6.35
 21
6.452
  0
LINE
  8
0
 10
-37.268
 11
-37.248
 20
6.452
 21
6.552
  0
LINE
  8
0
 10
-37.248
 11
-37.217
 20
6.552
 21
6.65
  0
LINE
  8
0
 10
-37.217
 11
-37.173
 20
6.65
 21
6.742
  0
LINE
  8
0
 10
-37.173
 11
-37.119
 20
6.742
 21
6.828
  0
LINE
  8
0
 10
-37.119
 11
-37.053
 20
6.828
 21
6.907
  0
LINE
  8
0
 10
-37.053
 11
-36.979
 20
6.907
 21
6.977
  0
LINE
  8
0
 10
-36.979
 11
-36.896
 20
6.977
 21
7.037
  0
LINE
  8
0
 10
-36.896
 11
-36.807
 20
7.037
 21
7.087
  0
LINE
  8
0
 10
-36.807
 11
-36.712
 20
7.087
 21
7.124
  0
LINE
  8
0
 10
-36.712
 11
-36.613
 20
7.124
 21
7.15
  0
LINE
  8
0
 10
-36.613
 11
-36.511
 20
7.15
 21
7.162
  0
LINE
  8
0
 10
-36.511
 11
-36.409
 20
7.162
 21
7.162
  0
LINE
  8
0
 10
-36.409
 11
-36.307
 20
7.162
 21
7.15
  0
LINE
  8
0
 10
-36.307
 11
-36.208
 20
7.15
 21
7.124
  0
LINE
  8
0
 10
-36.208
 11
-36.113
 20
7.124
 21
7.087
  0
LINE
  8
0
 10
-36.113
 11
-36.024
 20
7.087
 21
7.037
  0
LINE
  8
0
 10
-36.024
 11
-35.941
 20
7.037
 21
6.977
  0
LINE
  8
0
 10
-35.941
 11
-35.867
 20
6.977
 21
6.907
  0
LINE
  8
0
 10
-35.867
 11
-35.801
 20
6.907
 21
6.828
  0
LINE
  8
0
 10
-35.801
 11
-35.747
 20
6.828
 21
6.742
  0
LINE
  8
0
 10
-35.747
 11
-35.703
 20
6.742
 21
6.65
  0
LINE
  8
0
 10
-35.703
 11
-35.672
 20
6.65
 21
6.552
  0
LINE
  8
0
 10
-35.672
 11
-35.652
 20
6.552
 21
6.452
  0
LINE
  8
0
 10
-35.652
 11
-35.646
 20
6.452
 21
6.35
  0
LINE
  8
0
 10
-35.646
 11
-35.652
 20
6.35
 21
6.248
  0
LINE
  8
0
 10
-35.652
 11
-35.672
 20
6.248
 21
6.148
  0
LINE
  8
0
 10
-35.672
 11
-35.703
 20
6.148
 21
6.05
  0
LINE
  8
0
 10
-35.703
 11
-35.747
 20
6.05
 21
5.958
  0
LINE
  8
0
 10
-35.747
 11
-35.801
 20
5.958
 21
5.872
  0
LINE
  8
0
 10
-35.801
 11
-35.867
 20
5.872
 21
5.793
  0
LINE
  8
0
 10
-35.867
 11
-35.941
 20
5.793
 21
5.723
  0
LINE
  8
0
 10
-35.941
 11
-36.024
 20
5.723
 21
5.663
  0
LINE
  8
0
 10
-36.024
 11
-36.113
 20
5.663
 21
5.613
  0
LINE
  8
0
 10
-36.113
 11
-36.208
 20
5.613
 21
5.576
  0
LINE
  8
0
 10
-36.208
 11
-36.307
 20
5.576
 21
5.55
  0
LINE
  8
0
 10
-36.307
 11
-36.409
 20
5.55
 21
5.538
  0
LINE
  8
0
 10
-36.409
 11
-36.511
 20
5.538
 21
5.538
  0
LINE
  8
0
 10
-36.511
 11
-36.613
 20
5.538
 21
5.55
  0
LINE
  8
0
 10
-36.613
 11
-36.712
 20
5.55
 21
5.576
  0
LINE
  8
0
 10
-36.712
 11
-36.807
 20
5.576
 21
5.613
  0
LINE
  8
0
 10
-36.807
 11
-36.896
 20
5.613
 21
5.663
  0
LINE
  8
0
 10
-36.896
 11
-36.979
 20
5.663
 21
5.723
  0
LINE
  8
0
 10
-36.979
 11
-37.053
 20
5.723
 21
5.793
  0
LINE
  8
0
 10
-37.053
 11
-37.119
 20
5.793
 21
5.872
  0
LINE
  8
0
 10
-37.119
 11
-37.173
 20
5.872
 21
5.958
  0
LINE
  8
0
 10
-37.173
 11
-37.217
 20
5.958
 21
6.05
  0
LINE
  8
0
 10
-37.217
 11
-37.248
 20
6.05
 21
6.148
  0
LINE
  8
0
 10
-37.248
 11
-37.268
 20
6.148
 21
6.248
  0
LINE
  8
0
 10
-37.268
 11
-37.274
 20
6.248
 21
6.35
  0
LINE
  8
0
 10
-37.274
 11
-37.268
 20
57.15
 21
57.252
  0
LINE
  8
0
 10
-37.268
 11
-37.248
 20
57.252
 21
57.352
  0
LINE
  8
0
 10
-37.248
 11
-37.217
 20
57.352
 21
57.45
  0
LINE
  8
0
 10
-37.217
 11
-37.173
 20
57.45
 21
57.542
  0
LINE
  8
0
 10
-37.173
 11
-37.119
 20
57.542
 21
57.628
  0
LINE
  8
0
 10
-37.119
 11
-37.053
 20
57.628
 21
57.707
  0
LINE
  8
0
 10
-37.053
 11
-36.979
 20
57.707
 21
57.777
  0
LINE
  8
0
 10
-36.979
 11
-36.896
 20
57.777
 21
57.837
  0
LINE
  8
0
 10
-36.896
 11
-36.807
 20
57.837
 21
57.887
  0
LINE
  8
0
 10
-36.807
 11
-36.712
 20
57.887
 21
57.924
  0
LINE
  8
0
 10
-36.712
 11
-36.613
 20
57.924
 21
57.95
  0
LINE
  8
0
 10
-36.613
 11
-36.511
 20
57.95
 21
57.962
  0
LINE
  8
0
 10
-36.511
 11
-36.409
 20
57.962
 21
57.962
  0
LINE
  8
0
 10
-36.409
 11
-36.307
 20
57.962
 21
57.95
  0
LINE
  8
0
 10
-36.307
 11
-36.208
 20
57.95
 21
57.924
  0
LINE
  8
0
 10
-36.208
 11
-36.113
 20
57.924
 21
57.887
  0
LINE
  8
0
 10
-36.113
 11
-36.024
 20
57.887
 21
57.837
  0
LINE
  8
0
 10
-36.024
 11
-35.941
 20
57.837
 21
57.777
  0
LINE
  8
0
 10
-35.941
 11
-35.867
 20
57.777
 21
57.707
  0
LINE
  8
0
 10
-35.867
 11
-35.801
 20
57.707
 21
57.628
  0
LINE
  8
0
 10
-35.801
 11
-35.747
 20
57.628
 21
57.542
  0
LINE
  8
0
 10
-35.747
 11
-35.703
 20
57.542
 21
57.45
  0
LINE
  8
0
 10
-35.703
 11
-35.672
 20
57.45
 21
57.352
  0
LINE
  8
0
 10
-35.672
 11
-35.652
 20
57.352
 21
57.252
  0
LINE
  8
0
 10
-35.652
 11
-35.646
 20
57.252
 21
57.15
  0
LINE
  8
0
 10
-35.646
 11
-35.652
 20
57.15
 21
57.048
  0
LINE
  8
0
 10
-35.652
 11
-35.672
 20
57.048
 21
56.948
  0
LINE
  8
0
 10
-35.672
 11
-35.703
 20
56.948
 21
56.85
  0
LINE
  8
0
 10
-35.703
 11
-35.747
 20
56.85
 21
56.758
  0
LINE
  8
0
 10
-35.747
 11
-35.801
 20
56.758
 21
56.672
  0
LINE
  8
0
 10
-35.801
 11
-35.867
 20
56.672
 21
56.593
  0
LINE
  8
0
 10
-35.867
 11
-35.941
 20
56.593
 21
56.523
  0
LINE
  8
0
 10
-35.941
 11
-36.024
 20
56.523
 21
56.463
  0
LINE
  8
0
 10
-36.024
 11
-36.113
 20
56.463
 21
56.413
  0
LINE
  8
0
 10
-36.113
 11
-36.208
 20
56.413
 21
56.376
  0
LINE
  8
0
 10
-36.208
 11
-36.307
 20
56.376
 21
56.35
  0
LINE
  8
0
 10
-36.307
 11
-36.409
 20
56.35
 21
56.338
  0
LINE
  8
0
 10
-36.409
 11
-36.511
 20
56.338
 21
56.338
  0
LINE
  8
0
 10
-36.511
 11
-36.613
 20
56.338
 21
56.35
  0
LINE
  8
0
 10
-36.613
 11
-36.712
 20
56.35
 21
56.376
  0
LINE
  8
0
 10
-36.712
 11
-36.807
 20
56.376
 21
56.413
  0
LINE
  8
0
 10
-36.807
 11
-36.896
 20
56.413
 21
56.463
  0
LINE
  8
0
 10
-36.896
 11
-36.979
 20
56.463
 21
56.523
  0
LINE
  8
0
 10
-36.979
 11
-37.053
 20
56.523
 21
56.593
  0
LINE
  8
0
 10
-37.053
 11
-37.119
 20
56.593
 21
56.672
  0
LINE
  8
0
 10
-37.119
 11
-37.173
 20
56.672
 21
56.758
  0
LINE
  8
0
 10
-37.173
 11
-37.217
 20
56.758
 21
56.85
  0
LINE
  8
0
 10
-37.217
 11
-37.248
 20
56.85
 21
56.948
  0
LINE
  8
0
 10
-37.248
 11
-37.268
 20
56.948
 21
57.048
  0
LINE
  8
0
 10
-37.268
 11
-37.274
 20
57.048
 21
57.15
  0
LINE
  8
0
 10
-34.05
 11
-34.05
 20
-22.391
 21
-15.391
  0
LINE
  8
0
 10
-34.05
 11
-30.7
 20
-15.391
 21
-15.391
  0
LINE
  8
0
 10
-30.7
 11
-30.7
 20
-15.391
 21
-22.391
  0
LINE
  8
0
 10
-30.7
 11
-34.05
 20
-22.391
 21
-22.391
  0
LINE
  8
0
 10
-34.05
 11
-34.05
 20
53.173
 21
60.173
  0
LINE
  8
0
 10
-34.05
 11
-30.7
 20
60.173
 21
60.173
  0
LINE
  8
0
 10
-30.7
 11
-30.7
 20
60.173
 21
53.173
  0
LINE
  8
0
 10
-30.7
 11
-34.05
 20
53.173
 21
53.173
  0
LINE
  8
0
 10
-30.665
 11
-30.665
 20
-38.35
 21
-25.4
  0
LINE
  8
0
 10
-30.665
 11
30.665
 20
-25.4
 21
-25.4
  0
LINE
  8
0
 10
30.665
 11
30.665
 20
-25.4
 21
-38.35
  0
LINE
  8
0
 10
30.665
 11
-30.665
 20
-38.35
 21
-38.35
  0
LINE
  8
0
 10
-30.665
 11
-30.665
 20
-12.95
 21
0
  0
LINE
  8
0
 10
-30.665
 11
30.665
 20
0
 21
0
  0
LINE
  8
0
 10
30.665
 11
30.665
 20
0
 21
-12.95
  0
LINE
  8
0
 10
30.665
 11
-30.665
 20
-12.95
 21
-12.95
  0
LINE
  8
0
 10
-30.665
 11
-30.665
 20
12.45
 21
25.4
  0
LINE
  8
0
 10
-30.665
 11
30.665
 20
25.4
 21
25.4
  0
LINE
  8
0
 10
30.665
 11
30.665
 20
25.4
 21
12.45
  0
LINE
  8
0
 10
30.665
 11
-30.665
 20
12.45
 21
12.45
  0
LINE
  8
0
 10
-50.35
 11
-50.35
 20
-123.2
 21
-79.9
  0
LINE
  8
0
 10
-50.35
 11
-29.8
 20
-79.9
 21
-79.9
  0
LINE
  8
0
 10
-29.8
 11
-29.8
 20
-79.9
 21
-71.9
  0
LINE
  8
0
 10
-29.8
 11
-38.433
 20
-71.9
 21
-71.9
  0
LINE
  8
0
 10
-38.433
 11
-38.433
 20
-71.9
 21
-69.3
  0
LINE
  8
0
 10
-38.433
 11
-50.35
 20
-69.3
 21
-69.3
  0
LINE
  8
0
 10
-50.35
 11
-50.35
 20
-69.3
 21
123.2
  0
LINE
  8
0
 10
-50.35
 11
-50.338
 20
123.2
 21
123.388
  0
LINE
  8
0
 10
-50.338
 11
-50.303
 20
123.388
 21
123.573
  0
LINE
  8
0
 10
-50.303
 11
-50.245
 20
123.573
 21
123.752
  0
LINE
  8
0
 10
-50.245
 11
-50.164
 20
123.752
 21
123.923
  0
LINE
  8
0
 10
-50.164
 11
-50.064
 20
123.923
 21
124.082
  0
LINE
  8
0
 10
-50.064
 11
-49.943
 20
124.082
 21
124.227
  0
LINE
  8
0
 10
-49.943
 11
-49.806
 20
124.227
 21
124.356
  0
LINE
  8
0
 10
-49.806
 11
-49.654
 20
124.356
 21
124.466
  0
LINE
  8
0
 10
-49.654
 11
-49.489
 20
124.466
 21
124.557
  0
LINE
  8
0
 10
-49.489
 11
-49.314
 20
124.557
 21
124.627
  0
LINE
  8
0
 10
-49.314
 11
-49.131
 20
124.627
 21
124.673
  0
LINE
  8
0
 10
-49.131
 11
-48.944
 20
124.673
 21
124.697
  0
LINE
  8
0
 10
-48.944
 11
-48.85
 20
124.697
 21
124.697
  0
LINE
  8
0
 10
-48.85
 11
-48.85
 20
124.697
 21
124.7
  0
LINE
  8
0
 10
-48.85
 11
48.85
 20
124.7
 21
124.7
  0
LINE
  8
0
 10
48.85
 11
48.85
 20
124.7
 21
124.697
  0
LINE
  8
0
 10
48.85
 11
48.944
 20
124.697
 21
124.697
  0
LINE
  8
0
 10
48.944
 11
49.131
 20
124.697
 21
124.673
  0
LINE
  8
0
 10
49.131
 11
49.314
 20
124.673
 21
124.627
  0
LINE
  8
0
 10
49.314
 11
49.489
 20
124.627
 21
124.557
  0
LINE
  8
0
 10
49.489
 11
49.654
 20
124.557
 21
124.466
  0
LINE
  8
0
 10
49.654
 11
49.806
 20
124.466
 21
124.356
  0
LINE
  8
0
 10
49.806
 11
49.943
 20
124.356
 21
124.227
  0
LINE
  8
0
 10
49.943
 11
50.064
 20
124.227
 21
124.082
  0
LINE
  8
0
 10
50.064
 11
50.164
 20
124.082
 21
123.923
  0
LINE
  8
0
 10
50.164
 11
50.245
 20
123.923
 21
123.752
  0
LINE
  8
0
 10
50.245
 11
50.303
 20
123.752
 21
123.573
  0
LINE
  8
0
 10
50.303
 11
50.338
 20
123.573
 21
123.388
  0
LINE
  8
0
 10
50.338
 11
50.35
 20
123.388
 21
123.2
  0
LINE
  8
0
 10
50.35
 11
50.35
 20
123.2
 21
-123.2
  0
LINE
  8
0
 10
50.35
 11
50.338
 20
-123.2
 21
-123.388
  0
LINE
  8
0
 10
50.338
 11
50.303
 20
-123.388
 21
-123.573
  0
LINE
  8
0
 10
50.303
 11
50.245
 20
-123.573
 21
-123.752
  0
LINE
  8
0
 10
50.245
 11
50.164
 20
-123.752
 21
-123.923
  0
LINE
  8
0
 10
50.164
 11
50.064
 20
-123.923
 21
-124.082
  0
LINE
  8
0
 10
50.064
 11
49.943
 20
-124.082
 21
-124.227
  0
LINE
  8
0
 10
49.943
 11
49.806
 20
-124.227
 21
-124.356
  0
LINE
  8
0
 10
49.806
 11
49.654
 20
-124.356
 21
-124.466
  0
LINE
  8
0
 10
49.654
 11
49.489
 20
-124.466
 21
-124.557
  0
LINE
  8
0
 10
49.489
 11
49.314
 20
-124.557
 21
-124.627
  0
LINE
  8
0
 10
49.314
 11
49.131
 20
-124.627
 21
-124.673
  0
LINE
  8
0
 10
49.131
 11
48.944
 20
-124.673
 21
-124.697
  0
LINE
  8
0
 10
48.944
 11
48.85
 20
-124.697
 21
-124.697
  0
LINE
  8
0
 10
48.85
 11
48.85
 20
-124.697
 21
-124.7
  0
LINE
  8
0
 10
48.85
 11
-48.85
 20
-124.7
 21
-124.7
  0
LINE
  8
0
 10
-48.85
 11
-48.85
 20
-124.7
 21
-124.697
  0
LINE
  8
0
 10
-48.85
 11
-48.944
 20
-124.697
 21
-124.697
  0
LINE
  8
0
 10
-48.944
 11
-49.131
 20
-124.697
 21
-124.673
  0
LINE
  8
0
 10
-49.131
 11
-49.314
 20
-124.673
 21
-124.627
  0
LINE
  8
0
 10
-49.314
 11
-49.489
 20
-124.627
 21
-124.557
  0
LINE
  8
0
 10
-49.489
 11
-49.654
 20
-124.557
 21
-124.466
  0
LINE
  8
0
 10
-49.654
 11
-49.806
 20
-124.466
 21
-124.356
  0
LINE
  8
0
 10
-49.806
 11
-49.943
 20
-124.356
 21
-124.227
  0
LINE
  8
0
 10
-49.943
 11
-50.064
 20
-124.227
 21
-124.082
  0
LINE
  8
0
 10
-50.064
 11
-50.164
 20
-124.082
 21
-123.923
  0
LINE
  8
0
 10
-50.164
 11
-50.245
 20
-123.923
 21
-123.752
  0
LINE
  8
0
 10
-50.245
 11
-50.303
 20
-123.752
 21
-123.573
  0
LINE
  8
0
 10
-50.303
 11
-50.338
 20
-123.573
 21
-123.388
  0
LINE
  8
0
 10
-50.338
 11
-50.35
 20
-123.388
 21
-123.2
  0
LINE
  8
0
 10
-30.665
 11
-30.665
 20
37.85
 21
50.8
  0
LINE
  8
0
 10
-30.665
 11
30.665
 20
50.8
 21
50.8
  0
LINE
  8
0
 10
30.665
 11
30.665
 20
50.8
 21
37.85
  0
LINE
  8
0
 10
30.665
 11
-30.665
 20
37.85
 21
37.85
  0
LINE
  8
0
 10
-30.665
 11
-30.665
 20
63.25
 21
76.2
  0
LINE
  8
0
 10
-30.665
 11
30.665
 20
76.2
 21
76.2
  0
LINE
  8
0
 10
30.665
 11
30.665
 20
76.2
 21
63.25
  0
LINE
  8
0
 10
30.665
 11
-30.665
 20
63.25
 21
63.25
  0
LINE
  8
0
 10
-30.5
 11
-30.5
 20
-66.425
 21
-47.375
  0
LINE
  8
0
 10
-30.5
 11
24.11
 20
-47.375
 21
-47.375
  0
LINE
  8
0
 10
24.11
 11
24.11
 20
-47.375
 21
-66.425
  0
LINE
  8
0
 10
24.11
 11
-30.5
 20
-66.425
 21
-66.425
  0
LINE
  8
0
 10
-28.874
 11
-28.868
 20
-43.255
 21
-43.153
  0
LINE
  8
0
 10
-28.868
 11
-28.848
 20
-43.153
 21
-43.053
  0
LINE
  8
0
 10
-28.848
 11
-28.817
 20
-43.053
 21
-42.955
  0
LINE
  8
0
 10
-28.817
 11
-28.773
 20
-42.955
 21
-42.863
  0
LINE
  8
0
 10
-28.773
 11
-28.719
 20
-42.863
 21
-42.777
  0
LINE
  8
0
 10
-28.719
 11
-28.653
 20
-42.777
 21
-42.698
  0
LINE
  8
0
 10
-28.653
 11
-28.579
 20
-42.698
 21
-42.628
  0
LINE
  8
0
 10
-28.579
 11
-28.496
 20
-42.628
 21
-42.568
  0
LINE
  8
0
 10
-28.496
 11
-28.407
 20
-42.568
 21
-42.518
  0
LINE
  8
0
 10
-28.407
 11
-28.312
 20
-42.518
 21
-42.481
  0
LINE
  8
0
 10
-28.312
 11
-28.213
 20
-42.481
 21
-42.455
  0
LINE
  8
0
 10
-28.213
 11
-28.111
 20
-42.455
 21
-42.443
  0
LINE
  8
0
 10
-28.111
 11
-28.009
 20
-42.443
 21
-42.443
  0
LINE
  8
0
 10
-28.009
 11
-27.907
 20
-42.443
 21
-42.455
  0
LINE
  8
0
 10
-27.907
 11
-27.808
 20
-42.455
 21
-42.481
  0
LINE
  8
0
 10
-27.808
 11
-27.713
 20
-42.481
 21
-42.518
  0
LINE
  8
0
 10
-27.713
 11
-27.624
 20
-42.518
 21
-42.568
  0
LINE
  8
0
 10
-27.624
 11
-27.541
 20
-42.568
 21
-42.628
  0
LINE
  8
0
 10
-27.541
 11
-27.467
 20
-42.628
 21
-42.698
  0
LINE
  8
0
 10
-27.467
 11
-27.401
 20
-42.698
 21
-42.777
  0
LINE
  8
0
 10
-27.401
 11
-27.347
 20
-42.777
 21
-42.863
  0
LINE
  8
0
 10
-27.347
 11
-27.303
 20
-42.863
 21
-42.955
  0
LINE
  8
0
 10
-27.303
 11
-27.272
 20
-42.955
 21
-43.053
  0
LINE
  8
0
 10
-27.272
 11
-27.252
 20
-43.053
 21
-43.153
  0
LINE
  8
0
 10
-27.252
 11
-27.246
 20
-43.153
 21
-43.255
  0
LINE
  8
0
 10
-27.246
 11
-27.252
 20
-43.255
 21
-43.357
  0
LINE
  8
0
 10
-27.252
 11
-27.272
 20
-43.357
 21
-43.457
  0
LINE
  8
0
 10
-27.272
 11
-27.303
 20
-43.457
 21
-43.555
  0
LINE
  8
0
 10
-27.303
 11
-27.347
 20
-43.555
 21
-43.647
  0
LINE
  8
0
 10
-27.347
 11
-27.401
 20
-43.647
 21
-43.733
  0
LINE
  8
0
 10
-27.401
 11
-27.467
 20
-43.733
 21
-43.812
  0
LINE
  8
0
 10
-27.467
 11
-27.541
 20
-43.812
 21
-43.882
  0
LINE
  8
0
 10
-27.541
 11
-27.624
 20
-43.882
 21
-43.942
  0
LINE
  8
0
 10
-27.624
 11
-27.713
 20
-43.942
 21
-43.992
  0
LINE
  8
0
 10
-27.713
 11
-27.808
 20
-43.992
 21
-44.029
  0
LINE
  8
0
 10
-27.808
 11
-27.907
 20
-44.029
 21
-44.055
  0
LINE
  8
0
 10
-27.907
 11
-28.009
 20
-44.055
 21
-44.067
  0
LINE
  8
0
 10
-28.009
 11
-28.111
 20
-44.067
 21
-44.067
  0
LINE
  8
0
 10
-28.111
 11
-28.213
 20
-44.067
 21
-44.055
  0
LINE
  8
0
 10
-28.213
 11
-28.312
 20
-44.055
 21
-44.029
  0
LINE
  8
0
 10
-28.312
 11
-28.407
 20
-44.029
 21
-43.992
  0
LINE
  8
0
 10
-28.407
 11
-28.496
 20
-43.992
 21
-43.942
  0
LINE
  8
0
 10
-28.496
 11
-28.579
 20
-43.942
 21
-43.882
  0
LINE
  8
0
 10
-28.579
 11
-28.653
 20
-43.882
 21
-43.812
  0
LINE
  8
0
 10
-28.653
 11
-28.719
 20
-43.812
 21
-43.733
  0
LINE
  8
0
 10
-28.719
 11
-28.773
 20
-43.733
 21
-43.647
  0
LINE
  8
0
 10
-28.773
 11
-28.817
 20
-43.647
 21
-43.555
  0
LINE
  8
0
 10
-28.817
 11
-28.848
 20
-43.555
 21
-43.457
  0
LINE
  8
0
 10
-28.848
 11
-28.868
 20
-43.457
 21
-43.357
  0
LINE
  8
0
 10
-28.868
 11
-28.874
 20
-43.357
 21
-43.255
  0
LINE
  8
0
 10
-28.874
 11
-28.868
 20
-23.035
 21
-22.933
  0
LINE
  8
0
 10
-28.868
 11
-28.848
 20
-22.933
 21
-22.833
  0
LINE
  8
0
 10
-28.848
 11
-28.817
 20
-22.833
 21
-22.735
  0
LINE
  8
0
 10
-28.817
 11
-28.773
 20
-22.735
 21
-22.643
  0
LINE
  8
0
 10
-28.773
 11
-28.719
 20
-22.643
 21
-22.557
  0
LINE
  8
0
 10
-28.719
 11
-28.653
 20
-22.557
 21
-22.478
  0
LINE
  8
0
 10
-28.653
 11
-28.579
 20
-22.478
 21
-22.408
  0
LINE
  8
0
 10
-28.579
 11
-28.496
 20
-22.408
 21
-22.348
  0
LINE
  8
0
 10
-28.496
 11
-28.407
 20
-22.348
 21
-22.298
  0
LINE
  8
0
 10
-28.407
 11
-28.312
 20
-22.298
 21
-22.261
  0
LINE
  8
0
 10
-28.312
 11
-28.213
 20
-22.261
 21
-22.235
  0
LINE
  8
0
 10
-28.213
 11
-28.111
 20
-22.235
 21
-22.223
  0
LINE
  8
0
 10
-28.111
 11
-28.009
 20
-22.223
 21
-22.223
  0
LINE
  8
0
 10
-28.009
 11
-27.907
 20
-22.223
 21
-22.235
  0
LINE
  8
0
 10
-27.907
 11
-27.808
 20
-22.235
 21
-22.261
  0
LINE
  8
0
 10
-27.808
 11
-27.713
 20
-22.261
 21
-22.298
  0
LINE
  8
0
 10
-27.713
 11
-27.624
 20
-22.298
 21
-22.348
  0
LINE
  8
0
 10
-27.624
 11
-27.541
 20
-22.348
 21
-22.408
  0
LINE
  8
0
 10
-27.541
 11
-27.467
 20
-22.408
 21
-22.478
  0
LINE
  8
0
 10
-27.467
 11
-27.401
 20
-22.478
 21
-22.557
  0
LINE
  8
0
 10
-27.401
 11
-27.347
 20
-22.557
 21
-22.643
  0
LINE
  8
0
 10
-27.347
 11
-27.303
 20
-22.643
 21
-22.735
  0
LINE
  8
0
 10
-27.303
 11
-27.272
 20
-22.735
 21
-22.833
  0
LINE
  8
0
 10
-27.272
 11
-27.252
 20
-22.833
 21
-22.933
  0
LINE
  8
0
 10
-27.252
 11
-27.246
 20
-22.933
 21
-23.035
  0
LINE
  8
0
 10
-27.246
 11
-27.252
 20
-23.035
 21
-23.137
  0
LINE
  8
0
 10
-27.252
 11
-27.272
 20
-23.137
 21
-23.237
  0
LINE
  8
0
 10
-27.272
 11
-27.303
 20
-23.237
 21
-23.335
  0
LINE
  8
0
 10
-27.303
 11
-27.347
 20
-23.335
 21
-23.427
  0
LINE
  8
0
 10
-27.347
 11
-27.401
 20
-23.427
 21
-23.513
  0
LINE
  8
0
 10
-27.401
 11
-27.467
 20
-23.513
 21
-23.592
  0
LINE
  8
0
 10
-27.467
 11
-27.541
 20
-23.592
 21
-23.662
  0
LINE
  8
0
 10
-27.541
 11
-27.624
 20
-23.662
 21
-23.722
  0
LINE
  8
0
 10
-27.624
 11
-27.713
 20
-23.722
 21
-23.772
  0
LINE
  8
0
 10
-27.713
 11
-27.808
 20
-23.772
 21
-23.809
  0
LINE
  8
0
 10
-27.808
 11
-27.907
 20
-23.809
 21
-23.835
  0
LINE
  8
0
 10
-27.907
 11
-28.009
 20
-23.835
 21
-23.847
  0
LINE
  8
0
 10
-28.009
 11
-28.111
 20
-23.847
 21
-23.847
  0
LINE
  8
0
 10
-28.111
 11
-28.213
 20
-23.847
 21
-23.835
  0
LINE
  8
0
 10
-28.213
 11
-28.312
 20
-23.835
 21
-23.809
  0
LINE
  8
0
 10
-28.312
 11
-28.407
 20
-23.809
 21
-23.772
  0
LINE
  8
0
 10
-28.407
 11
-28.496
 20
-23.772
 21
-23.722
  0
LINE
  8
0
 10
-28.496
 11
-28.579
 20
-23.722
 21
-23.662
  0
LINE
  8
0
 10
-28.579
 11
-28.653
 20
-23.662
 21
-23.592
  0
LINE
  8
0
 10
-28.653
 11
-28.719
 20
-23.592
 21
-23.513
  0
LINE
  8
0
 10
-28.719
 11
-28.773
 20
-23.513
 21
-23.427
  0
LINE
  8
0
 10
-28.773
 11
-28.817
 20
-23.427
 21
-23.335
  0
LINE
  8
0
 10
-28.817
 11
-28.848
 20
-23.335
 21
-23.237
  0
LINE
  8
0
 10
-28.848
 11
-28.868
 20
-23.237
 21
-23.137
  0
LINE
  8
0
 10
-28.868
 11
-28.874
 20
-23.137
 21
-23.035
  0
LINE
  8
0
 10
-28.874
 11
-28.868
 20
-17.855
 21
-17.753
  0
LINE
  8
0
 10
-28.868
 11
-28.848
 20
-17.753
 21
-17.653
  0
LINE
  8
0
 10
-28.848
 11
-28.817
 20
-17.653
 21
-17.555
  0
LINE
  8
0
 10
-28.817
 11
-28.773
 20
-17.555
 21
-17.463
  0
LINE
  8
0
 10
-28.773
 11
-28.719
 20
-17.463
 21
-17.377
  0
LINE
  8
0
 10
-28.719
 11
-28.653
 20
-17.377
 21
-17.298
  0
LINE
  8
0
 10
-28.653
 11
-28.579
 20
-17.298
 21
-17.228
  0
LINE
  8
0
 10
-28.579
 11
-28.496
 20
-17.228
 21
-17.168
  0
LINE
  8
0
 10
-28.496
 11
-28.407
 20
-17.168
 21
-17.118
  0
LINE
  8
0
 10
-28.407
 11
-28.312
 20
-17.118
 21
-17.081
  0
LINE
  8
0
 10
-28.312
 11
-28.213
 20
-17.081
 21
-17.055
  0
LINE
  8
0
 10
-28.213
 11
-28.111
 20
-17.055
 21
-17.043
  0
LINE
  8
0
 10
-28.111
 11
-28.009
 20
-17.043
 21
-17.043
  0
LINE
  8
0
 10
-28.009
 11
-27.907
 20
-17.043
 21
-17.055
  0
LINE
  8
0
 10
-27.907
 11
-27.808
 20
-17.055
 21
-17.081
  0
LINE
  8
0
 10
-27.808
 11
-27.713
 20
-17.081
 21
-17.118
  0
LINE
  8
0
 10
-27.713
 11
-27.624
 20
-17.118
 21
-17.168
  0
LINE
  8
0
 10
-27.624
 11
-27.541
 20
-17.168
 21
-17.228
  0
LINE
  8
0
 10
-27.541
 11
-27.467
 20
-17.228
 21
-17.298
  0
LINE
  8
0
 10
-27.467
 11
-27.401
 20
-17.298
 21
-17.377
  0
LINE
  8
0
 10
-27.401
 11
-27.347
 20
-17.377
 21
-17.463
  0
LINE
  8
0
 10
-27.347
 11
-27.303
 20
-17.463
 21
-17.555
  0
LINE
  8
0
 10
-27.303
 11
-27.272
 20
-17.555
 21
-17.653
  0
LINE
  8
0
 10
-27.272
 11
-27.252
 20
-17.653
 21
-17.753
  0
LINE
  8
0
 10
-27.252
 11
-27.246
 20
-17.753
 21
-17.855
  0
LINE
  8
0
 10
-27.246
 11
-27.252
 20
-17.855
 21
-17.957
  0
LINE
  8
0
 10
-27.252
 11
-27.272
 20
-17.957
 21
-18.057
  0
LINE
  8
0
 10
-27.272
 11
-27.303
 20
-18.057
 21
-18.155
  0
LINE
  8
0
 10
-27.303
 11
-27.347
 20
-18.155
 21
-18.247
  0
LINE
  8
0
 10
-27.347
 11
-27.401
 20
-18.247
 21
-18.333
  0
LINE
  8
0
 10
-27.401
 11
-27.467
 20
-18.333
 21
-18.412
  0
LINE
  8
0
 10
-27.467
 11
-27.541
 20
-18.412
 21
-18.482
  0
LINE
  8
0
 10
-27.541
 11
-27.624
 20
-18.482
 21
-18.542
  0
LINE
  8
0
 10
-27.624
 11
-27.713
 20
-18.542
 21
-18.592
  0
LINE
  8
0
 10
-27.713
 11
-27.808
 20
-18.592
 21
-18.629
  0
LINE
  8
0
 10
-27.808
 11
-27.907
 20
-18.629
 21
-18.655
  0
LINE
  8
0
 10
-27.907
 11
-28.009
 20
-18.655
 21
-18.667
  0
LINE
  8
0
 10
-28.009
 11
-28.111
 20
-18.667
 21
-18.667
  0
LINE
  8
0
 10
-28.111
 11
-28.213
 20
-18.667
 21
-18.655
  0
LINE
  8
0
 10
-28.213
 11
-28.312
 20
-18.655
 21
-18.629
  0
LINE
  8
0
 10
-28.312
 11
-28.407
 20
-18.629
 21
-18.592
  0
LINE
  8
0
 10
-28.407
 11
-28.496
 20
-18.592
 21
-18.542
  0
LINE
  8
0
 10
-28.496
 11
-28.579
 20
-18.542
 21
-18.482
  0
LINE
  8
0
 10
-28.579
 11
-28.653
 20
-18.482
 21
-18.412
  0
LINE
  8
0
 10
-28.653
 11
-28.719
 20
-18.412
 21
-18.333
  0
LINE
  8
0
 10
-28.719
 11
-28.773
 20
-18.333
 21
-18.247
  0
LINE
  8
0
 10
-28.773
 11
-28.817
 20
-18.247
 21
-18.155
  0
LINE
  8
0
 10
-28.817
 11
-28.848
 20
-18.155
 21
-18.057
  0
LINE
  8
0
 10
-28.848
 11
-28.868
 20
-18.057
 21
-17.957
  0
LINE
  8
0
 10
-28.868
 11
-28.874
 20
-17.957
 21
-17.855
  0
LINE
  8
0
 10
-28.874
 11
-28.868
 20
2.365
 21
2.467
  0
LINE
  8
0
 10
-28.868
 11
-28.848
 20
2.467
 21
2.567
  0
LINE
  8
0
 10
-28.848
 11
-28.817
 20
2.567
 21
2.665
  0
LINE
  8
0
 10
-28.817
 11
-28.773
 20
2.665
 21
2.757
  0
LINE
  8
0
 10
-28.773
 11
-28.719
 20
2.757
 21
2.843
  0
LINE
  8
0
 10
-28.719
 11
-28.653
 20
2.843
 21
2.922
  0
LINE
  8
0
 10
-28.653
 11
-28.579
 20
2.922
 21
2.992
  0
LINE
  8
0
 10
-28.579
 11
-28.496
 20
2.992
 21
3.052
  0
LINE
  8
0
 10
-28.496
 11
-28.407
 20
3.052
 21
3.102
  0
LINE
  8
0
 10
-28.407
 11
-28.312
 20
3.102
 21
3.139
  0
LINE
  8
0
 10
-28.312
 11
-28.213
 20
3.139
 21
3.165
  0
LINE
  8
0
 10
-28.213
 11
-28.111
 20
3.165
 21
3.177
  0
LINE
  8
0
 10
-28.111
 11
-28.009
 20
3.177
 21
3.177
  0
LINE
  8
0
 10
-28.009
 11
-27.907
 20
3.177
 21
3.165
  0
LINE
  8
0
 10
-27.907
 11
-27.808
 20
3.165
 21
3.139
  0
LINE
  8
0
 10
-27.808
 11
-27.713
 20
3.139
 21
3.102
  0
LINE
  8
0
 10
-27.713
 11
-27.624
 20
3.102
 21
3.052
  0
LINE
  8
0
 10
-27.624
 11
-27.541
 20
3.052
 21
2.992
  0
LINE
  8
0
 10
-27.541
 11
-27.467
 20
2.992
 21
2.922
  0
LINE
  8
0
 10
-27.467
 11
-27.401
 20
2.922
 21
2.843
  0
LINE
  8
0
 10
-27.401
 11
-27.347
 20
2.843
 21
2.757
  0
LINE
  8
0
 10
-27.347
 11
-27.303
 20
2.757
 21
2.665
  0
LINE
  8
0
 10
-27.303
 11
-27.272
 20
2.665
 21
2.567
  0
LINE
  8
0
 10
-27.272
 11
-27.252
 20
2.567
 21
2.467
  0
LINE
  8
0
 10
-27.252
 11
-27.246
 20
2.467
 21
2.365
  0
LINE
  8
0
 10
-27.246
 11
-27.252
 20
2.365
 21
2.263
  0
LINE
  8
0
 10
-27.252
 11
-27.272
 20
2.263
 21
2.163
  0
LINE
  8
0
 10
-27.272
 11
-27.303
 20
2.163
 21
2.065
  0
LINE
  8
0
 10
-27.303
 11
-27.347
 20
2.065
 21
1.973
  0
LINE
  8
0
 10
-27.347
 11
-27.401
 20
1.973
 21
1.887
  0
LINE
  8
0
 10
-27.401
 11
-27.467
 20
1.887
 21
1.808
  0
LINE
  8
0
 10
-27.467
 11
-27.541
 20
1.808
 21
1.738
  0
LINE
  8
0
 10
-27.541
 11
-27.624
 20
1.738
 21
1.678
  0
LINE
  8
0
 10
-27.624
 11
-27.713
 20
1.678
 21
1.628
  0
LINE
  8
0
 10
-27.713
 11
-27.808
 20
1.628
 21
1.591
  0
LINE
  8
0
 10
-27.808
 11
-27.907
 20
1.591
 21
1.565
  0
LINE
  8
0
 10
-27.907
 11
-28.009
 20
1.565
 21
1.553
  0
LINE
  8
0
 10
-28.009
 11
-28.111
 20
1.553
 21
1.553
  0
LINE
  8
0
 10
-28.111
 11
-28.213
 20
1.553
 21
1.565
  0
LINE
  8
0
 10
-28.213
 11
-28.312
 20
1.565
 21
1.591
  0
LINE
  8
0
 10
-28.312
 11
-28.407
 20
1.591
 21
1.628
  0
LINE
  8
0
 10
-28.407
 11
-28.496
 20
1.628
 21
1.678
  0
LINE
  8
0
 10
-28.496
 11
-28.579
 20
1.678
 21
1.738
  0
LINE
  8
0
 10
-28.579
 11
-28.653
 20
1.738
 21
1.808
  0
LINE
  8
0
 10
-28.653
 11
-28.719
 20
1.808
 21
1.887
  0
LINE
  8
0
 10
-28.719
 11
-28.773
 20
1.887
 21
1.973
  0
LINE
  8
0
 10
-28.773
 11
-28.817
 20
1.973
 21
2.065
  0
LINE
  8
0
 10
-28.817
 11
-28.848
 20
2.065
 21
2.163
  0
LINE
  8
0
 10
-28.848
 11
-28.868
 20
2.163
 21
2.263
  0
LINE
  8
0
 10
-28.868
 11
-28.874
 20
2.263
 21
2.365
  0
LINE
  8
0
 10
-28.874
 11
-28.868
 20
7.545
 21
7.647
  0
LINE
  8
0
 10
-28.868
 11
-28.848
 20
7.647
 21
7.747
  0
LINE
  8
0
 10
-28.848
 11
-28.817
 20
7.747
 21
7.845
  0
LINE
  8
0
 10
-28.817
 11
-28.773
 20
7.845
 21
7.937
  0
LINE
  8
0
 10
-28.773
 11
-28.719
 20
7.937
 21
8.023
  0
LINE
  8
0
 10
-28.719
 11
-28.653
 20
8.023
 21
8.102
  0
LINE
  8
0
 10
-28.653
 11
-28.579
 20
8.102
 21
8.172
  0
LINE
  8
0
 10
-28.579
 11
-28.496
 20
8.172
 21
8.232
  0
LINE
  8
0
 10
-28.496
 11
-28.407
 20
8.232
 21
8.282
  0
LINE
  8
0
 10
-28.407
 11
-28.312
 20
8.282
 21
8.319
  0
LINE
  8
0
 10
-28.312
 11
-28.213
 20
8.319
 21
8.345
  0
LINE
  8
0
 10
-28.213
 11
-28.111
 20
8.345
 21
8.357
  0
LINE
  8
0
 10
-28.111
 11
-28.009
 20
8.357
 21
8.357
  0
LINE
  8
0
 10
-28.009
 11
-27.907
 20
8.357
 21
8.345
  0
LINE
  8
0
 10
-27.907
 11
-27.808
 20
8.345
 21
8.319
  0
LINE
  8
0
 10
-27.808
 11
-27.713
 20
8.319
 21
8.282
  0
LINE
  8
0
 10
-27.713
 11
-27.624
 20
8.282
 21
8.232
  0
LINE
  8
0
 10
-27.624
 11
-27.541
 20
8.232
 21
8.172
  0
LINE
  8
0
 10
-27.541
 11
-27.467
 20
8.172
 21
8.102
  0
LINE
  8
0
 10
-27.467
 11
-27.401
 20
8.102
 21
8.023
  0
LINE
  8
0
 10
-27.401
 11
-27.347
 20
8.023
 21
7.937
  0
LINE
  8
0
 10
-27.347
 11
-27.303
 20
7.937
 21
7.845
  0
LINE
  8
0
 10
-27.303
 11
-27.272
 20
7.845
 21
7.747
  0
LINE
  8
0
 10
-27.272
 11
-27.252
 20
7.747
 21
7.647
  0
LINE
  8
0
 10
-27.252
 11
-27.246
 20
7.647
 21
7.545
  0
LINE
  8
0
 10
-27.246
 11
-27.252
 20
7.545
 21
7.443
  0
LINE
  8
0
 10
-27.252
 11
-27.272
 20
7.443
 21
7.343
  0
LINE
  8
0
 10
-27.272
 11
-27.303
 20
7.343
 21
7.245
  0
LINE
  8
0
 10
-27.303
 11
-27.347
 20
7.245
 21
7.153
  0
LINE
  8
0
 10
-27.347
 11
-27.401
 20
7.153
 21
7.067
  0
LINE
  8
0
 10
-27.401
 11
-27.467
 20
7.067
 21
6.988
  0
LINE
  8
0
 10
-27.467
 11
-27.541
 20
6.988
 21
6.918
  0
LINE
  8
0
 10
-27.541
 11
-27.624
 20
6.918
 21
6.858
  0
LINE
  8
0
 10
-27.624
 11
-27.713
 20
6.858
 21
6.808
  0
LINE
  8
0
 10
-27.713
 11
-27.808
 20
6.808
 21
6.771
  0
LINE
  8
0
 10
-27.808
 11
-27.907
 20
6.771
 21
6.745
  0
LINE
  8
0
 10
-27.907
 11
-28.009
 20
6.745
 21
6.733
  0
LINE
  8
0
 10
-28.009
 11
-28.111
 20
6.733
 21
6.733
  0
LINE
  8
0
 10
-28.111
 11
-28.213
 20
6.733
 21
6.745
  0
LINE
  8
0
 10
-28.213
 11
-28.312
 20
6.745
 21
6.771
  0
LINE
  8
0
 10
-28.312
 11
-28.407
 20
6.771
 21
6.808
  0
LINE
  8
0
 10
-28.407
 11
-28.496
 20
6.808
 21
6.858
  0
LINE
  8
0
 10
-28.496
 11
-28.579
 20
6.858
 21
6.918
  0
LINE
  8
0
 10
-28.579
 11
-28.653
 20
6.918
 21
6.988
  0
LINE
  8
0
 10
-28.653
 11
-28.719
 20
6.988
 21
7.067
  0
LINE
  8
0
 10
-28.719
 11
-28.773
 20
7.067
 21
7.153
  0
LINE
  8
0
 10
-28.773
 11
-28.817
 20
7.153
 21
7.245
  0
LINE
  8
0
 10
-28.817
 11
-28.848
 20
7.245
 21
7.343
  0
LINE
  8
0
 10
-28.848
 11
-28.868
 20
7.343
 21
7.443
  0
LINE
  8
0
 10
-28.868
 11
-28.874
 20
7.443
 21
7.545
  0
LINE
  8
0
 10
-28.874
 11
-28.868
 20
27.765
 21
27.867
  0
LINE
  8
0
 10
-28.868
 11
-28.848
 20
27.867
 21
27.967
  0
LINE
  8
0
 10
-28.848
 11
-28.817
 20
27.967
 21
28.065
  0
LINE
  8
0
 10
-28.817
 11
-28.773
 20
28.065
 21
28.157
  0
LINE
  8
0
 10
-28.773
 11
-28.719
 20
28.157
 21
28.243
  0
LINE
  8
0
 10
-28.719
 11
-28.653
 20
28.243
 21
28.322
  0
LINE
  8
0
 10
-28.653
 11
-28.579
 20
28.322
 21
28.392
  0
LINE
  8
0
 10
-28.579
 11
-28.496
 20
28.392
 21
28.452
  0
LINE
  8
0
 10
-28.496
 11
-28.407
 20
28.452
 21
28.502
  0
LINE
  8
0
 10
-28.407
 11
-28.312
 20
28.502
 21
28.539
  0
LINE
  8
0
 10
-28.312
 11
-28.213
 20
28.539
 21
28.565
  0
LINE
  8
0
 10
-28.213
 11
-28.111
 20
28.565
 21
28.577
  0
LINE
  8
0
 10
-28.111
 11
-28.009
 20
28.577
 21
28.577
  0
LINE
  8
0
 10
-28.009
 11
-27.907
 20
28.577
 21
28.565
  0
LINE
  8
0
 10
-27.907
 11
-27.808
 20
28.565
 21
28.539
  0
LINE
  8
0
 10
-27.808
 11
-27.713
 20
28.539
 21
28.502
  0
LINE
  8
0
 10
-27.713
 11
-27.624
 20
28.502
 21
28.452
  0
LINE
  8
0
 10
-27.624
 11
-27.541
 20
28.452
 21
28.392
  0
LINE
  8
0
 10
-27.541
 11
-27.467
 20
28.392
 21
28.322
  0
LINE
  8
0
 10
-27.467
 11
-27.401
 20
28.322
 21
28.243
  0
LINE
  8
0
 10
-27.401
 11
-27.347
 20
28.243
 21
28.157
  0
LINE
  8
0
 10
-27.347
 11
-27.303
 20
28.157
 21
28.065
  0
LINE
  8
0
 10
-27.303
 11
-27.272
 20
28.065
 21
27.967
  0
LINE
  8
0
 10
-27.272
 11
-27.252
 20
27.967
 21
27.867
  0
LINE
  8
0
 10
-27.252
 11
-27.246
 20
27.867
 21
27.765
  0
LINE
  8
0
 10
-27.246
 11
-27.252
 20
27.765
 21
27.663
  0
LINE
  8
0
 10
-27.252
 11
-27.272
 20
27.663
 21
27.563
  0
LINE
  8
0
 10
-27.272
 11
-27.303
 20
27.563
 21
27.465
  0
LINE
  8
0
 10
-27.303
 11
-27.347
 20
27.465
 21
27.373
  0
LINE
  8
0
 10
-27.347
 11
-27.401
 20
27.373
 21
27.287
  0
LINE
  8
0
 10
-27.401
 11
-27.467
 20
27.287
 21
27.208
  0
LINE
  8
0
 10
-27.467
 11
-27.541
 20
27.208
 21
27.138
  0
LINE
  8
0
 10
-27.541
 11
-27.624
 20
27.138
 21
27.078
  0
LINE
  8
0
 10
-27.624
 11
-27.713
 20
27.078
 21
27.028
  0
LINE
  8
0
 10
-27.713
 11
-27.808
 20
27.028
 21
26.991
  0
LINE
  8
0
 10
-27.808
 11
-27.907
 20
26.991
 21
26.965
  0
LINE
  8
0
 10
-27.907
 11
-28.009
 20
26.965
 21
26.953
  0
LINE
  8
0
 10
-28.009
 11
-28.111
 20
26.953
 21
26.953
  0
LINE
  8
0
 10
-28.111
 11
-28.213
 20
26.953
 21
26.965
  0
LINE
  8
0
 10
-28.213
 11
-28.312
 20
26.965
 21
26.991
  0
LINE
  8
0
 10
-28.312
 11
-28.407
 20
26.991
 21
27.028
  0
LINE
  8
0
 10
-28.407
 11
-28.496
 20
27.028
 21
27.078
  0
LINE
  8
0
 10
-28.496
 11
-28.579
 20
27.078
 21
27.138
  0
LINE
  8
0
 10
-28.579
 11
-28.653
 20
27.138
 21
27.208
  0
LINE
  8
0
 10
-28.653
 11
-28.719
 20
27.208
 21
27.287
  0
LINE
  8
0
 10
-28.719
 11
-28.773
 20
27.287
 21
27.373
  0
LINE
  8
0
 10
-28.773
 11
-28.817
 20
27.373
 21
27.465
  0
LINE
  8
0
 10
-28.817
 11
-28.848
 20
27.465
 21
27.563
  0
LINE
  8
0
 10
-28.848
 11
-28.868
 20
27.563
 21
27.663
  0
LINE
  8
0
 10
-28.868
 11
-28.874
 20
27.663
 21
27.765
  0
LINE
  8
0
 10
-28.874
 11
-28.868
 20
32.945
 21
33.047
  0
LINE
  8
0
 10
-28.868
 11
-28.848
 20
33.047
 21
33.147
  0
LINE
  8
0
 10
-28.848
 11
-28.817
 20
33.147
 21
33.245
  0
LINE
  8
0
 10
-28.817
 11
-28.773
 20
33.245
 21
33.337
  0
LINE
  8
0
 10
-28.773
 11
-28.719
 20
33.337
 21
33.423
  0
LINE
  8
0
 10
-28.719
 11
-28.653
 20
33.423
 21
33.502
  0
LINE
  8
0
 10
-28.653
 11
-28.579
 20
33.502
 21
33.572
  0
LINE
  8
0
 10
-28.579
 11
-28.496
 20
33.572
 21
33.632
  0
LINE
  8
0
 10
-28.496
 11
-28.407
 20
33.632
 21
33.682
  0
LINE
  8
0
 10
-28.407
 11
-28.312
 20
33.682
 21
33.719
  0
LINE
  8
0
 10
-28.312
 11
-28.213
 20
33.719
 21
33.745
  0
LINE
  8
0
 10
-28.213
 11
-28.111
 20
33.745
 21
33.757
  0
LINE
  8
0
 10
-28.111
 11
-28.009
 20
33.757
 21
33.757
  0
LINE
  8
0
 10
-28.009
 11
-27.907
 20
33.757
 21
33.745
  0
LINE
  8
0
 10
-27.907
 11
-27.808
 20
33.745
 21
33.719
  0
LINE
  8
0
 10
-27.808
 11
-27.713
 20
33.719
 21
33.682
  0
LINE
  8
0
 10
-27.713
 11
-27.624
 20
33.682
 21
33.632
  0
LINE
  8
0
 10
-27.624
 11
-27.541
 20
33.632
 21
33.572
  0
LINE
  8
0
 10
-27.541
 11
-27.467
 20
33.572
 21
33.502
  0
LINE
  8
0
 10
-27.467
 11
-27.401
 20
33.502
 21
33.423
  0
LINE
  8
0
 10
-27.401
 11
-27.347
 20
33.423
 21
33.337
  0
LINE
  8
0
 10
-27.347
 11
-27.303
 20
33.337
 21
33.245
  0
LINE
  8
0
 10
-27.303
 11
-27.272
 20
33.245
 21
33.147
  0
LINE
  8
0
 10
-27.272
 11
-27.252
 20
33.147
 21
33.047
  0
LINE
  8
0
 10
-27.252
 11
-27.246
 20
33.047
 21
32.945
  0
LINE
  8
0
 10
-27.246
 11
-27.252
 20
32.945
 21
32.843
  0
LINE
  8
0
 10
-27.252
 11
-27.272
 20
32.843
 21
32.743
  0
LINE
  8
0
 10
-27.272
 11
-27.303
 20
32.743
 21
32.645
  0
LINE
  8
0
 10
-27.303
 11
-27.347
 20
32.645
 21
32.553
  0
LINE
  8
0
 10
-27.347
 11
-27.401
 20
32.553
 21
32.467
  0
LINE
  8
0
 10
-27.401
 11
-27.467
 20
32.467
 21
32.388
  0
LINE
  8
0
 10
-27.467
 11
-27.541
 20
32.388
 21
32.318
  0
LINE
  8
0
 10
-27.541
 11
-27.624
 20
32.318
 21
32.258
  0
LINE
  8
0
 10
-27.624
 11
-27.713
 20
32.258
 21
32.208
  0
LINE
  8
0
 10
-27.713
 11
-27.808
 20
32.208
 21
32.171
  0
LINE
  8
0
 10
-27.808
 11
-27.907
 20
32.171
 21
32.145
  0
LINE
  8
0
 10
-27.907
 11
-28.009
 20
32.145
 21
32.133
  0
LINE
  8
0
 10
-28.009
 11
-28.111
 20
32.133
 21
32.133
  0
LINE
  8
0
 10
-28.111
 11
-28.213
 20
32.133
 21
32.145
  0
LINE
  8
0
 10
-28.213
 11
-28.312
 20
32.145
 21
32.171
  0
LINE
  8
0
 10
-28.312
 11
-28.407
 20
32.171
 21
32.208
  0
LINE
  8
0
 10
-28.407
 11
-28.496
 20
32.208
 21
32.258
  0
LINE
  8
0
 10
-28.496
 11
-28.579
 20
32.258
 21
32.318
  0
LINE
  8
0
 10
-28.579
 11
-28.653
 20
32.318
 21
32.388
  0
LINE
  8
0
 10
-28.653
 11
-28.719
 20
32.388
 21
32.467
  0
LINE
  8
0
 10
-28.719
 11
-28.773
 20
32.467
 21
32.553
  0
LINE
  8
0
 10
-28.773
 11
-28.817
 20
32.553
 21
32.645
  0
LINE
  8
0
 10
-28.817
 11
-28.848
 20
32.645
 21
32.743
  0
LINE
  8
0
 10
-28.848
 11
-28.868
 20
32.743
 21
32.843
  0
LINE
  8
0
 10
-28.868
 11
-28.874
 20
32.843
 21
32.945
  0
LINE
  8
0
 10
-28.874
 11
-28.868
 20
53.165
 21
53.267
  0
LINE
  8
0
 10
-28.868
 11
-28.848
 20
53.267
 21
53.367
  0
LINE
  8
0
 10
-28.848
 11
-28.817
 20
53.367
 21
53.465
  0
LINE
  8
0
 10
-28.817
 11
-28.773
 20
53.465
 21
53.557
  0
LINE
  8
0
 10
-28.773
 11
-28.719
 20
53.557
 21
53.643
  0
LINE
  8
0
 10
-28.719
 11
-28.653
 20
53.643
 21
53.722
  0
LINE
  8
0
 10
-28.653
 11
-28.579
 20
53.722
 21
53.792
  0
LINE
  8
0
 10
-28.579
 11
-28.496
 20
53.792
 21
53.852
  0
LINE
  8
0
 10
-28.496
 11
-28.407
 20
53.852
 21
53.902
  0
LINE
  8
0
 10
-28.407
 11
-28.312
 20
53.902
 21
53.939
  0
LINE
  8
0
 10
-28.312
 11
-28.213
 20
53.939
 21
53.965
  0
LINE
  8
0
 10
-28.213
 11
-28.111
 20
53.965
 21
53.977
  0
LINE
  8
0
 10
-28.111
 11
-28.009
 20
53.977
 21
53.977
  0
LINE
  8
0
 10
-28.009
 11
-27.907
 20
53.977
 21
53.965
  0
LINE
  8
0
 10
-27.907
 11
-27.808
 20
53.965
 21
53.939
  0
LINE
  8
0
 10
-27.808
 11
-27.713
 20
53.939
 21
53.902
  0
LINE
  8
0
 10
-27.713
 11
-27.624
 20
53.902
 21
53.852
  0
LINE
  8
0
 10
-27.624
 11
-27.541
 20
53.852
 21
53.792
  0
LINE
  8
0
 10
-27.541
 11
-27.467
 20
53.792
 21
53.722
  0
LINE
  8
0
 10
-27.467
 11
-27.401
 20
53.722
 21
53.643
  0
LINE
  8
0
 10
-27.401
 11
-27.347
 20
53.643
 21
53.557
  0
LINE
  8
0
 10
-27.347
 11
-27.303
 20
53.557
 21
53.465
  0
LINE
  8
0
 10
-27.303
 11
-27.272
 20
53.465
 21
53.367
  0
LINE
  8
0
 10
-27.272
 11
-27.252
 20
53.367
 21
53.267
  0
LINE
  8
0
 10
-27.252
 11
-27.246
 20
53.267
 21
53.165
  0
LINE
  8
0
 10
-27.246
 11
-27.252
 20
53.165
 21
53.063
  0
LINE
  8
0
 10
-27.252
 11
-27.272
 20
53.063
 21
52.963
  0
LINE
  8
0
 10
-27.272
 11
-27.303
 20
52.963
 21
52.865
  0
LINE
  8
0
 10
-27.303
 11
-27.347
 20
52.865
 21
52.773
  0
LINE
  8
0
 10
-27.347
 11
-27.401
 20
52.773
 21
52.687
  0
LINE
  8
0
 10
-27.401
 11
-27.467
 20
52.687
 21
52.608
  0
LINE
  8
0
 10
-27.467
 11
-27.541
 20
52.608
 21
52.538
  0
LINE
  8
0
 10
-27.541
 11
-27.624
 20
52.538
 21
52.478
  0
LINE
  8
0
 10
-27.624
 11
-27.713
 20
52.478
 21
52.428
  0
LINE
  8
0
 10
-27.713
 11
-27.808
 20
52.428
 21
52.391
  0
LINE
  8
0
 10
-27.808
 11
-27.907
 20
52.391
 21
52.365
  0
LINE
  8
0
 10
-27.907
 11
-28.009
 20
52.365
 21
52.353
  0
LINE
  8
0
 10
-28.009
 11
-28.111
 20
52.353
 21
52.353
  0
LINE
  8
0
 10
-28.111
 11
-28.213
 20
52.353
 21
52.365
  0
LINE
  8
0
 10
-28.213
 11
-28.312
 20
52.365
 21
52.391
  0
LINE
  8
0
 10
-28.312
 11
-28.407
 20
52.391
 21
52.428
  0
LINE
  8
0
 10
-28.407
 11
-28.496
 20
52.428
 21
52.478
  0
LINE
  8
0
 10
-28.496
 11
-28.579
 20
52.478
 21
52.538
  0
LINE
  8
0
 10
-28.579
 11
-28.653
 20
52.538
 21
52.608
  0
LINE
  8
0
 10
-28.653
 11
-28.719
 20
52.608
 21
52.687
  0
LINE
  8
0
 10
-28.719
 11
-28.773
 20
52.687
 21
52.773
  0
LINE
  8
0
 10
-28.773
 11
-28.817
 20
52.773
 21
52.865
  0
LINE
  8
0
 10
-28.817
 11
-28.848
 20
52.865
 21
52.963
  0
LINE
  8
0
 10
-28.848
 11
-28.868
 20
52.963
 21
53.063
  0
LINE
  8
0
 10
-28.868
 11
-28.874
 20
53.063
 21
53.165
  0
LINE
  8
0
 10
-28.874
 11
-28.868
 20
58.345
 21
58.447
  0
LINE
  8
0
 10
-28.868
 11
-28.848
 20
58.447
 21
58.547
  0
LINE
  8
0
 10
-28.848
 11
-28.817
 20
58.547
 21
58.645
  0
LINE
  8
0
 10
-28.817
 11
-28.773
 20
58.645
 21
58.737
  0
LINE
  8
0
 10
-28.773
 11
-28.719
 20
58.737
 21
58.823
  0
LINE
  8
0
 10
-28.719
 11
-28.653
 20
58.823
 21
58.902
  0
LINE
  8
0
 10
-28.653
 11
-28.579
 20
58.902
 21
58.972
  0
LINE
  8
0
 10
-28.579
 11
-28.496
 20
58.972
 21
59.032
  0
LINE
  8
0
 10
-28.496
 11
-28.407
 20
59.032
 21
59.082
  0
LINE
  8
0
 10
-28.407
 11
-28.312
 20
59.082
 21
59.119
  0
LINE
  8
0
 10
-28.312
 11
-28.213
 20
59.119
 21
59.145
  0
LINE
  8
0
 10
-28.213
 11
-28.111
 20
59.145
 21
59.157
  0
LINE
  8
0
 10
-28.111
 11
-28.009
 20
59.157
 21
59.157
  0
LINE
  8
0
 10
-28.009
 11
-27.907
 20
59.157
 21
59.145
  0
LINE
  8
0
 10
-27.907
 11
-27.808
 20
59.145
 21
59.119
  0
LINE
  8
0
 10
-27.808
 11
-27.713
 20
59.119
 21
59.082
  0
LINE
  8
0
 10
-27.713
 11
-27.624
 20
59.082
 21
59.032
  0
LINE
  8
0
 10
-27.624
 11
-27.541
 20
59.032
 21
58.972
  0
LINE
  8
0
 10
-27.541
 11
-27.467
 20
58.972
 21
58.902
  0
LINE
  8
0
 10
-27.467
 11
-27.401
 20
58.902
 21
58.823
  0
LINE
  8
0
 10
-27.401
 11
-27.347
 20
58.823
 21
58.737
  0
LINE
  8
0
 10
-27.347
 11
-27.303
 20
58.737
 21
58.645
  0
LINE
  8
0
 10
-27.303
 11
-27.272
 20
58.645
 21
58.547
  0
LINE
  8
0
 10
-27.272
 11
-27.252
 20
58.547
 21
58.447
  0
LINE
  8
0
 10
-27.252
 11
-27.246
 20
58.447
 21
58.345
  0
LINE
  8
0
 10
-27.246
 11
-27.252
 20
58.345
 21
58.243
  0
LINE
  8
0
 10
-27.252
 11
-27.272
 20
58.243
 21
58.143
  0
LINE
  8
0
 10
-27.272
 11
-27.303
 20
58.143
 21
58.045
  0
LINE
  8
0
 10
-27.303
 11
-27.347
 20
58.045
 21
57.953
  0
LINE
  8
0
 10
-27.347
 11
-27.401
 20
57.953
 21
57.867
  0
LINE
  8
0
 10
-27.401
 11
-27.467
 20
57.867
 21
57.788
  0
LINE
  8
0
 10
-27.467
 11
-27.541
 20
57.788
 21
57.718
  0
LINE
  8
0
 10
-27.541
 11
-27.624
 20
57.718
 21
57.658
  0
LINE
  8
0
 10
-27.624
 11
-27.713
 20
57.658
 21
57.608
  0
LINE
  8
0
 10
-27.713
 11
-27.808
 20
57.608
 21
57.571
  0
LINE
  8
0
 10
-27.808
 11
-27.907
 20
57.571
 21
57.545
  0
LINE
  8
0
 10
-27.907
 11
-28.009
 20
57.545
 21
57.533
  0
LINE
  8
0
 10
-28.009
 11
-28.111
 20
57.533
 21
57.533
  0
LINE
  8
0
 10
-28.111
 11
-28.213
 20
57.533
 21
57.545
  0
LINE
  8
0
 10
-28.213
 11
-28.312
 20
57.545
 21
57.571
  0
LINE
  8
0
 10
-28.312
 11
-28.407
 20
57.571
 21
57.608
  0
LINE
  8
0
 10
-28.407
 11
-28.496
 20
57.608
 21
57.658
  0
LINE
  8
0
 10
-28.496
 11
-28.579
 20
57.658
 21
57.718
  0
LINE
  8
0
 10
-28.579
 11
-28.653
 20
57.718
 21
57.788
  0
LINE
  8
0
 10
-28.653
 11
-28.719
 20
57.788
 21
57.867
  0
LINE
  8
0
 10
-28.719
 11
-28.773
 20
57.867
 21
57.953
  0
LINE
  8
0
 10
-28.773
 11
-28.817
 20
57.953
 21
58.045
  0
LINE
  8
0
 10
-28.817
 11
-28.848
 20
58.045
 21
58.143
  0
LINE
  8
0
 10
-28.848
 11
-28.868
 20
58.143
 21
58.243
  0
LINE
  8
0
 10
-28.868
 11
-28.874
 20
58.243
 21
58.345
  0
LINE
  8
0
 10
-28.874
 11
-28.868
 20
78.565
 21
78.667
  0
LINE
  8
0
 10
-28.868
 11
-28.848
 20
78.667
 21
78.767
  0
LINE
  8
0
 10
-28.848
 11
-28.817
 20
78.767
 21
78.865
  0
LINE
  8
0
 10
-28.817
 11
-28.773
 20
78.865
 21
78.957
  0
LINE
  8
0
 10
-28.773
 11
-28.719
 20
78.957
 21
79.043
  0
LINE
  8
0
 10
-28.719
 11
-28.653
 20
79.043
 21
79.122
  0
LINE
  8
0
 10
-28.653
 11
-28.579
 20
79.122
 21
79.192
  0
LINE
  8
0
 10
-28.579
 11
-28.496
 20
79.192
 21
79.252
  0
LINE
  8
0
 10
-28.496
 11
-28.407
 20
79.252
 21
79.302
  0
LINE
  8
0
 10
-28.407
 11
-28.312
 20
79.302
 21
79.339
  0
LINE
  8
0
 10
-28.312
 11
-28.213
 20
79.339
 21
79.365
  0
LINE
  8
0
 10
-28.213
 11
-28.111
 20
79.365
 21
79.377
  0
LINE
  8
0
 10
-28.111
 11
-28.009
 20
79.377
 21
79.377
  0
LINE
  8
0
 10
-28.009
 11
-27.907
 20
79.377
 21
79.365
  0
LINE
  8
0
 10
-27.907
 11
-27.808
 20
79.365
 21
79.339
  0
LINE
  8
0
 10
-27.808
 11
-27.713
 20
79.339
 21
79.302
  0
LINE
  8
0
 10
-27.713
 11
-27.624
 20
79.302
 21
79.252
  0
LINE
  8
0
 10
-27.624
 11
-27.541
 20
79.252
 21
79.192
  0
LINE
  8
0
 10
-27.541
 11
-27.467
 20
79.192
 21
79.122
  0
LINE
  8
0
 10
-27.467
 11
-27.401
 20
79.122
 21
79.043
  0
LINE
  8
0
 10
-27.401
 11
-27.347
 20
79.043
 21
78.957
  0
LINE
  8
0
 10
-27.347
 11
-27.303
 20
78.957
 21
78.865
  0
LINE
  8
0
 10
-27.303
 11
-27.272
 20
78.865
 21
78.767
  0
LINE
  8
0
 10
-27.272
 11
-27.252
 20
78.767
 21
78.667
  0
LINE
  8
0
 10
-27.252
 11
-27.246
 20
78.667
 21
78.565
  0
LINE
  8
0
 10
-27.246
 11
-27.252
 20
78.565
 21
78.463
  0
LINE
  8
0
 10
-27.252
 11
-27.272
 20
78.463
 21
78.363
  0
LINE
  8
0
 10
-27.272
 11
-27.303
 20
78.363
 21
78.265
  0
LINE
  8
0
 10
-27.303
 11
-27.347
 20
78.265
 21
78.173
  0
LINE
  8
0
 10
-27.347
 11
-27.401
 20
78.173
 21
78.087
  0
LINE
  8
0
 10
-27.401
 11
-27.467
 20
78.087
 21
78.008
  0
LINE
  8
0
 10
-27.467
 11
-27.541
 20
78.008
 21
77.938
  0
LINE
  8
0
 10
-27.541
 11
-27.624
 20
77.938
 21
77.878
  0
LINE
  8
0
 10
-27.624
 11
-27.713
 20
77.878
 21
77.828
  0
LINE
  8
0
 10
-27.713
 11
-27.808
 20
77.828
 21
77.791
  0
LINE
  8
0
 10
-27.808
 11
-27.907
 20
77.791
 21
77.765
  0
LINE
  8
0
 10
-27.907
 11
-28.009
 20
77.765
 21
77.753
  0
LINE
  8
0
 10
-28.009
 11
-28.111
 20
77.753
 21
77.753
  0
LINE
  8
0
 10
-28.111
 11
-28.213
 20
77.753
 21
77.765
  0
LINE
  8
0
 10
-28.213
 11
-28.312
 20
77.765
 21
77.791
  0
LINE
  8
0
 10
-28.312
 11
-28.407
 20
77.791
 21
77.828
  0
LINE
  8
0
 10
-28.407
 11
-28.496
 20
77.828
 21
77.878
  0
LINE
  8
0
 10
-28.496
 11
-28.579
 20
77.878
 21
77.938
  0
LINE
  8
0
 10
-28.579
 11
-28.653
 20
77.938
 21
78.008
  0
LINE
  8
0
 10
-28.653
 11
-28.719
 20
78.008
 21
78.087
  0
LINE
  8
0
 10
-28.719
 11
-28.773
 20
78.087
 21
78.173
  0
LINE
  8
0
 10
-28.773
 11
-28.817
 20
78.173
 21
78.265
  0
LINE
  8
0
 10
-28.817
 11
-28.848
 20
78.265
 21
78.363
  0
LINE
  8
0
 10
-28.848
 11
-28.868
 20
78.363
 21
78.463
  0
LINE
  8
0
 10
-28.868
 11
-28.874
 20
78.463
 21
78.565
  0
LINE
  8
0
 10
-28.774
 11
-28.768
 20
-86.36
 21
-86.258
  0
LINE
  8
0
 10
-28.768
 11
-28.748
 20
-86.258
 21
-86.158
  0
LINE
  8
0
 10
-28.748
 11
-28.717
 20
-86.158
 21
-86.06
  0
LINE
  8
0
 10
-28.717
 11
-28.673
 20
-86.06
 21
-85.968
  0
LINE
  8
0
 10
-28.673
 11
-28.619
 20
-85.968
 21
-85.882
  0
LINE
  8
0
 10
-28.619
 11
-28.553
 20
-85.882
 21
-85.803
  0
LINE
  8
0
 10
-28.553
 11
-28.479
 20
-85.803
 21
-85.733
  0
LINE
  8
0
 10
-28.479
 11
-28.396
 20
-85.733
 21
-85.673
  0
LINE
  8
0
 10
-28.396
 11
-28.307
 20
-85.673
 21
-85.623
  0
LINE
  8
0
 10
-28.307
 11
-28.212
 20
-85.623
 21
-85.586
  0
LINE
  8
0
 10
-28.212
 11
-28.113
 20
-85.586
 21
-85.56
  0
LINE
  8
0
 10
-28.113
 11
-28.011
 20
-85.56
 21
-85.548
  0
LINE
  8
0
 10
-28.011
 11
-27.909
 20
-85.548
 21
-85.548
  0
LINE
  8
0
 10
-27.909
 11
-27.807
 20
-85.548
 21
-85.56
  0
LINE
  8
0
 10
-27.807
 11
-27.708
 20
-85.56
 21
-85.586
  0
LINE
  8
0
 10
-27.708
 11
-27.613
 20
-85.586
 21
-85.623
  0
LINE
  8
0
 10
-27.613
 11
-27.524
 20
-85.623
 21
-85.673
  0
LINE
  8
0
 10
-27.524
 11
-27.441
 20
-85.673
 21
-85.733
  0
LINE
  8
0
 10
-27.441
 11
-27.367
 20
-85.733
 21
-85.803
  0
LINE
  8
0
 10
-27.367
 11
-27.301
 20
-85.803
 21
-85.882
  0
LINE
  8
0
 10
-27.301
 11
-27.247
 20
-85.882
 21
-85.968
  0
LINE
  8
0
 10
-27.247
 11
-27.203
 20
-85.968
 21
-86.06
  0
LINE
  8
0
 10
-27.203
 11
-27.172
 20
-86.06
 21
-86.158
  0
LINE
  8
0
 10
-27.172
 11
-27.152
 20
-86.158
 21
-86.258
  0
LINE
  8
0
 10
-27.152
 11
-27.146
 20
-86.258
 21
-86.36
  0
LINE
  8
0
 10
-27.146
 11
-27.152
 20
-86.36
 21
-86.462
  0
LINE
  8
0
 10
-27.152
 11
-27.172
 20
-86.462
 21
-86.562
  0
LINE
  8
0
 10
-27.172
 11
-27.203
 20
-86.562
 21
-86.66
  0
LINE
  8
0
 10
-27.203
 11
-27.247
 20
-86.66
 21
-86.752
  0
LINE
  8
0
 10
-27.247
 11
-27.301
 20
-86.752
 21
-86.838
  0
LINE
  8
0
 10
-27.301
 11
-27.367
 20
-86.838
 21
-86.917
  0
LINE
  8
0
 10
-27.367
 11
-27.441
 20
-86.917
 21
-86.987
  0
LINE
  8
0
 10
-27.441
 11
-27.524
 20
-86.987
 21
-87.047
  0
LINE
  8
0
 10
-27.524
 11
-27.613
 20
-87.047
 21
-87.097
  0
LINE
  8
0
 10
-27.613
 11
-27.708
 20
-87.097
 21
-87.134
  0
LINE
  8
0
 10
-27.708
 11
-27.807
 20
-87.134
 21
-87.16
  0
LINE
  8
0
 10
-27.807
 11
-27.909
 20
-87.16
 21
-87.172
  0
LINE
  8
0
 10
-27.909
 11
-28.011
 20
-87.172
 21
-87.172
  0
LINE
  8
0
 10
-28.011
 11
-28.113
 20
-87.172
 21
-87.16
  0
LINE
  8
0
 10
-28.113
 11
-28.212
 20
-87.16
 21
-87.134
  0
LINE
  8
0
 10
-28.212
 11
-28.307
 20
-87.134
 21
-87.097
  0
LINE
  8
0
 10
-28.307
 11
-28.396
 20
-87.097
 21
-87.047
  0
LINE
  8
0
 10
-28.396
 11
-28.479
 20
-87.047
 21
-86.987
  0
LINE
  8
0
 10
-28.479
 11
-28.553
 20
-86.987
 21
-86.917
  0
LINE
  8
0
 10
-28.553
 11
-28.619
 20
-86.917
 21
-86.838
  0
LINE
  8
0
 10
-28.619
 11
-28.673
 20
-86.838
 21
-86.752
  0
LINE
  8
0
 10
-28.673
 11
-28.717
 20
-86.752
 21
-86.66
  0
LINE
  8
0
 10
-28.717
 11
-28.748
 20
-86.66
 21
-86.562
  0
LINE
  8
0
 10
-28.748
 11
-28.768
 20
-86.562
 21
-86.462
  0
LINE
  8
0
 10
-28.768
 11
-28.774
 20
-86.462
 21
-86.36
  0
LINE
  8
0
 10
-28.774
 11
-28.768
 20
86.36
 21
86.462
  0
LINE
  8
0
 10
-28.768
 11
-28.748
 20
86.462
 21
86.562
  0
LINE
  8
0
 10
-28.748
 11
-28.717
 20
86.562
 21
86.66
  0
LINE
  8
0
 10
-28.717
 11
-28.673
 20
86.66
 21
86.752
  0
LINE
  8
0
 10
-28.673
 11
-28.619
 20
86.752
 21
86.838
  0
LINE
  8
0
 10
-28.619
 11
-28.553
 20
86.838
 21
86.917
  0
LINE
  8
0
 10
-28.553
 11
-28.479
 20
86.917
 21
86.987
  0
LINE
  8
0
 10
-28.479
 11
-28.396
 20
86.987
 21
87.047
  0
LINE
  8
0
 10
-28.396
 11
-28.307
 20
87.047
 21
87.097
  0
LINE
  8
0
 10
-28.307
 11
-28.212
 20
87.097
 21
87.134
  0
LINE
  8
0
 10
-28.212
 11
-28.113
 20
87.134
 21
87.16
  0
LINE
  8
0
 10
-28.113
 11
-28.011
 20
87.16
 21
87.172
  0
LINE
  8
0
 10
-28.011
 11
-27.909
 20
87.172
 21
87.172
  0
LINE
  8
0
 10
-27.909
 11
-27.807
 20
87.172
 21
87.16
  0
LINE
  8
0
 10
-27.807
 11
-27.708
 20
87.16
 21
87.134
  0
LINE
  8
0
 10
-27.708
 11
-27.613
 20
87.134
 21
87.097
  0
LINE
  8
0
 10
-27.613
 11
-27.524
 20
87.097
 21
87.047
  0
LINE
  8
0
 10
-27.524
 11
-27.441
 20
87.047
 21
86.987
  0
LINE
  8
0
 10
-27.441
 11
-27.367
 20
86.987
 21
86.917
  0
LINE
  8
0
 10
-27.367
 11
-27.301
 20
86.917
 21
86.838
  0
LINE
  8
0
 10
-27.301
 11
-27.247
 20
86.838
 21
86.752
  0
LINE
  8
0
 10
-27.247
 11
-27.203
 20
86.752
 21
86.66
  0
LINE
  8
0
 10
-27.203
 11
-27.172
 20
86.66
 21
86.562
  0
LINE
  8
0
 10
-27.172
 11
-27.152
 20
86.562
 21
86.462
  0
LINE
  8
0
 10
-27.152
 11
-27.146
 20
86.462
 21
86.36
  0
LINE
  8
0
 10
-27.146
 11
-27.152
 20
86.36
 21
86.258
  0
LINE
  8
0
 10
-27.152
 11
-27.172
 20
86.258
 21
86.158
  0
LINE
  8
0
 10
-27.172
 11
-27.203
 20
86.158
 21
86.06
  0
LINE
  8
0
 10
-27.203
 11
-27.247
 20
86.06
 21
85.968
  0
LINE
  8
0
 10
-27.247
 11
-27.301
 20
85.968
 21
85.882
  0
LINE
  8
0
 10
-27.301
 11
-27.367
 20
85.882
 21
85.803
  0
LINE
  8
0
 10
-27.367
 11
-27.441
 20
85.803
 21
85.733
  0
LINE
  8
0
 10
-27.441
 11
-27.524
 20
85.733
 21
85.673
  0
LINE
  8
0
 10
-27.524
 11
-27.613
 20
85.673
 21
85.623
  0
LINE
  8
0
 10
-27.613
 11
-27.708
 20
85.623
 21
85.586
  0
LINE
  8
0
 10
-27.708
 11
-27.807
 20
85.586
 21
85.56
  0
LINE
  8
0
 10
-27.807
 11
-27.909
 20
85.56
 21
85.548
  0
LINE
  8
0
 10
-27.909
 11
-28.011
 20
85.548
 21
85.548
  0
LINE
  8
0
 10
-28.011
 11
-28.113
 20
85.548
 21
85.56
  0
LINE
  8
0
 10
-28.113
 11
-28.212
 20
85.56
 21
85.586
  0
LINE
  8
0
 10
-28.212
 11
-28.307
 20
85.586
 21
85.623
  0
LINE
  8
0
 10
-28.307
 11
-28.396
 20
85.623
 21
85.673
  0
LINE
  8
0
 10
-28.396
 11
-28.479
 20
85.673
 21
85.733
  0
LINE
  8
0
 10
-28.479
 11
-28.553
 20
85.733
 21
85.803
  0
LINE
  8
0
 10
-28.553
 11
-28.619
 20
85.803
 21
85.882
  0
LINE
  8
0
 10
-28.619
 11
-28.673
 20
85.882
 21
85.968
  0
LINE
  8
0
 10
-28.673
 11
-28.717
 20
85.968
 21
86.06
  0
LINE
  8
0
 10
-28.717
 11
-28.748
 20
86.06
 21
86.158
  0
LINE
  8
0
 10
-28.748
 11
-28.768
 20
86.158
 21
86.258
  0
LINE
  8
0
 10
-28.768
 11
-28.774
 20
86.258
 21
86.36
  0
LINE
  8
0
 10
-28.154
 11
-28.145
 20
-97.923
 21
-97.782
  0
LINE
  8
0
 10
-28.145
 11
-28.118
 20
-97.782
 21
-97.642
  0
LINE
  8
0
 10
-28.118
 11
-28.074
 20
-97.642
 21
-97.507
  0
LINE
  8
0
 10
-28.074
 11
-28.014
 20
-97.507
 21
-97.379
  0
LINE
  8
0
 10
-28.014
 11
-27.938
 20
-97.379
 21
-97.259
  0
LINE
  8
0
 10
-27.938
 11
-27.847
 20
-97.259
 21
-97.15
  0
LINE
  8
0
 10
-27.847
 11
-27.744
 20
-97.15
 21
-97.052
  0
LINE
  8
0
 10
-27.744
 11
-27.629
 20
-97.052
 21
-96.969
  0
LINE
  8
0
 10
-27.629
 11
-27.505
 20
-96.969
 21
-96.901
  0
LINE
  8
0
 10
-27.505
 11
-27.373
 20
-96.901
 21
-96.848
  0
LINE
  8
0
 10
-27.373
 11
-27.235
 20
-96.848
 21
-96.813
  0
LINE
  8
0
 10
-27.235
 11
-27.094
 20
-96.813
 21
-96.795
  0
LINE
  8
0
 10
-27.094
 11
-26.952
 20
-96.795
 21
-96.795
  0
LINE
  8
0
 10
-26.952
 11
-26.812
 20
-96.795
 21
-96.813
  0
LINE
  8
0
 10
-26.812
 11
-26.674
 20
-96.813
 21
-96.848
  0
LINE
  8
0
 10
-26.674
 11
-26.542
 20
-96.848
 21
-96.901
  0
LINE
  8
0
 10
-26.542
 11
-26.418
 20
-96.901
 21
-96.969
  0
LINE
  8
0
 10
-26.418
 11
-26.303
 20
-96.969
 21
-97.052
  0
LINE
  8
0
 10
-26.303
 11
-26.199
 20
-97.052
 21
-97.15
  0
LINE
  8
0
 10
-26.199
 11
-26.109
 20
-97.15
 21
-97.259
  0
LINE
  8
0
 10
-26.109
 11
-26.033
 20
-97.259
 21
-97.379
  0
LINE
  8
0
 10
-26.033
 11
-25.972
 20
-97.379
 21
-97.507
  0
LINE
  8
0
 10
-25.972
 11
-25.929
 20
-97.507
 21
-97.642
  0
LINE
  8
0
 10
-25.929
 11
-25.902
 20
-97.642
 21
-97.782
  0
LINE
  8
0
 10
-25.902
 11
-25.893
 20
-97.782
 21
-97.923
  0
LINE
  8
0
 10
-25.893
 11
-25.902
 20
-97.923
 21
-98.065
  0
LINE
  8
0
 10
-25.902
 11
-25.929
 20
-98.065
 21
-98.204
  0
LINE
  8
0
 10
-25.929
 11
-25.972
 20
-98.204
 21
-98.339
  0
LINE
  8
0
 10
-25.972
 11
-26.033
 20
-98.339
 21
-98.468
  0
LINE
  8
0
 10
-26.033
 11
-26.109
 20
-98.468
 21
-98.588
  0
LINE
  8
0
 10
-26.109
 11
-26.199
 20
-98.588
 21
-98.697
  0
LINE
  8
0
 10
-26.199
 11
-26.303
 20
-98.697
 21
-98.794
  0
LINE
  8
0
 10
-26.303
 11
-26.418
 20
-98.794
 21
-98.878
  0
LINE
  8
0
 10
-26.418
 11
-26.542
 20
-98.878
 21
-98.946
  0
LINE
  8
0
 10
-26.542
 11
-26.674
 20
-98.946
 21
-98.998
  0
LINE
  8
0
 10
-26.674
 11
-26.812
 20
-98.998
 21
-99.034
  0
LINE
  8
0
 10
-26.812
 11
-26.952
 20
-99.034
 21
-99.051
  0
LINE
  8
0
 10
-26.952
 11
-27.094
 20
-99.051
 21
-99.051
  0
LINE
  8
0
 10
-27.094
 11
-27.235
 20
-99.051
 21
-99.034
  0
LINE
  8
0
 10
-27.235
 11
-27.373
 20
-99.034
 21
-98.998
  0
LINE
  8
0
 10
-27.373
 11
-27.505
 20
-98.998
 21
-98.946
  0
LINE
  8
0
 10
-27.505
 11
-27.629
 20
-98.946
 21
-98.878
  0
LINE
  8
0
 10
-27.629
 11
-27.744
 20
-98.878
 21
-98.794
  0
LINE
  8
0
 10
-27.744
 11
-27.847
 20
-98.794
 21
-98.697
  0
LINE
  8
0
 10
-27.847
 11
-27.938
 20
-98.697
 21
-98.588
  0
LINE
  8
0
 10
-27.938
 11
-28.014
 20
-98.588
 21
-98.468
  0
LINE
  8
0
 10
-28.014
 11
-28.074
 20
-98.468
 21
-98.339
  0
LINE
  8
0
 10
-28.074
 11
-28.118
 20
-98.339
 21
-98.204
  0
LINE
  8
0
 10
-28.118
 11
-28.145
 20
-98.204
 21
-98.065
  0
LINE
  8
0
 10
-28.145
 11
-28.154
 20
-98.065
 21
-97.923
  0
LINE
  8
0
 10
-28.154
 11
-28.145
 20
97.923
 21
98.065
  0
LINE
  8
0
 10
-28.145
 11
-28.118
 20
98.065
 21
98.204
  0
LINE
  8
0
 10
-28.118
 11
-28.074
 20
98.204
 21
98.339
  0
LINE
  8
0
 10
-28.074
 11
-28.014
 20
98.339
 21
98.468
  0
LINE
  8
0
 10
-28.014
 11
-27.938
 20
98.468
 21
98.588
  0
LINE
  8
0
 10
-27.938
 11
-27.847
 20
98.588
 21
98.697
  0
LINE
  8
0
 10
-27.847
 11
-27.744
 20
98.697
 21
98.794
  0
LINE
  8
0
 10
-27.744
 11
-27.629
 20
98.794
 21
98.878
  0
LINE
  8
0
 10
-27.629
 11
-27.505
 20
98.878
 21
98.946
  0
LINE
  8
0
 10
-27.505
 11
-27.373
 20
98.946
 21
98.998
  0
LINE
  8
0
 10
-27.373
 11
-27.235
 20
98.998
 21
99.034
  0
LINE
  8
0
 10
-27.235
 11
-27.094
 20
99.034
 21
99.051
  0
LINE
  8
0
 10
-27.094
 11
-26.952
 20
99.051
 21
99.051
  0
LINE
  8
0
 10
-26.952
 11
-26.812
 20
99.051
 21
99.034
  0
LINE
  8
0
 10
-26.812
 11
-26.674
 20
99.034
 21
98.998
  0
LINE
  8
0
 10
-26.674
 11
-26.542
 20
98.998
 21
98.946
  0
LINE
  8
0
 10
-26.542
 11
-26.418
 20
98.946
 21
98.878
  0
LINE
  8
0
 10
-26.418
 11
-26.303
 20
98.878
 21
98.794
  0
LINE
  8
0
 10
-26.303
 11
-26.199
 20
98.794
 21
98.697
  0
LINE
  8
0
 10
-26.199
 11
-26.109
 20
98.697
 21
98.588
  0
LINE
  8
0
 10
-26.109
 11
-26.033
 20
98.588
 21
98.468
  0
LINE
  8
0
 10
-26.033
 11
-25.972
 20
98.468
 21
98.339
  0
LINE
  8
0
 10
-25.972
 11
-25.929
 20
98.339
 21
98.204
  0
LINE
  8
0
 10
-25.929
 11
-25.902
 20
98.204
 21
98.065
  0
LINE
  8
0
 10
-25.902
 11
-25.893
 20
98.065
 21
97.923
  0
LINE
  8
0
 10
-25.893
 11
-25.902
 20
97.923
 21
97.782
  0
LINE
  8
0
 10
-25.902
 11
-25.929
 20
97.782
 21
97.642
  0
LINE
  8
0
 10
-25.929
 11
-25.972
 20
97.642
 21
97.507
  0
LINE
  8
0
 10
-25.972
 11
-26.033
 20
97.507
 21
97.379
  0
LINE
  8
0
 10
-26.033
 11
-26.109
 20
97.379
 21
97.259
  0
LINE
  8
0
 10
-26.109
 11
-26.199
 20
97.259
 21
97.15
  0
LINE
  8
0
 10
-26.199
 11
-26.303
 20
97.15
 21
97.052
  0
LINE
  8
0
 10
-26.303
 11
-26.418
 20
97.052
 21
96.969
  0
LINE
  8
0
 10
-26.418
 11
-26.542
 20
96.969
 21
96.901
  0
LINE
  8
0
 10
-26.542
 11
-26.674
 20
96.901
 21
96.848
  0
LINE
  8
0
 10
-26.674
 11
-26.812
 20
96.848
 21
96.813
  0
LINE
  8
0
 10
-26.812
 11
-26.952
 20
96.813
 21
96.795
  0
LINE
  8
0
 10
-26.952
 11
-27.094
 20
96.795
 21
96.795
  0
LINE
  8
0
 10
-27.094
 11
-27.235
 20
96.795
 21
96.813
  0
LINE
  8
0
 10
-27.235
 11
-27.373
 20
96.813
 21
96.848
  0
LINE
  8
0
 10
-27.373
 11
-27.505
 20
96.848
 21
96.901
  0
LINE
  8
0
 10
-27.505
 11
-27.629
 20
96.901
 21
96.969
  0
LINE
  8
0
 10
-27.629
 11
-27.744
 20
96.969
 21
97.052
  0
LINE
  8
0
 10
-27.744
 11
-27.847
 20
97.052
 21
97.15
  0
LINE
  8
0
 10
-27.847
 11
-27.938
 20
97.15
 21
97.259
  0
LINE
  8
0
 10
-27.938
 11
-28.014
 20
97.259
 21
97.379
  0
LINE
  8
0
 10
-28.014
 11
-28.074
 20
97.379
 21
97.507
  0
LINE
  8
0
 10
-28.074
 11
-28.118
 20
97.507
 21
97.642
  0
LINE
  8
0
 10
-28.118
 11
-28.145
 20
97.642
 21
97.782
  0
LINE
  8
0
 10
-28.145
 11
-28.154
 20
97.782
 21
97.923
  0
LINE
  8
0
 10
-18.85
 11
-18.85
 20
-104.95
 21
-101.6
  0
LINE
  8
0
 10
-18.85
 11
-11.85
 20
-101.6
 21
-101.6
  0
LINE
  8
0
 10
-11.85
 11
-11.85
 20
-101.6
 21
-104.95
  0
LINE
  8
0
 10
-11.85
 11
-18.85
 20
-104.95
 21
-104.95
  0
LINE
  8
0
 10
-18.85
 11
-18.85
 20
101.6
 21
104.95
  0
LINE
  8
0
 10
-18.85
 11
-11.85
 20
104.95
 21
104.95
  0
LINE
  8
0
 10
-11.85
 11
-11.85
 20
104.95
 21
101.6
  0
LINE
  8
0
 10
-11.85
 11
-18.85
 20
101.6
 21
101.6
  0
LINE
  8
0
 10
-3
 11
-3
 20
-80.9
 21
-76.9
  0
LINE
  8
0
 10
-3
 11
3
 20
-76.9
 21
-76.9
  0
LINE
  8
0
 10
3
 11
3
 20
-76.9
 21
-80.9
  0
LINE
  8
0
 10
3
 11
-3
 20
-80.9
 21
-80.9
  0
LINE
  8
0
 10
11.85
 11
11.85
 20
-104.95
 21
-101.6
  0
LINE
  8
0
 10
11.85
 11
18.85
 20
-101.6
 21
-101.6
  0
LINE
  8
0
 10
18.85
 11
18.85
 20
-101.6
 21
-104.95
  0
LINE
  8
0
 10
18.85
 11
11.85
 20
-104.95
 21
-104.95
  0
LINE
  8
0
 10
11.85
 11
11.85
 20
101.6
 21
104.95
  0
LINE
  8
0
 10
11.85
 11
18.85
 20
104.95
 21
104.95
  0
LINE
  8
0
 10
18.85
 11
18.85
 20
104.95
 21
101.6
  0
LINE
  8
0
 10
18.85
 11
11.85
 20
101.6
 21
101.6
  0
LINE
  8
0
 10
25.893
 11
25.902
 20
-97.923
 21
-97.782
  0
LINE
  8
0
 10
25.902
 11
25.929
 20
-97.782
 21
-97.642
  0
LINE
  8
0
 10
25.929
 11
25.972
 20
-97.642
 21
-97.507
  0
LINE
  8
0
 10
25.972
 11
26.033
 20
-97.507
 21
-97.379
  0
LINE
  8
0
 10
26.033
 11
26.109
 20
-97.379
 21
-97.259
  0
LINE
  8
0
 10
26.109
 11
26.199
 20
-97.259
 21
-97.15
  0
LINE
  8
0
 10
26.199
 11
26.303
 20
-97.15
 21
-97.052
  0
LINE
  8
0
 10
26.303
 11
26.418
 20
-97.052
 21
-96.969
  0
LINE
  8
0
 10
26.418
 11
26.542
 20
-96.969
 21
-96.901
  0
LINE
  8
0
 10
26.542
 11
26.674
 20
-96.901
 21
-96.848
  0
LINE
  8
0
 10
26.674
 11
26.812
 20
-96.848
 21
-96.813
  0
LINE
  8
0
 10
26.812
 11
26.952
 20
-96.813
 21
-96.795
  0
LINE
  8
0
 10
26.952
 11
27.094
 20
-96.795
 21
-96.795
  0
LINE
  8
0
 10
27.094
 11
27.235
 20
-96.795
 21
-96.813
  0
LINE
  8
0
 10
27.235
 11
27.373
 20
-96.813
 21
-96.848
  0
LINE
  8
0
 10
27.373
 11
27.505
 20
-96.848
 21
-96.901
  0
LINE
  8
0
 10
27.505
 11
27.629
 20
-96.901
 21
-96.969
  0
LINE
  8
0
 10
27.629
 11
27.744
 20
-96.969
 21
-97.052
  0
LINE
  8
0
 10
27.744
 11
27.847
 20
-97.052
 21
-97.15
  0
LINE
  8
0
 10
27.847
 11
27.938
 20
-97.15
 21
-97.259
  0
LINE
  8
0
 10
27.938
 11
28.014
 20
-97.259
 21
-97.379
  0
LINE
  8
0
 10
28.014
 11
28.074
 20
-97.379
 21
-97.507
  0
LINE
  8
0
 10
28.074
 11
28.118
 20
-97.507
 21
-97.642
  0
LINE
  8
0
 10
28.118
 11
28.145
 20
-97.642
 21
-97.782
  0
LINE
  8
0
 10
28.145
 11
28.154
 20
-97.782
 21
-97.923
  0
LINE
  8
0
 10
28.154
 11
28.145
 20
-97.923
 21
-98.065
  0
LINE
  8
0
 10
28.145
 11
28.118
 20
-98.065
 21
-98.204
  0
LINE
  8
0
 10
28.118
 11
28.074
 20
-98.204
 21
-98.339
  0
LINE
  8
0
 10
28.074
 11
28.014
 20
-98.339
 21
-98.468
  0
LINE
  8
0
 10
28.014
 11
27.938
 20
-98.468
 21
-98.588
  0
LINE
  8
0
 10
27.938
 11
27.847
 20
-98.588
 21
-98.697
  0
LINE
  8
0
 10
27.847
 11
27.744
 20
-98.697
 21
-98.794
  0
LINE
  8
0
 10
27.744
 11
27.629
 20
-98.794
 21
-98.878
  0
LINE
  8
0
 10
27.629
 11
27.505
 20
-98.878
 21
-98.946
  0
LINE
  8
0
 10
27.505
 11
27.373
 20
-98.946
 21
-98.998
  0
LINE
  8
0
 10
27.373
 11
27.235
 20
-98.998
 21
-99.034
  0
LINE
  8
0
 10
27.235
 11
27.094
 20
-99.034
 21
-99.051
  0
LINE
  8
0
 10
27.094
 11
26.952
 20
-99.051
 21
-99.051
  0
LINE
  8
0
 10
26.952
 11
26.812
 20
-99.051
 21
-99.034
  0
LINE
  8
0
 10
26.812
 11
26.674
 20
-99.034
 21
-98.998
  0
LINE
  8
0
 10
26.674
 11
26.542
 20
-98.998
 21
-98.946
  0
LINE
  8
0
 10
26.542
 11
26.418
 20
-98.946
 21
-98.878
  0
LINE
  8
0
 10
26.418
 11
26.303
 20
-98.878
 21
-98.794
  0
LINE
  8
0
 10
26.303
 11
26.199
 20
-98.794
 21
-98.697
  0
LINE
  8
0
 10
26.199
 11
26.109
 20
-98.697
 21
-98.588
  0
LINE
  8
0
 10
26.109
 11
26.033
 20
-98.588
 21
-98.468
  0
LINE
  8
0
 10
26.033
 11
25.972
 20
-98.468
 21
-98.339
  0
LINE
  8
0
 10
25.972
 11
25.929
 20
-98.339
 21
-98.204
  0
LINE
  8
0
 10
25.929
 11
25.902
 20
-98.204
 21
-98.065
  0
LINE
  8
0
 10
25.902
 11
25.893
 20
-98.065
 21
-97.923
  0
LINE
  8
0
 10
25.893
 11
25.902
 20
97.923
 21
98.065
  0
LINE
  8
0
 10
25.902
 11
25.929
 20
98.065
 21
98.204
  0
LINE
  8
0
 10
25.929
 11
25.972
 20
98.204
 21
98.339
  0
LINE
  8
0
 10
25.972
 11
26.033
 20
98.339
 21
98.468
  0
LINE
  8
0
 10
26.033
 11
26.109
 20
98.468
 21
98.588
  0
LINE
  8
0
 10
26.109
 11
26.199
 20
98.588
 21
98.697
  0
LINE
  8
0
 10
26.199
 11
26.303
 20
98.697
 21
98.794
  0
LINE
  8
0
 10
26.303
 11
26.418
 20
98.794
 21
98.878
  0
LINE
  8
0
 10
26.418
 11
26.542
 20
98.878
 21
98.946
  0
LINE
  8
0
 10
26.542
 11
26.674
 20
98.946
 21
98.998
  0
LINE
  8
0
 10
26.674
 11
26.812
 20
98.998
 21
99.034
  0
LINE
  8
0
 10
26.812
 11
26.952
 20
99.034
 21
99.051
  0
LINE
  8
0
 10
26.952
 11
27.094
 20
99.051
 21
99.051
  0
LINE
  8
0
 10
27.094
 11
27.235
 20
99.051
 21
99.034
  0
LINE
  8
0
 10
27.235
 11
27.373
 20
99.034
 21
98.998
  0
LINE
  8
0
 10
27.373
 11
27.505
 20
98.998
 21
98.946
  0
LINE
  8
0
 10
27.505
 11
27.629
 20
98.946
 21
98.878
  0
LINE
  8
0
 10
27.629
 11
27.744
 20
98.878
 21
98.794
  0
LINE
  8
0
 10
27.744
 11
27.847
 20
98.794
 21
98.697
  0
LINE
  8
0
 10
27.847
 11
27.938
 20
98.697
 21
98.588
  0
LINE
  8
0
 10
27.938
 11
28.014
 20
98.588
 21
98.468
  0
LINE
  8
0
 10
28.014
 11
28.074
 20
98.468
 21
98.339
  0
LINE
  8
0
 10
28.074
 11
28.118
 20
98.339
 21
98.204
  0
LINE
  8
0
 10
28.118
 11
28.145
 20
98.204
 21
98.065
  0
LINE
  8
0
 10
28.145
 11
28.154
 20
98.065
 21
97.923
  0
LINE
  8
0
 10
28.154
 11
28.145
 20
97.923
 21
97.782
  0
LINE
  8
0
 10
28.145
 11
28.118
 20
97.782
 21
97.642
  0
LINE
  8
0
 10
28.118
 11
28.074
 20
97.642
 21
97.507
  0
LINE
  8
0
 10
28.074
 11
28.014
 20
97.507
 21
97.379
  0
LINE
  8
0
 10
28.014
 11
27.938
 20
97.379
 21
97.259
  0
LINE
  8
0
 10
27.938
 11
27.847
 20
97.259
 21
97.15
  0
LINE
  8
0
 10
27.847
 11
27.744
 20
97.15
 21
97.052
  0
LINE
  8
0
 10
27.744
 11
27.629
 20
97.052
 21
96.969
  0
LINE
  8
0
 10
27.629
 11
27.505
 20
96.969
 21
96.901
  0
LINE
  8
0
 10
27.505
 11
27.373
 20
96.901
 21
96.848
  0
LINE
  8
0
 10
27.373
 11
27.235
 20
96.848
 21
96.813
  0
LINE
  8
0
 10
27.235
 11
27.094
 20
96.813
 21
96.795
  0
LINE
  8
0
 10
27.094
 11
26.952
 20
96.795
 21
96.795
  0
LINE
  8
0
 10
26.952
 11
26.812
 20
96.795
 21
96.813
  0
LINE
  8
0
 10
26.812
 11
26.674
 20
96.813
 21
96.848
  0
LINE
  8
0
 10
26.674
 11
26.542
 20
96.848
 21
96.901
  0
LINE
  8
0
 10
26.542
 11
26.418
 20
96.901
 21
96.969
  0
LINE
  8
0
 10
26.418
 11
26.303
 20
96.969
 21
97.052
  0
LINE
  8
0
 10
26.303
 11
26.199
 20
97.052
 21
97.15
  0
LINE
  8
0
 10
26.199
 11
26.109
 20
97.15
 21
97.259
  0
LINE
  8
0
 10
26.109
 11
26.033
 20
97.259
 21
97.379
  0
LINE
  8
0
 10
26.033
 11
25.972
 20
97.379
 21
97.507
  0
LINE
  8
0
 10
25.972
 11
25.929
 20
97.507
 21
97.642
  0
LINE
  8
0
 10
25.929
 11
25.902
 20
97.642
 21
97.782
  0
LINE
  8
0
 10
25.902
 11
25.893
 20
97.782
 21
97.923
  0
LINE
  8
0
 10
27.146
 11
27.152
 20
-86.36
 21
-86.258
  0
LINE
  8
0
 10
27.152
 11
27.172
 20
-86.258
 21
-86.158
  0
LINE
  8
0
 10
27.172
 11
27.203
 20
-86.158
 21
-86.06
  0
LINE
  8
0
 10
27.203
 11
27.247
 20
-86.06
 21
-85.968
  0
LINE
  8
0
 10
27.247
 11
27.301
 20
-85.968
 21
-85.882
  0
LINE
  8
0
 10
27.301
 11
27.367
 20
-85.882
 21
-85.803
  0
LINE
  8
0
 10
27.367
 11
27.441
 20
-85.803
 21
-85.733
  0
LINE
  8
0
 10
27.441
 11
27.524
 20
-85.733
 21
-85.673
  0
LINE
  8
0
 10
27.524
 11
27.613
 20
-85.673
 21
-85.623
  0
LINE
  8
0
 10
27.613
 11
27.708
 20
-85.623
 21
-85.586
  0
LINE
  8
0
 10
27.708
 11
27.807
 20
-85.586
 21
-85.56
  0
LINE
  8
0
 10
27.807
 11
27.909
 20
-85.56
 21
-85.548
  0
LINE
  8
0
 10
27.909
 11
28.011
 20
-85.548
 21
-85.548
  0
LINE
  8
0
 10
28.011
 11
28.113
 20
-85.548
 21
-85.56
  0
LINE
  8
0
 10
28.113
 11
28.212
 20
-85.56
 21
-85.586
  0
LINE
  8
0
 10
28.212
 11
28.307
 20
-85.586
 21
-85.623
  0
LINE
  8
0
 10
28.307
 11
28.396
 20
-85.623
 21
-85.673
  0
LINE
  8
0
 10
28.396
 11
28.479
 20
-85.673
 21
-85.733
  0
LINE
  8
0
 10
28.479
 11
28.553
 20
-85.733
 21
-85.803
  0
LINE
  8
0
 10
28.553
 11
28.619
 20
-85.803
 21
-85.882
  0
LINE
  8
0
 10
28.619
 11
28.673
 20
-85.882
 21
-85.968
  0
LINE
  8
0
 10
28.673
 11
28.717
 20
-85.968
 21
-86.06
  0
LINE
  8
0
 10
28.717
 11
28.748
 20
-86.06
 21
-86.158
  0
LINE
  8
0
 10
28.748
 11
28.768
 20
-86.158
 21
-86.258
  0
LINE
  8
0
 10
28.768
 11
28.774
 20
-86.258
 21
-86.36
  0
LINE
  8
0
 10
28.774
 11
28.768
 20
-86.36
 21
-86.462
  0
LINE
  8
0
 10
28.768
 11
28.748
 20
-86.462
 21
-86.562
  0
LINE
  8
0
 10
28.748
 11
28.717
 20
-86.562
 21
-86.66
  0
LINE
  8
0
 10
28.717
 11
28.673
 20
-86.66
 21
-86.752
  0
LINE
  8
0
 10
28.673
 11
28.619
 20
-86.752
 21
-86.838
  0
LINE
  8
0
 10
28.619
 11
28.553
 20
-86.838
 21
-86.917
  0
LINE
  8
0
 10
28.553
 11
28.479
 20
-86.917
 21
-86.987
  0
LINE
  8
0
 10
28.479
 11
28.396
 20
-86.987
 21
-87.047
  0
LINE
  8
0
 10
28.396
 11
28.307
 20
-87.047
 21
-87.097
  0
LINE
  8
0
 10
28.307
 11
28.212
 20
-87.097
 21
-87.134
  0
LINE
  8
0
 10
28.212
 11
28.113
 20
-87.134
 21
-87.16
  0
LINE
  8
0
 10
28.113
 11
28.011
 20
-87.16
 21
-87.172
  0
LINE
  8
0
 10
28.011
 11
27.909
 20
-87.172
 21
-87.172
  0
LINE
  8
0
 10
27.909
 11
27.807
 20
-87.172
 21
-87.16
  0
LINE
  8
0
 10
27.807
 11
27.708
 20
-87.16
 21
-87.134
  0
LINE
  8
0
 10
27.708
 11
27.613
 20
-87.134
 21
-87.097
  0
LINE
  8
0
 10
27.613
 11
27.524
 20
-87.097
 21
-87.047
  0
LINE
  8
0
 10
27.524
 11
27.441
 20
-87.047
 21
-86.987
  0
LINE
  8
0
 10
27.441
 11
27.367
 20
-86.987
 21
-86.917
  0
LINE
  8
0
 10
27.367
 11
27.303
 20
-86.917
 21
-86.841
  0
LINE
  8
0
 10
27.303
 11
27.247
 20
-86.841
 21
-86.752
  0
LINE
  8
0
 10
27.247
 11
27.203
 20
-86.752
 21
-86.66
  0
LINE
  8
0
 10
27.203
 11
27.172
 20
-86.66
 21
-86.562
  0
LINE
  8
0
 10
27.172
 11
27.152
 20
-86.562
 21
-86.462
  0
LINE
  8
0
 10
27.152
 11
27.146
 20
-86.462
 21
-86.36
  0
LINE
  8
0
 10
27.146
 11
27.152
 20
86.36
 21
86.462
  0
LINE
  8
0
 10
27.152
 11
27.172
 20
86.462
 21
86.562
  0
LINE
  8
0
 10
27.172
 11
27.203
 20
86.562
 21
86.66
  0
LINE
  8
0
 10
27.203
 11
27.247
 20
86.66
 21
86.752
  0
LINE
  8
0
 10
27.247
 11
27.301
 20
86.752
 21
86.838
  0
LINE
  8
0
 10
27.301
 11
27.367
 20
86.838
 21
86.917
  0
LINE
  8
0
 10
27.367
 11
27.441
 20
86.917
 21
86.987
  0
LINE
  8
0
 10
27.441
 11
27.524
 20
86.987
 21
87.047
  0
LINE
  8
0
 10
27.524
 11
27.613
 20
87.047
 21
87.097
  0
LINE
  8
0
 10
27.613
 11
27.708
 20
87.097
 21
87.134
  0
LINE
  8
0
 10
27.708
 11
27.807
 20
87.134
 21
87.16
  0
LINE
  8
0
 10
27.807
 11
27.909
 20
87.16
 21
87.172
  0
LINE
  8
0
 10
27.909
 11
28.011
 20
87.172
 21
87.172
  0
LINE
  8
0
 10
28.011
 11
28.113
 20
87.172
 21
87.16
  0
LINE
  8
0
 10
28.113
 11
28.212
 20
87.16
 21
87.134
  0
LINE
  8
0
 10
28.212
 11
28.307
 20
87.134
 21
87.097
  0
LINE
  8
0
 10
28.307
 11
28.396
 20
87.097
 21
87.047
  0
LINE
  8
0
 10
28.396
 11
28.479
 20
87.047
 21
86.987
  0
LINE
  8
0
 10
28.479
 11
28.553
 20
86.987
 21
86.917
  0
LINE
  8
0
 10
28.553
 11
28.619
 20
86.917
 21
86.838
  0
LINE
  8
0
 10
28.619
 11
28.673
 20
86.838
 21
86.752
  0
LINE
  8
0
 10
28.673
 11
28.717
 20
86.752
 21
86.66
  0
LINE
  8
0
 10
28.717
 11
28.748
 20
86.66
 21
86.562
  0
LINE
  8
0
 10
28.748
 11
28.768
 20
86.562
 21
86.462
  0
LINE
  8
0
 10
28.768
 11
28.774
 20
86.462
 21
86.36
  0
LINE
  8
0
 10
28.774
 11
28.768
 20
86.36
 21
86.258
  0
LINE
  8
0
 10
28.768
 11
28.748
 20
86.258
 21
86.158
  0
LINE
  8
0
 10
28.748
 11
28.717
 20
86.158
 21
86.06
  0
LINE
  8
0
 10
28.717
 11
28.673
 20
86.06
 21
85.968
  0
LINE
  8
0
 10
28.673
 11
28.619
 20
85.968
 21
85.882
  0
LINE
  8
0
 10
28.619
 11
28.553
 20
85.882
 21
85.803
  0
LINE
  8
0
 10
28.553
 11
28.479
 20
85.803
 21
85.733
  0
LINE
  8
0
 10
28.479
 11
28.396
 20
85.733
 21
85.673
  0
LINE
  8
0
 10
28.396
 11
28.307
 20
85.673
 21
85.623
  0
LINE
  8
0
 10
28.307
 11
28.212
 20
85.623
 21
85.586
  0
LINE
  8
0
 10
28.212
 11
28.113
 20
85.586
 21
85.56
  0
LINE
  8
0
 10
28.113
 11
28.011
 20
85.56
 21
85.548
  0
LINE
  8
0
 10
28.011
 11
27.909
 20
85.548
 21
85.548
  0
LINE
  8
0
 10
27.909
 11
27.807
 20
85.548
 21
85.56
  0
LINE
  8
0
 10
27.807
 11
27.708
 20
85.56
 21
85.586
  0
LINE
  8
0
 10
27.708
 11
27.613
 20
85.586
 21
85.623
  0
LINE
  8
0
 10
27.613
 11
27.524
 20
85.623
 21
85.673
  0
LINE
  8
0
 10
27.524
 11
27.441
 20
85.673
 21
85.733
  0
LINE
  8
0
 10
27.441
 11
27.367
 20
85.733
 21
85.803
  0
LINE
  8
0
 10
27.367
 11
27.301
 20
85.803
 21
85.882
  0
LINE
  8
0
 10
27.301
 11
27.247
 20
85.882
 21
85.968
  0
LINE
  8
0
 10
27.247
 11
27.203
 20
85.968
 21
86.06
  0
LINE
  8
0
 10
27.203
 11
27.172
 20
86.06
 21
86.158
  0
LINE
  8
0
 10
27.172
 11
27.152
 20
86.158
 21
86.258
  0
LINE
  8
0
 10
27.152
 11
27.146
 20
86.258
 21
86.36
  0
LINE
  8
0
 10
27.246
 11
27.252
 20
-43.255
 21
-43.153
  0
LINE
  8
0
 10
27.252
 11
27.272
 20
-43.153
 21
-43.053
  0
LINE
  8
0
 10
27.272
 11
27.303
 20
-43.053
 21
-42.955
  0
LINE
  8
0
 10
27.303
 11
27.347
 20
-42.955
 21
-42.863
  0
LINE
  8
0
 10
27.347
 11
27.401
 20
-42.863
 21
-42.777
  0
LINE
  8
0
 10
27.401
 11
27.467
 20
-42.777
 21
-42.698
  0
LINE
  8
0
 10
27.467
 11
27.541
 20
-42.698
 21
-42.628
  0
LINE
  8
0
 10
27.541
 11
27.624
 20
-42.628
 21
-42.568
  0
LINE
  8
0
 10
27.624
 11
27.713
 20
-42.568
 21
-42.518
  0
LINE
  8
0
 10
27.713
 11
27.808
 20
-42.518
 21
-42.481
  0
LINE
  8
0
 10
27.808
 11
27.907
 20
-42.481
 21
-42.455
  0
LINE
  8
0
 10
27.907
 11
28.009
 20
-42.455
 21
-42.443
  0
LINE
  8
0
 10
28.009
 11
28.111
 20
-42.443
 21
-42.443
  0
LINE
  8
0
 10
28.111
 11
28.213
 20
-42.443
 21
-42.455
  0
LINE
  8
0
 10
28.213
 11
28.312
 20
-42.455
 21
-42.481
  0
LINE
  8
0
 10
28.312
 11
28.407
 20
-42.481
 21
-42.518
  0
LINE
  8
0
 10
28.407
 11
28.496
 20
-42.518
 21
-42.568
  0
LINE
  8
0
 10
28.496
 11
28.579
 20
-42.568
 21
-42.628
  0
LINE
  8
0
 10
28.579
 11
28.653
 20
-42.628
 21
-42.698
  0
LINE
  8
0
 10
28.653
 11
28.719
 20
-42.698
 21
-42.777
  0
LINE
  8
0
 10
28.719
 11
28.773
 20
-42.777
 21
-42.863
  0
LINE
  8
0
 10
28.773
 11
28.817
 20
-42.863
 21
-42.955
  0
LINE
  8
0
 10
28.817
 11
28.848
 20
-42.955
 21
-43.053
  0
LINE
  8
0
 10
28.848
 11
28.868
 20
-43.053
 21
-43.153
  0
LINE
  8
0
 10
28.868
 11
28.874
 20
-43.153
 21
-43.255
  0
LINE
  8
0
 10
28.874
 11
28.868
 20
-43.255
 21
-43.357
  0
LINE
  8
0
 10
28.868
 11
28.848
 20
-43.357
 21
-43.457
  0
LINE
  8
0
 10
28.848
 11
28.817
 20
-43.457
 21
-43.555
  0
LINE
  8
0
 10
28.817
 11
28.773
 20
-43.555
 21
-43.647
  0
LINE
  8
0
 10
28.773
 11
28.719
 20
-43.647
 21
-43.733
  0
LINE
  8
0
 10
28.719
 11
28.653
 20
-43.733
 21
-43.812
  0
LINE
  8
0
 10
28.653
 11
28.579
 20
-43.812
 21
-43.882
  0
LINE
  8
0
 10
28.579
 11
28.496
 20
-43.882
 21
-43.942
  0
LINE
  8
0
 10
28.496
 11
28.407
 20
-43.942
 21
-43.992
  0
LINE
  8
0
 10
28.407
 11
28.312
 20
-43.992
 21
-44.029
  0
LINE
  8
0
 10
28.312
 11
28.213
 20
-44.029
 21
-44.055
  0
LINE
  8
0
 10
28.213
 11
28.111
 20
-44.055
 21
-44.067
  0
LINE
  8
0
 10
28.111
 11
28.009
 20
-44.067
 21
-44.067
  0
LINE
  8
0
 10
28.009
 11
27.907
 20
-44.067
 21
-44.055
  0
LINE
  8
0
 10
27.907
 11
27.808
 20
-44.055
 21
-44.029
  0
LINE
  8
0
 10
27.808
 11
27.713
 20
-44.029
 21
-43.992
  0
LINE
  8
0
 10
27.713
 11
27.624
 20
-43.992
 21
-43.942
  0
LINE
  8
0
 10
27.624
 11
27.541
 20
-43.942
 21
-43.882
  0
LINE
  8
0
 10
27.541
 11
27.467
 20
-43.882
 21
-43.812
  0
LINE
  8
0
 10
27.467
 11
27.401
 20
-43.812
 21
-43.733
  0
LINE
  8
0
 10
27.401
 11
27.347
 20
-43.733
 21
-43.647
  0
LINE
  8
0
 10
27.347
 11
27.303
 20
-43.647
 21
-43.555
  0
LINE
  8
0
 10
27.303
 11
27.272
 20
-43.555
 21
-43.457
  0
LINE
  8
0
 10
27.272
 11
27.252
 20
-43.457
 21
-43.357
  0
LINE
  8
0
 10
27.252
 11
27.246
 20
-43.357
 21
-43.255
  0
LINE
  8
0
 10
27.246
 11
27.252
 20
-23.035
 21
-22.933
  0
LINE
  8
0
 10
27.252
 11
27.272
 20
-22.933
 21
-22.833
  0
LINE
  8
0
 10
27.272
 11
27.303
 20
-22.833
 21
-22.735
  0
LINE
  8
0
 10
27.303
 11
27.347
 20
-22.735
 21
-22.643
  0
LINE
  8
0
 10
27.347
 11
27.401
 20
-22.643
 21
-22.557
  0
LINE
  8
0
 10
27.401
 11
27.467
 20
-22.557
 21
-22.478
  0
LINE
  8
0
 10
27.467
 11
27.541
 20
-22.478
 21
-22.408
  0
LINE
  8
0
 10
27.541
 11
27.624
 20
-22.408
 21
-22.348
  0
LINE
  8
0
 10
27.624
 11
27.713
 20
-22.348
 21
-22.298
  0
LINE
  8
0
 10
27.713
 11
27.808
 20
-22.298
 21
-22.261
  0
LINE
  8
0
 10
27.808
 11
27.907
 20
-22.261
 21
-22.235
  0
LINE
  8
0
 10
27.907
 11
28.009
 20
-22.235
 21
-22.223
  0
LINE
  8
0
 10
28.009
 11
28.111
 20
-22.223
 21
-22.223
  0
LINE
  8
0
 10
28.111
 11
28.213
 20
-22.223
 21
-22.235
  0
LINE
  8
0
 10
28.213
 11
28.312
 20
-22.235
 21
-22.261
  0
LINE
  8
0
 10
28.312
 11
28.407
 20
-22.261
 21
-22.298
  0
LINE
  8
0
 10
28.407
 11
28.496
 20
-22.298
 21
-22.348
  0
LINE
  8
0
 10
28.496
 11
28.579
 20
-22.348
 21
-22.408
  0
LINE
  8
0
 10
28.579
 11
28.653
 20
-22.408
 21
-22.478
  0
LINE
  8
0
 10
28.653
 11
28.719
 20
-22.478
 21
-22.557
  0
LINE
  8
0
 10
28.719
 11
28.773
 20
-22.557
 21
-22.643
  0
LINE
  8
0
 10
28.773
 11
28.817
 20
-22.643
 21
-22.735
  0
LINE
  8
0
 10
28.817
 11
28.848
 20
-22.735
 21
-22.833
  0
LINE
  8
0
 10
28.848
 11
28.868
 20
-22.833
 21
-22.933
  0
LINE
  8
0
 10
28.868
 11
28.874
 20
-22.933
 21
-23.035
  0
LINE
  8
0
 10
28.874
 11
28.868
 20
-23.035
 21
-23.137
  0
LINE
  8
0
 10
28.868
 11
28.848
 20
-23.137
 21
-23.237
  0
LINE
  8
0
 10
28.848
 11
28.817
 20
-23.237
 21
-23.335
  0
LINE
  8
0
 10
28.817
 11
28.773
 20
-23.335
 21
-23.427
  0
LINE
  8
0
 10
28.773
 11
28.719
 20
-23.427
 21
-23.513
  0
LINE
  8
0
 10
28.719
 11
28.653
 20
-23.513
 21
-23.592
  0
LINE
  8
0
 10
28.653
 11
28.579
 20
-23.592
 21
-23.662
  0
LINE
  8
0
 10
28.579
 11
28.496
 20
-23.662
 21
-23.722
  0
LINE
  8
0
 10
28.496
 11
28.407
 20
-23.722
 21
-23.772
  0
LINE
  8
0
 10
28.407
 11
28.312
 20
-23.772
 21
-23.809
  0
LINE
  8
0
 10
28.312
 11
28.213
 20
-23.809
 21
-23.835
  0
LINE
  8
0
 10
28.213
 11
28.111
 20
-23.835
 21
-23.847
  0
LINE
  8
0
 10
28.111
 11
28.009
 20
-23.847
 21
-23.847
  0
LINE
  8
0
 10
28.009
 11
27.907
 20
-23.847
 21
-23.835
  0
LINE
  8
0
 10
27.907
 11
27.808
 20
-23.835
 21
-23.809
  0
LINE
  8
0
 10
27.808
 11
27.713
 20
-23.809
 21
-23.772
  0
LINE
  8
0
 10
27.713
 11
27.624
 20
-23.772
 21
-23.722
  0
LINE
  8
0
 10
27.624
 11
27.541
 20
-23.722
 21
-23.662
  0
LINE
  8
0
 10
27.541
 11
27.467
 20
-23.662
 21
-23.592
  0
LINE
  8
0
 10
27.467
 11
27.401
 20
-23.592
 21
-23.513
  0
LINE
  8
0
 10
27.401
 11
27.347
 20
-23.513
 21
-23.427
  0
LINE
  8
0
 10
27.347
 11
27.303
 20
-23.427
 21
-23.335
  0
LINE
  8
0
 10
27.303
 11
27.272
 20
-23.335
 21
-23.237
  0
LINE
  8
0
 10
27.272
 11
27.252
 20
-23.237
 21
-23.137
  0
LINE
  8
0
 10
27.252
 11
27.246
 20
-23.137
 21
-23.035
  0
LINE
  8
0
 10
27.246
 11
27.252
 20
-17.855
 21
-17.753
  0
LINE
  8
0
 10
27.252
 11
27.272
 20
-17.753
 21
-17.653
  0
LINE
  8
0
 10
27.272
 11
27.303
 20
-17.653
 21
-17.555
  0
LINE
  8
0
 10
27.303
 11
27.347
 20
-17.555
 21
-17.463
  0
LINE
  8
0
 10
27.347
 11
27.401
 20
-17.463
 21
-17.377
  0
LINE
  8
0
 10
27.401
 11
27.467
 20
-17.377
 21
-17.298
  0
LINE
  8
0
 10
27.467
 11
27.541
 20
-17.298
 21
-17.228
  0
LINE
  8
0
 10
27.541
 11
27.624
 20
-17.228
 21
-17.168
  0
LINE
  8
0
 10
27.624
 11
27.713
 20
-17.168
 21
-17.118
  0
LINE
  8
0
 10
27.713
 11
27.808
 20
-17.118
 21
-17.081
  0
LINE
  8
0
 10
27.808
 11
27.907
 20
-17.081
 21
-17.055
  0
LINE
  8
0
 10
27.907
 11
28.009
 20
-17.055
 21
-17.043
  0
LINE
  8
0
 10
28.009
 11
28.111
 20
-17.043
 21
-17.043
  0
LINE
  8
0
 10
28.111
 11
28.213
 20
-17.043
 21
-17.055
  0
LINE
  8
0
 10
28.213
 11
28.312
 20
-17.055
 21
-17.081
  0
LINE
  8
0
 10
28.312
 11
28.407
 20
-17.081
 21
-17.118
  0
LINE
  8
0
 10
28.407
 11
28.496
 20
-17.118
 21
-17.168
  0
LINE
  8
0
 10
28.496
 11
28.579
 20
-17.168
 21
-17.228
  0
LINE
  8
0
 10
28.579
 11
28.653
 20
-17.228
 21
-17.298
  0
LINE
  8
0
 10
28.653
 11
28.719
 20
-17.298
 21
-17.377
  0
LINE
  8
0
 10
28.719
 11
28.773
 20
-17.377
 21
-17.463
  0
LINE
  8
0
 10
28.773
 11
28.817
 20
-17.463
 21
-17.555
  0
LINE
  8
0
 10
28.817
 11
28.848
 20
-17.555
 21
-17.653
  0
LINE
  8
0
 10
28.848
 11
28.868
 20
-17.653
 21
-17.753
  0
LINE
  8
0
 10
28.868
 11
28.874
 20
-17.753
 21
-17.855
  0
LINE
  8
0
 10
28.874
 11
28.868
 20
-17.855
 21
-17.957
  0
LINE
  8
0
 10
28.868
 11
28.848
 20
-17.957
 21
-18.057
  0
LINE
  8
0
 10
28.848
 11
28.817
 20
-18.057
 21
-18.155
  0
LINE
  8
0
 10
28.817
 11
28.773
 20
-18.155
 21
-18.247
  0
LINE
  8
0
 10
28.773
 11
28.719
 20
-18.247
 21
-18.333
  0
LINE
  8
0
 10
28.719
 11
28.653
 20
-18.333
 21
-18.412
  0
LINE
  8
0
 10
28.653
 11
28.579
 20
-18.412
 21
-18.482
  0
LINE
  8
0
 10
28.579
 11
28.496
 20
-18.482
 21
-18.542
  0
LINE
  8
0
 10
28.496
 11
28.407
 20
-18.542
 21
-18.592
  0
LINE
  8
0
 10
28.407
 11
28.312
 20
-18.592
 21
-18.629
  0
LINE
  8
0
 10
28.312
 11
28.213
 20
-18.629
 21
-18.655
  0
LINE
  8
0
 10
28.213
 11
28.111
 20
-18.655
 21
-18.667
  0
LINE
  8
0
 10
28.111
 11
28.009
 20
-18.667
 21
-18.667
  0
LINE
  8
0
 10
28.009
 11
27.907
 20
-18.667
 21
-18.655
  0
LINE
  8
0
 10
27.907
 11
27.808
 20
-18.655
 21
-18.629
  0
LINE
  8
0
 10
27.808
 11
27.713
 20
-18.629
 21
-18.592
  0
LINE
  8
0
 10
27.713
 11
27.624
 20
-18.592
 21
-18.542
  0
LINE
  8
0
 10
27.624
 11
27.541
 20
-18.542
 21
-18.482
  0
LINE
  8
0
 10
27.541
 11
27.467
 20
-18.482
 21
-18.412
  0
LINE
  8
0
 10
27.467
 11
27.401
 20
-18.412
 21
-18.333
  0
LINE
  8
0
 10
27.401
 11
27.347
 20
-18.333
 21
-18.247
  0
LINE
  8
0
 10
27.347
 11
27.303
 20
-18.247
 21
-18.155
  0
LINE
  8
0
 10
27.303
 11
27.272
 20
-18.155
 21
-18.057
  0
LINE
  8
0
 10
27.272
 11
27.252
 20
-18.057
 21
-17.957
  0
LINE
  8
0
 10
27.252
 11
27.246
 20
-17.957
 21
-17.855
  0
LINE
  8
0
 10
27.246
 11
27.252
 20
2.365
 21
2.467
  0
LINE
  8
0
 10
27.252
 11
27.272
 20
2.467
 21
2.567
  0
LINE
  8
0
 10
27.272
 11
27.303
 20
2.567
 21
2.665
  0
LINE
  8
0
 10
27.303
 11
27.347
 20
2.665
 21
2.757
  0
LINE
  8
0
 10
27.347
 11
27.401
 20
2.757
 21
2.843
  0
LINE
  8
0
 10
27.401
 11
27.467
 20
2.843
 21
2.922
  0
LINE
  8
0
 10
27.467
 11
27.541
 20
2.922
 21
2.992
  0
LINE
  8
0
 10
27.541
 11
27.624
 20
2.992
 21
3.052
  0
LINE
  8
0
 10
27.624
 11
27.713
 20
3.052
 21
3.102
  0
LINE
  8
0
 10
27.713
 11
27.808
 20
3.102
 21
3.139
  0
LINE
  8
0
 10
27.808
 11
27.907
 20
3.139
 21
3.165
  0
LINE
  8
0
 10
27.907
 11
28.009
 20
3.165
 21
3.177
  0
LINE
  8
0
 10
28.009
 11
28.111
 20
3.177
 21
3.177
  0
LINE
  8
0
 10
28.111
 11
28.213
 20
3.177
 21
3.165
  0
LINE
  8
0
 10
28.213
 11
28.312
 20
3.165
 21
3.139
  0
LINE
  8
0
 10
28.312
 11
28.407
 20
3.139
 21
3.102
  0
LINE
  8
0
 10
28.407
 11
28.496
 20
3.102
 21
3.052
  0
LINE
  8
0
 10
28.496
 11
28.579
 20
3.052
 21
2.992
  0
LINE
  8
0
 10
28.579
 11
28.653
 20
2.992
 21
2.922
  0
LINE
  8
0
 10
28.653
 11
28.719
 20
2.922
 21
2.843
  0
LINE
  8
0
 10
28.719
 11
28.773
 20
2.843
 21
2.757
  0
LINE
  8
0
 10
28.773
 11
28.817
 20
2.757
 21
2.665
  0
LINE
  8
0
 10
28.817
 11
28.848
 20
2.665
 21
2.567
  0
LINE
  8
0
 10
28.848
 11
28.868
 20
2.567
 21
2.467
  0
LINE
  8
0
 10
28.868
 11
28.874
 20
2.467
 21
2.365
  0
LINE
  8
0
 10
28.874
 11
28.868
 20
2.365
 21
2.263
  0
LINE
  8
0
 10
28.868
 11
28.848
 20
2.263
 21
2.163
  0
LINE
  8
0
 10
28.848
 11
28.817
 20
2.163
 21
2.065
  0
LINE
  8
0
 10
28.817
 11
28.773
 20
2.065
 21
1.973
  0
LINE
  8
0
 10
28.773
 11
28.719
 20
1.973
 21
1.887
  0
LINE
  8
0
 10
28.719
 11
28.653
 20
1.887
 21
1.808
  0
LINE
  8
0
 10
28.653
 11
28.579
 20
1.808
 21
1.738
  0
LINE
  8
0
 10
28.579
 11
28.496
 20
1.738
 21
1.678
  0
LINE
  8
0
 10
28.496
 11
28.407
 20
1.678
 21
1.628
  0
LINE
  8
0
 10
28.407
 11
28.312
 20
1.628
 21
1.591
  0
LINE
  8
0
 10
28.312
 11
28.213
 20
1.591
 21
1.565
  0
LINE
  8
0
 10
28.213
 11
28.111
 20
1.565
 21
1.553
  0
LINE
  8
0
 10
28.111
 11
28.009
 20
1.553
 21
1.553
  0
LINE
  8
0
 10
28.009
 11
27.907
 20
1.553
 21
1.565
  0
LINE
  8
0
 10
27.907
 11
27.808
 20
1.565
 21
1.591
  0
LINE
  8
0
 10
27.808
 11
27.713
 20
1.591
 21
1.628
  0
LINE
  8
0
 10
27.713
 11
27.624
 20
1.628
 21
1.678
  0
LINE
  8
0
 10
27.624
 11
27.541
 20
1.678
 21
1.738
  0
LINE
  8
0
 10
27.541
 11
27.467
 20
1.738
 21
1.808
  0
LINE
  8
0
 10
27.467
 11
27.401
 20
1.808
 21
1.887
  0
LINE
  8
0
 10
27.401
 11
27.347
 20
1.887
 21
1.973
  0
LINE
  8
0
 10
27.347
 11
27.303
 20
1.973
 21
2.065
  0
LINE
  8
0
 10
27.303
 11
27.272
 20
2.065
 21
2.163
  0
LINE
  8
0
 10
27.272
 11
27.252
 20
2.163
 21
2.263
  0
LINE
  8
0
 10
27.252
 11
27.246
 20
2.263
 21
2.365
  0
LINE
  8
0
 10
27.246
 11
27.252
 20
7.545
 21
7.647
  0
LINE
  8
0
 10
27.252
 11
27.272
 20
7.647
 21
7.747
  0
LINE
  8
0
 10
27.272
 11
27.303
 20
7.747
 21
7.845
  0
LINE
  8
0
 10
27.303
 11
27.347
 20
7.845
 21
7.937
  0
LINE
  8
0
 10
27.347
 11
27.401
 20
7.937
 21
8.023
  0
LINE
  8
0
 10
27.401
 11
27.467
 20
8.023
 21
8.102
  0
LINE
  8
0
 10
27.467
 11
27.541
 20
8.102
 21
8.172
  0
LINE
  8
0
 10
27.541
 11
27.624
 20
8.172
 21
8.232
  0
LINE
  8
0
 10
27.624
 11
27.713
 20
8.232
 21
8.282
  0
LINE
  8
0
 10
27.713
 11
27.808
 20
8.282
 21
8.319
  0
LINE
  8
0
 10
27.808
 11
27.907
 20
8.319
 21
8.345
  0
LINE
  8
0
 10
27.907
 11
28.009
 20
8.345
 21
8.357
  0
LINE
  8
0
 10
28.009
 11
28.111
 20
8.357
 21
8.357
  0
LINE
  8
0
 10
28.111
 11
28.213
 20
8.357
 21
8.345
  0
LINE
  8
0
 10
28.213
 11
28.312
 20
8.345
 21
8.319
  0
LINE
  8
0
 10
28.312
 11
28.407
 20
8.319
 21
8.282
  0
LINE
  8
0
 10
28.407
 11
28.496
 20
8.282
 21
8.232
  0
LINE
  8
0
 10
28.496
 11
28.579
 20
8.232
 21
8.172
  0
LINE
  8
0
 10
28.579
 11
28.653
 20
8.172
 21
8.102
  0
LINE
  8
0
 10
28.653
 11
28.719
 20
8.102
 21
8.023
  0
LINE
  8
0
 10
28.719
 11
28.773
 20
8.023
 21
7.937
  0
LINE
  8
0
 10
28.773
 11
28.817
 20
7.937
 21
7.845
  0
LINE
  8
0
 10
28.817
 11
28.848
 20
7.845
 21
7.747
  0
LINE
  8
0
 10
28.848
 11
28.868
 20
7.747
 21
7.647
  0
LINE
  8
0
 10
28.868
 11
28.874
 20
7.647
 21
7.545
  0
LINE
  8
0
 10
28.874
 11
28.868
 20
7.545
 21
7.443
  0
LINE
  8
0
 10
28.868
 11
28.848
 20
7.443
 21
7.343
  0
LINE
  8
0
 10
28.848
 11
28.817
 20
7.343
 21
7.245
  0
LINE
  8
0
 10
28.817
 11
28.773
 20
7.245
 21
7.153
  0
LINE
  8
0
 10
28.773
 11
28.719
 20
7.153
 21
7.067
  0
LINE
  8
0
 10
28.719
 11
28.653
 20
7.067
 21
6.988
  0
LINE
  8
0
 10
28.653
 11
28.579
 20
6.988
 21
6.918
  0
LINE
  8
0
 10
28.579
 11
28.496
 20
6.918
 21
6.858
  0
LINE
  8
0
 10
28.496
 11
28.407
 20
6.858
 21
6.808
  0
LINE
  8
0
 10
28.407
 11
28.312
 20
6.808
 21
6.771
  0
LINE
  8
0
 10
28.312
 11
28.213
 20
6.771
 21
6.745
  0
LINE
  8
0
 10
28.213
 11
28.111
 20
6.745
 21
6.733
  0
LINE
  8
0
 10
28.111
 11
28.009
 20
6.733
 21
6.733
  0
LINE
  8
0
 10
28.009
 11
27.907
 20
6.733
 21
6.745
  0
LINE
  8
0
 10
27.907
 11
27.808
 20
6.745
 21
6.771
  0
LINE
  8
0
 10
27.808
 11
27.713
 20
6.771
 21
6.808
  0
LINE
  8
0
 10
27.713
 11
27.624
 20
6.808
 21
6.858
  0
LINE
  8
0
 10
27.624
 11
27.541
 20
6.858
 21
6.918
  0
LINE
  8
0
 10
27.541
 11
27.467
 20
6.918
 21
6.988
  0
LINE
  8
0
 10
27.467
 11
27.401
 20
6.988
 21
7.067
  0
LINE
  8
0
 10
27.401
 11
27.347
 20
7.067
 21
7.153
  0
LINE
  8
0
 10
27.347
 11
27.303
 20
7.153
 21
7.245
  0
LINE
  8
0
 10
27.303
 11
27.272
 20
7.245
 21
7.343
  0
LINE
  8
0
 10
27.272
 11
27.252
 20
7.343
 21
7.443
  0
LINE
  8
0
 10
27.252
 11
27.246
 20
7.443
 21
7.545
  0
LINE
  8
0
 10
27.246
 11
27.252
 20
27.765
 21
27.867
  0
LINE
  8
0
 10
27.252
 11
27.272
 20
27.867
 21
27.967
  0
LINE
  8
0
 10
27.272
 11
27.303
 20
27.967
 21
28.065
  0
LINE
  8
0
 10
27.303
 11
27.347
 20
28.065
 21
28.157
  0
LINE
  8
0
 10
27.347
 11
27.401
 20
28.157
 21
28.243
  0
LINE
  8
0
 10
27.401
 11
27.467
 20
28.243
 21
28.322
  0
LINE
  8
0
 10
27.467
 11
27.541
 20
28.322
 21
28.392
  0
LINE
  8
0
 10
27.541
 11
27.624
 20
28.392
 21
28.452
  0
LINE
  8
0
 10
27.624
 11
27.713
 20
28.452
 21
28.502
  0
LINE
  8
0
 10
27.713
 11
27.808
 20
28.502
 21
28.539
  0
LINE
  8
0
 10
27.808
 11
27.907
 20
28.539
 21
28.565
  0
LINE
  8
0
 10
27.907
 11
28.009
 20
28.565
 21
28.577
  0
LINE
  8
0
 10
28.009
 11
28.111
 20
28.577
 21
28.577
  0
LINE
  8
0
 10
28.111
 11
28.213
 20
28.577
 21
28.565
  0
LINE
  8
0
 10
28.213
 11
28.312
 20
28.565
 21
28.539
  0
LINE
  8
0
 10
28.312
 11
28.407
 20
28.539
 21
28.502
  0
LINE
  8
0
 10
28.407
 11
28.496
 20
28.502
 21
28.452
  0
LINE
  8
0
 10
28.496
 11
28.579
 20
28.452
 21
28.392
  0
LINE
  8
0
 10
28.579
 11
28.653
 20
28.392
 21
28.322
  0
LINE
  8
0
 10
28.653
 11
28.719
 20
28.322
 21
28.243
  0
LINE
  8
0
 10
28.719
 11
28.773
 20
28.243
 21
28.157
  0
LINE
  8
0
 10
28.773
 11
28.817
 20
28.157
 21
28.065
  0
LINE
  8
0
 10
28.817
 11
28.848
 20
28.065
 21
27.967
  0
LINE
  8
0
 10
28.848
 11
28.868
 20
27.967
 21
27.867
  0
LINE
  8
0
 10
28.868
 11
28.874
 20
27.867
 21
27.765
  0
LINE
  8
0
 10
28.874
 11
28.868
 20
27.765
 21
27.663
  0
LINE
  8
0
 10
28.868
 11
28.848
 20
27.663
 21
27.563
  0
LINE
  8
0
 10
28.848
 11
28.817
 20
27.563
 21
27.465
  0
LINE
  8
0
 10
28.817
 11
28.773
 20
27.465
 21
27.373
  0
LINE
  8
0
 10
28.773
 11
28.719
 20
27.373
 21
27.287
  0
LINE
  8
0
 10
28.719
 11
28.653
 20
27.287
 21
27.208
  0
LINE
  8
0
 10
28.653
 11
28.579
 20
27.208
 21
27.138
  0
LINE
  8
0
 10
28.579
 11
28.496
 20
27.138
 21
27.078
  0
LINE
  8
0
 10
28.496
 11
28.407
 20
27.078
 21
27.028
  0
LINE
  8
0
 10
28.407
 11
28.312
 20
27.028
 21
26.991
  0
LINE
  8
0
 10
28.312
 11
28.213
 20
26.991
 21
26.965
  0
LINE
  8
0
 10
28.213
 11
28.111
 20
26.965
 21
26.953
  0
LINE
  8
0
 10
28.111
 11
28.009
 20
26.953
 21
26.953
  0
LINE
  8
0
 10
28.009
 11
27.907
 20
26.953
 21
26.965
  0
LINE
  8
0
 10
27.907
 11
27.808
 20
26.965
 21
26.991
  0
LINE
  8
0
 10
27.808
 11
27.713
 20
26.991
 21
27.028
  0
LINE
  8
0
 10
27.713
 11
27.624
 20
27.028
 21
27.078
  0
LINE
  8
0
 10
27.624
 11
27.541
 20
27.078
 21
27.138
  0
LINE
  8
0
 10
27.541
 11
27.467
 20
27.138
 21
27.208
  0
LINE
  8
0
 10
27.467
 11
27.401
 20
27.208
 21
27.287
  0
LINE
  8
0
 10
27.401
 11
27.347
 20
27.287
 21
27.373
  0
LINE
  8
0
 10
27.347
 11
27.303
 20
27.373
 21
27.465
  0
LINE
  8
0
 10
27.303
 11
27.272
 20
27.465
 21
27.563
  0
LINE
  8
0
 10
27.272
 11
27.252
 20
27.563
 21
27.663
  0
LINE
  8
0
 10
27.252
 11
27.246
 20
27.663
 21
27.765
  0
LINE
  8
0
 10
27.246
 11
27.252
 20
32.945
 21
33.047
  0
LINE
  8
0
 10
27.252
 11
27.272
 20
33.047
 21
33.147
  0
LINE
  8
0
 10
27.272
 11
27.303
 20
33.147
 21
33.245
  0
LINE
  8
0
 10
27.303
 11
27.347
 20
33.245
 21
33.337
  0
LINE
  8
0
 10
27.347
 11
27.401
 20
33.337
 21
33.423
  0
LINE
  8
0
 10
27.401
 11
27.467
 20
33.423
 21
33.502
  0
LINE
  8
0
 10
27.467
 11
27.541
 20
33.502
 21
33.572
  0
LINE
  8
0
 10
27.541
 11
27.624
 20
33.572
 21
33.632
  0
LINE
  8
0
 10
27.624
 11
27.713
 20
33.632
 21
33.682
  0
LINE
  8
0
 10
27.713
 11
27.808
 20
33.682
 21
33.719
  0
LINE
  8
0
 10
27.808
 11
27.907
 20
33.719
 21
33.745
  0
LINE
  8
0
 10
27.907
 11
28.009
 20
33.745
 21
33.757
  0
LINE
  8
0
 10
28.009
 11
28.111
 20
33.757
 21
33.757
  0
LINE
  8
0
 10
28.111
 11
28.213
 20
33.757
 21
33.745
  0
LINE
  8
0
 10
28.213
 11
28.312
 20
33.745
 21
33.719
  0
LINE
  8
0
 10
28.312
 11
28.407
 20
33.719
 21
33.682
  0
LINE
  8
0
 10
28.407
 11
28.496
 20
33.682
 21
33.632
  0
LINE
  8
0
 10
28.496
 11
28.579
 20
33.632
 21
33.572
  0
LINE
  8
0
 10
28.579
 11
28.653
 20
33.572
 21
33.502
  0
LINE
  8
0
 10
28.653
 11
28.719
 20
33.502
 21
33.423
  0
LINE
  8
0
 10
28.719
 11
28.773
 20
33.423
 21
33.337
  0
LINE
  8
0
 10
28.773
 11
28.817
 20
33.337
 21
33.245
  0
LINE
  8
0
 10
28.817
 11
28.848
 20
33.245
 21
33.147
  0
LINE
  8
0
 10
28.848
 11
28.868
 20
33.147
 21
33.047
  0
LINE
  8
0
 10
28.868
 11
28.874
 20
33.047
 21
32.945
  0
LINE
  8
0
 10
28.874
 11
28.868
 20
32.945
 21
32.843
  0
LINE
  8
0
 10
28.868
 11
28.848
 20
32.843
 21
32.743
  0
LINE
  8
0
 10
28.848
 11
28.817
 20
32.743
 21
32.645
  0
LINE
  8
0
 10
28.817
 11
28.773
 20
32.645
 21
32.553
  0
LINE
  8
0
 10
28.773
 11
28.719
 20
32.553
 21
32.467
  0
LINE
  8
0
 10
28.719
 11
28.653
 20
32.467
 21
32.388
  0
LINE
  8
0
 10
28.653
 11
28.579
 20
32.388
 21
32.318
  0
LINE
  8
0
 10
28.579
 11
28.496
 20
32.318
 21
32.258
  0
LINE
  8
0
 10
28.496
 11
28.407
 20
32.258
 21
32.208
  0
LINE
  8
0
 10
28.407
 11
28.312
 20
32.208
 21
32.171
  0
LINE
  8
0
 10
28.312
 11
28.213
 20
32.171
 21
32.145
  0
LINE
  8
0
 10
28.213
 11
28.111
 20
32.145
 21
32.133
  0
LINE
  8
0
 10
28.111
 11
28.009
 20
32.133
 21
32.133
  0
LINE
  8
0
 10
28.009
 11
27.907
 20
32.133
 21
32.145
  0
LINE
  8
0
 10
27.907
 11
27.808
 20
32.145
 21
32.171
  0
LINE
  8
0
 10
27.808
 11
27.713
 20
32.171
 21
32.208
  0
LINE
  8
0
 10
27.713
 11
27.624
 20
32.208
 21
32.258
  0
LINE
  8
0
 10
27.624
 11
27.541
 20
32.258
 21
32.318
  0
LINE
  8
0
 10
27.541
 11
27.467
 20
32.318
 21
32.388
  0
LINE
  8
0
 10
27.467
 11
27.401
 20
32.388
 21
32.467
  0
LINE
  8
0
 10
27.401
 11
27.347
 20
32.467
 21
32.553
  0
LINE
  8
0
 10
27.347
 11
27.303
 20
32.553
 21
32.645
  0
LINE
  8
0
 10
27.303
 11
27.272
 20
32.645
 21
32.743
  0
LINE
  8
0
 10
27.272
 11
27.252
 20
32.743
 21
32.843
  0
LINE
  8
0
 10
27.252
 11
27.246
 20
32.843
 21
32.945
  0
LINE
  8
0
 10
27.246
 11
27.252
 20
53.165
 21
53.267
  0
LINE
  8
0
 10
27.252
 11
27.272
 20
53.267
 21
53.367
  0
LINE
  8
0
 10
27.272
 11
27.303
 20
53.367
 21
53.465
  0
LINE
  8
0
 10
27.303
 11
27.347
 20
53.465
 21
53.557
  0
LINE
  8
0
 10
27.347
 11
27.401
 20
53.557
 21
53.643
  0
LINE
  8
0
 10
27.401
 11
27.467
 20
53.643
 21
53.722
  0
LINE
  8
0
 10
27.467
 11
27.541
 20
53.722
 21
53.792
  0
LINE
  8
0
 10
27.541
 11
27.624
 20
53.792
 21
53.852
  0
LINE
  8
0
 10
27.624
 11
27.713
 20
53.852
 21
53.902
  0
LINE
  8
0
 10
27.713
 11
27.808
 20
53.902
 21
53.939
  0
LINE
  8
0
 10
27.808
 11
27.907
 20
53.939
 21
53.965
  0
LINE
  8
0
 10
27.907
 11
28.009
 20
53.965
 21
53.977
  0
LINE
  8
0
 10
28.009
 11
28.111
 20
53.977
 21
53.977
  0
LINE
  8
0
 10
28.111
 11
28.213
 20
53.977
 21
53.965
  0
LINE
  8
0
 10
28.213
 11
28.312
 20
53.965
 21
53.939
  0
LINE
  8
0
 10
28.312
 11
28.407
 20
53.939
 21
53.902
  0
LINE
  8
0
 10
28.407
 11
28.496
 20
53.902
 21
53.852
  0
LINE
  8
0
 10
28.496
 11
28.579
 20
53.852
 21
53.792
  0
LINE
  8
0
 10
28.579
 11
28.653
 20
53.792
 21
53.722
  0
LINE
  8
0
 10
28.653
 11
28.719
 20
53.722
 21
53.643
  0
LINE
  8
0
 10
28.719
 11
28.773
 20
53.643
 21
53.557
  0
LINE
  8
0
 10
28.773
 11
28.817
 20
53.557
 21
53.465
  0
LINE
  8
0
 10
28.817
 11
28.848
 20
53.465
 21
53.367
  0
LINE
  8
0
 10
28.848
 11
28.868
 20
53.367
 21
53.267
  0
LINE
  8
0
 10
28.868
 11
28.874
 20
53.267
 21
53.165
  0
LINE
  8
0
 10
28.874
 11
28.868
 20
53.165
 21
53.063
  0
LINE
  8
0
 10
28.868
 11
28.848
 20
53.063
 21
52.963
  0
LINE
  8
0
 10
28.848
 11
28.817
 20
52.963
 21
52.865
  0
LINE
  8
0
 10
28.817
 11
28.773
 20
52.865
 21
52.773
  0
LINE
  8
0
 10
28.773
 11
28.719
 20
52.773
 21
52.687
  0
LINE
  8
0
 10
28.719
 11
28.653
 20
52.687
 21
52.608
  0
LINE
  8
0
 10
28.653
 11
28.579
 20
52.608
 21
52.538
  0
LINE
  8
0
 10
28.579
 11
28.496
 20
52.538
 21
52.478
  0
LINE
  8
0
 10
28.496
 11
28.407
 20
52.478
 21
52.428
  0
LINE
  8
0
 10
28.407
 11
28.312
 20
52.428
 21
52.391
  0
LINE
  8
0
 10
28.312
 11
28.213
 20
52.391
 21
52.365
  0
LINE
  8
0
 10
28.213
 11
28.111
 20
52.365
 21
52.353
  0
LINE
  8
0
 10
28.111
 11
28.009
 20
52.353
 21
52.353
  0
LINE
  8
0
 10
28.009
 11
27.907
 20
52.353
 21
52.365
  0
LINE
  8
0
 10
27.907
 11
27.808
 20
52.365
 21
52.391
  0
LINE
  8
0
 10
27.808
 11
27.713
 20
52.391
 21
52.428
  0
LINE
  8
0
 10
27.713
 11
27.624
 20
52.428
 21
52.478
  0
LINE
  8
0
 10
27.624
 11
27.541
 20
52.478
 21
52.538
  0
LINE
  8
0
 10
27.541
 11
27.467
 20
52.538
 21
52.608
  0
LINE
  8
0
 10
27.467
 11
27.401
 20
52.608
 21
52.687
  0
LINE
  8
0
 10
27.401
 11
27.347
 20
52.687
 21
52.773
  0
LINE
  8
0
 10
27.347
 11
27.303
 20
52.773
 21
52.865
  0
LINE
  8
0
 10
27.303
 11
27.272
 20
52.865
 21
52.963
  0
LINE
  8
0
 10
27.272
 11
27.252
 20
52.963
 21
53.063
  0
LINE
  8
0
 10
27.252
 11
27.246
 20
53.063
 21
53.165
  0
LINE
  8
0
 10
27.246
 11
27.252
 20
58.345
 21
58.447
  0
LINE
  8
0
 10
27.252
 11
27.272
 20
58.447
 21
58.547
  0
LINE
  8
0
 10
27.272
 11
27.303
 20
58.547
 21
58.645
  0
LINE
  8
0
 10
27.303
 11
27.347
 20
58.645
 21
58.737
  0
LINE
  8
0
 10
27.347
 11
27.401
 20
58.737
 21
58.823
  0
LINE
  8
0
 10
27.401
 11
27.467
 20
58.823
 21
58.902
  0
LINE
  8
0
 10
27.467
 11
27.541
 20
58.902
 21
58.972
  0
LINE
  8
0
 10
27.541
 11
27.624
 20
58.972
 21
59.032
  0
LINE
  8
0
 10
27.624
 11
27.713
 20
59.032
 21
59.082
  0
LINE
  8
0
 10
27.713
 11
27.808
 20
59.082
 21
59.119
  0
LINE
  8
0
 10
27.808
 11
27.907
 20
59.119
 21
59.145
  0
LINE
  8
0
 10
27.907
 11
28.009
 20
59.145
 21
59.157
  0
LINE
  8
0
 10
28.009
 11
28.111
 20
59.157
 21
59.157
  0
LINE
  8
0
 10
28.111
 11
28.213
 20
59.157
 21
59.145
  0
LINE
  8
0
 10
28.213
 11
28.312
 20
59.145
 21
59.119
  0
LINE
  8
0
 10
28.312
 11
28.407
 20
59.119
 21
59.082
  0
LINE
  8
0
 10
28.407
 11
28.496
 20
59.082
 21
59.032
  0
LINE
  8
0
 10
28.496
 11
28.579
 20
59.032
 21
58.972
  0
LINE
  8
0
 10
28.579
 11
28.653
 20
58.972
 21
58.902
  0
LINE
  8
0
 10
28.653
 11
28.719
 20
58.902
 21
58.823
  0
LINE
  8
0
 10
28.719
 11
28.773
 20
58.823
 21
58.737
  0
LINE
  8
0
 10
28.773
 11
28.817
 20
58.737
 21
58.645
  0
LINE
  8
0
 10
28.817
 11
28.848
 20
58.645
 21
58.547
  0
LINE
  8
0
 10
28.848
 11
28.868
 20
58.547
 21
58.447
  0
LINE
  8
0
 10
28.868
 11
28.874
 20
58.447
 21
58.345
  0
LINE
  8
0
 10
28.874
 11
28.868
 20
58.345
 21
58.243
  0
LINE
  8
0
 10
28.868
 11
28.848
 20
58.243
 21
58.143
  0
LINE
  8
0
 10
28.848
 11
28.817
 20
58.143
 21
58.045
  0
LINE
  8
0
 10
28.817
 11
28.773
 20
58.045
 21
57.953
  0
LINE
  8
0
 10
28.773
 11
28.719
 20
57.953
 21
57.867
  0
LINE
  8
0
 10
28.719
 11
28.653
 20
57.867
 21
57.788
  0
LINE
  8
0
 10
28.653
 11
28.579
 20
57.788
 21
57.718
  0
LINE
  8
0
 10
28.579
 11
28.496
 20
57.718
 21
57.658
  0
LINE
  8
0
 10
28.496
 11
28.407
 20
57.658
 21
57.608
  0
LINE
  8
0
 10
28.407
 11
28.312
 20
57.608
 21
57.571
  0
LINE
  8
0
 10
28.312
 11
28.213
 20
57.571
 21
57.545
  0
LINE
  8
0
 10
28.213
 11
28.111
 20
57.545
 21
57.533
  0
LINE
  8
0
 10
28.111
 11
28.009
 20
57.533
 21
57.533
  0
LINE
  8
0
 10
28.009
 11
27.907
 20
57.533
 21
57.545
  0
LINE
  8
0
 10
27.907
 11
27.808
 20
57.545
 21
57.571
  0
LINE
  8
0
 10
27.808
 11
27.713
 20
57.571
 21
57.608
  0
LINE
  8
0
 10
27.713
 11
27.624
 20
57.608
 21
57.658
  0
LINE
  8
0
 10
27.624
 11
27.541
 20
57.658
 21
57.718
  0
LINE
  8
0
 10
27.541
 11
27.467
 20
57.718
 21
57.788
  0
LINE
  8
0
 10
27.467
 11
27.401
 20
57.788
 21
57.867
  0
LINE
  8
0
 10
27.401
 11
27.347
 20
57.867
 21
57.953
  0
LINE
  8
0
 10
27.347
 11
27.303
 20
57.953
 21
58.045
  0
LINE
  8
0
 10
27.303
 11
27.272
 20
58.045
 21
58.143
  0
LINE
  8
0
 10
27.272
 11
27.252
 20
58.143
 21
58.243
  0
LINE
  8
0
 10
27.252
 11
27.246
 20
58.243
 21
58.345
  0
LINE
  8
0
 10
27.246
 11
27.252
 20
78.565
 21
78.667
  0
LINE
  8
0
 10
27.252
 11
27.272
 20
78.667
 21
78.767
  0
LINE
  8
0
 10
27.272
 11
27.303
 20
78.767
 21
78.865
  0
LINE
  8
0
 10
27.303
 11
27.347
 20
78.865
 21
78.957
  0
LINE
  8
0
 10
27.347
 11
27.401
 20
78.957
 21
79.043
  0
LINE
  8
0
 10
27.401
 11
27.467
 20
79.043
 21
79.122
  0
LINE
  8
0
 10
27.467
 11
27.541
 20
79.122
 21
79.192
  0
LINE
  8
0
 10
27.541
 11
27.624
 20
79.192
 21
79.252
  0
LINE
  8
0
 10
27.624
 11
27.713
 20
79.252
 21
79.302
  0
LINE
  8
0
 10
27.713
 11
27.808
 20
79.302
 21
79.339
  0
LINE
  8
0
 10
27.808
 11
27.907
 20
79.339
 21
79.365
  0
LINE
  8
0
 10
27.907
 11
28.009
 20
79.365
 21
79.377
  0
LINE
  8
0
 10
28.009
 11
28.111
 20
79.377
 21
79.377
  0
LINE
  8
0
 10
28.111
 11
28.213
 20
79.377
 21
79.365
  0
LINE
  8
0
 10
28.213
 11
28.312
 20
79.365
 21
79.339
  0
LINE
  8
0
 10
28.312
 11
28.407
 20
79.339
 21
79.302
  0
LINE
  8
0
 10
28.407
 11
28.496
 20
79.302
 21
79.252
  0
LINE
  8
0
 10
28.496
 11
28.579
 20
79.252
 21
79.192
  0
LINE
  8
0
 10
28.579
 11
28.653
 20
79.192
 21
79.122
  0
LINE
  8
0
 10
28.653
 11
28.719
 20
79.122
 21
79.043
  0
LINE
  8
0
 10
28.719
 11
28.773
 20
79.043
 21
78.957
  0
LINE
  8
0
 10
28.773
 11
28.817
 20
78.957
 21
78.865
  0
LINE
  8
0
 10
28.817
 11
28.848
 20
78.865
 21
78.767
  0
LINE
  8
0
 10
28.848
 11
28.868
 20
78.767
 21
78.667
  0
LINE
  8
0
 10
28.868
 11
28.874
 20
78.667
 21
78.565
  0
LINE
  8
0
 10
28.874
 11
28.868
 20
78.565
 21
78.463
  0
LINE
  8
0
 10
28.868
 11
28.848
 20
78.463
 21
78.363
  0
LINE
  8
0
 10
28.848
 11
28.817
 20
78.363
 21
78.265
  0
LINE
  8
0
 10
28.817
 11
28.773
 20
78.265
 21
78.173
  0
LINE
  8
0
 10
28.773
 11
28.719
 20
78.173
 21
78.087
  0
LINE
  8
0
 10
28.719
 11
28.653
 20
78.087
 21
78.008
  0
LINE
  8
0
 10
28.653
 11
28.579
 20
78.008
 21
77.938
  0
LINE
  8
0
 10
28.579
 11
28.496
 20
77.938
 21
77.878
  0
LINE
  8
0
 10
28.496
 11
28.407
 20
77.878
 21
77.828
  0
LINE
  8
0
 10
28.407
 11
28.312
 20
77.828
 21
77.791
  0
LINE
  8
0
 10
28.312
 11
28.213
 20
77.791
 21
77.765
  0
LINE
  8
0
 10
28.213
 11
28.111
 20
77.765
 21
77.753
  0
LINE
  8
0
 10
28.111
 11
28.009
 20
77.753
 21
77.753
  0
LINE
  8
0
 10
28.009
 11
27.907
 20
77.753
 21
77.765
  0
LINE
  8
0
 10
27.907
 11
27.808
 20
77.765
 21
77.791
  0
LINE
  8
0
 10
27.808
 11
27.713
 20
77.791
 21
77.828
  0
LINE
  8
0
 10
27.713
 11
27.624
 20
77.828
 21
77.878
  0
LINE
  8
0
 10
27.624
 11
27.541
 20
77.878
 21
77.938
  0
LINE
  8
0
 10
27.541
 11
27.467
 20
77.938
 21
78.008
  0
LINE
  8
0
 10
27.467
 11
27.401
 20
78.008
 21
78.087
  0
LINE
  8
0
 10
27.401
 11
27.347
 20
78.087
 21
78.173
  0
LINE
  8
0
 10
27.347
 11
27.303
 20
78.173
 21
78.265
  0
LINE
  8
0
 10
27.303
 11
27.272
 20
78.265
 21
78.363
  0
LINE
  8
0
 10
27.272
 11
27.252
 20
78.363
 21
78.463
  0
LINE
  8
0
 10
27.252
 11
27.246
 20
78.463
 21
78.565
  0
LINE
  8
0
 10
30.7
 11
30.7
 20
-22.391
 21
-15.391
  0
LINE
  8
0
 10
30.7
 11
34.05
 20
-15.391
 21
-15.391
  0
LINE
  8
0
 10
34.05
 11
34.05
 20
-15.391
 21
-22.391
  0
LINE
  8
0
 10
34.05
 11
30.7
 20
-22.391
 21
-22.391
  0
LINE
  8
0
 10
30.7
 11
30.7
 20
53.173
 21
60.173
  0
LINE
  8
0
 10
30.7
 11
34.05
 20
60.173
 21
60.173
  0
LINE
  8
0
 10
34.05
 11
34.05
 20
60.173
 21
53.173
  0
LINE
  8
0
 10
34.05
 11
30.7
 20
53.173
 21
53.173
  0
LINE
  8
0
 10
35.646
 11
35.652
 20
-44.325
 21
-44.223
  0
LINE
  8
0
 10
35.652
 11
35.672
 20
-44.223
 21
-44.123
  0
LINE
  8
0
 10
35.672
 11
35.703
 20
-44.123
 21
-44.025
  0
LINE
  8
0
 10
35.703
 11
35.747
 20
-44.025
 21
-43.933
  0
LINE
  8
0
 10
35.747
 11
35.801
 20
-43.933
 21
-43.847
  0
LINE
  8
0
 10
35.801
 11
35.867
 20
-43.847
 21
-43.768
  0
LINE
  8
0
 10
35.867
 11
35.941
 20
-43.768
 21
-43.698
  0
LINE
  8
0
 10
35.941
 11
36.024
 20
-43.698
 21
-43.638
  0
LINE
  8
0
 10
36.024
 11
36.113
 20
-43.638
 21
-43.588
  0
LINE
  8
0
 10
36.113
 11
36.208
 20
-43.588
 21
-43.551
  0
LINE
  8
0
 10
36.208
 11
36.307
 20
-43.551
 21
-43.525
  0
LINE
  8
0
 10
36.307
 11
36.409
 20
-43.525
 21
-43.513
  0
LINE
  8
0
 10
36.409
 11
36.511
 20
-43.513
 21
-43.513
  0
LINE
  8
0
 10
36.511
 11
36.613
 20
-43.513
 21
-43.525
  0
LINE
  8
0
 10
36.613
 11
36.712
 20
-43.525
 21
-43.551
  0
LINE
  8
0
 10
36.712
 11
36.807
 20
-43.551
 21
-43.588
  0
LINE
  8
0
 10
36.807
 11
36.896
 20
-43.588
 21
-43.638
  0
LINE
  8
0
 10
36.896
 11
36.979
 20
-43.638
 21
-43.698
  0
LINE
  8
0
 10
36.979
 11
37.053
 20
-43.698
 21
-43.768
  0
LINE
  8
0
 10
37.053
 11
37.119
 20
-43.768
 21
-43.847
  0
LINE
  8
0
 10
37.119
 11
37.173
 20
-43.847
 21
-43.933
  0
LINE
  8
0
 10
37.173
 11
37.217
 20
-43.933
 21
-44.025
  0
LINE
  8
0
 10
37.217
 11
37.248
 20
-44.025
 21
-44.123
  0
LINE
  8
0
 10
37.248
 11
37.268
 20
-44.123
 21
-44.223
  0
LINE
  8
0
 10
37.268
 11
37.274
 20
-44.223
 21
-44.325
  0
LINE
  8
0
 10
37.274
 11
37.268
 20
-44.325
 21
-44.427
  0
LINE
  8
0
 10
37.268
 11
37.248
 20
-44.427
 21
-44.527
  0
LINE
  8
0
 10
37.248
 11
37.217
 20
-44.527
 21
-44.625
  0
LINE
  8
0
 10
37.217
 11
37.173
 20
-44.625
 21
-44.717
  0
LINE
  8
0
 10
37.173
 11
37.119
 20
-44.717
 21
-44.803
  0
LINE
  8
0
 10
37.119
 11
37.053
 20
-44.803
 21
-44.882
  0
LINE
  8
0
 10
37.053
 11
36.979
 20
-44.882
 21
-44.952
  0
LINE
  8
0
 10
36.979
 11
36.896
 20
-44.952
 21
-45.012
  0
LINE
  8
0
 10
36.896
 11
36.807
 20
-45.012
 21
-45.062
  0
LINE
  8
0
 10
36.807
 11
36.712
 20
-45.062
 21
-45.099
  0
LINE
  8
0
 10
36.712
 11
36.613
 20
-45.099
 21
-45.125
  0
LINE
  8
0
 10
36.613
 11
36.511
 20
-45.125
 21
-45.137
  0
LINE
  8
0
 10
36.511
 11
36.409
 20
-45.137
 21
-45.137
  0
LINE
  8
0
 10
36.409
 11
36.307
 20
-45.137
 21
-45.125
  0
LINE
  8
0
 10
36.307
 11
36.208
 20
-45.125
 21
-45.099
  0
LINE
  8
0
 10
36.208
 11
36.113
 20
-45.099
 21
-45.062
  0
LINE
  8
0
 10
36.113
 11
36.024
 20
-45.062
 21
-45.012
  0
LINE
  8
0
 10
36.024
 11
35.941
 20
-45.012
 21
-44.952
  0
LINE
  8
0
 10
35.941
 11
35.867
 20
-44.952
 21
-44.882
  0
LINE
  8
0
 10
35.867
 11
35.801
 20
-44.882
 21
-44.803
  0
LINE
  8
0
 10
35.801
 11
35.747
 20
-44.803
 21
-44.717
  0
LINE
  8
0
 10
35.747
 11
35.703
 20
-44.717
 21
-44.625
  0
LINE
  8
0
 10
35.703
 11
35.672
 20
-44.625
 21
-44.527
  0
LINE
  8
0
 10
35.672
 11
35.652
 20
-44.527
 21
-44.427
  0
LINE
  8
0
 10
35.652
 11
35.646
 20
-44.427
 21
-44.325
  0
LINE
  8
0
 10
35.646
 11
35.652
 20
6.35
 21
6.452
  0
LINE
  8
0
 10
35.652
 11
35.672
 20
6.452
 21
6.552
  0
LINE
  8
0
 10
35.672
 11
35.703
 20
6.552
 21
6.65
  0
LINE
  8
0
 10
35.703
 11
35.747
 20
6.65
 21
6.742
  0
LINE
  8
0
 10
35.747
 11
35.801
 20
6.742
 21
6.828
  0
LINE
  8
0
 10
35.801
 11
35.867
 20
6.828
 21
6.907
  0
LINE
  8
0
 10
35.867
 11
35.941
 20
6.907
 21
6.977
  0
LINE
  8
0
 10
35.941
 11
36.024
 20
6.977
 21
7.037
  0
LINE
  8
0
 10
36.024
 11
36.113
 20
7.037
 21
7.087
  0
LINE
  8
0
 10
36.113
 11
36.208
 20
7.087
 21
7.124
  0
LINE
  8
0
 10
36.208
 11
36.307
 20
7.124
 21
7.15
  0
LINE
  8
0
 10
36.307
 11
36.409
 20
7.15
 21
7.162
  0
LINE
  8
0
 10
36.409
 11
36.511
 20
7.162
 21
7.162
  0
LINE
  8
0
 10
36.511
 11
36.613
 20
7.162
 21
7.15
  0
LINE
  8
0
 10
36.613
 11
36.712
 20
7.15
 21
7.124
  0
LINE
  8
0
 10
36.712
 11
36.807
 20
7.124
 21
7.087
  0
LINE
  8
0
 10
36.807
 11
36.896
 20
7.087
 21
7.037
  0
LINE
  8
0
 10
36.896
 11
36.979
 20
7.037
 21
6.977
  0
LINE
  8
0
 10
36.979
 11
37.053
 20
6.977
 21
6.907
  0
LINE
  8
0
 10
37.053
 11
37.119
 20
6.907
 21
6.828
  0
LINE
  8
0
 10
37.119
 11
37.173
 20
6.828
 21
6.742
  0
LINE
  8
0
 10
37.173
 11
37.217
 20
6.742
 21
6.65
  0
LINE
  8
0
 10
37.217
 11
37.248
 20
6.65
 21
6.552
  0
LINE
  8
0
 10
37.248
 11
37.268
 20
6.552
 21
6.452
  0
LINE
  8
0
 10
37.268
 11
37.274
 20
6.452
 21
6.35
  0
LINE
  8
0
 10
37.274
 11
37.268
 20
6.35
 21
6.248
  0
LINE
  8
0
 10
37.268
 11
37.248
 20
6.248
 21
6.148
  0
LINE
  8
0
 10
37.248
 11
37.217
 20
6.148
 21
6.05
  0
LINE
  8
0
 10
37.217
 11
37.173
 20
6.05
 21
5.958
  0
LINE
  8
0
 10
37.173
 11
37.119
 20
5.958
 21
5.872
  0
LINE
  8
0
 10
37.119
 11
37.053
 20
5.872
 21
5.793
  0
LINE
  8
0
 10
37.053
 11
36.979
 20
5.793
 21
5.723
  0
LINE
  8
0
 10
36.979
 11
36.896
 20
5.723
 21
5.663
  0
LINE
  8
0
 10
36.896
 11
36.807
 20
5.663
 21
5.613
  0
LINE
  8
0
 10
36.807
 11
36.712
 20
5.613
 21
5.576
  0
LINE
  8
0
 10
36.712
 11
36.613
 20
5.576
 21
5.55
  0
LINE
  8
0
 10
36.613
 11
36.511
 20
5.55
 21
5.538
  0
LINE
  8
0
 10
36.511
 11
36.409
 20
5.538
 21
5.538
  0
LINE
  8
0
 10
36.409
 11
36.307
 20
5.538
 21
5.55
  0
LINE
  8
0
 10
36.307
 11
36.208
 20
5.55
 21
5.576
  0
LINE
  8
0
 10
36.208
 11
36.113
 20
5.576
 21
5.613
  0
LINE
  8
0
 10
36.113
 11
36.024
 20
5.613
 21
5.663
  0
LINE
  8
0
 10
36.024
 11
35.941
 20
5.663
 21
5.723
  0
LINE
  8
0
 10
35.941
 11
35.867
 20
5.723
 21
5.793
  0
LINE
  8
0
 10
35.867
 11
35.801
 20
5.793
 21
5.872
  0
LINE
  8
0
 10
35.801
 11
35.747
 20
5.872
 21
5.958
  0
LINE
  8
0
 10
35.747
 11
35.703
 20
5.958
 21
6.05
  0
LINE
  8
0
 10
35.703
 11
35.672
 20
6.05
 21
6.148
  0
LINE
  8
0
 10
35.672
 11
35.652
 20
6.148
 21
6.248
  0
LINE
  8
0
 10
35.652
 11
35.646
 20
6.248
 21
6.35
  0
LINE
  8
0
 10
35.646
 11
35.652
 20
57.15
 21
57.252
  0
LINE
  8
0
 10
35.652
 11
35.672
 20
57.252
 21
57.352
  0
LINE
  8
0
 10
35.672
 11
35.703
 20
57.352
 21
57.45
  0
LINE
  8
0
 10
35.703
 11
35.747
 20
57.45
 21
57.542
  0
LINE
  8
0
 10
35.747
 11
35.801
 20
57.542
 21
57.628
  0
LINE
  8
0
 10
35.801
 11
35.867
 20
57.628
 21
57.707
  0
LINE
  8
0
 10
35.867
 11
35.941
 20
57.707
 21
57.777
  0
LINE
  8
0
 10
35.941
 11
36.024
 20
57.777
 21
57.837
  0
LINE
  8
0
 10
36.024
 11
36.113
 20
57.837
 21
57.887
  0
LINE
  8
0
 10
36.113
 11
36.208
 20
57.887
 21
57.924
  0
LINE
  8
0
 10
36.208
 11
36.307
 20
57.924
 21
57.95
  0
LINE
  8
0
 10
36.307
 11
36.409
 20
57.95
 21
57.962
  0
LINE
  8
0
 10
36.409
 11
36.511
 20
57.962
 21
57.962
  0
LINE
  8
0
 10
36.511
 11
36.613
 20
57.962
 21
57.95
  0
LINE
  8
0
 10
36.613
 11
36.712
 20
57.95
 21
57.924
  0
LINE
  8
0
 10
36.712
 11
36.807
 20
57.924
 21
57.887
  0
LINE
  8
0
 10
36.807
 11
36.896
 20
57.887
 21
57.837
  0
LINE
  8
0
 10
36.896
 11
36.979
 20
57.837
 21
57.777
  0
LINE
  8
0
 10
36.979
 11
37.053
 20
57.777
 21
57.707
  0
LINE
  8
0
 10
37.053
 11
37.119
 20
57.707
 21
57.628
  0
LINE
  8
0
 10
37.119
 11
37.173
 20
57.628
 21
57.542
  0
LINE
  8
0
 10
37.173
 11
37.217
 20
57.542
 21
57.45
  0
LINE
  8
0
 10
37.217
 11
37.248
 20
57.45
 21
57.352
  0
LINE
  8
0
 10
37.248
 11
37.268
 20
57.352
 21
57.252
  0
LINE
  8
0
 10
37.268
 11
37.274
 20
57.252
 21
57.15
  0
LINE
  8
0
 10
37.274
 11
37.268
 20
57.15
 21
57.048
  0
LINE
  8
0
 10
37.268
 11
37.248
 20
57.048
 21
56.948
  0
LINE
  8
0
 10
37.248
 11
37.217
 20
56.948
 21
56.85
  0
LINE
  8
0
 10
37.217
 11
37.173
 20
56.85
 21
56.758
  0
LINE
  8
0
 10
37.173
 11
37.119
 20
56.758
 21
56.672
  0
LINE
  8
0
 10
37.119
 11
37.053
 20
56.672
 21
56.593
  0
LINE
  8
0
 10
37.053
 11
36.979
 20
56.593
 21
56.523
  0
LINE
  8
0
 10
36.979
 11
36.896
 20
56.523
 21
56.463
  0
LINE
  8
0
 10
36.896
 11
36.807
 20
56.463
 21
56.413
  0
LINE
  8
0
 10
36.807
 11
36.712
 20
56.413
 21
56.376
  0
LINE
  8
0
 10
36.712
 11
36.613
 20
56.376
 21
56.35
  0
LINE
  8
0
 10
36.613
 11
36.511
 20
56.35
 21
56.338
  0
LINE
  8
0
 10
36.511
 11
36.409
 20
56.338
 21
56.338
  0
LINE
  8
0
 10
36.409
 11
36.307
 20
56.338
 21
56.35
  0
LINE
  8
0
 10
36.307
 11
36.208
 20
56.35
 21
56.376
  0
LINE
  8
0
 10
36.208
 11
36.113
 20
56.376
 21
56.413
  0
LINE
  8
0
 10
36.113
 11
36.024
 20
56.413
 21
56.463
  0
LINE
  8
0
 10
36.024
 11
35.941
 20
56.463
 21
56.523
  0
LINE
  8
0
 10
35.941
 11
35.867
 20
56.523
 21
56.593
  0
LINE
  8
0
 10
35.867
 11
35.801
 20
56.593
 21
56.672
  0
LINE
  8
0
 10
35.801
 11
35.747
 20
56.672
 21
56.758
  0
LINE
  8
0
 10
35.747
 11
35.703
 20
56.758
 21
56.85
  0
LINE
  8
0
 10
35.703
 11
35.672
 20
56.85
 21
56.948
  0
LINE
  8
0
 10
35.672
 11
35.652
 20
56.948
 21
57.048
  0
LINE
  8
0
 10
35.652
 11
35.646
 20
57.048
 21
57.15
  0
LINE
  8
0
 10
42.175
 11
42.195
 20
-32.795
 21
-32.482
  0
LINE
  8
0
 10
42.195
 11
42.254
 20
-32.482
 21
-32.173
  0
LINE
  8
0
 10
42.254
 11
42.351
 20
-32.173
 21
-31.875
  0
LINE
  8
0
 10
42.351
 11
42.484
 20
-31.875
 21
-31.591
  0
LINE
  8
0
 10
42.484
 11
42.652
 20
-31.591
 21
-31.326
  0
LINE
  8
0
 10
42.652
 11
42.853
 20
-31.326
 21
-31.084
  0
LINE
  8
0
 10
42.853
 11
43.081
 20
-31.084
 21
-30.869
  0
LINE
  8
0
 10
43.081
 11
43.335
 20
-30.869
 21
-30.684
  0
LINE
  8
0
 10
43.335
 11
43.611
 20
-30.684
 21
-30.533
  0
LINE
  8
0
 10
43.611
 11
43.902
 20
-30.533
 21
-30.417
  0
LINE
  8
0
 10
43.902
 11
44.207
 20
-30.417
 21
-30.339
  0
LINE
  8
0
 10
44.207
 11
44.518
 20
-30.339
 21
-30.3
  0
LINE
  8
0
 10
44.518
 11
44.832
 20
-30.3
 21
-30.3
  0
LINE
  8
0
 10
44.832
 11
45.143
 20
-30.3
 21
-30.339
  0
LINE
  8
0
 10
45.143
 11
45.448
 20
-30.339
 21
-30.417
  0
LINE
  8
0
 10
45.448
 11
45.739
 20
-30.417
 21
-30.533
  0
LINE
  8
0
 10
45.739
 11
46.015
 20
-30.533
 21
-30.684
  0
LINE
  8
0
 10
46.015
 11
46.269
 20
-30.684
 21
-30.869
  0
LINE
  8
0
 10
46.269
 11
46.497
 20
-30.869
 21
-31.084
  0
LINE
  8
0
 10
46.497
 11
46.698
 20
-31.084
 21
-31.326
  0
LINE
  8
0
 10
46.698
 11
46.866
 20
-31.326
 21
-31.591
  0
LINE
  8
0
 10
46.866
 11
46.999
 20
-31.591
 21
-31.875
  0
LINE
  8
0
 10
46.999
 11
47.096
 20
-31.875
 21
-32.173
  0
LINE
  8
0
 10
47.096
 11
47.155
 20
-32.173
 21
-32.482
  0
LINE
  8
0
 10
47.155
 11
47.175
 20
-32.482
 21
-32.795
  0
LINE
  8
0
 10
47.175
 11
47.155
 20
-32.795
 21
-33.108
  0
LINE
  8
0
 10
47.155
 11
47.096
 20
-33.108
 21
-33.417
  0
LINE
  8
0
 10
47.096
 11
46.999
 20
-33.417
 21
-33.715
  0
LINE
  8
0
 10
46.999
 11
46.866
 20
-33.715
 21
-33.999
  0
LINE
  8
0
 10
46.866
 11
46.698
 20
-33.999
 21
-34.264
  0
LINE
  8
0
 10
46.698
 11
46.497
 20
-34.264
 21
-34.506
  0
LINE
  8
0
 10
46.497
 11
46.269
 20
-34.506
 21
-34.721
  0
LINE
  8
0
 10
46.269
 11
46.015
 20
-34.721
 21
-34.906
  0
LINE
  8
0
 10
46.015
 11
45.739
 20
-34.906
 21
-35.057
  0
LINE
  8
0
 10
45.739
 11
45.448
 20
-35.057
 21
-35.173
  0
LINE
  8
0
 10
45.448
 11
45.143
 20
-35.173
 21
-35.251
  0
LINE
  8
0
 10
45.143
 11
44.832
 20
-35.251
 21
-35.29
  0
LINE
  8
0
 10
44.832
 11
44.518
 20
-35.29
 21
-35.29
  0
LINE
  8
0
 10
44.518
 11
44.207
 20
-35.29
 21
-35.251
  0
LINE
  8
0
 10
44.207
 11
43.902
 20
-35.251
 21
-35.173
  0
LINE
  8
0
 10
43.902
 11
43.611
 20
-35.173
 21
-35.057
  0
LINE
  8
0
 10
43.611
 11
43.335
 20
-35.057
 21
-34.906
  0
LINE
  8
0
 10
43.335
 11
43.081
 20
-34.906
 21
-34.721
  0
LINE
  8
0
 10
43.081
 11
42.853
 20
-34.721
 21
-34.506
  0
LINE
  8
0
 10
42.853
 11
42.652
 20
-34.506
 21
-34.264
  0
LINE
  8
0
 10
42.652
 11
42.484
 20
-34.264
 21
-33.999
  0
LINE
  8
0
 10
42.484
 11
42.351
 20
-33.999
 21
-33.715
  0
LINE
  8
0
 10
42.351
 11
42.254
 20
-33.715
 21
-33.417
  0
LINE
  8
0
 10
42.254
 11
42.195
 20
-33.417
 21
-33.108
  0
LINE
  8
0
 10
42.195
 11
42.175
 20
-33.108
 21
-32.795
  0
LINE
  8
0
 10
42.175
 11
42.195
 20
-7.395
 21
-7.082
  0
LINE
  8
0
 10
42.195
 11
42.254
 20
-7.082
 21
-6.773
  0
LINE
  8
0
 10
42.254
 11
42.351
 20
-6.773
 21
-6.475
  0
LINE
  8
0
 10
42.351
 11
42.484
 20
-6.475
 21
-6.191
  0
LINE
  8
0
 10
42.484
 11
42.652
 20
-6.191
 21
-5.926
  0
LINE
  8
0
 10
42.652
 11
42.853
 20
-5.926
 21
-5.684
  0
LINE
  8
0
 10
42.853
 11
43.081
 20
-5.684
 21
-5.469
  0
LINE
  8
0
 10
43.081
 11
43.335
 20
-5.469
 21
-5.284
  0
LINE
  8
0
 10
43.335
 11
43.611
 20
-5.284
 21
-5.133
  0
LINE
  8
0
 10
43.611
 11
43.902
 20
-5.133
 21
-5.017
  0
LINE
  8
0
 10
43.902
 11
44.207
 20
-5.017
 21
-4.939
  0
LINE
  8
0
 10
44.207
 11
44.518
 20
-4.939
 21
-4.9
  0
LINE
  8
0
 10
44.518
 11
44.832
 20
-4.9
 21
-4.9
  0
LINE
  8
0
 10
44.832
 11
45.143
 20
-4.9
 21
-4.939
  0
LINE
  8
0
 10
45.143
 11
45.448
 20
-4.939
 21
-5.017
  0
LINE
  8
0
 10
45.448
 11
45.739
 20
-5.017
 21
-5.133
  0
LINE
  8
0
 10
45.739
 11
46.015
 20
-5.133
 21
-5.284
  0
LINE
  8
0
 10
46.015
 11
46.269
 20
-5.284
 21
-5.469
  0
LINE
  8
0
 10
46.269
 11
46.497
 20
-5.469
 21
-5.684
  0
LINE
  8
0
 10
46.497
 11
46.698
 20
-5.684
 21
-5.926
  0
LINE
  8
0
 10
46.698
 11
46.866
 20
-5.926
 21
-6.191
  0
LINE
  8
0
 10
46.866
 11
46.999
 20
-6.191
 21
-6.475
  0
LINE
  8
0
 10
46.999
 11
47.096
 20
-6.475
 21
-6.773
  0
LINE
  8
0
 10
47.096
 11
47.155
 20
-6.773
 21
-7.082
  0
LINE
  8
0
 10
47.155
 11
47.175
 20
-7.082
 21
-7.395
  0
LINE
  8
0
 10
47.175
 11
47.155
 20
-7.395
 21
-7.708
  0
LINE
  8
0
 10
47.155
 11
47.096
 20
-7.708
 21
-8.017
  0
LINE
  8
0
 10
47.096
 11
46.999
 20
-8.017
 21
-8.315
  0
LINE
  8
0
 10
46.999
 11
46.866
 20
-8.315
 21
-8.599
  0
LINE
  8
0
 10
46.866
 11
46.698
 20
-8.599
 21
-8.864
  0
LINE
  8
0
 10
46.698
 11
46.497
 20
-8.864
 21
-9.106
  0
LINE
  8
0
 10
46.497
 11
46.269
 20
-9.106
 21
-9.321
  0
LINE
  8
0
 10
46.269
 11
46.015
 20
-9.321
 21
-9.506
  0
LINE
  8
0
 10
46.015
 11
45.739
 20
-9.506
 21
-9.657
  0
LINE
  8
0
 10
45.739
 11
45.448
 20
-9.657
 21
-9.773
  0
LINE
  8
0
 10
45.448
 11
45.143
 20
-9.773
 21
-9.851
  0
LINE
  8
0
 10
45.143
 11
44.832
 20
-9.851
 21
-9.89
  0
LINE
  8
0
 10
44.832
 11
44.518
 20
-9.89
 21
-9.89
  0
LINE
  8
0
 10
44.518
 11
44.207
 20
-9.89
 21
-9.851
  0
LINE
  8
0
 10
44.207
 11
43.902
 20
-9.851
 21
-9.773
  0
LINE
  8
0
 10
43.902
 11
43.611
 20
-9.773
 21
-9.657
  0
LINE
  8
0
 10
43.611
 11
43.335
 20
-9.657
 21
-9.506
  0
LINE
  8
0
 10
43.335
 11
43.081
 20
-9.506
 21
-9.321
  0
LINE
  8
0
 10
43.081
 11
42.853
 20
-9.321
 21
-9.106
  0
LINE
  8
0
 10
42.853
 11
42.652
 20
-9.106
 21
-8.864
  0
LINE
  8
0
 10
42.652
 11
42.484
 20
-8.864
 21
-8.599
  0
LINE
  8
0
 10
42.484
 11
42.351
 20
-8.599
 21
-8.315
  0
LINE
  8
0
 10
42.351
 11
42.254
 20
-8.315
 21
-8.017
  0
LINE
  8
0
 10
42.254
 11
42.195
 20
-8.017
 21
-7.708
  0
LINE
  8
0
 10
42.195
 11
42.175
 20
-7.708
 21
-7.395
  0
LINE
  8
0
 10
42.175
 11
42.195
 20
18.005
 21
18.318
  0
LINE
  8
0
 10
42.195
 11
42.254
 20
18.318
 21
18.627
  0
LINE
  8
0
 10
42.254
 11
42.351
 20
18.627
 21
18.925
  0
LINE
  8
0
 10
42.351
 11
42.484
 20
18.925
 21
19.209
  0
LINE
  8
0
 10
42.484
 11
42.652
 20
19.209
 21
19.474
  0
LINE
  8
0
 10
42.652
 11
42.853
 20
19.474
 21
19.716
  0
LINE
  8
0
 10
42.853
 11
43.081
 20
19.716
 21
19.931
  0
LINE
  8
0
 10
43.081
 11
43.335
 20
19.931
 21
20.116
  0
LINE
  8
0
 10
43.335
 11
43.611
 20
20.116
 21
20.267
  0
LINE
  8
0
 10
43.611
 11
43.902
 20
20.267
 21
20.383
  0
LINE
  8
0
 10
43.902
 11
44.207
 20
20.383
 21
20.461
  0
LINE
  8
0
 10
44.207
 11
44.518
 20
20.461
 21
20.5
  0
LINE
  8
0
 10
44.518
 11
44.832
 20
20.5
 21
20.5
  0
LINE
  8
0
 10
44.832
 11
45.143
 20
20.5
 21
20.461
  0
LINE
  8
0
 10
45.143
 11
45.448
 20
20.461
 21
20.383
  0
LINE
  8
0
 10
45.448
 11
45.739
 20
20.383
 21
20.267
  0
LINE
  8
0
 10
45.739
 11
46.015
 20
20.267
 21
20.116
  0
LINE
  8
0
 10
46.015
 11
46.269
 20
20.116
 21
19.931
  0
LINE
  8
0
 10
46.269
 11
46.497
 20
19.931
 21
19.716
  0
LINE
  8
0
 10
46.497
 11
46.698
 20
19.716
 21
19.474
  0
LINE
  8
0
 10
46.698
 11
46.866
 20
19.474
 21
19.209
  0
LINE
  8
0
 10
46.866
 11
46.999
 20
19.209
 21
18.925
  0
LINE
  8
0
 10
46.999
 11
47.096
 20
18.925
 21
18.627
  0
LINE
  8
0
 10
47.096
 11
47.155
 20
18.627
 21
18.318
  0
LINE
  8
0
 10
47.155
 11
47.175
 20
18.318
 21
18.005
  0
LINE
  8
0
 10
47.175
 11
47.155
 20
18.005
 21
17.692
  0
LINE
  8
0
 10
47.155
 11
47.096
 20
17.692
 21
17.383
  0
LINE
  8
0
 10
47.096
 11
46.999
 20
17.383
 21
17.085
  0
LINE
  8
0
 10
46.999
 11
46.866
 20
17.085
 21
16.801
  0
LINE
  8
0
 10
46.866
 11
46.698
 20
16.801
 21
16.536
  0
LINE
  8
0
 10
46.698
 11
46.497
 20
16.536
 21
16.294
  0
LINE
  8
0
 10
46.497
 11
46.269
 20
16.294
 21
16.079
  0
LINE
  8
0
 10
46.269
 11
46.015
 20
16.079
 21
15.894
  0
LINE
  8
0
 10
46.015
 11
45.739
 20
15.894
 21
15.743
  0
LINE
  8
0
 10
45.739
 11
45.448
 20
15.743
 21
15.627
  0
LINE
  8
0
 10
45.448
 11
45.143
 20
15.627
 21
15.549
  0
LINE
  8
0
 10
45.143
 11
44.832
 20
15.549
 21
15.51
  0
LINE
  8
0
 10
44.832
 11
44.518
 20
15.51
 21
15.51
  0
LINE
  8
0
 10
44.518
 11
44.207
 20
15.51
 21
15.549
  0
LINE
  8
0
 10
44.207
 11
43.902
 20
15.549
 21
15.627
  0
LINE
  8
0
 10
43.902
 11
43.611
 20
15.627
 21
15.743
  0
LINE
  8
0
 10
43.611
 11
43.335
 20
15.743
 21
15.894
  0
LINE
  8
0
 10
43.335
 11
43.081
 20
15.894
 21
16.079
  0
LINE
  8
0
 10
43.081
 11
42.853
 20
16.079
 21
16.294
  0
LINE
  8
0
 10
42.853
 11
42.652
 20
16.294
 21
16.536
  0
LINE
  8
0
 10
42.652
 11
42.484
 20
16.536
 21
16.801
  0
LINE
  8
0
 10
42.484
 11
42.351
 20
16.801
 21
17.085
  0
LINE
  8
0
 10
42.351
 11
42.254
 20
17.085
 21
17.383
  0
LINE
  8
0
 10
42.254
 11
42.195
 20
17.383
 21
17.692
  0
LINE
  8
0
 10
42.195
 11
42.175
 20
17.692
 21
18.005
  0
LINE
  8
0
 10
42.175
 11
42.195
 20
43.405
 21
43.718
  0
LINE
  8
0
 10
42.195
 11
42.254
 20
43.718
 21
44.027
  0
LINE
  8
0
 10
42.254
 11
42.351
 20
44.027
 21
44.325
  0
LINE
  8
0
 10
42.351
 11
42.484
 20
44.325
 21
44.609
  0
LINE
  8
0
 10
42.484
 11
42.652
 20
44.609
 21
44.874
  0
LINE
  8
0
 10
42.652
 11
42.853
 20
44.874
 21
45.116
  0
LINE
  8
0
 10
42.853
 11
43.081
 20
45.116
 21
45.331
  0
LINE
  8
0
 10
43.081
 11
43.335
 20
45.331
 21
45.516
  0
LINE
  8
0
 10
43.335
 11
43.611
 20
45.516
 21
45.667
  0
LINE
  8
0
 10
43.611
 11
43.902
 20
45.667
 21
45.783
  0
LINE
  8
0
 10
43.902
 11
44.207
 20
45.783
 21
45.861
  0
LINE
  8
0
 10
44.207
 11
44.518
 20
45.861
 21
45.9
  0
LINE
  8
0
 10
44.518
 11
44.832
 20
45.9
 21
45.9
  0
LINE
  8
0
 10
44.832
 11
45.143
 20
45.9
 21
45.861
  0
LINE
  8
0
 10
45.143
 11
45.448
 20
45.861
 21
45.783
  0
LINE
  8
0
 10
45.448
 11
45.739
 20
45.783
 21
45.667
  0
LINE
  8
0
 10
45.739
 11
46.015
 20
45.667
 21
45.516
  0
LINE
  8
0
 10
46.015
 11
46.269
 20
45.516
 21
45.331
  0
LINE
  8
0
 10
46.269
 11
46.497
 20
45.331
 21
45.116
  0
LINE
  8
0
 10
46.497
 11
46.698
 20
45.116
 21
44.874
  0
LINE
  8
0
 10
46.698
 11
46.866
 20
44.874
 21
44.609
  0
LINE
  8
0
 10
46.866
 11
46.999
 20
44.609
 21
44.325
  0
LINE
  8
0
 10
46.999
 11
47.096
 20
44.325
 21
44.027
  0
LINE
  8
0
 10
47.096
 11
47.155
 20
44.027
 21
43.718
  0
LINE
  8
0
 10
47.155
 11
47.175
 20
43.718
 21
43.405
  0
LINE
  8
0
 10
47.175
 11
47.155
 20
43.405
 21
43.092
  0
LINE
  8
0
 10
47.155
 11
47.096
 20
43.092
 21
42.783
  0
LINE
  8
0
 10
47.096
 11
46.999
 20
42.783
 21
42.485
  0
LINE
  8
0
 10
46.999
 11
46.866
 20
42.485
 21
42.201
  0
LINE
  8
0
 10
46.866
 11
46.698
 20
42.201
 21
41.936
  0
LINE
  8
0
 10
46.698
 11
46.497
 20
41.936
 21
41.694
  0
LINE
  8
0
 10
46.497
 11
46.269
 20
41.694
 21
41.479
  0
LINE
  8
0
 10
46.269
 11
46.015
 20
41.479
 21
41.294
  0
LINE
  8
0
 10
46.015
 11
45.739
 20
41.294
 21
41.143
  0
LINE
  8
0
 10
45.739
 11
45.448
 20
41.143
 21
41.027
  0
LINE
  8
0
 10
45.448
 11
45.143
 20
41.027
 21
40.949
  0
LINE
  8
0
 10
45.143
 11
44.832
 20
40.949
 21
40.91
  0
LINE
  8
0
 10
44.832
 11
44.518
 20
40.91
 21
40.91
  0
LINE
  8
0
 10
44.518
 11
44.207
 20
40.91
 21
40.949
  0
LINE
  8
0
 10
44.207
 11
43.902
 20
40.949
 21
41.027
  0
LINE
  8
0
 10
43.902
 11
43.611
 20
41.027
 21
41.143
  0
LINE
  8
0
 10
43.611
 11
43.335
 20
41.143
 21
41.294
  0
LINE
  8
0
 10
43.335
 11
43.081
 20
41.294
 21
41.479
  0
LINE
  8
0
 10
43.081
 11
42.853
 20
41.479
 21
41.694
  0
LINE
  8
0
 10
42.853
 11
42.652
 20
41.694
 21
41.936
  0
LINE
  8
0
 10
42.652
 11
42.484
 20
41.936
 21
42.201
  0
LINE
  8
0
 10
42.484
 11
42.351
 20
42.201
 21
42.485
  0
LINE
  8
0
 10
42.351
 11
42.254
 20
42.485
 21
42.783
  0
LINE
  8
0
 10
42.254
 11
42.195
 20
42.783
 21
43.092
  0
LINE
  8
0
 10
42.195
 11
42.175
 20
43.092
 21
43.405
  0
LINE
  8
0
 10
42.175
 11
42.195
 20
68.805
 21
69.118
  0
LINE
  8
0
 10
42.195
 11
42.254
 20
69.118
 21
69.427
  0
LINE
  8
0
 10
42.254
 11
42.351
 20
69.427
 21
69.725
  0
LINE
  8
0
 10
42.351
 11
42.484
 20
69.725
 21
70.009
  0
LINE
  8
0
 10
42.484
 11
42.652
 20
70.009
 21
70.274
  0
LINE
  8
0
 10
42.652
 11
42.853
 20
70.274
 21
70.516
  0
LINE
  8
0
 10
42.853
 11
43.081
 20
70.516
 21
70.731
  0
LINE
  8
0
 10
43.081
 11
43.335
 20
70.731
 21
70.916
  0
LINE
  8
0
 10
43.335
 11
43.611
 20
70.916
 21
71.067
  0
LINE
  8
0
 10
43.611
 11
43.902
 20
71.067
 21
71.183
  0
LINE
  8
0
 10
43.902
 11
44.207
 20
71.183
 21
71.261
  0
LINE
  8
0
 10
44.207
 11
44.518
 20
71.261
 21
71.3
  0
LINE
  8
0
 10
44.518
 11
44.832
 20
71.3
 21
71.3
  0
LINE
  8
0
 10
44.832
 11
45.143
 20
71.3
 21
71.261
  0
LINE
  8
0
 10
45.143
 11
45.448
 20
71.261
 21
71.183
  0
LINE
  8
0
 10
45.448
 11
45.739
 20
71.183
 21
71.067
  0
LINE
  8
0
 10
45.739
 11
46.015
 20
71.067
 21
70.916
  0
LINE
  8
0
 10
46.015
 11
46.269
 20
70.916
 21
70.731
  0
LINE
  8
0
 10
46.269
 11
46.497
 20
70.731
 21
70.516
  0
LINE
  8
0
 10
46.497
 11
46.698
 20
70.516
 21
70.274
  0
LINE
  8
0
 10
46.698
 11
46.866
 20
70.274
 21
70.009
  0
LINE
  8
0
 10
46.866
 11
46.999
 20
70.009
 21
69.725
  0
LINE
  8
0
 10
46.999
 11
47.096
 20
69.725
 21
69.427
  0
LINE
  8
0
 10
47.096
 11
47.155
 20
69.427
 21
69.118
  0
LINE
  8
0
 10
47.155
 11
47.175
 20
69.118
 21
68.805
  0
LINE
  8
0
 10
47.175
 11
47.155
 20
68.805
 21
68.492
  0
LINE
  8
0
 10
47.155
 11
47.096
 20
68.492
 21
68.183
  0
LINE
  8
0
 10
47.096
 11
46.999
 20
68.183
 21
67.885
  0
LINE
  8
0
 10
46.999
 11
46.866
 20
67.885
 21
67.601
  0
LINE
  8
0
 10
46.866
 11
46.698
 20
67.601
 21
67.336
  0
LINE
  8
0
 10
46.698
 11
46.497
 20
67.336
 21
67.094
  0
LINE
  8
0
 10
46.497
 11
46.269
 20
67.094
 21
66.879
  0
LINE
  8
0
 10
46.269
 11
46.015
 20
66.879
 21
66.694
  0
LINE
  8
0
 10
46.015
 11
45.739
 20
66.694
 21
66.543
  0
LINE
  8
0
 10
45.739
 11
45.448
 20
66.543
 21
66.427
  0
LINE
  8
0
 10
45.448
 11
45.143
 20
66.427
 21
66.349
  0
LINE
  8
0
 10
45.143
 11
44.832
 20
66.349
 21
66.31
  0
LINE
  8
0
 10
44.832
 11
44.518
 20
66.31
 21
66.31
  0
LINE
  8
0
 10
44.518
 11
44.207
 20
66.31
 21
66.349
  0
LINE
  8
0
 10
44.207
 11
43.902
 20
66.349
 21
66.427
  0
LINE
  8
0
 10
43.902
 11
43.611
 20
66.427
 21
66.543
  0
LINE
  8
0
 10
43.611
 11
43.335
 20
66.543
 21
66.694
  0
LINE
  8
0
 10
43.335
 11
43.081
 20
66.694
 21
66.879
  0
LINE
  8
0
 10
43.081
 11
42.853
 20
66.879
 21
67.094
  0
LINE
  8
0
 10
42.853
 11
42.652
 20
67.094
 21
67.336
  0
LINE
  8
0
 10
42.652
 11
42.484
 20
67.336
 21
67.601
  0
LINE
  8
0
 10
42.484
 11
42.351
 20
67.601
 21
67.885
  0
LINE
  8
0
 10
42.351
 11
42.254
 20
67.885
 21
68.183
  0
LINE
  8
0
 10
42.254
 11
42.195
 20
68.183
 21
68.492
  0
LINE
  8
0
 10
42.195
 11
42.175
 20
68.492
 21
68.805
  0
LINE
  8
0
 10
43.861
 11
43.867
 20
-39.145
 21
-39.043
  0
LINE
  8
0
 10
43.867
 11
43.887
 20
-39.043
 21
-38.943
  0
LINE
  8
0
 10
43.887
 11
43.918
 20
-38.943
 21
-38.845
  0
LINE
  8
0
 10
43.918
 11
43.962
 20
-38.845
 21
-38.753
  0
LINE
  8
0
 10
43.962
 11
44.016
 20
-38.753
 21
-38.667
  0
LINE
  8
0
 10
44.016
 11
44.082
 20
-38.667
 21
-38.588
  0
LINE
  8
0
 10
44.082
 11
44.156
 20
-38.588
 21
-38.518
  0
LINE
  8
0
 10
44.156
 11
44.239
 20
-38.518
 21
-38.458
  0
LINE
  8
0
 10
44.239
 11
44.328
 20
-38.458
 21
-38.408
  0
LINE
  8
0
 10
44.328
 11
44.423
 20
-38.408
 21
-38.371
  0
LINE
  8
0
 10
44.423
 11
44.522
 20
-38.371
 21
-38.345
  0
LINE
  8
0
 10
44.522
 11
44.624
 20
-38.345
 21
-38.333
  0
LINE
  8
0
 10
44.624
 11
44.726
 20
-38.333
 21
-38.333
  0
LINE
  8
0
 10
44.726
 11
44.828
 20
-38.333
 21
-38.345
  0
LINE
  8
0
 10
44.828
 11
44.927
 20
-38.345
 21
-38.371
  0
LINE
  8
0
 10
44.927
 11
45.022
 20
-38.371
 21
-38.408
  0
LINE
  8
0
 10
45.022
 11
45.111
 20
-38.408
 21
-38.458
  0
LINE
  8
0
 10
45.111
 11
45.194
 20
-38.458
 21
-38.518
  0
LINE
  8
0
 10
45.194
 11
45.268
 20
-38.518
 21
-38.588
  0
LINE
  8
0
 10
45.268
 11
45.334
 20
-38.588
 21
-38.667
  0
LINE
  8
0
 10
45.334
 11
45.388
 20
-38.667
 21
-38.753
  0
LINE
  8
0
 10
45.388
 11
45.432
 20
-38.753
 21
-38.845
  0
LINE
  8
0
 10
45.432
 11
45.463
 20
-38.845
 21
-38.943
  0
LINE
  8
0
 10
45.463
 11
45.483
 20
-38.943
 21
-39.043
  0
LINE
  8
0
 10
45.483
 11
45.489
 20
-39.043
 21
-39.145
  0
LINE
  8
0
 10
45.489
 11
45.483
 20
-39.145
 21
-39.247
  0
LINE
  8
0
 10
45.483
 11
45.463
 20
-39.247
 21
-39.347
  0
LINE
  8
0
 10
45.463
 11
45.432
 20
-39.347
 21
-39.445
  0
LINE
  8
0
 10
45.432
 11
45.388
 20
-39.445
 21
-39.537
  0
LINE
  8
0
 10
45.388
 11
45.334
 20
-39.537
 21
-39.623
  0
LINE
  8
0
 10
45.334
 11
45.268
 20
-39.623
 21
-39.702
  0
LINE
  8
0
 10
45.268
 11
45.194
 20
-39.702
 21
-39.772
  0
LINE
  8
0
 10
45.194
 11
45.111
 20
-39.772
 21
-39.832
  0
LINE
  8
0
 10
45.111
 11
45.022
 20
-39.832
 21
-39.882
  0
LINE
  8
0
 10
45.022
 11
44.927
 20
-39.882
 21
-39.919
  0
LINE
  8
0
 10
44.927
 11
44.828
 20
-39.919
 21
-39.945
  0
LINE
  8
0
 10
44.828
 11
44.726
 20
-39.945
 21
-39.957
  0
LINE
  8
0
 10
44.726
 11
44.624
 20
-39.957
 21
-39.957
  0
LINE
  8
0
 10
44.624
 11
44.522
 20
-39.957
 21
-39.945
  0
LINE
  8
0
 10
44.522
 11
44.423
 20
-39.945
 21
-39.919
  0
LINE
  8
0
 10
44.423
 11
44.328
 20
-39.919
 21
-39.882
  0
LINE
  8
0
 10
44.328
 11
44.239
 20
-39.882
 21
-39.832
  0
LINE
  8
0
 10
44.239
 11
44.156
 20
-39.832
 21
-39.772
  0
LINE
  8
0
 10
44.156
 11
44.082
 20
-39.772
 21
-39.702
  0
LINE
  8
0
 10
44.082
 11
44.016
 20
-39.702
 21
-39.623
  0
LINE
  8
0
 10
44.016
 11
43.962
 20
-39.623
 21
-39.537
  0
LINE
  8
0
 10
43.962
 11
43.918
 20
-39.537
 21
-39.445
  0
LINE
  8
0
 10
43.918
 11
43.887
 20
-39.445
 21
-39.347
  0
LINE
  8
0
 10
43.887
 11
43.867
 20
-39.347
 21
-39.247
  0
LINE
  8
0
 10
43.867
 11
43.861
 20
-39.247
 21
-39.145
  0
LINE
  8
0
 10
43.861
 11
43.867
 20
5.305
 21
5.407
  0
LINE
  8
0
 10
43.867
 11
43.887
 20
5.407
 21
5.507
  0
LINE
  8
0
 10
43.887
 11
43.918
 20
5.507
 21
5.605
  0
LINE
  8
0
 10
43.918
 11
43.962
 20
5.605
 21
5.697
  0
LINE
  8
0
 10
43.962
 11
44.016
 20
5.697
 21
5.783
  0
LINE
  8
0
 10
44.016
 11
44.082
 20
5.783
 21
5.862
  0
LINE
  8
0
 10
44.082
 11
44.156
 20
5.862
 21
5.932
  0
LINE
  8
0
 10
44.156
 11
44.239
 20
5.932
 21
5.992
  0
LINE
  8
0
 10
44.239
 11
44.328
 20
5.992
 21
6.042
  0
LINE
  8
0
 10
44.328
 11
44.423
 20
6.042
 21
6.079
  0
LINE
  8
0
 10
44.423
 11
44.522
 20
6.079
 21
6.105
  0
LINE
  8
0
 10
44.522
 11
44.624
 20
6.105
 21
6.117
  0
LINE
  8
0
 10
44.624
 11
44.726
 20
6.117
 21
6.117
  0
LINE
  8
0
 10
44.726
 11
44.828
 20
6.117
 21
6.105
  0
LINE
  8
0
 10
44.828
 11
44.927
 20
6.105
 21
6.079
  0
LINE
  8
0
 10
44.927
 11
45.022
 20
6.079
 21
6.042
  0
LINE
  8
0
 10
45.022
 11
45.111
 20
6.042
 21
5.992
  0
LINE
  8
0
 10
45.111
 11
45.194
 20
5.992
 21
5.932
  0
LINE
  8
0
 10
45.194
 11
45.268
 20
5.932
 21
5.862
  0
LINE
  8
0
 10
45.268
 11
45.334
 20
5.862
 21
5.783
  0
LINE
  8
0
 10
45.334
 11
45.388
 20
5.783
 21
5.697
  0
LINE
  8
0
 10
45.388
 11
45.432
 20
5.697
 21
5.605
  0
LINE
  8
0
 10
45.432
 11
45.463
 20
5.605
 21
5.507
  0
LINE
  8
0
 10
45.463
 11
45.483
 20
5.507
 21
5.407
  0
LINE
  8
0
 10
45.483
 11
45.489
 20
5.407
 21
5.305
  0
LINE
  8
0
 10
45.489
 11
45.483
 20
5.305
 21
5.203
  0
LINE
  8
0
 10
45.483
 11
45.463
 20
5.203
 21
5.103
  0
LINE
  8
0
 10
45.463
 11
45.432
 20
5.103
 21
5.005
  0
LINE
  8
0
 10
45.432
 11
45.388
 20
5.005
 21
4.913
  0
LINE
  8
0
 10
45.388
 11
45.334
 20
4.913
 21
4.827
  0
LINE
  8
0
 10
45.334
 11
45.268
 20
4.827
 21
4.748
  0
LINE
  8
0
 10
45.268
 11
45.194
 20
4.748
 21
4.678
  0
LINE
  8
0
 10
45.194
 11
45.111
 20
4.678
 21
4.618
  0
LINE
  8
0
 10
45.111
 11
45.022
 20
4.618
 21
4.568
  0
LINE
  8
0
 10
45.022
 11
44.927
 20
4.568
 21
4.531
  0
LINE
  8
0
 10
44.927
 11
44.828
 20
4.531
 21
4.505
  0
LINE
  8
0
 10
44.828
 11
44.726
 20
4.505
 21
4.493
  0
LINE
  8
0
 10
44.726
 11
44.624
 20
4.493
 21
4.493
  0
LINE
  8
0
 10
44.624
 11
44.522
 20
4.493
 21
4.505
  0
LINE
  8
0
 10
44.522
 11
44.423
 20
4.505
 21
4.531
  0
LINE
  8
0
 10
44.423
 11
44.328
 20
4.531
 21
4.568
  0
LINE
  8
0
 10
44.328
 11
44.239
 20
4.568
 21
4.618
  0
LINE
  8
0
 10
44.239
 11
44.156
 20
4.618
 21
4.678
  0
LINE
  8
0
 10
44.156
 11
44.082
 20
4.678
 21
4.748
  0
LINE
  8
0
 10
44.082
 11
44.016
 20
4.748
 21
4.827
  0
LINE
  8
0
 10
44.016
 11
43.962
 20
4.827
 21
4.913
  0
LINE
  8
0
 10
43.962
 11
43.918
 20
4.913
 21
5.005
  0
LINE
  8
0
 10
43.918
 11
43.887
 20
5.005
 21
5.103
  0
LINE
  8
0
 10
43.887
 11
43.867
 20
5.103
 21
5.203
  0
LINE
  8
0
 10
43.867
 11
43.861
 20
5.203
 21
5.305
  0
LINE
  8
0
 10
43.861
 11
43.867
 20
30.705
 21
30.807
  0
LINE
  8
0
 10
43.867
 11
43.887
 20
30.807
 21
30.907
  0
LINE
  8
0
 10
43.887
 11
43.918
 20
30.907
 21
31.005
  0
LINE
  8
0
 10
43.918
 11
43.962
 20
31.005
 21
31.097
  0
LINE
  8
0
 10
43.962
 11
44.016
 20
31.097
 21
31.183
  0
LINE
  8
0
 10
44.016
 11
44.082
 20
31.183
 21
31.262
  0
LINE
  8
0
 10
44.082
 11
44.156
 20
31.262
 21
31.332
  0
LINE
  8
0
 10
44.156
 11
44.239
 20
31.332
 21
31.392
  0
LINE
  8
0
 10
44.239
 11
44.328
 20
31.392
 21
31.442
  0
LINE
  8
0
 10
44.328
 11
44.423
 20
31.442
 21
31.479
  0
LINE
  8
0
 10
44.423
 11
44.522
 20
31.479
 21
31.505
  0
LINE
  8
0
 10
44.522
 11
44.624
 20
31.505
 21
31.517
  0
LINE
  8
0
 10
44.624
 11
44.726
 20
31.517
 21
31.517
  0
LINE
  8
0
 10
44.726
 11
44.828
 20
31.517
 21
31.505
  0
LINE
  8
0
 10
44.828
 11
44.927
 20
31.505
 21
31.479
  0
LINE
  8
0
 10
44.927
 11
45.022
 20
31.479
 21
31.442
  0
LINE
  8
0
 10
45.022
 11
45.111
 20
31.442
 21
31.392
  0
LINE
  8
0
 10
45.111
 11
45.194
 20
31.392
 21
31.332
  0
LINE
  8
0
 10
45.194
 11
45.268
 20
31.332
 21
31.262
  0
LINE
  8
0
 10
45.268
 11
45.334
 20
31.262
 21
31.183
  0
LINE
  8
0
 10
45.334
 11
45.388
 20
31.183
 21
31.097
  0
LINE
  8
0
 10
45.388
 11
45.432
 20
31.097
 21
31.005
  0
LINE
  8
0
 10
45.432
 11
45.463
 20
31.005
 21
30.907
  0
LINE
  8
0
 10
45.463
 11
45.483
 20
30.907
 21
30.807
  0
LINE
  8
0
 10
45.483
 11
45.489
 20
30.807
 21
30.705
  0
LINE
  8
0
 10
45.489
 11
45.483
 20
30.705
 21
30.603
  0
LINE
  8
0
 10
45.483
 11
45.463
 20
30.603
 21
30.503
  0
LINE
  8
0
 10
45.463
 11
45.432
 20
30.503
 21
30.405
  0
LINE
  8
0
 10
45.432
 11
45.388
 20
30.405
 21
30.313
  0
LINE
  8
0
 10
45.388
 11
45.334
 20
30.313
 21
30.227
  0
LINE
  8
0
 10
45.334
 11
45.268
 20
30.227
 21
30.148
  0
LINE
  8
0
 10
45.268
 11
45.194
 20
30.148
 21
30.078
  0
LINE
  8
0
 10
45.194
 11
45.111
 20
30.078
 21
30.018
  0
LINE
  8
0
 10
45.111
 11
45.022
 20
30.018
 21
29.968
  0
LINE
  8
0
 10
45.022
 11
44.927
 20
29.968
 21
29.931
  0
LINE
  8
0
 10
44.927
 11
44.828
 20
29.931
 21
29.905
  0
LINE
  8
0
 10
44.828
 11
44.726
 20
29.905
 21
29.893
  0
LINE
  8
0
 10
44.726
 11
44.624
 20
29.893
 21
29.893
  0
LINE
  8
0
 10
44.624
 11
44.522
 20
29.893
 21
29.905
  0
LINE
  8
0
 10
44.522
 11
44.423
 20
29.905
 21
29.931
  0
LINE
  8
0
 10
44.423
 11
44.328
 20
29.931
 21
29.968
  0
LINE
  8
0
 10
44.328
 11
44.239
 20
29.968
 21
30.018
  0
LINE
  8
0
 10
44.239
 11
44.156
 20
30.018
 21
30.078
  0
LINE
  8
0
 10
44.156
 11
44.082
 20
30.078
 21
30.148
  0
LINE
  8
0
 10
44.082
 11
44.016
 20
30.148
 21
30.227
  0
LINE
  8
0
 10
44.016
 11
43.962
 20
30.227
 21
30.313
  0
LINE
  8
0
 10
43.962
 11
43.918
 20
30.313
 21
30.405
  0
LINE
  8
0
 10
43.918
 11
43.887
 20
30.405
 21
30.503
  0
LINE
  8
0
 10
43.887
 11
43.867
 20
30.503
 21
30.603
  0
LINE
  8
0
 10
43.867
 11
43.861
 20
30.603
 21
30.705
  0
LINE
  8
0
 10
43.861
 11
43.867
 20
75.155
 21
75.257
  0
LINE
  8
0
 10
43.867
 11
43.887
 20
75.257
 21
75.357
  0
LINE
  8
0
 10
43.887
 11
43.918
 20
75.357
 21
75.455
  0
LINE
  8
0
 10
43.918
 11
43.962
 20
75.455
 21
75.547
  0
LINE
  8
0
 10
43.962
 11
44.016
 20
75.547
 21
75.633
  0
LINE
  8
0
 10
44.016
 11
44.082
 20
75.633
 21
75.712
  0
LINE
  8
0
 10
44.082
 11
44.156
 20
75.712
 21
75.782
  0
LINE
  8
0
 10
44.156
 11
44.239
 20
75.782
 21
75.842
  0
LINE
  8
0
 10
44.239
 11
44.328
 20
75.842
 21
75.892
  0
LINE
  8
0
 10
44.328
 11
44.423
 20
75.892
 21
75.929
  0
LINE
  8
0
 10
44.423
 11
44.522
 20
75.929
 21
75.955
  0
LINE
  8
0
 10
44.522
 11
44.624
 20
75.955
 21
75.967
  0
LINE
  8
0
 10
44.624
 11
44.726
 20
75.967
 21
75.967
  0
LINE
  8
0
 10
44.726
 11
44.828
 20
75.967
 21
75.955
  0
LINE
  8
0
 10
44.828
 11
44.927
 20
75.955
 21
75.929
  0
LINE
  8
0
 10
44.927
 11
45.022
 20
75.929
 21
75.892
  0
LINE
  8
0
 10
45.022
 11
45.111
 20
75.892
 21
75.842
  0
LINE
  8
0
 10
45.111
 11
45.194
 20
75.842
 21
75.782
  0
LINE
  8
0
 10
45.194
 11
45.268
 20
75.782
 21
75.712
  0
LINE
  8
0
 10
45.268
 11
45.334
 20
75.712
 21
75.633
  0
LINE
  8
0
 10
45.334
 11
45.388
 20
75.633
 21
75.547
  0
LINE
  8
0
 10
45.388
 11
45.432
 20
75.547
 21
75.455
  0
LINE
  8
0
 10
45.432
 11
45.463
 20
75.455
 21
75.357
  0
LINE
  8
0
 10
45.463
 11
45.483
 20
75.357
 21
75.257
  0
LINE
  8
0
 10
45.483
 11
45.489
 20
75.257
 21
75.155
  0
LINE
  8
0
 10
45.489
 11
45.483
 20
75.155
 21
75.053
  0
LINE
  8
0
 10
45.483
 11
45.463
 20
75.053
 21
74.953
  0
LINE
  8
0
 10
45.463
 11
45.432
 20
74.953
 21
74.855
  0
LINE
  8
0
 10
45.432
 11
45.388
 20
74.855
 21
74.763
  0
LINE
  8
0
 10
45.388
 11
45.334
 20
74.763
 21
74.677
  0
LINE
  8
0
 10
45.334
 11
45.268
 20
74.677
 21
74.598
  0
LINE
  8
0
 10
45.268
 11
45.194
 20
74.598
 21
74.528
  0
LINE
  8
0
 10
45.194
 11
45.111
 20
74.528
 21
74.468
  0
LINE
  8
0
 10
45.111
 11
45.022
 20
74.468
 21
74.418
  0
LINE
  8
0
 10
45.022
 11
44.927
 20
74.418
 21
74.381
  0
LINE
  8
0
 10
44.927
 11
44.828
 20
74.381
 21
74.355
  0
LINE
  8
0
 10
44.828
 11
44.726
 20
74.355
 21
74.343
  0
LINE
  8
0
 10
44.726
 11
44.624
 20
74.343
 21
74.343
  0
LINE
  8
0
 10
44.624
 11
44.522
 20
74.343
 21
74.355
  0
LINE
  8
0
 10
44.522
 11
44.423
 20
74.355
 21
74.381
  0
LINE
  8
0
 10
44.423
 11
44.328
 20
74.381
 21
74.418
  0
LINE
  8
0
 10
44.328
 11
44.239
 20
74.418
 21
74.468
  0
LINE
  8
0
 10
44.239
 11
44.156
 20
74.468
 21
74.528
  0
LINE
  8
0
 10
44.156
 11
44.082
 20
74.528
 21
74.598
  0
LINE
  8
0
 10
44.082
 11
44.016
 20
74.598
 21
74.677
  0
LINE
  8
0
 10
44.016
 11
43.962
 20
74.677
 21
74.763
  0
LINE
  8
0
 10
43.962
 11
43.918
 20
74.763
 21
74.855
  0
LINE
  8
0
 10
43.918
 11
43.887
 20
74.855
 21
74.953
  0
LINE
  8
0
 10
43.887
 11
43.867
 20
74.953
 21
75.053
  0
LINE
  8
0
 10
43.867
 11
43.861
 20
75.053
 21
75.155
  0
ENDSEC
  0
SECTION
  2
OBJECTS
  0
DICTIONARY
  0
ENDSEC
  0
EOF
