  0
SECTION
  2
BLOCKS
  0
ENDSEC
  0
SECTION
  2
ENTITIES
  0
LINE
  8
0
 10
99.4
 11
99.4
 20
-69.85
 21
69.85
  0
LINE
  8
0
 10
99.4
 11
160.4
 20
69.85
 21
69.85
  0
LINE
  8
0
 10
160.4
 11
160.4
 20
69.85
 21
-69.85
  0
LINE
  8
0
 10
160.4
 11
99.4
 20
-69.85
 21
-69.85
  0
LINE
  8
0
 10
100.81
 11
100.819
 20
-67.31
 21
-67.168
  0
LINE
  8
0
 10
100.819
 11
100.845
 20
-67.168
 21
-67.029
  0
LINE
  8
0
 10
100.845
 11
100.889
 20
-67.029
 21
-66.894
  0
LINE
  8
0
 10
100.889
 11
100.95
 20
-66.894
 21
-66.765
  0
LINE
  8
0
 10
100.95
 11
101.026
 20
-66.765
 21
-66.646
  0
LINE
  8
0
 10
101.026
 11
101.116
 20
-66.646
 21
-66.536
  0
LINE
  8
0
 10
101.116
 11
101.22
 20
-66.536
 21
-66.439
  0
LINE
  8
0
 10
101.22
 11
101.334
 20
-66.439
 21
-66.356
  0
LINE
  8
0
 10
101.334
 11
101.459
 20
-66.356
 21
-66.287
  0
LINE
  8
0
 10
101.459
 11
101.591
 20
-66.287
 21
-66.235
  0
LINE
  8
0
 10
101.591
 11
101.728
 20
-66.235
 21
-66.2
  0
LINE
  8
0
 10
101.728
 11
101.869
 20
-66.2
 21
-66.182
  0
LINE
  8
0
 10
101.869
 11
102.011
 20
-66.182
 21
-66.182
  0
LINE
  8
0
 10
102.011
 11
102.152
 20
-66.182
 21
-66.2
  0
LINE
  8
0
 10
102.152
 11
102.289
 20
-66.2
 21
-66.235
  0
LINE
  8
0
 10
102.289
 11
102.421
 20
-66.235
 21
-66.287
  0
LINE
  8
0
 10
102.421
 11
102.546
 20
-66.287
 21
-66.356
  0
LINE
  8
0
 10
102.546
 11
102.66
 20
-66.356
 21
-66.439
  0
LINE
  8
0
 10
102.66
 11
102.764
 20
-66.439
 21
-66.536
  0
LINE
  8
0
 10
102.764
 11
102.854
 20
-66.536
 21
-66.646
  0
LINE
  8
0
 10
102.854
 11
102.93
 20
-66.646
 21
-66.765
  0
LINE
  8
0
 10
102.93
 11
102.991
 20
-66.765
 21
-66.894
  0
LINE
  8
0
 10
102.991
 11
103.035
 20
-66.894
 21
-67.029
  0
LINE
  8
0
 10
103.035
 11
103.061
 20
-67.029
 21
-67.168
  0
LINE
  8
0
 10
103.061
 11
103.07
 20
-67.168
 21
-67.31
  0
LINE
  8
0
 10
103.07
 11
103.061
 20
-67.31
 21
-67.452
  0
LINE
  8
0
 10
103.061
 11
103.035
 20
-67.452
 21
-67.591
  0
LINE
  8
0
 10
103.035
 11
102.991
 20
-67.591
 21
-67.726
  0
LINE
  8
0
 10
102.991
 11
102.93
 20
-67.726
 21
-67.855
  0
LINE
  8
0
 10
102.93
 11
102.854
 20
-67.855
 21
-67.974
  0
LINE
  8
0
 10
102.854
 11
102.764
 20
-67.974
 21
-68.084
  0
LINE
  8
0
 10
102.764
 11
102.66
 20
-68.084
 21
-68.181
  0
LINE
  8
0
 10
102.66
 11
102.546
 20
-68.181
 21
-68.264
  0
LINE
  8
0
 10
102.546
 11
102.421
 20
-68.264
 21
-68.333
  0
LINE
  8
0
 10
102.421
 11
102.289
 20
-68.333
 21
-68.385
  0
LINE
  8
0
 10
102.289
 11
102.152
 20
-68.385
 21
-68.42
  0
LINE
  8
0
 10
102.152
 11
102.011
 20
-68.42
 21
-68.438
  0
LINE
  8
0
 10
102.011
 11
101.869
 20
-68.438
 21
-68.438
  0
LINE
  8
0
 10
101.869
 11
101.728
 20
-68.438
 21
-68.42
  0
LINE
  8
0
 10
101.728
 11
101.591
 20
-68.42
 21
-68.385
  0
LINE
  8
0
 10
101.591
 11
101.459
 20
-68.385
 21
-68.333
  0
LINE
  8
0
 10
101.459
 11
101.334
 20
-68.333
 21
-68.264
  0
LINE
  8
0
 10
101.334
 11
101.22
 20
-68.264
 21
-68.181
  0
LINE
  8
0
 10
101.22
 11
101.116
 20
-68.181
 21
-68.084
  0
LINE
  8
0
 10
101.116
 11
101.026
 20
-68.084
 21
-67.974
  0
LINE
  8
0
 10
101.026
 11
100.95
 20
-67.974
 21
-67.855
  0
LINE
  8
0
 10
100.95
 11
100.889
 20
-67.855
 21
-67.726
  0
LINE
  8
0
 10
100.889
 11
100.845
 20
-67.726
 21
-67.591
  0
LINE
  8
0
 10
100.845
 11
100.819
 20
-67.591
 21
-67.452
  0
LINE
  8
0
 10
100.819
 11
100.81
 20
-67.452
 21
-67.31
  0
LINE
  8
0
 10
100.81
 11
100.819
 20
67.31
 21
67.452
  0
LINE
  8
0
 10
100.819
 11
100.845
 20
67.452
 21
67.591
  0
LINE
  8
0
 10
100.845
 11
100.889
 20
67.591
 21
67.726
  0
LINE
  8
0
 10
100.889
 11
100.95
 20
67.726
 21
67.855
  0
LINE
  8
0
 10
100.95
 11
101.026
 20
67.855
 21
67.974
  0
LINE
  8
0
 10
101.026
 11
101.116
 20
67.974
 21
68.084
  0
LINE
  8
0
 10
101.116
 11
101.22
 20
68.084
 21
68.181
  0
LINE
  8
0
 10
101.22
 11
101.334
 20
68.181
 21
68.264
  0
LINE
  8
0
 10
101.334
 11
101.459
 20
68.264
 21
68.333
  0
LINE
  8
0
 10
101.459
 11
101.591
 20
68.333
 21
68.385
  0
LINE
  8
0
 10
101.591
 11
101.728
 20
68.385
 21
68.42
  0
LINE
  8
0
 10
101.728
 11
101.869
 20
68.42
 21
68.438
  0
LINE
  8
0
 10
101.869
 11
102.011
 20
68.438
 21
68.438
  0
LINE
  8
0
 10
102.011
 11
102.152
 20
68.438
 21
68.42
  0
LINE
  8
0
 10
102.152
 11
102.289
 20
68.42
 21
68.385
  0
LINE
  8
0
 10
102.289
 11
102.421
 20
68.385
 21
68.333
  0
LINE
  8
0
 10
102.421
 11
102.546
 20
68.333
 21
68.264
  0
LINE
  8
0
 10
102.546
 11
102.66
 20
68.264
 21
68.181
  0
LINE
  8
0
 10
102.66
 11
102.764
 20
68.181
 21
68.084
  0
LINE
  8
0
 10
102.764
 11
102.854
 20
68.084
 21
67.974
  0
LINE
  8
0
 10
102.854
 11
102.93
 20
67.974
 21
67.855
  0
LINE
  8
0
 10
102.93
 11
102.991
 20
67.855
 21
67.726
  0
LINE
  8
0
 10
102.991
 11
103.035
 20
67.726
 21
67.591
  0
LINE
  8
0
 10
103.035
 11
103.061
 20
67.591
 21
67.452
  0
LINE
  8
0
 10
103.061
 11
103.07
 20
67.452
 21
67.31
  0
LINE
  8
0
 10
103.07
 11
103.061
 20
67.31
 21
67.168
  0
LINE
  8
0
 10
103.061
 11
103.035
 20
67.168
 21
67.029
  0
LINE
  8
0
 10
103.035
 11
102.991
 20
67.029
 21
66.894
  0
LINE
  8
0
 10
102.991
 11
102.93
 20
66.894
 21
66.765
  0
LINE
  8
0
 10
102.93
 11
102.854
 20
66.765
 21
66.646
  0
LINE
  8
0
 10
102.854
 11
102.764
 20
66.646
 21
66.536
  0
LINE
  8
0
 10
102.764
 11
102.66
 20
66.536
 21
66.439
  0
LINE
  8
0
 10
102.66
 11
102.546
 20
66.439
 21
66.356
  0
LINE
  8
0
 10
102.546
 11
102.421
 20
66.356
 21
66.287
  0
LINE
  8
0
 10
102.421
 11
102.289
 20
66.287
 21
66.235
  0
LINE
  8
0
 10
102.289
 11
102.152
 20
66.235
 21
66.2
  0
LINE
  8
0
 10
102.152
 11
102.011
 20
66.2
 21
66.182
  0
LINE
  8
0
 10
102.011
 11
101.869
 20
66.182
 21
66.182
  0
LINE
  8
0
 10
101.869
 11
101.728
 20
66.182
 21
66.2
  0
LINE
  8
0
 10
101.728
 11
101.591
 20
66.2
 21
66.235
  0
LINE
  8
0
 10
101.591
 11
101.459
 20
66.235
 21
66.287
  0
LINE
  8
0
 10
101.459
 11
101.334
 20
66.287
 21
66.356
  0
LINE
  8
0
 10
101.334
 11
101.22
 20
66.356
 21
66.439
  0
LINE
  8
0
 10
101.22
 11
101.116
 20
66.439
 21
66.536
  0
LINE
  8
0
 10
101.116
 11
101.026
 20
66.536
 21
66.646
  0
LINE
  8
0
 10
101.026
 11
100.95
 20
66.646
 21
66.765
  0
LINE
  8
0
 10
100.95
 11
100.889
 20
66.765
 21
66.894
  0
LINE
  8
0
 10
100.889
 11
100.845
 20
66.894
 21
67.029
  0
LINE
  8
0
 10
100.845
 11
100.819
 20
67.029
 21
67.168
  0
LINE
  8
0
 10
100.819
 11
100.81
 20
67.168
 21
67.31
  0
LINE
  8
0
 10
156.73
 11
156.739
 20
-67.31
 21
-67.168
  0
LINE
  8
0
 10
156.739
 11
156.765
 20
-67.168
 21
-67.029
  0
LINE
  8
0
 10
156.765
 11
156.809
 20
-67.029
 21
-66.894
  0
LINE
  8
0
 10
156.809
 11
156.87
 20
-66.894
 21
-66.765
  0
LINE
  8
0
 10
156.87
 11
156.946
 20
-66.765
 21
-66.646
  0
LINE
  8
0
 10
156.946
 11
157.036
 20
-66.646
 21
-66.536
  0
LINE
  8
0
 10
157.036
 11
157.14
 20
-66.536
 21
-66.439
  0
LINE
  8
0
 10
157.14
 11
157.254
 20
-66.439
 21
-66.356
  0
LINE
  8
0
 10
157.254
 11
157.379
 20
-66.356
 21
-66.287
  0
LINE
  8
0
 10
157.379
 11
157.511
 20
-66.287
 21
-66.235
  0
LINE
  8
0
 10
157.511
 11
157.648
 20
-66.235
 21
-66.2
  0
LINE
  8
0
 10
157.648
 11
157.789
 20
-66.2
 21
-66.182
  0
LINE
  8
0
 10
157.789
 11
157.931
 20
-66.182
 21
-66.182
  0
LINE
  8
0
 10
157.931
 11
158.072
 20
-66.182
 21
-66.2
  0
LINE
  8
0
 10
158.072
 11
158.209
 20
-66.2
 21
-66.235
  0
LINE
  8
0
 10
158.209
 11
158.341
 20
-66.235
 21
-66.287
  0
LINE
  8
0
 10
158.341
 11
158.466
 20
-66.287
 21
-66.356
  0
LINE
  8
0
 10
158.466
 11
158.58
 20
-66.356
 21
-66.439
  0
LINE
  8
0
 10
158.58
 11
158.684
 20
-66.439
 21
-66.536
  0
LINE
  8
0
 10
158.684
 11
158.774
 20
-66.536
 21
-66.646
  0
LINE
  8
0
 10
158.774
 11
158.85
 20
-66.646
 21
-66.765
  0
LINE
  8
0
 10
158.85
 11
158.911
 20
-66.765
 21
-66.894
  0
LINE
  8
0
 10
158.911
 11
158.955
 20
-66.894
 21
-67.029
  0
LINE
  8
0
 10
158.955
 11
158.981
 20
-67.029
 21
-67.168
  0
LINE
  8
0
 10
158.981
 11
158.99
 20
-67.168
 21
-67.31
  0
LINE
  8
0
 10
158.99
 11
158.981
 20
-67.31
 21
-67.452
  0
LINE
  8
0
 10
158.981
 11
158.955
 20
-67.452
 21
-67.591
  0
LINE
  8
0
 10
158.955
 11
158.911
 20
-67.591
 21
-67.726
  0
LINE
  8
0
 10
158.911
 11
158.85
 20
-67.726
 21
-67.855
  0
LINE
  8
0
 10
158.85
 11
158.774
 20
-67.855
 21
-67.974
  0
LINE
  8
0
 10
158.774
 11
158.684
 20
-67.974
 21
-68.084
  0
LINE
  8
0
 10
158.684
 11
158.58
 20
-68.084
 21
-68.181
  0
LINE
  8
0
 10
158.58
 11
158.466
 20
-68.181
 21
-68.264
  0
LINE
  8
0
 10
158.466
 11
158.341
 20
-68.264
 21
-68.333
  0
LINE
  8
0
 10
158.341
 11
158.209
 20
-68.333
 21
-68.385
  0
LINE
  8
0
 10
158.209
 11
158.072
 20
-68.385
 21
-68.42
  0
LINE
  8
0
 10
158.072
 11
157.931
 20
-68.42
 21
-68.438
  0
LINE
  8
0
 10
157.931
 11
157.789
 20
-68.438
 21
-68.438
  0
LINE
  8
0
 10
157.789
 11
157.648
 20
-68.438
 21
-68.42
  0
LINE
  8
0
 10
157.648
 11
157.511
 20
-68.42
 21
-68.385
  0
LINE
  8
0
 10
157.511
 11
157.379
 20
-68.385
 21
-68.333
  0
LINE
  8
0
 10
157.379
 11
157.254
 20
-68.333
 21
-68.264
  0
LINE
  8
0
 10
157.254
 11
157.14
 20
-68.264
 21
-68.181
  0
LINE
  8
0
 10
157.14
 11
157.036
 20
-68.181
 21
-68.084
  0
LINE
  8
0
 10
157.036
 11
156.946
 20
-68.084
 21
-67.974
  0
LINE
  8
0
 10
156.946
 11
156.87
 20
-67.974
 21
-67.855
  0
LINE
  8
0
 10
156.87
 11
156.809
 20
-67.855
 21
-67.726
  0
LINE
  8
0
 10
156.809
 11
156.765
 20
-67.726
 21
-67.591
  0
LINE
  8
0
 10
156.765
 11
156.739
 20
-67.591
 21
-67.452
  0
LINE
  8
0
 10
156.739
 11
156.73
 20
-67.452
 21
-67.31
  0
LINE
  8
0
 10
156.73
 11
156.739
 20
67.31
 21
67.452
  0
LINE
  8
0
 10
156.739
 11
156.765
 20
67.452
 21
67.591
  0
LINE
  8
0
 10
156.765
 11
156.809
 20
67.591
 21
67.726
  0
LINE
  8
0
 10
156.809
 11
156.87
 20
67.726
 21
67.855
  0
LINE
  8
0
 10
156.87
 11
156.946
 20
67.855
 21
67.974
  0
LINE
  8
0
 10
156.946
 11
157.036
 20
67.974
 21
68.084
  0
LINE
  8
0
 10
157.036
 11
157.14
 20
68.084
 21
68.181
  0
LINE
  8
0
 10
157.14
 11
157.254
 20
68.181
 21
68.264
  0
LINE
  8
0
 10
157.254
 11
157.379
 20
68.264
 21
68.333
  0
LINE
  8
0
 10
157.379
 11
157.511
 20
68.333
 21
68.385
  0
LINE
  8
0
 10
157.511
 11
157.648
 20
68.385
 21
68.42
  0
LINE
  8
0
 10
157.648
 11
157.789
 20
68.42
 21
68.438
  0
LINE
  8
0
 10
157.789
 11
157.931
 20
68.438
 21
68.438
  0
LINE
  8
0
 10
157.931
 11
158.072
 20
68.438
 21
68.42
  0
LINE
  8
0
 10
158.072
 11
158.209
 20
68.42
 21
68.385
  0
LINE
  8
0
 10
158.209
 11
158.341
 20
68.385
 21
68.333
  0
LINE
  8
0
 10
158.341
 11
158.466
 20
68.333
 21
68.264
  0
LINE
  8
0
 10
158.466
 11
158.58
 20
68.264
 21
68.181
  0
LINE
  8
0
 10
158.58
 11
158.684
 20
68.181
 21
68.084
  0
LINE
  8
0
 10
158.684
 11
158.774
 20
68.084
 21
67.974
  0
LINE
  8
0
 10
158.774
 11
158.85
 20
67.974
 21
67.855
  0
LINE
  8
0
 10
158.85
 11
158.911
 20
67.855
 21
67.726
  0
LINE
  8
0
 10
158.911
 11
158.955
 20
67.726
 21
67.591
  0
LINE
  8
0
 10
158.955
 11
158.981
 20
67.591
 21
67.452
  0
LINE
  8
0
 10
158.981
 11
158.99
 20
67.452
 21
67.31
  0
LINE
  8
0
 10
158.99
 11
158.981
 20
67.31
 21
67.168
  0
LINE
  8
0
 10
158.981
 11
158.955
 20
67.168
 21
67.029
  0
LINE
  8
0
 10
158.955
 11
158.911
 20
67.029
 21
66.894
  0
LINE
  8
0
 10
158.911
 11
158.85
 20
66.894
 21
66.765
  0
LINE
  8
0
 10
158.85
 11
158.774
 20
66.765
 21
66.646
  0
LINE
  8
0
 10
158.774
 11
158.684
 20
66.646
 21
66.536
  0
LINE
  8
0
 10
158.684
 11
158.58
 20
66.536
 21
66.439
  0
LINE
  8
0
 10
158.58
 11
158.466
 20
66.439
 21
66.356
  0
LINE
  8
0
 10
158.466
 11
158.341
 20
66.356
 21
66.287
  0
LINE
  8
0
 10
158.341
 11
158.209
 20
66.287
 21
66.235
  0
LINE
  8
0
 10
158.209
 11
158.072
 20
66.235
 21
66.2
  0
LINE
  8
0
 10
158.072
 11
157.931
 20
66.2
 21
66.182
  0
LINE
  8
0
 10
157.931
 11
157.789
 20
66.182
 21
66.182
  0
LINE
  8
0
 10
157.789
 11
157.648
 20
66.182
 21
66.2
  0
LINE
  8
0
 10
157.648
 11
157.511
 20
66.2
 21
66.235
  0
LINE
  8
0
 10
157.511
 11
157.379
 20
66.235
 21
66.287
  0
LINE
  8
0
 10
157.379
 11
157.254
 20
66.287
 21
66.356
  0
LINE
  8
0
 10
157.254
 11
157.14
 20
66.356
 21
66.439
  0
LINE
  8
0
 10
157.14
 11
157.036
 20
66.439
 21
66.536
  0
LINE
  8
0
 10
157.036
 11
156.946
 20
66.536
 21
66.646
  0
LINE
  8
0
 10
156.946
 11
156.87
 20
66.646
 21
66.765
  0
LINE
  8
0
 10
156.87
 11
156.809
 20
66.765
 21
66.894
  0
LINE
  8
0
 10
156.809
 11
156.765
 20
66.894
 21
67.029
  0
LINE
  8
0
 10
156.765
 11
156.739
 20
67.029
 21
67.168
  0
LINE
  8
0
 10
156.739
 11
156.73
 20
67.168
 21
67.31
  0
ENDSEC
  0
SECTION
  2
OBJECTS
  0
DICTIONARY
  0
ENDSEC
  0
EOF
