  0
SECTION
  2
BLOCKS
  0
ENDSEC
  0
SECTION
  2
ENTITIES
  0
LINE
  8
0
 10
99.05
 11
99.05
 20
-69.85
 21
69.85
  0
LINE
  8
0
 10
99.05
 11
160.05
 20
69.85
 21
69.85
  0
LINE
  8
0
 10
160.05
 11
160.05
 20
69.85
 21
-69.85
  0
LINE
  8
0
 10
160.05
 11
99.05
 20
-69.85
 21
-69.85
  0
LINE
  8
0
 10
100.46
 11
100.469
 20
-67.31
 21
-67.168
  0
LINE
  8
0
 10
100.469
 11
100.495
 20
-67.168
 21
-67.029
  0
LINE
  8
0
 10
100.495
 11
100.539
 20
-67.029
 21
-66.894
  0
LINE
  8
0
 10
100.539
 11
100.6
 20
-66.894
 21
-66.765
  0
LINE
  8
0
 10
100.6
 11
100.676
 20
-66.765
 21
-66.646
  0
LINE
  8
0
 10
100.676
 11
100.766
 20
-66.646
 21
-66.536
  0
LINE
  8
0
 10
100.766
 11
100.87
 20
-66.536
 21
-66.439
  0
LINE
  8
0
 10
100.87
 11
100.984
 20
-66.439
 21
-66.356
  0
LINE
  8
0
 10
100.984
 11
101.109
 20
-66.356
 21
-66.287
  0
LINE
  8
0
 10
101.109
 11
101.241
 20
-66.287
 21
-66.235
  0
LINE
  8
0
 10
101.241
 11
101.378
 20
-66.235
 21
-66.2
  0
LINE
  8
0
 10
101.378
 11
101.519
 20
-66.2
 21
-66.182
  0
LINE
  8
0
 10
101.519
 11
101.661
 20
-66.182
 21
-66.182
  0
LINE
  8
0
 10
101.661
 11
101.802
 20
-66.182
 21
-66.2
  0
LINE
  8
0
 10
101.802
 11
101.939
 20
-66.2
 21
-66.235
  0
LINE
  8
0
 10
101.939
 11
102.071
 20
-66.235
 21
-66.287
  0
LINE
  8
0
 10
102.071
 11
102.196
 20
-66.287
 21
-66.356
  0
LINE
  8
0
 10
102.196
 11
102.31
 20
-66.356
 21
-66.439
  0
LINE
  8
0
 10
102.31
 11
102.414
 20
-66.439
 21
-66.536
  0
LINE
  8
0
 10
102.414
 11
102.504
 20
-66.536
 21
-66.646
  0
LINE
  8
0
 10
102.504
 11
102.58
 20
-66.646
 21
-66.765
  0
LINE
  8
0
 10
102.58
 11
102.641
 20
-66.765
 21
-66.894
  0
LINE
  8
0
 10
102.641
 11
102.685
 20
-66.894
 21
-67.029
  0
LINE
  8
0
 10
102.685
 11
102.711
 20
-67.029
 21
-67.168
  0
LINE
  8
0
 10
102.711
 11
102.72
 20
-67.168
 21
-67.31
  0
LINE
  8
0
 10
102.72
 11
102.711
 20
-67.31
 21
-67.452
  0
LINE
  8
0
 10
102.711
 11
102.685
 20
-67.452
 21
-67.591
  0
LINE
  8
0
 10
102.685
 11
102.641
 20
-67.591
 21
-67.726
  0
LINE
  8
0
 10
102.641
 11
102.58
 20
-67.726
 21
-67.855
  0
LINE
  8
0
 10
102.58
 11
102.504
 20
-67.855
 21
-67.974
  0
LINE
  8
0
 10
102.504
 11
102.414
 20
-67.974
 21
-68.084
  0
LINE
  8
0
 10
102.414
 11
102.31
 20
-68.084
 21
-68.181
  0
LINE
  8
0
 10
102.31
 11
102.196
 20
-68.181
 21
-68.264
  0
LINE
  8
0
 10
102.196
 11
102.071
 20
-68.264
 21
-68.333
  0
LINE
  8
0
 10
102.071
 11
101.939
 20
-68.333
 21
-68.385
  0
LINE
  8
0
 10
101.939
 11
101.802
 20
-68.385
 21
-68.42
  0
LINE
  8
0
 10
101.802
 11
101.661
 20
-68.42
 21
-68.438
  0
LINE
  8
0
 10
101.661
 11
101.519
 20
-68.438
 21
-68.438
  0
LINE
  8
0
 10
101.519
 11
101.378
 20
-68.438
 21
-68.42
  0
LINE
  8
0
 10
101.378
 11
101.241
 20
-68.42
 21
-68.385
  0
LINE
  8
0
 10
101.241
 11
101.109
 20
-68.385
 21
-68.333
  0
LINE
  8
0
 10
101.109
 11
100.984
 20
-68.333
 21
-68.264
  0
LINE
  8
0
 10
100.984
 11
100.87
 20
-68.264
 21
-68.181
  0
LINE
  8
0
 10
100.87
 11
100.766
 20
-68.181
 21
-68.084
  0
LINE
  8
0
 10
100.766
 11
100.676
 20
-68.084
 21
-67.974
  0
LINE
  8
0
 10
100.676
 11
100.6
 20
-67.974
 21
-67.855
  0
LINE
  8
0
 10
100.6
 11
100.539
 20
-67.855
 21
-67.726
  0
LINE
  8
0
 10
100.539
 11
100.495
 20
-67.726
 21
-67.591
  0
LINE
  8
0
 10
100.495
 11
100.469
 20
-67.591
 21
-67.452
  0
LINE
  8
0
 10
100.469
 11
100.46
 20
-67.452
 21
-67.31
  0
LINE
  8
0
 10
100.46
 11
100.469
 20
67.31
 21
67.452
  0
LINE
  8
0
 10
100.469
 11
100.495
 20
67.452
 21
67.591
  0
LINE
  8
0
 10
100.495
 11
100.539
 20
67.591
 21
67.726
  0
LINE
  8
0
 10
100.539
 11
100.6
 20
67.726
 21
67.855
  0
LINE
  8
0
 10
100.6
 11
100.676
 20
67.855
 21
67.974
  0
LINE
  8
0
 10
100.676
 11
100.766
 20
67.974
 21
68.084
  0
LINE
  8
0
 10
100.766
 11
100.87
 20
68.084
 21
68.181
  0
LINE
  8
0
 10
100.87
 11
100.984
 20
68.181
 21
68.264
  0
LINE
  8
0
 10
100.984
 11
101.109
 20
68.264
 21
68.333
  0
LINE
  8
0
 10
101.109
 11
101.241
 20
68.333
 21
68.385
  0
LINE
  8
0
 10
101.241
 11
101.378
 20
68.385
 21
68.42
  0
LINE
  8
0
 10
101.378
 11
101.519
 20
68.42
 21
68.438
  0
LINE
  8
0
 10
101.519
 11
101.661
 20
68.438
 21
68.438
  0
LINE
  8
0
 10
101.661
 11
101.802
 20
68.438
 21
68.42
  0
LINE
  8
0
 10
101.802
 11
101.939
 20
68.42
 21
68.385
  0
LINE
  8
0
 10
101.939
 11
102.071
 20
68.385
 21
68.333
  0
LINE
  8
0
 10
102.071
 11
102.196
 20
68.333
 21
68.264
  0
LINE
  8
0
 10
102.196
 11
102.31
 20
68.264
 21
68.181
  0
LINE
  8
0
 10
102.31
 11
102.414
 20
68.181
 21
68.084
  0
LINE
  8
0
 10
102.414
 11
102.504
 20
68.084
 21
67.974
  0
LINE
  8
0
 10
102.504
 11
102.58
 20
67.974
 21
67.855
  0
LINE
  8
0
 10
102.58
 11
102.641
 20
67.855
 21
67.726
  0
LINE
  8
0
 10
102.641
 11
102.685
 20
67.726
 21
67.591
  0
LINE
  8
0
 10
102.685
 11
102.711
 20
67.591
 21
67.452
  0
LINE
  8
0
 10
102.711
 11
102.72
 20
67.452
 21
67.31
  0
LINE
  8
0
 10
102.72
 11
102.711
 20
67.31
 21
67.168
  0
LINE
  8
0
 10
102.711
 11
102.685
 20
67.168
 21
67.029
  0
LINE
  8
0
 10
102.685
 11
102.641
 20
67.029
 21
66.894
  0
LINE
  8
0
 10
102.641
 11
102.58
 20
66.894
 21
66.765
  0
LINE
  8
0
 10
102.58
 11
102.504
 20
66.765
 21
66.646
  0
LINE
  8
0
 10
102.504
 11
102.414
 20
66.646
 21
66.536
  0
LINE
  8
0
 10
102.414
 11
102.31
 20
66.536
 21
66.439
  0
LINE
  8
0
 10
102.31
 11
102.196
 20
66.439
 21
66.356
  0
LINE
  8
0
 10
102.196
 11
102.071
 20
66.356
 21
66.287
  0
LINE
  8
0
 10
102.071
 11
101.939
 20
66.287
 21
66.235
  0
LINE
  8
0
 10
101.939
 11
101.802
 20
66.235
 21
66.2
  0
LINE
  8
0
 10
101.802
 11
101.661
 20
66.2
 21
66.182
  0
LINE
  8
0
 10
101.661
 11
101.519
 20
66.182
 21
66.182
  0
LINE
  8
0
 10
101.519
 11
101.378
 20
66.182
 21
66.2
  0
LINE
  8
0
 10
101.378
 11
101.241
 20
66.2
 21
66.235
  0
LINE
  8
0
 10
101.241
 11
101.109
 20
66.235
 21
66.287
  0
LINE
  8
0
 10
101.109
 11
100.984
 20
66.287
 21
66.356
  0
LINE
  8
0
 10
100.984
 11
100.87
 20
66.356
 21
66.439
  0
LINE
  8
0
 10
100.87
 11
100.766
 20
66.439
 21
66.536
  0
LINE
  8
0
 10
100.766
 11
100.676
 20
66.536
 21
66.646
  0
LINE
  8
0
 10
100.676
 11
100.6
 20
66.646
 21
66.765
  0
LINE
  8
0
 10
100.6
 11
100.539
 20
66.765
 21
66.894
  0
LINE
  8
0
 10
100.539
 11
100.495
 20
66.894
 21
67.029
  0
LINE
  8
0
 10
100.495
 11
100.469
 20
67.029
 21
67.168
  0
LINE
  8
0
 10
100.469
 11
100.46
 20
67.168
 21
67.31
  0
LINE
  8
0
 10
156.38
 11
156.389
 20
-67.31
 21
-67.168
  0
LINE
  8
0
 10
156.389
 11
156.415
 20
-67.168
 21
-67.029
  0
LINE
  8
0
 10
156.415
 11
156.459
 20
-67.029
 21
-66.894
  0
LINE
  8
0
 10
156.459
 11
156.52
 20
-66.894
 21
-66.765
  0
LINE
  8
0
 10
156.52
 11
156.596
 20
-66.765
 21
-66.646
  0
LINE
  8
0
 10
156.596
 11
156.686
 20
-66.646
 21
-66.536
  0
LINE
  8
0
 10
156.686
 11
156.79
 20
-66.536
 21
-66.439
  0
LINE
  8
0
 10
156.79
 11
156.904
 20
-66.439
 21
-66.356
  0
LINE
  8
0
 10
156.904
 11
157.029
 20
-66.356
 21
-66.287
  0
LINE
  8
0
 10
157.029
 11
157.161
 20
-66.287
 21
-66.235
  0
LINE
  8
0
 10
157.161
 11
157.298
 20
-66.235
 21
-66.2
  0
LINE
  8
0
 10
157.298
 11
157.439
 20
-66.2
 21
-66.182
  0
LINE
  8
0
 10
157.439
 11
157.581
 20
-66.182
 21
-66.182
  0
LINE
  8
0
 10
157.581
 11
157.722
 20
-66.182
 21
-66.2
  0
LINE
  8
0
 10
157.722
 11
157.859
 20
-66.2
 21
-66.235
  0
LINE
  8
0
 10
157.859
 11
157.991
 20
-66.235
 21
-66.287
  0
LINE
  8
0
 10
157.991
 11
158.116
 20
-66.287
 21
-66.356
  0
LINE
  8
0
 10
158.116
 11
158.23
 20
-66.356
 21
-66.439
  0
LINE
  8
0
 10
158.23
 11
158.334
 20
-66.439
 21
-66.536
  0
LINE
  8
0
 10
158.334
 11
158.424
 20
-66.536
 21
-66.646
  0
LINE
  8
0
 10
158.424
 11
158.5
 20
-66.646
 21
-66.765
  0
LINE
  8
0
 10
158.5
 11
158.561
 20
-66.765
 21
-66.894
  0
LINE
  8
0
 10
158.561
 11
158.605
 20
-66.894
 21
-67.029
  0
LINE
  8
0
 10
158.605
 11
158.631
 20
-67.029
 21
-67.168
  0
LINE
  8
0
 10
158.631
 11
158.64
 20
-67.168
 21
-67.31
  0
LINE
  8
0
 10
158.64
 11
158.631
 20
-67.31
 21
-67.452
  0
LINE
  8
0
 10
158.631
 11
158.605
 20
-67.452
 21
-67.591
  0
LINE
  8
0
 10
158.605
 11
158.561
 20
-67.591
 21
-67.726
  0
LINE
  8
0
 10
158.561
 11
158.5
 20
-67.726
 21
-67.855
  0
LINE
  8
0
 10
158.5
 11
158.424
 20
-67.855
 21
-67.974
  0
LINE
  8
0
 10
158.424
 11
158.334
 20
-67.974
 21
-68.084
  0
LINE
  8
0
 10
158.334
 11
158.23
 20
-68.084
 21
-68.181
  0
LINE
  8
0
 10
158.23
 11
158.116
 20
-68.181
 21
-68.264
  0
LINE
  8
0
 10
158.116
 11
157.991
 20
-68.264
 21
-68.333
  0
LINE
  8
0
 10
157.991
 11
157.859
 20
-68.333
 21
-68.385
  0
LINE
  8
0
 10
157.859
 11
157.722
 20
-68.385
 21
-68.42
  0
LINE
  8
0
 10
157.722
 11
157.581
 20
-68.42
 21
-68.438
  0
LINE
  8
0
 10
157.581
 11
157.439
 20
-68.438
 21
-68.438
  0
LINE
  8
0
 10
157.439
 11
157.298
 20
-68.438
 21
-68.42
  0
LINE
  8
0
 10
157.298
 11
157.161
 20
-68.42
 21
-68.385
  0
LINE
  8
0
 10
157.161
 11
157.029
 20
-68.385
 21
-68.333
  0
LINE
  8
0
 10
157.029
 11
156.904
 20
-68.333
 21
-68.264
  0
LINE
  8
0
 10
156.904
 11
156.79
 20
-68.264
 21
-68.181
  0
LINE
  8
0
 10
156.79
 11
156.686
 20
-68.181
 21
-68.084
  0
LINE
  8
0
 10
156.686
 11
156.596
 20
-68.084
 21
-67.974
  0
LINE
  8
0
 10
156.596
 11
156.52
 20
-67.974
 21
-67.855
  0
LINE
  8
0
 10
156.52
 11
156.459
 20
-67.855
 21
-67.726
  0
LINE
  8
0
 10
156.459
 11
156.415
 20
-67.726
 21
-67.591
  0
LINE
  8
0
 10
156.415
 11
156.389
 20
-67.591
 21
-67.452
  0
LINE
  8
0
 10
156.389
 11
156.38
 20
-67.452
 21
-67.31
  0
LINE
  8
0
 10
156.38
 11
156.389
 20
67.31
 21
67.452
  0
LINE
  8
0
 10
156.389
 11
156.415
 20
67.452
 21
67.591
  0
LINE
  8
0
 10
156.415
 11
156.459
 20
67.591
 21
67.726
  0
LINE
  8
0
 10
156.459
 11
156.52
 20
67.726
 21
67.855
  0
LINE
  8
0
 10
156.52
 11
156.596
 20
67.855
 21
67.974
  0
LINE
  8
0
 10
156.596
 11
156.686
 20
67.974
 21
68.084
  0
LINE
  8
0
 10
156.686
 11
156.79
 20
68.084
 21
68.181
  0
LINE
  8
0
 10
156.79
 11
156.904
 20
68.181
 21
68.264
  0
LINE
  8
0
 10
156.904
 11
157.029
 20
68.264
 21
68.333
  0
LINE
  8
0
 10
157.029
 11
157.161
 20
68.333
 21
68.385
  0
LINE
  8
0
 10
157.161
 11
157.298
 20
68.385
 21
68.42
  0
LINE
  8
0
 10
157.298
 11
157.439
 20
68.42
 21
68.438
  0
LINE
  8
0
 10
157.439
 11
157.581
 20
68.438
 21
68.438
  0
LINE
  8
0
 10
157.581
 11
157.722
 20
68.438
 21
68.42
  0
LINE
  8
0
 10
157.722
 11
157.859
 20
68.42
 21
68.385
  0
LINE
  8
0
 10
157.859
 11
157.991
 20
68.385
 21
68.333
  0
LINE
  8
0
 10
157.991
 11
158.116
 20
68.333
 21
68.264
  0
LINE
  8
0
 10
158.116
 11
158.23
 20
68.264
 21
68.181
  0
LINE
  8
0
 10
158.23
 11
158.334
 20
68.181
 21
68.084
  0
LINE
  8
0
 10
158.334
 11
158.424
 20
68.084
 21
67.974
  0
LINE
  8
0
 10
158.424
 11
158.5
 20
67.974
 21
67.855
  0
LINE
  8
0
 10
158.5
 11
158.561
 20
67.855
 21
67.726
  0
LINE
  8
0
 10
158.561
 11
158.605
 20
67.726
 21
67.591
  0
LINE
  8
0
 10
158.605
 11
158.631
 20
67.591
 21
67.452
  0
LINE
  8
0
 10
158.631
 11
158.64
 20
67.452
 21
67.31
  0
LINE
  8
0
 10
158.64
 11
158.631
 20
67.31
 21
67.168
  0
LINE
  8
0
 10
158.631
 11
158.605
 20
67.168
 21
67.029
  0
LINE
  8
0
 10
158.605
 11
158.561
 20
67.029
 21
66.894
  0
LINE
  8
0
 10
158.561
 11
158.5
 20
66.894
 21
66.765
  0
LINE
  8
0
 10
158.5
 11
158.424
 20
66.765
 21
66.646
  0
LINE
  8
0
 10
158.424
 11
158.334
 20
66.646
 21
66.536
  0
LINE
  8
0
 10
158.334
 11
158.23
 20
66.536
 21
66.439
  0
LINE
  8
0
 10
158.23
 11
158.116
 20
66.439
 21
66.356
  0
LINE
  8
0
 10
158.116
 11
157.991
 20
66.356
 21
66.287
  0
LINE
  8
0
 10
157.991
 11
157.859
 20
66.287
 21
66.235
  0
LINE
  8
0
 10
157.859
 11
157.722
 20
66.235
 21
66.2
  0
LINE
  8
0
 10
157.722
 11
157.581
 20
66.2
 21
66.182
  0
LINE
  8
0
 10
157.581
 11
157.439
 20
66.182
 21
66.182
  0
LINE
  8
0
 10
157.439
 11
157.298
 20
66.182
 21
66.2
  0
LINE
  8
0
 10
157.298
 11
157.161
 20
66.2
 21
66.235
  0
LINE
  8
0
 10
157.161
 11
157.029
 20
66.235
 21
66.287
  0
LINE
  8
0
 10
157.029
 11
156.904
 20
66.287
 21
66.356
  0
LINE
  8
0
 10
156.904
 11
156.79
 20
66.356
 21
66.439
  0
LINE
  8
0
 10
156.79
 11
156.686
 20
66.439
 21
66.536
  0
LINE
  8
0
 10
156.686
 11
156.596
 20
66.536
 21
66.646
  0
LINE
  8
0
 10
156.596
 11
156.52
 20
66.646
 21
66.765
  0
LINE
  8
0
 10
156.52
 11
156.459
 20
66.765
 21
66.894
  0
LINE
  8
0
 10
156.459
 11
156.415
 20
66.894
 21
67.029
  0
LINE
  8
0
 10
156.415
 11
156.389
 20
67.029
 21
67.168
  0
LINE
  8
0
 10
156.389
 11
156.38
 20
67.168
 21
67.31
  0
ENDSEC
  0
SECTION
  2
OBJECTS
  0
DICTIONARY
  0
ENDSEC
  0
EOF
