  0
SECTION
  2
BLOCKS
  0
ENDSEC
  0
SECTION
  2
ENTITIES
  0
LINE
  8
0
 10
97.05
 11
97.05
 20
-69.85
 21
69.85
  0
LINE
  8
0
 10
97.05
 11
158.05
 20
69.85
 21
69.85
  0
LINE
  8
0
 10
158.05
 11
158.05
 20
69.85
 21
-69.85
  0
LINE
  8
0
 10
158.05
 11
97.05
 20
-69.85
 21
-69.85
  0
LINE
  8
0
 10
98.46
 11
98.469
 20
-67.31
 21
-67.168
  0
LINE
  8
0
 10
98.469
 11
98.495
 20
-67.168
 21
-67.029
  0
LINE
  8
0
 10
98.495
 11
98.539
 20
-67.029
 21
-66.894
  0
LINE
  8
0
 10
98.539
 11
98.6
 20
-66.894
 21
-66.765
  0
LINE
  8
0
 10
98.6
 11
98.676
 20
-66.765
 21
-66.646
  0
LINE
  8
0
 10
98.676
 11
98.766
 20
-66.646
 21
-66.536
  0
LINE
  8
0
 10
98.766
 11
98.87
 20
-66.536
 21
-66.439
  0
LINE
  8
0
 10
98.87
 11
98.984
 20
-66.439
 21
-66.356
  0
LINE
  8
0
 10
98.984
 11
99.109
 20
-66.356
 21
-66.287
  0
LINE
  8
0
 10
99.109
 11
99.241
 20
-66.287
 21
-66.235
  0
LINE
  8
0
 10
99.241
 11
99.378
 20
-66.235
 21
-66.2
  0
LINE
  8
0
 10
99.378
 11
99.519
 20
-66.2
 21
-66.182
  0
LINE
  8
0
 10
99.519
 11
99.661
 20
-66.182
 21
-66.182
  0
LINE
  8
0
 10
99.661
 11
99.802
 20
-66.182
 21
-66.2
  0
LINE
  8
0
 10
99.802
 11
99.939
 20
-66.2
 21
-66.235
  0
LINE
  8
0
 10
99.939
 11
100.071
 20
-66.235
 21
-66.287
  0
LINE
  8
0
 10
100.071
 11
100.196
 20
-66.287
 21
-66.356
  0
LINE
  8
0
 10
100.196
 11
100.31
 20
-66.356
 21
-66.439
  0
LINE
  8
0
 10
100.31
 11
100.414
 20
-66.439
 21
-66.536
  0
LINE
  8
0
 10
100.414
 11
100.504
 20
-66.536
 21
-66.646
  0
LINE
  8
0
 10
100.504
 11
100.58
 20
-66.646
 21
-66.765
  0
LINE
  8
0
 10
100.58
 11
100.641
 20
-66.765
 21
-66.894
  0
LINE
  8
0
 10
100.641
 11
100.685
 20
-66.894
 21
-67.029
  0
LINE
  8
0
 10
100.685
 11
100.711
 20
-67.029
 21
-67.168
  0
LINE
  8
0
 10
100.711
 11
100.72
 20
-67.168
 21
-67.31
  0
LINE
  8
0
 10
100.72
 11
100.711
 20
-67.31
 21
-67.452
  0
LINE
  8
0
 10
100.711
 11
100.685
 20
-67.452
 21
-67.591
  0
LINE
  8
0
 10
100.685
 11
100.641
 20
-67.591
 21
-67.726
  0
LINE
  8
0
 10
100.641
 11
100.58
 20
-67.726
 21
-67.855
  0
LINE
  8
0
 10
100.58
 11
100.504
 20
-67.855
 21
-67.974
  0
LINE
  8
0
 10
100.504
 11
100.414
 20
-67.974
 21
-68.084
  0
LINE
  8
0
 10
100.414
 11
100.31
 20
-68.084
 21
-68.181
  0
LINE
  8
0
 10
100.31
 11
100.196
 20
-68.181
 21
-68.264
  0
LINE
  8
0
 10
100.196
 11
100.071
 20
-68.264
 21
-68.333
  0
LINE
  8
0
 10
100.071
 11
99.939
 20
-68.333
 21
-68.385
  0
LINE
  8
0
 10
99.939
 11
99.802
 20
-68.385
 21
-68.42
  0
LINE
  8
0
 10
99.802
 11
99.661
 20
-68.42
 21
-68.438
  0
LINE
  8
0
 10
99.661
 11
99.519
 20
-68.438
 21
-68.438
  0
LINE
  8
0
 10
99.519
 11
99.378
 20
-68.438
 21
-68.42
  0
LINE
  8
0
 10
99.378
 11
99.241
 20
-68.42
 21
-68.385
  0
LINE
  8
0
 10
99.241
 11
99.109
 20
-68.385
 21
-68.333
  0
LINE
  8
0
 10
99.109
 11
98.984
 20
-68.333
 21
-68.264
  0
LINE
  8
0
 10
98.984
 11
98.87
 20
-68.264
 21
-68.181
  0
LINE
  8
0
 10
98.87
 11
98.766
 20
-68.181
 21
-68.084
  0
LINE
  8
0
 10
98.766
 11
98.676
 20
-68.084
 21
-67.974
  0
LINE
  8
0
 10
98.676
 11
98.6
 20
-67.974
 21
-67.855
  0
LINE
  8
0
 10
98.6
 11
98.539
 20
-67.855
 21
-67.726
  0
LINE
  8
0
 10
98.539
 11
98.495
 20
-67.726
 21
-67.591
  0
LINE
  8
0
 10
98.495
 11
98.469
 20
-67.591
 21
-67.452
  0
LINE
  8
0
 10
98.469
 11
98.46
 20
-67.452
 21
-67.31
  0
LINE
  8
0
 10
98.46
 11
98.469
 20
67.31
 21
67.452
  0
LINE
  8
0
 10
98.469
 11
98.495
 20
67.452
 21
67.591
  0
LINE
  8
0
 10
98.495
 11
98.539
 20
67.591
 21
67.726
  0
LINE
  8
0
 10
98.539
 11
98.6
 20
67.726
 21
67.855
  0
LINE
  8
0
 10
98.6
 11
98.676
 20
67.855
 21
67.974
  0
LINE
  8
0
 10
98.676
 11
98.766
 20
67.974
 21
68.084
  0
LINE
  8
0
 10
98.766
 11
98.87
 20
68.084
 21
68.181
  0
LINE
  8
0
 10
98.87
 11
98.984
 20
68.181
 21
68.264
  0
LINE
  8
0
 10
98.984
 11
99.109
 20
68.264
 21
68.333
  0
LINE
  8
0
 10
99.109
 11
99.241
 20
68.333
 21
68.385
  0
LINE
  8
0
 10
99.241
 11
99.378
 20
68.385
 21
68.42
  0
LINE
  8
0
 10
99.378
 11
99.519
 20
68.42
 21
68.438
  0
LINE
  8
0
 10
99.519
 11
99.661
 20
68.438
 21
68.438
  0
LINE
  8
0
 10
99.661
 11
99.802
 20
68.438
 21
68.42
  0
LINE
  8
0
 10
99.802
 11
99.939
 20
68.42
 21
68.385
  0
LINE
  8
0
 10
99.939
 11
100.071
 20
68.385
 21
68.333
  0
LINE
  8
0
 10
100.071
 11
100.196
 20
68.333
 21
68.264
  0
LINE
  8
0
 10
100.196
 11
100.31
 20
68.264
 21
68.181
  0
LINE
  8
0
 10
100.31
 11
100.414
 20
68.181
 21
68.084
  0
LINE
  8
0
 10
100.414
 11
100.504
 20
68.084
 21
67.974
  0
LINE
  8
0
 10
100.504
 11
100.58
 20
67.974
 21
67.855
  0
LINE
  8
0
 10
100.58
 11
100.641
 20
67.855
 21
67.726
  0
LINE
  8
0
 10
100.641
 11
100.685
 20
67.726
 21
67.591
  0
LINE
  8
0
 10
100.685
 11
100.711
 20
67.591
 21
67.452
  0
LINE
  8
0
 10
100.711
 11
100.72
 20
67.452
 21
67.31
  0
LINE
  8
0
 10
100.72
 11
100.711
 20
67.31
 21
67.168
  0
LINE
  8
0
 10
100.711
 11
100.685
 20
67.168
 21
67.029
  0
LINE
  8
0
 10
100.685
 11
100.641
 20
67.029
 21
66.894
  0
LINE
  8
0
 10
100.641
 11
100.58
 20
66.894
 21
66.765
  0
LINE
  8
0
 10
100.58
 11
100.504
 20
66.765
 21
66.646
  0
LINE
  8
0
 10
100.504
 11
100.414
 20
66.646
 21
66.536
  0
LINE
  8
0
 10
100.414
 11
100.31
 20
66.536
 21
66.439
  0
LINE
  8
0
 10
100.31
 11
100.196
 20
66.439
 21
66.356
  0
LINE
  8
0
 10
100.196
 11
100.071
 20
66.356
 21
66.287
  0
LINE
  8
0
 10
100.071
 11
99.939
 20
66.287
 21
66.235
  0
LINE
  8
0
 10
99.939
 11
99.802
 20
66.235
 21
66.2
  0
LINE
  8
0
 10
99.802
 11
99.661
 20
66.2
 21
66.182
  0
LINE
  8
0
 10
99.661
 11
99.519
 20
66.182
 21
66.182
  0
LINE
  8
0
 10
99.519
 11
99.378
 20
66.182
 21
66.2
  0
LINE
  8
0
 10
99.378
 11
99.241
 20
66.2
 21
66.235
  0
LINE
  8
0
 10
99.241
 11
99.109
 20
66.235
 21
66.287
  0
LINE
  8
0
 10
99.109
 11
98.984
 20
66.287
 21
66.356
  0
LINE
  8
0
 10
98.984
 11
98.87
 20
66.356
 21
66.439
  0
LINE
  8
0
 10
98.87
 11
98.766
 20
66.439
 21
66.536
  0
LINE
  8
0
 10
98.766
 11
98.676
 20
66.536
 21
66.646
  0
LINE
  8
0
 10
98.676
 11
98.6
 20
66.646
 21
66.765
  0
LINE
  8
0
 10
98.6
 11
98.539
 20
66.765
 21
66.894
  0
LINE
  8
0
 10
98.539
 11
98.495
 20
66.894
 21
67.029
  0
LINE
  8
0
 10
98.495
 11
98.469
 20
67.029
 21
67.168
  0
LINE
  8
0
 10
98.469
 11
98.46
 20
67.168
 21
67.31
  0
LINE
  8
0
 10
154.38
 11
154.389
 20
-67.31
 21
-67.168
  0
LINE
  8
0
 10
154.389
 11
154.415
 20
-67.168
 21
-67.029
  0
LINE
  8
0
 10
154.415
 11
154.459
 20
-67.029
 21
-66.894
  0
LINE
  8
0
 10
154.459
 11
154.52
 20
-66.894
 21
-66.765
  0
LINE
  8
0
 10
154.52
 11
154.596
 20
-66.765
 21
-66.646
  0
LINE
  8
0
 10
154.596
 11
154.686
 20
-66.646
 21
-66.536
  0
LINE
  8
0
 10
154.686
 11
154.79
 20
-66.536
 21
-66.439
  0
LINE
  8
0
 10
154.79
 11
154.904
 20
-66.439
 21
-66.356
  0
LINE
  8
0
 10
154.904
 11
155.029
 20
-66.356
 21
-66.287
  0
LINE
  8
0
 10
155.029
 11
155.161
 20
-66.287
 21
-66.235
  0
LINE
  8
0
 10
155.161
 11
155.298
 20
-66.235
 21
-66.2
  0
LINE
  8
0
 10
155.298
 11
155.439
 20
-66.2
 21
-66.182
  0
LINE
  8
0
 10
155.439
 11
155.581
 20
-66.182
 21
-66.182
  0
LINE
  8
0
 10
155.581
 11
155.722
 20
-66.182
 21
-66.2
  0
LINE
  8
0
 10
155.722
 11
155.859
 20
-66.2
 21
-66.235
  0
LINE
  8
0
 10
155.859
 11
155.991
 20
-66.235
 21
-66.287
  0
LINE
  8
0
 10
155.991
 11
156.116
 20
-66.287
 21
-66.356
  0
LINE
  8
0
 10
156.116
 11
156.23
 20
-66.356
 21
-66.439
  0
LINE
  8
0
 10
156.23
 11
156.334
 20
-66.439
 21
-66.536
  0
LINE
  8
0
 10
156.334
 11
156.424
 20
-66.536
 21
-66.646
  0
LINE
  8
0
 10
156.424
 11
156.5
 20
-66.646
 21
-66.765
  0
LINE
  8
0
 10
156.5
 11
156.561
 20
-66.765
 21
-66.894
  0
LINE
  8
0
 10
156.561
 11
156.605
 20
-66.894
 21
-67.029
  0
LINE
  8
0
 10
156.605
 11
156.631
 20
-67.029
 21
-67.168
  0
LINE
  8
0
 10
156.631
 11
156.64
 20
-67.168
 21
-67.31
  0
LINE
  8
0
 10
156.64
 11
156.631
 20
-67.31
 21
-67.452
  0
LINE
  8
0
 10
156.631
 11
156.605
 20
-67.452
 21
-67.591
  0
LINE
  8
0
 10
156.605
 11
156.561
 20
-67.591
 21
-67.726
  0
LINE
  8
0
 10
156.561
 11
156.5
 20
-67.726
 21
-67.855
  0
LINE
  8
0
 10
156.5
 11
156.424
 20
-67.855
 21
-67.974
  0
LINE
  8
0
 10
156.424
 11
156.334
 20
-67.974
 21
-68.084
  0
LINE
  8
0
 10
156.334
 11
156.23
 20
-68.084
 21
-68.181
  0
LINE
  8
0
 10
156.23
 11
156.116
 20
-68.181
 21
-68.264
  0
LINE
  8
0
 10
156.116
 11
155.991
 20
-68.264
 21
-68.333
  0
LINE
  8
0
 10
155.991
 11
155.859
 20
-68.333
 21
-68.385
  0
LINE
  8
0
 10
155.859
 11
155.722
 20
-68.385
 21
-68.42
  0
LINE
  8
0
 10
155.722
 11
155.581
 20
-68.42
 21
-68.438
  0
LINE
  8
0
 10
155.581
 11
155.439
 20
-68.438
 21
-68.438
  0
LINE
  8
0
 10
155.439
 11
155.298
 20
-68.438
 21
-68.42
  0
LINE
  8
0
 10
155.298
 11
155.161
 20
-68.42
 21
-68.385
  0
LINE
  8
0
 10
155.161
 11
155.029
 20
-68.385
 21
-68.333
  0
LINE
  8
0
 10
155.029
 11
154.904
 20
-68.333
 21
-68.264
  0
LINE
  8
0
 10
154.904
 11
154.79
 20
-68.264
 21
-68.181
  0
LINE
  8
0
 10
154.79
 11
154.686
 20
-68.181
 21
-68.084
  0
LINE
  8
0
 10
154.686
 11
154.596
 20
-68.084
 21
-67.974
  0
LINE
  8
0
 10
154.596
 11
154.52
 20
-67.974
 21
-67.855
  0
LINE
  8
0
 10
154.52
 11
154.459
 20
-67.855
 21
-67.726
  0
LINE
  8
0
 10
154.459
 11
154.415
 20
-67.726
 21
-67.591
  0
LINE
  8
0
 10
154.415
 11
154.389
 20
-67.591
 21
-67.452
  0
LINE
  8
0
 10
154.389
 11
154.38
 20
-67.452
 21
-67.31
  0
LINE
  8
0
 10
154.38
 11
154.389
 20
67.31
 21
67.452
  0
LINE
  8
0
 10
154.389
 11
154.415
 20
67.452
 21
67.591
  0
LINE
  8
0
 10
154.415
 11
154.459
 20
67.591
 21
67.726
  0
LINE
  8
0
 10
154.459
 11
154.52
 20
67.726
 21
67.855
  0
LINE
  8
0
 10
154.52
 11
154.596
 20
67.855
 21
67.974
  0
LINE
  8
0
 10
154.596
 11
154.686
 20
67.974
 21
68.084
  0
LINE
  8
0
 10
154.686
 11
154.79
 20
68.084
 21
68.181
  0
LINE
  8
0
 10
154.79
 11
154.904
 20
68.181
 21
68.264
  0
LINE
  8
0
 10
154.904
 11
155.029
 20
68.264
 21
68.333
  0
LINE
  8
0
 10
155.029
 11
155.161
 20
68.333
 21
68.385
  0
LINE
  8
0
 10
155.161
 11
155.298
 20
68.385
 21
68.42
  0
LINE
  8
0
 10
155.298
 11
155.439
 20
68.42
 21
68.438
  0
LINE
  8
0
 10
155.439
 11
155.581
 20
68.438
 21
68.438
  0
LINE
  8
0
 10
155.581
 11
155.722
 20
68.438
 21
68.42
  0
LINE
  8
0
 10
155.722
 11
155.859
 20
68.42
 21
68.385
  0
LINE
  8
0
 10
155.859
 11
155.991
 20
68.385
 21
68.333
  0
LINE
  8
0
 10
155.991
 11
156.116
 20
68.333
 21
68.264
  0
LINE
  8
0
 10
156.116
 11
156.23
 20
68.264
 21
68.181
  0
LINE
  8
0
 10
156.23
 11
156.334
 20
68.181
 21
68.084
  0
LINE
  8
0
 10
156.334
 11
156.424
 20
68.084
 21
67.974
  0
LINE
  8
0
 10
156.424
 11
156.5
 20
67.974
 21
67.855
  0
LINE
  8
0
 10
156.5
 11
156.561
 20
67.855
 21
67.726
  0
LINE
  8
0
 10
156.561
 11
156.605
 20
67.726
 21
67.591
  0
LINE
  8
0
 10
156.605
 11
156.631
 20
67.591
 21
67.452
  0
LINE
  8
0
 10
156.631
 11
156.64
 20
67.452
 21
67.31
  0
LINE
  8
0
 10
156.64
 11
156.631
 20
67.31
 21
67.168
  0
LINE
  8
0
 10
156.631
 11
156.605
 20
67.168
 21
67.029
  0
LINE
  8
0
 10
156.605
 11
156.561
 20
67.029
 21
66.894
  0
LINE
  8
0
 10
156.561
 11
156.5
 20
66.894
 21
66.765
  0
LINE
  8
0
 10
156.5
 11
156.424
 20
66.765
 21
66.646
  0
LINE
  8
0
 10
156.424
 11
156.334
 20
66.646
 21
66.536
  0
LINE
  8
0
 10
156.334
 11
156.23
 20
66.536
 21
66.439
  0
LINE
  8
0
 10
156.23
 11
156.116
 20
66.439
 21
66.356
  0
LINE
  8
0
 10
156.116
 11
155.991
 20
66.356
 21
66.287
  0
LINE
  8
0
 10
155.991
 11
155.859
 20
66.287
 21
66.235
  0
LINE
  8
0
 10
155.859
 11
155.722
 20
66.235
 21
66.2
  0
LINE
  8
0
 10
155.722
 11
155.581
 20
66.2
 21
66.182
  0
LINE
  8
0
 10
155.581
 11
155.439
 20
66.182
 21
66.182
  0
LINE
  8
0
 10
155.439
 11
155.298
 20
66.182
 21
66.2
  0
LINE
  8
0
 10
155.298
 11
155.161
 20
66.2
 21
66.235
  0
LINE
  8
0
 10
155.161
 11
155.029
 20
66.235
 21
66.287
  0
LINE
  8
0
 10
155.029
 11
154.904
 20
66.287
 21
66.356
  0
LINE
  8
0
 10
154.904
 11
154.79
 20
66.356
 21
66.439
  0
LINE
  8
0
 10
154.79
 11
154.686
 20
66.439
 21
66.536
  0
LINE
  8
0
 10
154.686
 11
154.596
 20
66.536
 21
66.646
  0
LINE
  8
0
 10
154.596
 11
154.52
 20
66.646
 21
66.765
  0
LINE
  8
0
 10
154.52
 11
154.459
 20
66.765
 21
66.894
  0
LINE
  8
0
 10
154.459
 11
154.415
 20
66.894
 21
67.029
  0
LINE
  8
0
 10
154.415
 11
154.389
 20
67.029
 21
67.168
  0
LINE
  8
0
 10
154.389
 11
154.38
 20
67.168
 21
67.31
  0
ENDSEC
  0
SECTION
  2
OBJECTS
  0
DICTIONARY
  0
ENDSEC
  0
EOF
