  0
SECTION
  2
BLOCKS
  0
ENDSEC
  0
SECTION
  2
ENTITIES
  0
LINE
  8
0
 10
-234.45
 11
-234.45
 20
-12.65
 21
12.65
  0
LINE
  8
0
 10
-234.45
 11
-173.25
 20
12.65
 21
12.65
  0
LINE
  8
0
 10
-173.25
 11
-173.25
 20
12.65
 21
-12.65
  0
LINE
  8
0
 10
-173.25
 11
-234.45
 20
-12.65
 21
-12.65
  0
LINE
  8
0
 10
-233.04
 11
-233.031
 20
-10.11
 21
-9.968
  0
LINE
  8
0
 10
-233.031
 11
-233.005
 20
-9.968
 21
-9.829
  0
LINE
  8
0
 10
-233.005
 11
-232.961
 20
-9.829
 21
-9.694
  0
LINE
  8
0
 10
-232.961
 11
-232.9
 20
-9.694
 21
-9.565
  0
LINE
  8
0
 10
-232.9
 11
-232.824
 20
-9.565
 21
-9.446
  0
LINE
  8
0
 10
-232.824
 11
-232.734
 20
-9.446
 21
-9.336
  0
LINE
  8
0
 10
-232.734
 11
-232.63
 20
-9.336
 21
-9.239
  0
LINE
  8
0
 10
-232.63
 11
-232.516
 20
-9.239
 21
-9.156
  0
LINE
  8
0
 10
-232.516
 11
-232.391
 20
-9.156
 21
-9.087
  0
LINE
  8
0
 10
-232.391
 11
-232.259
 20
-9.087
 21
-9.035
  0
LINE
  8
0
 10
-232.259
 11
-232.122
 20
-9.035
 21
-9
  0
LINE
  8
0
 10
-232.122
 11
-231.981
 20
-9
 21
-8.982
  0
LINE
  8
0
 10
-231.981
 11
-231.839
 20
-8.982
 21
-8.982
  0
LINE
  8
0
 10
-231.839
 11
-231.698
 20
-8.982
 21
-9
  0
LINE
  8
0
 10
-231.698
 11
-231.561
 20
-9
 21
-9.035
  0
LINE
  8
0
 10
-231.561
 11
-231.429
 20
-9.035
 21
-9.087
  0
LINE
  8
0
 10
-231.429
 11
-231.304
 20
-9.087
 21
-9.156
  0
LINE
  8
0
 10
-231.304
 11
-231.19
 20
-9.156
 21
-9.239
  0
LINE
  8
0
 10
-231.19
 11
-231.086
 20
-9.239
 21
-9.336
  0
LINE
  8
0
 10
-231.086
 11
-230.996
 20
-9.336
 21
-9.446
  0
LINE
  8
0
 10
-230.996
 11
-230.92
 20
-9.446
 21
-9.565
  0
LINE
  8
0
 10
-230.92
 11
-230.859
 20
-9.565
 21
-9.694
  0
LINE
  8
0
 10
-230.859
 11
-230.815
 20
-9.694
 21
-9.829
  0
LINE
  8
0
 10
-230.815
 11
-230.789
 20
-9.829
 21
-9.968
  0
LINE
  8
0
 10
-230.789
 11
-230.78
 20
-9.968
 21
-10.11
  0
LINE
  8
0
 10
-230.78
 11
-230.789
 20
-10.11
 21
-10.252
  0
LINE
  8
0
 10
-230.789
 11
-230.815
 20
-10.252
 21
-10.391
  0
LINE
  8
0
 10
-230.815
 11
-230.859
 20
-10.391
 21
-10.526
  0
LINE
  8
0
 10
-230.859
 11
-230.92
 20
-10.526
 21
-10.655
  0
LINE
  8
0
 10
-230.92
 11
-230.996
 20
-10.655
 21
-10.774
  0
LINE
  8
0
 10
-230.996
 11
-231.086
 20
-10.774
 21
-10.884
  0
LINE
  8
0
 10
-231.086
 11
-231.19
 20
-10.884
 21
-10.981
  0
LINE
  8
0
 10
-231.19
 11
-231.304
 20
-10.981
 21
-11.064
  0
LINE
  8
0
 10
-231.304
 11
-231.429
 20
-11.064
 21
-11.133
  0
LINE
  8
0
 10
-231.429
 11
-231.561
 20
-11.133
 21
-11.185
  0
LINE
  8
0
 10
-231.561
 11
-231.698
 20
-11.185
 21
-11.22
  0
LINE
  8
0
 10
-231.698
 11
-231.839
 20
-11.22
 21
-11.238
  0
LINE
  8
0
 10
-231.839
 11
-231.981
 20
-11.238
 21
-11.238
  0
LINE
  8
0
 10
-231.981
 11
-232.122
 20
-11.238
 21
-11.22
  0
LINE
  8
0
 10
-232.122
 11
-232.259
 20
-11.22
 21
-11.185
  0
LINE
  8
0
 10
-232.259
 11
-232.391
 20
-11.185
 21
-11.133
  0
LINE
  8
0
 10
-232.391
 11
-232.516
 20
-11.133
 21
-11.064
  0
LINE
  8
0
 10
-232.516
 11
-232.63
 20
-11.064
 21
-10.981
  0
LINE
  8
0
 10
-232.63
 11
-232.734
 20
-10.981
 21
-10.884
  0
LINE
  8
0
 10
-232.734
 11
-232.824
 20
-10.884
 21
-10.774
  0
LINE
  8
0
 10
-232.824
 11
-232.9
 20
-10.774
 21
-10.655
  0
LINE
  8
0
 10
-232.9
 11
-232.961
 20
-10.655
 21
-10.526
  0
LINE
  8
0
 10
-232.961
 11
-233.005
 20
-10.526
 21
-10.391
  0
LINE
  8
0
 10
-233.005
 11
-233.031
 20
-10.391
 21
-10.252
  0
LINE
  8
0
 10
-233.031
 11
-233.04
 20
-10.252
 21
-10.11
  0
LINE
  8
0
 10
-233.04
 11
-233.031
 20
10.11
 21
10.252
  0
LINE
  8
0
 10
-233.031
 11
-233.005
 20
10.252
 21
10.391
  0
LINE
  8
0
 10
-233.005
 11
-232.961
 20
10.391
 21
10.526
  0
LINE
  8
0
 10
-232.961
 11
-232.9
 20
10.526
 21
10.655
  0
LINE
  8
0
 10
-232.9
 11
-232.824
 20
10.655
 21
10.774
  0
LINE
  8
0
 10
-232.824
 11
-232.734
 20
10.774
 21
10.884
  0
LINE
  8
0
 10
-232.734
 11
-232.63
 20
10.884
 21
10.981
  0
LINE
  8
0
 10
-232.63
 11
-232.516
 20
10.981
 21
11.064
  0
LINE
  8
0
 10
-232.516
 11
-232.391
 20
11.064
 21
11.133
  0
LINE
  8
0
 10
-232.391
 11
-232.259
 20
11.133
 21
11.185
  0
LINE
  8
0
 10
-232.259
 11
-232.122
 20
11.185
 21
11.22
  0
LINE
  8
0
 10
-232.122
 11
-231.981
 20
11.22
 21
11.238
  0
LINE
  8
0
 10
-231.981
 11
-231.839
 20
11.238
 21
11.238
  0
LINE
  8
0
 10
-231.839
 11
-231.698
 20
11.238
 21
11.22
  0
LINE
  8
0
 10
-231.698
 11
-231.561
 20
11.22
 21
11.185
  0
LINE
  8
0
 10
-231.561
 11
-231.429
 20
11.185
 21
11.133
  0
LINE
  8
0
 10
-231.429
 11
-231.304
 20
11.133
 21
11.064
  0
LINE
  8
0
 10
-231.304
 11
-231.19
 20
11.064
 21
10.981
  0
LINE
  8
0
 10
-231.19
 11
-231.086
 20
10.981
 21
10.884
  0
LINE
  8
0
 10
-231.086
 11
-230.996
 20
10.884
 21
10.774
  0
LINE
  8
0
 10
-230.996
 11
-230.92
 20
10.774
 21
10.655
  0
LINE
  8
0
 10
-230.92
 11
-230.859
 20
10.655
 21
10.526
  0
LINE
  8
0
 10
-230.859
 11
-230.815
 20
10.526
 21
10.391
  0
LINE
  8
0
 10
-230.815
 11
-230.789
 20
10.391
 21
10.252
  0
LINE
  8
0
 10
-230.789
 11
-230.78
 20
10.252
 21
10.11
  0
LINE
  8
0
 10
-230.78
 11
-230.789
 20
10.11
 21
9.968
  0
LINE
  8
0
 10
-230.789
 11
-230.815
 20
9.968
 21
9.829
  0
LINE
  8
0
 10
-230.815
 11
-230.859
 20
9.829
 21
9.694
  0
LINE
  8
0
 10
-230.859
 11
-230.92
 20
9.694
 21
9.565
  0
LINE
  8
0
 10
-230.92
 11
-230.996
 20
9.565
 21
9.446
  0
LINE
  8
0
 10
-230.996
 11
-231.086
 20
9.446
 21
9.336
  0
LINE
  8
0
 10
-231.086
 11
-231.19
 20
9.336
 21
9.239
  0
LINE
  8
0
 10
-231.19
 11
-231.304
 20
9.239
 21
9.156
  0
LINE
  8
0
 10
-231.304
 11
-231.429
 20
9.156
 21
9.087
  0
LINE
  8
0
 10
-231.429
 11
-231.561
 20
9.087
 21
9.035
  0
LINE
  8
0
 10
-231.561
 11
-231.698
 20
9.035
 21
9
  0
LINE
  8
0
 10
-231.698
 11
-231.839
 20
9
 21
8.982
  0
LINE
  8
0
 10
-231.839
 11
-231.981
 20
8.982
 21
8.982
  0
LINE
  8
0
 10
-231.981
 11
-232.122
 20
8.982
 21
9
  0
LINE
  8
0
 10
-232.122
 11
-232.259
 20
9
 21
9.035
  0
LINE
  8
0
 10
-232.259
 11
-232.391
 20
9.035
 21
9.087
  0
LINE
  8
0
 10
-232.391
 11
-232.516
 20
9.087
 21
9.156
  0
LINE
  8
0
 10
-232.516
 11
-232.63
 20
9.156
 21
9.239
  0
LINE
  8
0
 10
-232.63
 11
-232.734
 20
9.239
 21
9.336
  0
LINE
  8
0
 10
-232.734
 11
-232.824
 20
9.336
 21
9.446
  0
LINE
  8
0
 10
-232.824
 11
-232.9
 20
9.446
 21
9.565
  0
LINE
  8
0
 10
-232.9
 11
-232.961
 20
9.565
 21
9.694
  0
LINE
  8
0
 10
-232.961
 11
-233.005
 20
9.694
 21
9.829
  0
LINE
  8
0
 10
-233.005
 11
-233.031
 20
9.829
 21
9.968
  0
LINE
  8
0
 10
-233.031
 11
-233.04
 20
9.968
 21
10.11
  0
LINE
  8
0
 10
-176.92
 11
-176.911
 20
-10.11
 21
-9.968
  0
LINE
  8
0
 10
-176.911
 11
-176.885
 20
-9.968
 21
-9.829
  0
LINE
  8
0
 10
-176.885
 11
-176.841
 20
-9.829
 21
-9.694
  0
LINE
  8
0
 10
-176.841
 11
-176.78
 20
-9.694
 21
-9.565
  0
LINE
  8
0
 10
-176.78
 11
-176.704
 20
-9.565
 21
-9.446
  0
LINE
  8
0
 10
-176.704
 11
-176.614
 20
-9.446
 21
-9.336
  0
LINE
  8
0
 10
-176.614
 11
-176.51
 20
-9.336
 21
-9.239
  0
LINE
  8
0
 10
-176.51
 11
-176.396
 20
-9.239
 21
-9.156
  0
LINE
  8
0
 10
-176.396
 11
-176.271
 20
-9.156
 21
-9.087
  0
LINE
  8
0
 10
-176.271
 11
-176.139
 20
-9.087
 21
-9.035
  0
LINE
  8
0
 10
-176.139
 11
-176.002
 20
-9.035
 21
-9
  0
LINE
  8
0
 10
-176.002
 11
-175.861
 20
-9
 21
-8.982
  0
LINE
  8
0
 10
-175.861
 11
-175.719
 20
-8.982
 21
-8.982
  0
LINE
  8
0
 10
-175.719
 11
-175.578
 20
-8.982
 21
-9
  0
LINE
  8
0
 10
-175.578
 11
-175.441
 20
-9
 21
-9.035
  0
LINE
  8
0
 10
-175.441
 11
-175.309
 20
-9.035
 21
-9.087
  0
LINE
  8
0
 10
-175.309
 11
-175.184
 20
-9.087
 21
-9.156
  0
LINE
  8
0
 10
-175.184
 11
-175.07
 20
-9.156
 21
-9.239
  0
LINE
  8
0
 10
-175.07
 11
-174.966
 20
-9.239
 21
-9.336
  0
LINE
  8
0
 10
-174.966
 11
-174.876
 20
-9.336
 21
-9.446
  0
LINE
  8
0
 10
-174.876
 11
-174.8
 20
-9.446
 21
-9.565
  0
LINE
  8
0
 10
-174.8
 11
-174.739
 20
-9.565
 21
-9.694
  0
LINE
  8
0
 10
-174.739
 11
-174.695
 20
-9.694
 21
-9.829
  0
LINE
  8
0
 10
-174.695
 11
-174.669
 20
-9.829
 21
-9.968
  0
LINE
  8
0
 10
-174.669
 11
-174.66
 20
-9.968
 21
-10.11
  0
LINE
  8
0
 10
-174.66
 11
-174.669
 20
-10.11
 21
-10.252
  0
LINE
  8
0
 10
-174.669
 11
-174.695
 20
-10.252
 21
-10.391
  0
LINE
  8
0
 10
-174.695
 11
-174.739
 20
-10.391
 21
-10.526
  0
LINE
  8
0
 10
-174.739
 11
-174.8
 20
-10.526
 21
-10.655
  0
LINE
  8
0
 10
-174.8
 11
-174.876
 20
-10.655
 21
-10.774
  0
LINE
  8
0
 10
-174.876
 11
-174.966
 20
-10.774
 21
-10.884
  0
LINE
  8
0
 10
-174.966
 11
-175.07
 20
-10.884
 21
-10.981
  0
LINE
  8
0
 10
-175.07
 11
-175.184
 20
-10.981
 21
-11.064
  0
LINE
  8
0
 10
-175.184
 11
-175.309
 20
-11.064
 21
-11.133
  0
LINE
  8
0
 10
-175.309
 11
-175.441
 20
-11.133
 21
-11.185
  0
LINE
  8
0
 10
-175.441
 11
-175.578
 20
-11.185
 21
-11.22
  0
LINE
  8
0
 10
-175.578
 11
-175.719
 20
-11.22
 21
-11.238
  0
LINE
  8
0
 10
-175.719
 11
-175.861
 20
-11.238
 21
-11.238
  0
LINE
  8
0
 10
-175.861
 11
-176.002
 20
-11.238
 21
-11.22
  0
LINE
  8
0
 10
-176.002
 11
-176.139
 20
-11.22
 21
-11.185
  0
LINE
  8
0
 10
-176.139
 11
-176.271
 20
-11.185
 21
-11.133
  0
LINE
  8
0
 10
-176.271
 11
-176.396
 20
-11.133
 21
-11.064
  0
LINE
  8
0
 10
-176.396
 11
-176.51
 20
-11.064
 21
-10.981
  0
LINE
  8
0
 10
-176.51
 11
-176.614
 20
-10.981
 21
-10.884
  0
LINE
  8
0
 10
-176.614
 11
-176.704
 20
-10.884
 21
-10.774
  0
LINE
  8
0
 10
-176.704
 11
-176.78
 20
-10.774
 21
-10.655
  0
LINE
  8
0
 10
-176.78
 11
-176.841
 20
-10.655
 21
-10.526
  0
LINE
  8
0
 10
-176.841
 11
-176.885
 20
-10.526
 21
-10.391
  0
LINE
  8
0
 10
-176.885
 11
-176.911
 20
-10.391
 21
-10.252
  0
LINE
  8
0
 10
-176.911
 11
-176.92
 20
-10.252
 21
-10.11
  0
LINE
  8
0
 10
-176.92
 11
-176.911
 20
10.11
 21
10.252
  0
LINE
  8
0
 10
-176.911
 11
-176.885
 20
10.252
 21
10.391
  0
LINE
  8
0
 10
-176.885
 11
-176.841
 20
10.391
 21
10.526
  0
LINE
  8
0
 10
-176.841
 11
-176.78
 20
10.526
 21
10.655
  0
LINE
  8
0
 10
-176.78
 11
-176.704
 20
10.655
 21
10.774
  0
LINE
  8
0
 10
-176.704
 11
-176.614
 20
10.774
 21
10.884
  0
LINE
  8
0
 10
-176.614
 11
-176.51
 20
10.884
 21
10.981
  0
LINE
  8
0
 10
-176.51
 11
-176.396
 20
10.981
 21
11.064
  0
LINE
  8
0
 10
-176.396
 11
-176.271
 20
11.064
 21
11.133
  0
LINE
  8
0
 10
-176.271
 11
-176.139
 20
11.133
 21
11.185
  0
LINE
  8
0
 10
-176.139
 11
-176.002
 20
11.185
 21
11.22
  0
LINE
  8
0
 10
-176.002
 11
-175.861
 20
11.22
 21
11.238
  0
LINE
  8
0
 10
-175.861
 11
-175.719
 20
11.238
 21
11.238
  0
LINE
  8
0
 10
-175.719
 11
-175.578
 20
11.238
 21
11.22
  0
LINE
  8
0
 10
-175.578
 11
-175.441
 20
11.22
 21
11.185
  0
LINE
  8
0
 10
-175.441
 11
-175.309
 20
11.185
 21
11.133
  0
LINE
  8
0
 10
-175.309
 11
-175.184
 20
11.133
 21
11.064
  0
LINE
  8
0
 10
-175.184
 11
-175.07
 20
11.064
 21
10.981
  0
LINE
  8
0
 10
-175.07
 11
-174.966
 20
10.981
 21
10.884
  0
LINE
  8
0
 10
-174.966
 11
-174.876
 20
10.884
 21
10.774
  0
LINE
  8
0
 10
-174.876
 11
-174.8
 20
10.774
 21
10.655
  0
LINE
  8
0
 10
-174.8
 11
-174.739
 20
10.655
 21
10.526
  0
LINE
  8
0
 10
-174.739
 11
-174.695
 20
10.526
 21
10.391
  0
LINE
  8
0
 10
-174.695
 11
-174.669
 20
10.391
 21
10.252
  0
LINE
  8
0
 10
-174.669
 11
-174.66
 20
10.252
 21
10.11
  0
LINE
  8
0
 10
-174.66
 11
-174.669
 20
10.11
 21
9.968
  0
LINE
  8
0
 10
-174.669
 11
-174.695
 20
9.968
 21
9.829
  0
LINE
  8
0
 10
-174.695
 11
-174.739
 20
9.829
 21
9.694
  0
LINE
  8
0
 10
-174.739
 11
-174.8
 20
9.694
 21
9.565
  0
LINE
  8
0
 10
-174.8
 11
-174.876
 20
9.565
 21
9.446
  0
LINE
  8
0
 10
-174.876
 11
-174.966
 20
9.446
 21
9.336
  0
LINE
  8
0
 10
-174.966
 11
-175.07
 20
9.336
 21
9.239
  0
LINE
  8
0
 10
-175.07
 11
-175.184
 20
9.239
 21
9.156
  0
LINE
  8
0
 10
-175.184
 11
-175.309
 20
9.156
 21
9.087
  0
LINE
  8
0
 10
-175.309
 11
-175.441
 20
9.087
 21
9.035
  0
LINE
  8
0
 10
-175.441
 11
-175.578
 20
9.035
 21
9
  0
LINE
  8
0
 10
-175.578
 11
-175.719
 20
9
 21
8.982
  0
LINE
  8
0
 10
-175.719
 11
-175.861
 20
8.982
 21
8.982
  0
LINE
  8
0
 10
-175.861
 11
-176.002
 20
8.982
 21
9
  0
LINE
  8
0
 10
-176.002
 11
-176.139
 20
9
 21
9.035
  0
LINE
  8
0
 10
-176.139
 11
-176.271
 20
9.035
 21
9.087
  0
LINE
  8
0
 10
-176.271
 11
-176.396
 20
9.087
 21
9.156
  0
LINE
  8
0
 10
-176.396
 11
-176.51
 20
9.156
 21
9.239
  0
LINE
  8
0
 10
-176.51
 11
-176.614
 20
9.239
 21
9.336
  0
LINE
  8
0
 10
-176.614
 11
-176.704
 20
9.336
 21
9.446
  0
LINE
  8
0
 10
-176.704
 11
-176.78
 20
9.446
 21
9.565
  0
LINE
  8
0
 10
-176.78
 11
-176.841
 20
9.565
 21
9.694
  0
LINE
  8
0
 10
-176.841
 11
-176.885
 20
9.694
 21
9.829
  0
LINE
  8
0
 10
-176.885
 11
-176.911
 20
9.829
 21
9.968
  0
LINE
  8
0
 10
-176.911
 11
-176.92
 20
9.968
 21
10.11
  0
ENDSEC
  0
SECTION
  2
OBJECTS
  0
DICTIONARY
  0
ENDSEC
  0
EOF
