  0
SECTION
  2
BLOCKS
  0
ENDSEC
  0
SECTION
  2
ENTITIES
  0
LINE
  8
0
 10
-236.8
 11
-236.8
 20
-12.65
 21
12.65
  0
LINE
  8
0
 10
-236.8
 11
-175.6
 20
12.65
 21
12.65
  0
LINE
  8
0
 10
-175.6
 11
-175.6
 20
12.65
 21
-12.65
  0
LINE
  8
0
 10
-175.6
 11
-236.8
 20
-12.65
 21
-12.65
  0
LINE
  8
0
 10
-235.39
 11
-235.381
 20
-10.11
 21
-9.968
  0
LINE
  8
0
 10
-235.381
 11
-235.355
 20
-9.968
 21
-9.829
  0
LINE
  8
0
 10
-235.355
 11
-235.311
 20
-9.829
 21
-9.694
  0
LINE
  8
0
 10
-235.311
 11
-235.25
 20
-9.694
 21
-9.565
  0
LINE
  8
0
 10
-235.25
 11
-235.174
 20
-9.565
 21
-9.446
  0
LINE
  8
0
 10
-235.174
 11
-235.084
 20
-9.446
 21
-9.336
  0
LINE
  8
0
 10
-235.084
 11
-234.98
 20
-9.336
 21
-9.239
  0
LINE
  8
0
 10
-234.98
 11
-234.866
 20
-9.239
 21
-9.156
  0
LINE
  8
0
 10
-234.866
 11
-234.741
 20
-9.156
 21
-9.087
  0
LINE
  8
0
 10
-234.741
 11
-234.609
 20
-9.087
 21
-9.035
  0
LINE
  8
0
 10
-234.609
 11
-234.472
 20
-9.035
 21
-9
  0
LINE
  8
0
 10
-234.472
 11
-234.331
 20
-9
 21
-8.982
  0
LINE
  8
0
 10
-234.331
 11
-234.189
 20
-8.982
 21
-8.982
  0
LINE
  8
0
 10
-234.189
 11
-234.048
 20
-8.982
 21
-9
  0
LINE
  8
0
 10
-234.048
 11
-233.911
 20
-9
 21
-9.035
  0
LINE
  8
0
 10
-233.911
 11
-233.779
 20
-9.035
 21
-9.087
  0
LINE
  8
0
 10
-233.779
 11
-233.654
 20
-9.087
 21
-9.156
  0
LINE
  8
0
 10
-233.654
 11
-233.54
 20
-9.156
 21
-9.239
  0
LINE
  8
0
 10
-233.54
 11
-233.436
 20
-9.239
 21
-9.336
  0
LINE
  8
0
 10
-233.436
 11
-233.346
 20
-9.336
 21
-9.446
  0
LINE
  8
0
 10
-233.346
 11
-233.27
 20
-9.446
 21
-9.565
  0
LINE
  8
0
 10
-233.27
 11
-233.209
 20
-9.565
 21
-9.694
  0
LINE
  8
0
 10
-233.209
 11
-233.165
 20
-9.694
 21
-9.829
  0
LINE
  8
0
 10
-233.165
 11
-233.139
 20
-9.829
 21
-9.968
  0
LINE
  8
0
 10
-233.139
 11
-233.13
 20
-9.968
 21
-10.11
  0
LINE
  8
0
 10
-233.13
 11
-233.139
 20
-10.11
 21
-10.252
  0
LINE
  8
0
 10
-233.139
 11
-233.165
 20
-10.252
 21
-10.391
  0
LINE
  8
0
 10
-233.165
 11
-233.209
 20
-10.391
 21
-10.526
  0
LINE
  8
0
 10
-233.209
 11
-233.27
 20
-10.526
 21
-10.655
  0
LINE
  8
0
 10
-233.27
 11
-233.346
 20
-10.655
 21
-10.774
  0
LINE
  8
0
 10
-233.346
 11
-233.436
 20
-10.774
 21
-10.884
  0
LINE
  8
0
 10
-233.436
 11
-233.54
 20
-10.884
 21
-10.981
  0
LINE
  8
0
 10
-233.54
 11
-233.654
 20
-10.981
 21
-11.064
  0
LINE
  8
0
 10
-233.654
 11
-233.779
 20
-11.064
 21
-11.133
  0
LINE
  8
0
 10
-233.779
 11
-233.911
 20
-11.133
 21
-11.185
  0
LINE
  8
0
 10
-233.911
 11
-234.048
 20
-11.185
 21
-11.22
  0
LINE
  8
0
 10
-234.048
 11
-234.189
 20
-11.22
 21
-11.238
  0
LINE
  8
0
 10
-234.189
 11
-234.331
 20
-11.238
 21
-11.238
  0
LINE
  8
0
 10
-234.331
 11
-234.472
 20
-11.238
 21
-11.22
  0
LINE
  8
0
 10
-234.472
 11
-234.609
 20
-11.22
 21
-11.185
  0
LINE
  8
0
 10
-234.609
 11
-234.741
 20
-11.185
 21
-11.133
  0
LINE
  8
0
 10
-234.741
 11
-234.866
 20
-11.133
 21
-11.064
  0
LINE
  8
0
 10
-234.866
 11
-234.98
 20
-11.064
 21
-10.981
  0
LINE
  8
0
 10
-234.98
 11
-235.084
 20
-10.981
 21
-10.884
  0
LINE
  8
0
 10
-235.084
 11
-235.174
 20
-10.884
 21
-10.774
  0
LINE
  8
0
 10
-235.174
 11
-235.25
 20
-10.774
 21
-10.655
  0
LINE
  8
0
 10
-235.25
 11
-235.311
 20
-10.655
 21
-10.526
  0
LINE
  8
0
 10
-235.311
 11
-235.355
 20
-10.526
 21
-10.391
  0
LINE
  8
0
 10
-235.355
 11
-235.381
 20
-10.391
 21
-10.252
  0
LINE
  8
0
 10
-235.381
 11
-235.39
 20
-10.252
 21
-10.11
  0
LINE
  8
0
 10
-235.39
 11
-235.381
 20
10.11
 21
10.252
  0
LINE
  8
0
 10
-235.381
 11
-235.355
 20
10.252
 21
10.391
  0
LINE
  8
0
 10
-235.355
 11
-235.311
 20
10.391
 21
10.526
  0
LINE
  8
0
 10
-235.311
 11
-235.25
 20
10.526
 21
10.655
  0
LINE
  8
0
 10
-235.25
 11
-235.174
 20
10.655
 21
10.774
  0
LINE
  8
0
 10
-235.174
 11
-235.084
 20
10.774
 21
10.884
  0
LINE
  8
0
 10
-235.084
 11
-234.98
 20
10.884
 21
10.981
  0
LINE
  8
0
 10
-234.98
 11
-234.866
 20
10.981
 21
11.064
  0
LINE
  8
0
 10
-234.866
 11
-234.741
 20
11.064
 21
11.133
  0
LINE
  8
0
 10
-234.741
 11
-234.609
 20
11.133
 21
11.185
  0
LINE
  8
0
 10
-234.609
 11
-234.472
 20
11.185
 21
11.22
  0
LINE
  8
0
 10
-234.472
 11
-234.331
 20
11.22
 21
11.238
  0
LINE
  8
0
 10
-234.331
 11
-234.189
 20
11.238
 21
11.238
  0
LINE
  8
0
 10
-234.189
 11
-234.048
 20
11.238
 21
11.22
  0
LINE
  8
0
 10
-234.048
 11
-233.911
 20
11.22
 21
11.185
  0
LINE
  8
0
 10
-233.911
 11
-233.779
 20
11.185
 21
11.133
  0
LINE
  8
0
 10
-233.779
 11
-233.654
 20
11.133
 21
11.064
  0
LINE
  8
0
 10
-233.654
 11
-233.54
 20
11.064
 21
10.981
  0
LINE
  8
0
 10
-233.54
 11
-233.436
 20
10.981
 21
10.884
  0
LINE
  8
0
 10
-233.436
 11
-233.346
 20
10.884
 21
10.774
  0
LINE
  8
0
 10
-233.346
 11
-233.27
 20
10.774
 21
10.655
  0
LINE
  8
0
 10
-233.27
 11
-233.209
 20
10.655
 21
10.526
  0
LINE
  8
0
 10
-233.209
 11
-233.165
 20
10.526
 21
10.391
  0
LINE
  8
0
 10
-233.165
 11
-233.139
 20
10.391
 21
10.252
  0
LINE
  8
0
 10
-233.139
 11
-233.13
 20
10.252
 21
10.11
  0
LINE
  8
0
 10
-233.13
 11
-233.139
 20
10.11
 21
9.968
  0
LINE
  8
0
 10
-233.139
 11
-233.165
 20
9.968
 21
9.829
  0
LINE
  8
0
 10
-233.165
 11
-233.209
 20
9.829
 21
9.694
  0
LINE
  8
0
 10
-233.209
 11
-233.27
 20
9.694
 21
9.565
  0
LINE
  8
0
 10
-233.27
 11
-233.346
 20
9.565
 21
9.446
  0
LINE
  8
0
 10
-233.346
 11
-233.436
 20
9.446
 21
9.336
  0
LINE
  8
0
 10
-233.436
 11
-233.54
 20
9.336
 21
9.239
  0
LINE
  8
0
 10
-233.54
 11
-233.654
 20
9.239
 21
9.156
  0
LINE
  8
0
 10
-233.654
 11
-233.779
 20
9.156
 21
9.087
  0
LINE
  8
0
 10
-233.779
 11
-233.911
 20
9.087
 21
9.035
  0
LINE
  8
0
 10
-233.911
 11
-234.048
 20
9.035
 21
9
  0
LINE
  8
0
 10
-234.048
 11
-234.189
 20
9
 21
8.982
  0
LINE
  8
0
 10
-234.189
 11
-234.331
 20
8.982
 21
8.982
  0
LINE
  8
0
 10
-234.331
 11
-234.472
 20
8.982
 21
9
  0
LINE
  8
0
 10
-234.472
 11
-234.609
 20
9
 21
9.035
  0
LINE
  8
0
 10
-234.609
 11
-234.741
 20
9.035
 21
9.087
  0
LINE
  8
0
 10
-234.741
 11
-234.866
 20
9.087
 21
9.156
  0
LINE
  8
0
 10
-234.866
 11
-234.98
 20
9.156
 21
9.239
  0
LINE
  8
0
 10
-234.98
 11
-235.084
 20
9.239
 21
9.336
  0
LINE
  8
0
 10
-235.084
 11
-235.174
 20
9.336
 21
9.446
  0
LINE
  8
0
 10
-235.174
 11
-235.25
 20
9.446
 21
9.565
  0
LINE
  8
0
 10
-235.25
 11
-235.311
 20
9.565
 21
9.694
  0
LINE
  8
0
 10
-235.311
 11
-235.355
 20
9.694
 21
9.829
  0
LINE
  8
0
 10
-235.355
 11
-235.381
 20
9.829
 21
9.968
  0
LINE
  8
0
 10
-235.381
 11
-235.39
 20
9.968
 21
10.11
  0
LINE
  8
0
 10
-179.27
 11
-179.261
 20
-10.11
 21
-9.968
  0
LINE
  8
0
 10
-179.261
 11
-179.235
 20
-9.968
 21
-9.829
  0
LINE
  8
0
 10
-179.235
 11
-179.191
 20
-9.829
 21
-9.694
  0
LINE
  8
0
 10
-179.191
 11
-179.13
 20
-9.694
 21
-9.565
  0
LINE
  8
0
 10
-179.13
 11
-179.054
 20
-9.565
 21
-9.446
  0
LINE
  8
0
 10
-179.054
 11
-178.964
 20
-9.446
 21
-9.336
  0
LINE
  8
0
 10
-178.964
 11
-178.86
 20
-9.336
 21
-9.239
  0
LINE
  8
0
 10
-178.86
 11
-178.746
 20
-9.239
 21
-9.156
  0
LINE
  8
0
 10
-178.746
 11
-178.621
 20
-9.156
 21
-9.087
  0
LINE
  8
0
 10
-178.621
 11
-178.489
 20
-9.087
 21
-9.035
  0
LINE
  8
0
 10
-178.489
 11
-178.352
 20
-9.035
 21
-9
  0
LINE
  8
0
 10
-178.352
 11
-178.211
 20
-9
 21
-8.982
  0
LINE
  8
0
 10
-178.211
 11
-178.069
 20
-8.982
 21
-8.982
  0
LINE
  8
0
 10
-178.069
 11
-177.928
 20
-8.982
 21
-9
  0
LINE
  8
0
 10
-177.928
 11
-177.791
 20
-9
 21
-9.035
  0
LINE
  8
0
 10
-177.791
 11
-177.659
 20
-9.035
 21
-9.087
  0
LINE
  8
0
 10
-177.659
 11
-177.534
 20
-9.087
 21
-9.156
  0
LINE
  8
0
 10
-177.534
 11
-177.42
 20
-9.156
 21
-9.239
  0
LINE
  8
0
 10
-177.42
 11
-177.316
 20
-9.239
 21
-9.336
  0
LINE
  8
0
 10
-177.316
 11
-177.226
 20
-9.336
 21
-9.446
  0
LINE
  8
0
 10
-177.226
 11
-177.15
 20
-9.446
 21
-9.565
  0
LINE
  8
0
 10
-177.15
 11
-177.089
 20
-9.565
 21
-9.694
  0
LINE
  8
0
 10
-177.089
 11
-177.045
 20
-9.694
 21
-9.829
  0
LINE
  8
0
 10
-177.045
 11
-177.019
 20
-9.829
 21
-9.968
  0
LINE
  8
0
 10
-177.019
 11
-177.01
 20
-9.968
 21
-10.11
  0
LINE
  8
0
 10
-177.01
 11
-177.019
 20
-10.11
 21
-10.252
  0
LINE
  8
0
 10
-177.019
 11
-177.045
 20
-10.252
 21
-10.391
  0
LINE
  8
0
 10
-177.045
 11
-177.089
 20
-10.391
 21
-10.526
  0
LINE
  8
0
 10
-177.089
 11
-177.15
 20
-10.526
 21
-10.655
  0
LINE
  8
0
 10
-177.15
 11
-177.226
 20
-10.655
 21
-10.774
  0
LINE
  8
0
 10
-177.226
 11
-177.316
 20
-10.774
 21
-10.884
  0
LINE
  8
0
 10
-177.316
 11
-177.42
 20
-10.884
 21
-10.981
  0
LINE
  8
0
 10
-177.42
 11
-177.534
 20
-10.981
 21
-11.064
  0
LINE
  8
0
 10
-177.534
 11
-177.659
 20
-11.064
 21
-11.133
  0
LINE
  8
0
 10
-177.659
 11
-177.791
 20
-11.133
 21
-11.185
  0
LINE
  8
0
 10
-177.791
 11
-177.928
 20
-11.185
 21
-11.22
  0
LINE
  8
0
 10
-177.928
 11
-178.069
 20
-11.22
 21
-11.238
  0
LINE
  8
0
 10
-178.069
 11
-178.211
 20
-11.238
 21
-11.238
  0
LINE
  8
0
 10
-178.211
 11
-178.352
 20
-11.238
 21
-11.22
  0
LINE
  8
0
 10
-178.352
 11
-178.489
 20
-11.22
 21
-11.185
  0
LINE
  8
0
 10
-178.489
 11
-178.621
 20
-11.185
 21
-11.133
  0
LINE
  8
0
 10
-178.621
 11
-178.746
 20
-11.133
 21
-11.064
  0
LINE
  8
0
 10
-178.746
 11
-178.86
 20
-11.064
 21
-10.981
  0
LINE
  8
0
 10
-178.86
 11
-178.964
 20
-10.981
 21
-10.884
  0
LINE
  8
0
 10
-178.964
 11
-179.054
 20
-10.884
 21
-10.774
  0
LINE
  8
0
 10
-179.054
 11
-179.13
 20
-10.774
 21
-10.655
  0
LINE
  8
0
 10
-179.13
 11
-179.191
 20
-10.655
 21
-10.526
  0
LINE
  8
0
 10
-179.191
 11
-179.235
 20
-10.526
 21
-10.391
  0
LINE
  8
0
 10
-179.235
 11
-179.261
 20
-10.391
 21
-10.252
  0
LINE
  8
0
 10
-179.261
 11
-179.27
 20
-10.252
 21
-10.11
  0
LINE
  8
0
 10
-179.27
 11
-179.261
 20
10.11
 21
10.252
  0
LINE
  8
0
 10
-179.261
 11
-179.235
 20
10.252
 21
10.391
  0
LINE
  8
0
 10
-179.235
 11
-179.191
 20
10.391
 21
10.526
  0
LINE
  8
0
 10
-179.191
 11
-179.13
 20
10.526
 21
10.655
  0
LINE
  8
0
 10
-179.13
 11
-179.054
 20
10.655
 21
10.774
  0
LINE
  8
0
 10
-179.054
 11
-178.964
 20
10.774
 21
10.884
  0
LINE
  8
0
 10
-178.964
 11
-178.86
 20
10.884
 21
10.981
  0
LINE
  8
0
 10
-178.86
 11
-178.746
 20
10.981
 21
11.064
  0
LINE
  8
0
 10
-178.746
 11
-178.621
 20
11.064
 21
11.133
  0
LINE
  8
0
 10
-178.621
 11
-178.489
 20
11.133
 21
11.185
  0
LINE
  8
0
 10
-178.489
 11
-178.352
 20
11.185
 21
11.22
  0
LINE
  8
0
 10
-178.352
 11
-178.211
 20
11.22
 21
11.238
  0
LINE
  8
0
 10
-178.211
 11
-178.069
 20
11.238
 21
11.238
  0
LINE
  8
0
 10
-178.069
 11
-177.928
 20
11.238
 21
11.22
  0
LINE
  8
0
 10
-177.928
 11
-177.791
 20
11.22
 21
11.185
  0
LINE
  8
0
 10
-177.791
 11
-177.659
 20
11.185
 21
11.133
  0
LINE
  8
0
 10
-177.659
 11
-177.534
 20
11.133
 21
11.064
  0
LINE
  8
0
 10
-177.534
 11
-177.42
 20
11.064
 21
10.981
  0
LINE
  8
0
 10
-177.42
 11
-177.316
 20
10.981
 21
10.884
  0
LINE
  8
0
 10
-177.316
 11
-177.226
 20
10.884
 21
10.774
  0
LINE
  8
0
 10
-177.226
 11
-177.15
 20
10.774
 21
10.655
  0
LINE
  8
0
 10
-177.15
 11
-177.089
 20
10.655
 21
10.526
  0
LINE
  8
0
 10
-177.089
 11
-177.045
 20
10.526
 21
10.391
  0
LINE
  8
0
 10
-177.045
 11
-177.019
 20
10.391
 21
10.252
  0
LINE
  8
0
 10
-177.019
 11
-177.01
 20
10.252
 21
10.11
  0
LINE
  8
0
 10
-177.01
 11
-177.019
 20
10.11
 21
9.968
  0
LINE
  8
0
 10
-177.019
 11
-177.045
 20
9.968
 21
9.829
  0
LINE
  8
0
 10
-177.045
 11
-177.089
 20
9.829
 21
9.694
  0
LINE
  8
0
 10
-177.089
 11
-177.15
 20
9.694
 21
9.565
  0
LINE
  8
0
 10
-177.15
 11
-177.226
 20
9.565
 21
9.446
  0
LINE
  8
0
 10
-177.226
 11
-177.316
 20
9.446
 21
9.336
  0
LINE
  8
0
 10
-177.316
 11
-177.42
 20
9.336
 21
9.239
  0
LINE
  8
0
 10
-177.42
 11
-177.534
 20
9.239
 21
9.156
  0
LINE
  8
0
 10
-177.534
 11
-177.659
 20
9.156
 21
9.087
  0
LINE
  8
0
 10
-177.659
 11
-177.791
 20
9.087
 21
9.035
  0
LINE
  8
0
 10
-177.791
 11
-177.928
 20
9.035
 21
9
  0
LINE
  8
0
 10
-177.928
 11
-178.069
 20
9
 21
8.982
  0
LINE
  8
0
 10
-178.069
 11
-178.211
 20
8.982
 21
8.982
  0
LINE
  8
0
 10
-178.211
 11
-178.352
 20
8.982
 21
9
  0
LINE
  8
0
 10
-178.352
 11
-178.489
 20
9
 21
9.035
  0
LINE
  8
0
 10
-178.489
 11
-178.621
 20
9.035
 21
9.087
  0
LINE
  8
0
 10
-178.621
 11
-178.746
 20
9.087
 21
9.156
  0
LINE
  8
0
 10
-178.746
 11
-178.86
 20
9.156
 21
9.239
  0
LINE
  8
0
 10
-178.86
 11
-178.964
 20
9.239
 21
9.336
  0
LINE
  8
0
 10
-178.964
 11
-179.054
 20
9.336
 21
9.446
  0
LINE
  8
0
 10
-179.054
 11
-179.13
 20
9.446
 21
9.565
  0
LINE
  8
0
 10
-179.13
 11
-179.191
 20
9.565
 21
9.694
  0
LINE
  8
0
 10
-179.191
 11
-179.235
 20
9.694
 21
9.829
  0
LINE
  8
0
 10
-179.235
 11
-179.261
 20
9.829
 21
9.968
  0
LINE
  8
0
 10
-179.261
 11
-179.27
 20
9.968
 21
10.11
  0
ENDSEC
  0
SECTION
  2
OBJECTS
  0
DICTIONARY
  0
ENDSEC
  0
EOF
