  0
SECTION
  2
BLOCKS
  0
ENDSEC
  0
SECTION
  2
ENTITIES
  0
LINE
  8
0
 10
-164.25
 11
-164.25
 20
-16.35
 21
-12.35
  0
LINE
  8
0
 10
-164.25
 11
-91.05
 20
-12.35
 21
-12.35
  0
LINE
  8
0
 10
-91.05
 11
-91.05
 20
-12.35
 21
-16.35
  0
LINE
  8
0
 10
-91.05
 11
-97.05
 20
-16.35
 21
-16.35
  0
LINE
  8
0
 10
-97.05
 11
-97.05
 20
-16.35
 21
-23.85
  0
LINE
  8
0
 10
-97.05
 11
-158.25
 20
-23.85
 21
-23.85
  0
LINE
  8
0
 10
-158.25
 11
-158.25
 20
-23.85
 21
-16.35
  0
LINE
  8
0
 10
-158.25
 11
-164.25
 20
-16.35
 21
-16.35
  0
LINE
  8
0
 10
-156.84
 11
-156.831
 20
-21.66
 21
-21.518
  0
LINE
  8
0
 10
-156.831
 11
-156.805
 20
-21.518
 21
-21.379
  0
LINE
  8
0
 10
-156.805
 11
-156.761
 20
-21.379
 21
-21.244
  0
LINE
  8
0
 10
-156.761
 11
-156.7
 20
-21.244
 21
-21.115
  0
LINE
  8
0
 10
-156.7
 11
-156.624
 20
-21.115
 21
-20.996
  0
LINE
  8
0
 10
-156.624
 11
-156.534
 20
-20.996
 21
-20.886
  0
LINE
  8
0
 10
-156.534
 11
-156.43
 20
-20.886
 21
-20.789
  0
LINE
  8
0
 10
-156.43
 11
-156.316
 20
-20.789
 21
-20.706
  0
LINE
  8
0
 10
-156.316
 11
-156.191
 20
-20.706
 21
-20.637
  0
LINE
  8
0
 10
-156.191
 11
-156.059
 20
-20.637
 21
-20.585
  0
LINE
  8
0
 10
-156.059
 11
-155.922
 20
-20.585
 21
-20.55
  0
LINE
  8
0
 10
-155.922
 11
-155.781
 20
-20.55
 21
-20.532
  0
LINE
  8
0
 10
-155.781
 11
-155.639
 20
-20.532
 21
-20.532
  0
LINE
  8
0
 10
-155.639
 11
-155.498
 20
-20.532
 21
-20.55
  0
LINE
  8
0
 10
-155.498
 11
-155.361
 20
-20.55
 21
-20.585
  0
LINE
  8
0
 10
-155.361
 11
-155.229
 20
-20.585
 21
-20.637
  0
LINE
  8
0
 10
-155.229
 11
-155.104
 20
-20.637
 21
-20.706
  0
LINE
  8
0
 10
-155.104
 11
-154.99
 20
-20.706
 21
-20.789
  0
LINE
  8
0
 10
-154.99
 11
-154.886
 20
-20.789
 21
-20.886
  0
LINE
  8
0
 10
-154.886
 11
-154.796
 20
-20.886
 21
-20.996
  0
LINE
  8
0
 10
-154.796
 11
-154.72
 20
-20.996
 21
-21.115
  0
LINE
  8
0
 10
-154.72
 11
-154.659
 20
-21.115
 21
-21.244
  0
LINE
  8
0
 10
-154.659
 11
-154.615
 20
-21.244
 21
-21.379
  0
LINE
  8
0
 10
-154.615
 11
-154.589
 20
-21.379
 21
-21.518
  0
LINE
  8
0
 10
-154.589
 11
-154.58
 20
-21.518
 21
-21.66
  0
LINE
  8
0
 10
-154.58
 11
-154.589
 20
-21.66
 21
-21.802
  0
LINE
  8
0
 10
-154.589
 11
-154.615
 20
-21.802
 21
-21.941
  0
LINE
  8
0
 10
-154.615
 11
-154.659
 20
-21.941
 21
-22.076
  0
LINE
  8
0
 10
-154.659
 11
-154.72
 20
-22.076
 21
-22.205
  0
LINE
  8
0
 10
-154.72
 11
-154.796
 20
-22.205
 21
-22.324
  0
LINE
  8
0
 10
-154.796
 11
-154.886
 20
-22.324
 21
-22.434
  0
LINE
  8
0
 10
-154.886
 11
-154.99
 20
-22.434
 21
-22.531
  0
LINE
  8
0
 10
-154.99
 11
-155.104
 20
-22.531
 21
-22.614
  0
LINE
  8
0
 10
-155.104
 11
-155.229
 20
-22.614
 21
-22.683
  0
LINE
  8
0
 10
-155.229
 11
-155.361
 20
-22.683
 21
-22.735
  0
LINE
  8
0
 10
-155.361
 11
-155.498
 20
-22.735
 21
-22.77
  0
LINE
  8
0
 10
-155.498
 11
-155.639
 20
-22.77
 21
-22.788
  0
LINE
  8
0
 10
-155.639
 11
-155.781
 20
-22.788
 21
-22.788
  0
LINE
  8
0
 10
-155.781
 11
-155.922
 20
-22.788
 21
-22.77
  0
LINE
  8
0
 10
-155.922
 11
-156.059
 20
-22.77
 21
-22.735
  0
LINE
  8
0
 10
-156.059
 11
-156.191
 20
-22.735
 21
-22.683
  0
LINE
  8
0
 10
-156.191
 11
-156.316
 20
-22.683
 21
-22.614
  0
LINE
  8
0
 10
-156.316
 11
-156.43
 20
-22.614
 21
-22.531
  0
LINE
  8
0
 10
-156.43
 11
-156.534
 20
-22.531
 21
-22.434
  0
LINE
  8
0
 10
-156.534
 11
-156.624
 20
-22.434
 21
-22.324
  0
LINE
  8
0
 10
-156.624
 11
-156.7
 20
-22.324
 21
-22.205
  0
LINE
  8
0
 10
-156.7
 11
-156.761
 20
-22.205
 21
-22.076
  0
LINE
  8
0
 10
-156.761
 11
-156.805
 20
-22.076
 21
-21.941
  0
LINE
  8
0
 10
-156.805
 11
-156.831
 20
-21.941
 21
-21.802
  0
LINE
  8
0
 10
-156.831
 11
-156.84
 20
-21.802
 21
-21.66
  0
LINE
  8
0
 10
-100.72
 11
-100.711
 20
-21.66
 21
-21.518
  0
LINE
  8
0
 10
-100.711
 11
-100.685
 20
-21.518
 21
-21.379
  0
LINE
  8
0
 10
-100.685
 11
-100.641
 20
-21.379
 21
-21.244
  0
LINE
  8
0
 10
-100.641
 11
-100.58
 20
-21.244
 21
-21.115
  0
LINE
  8
0
 10
-100.58
 11
-100.504
 20
-21.115
 21
-20.996
  0
LINE
  8
0
 10
-100.504
 11
-100.414
 20
-20.996
 21
-20.886
  0
LINE
  8
0
 10
-100.414
 11
-100.31
 20
-20.886
 21
-20.789
  0
LINE
  8
0
 10
-100.31
 11
-100.196
 20
-20.789
 21
-20.706
  0
LINE
  8
0
 10
-100.196
 11
-100.071
 20
-20.706
 21
-20.637
  0
LINE
  8
0
 10
-100.071
 11
-99.939
 20
-20.637
 21
-20.585
  0
LINE
  8
0
 10
-99.939
 11
-99.802
 20
-20.585
 21
-20.55
  0
LINE
  8
0
 10
-99.802
 11
-99.661
 20
-20.55
 21
-20.532
  0
LINE
  8
0
 10
-99.661
 11
-99.519
 20
-20.532
 21
-20.532
  0
LINE
  8
0
 10
-99.519
 11
-99.378
 20
-20.532
 21
-20.55
  0
LINE
  8
0
 10
-99.378
 11
-99.241
 20
-20.55
 21
-20.585
  0
LINE
  8
0
 10
-99.241
 11
-99.109
 20
-20.585
 21
-20.637
  0
LINE
  8
0
 10
-99.109
 11
-98.984
 20
-20.637
 21
-20.706
  0
LINE
  8
0
 10
-98.984
 11
-98.87
 20
-20.706
 21
-20.789
  0
LINE
  8
0
 10
-98.87
 11
-98.766
 20
-20.789
 21
-20.886
  0
LINE
  8
0
 10
-98.766
 11
-98.676
 20
-20.886
 21
-20.996
  0
LINE
  8
0
 10
-98.676
 11
-98.6
 20
-20.996
 21
-21.115
  0
LINE
  8
0
 10
-98.6
 11
-98.539
 20
-21.115
 21
-21.244
  0
LINE
  8
0
 10
-98.539
 11
-98.495
 20
-21.244
 21
-21.379
  0
LINE
  8
0
 10
-98.495
 11
-98.469
 20
-21.379
 21
-21.518
  0
LINE
  8
0
 10
-98.469
 11
-98.46
 20
-21.518
 21
-21.66
  0
LINE
  8
0
 10
-98.46
 11
-98.469
 20
-21.66
 21
-21.802
  0
LINE
  8
0
 10
-98.469
 11
-98.495
 20
-21.802
 21
-21.941
  0
LINE
  8
0
 10
-98.495
 11
-98.539
 20
-21.941
 21
-22.076
  0
LINE
  8
0
 10
-98.539
 11
-98.6
 20
-22.076
 21
-22.205
  0
LINE
  8
0
 10
-98.6
 11
-98.676
 20
-22.205
 21
-22.324
  0
LINE
  8
0
 10
-98.676
 11
-98.766
 20
-22.324
 21
-22.434
  0
LINE
  8
0
 10
-98.766
 11
-98.87
 20
-22.434
 21
-22.531
  0
LINE
  8
0
 10
-98.87
 11
-98.984
 20
-22.531
 21
-22.614
  0
LINE
  8
0
 10
-98.984
 11
-99.109
 20
-22.614
 21
-22.683
  0
LINE
  8
0
 10
-99.109
 11
-99.241
 20
-22.683
 21
-22.735
  0
LINE
  8
0
 10
-99.241
 11
-99.378
 20
-22.735
 21
-22.77
  0
LINE
  8
0
 10
-99.378
 11
-99.519
 20
-22.77
 21
-22.788
  0
LINE
  8
0
 10
-99.519
 11
-99.661
 20
-22.788
 21
-22.788
  0
LINE
  8
0
 10
-99.661
 11
-99.802
 20
-22.788
 21
-22.77
  0
LINE
  8
0
 10
-99.802
 11
-99.939
 20
-22.77
 21
-22.735
  0
LINE
  8
0
 10
-99.939
 11
-100.071
 20
-22.735
 21
-22.683
  0
LINE
  8
0
 10
-100.071
 11
-100.196
 20
-22.683
 21
-22.614
  0
LINE
  8
0
 10
-100.196
 11
-100.31
 20
-22.614
 21
-22.531
  0
LINE
  8
0
 10
-100.31
 11
-100.414
 20
-22.531
 21
-22.434
  0
LINE
  8
0
 10
-100.414
 11
-100.504
 20
-22.434
 21
-22.324
  0
LINE
  8
0
 10
-100.504
 11
-100.58
 20
-22.324
 21
-22.205
  0
LINE
  8
0
 10
-100.58
 11
-100.641
 20
-22.205
 21
-22.076
  0
LINE
  8
0
 10
-100.641
 11
-100.685
 20
-22.076
 21
-21.941
  0
LINE
  8
0
 10
-100.685
 11
-100.711
 20
-21.941
 21
-21.802
  0
LINE
  8
0
 10
-100.711
 11
-100.72
 20
-21.802
 21
-21.66
  0
ENDSEC
  0
SECTION
  2
OBJECTS
  0
DICTIONARY
  0
ENDSEC
  0
EOF
