  0
SECTION
  2
BLOCKS
  0
ENDSEC
  0
SECTION
  2
ENTITIES
  0
LINE
  8
0
 10
-236.45
 11
-236.45
 20
-12.65
 21
12.65
  0
LINE
  8
0
 10
-236.45
 11
-175.25
 20
12.65
 21
12.65
  0
LINE
  8
0
 10
-175.25
 11
-175.25
 20
12.65
 21
-12.65
  0
LINE
  8
0
 10
-175.25
 11
-236.45
 20
-12.65
 21
-12.65
  0
LINE
  8
0
 10
-235.04
 11
-235.031
 20
-10.11
 21
-9.968
  0
LINE
  8
0
 10
-235.031
 11
-235.005
 20
-9.968
 21
-9.829
  0
LINE
  8
0
 10
-235.005
 11
-234.961
 20
-9.829
 21
-9.694
  0
LINE
  8
0
 10
-234.961
 11
-234.9
 20
-9.694
 21
-9.565
  0
LINE
  8
0
 10
-234.9
 11
-234.824
 20
-9.565
 21
-9.446
  0
LINE
  8
0
 10
-234.824
 11
-234.734
 20
-9.446
 21
-9.336
  0
LINE
  8
0
 10
-234.734
 11
-234.63
 20
-9.336
 21
-9.239
  0
LINE
  8
0
 10
-234.63
 11
-234.516
 20
-9.239
 21
-9.156
  0
LINE
  8
0
 10
-234.516
 11
-234.391
 20
-9.156
 21
-9.087
  0
LINE
  8
0
 10
-234.391
 11
-234.259
 20
-9.087
 21
-9.035
  0
LINE
  8
0
 10
-234.259
 11
-234.122
 20
-9.035
 21
-9
  0
LINE
  8
0
 10
-234.122
 11
-233.981
 20
-9
 21
-8.982
  0
LINE
  8
0
 10
-233.981
 11
-233.839
 20
-8.982
 21
-8.982
  0
LINE
  8
0
 10
-233.839
 11
-233.698
 20
-8.982
 21
-9
  0
LINE
  8
0
 10
-233.698
 11
-233.561
 20
-9
 21
-9.035
  0
LINE
  8
0
 10
-233.561
 11
-233.429
 20
-9.035
 21
-9.087
  0
LINE
  8
0
 10
-233.429
 11
-233.304
 20
-9.087
 21
-9.156
  0
LINE
  8
0
 10
-233.304
 11
-233.19
 20
-9.156
 21
-9.239
  0
LINE
  8
0
 10
-233.19
 11
-233.086
 20
-9.239
 21
-9.336
  0
LINE
  8
0
 10
-233.086
 11
-232.996
 20
-9.336
 21
-9.446
  0
LINE
  8
0
 10
-232.996
 11
-232.92
 20
-9.446
 21
-9.565
  0
LINE
  8
0
 10
-232.92
 11
-232.859
 20
-9.565
 21
-9.694
  0
LINE
  8
0
 10
-232.859
 11
-232.815
 20
-9.694
 21
-9.829
  0
LINE
  8
0
 10
-232.815
 11
-232.789
 20
-9.829
 21
-9.968
  0
LINE
  8
0
 10
-232.789
 11
-232.78
 20
-9.968
 21
-10.11
  0
LINE
  8
0
 10
-232.78
 11
-232.789
 20
-10.11
 21
-10.252
  0
LINE
  8
0
 10
-232.789
 11
-232.815
 20
-10.252
 21
-10.391
  0
LINE
  8
0
 10
-232.815
 11
-232.859
 20
-10.391
 21
-10.526
  0
LINE
  8
0
 10
-232.859
 11
-232.92
 20
-10.526
 21
-10.655
  0
LINE
  8
0
 10
-232.92
 11
-232.996
 20
-10.655
 21
-10.774
  0
LINE
  8
0
 10
-232.996
 11
-233.086
 20
-10.774
 21
-10.884
  0
LINE
  8
0
 10
-233.086
 11
-233.19
 20
-10.884
 21
-10.981
  0
LINE
  8
0
 10
-233.19
 11
-233.304
 20
-10.981
 21
-11.064
  0
LINE
  8
0
 10
-233.304
 11
-233.429
 20
-11.064
 21
-11.133
  0
LINE
  8
0
 10
-233.429
 11
-233.561
 20
-11.133
 21
-11.185
  0
LINE
  8
0
 10
-233.561
 11
-233.698
 20
-11.185
 21
-11.22
  0
LINE
  8
0
 10
-233.698
 11
-233.839
 20
-11.22
 21
-11.238
  0
LINE
  8
0
 10
-233.839
 11
-233.981
 20
-11.238
 21
-11.238
  0
LINE
  8
0
 10
-233.981
 11
-234.122
 20
-11.238
 21
-11.22
  0
LINE
  8
0
 10
-234.122
 11
-234.259
 20
-11.22
 21
-11.185
  0
LINE
  8
0
 10
-234.259
 11
-234.391
 20
-11.185
 21
-11.133
  0
LINE
  8
0
 10
-234.391
 11
-234.516
 20
-11.133
 21
-11.064
  0
LINE
  8
0
 10
-234.516
 11
-234.63
 20
-11.064
 21
-10.981
  0
LINE
  8
0
 10
-234.63
 11
-234.734
 20
-10.981
 21
-10.884
  0
LINE
  8
0
 10
-234.734
 11
-234.824
 20
-10.884
 21
-10.774
  0
LINE
  8
0
 10
-234.824
 11
-234.9
 20
-10.774
 21
-10.655
  0
LINE
  8
0
 10
-234.9
 11
-234.961
 20
-10.655
 21
-10.526
  0
LINE
  8
0
 10
-234.961
 11
-235.005
 20
-10.526
 21
-10.391
  0
LINE
  8
0
 10
-235.005
 11
-235.031
 20
-10.391
 21
-10.252
  0
LINE
  8
0
 10
-235.031
 11
-235.04
 20
-10.252
 21
-10.11
  0
LINE
  8
0
 10
-235.04
 11
-235.031
 20
10.11
 21
10.252
  0
LINE
  8
0
 10
-235.031
 11
-235.005
 20
10.252
 21
10.391
  0
LINE
  8
0
 10
-235.005
 11
-234.961
 20
10.391
 21
10.526
  0
LINE
  8
0
 10
-234.961
 11
-234.9
 20
10.526
 21
10.655
  0
LINE
  8
0
 10
-234.9
 11
-234.824
 20
10.655
 21
10.774
  0
LINE
  8
0
 10
-234.824
 11
-234.734
 20
10.774
 21
10.884
  0
LINE
  8
0
 10
-234.734
 11
-234.63
 20
10.884
 21
10.981
  0
LINE
  8
0
 10
-234.63
 11
-234.516
 20
10.981
 21
11.064
  0
LINE
  8
0
 10
-234.516
 11
-234.391
 20
11.064
 21
11.133
  0
LINE
  8
0
 10
-234.391
 11
-234.259
 20
11.133
 21
11.185
  0
LINE
  8
0
 10
-234.259
 11
-234.122
 20
11.185
 21
11.22
  0
LINE
  8
0
 10
-234.122
 11
-233.981
 20
11.22
 21
11.238
  0
LINE
  8
0
 10
-233.981
 11
-233.839
 20
11.238
 21
11.238
  0
LINE
  8
0
 10
-233.839
 11
-233.698
 20
11.238
 21
11.22
  0
LINE
  8
0
 10
-233.698
 11
-233.561
 20
11.22
 21
11.185
  0
LINE
  8
0
 10
-233.561
 11
-233.429
 20
11.185
 21
11.133
  0
LINE
  8
0
 10
-233.429
 11
-233.304
 20
11.133
 21
11.064
  0
LINE
  8
0
 10
-233.304
 11
-233.19
 20
11.064
 21
10.981
  0
LINE
  8
0
 10
-233.19
 11
-233.086
 20
10.981
 21
10.884
  0
LINE
  8
0
 10
-233.086
 11
-232.996
 20
10.884
 21
10.774
  0
LINE
  8
0
 10
-232.996
 11
-232.92
 20
10.774
 21
10.655
  0
LINE
  8
0
 10
-232.92
 11
-232.859
 20
10.655
 21
10.526
  0
LINE
  8
0
 10
-232.859
 11
-232.815
 20
10.526
 21
10.391
  0
LINE
  8
0
 10
-232.815
 11
-232.789
 20
10.391
 21
10.252
  0
LINE
  8
0
 10
-232.789
 11
-232.78
 20
10.252
 21
10.11
  0
LINE
  8
0
 10
-232.78
 11
-232.789
 20
10.11
 21
9.968
  0
LINE
  8
0
 10
-232.789
 11
-232.815
 20
9.968
 21
9.829
  0
LINE
  8
0
 10
-232.815
 11
-232.859
 20
9.829
 21
9.694
  0
LINE
  8
0
 10
-232.859
 11
-232.92
 20
9.694
 21
9.565
  0
LINE
  8
0
 10
-232.92
 11
-232.996
 20
9.565
 21
9.446
  0
LINE
  8
0
 10
-232.996
 11
-233.086
 20
9.446
 21
9.336
  0
LINE
  8
0
 10
-233.086
 11
-233.19
 20
9.336
 21
9.239
  0
LINE
  8
0
 10
-233.19
 11
-233.304
 20
9.239
 21
9.156
  0
LINE
  8
0
 10
-233.304
 11
-233.429
 20
9.156
 21
9.087
  0
LINE
  8
0
 10
-233.429
 11
-233.561
 20
9.087
 21
9.035
  0
LINE
  8
0
 10
-233.561
 11
-233.698
 20
9.035
 21
9
  0
LINE
  8
0
 10
-233.698
 11
-233.839
 20
9
 21
8.982
  0
LINE
  8
0
 10
-233.839
 11
-233.981
 20
8.982
 21
8.982
  0
LINE
  8
0
 10
-233.981
 11
-234.122
 20
8.982
 21
9
  0
LINE
  8
0
 10
-234.122
 11
-234.259
 20
9
 21
9.035
  0
LINE
  8
0
 10
-234.259
 11
-234.391
 20
9.035
 21
9.087
  0
LINE
  8
0
 10
-234.391
 11
-234.516
 20
9.087
 21
9.156
  0
LINE
  8
0
 10
-234.516
 11
-234.63
 20
9.156
 21
9.239
  0
LINE
  8
0
 10
-234.63
 11
-234.734
 20
9.239
 21
9.336
  0
LINE
  8
0
 10
-234.734
 11
-234.824
 20
9.336
 21
9.446
  0
LINE
  8
0
 10
-234.824
 11
-234.9
 20
9.446
 21
9.565
  0
LINE
  8
0
 10
-234.9
 11
-234.961
 20
9.565
 21
9.694
  0
LINE
  8
0
 10
-234.961
 11
-235.005
 20
9.694
 21
9.829
  0
LINE
  8
0
 10
-235.005
 11
-235.031
 20
9.829
 21
9.968
  0
LINE
  8
0
 10
-235.031
 11
-235.04
 20
9.968
 21
10.11
  0
LINE
  8
0
 10
-178.92
 11
-178.911
 20
-10.11
 21
-9.968
  0
LINE
  8
0
 10
-178.911
 11
-178.885
 20
-9.968
 21
-9.829
  0
LINE
  8
0
 10
-178.885
 11
-178.841
 20
-9.829
 21
-9.694
  0
LINE
  8
0
 10
-178.841
 11
-178.78
 20
-9.694
 21
-9.565
  0
LINE
  8
0
 10
-178.78
 11
-178.704
 20
-9.565
 21
-9.446
  0
LINE
  8
0
 10
-178.704
 11
-178.614
 20
-9.446
 21
-9.336
  0
LINE
  8
0
 10
-178.614
 11
-178.51
 20
-9.336
 21
-9.239
  0
LINE
  8
0
 10
-178.51
 11
-178.396
 20
-9.239
 21
-9.156
  0
LINE
  8
0
 10
-178.396
 11
-178.271
 20
-9.156
 21
-9.087
  0
LINE
  8
0
 10
-178.271
 11
-178.139
 20
-9.087
 21
-9.035
  0
LINE
  8
0
 10
-178.139
 11
-178.002
 20
-9.035
 21
-9
  0
LINE
  8
0
 10
-178.002
 11
-177.861
 20
-9
 21
-8.982
  0
LINE
  8
0
 10
-177.861
 11
-177.719
 20
-8.982
 21
-8.982
  0
LINE
  8
0
 10
-177.719
 11
-177.578
 20
-8.982
 21
-9
  0
LINE
  8
0
 10
-177.578
 11
-177.441
 20
-9
 21
-9.035
  0
LINE
  8
0
 10
-177.441
 11
-177.309
 20
-9.035
 21
-9.087
  0
LINE
  8
0
 10
-177.309
 11
-177.184
 20
-9.087
 21
-9.156
  0
LINE
  8
0
 10
-177.184
 11
-177.07
 20
-9.156
 21
-9.239
  0
LINE
  8
0
 10
-177.07
 11
-176.966
 20
-9.239
 21
-9.336
  0
LINE
  8
0
 10
-176.966
 11
-176.876
 20
-9.336
 21
-9.446
  0
LINE
  8
0
 10
-176.876
 11
-176.8
 20
-9.446
 21
-9.565
  0
LINE
  8
0
 10
-176.8
 11
-176.739
 20
-9.565
 21
-9.694
  0
LINE
  8
0
 10
-176.739
 11
-176.695
 20
-9.694
 21
-9.829
  0
LINE
  8
0
 10
-176.695
 11
-176.669
 20
-9.829
 21
-9.968
  0
LINE
  8
0
 10
-176.669
 11
-176.66
 20
-9.968
 21
-10.11
  0
LINE
  8
0
 10
-176.66
 11
-176.669
 20
-10.11
 21
-10.252
  0
LINE
  8
0
 10
-176.669
 11
-176.695
 20
-10.252
 21
-10.391
  0
LINE
  8
0
 10
-176.695
 11
-176.739
 20
-10.391
 21
-10.526
  0
LINE
  8
0
 10
-176.739
 11
-176.8
 20
-10.526
 21
-10.655
  0
LINE
  8
0
 10
-176.8
 11
-176.876
 20
-10.655
 21
-10.774
  0
LINE
  8
0
 10
-176.876
 11
-176.966
 20
-10.774
 21
-10.884
  0
LINE
  8
0
 10
-176.966
 11
-177.07
 20
-10.884
 21
-10.981
  0
LINE
  8
0
 10
-177.07
 11
-177.184
 20
-10.981
 21
-11.064
  0
LINE
  8
0
 10
-177.184
 11
-177.309
 20
-11.064
 21
-11.133
  0
LINE
  8
0
 10
-177.309
 11
-177.441
 20
-11.133
 21
-11.185
  0
LINE
  8
0
 10
-177.441
 11
-177.578
 20
-11.185
 21
-11.22
  0
LINE
  8
0
 10
-177.578
 11
-177.719
 20
-11.22
 21
-11.238
  0
LINE
  8
0
 10
-177.719
 11
-177.861
 20
-11.238
 21
-11.238
  0
LINE
  8
0
 10
-177.861
 11
-178.002
 20
-11.238
 21
-11.22
  0
LINE
  8
0
 10
-178.002
 11
-178.139
 20
-11.22
 21
-11.185
  0
LINE
  8
0
 10
-178.139
 11
-178.271
 20
-11.185
 21
-11.133
  0
LINE
  8
0
 10
-178.271
 11
-178.396
 20
-11.133
 21
-11.064
  0
LINE
  8
0
 10
-178.396
 11
-178.51
 20
-11.064
 21
-10.981
  0
LINE
  8
0
 10
-178.51
 11
-178.614
 20
-10.981
 21
-10.884
  0
LINE
  8
0
 10
-178.614
 11
-178.704
 20
-10.884
 21
-10.774
  0
LINE
  8
0
 10
-178.704
 11
-178.78
 20
-10.774
 21
-10.655
  0
LINE
  8
0
 10
-178.78
 11
-178.841
 20
-10.655
 21
-10.526
  0
LINE
  8
0
 10
-178.841
 11
-178.885
 20
-10.526
 21
-10.391
  0
LINE
  8
0
 10
-178.885
 11
-178.911
 20
-10.391
 21
-10.252
  0
LINE
  8
0
 10
-178.911
 11
-178.92
 20
-10.252
 21
-10.11
  0
LINE
  8
0
 10
-178.92
 11
-178.911
 20
10.11
 21
10.252
  0
LINE
  8
0
 10
-178.911
 11
-178.885
 20
10.252
 21
10.391
  0
LINE
  8
0
 10
-178.885
 11
-178.841
 20
10.391
 21
10.526
  0
LINE
  8
0
 10
-178.841
 11
-178.78
 20
10.526
 21
10.655
  0
LINE
  8
0
 10
-178.78
 11
-178.704
 20
10.655
 21
10.774
  0
LINE
  8
0
 10
-178.704
 11
-178.614
 20
10.774
 21
10.884
  0
LINE
  8
0
 10
-178.614
 11
-178.51
 20
10.884
 21
10.981
  0
LINE
  8
0
 10
-178.51
 11
-178.396
 20
10.981
 21
11.064
  0
LINE
  8
0
 10
-178.396
 11
-178.271
 20
11.064
 21
11.133
  0
LINE
  8
0
 10
-178.271
 11
-178.139
 20
11.133
 21
11.185
  0
LINE
  8
0
 10
-178.139
 11
-178.002
 20
11.185
 21
11.22
  0
LINE
  8
0
 10
-178.002
 11
-177.861
 20
11.22
 21
11.238
  0
LINE
  8
0
 10
-177.861
 11
-177.719
 20
11.238
 21
11.238
  0
LINE
  8
0
 10
-177.719
 11
-177.578
 20
11.238
 21
11.22
  0
LINE
  8
0
 10
-177.578
 11
-177.441
 20
11.22
 21
11.185
  0
LINE
  8
0
 10
-177.441
 11
-177.309
 20
11.185
 21
11.133
  0
LINE
  8
0
 10
-177.309
 11
-177.184
 20
11.133
 21
11.064
  0
LINE
  8
0
 10
-177.184
 11
-177.07
 20
11.064
 21
10.981
  0
LINE
  8
0
 10
-177.07
 11
-176.966
 20
10.981
 21
10.884
  0
LINE
  8
0
 10
-176.966
 11
-176.876
 20
10.884
 21
10.774
  0
LINE
  8
0
 10
-176.876
 11
-176.8
 20
10.774
 21
10.655
  0
LINE
  8
0
 10
-176.8
 11
-176.739
 20
10.655
 21
10.526
  0
LINE
  8
0
 10
-176.739
 11
-176.695
 20
10.526
 21
10.391
  0
LINE
  8
0
 10
-176.695
 11
-176.669
 20
10.391
 21
10.252
  0
LINE
  8
0
 10
-176.669
 11
-176.66
 20
10.252
 21
10.11
  0
LINE
  8
0
 10
-176.66
 11
-176.669
 20
10.11
 21
9.968
  0
LINE
  8
0
 10
-176.669
 11
-176.695
 20
9.968
 21
9.829
  0
LINE
  8
0
 10
-176.695
 11
-176.739
 20
9.829
 21
9.694
  0
LINE
  8
0
 10
-176.739
 11
-176.8
 20
9.694
 21
9.565
  0
LINE
  8
0
 10
-176.8
 11
-176.876
 20
9.565
 21
9.446
  0
LINE
  8
0
 10
-176.876
 11
-176.966
 20
9.446
 21
9.336
  0
LINE
  8
0
 10
-176.966
 11
-177.07
 20
9.336
 21
9.239
  0
LINE
  8
0
 10
-177.07
 11
-177.184
 20
9.239
 21
9.156
  0
LINE
  8
0
 10
-177.184
 11
-177.309
 20
9.156
 21
9.087
  0
LINE
  8
0
 10
-177.309
 11
-177.441
 20
9.087
 21
9.035
  0
LINE
  8
0
 10
-177.441
 11
-177.578
 20
9.035
 21
9
  0
LINE
  8
0
 10
-177.578
 11
-177.719
 20
9
 21
8.982
  0
LINE
  8
0
 10
-177.719
 11
-177.861
 20
8.982
 21
8.982
  0
LINE
  8
0
 10
-177.861
 11
-178.002
 20
8.982
 21
9
  0
LINE
  8
0
 10
-178.002
 11
-178.139
 20
9
 21
9.035
  0
LINE
  8
0
 10
-178.139
 11
-178.271
 20
9.035
 21
9.087
  0
LINE
  8
0
 10
-178.271
 11
-178.396
 20
9.087
 21
9.156
  0
LINE
  8
0
 10
-178.396
 11
-178.51
 20
9.156
 21
9.239
  0
LINE
  8
0
 10
-178.51
 11
-178.614
 20
9.239
 21
9.336
  0
LINE
  8
0
 10
-178.614
 11
-178.704
 20
9.336
 21
9.446
  0
LINE
  8
0
 10
-178.704
 11
-178.78
 20
9.446
 21
9.565
  0
LINE
  8
0
 10
-178.78
 11
-178.841
 20
9.565
 21
9.694
  0
LINE
  8
0
 10
-178.841
 11
-178.885
 20
9.694
 21
9.829
  0
LINE
  8
0
 10
-178.885
 11
-178.911
 20
9.829
 21
9.968
  0
LINE
  8
0
 10
-178.911
 11
-178.92
 20
9.968
 21
10.11
  0
ENDSEC
  0
SECTION
  2
OBJECTS
  0
DICTIONARY
  0
ENDSEC
  0
EOF
