  0
SECTION
  2
BLOCKS
  0
ENDSEC
  0
SECTION
  2
ENTITIES
  0
LINE
  8
0
 10
-166.25
 11
-166.25
 20
11.65
 21
15.65
  0
LINE
  8
0
 10
-166.25
 11
-160.25
 20
15.65
 21
15.65
  0
LINE
  8
0
 10
-160.25
 11
-160.25
 20
15.65
 21
24.55
  0
LINE
  8
0
 10
-160.25
 11
-99.05
 20
24.55
 21
24.55
  0
LINE
  8
0
 10
-99.05
 11
-99.05
 20
24.55
 21
15.65
  0
LINE
  8
0
 10
-99.05
 11
-93.05
 20
15.65
 21
15.65
  0
LINE
  8
0
 10
-93.05
 11
-93.05
 20
15.65
 21
11.65
  0
LINE
  8
0
 10
-93.05
 11
-166.25
 20
11.65
 21
11.65
  0
LINE
  8
0
 10
-158.84
 11
-158.831
 20
21.66
 21
21.802
  0
LINE
  8
0
 10
-158.831
 11
-158.805
 20
21.802
 21
21.941
  0
LINE
  8
0
 10
-158.805
 11
-158.761
 20
21.941
 21
22.076
  0
LINE
  8
0
 10
-158.761
 11
-158.7
 20
22.076
 21
22.205
  0
LINE
  8
0
 10
-158.7
 11
-158.624
 20
22.205
 21
22.324
  0
LINE
  8
0
 10
-158.624
 11
-158.534
 20
22.324
 21
22.434
  0
LINE
  8
0
 10
-158.534
 11
-158.43
 20
22.434
 21
22.531
  0
LINE
  8
0
 10
-158.43
 11
-158.316
 20
22.531
 21
22.614
  0
LINE
  8
0
 10
-158.316
 11
-158.191
 20
22.614
 21
22.683
  0
LINE
  8
0
 10
-158.191
 11
-158.059
 20
22.683
 21
22.735
  0
LINE
  8
0
 10
-158.059
 11
-157.922
 20
22.735
 21
22.77
  0
LINE
  8
0
 10
-157.922
 11
-157.781
 20
22.77
 21
22.788
  0
LINE
  8
0
 10
-157.781
 11
-157.639
 20
22.788
 21
22.788
  0
LINE
  8
0
 10
-157.639
 11
-157.498
 20
22.788
 21
22.77
  0
LINE
  8
0
 10
-157.498
 11
-157.361
 20
22.77
 21
22.735
  0
LINE
  8
0
 10
-157.361
 11
-157.229
 20
22.735
 21
22.683
  0
LINE
  8
0
 10
-157.229
 11
-157.104
 20
22.683
 21
22.614
  0
LINE
  8
0
 10
-157.104
 11
-156.99
 20
22.614
 21
22.531
  0
LINE
  8
0
 10
-156.99
 11
-156.886
 20
22.531
 21
22.434
  0
LINE
  8
0
 10
-156.886
 11
-156.796
 20
22.434
 21
22.324
  0
LINE
  8
0
 10
-156.796
 11
-156.72
 20
22.324
 21
22.205
  0
LINE
  8
0
 10
-156.72
 11
-156.659
 20
22.205
 21
22.076
  0
LINE
  8
0
 10
-156.659
 11
-156.615
 20
22.076
 21
21.941
  0
LINE
  8
0
 10
-156.615
 11
-156.589
 20
21.941
 21
21.802
  0
LINE
  8
0
 10
-156.589
 11
-156.58
 20
21.802
 21
21.66
  0
LINE
  8
0
 10
-156.58
 11
-156.589
 20
21.66
 21
21.518
  0
LINE
  8
0
 10
-156.589
 11
-156.615
 20
21.518
 21
21.379
  0
LINE
  8
0
 10
-156.615
 11
-156.659
 20
21.379
 21
21.244
  0
LINE
  8
0
 10
-156.659
 11
-156.72
 20
21.244
 21
21.115
  0
LINE
  8
0
 10
-156.72
 11
-156.796
 20
21.115
 21
20.996
  0
LINE
  8
0
 10
-156.796
 11
-156.886
 20
20.996
 21
20.886
  0
LINE
  8
0
 10
-156.886
 11
-156.99
 20
20.886
 21
20.789
  0
LINE
  8
0
 10
-156.99
 11
-157.104
 20
20.789
 21
20.706
  0
LINE
  8
0
 10
-157.104
 11
-157.229
 20
20.706
 21
20.637
  0
LINE
  8
0
 10
-157.229
 11
-157.361
 20
20.637
 21
20.585
  0
LINE
  8
0
 10
-157.361
 11
-157.498
 20
20.585
 21
20.55
  0
LINE
  8
0
 10
-157.498
 11
-157.639
 20
20.55
 21
20.532
  0
LINE
  8
0
 10
-157.639
 11
-157.781
 20
20.532
 21
20.532
  0
LINE
  8
0
 10
-157.781
 11
-157.922
 20
20.532
 21
20.55
  0
LINE
  8
0
 10
-157.922
 11
-158.059
 20
20.55
 21
20.585
  0
LINE
  8
0
 10
-158.059
 11
-158.191
 20
20.585
 21
20.637
  0
LINE
  8
0
 10
-158.191
 11
-158.316
 20
20.637
 21
20.706
  0
LINE
  8
0
 10
-158.316
 11
-158.43
 20
20.706
 21
20.789
  0
LINE
  8
0
 10
-158.43
 11
-158.534
 20
20.789
 21
20.886
  0
LINE
  8
0
 10
-158.534
 11
-158.624
 20
20.886
 21
20.996
  0
LINE
  8
0
 10
-158.624
 11
-158.7
 20
20.996
 21
21.115
  0
LINE
  8
0
 10
-158.7
 11
-158.761
 20
21.115
 21
21.244
  0
LINE
  8
0
 10
-158.761
 11
-158.805
 20
21.244
 21
21.379
  0
LINE
  8
0
 10
-158.805
 11
-158.831
 20
21.379
 21
21.518
  0
LINE
  8
0
 10
-158.831
 11
-158.84
 20
21.518
 21
21.66
  0
LINE
  8
0
 10
-102.72
 11
-102.711
 20
21.66
 21
21.802
  0
LINE
  8
0
 10
-102.711
 11
-102.685
 20
21.802
 21
21.941
  0
LINE
  8
0
 10
-102.685
 11
-102.641
 20
21.941
 21
22.076
  0
LINE
  8
0
 10
-102.641
 11
-102.58
 20
22.076
 21
22.205
  0
LINE
  8
0
 10
-102.58
 11
-102.504
 20
22.205
 21
22.324
  0
LINE
  8
0
 10
-102.504
 11
-102.414
 20
22.324
 21
22.434
  0
LINE
  8
0
 10
-102.414
 11
-102.31
 20
22.434
 21
22.531
  0
LINE
  8
0
 10
-102.31
 11
-102.196
 20
22.531
 21
22.614
  0
LINE
  8
0
 10
-102.196
 11
-102.071
 20
22.614
 21
22.683
  0
LINE
  8
0
 10
-102.071
 11
-101.939
 20
22.683
 21
22.735
  0
LINE
  8
0
 10
-101.939
 11
-101.802
 20
22.735
 21
22.77
  0
LINE
  8
0
 10
-101.802
 11
-101.661
 20
22.77
 21
22.788
  0
LINE
  8
0
 10
-101.661
 11
-101.519
 20
22.788
 21
22.788
  0
LINE
  8
0
 10
-101.519
 11
-101.378
 20
22.788
 21
22.77
  0
LINE
  8
0
 10
-101.378
 11
-101.241
 20
22.77
 21
22.735
  0
LINE
  8
0
 10
-101.241
 11
-101.109
 20
22.735
 21
22.683
  0
LINE
  8
0
 10
-101.109
 11
-100.984
 20
22.683
 21
22.614
  0
LINE
  8
0
 10
-100.984
 11
-100.87
 20
22.614
 21
22.531
  0
LINE
  8
0
 10
-100.87
 11
-100.766
 20
22.531
 21
22.434
  0
LINE
  8
0
 10
-100.766
 11
-100.676
 20
22.434
 21
22.324
  0
LINE
  8
0
 10
-100.676
 11
-100.6
 20
22.324
 21
22.205
  0
LINE
  8
0
 10
-100.6
 11
-100.539
 20
22.205
 21
22.076
  0
LINE
  8
0
 10
-100.539
 11
-100.495
 20
22.076
 21
21.941
  0
LINE
  8
0
 10
-100.495
 11
-100.469
 20
21.941
 21
21.802
  0
LINE
  8
0
 10
-100.469
 11
-100.46
 20
21.802
 21
21.66
  0
LINE
  8
0
 10
-100.46
 11
-100.469
 20
21.66
 21
21.518
  0
LINE
  8
0
 10
-100.469
 11
-100.495
 20
21.518
 21
21.379
  0
LINE
  8
0
 10
-100.495
 11
-100.539
 20
21.379
 21
21.244
  0
LINE
  8
0
 10
-100.539
 11
-100.6
 20
21.244
 21
21.115
  0
LINE
  8
0
 10
-100.6
 11
-100.676
 20
21.115
 21
20.996
  0
LINE
  8
0
 10
-100.676
 11
-100.766
 20
20.996
 21
20.886
  0
LINE
  8
0
 10
-100.766
 11
-100.87
 20
20.886
 21
20.789
  0
LINE
  8
0
 10
-100.87
 11
-100.984
 20
20.789
 21
20.706
  0
LINE
  8
0
 10
-100.984
 11
-101.109
 20
20.706
 21
20.637
  0
LINE
  8
0
 10
-101.109
 11
-101.241
 20
20.637
 21
20.585
  0
LINE
  8
0
 10
-101.241
 11
-101.378
 20
20.585
 21
20.55
  0
LINE
  8
0
 10
-101.378
 11
-101.519
 20
20.55
 21
20.532
  0
LINE
  8
0
 10
-101.519
 11
-101.661
 20
20.532
 21
20.532
  0
LINE
  8
0
 10
-101.661
 11
-101.802
 20
20.532
 21
20.55
  0
LINE
  8
0
 10
-101.802
 11
-101.939
 20
20.55
 21
20.585
  0
LINE
  8
0
 10
-101.939
 11
-102.071
 20
20.585
 21
20.637
  0
LINE
  8
0
 10
-102.071
 11
-102.196
 20
20.637
 21
20.706
  0
LINE
  8
0
 10
-102.196
 11
-102.31
 20
20.706
 21
20.789
  0
LINE
  8
0
 10
-102.31
 11
-102.414
 20
20.789
 21
20.886
  0
LINE
  8
0
 10
-102.414
 11
-102.504
 20
20.886
 21
20.996
  0
LINE
  8
0
 10
-102.504
 11
-102.58
 20
20.996
 21
21.115
  0
LINE
  8
0
 10
-102.58
 11
-102.641
 20
21.115
 21
21.244
  0
LINE
  8
0
 10
-102.641
 11
-102.685
 20
21.244
 21
21.379
  0
LINE
  8
0
 10
-102.685
 11
-102.711
 20
21.379
 21
21.518
  0
LINE
  8
0
 10
-102.711
 11
-102.72
 20
21.518
 21
21.66
  0
ENDSEC
  0
SECTION
  2
OBJECTS
  0
DICTIONARY
  0
ENDSEC
  0
EOF
