  0
SECTION
  2
BLOCKS
  0
ENDSEC
  0
SECTION
  2
ENTITIES
  0
LINE
  8
0
 10
-166.6
 11
-166.6
 20
13.75
 21
17.75
  0
LINE
  8
0
 10
-166.6
 11
-160.6
 20
17.75
 21
17.75
  0
LINE
  8
0
 10
-160.6
 11
-160.6
 20
17.75
 21
25.25
  0
LINE
  8
0
 10
-160.6
 11
-99.4
 20
25.25
 21
25.25
  0
LINE
  8
0
 10
-99.4
 11
-99.4
 20
25.25
 21
17.75
  0
LINE
  8
0
 10
-99.4
 11
-93.4
 20
17.75
 21
17.75
  0
LINE
  8
0
 10
-93.4
 11
-93.4
 20
17.75
 21
13.75
  0
LINE
  8
0
 10
-93.4
 11
-166.6
 20
13.75
 21
13.75
  0
LINE
  8
0
 10
-159.19
 11
-159.181
 20
23.06
 21
23.202
  0
LINE
  8
0
 10
-159.181
 11
-159.155
 20
23.202
 21
23.341
  0
LINE
  8
0
 10
-159.155
 11
-159.111
 20
23.341
 21
23.476
  0
LINE
  8
0
 10
-159.111
 11
-159.05
 20
23.476
 21
23.605
  0
LINE
  8
0
 10
-159.05
 11
-158.974
 20
23.605
 21
23.724
  0
LINE
  8
0
 10
-158.974
 11
-158.884
 20
23.724
 21
23.834
  0
LINE
  8
0
 10
-158.884
 11
-158.78
 20
23.834
 21
23.931
  0
LINE
  8
0
 10
-158.78
 11
-158.666
 20
23.931
 21
24.014
  0
LINE
  8
0
 10
-158.666
 11
-158.541
 20
24.014
 21
24.083
  0
LINE
  8
0
 10
-158.541
 11
-158.409
 20
24.083
 21
24.135
  0
LINE
  8
0
 10
-158.409
 11
-158.272
 20
24.135
 21
24.17
  0
LINE
  8
0
 10
-158.272
 11
-158.131
 20
24.17
 21
24.188
  0
LINE
  8
0
 10
-158.131
 11
-157.989
 20
24.188
 21
24.188
  0
LINE
  8
0
 10
-157.989
 11
-157.848
 20
24.188
 21
24.17
  0
LINE
  8
0
 10
-157.848
 11
-157.711
 20
24.17
 21
24.135
  0
LINE
  8
0
 10
-157.711
 11
-157.579
 20
24.135
 21
24.083
  0
LINE
  8
0
 10
-157.579
 11
-157.454
 20
24.083
 21
24.014
  0
LINE
  8
0
 10
-157.454
 11
-157.34
 20
24.014
 21
23.931
  0
LINE
  8
0
 10
-157.34
 11
-157.236
 20
23.931
 21
23.834
  0
LINE
  8
0
 10
-157.236
 11
-157.146
 20
23.834
 21
23.724
  0
LINE
  8
0
 10
-157.146
 11
-157.07
 20
23.724
 21
23.605
  0
LINE
  8
0
 10
-157.07
 11
-157.009
 20
23.605
 21
23.476
  0
LINE
  8
0
 10
-157.009
 11
-156.965
 20
23.476
 21
23.341
  0
LINE
  8
0
 10
-156.965
 11
-156.939
 20
23.341
 21
23.202
  0
LINE
  8
0
 10
-156.939
 11
-156.93
 20
23.202
 21
23.06
  0
LINE
  8
0
 10
-156.93
 11
-156.939
 20
23.06
 21
22.918
  0
LINE
  8
0
 10
-156.939
 11
-156.965
 20
22.918
 21
22.779
  0
LINE
  8
0
 10
-156.965
 11
-157.009
 20
22.779
 21
22.644
  0
LINE
  8
0
 10
-157.009
 11
-157.07
 20
22.644
 21
22.515
  0
LINE
  8
0
 10
-157.07
 11
-157.146
 20
22.515
 21
22.396
  0
LINE
  8
0
 10
-157.146
 11
-157.236
 20
22.396
 21
22.286
  0
LINE
  8
0
 10
-157.236
 11
-157.34
 20
22.286
 21
22.189
  0
LINE
  8
0
 10
-157.34
 11
-157.454
 20
22.189
 21
22.106
  0
LINE
  8
0
 10
-157.454
 11
-157.579
 20
22.106
 21
22.037
  0
LINE
  8
0
 10
-157.579
 11
-157.711
 20
22.037
 21
21.985
  0
LINE
  8
0
 10
-157.711
 11
-157.848
 20
21.985
 21
21.95
  0
LINE
  8
0
 10
-157.848
 11
-157.989
 20
21.95
 21
21.932
  0
LINE
  8
0
 10
-157.989
 11
-158.13
 20
21.932
 21
21.932
  0
LINE
  8
0
 10
-158.13
 11
-158.272
 20
21.932
 21
21.95
  0
LINE
  8
0
 10
-158.272
 11
-158.409
 20
21.95
 21
21.985
  0
LINE
  8
0
 10
-158.409
 11
-158.541
 20
21.985
 21
22.037
  0
LINE
  8
0
 10
-158.541
 11
-158.666
 20
22.037
 21
22.106
  0
LINE
  8
0
 10
-158.666
 11
-158.78
 20
22.106
 21
22.189
  0
LINE
  8
0
 10
-158.78
 11
-158.884
 20
22.189
 21
22.286
  0
LINE
  8
0
 10
-158.884
 11
-158.974
 20
22.286
 21
22.396
  0
LINE
  8
0
 10
-158.974
 11
-159.05
 20
22.396
 21
22.515
  0
LINE
  8
0
 10
-159.05
 11
-159.111
 20
22.515
 21
22.644
  0
LINE
  8
0
 10
-159.111
 11
-159.155
 20
22.644
 21
22.779
  0
LINE
  8
0
 10
-159.155
 11
-159.181
 20
22.779
 21
22.918
  0
LINE
  8
0
 10
-159.181
 11
-159.19
 20
22.918
 21
23.06
  0
LINE
  8
0
 10
-103.07
 11
-103.061
 20
23.06
 21
23.202
  0
LINE
  8
0
 10
-103.061
 11
-103.035
 20
23.202
 21
23.341
  0
LINE
  8
0
 10
-103.035
 11
-102.991
 20
23.341
 21
23.476
  0
LINE
  8
0
 10
-102.991
 11
-102.93
 20
23.476
 21
23.605
  0
LINE
  8
0
 10
-102.93
 11
-102.854
 20
23.605
 21
23.724
  0
LINE
  8
0
 10
-102.854
 11
-102.764
 20
23.724
 21
23.834
  0
LINE
  8
0
 10
-102.764
 11
-102.66
 20
23.834
 21
23.931
  0
LINE
  8
0
 10
-102.66
 11
-102.546
 20
23.931
 21
24.014
  0
LINE
  8
0
 10
-102.546
 11
-102.421
 20
24.014
 21
24.083
  0
LINE
  8
0
 10
-102.421
 11
-102.289
 20
24.083
 21
24.135
  0
LINE
  8
0
 10
-102.289
 11
-102.152
 20
24.135
 21
24.17
  0
LINE
  8
0
 10
-102.152
 11
-102.011
 20
24.17
 21
24.188
  0
LINE
  8
0
 10
-102.011
 11
-101.869
 20
24.188
 21
24.188
  0
LINE
  8
0
 10
-101.869
 11
-101.728
 20
24.188
 21
24.17
  0
LINE
  8
0
 10
-101.728
 11
-101.591
 20
24.17
 21
24.135
  0
LINE
  8
0
 10
-101.591
 11
-101.459
 20
24.135
 21
24.083
  0
LINE
  8
0
 10
-101.459
 11
-101.334
 20
24.083
 21
24.014
  0
LINE
  8
0
 10
-101.334
 11
-101.22
 20
24.014
 21
23.931
  0
LINE
  8
0
 10
-101.22
 11
-101.116
 20
23.931
 21
23.834
  0
LINE
  8
0
 10
-101.116
 11
-101.026
 20
23.834
 21
23.724
  0
LINE
  8
0
 10
-101.026
 11
-100.95
 20
23.724
 21
23.605
  0
LINE
  8
0
 10
-100.95
 11
-100.889
 20
23.605
 21
23.476
  0
LINE
  8
0
 10
-100.889
 11
-100.845
 20
23.476
 21
23.341
  0
LINE
  8
0
 10
-100.845
 11
-100.819
 20
23.341
 21
23.202
  0
LINE
  8
0
 10
-100.819
 11
-100.81
 20
23.202
 21
23.06
  0
LINE
  8
0
 10
-100.81
 11
-100.819
 20
23.06
 21
22.918
  0
LINE
  8
0
 10
-100.819
 11
-100.845
 20
22.918
 21
22.779
  0
LINE
  8
0
 10
-100.845
 11
-100.889
 20
22.779
 21
22.644
  0
LINE
  8
0
 10
-100.889
 11
-100.95
 20
22.644
 21
22.515
  0
LINE
  8
0
 10
-100.95
 11
-101.026
 20
22.515
 21
22.396
  0
LINE
  8
0
 10
-101.026
 11
-101.116
 20
22.396
 21
22.286
  0
LINE
  8
0
 10
-101.116
 11
-101.22
 20
22.286
 21
22.189
  0
LINE
  8
0
 10
-101.22
 11
-101.334
 20
22.189
 21
22.106
  0
LINE
  8
0
 10
-101.334
 11
-101.459
 20
22.106
 21
22.037
  0
LINE
  8
0
 10
-101.459
 11
-101.591
 20
22.037
 21
21.985
  0
LINE
  8
0
 10
-101.591
 11
-101.728
 20
21.985
 21
21.95
  0
LINE
  8
0
 10
-101.728
 11
-101.869
 20
21.95
 21
21.932
  0
LINE
  8
0
 10
-101.869
 11
-102.011
 20
21.932
 21
21.932
  0
LINE
  8
0
 10
-102.011
 11
-102.152
 20
21.932
 21
21.95
  0
LINE
  8
0
 10
-102.152
 11
-102.289
 20
21.95
 21
21.985
  0
LINE
  8
0
 10
-102.289
 11
-102.421
 20
21.985
 21
22.037
  0
LINE
  8
0
 10
-102.421
 11
-102.546
 20
22.037
 21
22.106
  0
LINE
  8
0
 10
-102.546
 11
-102.66
 20
22.106
 21
22.189
  0
LINE
  8
0
 10
-102.66
 11
-102.764
 20
22.189
 21
22.286
  0
LINE
  8
0
 10
-102.764
 11
-102.854
 20
22.286
 21
22.396
  0
LINE
  8
0
 10
-102.854
 11
-102.93
 20
22.396
 21
22.515
  0
LINE
  8
0
 10
-102.93
 11
-102.991
 20
22.515
 21
22.644
  0
LINE
  8
0
 10
-102.991
 11
-103.035
 20
22.644
 21
22.779
  0
LINE
  8
0
 10
-103.035
 11
-103.061
 20
22.779
 21
22.918
  0
LINE
  8
0
 10
-103.061
 11
-103.07
 20
22.918
 21
23.06
  0
ENDSEC
  0
SECTION
  2
OBJECTS
  0
DICTIONARY
  0
ENDSEC
  0
EOF
