  0
SECTION
  2
BLOCKS
  0
ENDSEC
  0
SECTION
  2
ENTITIES
  0
LINE
  8
0
 10
175.4
 11
175.4
 20
-63.5
 21
63.5
  0
LINE
  8
0
 10
175.4
 11
186.4
 20
63.5
 21
63.5
  0
LINE
  8
0
 10
186.4
 11
186.4
 20
63.5
 21
-63.5
  0
LINE
  8
0
 10
186.4
 11
175.4
 20
-63.5
 21
-63.5
  0
LINE
  8
0
 10
176.9
 11
176.932
 20
-50.8
 21
-50.299
  0
LINE
  8
0
 10
176.932
 11
177.026
 20
-50.299
 21
-49.805
  0
LINE
  8
0
 10
177.026
 11
177.181
 20
-49.805
 21
-49.328
  0
LINE
  8
0
 10
177.181
 11
177.395
 20
-49.328
 21
-48.873
  0
LINE
  8
0
 10
177.395
 11
177.664
 20
-48.873
 21
-48.449
  0
LINE
  8
0
 10
177.664
 11
177.984
 20
-48.449
 21
-48.062
  0
LINE
  8
0
 10
177.984
 11
178.35
 20
-48.062
 21
-47.718
  0
LINE
  8
0
 10
178.35
 11
178.757
 20
-47.718
 21
-47.423
  0
LINE
  8
0
 10
178.757
 11
179.197
 20
-47.423
 21
-47.181
  0
LINE
  8
0
 10
179.197
 11
179.664
 20
-47.181
 21
-46.996
  0
LINE
  8
0
 10
179.664
 11
180.15
 20
-46.996
 21
-46.871
  0
LINE
  8
0
 10
180.15
 11
180.649
 20
-46.871
 21
-46.808
  0
LINE
  8
0
 10
180.649
 11
181.151
 20
-46.808
 21
-46.808
  0
LINE
  8
0
 10
181.151
 11
181.65
 20
-46.808
 21
-46.871
  0
LINE
  8
0
 10
181.65
 11
182.136
 20
-46.871
 21
-46.996
  0
LINE
  8
0
 10
182.136
 11
182.603
 20
-46.996
 21
-47.181
  0
LINE
  8
0
 10
182.603
 11
183.043
 20
-47.181
 21
-47.423
  0
LINE
  8
0
 10
183.043
 11
183.45
 20
-47.423
 21
-47.718
  0
LINE
  8
0
 10
183.45
 11
183.816
 20
-47.718
 21
-48.062
  0
LINE
  8
0
 10
183.816
 11
184.136
 20
-48.062
 21
-48.449
  0
LINE
  8
0
 10
184.136
 11
184.405
 20
-48.449
 21
-48.873
  0
LINE
  8
0
 10
184.405
 11
184.619
 20
-48.873
 21
-49.328
  0
LINE
  8
0
 10
184.619
 11
184.774
 20
-49.328
 21
-49.805
  0
LINE
  8
0
 10
184.774
 11
184.868
 20
-49.805
 21
-50.299
  0
LINE
  8
0
 10
184.868
 11
184.9
 20
-50.299
 21
-50.8
  0
LINE
  8
0
 10
184.9
 11
184.868
 20
-50.8
 21
-51.301
  0
LINE
  8
0
 10
184.868
 11
184.774
 20
-51.301
 21
-51.795
  0
LINE
  8
0
 10
184.774
 11
184.619
 20
-51.795
 21
-52.272
  0
LINE
  8
0
 10
184.619
 11
184.405
 20
-52.272
 21
-52.727
  0
LINE
  8
0
 10
184.405
 11
184.136
 20
-52.727
 21
-53.151
  0
LINE
  8
0
 10
184.136
 11
183.816
 20
-53.151
 21
-53.538
  0
LINE
  8
0
 10
183.816
 11
183.45
 20
-53.538
 21
-53.882
  0
LINE
  8
0
 10
183.45
 11
183.043
 20
-53.882
 21
-54.177
  0
LINE
  8
0
 10
183.043
 11
182.603
 20
-54.177
 21
-54.419
  0
LINE
  8
0
 10
182.603
 11
182.136
 20
-54.419
 21
-54.604
  0
LINE
  8
0
 10
182.136
 11
181.65
 20
-54.604
 21
-54.729
  0
LINE
  8
0
 10
181.65
 11
181.151
 20
-54.729
 21
-54.792
  0
LINE
  8
0
 10
181.151
 11
180.649
 20
-54.792
 21
-54.792
  0
LINE
  8
0
 10
180.649
 11
180.15
 20
-54.792
 21
-54.729
  0
LINE
  8
0
 10
180.15
 11
179.664
 20
-54.729
 21
-54.604
  0
LINE
  8
0
 10
179.664
 11
179.197
 20
-54.604
 21
-54.419
  0
LINE
  8
0
 10
179.197
 11
178.757
 20
-54.419
 21
-54.177
  0
LINE
  8
0
 10
178.757
 11
178.35
 20
-54.177
 21
-53.882
  0
LINE
  8
0
 10
178.35
 11
177.984
 20
-53.882
 21
-53.538
  0
LINE
  8
0
 10
177.984
 11
177.664
 20
-53.538
 21
-53.151
  0
LINE
  8
0
 10
177.664
 11
177.395
 20
-53.151
 21
-52.727
  0
LINE
  8
0
 10
177.395
 11
177.181
 20
-52.727
 21
-52.272
  0
LINE
  8
0
 10
177.181
 11
177.026
 20
-52.272
 21
-51.795
  0
LINE
  8
0
 10
177.026
 11
176.932
 20
-51.795
 21
-51.301
  0
LINE
  8
0
 10
176.932
 11
176.9
 20
-51.301
 21
-50.8
  0
LINE
  8
0
 10
176.9
 11
176.932
 20
-25.4
 21
-24.899
  0
LINE
  8
0
 10
176.932
 11
177.026
 20
-24.899
 21
-24.405
  0
LINE
  8
0
 10
177.026
 11
177.181
 20
-24.405
 21
-23.928
  0
LINE
  8
0
 10
177.181
 11
177.395
 20
-23.928
 21
-23.473
  0
LINE
  8
0
 10
177.395
 11
177.664
 20
-23.473
 21
-23.049
  0
LINE
  8
0
 10
177.664
 11
177.984
 20
-23.049
 21
-22.662
  0
LINE
  8
0
 10
177.984
 11
178.35
 20
-22.662
 21
-22.318
  0
LINE
  8
0
 10
178.35
 11
178.757
 20
-22.318
 21
-22.023
  0
LINE
  8
0
 10
178.757
 11
179.197
 20
-22.023
 21
-21.781
  0
LINE
  8
0
 10
179.197
 11
179.664
 20
-21.781
 21
-21.596
  0
LINE
  8
0
 10
179.664
 11
180.15
 20
-21.596
 21
-21.471
  0
LINE
  8
0
 10
180.15
 11
180.649
 20
-21.471
 21
-21.408
  0
LINE
  8
0
 10
180.649
 11
181.151
 20
-21.408
 21
-21.408
  0
LINE
  8
0
 10
181.151
 11
181.65
 20
-21.408
 21
-21.471
  0
LINE
  8
0
 10
181.65
 11
182.136
 20
-21.471
 21
-21.596
  0
LINE
  8
0
 10
182.136
 11
182.603
 20
-21.596
 21
-21.781
  0
LINE
  8
0
 10
182.603
 11
183.043
 20
-21.781
 21
-22.023
  0
LINE
  8
0
 10
183.043
 11
183.45
 20
-22.023
 21
-22.318
  0
LINE
  8
0
 10
183.45
 11
183.816
 20
-22.318
 21
-22.662
  0
LINE
  8
0
 10
183.816
 11
184.136
 20
-22.662
 21
-23.049
  0
LINE
  8
0
 10
184.136
 11
184.405
 20
-23.049
 21
-23.473
  0
LINE
  8
0
 10
184.405
 11
184.619
 20
-23.473
 21
-23.928
  0
LINE
  8
0
 10
184.619
 11
184.774
 20
-23.928
 21
-24.405
  0
LINE
  8
0
 10
184.774
 11
184.868
 20
-24.405
 21
-24.899
  0
LINE
  8
0
 10
184.868
 11
184.9
 20
-24.899
 21
-25.4
  0
LINE
  8
0
 10
184.9
 11
184.868
 20
-25.4
 21
-25.901
  0
LINE
  8
0
 10
184.868
 11
184.774
 20
-25.901
 21
-26.395
  0
LINE
  8
0
 10
184.774
 11
184.619
 20
-26.395
 21
-26.872
  0
LINE
  8
0
 10
184.619
 11
184.405
 20
-26.872
 21
-27.327
  0
LINE
  8
0
 10
184.405
 11
184.136
 20
-27.327
 21
-27.751
  0
LINE
  8
0
 10
184.136
 11
183.816
 20
-27.751
 21
-28.138
  0
LINE
  8
0
 10
183.816
 11
183.45
 20
-28.138
 21
-28.482
  0
LINE
  8
0
 10
183.45
 11
183.043
 20
-28.482
 21
-28.777
  0
LINE
  8
0
 10
183.043
 11
182.603
 20
-28.777
 21
-29.019
  0
LINE
  8
0
 10
182.603
 11
182.136
 20
-29.019
 21
-29.204
  0
LINE
  8
0
 10
182.136
 11
181.65
 20
-29.204
 21
-29.329
  0
LINE
  8
0
 10
181.65
 11
181.151
 20
-29.329
 21
-29.392
  0
LINE
  8
0
 10
181.151
 11
180.649
 20
-29.392
 21
-29.392
  0
LINE
  8
0
 10
180.649
 11
180.15
 20
-29.392
 21
-29.329
  0
LINE
  8
0
 10
180.15
 11
179.664
 20
-29.329
 21
-29.204
  0
LINE
  8
0
 10
179.664
 11
179.197
 20
-29.204
 21
-29.019
  0
LINE
  8
0
 10
179.197
 11
178.757
 20
-29.019
 21
-28.777
  0
LINE
  8
0
 10
178.757
 11
178.35
 20
-28.777
 21
-28.482
  0
LINE
  8
0
 10
178.35
 11
177.984
 20
-28.482
 21
-28.138
  0
LINE
  8
0
 10
177.984
 11
177.664
 20
-28.138
 21
-27.751
  0
LINE
  8
0
 10
177.664
 11
177.395
 20
-27.751
 21
-27.327
  0
LINE
  8
0
 10
177.395
 11
177.181
 20
-27.327
 21
-26.872
  0
LINE
  8
0
 10
177.181
 11
177.026
 20
-26.872
 21
-26.395
  0
LINE
  8
0
 10
177.026
 11
176.932
 20
-26.395
 21
-25.901
  0
LINE
  8
0
 10
176.932
 11
176.9
 20
-25.901
 21
-25.4
  0
LINE
  8
0
 10
176.9
 11
176.932
 20
0
 21
0.501
  0
LINE
  8
0
 10
176.932
 11
177.026
 20
0.501
 21
0.995
  0
LINE
  8
0
 10
177.026
 11
177.181
 20
0.995
 21
1.472
  0
LINE
  8
0
 10
177.181
 11
177.395
 20
1.472
 21
1.927
  0
LINE
  8
0
 10
177.395
 11
177.664
 20
1.927
 21
2.351
  0
LINE
  8
0
 10
177.664
 11
177.984
 20
2.351
 21
2.738
  0
LINE
  8
0
 10
177.984
 11
178.35
 20
2.738
 21
3.082
  0
LINE
  8
0
 10
178.35
 11
178.757
 20
3.082
 21
3.377
  0
LINE
  8
0
 10
178.757
 11
179.197
 20
3.377
 21
3.619
  0
LINE
  8
0
 10
179.197
 11
179.664
 20
3.619
 21
3.804
  0
LINE
  8
0
 10
179.664
 11
180.15
 20
3.804
 21
3.929
  0
LINE
  8
0
 10
180.15
 11
180.649
 20
3.929
 21
3.992
  0
LINE
  8
0
 10
180.649
 11
181.151
 20
3.992
 21
3.992
  0
LINE
  8
0
 10
181.151
 11
181.65
 20
3.992
 21
3.929
  0
LINE
  8
0
 10
181.65
 11
182.136
 20
3.929
 21
3.804
  0
LINE
  8
0
 10
182.136
 11
182.603
 20
3.804
 21
3.619
  0
LINE
  8
0
 10
182.603
 11
183.043
 20
3.619
 21
3.377
  0
LINE
  8
0
 10
183.043
 11
183.45
 20
3.377
 21
3.082
  0
LINE
  8
0
 10
183.45
 11
183.816
 20
3.082
 21
2.738
  0
LINE
  8
0
 10
183.816
 11
184.136
 20
2.738
 21
2.351
  0
LINE
  8
0
 10
184.136
 11
184.405
 20
2.351
 21
1.927
  0
LINE
  8
0
 10
184.405
 11
184.619
 20
1.927
 21
1.472
  0
LINE
  8
0
 10
184.619
 11
184.774
 20
1.472
 21
0.995
  0
LINE
  8
0
 10
184.774
 11
184.868
 20
0.995
 21
0.501
  0
LINE
  8
0
 10
184.868
 11
184.9
 20
0.501
 21
0
  0
LINE
  8
0
 10
184.9
 11
184.868
 20
0
 21
-0.501
  0
LINE
  8
0
 10
184.868
 11
184.774
 20
-0.501
 21
-0.995
  0
LINE
  8
0
 10
184.774
 11
184.619
 20
-0.995
 21
-1.472
  0
LINE
  8
0
 10
184.619
 11
184.405
 20
-1.472
 21
-1.927
  0
LINE
  8
0
 10
184.405
 11
184.136
 20
-1.927
 21
-2.351
  0
LINE
  8
0
 10
184.136
 11
183.816
 20
-2.351
 21
-2.738
  0
LINE
  8
0
 10
183.816
 11
183.45
 20
-2.738
 21
-3.082
  0
LINE
  8
0
 10
183.45
 11
183.043
 20
-3.082
 21
-3.377
  0
LINE
  8
0
 10
183.043
 11
182.603
 20
-3.377
 21
-3.619
  0
LINE
  8
0
 10
182.603
 11
182.136
 20
-3.619
 21
-3.804
  0
LINE
  8
0
 10
182.136
 11
181.65
 20
-3.804
 21
-3.929
  0
LINE
  8
0
 10
181.65
 11
181.151
 20
-3.929
 21
-3.992
  0
LINE
  8
0
 10
181.151
 11
180.649
 20
-3.992
 21
-3.992
  0
LINE
  8
0
 10
180.649
 11
180.15
 20
-3.992
 21
-3.929
  0
LINE
  8
0
 10
180.15
 11
179.664
 20
-3.929
 21
-3.804
  0
LINE
  8
0
 10
179.664
 11
179.197
 20
-3.804
 21
-3.619
  0
LINE
  8
0
 10
179.197
 11
178.757
 20
-3.619
 21
-3.377
  0
LINE
  8
0
 10
178.757
 11
178.35
 20
-3.377
 21
-3.082
  0
LINE
  8
0
 10
178.35
 11
177.984
 20
-3.082
 21
-2.738
  0
LINE
  8
0
 10
177.984
 11
177.664
 20
-2.738
 21
-2.351
  0
LINE
  8
0
 10
177.664
 11
177.395
 20
-2.351
 21
-1.927
  0
LINE
  8
0
 10
177.395
 11
177.181
 20
-1.927
 21
-1.472
  0
LINE
  8
0
 10
177.181
 11
177.026
 20
-1.472
 21
-0.995
  0
LINE
  8
0
 10
177.026
 11
176.932
 20
-0.995
 21
-0.501
  0
LINE
  8
0
 10
176.932
 11
176.9
 20
-0.501
 21
0
  0
LINE
  8
0
 10
176.9
 11
176.932
 20
25.4
 21
25.901
  0
LINE
  8
0
 10
176.932
 11
177.026
 20
25.901
 21
26.395
  0
LINE
  8
0
 10
177.026
 11
177.181
 20
26.395
 21
26.872
  0
LINE
  8
0
 10
177.181
 11
177.395
 20
26.872
 21
27.327
  0
LINE
  8
0
 10
177.395
 11
177.664
 20
27.327
 21
27.751
  0
LINE
  8
0
 10
177.664
 11
177.984
 20
27.751
 21
28.138
  0
LINE
  8
0
 10
177.984
 11
178.35
 20
28.138
 21
28.482
  0
LINE
  8
0
 10
178.35
 11
178.757
 20
28.482
 21
28.777
  0
LINE
  8
0
 10
178.757
 11
179.197
 20
28.777
 21
29.019
  0
LINE
  8
0
 10
179.197
 11
179.664
 20
29.019
 21
29.204
  0
LINE
  8
0
 10
179.664
 11
180.15
 20
29.204
 21
29.329
  0
LINE
  8
0
 10
180.15
 11
180.649
 20
29.329
 21
29.392
  0
LINE
  8
0
 10
180.649
 11
181.151
 20
29.392
 21
29.392
  0
LINE
  8
0
 10
181.151
 11
181.65
 20
29.392
 21
29.329
  0
LINE
  8
0
 10
181.65
 11
182.136
 20
29.329
 21
29.204
  0
LINE
  8
0
 10
182.136
 11
182.603
 20
29.204
 21
29.019
  0
LINE
  8
0
 10
182.603
 11
183.043
 20
29.019
 21
28.777
  0
LINE
  8
0
 10
183.043
 11
183.45
 20
28.777
 21
28.482
  0
LINE
  8
0
 10
183.45
 11
183.816
 20
28.482
 21
28.138
  0
LINE
  8
0
 10
183.816
 11
184.136
 20
28.138
 21
27.751
  0
LINE
  8
0
 10
184.136
 11
184.405
 20
27.751
 21
27.327
  0
LINE
  8
0
 10
184.405
 11
184.619
 20
27.327
 21
26.872
  0
LINE
  8
0
 10
184.619
 11
184.774
 20
26.872
 21
26.395
  0
LINE
  8
0
 10
184.774
 11
184.868
 20
26.395
 21
25.901
  0
LINE
  8
0
 10
184.868
 11
184.9
 20
25.901
 21
25.4
  0
LINE
  8
0
 10
184.9
 11
184.868
 20
25.4
 21
24.899
  0
LINE
  8
0
 10
184.868
 11
184.774
 20
24.899
 21
24.405
  0
LINE
  8
0
 10
184.774
 11
184.619
 20
24.405
 21
23.928
  0
LINE
  8
0
 10
184.619
 11
184.405
 20
23.928
 21
23.473
  0
LINE
  8
0
 10
184.405
 11
184.136
 20
23.473
 21
23.049
  0
LINE
  8
0
 10
184.136
 11
183.816
 20
23.049
 21
22.662
  0
LINE
  8
0
 10
183.816
 11
183.45
 20
22.662
 21
22.318
  0
LINE
  8
0
 10
183.45
 11
183.043
 20
22.318
 21
22.023
  0
LINE
  8
0
 10
183.043
 11
182.603
 20
22.023
 21
21.781
  0
LINE
  8
0
 10
182.603
 11
182.136
 20
21.781
 21
21.596
  0
LINE
  8
0
 10
182.136
 11
181.65
 20
21.596
 21
21.471
  0
LINE
  8
0
 10
181.65
 11
181.151
 20
21.471
 21
21.408
  0
LINE
  8
0
 10
181.151
 11
180.649
 20
21.408
 21
21.408
  0
LINE
  8
0
 10
180.649
 11
180.15
 20
21.408
 21
21.471
  0
LINE
  8
0
 10
180.15
 11
179.664
 20
21.471
 21
21.596
  0
LINE
  8
0
 10
179.664
 11
179.197
 20
21.596
 21
21.781
  0
LINE
  8
0
 10
179.197
 11
178.757
 20
21.781
 21
22.023
  0
LINE
  8
0
 10
178.757
 11
178.35
 20
22.023
 21
22.318
  0
LINE
  8
0
 10
178.35
 11
177.984
 20
22.318
 21
22.662
  0
LINE
  8
0
 10
177.984
 11
177.664
 20
22.662
 21
23.049
  0
LINE
  8
0
 10
177.664
 11
177.395
 20
23.049
 21
23.473
  0
LINE
  8
0
 10
177.395
 11
177.181
 20
23.473
 21
23.928
  0
LINE
  8
0
 10
177.181
 11
177.026
 20
23.928
 21
24.405
  0
LINE
  8
0
 10
177.026
 11
176.932
 20
24.405
 21
24.899
  0
LINE
  8
0
 10
176.932
 11
176.9
 20
24.899
 21
25.4
  0
LINE
  8
0
 10
176.9
 11
176.932
 20
50.8
 21
51.301
  0
LINE
  8
0
 10
176.932
 11
177.026
 20
51.301
 21
51.795
  0
LINE
  8
0
 10
177.026
 11
177.181
 20
51.795
 21
52.272
  0
LINE
  8
0
 10
177.181
 11
177.395
 20
52.272
 21
52.727
  0
LINE
  8
0
 10
177.395
 11
177.664
 20
52.727
 21
53.151
  0
LINE
  8
0
 10
177.664
 11
177.984
 20
53.151
 21
53.538
  0
LINE
  8
0
 10
177.984
 11
178.35
 20
53.538
 21
53.882
  0
LINE
  8
0
 10
178.35
 11
178.757
 20
53.882
 21
54.177
  0
LINE
  8
0
 10
178.757
 11
179.197
 20
54.177
 21
54.419
  0
LINE
  8
0
 10
179.197
 11
179.664
 20
54.419
 21
54.604
  0
LINE
  8
0
 10
179.664
 11
180.15
 20
54.604
 21
54.729
  0
LINE
  8
0
 10
180.15
 11
180.649
 20
54.729
 21
54.792
  0
LINE
  8
0
 10
180.649
 11
181.151
 20
54.792
 21
54.792
  0
LINE
  8
0
 10
181.151
 11
181.65
 20
54.792
 21
54.729
  0
LINE
  8
0
 10
181.65
 11
182.136
 20
54.729
 21
54.604
  0
LINE
  8
0
 10
182.136
 11
182.603
 20
54.604
 21
54.419
  0
LINE
  8
0
 10
182.603
 11
183.043
 20
54.419
 21
54.177
  0
LINE
  8
0
 10
183.043
 11
183.45
 20
54.177
 21
53.882
  0
LINE
  8
0
 10
183.45
 11
183.816
 20
53.882
 21
53.538
  0
LINE
  8
0
 10
183.816
 11
184.136
 20
53.538
 21
53.151
  0
LINE
  8
0
 10
184.136
 11
184.405
 20
53.151
 21
52.727
  0
LINE
  8
0
 10
184.405
 11
184.619
 20
52.727
 21
52.272
  0
LINE
  8
0
 10
184.619
 11
184.774
 20
52.272
 21
51.795
  0
LINE
  8
0
 10
184.774
 11
184.868
 20
51.795
 21
51.301
  0
LINE
  8
0
 10
184.868
 11
184.9
 20
51.301
 21
50.8
  0
LINE
  8
0
 10
184.9
 11
184.868
 20
50.8
 21
50.299
  0
LINE
  8
0
 10
184.868
 11
184.774
 20
50.299
 21
49.805
  0
LINE
  8
0
 10
184.774
 11
184.619
 20
49.805
 21
49.328
  0
LINE
  8
0
 10
184.619
 11
184.405
 20
49.328
 21
48.873
  0
LINE
  8
0
 10
184.405
 11
184.136
 20
48.873
 21
48.449
  0
LINE
  8
0
 10
184.136
 11
183.816
 20
48.449
 21
48.062
  0
LINE
  8
0
 10
183.816
 11
183.45
 20
48.062
 21
47.718
  0
LINE
  8
0
 10
183.45
 11
183.043
 20
47.718
 21
47.423
  0
LINE
  8
0
 10
183.043
 11
182.603
 20
47.423
 21
47.181
  0
LINE
  8
0
 10
182.603
 11
182.136
 20
47.181
 21
46.996
  0
LINE
  8
0
 10
182.136
 11
181.65
 20
46.996
 21
46.871
  0
LINE
  8
0
 10
181.65
 11
181.151
 20
46.871
 21
46.808
  0
LINE
  8
0
 10
181.151
 11
180.649
 20
46.808
 21
46.808
  0
LINE
  8
0
 10
180.649
 11
180.15
 20
46.808
 21
46.871
  0
LINE
  8
0
 10
180.15
 11
179.664
 20
46.871
 21
46.996
  0
LINE
  8
0
 10
179.664
 11
179.197
 20
46.996
 21
47.181
  0
LINE
  8
0
 10
179.197
 11
178.757
 20
47.181
 21
47.423
  0
LINE
  8
0
 10
178.757
 11
178.35
 20
47.423
 21
47.718
  0
LINE
  8
0
 10
178.35
 11
177.984
 20
47.718
 21
48.062
  0
LINE
  8
0
 10
177.984
 11
177.664
 20
48.062
 21
48.449
  0
LINE
  8
0
 10
177.664
 11
177.395
 20
48.449
 21
48.873
  0
LINE
  8
0
 10
177.395
 11
177.181
 20
48.873
 21
49.328
  0
LINE
  8
0
 10
177.181
 11
177.026
 20
49.328
 21
49.805
  0
LINE
  8
0
 10
177.026
 11
176.932
 20
49.805
 21
50.299
  0
LINE
  8
0
 10
176.932
 11
176.9
 20
50.299
 21
50.8
  0
LINE
  8
0
 10
179.77
 11
179.779
 20
-57.15
 21
-57.008
  0
LINE
  8
0
 10
179.779
 11
179.805
 20
-57.008
 21
-56.869
  0
LINE
  8
0
 10
179.805
 11
179.849
 20
-56.869
 21
-56.734
  0
LINE
  8
0
 10
179.849
 11
179.91
 20
-56.734
 21
-56.605
  0
LINE
  8
0
 10
179.91
 11
179.986
 20
-56.605
 21
-56.486
  0
LINE
  8
0
 10
179.986
 11
180.076
 20
-56.486
 21
-56.376
  0
LINE
  8
0
 10
180.076
 11
180.18
 20
-56.376
 21
-56.279
  0
LINE
  8
0
 10
180.18
 11
180.294
 20
-56.279
 21
-56.196
  0
LINE
  8
0
 10
180.294
 11
180.419
 20
-56.196
 21
-56.127
  0
LINE
  8
0
 10
180.419
 11
180.551
 20
-56.127
 21
-56.075
  0
LINE
  8
0
 10
180.551
 11
180.688
 20
-56.075
 21
-56.04
  0
LINE
  8
0
 10
180.688
 11
180.829
 20
-56.04
 21
-56.022
  0
LINE
  8
0
 10
180.829
 11
180.971
 20
-56.022
 21
-56.022
  0
LINE
  8
0
 10
180.971
 11
181.112
 20
-56.022
 21
-56.04
  0
LINE
  8
0
 10
181.112
 11
181.249
 20
-56.04
 21
-56.075
  0
LINE
  8
0
 10
181.249
 11
181.381
 20
-56.075
 21
-56.127
  0
LINE
  8
0
 10
181.381
 11
181.506
 20
-56.127
 21
-56.196
  0
LINE
  8
0
 10
181.506
 11
181.62
 20
-56.196
 21
-56.279
  0
LINE
  8
0
 10
181.62
 11
181.724
 20
-56.279
 21
-56.376
  0
LINE
  8
0
 10
181.724
 11
181.814
 20
-56.376
 21
-56.486
  0
LINE
  8
0
 10
181.814
 11
181.89
 20
-56.486
 21
-56.605
  0
LINE
  8
0
 10
181.89
 11
181.951
 20
-56.605
 21
-56.734
  0
LINE
  8
0
 10
181.951
 11
181.995
 20
-56.734
 21
-56.869
  0
LINE
  8
0
 10
181.995
 11
182.021
 20
-56.869
 21
-57.008
  0
LINE
  8
0
 10
182.021
 11
182.03
 20
-57.008
 21
-57.15
  0
LINE
  8
0
 10
182.03
 11
182.021
 20
-57.15
 21
-57.292
  0
LINE
  8
0
 10
182.021
 11
181.995
 20
-57.292
 21
-57.431
  0
LINE
  8
0
 10
181.995
 11
181.951
 20
-57.431
 21
-57.566
  0
LINE
  8
0
 10
181.951
 11
181.89
 20
-57.566
 21
-57.695
  0
LINE
  8
0
 10
181.89
 11
181.814
 20
-57.695
 21
-57.814
  0
LINE
  8
0
 10
181.814
 11
181.724
 20
-57.814
 21
-57.924
  0
LINE
  8
0
 10
181.724
 11
181.62
 20
-57.924
 21
-58.021
  0
LINE
  8
0
 10
181.62
 11
181.506
 20
-58.021
 21
-58.104
  0
LINE
  8
0
 10
181.506
 11
181.381
 20
-58.104
 21
-58.173
  0
LINE
  8
0
 10
181.381
 11
181.249
 20
-58.173
 21
-58.225
  0
LINE
  8
0
 10
181.249
 11
181.112
 20
-58.225
 21
-58.26
  0
LINE
  8
0
 10
181.112
 11
180.971
 20
-58.26
 21
-58.278
  0
LINE
  8
0
 10
180.971
 11
180.829
 20
-58.278
 21
-58.278
  0
LINE
  8
0
 10
180.829
 11
180.688
 20
-58.278
 21
-58.26
  0
LINE
  8
0
 10
180.688
 11
180.551
 20
-58.26
 21
-58.225
  0
LINE
  8
0
 10
180.551
 11
180.419
 20
-58.225
 21
-58.173
  0
LINE
  8
0
 10
180.419
 11
180.294
 20
-58.173
 21
-58.104
  0
LINE
  8
0
 10
180.294
 11
180.18
 20
-58.104
 21
-58.021
  0
LINE
  8
0
 10
180.18
 11
180.076
 20
-58.021
 21
-57.924
  0
LINE
  8
0
 10
180.076
 11
179.986
 20
-57.924
 21
-57.814
  0
LINE
  8
0
 10
179.986
 11
179.91
 20
-57.814
 21
-57.695
  0
LINE
  8
0
 10
179.91
 11
179.849
 20
-57.695
 21
-57.566
  0
LINE
  8
0
 10
179.849
 11
179.805
 20
-57.566
 21
-57.431
  0
LINE
  8
0
 10
179.805
 11
179.779
 20
-57.431
 21
-57.292
  0
LINE
  8
0
 10
179.779
 11
179.77
 20
-57.292
 21
-57.15
  0
LINE
  8
0
 10
179.77
 11
179.779
 20
-12.7
 21
-12.558
  0
LINE
  8
0
 10
179.779
 11
179.805
 20
-12.558
 21
-12.419
  0
LINE
  8
0
 10
179.805
 11
179.849
 20
-12.419
 21
-12.284
  0
LINE
  8
0
 10
179.849
 11
179.91
 20
-12.284
 21
-12.155
  0
LINE
  8
0
 10
179.91
 11
179.986
 20
-12.155
 21
-12.036
  0
LINE
  8
0
 10
179.986
 11
180.076
 20
-12.036
 21
-11.926
  0
LINE
  8
0
 10
180.076
 11
180.18
 20
-11.926
 21
-11.829
  0
LINE
  8
0
 10
180.18
 11
180.294
 20
-11.829
 21
-11.746
  0
LINE
  8
0
 10
180.294
 11
180.419
 20
-11.746
 21
-11.677
  0
LINE
  8
0
 10
180.419
 11
180.551
 20
-11.677
 21
-11.625
  0
LINE
  8
0
 10
180.551
 11
180.688
 20
-11.625
 21
-11.59
  0
LINE
  8
0
 10
180.688
 11
180.829
 20
-11.59
 21
-11.572
  0
LINE
  8
0
 10
180.829
 11
180.971
 20
-11.572
 21
-11.572
  0
LINE
  8
0
 10
180.971
 11
181.112
 20
-11.572
 21
-11.59
  0
LINE
  8
0
 10
181.112
 11
181.249
 20
-11.59
 21
-11.625
  0
LINE
  8
0
 10
181.249
 11
181.381
 20
-11.625
 21
-11.677
  0
LINE
  8
0
 10
181.381
 11
181.506
 20
-11.677
 21
-11.746
  0
LINE
  8
0
 10
181.506
 11
181.62
 20
-11.746
 21
-11.829
  0
LINE
  8
0
 10
181.62
 11
181.724
 20
-11.829
 21
-11.926
  0
LINE
  8
0
 10
181.724
 11
181.814
 20
-11.926
 21
-12.036
  0
LINE
  8
0
 10
181.814
 11
181.89
 20
-12.036
 21
-12.155
  0
LINE
  8
0
 10
181.89
 11
181.951
 20
-12.155
 21
-12.284
  0
LINE
  8
0
 10
181.951
 11
181.995
 20
-12.284
 21
-12.419
  0
LINE
  8
0
 10
181.995
 11
182.021
 20
-12.419
 21
-12.558
  0
LINE
  8
0
 10
182.021
 11
182.03
 20
-12.558
 21
-12.7
  0
LINE
  8
0
 10
182.03
 11
182.021
 20
-12.7
 21
-12.842
  0
LINE
  8
0
 10
182.021
 11
181.995
 20
-12.842
 21
-12.981
  0
LINE
  8
0
 10
181.995
 11
181.951
 20
-12.981
 21
-13.116
  0
LINE
  8
0
 10
181.951
 11
181.89
 20
-13.116
 21
-13.245
  0
LINE
  8
0
 10
181.89
 11
181.814
 20
-13.245
 21
-13.364
  0
LINE
  8
0
 10
181.814
 11
181.724
 20
-13.364
 21
-13.474
  0
LINE
  8
0
 10
181.724
 11
181.62
 20
-13.474
 21
-13.571
  0
LINE
  8
0
 10
181.62
 11
181.506
 20
-13.571
 21
-13.654
  0
LINE
  8
0
 10
181.506
 11
181.381
 20
-13.654
 21
-13.723
  0
LINE
  8
0
 10
181.381
 11
181.249
 20
-13.723
 21
-13.775
  0
LINE
  8
0
 10
181.249
 11
181.112
 20
-13.775
 21
-13.81
  0
LINE
  8
0
 10
181.112
 11
180.971
 20
-13.81
 21
-13.828
  0
LINE
  8
0
 10
180.971
 11
180.829
 20
-13.828
 21
-13.828
  0
LINE
  8
0
 10
180.829
 11
180.688
 20
-13.828
 21
-13.81
  0
LINE
  8
0
 10
180.688
 11
180.551
 20
-13.81
 21
-13.775
  0
LINE
  8
0
 10
180.551
 11
180.419
 20
-13.775
 21
-13.723
  0
LINE
  8
0
 10
180.419
 11
180.294
 20
-13.723
 21
-13.654
  0
LINE
  8
0
 10
180.294
 11
180.18
 20
-13.654
 21
-13.571
  0
LINE
  8
0
 10
180.18
 11
180.076
 20
-13.571
 21
-13.474
  0
LINE
  8
0
 10
180.076
 11
179.986
 20
-13.474
 21
-13.364
  0
LINE
  8
0
 10
179.986
 11
179.91
 20
-13.364
 21
-13.245
  0
LINE
  8
0
 10
179.91
 11
179.849
 20
-13.245
 21
-13.116
  0
LINE
  8
0
 10
179.849
 11
179.805
 20
-13.116
 21
-12.981
  0
LINE
  8
0
 10
179.805
 11
179.779
 20
-12.981
 21
-12.842
  0
LINE
  8
0
 10
179.779
 11
179.77
 20
-12.842
 21
-12.7
  0
LINE
  8
0
 10
179.77
 11
179.779
 20
12.7
 21
12.842
  0
LINE
  8
0
 10
179.779
 11
179.805
 20
12.842
 21
12.981
  0
LINE
  8
0
 10
179.805
 11
179.849
 20
12.981
 21
13.116
  0
LINE
  8
0
 10
179.849
 11
179.91
 20
13.116
 21
13.245
  0
LINE
  8
0
 10
179.91
 11
179.986
 20
13.245
 21
13.364
  0
LINE
  8
0
 10
179.986
 11
180.076
 20
13.364
 21
13.474
  0
LINE
  8
0
 10
180.076
 11
180.18
 20
13.474
 21
13.571
  0
LINE
  8
0
 10
180.18
 11
180.294
 20
13.571
 21
13.654
  0
LINE
  8
0
 10
180.294
 11
180.419
 20
13.654
 21
13.723
  0
LINE
  8
0
 10
180.419
 11
180.551
 20
13.723
 21
13.775
  0
LINE
  8
0
 10
180.551
 11
180.688
 20
13.775
 21
13.81
  0
LINE
  8
0
 10
180.688
 11
180.829
 20
13.81
 21
13.828
  0
LINE
  8
0
 10
180.829
 11
180.971
 20
13.828
 21
13.828
  0
LINE
  8
0
 10
180.971
 11
181.112
 20
13.828
 21
13.81
  0
LINE
  8
0
 10
181.112
 11
181.249
 20
13.81
 21
13.775
  0
LINE
  8
0
 10
181.249
 11
181.381
 20
13.775
 21
13.723
  0
LINE
  8
0
 10
181.381
 11
181.506
 20
13.723
 21
13.654
  0
LINE
  8
0
 10
181.506
 11
181.62
 20
13.654
 21
13.571
  0
LINE
  8
0
 10
181.62
 11
181.724
 20
13.571
 21
13.474
  0
LINE
  8
0
 10
181.724
 11
181.814
 20
13.474
 21
13.364
  0
LINE
  8
0
 10
181.814
 11
181.89
 20
13.364
 21
13.245
  0
LINE
  8
0
 10
181.89
 11
181.951
 20
13.245
 21
13.116
  0
LINE
  8
0
 10
181.951
 11
181.995
 20
13.116
 21
12.981
  0
LINE
  8
0
 10
181.995
 11
182.021
 20
12.981
 21
12.842
  0
LINE
  8
0
 10
182.021
 11
182.03
 20
12.842
 21
12.7
  0
LINE
  8
0
 10
182.03
 11
182.021
 20
12.7
 21
12.558
  0
LINE
  8
0
 10
182.021
 11
181.995
 20
12.558
 21
12.419
  0
LINE
  8
0
 10
181.995
 11
181.951
 20
12.419
 21
12.284
  0
LINE
  8
0
 10
181.951
 11
181.89
 20
12.284
 21
12.155
  0
LINE
  8
0
 10
181.89
 11
181.814
 20
12.155
 21
12.036
  0
LINE
  8
0
 10
181.814
 11
181.724
 20
12.036
 21
11.926
  0
LINE
  8
0
 10
181.724
 11
181.62
 20
11.926
 21
11.829
  0
LINE
  8
0
 10
181.62
 11
181.506
 20
11.829
 21
11.746
  0
LINE
  8
0
 10
181.506
 11
181.381
 20
11.746
 21
11.677
  0
LINE
  8
0
 10
181.381
 11
181.249
 20
11.677
 21
11.625
  0
LINE
  8
0
 10
181.249
 11
181.112
 20
11.625
 21
11.59
  0
LINE
  8
0
 10
181.112
 11
180.971
 20
11.59
 21
11.572
  0
LINE
  8
0
 10
180.971
 11
180.829
 20
11.572
 21
11.572
  0
LINE
  8
0
 10
180.829
 11
180.688
 20
11.572
 21
11.59
  0
LINE
  8
0
 10
180.688
 11
180.551
 20
11.59
 21
11.625
  0
LINE
  8
0
 10
180.551
 11
180.419
 20
11.625
 21
11.677
  0
LINE
  8
0
 10
180.419
 11
180.294
 20
11.677
 21
11.746
  0
LINE
  8
0
 10
180.294
 11
180.18
 20
11.746
 21
11.829
  0
LINE
  8
0
 10
180.18
 11
180.076
 20
11.829
 21
11.926
  0
LINE
  8
0
 10
180.076
 11
179.986
 20
11.926
 21
12.036
  0
LINE
  8
0
 10
179.986
 11
179.91
 20
12.036
 21
12.155
  0
LINE
  8
0
 10
179.91
 11
179.849
 20
12.155
 21
12.284
  0
LINE
  8
0
 10
179.849
 11
179.805
 20
12.284
 21
12.419
  0
LINE
  8
0
 10
179.805
 11
179.779
 20
12.419
 21
12.558
  0
LINE
  8
0
 10
179.779
 11
179.77
 20
12.558
 21
12.7
  0
LINE
  8
0
 10
179.77
 11
179.779
 20
57.15
 21
57.292
  0
LINE
  8
0
 10
179.779
 11
179.805
 20
57.292
 21
57.431
  0
LINE
  8
0
 10
179.805
 11
179.849
 20
57.431
 21
57.566
  0
LINE
  8
0
 10
179.849
 11
179.91
 20
57.566
 21
57.695
  0
LINE
  8
0
 10
179.91
 11
179.986
 20
57.695
 21
57.814
  0
LINE
  8
0
 10
179.986
 11
180.076
 20
57.814
 21
57.924
  0
LINE
  8
0
 10
180.076
 11
180.18
 20
57.924
 21
58.021
  0
LINE
  8
0
 10
180.18
 11
180.294
 20
58.021
 21
58.104
  0
LINE
  8
0
 10
180.294
 11
180.419
 20
58.104
 21
58.173
  0
LINE
  8
0
 10
180.419
 11
180.551
 20
58.173
 21
58.225
  0
LINE
  8
0
 10
180.551
 11
180.688
 20
58.225
 21
58.26
  0
LINE
  8
0
 10
180.688
 11
180.829
 20
58.26
 21
58.278
  0
LINE
  8
0
 10
180.829
 11
180.971
 20
58.278
 21
58.278
  0
LINE
  8
0
 10
180.971
 11
181.112
 20
58.278
 21
58.26
  0
LINE
  8
0
 10
181.112
 11
181.249
 20
58.26
 21
58.225
  0
LINE
  8
0
 10
181.249
 11
181.381
 20
58.225
 21
58.173
  0
LINE
  8
0
 10
181.381
 11
181.506
 20
58.173
 21
58.104
  0
LINE
  8
0
 10
181.506
 11
181.62
 20
58.104
 21
58.021
  0
LINE
  8
0
 10
181.62
 11
181.724
 20
58.021
 21
57.924
  0
LINE
  8
0
 10
181.724
 11
181.814
 20
57.924
 21
57.814
  0
LINE
  8
0
 10
181.814
 11
181.89
 20
57.814
 21
57.695
  0
LINE
  8
0
 10
181.89
 11
181.951
 20
57.695
 21
57.566
  0
LINE
  8
0
 10
181.951
 11
181.995
 20
57.566
 21
57.431
  0
LINE
  8
0
 10
181.995
 11
182.021
 20
57.431
 21
57.292
  0
LINE
  8
0
 10
182.021
 11
182.03
 20
57.292
 21
57.15
  0
LINE
  8
0
 10
182.03
 11
182.021
 20
57.15
 21
57.008
  0
LINE
  8
0
 10
182.021
 11
181.995
 20
57.008
 21
56.869
  0
LINE
  8
0
 10
181.995
 11
181.951
 20
56.869
 21
56.734
  0
LINE
  8
0
 10
181.951
 11
181.89
 20
56.734
 21
56.605
  0
LINE
  8
0
 10
181.89
 11
181.814
 20
56.605
 21
56.486
  0
LINE
  8
0
 10
181.814
 11
181.724
 20
56.486
 21
56.376
  0
LINE
  8
0
 10
181.724
 11
181.62
 20
56.376
 21
56.279
  0
LINE
  8
0
 10
181.62
 11
181.506
 20
56.279
 21
56.196
  0
LINE
  8
0
 10
181.506
 11
181.381
 20
56.196
 21
56.127
  0
LINE
  8
0
 10
181.381
 11
181.249
 20
56.127
 21
56.075
  0
LINE
  8
0
 10
181.249
 11
181.112
 20
56.075
 21
56.04
  0
LINE
  8
0
 10
181.112
 11
180.971
 20
56.04
 21
56.022
  0
LINE
  8
0
 10
180.971
 11
180.829
 20
56.022
 21
56.022
  0
LINE
  8
0
 10
180.829
 11
180.688
 20
56.022
 21
56.04
  0
LINE
  8
0
 10
180.688
 11
180.551
 20
56.04
 21
56.075
  0
LINE
  8
0
 10
180.551
 11
180.419
 20
56.075
 21
56.127
  0
LINE
  8
0
 10
180.419
 11
180.294
 20
56.127
 21
56.196
  0
LINE
  8
0
 10
180.294
 11
180.18
 20
56.196
 21
56.279
  0
LINE
  8
0
 10
180.18
 11
180.076
 20
56.279
 21
56.376
  0
LINE
  8
0
 10
180.076
 11
179.986
 20
56.376
 21
56.486
  0
LINE
  8
0
 10
179.986
 11
179.91
 20
56.486
 21
56.605
  0
LINE
  8
0
 10
179.91
 11
179.849
 20
56.605
 21
56.734
  0
LINE
  8
0
 10
179.849
 11
179.805
 20
56.734
 21
56.869
  0
LINE
  8
0
 10
179.805
 11
179.779
 20
56.869
 21
57.008
  0
LINE
  8
0
 10
179.779
 11
179.77
 20
57.008
 21
57.15
  0
ENDSEC
  0
SECTION
  2
OBJECTS
  0
DICTIONARY
  0
ENDSEC
  0
EOF
