  0
SECTION
  2
BLOCKS
  0
ENDSEC
  0
SECTION
  2
ENTITIES
  0
LINE
  8
0
 10
175.05
 11
175.05
 20
-63.5
 21
63.5
  0
LINE
  8
0
 10
175.05
 11
186.05
 20
63.5
 21
63.5
  0
LINE
  8
0
 10
186.05
 11
186.05
 20
63.5
 21
-63.5
  0
LINE
  8
0
 10
186.05
 11
175.05
 20
-63.5
 21
-63.5
  0
LINE
  8
0
 10
176.55
 11
176.582
 20
-50.8
 21
-50.299
  0
LINE
  8
0
 10
176.582
 11
176.676
 20
-50.299
 21
-49.805
  0
LINE
  8
0
 10
176.676
 11
176.831
 20
-49.805
 21
-49.328
  0
LINE
  8
0
 10
176.831
 11
177.045
 20
-49.328
 21
-48.873
  0
LINE
  8
0
 10
177.045
 11
177.314
 20
-48.873
 21
-48.449
  0
LINE
  8
0
 10
177.314
 11
177.634
 20
-48.449
 21
-48.062
  0
LINE
  8
0
 10
177.634
 11
178
 20
-48.062
 21
-47.718
  0
LINE
  8
0
 10
178
 11
178.407
 20
-47.718
 21
-47.423
  0
LINE
  8
0
 10
178.407
 11
178.847
 20
-47.423
 21
-47.181
  0
LINE
  8
0
 10
178.847
 11
179.314
 20
-47.181
 21
-46.996
  0
LINE
  8
0
 10
179.314
 11
179.8
 20
-46.996
 21
-46.871
  0
LINE
  8
0
 10
179.8
 11
180.299
 20
-46.871
 21
-46.808
  0
LINE
  8
0
 10
180.299
 11
180.801
 20
-46.808
 21
-46.808
  0
LINE
  8
0
 10
180.801
 11
181.3
 20
-46.808
 21
-46.871
  0
LINE
  8
0
 10
181.3
 11
181.786
 20
-46.871
 21
-46.996
  0
LINE
  8
0
 10
181.786
 11
182.253
 20
-46.996
 21
-47.181
  0
LINE
  8
0
 10
182.253
 11
182.693
 20
-47.181
 21
-47.423
  0
LINE
  8
0
 10
182.693
 11
183.1
 20
-47.423
 21
-47.718
  0
LINE
  8
0
 10
183.1
 11
183.466
 20
-47.718
 21
-48.062
  0
LINE
  8
0
 10
183.466
 11
183.786
 20
-48.062
 21
-48.449
  0
LINE
  8
0
 10
183.786
 11
184.055
 20
-48.449
 21
-48.873
  0
LINE
  8
0
 10
184.055
 11
184.269
 20
-48.873
 21
-49.328
  0
LINE
  8
0
 10
184.269
 11
184.424
 20
-49.328
 21
-49.805
  0
LINE
  8
0
 10
184.424
 11
184.518
 20
-49.805
 21
-50.299
  0
LINE
  8
0
 10
184.518
 11
184.55
 20
-50.299
 21
-50.8
  0
LINE
  8
0
 10
184.55
 11
184.518
 20
-50.8
 21
-51.301
  0
LINE
  8
0
 10
184.518
 11
184.424
 20
-51.301
 21
-51.795
  0
LINE
  8
0
 10
184.424
 11
184.269
 20
-51.795
 21
-52.272
  0
LINE
  8
0
 10
184.269
 11
184.055
 20
-52.272
 21
-52.727
  0
LINE
  8
0
 10
184.055
 11
183.786
 20
-52.727
 21
-53.151
  0
LINE
  8
0
 10
183.786
 11
183.466
 20
-53.151
 21
-53.538
  0
LINE
  8
0
 10
183.466
 11
183.1
 20
-53.538
 21
-53.882
  0
LINE
  8
0
 10
183.1
 11
182.693
 20
-53.882
 21
-54.177
  0
LINE
  8
0
 10
182.693
 11
182.253
 20
-54.177
 21
-54.419
  0
LINE
  8
0
 10
182.253
 11
181.786
 20
-54.419
 21
-54.604
  0
LINE
  8
0
 10
181.786
 11
181.3
 20
-54.604
 21
-54.729
  0
LINE
  8
0
 10
181.3
 11
180.801
 20
-54.729
 21
-54.792
  0
LINE
  8
0
 10
180.801
 11
180.299
 20
-54.792
 21
-54.792
  0
LINE
  8
0
 10
180.299
 11
179.8
 20
-54.792
 21
-54.729
  0
LINE
  8
0
 10
179.8
 11
179.314
 20
-54.729
 21
-54.604
  0
LINE
  8
0
 10
179.314
 11
178.847
 20
-54.604
 21
-54.419
  0
LINE
  8
0
 10
178.847
 11
178.407
 20
-54.419
 21
-54.177
  0
LINE
  8
0
 10
178.407
 11
178
 20
-54.177
 21
-53.882
  0
LINE
  8
0
 10
178
 11
177.634
 20
-53.882
 21
-53.538
  0
LINE
  8
0
 10
177.634
 11
177.314
 20
-53.538
 21
-53.151
  0
LINE
  8
0
 10
177.314
 11
177.045
 20
-53.151
 21
-52.727
  0
LINE
  8
0
 10
177.045
 11
176.831
 20
-52.727
 21
-52.272
  0
LINE
  8
0
 10
176.831
 11
176.676
 20
-52.272
 21
-51.795
  0
LINE
  8
0
 10
176.676
 11
176.582
 20
-51.795
 21
-51.301
  0
LINE
  8
0
 10
176.582
 11
176.55
 20
-51.301
 21
-50.8
  0
LINE
  8
0
 10
176.55
 11
176.582
 20
-25.4
 21
-24.899
  0
LINE
  8
0
 10
176.582
 11
176.676
 20
-24.899
 21
-24.405
  0
LINE
  8
0
 10
176.676
 11
176.831
 20
-24.405
 21
-23.928
  0
LINE
  8
0
 10
176.831
 11
177.045
 20
-23.928
 21
-23.473
  0
LINE
  8
0
 10
177.045
 11
177.314
 20
-23.473
 21
-23.049
  0
LINE
  8
0
 10
177.314
 11
177.634
 20
-23.049
 21
-22.662
  0
LINE
  8
0
 10
177.634
 11
178
 20
-22.662
 21
-22.318
  0
LINE
  8
0
 10
178
 11
178.407
 20
-22.318
 21
-22.023
  0
LINE
  8
0
 10
178.407
 11
178.847
 20
-22.023
 21
-21.781
  0
LINE
  8
0
 10
178.847
 11
179.314
 20
-21.781
 21
-21.596
  0
LINE
  8
0
 10
179.314
 11
179.8
 20
-21.596
 21
-21.471
  0
LINE
  8
0
 10
179.8
 11
180.299
 20
-21.471
 21
-21.408
  0
LINE
  8
0
 10
180.299
 11
180.801
 20
-21.408
 21
-21.408
  0
LINE
  8
0
 10
180.801
 11
181.3
 20
-21.408
 21
-21.471
  0
LINE
  8
0
 10
181.3
 11
181.786
 20
-21.471
 21
-21.596
  0
LINE
  8
0
 10
181.786
 11
182.253
 20
-21.596
 21
-21.781
  0
LINE
  8
0
 10
182.253
 11
182.693
 20
-21.781
 21
-22.023
  0
LINE
  8
0
 10
182.693
 11
183.1
 20
-22.023
 21
-22.318
  0
LINE
  8
0
 10
183.1
 11
183.466
 20
-22.318
 21
-22.662
  0
LINE
  8
0
 10
183.466
 11
183.786
 20
-22.662
 21
-23.049
  0
LINE
  8
0
 10
183.786
 11
184.055
 20
-23.049
 21
-23.473
  0
LINE
  8
0
 10
184.055
 11
184.269
 20
-23.473
 21
-23.928
  0
LINE
  8
0
 10
184.269
 11
184.424
 20
-23.928
 21
-24.405
  0
LINE
  8
0
 10
184.424
 11
184.518
 20
-24.405
 21
-24.899
  0
LINE
  8
0
 10
184.518
 11
184.55
 20
-24.899
 21
-25.4
  0
LINE
  8
0
 10
184.55
 11
184.518
 20
-25.4
 21
-25.901
  0
LINE
  8
0
 10
184.518
 11
184.424
 20
-25.901
 21
-26.395
  0
LINE
  8
0
 10
184.424
 11
184.269
 20
-26.395
 21
-26.872
  0
LINE
  8
0
 10
184.269
 11
184.055
 20
-26.872
 21
-27.327
  0
LINE
  8
0
 10
184.055
 11
183.786
 20
-27.327
 21
-27.751
  0
LINE
  8
0
 10
183.786
 11
183.466
 20
-27.751
 21
-28.138
  0
LINE
  8
0
 10
183.466
 11
183.1
 20
-28.138
 21
-28.482
  0
LINE
  8
0
 10
183.1
 11
182.693
 20
-28.482
 21
-28.777
  0
LINE
  8
0
 10
182.693
 11
182.253
 20
-28.777
 21
-29.019
  0
LINE
  8
0
 10
182.253
 11
181.786
 20
-29.019
 21
-29.204
  0
LINE
  8
0
 10
181.786
 11
181.3
 20
-29.204
 21
-29.329
  0
LINE
  8
0
 10
181.3
 11
180.801
 20
-29.329
 21
-29.392
  0
LINE
  8
0
 10
180.801
 11
180.299
 20
-29.392
 21
-29.392
  0
LINE
  8
0
 10
180.299
 11
179.8
 20
-29.392
 21
-29.329
  0
LINE
  8
0
 10
179.8
 11
179.314
 20
-29.329
 21
-29.204
  0
LINE
  8
0
 10
179.314
 11
178.847
 20
-29.204
 21
-29.019
  0
LINE
  8
0
 10
178.847
 11
178.407
 20
-29.019
 21
-28.777
  0
LINE
  8
0
 10
178.407
 11
178
 20
-28.777
 21
-28.482
  0
LINE
  8
0
 10
178
 11
177.634
 20
-28.482
 21
-28.138
  0
LINE
  8
0
 10
177.634
 11
177.314
 20
-28.138
 21
-27.751
  0
LINE
  8
0
 10
177.314
 11
177.045
 20
-27.751
 21
-27.327
  0
LINE
  8
0
 10
177.045
 11
176.831
 20
-27.327
 21
-26.872
  0
LINE
  8
0
 10
176.831
 11
176.676
 20
-26.872
 21
-26.395
  0
LINE
  8
0
 10
176.676
 11
176.582
 20
-26.395
 21
-25.901
  0
LINE
  8
0
 10
176.582
 11
176.55
 20
-25.901
 21
-25.4
  0
LINE
  8
0
 10
176.55
 11
176.582
 20
0
 21
0.501
  0
LINE
  8
0
 10
176.582
 11
176.676
 20
0.501
 21
0.995
  0
LINE
  8
0
 10
176.676
 11
176.831
 20
0.995
 21
1.472
  0
LINE
  8
0
 10
176.831
 11
177.045
 20
1.472
 21
1.927
  0
LINE
  8
0
 10
177.045
 11
177.314
 20
1.927
 21
2.351
  0
LINE
  8
0
 10
177.314
 11
177.634
 20
2.351
 21
2.738
  0
LINE
  8
0
 10
177.634
 11
178
 20
2.738
 21
3.082
  0
LINE
  8
0
 10
178
 11
178.407
 20
3.082
 21
3.377
  0
LINE
  8
0
 10
178.407
 11
178.847
 20
3.377
 21
3.619
  0
LINE
  8
0
 10
178.847
 11
179.314
 20
3.619
 21
3.804
  0
LINE
  8
0
 10
179.314
 11
179.8
 20
3.804
 21
3.929
  0
LINE
  8
0
 10
179.8
 11
180.299
 20
3.929
 21
3.992
  0
LINE
  8
0
 10
180.299
 11
180.801
 20
3.992
 21
3.992
  0
LINE
  8
0
 10
180.801
 11
181.3
 20
3.992
 21
3.929
  0
LINE
  8
0
 10
181.3
 11
181.786
 20
3.929
 21
3.804
  0
LINE
  8
0
 10
181.786
 11
182.253
 20
3.804
 21
3.619
  0
LINE
  8
0
 10
182.253
 11
182.693
 20
3.619
 21
3.377
  0
LINE
  8
0
 10
182.693
 11
183.1
 20
3.377
 21
3.082
  0
LINE
  8
0
 10
183.1
 11
183.466
 20
3.082
 21
2.738
  0
LINE
  8
0
 10
183.466
 11
183.786
 20
2.738
 21
2.351
  0
LINE
  8
0
 10
183.786
 11
184.055
 20
2.351
 21
1.927
  0
LINE
  8
0
 10
184.055
 11
184.269
 20
1.927
 21
1.472
  0
LINE
  8
0
 10
184.269
 11
184.424
 20
1.472
 21
0.995
  0
LINE
  8
0
 10
184.424
 11
184.518
 20
0.995
 21
0.501
  0
LINE
  8
0
 10
184.518
 11
184.55
 20
0.501
 21
0
  0
LINE
  8
0
 10
184.55
 11
184.518
 20
0
 21
-0.501
  0
LINE
  8
0
 10
184.518
 11
184.424
 20
-0.501
 21
-0.995
  0
LINE
  8
0
 10
184.424
 11
184.269
 20
-0.995
 21
-1.472
  0
LINE
  8
0
 10
184.269
 11
184.055
 20
-1.472
 21
-1.927
  0
LINE
  8
0
 10
184.055
 11
183.786
 20
-1.927
 21
-2.351
  0
LINE
  8
0
 10
183.786
 11
183.466
 20
-2.351
 21
-2.738
  0
LINE
  8
0
 10
183.466
 11
183.1
 20
-2.738
 21
-3.082
  0
LINE
  8
0
 10
183.1
 11
182.693
 20
-3.082
 21
-3.377
  0
LINE
  8
0
 10
182.693
 11
182.253
 20
-3.377
 21
-3.619
  0
LINE
  8
0
 10
182.253
 11
181.786
 20
-3.619
 21
-3.804
  0
LINE
  8
0
 10
181.786
 11
181.3
 20
-3.804
 21
-3.929
  0
LINE
  8
0
 10
181.3
 11
180.801
 20
-3.929
 21
-3.992
  0
LINE
  8
0
 10
180.801
 11
180.299
 20
-3.992
 21
-3.992
  0
LINE
  8
0
 10
180.299
 11
179.8
 20
-3.992
 21
-3.929
  0
LINE
  8
0
 10
179.8
 11
179.314
 20
-3.929
 21
-3.804
  0
LINE
  8
0
 10
179.314
 11
178.847
 20
-3.804
 21
-3.619
  0
LINE
  8
0
 10
178.847
 11
178.407
 20
-3.619
 21
-3.377
  0
LINE
  8
0
 10
178.407
 11
178
 20
-3.377
 21
-3.082
  0
LINE
  8
0
 10
178
 11
177.634
 20
-3.082
 21
-2.738
  0
LINE
  8
0
 10
177.634
 11
177.314
 20
-2.738
 21
-2.351
  0
LINE
  8
0
 10
177.314
 11
177.045
 20
-2.351
 21
-1.927
  0
LINE
  8
0
 10
177.045
 11
176.831
 20
-1.927
 21
-1.472
  0
LINE
  8
0
 10
176.831
 11
176.676
 20
-1.472
 21
-0.995
  0
LINE
  8
0
 10
176.676
 11
176.582
 20
-0.995
 21
-0.501
  0
LINE
  8
0
 10
176.582
 11
176.55
 20
-0.501
 21
0
  0
LINE
  8
0
 10
176.55
 11
176.582
 20
25.4
 21
25.901
  0
LINE
  8
0
 10
176.582
 11
176.676
 20
25.901
 21
26.395
  0
LINE
  8
0
 10
176.676
 11
176.831
 20
26.395
 21
26.872
  0
LINE
  8
0
 10
176.831
 11
177.045
 20
26.872
 21
27.327
  0
LINE
  8
0
 10
177.045
 11
177.314
 20
27.327
 21
27.751
  0
LINE
  8
0
 10
177.314
 11
177.634
 20
27.751
 21
28.138
  0
LINE
  8
0
 10
177.634
 11
178
 20
28.138
 21
28.482
  0
LINE
  8
0
 10
178
 11
178.407
 20
28.482
 21
28.777
  0
LINE
  8
0
 10
178.407
 11
178.847
 20
28.777
 21
29.019
  0
LINE
  8
0
 10
178.847
 11
179.314
 20
29.019
 21
29.204
  0
LINE
  8
0
 10
179.314
 11
179.8
 20
29.204
 21
29.329
  0
LINE
  8
0
 10
179.8
 11
180.299
 20
29.329
 21
29.392
  0
LINE
  8
0
 10
180.299
 11
180.801
 20
29.392
 21
29.392
  0
LINE
  8
0
 10
180.801
 11
181.3
 20
29.392
 21
29.329
  0
LINE
  8
0
 10
181.3
 11
181.786
 20
29.329
 21
29.204
  0
LINE
  8
0
 10
181.786
 11
182.253
 20
29.204
 21
29.019
  0
LINE
  8
0
 10
182.253
 11
182.693
 20
29.019
 21
28.777
  0
LINE
  8
0
 10
182.693
 11
183.1
 20
28.777
 21
28.482
  0
LINE
  8
0
 10
183.1
 11
183.466
 20
28.482
 21
28.138
  0
LINE
  8
0
 10
183.466
 11
183.786
 20
28.138
 21
27.751
  0
LINE
  8
0
 10
183.786
 11
184.055
 20
27.751
 21
27.327
  0
LINE
  8
0
 10
184.055
 11
184.269
 20
27.327
 21
26.872
  0
LINE
  8
0
 10
184.269
 11
184.424
 20
26.872
 21
26.395
  0
LINE
  8
0
 10
184.424
 11
184.518
 20
26.395
 21
25.901
  0
LINE
  8
0
 10
184.518
 11
184.55
 20
25.901
 21
25.4
  0
LINE
  8
0
 10
184.55
 11
184.518
 20
25.4
 21
24.899
  0
LINE
  8
0
 10
184.518
 11
184.424
 20
24.899
 21
24.405
  0
LINE
  8
0
 10
184.424
 11
184.269
 20
24.405
 21
23.928
  0
LINE
  8
0
 10
184.269
 11
184.055
 20
23.928
 21
23.473
  0
LINE
  8
0
 10
184.055
 11
183.786
 20
23.473
 21
23.049
  0
LINE
  8
0
 10
183.786
 11
183.466
 20
23.049
 21
22.662
  0
LINE
  8
0
 10
183.466
 11
183.1
 20
22.662
 21
22.318
  0
LINE
  8
0
 10
183.1
 11
182.693
 20
22.318
 21
22.023
  0
LINE
  8
0
 10
182.693
 11
182.253
 20
22.023
 21
21.781
  0
LINE
  8
0
 10
182.253
 11
181.786
 20
21.781
 21
21.596
  0
LINE
  8
0
 10
181.786
 11
181.3
 20
21.596
 21
21.471
  0
LINE
  8
0
 10
181.3
 11
180.801
 20
21.471
 21
21.408
  0
LINE
  8
0
 10
180.801
 11
180.299
 20
21.408
 21
21.408
  0
LINE
  8
0
 10
180.299
 11
179.8
 20
21.408
 21
21.471
  0
LINE
  8
0
 10
179.8
 11
179.314
 20
21.471
 21
21.596
  0
LINE
  8
0
 10
179.314
 11
178.847
 20
21.596
 21
21.781
  0
LINE
  8
0
 10
178.847
 11
178.407
 20
21.781
 21
22.023
  0
LINE
  8
0
 10
178.407
 11
178
 20
22.023
 21
22.318
  0
LINE
  8
0
 10
178
 11
177.634
 20
22.318
 21
22.662
  0
LINE
  8
0
 10
177.634
 11
177.314
 20
22.662
 21
23.049
  0
LINE
  8
0
 10
177.314
 11
177.045
 20
23.049
 21
23.473
  0
LINE
  8
0
 10
177.045
 11
176.831
 20
23.473
 21
23.928
  0
LINE
  8
0
 10
176.831
 11
176.676
 20
23.928
 21
24.405
  0
LINE
  8
0
 10
176.676
 11
176.582
 20
24.405
 21
24.899
  0
LINE
  8
0
 10
176.582
 11
176.55
 20
24.899
 21
25.4
  0
LINE
  8
0
 10
176.55
 11
176.582
 20
50.8
 21
51.301
  0
LINE
  8
0
 10
176.582
 11
176.676
 20
51.301
 21
51.795
  0
LINE
  8
0
 10
176.676
 11
176.831
 20
51.795
 21
52.272
  0
LINE
  8
0
 10
176.831
 11
177.045
 20
52.272
 21
52.727
  0
LINE
  8
0
 10
177.045
 11
177.314
 20
52.727
 21
53.151
  0
LINE
  8
0
 10
177.314
 11
177.634
 20
53.151
 21
53.538
  0
LINE
  8
0
 10
177.634
 11
178
 20
53.538
 21
53.882
  0
LINE
  8
0
 10
178
 11
178.407
 20
53.882
 21
54.177
  0
LINE
  8
0
 10
178.407
 11
178.847
 20
54.177
 21
54.419
  0
LINE
  8
0
 10
178.847
 11
179.314
 20
54.419
 21
54.604
  0
LINE
  8
0
 10
179.314
 11
179.8
 20
54.604
 21
54.729
  0
LINE
  8
0
 10
179.8
 11
180.299
 20
54.729
 21
54.792
  0
LINE
  8
0
 10
180.299
 11
180.801
 20
54.792
 21
54.792
  0
LINE
  8
0
 10
180.801
 11
181.3
 20
54.792
 21
54.729
  0
LINE
  8
0
 10
181.3
 11
181.786
 20
54.729
 21
54.604
  0
LINE
  8
0
 10
181.786
 11
182.253
 20
54.604
 21
54.419
  0
LINE
  8
0
 10
182.253
 11
182.693
 20
54.419
 21
54.177
  0
LINE
  8
0
 10
182.693
 11
183.1
 20
54.177
 21
53.882
  0
LINE
  8
0
 10
183.1
 11
183.466
 20
53.882
 21
53.538
  0
LINE
  8
0
 10
183.466
 11
183.786
 20
53.538
 21
53.151
  0
LINE
  8
0
 10
183.786
 11
184.055
 20
53.151
 21
52.727
  0
LINE
  8
0
 10
184.055
 11
184.269
 20
52.727
 21
52.272
  0
LINE
  8
0
 10
184.269
 11
184.424
 20
52.272
 21
51.795
  0
LINE
  8
0
 10
184.424
 11
184.518
 20
51.795
 21
51.301
  0
LINE
  8
0
 10
184.518
 11
184.55
 20
51.301
 21
50.8
  0
LINE
  8
0
 10
184.55
 11
184.518
 20
50.8
 21
50.299
  0
LINE
  8
0
 10
184.518
 11
184.424
 20
50.299
 21
49.805
  0
LINE
  8
0
 10
184.424
 11
184.269
 20
49.805
 21
49.328
  0
LINE
  8
0
 10
184.269
 11
184.055
 20
49.328
 21
48.873
  0
LINE
  8
0
 10
184.055
 11
183.786
 20
48.873
 21
48.449
  0
LINE
  8
0
 10
183.786
 11
183.466
 20
48.449
 21
48.062
  0
LINE
  8
0
 10
183.466
 11
183.1
 20
48.062
 21
47.718
  0
LINE
  8
0
 10
183.1
 11
182.693
 20
47.718
 21
47.423
  0
LINE
  8
0
 10
182.693
 11
182.253
 20
47.423
 21
47.181
  0
LINE
  8
0
 10
182.253
 11
181.786
 20
47.181
 21
46.996
  0
LINE
  8
0
 10
181.786
 11
181.3
 20
46.996
 21
46.871
  0
LINE
  8
0
 10
181.3
 11
180.801
 20
46.871
 21
46.808
  0
LINE
  8
0
 10
180.801
 11
180.299
 20
46.808
 21
46.808
  0
LINE
  8
0
 10
180.299
 11
179.8
 20
46.808
 21
46.871
  0
LINE
  8
0
 10
179.8
 11
179.314
 20
46.871
 21
46.996
  0
LINE
  8
0
 10
179.314
 11
178.847
 20
46.996
 21
47.181
  0
LINE
  8
0
 10
178.847
 11
178.407
 20
47.181
 21
47.423
  0
LINE
  8
0
 10
178.407
 11
178
 20
47.423
 21
47.718
  0
LINE
  8
0
 10
178
 11
177.634
 20
47.718
 21
48.062
  0
LINE
  8
0
 10
177.634
 11
177.314
 20
48.062
 21
48.449
  0
LINE
  8
0
 10
177.314
 11
177.045
 20
48.449
 21
48.873
  0
LINE
  8
0
 10
177.045
 11
176.831
 20
48.873
 21
49.328
  0
LINE
  8
0
 10
176.831
 11
176.676
 20
49.328
 21
49.805
  0
LINE
  8
0
 10
176.676
 11
176.582
 20
49.805
 21
50.299
  0
LINE
  8
0
 10
176.582
 11
176.55
 20
50.299
 21
50.8
  0
LINE
  8
0
 10
179.42
 11
179.429
 20
-57.15
 21
-57.008
  0
LINE
  8
0
 10
179.429
 11
179.455
 20
-57.008
 21
-56.869
  0
LINE
  8
0
 10
179.455
 11
179.499
 20
-56.869
 21
-56.734
  0
LINE
  8
0
 10
179.499
 11
179.56
 20
-56.734
 21
-56.605
  0
LINE
  8
0
 10
179.56
 11
179.636
 20
-56.605
 21
-56.486
  0
LINE
  8
0
 10
179.636
 11
179.726
 20
-56.486
 21
-56.376
  0
LINE
  8
0
 10
179.726
 11
179.83
 20
-56.376
 21
-56.279
  0
LINE
  8
0
 10
179.83
 11
179.944
 20
-56.279
 21
-56.196
  0
LINE
  8
0
 10
179.944
 11
180.069
 20
-56.196
 21
-56.127
  0
LINE
  8
0
 10
180.069
 11
180.201
 20
-56.127
 21
-56.075
  0
LINE
  8
0
 10
180.201
 11
180.338
 20
-56.075
 21
-56.04
  0
LINE
  8
0
 10
180.338
 11
180.479
 20
-56.04
 21
-56.022
  0
LINE
  8
0
 10
180.479
 11
180.621
 20
-56.022
 21
-56.022
  0
LINE
  8
0
 10
180.621
 11
180.762
 20
-56.022
 21
-56.04
  0
LINE
  8
0
 10
180.762
 11
180.899
 20
-56.04
 21
-56.075
  0
LINE
  8
0
 10
180.899
 11
181.031
 20
-56.075
 21
-56.127
  0
LINE
  8
0
 10
181.031
 11
181.156
 20
-56.127
 21
-56.196
  0
LINE
  8
0
 10
181.156
 11
181.27
 20
-56.196
 21
-56.279
  0
LINE
  8
0
 10
181.27
 11
181.374
 20
-56.279
 21
-56.376
  0
LINE
  8
0
 10
181.374
 11
181.464
 20
-56.376
 21
-56.486
  0
LINE
  8
0
 10
181.464
 11
181.54
 20
-56.486
 21
-56.605
  0
LINE
  8
0
 10
181.54
 11
181.601
 20
-56.605
 21
-56.734
  0
LINE
  8
0
 10
181.601
 11
181.645
 20
-56.734
 21
-56.869
  0
LINE
  8
0
 10
181.645
 11
181.671
 20
-56.869
 21
-57.008
  0
LINE
  8
0
 10
181.671
 11
181.68
 20
-57.008
 21
-57.15
  0
LINE
  8
0
 10
181.68
 11
181.671
 20
-57.15
 21
-57.292
  0
LINE
  8
0
 10
181.671
 11
181.645
 20
-57.292
 21
-57.431
  0
LINE
  8
0
 10
181.645
 11
181.601
 20
-57.431
 21
-57.566
  0
LINE
  8
0
 10
181.601
 11
181.54
 20
-57.566
 21
-57.695
  0
LINE
  8
0
 10
181.54
 11
181.464
 20
-57.695
 21
-57.814
  0
LINE
  8
0
 10
181.464
 11
181.374
 20
-57.814
 21
-57.924
  0
LINE
  8
0
 10
181.374
 11
181.27
 20
-57.924
 21
-58.021
  0
LINE
  8
0
 10
181.27
 11
181.156
 20
-58.021
 21
-58.104
  0
LINE
  8
0
 10
181.156
 11
181.031
 20
-58.104
 21
-58.173
  0
LINE
  8
0
 10
181.031
 11
180.899
 20
-58.173
 21
-58.225
  0
LINE
  8
0
 10
180.899
 11
180.762
 20
-58.225
 21
-58.26
  0
LINE
  8
0
 10
180.762
 11
180.621
 20
-58.26
 21
-58.278
  0
LINE
  8
0
 10
180.621
 11
180.479
 20
-58.278
 21
-58.278
  0
LINE
  8
0
 10
180.479
 11
180.338
 20
-58.278
 21
-58.26
  0
LINE
  8
0
 10
180.338
 11
180.201
 20
-58.26
 21
-58.225
  0
LINE
  8
0
 10
180.201
 11
180.069
 20
-58.225
 21
-58.173
  0
LINE
  8
0
 10
180.069
 11
179.944
 20
-58.173
 21
-58.104
  0
LINE
  8
0
 10
179.944
 11
179.83
 20
-58.104
 21
-58.021
  0
LINE
  8
0
 10
179.83
 11
179.726
 20
-58.021
 21
-57.924
  0
LINE
  8
0
 10
179.726
 11
179.636
 20
-57.924
 21
-57.814
  0
LINE
  8
0
 10
179.636
 11
179.56
 20
-57.814
 21
-57.695
  0
LINE
  8
0
 10
179.56
 11
179.499
 20
-57.695
 21
-57.566
  0
LINE
  8
0
 10
179.499
 11
179.455
 20
-57.566
 21
-57.431
  0
LINE
  8
0
 10
179.455
 11
179.429
 20
-57.431
 21
-57.292
  0
LINE
  8
0
 10
179.429
 11
179.42
 20
-57.292
 21
-57.15
  0
LINE
  8
0
 10
179.42
 11
179.429
 20
-12.7
 21
-12.558
  0
LINE
  8
0
 10
179.429
 11
179.455
 20
-12.558
 21
-12.419
  0
LINE
  8
0
 10
179.455
 11
179.499
 20
-12.419
 21
-12.284
  0
LINE
  8
0
 10
179.499
 11
179.56
 20
-12.284
 21
-12.155
  0
LINE
  8
0
 10
179.56
 11
179.636
 20
-12.155
 21
-12.036
  0
LINE
  8
0
 10
179.636
 11
179.726
 20
-12.036
 21
-11.926
  0
LINE
  8
0
 10
179.726
 11
179.83
 20
-11.926
 21
-11.829
  0
LINE
  8
0
 10
179.83
 11
179.944
 20
-11.829
 21
-11.746
  0
LINE
  8
0
 10
179.944
 11
180.069
 20
-11.746
 21
-11.677
  0
LINE
  8
0
 10
180.069
 11
180.201
 20
-11.677
 21
-11.625
  0
LINE
  8
0
 10
180.201
 11
180.338
 20
-11.625
 21
-11.59
  0
LINE
  8
0
 10
180.338
 11
180.479
 20
-11.59
 21
-11.572
  0
LINE
  8
0
 10
180.479
 11
180.621
 20
-11.572
 21
-11.572
  0
LINE
  8
0
 10
180.621
 11
180.762
 20
-11.572
 21
-11.59
  0
LINE
  8
0
 10
180.762
 11
180.899
 20
-11.59
 21
-11.625
  0
LINE
  8
0
 10
180.899
 11
181.031
 20
-11.625
 21
-11.677
  0
LINE
  8
0
 10
181.031
 11
181.156
 20
-11.677
 21
-11.746
  0
LINE
  8
0
 10
181.156
 11
181.27
 20
-11.746
 21
-11.829
  0
LINE
  8
0
 10
181.27
 11
181.374
 20
-11.829
 21
-11.926
  0
LINE
  8
0
 10
181.374
 11
181.464
 20
-11.926
 21
-12.036
  0
LINE
  8
0
 10
181.464
 11
181.54
 20
-12.036
 21
-12.155
  0
LINE
  8
0
 10
181.54
 11
181.601
 20
-12.155
 21
-12.284
  0
LINE
  8
0
 10
181.601
 11
181.645
 20
-12.284
 21
-12.419
  0
LINE
  8
0
 10
181.645
 11
181.671
 20
-12.419
 21
-12.558
  0
LINE
  8
0
 10
181.671
 11
181.68
 20
-12.558
 21
-12.7
  0
LINE
  8
0
 10
181.68
 11
181.671
 20
-12.7
 21
-12.842
  0
LINE
  8
0
 10
181.671
 11
181.645
 20
-12.842
 21
-12.981
  0
LINE
  8
0
 10
181.645
 11
181.601
 20
-12.981
 21
-13.116
  0
LINE
  8
0
 10
181.601
 11
181.54
 20
-13.116
 21
-13.245
  0
LINE
  8
0
 10
181.54
 11
181.464
 20
-13.245
 21
-13.364
  0
LINE
  8
0
 10
181.464
 11
181.374
 20
-13.364
 21
-13.474
  0
LINE
  8
0
 10
181.374
 11
181.27
 20
-13.474
 21
-13.571
  0
LINE
  8
0
 10
181.27
 11
181.156
 20
-13.571
 21
-13.654
  0
LINE
  8
0
 10
181.156
 11
181.031
 20
-13.654
 21
-13.723
  0
LINE
  8
0
 10
181.031
 11
180.899
 20
-13.723
 21
-13.775
  0
LINE
  8
0
 10
180.899
 11
180.762
 20
-13.775
 21
-13.81
  0
LINE
  8
0
 10
180.762
 11
180.621
 20
-13.81
 21
-13.828
  0
LINE
  8
0
 10
180.621
 11
180.479
 20
-13.828
 21
-13.828
  0
LINE
  8
0
 10
180.479
 11
180.338
 20
-13.828
 21
-13.81
  0
LINE
  8
0
 10
180.338
 11
180.201
 20
-13.81
 21
-13.775
  0
LINE
  8
0
 10
180.201
 11
180.069
 20
-13.775
 21
-13.723
  0
LINE
  8
0
 10
180.069
 11
179.944
 20
-13.723
 21
-13.654
  0
LINE
  8
0
 10
179.944
 11
179.83
 20
-13.654
 21
-13.571
  0
LINE
  8
0
 10
179.83
 11
179.726
 20
-13.571
 21
-13.474
  0
LINE
  8
0
 10
179.726
 11
179.636
 20
-13.474
 21
-13.364
  0
LINE
  8
0
 10
179.636
 11
179.56
 20
-13.364
 21
-13.245
  0
LINE
  8
0
 10
179.56
 11
179.499
 20
-13.245
 21
-13.116
  0
LINE
  8
0
 10
179.499
 11
179.455
 20
-13.116
 21
-12.981
  0
LINE
  8
0
 10
179.455
 11
179.429
 20
-12.981
 21
-12.842
  0
LINE
  8
0
 10
179.429
 11
179.42
 20
-12.842
 21
-12.7
  0
LINE
  8
0
 10
179.42
 11
179.429
 20
12.7
 21
12.842
  0
LINE
  8
0
 10
179.429
 11
179.455
 20
12.842
 21
12.981
  0
LINE
  8
0
 10
179.455
 11
179.499
 20
12.981
 21
13.116
  0
LINE
  8
0
 10
179.499
 11
179.56
 20
13.116
 21
13.245
  0
LINE
  8
0
 10
179.56
 11
179.636
 20
13.245
 21
13.364
  0
LINE
  8
0
 10
179.636
 11
179.726
 20
13.364
 21
13.474
  0
LINE
  8
0
 10
179.726
 11
179.83
 20
13.474
 21
13.571
  0
LINE
  8
0
 10
179.83
 11
179.944
 20
13.571
 21
13.654
  0
LINE
  8
0
 10
179.944
 11
180.069
 20
13.654
 21
13.723
  0
LINE
  8
0
 10
180.069
 11
180.201
 20
13.723
 21
13.775
  0
LINE
  8
0
 10
180.201
 11
180.338
 20
13.775
 21
13.81
  0
LINE
  8
0
 10
180.338
 11
180.479
 20
13.81
 21
13.828
  0
LINE
  8
0
 10
180.479
 11
180.621
 20
13.828
 21
13.828
  0
LINE
  8
0
 10
180.621
 11
180.762
 20
13.828
 21
13.81
  0
LINE
  8
0
 10
180.762
 11
180.899
 20
13.81
 21
13.775
  0
LINE
  8
0
 10
180.899
 11
181.031
 20
13.775
 21
13.723
  0
LINE
  8
0
 10
181.031
 11
181.156
 20
13.723
 21
13.654
  0
LINE
  8
0
 10
181.156
 11
181.27
 20
13.654
 21
13.571
  0
LINE
  8
0
 10
181.27
 11
181.374
 20
13.571
 21
13.474
  0
LINE
  8
0
 10
181.374
 11
181.464
 20
13.474
 21
13.364
  0
LINE
  8
0
 10
181.464
 11
181.54
 20
13.364
 21
13.245
  0
LINE
  8
0
 10
181.54
 11
181.601
 20
13.245
 21
13.116
  0
LINE
  8
0
 10
181.601
 11
181.645
 20
13.116
 21
12.981
  0
LINE
  8
0
 10
181.645
 11
181.671
 20
12.981
 21
12.842
  0
LINE
  8
0
 10
181.671
 11
181.68
 20
12.842
 21
12.7
  0
LINE
  8
0
 10
181.68
 11
181.671
 20
12.7
 21
12.558
  0
LINE
  8
0
 10
181.671
 11
181.645
 20
12.558
 21
12.419
  0
LINE
  8
0
 10
181.645
 11
181.601
 20
12.419
 21
12.284
  0
LINE
  8
0
 10
181.601
 11
181.54
 20
12.284
 21
12.155
  0
LINE
  8
0
 10
181.54
 11
181.464
 20
12.155
 21
12.036
  0
LINE
  8
0
 10
181.464
 11
181.374
 20
12.036
 21
11.926
  0
LINE
  8
0
 10
181.374
 11
181.27
 20
11.926
 21
11.829
  0
LINE
  8
0
 10
181.27
 11
181.156
 20
11.829
 21
11.746
  0
LINE
  8
0
 10
181.156
 11
181.031
 20
11.746
 21
11.677
  0
LINE
  8
0
 10
181.031
 11
180.899
 20
11.677
 21
11.625
  0
LINE
  8
0
 10
180.899
 11
180.762
 20
11.625
 21
11.59
  0
LINE
  8
0
 10
180.762
 11
180.621
 20
11.59
 21
11.572
  0
LINE
  8
0
 10
180.621
 11
180.479
 20
11.572
 21
11.572
  0
LINE
  8
0
 10
180.479
 11
180.338
 20
11.572
 21
11.59
  0
LINE
  8
0
 10
180.338
 11
180.201
 20
11.59
 21
11.625
  0
LINE
  8
0
 10
180.201
 11
180.069
 20
11.625
 21
11.677
  0
LINE
  8
0
 10
180.069
 11
179.944
 20
11.677
 21
11.746
  0
LINE
  8
0
 10
179.944
 11
179.83
 20
11.746
 21
11.829
  0
LINE
  8
0
 10
179.83
 11
179.726
 20
11.829
 21
11.926
  0
LINE
  8
0
 10
179.726
 11
179.636
 20
11.926
 21
12.036
  0
LINE
  8
0
 10
179.636
 11
179.56
 20
12.036
 21
12.155
  0
LINE
  8
0
 10
179.56
 11
179.499
 20
12.155
 21
12.284
  0
LINE
  8
0
 10
179.499
 11
179.455
 20
12.284
 21
12.419
  0
LINE
  8
0
 10
179.455
 11
179.429
 20
12.419
 21
12.558
  0
LINE
  8
0
 10
179.429
 11
179.42
 20
12.558
 21
12.7
  0
LINE
  8
0
 10
179.42
 11
179.429
 20
57.15
 21
57.292
  0
LINE
  8
0
 10
179.429
 11
179.455
 20
57.292
 21
57.431
  0
LINE
  8
0
 10
179.455
 11
179.499
 20
57.431
 21
57.566
  0
LINE
  8
0
 10
179.499
 11
179.56
 20
57.566
 21
57.695
  0
LINE
  8
0
 10
179.56
 11
179.636
 20
57.695
 21
57.814
  0
LINE
  8
0
 10
179.636
 11
179.726
 20
57.814
 21
57.924
  0
LINE
  8
0
 10
179.726
 11
179.83
 20
57.924
 21
58.021
  0
LINE
  8
0
 10
179.83
 11
179.944
 20
58.021
 21
58.104
  0
LINE
  8
0
 10
179.944
 11
180.069
 20
58.104
 21
58.173
  0
LINE
  8
0
 10
180.069
 11
180.201
 20
58.173
 21
58.225
  0
LINE
  8
0
 10
180.201
 11
180.338
 20
58.225
 21
58.26
  0
LINE
  8
0
 10
180.338
 11
180.479
 20
58.26
 21
58.278
  0
LINE
  8
0
 10
180.479
 11
180.621
 20
58.278
 21
58.278
  0
LINE
  8
0
 10
180.621
 11
180.762
 20
58.278
 21
58.26
  0
LINE
  8
0
 10
180.762
 11
180.899
 20
58.26
 21
58.225
  0
LINE
  8
0
 10
180.899
 11
181.031
 20
58.225
 21
58.173
  0
LINE
  8
0
 10
181.031
 11
181.156
 20
58.173
 21
58.104
  0
LINE
  8
0
 10
181.156
 11
181.27
 20
58.104
 21
58.021
  0
LINE
  8
0
 10
181.27
 11
181.374
 20
58.021
 21
57.924
  0
LINE
  8
0
 10
181.374
 11
181.464
 20
57.924
 21
57.814
  0
LINE
  8
0
 10
181.464
 11
181.54
 20
57.814
 21
57.695
  0
LINE
  8
0
 10
181.54
 11
181.601
 20
57.695
 21
57.566
  0
LINE
  8
0
 10
181.601
 11
181.645
 20
57.566
 21
57.431
  0
LINE
  8
0
 10
181.645
 11
181.671
 20
57.431
 21
57.292
  0
LINE
  8
0
 10
181.671
 11
181.68
 20
57.292
 21
57.15
  0
LINE
  8
0
 10
181.68
 11
181.671
 20
57.15
 21
57.008
  0
LINE
  8
0
 10
181.671
 11
181.645
 20
57.008
 21
56.869
  0
LINE
  8
0
 10
181.645
 11
181.601
 20
56.869
 21
56.734
  0
LINE
  8
0
 10
181.601
 11
181.54
 20
56.734
 21
56.605
  0
LINE
  8
0
 10
181.54
 11
181.464
 20
56.605
 21
56.486
  0
LINE
  8
0
 10
181.464
 11
181.374
 20
56.486
 21
56.376
  0
LINE
  8
0
 10
181.374
 11
181.27
 20
56.376
 21
56.279
  0
LINE
  8
0
 10
181.27
 11
181.156
 20
56.279
 21
56.196
  0
LINE
  8
0
 10
181.156
 11
181.031
 20
56.196
 21
56.127
  0
LINE
  8
0
 10
181.031
 11
180.899
 20
56.127
 21
56.075
  0
LINE
  8
0
 10
180.899
 11
180.762
 20
56.075
 21
56.04
  0
LINE
  8
0
 10
180.762
 11
180.621
 20
56.04
 21
56.022
  0
LINE
  8
0
 10
180.621
 11
180.479
 20
56.022
 21
56.022
  0
LINE
  8
0
 10
180.479
 11
180.338
 20
56.022
 21
56.04
  0
LINE
  8
0
 10
180.338
 11
180.201
 20
56.04
 21
56.075
  0
LINE
  8
0
 10
180.201
 11
180.069
 20
56.075
 21
56.127
  0
LINE
  8
0
 10
180.069
 11
179.944
 20
56.127
 21
56.196
  0
LINE
  8
0
 10
179.944
 11
179.83
 20
56.196
 21
56.279
  0
LINE
  8
0
 10
179.83
 11
179.726
 20
56.279
 21
56.376
  0
LINE
  8
0
 10
179.726
 11
179.636
 20
56.376
 21
56.486
  0
LINE
  8
0
 10
179.636
 11
179.56
 20
56.486
 21
56.605
  0
LINE
  8
0
 10
179.56
 11
179.499
 20
56.605
 21
56.734
  0
LINE
  8
0
 10
179.499
 11
179.455
 20
56.734
 21
56.869
  0
LINE
  8
0
 10
179.455
 11
179.429
 20
56.869
 21
57.008
  0
LINE
  8
0
 10
179.429
 11
179.42
 20
57.008
 21
57.15
  0
ENDSEC
  0
SECTION
  2
OBJECTS
  0
DICTIONARY
  0
ENDSEC
  0
EOF
