  0
SECTION
  2
BLOCKS
  0
ENDSEC
  0
SECTION
  2
ENTITIES
  0
LINE
  8
0
 10
173.05
 11
173.05
 20
-63.5
 21
63.5
  0
LINE
  8
0
 10
173.05
 11
182.05
 20
63.5
 21
63.5
  0
LINE
  8
0
 10
182.05
 11
182.05
 20
63.5
 21
-63.5
  0
LINE
  8
0
 10
182.05
 11
173.05
 20
-63.5
 21
-63.5
  0
LINE
  8
0
 10
174.55
 11
174.574
 20
-50.8
 21
-50.424
  0
LINE
  8
0
 10
174.574
 11
174.644
 20
-50.424
 21
-50.054
  0
LINE
  8
0
 10
174.644
 11
174.761
 20
-50.054
 21
-49.696
  0
LINE
  8
0
 10
174.761
 11
174.921
 20
-49.696
 21
-49.355
  0
LINE
  8
0
 10
174.921
 11
175.123
 20
-49.355
 21
-49.037
  0
LINE
  8
0
 10
175.123
 11
175.363
 20
-49.037
 21
-48.746
  0
LINE
  8
0
 10
175.363
 11
175.638
 20
-48.746
 21
-48.488
  0
LINE
  8
0
 10
175.638
 11
175.943
 20
-48.488
 21
-48.267
  0
LINE
  8
0
 10
175.943
 11
176.273
 20
-48.267
 21
-48.086
  0
LINE
  8
0
 10
176.273
 11
176.623
 20
-48.086
 21
-47.947
  0
LINE
  8
0
 10
176.623
 11
176.988
 20
-47.947
 21
-47.853
  0
LINE
  8
0
 10
176.988
 11
177.362
 20
-47.853
 21
-47.806
  0
LINE
  8
0
 10
177.362
 11
177.738
 20
-47.806
 21
-47.806
  0
LINE
  8
0
 10
177.738
 11
178.112
 20
-47.806
 21
-47.853
  0
LINE
  8
0
 10
178.112
 11
178.477
 20
-47.853
 21
-47.947
  0
LINE
  8
0
 10
178.477
 11
178.827
 20
-47.947
 21
-48.086
  0
LINE
  8
0
 10
178.827
 11
179.157
 20
-48.086
 21
-48.267
  0
LINE
  8
0
 10
179.157
 11
179.462
 20
-48.267
 21
-48.488
  0
LINE
  8
0
 10
179.462
 11
179.737
 20
-48.488
 21
-48.746
  0
LINE
  8
0
 10
179.737
 11
179.977
 20
-48.746
 21
-49.037
  0
LINE
  8
0
 10
179.977
 11
180.179
 20
-49.037
 21
-49.355
  0
LINE
  8
0
 10
180.179
 11
180.339
 20
-49.355
 21
-49.696
  0
LINE
  8
0
 10
180.339
 11
180.456
 20
-49.696
 21
-50.054
  0
LINE
  8
0
 10
180.456
 11
180.526
 20
-50.054
 21
-50.424
  0
LINE
  8
0
 10
180.526
 11
180.55
 20
-50.424
 21
-50.8
  0
LINE
  8
0
 10
180.55
 11
180.526
 20
-50.8
 21
-51.176
  0
LINE
  8
0
 10
180.526
 11
180.456
 20
-51.176
 21
-51.546
  0
LINE
  8
0
 10
180.456
 11
180.339
 20
-51.546
 21
-51.904
  0
LINE
  8
0
 10
180.339
 11
180.179
 20
-51.904
 21
-52.245
  0
LINE
  8
0
 10
180.179
 11
179.977
 20
-52.245
 21
-52.563
  0
LINE
  8
0
 10
179.977
 11
179.737
 20
-52.563
 21
-52.854
  0
LINE
  8
0
 10
179.737
 11
179.462
 20
-52.854
 21
-53.112
  0
LINE
  8
0
 10
179.462
 11
179.157
 20
-53.112
 21
-53.333
  0
LINE
  8
0
 10
179.157
 11
178.827
 20
-53.333
 21
-53.514
  0
LINE
  8
0
 10
178.827
 11
178.477
 20
-53.514
 21
-53.653
  0
LINE
  8
0
 10
178.477
 11
178.112
 20
-53.653
 21
-53.747
  0
LINE
  8
0
 10
178.112
 11
177.738
 20
-53.747
 21
-53.794
  0
LINE
  8
0
 10
177.738
 11
177.362
 20
-53.794
 21
-53.794
  0
LINE
  8
0
 10
177.362
 11
176.988
 20
-53.794
 21
-53.747
  0
LINE
  8
0
 10
176.988
 11
176.623
 20
-53.747
 21
-53.653
  0
LINE
  8
0
 10
176.623
 11
176.273
 20
-53.653
 21
-53.514
  0
LINE
  8
0
 10
176.273
 11
175.943
 20
-53.514
 21
-53.333
  0
LINE
  8
0
 10
175.943
 11
175.638
 20
-53.333
 21
-53.112
  0
LINE
  8
0
 10
175.638
 11
175.363
 20
-53.112
 21
-52.854
  0
LINE
  8
0
 10
175.363
 11
175.123
 20
-52.854
 21
-52.563
  0
LINE
  8
0
 10
175.123
 11
174.921
 20
-52.563
 21
-52.245
  0
LINE
  8
0
 10
174.921
 11
174.761
 20
-52.245
 21
-51.904
  0
LINE
  8
0
 10
174.761
 11
174.644
 20
-51.904
 21
-51.546
  0
LINE
  8
0
 10
174.644
 11
174.574
 20
-51.546
 21
-51.176
  0
LINE
  8
0
 10
174.574
 11
174.55
 20
-51.176
 21
-50.8
  0
LINE
  8
0
 10
174.55
 11
174.574
 20
-25.4
 21
-25.024
  0
LINE
  8
0
 10
174.574
 11
174.644
 20
-25.024
 21
-24.654
  0
LINE
  8
0
 10
174.644
 11
174.761
 20
-24.654
 21
-24.296
  0
LINE
  8
0
 10
174.761
 11
174.921
 20
-24.296
 21
-23.955
  0
LINE
  8
0
 10
174.921
 11
175.123
 20
-23.955
 21
-23.637
  0
LINE
  8
0
 10
175.123
 11
175.363
 20
-23.637
 21
-23.346
  0
LINE
  8
0
 10
175.363
 11
175.638
 20
-23.346
 21
-23.088
  0
LINE
  8
0
 10
175.638
 11
175.943
 20
-23.088
 21
-22.867
  0
LINE
  8
0
 10
175.943
 11
176.273
 20
-22.867
 21
-22.686
  0
LINE
  8
0
 10
176.273
 11
176.623
 20
-22.686
 21
-22.547
  0
LINE
  8
0
 10
176.623
 11
176.988
 20
-22.547
 21
-22.453
  0
LINE
  8
0
 10
176.988
 11
177.362
 20
-22.453
 21
-22.406
  0
LINE
  8
0
 10
177.362
 11
177.738
 20
-22.406
 21
-22.406
  0
LINE
  8
0
 10
177.738
 11
178.112
 20
-22.406
 21
-22.453
  0
LINE
  8
0
 10
178.112
 11
178.477
 20
-22.453
 21
-22.547
  0
LINE
  8
0
 10
178.477
 11
178.827
 20
-22.547
 21
-22.686
  0
LINE
  8
0
 10
178.827
 11
179.157
 20
-22.686
 21
-22.867
  0
LINE
  8
0
 10
179.157
 11
179.462
 20
-22.867
 21
-23.088
  0
LINE
  8
0
 10
179.462
 11
179.737
 20
-23.088
 21
-23.346
  0
LINE
  8
0
 10
179.737
 11
179.977
 20
-23.346
 21
-23.637
  0
LINE
  8
0
 10
179.977
 11
180.179
 20
-23.637
 21
-23.955
  0
LINE
  8
0
 10
180.179
 11
180.339
 20
-23.955
 21
-24.296
  0
LINE
  8
0
 10
180.339
 11
180.456
 20
-24.296
 21
-24.654
  0
LINE
  8
0
 10
180.456
 11
180.526
 20
-24.654
 21
-25.024
  0
LINE
  8
0
 10
180.526
 11
180.55
 20
-25.024
 21
-25.4
  0
LINE
  8
0
 10
180.55
 11
180.526
 20
-25.4
 21
-25.776
  0
LINE
  8
0
 10
180.526
 11
180.456
 20
-25.776
 21
-26.146
  0
LINE
  8
0
 10
180.456
 11
180.339
 20
-26.146
 21
-26.504
  0
LINE
  8
0
 10
180.339
 11
180.179
 20
-26.504
 21
-26.845
  0
LINE
  8
0
 10
180.179
 11
179.977
 20
-26.845
 21
-27.163
  0
LINE
  8
0
 10
179.977
 11
179.737
 20
-27.163
 21
-27.454
  0
LINE
  8
0
 10
179.737
 11
179.462
 20
-27.454
 21
-27.712
  0
LINE
  8
0
 10
179.462
 11
179.157
 20
-27.712
 21
-27.933
  0
LINE
  8
0
 10
179.157
 11
178.827
 20
-27.933
 21
-28.114
  0
LINE
  8
0
 10
178.827
 11
178.477
 20
-28.114
 21
-28.253
  0
LINE
  8
0
 10
178.477
 11
178.112
 20
-28.253
 21
-28.347
  0
LINE
  8
0
 10
178.112
 11
177.738
 20
-28.347
 21
-28.394
  0
LINE
  8
0
 10
177.738
 11
177.362
 20
-28.394
 21
-28.394
  0
LINE
  8
0
 10
177.362
 11
176.988
 20
-28.394
 21
-28.347
  0
LINE
  8
0
 10
176.988
 11
176.623
 20
-28.347
 21
-28.253
  0
LINE
  8
0
 10
176.623
 11
176.273
 20
-28.253
 21
-28.114
  0
LINE
  8
0
 10
176.273
 11
175.943
 20
-28.114
 21
-27.933
  0
LINE
  8
0
 10
175.943
 11
175.638
 20
-27.933
 21
-27.712
  0
LINE
  8
0
 10
175.638
 11
175.363
 20
-27.712
 21
-27.454
  0
LINE
  8
0
 10
175.363
 11
175.123
 20
-27.454
 21
-27.163
  0
LINE
  8
0
 10
175.123
 11
174.921
 20
-27.163
 21
-26.845
  0
LINE
  8
0
 10
174.921
 11
174.761
 20
-26.845
 21
-26.504
  0
LINE
  8
0
 10
174.761
 11
174.644
 20
-26.504
 21
-26.146
  0
LINE
  8
0
 10
174.644
 11
174.574
 20
-26.146
 21
-25.776
  0
LINE
  8
0
 10
174.574
 11
174.55
 20
-25.776
 21
-25.4
  0
LINE
  8
0
 10
174.55
 11
174.574
 20
0
 21
0.376
  0
LINE
  8
0
 10
174.574
 11
174.644
 20
0.376
 21
0.746
  0
LINE
  8
0
 10
174.644
 11
174.761
 20
0.746
 21
1.104
  0
LINE
  8
0
 10
174.761
 11
174.921
 20
1.104
 21
1.445
  0
LINE
  8
0
 10
174.921
 11
175.123
 20
1.445
 21
1.763
  0
LINE
  8
0
 10
175.123
 11
175.363
 20
1.763
 21
2.054
  0
LINE
  8
0
 10
175.363
 11
175.638
 20
2.054
 21
2.312
  0
LINE
  8
0
 10
175.638
 11
175.943
 20
2.312
 21
2.533
  0
LINE
  8
0
 10
175.943
 11
176.273
 20
2.533
 21
2.714
  0
LINE
  8
0
 10
176.273
 11
176.623
 20
2.714
 21
2.853
  0
LINE
  8
0
 10
176.623
 11
176.988
 20
2.853
 21
2.947
  0
LINE
  8
0
 10
176.988
 11
177.362
 20
2.947
 21
2.994
  0
LINE
  8
0
 10
177.362
 11
177.738
 20
2.994
 21
2.994
  0
LINE
  8
0
 10
177.738
 11
178.112
 20
2.994
 21
2.947
  0
LINE
  8
0
 10
178.112
 11
178.477
 20
2.947
 21
2.853
  0
LINE
  8
0
 10
178.477
 11
178.827
 20
2.853
 21
2.714
  0
LINE
  8
0
 10
178.827
 11
179.157
 20
2.714
 21
2.533
  0
LINE
  8
0
 10
179.157
 11
179.462
 20
2.533
 21
2.312
  0
LINE
  8
0
 10
179.462
 11
179.737
 20
2.312
 21
2.054
  0
LINE
  8
0
 10
179.737
 11
179.977
 20
2.054
 21
1.763
  0
LINE
  8
0
 10
179.977
 11
180.179
 20
1.763
 21
1.445
  0
LINE
  8
0
 10
180.179
 11
180.339
 20
1.445
 21
1.104
  0
LINE
  8
0
 10
180.339
 11
180.456
 20
1.104
 21
0.746
  0
LINE
  8
0
 10
180.456
 11
180.526
 20
0.746
 21
0.376
  0
LINE
  8
0
 10
180.526
 11
180.55
 20
0.376
 21
0
  0
LINE
  8
0
 10
180.55
 11
180.526
 20
0
 21
-0.376
  0
LINE
  8
0
 10
180.526
 11
180.456
 20
-0.376
 21
-0.746
  0
LINE
  8
0
 10
180.456
 11
180.339
 20
-0.746
 21
-1.104
  0
LINE
  8
0
 10
180.339
 11
180.179
 20
-1.104
 21
-1.445
  0
LINE
  8
0
 10
180.179
 11
179.977
 20
-1.445
 21
-1.763
  0
LINE
  8
0
 10
179.977
 11
179.737
 20
-1.763
 21
-2.054
  0
LINE
  8
0
 10
179.737
 11
179.462
 20
-2.054
 21
-2.312
  0
LINE
  8
0
 10
179.462
 11
179.157
 20
-2.312
 21
-2.533
  0
LINE
  8
0
 10
179.157
 11
178.827
 20
-2.533
 21
-2.714
  0
LINE
  8
0
 10
178.827
 11
178.477
 20
-2.714
 21
-2.853
  0
LINE
  8
0
 10
178.477
 11
178.112
 20
-2.853
 21
-2.947
  0
LINE
  8
0
 10
178.112
 11
177.738
 20
-2.947
 21
-2.994
  0
LINE
  8
0
 10
177.738
 11
177.362
 20
-2.994
 21
-2.994
  0
LINE
  8
0
 10
177.362
 11
176.988
 20
-2.994
 21
-2.947
  0
LINE
  8
0
 10
176.988
 11
176.623
 20
-2.947
 21
-2.853
  0
LINE
  8
0
 10
176.623
 11
176.273
 20
-2.853
 21
-2.714
  0
LINE
  8
0
 10
176.273
 11
175.943
 20
-2.714
 21
-2.533
  0
LINE
  8
0
 10
175.943
 11
175.638
 20
-2.533
 21
-2.312
  0
LINE
  8
0
 10
175.638
 11
175.363
 20
-2.312
 21
-2.054
  0
LINE
  8
0
 10
175.363
 11
175.123
 20
-2.054
 21
-1.763
  0
LINE
  8
0
 10
175.123
 11
174.921
 20
-1.763
 21
-1.445
  0
LINE
  8
0
 10
174.921
 11
174.761
 20
-1.445
 21
-1.104
  0
LINE
  8
0
 10
174.761
 11
174.644
 20
-1.104
 21
-0.746
  0
LINE
  8
0
 10
174.644
 11
174.574
 20
-0.746
 21
-0.376
  0
LINE
  8
0
 10
174.574
 11
174.55
 20
-0.376
 21
0
  0
LINE
  8
0
 10
174.55
 11
174.574
 20
25.4
 21
25.776
  0
LINE
  8
0
 10
174.574
 11
174.644
 20
25.776
 21
26.146
  0
LINE
  8
0
 10
174.644
 11
174.761
 20
26.146
 21
26.504
  0
LINE
  8
0
 10
174.761
 11
174.921
 20
26.504
 21
26.845
  0
LINE
  8
0
 10
174.921
 11
175.123
 20
26.845
 21
27.163
  0
LINE
  8
0
 10
175.123
 11
175.363
 20
27.163
 21
27.454
  0
LINE
  8
0
 10
175.363
 11
175.638
 20
27.454
 21
27.712
  0
LINE
  8
0
 10
175.638
 11
175.943
 20
27.712
 21
27.933
  0
LINE
  8
0
 10
175.943
 11
176.273
 20
27.933
 21
28.114
  0
LINE
  8
0
 10
176.273
 11
176.623
 20
28.114
 21
28.253
  0
LINE
  8
0
 10
176.623
 11
176.988
 20
28.253
 21
28.347
  0
LINE
  8
0
 10
176.988
 11
177.362
 20
28.347
 21
28.394
  0
LINE
  8
0
 10
177.362
 11
177.738
 20
28.394
 21
28.394
  0
LINE
  8
0
 10
177.738
 11
178.112
 20
28.394
 21
28.347
  0
LINE
  8
0
 10
178.112
 11
178.477
 20
28.347
 21
28.253
  0
LINE
  8
0
 10
178.477
 11
178.827
 20
28.253
 21
28.114
  0
LINE
  8
0
 10
178.827
 11
179.157
 20
28.114
 21
27.933
  0
LINE
  8
0
 10
179.157
 11
179.462
 20
27.933
 21
27.712
  0
LINE
  8
0
 10
179.462
 11
179.737
 20
27.712
 21
27.454
  0
LINE
  8
0
 10
179.737
 11
179.977
 20
27.454
 21
27.163
  0
LINE
  8
0
 10
179.977
 11
180.179
 20
27.163
 21
26.845
  0
LINE
  8
0
 10
180.179
 11
180.339
 20
26.845
 21
26.504
  0
LINE
  8
0
 10
180.339
 11
180.456
 20
26.504
 21
26.146
  0
LINE
  8
0
 10
180.456
 11
180.526
 20
26.146
 21
25.776
  0
LINE
  8
0
 10
180.526
 11
180.55
 20
25.776
 21
25.4
  0
LINE
  8
0
 10
180.55
 11
180.526
 20
25.4
 21
25.024
  0
LINE
  8
0
 10
180.526
 11
180.456
 20
25.024
 21
24.654
  0
LINE
  8
0
 10
180.456
 11
180.339
 20
24.654
 21
24.296
  0
LINE
  8
0
 10
180.339
 11
180.179
 20
24.296
 21
23.955
  0
LINE
  8
0
 10
180.179
 11
179.977
 20
23.955
 21
23.637
  0
LINE
  8
0
 10
179.977
 11
179.737
 20
23.637
 21
23.346
  0
LINE
  8
0
 10
179.737
 11
179.462
 20
23.346
 21
23.088
  0
LINE
  8
0
 10
179.462
 11
179.157
 20
23.088
 21
22.867
  0
LINE
  8
0
 10
179.157
 11
178.827
 20
22.867
 21
22.686
  0
LINE
  8
0
 10
178.827
 11
178.477
 20
22.686
 21
22.547
  0
LINE
  8
0
 10
178.477
 11
178.112
 20
22.547
 21
22.453
  0
LINE
  8
0
 10
178.112
 11
177.738
 20
22.453
 21
22.406
  0
LINE
  8
0
 10
177.738
 11
177.362
 20
22.406
 21
22.406
  0
LINE
  8
0
 10
177.362
 11
176.988
 20
22.406
 21
22.453
  0
LINE
  8
0
 10
176.988
 11
176.623
 20
22.453
 21
22.547
  0
LINE
  8
0
 10
176.623
 11
176.273
 20
22.547
 21
22.686
  0
LINE
  8
0
 10
176.273
 11
175.943
 20
22.686
 21
22.867
  0
LINE
  8
0
 10
175.943
 11
175.638
 20
22.867
 21
23.088
  0
LINE
  8
0
 10
175.638
 11
175.363
 20
23.088
 21
23.346
  0
LINE
  8
0
 10
175.363
 11
175.123
 20
23.346
 21
23.637
  0
LINE
  8
0
 10
175.123
 11
174.921
 20
23.637
 21
23.955
  0
LINE
  8
0
 10
174.921
 11
174.761
 20
23.955
 21
24.296
  0
LINE
  8
0
 10
174.761
 11
174.644
 20
24.296
 21
24.654
  0
LINE
  8
0
 10
174.644
 11
174.574
 20
24.654
 21
25.024
  0
LINE
  8
0
 10
174.574
 11
174.55
 20
25.024
 21
25.4
  0
LINE
  8
0
 10
174.55
 11
174.574
 20
50.8
 21
51.176
  0
LINE
  8
0
 10
174.574
 11
174.644
 20
51.176
 21
51.546
  0
LINE
  8
0
 10
174.644
 11
174.761
 20
51.546
 21
51.904
  0
LINE
  8
0
 10
174.761
 11
174.921
 20
51.904
 21
52.245
  0
LINE
  8
0
 10
174.921
 11
175.123
 20
52.245
 21
52.563
  0
LINE
  8
0
 10
175.123
 11
175.363
 20
52.563
 21
52.854
  0
LINE
  8
0
 10
175.363
 11
175.638
 20
52.854
 21
53.112
  0
LINE
  8
0
 10
175.638
 11
175.943
 20
53.112
 21
53.333
  0
LINE
  8
0
 10
175.943
 11
176.273
 20
53.333
 21
53.514
  0
LINE
  8
0
 10
176.273
 11
176.623
 20
53.514
 21
53.653
  0
LINE
  8
0
 10
176.623
 11
176.988
 20
53.653
 21
53.747
  0
LINE
  8
0
 10
176.988
 11
177.362
 20
53.747
 21
53.794
  0
LINE
  8
0
 10
177.362
 11
177.738
 20
53.794
 21
53.794
  0
LINE
  8
0
 10
177.738
 11
178.112
 20
53.794
 21
53.747
  0
LINE
  8
0
 10
178.112
 11
178.477
 20
53.747
 21
53.653
  0
LINE
  8
0
 10
178.477
 11
178.827
 20
53.653
 21
53.514
  0
LINE
  8
0
 10
178.827
 11
179.157
 20
53.514
 21
53.333
  0
LINE
  8
0
 10
179.157
 11
179.462
 20
53.333
 21
53.112
  0
LINE
  8
0
 10
179.462
 11
179.737
 20
53.112
 21
52.854
  0
LINE
  8
0
 10
179.737
 11
179.977
 20
52.854
 21
52.563
  0
LINE
  8
0
 10
179.977
 11
180.179
 20
52.563
 21
52.245
  0
LINE
  8
0
 10
180.179
 11
180.339
 20
52.245
 21
51.904
  0
LINE
  8
0
 10
180.339
 11
180.456
 20
51.904
 21
51.546
  0
LINE
  8
0
 10
180.456
 11
180.526
 20
51.546
 21
51.176
  0
LINE
  8
0
 10
180.526
 11
180.55
 20
51.176
 21
50.8
  0
LINE
  8
0
 10
180.55
 11
180.526
 20
50.8
 21
50.424
  0
LINE
  8
0
 10
180.526
 11
180.456
 20
50.424
 21
50.054
  0
LINE
  8
0
 10
180.456
 11
180.339
 20
50.054
 21
49.696
  0
LINE
  8
0
 10
180.339
 11
180.179
 20
49.696
 21
49.355
  0
LINE
  8
0
 10
180.179
 11
179.977
 20
49.355
 21
49.037
  0
LINE
  8
0
 10
179.977
 11
179.737
 20
49.037
 21
48.746
  0
LINE
  8
0
 10
179.737
 11
179.462
 20
48.746
 21
48.488
  0
LINE
  8
0
 10
179.462
 11
179.157
 20
48.488
 21
48.267
  0
LINE
  8
0
 10
179.157
 11
178.827
 20
48.267
 21
48.086
  0
LINE
  8
0
 10
178.827
 11
178.477
 20
48.086
 21
47.947
  0
LINE
  8
0
 10
178.477
 11
178.112
 20
47.947
 21
47.853
  0
LINE
  8
0
 10
178.112
 11
177.738
 20
47.853
 21
47.806
  0
LINE
  8
0
 10
177.738
 11
177.362
 20
47.806
 21
47.806
  0
LINE
  8
0
 10
177.362
 11
176.988
 20
47.806
 21
47.853
  0
LINE
  8
0
 10
176.988
 11
176.623
 20
47.853
 21
47.947
  0
LINE
  8
0
 10
176.623
 11
176.273
 20
47.947
 21
48.086
  0
LINE
  8
0
 10
176.273
 11
175.943
 20
48.086
 21
48.267
  0
LINE
  8
0
 10
175.943
 11
175.638
 20
48.267
 21
48.488
  0
LINE
  8
0
 10
175.638
 11
175.363
 20
48.488
 21
48.746
  0
LINE
  8
0
 10
175.363
 11
175.123
 20
48.746
 21
49.037
  0
LINE
  8
0
 10
175.123
 11
174.921
 20
49.037
 21
49.355
  0
LINE
  8
0
 10
174.921
 11
174.761
 20
49.355
 21
49.696
  0
LINE
  8
0
 10
174.761
 11
174.644
 20
49.696
 21
50.054
  0
LINE
  8
0
 10
174.644
 11
174.574
 20
50.054
 21
50.424
  0
LINE
  8
0
 10
174.574
 11
174.55
 20
50.424
 21
50.8
  0
LINE
  8
0
 10
176.661
 11
176.668
 20
-57.15
 21
-57.039
  0
LINE
  8
0
 10
176.668
 11
176.689
 20
-57.039
 21
-56.929
  0
LINE
  8
0
 10
176.689
 11
176.723
 20
-56.929
 21
-56.823
  0
LINE
  8
0
 10
176.723
 11
176.771
 20
-56.823
 21
-56.722
  0
LINE
  8
0
 10
176.771
 11
176.831
 20
-56.722
 21
-56.627
  0
LINE
  8
0
 10
176.831
 11
176.902
 20
-56.627
 21
-56.541
  0
LINE
  8
0
 10
176.902
 11
176.983
 20
-56.541
 21
-56.465
  0
LINE
  8
0
 10
176.983
 11
177.074
 20
-56.465
 21
-56.399
  0
LINE
  8
0
 10
177.074
 11
177.171
 20
-56.399
 21
-56.346
  0
LINE
  8
0
 10
177.171
 11
177.275
 20
-56.346
 21
-56.305
  0
LINE
  8
0
 10
177.275
 11
177.383
 20
-56.305
 21
-56.277
  0
LINE
  8
0
 10
177.383
 11
177.494
 20
-56.277
 21
-56.263
  0
LINE
  8
0
 10
177.494
 11
177.606
 20
-56.263
 21
-56.263
  0
LINE
  8
0
 10
177.606
 11
177.717
 20
-56.263
 21
-56.277
  0
LINE
  8
0
 10
177.717
 11
177.825
 20
-56.277
 21
-56.305
  0
LINE
  8
0
 10
177.825
 11
177.929
 20
-56.305
 21
-56.346
  0
LINE
  8
0
 10
177.929
 11
178.026
 20
-56.346
 21
-56.399
  0
LINE
  8
0
 10
178.026
 11
178.117
 20
-56.399
 21
-56.465
  0
LINE
  8
0
 10
178.117
 11
178.198
 20
-56.465
 21
-56.541
  0
LINE
  8
0
 10
178.198
 11
178.269
 20
-56.541
 21
-56.627
  0
LINE
  8
0
 10
178.269
 11
178.329
 20
-56.627
 21
-56.722
  0
LINE
  8
0
 10
178.329
 11
178.377
 20
-56.722
 21
-56.823
  0
LINE
  8
0
 10
178.377
 11
178.411
 20
-56.823
 21
-56.929
  0
LINE
  8
0
 10
178.411
 11
178.432
 20
-56.929
 21
-57.039
  0
LINE
  8
0
 10
178.432
 11
178.439
 20
-57.039
 21
-57.15
  0
LINE
  8
0
 10
178.439
 11
178.432
 20
-57.15
 21
-57.261
  0
LINE
  8
0
 10
178.432
 11
178.411
 20
-57.261
 21
-57.371
  0
LINE
  8
0
 10
178.411
 11
178.377
 20
-57.371
 21
-57.477
  0
LINE
  8
0
 10
178.377
 11
178.329
 20
-57.477
 21
-57.578
  0
LINE
  8
0
 10
178.329
 11
178.269
 20
-57.578
 21
-57.673
  0
LINE
  8
0
 10
178.269
 11
178.198
 20
-57.673
 21
-57.759
  0
LINE
  8
0
 10
178.198
 11
178.117
 20
-57.759
 21
-57.835
  0
LINE
  8
0
 10
178.117
 11
178.026
 20
-57.835
 21
-57.901
  0
LINE
  8
0
 10
178.026
 11
177.929
 20
-57.901
 21
-57.954
  0
LINE
  8
0
 10
177.929
 11
177.825
 20
-57.954
 21
-57.995
  0
LINE
  8
0
 10
177.825
 11
177.717
 20
-57.995
 21
-58.023
  0
LINE
  8
0
 10
177.717
 11
177.606
 20
-58.023
 21
-58.037
  0
LINE
  8
0
 10
177.606
 11
177.494
 20
-58.037
 21
-58.037
  0
LINE
  8
0
 10
177.494
 11
177.383
 20
-58.037
 21
-58.023
  0
LINE
  8
0
 10
177.383
 11
177.275
 20
-58.023
 21
-57.995
  0
LINE
  8
0
 10
177.275
 11
177.171
 20
-57.995
 21
-57.954
  0
LINE
  8
0
 10
177.171
 11
177.074
 20
-57.954
 21
-57.901
  0
LINE
  8
0
 10
177.074
 11
176.983
 20
-57.901
 21
-57.835
  0
LINE
  8
0
 10
176.983
 11
176.902
 20
-57.835
 21
-57.759
  0
LINE
  8
0
 10
176.902
 11
176.831
 20
-57.759
 21
-57.673
  0
LINE
  8
0
 10
176.831
 11
176.771
 20
-57.673
 21
-57.578
  0
LINE
  8
0
 10
176.771
 11
176.723
 20
-57.578
 21
-57.477
  0
LINE
  8
0
 10
176.723
 11
176.689
 20
-57.477
 21
-57.371
  0
LINE
  8
0
 10
176.689
 11
176.668
 20
-57.371
 21
-57.261
  0
LINE
  8
0
 10
176.668
 11
176.661
 20
-57.261
 21
-57.15
  0
LINE
  8
0
 10
176.661
 11
176.668
 20
-12.7
 21
-12.589
  0
LINE
  8
0
 10
176.668
 11
176.689
 20
-12.589
 21
-12.479
  0
LINE
  8
0
 10
176.689
 11
176.723
 20
-12.479
 21
-12.373
  0
LINE
  8
0
 10
176.723
 11
176.771
 20
-12.373
 21
-12.272
  0
LINE
  8
0
 10
176.771
 11
176.831
 20
-12.272
 21
-12.177
  0
LINE
  8
0
 10
176.831
 11
176.902
 20
-12.177
 21
-12.091
  0
LINE
  8
0
 10
176.902
 11
176.983
 20
-12.091
 21
-12.015
  0
LINE
  8
0
 10
176.983
 11
177.074
 20
-12.015
 21
-11.949
  0
LINE
  8
0
 10
177.074
 11
177.171
 20
-11.949
 21
-11.896
  0
LINE
  8
0
 10
177.171
 11
177.275
 20
-11.896
 21
-11.855
  0
LINE
  8
0
 10
177.275
 11
177.383
 20
-11.855
 21
-11.827
  0
LINE
  8
0
 10
177.383
 11
177.494
 20
-11.827
 21
-11.813
  0
LINE
  8
0
 10
177.494
 11
177.606
 20
-11.813
 21
-11.813
  0
LINE
  8
0
 10
177.606
 11
177.717
 20
-11.813
 21
-11.827
  0
LINE
  8
0
 10
177.717
 11
177.825
 20
-11.827
 21
-11.855
  0
LINE
  8
0
 10
177.825
 11
177.929
 20
-11.855
 21
-11.896
  0
LINE
  8
0
 10
177.929
 11
178.026
 20
-11.896
 21
-11.949
  0
LINE
  8
0
 10
178.026
 11
178.117
 20
-11.949
 21
-12.015
  0
LINE
  8
0
 10
178.117
 11
178.198
 20
-12.015
 21
-12.091
  0
LINE
  8
0
 10
178.198
 11
178.269
 20
-12.091
 21
-12.177
  0
LINE
  8
0
 10
178.269
 11
178.329
 20
-12.177
 21
-12.272
  0
LINE
  8
0
 10
178.329
 11
178.377
 20
-12.272
 21
-12.373
  0
LINE
  8
0
 10
178.377
 11
178.411
 20
-12.373
 21
-12.479
  0
LINE
  8
0
 10
178.411
 11
178.432
 20
-12.479
 21
-12.589
  0
LINE
  8
0
 10
178.432
 11
178.439
 20
-12.589
 21
-12.7
  0
LINE
  8
0
 10
178.439
 11
178.432
 20
-12.7
 21
-12.811
  0
LINE
  8
0
 10
178.432
 11
178.411
 20
-12.811
 21
-12.921
  0
LINE
  8
0
 10
178.411
 11
178.377
 20
-12.921
 21
-13.027
  0
LINE
  8
0
 10
178.377
 11
178.329
 20
-13.027
 21
-13.128
  0
LINE
  8
0
 10
178.329
 11
178.269
 20
-13.128
 21
-13.223
  0
LINE
  8
0
 10
178.269
 11
178.198
 20
-13.223
 21
-13.309
  0
LINE
  8
0
 10
178.198
 11
178.117
 20
-13.309
 21
-13.385
  0
LINE
  8
0
 10
178.117
 11
178.026
 20
-13.385
 21
-13.451
  0
LINE
  8
0
 10
178.026
 11
177.929
 20
-13.451
 21
-13.504
  0
LINE
  8
0
 10
177.929
 11
177.825
 20
-13.504
 21
-13.545
  0
LINE
  8
0
 10
177.825
 11
177.717
 20
-13.545
 21
-13.573
  0
LINE
  8
0
 10
177.717
 11
177.606
 20
-13.573
 21
-13.587
  0
LINE
  8
0
 10
177.606
 11
177.494
 20
-13.587
 21
-13.587
  0
LINE
  8
0
 10
177.494
 11
177.383
 20
-13.587
 21
-13.573
  0
LINE
  8
0
 10
177.383
 11
177.275
 20
-13.573
 21
-13.545
  0
LINE
  8
0
 10
177.275
 11
177.171
 20
-13.545
 21
-13.504
  0
LINE
  8
0
 10
177.171
 11
177.074
 20
-13.504
 21
-13.451
  0
LINE
  8
0
 10
177.074
 11
176.983
 20
-13.451
 21
-13.385
  0
LINE
  8
0
 10
176.983
 11
176.902
 20
-13.385
 21
-13.309
  0
LINE
  8
0
 10
176.902
 11
176.831
 20
-13.309
 21
-13.223
  0
LINE
  8
0
 10
176.831
 11
176.771
 20
-13.223
 21
-13.128
  0
LINE
  8
0
 10
176.771
 11
176.723
 20
-13.128
 21
-13.027
  0
LINE
  8
0
 10
176.723
 11
176.689
 20
-13.027
 21
-12.921
  0
LINE
  8
0
 10
176.689
 11
176.668
 20
-12.921
 21
-12.811
  0
LINE
  8
0
 10
176.668
 11
176.661
 20
-12.811
 21
-12.7
  0
LINE
  8
0
 10
176.661
 11
176.668
 20
12.7
 21
12.811
  0
LINE
  8
0
 10
176.668
 11
176.689
 20
12.811
 21
12.921
  0
LINE
  8
0
 10
176.689
 11
176.723
 20
12.921
 21
13.027
  0
LINE
  8
0
 10
176.723
 11
176.771
 20
13.027
 21
13.128
  0
LINE
  8
0
 10
176.771
 11
176.831
 20
13.128
 21
13.223
  0
LINE
  8
0
 10
176.831
 11
176.902
 20
13.223
 21
13.309
  0
LINE
  8
0
 10
176.902
 11
176.983
 20
13.309
 21
13.385
  0
LINE
  8
0
 10
176.983
 11
177.074
 20
13.385
 21
13.451
  0
LINE
  8
0
 10
177.074
 11
177.171
 20
13.451
 21
13.504
  0
LINE
  8
0
 10
177.171
 11
177.275
 20
13.504
 21
13.545
  0
LINE
  8
0
 10
177.275
 11
177.383
 20
13.545
 21
13.573
  0
LINE
  8
0
 10
177.383
 11
177.494
 20
13.573
 21
13.587
  0
LINE
  8
0
 10
177.494
 11
177.606
 20
13.587
 21
13.587
  0
LINE
  8
0
 10
177.606
 11
177.717
 20
13.587
 21
13.573
  0
LINE
  8
0
 10
177.717
 11
177.825
 20
13.573
 21
13.545
  0
LINE
  8
0
 10
177.825
 11
177.929
 20
13.545
 21
13.504
  0
LINE
  8
0
 10
177.929
 11
178.026
 20
13.504
 21
13.451
  0
LINE
  8
0
 10
178.026
 11
178.117
 20
13.451
 21
13.385
  0
LINE
  8
0
 10
178.117
 11
178.198
 20
13.385
 21
13.309
  0
LINE
  8
0
 10
178.198
 11
178.269
 20
13.309
 21
13.223
  0
LINE
  8
0
 10
178.269
 11
178.329
 20
13.223
 21
13.128
  0
LINE
  8
0
 10
178.329
 11
178.377
 20
13.128
 21
13.027
  0
LINE
  8
0
 10
178.377
 11
178.411
 20
13.027
 21
12.921
  0
LINE
  8
0
 10
178.411
 11
178.432
 20
12.921
 21
12.811
  0
LINE
  8
0
 10
178.432
 11
178.439
 20
12.811
 21
12.7
  0
LINE
  8
0
 10
178.439
 11
178.432
 20
12.7
 21
12.589
  0
LINE
  8
0
 10
178.432
 11
178.411
 20
12.589
 21
12.479
  0
LINE
  8
0
 10
178.411
 11
178.377
 20
12.479
 21
12.373
  0
LINE
  8
0
 10
178.377
 11
178.329
 20
12.373
 21
12.272
  0
LINE
  8
0
 10
178.329
 11
178.269
 20
12.272
 21
12.177
  0
LINE
  8
0
 10
178.269
 11
178.198
 20
12.177
 21
12.091
  0
LINE
  8
0
 10
178.198
 11
178.117
 20
12.091
 21
12.015
  0
LINE
  8
0
 10
178.117
 11
178.026
 20
12.015
 21
11.949
  0
LINE
  8
0
 10
178.026
 11
177.929
 20
11.949
 21
11.896
  0
LINE
  8
0
 10
177.929
 11
177.825
 20
11.896
 21
11.855
  0
LINE
  8
0
 10
177.825
 11
177.717
 20
11.855
 21
11.827
  0
LINE
  8
0
 10
177.717
 11
177.606
 20
11.827
 21
11.813
  0
LINE
  8
0
 10
177.606
 11
177.494
 20
11.813
 21
11.813
  0
LINE
  8
0
 10
177.494
 11
177.383
 20
11.813
 21
11.827
  0
LINE
  8
0
 10
177.383
 11
177.275
 20
11.827
 21
11.855
  0
LINE
  8
0
 10
177.275
 11
177.171
 20
11.855
 21
11.896
  0
LINE
  8
0
 10
177.171
 11
177.074
 20
11.896
 21
11.949
  0
LINE
  8
0
 10
177.074
 11
176.983
 20
11.949
 21
12.015
  0
LINE
  8
0
 10
176.983
 11
176.902
 20
12.015
 21
12.091
  0
LINE
  8
0
 10
176.902
 11
176.831
 20
12.091
 21
12.177
  0
LINE
  8
0
 10
176.831
 11
176.771
 20
12.177
 21
12.272
  0
LINE
  8
0
 10
176.771
 11
176.723
 20
12.272
 21
12.373
  0
LINE
  8
0
 10
176.723
 11
176.689
 20
12.373
 21
12.479
  0
LINE
  8
0
 10
176.689
 11
176.668
 20
12.479
 21
12.589
  0
LINE
  8
0
 10
176.668
 11
176.661
 20
12.589
 21
12.7
  0
LINE
  8
0
 10
176.661
 11
176.668
 20
57.15
 21
57.261
  0
LINE
  8
0
 10
176.668
 11
176.689
 20
57.261
 21
57.371
  0
LINE
  8
0
 10
176.689
 11
176.723
 20
57.371
 21
57.477
  0
LINE
  8
0
 10
176.723
 11
176.771
 20
57.477
 21
57.578
  0
LINE
  8
0
 10
176.771
 11
176.831
 20
57.578
 21
57.673
  0
LINE
  8
0
 10
176.831
 11
176.902
 20
57.673
 21
57.759
  0
LINE
  8
0
 10
176.902
 11
176.983
 20
57.759
 21
57.835
  0
LINE
  8
0
 10
176.983
 11
177.074
 20
57.835
 21
57.901
  0
LINE
  8
0
 10
177.074
 11
177.171
 20
57.901
 21
57.954
  0
LINE
  8
0
 10
177.171
 11
177.275
 20
57.954
 21
57.995
  0
LINE
  8
0
 10
177.275
 11
177.383
 20
57.995
 21
58.023
  0
LINE
  8
0
 10
177.383
 11
177.494
 20
58.023
 21
58.037
  0
LINE
  8
0
 10
177.494
 11
177.606
 20
58.037
 21
58.037
  0
LINE
  8
0
 10
177.606
 11
177.717
 20
58.037
 21
58.023
  0
LINE
  8
0
 10
177.717
 11
177.825
 20
58.023
 21
57.995
  0
LINE
  8
0
 10
177.825
 11
177.929
 20
57.995
 21
57.954
  0
LINE
  8
0
 10
177.929
 11
178.026
 20
57.954
 21
57.901
  0
LINE
  8
0
 10
178.026
 11
178.117
 20
57.901
 21
57.835
  0
LINE
  8
0
 10
178.117
 11
178.198
 20
57.835
 21
57.759
  0
LINE
  8
0
 10
178.198
 11
178.269
 20
57.759
 21
57.673
  0
LINE
  8
0
 10
178.269
 11
178.329
 20
57.673
 21
57.578
  0
LINE
  8
0
 10
178.329
 11
178.377
 20
57.578
 21
57.477
  0
LINE
  8
0
 10
178.377
 11
178.411
 20
57.477
 21
57.371
  0
LINE
  8
0
 10
178.411
 11
178.432
 20
57.371
 21
57.261
  0
LINE
  8
0
 10
178.432
 11
178.439
 20
57.261
 21
57.15
  0
LINE
  8
0
 10
178.439
 11
178.432
 20
57.15
 21
57.039
  0
LINE
  8
0
 10
178.432
 11
178.411
 20
57.039
 21
56.929
  0
LINE
  8
0
 10
178.411
 11
178.377
 20
56.929
 21
56.823
  0
LINE
  8
0
 10
178.377
 11
178.329
 20
56.823
 21
56.722
  0
LINE
  8
0
 10
178.329
 11
178.269
 20
56.722
 21
56.627
  0
LINE
  8
0
 10
178.269
 11
178.198
 20
56.627
 21
56.541
  0
LINE
  8
0
 10
178.198
 11
178.117
 20
56.541
 21
56.465
  0
LINE
  8
0
 10
178.117
 11
178.026
 20
56.465
 21
56.399
  0
LINE
  8
0
 10
178.026
 11
177.929
 20
56.399
 21
56.346
  0
LINE
  8
0
 10
177.929
 11
177.825
 20
56.346
 21
56.305
  0
LINE
  8
0
 10
177.825
 11
177.717
 20
56.305
 21
56.277
  0
LINE
  8
0
 10
177.717
 11
177.606
 20
56.277
 21
56.263
  0
LINE
  8
0
 10
177.606
 11
177.494
 20
56.263
 21
56.263
  0
LINE
  8
0
 10
177.494
 11
177.383
 20
56.263
 21
56.277
  0
LINE
  8
0
 10
177.383
 11
177.275
 20
56.277
 21
56.305
  0
LINE
  8
0
 10
177.275
 11
177.171
 20
56.305
 21
56.346
  0
LINE
  8
0
 10
177.171
 11
177.074
 20
56.346
 21
56.399
  0
LINE
  8
0
 10
177.074
 11
176.983
 20
56.399
 21
56.465
  0
LINE
  8
0
 10
176.983
 11
176.902
 20
56.465
 21
56.541
  0
LINE
  8
0
 10
176.902
 11
176.831
 20
56.541
 21
56.627
  0
LINE
  8
0
 10
176.831
 11
176.771
 20
56.627
 21
56.722
  0
LINE
  8
0
 10
176.771
 11
176.723
 20
56.722
 21
56.823
  0
LINE
  8
0
 10
176.723
 11
176.689
 20
56.823
 21
56.929
  0
LINE
  8
0
 10
176.689
 11
176.668
 20
56.929
 21
57.039
  0
LINE
  8
0
 10
176.668
 11
176.661
 20
57.039
 21
57.15
  0
ENDSEC
  0
SECTION
  2
OBJECTS
  0
DICTIONARY
  0
ENDSEC
  0
EOF
