999
dxflib 2.2.0.0
  0
SECTION
  2
HEADER
  9
$ACADVER
  1
AC1015
  9
$HANDSEED
  5
FFFF
  9
$DIMASZ
 40
2.5
  9
$PLIMMIN
 10
0.0
 20
0.0
  9
$DIMEXE
 40
1.25
  9
$DIMGAP
 40
0.625
  9
$PLIMMAX
 10
210.0
 20
297.0
  9
$INSUNITS
 70
4
  9
$DIMSTYLE
  2
Standard
  9
$DIMEXO
 40
0.625
  9
$DIMTXT
 40
2.5
  0
ENDSEC
  0
SECTION
  2
TABLES
  0
TABLE
  2
VPORT
  5
8
100
AcDbSymbolTable
 70
1
  0
VPORT
  5
30
100
AcDbSymbolTableRecord
100
AcDbViewportTableRecord
  2
*Active
 70
0
 10
0.0
 20
0.0
 11
1.0
 21
1.0
 12
286.3055555555554861
 22
148.5
 13
0.0
 23
0.0
 14
10.0
 24
10.0
 15
10.0
 25
10.0
 16
0.0
 26
0.0
 36
1.0
 17
0.0
 27
0.0
 37
0.0
 40
297.0
 41
1.92798353909465
 42
50.0
 43
0.0
 44
0.0
 50
0.0
 51
0.0
 71
0
 72
100
 73
1
 74
3
 75
1
 76
1
 77
0
 78
0
281
0
 65
1
110
0.0
120
0.0
130
0.0
111
1.0
121
0.0
131
0.0
112
0.0
122
1.0
132
0.0
 79
0
146
0.0
  0
ENDTAB
  0
TABLE
  2
LTYPE
  5
5
100
AcDbSymbolTable
 70
21
  0
LTYPE
  5
14
100
AcDbSymbolTableRecord
100
AcDbLinetypeTableRecord
  2
ByBlock
 70
0
  3

 72
65
 73
0
 40
0.0
  0
LTYPE
  5
15
100
AcDbSymbolTableRecord
100
AcDbLinetypeTableRecord
  2
ByLayer
 70
0
  3

 72
65
 73
0
 40
0.0
  0
LTYPE
  5
16
100
AcDbSymbolTableRecord
100
AcDbLinetypeTableRecord
  2
CONTINUOUS
 70
0
  3
Solid line
 72
65
 73
0
 40
0.0
  0
LTYPE
  5
31
100
AcDbSymbolTableRecord
100
AcDbLinetypeTableRecord
  2
DOT
 70
0
  3
Dot . . . . . . . . . . . . . . . . . . . . . .
 72
65
 73
2
 40
6.3499999999999996
 49
0.0
 74
0
 49
-6.3499999999999996
 74
0
  0
LTYPE
  5
32
100
AcDbSymbolTableRecord
100
AcDbLinetypeTableRecord
  2
DOT2
 70
0
  3
Dot (.5x) .....................................
 72
65
 73
2
 40
3.1749999999999998
 49
0.0
 74
0
 49
-3.1749999999999998
 74
0
  0
LTYPE
  5
33
100
AcDbSymbolTableRecord
100
AcDbLinetypeTableRecord
  2
DOTX2
 70
0
  3
Dot (2x) .  .  .  .  .  .  .  .  .  .  .  .  .
 72
65
 73
2
 40
12.6999999999999993
 49
0.0
 74
0
 49
-12.6999999999999993
 74
0
  0
LTYPE
  5
34
100
AcDbSymbolTableRecord
100
AcDbLinetypeTableRecord
  2
DASHED
 70
0
  3
Dashed __ __ __ __ __ __ __ __ __ __ __ __ __ _
 72
65
 73
2
 40
19.0500000000000007
 49
12.6999999999999993
 74
0
 49
-6.3499999999999996
 74
0
  0
LTYPE
  5
35
100
AcDbSymbolTableRecord
100
AcDbLinetypeTableRecord
  2
DASHED2
 70
0
  3
Dashed (.5x) _ _ _ _ _ _ _ _ _ _ _ _ _ _ _ _ _
 72
65
 73
2
 40
9.5250000000000004
 49
6.3499999999999996
 74
0
 49
-3.1749999999999998
 74
0
  0
LTYPE
  5
36
100
AcDbSymbolTableRecord
100
AcDbLinetypeTableRecord
  2
DASHEDX2
 70
0
  3
Dashed (2x) ____  ____  ____  ____  ____  ___
 72
65
 73
2
 40
38.1000000000000014
 49
25.3999999999999986
 74
0
 49
-12.6999999999999993
 74
0
  0
LTYPE
  5
37
100
AcDbSymbolTableRecord
100
AcDbLinetypeTableRecord
  2
DASHDOT
 70
0
  3
Dash dot __ . __ . __ . __ . __ . __ . __ . __
 72
65
 73
4
 40
25.3999999999999986
 49
12.6999999999999993
 74
0
 49
-6.3499999999999996
 74
0
 49
0.0
 74
0
 49
-6.3499999999999996
 74
0
  0
LTYPE
  5
38
100
AcDbSymbolTableRecord
100
AcDbLinetypeTableRecord
  2
DASHDOT2
 70
0
  3
Dash dot (.5x) _._._._._._._._._._._._._._._.
 72
65
 73
4
 40
12.6999999999999993
 49
6.3499999999999996
 74
0
 49
-3.1749999999999998
 74
0
 49
0.0
 74
0
 49
-3.1749999999999998
 74
0
  0
LTYPE
  5
39
100
AcDbSymbolTableRecord
100
AcDbLinetypeTableRecord
  2
DASHDOTX2
 70
0
  3
Dash dot (2x) ____  .  ____  .  ____  .  ___
 72
65
 73
4
 40
50.7999999999999972
 49
25.3999999999999986
 74
0
 49
-12.6999999999999993
 74
0
 49
0.0
 74
0
 49
-12.6999999999999993
 74
0
  0
LTYPE
  5
3A
100
AcDbSymbolTableRecord
100
AcDbLinetypeTableRecord
  2
DIVIDE
 70
0
  3
Divide ____ . . ____ . . ____ . . ____ . . ____
 72
65
 73
6
 40
31.75
 49
12.6999999999999993
 74
0
 49
-6.3499999999999996
 74
0
 49
0.0
 74
0
 49
-6.3499999999999996
 74
0
 49
0.0
 74
0
 49
-6.3499999999999996
 74
0
  0
LTYPE
  5
3B
100
AcDbSymbolTableRecord
100
AcDbLinetypeTableRecord
  2
DIVIDE2
 70
0
  3
Divide (.5x) __..__..__..__..__..__..__..__.._
 72
65
 73
6
 40
15.875
 49
6.3499999999999996
 74
0
 49
-3.1749999999999998
 74
0
 49
0.0
 74
0
 49
-3.1749999999999998
 74
0
 49
0.0
 74
0
 49
-3.1749999999999998
 74
0
  0
LTYPE
  5
3C
100
AcDbSymbolTableRecord
100
AcDbLinetypeTableRecord
  2
DIVIDEX2
 70
0
  3
Divide (2x) ________  .  .  ________  .  .  _
 72
65
 73
6
 40
63.5
 49
25.3999999999999986
 74
0
 49
-12.6999999999999993
 74
0
 49
0.0
 74
0
 49
-12.6999999999999993
 74
0
 49
0.0
 74
0
 49
-12.6999999999999993
 74
0
  0
LTYPE
  5
3D
100
AcDbSymbolTableRecord
100
AcDbLinetypeTableRecord
  2
CENTER
 70
0
  3
Center ____ _ ____ _ ____ _ ____ _ ____ _ ____
 72
65
 73
4
 40
50.7999999999999972
 49
31.75
 74
0
 49
-6.3499999999999996
 74
0
 49
6.3499999999999996
 74
0
 49
-6.3499999999999996
 74
0
  0
LTYPE
  5
3E
100
AcDbSymbolTableRecord
100
AcDbLinetypeTableRecord
  2
CENTER2
 70
0
  3
Center (.5x) ___ _ ___ _ ___ _ ___ _ ___ _ ___
 72
65
 73
4
 40
28.5749999999999993
 49
19.0500000000000007
 74
0
 49
-3.1749999999999998
 74
0
 49
3.1749999999999998
 74
0
 49
-3.1749999999999998
 74
0
  0
LTYPE
  5
3F
100
AcDbSymbolTableRecord
100
AcDbLinetypeTableRecord
  2
CENTERX2
 70
0
  3
Center (2x) ________  __  ________  __  _____
 72
65
 73
4
 40
101.5999999999999943
 49
63.5
 74
0
 49
-12.6999999999999993
 74
0
 49
12.6999999999999993
 74
0
 49
-12.6999999999999993
 74
0
  0
LTYPE
  5
40
100
AcDbSymbolTableRecord
100
AcDbLinetypeTableRecord
  2
BORDER
 70
0
  3
Border __ __ . __ __ . __ __ . __ __ . __ __ .
 72
65
 73
6
 40
44.4500000000000028
 49
12.6999999999999993
 74
0
 49
-6.3499999999999996
 74
0
 49
12.6999999999999993
 74
0
 49
-6.3499999999999996
 74
0
 49
0.0
 74
0
 49
-6.3499999999999996
 74
0
  0
LTYPE
  5
41
100
AcDbSymbolTableRecord
100
AcDbLinetypeTableRecord
  2
BORDER2
 70
0
  3
Border (.5x) __.__.__.__.__.__.__.__.__.__.__.
 72
65
 73
6
 40
22.2250000000000014
 49
6.3499999999999996
 74
0
 49
-3.1749999999999998
 74
0
 49
6.3499999999999996
 74
0
 49
-3.1749999999999998
 74
0
 49
0.0
 74
0
 49
-3.1749999999999998
 74
0
  0
LTYPE
  5
42
100
AcDbSymbolTableRecord
100
AcDbLinetypeTableRecord
  2
BORDERX2
 70
0
  3
Border (2x) ____  ____  .  ____  ____  .  ___
 72
65
 73
6
 40
88.9000000000000057
 49
25.3999999999999986
 74
0
 49
-12.6999999999999993
 74
0
 49
25.3999999999999986
 74
0
 49
-12.6999999999999993
 74
0
 49
0.0
 74
0
 49
-12.6999999999999993
 74
0
  0
ENDTAB
  0
TABLE
  2
LAYER
  5
2
100
AcDbSymbolTable
 70
1
  0
LAYER
  5
10
100
AcDbSymbolTableRecord
100
AcDbLayerTableRecord
  2
0
 70
0
 62
7
  6
CONTINUOUS
370
0
390
F
  0
ENDTAB
  0
TABLE
  2
STYLE
  5
3
100
AcDbSymbolTable
 70
1
  0
STYLE
  5
11
100
AcDbSymbolTableRecord
100
AcDbTextStyleTableRecord
  2
Standard
 70
0
 40
0.0
 41
0.75
 50
0.0
 71
0
 42
2.5
  3
txt
  4

  0
ENDTAB
  0
TABLE
  2
VIEW
  5
6
100
AcDbSymbolTable
 70
0
  0
ENDTAB
  0
TABLE
  2
UCS
  5
7
100
AcDbSymbolTable
 70
0
  0
ENDTAB
  0
TABLE
  2
APPID
  5
9
100
AcDbSymbolTable
 70
1
  0
APPID
  5
12
100
AcDbSymbolTableRecord
100
AcDbRegAppTableRecord
  2
ACAD
 70
0
  0
ENDTAB
  0
TABLE
  2
DIMSTYLE
  5
A
100
AcDbSymbolTable
 70
1
100
AcDbDimStyleTable
 71
0
  0
DIMSTYLE
105
27
100
AcDbSymbolTableRecord
100
AcDbDimStyleTableRecord
  2
Standard
 41
2.5
 42
0.625
 43
3.75
 44
1.25
 70
0
 73
0
 74
0
 77
1
 78
8
140
2.5
141
2.5
143
0.03937007874016
147
0.625
171
3
172
1
271
2
272
2
274
3
278
44
283
0
284
8
340
11
  0
ENDTAB
  0
TABLE
  2
BLOCK_RECORD
  5
1
100
AcDbSymbolTable
 70
1
  0
BLOCK_RECORD
  5
1F
100
AcDbSymbolTableRecord
100
AcDbBlockTableRecord
  2
*Model_Space
340
22
  0
BLOCK_RECORD
  5
1B
100
AcDbSymbolTableRecord
100
AcDbBlockTableRecord
  2
*Paper_Space
340
1E
  0
BLOCK_RECORD
  5
23
100
AcDbSymbolTableRecord
100
AcDbBlockTableRecord
  2
*Paper_Space0
340
26
  0
ENDTAB
  0
ENDSEC
  0
SECTION
  2
BLOCKS
  0
BLOCK
  5
20
100
AcDbEntity
  8
0
100
AcDbBlockBegin
  2
*Model_Space
 70
0
 10
0.0
 20
0.0
 30
0.0
  3
*Model_Space
  1

  0
ENDBLK
  5
21
100
AcDbEntity
  8
0
100
AcDbBlockEnd
  0
BLOCK
  5
1C
100
AcDbEntity
 67
1
  8
0
100
AcDbBlockBegin
  2
*Paper_Space
 70
0
 10
0.0
 20
0.0
 30
0.0
  3
*Paper_Space
  1

  0
ENDBLK
  5
1D
100
AcDbEntity
 67
1
  8
0
100
AcDbBlockEnd
  0
BLOCK
  5
24
100
AcDbEntity
  8
0
100
AcDbBlockBegin
  2
*Paper_Space0
 70
0
 10
0.0
 20
0.0
 30
0.0
  3
*Paper_Space0
  1

  0
ENDBLK
  5
25
100
AcDbEntity
  8
0
100
AcDbBlockEnd
  0
ENDSEC
  0
SECTION
  2
ENTITIES
  0
LINE
  5
43
100
AcDbEntity
100
AcDbLine
  8
0
 62
256
370
-1
  6
ByLayer
 10
175.0500000000000114
 20
-63.5
 30
0.0
 11
175.0500000000000114
 21
63.5
 31
0.0
  0
LINE
  5
44
100
AcDbEntity
100
AcDbLine
  8
0
 62
256
370
-1
  6
ByLayer
 10
175.0500000000000114
 20
63.5
 30
0.0
 11
186.0500000000000114
 21
63.5
 31
0.0
  0
LINE
  5
45
100
AcDbEntity
100
AcDbLine
  8
0
 62
256
370
-1
  6
ByLayer
 10
186.0500000000000114
 20
63.5
 30
0.0
 11
186.0500000000000114
 21
-63.5
 31
0.0
  0
LINE
  5
46
100
AcDbEntity
100
AcDbLine
  8
0
 62
256
370
-1
  6
ByLayer
 10
186.0500000000000114
 20
-63.5
 30
0.0
 11
175.0500000000000114
 21
-63.5
 31
0.0
  0
LINE
  5
47
100
AcDbEntity
100
AcDbLine
  8
0
 62
256
370
-1
  6
ByLayer
 10
176.5500000000000114
 20
-50.7999999999999972
 30
0.0
 11
176.5819999999999936
 21
-50.2989999999999995
 31
0.0
  0
LINE
  5
48
100
AcDbEntity
100
AcDbLine
  8
0
 62
256
370
-1
  6
ByLayer
 10
176.5819999999999936
 20
-50.2989999999999995
 30
0.0
 11
176.6759999999999877
 21
-49.8049999999999997
 31
0.0
  0
LINE
  5
49
100
AcDbEntity
100
AcDbLine
  8
0
 62
256
370
-1
  6
ByLayer
 10
176.6759999999999877
 20
-49.8049999999999997
 30
0.0
 11
176.8309999999999889
 21
-49.328000000000003
 31
0.0
  0
LINE
  5
4A
100
AcDbEntity
100
AcDbLine
  8
0
 62
256
370
-1
  6
ByLayer
 10
176.8309999999999889
 20
-49.328000000000003
 30
0.0
 11
177.0449999999999875
 21
-48.8729999999999976
 31
0.0
  0
LINE
  5
4B
100
AcDbEntity
100
AcDbLine
  8
0
 62
256
370
-1
  6
ByLayer
 10
177.0449999999999875
 20
-48.8729999999999976
 30
0.0
 11
177.313999999999993
 21
-48.4489999999999981
 31
0.0
  0
LINE
  5
4C
100
AcDbEntity
100
AcDbLine
  8
0
 62
256
370
-1
  6
ByLayer
 10
177.313999999999993
 20
-48.4489999999999981
 30
0.0
 11
177.6339999999999861
 21
-48.0619999999999976
 31
0.0
  0
LINE
  5
4D
100
AcDbEntity
100
AcDbLine
  8
0
 62
256
370
-1
  6
ByLayer
 10
177.6339999999999861
 20
-48.0619999999999976
 30
0.0
 11
178.0
 21
-47.7180000000000035
 31
0.0
  0
LINE
  5
4E
100
AcDbEntity
100
AcDbLine
  8
0
 62
256
370
-1
  6
ByLayer
 10
178.0
 20
-47.7180000000000035
 30
0.0
 11
178.4070000000000107
 21
-47.4230000000000018
 31
0.0
  0
LINE
  5
4F
100
AcDbEntity
100
AcDbLine
  8
0
 62
256
370
-1
  6
ByLayer
 10
178.4070000000000107
 20
-47.4230000000000018
 30
0.0
 11
178.8470000000000084
 21
-47.1809999999999974
 31
0.0
  0
LINE
  5
50
100
AcDbEntity
100
AcDbLine
  8
0
 62
256
370
-1
  6
ByLayer
 10
178.8470000000000084
 20
-47.1809999999999974
 30
0.0
 11
179.313999999999993
 21
-46.9960000000000022
 31
0.0
  0
LINE
  5
51
100
AcDbEntity
100
AcDbLine
  8
0
 62
256
370
-1
  6
ByLayer
 10
179.313999999999993
 20
-46.9960000000000022
 30
0.0
 11
179.8000000000000114
 21
-46.8710000000000022
 31
0.0
  0
LINE
  5
52
100
AcDbEntity
100
AcDbLine
  8
0
 62
256
370
-1
  6
ByLayer
 10
179.8000000000000114
 20
-46.8710000000000022
 30
0.0
 11
180.2990000000000066
 21
-46.8079999999999998
 31
0.0
  0
LINE
  5
53
100
AcDbEntity
100
AcDbLine
  8
0
 62
256
370
-1
  6
ByLayer
 10
180.2990000000000066
 20
-46.8079999999999998
 30
0.0
 11
180.8009999999999877
 21
-46.8079999999999998
 31
0.0
  0
LINE
  5
54
100
AcDbEntity
100
AcDbLine
  8
0
 62
256
370
-1
  6
ByLayer
 10
180.8009999999999877
 20
-46.8079999999999998
 30
0.0
 11
181.3000000000000114
 21
-46.8710000000000022
 31
0.0
  0
LINE
  5
55
100
AcDbEntity
100
AcDbLine
  8
0
 62
256
370
-1
  6
ByLayer
 10
181.3000000000000114
 20
-46.8710000000000022
 30
0.0
 11
181.7860000000000014
 21
-46.9960000000000022
 31
0.0
  0
LINE
  5
56
100
AcDbEntity
100
AcDbLine
  8
0
 62
256
370
-1
  6
ByLayer
 10
181.7860000000000014
 20
-46.9960000000000022
 30
0.0
 11
182.2529999999999859
 21
-47.1809999999999974
 31
0.0
  0
LINE
  5
57
100
AcDbEntity
100
AcDbLine
  8
0
 62
256
370
-1
  6
ByLayer
 10
182.2529999999999859
 20
-47.1809999999999974
 30
0.0
 11
182.6930000000000121
 21
-47.4230000000000018
 31
0.0
  0
LINE
  5
58
100
AcDbEntity
100
AcDbLine
  8
0
 62
256
370
-1
  6
ByLayer
 10
182.6930000000000121
 20
-47.4230000000000018
 30
0.0
 11
183.0999999999999943
 21
-47.7180000000000035
 31
0.0
  0
LINE
  5
59
100
AcDbEntity
100
AcDbLine
  8
0
 62
256
370
-1
  6
ByLayer
 10
183.0999999999999943
 20
-47.7180000000000035
 30
0.0
 11
183.4660000000000082
 21
-48.0619999999999976
 31
0.0
  0
LINE
  5
5A
100
AcDbEntity
100
AcDbLine
  8
0
 62
256
370
-1
  6
ByLayer
 10
183.4660000000000082
 20
-48.0619999999999976
 30
0.0
 11
183.7860000000000014
 21
-48.4489999999999981
 31
0.0
  0
LINE
  5
5B
100
AcDbEntity
100
AcDbLine
  8
0
 62
256
370
-1
  6
ByLayer
 10
183.7860000000000014
 20
-48.4489999999999981
 30
0.0
 11
184.0550000000000068
 21
-48.8729999999999976
 31
0.0
  0
LINE
  5
5C
100
AcDbEntity
100
AcDbLine
  8
0
 62
256
370
-1
  6
ByLayer
 10
184.0550000000000068
 20
-48.8729999999999976
 30
0.0
 11
184.2690000000000055
 21
-49.328000000000003
 31
0.0
  0
LINE
  5
5D
100
AcDbEntity
100
AcDbLine
  8
0
 62
256
370
-1
  6
ByLayer
 10
184.2690000000000055
 20
-49.328000000000003
 30
0.0
 11
184.4240000000000066
 21
-49.8049999999999997
 31
0.0
  0
LINE
  5
5E
100
AcDbEntity
100
AcDbLine
  8
0
 62
256
370
-1
  6
ByLayer
 10
184.4240000000000066
 20
-49.8049999999999997
 30
0.0
 11
184.5180000000000007
 21
-50.2989999999999995
 31
0.0
  0
LINE
  5
5F
100
AcDbEntity
100
AcDbLine
  8
0
 62
256
370
-1
  6
ByLayer
 10
184.5180000000000007
 20
-50.2989999999999995
 30
0.0
 11
184.5500000000000114
 21
-50.7999999999999972
 31
0.0
  0
LINE
  5
60
100
AcDbEntity
100
AcDbLine
  8
0
 62
256
370
-1
  6
ByLayer
 10
184.5500000000000114
 20
-50.7999999999999972
 30
0.0
 11
184.5180000000000007
 21
-51.3010000000000019
 31
0.0
  0
LINE
  5
61
100
AcDbEntity
100
AcDbLine
  8
0
 62
256
370
-1
  6
ByLayer
 10
184.5180000000000007
 20
-51.3010000000000019
 30
0.0
 11
184.4240000000000066
 21
-51.7950000000000017
 31
0.0
  0
LINE
  5
62
100
AcDbEntity
100
AcDbLine
  8
0
 62
256
370
-1
  6
ByLayer
 10
184.4240000000000066
 20
-51.7950000000000017
 30
0.0
 11
184.2690000000000055
 21
-52.2719999999999985
 31
0.0
  0
LINE
  5
63
100
AcDbEntity
100
AcDbLine
  8
0
 62
256
370
-1
  6
ByLayer
 10
184.2690000000000055
 20
-52.2719999999999985
 30
0.0
 11
184.0550000000000068
 21
-52.7269999999999968
 31
0.0
  0
LINE
  5
64
100
AcDbEntity
100
AcDbLine
  8
0
 62
256
370
-1
  6
ByLayer
 10
184.0550000000000068
 20
-52.7269999999999968
 30
0.0
 11
183.7860000000000014
 21
-53.1510000000000034
 31
0.0
  0
LINE
  5
65
100
AcDbEntity
100
AcDbLine
  8
0
 62
256
370
-1
  6
ByLayer
 10
183.7860000000000014
 20
-53.1510000000000034
 30
0.0
 11
183.4660000000000082
 21
-53.5379999999999967
 31
0.0
  0
LINE
  5
66
100
AcDbEntity
100
AcDbLine
  8
0
 62
256
370
-1
  6
ByLayer
 10
183.4660000000000082
 20
-53.5379999999999967
 30
0.0
 11
183.0999999999999943
 21
-53.8819999999999979
 31
0.0
  0
LINE
  5
67
100
AcDbEntity
100
AcDbLine
  8
0
 62
256
370
-1
  6
ByLayer
 10
183.0999999999999943
 20
-53.8819999999999979
 30
0.0
 11
182.6930000000000121
 21
-54.1769999999999996
 31
0.0
  0
LINE
  5
68
100
AcDbEntity
100
AcDbLine
  8
0
 62
256
370
-1
  6
ByLayer
 10
182.6930000000000121
 20
-54.1769999999999996
 30
0.0
 11
182.2529999999999859
 21
-54.4189999999999969
 31
0.0
  0
LINE
  5
69
100
AcDbEntity
100
AcDbLine
  8
0
 62
256
370
-1
  6
ByLayer
 10
182.2529999999999859
 20
-54.4189999999999969
 30
0.0
 11
181.7860000000000014
 21
-54.6039999999999992
 31
0.0
  0
LINE
  5
6A
100
AcDbEntity
100
AcDbLine
  8
0
 62
256
370
-1
  6
ByLayer
 10
181.7860000000000014
 20
-54.6039999999999992
 30
0.0
 11
181.3000000000000114
 21
-54.7289999999999992
 31
0.0
  0
LINE
  5
6B
100
AcDbEntity
100
AcDbLine
  8
0
 62
256
370
-1
  6
ByLayer
 10
181.3000000000000114
 20
-54.7289999999999992
 30
0.0
 11
180.8009999999999877
 21
-54.7920000000000016
 31
0.0
  0
LINE
  5
6C
100
AcDbEntity
100
AcDbLine
  8
0
 62
256
370
-1
  6
ByLayer
 10
180.8009999999999877
 20
-54.7920000000000016
 30
0.0
 11
180.2990000000000066
 21
-54.7920000000000016
 31
0.0
  0
LINE
  5
6D
100
AcDbEntity
100
AcDbLine
  8
0
 62
256
370
-1
  6
ByLayer
 10
180.2990000000000066
 20
-54.7920000000000016
 30
0.0
 11
179.8000000000000114
 21
-54.7289999999999992
 31
0.0
  0
LINE
  5
6E
100
AcDbEntity
100
AcDbLine
  8
0
 62
256
370
-1
  6
ByLayer
 10
179.8000000000000114
 20
-54.7289999999999992
 30
0.0
 11
179.313999999999993
 21
-54.6039999999999992
 31
0.0
  0
LINE
  5
6F
100
AcDbEntity
100
AcDbLine
  8
0
 62
256
370
-1
  6
ByLayer
 10
179.313999999999993
 20
-54.6039999999999992
 30
0.0
 11
178.8470000000000084
 21
-54.4189999999999969
 31
0.0
  0
LINE
  5
70
100
AcDbEntity
100
AcDbLine
  8
0
 62
256
370
-1
  6
ByLayer
 10
178.8470000000000084
 20
-54.4189999999999969
 30
0.0
 11
178.4070000000000107
 21
-54.1769999999999996
 31
0.0
  0
LINE
  5
71
100
AcDbEntity
100
AcDbLine
  8
0
 62
256
370
-1
  6
ByLayer
 10
178.4070000000000107
 20
-54.1769999999999996
 30
0.0
 11
178.0
 21
-53.8819999999999979
 31
0.0
  0
LINE
  5
72
100
AcDbEntity
100
AcDbLine
  8
0
 62
256
370
-1
  6
ByLayer
 10
178.0
 20
-53.8819999999999979
 30
0.0
 11
177.6339999999999861
 21
-53.5379999999999967
 31
0.0
  0
LINE
  5
73
100
AcDbEntity
100
AcDbLine
  8
0
 62
256
370
-1
  6
ByLayer
 10
177.6339999999999861
 20
-53.5379999999999967
 30
0.0
 11
177.313999999999993
 21
-53.1510000000000034
 31
0.0
  0
LINE
  5
74
100
AcDbEntity
100
AcDbLine
  8
0
 62
256
370
-1
  6
ByLayer
 10
177.313999999999993
 20
-53.1510000000000034
 30
0.0
 11
177.0449999999999875
 21
-52.7269999999999968
 31
0.0
  0
LINE
  5
75
100
AcDbEntity
100
AcDbLine
  8
0
 62
256
370
-1
  6
ByLayer
 10
177.0449999999999875
 20
-52.7269999999999968
 30
0.0
 11
176.8309999999999889
 21
-52.2719999999999985
 31
0.0
  0
LINE
  5
76
100
AcDbEntity
100
AcDbLine
  8
0
 62
256
370
-1
  6
ByLayer
 10
176.8309999999999889
 20
-52.2719999999999985
 30
0.0
 11
176.6759999999999877
 21
-51.7950000000000017
 31
0.0
  0
LINE
  5
77
100
AcDbEntity
100
AcDbLine
  8
0
 62
256
370
-1
  6
ByLayer
 10
176.6759999999999877
 20
-51.7950000000000017
 30
0.0
 11
176.5819999999999936
 21
-51.3010000000000019
 31
0.0
  0
LINE
  5
78
100
AcDbEntity
100
AcDbLine
  8
0
 62
256
370
-1
  6
ByLayer
 10
176.5819999999999936
 20
-51.3010000000000019
 30
0.0
 11
176.5500000000000114
 21
-50.7999999999999972
 31
0.0
  0
LINE
  5
79
100
AcDbEntity
100
AcDbLine
  8
0
 62
256
370
-1
  6
ByLayer
 10
176.5500000000000114
 20
-25.3999999999999986
 30
0.0
 11
176.5819999999999936
 21
-24.8990000000000009
 31
0.0
  0
LINE
  5
7A
100
AcDbEntity
100
AcDbLine
  8
0
 62
256
370
-1
  6
ByLayer
 10
176.5819999999999936
 20
-24.8990000000000009
 30
0.0
 11
176.6759999999999877
 21
-24.4050000000000011
 31
0.0
  0
LINE
  5
7B
100
AcDbEntity
100
AcDbLine
  8
0
 62
256
370
-1
  6
ByLayer
 10
176.6759999999999877
 20
-24.4050000000000011
 30
0.0
 11
176.8309999999999889
 21
-23.9280000000000008
 31
0.0
  0
LINE
  5
7C
100
AcDbEntity
100
AcDbLine
  8
0
 62
256
370
-1
  6
ByLayer
 10
176.8309999999999889
 20
-23.9280000000000008
 30
0.0
 11
177.0449999999999875
 21
-23.472999999999999
 31
0.0
  0
LINE
  5
7D
100
AcDbEntity
100
AcDbLine
  8
0
 62
256
370
-1
  6
ByLayer
 10
177.0449999999999875
 20
-23.472999999999999
 30
0.0
 11
177.313999999999993
 21
-23.0489999999999995
 31
0.0
  0
LINE
  5
7E
100
AcDbEntity
100
AcDbLine
  8
0
 62
256
370
-1
  6
ByLayer
 10
177.313999999999993
 20
-23.0489999999999995
 30
0.0
 11
177.6339999999999861
 21
-22.661999999999999
 31
0.0
  0
LINE
  5
7F
100
AcDbEntity
100
AcDbLine
  8
0
 62
256
370
-1
  6
ByLayer
 10
177.6339999999999861
 20
-22.661999999999999
 30
0.0
 11
178.0
 21
-22.3180000000000014
 31
0.0
  0
LINE
  5
80
100
AcDbEntity
100
AcDbLine
  8
0
 62
256
370
-1
  6
ByLayer
 10
178.0
 20
-22.3180000000000014
 30
0.0
 11
178.4070000000000107
 21
-22.0229999999999997
 31
0.0
  0
LINE
  5
81
100
AcDbEntity
100
AcDbLine
  8
0
 62
256
370
-1
  6
ByLayer
 10
178.4070000000000107
 20
-22.0229999999999997
 30
0.0
 11
178.8470000000000084
 21
-21.7809999999999988
 31
0.0
  0
LINE
  5
82
100
AcDbEntity
100
AcDbLine
  8
0
 62
256
370
-1
  6
ByLayer
 10
178.8470000000000084
 20
-21.7809999999999988
 30
0.0
 11
179.313999999999993
 21
-21.5960000000000001
 31
0.0
  0
LINE
  5
83
100
AcDbEntity
100
AcDbLine
  8
0
 62
256
370
-1
  6
ByLayer
 10
179.313999999999993
 20
-21.5960000000000001
 30
0.0
 11
179.8000000000000114
 21
-21.4710000000000001
 31
0.0
  0
LINE
  5
84
100
AcDbEntity
100
AcDbLine
  8
0
 62
256
370
-1
  6
ByLayer
 10
179.8000000000000114
 20
-21.4710000000000001
 30
0.0
 11
180.2990000000000066
 21
-21.4080000000000013
 31
0.0
  0
LINE
  5
85
100
AcDbEntity
100
AcDbLine
  8
0
 62
256
370
-1
  6
ByLayer
 10
180.2990000000000066
 20
-21.4080000000000013
 30
0.0
 11
180.8009999999999877
 21
-21.4080000000000013
 31
0.0
  0
LINE
  5
86
100
AcDbEntity
100
AcDbLine
  8
0
 62
256
370
-1
  6
ByLayer
 10
180.8009999999999877
 20
-21.4080000000000013
 30
0.0
 11
181.3000000000000114
 21
-21.4710000000000001
 31
0.0
  0
LINE
  5
87
100
AcDbEntity
100
AcDbLine
  8
0
 62
256
370
-1
  6
ByLayer
 10
181.3000000000000114
 20
-21.4710000000000001
 30
0.0
 11
181.7860000000000014
 21
-21.5960000000000001
 31
0.0
  0
LINE
  5
88
100
AcDbEntity
100
AcDbLine
  8
0
 62
256
370
-1
  6
ByLayer
 10
181.7860000000000014
 20
-21.5960000000000001
 30
0.0
 11
182.2529999999999859
 21
-21.7809999999999988
 31
0.0
  0
LINE
  5
89
100
AcDbEntity
100
AcDbLine
  8
0
 62
256
370
-1
  6
ByLayer
 10
182.2529999999999859
 20
-21.7809999999999988
 30
0.0
 11
182.6930000000000121
 21
-22.0229999999999997
 31
0.0
  0
LINE
  5
8A
100
AcDbEntity
100
AcDbLine
  8
0
 62
256
370
-1
  6
ByLayer
 10
182.6930000000000121
 20
-22.0229999999999997
 30
0.0
 11
183.0999999999999943
 21
-22.3180000000000014
 31
0.0
  0
LINE
  5
8B
100
AcDbEntity
100
AcDbLine
  8
0
 62
256
370
-1
  6
ByLayer
 10
183.0999999999999943
 20
-22.3180000000000014
 30
0.0
 11
183.4660000000000082
 21
-22.661999999999999
 31
0.0
  0
LINE
  5
8C
100
AcDbEntity
100
AcDbLine
  8
0
 62
256
370
-1
  6
ByLayer
 10
183.4660000000000082
 20
-22.661999999999999
 30
0.0
 11
183.7860000000000014
 21
-23.0489999999999995
 31
0.0
  0
LINE
  5
8D
100
AcDbEntity
100
AcDbLine
  8
0
 62
256
370
-1
  6
ByLayer
 10
183.7860000000000014
 20
-23.0489999999999995
 30
0.0
 11
184.0550000000000068
 21
-23.472999999999999
 31
0.0
  0
LINE
  5
8E
100
AcDbEntity
100
AcDbLine
  8
0
 62
256
370
-1
  6
ByLayer
 10
184.0550000000000068
 20
-23.472999999999999
 30
0.0
 11
184.2690000000000055
 21
-23.9280000000000008
 31
0.0
  0
LINE
  5
8F
100
AcDbEntity
100
AcDbLine
  8
0
 62
256
370
-1
  6
ByLayer
 10
184.2690000000000055
 20
-23.9280000000000008
 30
0.0
 11
184.4240000000000066
 21
-24.4050000000000011
 31
0.0
  0
LINE
  5
90
100
AcDbEntity
100
AcDbLine
  8
0
 62
256
370
-1
  6
ByLayer
 10
184.4240000000000066
 20
-24.4050000000000011
 30
0.0
 11
184.5180000000000007
 21
-24.8990000000000009
 31
0.0
  0
LINE
  5
91
100
AcDbEntity
100
AcDbLine
  8
0
 62
256
370
-1
  6
ByLayer
 10
184.5180000000000007
 20
-24.8990000000000009
 30
0.0
 11
184.5500000000000114
 21
-25.3999999999999986
 31
0.0
  0
LINE
  5
92
100
AcDbEntity
100
AcDbLine
  8
0
 62
256
370
-1
  6
ByLayer
 10
184.5500000000000114
 20
-25.3999999999999986
 30
0.0
 11
184.5180000000000007
 21
-25.9009999999999998
 31
0.0
  0
LINE
  5
93
100
AcDbEntity
100
AcDbLine
  8
0
 62
256
370
-1
  6
ByLayer
 10
184.5180000000000007
 20
-25.9009999999999998
 30
0.0
 11
184.4240000000000066
 21
-26.3949999999999996
 31
0.0
  0
LINE
  5
94
100
AcDbEntity
100
AcDbLine
  8
0
 62
256
370
-1
  6
ByLayer
 10
184.4240000000000066
 20
-26.3949999999999996
 30
0.0
 11
184.2690000000000055
 21
-26.8719999999999999
 31
0.0
  0
LINE
  5
95
100
AcDbEntity
100
AcDbLine
  8
0
 62
256
370
-1
  6
ByLayer
 10
184.2690000000000055
 20
-26.8719999999999999
 30
0.0
 11
184.0550000000000068
 21
-27.3270000000000017
 31
0.0
  0
LINE
  5
96
100
AcDbEntity
100
AcDbLine
  8
0
 62
256
370
-1
  6
ByLayer
 10
184.0550000000000068
 20
-27.3270000000000017
 30
0.0
 11
183.7860000000000014
 21
-27.7510000000000012
 31
0.0
  0
LINE
  5
97
100
AcDbEntity
100
AcDbLine
  8
0
 62
256
370
-1
  6
ByLayer
 10
183.7860000000000014
 20
-27.7510000000000012
 30
0.0
 11
183.4660000000000082
 21
-28.1380000000000017
 31
0.0
  0
LINE
  5
98
100
AcDbEntity
100
AcDbLine
  8
0
 62
256
370
-1
  6
ByLayer
 10
183.4660000000000082
 20
-28.1380000000000017
 30
0.0
 11
183.0999999999999943
 21
-28.4819999999999993
 31
0.0
  0
LINE
  5
99
100
AcDbEntity
100
AcDbLine
  8
0
 62
256
370
-1
  6
ByLayer
 10
183.0999999999999943
 20
-28.4819999999999993
 30
0.0
 11
182.6930000000000121
 21
-28.777000000000001
 31
0.0
  0
LINE
  5
9A
100
AcDbEntity
100
AcDbLine
  8
0
 62
256
370
-1
  6
ByLayer
 10
182.6930000000000121
 20
-28.777000000000001
 30
0.0
 11
182.2529999999999859
 21
-29.0189999999999984
 31
0.0
  0
LINE
  5
9B
100
AcDbEntity
100
AcDbLine
  8
0
 62
256
370
-1
  6
ByLayer
 10
182.2529999999999859
 20
-29.0189999999999984
 30
0.0
 11
181.7860000000000014
 21
-29.2040000000000006
 31
0.0
  0
LINE
  5
9C
100
AcDbEntity
100
AcDbLine
  8
0
 62
256
370
-1
  6
ByLayer
 10
181.7860000000000014
 20
-29.2040000000000006
 30
0.0
 11
181.3000000000000114
 21
-29.3290000000000006
 31
0.0
  0
LINE
  5
9D
100
AcDbEntity
100
AcDbLine
  8
0
 62
256
370
-1
  6
ByLayer
 10
181.3000000000000114
 20
-29.3290000000000006
 30
0.0
 11
180.8009999999999877
 21
-29.3919999999999995
 31
0.0
  0
LINE
  5
9E
100
AcDbEntity
100
AcDbLine
  8
0
 62
256
370
-1
  6
ByLayer
 10
180.8009999999999877
 20
-29.3919999999999995
 30
0.0
 11
180.2990000000000066
 21
-29.3919999999999995
 31
0.0
  0
LINE
  5
9F
100
AcDbEntity
100
AcDbLine
  8
0
 62
256
370
-1
  6
ByLayer
 10
180.2990000000000066
 20
-29.3919999999999995
 30
0.0
 11
179.8000000000000114
 21
-29.3290000000000006
 31
0.0
  0
LINE
  5
A0
100
AcDbEntity
100
AcDbLine
  8
0
 62
256
370
-1
  6
ByLayer
 10
179.8000000000000114
 20
-29.3290000000000006
 30
0.0
 11
179.313999999999993
 21
-29.2040000000000006
 31
0.0
  0
LINE
  5
A1
100
AcDbEntity
100
AcDbLine
  8
0
 62
256
370
-1
  6
ByLayer
 10
179.313999999999993
 20
-29.2040000000000006
 30
0.0
 11
178.8470000000000084
 21
-29.0189999999999984
 31
0.0
  0
LINE
  5
A2
100
AcDbEntity
100
AcDbLine
  8
0
 62
256
370
-1
  6
ByLayer
 10
178.8470000000000084
 20
-29.0189999999999984
 30
0.0
 11
178.4070000000000107
 21
-28.777000000000001
 31
0.0
  0
LINE
  5
A3
100
AcDbEntity
100
AcDbLine
  8
0
 62
256
370
-1
  6
ByLayer
 10
178.4070000000000107
 20
-28.777000000000001
 30
0.0
 11
178.0
 21
-28.4819999999999993
 31
0.0
  0
LINE
  5
A4
100
AcDbEntity
100
AcDbLine
  8
0
 62
256
370
-1
  6
ByLayer
 10
178.0
 20
-28.4819999999999993
 30
0.0
 11
177.6339999999999861
 21
-28.1380000000000017
 31
0.0
  0
LINE
  5
A5
100
AcDbEntity
100
AcDbLine
  8
0
 62
256
370
-1
  6
ByLayer
 10
177.6339999999999861
 20
-28.1380000000000017
 30
0.0
 11
177.313999999999993
 21
-27.7510000000000012
 31
0.0
  0
LINE
  5
A6
100
AcDbEntity
100
AcDbLine
  8
0
 62
256
370
-1
  6
ByLayer
 10
177.313999999999993
 20
-27.7510000000000012
 30
0.0
 11
177.0449999999999875
 21
-27.3270000000000017
 31
0.0
  0
LINE
  5
A7
100
AcDbEntity
100
AcDbLine
  8
0
 62
256
370
-1
  6
ByLayer
 10
177.0449999999999875
 20
-27.3270000000000017
 30
0.0
 11
176.8309999999999889
 21
-26.8719999999999999
 31
0.0
  0
LINE
  5
A8
100
AcDbEntity
100
AcDbLine
  8
0
 62
256
370
-1
  6
ByLayer
 10
176.8309999999999889
 20
-26.8719999999999999
 30
0.0
 11
176.6759999999999877
 21
-26.3949999999999996
 31
0.0
  0
LINE
  5
A9
100
AcDbEntity
100
AcDbLine
  8
0
 62
256
370
-1
  6
ByLayer
 10
176.6759999999999877
 20
-26.3949999999999996
 30
0.0
 11
176.5819999999999936
 21
-25.9009999999999998
 31
0.0
  0
LINE
  5
AA
100
AcDbEntity
100
AcDbLine
  8
0
 62
256
370
-1
  6
ByLayer
 10
176.5819999999999936
 20
-25.9009999999999998
 30
0.0
 11
176.5500000000000114
 21
-25.3999999999999986
 31
0.0
  0
LINE
  5
AB
100
AcDbEntity
100
AcDbLine
  8
0
 62
256
370
-1
  6
ByLayer
 10
176.5500000000000114
 20
0.0
 30
0.0
 11
176.5819999999999936
 21
0.501
 31
0.0
  0
LINE
  5
AC
100
AcDbEntity
100
AcDbLine
  8
0
 62
256
370
-1
  6
ByLayer
 10
176.5819999999999936
 20
0.501
 30
0.0
 11
176.6759999999999877
 21
0.995
 31
0.0
  0
LINE
  5
AD
100
AcDbEntity
100
AcDbLine
  8
0
 62
256
370
-1
  6
ByLayer
 10
176.6759999999999877
 20
0.995
 30
0.0
 11
176.8309999999999889
 21
1.472
 31
0.0
  0
LINE
  5
AE
100
AcDbEntity
100
AcDbLine
  8
0
 62
256
370
-1
  6
ByLayer
 10
176.8309999999999889
 20
1.472
 30
0.0
 11
177.0449999999999875
 21
1.927
 31
0.0
  0
LINE
  5
AF
100
AcDbEntity
100
AcDbLine
  8
0
 62
256
370
-1
  6
ByLayer
 10
177.0449999999999875
 20
1.927
 30
0.0
 11
177.313999999999993
 21
2.351
 31
0.0
  0
LINE
  5
B0
100
AcDbEntity
100
AcDbLine
  8
0
 62
256
370
-1
  6
ByLayer
 10
177.313999999999993
 20
2.351
 30
0.0
 11
177.6339999999999861
 21
2.738
 31
0.0
  0
LINE
  5
B1
100
AcDbEntity
100
AcDbLine
  8
0
 62
256
370
-1
  6
ByLayer
 10
177.6339999999999861
 20
2.738
 30
0.0
 11
178.0
 21
3.0819999999999999
 31
0.0
  0
LINE
  5
B2
100
AcDbEntity
100
AcDbLine
  8
0
 62
256
370
-1
  6
ByLayer
 10
178.0
 20
3.0819999999999999
 30
0.0
 11
178.4070000000000107
 21
3.3769999999999998
 31
0.0
  0
LINE
  5
B3
100
AcDbEntity
100
AcDbLine
  8
0
 62
256
370
-1
  6
ByLayer
 10
178.4070000000000107
 20
3.3769999999999998
 30
0.0
 11
178.8470000000000084
 21
3.6190000000000002
 31
0.0
  0
LINE
  5
B4
100
AcDbEntity
100
AcDbLine
  8
0
 62
256
370
-1
  6
ByLayer
 10
178.8470000000000084
 20
3.6190000000000002
 30
0.0
 11
179.313999999999993
 21
3.8039999999999998
 31
0.0
  0
LINE
  5
B5
100
AcDbEntity
100
AcDbLine
  8
0
 62
256
370
-1
  6
ByLayer
 10
179.313999999999993
 20
3.8039999999999998
 30
0.0
 11
179.8000000000000114
 21
3.9289999999999998
 31
0.0
  0
LINE
  5
B6
100
AcDbEntity
100
AcDbLine
  8
0
 62
256
370
-1
  6
ByLayer
 10
179.8000000000000114
 20
3.9289999999999998
 30
0.0
 11
180.2990000000000066
 21
3.992
 31
0.0
  0
LINE
  5
B7
100
AcDbEntity
100
AcDbLine
  8
0
 62
256
370
-1
  6
ByLayer
 10
180.2990000000000066
 20
3.992
 30
0.0
 11
180.8009999999999877
 21
3.992
 31
0.0
  0
LINE
  5
B8
100
AcDbEntity
100
AcDbLine
  8
0
 62
256
370
-1
  6
ByLayer
 10
180.8009999999999877
 20
3.992
 30
0.0
 11
181.3000000000000114
 21
3.9289999999999998
 31
0.0
  0
LINE
  5
B9
100
AcDbEntity
100
AcDbLine
  8
0
 62
256
370
-1
  6
ByLayer
 10
181.3000000000000114
 20
3.9289999999999998
 30
0.0
 11
181.7860000000000014
 21
3.8039999999999998
 31
0.0
  0
LINE
  5
BA
100
AcDbEntity
100
AcDbLine
  8
0
 62
256
370
-1
  6
ByLayer
 10
181.7860000000000014
 20
3.8039999999999998
 30
0.0
 11
182.2529999999999859
 21
3.6190000000000002
 31
0.0
  0
LINE
  5
BB
100
AcDbEntity
100
AcDbLine
  8
0
 62
256
370
-1
  6
ByLayer
 10
182.2529999999999859
 20
3.6190000000000002
 30
0.0
 11
182.6930000000000121
 21
3.3769999999999998
 31
0.0
  0
LINE
  5
BC
100
AcDbEntity
100
AcDbLine
  8
0
 62
256
370
-1
  6
ByLayer
 10
182.6930000000000121
 20
3.3769999999999998
 30
0.0
 11
183.0999999999999943
 21
3.0819999999999999
 31
0.0
  0
LINE
  5
BD
100
AcDbEntity
100
AcDbLine
  8
0
 62
256
370
-1
  6
ByLayer
 10
183.0999999999999943
 20
3.0819999999999999
 30
0.0
 11
183.4660000000000082
 21
2.738
 31
0.0
  0
LINE
  5
BE
100
AcDbEntity
100
AcDbLine
  8
0
 62
256
370
-1
  6
ByLayer
 10
183.4660000000000082
 20
2.738
 30
0.0
 11
183.7860000000000014
 21
2.351
 31
0.0
  0
LINE
  5
BF
100
AcDbEntity
100
AcDbLine
  8
0
 62
256
370
-1
  6
ByLayer
 10
183.7860000000000014
 20
2.351
 30
0.0
 11
184.0550000000000068
 21
1.927
 31
0.0
  0
LINE
  5
C0
100
AcDbEntity
100
AcDbLine
  8
0
 62
256
370
-1
  6
ByLayer
 10
184.0550000000000068
 20
1.927
 30
0.0
 11
184.2690000000000055
 21
1.472
 31
0.0
  0
LINE
  5
C1
100
AcDbEntity
100
AcDbLine
  8
0
 62
256
370
-1
  6
ByLayer
 10
184.2690000000000055
 20
1.472
 30
0.0
 11
184.4240000000000066
 21
0.995
 31
0.0
  0
LINE
  5
C2
100
AcDbEntity
100
AcDbLine
  8
0
 62
256
370
-1
  6
ByLayer
 10
184.4240000000000066
 20
0.995
 30
0.0
 11
184.5180000000000007
 21
0.501
 31
0.0
  0
LINE
  5
C3
100
AcDbEntity
100
AcDbLine
  8
0
 62
256
370
-1
  6
ByLayer
 10
184.5180000000000007
 20
0.501
 30
0.0
 11
184.5500000000000114
 21
0.0
 31
0.0
  0
LINE
  5
C4
100
AcDbEntity
100
AcDbLine
  8
0
 62
256
370
-1
  6
ByLayer
 10
184.5500000000000114
 20
0.0
 30
0.0
 11
184.5180000000000007
 21
-0.501
 31
0.0
  0
LINE
  5
C5
100
AcDbEntity
100
AcDbLine
  8
0
 62
256
370
-1
  6
ByLayer
 10
184.5180000000000007
 20
-0.501
 30
0.0
 11
184.4240000000000066
 21
-0.995
 31
0.0
  0
LINE
  5
C6
100
AcDbEntity
100
AcDbLine
  8
0
 62
256
370
-1
  6
ByLayer
 10
184.4240000000000066
 20
-0.995
 30
0.0
 11
184.2690000000000055
 21
-1.472
 31
0.0
  0
LINE
  5
C7
100
AcDbEntity
100
AcDbLine
  8
0
 62
256
370
-1
  6
ByLayer
 10
184.2690000000000055
 20
-1.472
 30
0.0
 11
184.0550000000000068
 21
-1.927
 31
0.0
  0
LINE
  5
C8
100
AcDbEntity
100
AcDbLine
  8
0
 62
256
370
-1
  6
ByLayer
 10
184.0550000000000068
 20
-1.927
 30
0.0
 11
183.7860000000000014
 21
-2.351
 31
0.0
  0
LINE
  5
C9
100
AcDbEntity
100
AcDbLine
  8
0
 62
256
370
-1
  6
ByLayer
 10
183.7860000000000014
 20
-2.351
 30
0.0
 11
183.4660000000000082
 21
-2.738
 31
0.0
  0
LINE
  5
CA
100
AcDbEntity
100
AcDbLine
  8
0
 62
256
370
-1
  6
ByLayer
 10
183.4660000000000082
 20
-2.738
 30
0.0
 11
183.0999999999999943
 21
-3.0819999999999999
 31
0.0
  0
LINE
  5
CB
100
AcDbEntity
100
AcDbLine
  8
0
 62
256
370
-1
  6
ByLayer
 10
183.0999999999999943
 20
-3.0819999999999999
 30
0.0
 11
182.6930000000000121
 21
-3.3769999999999998
 31
0.0
  0
LINE
  5
CC
100
AcDbEntity
100
AcDbLine
  8
0
 62
256
370
-1
  6
ByLayer
 10
182.6930000000000121
 20
-3.3769999999999998
 30
0.0
 11
182.2529999999999859
 21
-3.6190000000000002
 31
0.0
  0
LINE
  5
CD
100
AcDbEntity
100
AcDbLine
  8
0
 62
256
370
-1
  6
ByLayer
 10
182.2529999999999859
 20
-3.6190000000000002
 30
0.0
 11
181.7860000000000014
 21
-3.8039999999999998
 31
0.0
  0
LINE
  5
CE
100
AcDbEntity
100
AcDbLine
  8
0
 62
256
370
-1
  6
ByLayer
 10
181.7860000000000014
 20
-3.8039999999999998
 30
0.0
 11
181.3000000000000114
 21
-3.9289999999999998
 31
0.0
  0
LINE
  5
CF
100
AcDbEntity
100
AcDbLine
  8
0
 62
256
370
-1
  6
ByLayer
 10
181.3000000000000114
 20
-3.9289999999999998
 30
0.0
 11
180.8009999999999877
 21
-3.992
 31
0.0
  0
LINE
  5
D0
100
AcDbEntity
100
AcDbLine
  8
0
 62
256
370
-1
  6
ByLayer
 10
180.8009999999999877
 20
-3.992
 30
0.0
 11
180.2990000000000066
 21
-3.992
 31
0.0
  0
LINE
  5
D1
100
AcDbEntity
100
AcDbLine
  8
0
 62
256
370
-1
  6
ByLayer
 10
180.2990000000000066
 20
-3.992
 30
0.0
 11
179.8000000000000114
 21
-3.9289999999999998
 31
0.0
  0
LINE
  5
D2
100
AcDbEntity
100
AcDbLine
  8
0
 62
256
370
-1
  6
ByLayer
 10
179.8000000000000114
 20
-3.9289999999999998
 30
0.0
 11
179.313999999999993
 21
-3.8039999999999998
 31
0.0
  0
LINE
  5
D3
100
AcDbEntity
100
AcDbLine
  8
0
 62
256
370
-1
  6
ByLayer
 10
179.313999999999993
 20
-3.8039999999999998
 30
0.0
 11
178.8470000000000084
 21
-3.6190000000000002
 31
0.0
  0
LINE
  5
D4
100
AcDbEntity
100
AcDbLine
  8
0
 62
256
370
-1
  6
ByLayer
 10
178.8470000000000084
 20
-3.6190000000000002
 30
0.0
 11
178.4070000000000107
 21
-3.3769999999999998
 31
0.0
  0
LINE
  5
D5
100
AcDbEntity
100
AcDbLine
  8
0
 62
256
370
-1
  6
ByLayer
 10
178.4070000000000107
 20
-3.3769999999999998
 30
0.0
 11
178.0
 21
-3.0819999999999999
 31
0.0
  0
LINE
  5
D6
100
AcDbEntity
100
AcDbLine
  8
0
 62
256
370
-1
  6
ByLayer
 10
178.0
 20
-3.0819999999999999
 30
0.0
 11
177.6339999999999861
 21
-2.738
 31
0.0
  0
LINE
  5
D7
100
AcDbEntity
100
AcDbLine
  8
0
 62
256
370
-1
  6
ByLayer
 10
177.6339999999999861
 20
-2.738
 30
0.0
 11
177.313999999999993
 21
-2.351
 31
0.0
  0
LINE
  5
D8
100
AcDbEntity
100
AcDbLine
  8
0
 62
256
370
-1
  6
ByLayer
 10
177.313999999999993
 20
-2.351
 30
0.0
 11
177.0449999999999875
 21
-1.927
 31
0.0
  0
LINE
  5
D9
100
AcDbEntity
100
AcDbLine
  8
0
 62
256
370
-1
  6
ByLayer
 10
177.0449999999999875
 20
-1.927
 30
0.0
 11
176.8309999999999889
 21
-1.472
 31
0.0
  0
LINE
  5
DA
100
AcDbEntity
100
AcDbLine
  8
0
 62
256
370
-1
  6
ByLayer
 10
176.8309999999999889
 20
-1.472
 30
0.0
 11
176.6759999999999877
 21
-0.995
 31
0.0
  0
LINE
  5
DB
100
AcDbEntity
100
AcDbLine
  8
0
 62
256
370
-1
  6
ByLayer
 10
176.6759999999999877
 20
-0.995
 30
0.0
 11
176.5819999999999936
 21
-0.501
 31
0.0
  0
LINE
  5
DC
100
AcDbEntity
100
AcDbLine
  8
0
 62
256
370
-1
  6
ByLayer
 10
176.5819999999999936
 20
-0.501
 30
0.0
 11
176.5500000000000114
 21
0.0
 31
0.0
  0
LINE
  5
DD
100
AcDbEntity
100
AcDbLine
  8
0
 62
256
370
-1
  6
ByLayer
 10
176.5500000000000114
 20
25.3999999999999986
 30
0.0
 11
176.5819999999999936
 21
25.9009999999999998
 31
0.0
  0
LINE
  5
DE
100
AcDbEntity
100
AcDbLine
  8
0
 62
256
370
-1
  6
ByLayer
 10
176.5819999999999936
 20
25.9009999999999998
 30
0.0
 11
176.6759999999999877
 21
26.3949999999999996
 31
0.0
  0
LINE
  5
DF
100
AcDbEntity
100
AcDbLine
  8
0
 62
256
370
-1
  6
ByLayer
 10
176.6759999999999877
 20
26.3949999999999996
 30
0.0
 11
176.8309999999999889
 21
26.8719999999999999
 31
0.0
  0
LINE
  5
E0
100
AcDbEntity
100
AcDbLine
  8
0
 62
256
370
-1
  6
ByLayer
 10
176.8309999999999889
 20
26.8719999999999999
 30
0.0
 11
177.0449999999999875
 21
27.3270000000000017
 31
0.0
  0
LINE
  5
E1
100
AcDbEntity
100
AcDbLine
  8
0
 62
256
370
-1
  6
ByLayer
 10
177.0449999999999875
 20
27.3270000000000017
 30
0.0
 11
177.313999999999993
 21
27.7510000000000012
 31
0.0
  0
LINE
  5
E2
100
AcDbEntity
100
AcDbLine
  8
0
 62
256
370
-1
  6
ByLayer
 10
177.313999999999993
 20
27.7510000000000012
 30
0.0
 11
177.6339999999999861
 21
28.1380000000000017
 31
0.0
  0
LINE
  5
E3
100
AcDbEntity
100
AcDbLine
  8
0
 62
256
370
-1
  6
ByLayer
 10
177.6339999999999861
 20
28.1380000000000017
 30
0.0
 11
178.0
 21
28.4819999999999993
 31
0.0
  0
LINE
  5
E4
100
AcDbEntity
100
AcDbLine
  8
0
 62
256
370
-1
  6
ByLayer
 10
178.0
 20
28.4819999999999993
 30
0.0
 11
178.4070000000000107
 21
28.777000000000001
 31
0.0
  0
LINE
  5
E5
100
AcDbEntity
100
AcDbLine
  8
0
 62
256
370
-1
  6
ByLayer
 10
178.4070000000000107
 20
28.777000000000001
 30
0.0
 11
178.8470000000000084
 21
29.0189999999999984
 31
0.0
  0
LINE
  5
E6
100
AcDbEntity
100
AcDbLine
  8
0
 62
256
370
-1
  6
ByLayer
 10
178.8470000000000084
 20
29.0189999999999984
 30
0.0
 11
179.313999999999993
 21
29.2040000000000006
 31
0.0
  0
LINE
  5
E7
100
AcDbEntity
100
AcDbLine
  8
0
 62
256
370
-1
  6
ByLayer
 10
179.313999999999993
 20
29.2040000000000006
 30
0.0
 11
179.8000000000000114
 21
29.3290000000000006
 31
0.0
  0
LINE
  5
E8
100
AcDbEntity
100
AcDbLine
  8
0
 62
256
370
-1
  6
ByLayer
 10
179.8000000000000114
 20
29.3290000000000006
 30
0.0
 11
180.2990000000000066
 21
29.3919999999999995
 31
0.0
  0
LINE
  5
E9
100
AcDbEntity
100
AcDbLine
  8
0
 62
256
370
-1
  6
ByLayer
 10
180.2990000000000066
 20
29.3919999999999995
 30
0.0
 11
180.8009999999999877
 21
29.3919999999999995
 31
0.0
  0
LINE
  5
EA
100
AcDbEntity
100
AcDbLine
  8
0
 62
256
370
-1
  6
ByLayer
 10
180.8009999999999877
 20
29.3919999999999995
 30
0.0
 11
181.3000000000000114
 21
29.3290000000000006
 31
0.0
  0
LINE
  5
EB
100
AcDbEntity
100
AcDbLine
  8
0
 62
256
370
-1
  6
ByLayer
 10
181.3000000000000114
 20
29.3290000000000006
 30
0.0
 11
181.7860000000000014
 21
29.2040000000000006
 31
0.0
  0
LINE
  5
EC
100
AcDbEntity
100
AcDbLine
  8
0
 62
256
370
-1
  6
ByLayer
 10
181.7860000000000014
 20
29.2040000000000006
 30
0.0
 11
182.2529999999999859
 21
29.0189999999999984
 31
0.0
  0
LINE
  5
ED
100
AcDbEntity
100
AcDbLine
  8
0
 62
256
370
-1
  6
ByLayer
 10
182.2529999999999859
 20
29.0189999999999984
 30
0.0
 11
182.6930000000000121
 21
28.777000000000001
 31
0.0
  0
LINE
  5
EE
100
AcDbEntity
100
AcDbLine
  8
0
 62
256
370
-1
  6
ByLayer
 10
182.6930000000000121
 20
28.777000000000001
 30
0.0
 11
183.0999999999999943
 21
28.4819999999999993
 31
0.0
  0
LINE
  5
EF
100
AcDbEntity
100
AcDbLine
  8
0
 62
256
370
-1
  6
ByLayer
 10
183.0999999999999943
 20
28.4819999999999993
 30
0.0
 11
183.4660000000000082
 21
28.1380000000000017
 31
0.0
  0
LINE
  5
F0
100
AcDbEntity
100
AcDbLine
  8
0
 62
256
370
-1
  6
ByLayer
 10
183.4660000000000082
 20
28.1380000000000017
 30
0.0
 11
183.7860000000000014
 21
27.7510000000000012
 31
0.0
  0
LINE
  5
F1
100
AcDbEntity
100
AcDbLine
  8
0
 62
256
370
-1
  6
ByLayer
 10
183.7860000000000014
 20
27.7510000000000012
 30
0.0
 11
184.0550000000000068
 21
27.3270000000000017
 31
0.0
  0
LINE
  5
F2
100
AcDbEntity
100
AcDbLine
  8
0
 62
256
370
-1
  6
ByLayer
 10
184.0550000000000068
 20
27.3270000000000017
 30
0.0
 11
184.2690000000000055
 21
26.8719999999999999
 31
0.0
  0
LINE
  5
F3
100
AcDbEntity
100
AcDbLine
  8
0
 62
256
370
-1
  6
ByLayer
 10
184.2690000000000055
 20
26.8719999999999999
 30
0.0
 11
184.4240000000000066
 21
26.3949999999999996
 31
0.0
  0
LINE
  5
F4
100
AcDbEntity
100
AcDbLine
  8
0
 62
256
370
-1
  6
ByLayer
 10
184.4240000000000066
 20
26.3949999999999996
 30
0.0
 11
184.5180000000000007
 21
25.9009999999999998
 31
0.0
  0
LINE
  5
F5
100
AcDbEntity
100
AcDbLine
  8
0
 62
256
370
-1
  6
ByLayer
 10
184.5180000000000007
 20
25.9009999999999998
 30
0.0
 11
184.5500000000000114
 21
25.3999999999999986
 31
0.0
  0
LINE
  5
F6
100
AcDbEntity
100
AcDbLine
  8
0
 62
256
370
-1
  6
ByLayer
 10
184.5500000000000114
 20
25.3999999999999986
 30
0.0
 11
184.5180000000000007
 21
24.8990000000000009
 31
0.0
  0
LINE
  5
F7
100
AcDbEntity
100
AcDbLine
  8
0
 62
256
370
-1
  6
ByLayer
 10
184.5180000000000007
 20
24.8990000000000009
 30
0.0
 11
184.4240000000000066
 21
24.4050000000000011
 31
0.0
  0
LINE
  5
F8
100
AcDbEntity
100
AcDbLine
  8
0
 62
256
370
-1
  6
ByLayer
 10
184.4240000000000066
 20
24.4050000000000011
 30
0.0
 11
184.2690000000000055
 21
23.9280000000000008
 31
0.0
  0
LINE
  5
F9
100
AcDbEntity
100
AcDbLine
  8
0
 62
256
370
-1
  6
ByLayer
 10
184.2690000000000055
 20
23.9280000000000008
 30
0.0
 11
184.0550000000000068
 21
23.472999999999999
 31
0.0
  0
LINE
  5
FA
100
AcDbEntity
100
AcDbLine
  8
0
 62
256
370
-1
  6
ByLayer
 10
184.0550000000000068
 20
23.472999999999999
 30
0.0
 11
183.7860000000000014
 21
23.0489999999999995
 31
0.0
  0
LINE
  5
FB
100
AcDbEntity
100
AcDbLine
  8
0
 62
256
370
-1
  6
ByLayer
 10
183.7860000000000014
 20
23.0489999999999995
 30
0.0
 11
183.4660000000000082
 21
22.661999999999999
 31
0.0
  0
LINE
  5
FC
100
AcDbEntity
100
AcDbLine
  8
0
 62
256
370
-1
  6
ByLayer
 10
183.4660000000000082
 20
22.661999999999999
 30
0.0
 11
183.0999999999999943
 21
22.3180000000000014
 31
0.0
  0
LINE
  5
FD
100
AcDbEntity
100
AcDbLine
  8
0
 62
256
370
-1
  6
ByLayer
 10
183.0999999999999943
 20
22.3180000000000014
 30
0.0
 11
182.6930000000000121
 21
22.0229999999999997
 31
0.0
  0
LINE
  5
FE
100
AcDbEntity
100
AcDbLine
  8
0
 62
256
370
-1
  6
ByLayer
 10
182.6930000000000121
 20
22.0229999999999997
 30
0.0
 11
182.2529999999999859
 21
21.7809999999999988
 31
0.0
  0
LINE
  5
FF
100
AcDbEntity
100
AcDbLine
  8
0
 62
256
370
-1
  6
ByLayer
 10
182.2529999999999859
 20
21.7809999999999988
 30
0.0
 11
181.7860000000000014
 21
21.5960000000000001
 31
0.0
  0
LINE
  5
100
100
AcDbEntity
100
AcDbLine
  8
0
 62
256
370
-1
  6
ByLayer
 10
181.7860000000000014
 20
21.5960000000000001
 30
0.0
 11
181.3000000000000114
 21
21.4710000000000001
 31
0.0
  0
LINE
  5
101
100
AcDbEntity
100
AcDbLine
  8
0
 62
256
370
-1
  6
ByLayer
 10
181.3000000000000114
 20
21.4710000000000001
 30
0.0
 11
180.8009999999999877
 21
21.4080000000000013
 31
0.0
  0
LINE
  5
102
100
AcDbEntity
100
AcDbLine
  8
0
 62
256
370
-1
  6
ByLayer
 10
180.8009999999999877
 20
21.4080000000000013
 30
0.0
 11
180.2990000000000066
 21
21.4080000000000013
 31
0.0
  0
LINE
  5
103
100
AcDbEntity
100
AcDbLine
  8
0
 62
256
370
-1
  6
ByLayer
 10
180.2990000000000066
 20
21.4080000000000013
 30
0.0
 11
179.8000000000000114
 21
21.4710000000000001
 31
0.0
  0
LINE
  5
104
100
AcDbEntity
100
AcDbLine
  8
0
 62
256
370
-1
  6
ByLayer
 10
179.8000000000000114
 20
21.4710000000000001
 30
0.0
 11
179.313999999999993
 21
21.5960000000000001
 31
0.0
  0
LINE
  5
105
100
AcDbEntity
100
AcDbLine
  8
0
 62
256
370
-1
  6
ByLayer
 10
179.313999999999993
 20
21.5960000000000001
 30
0.0
 11
178.8470000000000084
 21
21.7809999999999988
 31
0.0
  0
LINE
  5
106
100
AcDbEntity
100
AcDbLine
  8
0
 62
256
370
-1
  6
ByLayer
 10
178.8470000000000084
 20
21.7809999999999988
 30
0.0
 11
178.4070000000000107
 21
22.0229999999999997
 31
0.0
  0
LINE
  5
107
100
AcDbEntity
100
AcDbLine
  8
0
 62
256
370
-1
  6
ByLayer
 10
178.4070000000000107
 20
22.0229999999999997
 30
0.0
 11
178.0
 21
22.3180000000000014
 31
0.0
  0
LINE
  5
108
100
AcDbEntity
100
AcDbLine
  8
0
 62
256
370
-1
  6
ByLayer
 10
178.0
 20
22.3180000000000014
 30
0.0
 11
177.6339999999999861
 21
22.661999999999999
 31
0.0
  0
LINE
  5
109
100
AcDbEntity
100
AcDbLine
  8
0
 62
256
370
-1
  6
ByLayer
 10
177.6339999999999861
 20
22.661999999999999
 30
0.0
 11
177.313999999999993
 21
23.0489999999999995
 31
0.0
  0
LINE
  5
10A
100
AcDbEntity
100
AcDbLine
  8
0
 62
256
370
-1
  6
ByLayer
 10
177.313999999999993
 20
23.0489999999999995
 30
0.0
 11
177.0449999999999875
 21
23.472999999999999
 31
0.0
  0
LINE
  5
10B
100
AcDbEntity
100
AcDbLine
  8
0
 62
256
370
-1
  6
ByLayer
 10
177.0449999999999875
 20
23.472999999999999
 30
0.0
 11
176.8309999999999889
 21
23.9280000000000008
 31
0.0
  0
LINE
  5
10C
100
AcDbEntity
100
AcDbLine
  8
0
 62
256
370
-1
  6
ByLayer
 10
176.8309999999999889
 20
23.9280000000000008
 30
0.0
 11
176.6759999999999877
 21
24.4050000000000011
 31
0.0
  0
LINE
  5
10D
100
AcDbEntity
100
AcDbLine
  8
0
 62
256
370
-1
  6
ByLayer
 10
176.6759999999999877
 20
24.4050000000000011
 30
0.0
 11
176.5819999999999936
 21
24.8990000000000009
 31
0.0
  0
LINE
  5
10E
100
AcDbEntity
100
AcDbLine
  8
0
 62
256
370
-1
  6
ByLayer
 10
176.5819999999999936
 20
24.8990000000000009
 30
0.0
 11
176.5500000000000114
 21
25.3999999999999986
 31
0.0
  0
LINE
  5
10F
100
AcDbEntity
100
AcDbLine
  8
0
 62
256
370
-1
  6
ByLayer
 10
176.5500000000000114
 20
50.7999999999999972
 30
0.0
 11
176.5819999999999936
 21
51.3010000000000019
 31
0.0
  0
LINE
  5
110
100
AcDbEntity
100
AcDbLine
  8
0
 62
256
370
-1
  6
ByLayer
 10
176.5819999999999936
 20
51.3010000000000019
 30
0.0
 11
176.6759999999999877
 21
51.7950000000000017
 31
0.0
  0
LINE
  5
111
100
AcDbEntity
100
AcDbLine
  8
0
 62
256
370
-1
  6
ByLayer
 10
176.6759999999999877
 20
51.7950000000000017
 30
0.0
 11
176.8309999999999889
 21
52.2719999999999985
 31
0.0
  0
LINE
  5
112
100
AcDbEntity
100
AcDbLine
  8
0
 62
256
370
-1
  6
ByLayer
 10
176.8309999999999889
 20
52.2719999999999985
 30
0.0
 11
177.0449999999999875
 21
52.7269999999999968
 31
0.0
  0
LINE
  5
113
100
AcDbEntity
100
AcDbLine
  8
0
 62
256
370
-1
  6
ByLayer
 10
177.0449999999999875
 20
52.7269999999999968
 30
0.0
 11
177.313999999999993
 21
53.1510000000000034
 31
0.0
  0
LINE
  5
114
100
AcDbEntity
100
AcDbLine
  8
0
 62
256
370
-1
  6
ByLayer
 10
177.313999999999993
 20
53.1510000000000034
 30
0.0
 11
177.6339999999999861
 21
53.5379999999999967
 31
0.0
  0
LINE
  5
115
100
AcDbEntity
100
AcDbLine
  8
0
 62
256
370
-1
  6
ByLayer
 10
177.6339999999999861
 20
53.5379999999999967
 30
0.0
 11
178.0
 21
53.8819999999999979
 31
0.0
  0
LINE
  5
116
100
AcDbEntity
100
AcDbLine
  8
0
 62
256
370
-1
  6
ByLayer
 10
178.0
 20
53.8819999999999979
 30
0.0
 11
178.4070000000000107
 21
54.1769999999999996
 31
0.0
  0
LINE
  5
117
100
AcDbEntity
100
AcDbLine
  8
0
 62
256
370
-1
  6
ByLayer
 10
178.4070000000000107
 20
54.1769999999999996
 30
0.0
 11
178.8470000000000084
 21
54.4189999999999969
 31
0.0
  0
LINE
  5
118
100
AcDbEntity
100
AcDbLine
  8
0
 62
256
370
-1
  6
ByLayer
 10
178.8470000000000084
 20
54.4189999999999969
 30
0.0
 11
179.313999999999993
 21
54.6039999999999992
 31
0.0
  0
LINE
  5
119
100
AcDbEntity
100
AcDbLine
  8
0
 62
256
370
-1
  6
ByLayer
 10
179.313999999999993
 20
54.6039999999999992
 30
0.0
 11
179.8000000000000114
 21
54.7289999999999992
 31
0.0
  0
LINE
  5
11A
100
AcDbEntity
100
AcDbLine
  8
0
 62
256
370
-1
  6
ByLayer
 10
179.8000000000000114
 20
54.7289999999999992
 30
0.0
 11
180.2990000000000066
 21
54.7920000000000016
 31
0.0
  0
LINE
  5
11B
100
AcDbEntity
100
AcDbLine
  8
0
 62
256
370
-1
  6
ByLayer
 10
180.2990000000000066
 20
54.7920000000000016
 30
0.0
 11
180.8009999999999877
 21
54.7920000000000016
 31
0.0
  0
LINE
  5
11C
100
AcDbEntity
100
AcDbLine
  8
0
 62
256
370
-1
  6
ByLayer
 10
180.8009999999999877
 20
54.7920000000000016
 30
0.0
 11
181.3000000000000114
 21
54.7289999999999992
 31
0.0
  0
LINE
  5
11D
100
AcDbEntity
100
AcDbLine
  8
0
 62
256
370
-1
  6
ByLayer
 10
181.3000000000000114
 20
54.7289999999999992
 30
0.0
 11
181.7860000000000014
 21
54.6039999999999992
 31
0.0
  0
LINE
  5
11E
100
AcDbEntity
100
AcDbLine
  8
0
 62
256
370
-1
  6
ByLayer
 10
181.7860000000000014
 20
54.6039999999999992
 30
0.0
 11
182.2529999999999859
 21
54.4189999999999969
 31
0.0
  0
LINE
  5
11F
100
AcDbEntity
100
AcDbLine
  8
0
 62
256
370
-1
  6
ByLayer
 10
182.2529999999999859
 20
54.4189999999999969
 30
0.0
 11
182.6930000000000121
 21
54.1769999999999996
 31
0.0
  0
LINE
  5
120
100
AcDbEntity
100
AcDbLine
  8
0
 62
256
370
-1
  6
ByLayer
 10
182.6930000000000121
 20
54.1769999999999996
 30
0.0
 11
183.0999999999999943
 21
53.8819999999999979
 31
0.0
  0
LINE
  5
121
100
AcDbEntity
100
AcDbLine
  8
0
 62
256
370
-1
  6
ByLayer
 10
183.0999999999999943
 20
53.8819999999999979
 30
0.0
 11
183.4660000000000082
 21
53.5379999999999967
 31
0.0
  0
LINE
  5
122
100
AcDbEntity
100
AcDbLine
  8
0
 62
256
370
-1
  6
ByLayer
 10
183.4660000000000082
 20
53.5379999999999967
 30
0.0
 11
183.7860000000000014
 21
53.1510000000000034
 31
0.0
  0
LINE
  5
123
100
AcDbEntity
100
AcDbLine
  8
0
 62
256
370
-1
  6
ByLayer
 10
183.7860000000000014
 20
53.1510000000000034
 30
0.0
 11
184.0550000000000068
 21
52.7269999999999968
 31
0.0
  0
LINE
  5
124
100
AcDbEntity
100
AcDbLine
  8
0
 62
256
370
-1
  6
ByLayer
 10
184.0550000000000068
 20
52.7269999999999968
 30
0.0
 11
184.2690000000000055
 21
52.2719999999999985
 31
0.0
  0
LINE
  5
125
100
AcDbEntity
100
AcDbLine
  8
0
 62
256
370
-1
  6
ByLayer
 10
184.2690000000000055
 20
52.2719999999999985
 30
0.0
 11
184.4240000000000066
 21
51.7950000000000017
 31
0.0
  0
LINE
  5
126
100
AcDbEntity
100
AcDbLine
  8
0
 62
256
370
-1
  6
ByLayer
 10
184.4240000000000066
 20
51.7950000000000017
 30
0.0
 11
184.5180000000000007
 21
51.3010000000000019
 31
0.0
  0
LINE
  5
127
100
AcDbEntity
100
AcDbLine
  8
0
 62
256
370
-1
  6
ByLayer
 10
184.5180000000000007
 20
51.3010000000000019
 30
0.0
 11
184.5500000000000114
 21
50.7999999999999972
 31
0.0
  0
LINE
  5
128
100
AcDbEntity
100
AcDbLine
  8
0
 62
256
370
-1
  6
ByLayer
 10
184.5500000000000114
 20
50.7999999999999972
 30
0.0
 11
184.5180000000000007
 21
50.2989999999999995
 31
0.0
  0
LINE
  5
129
100
AcDbEntity
100
AcDbLine
  8
0
 62
256
370
-1
  6
ByLayer
 10
184.5180000000000007
 20
50.2989999999999995
 30
0.0
 11
184.4240000000000066
 21
49.8049999999999997
 31
0.0
  0
LINE
  5
12A
100
AcDbEntity
100
AcDbLine
  8
0
 62
256
370
-1
  6
ByLayer
 10
184.4240000000000066
 20
49.8049999999999997
 30
0.0
 11
184.2690000000000055
 21
49.328000000000003
 31
0.0
  0
LINE
  5
12B
100
AcDbEntity
100
AcDbLine
  8
0
 62
256
370
-1
  6
ByLayer
 10
184.2690000000000055
 20
49.328000000000003
 30
0.0
 11
184.0550000000000068
 21
48.8729999999999976
 31
0.0
  0
LINE
  5
12C
100
AcDbEntity
100
AcDbLine
  8
0
 62
256
370
-1
  6
ByLayer
 10
184.0550000000000068
 20
48.8729999999999976
 30
0.0
 11
183.7860000000000014
 21
48.4489999999999981
 31
0.0
  0
LINE
  5
12D
100
AcDbEntity
100
AcDbLine
  8
0
 62
256
370
-1
  6
ByLayer
 10
183.7860000000000014
 20
48.4489999999999981
 30
0.0
 11
183.4660000000000082
 21
48.0619999999999976
 31
0.0
  0
LINE
  5
12E
100
AcDbEntity
100
AcDbLine
  8
0
 62
256
370
-1
  6
ByLayer
 10
183.4660000000000082
 20
48.0619999999999976
 30
0.0
 11
183.0999999999999943
 21
47.7180000000000035
 31
0.0
  0
LINE
  5
12F
100
AcDbEntity
100
AcDbLine
  8
0
 62
256
370
-1
  6
ByLayer
 10
183.0999999999999943
 20
47.7180000000000035
 30
0.0
 11
182.6930000000000121
 21
47.4230000000000018
 31
0.0
  0
LINE
  5
130
100
AcDbEntity
100
AcDbLine
  8
0
 62
256
370
-1
  6
ByLayer
 10
182.6930000000000121
 20
47.4230000000000018
 30
0.0
 11
182.2529999999999859
 21
47.1809999999999974
 31
0.0
  0
LINE
  5
131
100
AcDbEntity
100
AcDbLine
  8
0
 62
256
370
-1
  6
ByLayer
 10
182.2529999999999859
 20
47.1809999999999974
 30
0.0
 11
181.7860000000000014
 21
46.9960000000000022
 31
0.0
  0
LINE
  5
132
100
AcDbEntity
100
AcDbLine
  8
0
 62
256
370
-1
  6
ByLayer
 10
181.7860000000000014
 20
46.9960000000000022
 30
0.0
 11
181.3000000000000114
 21
46.8710000000000022
 31
0.0
  0
LINE
  5
133
100
AcDbEntity
100
AcDbLine
  8
0
 62
256
370
-1
  6
ByLayer
 10
181.3000000000000114
 20
46.8710000000000022
 30
0.0
 11
180.8009999999999877
 21
46.8079999999999998
 31
0.0
  0
LINE
  5
134
100
AcDbEntity
100
AcDbLine
  8
0
 62
256
370
-1
  6
ByLayer
 10
180.8009999999999877
 20
46.8079999999999998
 30
0.0
 11
180.2990000000000066
 21
46.8079999999999998
 31
0.0
  0
LINE
  5
135
100
AcDbEntity
100
AcDbLine
  8
0
 62
256
370
-1
  6
ByLayer
 10
180.2990000000000066
 20
46.8079999999999998
 30
0.0
 11
179.8000000000000114
 21
46.8710000000000022
 31
0.0
  0
LINE
  5
136
100
AcDbEntity
100
AcDbLine
  8
0
 62
256
370
-1
  6
ByLayer
 10
179.8000000000000114
 20
46.8710000000000022
 30
0.0
 11
179.313999999999993
 21
46.9960000000000022
 31
0.0
  0
LINE
  5
137
100
AcDbEntity
100
AcDbLine
  8
0
 62
256
370
-1
  6
ByLayer
 10
179.313999999999993
 20
46.9960000000000022
 30
0.0
 11
178.8470000000000084
 21
47.1809999999999974
 31
0.0
  0
LINE
  5
138
100
AcDbEntity
100
AcDbLine
  8
0
 62
256
370
-1
  6
ByLayer
 10
178.8470000000000084
 20
47.1809999999999974
 30
0.0
 11
178.4070000000000107
 21
47.4230000000000018
 31
0.0
  0
LINE
  5
139
100
AcDbEntity
100
AcDbLine
  8
0
 62
256
370
-1
  6
ByLayer
 10
178.4070000000000107
 20
47.4230000000000018
 30
0.0
 11
178.0
 21
47.7180000000000035
 31
0.0
  0
LINE
  5
13A
100
AcDbEntity
100
AcDbLine
  8
0
 62
256
370
-1
  6
ByLayer
 10
178.0
 20
47.7180000000000035
 30
0.0
 11
177.6339999999999861
 21
48.0619999999999976
 31
0.0
  0
LINE
  5
13B
100
AcDbEntity
100
AcDbLine
  8
0
 62
256
370
-1
  6
ByLayer
 10
177.6339999999999861
 20
48.0619999999999976
 30
0.0
 11
177.313999999999993
 21
48.4489999999999981
 31
0.0
  0
LINE
  5
13C
100
AcDbEntity
100
AcDbLine
  8
0
 62
256
370
-1
  6
ByLayer
 10
177.313999999999993
 20
48.4489999999999981
 30
0.0
 11
177.0449999999999875
 21
48.8729999999999976
 31
0.0
  0
LINE
  5
13D
100
AcDbEntity
100
AcDbLine
  8
0
 62
256
370
-1
  6
ByLayer
 10
177.0449999999999875
 20
48.8729999999999976
 30
0.0
 11
176.8309999999999889
 21
49.328000000000003
 31
0.0
  0
LINE
  5
13E
100
AcDbEntity
100
AcDbLine
  8
0
 62
256
370
-1
  6
ByLayer
 10
176.8309999999999889
 20
49.328000000000003
 30
0.0
 11
176.6759999999999877
 21
49.8049999999999997
 31
0.0
  0
LINE
  5
13F
100
AcDbEntity
100
AcDbLine
  8
0
 62
256
370
-1
  6
ByLayer
 10
176.6759999999999877
 20
49.8049999999999997
 30
0.0
 11
176.5819999999999936
 21
50.2989999999999995
 31
0.0
  0
LINE
  5
140
100
AcDbEntity
100
AcDbLine
  8
0
 62
256
370
-1
  6
ByLayer
 10
176.5819999999999936
 20
50.2989999999999995
 30
0.0
 11
176.5500000000000114
 21
50.7999999999999972
 31
0.0
  0
LINE
  5
141
100
AcDbEntity
100
AcDbLine
  8
0
 62
256
370
-1
  6
ByLayer
 10
179.4199999999999875
 20
-57.1499999999999986
 30
0.0
 11
179.429000000000002
 21
-57.0080000000000027
 31
0.0
  0
LINE
  5
142
100
AcDbEntity
100
AcDbLine
  8
0
 62
256
370
-1
  6
ByLayer
 10
179.429000000000002
 20
-57.0080000000000027
 30
0.0
 11
179.4550000000000125
 21
-56.8689999999999998
 31
0.0
  0
LINE
  5
143
100
AcDbEntity
100
AcDbLine
  8
0
 62
256
370
-1
  6
ByLayer
 10
179.4550000000000125
 20
-56.8689999999999998
 30
0.0
 11
179.4989999999999952
 21
-56.7340000000000018
 31
0.0
  0
LINE
  5
144
100
AcDbEntity
100
AcDbLine
  8
0
 62
256
370
-1
  6
ByLayer
 10
179.4989999999999952
 20
-56.7340000000000018
 30
0.0
 11
179.5600000000000023
 21
-56.6049999999999969
 31
0.0
  0
LINE
  5
145
100
AcDbEntity
100
AcDbLine
  8
0
 62
256
370
-1
  6
ByLayer
 10
179.5600000000000023
 20
-56.6049999999999969
 30
0.0
 11
179.6359999999999957
 21
-56.4859999999999971
 31
0.0
  0
LINE
  5
146
100
AcDbEntity
100
AcDbLine
  8
0
 62
256
370
-1
  6
ByLayer
 10
179.6359999999999957
 20
-56.4859999999999971
 30
0.0
 11
179.7259999999999991
 21
-56.3759999999999977
 31
0.0
  0
LINE
  5
147
100
AcDbEntity
100
AcDbLine
  8
0
 62
256
370
-1
  6
ByLayer
 10
179.7259999999999991
 20
-56.3759999999999977
 30
0.0
 11
179.8300000000000125
 21
-56.2790000000000035
 31
0.0
  0
LINE
  5
148
100
AcDbEntity
100
AcDbLine
  8
0
 62
256
370
-1
  6
ByLayer
 10
179.8300000000000125
 20
-56.2790000000000035
 30
0.0
 11
179.9439999999999884
 21
-56.195999999999998
 31
0.0
  0
LINE
  5
149
100
AcDbEntity
100
AcDbLine
  8
0
 62
256
370
-1
  6
ByLayer
 10
179.9439999999999884
 20
-56.195999999999998
 30
0.0
 11
180.0689999999999884
 21
-56.1270000000000024
 31
0.0
  0
LINE
  5
14A
100
AcDbEntity
100
AcDbLine
  8
0
 62
256
370
-1
  6
ByLayer
 10
180.0689999999999884
 20
-56.1270000000000024
 30
0.0
 11
180.2009999999999934
 21
-56.0750000000000028
 31
0.0
  0
LINE
  5
14B
100
AcDbEntity
100
AcDbLine
  8
0
 62
256
370
-1
  6
ByLayer
 10
180.2009999999999934
 20
-56.0750000000000028
 30
0.0
 11
180.3379999999999939
 21
-56.0399999999999991
 31
0.0
  0
LINE
  5
14C
100
AcDbEntity
100
AcDbLine
  8
0
 62
256
370
-1
  6
ByLayer
 10
180.3379999999999939
 20
-56.0399999999999991
 30
0.0
 11
180.4790000000000134
 21
-56.0219999999999985
 31
0.0
  0
LINE
  5
14D
100
AcDbEntity
100
AcDbLine
  8
0
 62
256
370
-1
  6
ByLayer
 10
180.4790000000000134
 20
-56.0219999999999985
 30
0.0
 11
180.6210000000000093
 21
-56.0219999999999985
 31
0.0
  0
LINE
  5
14E
100
AcDbEntity
100
AcDbLine
  8
0
 62
256
370
-1
  6
ByLayer
 10
180.6210000000000093
 20
-56.0219999999999985
 30
0.0
 11
180.7620000000000005
 21
-56.0399999999999991
 31
0.0
  0
LINE
  5
14F
100
AcDbEntity
100
AcDbLine
  8
0
 62
256
370
-1
  6
ByLayer
 10
180.7620000000000005
 20
-56.0399999999999991
 30
0.0
 11
180.8990000000000009
 21
-56.0750000000000028
 31
0.0
  0
LINE
  5
150
100
AcDbEntity
100
AcDbLine
  8
0
 62
256
370
-1
  6
ByLayer
 10
180.8990000000000009
 20
-56.0750000000000028
 30
0.0
 11
181.0310000000000059
 21
-56.1270000000000024
 31
0.0
  0
LINE
  5
151
100
AcDbEntity
100
AcDbLine
  8
0
 62
256
370
-1
  6
ByLayer
 10
181.0310000000000059
 20
-56.1270000000000024
 30
0.0
 11
181.1560000000000059
 21
-56.195999999999998
 31
0.0
  0
LINE
  5
152
100
AcDbEntity
100
AcDbLine
  8
0
 62
256
370
-1
  6
ByLayer
 10
181.1560000000000059
 20
-56.195999999999998
 30
0.0
 11
181.2700000000000102
 21
-56.2790000000000035
 31
0.0
  0
LINE
  5
153
100
AcDbEntity
100
AcDbLine
  8
0
 62
256
370
-1
  6
ByLayer
 10
181.2700000000000102
 20
-56.2790000000000035
 30
0.0
 11
181.3739999999999952
 21
-56.3759999999999977
 31
0.0
  0
LINE
  5
154
100
AcDbEntity
100
AcDbLine
  8
0
 62
256
370
-1
  6
ByLayer
 10
181.3739999999999952
 20
-56.3759999999999977
 30
0.0
 11
181.4639999999999986
 21
-56.4859999999999971
 31
0.0
  0
LINE
  5
155
100
AcDbEntity
100
AcDbLine
  8
0
 62
256
370
-1
  6
ByLayer
 10
181.4639999999999986
 20
-56.4859999999999971
 30
0.0
 11
181.539999999999992
 21
-56.6049999999999969
 31
0.0
  0
LINE
  5
156
100
AcDbEntity
100
AcDbLine
  8
0
 62
256
370
-1
  6
ByLayer
 10
181.539999999999992
 20
-56.6049999999999969
 30
0.0
 11
181.6009999999999991
 21
-56.7340000000000018
 31
0.0
  0
LINE
  5
157
100
AcDbEntity
100
AcDbLine
  8
0
 62
256
370
-1
  6
ByLayer
 10
181.6009999999999991
 20
-56.7340000000000018
 30
0.0
 11
181.6450000000000102
 21
-56.8689999999999998
 31
0.0
  0
LINE
  5
158
100
AcDbEntity
100
AcDbLine
  8
0
 62
256
370
-1
  6
ByLayer
 10
181.6450000000000102
 20
-56.8689999999999998
 30
0.0
 11
181.6709999999999923
 21
-57.0080000000000027
 31
0.0
  0
LINE
  5
159
100
AcDbEntity
100
AcDbLine
  8
0
 62
256
370
-1
  6
ByLayer
 10
181.6709999999999923
 20
-57.0080000000000027
 30
0.0
 11
181.6800000000000068
 21
-57.1499999999999986
 31
0.0
  0
LINE
  5
15A
100
AcDbEntity
100
AcDbLine
  8
0
 62
256
370
-1
  6
ByLayer
 10
181.6800000000000068
 20
-57.1499999999999986
 30
0.0
 11
181.6709999999999923
 21
-57.2920000000000016
 31
0.0
  0
LINE
  5
15B
100
AcDbEntity
100
AcDbLine
  8
0
 62
256
370
-1
  6
ByLayer
 10
181.6709999999999923
 20
-57.2920000000000016
 30
0.0
 11
181.6450000000000102
 21
-57.4309999999999974
 31
0.0
  0
LINE
  5
15C
100
AcDbEntity
100
AcDbLine
  8
0
 62
256
370
-1
  6
ByLayer
 10
181.6450000000000102
 20
-57.4309999999999974
 30
0.0
 11
181.6009999999999991
 21
-57.5660000000000025
 31
0.0
  0
LINE
  5
15D
100
AcDbEntity
100
AcDbLine
  8
0
 62
256
370
-1
  6
ByLayer
 10
181.6009999999999991
 20
-57.5660000000000025
 30
0.0
 11
181.539999999999992
 21
-57.6950000000000003
 31
0.0
  0
LINE
  5
15E
100
AcDbEntity
100
AcDbLine
  8
0
 62
256
370
-1
  6
ByLayer
 10
181.539999999999992
 20
-57.6950000000000003
 30
0.0
 11
181.4639999999999986
 21
-57.8140000000000001
 31
0.0
  0
LINE
  5
15F
100
AcDbEntity
100
AcDbLine
  8
0
 62
256
370
-1
  6
ByLayer
 10
181.4639999999999986
 20
-57.8140000000000001
 30
0.0
 11
181.3739999999999952
 21
-57.9239999999999995
 31
0.0
  0
LINE
  5
160
100
AcDbEntity
100
AcDbLine
  8
0
 62
256
370
-1
  6
ByLayer
 10
181.3739999999999952
 20
-57.9239999999999995
 30
0.0
 11
181.2700000000000102
 21
-58.0210000000000008
 31
0.0
  0
LINE
  5
161
100
AcDbEntity
100
AcDbLine
  8
0
 62
256
370
-1
  6
ByLayer
 10
181.2700000000000102
 20
-58.0210000000000008
 30
0.0
 11
181.1560000000000059
 21
-58.1039999999999992
 31
0.0
  0
LINE
  5
162
100
AcDbEntity
100
AcDbLine
  8
0
 62
256
370
-1
  6
ByLayer
 10
181.1560000000000059
 20
-58.1039999999999992
 30
0.0
 11
181.0310000000000059
 21
-58.1730000000000018
 31
0.0
  0
LINE
  5
163
100
AcDbEntity
100
AcDbLine
  8
0
 62
256
370
-1
  6
ByLayer
 10
181.0310000000000059
 20
-58.1730000000000018
 30
0.0
 11
180.8990000000000009
 21
-58.2250000000000014
 31
0.0
  0
LINE
  5
164
100
AcDbEntity
100
AcDbLine
  8
0
 62
256
370
-1
  6
ByLayer
 10
180.8990000000000009
 20
-58.2250000000000014
 30
0.0
 11
180.7620000000000005
 21
-58.259999999999998
 31
0.0
  0
LINE
  5
165
100
AcDbEntity
100
AcDbLine
  8
0
 62
256
370
-1
  6
ByLayer
 10
180.7620000000000005
 20
-58.259999999999998
 30
0.0
 11
180.6210000000000093
 21
-58.2779999999999987
 31
0.0
  0
LINE
  5
166
100
AcDbEntity
100
AcDbLine
  8
0
 62
256
370
-1
  6
ByLayer
 10
180.6210000000000093
 20
-58.2779999999999987
 30
0.0
 11
180.4790000000000134
 21
-58.2779999999999987
 31
0.0
  0
LINE
  5
167
100
AcDbEntity
100
AcDbLine
  8
0
 62
256
370
-1
  6
ByLayer
 10
180.4790000000000134
 20
-58.2779999999999987
 30
0.0
 11
180.3379999999999939
 21
-58.259999999999998
 31
0.0
  0
LINE
  5
168
100
AcDbEntity
100
AcDbLine
  8
0
 62
256
370
-1
  6
ByLayer
 10
180.3379999999999939
 20
-58.259999999999998
 30
0.0
 11
180.2009999999999934
 21
-58.2250000000000014
 31
0.0
  0
LINE
  5
169
100
AcDbEntity
100
AcDbLine
  8
0
 62
256
370
-1
  6
ByLayer
 10
180.2009999999999934
 20
-58.2250000000000014
 30
0.0
 11
180.0689999999999884
 21
-58.1730000000000018
 31
0.0
  0
LINE
  5
16A
100
AcDbEntity
100
AcDbLine
  8
0
 62
256
370
-1
  6
ByLayer
 10
180.0689999999999884
 20
-58.1730000000000018
 30
0.0
 11
179.9439999999999884
 21
-58.1039999999999992
 31
0.0
  0
LINE
  5
16B
100
AcDbEntity
100
AcDbLine
  8
0
 62
256
370
-1
  6
ByLayer
 10
179.9439999999999884
 20
-58.1039999999999992
 30
0.0
 11
179.8300000000000125
 21
-58.0210000000000008
 31
0.0
  0
LINE
  5
16C
100
AcDbEntity
100
AcDbLine
  8
0
 62
256
370
-1
  6
ByLayer
 10
179.8300000000000125
 20
-58.0210000000000008
 30
0.0
 11
179.7259999999999991
 21
-57.9239999999999995
 31
0.0
  0
LINE
  5
16D
100
AcDbEntity
100
AcDbLine
  8
0
 62
256
370
-1
  6
ByLayer
 10
179.7259999999999991
 20
-57.9239999999999995
 30
0.0
 11
179.6359999999999957
 21
-57.8140000000000001
 31
0.0
  0
LINE
  5
16E
100
AcDbEntity
100
AcDbLine
  8
0
 62
256
370
-1
  6
ByLayer
 10
179.6359999999999957
 20
-57.8140000000000001
 30
0.0
 11
179.5600000000000023
 21
-57.6950000000000003
 31
0.0
  0
LINE
  5
16F
100
AcDbEntity
100
AcDbLine
  8
0
 62
256
370
-1
  6
ByLayer
 10
179.5600000000000023
 20
-57.6950000000000003
 30
0.0
 11
179.4989999999999952
 21
-57.5660000000000025
 31
0.0
  0
LINE
  5
170
100
AcDbEntity
100
AcDbLine
  8
0
 62
256
370
-1
  6
ByLayer
 10
179.4989999999999952
 20
-57.5660000000000025
 30
0.0
 11
179.4550000000000125
 21
-57.4309999999999974
 31
0.0
  0
LINE
  5
171
100
AcDbEntity
100
AcDbLine
  8
0
 62
256
370
-1
  6
ByLayer
 10
179.4550000000000125
 20
-57.4309999999999974
 30
0.0
 11
179.429000000000002
 21
-57.2920000000000016
 31
0.0
  0
LINE
  5
172
100
AcDbEntity
100
AcDbLine
  8
0
 62
256
370
-1
  6
ByLayer
 10
179.429000000000002
 20
-57.2920000000000016
 30
0.0
 11
179.4199999999999875
 21
-57.1499999999999986
 31
0.0
  0
LINE
  5
173
100
AcDbEntity
100
AcDbLine
  8
0
 62
256
370
-1
  6
ByLayer
 10
179.4199999999999875
 20
-12.6999999999999993
 30
0.0
 11
179.429000000000002
 21
-12.5579999999999998
 31
0.0
  0
LINE
  5
174
100
AcDbEntity
100
AcDbLine
  8
0
 62
256
370
-1
  6
ByLayer
 10
179.429000000000002
 20
-12.5579999999999998
 30
0.0
 11
179.4550000000000125
 21
-12.4190000000000005
 31
0.0
  0
LINE
  5
175
100
AcDbEntity
100
AcDbLine
  8
0
 62
256
370
-1
  6
ByLayer
 10
179.4550000000000125
 20
-12.4190000000000005
 30
0.0
 11
179.4989999999999952
 21
-12.2840000000000007
 31
0.0
  0
LINE
  5
176
100
AcDbEntity
100
AcDbLine
  8
0
 62
256
370
-1
  6
ByLayer
 10
179.4989999999999952
 20
-12.2840000000000007
 30
0.0
 11
179.5600000000000023
 21
-12.1549999999999994
 31
0.0
  0
LINE
  5
177
100
AcDbEntity
100
AcDbLine
  8
0
 62
256
370
-1
  6
ByLayer
 10
179.5600000000000023
 20
-12.1549999999999994
 30
0.0
 11
179.6359999999999957
 21
-12.0359999999999996
 31
0.0
  0
LINE
  5
178
100
AcDbEntity
100
AcDbLine
  8
0
 62
256
370
-1
  6
ByLayer
 10
179.6359999999999957
 20
-12.0359999999999996
 30
0.0
 11
179.7259999999999991
 21
-11.9260000000000002
 31
0.0
  0
LINE
  5
179
100
AcDbEntity
100
AcDbLine
  8
0
 62
256
370
-1
  6
ByLayer
 10
179.7259999999999991
 20
-11.9260000000000002
 30
0.0
 11
179.8300000000000125
 21
-11.8290000000000006
 31
0.0
  0
LINE
  5
17A
100
AcDbEntity
100
AcDbLine
  8
0
 62
256
370
-1
  6
ByLayer
 10
179.8300000000000125
 20
-11.8290000000000006
 30
0.0
 11
179.9439999999999884
 21
-11.7460000000000004
 31
0.0
  0
LINE
  5
17B
100
AcDbEntity
100
AcDbLine
  8
0
 62
256
370
-1
  6
ByLayer
 10
179.9439999999999884
 20
-11.7460000000000004
 30
0.0
 11
180.0689999999999884
 21
-11.6769999999999996
 31
0.0
  0
LINE
  5
17C
100
AcDbEntity
100
AcDbLine
  8
0
 62
256
370
-1
  6
ByLayer
 10
180.0689999999999884
 20
-11.6769999999999996
 30
0.0
 11
180.2009999999999934
 21
-11.625
 31
0.0
  0
LINE
  5
17D
100
AcDbEntity
100
AcDbLine
  8
0
 62
256
370
-1
  6
ByLayer
 10
180.2009999999999934
 20
-11.625
 30
0.0
 11
180.3379999999999939
 21
-11.5899999999999999
 31
0.0
  0
LINE
  5
17E
100
AcDbEntity
100
AcDbLine
  8
0
 62
256
370
-1
  6
ByLayer
 10
180.3379999999999939
 20
-11.5899999999999999
 30
0.0
 11
180.4790000000000134
 21
-11.5719999999999992
 31
0.0
  0
LINE
  5
17F
100
AcDbEntity
100
AcDbLine
  8
0
 62
256
370
-1
  6
ByLayer
 10
180.4790000000000134
 20
-11.5719999999999992
 30
0.0
 11
180.6210000000000093
 21
-11.5719999999999992
 31
0.0
  0
LINE
  5
180
100
AcDbEntity
100
AcDbLine
  8
0
 62
256
370
-1
  6
ByLayer
 10
180.6210000000000093
 20
-11.5719999999999992
 30
0.0
 11
180.7620000000000005
 21
-11.5899999999999999
 31
0.0
  0
LINE
  5
181
100
AcDbEntity
100
AcDbLine
  8
0
 62
256
370
-1
  6
ByLayer
 10
180.7620000000000005
 20
-11.5899999999999999
 30
0.0
 11
180.8990000000000009
 21
-11.625
 31
0.0
  0
LINE
  5
182
100
AcDbEntity
100
AcDbLine
  8
0
 62
256
370
-1
  6
ByLayer
 10
180.8990000000000009
 20
-11.625
 30
0.0
 11
181.0310000000000059
 21
-11.6769999999999996
 31
0.0
  0
LINE
  5
183
100
AcDbEntity
100
AcDbLine
  8
0
 62
256
370
-1
  6
ByLayer
 10
181.0310000000000059
 20
-11.6769999999999996
 30
0.0
 11
181.1560000000000059
 21
-11.7460000000000004
 31
0.0
  0
LINE
  5
184
100
AcDbEntity
100
AcDbLine
  8
0
 62
256
370
-1
  6
ByLayer
 10
181.1560000000000059
 20
-11.7460000000000004
 30
0.0
 11
181.2700000000000102
 21
-11.8290000000000006
 31
0.0
  0
LINE
  5
185
100
AcDbEntity
100
AcDbLine
  8
0
 62
256
370
-1
  6
ByLayer
 10
181.2700000000000102
 20
-11.8290000000000006
 30
0.0
 11
181.3739999999999952
 21
-11.9260000000000002
 31
0.0
  0
LINE
  5
186
100
AcDbEntity
100
AcDbLine
  8
0
 62
256
370
-1
  6
ByLayer
 10
181.3739999999999952
 20
-11.9260000000000002
 30
0.0
 11
181.4639999999999986
 21
-12.0359999999999996
 31
0.0
  0
LINE
  5
187
100
AcDbEntity
100
AcDbLine
  8
0
 62
256
370
-1
  6
ByLayer
 10
181.4639999999999986
 20
-12.0359999999999996
 30
0.0
 11
181.539999999999992
 21
-12.1549999999999994
 31
0.0
  0
LINE
  5
188
100
AcDbEntity
100
AcDbLine
  8
0
 62
256
370
-1
  6
ByLayer
 10
181.539999999999992
 20
-12.1549999999999994
 30
0.0
 11
181.6009999999999991
 21
-12.2840000000000007
 31
0.0
  0
LINE
  5
189
100
AcDbEntity
100
AcDbLine
  8
0
 62
256
370
-1
  6
ByLayer
 10
181.6009999999999991
 20
-12.2840000000000007
 30
0.0
 11
181.6450000000000102
 21
-12.4190000000000005
 31
0.0
  0
LINE
  5
18A
100
AcDbEntity
100
AcDbLine
  8
0
 62
256
370
-1
  6
ByLayer
 10
181.6450000000000102
 20
-12.4190000000000005
 30
0.0
 11
181.6709999999999923
 21
-12.5579999999999998
 31
0.0
  0
LINE
  5
18B
100
AcDbEntity
100
AcDbLine
  8
0
 62
256
370
-1
  6
ByLayer
 10
181.6709999999999923
 20
-12.5579999999999998
 30
0.0
 11
181.6800000000000068
 21
-12.6999999999999993
 31
0.0
  0
LINE
  5
18C
100
AcDbEntity
100
AcDbLine
  8
0
 62
256
370
-1
  6
ByLayer
 10
181.6800000000000068
 20
-12.6999999999999993
 30
0.0
 11
181.6709999999999923
 21
-12.8420000000000005
 31
0.0
  0
LINE
  5
18D
100
AcDbEntity
100
AcDbLine
  8
0
 62
256
370
-1
  6
ByLayer
 10
181.6709999999999923
 20
-12.8420000000000005
 30
0.0
 11
181.6450000000000102
 21
-12.9809999999999999
 31
0.0
  0
LINE
  5
18E
100
AcDbEntity
100
AcDbLine
  8
0
 62
256
370
-1
  6
ByLayer
 10
181.6450000000000102
 20
-12.9809999999999999
 30
0.0
 11
181.6009999999999991
 21
-13.1159999999999997
 31
0.0
  0
LINE
  5
18F
100
AcDbEntity
100
AcDbLine
  8
0
 62
256
370
-1
  6
ByLayer
 10
181.6009999999999991
 20
-13.1159999999999997
 30
0.0
 11
181.539999999999992
 21
-13.2449999999999992
 31
0.0
  0
LINE
  5
190
100
AcDbEntity
100
AcDbLine
  8
0
 62
256
370
-1
  6
ByLayer
 10
181.539999999999992
 20
-13.2449999999999992
 30
0.0
 11
181.4639999999999986
 21
-13.3640000000000008
 31
0.0
  0
LINE
  5
191
100
AcDbEntity
100
AcDbLine
  8
0
 62
256
370
-1
  6
ByLayer
 10
181.4639999999999986
 20
-13.3640000000000008
 30
0.0
 11
181.3739999999999952
 21
-13.4740000000000002
 31
0.0
  0
LINE
  5
192
100
AcDbEntity
100
AcDbLine
  8
0
 62
256
370
-1
  6
ByLayer
 10
181.3739999999999952
 20
-13.4740000000000002
 30
0.0
 11
181.2700000000000102
 21
-13.5709999999999997
 31
0.0
  0
LINE
  5
193
100
AcDbEntity
100
AcDbLine
  8
0
 62
256
370
-1
  6
ByLayer
 10
181.2700000000000102
 20
-13.5709999999999997
 30
0.0
 11
181.1560000000000059
 21
-13.6539999999999999
 31
0.0
  0
LINE
  5
194
100
AcDbEntity
100
AcDbLine
  8
0
 62
256
370
-1
  6
ByLayer
 10
181.1560000000000059
 20
-13.6539999999999999
 30
0.0
 11
181.0310000000000059
 21
-13.7230000000000008
 31
0.0
  0
LINE
  5
195
100
AcDbEntity
100
AcDbLine
  8
0
 62
256
370
-1
  6
ByLayer
 10
181.0310000000000059
 20
-13.7230000000000008
 30
0.0
 11
180.8990000000000009
 21
-13.7750000000000004
 31
0.0
  0
LINE
  5
196
100
AcDbEntity
100
AcDbLine
  8
0
 62
256
370
-1
  6
ByLayer
 10
180.8990000000000009
 20
-13.7750000000000004
 30
0.0
 11
180.7620000000000005
 21
-13.8100000000000005
 31
0.0
  0
LINE
  5
197
100
AcDbEntity
100
AcDbLine
  8
0
 62
256
370
-1
  6
ByLayer
 10
180.7620000000000005
 20
-13.8100000000000005
 30
0.0
 11
180.6210000000000093
 21
-13.8279999999999994
 31
0.0
  0
LINE
  5
198
100
AcDbEntity
100
AcDbLine
  8
0
 62
256
370
-1
  6
ByLayer
 10
180.6210000000000093
 20
-13.8279999999999994
 30
0.0
 11
180.4790000000000134
 21
-13.8279999999999994
 31
0.0
  0
LINE
  5
199
100
AcDbEntity
100
AcDbLine
  8
0
 62
256
370
-1
  6
ByLayer
 10
180.4790000000000134
 20
-13.8279999999999994
 30
0.0
 11
180.3379999999999939
 21
-13.8100000000000005
 31
0.0
  0
LINE
  5
19A
100
AcDbEntity
100
AcDbLine
  8
0
 62
256
370
-1
  6
ByLayer
 10
180.3379999999999939
 20
-13.8100000000000005
 30
0.0
 11
180.2009999999999934
 21
-13.7750000000000004
 31
0.0
  0
LINE
  5
19B
100
AcDbEntity
100
AcDbLine
  8
0
 62
256
370
-1
  6
ByLayer
 10
180.2009999999999934
 20
-13.7750000000000004
 30
0.0
 11
180.0689999999999884
 21
-13.7230000000000008
 31
0.0
  0
LINE
  5
19C
100
AcDbEntity
100
AcDbLine
  8
0
 62
256
370
-1
  6
ByLayer
 10
180.0689999999999884
 20
-13.7230000000000008
 30
0.0
 11
179.9439999999999884
 21
-13.6539999999999999
 31
0.0
  0
LINE
  5
19D
100
AcDbEntity
100
AcDbLine
  8
0
 62
256
370
-1
  6
ByLayer
 10
179.9439999999999884
 20
-13.6539999999999999
 30
0.0
 11
179.8300000000000125
 21
-13.5709999999999997
 31
0.0
  0
LINE
  5
19E
100
AcDbEntity
100
AcDbLine
  8
0
 62
256
370
-1
  6
ByLayer
 10
179.8300000000000125
 20
-13.5709999999999997
 30
0.0
 11
179.7259999999999991
 21
-13.4740000000000002
 31
0.0
  0
LINE
  5
19F
100
AcDbEntity
100
AcDbLine
  8
0
 62
256
370
-1
  6
ByLayer
 10
179.7259999999999991
 20
-13.4740000000000002
 30
0.0
 11
179.6359999999999957
 21
-13.3640000000000008
 31
0.0
  0
LINE
  5
1A0
100
AcDbEntity
100
AcDbLine
  8
0
 62
256
370
-1
  6
ByLayer
 10
179.6359999999999957
 20
-13.3640000000000008
 30
0.0
 11
179.5600000000000023
 21
-13.2449999999999992
 31
0.0
  0
LINE
  5
1A1
100
AcDbEntity
100
AcDbLine
  8
0
 62
256
370
-1
  6
ByLayer
 10
179.5600000000000023
 20
-13.2449999999999992
 30
0.0
 11
179.4989999999999952
 21
-13.1159999999999997
 31
0.0
  0
LINE
  5
1A2
100
AcDbEntity
100
AcDbLine
  8
0
 62
256
370
-1
  6
ByLayer
 10
179.4989999999999952
 20
-13.1159999999999997
 30
0.0
 11
179.4550000000000125
 21
-12.9809999999999999
 31
0.0
  0
LINE
  5
1A3
100
AcDbEntity
100
AcDbLine
  8
0
 62
256
370
-1
  6
ByLayer
 10
179.4550000000000125
 20
-12.9809999999999999
 30
0.0
 11
179.429000000000002
 21
-12.8420000000000005
 31
0.0
  0
LINE
  5
1A4
100
AcDbEntity
100
AcDbLine
  8
0
 62
256
370
-1
  6
ByLayer
 10
179.429000000000002
 20
-12.8420000000000005
 30
0.0
 11
179.4199999999999875
 21
-12.6999999999999993
 31
0.0
  0
LINE
  5
1A5
100
AcDbEntity
100
AcDbLine
  8
0
 62
256
370
-1
  6
ByLayer
 10
179.4199999999999875
 20
12.6999999999999993
 30
0.0
 11
179.429000000000002
 21
12.8420000000000005
 31
0.0
  0
LINE
  5
1A6
100
AcDbEntity
100
AcDbLine
  8
0
 62
256
370
-1
  6
ByLayer
 10
179.429000000000002
 20
12.8420000000000005
 30
0.0
 11
179.4550000000000125
 21
12.9809999999999999
 31
0.0
  0
LINE
  5
1A7
100
AcDbEntity
100
AcDbLine
  8
0
 62
256
370
-1
  6
ByLayer
 10
179.4550000000000125
 20
12.9809999999999999
 30
0.0
 11
179.4989999999999952
 21
13.1159999999999997
 31
0.0
  0
LINE
  5
1A8
100
AcDbEntity
100
AcDbLine
  8
0
 62
256
370
-1
  6
ByLayer
 10
179.4989999999999952
 20
13.1159999999999997
 30
0.0
 11
179.5600000000000023
 21
13.2449999999999992
 31
0.0
  0
LINE
  5
1A9
100
AcDbEntity
100
AcDbLine
  8
0
 62
256
370
-1
  6
ByLayer
 10
179.5600000000000023
 20
13.2449999999999992
 30
0.0
 11
179.6359999999999957
 21
13.3640000000000008
 31
0.0
  0
LINE
  5
1AA
100
AcDbEntity
100
AcDbLine
  8
0
 62
256
370
-1
  6
ByLayer
 10
179.6359999999999957
 20
13.3640000000000008
 30
0.0
 11
179.7259999999999991
 21
13.4740000000000002
 31
0.0
  0
LINE
  5
1AB
100
AcDbEntity
100
AcDbLine
  8
0
 62
256
370
-1
  6
ByLayer
 10
179.7259999999999991
 20
13.4740000000000002
 30
0.0
 11
179.8300000000000125
 21
13.5709999999999997
 31
0.0
  0
LINE
  5
1AC
100
AcDbEntity
100
AcDbLine
  8
0
 62
256
370
-1
  6
ByLayer
 10
179.8300000000000125
 20
13.5709999999999997
 30
0.0
 11
179.9439999999999884
 21
13.6539999999999999
 31
0.0
  0
LINE
  5
1AD
100
AcDbEntity
100
AcDbLine
  8
0
 62
256
370
-1
  6
ByLayer
 10
179.9439999999999884
 20
13.6539999999999999
 30
0.0
 11
180.0689999999999884
 21
13.7230000000000008
 31
0.0
  0
LINE
  5
1AE
100
AcDbEntity
100
AcDbLine
  8
0
 62
256
370
-1
  6
ByLayer
 10
180.0689999999999884
 20
13.7230000000000008
 30
0.0
 11
180.2009999999999934
 21
13.7750000000000004
 31
0.0
  0
LINE
  5
1AF
100
AcDbEntity
100
AcDbLine
  8
0
 62
256
370
-1
  6
ByLayer
 10
180.2009999999999934
 20
13.7750000000000004
 30
0.0
 11
180.3379999999999939
 21
13.8100000000000005
 31
0.0
  0
LINE
  5
1B0
100
AcDbEntity
100
AcDbLine
  8
0
 62
256
370
-1
  6
ByLayer
 10
180.3379999999999939
 20
13.8100000000000005
 30
0.0
 11
180.4790000000000134
 21
13.8279999999999994
 31
0.0
  0
LINE
  5
1B1
100
AcDbEntity
100
AcDbLine
  8
0
 62
256
370
-1
  6
ByLayer
 10
180.4790000000000134
 20
13.8279999999999994
 30
0.0
 11
180.6210000000000093
 21
13.8279999999999994
 31
0.0
  0
LINE
  5
1B2
100
AcDbEntity
100
AcDbLine
  8
0
 62
256
370
-1
  6
ByLayer
 10
180.6210000000000093
 20
13.8279999999999994
 30
0.0
 11
180.7620000000000005
 21
13.8100000000000005
 31
0.0
  0
LINE
  5
1B3
100
AcDbEntity
100
AcDbLine
  8
0
 62
256
370
-1
  6
ByLayer
 10
180.7620000000000005
 20
13.8100000000000005
 30
0.0
 11
180.8990000000000009
 21
13.7750000000000004
 31
0.0
  0
LINE
  5
1B4
100
AcDbEntity
100
AcDbLine
  8
0
 62
256
370
-1
  6
ByLayer
 10
180.8990000000000009
 20
13.7750000000000004
 30
0.0
 11
181.0310000000000059
 21
13.7230000000000008
 31
0.0
  0
LINE
  5
1B5
100
AcDbEntity
100
AcDbLine
  8
0
 62
256
370
-1
  6
ByLayer
 10
181.0310000000000059
 20
13.7230000000000008
 30
0.0
 11
181.1560000000000059
 21
13.6539999999999999
 31
0.0
  0
LINE
  5
1B6
100
AcDbEntity
100
AcDbLine
  8
0
 62
256
370
-1
  6
ByLayer
 10
181.1560000000000059
 20
13.6539999999999999
 30
0.0
 11
181.2700000000000102
 21
13.5709999999999997
 31
0.0
  0
LINE
  5
1B7
100
AcDbEntity
100
AcDbLine
  8
0
 62
256
370
-1
  6
ByLayer
 10
181.2700000000000102
 20
13.5709999999999997
 30
0.0
 11
181.3739999999999952
 21
13.4740000000000002
 31
0.0
  0
LINE
  5
1B8
100
AcDbEntity
100
AcDbLine
  8
0
 62
256
370
-1
  6
ByLayer
 10
181.3739999999999952
 20
13.4740000000000002
 30
0.0
 11
181.4639999999999986
 21
13.3640000000000008
 31
0.0
  0
LINE
  5
1B9
100
AcDbEntity
100
AcDbLine
  8
0
 62
256
370
-1
  6
ByLayer
 10
181.4639999999999986
 20
13.3640000000000008
 30
0.0
 11
181.539999999999992
 21
13.2449999999999992
 31
0.0
  0
LINE
  5
1BA
100
AcDbEntity
100
AcDbLine
  8
0
 62
256
370
-1
  6
ByLayer
 10
181.539999999999992
 20
13.2449999999999992
 30
0.0
 11
181.6009999999999991
 21
13.1159999999999997
 31
0.0
  0
LINE
  5
1BB
100
AcDbEntity
100
AcDbLine
  8
0
 62
256
370
-1
  6
ByLayer
 10
181.6009999999999991
 20
13.1159999999999997
 30
0.0
 11
181.6450000000000102
 21
12.9809999999999999
 31
0.0
  0
LINE
  5
1BC
100
AcDbEntity
100
AcDbLine
  8
0
 62
256
370
-1
  6
ByLayer
 10
181.6450000000000102
 20
12.9809999999999999
 30
0.0
 11
181.6709999999999923
 21
12.8420000000000005
 31
0.0
  0
LINE
  5
1BD
100
AcDbEntity
100
AcDbLine
  8
0
 62
256
370
-1
  6
ByLayer
 10
181.6709999999999923
 20
12.8420000000000005
 30
0.0
 11
181.6800000000000068
 21
12.6999999999999993
 31
0.0
  0
LINE
  5
1BE
100
AcDbEntity
100
AcDbLine
  8
0
 62
256
370
-1
  6
ByLayer
 10
181.6800000000000068
 20
12.6999999999999993
 30
0.0
 11
181.6709999999999923
 21
12.5579999999999998
 31
0.0
  0
LINE
  5
1BF
100
AcDbEntity
100
AcDbLine
  8
0
 62
256
370
-1
  6
ByLayer
 10
181.6709999999999923
 20
12.5579999999999998
 30
0.0
 11
181.6450000000000102
 21
12.4190000000000005
 31
0.0
  0
LINE
  5
1C0
100
AcDbEntity
100
AcDbLine
  8
0
 62
256
370
-1
  6
ByLayer
 10
181.6450000000000102
 20
12.4190000000000005
 30
0.0
 11
181.6009999999999991
 21
12.2840000000000007
 31
0.0
  0
LINE
  5
1C1
100
AcDbEntity
100
AcDbLine
  8
0
 62
256
370
-1
  6
ByLayer
 10
181.6009999999999991
 20
12.2840000000000007
 30
0.0
 11
181.539999999999992
 21
12.1549999999999994
 31
0.0
  0
LINE
  5
1C2
100
AcDbEntity
100
AcDbLine
  8
0
 62
256
370
-1
  6
ByLayer
 10
181.539999999999992
 20
12.1549999999999994
 30
0.0
 11
181.4639999999999986
 21
12.0359999999999996
 31
0.0
  0
LINE
  5
1C3
100
AcDbEntity
100
AcDbLine
  8
0
 62
256
370
-1
  6
ByLayer
 10
181.4639999999999986
 20
12.0359999999999996
 30
0.0
 11
181.3739999999999952
 21
11.9260000000000002
 31
0.0
  0
LINE
  5
1C4
100
AcDbEntity
100
AcDbLine
  8
0
 62
256
370
-1
  6
ByLayer
 10
181.3739999999999952
 20
11.9260000000000002
 30
0.0
 11
181.2700000000000102
 21
11.8290000000000006
 31
0.0
  0
LINE
  5
1C5
100
AcDbEntity
100
AcDbLine
  8
0
 62
256
370
-1
  6
ByLayer
 10
181.2700000000000102
 20
11.8290000000000006
 30
0.0
 11
181.1560000000000059
 21
11.7460000000000004
 31
0.0
  0
LINE
  5
1C6
100
AcDbEntity
100
AcDbLine
  8
0
 62
256
370
-1
  6
ByLayer
 10
181.1560000000000059
 20
11.7460000000000004
 30
0.0
 11
181.0310000000000059
 21
11.6769999999999996
 31
0.0
  0
LINE
  5
1C7
100
AcDbEntity
100
AcDbLine
  8
0
 62
256
370
-1
  6
ByLayer
 10
181.0310000000000059
 20
11.6769999999999996
 30
0.0
 11
180.8990000000000009
 21
11.625
 31
0.0
  0
LINE
  5
1C8
100
AcDbEntity
100
AcDbLine
  8
0
 62
256
370
-1
  6
ByLayer
 10
180.8990000000000009
 20
11.625
 30
0.0
 11
180.7620000000000005
 21
11.5899999999999999
 31
0.0
  0
LINE
  5
1C9
100
AcDbEntity
100
AcDbLine
  8
0
 62
256
370
-1
  6
ByLayer
 10
180.7620000000000005
 20
11.5899999999999999
 30
0.0
 11
180.6210000000000093
 21
11.5719999999999992
 31
0.0
  0
LINE
  5
1CA
100
AcDbEntity
100
AcDbLine
  8
0
 62
256
370
-1
  6
ByLayer
 10
180.6210000000000093
 20
11.5719999999999992
 30
0.0
 11
180.4790000000000134
 21
11.5719999999999992
 31
0.0
  0
LINE
  5
1CB
100
AcDbEntity
100
AcDbLine
  8
0
 62
256
370
-1
  6
ByLayer
 10
180.4790000000000134
 20
11.5719999999999992
 30
0.0
 11
180.3379999999999939
 21
11.5899999999999999
 31
0.0
  0
LINE
  5
1CC
100
AcDbEntity
100
AcDbLine
  8
0
 62
256
370
-1
  6
ByLayer
 10
180.3379999999999939
 20
11.5899999999999999
 30
0.0
 11
180.2009999999999934
 21
11.625
 31
0.0
  0
LINE
  5
1CD
100
AcDbEntity
100
AcDbLine
  8
0
 62
256
370
-1
  6
ByLayer
 10
180.2009999999999934
 20
11.625
 30
0.0
 11
180.0689999999999884
 21
11.6769999999999996
 31
0.0
  0
LINE
  5
1CE
100
AcDbEntity
100
AcDbLine
  8
0
 62
256
370
-1
  6
ByLayer
 10
180.0689999999999884
 20
11.6769999999999996
 30
0.0
 11
179.9439999999999884
 21
11.7460000000000004
 31
0.0
  0
LINE
  5
1CF
100
AcDbEntity
100
AcDbLine
  8
0
 62
256
370
-1
  6
ByLayer
 10
179.9439999999999884
 20
11.7460000000000004
 30
0.0
 11
179.8300000000000125
 21
11.8290000000000006
 31
0.0
  0
LINE
  5
1D0
100
AcDbEntity
100
AcDbLine
  8
0
 62
256
370
-1
  6
ByLayer
 10
179.8300000000000125
 20
11.8290000000000006
 30
0.0
 11
179.7259999999999991
 21
11.9260000000000002
 31
0.0
  0
LINE
  5
1D1
100
AcDbEntity
100
AcDbLine
  8
0
 62
256
370
-1
  6
ByLayer
 10
179.7259999999999991
 20
11.9260000000000002
 30
0.0
 11
179.6359999999999957
 21
12.0359999999999996
 31
0.0
  0
LINE
  5
1D2
100
AcDbEntity
100
AcDbLine
  8
0
 62
256
370
-1
  6
ByLayer
 10
179.6359999999999957
 20
12.0359999999999996
 30
0.0
 11
179.5600000000000023
 21
12.1549999999999994
 31
0.0
  0
LINE
  5
1D3
100
AcDbEntity
100
AcDbLine
  8
0
 62
256
370
-1
  6
ByLayer
 10
179.5600000000000023
 20
12.1549999999999994
 30
0.0
 11
179.4989999999999952
 21
12.2840000000000007
 31
0.0
  0
LINE
  5
1D4
100
AcDbEntity
100
AcDbLine
  8
0
 62
256
370
-1
  6
ByLayer
 10
179.4989999999999952
 20
12.2840000000000007
 30
0.0
 11
179.4550000000000125
 21
12.4190000000000005
 31
0.0
  0
LINE
  5
1D5
100
AcDbEntity
100
AcDbLine
  8
0
 62
256
370
-1
  6
ByLayer
 10
179.4550000000000125
 20
12.4190000000000005
 30
0.0
 11
179.429000000000002
 21
12.5579999999999998
 31
0.0
  0
LINE
  5
1D6
100
AcDbEntity
100
AcDbLine
  8
0
 62
256
370
-1
  6
ByLayer
 10
179.429000000000002
 20
12.5579999999999998
 30
0.0
 11
179.4199999999999875
 21
12.6999999999999993
 31
0.0
  0
LINE
  5
1D7
100
AcDbEntity
100
AcDbLine
  8
0
 62
256
370
-1
  6
ByLayer
 10
179.4199999999999875
 20
57.1499999999999986
 30
0.0
 11
179.429000000000002
 21
57.2920000000000016
 31
0.0
  0
LINE
  5
1D8
100
AcDbEntity
100
AcDbLine
  8
0
 62
256
370
-1
  6
ByLayer
 10
179.429000000000002
 20
57.2920000000000016
 30
0.0
 11
179.4550000000000125
 21
57.4309999999999974
 31
0.0
  0
LINE
  5
1D9
100
AcDbEntity
100
AcDbLine
  8
0
 62
256
370
-1
  6
ByLayer
 10
179.4550000000000125
 20
57.4309999999999974
 30
0.0
 11
179.4989999999999952
 21
57.5660000000000025
 31
0.0
  0
LINE
  5
1DA
100
AcDbEntity
100
AcDbLine
  8
0
 62
256
370
-1
  6
ByLayer
 10
179.4989999999999952
 20
57.5660000000000025
 30
0.0
 11
179.5600000000000023
 21
57.6950000000000003
 31
0.0
  0
LINE
  5
1DB
100
AcDbEntity
100
AcDbLine
  8
0
 62
256
370
-1
  6
ByLayer
 10
179.5600000000000023
 20
57.6950000000000003
 30
0.0
 11
179.6359999999999957
 21
57.8140000000000001
 31
0.0
  0
LINE
  5
1DC
100
AcDbEntity
100
AcDbLine
  8
0
 62
256
370
-1
  6
ByLayer
 10
179.6359999999999957
 20
57.8140000000000001
 30
0.0
 11
179.7259999999999991
 21
57.9239999999999995
 31
0.0
  0
LINE
  5
1DD
100
AcDbEntity
100
AcDbLine
  8
0
 62
256
370
-1
  6
ByLayer
 10
179.7259999999999991
 20
57.9239999999999995
 30
0.0
 11
179.8300000000000125
 21
58.0210000000000008
 31
0.0
  0
LINE
  5
1DE
100
AcDbEntity
100
AcDbLine
  8
0
 62
256
370
-1
  6
ByLayer
 10
179.8300000000000125
 20
58.0210000000000008
 30
0.0
 11
179.9439999999999884
 21
58.1039999999999992
 31
0.0
  0
LINE
  5
1DF
100
AcDbEntity
100
AcDbLine
  8
0
 62
256
370
-1
  6
ByLayer
 10
179.9439999999999884
 20
58.1039999999999992
 30
0.0
 11
180.0689999999999884
 21
58.1730000000000018
 31
0.0
  0
LINE
  5
1E0
100
AcDbEntity
100
AcDbLine
  8
0
 62
256
370
-1
  6
ByLayer
 10
180.0689999999999884
 20
58.1730000000000018
 30
0.0
 11
180.2009999999999934
 21
58.2250000000000014
 31
0.0
  0
LINE
  5
1E1
100
AcDbEntity
100
AcDbLine
  8
0
 62
256
370
-1
  6
ByLayer
 10
180.2009999999999934
 20
58.2250000000000014
 30
0.0
 11
180.3379999999999939
 21
58.259999999999998
 31
0.0
  0
LINE
  5
1E2
100
AcDbEntity
100
AcDbLine
  8
0
 62
256
370
-1
  6
ByLayer
 10
180.3379999999999939
 20
58.259999999999998
 30
0.0
 11
180.4790000000000134
 21
58.2779999999999987
 31
0.0
  0
LINE
  5
1E3
100
AcDbEntity
100
AcDbLine
  8
0
 62
256
370
-1
  6
ByLayer
 10
180.4790000000000134
 20
58.2779999999999987
 30
0.0
 11
180.6210000000000093
 21
58.2779999999999987
 31
0.0
  0
LINE
  5
1E4
100
AcDbEntity
100
AcDbLine
  8
0
 62
256
370
-1
  6
ByLayer
 10
180.6210000000000093
 20
58.2779999999999987
 30
0.0
 11
180.7620000000000005
 21
58.259999999999998
 31
0.0
  0
LINE
  5
1E5
100
AcDbEntity
100
AcDbLine
  8
0
 62
256
370
-1
  6
ByLayer
 10
180.7620000000000005
 20
58.259999999999998
 30
0.0
 11
180.8990000000000009
 21
58.2250000000000014
 31
0.0
  0
LINE
  5
1E6
100
AcDbEntity
100
AcDbLine
  8
0
 62
256
370
-1
  6
ByLayer
 10
180.8990000000000009
 20
58.2250000000000014
 30
0.0
 11
181.0310000000000059
 21
58.1730000000000018
 31
0.0
  0
LINE
  5
1E7
100
AcDbEntity
100
AcDbLine
  8
0
 62
256
370
-1
  6
ByLayer
 10
181.0310000000000059
 20
58.1730000000000018
 30
0.0
 11
181.1560000000000059
 21
58.1039999999999992
 31
0.0
  0
LINE
  5
1E8
100
AcDbEntity
100
AcDbLine
  8
0
 62
256
370
-1
  6
ByLayer
 10
181.1560000000000059
 20
58.1039999999999992
 30
0.0
 11
181.2700000000000102
 21
58.0210000000000008
 31
0.0
  0
LINE
  5
1E9
100
AcDbEntity
100
AcDbLine
  8
0
 62
256
370
-1
  6
ByLayer
 10
181.2700000000000102
 20
58.0210000000000008
 30
0.0
 11
181.3739999999999952
 21
57.9239999999999995
 31
0.0
  0
LINE
  5
1EA
100
AcDbEntity
100
AcDbLine
  8
0
 62
256
370
-1
  6
ByLayer
 10
181.3739999999999952
 20
57.9239999999999995
 30
0.0
 11
181.4639999999999986
 21
57.8140000000000001
 31
0.0
  0
LINE
  5
1EB
100
AcDbEntity
100
AcDbLine
  8
0
 62
256
370
-1
  6
ByLayer
 10
181.4639999999999986
 20
57.8140000000000001
 30
0.0
 11
181.539999999999992
 21
57.6950000000000003
 31
0.0
  0
LINE
  5
1EC
100
AcDbEntity
100
AcDbLine
  8
0
 62
256
370
-1
  6
ByLayer
 10
181.539999999999992
 20
57.6950000000000003
 30
0.0
 11
181.6009999999999991
 21
57.5660000000000025
 31
0.0
  0
LINE
  5
1ED
100
AcDbEntity
100
AcDbLine
  8
0
 62
256
370
-1
  6
ByLayer
 10
181.6009999999999991
 20
57.5660000000000025
 30
0.0
 11
181.6450000000000102
 21
57.4309999999999974
 31
0.0
  0
LINE
  5
1EE
100
AcDbEntity
100
AcDbLine
  8
0
 62
256
370
-1
  6
ByLayer
 10
181.6450000000000102
 20
57.4309999999999974
 30
0.0
 11
181.6709999999999923
 21
57.2920000000000016
 31
0.0
  0
LINE
  5
1EF
100
AcDbEntity
100
AcDbLine
  8
0
 62
256
370
-1
  6
ByLayer
 10
181.6709999999999923
 20
57.2920000000000016
 30
0.0
 11
181.6800000000000068
 21
57.1499999999999986
 31
0.0
  0
LINE
  5
1F0
100
AcDbEntity
100
AcDbLine
  8
0
 62
256
370
-1
  6
ByLayer
 10
181.6800000000000068
 20
57.1499999999999986
 30
0.0
 11
181.6709999999999923
 21
57.0080000000000027
 31
0.0
  0
LINE
  5
1F1
100
AcDbEntity
100
AcDbLine
  8
0
 62
256
370
-1
  6
ByLayer
 10
181.6709999999999923
 20
57.0080000000000027
 30
0.0
 11
181.6450000000000102
 21
56.8689999999999998
 31
0.0
  0
LINE
  5
1F2
100
AcDbEntity
100
AcDbLine
  8
0
 62
256
370
-1
  6
ByLayer
 10
181.6450000000000102
 20
56.8689999999999998
 30
0.0
 11
181.6009999999999991
 21
56.7340000000000018
 31
0.0
  0
LINE
  5
1F3
100
AcDbEntity
100
AcDbLine
  8
0
 62
256
370
-1
  6
ByLayer
 10
181.6009999999999991
 20
56.7340000000000018
 30
0.0
 11
181.539999999999992
 21
56.6049999999999969
 31
0.0
  0
LINE
  5
1F4
100
AcDbEntity
100
AcDbLine
  8
0
 62
256
370
-1
  6
ByLayer
 10
181.539999999999992
 20
56.6049999999999969
 30
0.0
 11
181.4639999999999986
 21
56.4859999999999971
 31
0.0
  0
LINE
  5
1F5
100
AcDbEntity
100
AcDbLine
  8
0
 62
256
370
-1
  6
ByLayer
 10
181.4639999999999986
 20
56.4859999999999971
 30
0.0
 11
181.3739999999999952
 21
56.3759999999999977
 31
0.0
  0
LINE
  5
1F6
100
AcDbEntity
100
AcDbLine
  8
0
 62
256
370
-1
  6
ByLayer
 10
181.3739999999999952
 20
56.3759999999999977
 30
0.0
 11
181.2700000000000102
 21
56.2790000000000035
 31
0.0
  0
LINE
  5
1F7
100
AcDbEntity
100
AcDbLine
  8
0
 62
256
370
-1
  6
ByLayer
 10
181.2700000000000102
 20
56.2790000000000035
 30
0.0
 11
181.1560000000000059
 21
56.195999999999998
 31
0.0
  0
LINE
  5
1F8
100
AcDbEntity
100
AcDbLine
  8
0
 62
256
370
-1
  6
ByLayer
 10
181.1560000000000059
 20
56.195999999999998
 30
0.0
 11
181.0310000000000059
 21
56.1270000000000024
 31
0.0
  0
LINE
  5
1F9
100
AcDbEntity
100
AcDbLine
  8
0
 62
256
370
-1
  6
ByLayer
 10
181.0310000000000059
 20
56.1270000000000024
 30
0.0
 11
180.8990000000000009
 21
56.0750000000000028
 31
0.0
  0
LINE
  5
1FA
100
AcDbEntity
100
AcDbLine
  8
0
 62
256
370
-1
  6
ByLayer
 10
180.8990000000000009
 20
56.0750000000000028
 30
0.0
 11
180.7620000000000005
 21
56.0399999999999991
 31
0.0
  0
LINE
  5
1FB
100
AcDbEntity
100
AcDbLine
  8
0
 62
256
370
-1
  6
ByLayer
 10
180.7620000000000005
 20
56.0399999999999991
 30
0.0
 11
180.6210000000000093
 21
56.0219999999999985
 31
0.0
  0
LINE
  5
1FC
100
AcDbEntity
100
AcDbLine
  8
0
 62
256
370
-1
  6
ByLayer
 10
180.6210000000000093
 20
56.0219999999999985
 30
0.0
 11
180.4790000000000134
 21
56.0219999999999985
 31
0.0
  0
LINE
  5
1FD
100
AcDbEntity
100
AcDbLine
  8
0
 62
256
370
-1
  6
ByLayer
 10
180.4790000000000134
 20
56.0219999999999985
 30
0.0
 11
180.3379999999999939
 21
56.0399999999999991
 31
0.0
  0
LINE
  5
1FE
100
AcDbEntity
100
AcDbLine
  8
0
 62
256
370
-1
  6
ByLayer
 10
180.3379999999999939
 20
56.0399999999999991
 30
0.0
 11
180.2009999999999934
 21
56.0750000000000028
 31
0.0
  0
LINE
  5
1FF
100
AcDbEntity
100
AcDbLine
  8
0
 62
256
370
-1
  6
ByLayer
 10
180.2009999999999934
 20
56.0750000000000028
 30
0.0
 11
180.0689999999999884
 21
56.1270000000000024
 31
0.0
  0
LINE
  5
200
100
AcDbEntity
100
AcDbLine
  8
0
 62
256
370
-1
  6
ByLayer
 10
180.0689999999999884
 20
56.1270000000000024
 30
0.0
 11
179.9439999999999884
 21
56.195999999999998
 31
0.0
  0
LINE
  5
201
100
AcDbEntity
100
AcDbLine
  8
0
 62
256
370
-1
  6
ByLayer
 10
179.9439999999999884
 20
56.195999999999998
 30
0.0
 11
179.8300000000000125
 21
56.2790000000000035
 31
0.0
  0
LINE
  5
202
100
AcDbEntity
100
AcDbLine
  8
0
 62
256
370
-1
  6
ByLayer
 10
179.8300000000000125
 20
56.2790000000000035
 30
0.0
 11
179.7259999999999991
 21
56.3759999999999977
 31
0.0
  0
LINE
  5
203
100
AcDbEntity
100
AcDbLine
  8
0
 62
256
370
-1
  6
ByLayer
 10
179.7259999999999991
 20
56.3759999999999977
 30
0.0
 11
179.6359999999999957
 21
56.4859999999999971
 31
0.0
  0
LINE
  5
204
100
AcDbEntity
100
AcDbLine
  8
0
 62
256
370
-1
  6
ByLayer
 10
179.6359999999999957
 20
56.4859999999999971
 30
0.0
 11
179.5600000000000023
 21
56.6049999999999969
 31
0.0
  0
LINE
  5
205
100
AcDbEntity
100
AcDbLine
  8
0
 62
256
370
-1
  6
ByLayer
 10
179.5600000000000023
 20
56.6049999999999969
 30
0.0
 11
179.4989999999999952
 21
56.7340000000000018
 31
0.0
  0
LINE
  5
206
100
AcDbEntity
100
AcDbLine
  8
0
 62
256
370
-1
  6
ByLayer
 10
179.4989999999999952
 20
56.7340000000000018
 30
0.0
 11
179.4550000000000125
 21
56.8689999999999998
 31
0.0
  0
LINE
  5
207
100
AcDbEntity
100
AcDbLine
  8
0
 62
256
370
-1
  6
ByLayer
 10
179.4550000000000125
 20
56.8689999999999998
 30
0.0
 11
179.429000000000002
 21
57.0080000000000027
 31
0.0
  0
LINE
  5
208
100
AcDbEntity
100
AcDbLine
  8
0
 62
256
370
-1
  6
ByLayer
 10
179.429000000000002
 20
57.0080000000000027
 30
0.0
 11
179.4199999999999875
 21
57.1499999999999986
 31
0.0
  0
ENDSEC
  0
SECTION
  2
OBJECTS
  0
DICTIONARY
  5
C
100
AcDbDictionary
280
0
281
1
  3
ACAD_GROUP
350
D
  3
ACAD_LAYOUT
350
1A
  3
ACAD_MLINESTYLE
350
17
  3
ACAD_PLOTSETTINGS
350
19
  3
ACAD_PLOTSTYLENAME
350
E
  3
AcDbVariableDictionary
350
209
  0
DICTIONARY
  5
D
100
AcDbDictionary
280
0
281
1
  0
ACDBDICTIONARYWDFLT
  5
E
100
AcDbDictionary
281
1
  3
Normal
350
F
100
AcDbDictionaryWithDefault
340
F
  0
ACDBPLACEHOLDER
  5
F
  0
DICTIONARY
  5
17
100
AcDbDictionary
280
0
281
1
  3
Standard
350
18
  0
MLINESTYLE
  5
18
100
AcDbMlineStyle
  2
STANDARD
 70
0
  3

 62
256
 51
90.0
 52
90.0
 71
2
 49
0.5
 62
256
  6
BYLAYER
 49
-0.5
 62
256
  6
BYLAYER
  0
DICTIONARY
  5
19
100
AcDbDictionary
280
0
281
1
  0
DICTIONARY
  5
1A
100
AcDbDictionary
281
1
  3
Layout1
350
1E
  3
Layout2
350
26
  3
Model
350
22
  0
LAYOUT
  5
1E
100
AcDbPlotSettings
  1

  2
C:\Program Files\AutoCAD 2002\plotters\DWF ePlot (optimized for plotting).pc3
  4

  6

 40
0.0
 41
0.0
 42
0.0
 43
0.0
 44
0.0
 45
0.0
 46
0.0
 47
0.0
 48
0.0
 49
0.0
140
0.0
141
0.0
142
1.0
143
1.0
 70
688
 72
0
 73
0
 74
5
  7

 75
16
147
1.0
148
0.0
149
0.0
100
AcDbLayout
  1
Layout1
 70
1
 71
1
 10
0.0
 20
0.0
 11
420.0
 21
297.0
 12
0.0
 22
0.0
 32
0.0
 14
100000000000000000000.0
 24
100000000000000000000.0
 34
100000000000000000000.0
 15
-100000000000000000000.0
 25
-100000000000000000000.0
 35
-100000000000000000000.0
146
0.0
 13
0.0
 23
0.0
 33
0.0
 16
1.0
 26
0.0
 36
0.0
 17
0.0
 27
1.0
 37
0.0
 76
0
330
1B
  0
LAYOUT
  5
22
100
AcDbPlotSettings
  1

  2
C:\Program Files\AutoCAD 2002\plotters\DWF ePlot (optimized for plotting).pc3
  4

  6

 40
0.0
 41
0.0
 42
0.0
 43
0.0
 44
0.0
 45
0.0
 46
0.0
 47
0.0
 48
0.0
 49
0.0
140
0.0
141
0.0
142
1.0
143
1.0
 70
1712
 72
0
 73
0
 74
0
  7

 75
0
147
1.0
148
0.0
149
0.0
100
AcDbLayout
  1
Model
 70
1
 71
0
 10
0.0
 20
0.0
 11
12.0
 21
9.0
 12
0.0
 22
0.0
 32
0.0
 14
0.0
 24
0.0
 34
0.0
 15
0.0
 25
0.0
 35
0.0
146
0.0
 13
0.0
 23
0.0
 33
0.0
 16
1.0
 26
0.0
 36
0.0
 17
0.0
 27
1.0
 37
0.0
 76
0
330
1F
  0
LAYOUT
  5
26
100
AcDbPlotSettings
  1

  2
C:\Program Files\AutoCAD 2002\plotters\DWF ePlot (optimized for plotting).pc3
  4

  6

 40
0.0
 41
0.0
 42
0.0
 43
0.0
 44
0.0
 45
0.0
 46
0.0
 47
0.0
 48
0.0
 49
0.0
140
0.0
141
0.0
142
1.0
143
1.0
 70
688
 72
0
 73
0
 74
5
  7

 75
16
147
1.0
148
0.0
149
0.0
100
AcDbLayout
  1
Layout2
 70
1
 71
2
 10
0.0
 20
0.0
 11
12.0
 21
9.0
 12
0.0
 22
0.0
 32
0.0
 14
0.0
 24
0.0
 34
0.0
 15
0.0
 25
0.0
 35
0.0
146
0.0
 13
0.0
 23
0.0
 33
0.0
 16
1.0
 26
0.0
 36
0.0
 17
0.0
 27
1.0
 37
0.0
 76
0
330
23
  0
DICTIONARY
  5
209
100
AcDbDictionary
281
1
  3
DIMASSOC
350
20B
  3
HIDETEXT
350
20A
  0
DICTIONARYVAR
  5
20A
100
DictionaryVariables
280
0
  1
2
  0
DICTIONARYVAR
  5
20B
100
DictionaryVariables
280
0
  1
1
  0
ENDSEC
  0
EOF
