  0
SECTION
  2
BLOCKS
  0
ENDSEC
  0
SECTION
  2
ENTITIES
  0
LINE
  8
0
 10
175.05
 11
175.05
 20
-63.5
 21
63.5
  0
LINE
  8
0
 10
175.05
 11
186.05
 20
63.5
 21
63.5
  0
LINE
  8
0
 10
186.05
 11
186.05
 20
63.5
 21
-63.5
  0
LINE
  8
0
 10
186.05
 11
175.05
 20
-63.5
 21
-63.5
  0
LINE
  8
0
 10
176.05
 11
176.085
 20
-50.8
 21
-50.236
  0
LINE
  8
0
 10
176.085
 11
176.191
 20
-50.236
 21
-49.681
  0
LINE
  8
0
 10
176.191
 11
176.366
 20
-49.681
 21
-49.143
  0
LINE
  8
0
 10
176.366
 11
176.607
 20
-49.143
 21
-48.632
  0
LINE
  8
0
 10
176.607
 11
176.909
 20
-48.632
 21
-48.155
  0
LINE
  8
0
 10
176.909
 11
177.27
 20
-48.155
 21
-47.72
  0
LINE
  8
0
 10
177.27
 11
177.682
 20
-47.72
 21
-47.333
  0
LINE
  8
0
 10
177.682
 11
178.139
 20
-47.333
 21
-47.001
  0
LINE
  8
0
 10
178.139
 11
178.634
 20
-47.001
 21
-46.728
  0
LINE
  8
0
 10
178.634
 11
179.159
 20
-46.728
 21
-46.52
  0
LINE
  8
0
 10
179.159
 11
179.707
 20
-46.52
 21
-46.38
  0
LINE
  8
0
 10
179.707
 11
180.267
 20
-46.38
 21
-46.309
  0
LINE
  8
0
 10
180.267
 11
180.833
 20
-46.309
 21
-46.309
  0
LINE
  8
0
 10
180.833
 11
181.393
 20
-46.309
 21
-46.38
  0
LINE
  8
0
 10
181.393
 11
181.941
 20
-46.38
 21
-46.52
  0
LINE
  8
0
 10
181.941
 11
182.466
 20
-46.52
 21
-46.728
  0
LINE
  8
0
 10
182.466
 11
182.961
 20
-46.728
 21
-47.001
  0
LINE
  8
0
 10
182.961
 11
183.418
 20
-47.001
 21
-47.333
  0
LINE
  8
0
 10
183.418
 11
183.83
 20
-47.333
 21
-47.72
  0
LINE
  8
0
 10
183.83
 11
184.191
 20
-47.72
 21
-48.155
  0
LINE
  8
0
 10
184.191
 11
184.493
 20
-48.155
 21
-48.632
  0
LINE
  8
0
 10
184.493
 11
184.734
 20
-48.632
 21
-49.143
  0
LINE
  8
0
 10
184.734
 11
184.909
 20
-49.143
 21
-49.681
  0
LINE
  8
0
 10
184.909
 11
185.015
 20
-49.681
 21
-50.236
  0
LINE
  8
0
 10
185.015
 11
185.05
 20
-50.236
 21
-50.8
  0
LINE
  8
0
 10
185.05
 11
185.015
 20
-50.8
 21
-51.364
  0
LINE
  8
0
 10
185.015
 11
184.909
 20
-51.364
 21
-51.919
  0
LINE
  8
0
 10
184.909
 11
184.734
 20
-51.919
 21
-52.457
  0
LINE
  8
0
 10
184.734
 11
184.493
 20
-52.457
 21
-52.968
  0
LINE
  8
0
 10
184.493
 11
184.191
 20
-52.968
 21
-53.445
  0
LINE
  8
0
 10
184.191
 11
183.83
 20
-53.445
 21
-53.88
  0
LINE
  8
0
 10
183.83
 11
183.418
 20
-53.88
 21
-54.267
  0
LINE
  8
0
 10
183.418
 11
182.961
 20
-54.267
 21
-54.599
  0
LINE
  8
0
 10
182.961
 11
182.466
 20
-54.599
 21
-54.872
  0
LINE
  8
0
 10
182.466
 11
181.941
 20
-54.872
 21
-55.08
  0
LINE
  8
0
 10
181.941
 11
181.393
 20
-55.08
 21
-55.22
  0
LINE
  8
0
 10
181.393
 11
180.833
 20
-55.22
 21
-55.291
  0
LINE
  8
0
 10
180.833
 11
180.267
 20
-55.291
 21
-55.291
  0
LINE
  8
0
 10
180.267
 11
179.707
 20
-55.291
 21
-55.22
  0
LINE
  8
0
 10
179.707
 11
179.159
 20
-55.22
 21
-55.08
  0
LINE
  8
0
 10
179.159
 11
178.634
 20
-55.08
 21
-54.872
  0
LINE
  8
0
 10
178.634
 11
178.139
 20
-54.872
 21
-54.599
  0
LINE
  8
0
 10
178.139
 11
177.682
 20
-54.599
 21
-54.267
  0
LINE
  8
0
 10
177.682
 11
177.27
 20
-54.267
 21
-53.88
  0
LINE
  8
0
 10
177.27
 11
176.909
 20
-53.88
 21
-53.445
  0
LINE
  8
0
 10
176.909
 11
176.607
 20
-53.445
 21
-52.968
  0
LINE
  8
0
 10
176.607
 11
176.366
 20
-52.968
 21
-52.457
  0
LINE
  8
0
 10
176.366
 11
176.191
 20
-52.457
 21
-51.919
  0
LINE
  8
0
 10
176.191
 11
176.085
 20
-51.919
 21
-51.364
  0
LINE
  8
0
 10
176.085
 11
176.05
 20
-51.364
 21
-50.8
  0
LINE
  8
0
 10
176.05
 11
176.085
 20
-25.4
 21
-24.836
  0
LINE
  8
0
 10
176.085
 11
176.191
 20
-24.836
 21
-24.281
  0
LINE
  8
0
 10
176.191
 11
176.366
 20
-24.281
 21
-23.743
  0
LINE
  8
0
 10
176.366
 11
176.607
 20
-23.743
 21
-23.232
  0
LINE
  8
0
 10
176.607
 11
176.909
 20
-23.232
 21
-22.755
  0
LINE
  8
0
 10
176.909
 11
177.27
 20
-22.755
 21
-22.32
  0
LINE
  8
0
 10
177.27
 11
177.682
 20
-22.32
 21
-21.933
  0
LINE
  8
0
 10
177.682
 11
178.139
 20
-21.933
 21
-21.601
  0
LINE
  8
0
 10
178.139
 11
178.634
 20
-21.601
 21
-21.328
  0
LINE
  8
0
 10
178.634
 11
179.159
 20
-21.328
 21
-21.12
  0
LINE
  8
0
 10
179.159
 11
179.707
 20
-21.12
 21
-20.98
  0
LINE
  8
0
 10
179.707
 11
180.267
 20
-20.98
 21
-20.909
  0
LINE
  8
0
 10
180.267
 11
180.833
 20
-20.909
 21
-20.909
  0
LINE
  8
0
 10
180.833
 11
181.393
 20
-20.909
 21
-20.98
  0
LINE
  8
0
 10
181.393
 11
181.941
 20
-20.98
 21
-21.12
  0
LINE
  8
0
 10
181.941
 11
182.466
 20
-21.12
 21
-21.328
  0
LINE
  8
0
 10
182.466
 11
182.961
 20
-21.328
 21
-21.601
  0
LINE
  8
0
 10
182.961
 11
183.418
 20
-21.601
 21
-21.933
  0
LINE
  8
0
 10
183.418
 11
183.83
 20
-21.933
 21
-22.32
  0
LINE
  8
0
 10
183.83
 11
184.191
 20
-22.32
 21
-22.755
  0
LINE
  8
0
 10
184.191
 11
184.493
 20
-22.755
 21
-23.232
  0
LINE
  8
0
 10
184.493
 11
184.734
 20
-23.232
 21
-23.743
  0
LINE
  8
0
 10
184.734
 11
184.909
 20
-23.743
 21
-24.281
  0
LINE
  8
0
 10
184.909
 11
185.015
 20
-24.281
 21
-24.836
  0
LINE
  8
0
 10
185.015
 11
185.05
 20
-24.836
 21
-25.4
  0
LINE
  8
0
 10
185.05
 11
185.015
 20
-25.4
 21
-25.964
  0
LINE
  8
0
 10
185.015
 11
184.909
 20
-25.964
 21
-26.519
  0
LINE
  8
0
 10
184.909
 11
184.734
 20
-26.519
 21
-27.057
  0
LINE
  8
0
 10
184.734
 11
184.493
 20
-27.057
 21
-27.568
  0
LINE
  8
0
 10
184.493
 11
184.191
 20
-27.568
 21
-28.045
  0
LINE
  8
0
 10
184.191
 11
183.83
 20
-28.045
 21
-28.48
  0
LINE
  8
0
 10
183.83
 11
183.418
 20
-28.48
 21
-28.867
  0
LINE
  8
0
 10
183.418
 11
182.961
 20
-28.867
 21
-29.199
  0
LINE
  8
0
 10
182.961
 11
182.466
 20
-29.199
 21
-29.472
  0
LINE
  8
0
 10
182.466
 11
181.941
 20
-29.472
 21
-29.68
  0
LINE
  8
0
 10
181.941
 11
181.393
 20
-29.68
 21
-29.82
  0
LINE
  8
0
 10
181.393
 11
180.833
 20
-29.82
 21
-29.891
  0
LINE
  8
0
 10
180.833
 11
180.267
 20
-29.891
 21
-29.891
  0
LINE
  8
0
 10
180.267
 11
179.707
 20
-29.891
 21
-29.82
  0
LINE
  8
0
 10
179.707
 11
179.159
 20
-29.82
 21
-29.68
  0
LINE
  8
0
 10
179.159
 11
178.634
 20
-29.68
 21
-29.472
  0
LINE
  8
0
 10
178.634
 11
178.139
 20
-29.472
 21
-29.199
  0
LINE
  8
0
 10
178.139
 11
177.682
 20
-29.199
 21
-28.867
  0
LINE
  8
0
 10
177.682
 11
177.27
 20
-28.867
 21
-28.48
  0
LINE
  8
0
 10
177.27
 11
176.909
 20
-28.48
 21
-28.045
  0
LINE
  8
0
 10
176.909
 11
176.607
 20
-28.045
 21
-27.568
  0
LINE
  8
0
 10
176.607
 11
176.366
 20
-27.568
 21
-27.057
  0
LINE
  8
0
 10
176.366
 11
176.191
 20
-27.057
 21
-26.519
  0
LINE
  8
0
 10
176.191
 11
176.085
 20
-26.519
 21
-25.964
  0
LINE
  8
0
 10
176.085
 11
176.05
 20
-25.964
 21
-25.4
  0
LINE
  8
0
 10
176.05
 11
176.085
 20
0
 21
0.564
  0
LINE
  8
0
 10
176.085
 11
176.191
 20
0.564
 21
1.119
  0
LINE
  8
0
 10
176.191
 11
176.366
 20
1.119
 21
1.657
  0
LINE
  8
0
 10
176.366
 11
176.607
 20
1.657
 21
2.168
  0
LINE
  8
0
 10
176.607
 11
176.909
 20
2.168
 21
2.645
  0
LINE
  8
0
 10
176.909
 11
177.27
 20
2.645
 21
3.08
  0
LINE
  8
0
 10
177.27
 11
177.682
 20
3.08
 21
3.467
  0
LINE
  8
0
 10
177.682
 11
178.139
 20
3.467
 21
3.799
  0
LINE
  8
0
 10
178.139
 11
178.634
 20
3.799
 21
4.072
  0
LINE
  8
0
 10
178.634
 11
179.159
 20
4.072
 21
4.28
  0
LINE
  8
0
 10
179.159
 11
179.707
 20
4.28
 21
4.42
  0
LINE
  8
0
 10
179.707
 11
180.267
 20
4.42
 21
4.491
  0
LINE
  8
0
 10
180.267
 11
180.833
 20
4.491
 21
4.491
  0
LINE
  8
0
 10
180.833
 11
181.393
 20
4.491
 21
4.42
  0
LINE
  8
0
 10
181.393
 11
181.941
 20
4.42
 21
4.28
  0
LINE
  8
0
 10
181.941
 11
182.466
 20
4.28
 21
4.072
  0
LINE
  8
0
 10
182.466
 11
182.961
 20
4.072
 21
3.799
  0
LINE
  8
0
 10
182.961
 11
183.418
 20
3.799
 21
3.467
  0
LINE
  8
0
 10
183.418
 11
183.83
 20
3.467
 21
3.08
  0
LINE
  8
0
 10
183.83
 11
184.191
 20
3.08
 21
2.645
  0
LINE
  8
0
 10
184.191
 11
184.493
 20
2.645
 21
2.168
  0
LINE
  8
0
 10
184.493
 11
184.734
 20
2.168
 21
1.657
  0
LINE
  8
0
 10
184.734
 11
184.909
 20
1.657
 21
1.119
  0
LINE
  8
0
 10
184.909
 11
185.015
 20
1.119
 21
0.564
  0
LINE
  8
0
 10
185.015
 11
185.05
 20
0.564
 21
0
  0
LINE
  8
0
 10
185.05
 11
185.015
 20
0
 21
-0.564
  0
LINE
  8
0
 10
185.015
 11
184.909
 20
-0.564
 21
-1.119
  0
LINE
  8
0
 10
184.909
 11
184.734
 20
-1.119
 21
-1.657
  0
LINE
  8
0
 10
184.734
 11
184.493
 20
-1.657
 21
-2.168
  0
LINE
  8
0
 10
184.493
 11
184.191
 20
-2.168
 21
-2.645
  0
LINE
  8
0
 10
184.191
 11
183.83
 20
-2.645
 21
-3.08
  0
LINE
  8
0
 10
183.83
 11
183.418
 20
-3.08
 21
-3.467
  0
LINE
  8
0
 10
183.418
 11
182.961
 20
-3.467
 21
-3.799
  0
LINE
  8
0
 10
182.961
 11
182.466
 20
-3.799
 21
-4.072
  0
LINE
  8
0
 10
182.466
 11
181.941
 20
-4.072
 21
-4.28
  0
LINE
  8
0
 10
181.941
 11
181.393
 20
-4.28
 21
-4.42
  0
LINE
  8
0
 10
181.393
 11
180.833
 20
-4.42
 21
-4.491
  0
LINE
  8
0
 10
180.833
 11
180.267
 20
-4.491
 21
-4.491
  0
LINE
  8
0
 10
180.267
 11
179.707
 20
-4.491
 21
-4.42
  0
LINE
  8
0
 10
179.707
 11
179.159
 20
-4.42
 21
-4.28
  0
LINE
  8
0
 10
179.159
 11
178.634
 20
-4.28
 21
-4.072
  0
LINE
  8
0
 10
178.634
 11
178.139
 20
-4.072
 21
-3.799
  0
LINE
  8
0
 10
178.139
 11
177.682
 20
-3.799
 21
-3.467
  0
LINE
  8
0
 10
177.682
 11
177.27
 20
-3.467
 21
-3.08
  0
LINE
  8
0
 10
177.27
 11
176.909
 20
-3.08
 21
-2.645
  0
LINE
  8
0
 10
176.909
 11
176.607
 20
-2.645
 21
-2.168
  0
LINE
  8
0
 10
176.607
 11
176.366
 20
-2.168
 21
-1.657
  0
LINE
  8
0
 10
176.366
 11
176.191
 20
-1.657
 21
-1.119
  0
LINE
  8
0
 10
176.191
 11
176.085
 20
-1.119
 21
-0.564
  0
LINE
  8
0
 10
176.085
 11
176.05
 20
-0.564
 21
0
  0
LINE
  8
0
 10
176.05
 11
176.085
 20
25.4
 21
25.964
  0
LINE
  8
0
 10
176.085
 11
176.191
 20
25.964
 21
26.519
  0
LINE
  8
0
 10
176.191
 11
176.366
 20
26.519
 21
27.057
  0
LINE
  8
0
 10
176.366
 11
176.607
 20
27.057
 21
27.568
  0
LINE
  8
0
 10
176.607
 11
176.909
 20
27.568
 21
28.045
  0
LINE
  8
0
 10
176.909
 11
177.27
 20
28.045
 21
28.48
  0
LINE
  8
0
 10
177.27
 11
177.682
 20
28.48
 21
28.867
  0
LINE
  8
0
 10
177.682
 11
178.139
 20
28.867
 21
29.199
  0
LINE
  8
0
 10
178.139
 11
178.634
 20
29.199
 21
29.472
  0
LINE
  8
0
 10
178.634
 11
179.159
 20
29.472
 21
29.68
  0
LINE
  8
0
 10
179.159
 11
179.707
 20
29.68
 21
29.82
  0
LINE
  8
0
 10
179.707
 11
180.267
 20
29.82
 21
29.891
  0
LINE
  8
0
 10
180.267
 11
180.833
 20
29.891
 21
29.891
  0
LINE
  8
0
 10
180.833
 11
181.393
 20
29.891
 21
29.82
  0
LINE
  8
0
 10
181.393
 11
181.941
 20
29.82
 21
29.68
  0
LINE
  8
0
 10
181.941
 11
182.466
 20
29.68
 21
29.472
  0
LINE
  8
0
 10
182.466
 11
182.961
 20
29.472
 21
29.199
  0
LINE
  8
0
 10
182.961
 11
183.418
 20
29.199
 21
28.867
  0
LINE
  8
0
 10
183.418
 11
183.83
 20
28.867
 21
28.48
  0
LINE
  8
0
 10
183.83
 11
184.191
 20
28.48
 21
28.045
  0
LINE
  8
0
 10
184.191
 11
184.493
 20
28.045
 21
27.568
  0
LINE
  8
0
 10
184.493
 11
184.734
 20
27.568
 21
27.057
  0
LINE
  8
0
 10
184.734
 11
184.909
 20
27.057
 21
26.519
  0
LINE
  8
0
 10
184.909
 11
185.015
 20
26.519
 21
25.964
  0
LINE
  8
0
 10
185.015
 11
185.05
 20
25.964
 21
25.4
  0
LINE
  8
0
 10
185.05
 11
185.015
 20
25.4
 21
24.836
  0
LINE
  8
0
 10
185.015
 11
184.909
 20
24.836
 21
24.281
  0
LINE
  8
0
 10
184.909
 11
184.734
 20
24.281
 21
23.743
  0
LINE
  8
0
 10
184.734
 11
184.493
 20
23.743
 21
23.232
  0
LINE
  8
0
 10
184.493
 11
184.191
 20
23.232
 21
22.755
  0
LINE
  8
0
 10
184.191
 11
183.83
 20
22.755
 21
22.32
  0
LINE
  8
0
 10
183.83
 11
183.418
 20
22.32
 21
21.933
  0
LINE
  8
0
 10
183.418
 11
182.961
 20
21.933
 21
21.601
  0
LINE
  8
0
 10
182.961
 11
182.466
 20
21.601
 21
21.328
  0
LINE
  8
0
 10
182.466
 11
181.941
 20
21.328
 21
21.12
  0
LINE
  8
0
 10
181.941
 11
181.393
 20
21.12
 21
20.98
  0
LINE
  8
0
 10
181.393
 11
180.833
 20
20.98
 21
20.909
  0
LINE
  8
0
 10
180.833
 11
180.267
 20
20.909
 21
20.909
  0
LINE
  8
0
 10
180.267
 11
179.707
 20
20.909
 21
20.98
  0
LINE
  8
0
 10
179.707
 11
179.159
 20
20.98
 21
21.12
  0
LINE
  8
0
 10
179.159
 11
178.634
 20
21.12
 21
21.328
  0
LINE
  8
0
 10
178.634
 11
178.139
 20
21.328
 21
21.601
  0
LINE
  8
0
 10
178.139
 11
177.682
 20
21.601
 21
21.933
  0
LINE
  8
0
 10
177.682
 11
177.27
 20
21.933
 21
22.32
  0
LINE
  8
0
 10
177.27
 11
176.909
 20
22.32
 21
22.755
  0
LINE
  8
0
 10
176.909
 11
176.607
 20
22.755
 21
23.232
  0
LINE
  8
0
 10
176.607
 11
176.366
 20
23.232
 21
23.743
  0
LINE
  8
0
 10
176.366
 11
176.191
 20
23.743
 21
24.281
  0
LINE
  8
0
 10
176.191
 11
176.085
 20
24.281
 21
24.836
  0
LINE
  8
0
 10
176.085
 11
176.05
 20
24.836
 21
25.4
  0
LINE
  8
0
 10
176.05
 11
176.085
 20
50.8
 21
51.364
  0
LINE
  8
0
 10
176.085
 11
176.191
 20
51.364
 21
51.919
  0
LINE
  8
0
 10
176.191
 11
176.366
 20
51.919
 21
52.457
  0
LINE
  8
0
 10
176.366
 11
176.607
 20
52.457
 21
52.968
  0
LINE
  8
0
 10
176.607
 11
176.909
 20
52.968
 21
53.445
  0
LINE
  8
0
 10
176.909
 11
177.27
 20
53.445
 21
53.88
  0
LINE
  8
0
 10
177.27
 11
177.682
 20
53.88
 21
54.267
  0
LINE
  8
0
 10
177.682
 11
178.139
 20
54.267
 21
54.599
  0
LINE
  8
0
 10
178.139
 11
178.634
 20
54.599
 21
54.872
  0
LINE
  8
0
 10
178.634
 11
179.159
 20
54.872
 21
55.08
  0
LINE
  8
0
 10
179.159
 11
179.707
 20
55.08
 21
55.22
  0
LINE
  8
0
 10
179.707
 11
180.267
 20
55.22
 21
55.291
  0
LINE
  8
0
 10
180.267
 11
180.833
 20
55.291
 21
55.291
  0
LINE
  8
0
 10
180.833
 11
181.393
 20
55.291
 21
55.22
  0
LINE
  8
0
 10
181.393
 11
181.941
 20
55.22
 21
55.08
  0
LINE
  8
0
 10
181.941
 11
182.466
 20
55.08
 21
54.872
  0
LINE
  8
0
 10
182.466
 11
182.961
 20
54.872
 21
54.599
  0
LINE
  8
0
 10
182.961
 11
183.418
 20
54.599
 21
54.267
  0
LINE
  8
0
 10
183.418
 11
183.83
 20
54.267
 21
53.88
  0
LINE
  8
0
 10
183.83
 11
184.191
 20
53.88
 21
53.445
  0
LINE
  8
0
 10
184.191
 11
184.493
 20
53.445
 21
52.968
  0
LINE
  8
0
 10
184.493
 11
184.734
 20
52.968
 21
52.457
  0
LINE
  8
0
 10
184.734
 11
184.909
 20
52.457
 21
51.919
  0
LINE
  8
0
 10
184.909
 11
185.015
 20
51.919
 21
51.364
  0
LINE
  8
0
 10
185.015
 11
185.05
 20
51.364
 21
50.8
  0
LINE
  8
0
 10
185.05
 11
185.015
 20
50.8
 21
50.236
  0
LINE
  8
0
 10
185.015
 11
184.909
 20
50.236
 21
49.681
  0
LINE
  8
0
 10
184.909
 11
184.734
 20
49.681
 21
49.143
  0
LINE
  8
0
 10
184.734
 11
184.493
 20
49.143
 21
48.632
  0
LINE
  8
0
 10
184.493
 11
184.191
 20
48.632
 21
48.155
  0
LINE
  8
0
 10
184.191
 11
183.83
 20
48.155
 21
47.72
  0
LINE
  8
0
 10
183.83
 11
183.418
 20
47.72
 21
47.333
  0
LINE
  8
0
 10
183.418
 11
182.961
 20
47.333
 21
47.001
  0
LINE
  8
0
 10
182.961
 11
182.466
 20
47.001
 21
46.728
  0
LINE
  8
0
 10
182.466
 11
181.941
 20
46.728
 21
46.52
  0
LINE
  8
0
 10
181.941
 11
181.393
 20
46.52
 21
46.38
  0
LINE
  8
0
 10
181.393
 11
180.833
 20
46.38
 21
46.309
  0
LINE
  8
0
 10
180.833
 11
180.267
 20
46.309
 21
46.309
  0
LINE
  8
0
 10
180.267
 11
179.707
 20
46.309
 21
46.38
  0
LINE
  8
0
 10
179.707
 11
179.159
 20
46.38
 21
46.52
  0
LINE
  8
0
 10
179.159
 11
178.634
 20
46.52
 21
46.728
  0
LINE
  8
0
 10
178.634
 11
178.139
 20
46.728
 21
47.001
  0
LINE
  8
0
 10
178.139
 11
177.682
 20
47.001
 21
47.333
  0
LINE
  8
0
 10
177.682
 11
177.27
 20
47.333
 21
47.72
  0
LINE
  8
0
 10
177.27
 11
176.909
 20
47.72
 21
48.155
  0
LINE
  8
0
 10
176.909
 11
176.607
 20
48.155
 21
48.632
  0
LINE
  8
0
 10
176.607
 11
176.366
 20
48.632
 21
49.143
  0
LINE
  8
0
 10
176.366
 11
176.191
 20
49.143
 21
49.681
  0
LINE
  8
0
 10
176.191
 11
176.085
 20
49.681
 21
50.236
  0
LINE
  8
0
 10
176.085
 11
176.05
 20
50.236
 21
50.8
  0
LINE
  8
0
 10
179.42
 11
179.429
 20
-57.15
 21
-57.008
  0
LINE
  8
0
 10
179.429
 11
179.455
 20
-57.008
 21
-56.869
  0
LINE
  8
0
 10
179.455
 11
179.499
 20
-56.869
 21
-56.734
  0
LINE
  8
0
 10
179.499
 11
179.56
 20
-56.734
 21
-56.605
  0
LINE
  8
0
 10
179.56
 11
179.636
 20
-56.605
 21
-56.486
  0
LINE
  8
0
 10
179.636
 11
179.726
 20
-56.486
 21
-56.376
  0
LINE
  8
0
 10
179.726
 11
179.83
 20
-56.376
 21
-56.279
  0
LINE
  8
0
 10
179.83
 11
179.944
 20
-56.279
 21
-56.196
  0
LINE
  8
0
 10
179.944
 11
180.069
 20
-56.196
 21
-56.127
  0
LINE
  8
0
 10
180.069
 11
180.201
 20
-56.127
 21
-56.075
  0
LINE
  8
0
 10
180.201
 11
180.338
 20
-56.075
 21
-56.04
  0
LINE
  8
0
 10
180.338
 11
180.479
 20
-56.04
 21
-56.022
  0
LINE
  8
0
 10
180.479
 11
180.621
 20
-56.022
 21
-56.022
  0
LINE
  8
0
 10
180.621
 11
180.762
 20
-56.022
 21
-56.04
  0
LINE
  8
0
 10
180.762
 11
180.899
 20
-56.04
 21
-56.075
  0
LINE
  8
0
 10
180.899
 11
181.031
 20
-56.075
 21
-56.127
  0
LINE
  8
0
 10
181.031
 11
181.156
 20
-56.127
 21
-56.196
  0
LINE
  8
0
 10
181.156
 11
181.27
 20
-56.196
 21
-56.279
  0
LINE
  8
0
 10
181.27
 11
181.374
 20
-56.279
 21
-56.376
  0
LINE
  8
0
 10
181.374
 11
181.464
 20
-56.376
 21
-56.486
  0
LINE
  8
0
 10
181.464
 11
181.54
 20
-56.486
 21
-56.605
  0
LINE
  8
0
 10
181.54
 11
181.601
 20
-56.605
 21
-56.734
  0
LINE
  8
0
 10
181.601
 11
181.645
 20
-56.734
 21
-56.869
  0
LINE
  8
0
 10
181.645
 11
181.671
 20
-56.869
 21
-57.008
  0
LINE
  8
0
 10
181.671
 11
181.68
 20
-57.008
 21
-57.15
  0
LINE
  8
0
 10
181.68
 11
181.671
 20
-57.15
 21
-57.292
  0
LINE
  8
0
 10
181.671
 11
181.645
 20
-57.292
 21
-57.431
  0
LINE
  8
0
 10
181.645
 11
181.601
 20
-57.431
 21
-57.566
  0
LINE
  8
0
 10
181.601
 11
181.54
 20
-57.566
 21
-57.695
  0
LINE
  8
0
 10
181.54
 11
181.464
 20
-57.695
 21
-57.814
  0
LINE
  8
0
 10
181.464
 11
181.374
 20
-57.814
 21
-57.924
  0
LINE
  8
0
 10
181.374
 11
181.27
 20
-57.924
 21
-58.021
  0
LINE
  8
0
 10
181.27
 11
181.156
 20
-58.021
 21
-58.104
  0
LINE
  8
0
 10
181.156
 11
181.031
 20
-58.104
 21
-58.173
  0
LINE
  8
0
 10
181.031
 11
180.899
 20
-58.173
 21
-58.225
  0
LINE
  8
0
 10
180.899
 11
180.762
 20
-58.225
 21
-58.26
  0
LINE
  8
0
 10
180.762
 11
180.621
 20
-58.26
 21
-58.278
  0
LINE
  8
0
 10
180.621
 11
180.479
 20
-58.278
 21
-58.278
  0
LINE
  8
0
 10
180.479
 11
180.338
 20
-58.278
 21
-58.26
  0
LINE
  8
0
 10
180.338
 11
180.201
 20
-58.26
 21
-58.225
  0
LINE
  8
0
 10
180.201
 11
180.069
 20
-58.225
 21
-58.173
  0
LINE
  8
0
 10
180.069
 11
179.944
 20
-58.173
 21
-58.104
  0
LINE
  8
0
 10
179.944
 11
179.83
 20
-58.104
 21
-58.021
  0
LINE
  8
0
 10
179.83
 11
179.726
 20
-58.021
 21
-57.924
  0
LINE
  8
0
 10
179.726
 11
179.636
 20
-57.924
 21
-57.814
  0
LINE
  8
0
 10
179.636
 11
179.56
 20
-57.814
 21
-57.695
  0
LINE
  8
0
 10
179.56
 11
179.499
 20
-57.695
 21
-57.566
  0
LINE
  8
0
 10
179.499
 11
179.455
 20
-57.566
 21
-57.431
  0
LINE
  8
0
 10
179.455
 11
179.429
 20
-57.431
 21
-57.292
  0
LINE
  8
0
 10
179.429
 11
179.42
 20
-57.292
 21
-57.15
  0
LINE
  8
0
 10
179.42
 11
179.429
 20
-12.7
 21
-12.558
  0
LINE
  8
0
 10
179.429
 11
179.455
 20
-12.558
 21
-12.419
  0
LINE
  8
0
 10
179.455
 11
179.499
 20
-12.419
 21
-12.284
  0
LINE
  8
0
 10
179.499
 11
179.56
 20
-12.284
 21
-12.155
  0
LINE
  8
0
 10
179.56
 11
179.636
 20
-12.155
 21
-12.036
  0
LINE
  8
0
 10
179.636
 11
179.726
 20
-12.036
 21
-11.926
  0
LINE
  8
0
 10
179.726
 11
179.83
 20
-11.926
 21
-11.829
  0
LINE
  8
0
 10
179.83
 11
179.944
 20
-11.829
 21
-11.746
  0
LINE
  8
0
 10
179.944
 11
180.069
 20
-11.746
 21
-11.677
  0
LINE
  8
0
 10
180.069
 11
180.201
 20
-11.677
 21
-11.625
  0
LINE
  8
0
 10
180.201
 11
180.338
 20
-11.625
 21
-11.59
  0
LINE
  8
0
 10
180.338
 11
180.479
 20
-11.59
 21
-11.572
  0
LINE
  8
0
 10
180.479
 11
180.621
 20
-11.572
 21
-11.572
  0
LINE
  8
0
 10
180.621
 11
180.762
 20
-11.572
 21
-11.59
  0
LINE
  8
0
 10
180.762
 11
180.899
 20
-11.59
 21
-11.625
  0
LINE
  8
0
 10
180.899
 11
181.031
 20
-11.625
 21
-11.677
  0
LINE
  8
0
 10
181.031
 11
181.156
 20
-11.677
 21
-11.746
  0
LINE
  8
0
 10
181.156
 11
181.27
 20
-11.746
 21
-11.829
  0
LINE
  8
0
 10
181.27
 11
181.374
 20
-11.829
 21
-11.926
  0
LINE
  8
0
 10
181.374
 11
181.464
 20
-11.926
 21
-12.036
  0
LINE
  8
0
 10
181.464
 11
181.54
 20
-12.036
 21
-12.155
  0
LINE
  8
0
 10
181.54
 11
181.601
 20
-12.155
 21
-12.284
  0
LINE
  8
0
 10
181.601
 11
181.645
 20
-12.284
 21
-12.419
  0
LINE
  8
0
 10
181.645
 11
181.671
 20
-12.419
 21
-12.558
  0
LINE
  8
0
 10
181.671
 11
181.68
 20
-12.558
 21
-12.7
  0
LINE
  8
0
 10
181.68
 11
181.671
 20
-12.7
 21
-12.842
  0
LINE
  8
0
 10
181.671
 11
181.645
 20
-12.842
 21
-12.981
  0
LINE
  8
0
 10
181.645
 11
181.601
 20
-12.981
 21
-13.116
  0
LINE
  8
0
 10
181.601
 11
181.54
 20
-13.116
 21
-13.245
  0
LINE
  8
0
 10
181.54
 11
181.464
 20
-13.245
 21
-13.364
  0
LINE
  8
0
 10
181.464
 11
181.374
 20
-13.364
 21
-13.474
  0
LINE
  8
0
 10
181.374
 11
181.27
 20
-13.474
 21
-13.571
  0
LINE
  8
0
 10
181.27
 11
181.156
 20
-13.571
 21
-13.654
  0
LINE
  8
0
 10
181.156
 11
181.031
 20
-13.654
 21
-13.723
  0
LINE
  8
0
 10
181.031
 11
180.899
 20
-13.723
 21
-13.775
  0
LINE
  8
0
 10
180.899
 11
180.762
 20
-13.775
 21
-13.81
  0
LINE
  8
0
 10
180.762
 11
180.621
 20
-13.81
 21
-13.828
  0
LINE
  8
0
 10
180.621
 11
180.479
 20
-13.828
 21
-13.828
  0
LINE
  8
0
 10
180.479
 11
180.338
 20
-13.828
 21
-13.81
  0
LINE
  8
0
 10
180.338
 11
180.201
 20
-13.81
 21
-13.775
  0
LINE
  8
0
 10
180.201
 11
180.069
 20
-13.775
 21
-13.723
  0
LINE
  8
0
 10
180.069
 11
179.944
 20
-13.723
 21
-13.654
  0
LINE
  8
0
 10
179.944
 11
179.83
 20
-13.654
 21
-13.571
  0
LINE
  8
0
 10
179.83
 11
179.726
 20
-13.571
 21
-13.474
  0
LINE
  8
0
 10
179.726
 11
179.636
 20
-13.474
 21
-13.364
  0
LINE
  8
0
 10
179.636
 11
179.56
 20
-13.364
 21
-13.245
  0
LINE
  8
0
 10
179.56
 11
179.499
 20
-13.245
 21
-13.116
  0
LINE
  8
0
 10
179.499
 11
179.455
 20
-13.116
 21
-12.981
  0
LINE
  8
0
 10
179.455
 11
179.429
 20
-12.981
 21
-12.842
  0
LINE
  8
0
 10
179.429
 11
179.42
 20
-12.842
 21
-12.7
  0
LINE
  8
0
 10
179.42
 11
179.429
 20
12.7
 21
12.842
  0
LINE
  8
0
 10
179.429
 11
179.455
 20
12.842
 21
12.981
  0
LINE
  8
0
 10
179.455
 11
179.499
 20
12.981
 21
13.116
  0
LINE
  8
0
 10
179.499
 11
179.56
 20
13.116
 21
13.245
  0
LINE
  8
0
 10
179.56
 11
179.636
 20
13.245
 21
13.364
  0
LINE
  8
0
 10
179.636
 11
179.726
 20
13.364
 21
13.474
  0
LINE
  8
0
 10
179.726
 11
179.83
 20
13.474
 21
13.571
  0
LINE
  8
0
 10
179.83
 11
179.944
 20
13.571
 21
13.654
  0
LINE
  8
0
 10
179.944
 11
180.069
 20
13.654
 21
13.723
  0
LINE
  8
0
 10
180.069
 11
180.201
 20
13.723
 21
13.775
  0
LINE
  8
0
 10
180.201
 11
180.338
 20
13.775
 21
13.81
  0
LINE
  8
0
 10
180.338
 11
180.479
 20
13.81
 21
13.828
  0
LINE
  8
0
 10
180.479
 11
180.621
 20
13.828
 21
13.828
  0
LINE
  8
0
 10
180.621
 11
180.762
 20
13.828
 21
13.81
  0
LINE
  8
0
 10
180.762
 11
180.899
 20
13.81
 21
13.775
  0
LINE
  8
0
 10
180.899
 11
181.031
 20
13.775
 21
13.723
  0
LINE
  8
0
 10
181.031
 11
181.156
 20
13.723
 21
13.654
  0
LINE
  8
0
 10
181.156
 11
181.27
 20
13.654
 21
13.571
  0
LINE
  8
0
 10
181.27
 11
181.374
 20
13.571
 21
13.474
  0
LINE
  8
0
 10
181.374
 11
181.464
 20
13.474
 21
13.364
  0
LINE
  8
0
 10
181.464
 11
181.54
 20
13.364
 21
13.245
  0
LINE
  8
0
 10
181.54
 11
181.601
 20
13.245
 21
13.116
  0
LINE
  8
0
 10
181.601
 11
181.645
 20
13.116
 21
12.981
  0
LINE
  8
0
 10
181.645
 11
181.671
 20
12.981
 21
12.842
  0
LINE
  8
0
 10
181.671
 11
181.68
 20
12.842
 21
12.7
  0
LINE
  8
0
 10
181.68
 11
181.671
 20
12.7
 21
12.558
  0
LINE
  8
0
 10
181.671
 11
181.645
 20
12.558
 21
12.419
  0
LINE
  8
0
 10
181.645
 11
181.601
 20
12.419
 21
12.284
  0
LINE
  8
0
 10
181.601
 11
181.54
 20
12.284
 21
12.155
  0
LINE
  8
0
 10
181.54
 11
181.464
 20
12.155
 21
12.036
  0
LINE
  8
0
 10
181.464
 11
181.374
 20
12.036
 21
11.926
  0
LINE
  8
0
 10
181.374
 11
181.27
 20
11.926
 21
11.829
  0
LINE
  8
0
 10
181.27
 11
181.156
 20
11.829
 21
11.746
  0
LINE
  8
0
 10
181.156
 11
181.031
 20
11.746
 21
11.677
  0
LINE
  8
0
 10
181.031
 11
180.899
 20
11.677
 21
11.625
  0
LINE
  8
0
 10
180.899
 11
180.762
 20
11.625
 21
11.59
  0
LINE
  8
0
 10
180.762
 11
180.621
 20
11.59
 21
11.572
  0
LINE
  8
0
 10
180.621
 11
180.479
 20
11.572
 21
11.572
  0
LINE
  8
0
 10
180.479
 11
180.338
 20
11.572
 21
11.59
  0
LINE
  8
0
 10
180.338
 11
180.201
 20
11.59
 21
11.625
  0
LINE
  8
0
 10
180.201
 11
180.069
 20
11.625
 21
11.677
  0
LINE
  8
0
 10
180.069
 11
179.944
 20
11.677
 21
11.746
  0
LINE
  8
0
 10
179.944
 11
179.83
 20
11.746
 21
11.829
  0
LINE
  8
0
 10
179.83
 11
179.726
 20
11.829
 21
11.926
  0
LINE
  8
0
 10
179.726
 11
179.636
 20
11.926
 21
12.036
  0
LINE
  8
0
 10
179.636
 11
179.56
 20
12.036
 21
12.155
  0
LINE
  8
0
 10
179.56
 11
179.499
 20
12.155
 21
12.284
  0
LINE
  8
0
 10
179.499
 11
179.455
 20
12.284
 21
12.419
  0
LINE
  8
0
 10
179.455
 11
179.429
 20
12.419
 21
12.558
  0
LINE
  8
0
 10
179.429
 11
179.42
 20
12.558
 21
12.7
  0
LINE
  8
0
 10
179.42
 11
179.429
 20
57.15
 21
57.292
  0
LINE
  8
0
 10
179.429
 11
179.455
 20
57.292
 21
57.431
  0
LINE
  8
0
 10
179.455
 11
179.499
 20
57.431
 21
57.566
  0
LINE
  8
0
 10
179.499
 11
179.56
 20
57.566
 21
57.695
  0
LINE
  8
0
 10
179.56
 11
179.636
 20
57.695
 21
57.814
  0
LINE
  8
0
 10
179.636
 11
179.726
 20
57.814
 21
57.924
  0
LINE
  8
0
 10
179.726
 11
179.83
 20
57.924
 21
58.021
  0
LINE
  8
0
 10
179.83
 11
179.944
 20
58.021
 21
58.104
  0
LINE
  8
0
 10
179.944
 11
180.069
 20
58.104
 21
58.173
  0
LINE
  8
0
 10
180.069
 11
180.201
 20
58.173
 21
58.225
  0
LINE
  8
0
 10
180.201
 11
180.338
 20
58.225
 21
58.26
  0
LINE
  8
0
 10
180.338
 11
180.479
 20
58.26
 21
58.278
  0
LINE
  8
0
 10
180.479
 11
180.621
 20
58.278
 21
58.278
  0
LINE
  8
0
 10
180.621
 11
180.762
 20
58.278
 21
58.26
  0
LINE
  8
0
 10
180.762
 11
180.899
 20
58.26
 21
58.225
  0
LINE
  8
0
 10
180.899
 11
181.031
 20
58.225
 21
58.173
  0
LINE
  8
0
 10
181.031
 11
181.156
 20
58.173
 21
58.104
  0
LINE
  8
0
 10
181.156
 11
181.27
 20
58.104
 21
58.021
  0
LINE
  8
0
 10
181.27
 11
181.374
 20
58.021
 21
57.924
  0
LINE
  8
0
 10
181.374
 11
181.464
 20
57.924
 21
57.814
  0
LINE
  8
0
 10
181.464
 11
181.54
 20
57.814
 21
57.695
  0
LINE
  8
0
 10
181.54
 11
181.601
 20
57.695
 21
57.566
  0
LINE
  8
0
 10
181.601
 11
181.645
 20
57.566
 21
57.431
  0
LINE
  8
0
 10
181.645
 11
181.671
 20
57.431
 21
57.292
  0
LINE
  8
0
 10
181.671
 11
181.68
 20
57.292
 21
57.15
  0
LINE
  8
0
 10
181.68
 11
181.671
 20
57.15
 21
57.008
  0
LINE
  8
0
 10
181.671
 11
181.645
 20
57.008
 21
56.869
  0
LINE
  8
0
 10
181.645
 11
181.601
 20
56.869
 21
56.734
  0
LINE
  8
0
 10
181.601
 11
181.54
 20
56.734
 21
56.605
  0
LINE
  8
0
 10
181.54
 11
181.464
 20
56.605
 21
56.486
  0
LINE
  8
0
 10
181.464
 11
181.374
 20
56.486
 21
56.376
  0
LINE
  8
0
 10
181.374
 11
181.27
 20
56.376
 21
56.279
  0
LINE
  8
0
 10
181.27
 11
181.156
 20
56.279
 21
56.196
  0
LINE
  8
0
 10
181.156
 11
181.031
 20
56.196
 21
56.127
  0
LINE
  8
0
 10
181.031
 11
180.899
 20
56.127
 21
56.075
  0
LINE
  8
0
 10
180.899
 11
180.762
 20
56.075
 21
56.04
  0
LINE
  8
0
 10
180.762
 11
180.621
 20
56.04
 21
56.022
  0
LINE
  8
0
 10
180.621
 11
180.479
 20
56.022
 21
56.022
  0
LINE
  8
0
 10
180.479
 11
180.338
 20
56.022
 21
56.04
  0
LINE
  8
0
 10
180.338
 11
180.201
 20
56.04
 21
56.075
  0
LINE
  8
0
 10
180.201
 11
180.069
 20
56.075
 21
56.127
  0
LINE
  8
0
 10
180.069
 11
179.944
 20
56.127
 21
56.196
  0
LINE
  8
0
 10
179.944
 11
179.83
 20
56.196
 21
56.279
  0
LINE
  8
0
 10
179.83
 11
179.726
 20
56.279
 21
56.376
  0
LINE
  8
0
 10
179.726
 11
179.636
 20
56.376
 21
56.486
  0
LINE
  8
0
 10
179.636
 11
179.56
 20
56.486
 21
56.605
  0
LINE
  8
0
 10
179.56
 11
179.499
 20
56.605
 21
56.734
  0
LINE
  8
0
 10
179.499
 11
179.455
 20
56.734
 21
56.869
  0
LINE
  8
0
 10
179.455
 11
179.429
 20
56.869
 21
57.008
  0
LINE
  8
0
 10
179.429
 11
179.42
 20
57.008
 21
57.15
  0
ENDSEC
  0
SECTION
  2
OBJECTS
  0
DICTIONARY
  0
ENDSEC
  0
EOF
