  0
SECTION
  2
BLOCKS
  0
ENDSEC
  0
SECTION
  2
ENTITIES
  0
LINE
  8
0
 10
173.05
 11
173.05
 20
-63.5
 21
63.5
  0
LINE
  8
0
 10
173.05
 11
182.05
 20
63.5
 21
63.5
  0
LINE
  8
0
 10
182.05
 11
182.05
 20
63.5
 21
-63.5
  0
LINE
  8
0
 10
182.05
 11
173.05
 20
-63.5
 21
-63.5
  0
LINE
  8
0
 10
174.05
 11
174.078
 20
-50.8
 21
-50.361
  0
LINE
  8
0
 10
174.078
 11
174.16
 20
-50.361
 21
-49.93
  0
LINE
  8
0
 10
174.16
 11
174.296
 20
-49.93
 21
-49.512
  0
LINE
  8
0
 10
174.296
 11
174.483
 20
-49.512
 21
-49.114
  0
LINE
  8
0
 10
174.483
 11
174.718
 20
-49.114
 21
-48.743
  0
LINE
  8
0
 10
174.718
 11
174.999
 20
-48.743
 21
-48.404
  0
LINE
  8
0
 10
174.999
 11
175.319
 20
-48.404
 21
-48.103
  0
LINE
  8
0
 10
175.319
 11
175.675
 20
-48.103
 21
-47.845
  0
LINE
  8
0
 10
175.675
 11
176.06
 20
-47.845
 21
-47.633
  0
LINE
  8
0
 10
176.06
 11
176.468
 20
-47.633
 21
-47.471
  0
LINE
  8
0
 10
176.468
 11
176.894
 20
-47.471
 21
-47.362
  0
LINE
  8
0
 10
176.894
 11
177.33
 20
-47.362
 21
-47.307
  0
LINE
  8
0
 10
177.33
 11
177.77
 20
-47.307
 21
-47.307
  0
LINE
  8
0
 10
177.77
 11
178.206
 20
-47.307
 21
-47.362
  0
LINE
  8
0
 10
178.206
 11
178.632
 20
-47.362
 21
-47.471
  0
LINE
  8
0
 10
178.632
 11
179.04
 20
-47.471
 21
-47.633
  0
LINE
  8
0
 10
179.04
 11
179.425
 20
-47.633
 21
-47.845
  0
LINE
  8
0
 10
179.425
 11
179.781
 20
-47.845
 21
-48.103
  0
LINE
  8
0
 10
179.781
 11
180.101
 20
-48.103
 21
-48.404
  0
LINE
  8
0
 10
180.101
 11
180.382
 20
-48.404
 21
-48.743
  0
LINE
  8
0
 10
180.382
 11
180.617
 20
-48.743
 21
-49.114
  0
LINE
  8
0
 10
180.617
 11
180.804
 20
-49.114
 21
-49.512
  0
LINE
  8
0
 10
180.804
 11
180.94
 20
-49.512
 21
-49.93
  0
LINE
  8
0
 10
180.94
 11
181.022
 20
-49.93
 21
-50.361
  0
LINE
  8
0
 10
181.022
 11
181.05
 20
-50.361
 21
-50.8
  0
LINE
  8
0
 10
181.05
 11
181.022
 20
-50.8
 21
-51.239
  0
LINE
  8
0
 10
181.022
 11
180.94
 20
-51.239
 21
-51.67
  0
LINE
  8
0
 10
180.94
 11
180.804
 20
-51.67
 21
-52.088
  0
LINE
  8
0
 10
180.804
 11
180.617
 20
-52.088
 21
-52.486
  0
LINE
  8
0
 10
180.617
 11
180.382
 20
-52.486
 21
-52.857
  0
LINE
  8
0
 10
180.382
 11
180.101
 20
-52.857
 21
-53.196
  0
LINE
  8
0
 10
180.101
 11
179.781
 20
-53.196
 21
-53.497
  0
LINE
  8
0
 10
179.781
 11
179.425
 20
-53.497
 21
-53.755
  0
LINE
  8
0
 10
179.425
 11
179.04
 20
-53.755
 21
-53.967
  0
LINE
  8
0
 10
179.04
 11
178.632
 20
-53.967
 21
-54.129
  0
LINE
  8
0
 10
178.632
 11
178.206
 20
-54.129
 21
-54.238
  0
LINE
  8
0
 10
178.206
 11
177.77
 20
-54.238
 21
-54.293
  0
LINE
  8
0
 10
177.77
 11
177.33
 20
-54.293
 21
-54.293
  0
LINE
  8
0
 10
177.33
 11
176.894
 20
-54.293
 21
-54.238
  0
LINE
  8
0
 10
176.894
 11
176.468
 20
-54.238
 21
-54.129
  0
LINE
  8
0
 10
176.468
 11
176.06
 20
-54.129
 21
-53.967
  0
LINE
  8
0
 10
176.06
 11
175.675
 20
-53.967
 21
-53.755
  0
LINE
  8
0
 10
175.675
 11
175.319
 20
-53.755
 21
-53.497
  0
LINE
  8
0
 10
175.319
 11
174.999
 20
-53.497
 21
-53.196
  0
LINE
  8
0
 10
174.999
 11
174.718
 20
-53.196
 21
-52.857
  0
LINE
  8
0
 10
174.718
 11
174.483
 20
-52.857
 21
-52.486
  0
LINE
  8
0
 10
174.483
 11
174.296
 20
-52.486
 21
-52.088
  0
LINE
  8
0
 10
174.296
 11
174.16
 20
-52.088
 21
-51.67
  0
LINE
  8
0
 10
174.16
 11
174.078
 20
-51.67
 21
-51.239
  0
LINE
  8
0
 10
174.078
 11
174.05
 20
-51.239
 21
-50.8
  0
LINE
  8
0
 10
174.05
 11
174.078
 20
-25.4
 21
-24.961
  0
LINE
  8
0
 10
174.078
 11
174.16
 20
-24.961
 21
-24.53
  0
LINE
  8
0
 10
174.16
 11
174.296
 20
-24.53
 21
-24.112
  0
LINE
  8
0
 10
174.296
 11
174.483
 20
-24.112
 21
-23.714
  0
LINE
  8
0
 10
174.483
 11
174.718
 20
-23.714
 21
-23.343
  0
LINE
  8
0
 10
174.718
 11
174.999
 20
-23.343
 21
-23.004
  0
LINE
  8
0
 10
174.999
 11
175.319
 20
-23.004
 21
-22.703
  0
LINE
  8
0
 10
175.319
 11
175.675
 20
-22.703
 21
-22.445
  0
LINE
  8
0
 10
175.675
 11
176.06
 20
-22.445
 21
-22.233
  0
LINE
  8
0
 10
176.06
 11
176.468
 20
-22.233
 21
-22.071
  0
LINE
  8
0
 10
176.468
 11
176.894
 20
-22.071
 21
-21.962
  0
LINE
  8
0
 10
176.894
 11
177.33
 20
-21.962
 21
-21.907
  0
LINE
  8
0
 10
177.33
 11
177.77
 20
-21.907
 21
-21.907
  0
LINE
  8
0
 10
177.77
 11
178.206
 20
-21.907
 21
-21.962
  0
LINE
  8
0
 10
178.206
 11
178.632
 20
-21.962
 21
-22.071
  0
LINE
  8
0
 10
178.632
 11
179.04
 20
-22.071
 21
-22.233
  0
LINE
  8
0
 10
179.04
 11
179.425
 20
-22.233
 21
-22.445
  0
LINE
  8
0
 10
179.425
 11
179.781
 20
-22.445
 21
-22.703
  0
LINE
  8
0
 10
179.781
 11
180.101
 20
-22.703
 21
-23.004
  0
LINE
  8
0
 10
180.101
 11
180.382
 20
-23.004
 21
-23.343
  0
LINE
  8
0
 10
180.382
 11
180.617
 20
-23.343
 21
-23.714
  0
LINE
  8
0
 10
180.617
 11
180.804
 20
-23.714
 21
-24.112
  0
LINE
  8
0
 10
180.804
 11
180.94
 20
-24.112
 21
-24.53
  0
LINE
  8
0
 10
180.94
 11
181.022
 20
-24.53
 21
-24.961
  0
LINE
  8
0
 10
181.022
 11
181.05
 20
-24.961
 21
-25.4
  0
LINE
  8
0
 10
181.05
 11
181.022
 20
-25.4
 21
-25.839
  0
LINE
  8
0
 10
181.022
 11
180.94
 20
-25.839
 21
-26.27
  0
LINE
  8
0
 10
180.94
 11
180.804
 20
-26.27
 21
-26.688
  0
LINE
  8
0
 10
180.804
 11
180.617
 20
-26.688
 21
-27.086
  0
LINE
  8
0
 10
180.617
 11
180.382
 20
-27.086
 21
-27.457
  0
LINE
  8
0
 10
180.382
 11
180.101
 20
-27.457
 21
-27.796
  0
LINE
  8
0
 10
180.101
 11
179.781
 20
-27.796
 21
-28.097
  0
LINE
  8
0
 10
179.781
 11
179.425
 20
-28.097
 21
-28.355
  0
LINE
  8
0
 10
179.425
 11
179.04
 20
-28.355
 21
-28.567
  0
LINE
  8
0
 10
179.04
 11
178.632
 20
-28.567
 21
-28.729
  0
LINE
  8
0
 10
178.632
 11
178.206
 20
-28.729
 21
-28.838
  0
LINE
  8
0
 10
178.206
 11
177.77
 20
-28.838
 21
-28.893
  0
LINE
  8
0
 10
177.77
 11
177.33
 20
-28.893
 21
-28.893
  0
LINE
  8
0
 10
177.33
 11
176.894
 20
-28.893
 21
-28.838
  0
LINE
  8
0
 10
176.894
 11
176.468
 20
-28.838
 21
-28.729
  0
LINE
  8
0
 10
176.468
 11
176.06
 20
-28.729
 21
-28.567
  0
LINE
  8
0
 10
176.06
 11
175.675
 20
-28.567
 21
-28.355
  0
LINE
  8
0
 10
175.675
 11
175.319
 20
-28.355
 21
-28.097
  0
LINE
  8
0
 10
175.319
 11
174.999
 20
-28.097
 21
-27.796
  0
LINE
  8
0
 10
174.999
 11
174.718
 20
-27.796
 21
-27.457
  0
LINE
  8
0
 10
174.718
 11
174.483
 20
-27.457
 21
-27.086
  0
LINE
  8
0
 10
174.483
 11
174.296
 20
-27.086
 21
-26.688
  0
LINE
  8
0
 10
174.296
 11
174.16
 20
-26.688
 21
-26.27
  0
LINE
  8
0
 10
174.16
 11
174.078
 20
-26.27
 21
-25.839
  0
LINE
  8
0
 10
174.078
 11
174.05
 20
-25.839
 21
-25.4
  0
LINE
  8
0
 10
174.05
 11
174.078
 20
0
 21
0.439
  0
LINE
  8
0
 10
174.078
 11
174.16
 20
0.439
 21
0.87
  0
LINE
  8
0
 10
174.16
 11
174.296
 20
0.87
 21
1.288
  0
LINE
  8
0
 10
174.296
 11
174.483
 20
1.288
 21
1.686
  0
LINE
  8
0
 10
174.483
 11
174.718
 20
1.686
 21
2.057
  0
LINE
  8
0
 10
174.718
 11
174.999
 20
2.057
 21
2.396
  0
LINE
  8
0
 10
174.999
 11
175.319
 20
2.396
 21
2.697
  0
LINE
  8
0
 10
175.319
 11
175.675
 20
2.697
 21
2.955
  0
LINE
  8
0
 10
175.675
 11
176.06
 20
2.955
 21
3.167
  0
LINE
  8
0
 10
176.06
 11
176.468
 20
3.167
 21
3.329
  0
LINE
  8
0
 10
176.468
 11
176.894
 20
3.329
 21
3.438
  0
LINE
  8
0
 10
176.894
 11
177.33
 20
3.438
 21
3.493
  0
LINE
  8
0
 10
177.33
 11
177.77
 20
3.493
 21
3.493
  0
LINE
  8
0
 10
177.77
 11
178.206
 20
3.493
 21
3.438
  0
LINE
  8
0
 10
178.206
 11
178.632
 20
3.438
 21
3.329
  0
LINE
  8
0
 10
178.632
 11
179.04
 20
3.329
 21
3.167
  0
LINE
  8
0
 10
179.04
 11
179.425
 20
3.167
 21
2.955
  0
LINE
  8
0
 10
179.425
 11
179.781
 20
2.955
 21
2.697
  0
LINE
  8
0
 10
179.781
 11
180.101
 20
2.697
 21
2.396
  0
LINE
  8
0
 10
180.101
 11
180.382
 20
2.396
 21
2.057
  0
LINE
  8
0
 10
180.382
 11
180.617
 20
2.057
 21
1.686
  0
LINE
  8
0
 10
180.617
 11
180.804
 20
1.686
 21
1.288
  0
LINE
  8
0
 10
180.804
 11
180.94
 20
1.288
 21
0.87
  0
LINE
  8
0
 10
180.94
 11
181.022
 20
0.87
 21
0.439
  0
LINE
  8
0
 10
181.022
 11
181.05
 20
0.439
 21
0
  0
LINE
  8
0
 10
181.05
 11
181.022
 20
0
 21
-0.439
  0
LINE
  8
0
 10
181.022
 11
180.94
 20
-0.439
 21
-0.87
  0
LINE
  8
0
 10
180.94
 11
180.804
 20
-0.87
 21
-1.288
  0
LINE
  8
0
 10
180.804
 11
180.617
 20
-1.288
 21
-1.686
  0
LINE
  8
0
 10
180.617
 11
180.382
 20
-1.686
 21
-2.057
  0
LINE
  8
0
 10
180.382
 11
180.101
 20
-2.057
 21
-2.396
  0
LINE
  8
0
 10
180.101
 11
179.781
 20
-2.396
 21
-2.697
  0
LINE
  8
0
 10
179.781
 11
179.425
 20
-2.697
 21
-2.955
  0
LINE
  8
0
 10
179.425
 11
179.04
 20
-2.955
 21
-3.167
  0
LINE
  8
0
 10
179.04
 11
178.632
 20
-3.167
 21
-3.329
  0
LINE
  8
0
 10
178.632
 11
178.206
 20
-3.329
 21
-3.438
  0
LINE
  8
0
 10
178.206
 11
177.77
 20
-3.438
 21
-3.493
  0
LINE
  8
0
 10
177.77
 11
177.33
 20
-3.493
 21
-3.493
  0
LINE
  8
0
 10
177.33
 11
176.894
 20
-3.493
 21
-3.438
  0
LINE
  8
0
 10
176.894
 11
176.468
 20
-3.438
 21
-3.329
  0
LINE
  8
0
 10
176.468
 11
176.06
 20
-3.329
 21
-3.167
  0
LINE
  8
0
 10
176.06
 11
175.675
 20
-3.167
 21
-2.955
  0
LINE
  8
0
 10
175.675
 11
175.319
 20
-2.955
 21
-2.697
  0
LINE
  8
0
 10
175.319
 11
174.999
 20
-2.697
 21
-2.396
  0
LINE
  8
0
 10
174.999
 11
174.718
 20
-2.396
 21
-2.057
  0
LINE
  8
0
 10
174.718
 11
174.483
 20
-2.057
 21
-1.686
  0
LINE
  8
0
 10
174.483
 11
174.296
 20
-1.686
 21
-1.288
  0
LINE
  8
0
 10
174.296
 11
174.16
 20
-1.288
 21
-0.87
  0
LINE
  8
0
 10
174.16
 11
174.078
 20
-0.87
 21
-0.439
  0
LINE
  8
0
 10
174.078
 11
174.05
 20
-0.439
 21
0
  0
LINE
  8
0
 10
174.05
 11
174.078
 20
25.4
 21
25.839
  0
LINE
  8
0
 10
174.078
 11
174.16
 20
25.839
 21
26.27
  0
LINE
  8
0
 10
174.16
 11
174.296
 20
26.27
 21
26.688
  0
LINE
  8
0
 10
174.296
 11
174.483
 20
26.688
 21
27.086
  0
LINE
  8
0
 10
174.483
 11
174.718
 20
27.086
 21
27.457
  0
LINE
  8
0
 10
174.718
 11
174.999
 20
27.457
 21
27.796
  0
LINE
  8
0
 10
174.999
 11
175.319
 20
27.796
 21
28.097
  0
LINE
  8
0
 10
175.319
 11
175.675
 20
28.097
 21
28.355
  0
LINE
  8
0
 10
175.675
 11
176.06
 20
28.355
 21
28.567
  0
LINE
  8
0
 10
176.06
 11
176.468
 20
28.567
 21
28.729
  0
LINE
  8
0
 10
176.468
 11
176.894
 20
28.729
 21
28.838
  0
LINE
  8
0
 10
176.894
 11
177.33
 20
28.838
 21
28.893
  0
LINE
  8
0
 10
177.33
 11
177.77
 20
28.893
 21
28.893
  0
LINE
  8
0
 10
177.77
 11
178.206
 20
28.893
 21
28.838
  0
LINE
  8
0
 10
178.206
 11
178.632
 20
28.838
 21
28.729
  0
LINE
  8
0
 10
178.632
 11
179.04
 20
28.729
 21
28.567
  0
LINE
  8
0
 10
179.04
 11
179.425
 20
28.567
 21
28.355
  0
LINE
  8
0
 10
179.425
 11
179.781
 20
28.355
 21
28.097
  0
LINE
  8
0
 10
179.781
 11
180.101
 20
28.097
 21
27.796
  0
LINE
  8
0
 10
180.101
 11
180.382
 20
27.796
 21
27.457
  0
LINE
  8
0
 10
180.382
 11
180.617
 20
27.457
 21
27.086
  0
LINE
  8
0
 10
180.617
 11
180.804
 20
27.086
 21
26.688
  0
LINE
  8
0
 10
180.804
 11
180.94
 20
26.688
 21
26.27
  0
LINE
  8
0
 10
180.94
 11
181.022
 20
26.27
 21
25.839
  0
LINE
  8
0
 10
181.022
 11
181.05
 20
25.839
 21
25.4
  0
LINE
  8
0
 10
181.05
 11
181.022
 20
25.4
 21
24.961
  0
LINE
  8
0
 10
181.022
 11
180.94
 20
24.961
 21
24.53
  0
LINE
  8
0
 10
180.94
 11
180.804
 20
24.53
 21
24.112
  0
LINE
  8
0
 10
180.804
 11
180.617
 20
24.112
 21
23.714
  0
LINE
  8
0
 10
180.617
 11
180.382
 20
23.714
 21
23.343
  0
LINE
  8
0
 10
180.382
 11
180.101
 20
23.343
 21
23.004
  0
LINE
  8
0
 10
180.101
 11
179.781
 20
23.004
 21
22.703
  0
LINE
  8
0
 10
179.781
 11
179.425
 20
22.703
 21
22.445
  0
LINE
  8
0
 10
179.425
 11
179.04
 20
22.445
 21
22.233
  0
LINE
  8
0
 10
179.04
 11
178.632
 20
22.233
 21
22.071
  0
LINE
  8
0
 10
178.632
 11
178.206
 20
22.071
 21
21.962
  0
LINE
  8
0
 10
178.206
 11
177.77
 20
21.962
 21
21.907
  0
LINE
  8
0
 10
177.77
 11
177.33
 20
21.907
 21
21.907
  0
LINE
  8
0
 10
177.33
 11
176.894
 20
21.907
 21
21.962
  0
LINE
  8
0
 10
176.894
 11
176.468
 20
21.962
 21
22.071
  0
LINE
  8
0
 10
176.468
 11
176.06
 20
22.071
 21
22.233
  0
LINE
  8
0
 10
176.06
 11
175.675
 20
22.233
 21
22.445
  0
LINE
  8
0
 10
175.675
 11
175.319
 20
22.445
 21
22.703
  0
LINE
  8
0
 10
175.319
 11
174.999
 20
22.703
 21
23.004
  0
LINE
  8
0
 10
174.999
 11
174.718
 20
23.004
 21
23.343
  0
LINE
  8
0
 10
174.718
 11
174.483
 20
23.343
 21
23.714
  0
LINE
  8
0
 10
174.483
 11
174.296
 20
23.714
 21
24.112
  0
LINE
  8
0
 10
174.296
 11
174.16
 20
24.112
 21
24.53
  0
LINE
  8
0
 10
174.16
 11
174.078
 20
24.53
 21
24.961
  0
LINE
  8
0
 10
174.078
 11
174.05
 20
24.961
 21
25.4
  0
LINE
  8
0
 10
174.05
 11
174.078
 20
50.8
 21
51.239
  0
LINE
  8
0
 10
174.078
 11
174.16
 20
51.239
 21
51.67
  0
LINE
  8
0
 10
174.16
 11
174.296
 20
51.67
 21
52.088
  0
LINE
  8
0
 10
174.296
 11
174.483
 20
52.088
 21
52.486
  0
LINE
  8
0
 10
174.483
 11
174.718
 20
52.486
 21
52.857
  0
LINE
  8
0
 10
174.718
 11
174.999
 20
52.857
 21
53.196
  0
LINE
  8
0
 10
174.999
 11
175.319
 20
53.196
 21
53.497
  0
LINE
  8
0
 10
175.319
 11
175.675
 20
53.497
 21
53.755
  0
LINE
  8
0
 10
175.675
 11
176.06
 20
53.755
 21
53.967
  0
LINE
  8
0
 10
176.06
 11
176.468
 20
53.967
 21
54.129
  0
LINE
  8
0
 10
176.468
 11
176.894
 20
54.129
 21
54.238
  0
LINE
  8
0
 10
176.894
 11
177.33
 20
54.238
 21
54.293
  0
LINE
  8
0
 10
177.33
 11
177.77
 20
54.293
 21
54.293
  0
LINE
  8
0
 10
177.77
 11
178.206
 20
54.293
 21
54.238
  0
LINE
  8
0
 10
178.206
 11
178.632
 20
54.238
 21
54.129
  0
LINE
  8
0
 10
178.632
 11
179.04
 20
54.129
 21
53.967
  0
LINE
  8
0
 10
179.04
 11
179.425
 20
53.967
 21
53.755
  0
LINE
  8
0
 10
179.425
 11
179.781
 20
53.755
 21
53.497
  0
LINE
  8
0
 10
179.781
 11
180.101
 20
53.497
 21
53.196
  0
LINE
  8
0
 10
180.101
 11
180.382
 20
53.196
 21
52.857
  0
LINE
  8
0
 10
180.382
 11
180.617
 20
52.857
 21
52.486
  0
LINE
  8
0
 10
180.617
 11
180.804
 20
52.486
 21
52.088
  0
LINE
  8
0
 10
180.804
 11
180.94
 20
52.088
 21
51.67
  0
LINE
  8
0
 10
180.94
 11
181.022
 20
51.67
 21
51.239
  0
LINE
  8
0
 10
181.022
 11
181.05
 20
51.239
 21
50.8
  0
LINE
  8
0
 10
181.05
 11
181.022
 20
50.8
 21
50.361
  0
LINE
  8
0
 10
181.022
 11
180.94
 20
50.361
 21
49.93
  0
LINE
  8
0
 10
180.94
 11
180.804
 20
49.93
 21
49.512
  0
LINE
  8
0
 10
180.804
 11
180.617
 20
49.512
 21
49.114
  0
LINE
  8
0
 10
180.617
 11
180.382
 20
49.114
 21
48.743
  0
LINE
  8
0
 10
180.382
 11
180.101
 20
48.743
 21
48.404
  0
LINE
  8
0
 10
180.101
 11
179.781
 20
48.404
 21
48.103
  0
LINE
  8
0
 10
179.781
 11
179.425
 20
48.103
 21
47.845
  0
LINE
  8
0
 10
179.425
 11
179.04
 20
47.845
 21
47.633
  0
LINE
  8
0
 10
179.04
 11
178.632
 20
47.633
 21
47.471
  0
LINE
  8
0
 10
178.632
 11
178.206
 20
47.471
 21
47.362
  0
LINE
  8
0
 10
178.206
 11
177.77
 20
47.362
 21
47.307
  0
LINE
  8
0
 10
177.77
 11
177.33
 20
47.307
 21
47.307
  0
LINE
  8
0
 10
177.33
 11
176.894
 20
47.307
 21
47.362
  0
LINE
  8
0
 10
176.894
 11
176.468
 20
47.362
 21
47.471
  0
LINE
  8
0
 10
176.468
 11
176.06
 20
47.471
 21
47.633
  0
LINE
  8
0
 10
176.06
 11
175.675
 20
47.633
 21
47.845
  0
LINE
  8
0
 10
175.675
 11
175.319
 20
47.845
 21
48.103
  0
LINE
  8
0
 10
175.319
 11
174.999
 20
48.103
 21
48.404
  0
LINE
  8
0
 10
174.999
 11
174.718
 20
48.404
 21
48.743
  0
LINE
  8
0
 10
174.718
 11
174.483
 20
48.743
 21
49.114
  0
LINE
  8
0
 10
174.483
 11
174.296
 20
49.114
 21
49.512
  0
LINE
  8
0
 10
174.296
 11
174.16
 20
49.512
 21
49.93
  0
LINE
  8
0
 10
174.16
 11
174.078
 20
49.93
 21
50.361
  0
LINE
  8
0
 10
174.078
 11
174.05
 20
50.361
 21
50.8
  0
LINE
  8
0
 10
176.42
 11
176.429
 20
-57.15
 21
-57.008
  0
LINE
  8
0
 10
176.429
 11
176.455
 20
-57.008
 21
-56.869
  0
LINE
  8
0
 10
176.455
 11
176.499
 20
-56.869
 21
-56.734
  0
LINE
  8
0
 10
176.499
 11
176.56
 20
-56.734
 21
-56.605
  0
LINE
  8
0
 10
176.56
 11
176.636
 20
-56.605
 21
-56.486
  0
LINE
  8
0
 10
176.636
 11
176.726
 20
-56.486
 21
-56.376
  0
LINE
  8
0
 10
176.726
 11
176.83
 20
-56.376
 21
-56.279
  0
LINE
  8
0
 10
176.83
 11
176.944
 20
-56.279
 21
-56.196
  0
LINE
  8
0
 10
176.944
 11
177.069
 20
-56.196
 21
-56.127
  0
LINE
  8
0
 10
177.069
 11
177.201
 20
-56.127
 21
-56.075
  0
LINE
  8
0
 10
177.201
 11
177.338
 20
-56.075
 21
-56.04
  0
LINE
  8
0
 10
177.338
 11
177.479
 20
-56.04
 21
-56.022
  0
LINE
  8
0
 10
177.479
 11
177.621
 20
-56.022
 21
-56.022
  0
LINE
  8
0
 10
177.621
 11
177.762
 20
-56.022
 21
-56.04
  0
LINE
  8
0
 10
177.762
 11
177.899
 20
-56.04
 21
-56.075
  0
LINE
  8
0
 10
177.899
 11
178.031
 20
-56.075
 21
-56.127
  0
LINE
  8
0
 10
178.031
 11
178.156
 20
-56.127
 21
-56.196
  0
LINE
  8
0
 10
178.156
 11
178.27
 20
-56.196
 21
-56.279
  0
LINE
  8
0
 10
178.27
 11
178.374
 20
-56.279
 21
-56.376
  0
LINE
  8
0
 10
178.374
 11
178.464
 20
-56.376
 21
-56.486
  0
LINE
  8
0
 10
178.464
 11
178.54
 20
-56.486
 21
-56.605
  0
LINE
  8
0
 10
178.54
 11
178.601
 20
-56.605
 21
-56.734
  0
LINE
  8
0
 10
178.601
 11
178.645
 20
-56.734
 21
-56.869
  0
LINE
  8
0
 10
178.645
 11
178.671
 20
-56.869
 21
-57.008
  0
LINE
  8
0
 10
178.671
 11
178.68
 20
-57.008
 21
-57.15
  0
LINE
  8
0
 10
178.68
 11
178.671
 20
-57.15
 21
-57.292
  0
LINE
  8
0
 10
178.671
 11
178.645
 20
-57.292
 21
-57.431
  0
LINE
  8
0
 10
178.645
 11
178.601
 20
-57.431
 21
-57.566
  0
LINE
  8
0
 10
178.601
 11
178.54
 20
-57.566
 21
-57.695
  0
LINE
  8
0
 10
178.54
 11
178.464
 20
-57.695
 21
-57.814
  0
LINE
  8
0
 10
178.464
 11
178.374
 20
-57.814
 21
-57.924
  0
LINE
  8
0
 10
178.374
 11
178.27
 20
-57.924
 21
-58.021
  0
LINE
  8
0
 10
178.27
 11
178.156
 20
-58.021
 21
-58.104
  0
LINE
  8
0
 10
178.156
 11
178.031
 20
-58.104
 21
-58.173
  0
LINE
  8
0
 10
178.031
 11
177.899
 20
-58.173
 21
-58.225
  0
LINE
  8
0
 10
177.899
 11
177.762
 20
-58.225
 21
-58.26
  0
LINE
  8
0
 10
177.762
 11
177.621
 20
-58.26
 21
-58.278
  0
LINE
  8
0
 10
177.621
 11
177.479
 20
-58.278
 21
-58.278
  0
LINE
  8
0
 10
177.479
 11
177.338
 20
-58.278
 21
-58.26
  0
LINE
  8
0
 10
177.338
 11
177.201
 20
-58.26
 21
-58.225
  0
LINE
  8
0
 10
177.201
 11
177.069
 20
-58.225
 21
-58.173
  0
LINE
  8
0
 10
177.069
 11
176.944
 20
-58.173
 21
-58.104
  0
LINE
  8
0
 10
176.944
 11
176.83
 20
-58.104
 21
-58.021
  0
LINE
  8
0
 10
176.83
 11
176.726
 20
-58.021
 21
-57.924
  0
LINE
  8
0
 10
176.726
 11
176.636
 20
-57.924
 21
-57.814
  0
LINE
  8
0
 10
176.636
 11
176.56
 20
-57.814
 21
-57.695
  0
LINE
  8
0
 10
176.56
 11
176.499
 20
-57.695
 21
-57.566
  0
LINE
  8
0
 10
176.499
 11
176.455
 20
-57.566
 21
-57.431
  0
LINE
  8
0
 10
176.455
 11
176.429
 20
-57.431
 21
-57.292
  0
LINE
  8
0
 10
176.429
 11
176.42
 20
-57.292
 21
-57.15
  0
LINE
  8
0
 10
176.42
 11
176.429
 20
-12.7
 21
-12.558
  0
LINE
  8
0
 10
176.429
 11
176.455
 20
-12.558
 21
-12.419
  0
LINE
  8
0
 10
176.455
 11
176.499
 20
-12.419
 21
-12.284
  0
LINE
  8
0
 10
176.499
 11
176.56
 20
-12.284
 21
-12.155
  0
LINE
  8
0
 10
176.56
 11
176.636
 20
-12.155
 21
-12.036
  0
LINE
  8
0
 10
176.636
 11
176.726
 20
-12.036
 21
-11.926
  0
LINE
  8
0
 10
176.726
 11
176.83
 20
-11.926
 21
-11.829
  0
LINE
  8
0
 10
176.83
 11
176.944
 20
-11.829
 21
-11.746
  0
LINE
  8
0
 10
176.944
 11
177.069
 20
-11.746
 21
-11.677
  0
LINE
  8
0
 10
177.069
 11
177.201
 20
-11.677
 21
-11.625
  0
LINE
  8
0
 10
177.201
 11
177.338
 20
-11.625
 21
-11.59
  0
LINE
  8
0
 10
177.338
 11
177.479
 20
-11.59
 21
-11.572
  0
LINE
  8
0
 10
177.479
 11
177.621
 20
-11.572
 21
-11.572
  0
LINE
  8
0
 10
177.621
 11
177.762
 20
-11.572
 21
-11.59
  0
LINE
  8
0
 10
177.762
 11
177.899
 20
-11.59
 21
-11.625
  0
LINE
  8
0
 10
177.899
 11
178.031
 20
-11.625
 21
-11.677
  0
LINE
  8
0
 10
178.031
 11
178.156
 20
-11.677
 21
-11.746
  0
LINE
  8
0
 10
178.156
 11
178.27
 20
-11.746
 21
-11.829
  0
LINE
  8
0
 10
178.27
 11
178.374
 20
-11.829
 21
-11.926
  0
LINE
  8
0
 10
178.374
 11
178.464
 20
-11.926
 21
-12.036
  0
LINE
  8
0
 10
178.464
 11
178.54
 20
-12.036
 21
-12.155
  0
LINE
  8
0
 10
178.54
 11
178.601
 20
-12.155
 21
-12.284
  0
LINE
  8
0
 10
178.601
 11
178.645
 20
-12.284
 21
-12.419
  0
LINE
  8
0
 10
178.645
 11
178.671
 20
-12.419
 21
-12.558
  0
LINE
  8
0
 10
178.671
 11
178.68
 20
-12.558
 21
-12.7
  0
LINE
  8
0
 10
178.68
 11
178.671
 20
-12.7
 21
-12.842
  0
LINE
  8
0
 10
178.671
 11
178.645
 20
-12.842
 21
-12.981
  0
LINE
  8
0
 10
178.645
 11
178.601
 20
-12.981
 21
-13.116
  0
LINE
  8
0
 10
178.601
 11
178.54
 20
-13.116
 21
-13.245
  0
LINE
  8
0
 10
178.54
 11
178.464
 20
-13.245
 21
-13.364
  0
LINE
  8
0
 10
178.464
 11
178.374
 20
-13.364
 21
-13.474
  0
LINE
  8
0
 10
178.374
 11
178.27
 20
-13.474
 21
-13.571
  0
LINE
  8
0
 10
178.27
 11
178.156
 20
-13.571
 21
-13.654
  0
LINE
  8
0
 10
178.156
 11
178.031
 20
-13.654
 21
-13.723
  0
LINE
  8
0
 10
178.031
 11
177.899
 20
-13.723
 21
-13.775
  0
LINE
  8
0
 10
177.899
 11
177.762
 20
-13.775
 21
-13.81
  0
LINE
  8
0
 10
177.762
 11
177.621
 20
-13.81
 21
-13.828
  0
LINE
  8
0
 10
177.621
 11
177.479
 20
-13.828
 21
-13.828
  0
LINE
  8
0
 10
177.479
 11
177.338
 20
-13.828
 21
-13.81
  0
LINE
  8
0
 10
177.338
 11
177.201
 20
-13.81
 21
-13.775
  0
LINE
  8
0
 10
177.201
 11
177.069
 20
-13.775
 21
-13.723
  0
LINE
  8
0
 10
177.069
 11
176.944
 20
-13.723
 21
-13.654
  0
LINE
  8
0
 10
176.944
 11
176.83
 20
-13.654
 21
-13.571
  0
LINE
  8
0
 10
176.83
 11
176.726
 20
-13.571
 21
-13.474
  0
LINE
  8
0
 10
176.726
 11
176.636
 20
-13.474
 21
-13.364
  0
LINE
  8
0
 10
176.636
 11
176.56
 20
-13.364
 21
-13.245
  0
LINE
  8
0
 10
176.56
 11
176.499
 20
-13.245
 21
-13.116
  0
LINE
  8
0
 10
176.499
 11
176.455
 20
-13.116
 21
-12.981
  0
LINE
  8
0
 10
176.455
 11
176.429
 20
-12.981
 21
-12.842
  0
LINE
  8
0
 10
176.429
 11
176.42
 20
-12.842
 21
-12.7
  0
LINE
  8
0
 10
176.42
 11
176.429
 20
12.7
 21
12.842
  0
LINE
  8
0
 10
176.429
 11
176.455
 20
12.842
 21
12.981
  0
LINE
  8
0
 10
176.455
 11
176.499
 20
12.981
 21
13.116
  0
LINE
  8
0
 10
176.499
 11
176.56
 20
13.116
 21
13.245
  0
LINE
  8
0
 10
176.56
 11
176.636
 20
13.245
 21
13.364
  0
LINE
  8
0
 10
176.636
 11
176.726
 20
13.364
 21
13.474
  0
LINE
  8
0
 10
176.726
 11
176.83
 20
13.474
 21
13.571
  0
LINE
  8
0
 10
176.83
 11
176.944
 20
13.571
 21
13.654
  0
LINE
  8
0
 10
176.944
 11
177.069
 20
13.654
 21
13.723
  0
LINE
  8
0
 10
177.069
 11
177.201
 20
13.723
 21
13.775
  0
LINE
  8
0
 10
177.201
 11
177.338
 20
13.775
 21
13.81
  0
LINE
  8
0
 10
177.338
 11
177.479
 20
13.81
 21
13.828
  0
LINE
  8
0
 10
177.479
 11
177.621
 20
13.828
 21
13.828
  0
LINE
  8
0
 10
177.621
 11
177.762
 20
13.828
 21
13.81
  0
LINE
  8
0
 10
177.762
 11
177.899
 20
13.81
 21
13.775
  0
LINE
  8
0
 10
177.899
 11
178.031
 20
13.775
 21
13.723
  0
LINE
  8
0
 10
178.031
 11
178.156
 20
13.723
 21
13.654
  0
LINE
  8
0
 10
178.156
 11
178.27
 20
13.654
 21
13.571
  0
LINE
  8
0
 10
178.27
 11
178.374
 20
13.571
 21
13.474
  0
LINE
  8
0
 10
178.374
 11
178.464
 20
13.474
 21
13.364
  0
LINE
  8
0
 10
178.464
 11
178.54
 20
13.364
 21
13.245
  0
LINE
  8
0
 10
178.54
 11
178.601
 20
13.245
 21
13.116
  0
LINE
  8
0
 10
178.601
 11
178.645
 20
13.116
 21
12.981
  0
LINE
  8
0
 10
178.645
 11
178.671
 20
12.981
 21
12.842
  0
LINE
  8
0
 10
178.671
 11
178.68
 20
12.842
 21
12.7
  0
LINE
  8
0
 10
178.68
 11
178.671
 20
12.7
 21
12.558
  0
LINE
  8
0
 10
178.671
 11
178.645
 20
12.558
 21
12.419
  0
LINE
  8
0
 10
178.645
 11
178.601
 20
12.419
 21
12.284
  0
LINE
  8
0
 10
178.601
 11
178.54
 20
12.284
 21
12.155
  0
LINE
  8
0
 10
178.54
 11
178.464
 20
12.155
 21
12.036
  0
LINE
  8
0
 10
178.464
 11
178.374
 20
12.036
 21
11.926
  0
LINE
  8
0
 10
178.374
 11
178.27
 20
11.926
 21
11.829
  0
LINE
  8
0
 10
178.27
 11
178.156
 20
11.829
 21
11.746
  0
LINE
  8
0
 10
178.156
 11
178.031
 20
11.746
 21
11.677
  0
LINE
  8
0
 10
178.031
 11
177.899
 20
11.677
 21
11.625
  0
LINE
  8
0
 10
177.899
 11
177.762
 20
11.625
 21
11.59
  0
LINE
  8
0
 10
177.762
 11
177.621
 20
11.59
 21
11.572
  0
LINE
  8
0
 10
177.621
 11
177.479
 20
11.572
 21
11.572
  0
LINE
  8
0
 10
177.479
 11
177.338
 20
11.572
 21
11.59
  0
LINE
  8
0
 10
177.338
 11
177.201
 20
11.59
 21
11.625
  0
LINE
  8
0
 10
177.201
 11
177.069
 20
11.625
 21
11.677
  0
LINE
  8
0
 10
177.069
 11
176.944
 20
11.677
 21
11.746
  0
LINE
  8
0
 10
176.944
 11
176.83
 20
11.746
 21
11.829
  0
LINE
  8
0
 10
176.83
 11
176.726
 20
11.829
 21
11.926
  0
LINE
  8
0
 10
176.726
 11
176.636
 20
11.926
 21
12.036
  0
LINE
  8
0
 10
176.636
 11
176.56
 20
12.036
 21
12.155
  0
LINE
  8
0
 10
176.56
 11
176.499
 20
12.155
 21
12.284
  0
LINE
  8
0
 10
176.499
 11
176.455
 20
12.284
 21
12.419
  0
LINE
  8
0
 10
176.455
 11
176.429
 20
12.419
 21
12.558
  0
LINE
  8
0
 10
176.429
 11
176.42
 20
12.558
 21
12.7
  0
LINE
  8
0
 10
176.42
 11
176.429
 20
57.15
 21
57.292
  0
LINE
  8
0
 10
176.429
 11
176.455
 20
57.292
 21
57.431
  0
LINE
  8
0
 10
176.455
 11
176.499
 20
57.431
 21
57.566
  0
LINE
  8
0
 10
176.499
 11
176.56
 20
57.566
 21
57.695
  0
LINE
  8
0
 10
176.56
 11
176.636
 20
57.695
 21
57.814
  0
LINE
  8
0
 10
176.636
 11
176.726
 20
57.814
 21
57.924
  0
LINE
  8
0
 10
176.726
 11
176.83
 20
57.924
 21
58.021
  0
LINE
  8
0
 10
176.83
 11
176.944
 20
58.021
 21
58.104
  0
LINE
  8
0
 10
176.944
 11
177.069
 20
58.104
 21
58.173
  0
LINE
  8
0
 10
177.069
 11
177.201
 20
58.173
 21
58.225
  0
LINE
  8
0
 10
177.201
 11
177.338
 20
58.225
 21
58.26
  0
LINE
  8
0
 10
177.338
 11
177.479
 20
58.26
 21
58.278
  0
LINE
  8
0
 10
177.479
 11
177.621
 20
58.278
 21
58.278
  0
LINE
  8
0
 10
177.621
 11
177.762
 20
58.278
 21
58.26
  0
LINE
  8
0
 10
177.762
 11
177.899
 20
58.26
 21
58.225
  0
LINE
  8
0
 10
177.899
 11
178.031
 20
58.225
 21
58.173
  0
LINE
  8
0
 10
178.031
 11
178.156
 20
58.173
 21
58.104
  0
LINE
  8
0
 10
178.156
 11
178.27
 20
58.104
 21
58.021
  0
LINE
  8
0
 10
178.27
 11
178.374
 20
58.021
 21
57.924
  0
LINE
  8
0
 10
178.374
 11
178.464
 20
57.924
 21
57.814
  0
LINE
  8
0
 10
178.464
 11
178.54
 20
57.814
 21
57.695
  0
LINE
  8
0
 10
178.54
 11
178.601
 20
57.695
 21
57.566
  0
LINE
  8
0
 10
178.601
 11
178.645
 20
57.566
 21
57.431
  0
LINE
  8
0
 10
178.645
 11
178.671
 20
57.431
 21
57.292
  0
LINE
  8
0
 10
178.671
 11
178.68
 20
57.292
 21
57.15
  0
LINE
  8
0
 10
178.68
 11
178.671
 20
57.15
 21
57.008
  0
LINE
  8
0
 10
178.671
 11
178.645
 20
57.008
 21
56.869
  0
LINE
  8
0
 10
178.645
 11
178.601
 20
56.869
 21
56.734
  0
LINE
  8
0
 10
178.601
 11
178.54
 20
56.734
 21
56.605
  0
LINE
  8
0
 10
178.54
 11
178.464
 20
56.605
 21
56.486
  0
LINE
  8
0
 10
178.464
 11
178.374
 20
56.486
 21
56.376
  0
LINE
  8
0
 10
178.374
 11
178.27
 20
56.376
 21
56.279
  0
LINE
  8
0
 10
178.27
 11
178.156
 20
56.279
 21
56.196
  0
LINE
  8
0
 10
178.156
 11
178.031
 20
56.196
 21
56.127
  0
LINE
  8
0
 10
178.031
 11
177.899
 20
56.127
 21
56.075
  0
LINE
  8
0
 10
177.899
 11
177.762
 20
56.075
 21
56.04
  0
LINE
  8
0
 10
177.762
 11
177.621
 20
56.04
 21
56.022
  0
LINE
  8
0
 10
177.621
 11
177.479
 20
56.022
 21
56.022
  0
LINE
  8
0
 10
177.479
 11
177.338
 20
56.022
 21
56.04
  0
LINE
  8
0
 10
177.338
 11
177.201
 20
56.04
 21
56.075
  0
LINE
  8
0
 10
177.201
 11
177.069
 20
56.075
 21
56.127
  0
LINE
  8
0
 10
177.069
 11
176.944
 20
56.127
 21
56.196
  0
LINE
  8
0
 10
176.944
 11
176.83
 20
56.196
 21
56.279
  0
LINE
  8
0
 10
176.83
 11
176.726
 20
56.279
 21
56.376
  0
LINE
  8
0
 10
176.726
 11
176.636
 20
56.376
 21
56.486
  0
LINE
  8
0
 10
176.636
 11
176.56
 20
56.486
 21
56.605
  0
LINE
  8
0
 10
176.56
 11
176.499
 20
56.605
 21
56.734
  0
LINE
  8
0
 10
176.499
 11
176.455
 20
56.734
 21
56.869
  0
LINE
  8
0
 10
176.455
 11
176.429
 20
56.869
 21
57.008
  0
LINE
  8
0
 10
176.429
 11
176.42
 20
57.008
 21
57.15
  0
ENDSEC
  0
SECTION
  2
OBJECTS
  0
DICTIONARY
  0
ENDSEC
  0
EOF
