  0
SECTION
  2
BLOCKS
  0
ENDSEC
  0
SECTION
  2
ENTITIES
  0
LINE
  8
0
 10
-35.2
 11
-35.2
 20
-384.1
 21
-174.9
  0
LINE
  8
0
 10
-35.2
 11
-35.188
 20
-174.9
 21
-174.712
  0
LINE
  8
0
 10
-35.188
 11
-35.153
 20
-174.712
 21
-174.527
  0
LINE
  8
0
 10
-35.153
 11
-35.095
 20
-174.527
 21
-174.348
  0
LINE
  8
0
 10
-35.095
 11
-35.014
 20
-174.348
 21
-174.177
  0
LINE
  8
0
 10
-35.014
 11
-34.914
 20
-174.177
 21
-174.018
  0
LINE
  8
0
 10
-34.914
 11
-34.793
 20
-174.018
 21
-173.873
  0
LINE
  8
0
 10
-34.793
 11
-34.656
 20
-173.873
 21
-173.744
  0
LINE
  8
0
 10
-34.656
 11
-34.504
 20
-173.744
 21
-173.634
  0
LINE
  8
0
 10
-34.504
 11
-34.339
 20
-173.634
 21
-173.543
  0
LINE
  8
0
 10
-34.339
 11
-34.164
 20
-173.543
 21
-173.473
  0
LINE
  8
0
 10
-34.164
 11
-33.981
 20
-173.473
 21
-173.427
  0
LINE
  8
0
 10
-33.981
 11
-33.794
 20
-173.427
 21
-173.403
  0
LINE
  8
0
 10
-33.794
 11
-33.7
 20
-173.403
 21
-173.403
  0
LINE
  8
0
 10
-33.7
 11
-33.7
 20
-173.403
 21
-173.4
  0
LINE
  8
0
 10
-33.7
 11
33.7
 20
-173.4
 21
-173.4
  0
LINE
  8
0
 10
33.7
 11
33.7
 20
-173.4
 21
-173.403
  0
LINE
  8
0
 10
33.7
 11
33.794
 20
-173.403
 21
-173.403
  0
LINE
  8
0
 10
33.794
 11
33.981
 20
-173.403
 21
-173.427
  0
LINE
  8
0
 10
33.981
 11
34.164
 20
-173.427
 21
-173.473
  0
LINE
  8
0
 10
34.164
 11
34.339
 20
-173.473
 21
-173.543
  0
LINE
  8
0
 10
34.339
 11
34.504
 20
-173.543
 21
-173.634
  0
LINE
  8
0
 10
34.504
 11
34.656
 20
-173.634
 21
-173.744
  0
LINE
  8
0
 10
34.656
 11
34.793
 20
-173.744
 21
-173.873
  0
LINE
  8
0
 10
34.793
 11
34.914
 20
-173.873
 21
-174.018
  0
LINE
  8
0
 10
34.914
 11
35.014
 20
-174.018
 21
-174.177
  0
LINE
  8
0
 10
35.014
 11
35.095
 20
-174.177
 21
-174.348
  0
LINE
  8
0
 10
35.095
 11
35.153
 20
-174.348
 21
-174.527
  0
LINE
  8
0
 10
35.153
 11
35.188
 20
-174.527
 21
-174.712
  0
LINE
  8
0
 10
35.188
 11
35.2
 20
-174.712
 21
-174.9
  0
LINE
  8
0
 10
35.2
 11
35.2
 20
-174.9
 21
-384.1
  0
LINE
  8
0
 10
35.2
 11
35.188
 20
-384.1
 21
-384.288
  0
LINE
  8
0
 10
35.188
 11
35.153
 20
-384.288
 21
-384.473
  0
LINE
  8
0
 10
35.153
 11
35.095
 20
-384.473
 21
-384.652
  0
LINE
  8
0
 10
35.095
 11
35.014
 20
-384.652
 21
-384.823
  0
LINE
  8
0
 10
35.014
 11
34.914
 20
-384.823
 21
-384.982
  0
LINE
  8
0
 10
34.914
 11
34.793
 20
-384.982
 21
-385.127
  0
LINE
  8
0
 10
34.793
 11
34.656
 20
-385.127
 21
-385.256
  0
LINE
  8
0
 10
34.656
 11
34.504
 20
-385.256
 21
-385.366
  0
LINE
  8
0
 10
34.504
 11
34.339
 20
-385.366
 21
-385.457
  0
LINE
  8
0
 10
34.339
 11
34.164
 20
-385.457
 21
-385.527
  0
LINE
  8
0
 10
34.164
 11
33.981
 20
-385.527
 21
-385.573
  0
LINE
  8
0
 10
33.981
 11
33.794
 20
-385.573
 21
-385.597
  0
LINE
  8
0
 10
33.794
 11
33.7
 20
-385.597
 21
-385.597
  0
LINE
  8
0
 10
33.7
 11
33.7
 20
-385.597
 21
-385.6
  0
LINE
  8
0
 10
33.7
 11
-33.7
 20
-385.6
 21
-385.6
  0
LINE
  8
0
 10
-33.7
 11
-33.7
 20
-385.6
 21
-385.597
  0
LINE
  8
0
 10
-33.7
 11
-33.794
 20
-385.597
 21
-385.597
  0
LINE
  8
0
 10
-33.794
 11
-33.981
 20
-385.597
 21
-385.573
  0
LINE
  8
0
 10
-33.981
 11
-34.164
 20
-385.573
 21
-385.527
  0
LINE
  8
0
 10
-34.164
 11
-34.339
 20
-385.527
 21
-385.457
  0
LINE
  8
0
 10
-34.339
 11
-34.504
 20
-385.457
 21
-385.366
  0
LINE
  8
0
 10
-34.504
 11
-34.656
 20
-385.366
 21
-385.256
  0
LINE
  8
0
 10
-34.656
 11
-34.793
 20
-385.256
 21
-385.127
  0
LINE
  8
0
 10
-34.793
 11
-34.914
 20
-385.127
 21
-384.982
  0
LINE
  8
0
 10
-34.914
 11
-35.014
 20
-384.982
 21
-384.823
  0
LINE
  8
0
 10
-35.014
 11
-35.095
 20
-384.823
 21
-384.652
  0
LINE
  8
0
 10
-35.095
 11
-35.153
 20
-384.652
 21
-384.473
  0
LINE
  8
0
 10
-35.153
 11
-35.188
 20
-384.473
 21
-384.288
  0
LINE
  8
0
 10
-35.188
 11
-35.2
 20
-384.288
 21
-384.1
  0
LINE
  8
0
 10
-33.7
 11
-33.7
 20
-301.828
 21
-294.828
  0
LINE
  8
0
 10
-33.7
 11
-30.7
 20
-294.828
 21
-294.828
  0
LINE
  8
0
 10
-30.7
 11
-30.7
 20
-294.828
 21
-301.828
  0
LINE
  8
0
 10
-30.7
 11
-33.7
 20
-301.828
 21
-301.828
  0
LINE
  8
0
 10
-33.7
 11
-33.7
 20
-226.516
 21
-219.516
  0
LINE
  8
0
 10
-33.7
 11
-30.7
 20
-219.516
 21
-219.516
  0
LINE
  8
0
 10
-30.7
 11
-30.7
 20
-219.516
 21
-226.516
  0
LINE
  8
0
 10
-30.7
 11
-33.7
 20
-226.516
 21
-226.516
  0
LINE
  8
0
 10
-28.774
 11
-28.768
 20
-365.86
 21
-365.758
  0
LINE
  8
0
 10
-28.768
 11
-28.748
 20
-365.758
 21
-365.658
  0
LINE
  8
0
 10
-28.748
 11
-28.717
 20
-365.658
 21
-365.56
  0
LINE
  8
0
 10
-28.717
 11
-28.673
 20
-365.56
 21
-365.468
  0
LINE
  8
0
 10
-28.673
 11
-28.619
 20
-365.468
 21
-365.382
  0
LINE
  8
0
 10
-28.619
 11
-28.553
 20
-365.382
 21
-365.303
  0
LINE
  8
0
 10
-28.553
 11
-28.479
 20
-365.303
 21
-365.233
  0
LINE
  8
0
 10
-28.479
 11
-28.396
 20
-365.233
 21
-365.173
  0
LINE
  8
0
 10
-28.396
 11
-28.307
 20
-365.173
 21
-365.123
  0
LINE
  8
0
 10
-28.307
 11
-28.212
 20
-365.123
 21
-365.086
  0
LINE
  8
0
 10
-28.212
 11
-28.113
 20
-365.086
 21
-365.06
  0
LINE
  8
0
 10
-28.113
 11
-28.011
 20
-365.06
 21
-365.048
  0
LINE
  8
0
 10
-28.011
 11
-27.909
 20
-365.048
 21
-365.048
  0
LINE
  8
0
 10
-27.909
 11
-27.807
 20
-365.048
 21
-365.06
  0
LINE
  8
0
 10
-27.807
 11
-27.708
 20
-365.06
 21
-365.086
  0
LINE
  8
0
 10
-27.708
 11
-27.613
 20
-365.086
 21
-365.123
  0
LINE
  8
0
 10
-27.613
 11
-27.524
 20
-365.123
 21
-365.173
  0
LINE
  8
0
 10
-27.524
 11
-27.441
 20
-365.173
 21
-365.233
  0
LINE
  8
0
 10
-27.441
 11
-27.367
 20
-365.233
 21
-365.303
  0
LINE
  8
0
 10
-27.367
 11
-27.301
 20
-365.303
 21
-365.382
  0
LINE
  8
0
 10
-27.301
 11
-27.247
 20
-365.382
 21
-365.468
  0
LINE
  8
0
 10
-27.247
 11
-27.203
 20
-365.468
 21
-365.56
  0
LINE
  8
0
 10
-27.203
 11
-27.172
 20
-365.56
 21
-365.658
  0
LINE
  8
0
 10
-27.172
 11
-27.152
 20
-365.658
 21
-365.758
  0
LINE
  8
0
 10
-27.152
 11
-27.146
 20
-365.758
 21
-365.86
  0
LINE
  8
0
 10
-27.146
 11
-27.152
 20
-365.86
 21
-365.962
  0
LINE
  8
0
 10
-27.152
 11
-27.172
 20
-365.962
 21
-366.062
  0
LINE
  8
0
 10
-27.172
 11
-27.203
 20
-366.062
 21
-366.16
  0
LINE
  8
0
 10
-27.203
 11
-27.247
 20
-366.16
 21
-366.252
  0
LINE
  8
0
 10
-27.247
 11
-27.301
 20
-366.252
 21
-366.338
  0
LINE
  8
0
 10
-27.301
 11
-27.367
 20
-366.338
 21
-366.417
  0
LINE
  8
0
 10
-27.367
 11
-27.441
 20
-366.417
 21
-366.487
  0
LINE
  8
0
 10
-27.441
 11
-27.524
 20
-366.487
 21
-366.547
  0
LINE
  8
0
 10
-27.524
 11
-27.613
 20
-366.547
 21
-366.597
  0
LINE
  8
0
 10
-27.613
 11
-27.708
 20
-366.597
 21
-366.634
  0
LINE
  8
0
 10
-27.708
 11
-27.807
 20
-366.634
 21
-366.66
  0
LINE
  8
0
 10
-27.807
 11
-27.909
 20
-366.66
 21
-366.672
  0
LINE
  8
0
 10
-27.909
 11
-28.011
 20
-366.672
 21
-366.672
  0
LINE
  8
0
 10
-28.011
 11
-28.113
 20
-366.672
 21
-366.66
  0
LINE
  8
0
 10
-28.113
 11
-28.212
 20
-366.66
 21
-366.634
  0
LINE
  8
0
 10
-28.212
 11
-28.307
 20
-366.634
 21
-366.597
  0
LINE
  8
0
 10
-28.307
 11
-28.396
 20
-366.597
 21
-366.547
  0
LINE
  8
0
 10
-28.396
 11
-28.479
 20
-366.547
 21
-366.487
  0
LINE
  8
0
 10
-28.479
 11
-28.553
 20
-366.487
 21
-366.417
  0
LINE
  8
0
 10
-28.553
 11
-28.619
 20
-366.417
 21
-366.338
  0
LINE
  8
0
 10
-28.619
 11
-28.673
 20
-366.338
 21
-366.252
  0
LINE
  8
0
 10
-28.673
 11
-28.717
 20
-366.252
 21
-366.16
  0
LINE
  8
0
 10
-28.717
 11
-28.748
 20
-366.16
 21
-366.062
  0
LINE
  8
0
 10
-28.748
 11
-28.768
 20
-366.062
 21
-365.962
  0
LINE
  8
0
 10
-28.768
 11
-28.774
 20
-365.962
 21
-365.86
  0
LINE
  8
0
 10
-28.774
 11
-28.768
 20
-327.76
 21
-327.658
  0
LINE
  8
0
 10
-28.768
 11
-28.748
 20
-327.658
 21
-327.558
  0
LINE
  8
0
 10
-28.748
 11
-28.717
 20
-327.558
 21
-327.46
  0
LINE
  8
0
 10
-28.717
 11
-28.673
 20
-327.46
 21
-327.368
  0
LINE
  8
0
 10
-28.673
 11
-28.619
 20
-327.368
 21
-327.282
  0
LINE
  8
0
 10
-28.619
 11
-28.553
 20
-327.282
 21
-327.203
  0
LINE
  8
0
 10
-28.553
 11
-28.479
 20
-327.203
 21
-327.133
  0
LINE
  8
0
 10
-28.479
 11
-28.396
 20
-327.133
 21
-327.073
  0
LINE
  8
0
 10
-28.396
 11
-28.307
 20
-327.073
 21
-327.023
  0
LINE
  8
0
 10
-28.307
 11
-28.212
 20
-327.023
 21
-326.986
  0
LINE
  8
0
 10
-28.212
 11
-28.113
 20
-326.986
 21
-326.96
  0
LINE
  8
0
 10
-28.113
 11
-28.011
 20
-326.96
 21
-326.948
  0
LINE
  8
0
 10
-28.011
 11
-27.909
 20
-326.948
 21
-326.948
  0
LINE
  8
0
 10
-27.909
 11
-27.807
 20
-326.948
 21
-326.96
  0
LINE
  8
0
 10
-27.807
 11
-27.708
 20
-326.96
 21
-326.986
  0
LINE
  8
0
 10
-27.708
 11
-27.613
 20
-326.986
 21
-327.023
  0
LINE
  8
0
 10
-27.613
 11
-27.524
 20
-327.023
 21
-327.073
  0
LINE
  8
0
 10
-27.524
 11
-27.441
 20
-327.073
 21
-327.133
  0
LINE
  8
0
 10
-27.441
 11
-27.367
 20
-327.133
 21
-327.203
  0
LINE
  8
0
 10
-27.367
 11
-27.301
 20
-327.203
 21
-327.282
  0
LINE
  8
0
 10
-27.301
 11
-27.247
 20
-327.282
 21
-327.368
  0
LINE
  8
0
 10
-27.247
 11
-27.203
 20
-327.368
 21
-327.46
  0
LINE
  8
0
 10
-27.203
 11
-27.172
 20
-327.46
 21
-327.558
  0
LINE
  8
0
 10
-27.172
 11
-27.152
 20
-327.558
 21
-327.658
  0
LINE
  8
0
 10
-27.152
 11
-27.146
 20
-327.658
 21
-327.76
  0
LINE
  8
0
 10
-27.146
 11
-27.152
 20
-327.76
 21
-327.862
  0
LINE
  8
0
 10
-27.152
 11
-27.172
 20
-327.862
 21
-327.962
  0
LINE
  8
0
 10
-27.172
 11
-27.203
 20
-327.962
 21
-328.06
  0
LINE
  8
0
 10
-27.203
 11
-27.247
 20
-328.06
 21
-328.152
  0
LINE
  8
0
 10
-27.247
 11
-27.301
 20
-328.152
 21
-328.238
  0
LINE
  8
0
 10
-27.301
 11
-27.367
 20
-328.238
 21
-328.317
  0
LINE
  8
0
 10
-27.367
 11
-27.441
 20
-328.317
 21
-328.387
  0
LINE
  8
0
 10
-27.441
 11
-27.524
 20
-328.387
 21
-328.447
  0
LINE
  8
0
 10
-27.524
 11
-27.613
 20
-328.447
 21
-328.497
  0
LINE
  8
0
 10
-27.613
 11
-27.708
 20
-328.497
 21
-328.534
  0
LINE
  8
0
 10
-27.708
 11
-27.807
 20
-328.534
 21
-328.56
  0
LINE
  8
0
 10
-27.807
 11
-27.909
 20
-328.56
 21
-328.572
  0
LINE
  8
0
 10
-27.909
 11
-28.011
 20
-328.572
 21
-328.572
  0
LINE
  8
0
 10
-28.011
 11
-28.113
 20
-328.572
 21
-328.56
  0
LINE
  8
0
 10
-28.113
 11
-28.212
 20
-328.56
 21
-328.534
  0
LINE
  8
0
 10
-28.212
 11
-28.307
 20
-328.534
 21
-328.497
  0
LINE
  8
0
 10
-28.307
 11
-28.396
 20
-328.497
 21
-328.447
  0
LINE
  8
0
 10
-28.396
 11
-28.479
 20
-328.447
 21
-328.387
  0
LINE
  8
0
 10
-28.479
 11
-28.553
 20
-328.387
 21
-328.317
  0
LINE
  8
0
 10
-28.553
 11
-28.619
 20
-328.317
 21
-328.238
  0
LINE
  8
0
 10
-28.619
 11
-28.673
 20
-328.238
 21
-328.152
  0
LINE
  8
0
 10
-28.673
 11
-28.717
 20
-328.152
 21
-328.06
  0
LINE
  8
0
 10
-28.717
 11
-28.748
 20
-328.06
 21
-327.962
  0
LINE
  8
0
 10
-28.748
 11
-28.768
 20
-327.962
 21
-327.862
  0
LINE
  8
0
 10
-28.768
 11
-28.774
 20
-327.862
 21
-327.76
  0
LINE
  8
0
 10
-28.774
 11
-28.768
 20
-193.14
 21
-193.038
  0
LINE
  8
0
 10
-28.768
 11
-28.748
 20
-193.038
 21
-192.938
  0
LINE
  8
0
 10
-28.748
 11
-28.717
 20
-192.938
 21
-192.84
  0
LINE
  8
0
 10
-28.717
 11
-28.673
 20
-192.84
 21
-192.748
  0
LINE
  8
0
 10
-28.673
 11
-28.619
 20
-192.748
 21
-192.662
  0
LINE
  8
0
 10
-28.619
 11
-28.553
 20
-192.662
 21
-192.583
  0
LINE
  8
0
 10
-28.553
 11
-28.479
 20
-192.583
 21
-192.513
  0
LINE
  8
0
 10
-28.479
 11
-28.396
 20
-192.513
 21
-192.453
  0
LINE
  8
0
 10
-28.396
 11
-28.307
 20
-192.453
 21
-192.403
  0
LINE
  8
0
 10
-28.307
 11
-28.212
 20
-192.403
 21
-192.366
  0
LINE
  8
0
 10
-28.212
 11
-28.113
 20
-192.366
 21
-192.34
  0
LINE
  8
0
 10
-28.113
 11
-28.011
 20
-192.34
 21
-192.328
  0
LINE
  8
0
 10
-28.011
 11
-27.909
 20
-192.328
 21
-192.328
  0
LINE
  8
0
 10
-27.909
 11
-27.807
 20
-192.328
 21
-192.34
  0
LINE
  8
0
 10
-27.807
 11
-27.708
 20
-192.34
 21
-192.366
  0
LINE
  8
0
 10
-27.708
 11
-27.613
 20
-192.366
 21
-192.403
  0
LINE
  8
0
 10
-27.613
 11
-27.524
 20
-192.403
 21
-192.453
  0
LINE
  8
0
 10
-27.524
 11
-27.441
 20
-192.453
 21
-192.513
  0
LINE
  8
0
 10
-27.441
 11
-27.367
 20
-192.513
 21
-192.583
  0
LINE
  8
0
 10
-27.367
 11
-27.301
 20
-192.583
 21
-192.662
  0
LINE
  8
0
 10
-27.301
 11
-27.247
 20
-192.662
 21
-192.748
  0
LINE
  8
0
 10
-27.247
 11
-27.203
 20
-192.748
 21
-192.84
  0
LINE
  8
0
 10
-27.203
 11
-27.172
 20
-192.84
 21
-192.938
  0
LINE
  8
0
 10
-27.172
 11
-27.152
 20
-192.938
 21
-193.038
  0
LINE
  8
0
 10
-27.152
 11
-27.146
 20
-193.038
 21
-193.14
  0
LINE
  8
0
 10
-27.146
 11
-27.152
 20
-193.14
 21
-193.242
  0
LINE
  8
0
 10
-27.152
 11
-27.172
 20
-193.242
 21
-193.342
  0
LINE
  8
0
 10
-27.172
 11
-27.203
 20
-193.342
 21
-193.44
  0
LINE
  8
0
 10
-27.203
 11
-27.247
 20
-193.44
 21
-193.532
  0
LINE
  8
0
 10
-27.247
 11
-27.301
 20
-193.532
 21
-193.618
  0
LINE
  8
0
 10
-27.301
 11
-27.367
 20
-193.618
 21
-193.697
  0
LINE
  8
0
 10
-27.367
 11
-27.441
 20
-193.697
 21
-193.767
  0
LINE
  8
0
 10
-27.441
 11
-27.524
 20
-193.767
 21
-193.827
  0
LINE
  8
0
 10
-27.524
 11
-27.613
 20
-193.827
 21
-193.877
  0
LINE
  8
0
 10
-27.613
 11
-27.708
 20
-193.877
 21
-193.914
  0
LINE
  8
0
 10
-27.708
 11
-27.807
 20
-193.914
 21
-193.94
  0
LINE
  8
0
 10
-27.807
 11
-27.909
 20
-193.94
 21
-193.952
  0
LINE
  8
0
 10
-27.909
 11
-28.011
 20
-193.952
 21
-193.952
  0
LINE
  8
0
 10
-28.011
 11
-28.113
 20
-193.952
 21
-193.94
  0
LINE
  8
0
 10
-28.113
 11
-28.212
 20
-193.94
 21
-193.914
  0
LINE
  8
0
 10
-28.212
 11
-28.307
 20
-193.914
 21
-193.877
  0
LINE
  8
0
 10
-28.307
 11
-28.396
 20
-193.877
 21
-193.827
  0
LINE
  8
0
 10
-28.396
 11
-28.479
 20
-193.827
 21
-193.767
  0
LINE
  8
0
 10
-28.479
 11
-28.553
 20
-193.767
 21
-193.697
  0
LINE
  8
0
 10
-28.553
 11
-28.619
 20
-193.697
 21
-193.618
  0
LINE
  8
0
 10
-28.619
 11
-28.673
 20
-193.618
 21
-193.532
  0
LINE
  8
0
 10
-28.673
 11
-28.717
 20
-193.532
 21
-193.44
  0
LINE
  8
0
 10
-28.717
 11
-28.748
 20
-193.44
 21
-193.342
  0
LINE
  8
0
 10
-28.748
 11
-28.768
 20
-193.342
 21
-193.242
  0
LINE
  8
0
 10
-28.768
 11
-28.774
 20
-193.242
 21
-193.14
  0
LINE
  8
0
 10
-28.154
 11
-28.145
 20
-377.423
 21
-377.282
  0
LINE
  8
0
 10
-28.145
 11
-28.118
 20
-377.282
 21
-377.142
  0
LINE
  8
0
 10
-28.118
 11
-28.074
 20
-377.142
 21
-377.007
  0
LINE
  8
0
 10
-28.074
 11
-28.014
 20
-377.007
 21
-376.879
  0
LINE
  8
0
 10
-28.014
 11
-27.938
 20
-376.879
 21
-376.759
  0
LINE
  8
0
 10
-27.938
 11
-27.847
 20
-376.759
 21
-376.65
  0
LINE
  8
0
 10
-27.847
 11
-27.744
 20
-376.65
 21
-376.552
  0
LINE
  8
0
 10
-27.744
 11
-27.629
 20
-376.552
 21
-376.469
  0
LINE
  8
0
 10
-27.629
 11
-27.505
 20
-376.469
 21
-376.401
  0
LINE
  8
0
 10
-27.505
 11
-27.373
 20
-376.401
 21
-376.348
  0
LINE
  8
0
 10
-27.373
 11
-27.235
 20
-376.348
 21
-376.313
  0
LINE
  8
0
 10
-27.235
 11
-27.094
 20
-376.313
 21
-376.295
  0
LINE
  8
0
 10
-27.094
 11
-26.952
 20
-376.295
 21
-376.295
  0
LINE
  8
0
 10
-26.952
 11
-26.812
 20
-376.295
 21
-376.313
  0
LINE
  8
0
 10
-26.812
 11
-26.674
 20
-376.313
 21
-376.348
  0
LINE
  8
0
 10
-26.674
 11
-26.542
 20
-376.348
 21
-376.401
  0
LINE
  8
0
 10
-26.542
 11
-26.418
 20
-376.401
 21
-376.469
  0
LINE
  8
0
 10
-26.418
 11
-26.303
 20
-376.469
 21
-376.552
  0
LINE
  8
0
 10
-26.303
 11
-26.199
 20
-376.552
 21
-376.65
  0
LINE
  8
0
 10
-26.199
 11
-26.109
 20
-376.65
 21
-376.759
  0
LINE
  8
0
 10
-26.109
 11
-26.033
 20
-376.759
 21
-376.879
  0
LINE
  8
0
 10
-26.033
 11
-25.972
 20
-376.879
 21
-377.007
  0
LINE
  8
0
 10
-25.972
 11
-25.929
 20
-377.007
 21
-377.142
  0
LINE
  8
0
 10
-25.929
 11
-25.902
 20
-377.142
 21
-377.282
  0
LINE
  8
0
 10
-25.902
 11
-25.893
 20
-377.282
 21
-377.423
  0
LINE
  8
0
 10
-25.893
 11
-25.902
 20
-377.423
 21
-377.565
  0
LINE
  8
0
 10
-25.902
 11
-25.929
 20
-377.565
 21
-377.704
  0
LINE
  8
0
 10
-25.929
 11
-25.972
 20
-377.704
 21
-377.839
  0
LINE
  8
0
 10
-25.972
 11
-26.033
 20
-377.839
 21
-377.968
  0
LINE
  8
0
 10
-26.033
 11
-26.109
 20
-377.968
 21
-378.088
  0
LINE
  8
0
 10
-26.109
 11
-26.199
 20
-378.088
 21
-378.197
  0
LINE
  8
0
 10
-26.199
 11
-26.303
 20
-378.197
 21
-378.294
  0
LINE
  8
0
 10
-26.303
 11
-26.418
 20
-378.294
 21
-378.378
  0
LINE
  8
0
 10
-26.418
 11
-26.542
 20
-378.378
 21
-378.446
  0
LINE
  8
0
 10
-26.542
 11
-26.674
 20
-378.446
 21
-378.498
  0
LINE
  8
0
 10
-26.674
 11
-26.812
 20
-378.498
 21
-378.534
  0
LINE
  8
0
 10
-26.812
 11
-26.952
 20
-378.534
 21
-378.551
  0
LINE
  8
0
 10
-26.952
 11
-27.094
 20
-378.551
 21
-378.551
  0
LINE
  8
0
 10
-27.094
 11
-27.235
 20
-378.551
 21
-378.534
  0
LINE
  8
0
 10
-27.235
 11
-27.373
 20
-378.534
 21
-378.498
  0
LINE
  8
0
 10
-27.373
 11
-27.505
 20
-378.498
 21
-378.446
  0
LINE
  8
0
 10
-27.505
 11
-27.629
 20
-378.446
 21
-378.378
  0
LINE
  8
0
 10
-27.629
 11
-27.744
 20
-378.378
 21
-378.294
  0
LINE
  8
0
 10
-27.744
 11
-27.847
 20
-378.294
 21
-378.197
  0
LINE
  8
0
 10
-27.847
 11
-27.938
 20
-378.197
 21
-378.088
  0
LINE
  8
0
 10
-27.938
 11
-28.014
 20
-378.088
 21
-377.968
  0
LINE
  8
0
 10
-28.014
 11
-28.074
 20
-377.968
 21
-377.839
  0
LINE
  8
0
 10
-28.074
 11
-28.118
 20
-377.839
 21
-377.704
  0
LINE
  8
0
 10
-28.118
 11
-28.145
 20
-377.704
 21
-377.565
  0
LINE
  8
0
 10
-28.145
 11
-28.154
 20
-377.565
 21
-377.423
  0
LINE
  8
0
 10
-28.154
 11
-28.145
 20
-181.577
 21
-181.435
  0
LINE
  8
0
 10
-28.145
 11
-28.118
 20
-181.435
 21
-181.296
  0
LINE
  8
0
 10
-28.118
 11
-28.074
 20
-181.296
 21
-181.161
  0
LINE
  8
0
 10
-28.074
 11
-28.014
 20
-181.161
 21
-181.032
  0
LINE
  8
0
 10
-28.014
 11
-27.938
 20
-181.032
 21
-180.912
  0
LINE
  8
0
 10
-27.938
 11
-27.847
 20
-180.912
 21
-180.803
  0
LINE
  8
0
 10
-27.847
 11
-27.744
 20
-180.803
 21
-180.706
  0
LINE
  8
0
 10
-27.744
 11
-27.629
 20
-180.706
 21
-180.622
  0
LINE
  8
0
 10
-27.629
 11
-27.505
 20
-180.622
 21
-180.554
  0
LINE
  8
0
 10
-27.505
 11
-27.373
 20
-180.554
 21
-180.502
  0
LINE
  8
0
 10
-27.373
 11
-27.235
 20
-180.502
 21
-180.466
  0
LINE
  8
0
 10
-27.235
 11
-27.094
 20
-180.466
 21
-180.449
  0
LINE
  8
0
 10
-27.094
 11
-26.952
 20
-180.449
 21
-180.449
  0
LINE
  8
0
 10
-26.952
 11
-26.812
 20
-180.449
 21
-180.466
  0
LINE
  8
0
 10
-26.812
 11
-26.674
 20
-180.466
 21
-180.502
  0
LINE
  8
0
 10
-26.674
 11
-26.542
 20
-180.502
 21
-180.554
  0
LINE
  8
0
 10
-26.542
 11
-26.418
 20
-180.554
 21
-180.622
  0
LINE
  8
0
 10
-26.418
 11
-26.303
 20
-180.622
 21
-180.706
  0
LINE
  8
0
 10
-26.303
 11
-26.199
 20
-180.706
 21
-180.803
  0
LINE
  8
0
 10
-26.199
 11
-26.109
 20
-180.803
 21
-180.912
  0
LINE
  8
0
 10
-26.109
 11
-26.033
 20
-180.912
 21
-181.032
  0
LINE
  8
0
 10
-26.033
 11
-25.972
 20
-181.032
 21
-181.161
  0
LINE
  8
0
 10
-25.972
 11
-25.929
 20
-181.161
 21
-181.296
  0
LINE
  8
0
 10
-25.929
 11
-25.902
 20
-181.296
 21
-181.435
  0
LINE
  8
0
 10
-25.902
 11
-25.893
 20
-181.435
 21
-181.577
  0
LINE
  8
0
 10
-25.893
 11
-25.902
 20
-181.577
 21
-181.718
  0
LINE
  8
0
 10
-25.902
 11
-25.929
 20
-181.718
 21
-181.858
  0
LINE
  8
0
 10
-25.929
 11
-25.972
 20
-181.858
 21
-181.993
  0
LINE
  8
0
 10
-25.972
 11
-26.033
 20
-181.993
 21
-182.121
  0
LINE
  8
0
 10
-26.033
 11
-26.109
 20
-182.121
 21
-182.241
  0
LINE
  8
0
 10
-26.109
 11
-26.199
 20
-182.241
 21
-182.35
  0
LINE
  8
0
 10
-26.199
 11
-26.303
 20
-182.35
 21
-182.448
  0
LINE
  8
0
 10
-26.303
 11
-26.418
 20
-182.448
 21
-182.531
  0
LINE
  8
0
 10
-26.418
 11
-26.542
 20
-182.531
 21
-182.599
  0
LINE
  8
0
 10
-26.542
 11
-26.674
 20
-182.599
 21
-182.652
  0
LINE
  8
0
 10
-26.674
 11
-26.812
 20
-182.652
 21
-182.687
  0
LINE
  8
0
 10
-26.812
 11
-26.952
 20
-182.687
 21
-182.705
  0
LINE
  8
0
 10
-26.952
 11
-27.094
 20
-182.705
 21
-182.705
  0
LINE
  8
0
 10
-27.094
 11
-27.235
 20
-182.705
 21
-182.687
  0
LINE
  8
0
 10
-27.235
 11
-27.373
 20
-182.687
 21
-182.652
  0
LINE
  8
0
 10
-27.373
 11
-27.505
 20
-182.652
 21
-182.599
  0
LINE
  8
0
 10
-27.505
 11
-27.629
 20
-182.599
 21
-182.531
  0
LINE
  8
0
 10
-27.629
 11
-27.744
 20
-182.531
 21
-182.448
  0
LINE
  8
0
 10
-27.744
 11
-27.847
 20
-182.448
 21
-182.35
  0
LINE
  8
0
 10
-27.847
 11
-27.938
 20
-182.35
 21
-182.241
  0
LINE
  8
0
 10
-27.938
 11
-28.014
 20
-182.241
 21
-182.121
  0
LINE
  8
0
 10
-28.014
 11
-28.074
 20
-182.121
 21
-181.993
  0
LINE
  8
0
 10
-28.074
 11
-28.118
 20
-181.993
 21
-181.858
  0
LINE
  8
0
 10
-28.118
 11
-28.145
 20
-181.858
 21
-181.718
  0
LINE
  8
0
 10
-28.145
 11
-28.154
 20
-181.718
 21
-181.577
  0
LINE
  8
0
 10
-18.85
 11
-18.85
 20
-384.1
 21
-381.1
  0
LINE
  8
0
 10
-18.85
 11
-11.85
 20
-381.1
 21
-381.1
  0
LINE
  8
0
 10
-11.85
 11
-11.85
 20
-381.1
 21
-384.1
  0
LINE
  8
0
 10
-11.85
 11
-18.85
 20
-384.1
 21
-384.1
  0
LINE
  8
0
 10
-18.85
 11
-18.85
 20
-177.9
 21
-174.9
  0
LINE
  8
0
 10
-18.85
 11
-11.85
 20
-174.9
 21
-174.9
  0
LINE
  8
0
 10
-11.85
 11
-11.85
 20
-174.9
 21
-177.9
  0
LINE
  8
0
 10
-11.85
 11
-18.85
 20
-177.9
 21
-177.9
  0
LINE
  8
0
 10
11.85
 11
11.85
 20
-384.1
 21
-381.1
  0
LINE
  8
0
 10
11.85
 11
18.85
 20
-381.1
 21
-381.1
  0
LINE
  8
0
 10
18.85
 11
18.85
 20
-381.1
 21
-384.1
  0
LINE
  8
0
 10
18.85
 11
11.85
 20
-384.1
 21
-384.1
  0
LINE
  8
0
 10
11.85
 11
11.85
 20
-177.9
 21
-174.9
  0
LINE
  8
0
 10
11.85
 11
18.85
 20
-174.9
 21
-174.9
  0
LINE
  8
0
 10
18.85
 11
18.85
 20
-174.9
 21
-177.9
  0
LINE
  8
0
 10
18.85
 11
11.85
 20
-177.9
 21
-177.9
  0
LINE
  8
0
 10
25.893
 11
25.902
 20
-377.423
 21
-377.282
  0
LINE
  8
0
 10
25.902
 11
25.929
 20
-377.282
 21
-377.142
  0
LINE
  8
0
 10
25.929
 11
25.972
 20
-377.142
 21
-377.007
  0
LINE
  8
0
 10
25.972
 11
26.033
 20
-377.007
 21
-376.879
  0
LINE
  8
0
 10
26.033
 11
26.109
 20
-376.879
 21
-376.759
  0
LINE
  8
0
 10
26.109
 11
26.199
 20
-376.759
 21
-376.65
  0
LINE
  8
0
 10
26.199
 11
26.303
 20
-376.65
 21
-376.552
  0
LINE
  8
0
 10
26.303
 11
26.418
 20
-376.552
 21
-376.469
  0
LINE
  8
0
 10
26.418
 11
26.542
 20
-376.469
 21
-376.401
  0
LINE
  8
0
 10
26.542
 11
26.674
 20
-376.401
 21
-376.348
  0
LINE
  8
0
 10
26.674
 11
26.812
 20
-376.348
 21
-376.313
  0
LINE
  8
0
 10
26.812
 11
26.952
 20
-376.313
 21
-376.295
  0
LINE
  8
0
 10
26.952
 11
27.094
 20
-376.295
 21
-376.295
  0
LINE
  8
0
 10
27.094
 11
27.235
 20
-376.295
 21
-376.313
  0
LINE
  8
0
 10
27.235
 11
27.373
 20
-376.313
 21
-376.348
  0
LINE
  8
0
 10
27.373
 11
27.505
 20
-376.348
 21
-376.401
  0
LINE
  8
0
 10
27.505
 11
27.629
 20
-376.401
 21
-376.469
  0
LINE
  8
0
 10
27.629
 11
27.744
 20
-376.469
 21
-376.552
  0
LINE
  8
0
 10
27.744
 11
27.847
 20
-376.552
 21
-376.65
  0
LINE
  8
0
 10
27.847
 11
27.938
 20
-376.65
 21
-376.759
  0
LINE
  8
0
 10
27.938
 11
28.014
 20
-376.759
 21
-376.879
  0
LINE
  8
0
 10
28.014
 11
28.074
 20
-376.879
 21
-377.007
  0
LINE
  8
0
 10
28.074
 11
28.118
 20
-377.007
 21
-377.142
  0
LINE
  8
0
 10
28.118
 11
28.145
 20
-377.142
 21
-377.282
  0
LINE
  8
0
 10
28.145
 11
28.154
 20
-377.282
 21
-377.423
  0
LINE
  8
0
 10
28.154
 11
28.145
 20
-377.423
 21
-377.565
  0
LINE
  8
0
 10
28.145
 11
28.118
 20
-377.565
 21
-377.704
  0
LINE
  8
0
 10
28.118
 11
28.074
 20
-377.704
 21
-377.839
  0
LINE
  8
0
 10
28.074
 11
28.014
 20
-377.839
 21
-377.968
  0
LINE
  8
0
 10
28.014
 11
27.938
 20
-377.968
 21
-378.088
  0
LINE
  8
0
 10
27.938
 11
27.847
 20
-378.088
 21
-378.197
  0
LINE
  8
0
 10
27.847
 11
27.744
 20
-378.197
 21
-378.294
  0
LINE
  8
0
 10
27.744
 11
27.629
 20
-378.294
 21
-378.378
  0
LINE
  8
0
 10
27.629
 11
27.505
 20
-378.378
 21
-378.446
  0
LINE
  8
0
 10
27.505
 11
27.373
 20
-378.446
 21
-378.498
  0
LINE
  8
0
 10
27.373
 11
27.235
 20
-378.498
 21
-378.534
  0
LINE
  8
0
 10
27.235
 11
27.094
 20
-378.534
 21
-378.551
  0
LINE
  8
0
 10
27.094
 11
26.952
 20
-378.551
 21
-378.551
  0
LINE
  8
0
 10
26.952
 11
26.812
 20
-378.551
 21
-378.534
  0
LINE
  8
0
 10
26.812
 11
26.674
 20
-378.534
 21
-378.498
  0
LINE
  8
0
 10
26.674
 11
26.542
 20
-378.498
 21
-378.446
  0
LINE
  8
0
 10
26.542
 11
26.418
 20
-378.446
 21
-378.378
  0
LINE
  8
0
 10
26.418
 11
26.303
 20
-378.378
 21
-378.294
  0
LINE
  8
0
 10
26.303
 11
26.199
 20
-378.294
 21
-378.197
  0
LINE
  8
0
 10
26.199
 11
26.109
 20
-378.197
 21
-378.088
  0
LINE
  8
0
 10
26.109
 11
26.033
 20
-378.088
 21
-377.968
  0
LINE
  8
0
 10
26.033
 11
25.972
 20
-377.968
 21
-377.839
  0
LINE
  8
0
 10
25.972
 11
25.929
 20
-377.839
 21
-377.704
  0
LINE
  8
0
 10
25.929
 11
25.902
 20
-377.704
 21
-377.565
  0
LINE
  8
0
 10
25.902
 11
25.893
 20
-377.565
 21
-377.423
  0
LINE
  8
0
 10
25.893
 11
25.902
 20
-181.577
 21
-181.435
  0
LINE
  8
0
 10
25.902
 11
25.929
 20
-181.435
 21
-181.296
  0
LINE
  8
0
 10
25.929
 11
25.972
 20
-181.296
 21
-181.161
  0
LINE
  8
0
 10
25.972
 11
26.033
 20
-181.161
 21
-181.032
  0
LINE
  8
0
 10
26.033
 11
26.109
 20
-181.032
 21
-180.912
  0
LINE
  8
0
 10
26.109
 11
26.199
 20
-180.912
 21
-180.803
  0
LINE
  8
0
 10
26.199
 11
26.303
 20
-180.803
 21
-180.706
  0
LINE
  8
0
 10
26.303
 11
26.418
 20
-180.706
 21
-180.622
  0
LINE
  8
0
 10
26.418
 11
26.542
 20
-180.622
 21
-180.554
  0
LINE
  8
0
 10
26.542
 11
26.674
 20
-180.554
 21
-180.502
  0
LINE
  8
0
 10
26.674
 11
26.812
 20
-180.502
 21
-180.466
  0
LINE
  8
0
 10
26.812
 11
26.952
 20
-180.466
 21
-180.449
  0
LINE
  8
0
 10
26.952
 11
27.094
 20
-180.449
 21
-180.449
  0
LINE
  8
0
 10
27.094
 11
27.235
 20
-180.449
 21
-180.466
  0
LINE
  8
0
 10
27.235
 11
27.373
 20
-180.466
 21
-180.502
  0
LINE
  8
0
 10
27.373
 11
27.505
 20
-180.502
 21
-180.554
  0
LINE
  8
0
 10
27.505
 11
27.629
 20
-180.554
 21
-180.622
  0
LINE
  8
0
 10
27.629
 11
27.744
 20
-180.622
 21
-180.706
  0
LINE
  8
0
 10
27.744
 11
27.847
 20
-180.706
 21
-180.803
  0
LINE
  8
0
 10
27.847
 11
27.938
 20
-180.803
 21
-180.912
  0
LINE
  8
0
 10
27.938
 11
28.014
 20
-180.912
 21
-181.032
  0
LINE
  8
0
 10
28.014
 11
28.074
 20
-181.032
 21
-181.161
  0
LINE
  8
0
 10
28.074
 11
28.118
 20
-181.161
 21
-181.296
  0
LINE
  8
0
 10
28.118
 11
28.145
 20
-181.296
 21
-181.435
  0
LINE
  8
0
 10
28.145
 11
28.154
 20
-181.435
 21
-181.577
  0
LINE
  8
0
 10
28.154
 11
28.145
 20
-181.577
 21
-181.718
  0
LINE
  8
0
 10
28.145
 11
28.118
 20
-181.718
 21
-181.858
  0
LINE
  8
0
 10
28.118
 11
28.074
 20
-181.858
 21
-181.993
  0
LINE
  8
0
 10
28.074
 11
28.014
 20
-181.993
 21
-182.121
  0
LINE
  8
0
 10
28.014
 11
27.938
 20
-182.121
 21
-182.241
  0
LINE
  8
0
 10
27.938
 11
27.847
 20
-182.241
 21
-182.35
  0
LINE
  8
0
 10
27.847
 11
27.744
 20
-182.35
 21
-182.448
  0
LINE
  8
0
 10
27.744
 11
27.629
 20
-182.448
 21
-182.531
  0
LINE
  8
0
 10
27.629
 11
27.505
 20
-182.531
 21
-182.599
  0
LINE
  8
0
 10
27.505
 11
27.373
 20
-182.599
 21
-182.652
  0
LINE
  8
0
 10
27.373
 11
27.235
 20
-182.652
 21
-182.687
  0
LINE
  8
0
 10
27.235
 11
27.094
 20
-182.687
 21
-182.705
  0
LINE
  8
0
 10
27.094
 11
26.952
 20
-182.705
 21
-182.705
  0
LINE
  8
0
 10
26.952
 11
26.812
 20
-182.705
 21
-182.687
  0
LINE
  8
0
 10
26.812
 11
26.674
 20
-182.687
 21
-182.652
  0
LINE
  8
0
 10
26.674
 11
26.542
 20
-182.652
 21
-182.599
  0
LINE
  8
0
 10
26.542
 11
26.418
 20
-182.599
 21
-182.531
  0
LINE
  8
0
 10
26.418
 11
26.303
 20
-182.531
 21
-182.448
  0
LINE
  8
0
 10
26.303
 11
26.199
 20
-182.448
 21
-182.35
  0
LINE
  8
0
 10
26.199
 11
26.109
 20
-182.35
 21
-182.241
  0
LINE
  8
0
 10
26.109
 11
26.033
 20
-182.241
 21
-182.121
  0
LINE
  8
0
 10
26.033
 11
25.972
 20
-182.121
 21
-181.993
  0
LINE
  8
0
 10
25.972
 11
25.929
 20
-181.993
 21
-181.858
  0
LINE
  8
0
 10
25.929
 11
25.902
 20
-181.858
 21
-181.718
  0
LINE
  8
0
 10
25.902
 11
25.893
 20
-181.718
 21
-181.577
  0
LINE
  8
0
 10
27.146
 11
27.152
 20
-365.86
 21
-365.758
  0
LINE
  8
0
 10
27.152
 11
27.172
 20
-365.758
 21
-365.658
  0
LINE
  8
0
 10
27.172
 11
27.203
 20
-365.658
 21
-365.56
  0
LINE
  8
0
 10
27.203
 11
27.247
 20
-365.56
 21
-365.468
  0
LINE
  8
0
 10
27.247
 11
27.301
 20
-365.468
 21
-365.382
  0
LINE
  8
0
 10
27.301
 11
27.367
 20
-365.382
 21
-365.303
  0
LINE
  8
0
 10
27.367
 11
27.441
 20
-365.303
 21
-365.233
  0
LINE
  8
0
 10
27.441
 11
27.524
 20
-365.233
 21
-365.173
  0
LINE
  8
0
 10
27.524
 11
27.613
 20
-365.173
 21
-365.123
  0
LINE
  8
0
 10
27.613
 11
27.708
 20
-365.123
 21
-365.086
  0
LINE
  8
0
 10
27.708
 11
27.807
 20
-365.086
 21
-365.06
  0
LINE
  8
0
 10
27.807
 11
27.909
 20
-365.06
 21
-365.048
  0
LINE
  8
0
 10
27.909
 11
28.011
 20
-365.048
 21
-365.048
  0
LINE
  8
0
 10
28.011
 11
28.113
 20
-365.048
 21
-365.06
  0
LINE
  8
0
 10
28.113
 11
28.212
 20
-365.06
 21
-365.086
  0
LINE
  8
0
 10
28.212
 11
28.307
 20
-365.086
 21
-365.123
  0
LINE
  8
0
 10
28.307
 11
28.396
 20
-365.123
 21
-365.173
  0
LINE
  8
0
 10
28.396
 11
28.479
 20
-365.173
 21
-365.233
  0
LINE
  8
0
 10
28.479
 11
28.553
 20
-365.233
 21
-365.303
  0
LINE
  8
0
 10
28.553
 11
28.619
 20
-365.303
 21
-365.382
  0
LINE
  8
0
 10
28.619
 11
28.673
 20
-365.382
 21
-365.468
  0
LINE
  8
0
 10
28.673
 11
28.717
 20
-365.468
 21
-365.56
  0
LINE
  8
0
 10
28.717
 11
28.748
 20
-365.56
 21
-365.658
  0
LINE
  8
0
 10
28.748
 11
28.768
 20
-365.658
 21
-365.758
  0
LINE
  8
0
 10
28.768
 11
28.774
 20
-365.758
 21
-365.86
  0
LINE
  8
0
 10
28.774
 11
28.768
 20
-365.86
 21
-365.962
  0
LINE
  8
0
 10
28.768
 11
28.748
 20
-365.962
 21
-366.062
  0
LINE
  8
0
 10
28.748
 11
28.717
 20
-366.062
 21
-366.16
  0
LINE
  8
0
 10
28.717
 11
28.673
 20
-366.16
 21
-366.252
  0
LINE
  8
0
 10
28.673
 11
28.619
 20
-366.252
 21
-366.338
  0
LINE
  8
0
 10
28.619
 11
28.553
 20
-366.338
 21
-366.417
  0
LINE
  8
0
 10
28.553
 11
28.479
 20
-366.417
 21
-366.487
  0
LINE
  8
0
 10
28.479
 11
28.396
 20
-366.487
 21
-366.547
  0
LINE
  8
0
 10
28.396
 11
28.307
 20
-366.547
 21
-366.597
  0
LINE
  8
0
 10
28.307
 11
28.212
 20
-366.597
 21
-366.634
  0
LINE
  8
0
 10
28.212
 11
28.113
 20
-366.634
 21
-366.66
  0
LINE
  8
0
 10
28.113
 11
28.011
 20
-366.66
 21
-366.672
  0
LINE
  8
0
 10
28.011
 11
27.909
 20
-366.672
 21
-366.672
  0
LINE
  8
0
 10
27.909
 11
27.807
 20
-366.672
 21
-366.66
  0
LINE
  8
0
 10
27.807
 11
27.708
 20
-366.66
 21
-366.634
  0
LINE
  8
0
 10
27.708
 11
27.613
 20
-366.634
 21
-366.597
  0
LINE
  8
0
 10
27.613
 11
27.524
 20
-366.597
 21
-366.547
  0
LINE
  8
0
 10
27.524
 11
27.441
 20
-366.547
 21
-366.487
  0
LINE
  8
0
 10
27.441
 11
27.367
 20
-366.487
 21
-366.417
  0
LINE
  8
0
 10
27.367
 11
27.301
 20
-366.417
 21
-366.338
  0
LINE
  8
0
 10
27.301
 11
27.247
 20
-366.338
 21
-366.252
  0
LINE
  8
0
 10
27.247
 11
27.203
 20
-366.252
 21
-366.16
  0
LINE
  8
0
 10
27.203
 11
27.172
 20
-366.16
 21
-366.062
  0
LINE
  8
0
 10
27.172
 11
27.152
 20
-366.062
 21
-365.962
  0
LINE
  8
0
 10
27.152
 11
27.146
 20
-365.962
 21
-365.86
  0
LINE
  8
0
 10
27.146
 11
27.152
 20
-327.76
 21
-327.658
  0
LINE
  8
0
 10
27.152
 11
27.172
 20
-327.658
 21
-327.558
  0
LINE
  8
0
 10
27.172
 11
27.203
 20
-327.558
 21
-327.46
  0
LINE
  8
0
 10
27.203
 11
27.247
 20
-327.46
 21
-327.368
  0
LINE
  8
0
 10
27.247
 11
27.301
 20
-327.368
 21
-327.282
  0
LINE
  8
0
 10
27.301
 11
27.367
 20
-327.282
 21
-327.203
  0
LINE
  8
0
 10
27.367
 11
27.441
 20
-327.203
 21
-327.133
  0
LINE
  8
0
 10
27.441
 11
27.524
 20
-327.133
 21
-327.073
  0
LINE
  8
0
 10
27.524
 11
27.613
 20
-327.073
 21
-327.023
  0
LINE
  8
0
 10
27.613
 11
27.708
 20
-327.023
 21
-326.986
  0
LINE
  8
0
 10
27.708
 11
27.807
 20
-326.986
 21
-326.96
  0
LINE
  8
0
 10
27.807
 11
27.909
 20
-326.96
 21
-326.948
  0
LINE
  8
0
 10
27.909
 11
28.011
 20
-326.948
 21
-326.948
  0
LINE
  8
0
 10
28.011
 11
28.113
 20
-326.948
 21
-326.96
  0
LINE
  8
0
 10
28.113
 11
28.212
 20
-326.96
 21
-326.986
  0
LINE
  8
0
 10
28.212
 11
28.307
 20
-326.986
 21
-327.023
  0
LINE
  8
0
 10
28.307
 11
28.396
 20
-327.023
 21
-327.073
  0
LINE
  8
0
 10
28.396
 11
28.479
 20
-327.073
 21
-327.133
  0
LINE
  8
0
 10
28.479
 11
28.553
 20
-327.133
 21
-327.203
  0
LINE
  8
0
 10
28.553
 11
28.619
 20
-327.203
 21
-327.282
  0
LINE
  8
0
 10
28.619
 11
28.673
 20
-327.282
 21
-327.368
  0
LINE
  8
0
 10
28.673
 11
28.717
 20
-327.368
 21
-327.46
  0
LINE
  8
0
 10
28.717
 11
28.748
 20
-327.46
 21
-327.558
  0
LINE
  8
0
 10
28.748
 11
28.768
 20
-327.558
 21
-327.658
  0
LINE
  8
0
 10
28.768
 11
28.774
 20
-327.658
 21
-327.76
  0
LINE
  8
0
 10
28.774
 11
28.768
 20
-327.76
 21
-327.862
  0
LINE
  8
0
 10
28.768
 11
28.748
 20
-327.862
 21
-327.962
  0
LINE
  8
0
 10
28.748
 11
28.717
 20
-327.962
 21
-328.06
  0
LINE
  8
0
 10
28.717
 11
28.673
 20
-328.06
 21
-328.152
  0
LINE
  8
0
 10
28.673
 11
28.619
 20
-328.152
 21
-328.238
  0
LINE
  8
0
 10
28.619
 11
28.553
 20
-328.238
 21
-328.317
  0
LINE
  8
0
 10
28.553
 11
28.479
 20
-328.317
 21
-328.387
  0
LINE
  8
0
 10
28.479
 11
28.396
 20
-328.387
 21
-328.447
  0
LINE
  8
0
 10
28.396
 11
28.307
 20
-328.447
 21
-328.497
  0
LINE
  8
0
 10
28.307
 11
28.212
 20
-328.497
 21
-328.534
  0
LINE
  8
0
 10
28.212
 11
28.113
 20
-328.534
 21
-328.56
  0
LINE
  8
0
 10
28.113
 11
28.011
 20
-328.56
 21
-328.572
  0
LINE
  8
0
 10
28.011
 11
27.909
 20
-328.572
 21
-328.572
  0
LINE
  8
0
 10
27.909
 11
27.807
 20
-328.572
 21
-328.56
  0
LINE
  8
0
 10
27.807
 11
27.708
 20
-328.56
 21
-328.534
  0
LINE
  8
0
 10
27.708
 11
27.613
 20
-328.534
 21
-328.497
  0
LINE
  8
0
 10
27.613
 11
27.524
 20
-328.497
 21
-328.447
  0
LINE
  8
0
 10
27.524
 11
27.441
 20
-328.447
 21
-328.387
  0
LINE
  8
0
 10
27.441
 11
27.367
 20
-328.387
 21
-328.317
  0
LINE
  8
0
 10
27.367
 11
27.301
 20
-328.317
 21
-328.238
  0
LINE
  8
0
 10
27.301
 11
27.247
 20
-328.238
 21
-328.152
  0
LINE
  8
0
 10
27.247
 11
27.203
 20
-328.152
 21
-328.06
  0
LINE
  8
0
 10
27.203
 11
27.172
 20
-328.06
 21
-327.962
  0
LINE
  8
0
 10
27.172
 11
27.152
 20
-327.962
 21
-327.862
  0
LINE
  8
0
 10
27.152
 11
27.146
 20
-327.862
 21
-327.76
  0
LINE
  8
0
 10
27.146
 11
27.152
 20
-193.14
 21
-193.038
  0
LINE
  8
0
 10
27.152
 11
27.172
 20
-193.038
 21
-192.938
  0
LINE
  8
0
 10
27.172
 11
27.203
 20
-192.938
 21
-192.84
  0
LINE
  8
0
 10
27.203
 11
27.247
 20
-192.84
 21
-192.748
  0
LINE
  8
0
 10
27.247
 11
27.301
 20
-192.748
 21
-192.662
  0
LINE
  8
0
 10
27.301
 11
27.367
 20
-192.662
 21
-192.583
  0
LINE
  8
0
 10
27.367
 11
27.441
 20
-192.583
 21
-192.513
  0
LINE
  8
0
 10
27.441
 11
27.524
 20
-192.513
 21
-192.453
  0
LINE
  8
0
 10
27.524
 11
27.613
 20
-192.453
 21
-192.403
  0
LINE
  8
0
 10
27.613
 11
27.708
 20
-192.403
 21
-192.366
  0
LINE
  8
0
 10
27.708
 11
27.807
 20
-192.366
 21
-192.34
  0
LINE
  8
0
 10
27.807
 11
27.909
 20
-192.34
 21
-192.328
  0
LINE
  8
0
 10
27.909
 11
28.011
 20
-192.328
 21
-192.328
  0
LINE
  8
0
 10
28.011
 11
28.113
 20
-192.328
 21
-192.34
  0
LINE
  8
0
 10
28.113
 11
28.212
 20
-192.34
 21
-192.366
  0
LINE
  8
0
 10
28.212
 11
28.307
 20
-192.366
 21
-192.403
  0
LINE
  8
0
 10
28.307
 11
28.396
 20
-192.403
 21
-192.453
  0
LINE
  8
0
 10
28.396
 11
28.479
 20
-192.453
 21
-192.513
  0
LINE
  8
0
 10
28.479
 11
28.553
 20
-192.513
 21
-192.583
  0
LINE
  8
0
 10
28.553
 11
28.619
 20
-192.583
 21
-192.662
  0
LINE
  8
0
 10
28.619
 11
28.673
 20
-192.662
 21
-192.748
  0
LINE
  8
0
 10
28.673
 11
28.717
 20
-192.748
 21
-192.84
  0
LINE
  8
0
 10
28.717
 11
28.748
 20
-192.84
 21
-192.938
  0
LINE
  8
0
 10
28.748
 11
28.768
 20
-192.938
 21
-193.038
  0
LINE
  8
0
 10
28.768
 11
28.774
 20
-193.038
 21
-193.14
  0
LINE
  8
0
 10
28.774
 11
28.768
 20
-193.14
 21
-193.242
  0
LINE
  8
0
 10
28.768
 11
28.748
 20
-193.242
 21
-193.342
  0
LINE
  8
0
 10
28.748
 11
28.717
 20
-193.342
 21
-193.44
  0
LINE
  8
0
 10
28.717
 11
28.673
 20
-193.44
 21
-193.532
  0
LINE
  8
0
 10
28.673
 11
28.619
 20
-193.532
 21
-193.618
  0
LINE
  8
0
 10
28.619
 11
28.553
 20
-193.618
 21
-193.697
  0
LINE
  8
0
 10
28.553
 11
28.479
 20
-193.697
 21
-193.767
  0
LINE
  8
0
 10
28.479
 11
28.396
 20
-193.767
 21
-193.827
  0
LINE
  8
0
 10
28.396
 11
28.307
 20
-193.827
 21
-193.877
  0
LINE
  8
0
 10
28.307
 11
28.212
 20
-193.877
 21
-193.914
  0
LINE
  8
0
 10
28.212
 11
28.113
 20
-193.914
 21
-193.94
  0
LINE
  8
0
 10
28.113
 11
28.011
 20
-193.94
 21
-193.952
  0
LINE
  8
0
 10
28.011
 11
27.909
 20
-193.952
 21
-193.952
  0
LINE
  8
0
 10
27.909
 11
27.807
 20
-193.952
 21
-193.94
  0
LINE
  8
0
 10
27.807
 11
27.708
 20
-193.94
 21
-193.914
  0
LINE
  8
0
 10
27.708
 11
27.613
 20
-193.914
 21
-193.877
  0
LINE
  8
0
 10
27.613
 11
27.524
 20
-193.877
 21
-193.827
  0
LINE
  8
0
 10
27.524
 11
27.441
 20
-193.827
 21
-193.767
  0
LINE
  8
0
 10
27.441
 11
27.367
 20
-193.767
 21
-193.697
  0
LINE
  8
0
 10
27.367
 11
27.301
 20
-193.697
 21
-193.618
  0
LINE
  8
0
 10
27.301
 11
27.247
 20
-193.618
 21
-193.532
  0
LINE
  8
0
 10
27.247
 11
27.203
 20
-193.532
 21
-193.44
  0
LINE
  8
0
 10
27.203
 11
27.172
 20
-193.44
 21
-193.342
  0
LINE
  8
0
 10
27.172
 11
27.152
 20
-193.342
 21
-193.242
  0
LINE
  8
0
 10
27.152
 11
27.146
 20
-193.242
 21
-193.14
  0
LINE
  8
0
 10
30.7
 11
30.7
 20
-301.828
 21
-294.828
  0
LINE
  8
0
 10
30.7
 11
33.7
 20
-294.828
 21
-294.828
  0
LINE
  8
0
 10
33.7
 11
33.7
 20
-294.828
 21
-301.828
  0
LINE
  8
0
 10
33.7
 11
30.7
 20
-301.828
 21
-301.828
  0
LINE
  8
0
 10
30.7
 11
30.7
 20
-226.516
 21
-219.516
  0
LINE
  8
0
 10
30.7
 11
33.7
 20
-219.516
 21
-219.516
  0
LINE
  8
0
 10
33.7
 11
33.7
 20
-219.516
 21
-226.516
  0
LINE
  8
0
 10
33.7
 11
30.7
 20
-226.516
 21
-226.516
  0
ENDSEC
  0
SECTION
  2
OBJECTS
  0
DICTIONARY
  0
ENDSEC
  0
EOF
