  0
SECTION
  2
BLOCKS
  0
ENDSEC
  0
SECTION
  2
ENTITIES
  0
LINE
  8
0
 10
-37.05
 11
-37.05
 20
-391.65
 21
-178.75
  0
LINE
  8
0
 10
-37.05
 11
-37.038
 20
-178.75
 21
-178.562
  0
LINE
  8
0
 10
-37.038
 11
-37.003
 20
-178.562
 21
-178.377
  0
LINE
  8
0
 10
-37.003
 11
-36.945
 20
-178.377
 21
-178.198
  0
LINE
  8
0
 10
-36.945
 11
-36.864
 20
-178.198
 21
-178.027
  0
LINE
  8
0
 10
-36.864
 11
-36.764
 20
-178.027
 21
-177.868
  0
LINE
  8
0
 10
-36.764
 11
-36.643
 20
-177.868
 21
-177.723
  0
LINE
  8
0
 10
-36.643
 11
-36.506
 20
-177.723
 21
-177.594
  0
LINE
  8
0
 10
-36.506
 11
-36.354
 20
-177.594
 21
-177.484
  0
LINE
  8
0
 10
-36.354
 11
-36.189
 20
-177.484
 21
-177.393
  0
LINE
  8
0
 10
-36.189
 11
-36.014
 20
-177.393
 21
-177.323
  0
LINE
  8
0
 10
-36.014
 11
-35.831
 20
-177.323
 21
-177.277
  0
LINE
  8
0
 10
-35.831
 11
-35.644
 20
-177.277
 21
-177.253
  0
LINE
  8
0
 10
-35.644
 11
-35.55
 20
-177.253
 21
-177.253
  0
LINE
  8
0
 10
-35.55
 11
-35.55
 20
-177.253
 21
-177.25
  0
LINE
  8
0
 10
-35.55
 11
35.55
 20
-177.25
 21
-177.25
  0
LINE
  8
0
 10
35.55
 11
35.55
 20
-177.25
 21
-177.253
  0
LINE
  8
0
 10
35.55
 11
35.644
 20
-177.253
 21
-177.253
  0
LINE
  8
0
 10
35.644
 11
35.831
 20
-177.253
 21
-177.277
  0
LINE
  8
0
 10
35.831
 11
36.014
 20
-177.277
 21
-177.323
  0
LINE
  8
0
 10
36.014
 11
36.189
 20
-177.323
 21
-177.393
  0
LINE
  8
0
 10
36.189
 11
36.354
 20
-177.393
 21
-177.484
  0
LINE
  8
0
 10
36.354
 11
36.506
 20
-177.484
 21
-177.594
  0
LINE
  8
0
 10
36.506
 11
36.643
 20
-177.594
 21
-177.723
  0
LINE
  8
0
 10
36.643
 11
36.764
 20
-177.723
 21
-177.868
  0
LINE
  8
0
 10
36.764
 11
36.864
 20
-177.868
 21
-178.027
  0
LINE
  8
0
 10
36.864
 11
36.945
 20
-178.027
 21
-178.198
  0
LINE
  8
0
 10
36.945
 11
37.003
 20
-178.198
 21
-178.377
  0
LINE
  8
0
 10
37.003
 11
37.038
 20
-178.377
 21
-178.562
  0
LINE
  8
0
 10
37.038
 11
37.05
 20
-178.562
 21
-178.75
  0
LINE
  8
0
 10
37.05
 11
37.05
 20
-178.75
 21
-391.65
  0
LINE
  8
0
 10
37.05
 11
37.038
 20
-391.65
 21
-391.838
  0
LINE
  8
0
 10
37.038
 11
37.003
 20
-391.838
 21
-392.023
  0
LINE
  8
0
 10
37.003
 11
36.945
 20
-392.023
 21
-392.202
  0
LINE
  8
0
 10
36.945
 11
36.864
 20
-392.202
 21
-392.373
  0
LINE
  8
0
 10
36.864
 11
36.764
 20
-392.373
 21
-392.532
  0
LINE
  8
0
 10
36.764
 11
36.643
 20
-392.532
 21
-392.677
  0
LINE
  8
0
 10
36.643
 11
36.506
 20
-392.677
 21
-392.806
  0
LINE
  8
0
 10
36.506
 11
36.354
 20
-392.806
 21
-392.916
  0
LINE
  8
0
 10
36.354
 11
36.189
 20
-392.916
 21
-393.007
  0
LINE
  8
0
 10
36.189
 11
36.014
 20
-393.007
 21
-393.077
  0
LINE
  8
0
 10
36.014
 11
35.831
 20
-393.077
 21
-393.123
  0
LINE
  8
0
 10
35.831
 11
35.644
 20
-393.123
 21
-393.147
  0
LINE
  8
0
 10
35.644
 11
35.55
 20
-393.147
 21
-393.147
  0
LINE
  8
0
 10
35.55
 11
35.55
 20
-393.147
 21
-393.15
  0
LINE
  8
0
 10
35.55
 11
-35.55
 20
-393.15
 21
-393.15
  0
LINE
  8
0
 10
-35.55
 11
-35.55
 20
-393.15
 21
-393.147
  0
LINE
  8
0
 10
-35.55
 11
-35.644
 20
-393.147
 21
-393.147
  0
LINE
  8
0
 10
-35.644
 11
-35.831
 20
-393.147
 21
-393.123
  0
LINE
  8
0
 10
-35.831
 11
-36.014
 20
-393.123
 21
-393.077
  0
LINE
  8
0
 10
-36.014
 11
-36.189
 20
-393.077
 21
-393.007
  0
LINE
  8
0
 10
-36.189
 11
-36.354
 20
-393.007
 21
-392.916
  0
LINE
  8
0
 10
-36.354
 11
-36.506
 20
-392.916
 21
-392.806
  0
LINE
  8
0
 10
-36.506
 11
-36.643
 20
-392.806
 21
-392.677
  0
LINE
  8
0
 10
-36.643
 11
-36.764
 20
-392.677
 21
-392.532
  0
LINE
  8
0
 10
-36.764
 11
-36.864
 20
-392.532
 21
-392.373
  0
LINE
  8
0
 10
-36.864
 11
-36.945
 20
-392.373
 21
-392.202
  0
LINE
  8
0
 10
-36.945
 11
-37.003
 20
-392.202
 21
-392.023
  0
LINE
  8
0
 10
-37.003
 11
-37.038
 20
-392.023
 21
-391.838
  0
LINE
  8
0
 10
-37.038
 11
-37.05
 20
-391.838
 21
-391.65
  0
LINE
  8
0
 10
-34.05
 11
-34.05
 20
-307.591
 21
-300.591
  0
LINE
  8
0
 10
-34.05
 11
-30.7
 20
-300.591
 21
-300.591
  0
LINE
  8
0
 10
-30.7
 11
-30.7
 20
-300.591
 21
-307.591
  0
LINE
  8
0
 10
-30.7
 11
-34.05
 20
-307.591
 21
-307.591
  0
LINE
  8
0
 10
-34.05
 11
-34.05
 20
-232.027
 21
-225.027
  0
LINE
  8
0
 10
-34.05
 11
-30.7
 20
-225.027
 21
-225.027
  0
LINE
  8
0
 10
-30.7
 11
-30.7
 20
-225.027
 21
-232.027
  0
LINE
  8
0
 10
-30.7
 11
-34.05
 20
-232.027
 21
-232.027
  0
LINE
  8
0
 10
-28.774
 11
-28.768
 20
-371.56
 21
-371.458
  0
LINE
  8
0
 10
-28.768
 11
-28.748
 20
-371.458
 21
-371.358
  0
LINE
  8
0
 10
-28.748
 11
-28.717
 20
-371.358
 21
-371.26
  0
LINE
  8
0
 10
-28.717
 11
-28.673
 20
-371.26
 21
-371.168
  0
LINE
  8
0
 10
-28.673
 11
-28.619
 20
-371.168
 21
-371.082
  0
LINE
  8
0
 10
-28.619
 11
-28.553
 20
-371.082
 21
-371.003
  0
LINE
  8
0
 10
-28.553
 11
-28.479
 20
-371.003
 21
-370.933
  0
LINE
  8
0
 10
-28.479
 11
-28.396
 20
-370.933
 21
-370.873
  0
LINE
  8
0
 10
-28.396
 11
-28.307
 20
-370.873
 21
-370.823
  0
LINE
  8
0
 10
-28.307
 11
-28.212
 20
-370.823
 21
-370.786
  0
LINE
  8
0
 10
-28.212
 11
-28.113
 20
-370.786
 21
-370.76
  0
LINE
  8
0
 10
-28.113
 11
-28.011
 20
-370.76
 21
-370.748
  0
LINE
  8
0
 10
-28.011
 11
-27.909
 20
-370.748
 21
-370.748
  0
LINE
  8
0
 10
-27.909
 11
-27.807
 20
-370.748
 21
-370.76
  0
LINE
  8
0
 10
-27.807
 11
-27.708
 20
-370.76
 21
-370.786
  0
LINE
  8
0
 10
-27.708
 11
-27.613
 20
-370.786
 21
-370.823
  0
LINE
  8
0
 10
-27.613
 11
-27.524
 20
-370.823
 21
-370.873
  0
LINE
  8
0
 10
-27.524
 11
-27.441
 20
-370.873
 21
-370.933
  0
LINE
  8
0
 10
-27.441
 11
-27.367
 20
-370.933
 21
-371.003
  0
LINE
  8
0
 10
-27.367
 11
-27.301
 20
-371.003
 21
-371.082
  0
LINE
  8
0
 10
-27.301
 11
-27.247
 20
-371.082
 21
-371.168
  0
LINE
  8
0
 10
-27.247
 11
-27.203
 20
-371.168
 21
-371.26
  0
LINE
  8
0
 10
-27.203
 11
-27.172
 20
-371.26
 21
-371.358
  0
LINE
  8
0
 10
-27.172
 11
-27.152
 20
-371.358
 21
-371.458
  0
LINE
  8
0
 10
-27.152
 11
-27.146
 20
-371.458
 21
-371.56
  0
LINE
  8
0
 10
-27.146
 11
-27.152
 20
-371.56
 21
-371.662
  0
LINE
  8
0
 10
-27.152
 11
-27.172
 20
-371.662
 21
-371.762
  0
LINE
  8
0
 10
-27.172
 11
-27.203
 20
-371.762
 21
-371.86
  0
LINE
  8
0
 10
-27.203
 11
-27.247
 20
-371.86
 21
-371.952
  0
LINE
  8
0
 10
-27.247
 11
-27.301
 20
-371.952
 21
-372.038
  0
LINE
  8
0
 10
-27.301
 11
-27.367
 20
-372.038
 21
-372.117
  0
LINE
  8
0
 10
-27.367
 11
-27.441
 20
-372.117
 21
-372.187
  0
LINE
  8
0
 10
-27.441
 11
-27.524
 20
-372.187
 21
-372.247
  0
LINE
  8
0
 10
-27.524
 11
-27.613
 20
-372.247
 21
-372.297
  0
LINE
  8
0
 10
-27.613
 11
-27.708
 20
-372.297
 21
-372.334
  0
LINE
  8
0
 10
-27.708
 11
-27.807
 20
-372.334
 21
-372.36
  0
LINE
  8
0
 10
-27.807
 11
-27.909
 20
-372.36
 21
-372.372
  0
LINE
  8
0
 10
-27.909
 11
-28.011
 20
-372.372
 21
-372.372
  0
LINE
  8
0
 10
-28.011
 11
-28.113
 20
-372.372
 21
-372.36
  0
LINE
  8
0
 10
-28.113
 11
-28.212
 20
-372.36
 21
-372.334
  0
LINE
  8
0
 10
-28.212
 11
-28.307
 20
-372.334
 21
-372.297
  0
LINE
  8
0
 10
-28.307
 11
-28.396
 20
-372.297
 21
-372.247
  0
LINE
  8
0
 10
-28.396
 11
-28.479
 20
-372.247
 21
-372.187
  0
LINE
  8
0
 10
-28.479
 11
-28.553
 20
-372.187
 21
-372.117
  0
LINE
  8
0
 10
-28.553
 11
-28.619
 20
-372.117
 21
-372.038
  0
LINE
  8
0
 10
-28.619
 11
-28.673
 20
-372.038
 21
-371.952
  0
LINE
  8
0
 10
-28.673
 11
-28.717
 20
-371.952
 21
-371.86
  0
LINE
  8
0
 10
-28.717
 11
-28.748
 20
-371.86
 21
-371.762
  0
LINE
  8
0
 10
-28.748
 11
-28.768
 20
-371.762
 21
-371.662
  0
LINE
  8
0
 10
-28.768
 11
-28.774
 20
-371.662
 21
-371.56
  0
LINE
  8
0
 10
-28.774
 11
-28.768
 20
-333.46
 21
-333.358
  0
LINE
  8
0
 10
-28.768
 11
-28.748
 20
-333.358
 21
-333.258
  0
LINE
  8
0
 10
-28.748
 11
-28.717
 20
-333.258
 21
-333.16
  0
LINE
  8
0
 10
-28.717
 11
-28.673
 20
-333.16
 21
-333.068
  0
LINE
  8
0
 10
-28.673
 11
-28.619
 20
-333.068
 21
-332.982
  0
LINE
  8
0
 10
-28.619
 11
-28.553
 20
-332.982
 21
-332.903
  0
LINE
  8
0
 10
-28.553
 11
-28.479
 20
-332.903
 21
-332.833
  0
LINE
  8
0
 10
-28.479
 11
-28.396
 20
-332.833
 21
-332.773
  0
LINE
  8
0
 10
-28.396
 11
-28.307
 20
-332.773
 21
-332.723
  0
LINE
  8
0
 10
-28.307
 11
-28.212
 20
-332.723
 21
-332.686
  0
LINE
  8
0
 10
-28.212
 11
-28.113
 20
-332.686
 21
-332.66
  0
LINE
  8
0
 10
-28.113
 11
-28.011
 20
-332.66
 21
-332.648
  0
LINE
  8
0
 10
-28.011
 11
-27.909
 20
-332.648
 21
-332.648
  0
LINE
  8
0
 10
-27.909
 11
-27.807
 20
-332.648
 21
-332.66
  0
LINE
  8
0
 10
-27.807
 11
-27.708
 20
-332.66
 21
-332.686
  0
LINE
  8
0
 10
-27.708
 11
-27.613
 20
-332.686
 21
-332.723
  0
LINE
  8
0
 10
-27.613
 11
-27.524
 20
-332.723
 21
-332.773
  0
LINE
  8
0
 10
-27.524
 11
-27.441
 20
-332.773
 21
-332.833
  0
LINE
  8
0
 10
-27.441
 11
-27.367
 20
-332.833
 21
-332.903
  0
LINE
  8
0
 10
-27.367
 11
-27.301
 20
-332.903
 21
-332.982
  0
LINE
  8
0
 10
-27.301
 11
-27.247
 20
-332.982
 21
-333.068
  0
LINE
  8
0
 10
-27.247
 11
-27.203
 20
-333.068
 21
-333.16
  0
LINE
  8
0
 10
-27.203
 11
-27.172
 20
-333.16
 21
-333.258
  0
LINE
  8
0
 10
-27.172
 11
-27.152
 20
-333.258
 21
-333.358
  0
LINE
  8
0
 10
-27.152
 11
-27.146
 20
-333.358
 21
-333.46
  0
LINE
  8
0
 10
-27.146
 11
-27.152
 20
-333.46
 21
-333.562
  0
LINE
  8
0
 10
-27.152
 11
-27.172
 20
-333.562
 21
-333.662
  0
LINE
  8
0
 10
-27.172
 11
-27.203
 20
-333.662
 21
-333.76
  0
LINE
  8
0
 10
-27.203
 11
-27.247
 20
-333.76
 21
-333.852
  0
LINE
  8
0
 10
-27.247
 11
-27.301
 20
-333.852
 21
-333.938
  0
LINE
  8
0
 10
-27.301
 11
-27.367
 20
-333.938
 21
-334.017
  0
LINE
  8
0
 10
-27.367
 11
-27.441
 20
-334.017
 21
-334.087
  0
LINE
  8
0
 10
-27.441
 11
-27.524
 20
-334.087
 21
-334.147
  0
LINE
  8
0
 10
-27.524
 11
-27.613
 20
-334.147
 21
-334.197
  0
LINE
  8
0
 10
-27.613
 11
-27.708
 20
-334.197
 21
-334.234
  0
LINE
  8
0
 10
-27.708
 11
-27.807
 20
-334.234
 21
-334.26
  0
LINE
  8
0
 10
-27.807
 11
-27.909
 20
-334.26
 21
-334.272
  0
LINE
  8
0
 10
-27.909
 11
-28.011
 20
-334.272
 21
-334.272
  0
LINE
  8
0
 10
-28.011
 11
-28.113
 20
-334.272
 21
-334.26
  0
LINE
  8
0
 10
-28.113
 11
-28.212
 20
-334.26
 21
-334.234
  0
LINE
  8
0
 10
-28.212
 11
-28.307
 20
-334.234
 21
-334.197
  0
LINE
  8
0
 10
-28.307
 11
-28.396
 20
-334.197
 21
-334.147
  0
LINE
  8
0
 10
-28.396
 11
-28.479
 20
-334.147
 21
-334.087
  0
LINE
  8
0
 10
-28.479
 11
-28.553
 20
-334.087
 21
-334.017
  0
LINE
  8
0
 10
-28.553
 11
-28.619
 20
-334.017
 21
-333.938
  0
LINE
  8
0
 10
-28.619
 11
-28.673
 20
-333.938
 21
-333.852
  0
LINE
  8
0
 10
-28.673
 11
-28.717
 20
-333.852
 21
-333.76
  0
LINE
  8
0
 10
-28.717
 11
-28.748
 20
-333.76
 21
-333.662
  0
LINE
  8
0
 10
-28.748
 11
-28.768
 20
-333.662
 21
-333.562
  0
LINE
  8
0
 10
-28.768
 11
-28.774
 20
-333.562
 21
-333.46
  0
LINE
  8
0
 10
-28.774
 11
-28.768
 20
-198.84
 21
-198.738
  0
LINE
  8
0
 10
-28.768
 11
-28.748
 20
-198.738
 21
-198.638
  0
LINE
  8
0
 10
-28.748
 11
-28.717
 20
-198.638
 21
-198.54
  0
LINE
  8
0
 10
-28.717
 11
-28.673
 20
-198.54
 21
-198.448
  0
LINE
  8
0
 10
-28.673
 11
-28.619
 20
-198.448
 21
-198.362
  0
LINE
  8
0
 10
-28.619
 11
-28.553
 20
-198.362
 21
-198.283
  0
LINE
  8
0
 10
-28.553
 11
-28.479
 20
-198.283
 21
-198.213
  0
LINE
  8
0
 10
-28.479
 11
-28.396
 20
-198.213
 21
-198.153
  0
LINE
  8
0
 10
-28.396
 11
-28.307
 20
-198.153
 21
-198.103
  0
LINE
  8
0
 10
-28.307
 11
-28.212
 20
-198.103
 21
-198.066
  0
LINE
  8
0
 10
-28.212
 11
-28.113
 20
-198.066
 21
-198.04
  0
LINE
  8
0
 10
-28.113
 11
-28.011
 20
-198.04
 21
-198.028
  0
LINE
  8
0
 10
-28.011
 11
-27.909
 20
-198.028
 21
-198.028
  0
LINE
  8
0
 10
-27.909
 11
-27.807
 20
-198.028
 21
-198.04
  0
LINE
  8
0
 10
-27.807
 11
-27.708
 20
-198.04
 21
-198.066
  0
LINE
  8
0
 10
-27.708
 11
-27.613
 20
-198.066
 21
-198.103
  0
LINE
  8
0
 10
-27.613
 11
-27.524
 20
-198.103
 21
-198.153
  0
LINE
  8
0
 10
-27.524
 11
-27.441
 20
-198.153
 21
-198.213
  0
LINE
  8
0
 10
-27.441
 11
-27.367
 20
-198.213
 21
-198.283
  0
LINE
  8
0
 10
-27.367
 11
-27.301
 20
-198.283
 21
-198.362
  0
LINE
  8
0
 10
-27.301
 11
-27.247
 20
-198.362
 21
-198.448
  0
LINE
  8
0
 10
-27.247
 11
-27.203
 20
-198.448
 21
-198.54
  0
LINE
  8
0
 10
-27.203
 11
-27.172
 20
-198.54
 21
-198.638
  0
LINE
  8
0
 10
-27.172
 11
-27.152
 20
-198.638
 21
-198.738
  0
LINE
  8
0
 10
-27.152
 11
-27.146
 20
-198.738
 21
-198.84
  0
LINE
  8
0
 10
-27.146
 11
-27.152
 20
-198.84
 21
-198.942
  0
LINE
  8
0
 10
-27.152
 11
-27.172
 20
-198.942
 21
-199.042
  0
LINE
  8
0
 10
-27.172
 11
-27.203
 20
-199.042
 21
-199.14
  0
LINE
  8
0
 10
-27.203
 11
-27.247
 20
-199.14
 21
-199.232
  0
LINE
  8
0
 10
-27.247
 11
-27.301
 20
-199.232
 21
-199.318
  0
LINE
  8
0
 10
-27.301
 11
-27.367
 20
-199.318
 21
-199.397
  0
LINE
  8
0
 10
-27.367
 11
-27.441
 20
-199.397
 21
-199.467
  0
LINE
  8
0
 10
-27.441
 11
-27.524
 20
-199.467
 21
-199.527
  0
LINE
  8
0
 10
-27.524
 11
-27.613
 20
-199.527
 21
-199.577
  0
LINE
  8
0
 10
-27.613
 11
-27.708
 20
-199.577
 21
-199.614
  0
LINE
  8
0
 10
-27.708
 11
-27.807
 20
-199.614
 21
-199.64
  0
LINE
  8
0
 10
-27.807
 11
-27.909
 20
-199.64
 21
-199.652
  0
LINE
  8
0
 10
-27.909
 11
-28.011
 20
-199.652
 21
-199.652
  0
LINE
  8
0
 10
-28.011
 11
-28.113
 20
-199.652
 21
-199.64
  0
LINE
  8
0
 10
-28.113
 11
-28.212
 20
-199.64
 21
-199.614
  0
LINE
  8
0
 10
-28.212
 11
-28.307
 20
-199.614
 21
-199.577
  0
LINE
  8
0
 10
-28.307
 11
-28.396
 20
-199.577
 21
-199.527
  0
LINE
  8
0
 10
-28.396
 11
-28.479
 20
-199.527
 21
-199.467
  0
LINE
  8
0
 10
-28.479
 11
-28.553
 20
-199.467
 21
-199.397
  0
LINE
  8
0
 10
-28.553
 11
-28.619
 20
-199.397
 21
-199.318
  0
LINE
  8
0
 10
-28.619
 11
-28.673
 20
-199.318
 21
-199.232
  0
LINE
  8
0
 10
-28.673
 11
-28.717
 20
-199.232
 21
-199.14
  0
LINE
  8
0
 10
-28.717
 11
-28.748
 20
-199.14
 21
-199.042
  0
LINE
  8
0
 10
-28.748
 11
-28.768
 20
-199.042
 21
-198.942
  0
LINE
  8
0
 10
-28.768
 11
-28.774
 20
-198.942
 21
-198.84
  0
LINE
  8
0
 10
-28.154
 11
-28.145
 20
-383.123
 21
-382.982
  0
LINE
  8
0
 10
-28.145
 11
-28.118
 20
-382.982
 21
-382.842
  0
LINE
  8
0
 10
-28.118
 11
-28.074
 20
-382.842
 21
-382.707
  0
LINE
  8
0
 10
-28.074
 11
-28.014
 20
-382.707
 21
-382.579
  0
LINE
  8
0
 10
-28.014
 11
-27.938
 20
-382.579
 21
-382.459
  0
LINE
  8
0
 10
-27.938
 11
-27.847
 20
-382.459
 21
-382.35
  0
LINE
  8
0
 10
-27.847
 11
-27.744
 20
-382.35
 21
-382.252
  0
LINE
  8
0
 10
-27.744
 11
-27.629
 20
-382.252
 21
-382.169
  0
LINE
  8
0
 10
-27.629
 11
-27.505
 20
-382.169
 21
-382.101
  0
LINE
  8
0
 10
-27.505
 11
-27.373
 20
-382.101
 21
-382.048
  0
LINE
  8
0
 10
-27.373
 11
-27.235
 20
-382.048
 21
-382.013
  0
LINE
  8
0
 10
-27.235
 11
-27.094
 20
-382.013
 21
-381.995
  0
LINE
  8
0
 10
-27.094
 11
-26.952
 20
-381.995
 21
-381.995
  0
LINE
  8
0
 10
-26.952
 11
-26.812
 20
-381.995
 21
-382.013
  0
LINE
  8
0
 10
-26.812
 11
-26.674
 20
-382.013
 21
-382.048
  0
LINE
  8
0
 10
-26.674
 11
-26.542
 20
-382.048
 21
-382.101
  0
LINE
  8
0
 10
-26.542
 11
-26.418
 20
-382.101
 21
-382.169
  0
LINE
  8
0
 10
-26.418
 11
-26.303
 20
-382.169
 21
-382.252
  0
LINE
  8
0
 10
-26.303
 11
-26.199
 20
-382.252
 21
-382.35
  0
LINE
  8
0
 10
-26.199
 11
-26.109
 20
-382.35
 21
-382.459
  0
LINE
  8
0
 10
-26.109
 11
-26.033
 20
-382.459
 21
-382.579
  0
LINE
  8
0
 10
-26.033
 11
-25.972
 20
-382.579
 21
-382.707
  0
LINE
  8
0
 10
-25.972
 11
-25.929
 20
-382.707
 21
-382.842
  0
LINE
  8
0
 10
-25.929
 11
-25.902
 20
-382.842
 21
-382.982
  0
LINE
  8
0
 10
-25.902
 11
-25.893
 20
-382.982
 21
-383.123
  0
LINE
  8
0
 10
-25.893
 11
-25.902
 20
-383.123
 21
-383.265
  0
LINE
  8
0
 10
-25.902
 11
-25.929
 20
-383.265
 21
-383.404
  0
LINE
  8
0
 10
-25.929
 11
-25.972
 20
-383.404
 21
-383.539
  0
LINE
  8
0
 10
-25.972
 11
-26.033
 20
-383.539
 21
-383.668
  0
LINE
  8
0
 10
-26.033
 11
-26.109
 20
-383.668
 21
-383.788
  0
LINE
  8
0
 10
-26.109
 11
-26.199
 20
-383.788
 21
-383.897
  0
LINE
  8
0
 10
-26.199
 11
-26.303
 20
-383.897
 21
-383.994
  0
LINE
  8
0
 10
-26.303
 11
-26.418
 20
-383.994
 21
-384.078
  0
LINE
  8
0
 10
-26.418
 11
-26.542
 20
-384.078
 21
-384.146
  0
LINE
  8
0
 10
-26.542
 11
-26.674
 20
-384.146
 21
-384.198
  0
LINE
  8
0
 10
-26.674
 11
-26.812
 20
-384.198
 21
-384.234
  0
LINE
  8
0
 10
-26.812
 11
-26.952
 20
-384.234
 21
-384.251
  0
LINE
  8
0
 10
-26.952
 11
-27.094
 20
-384.251
 21
-384.251
  0
LINE
  8
0
 10
-27.094
 11
-27.235
 20
-384.251
 21
-384.234
  0
LINE
  8
0
 10
-27.235
 11
-27.373
 20
-384.234
 21
-384.198
  0
LINE
  8
0
 10
-27.373
 11
-27.505
 20
-384.198
 21
-384.146
  0
LINE
  8
0
 10
-27.505
 11
-27.629
 20
-384.146
 21
-384.078
  0
LINE
  8
0
 10
-27.629
 11
-27.744
 20
-384.078
 21
-383.994
  0
LINE
  8
0
 10
-27.744
 11
-27.847
 20
-383.994
 21
-383.897
  0
LINE
  8
0
 10
-27.847
 11
-27.938
 20
-383.897
 21
-383.788
  0
LINE
  8
0
 10
-27.938
 11
-28.014
 20
-383.788
 21
-383.668
  0
LINE
  8
0
 10
-28.014
 11
-28.074
 20
-383.668
 21
-383.539
  0
LINE
  8
0
 10
-28.074
 11
-28.118
 20
-383.539
 21
-383.404
  0
LINE
  8
0
 10
-28.118
 11
-28.145
 20
-383.404
 21
-383.265
  0
LINE
  8
0
 10
-28.145
 11
-28.154
 20
-383.265
 21
-383.123
  0
LINE
  8
0
 10
-28.154
 11
-28.145
 20
-187.277
 21
-187.135
  0
LINE
  8
0
 10
-28.145
 11
-28.118
 20
-187.135
 21
-186.996
  0
LINE
  8
0
 10
-28.118
 11
-28.074
 20
-186.996
 21
-186.861
  0
LINE
  8
0
 10
-28.074
 11
-28.014
 20
-186.861
 21
-186.732
  0
LINE
  8
0
 10
-28.014
 11
-27.938
 20
-186.732
 21
-186.612
  0
LINE
  8
0
 10
-27.938
 11
-27.847
 20
-186.612
 21
-186.503
  0
LINE
  8
0
 10
-27.847
 11
-27.744
 20
-186.503
 21
-186.406
  0
LINE
  8
0
 10
-27.744
 11
-27.629
 20
-186.406
 21
-186.322
  0
LINE
  8
0
 10
-27.629
 11
-27.505
 20
-186.322
 21
-186.254
  0
LINE
  8
0
 10
-27.505
 11
-27.373
 20
-186.254
 21
-186.202
  0
LINE
  8
0
 10
-27.373
 11
-27.235
 20
-186.202
 21
-186.166
  0
LINE
  8
0
 10
-27.235
 11
-27.094
 20
-186.166
 21
-186.149
  0
LINE
  8
0
 10
-27.094
 11
-26.952
 20
-186.149
 21
-186.149
  0
LINE
  8
0
 10
-26.952
 11
-26.812
 20
-186.149
 21
-186.166
  0
LINE
  8
0
 10
-26.812
 11
-26.674
 20
-186.166
 21
-186.202
  0
LINE
  8
0
 10
-26.674
 11
-26.542
 20
-186.202
 21
-186.254
  0
LINE
  8
0
 10
-26.542
 11
-26.418
 20
-186.254
 21
-186.322
  0
LINE
  8
0
 10
-26.418
 11
-26.303
 20
-186.322
 21
-186.406
  0
LINE
  8
0
 10
-26.303
 11
-26.199
 20
-186.406
 21
-186.503
  0
LINE
  8
0
 10
-26.199
 11
-26.109
 20
-186.503
 21
-186.612
  0
LINE
  8
0
 10
-26.109
 11
-26.033
 20
-186.612
 21
-186.732
  0
LINE
  8
0
 10
-26.033
 11
-25.972
 20
-186.732
 21
-186.861
  0
LINE
  8
0
 10
-25.972
 11
-25.929
 20
-186.861
 21
-186.996
  0
LINE
  8
0
 10
-25.929
 11
-25.902
 20
-186.996
 21
-187.135
  0
LINE
  8
0
 10
-25.902
 11
-25.893
 20
-187.135
 21
-187.277
  0
LINE
  8
0
 10
-25.893
 11
-25.902
 20
-187.277
 21
-187.418
  0
LINE
  8
0
 10
-25.902
 11
-25.929
 20
-187.418
 21
-187.558
  0
LINE
  8
0
 10
-25.929
 11
-25.972
 20
-187.558
 21
-187.693
  0
LINE
  8
0
 10
-25.972
 11
-26.033
 20
-187.693
 21
-187.821
  0
LINE
  8
0
 10
-26.033
 11
-26.109
 20
-187.821
 21
-187.941
  0
LINE
  8
0
 10
-26.109
 11
-26.199
 20
-187.941
 21
-188.05
  0
LINE
  8
0
 10
-26.199
 11
-26.303
 20
-188.05
 21
-188.148
  0
LINE
  8
0
 10
-26.303
 11
-26.418
 20
-188.148
 21
-188.231
  0
LINE
  8
0
 10
-26.418
 11
-26.542
 20
-188.231
 21
-188.299
  0
LINE
  8
0
 10
-26.542
 11
-26.674
 20
-188.299
 21
-188.352
  0
LINE
  8
0
 10
-26.674
 11
-26.812
 20
-188.352
 21
-188.387
  0
LINE
  8
0
 10
-26.812
 11
-26.952
 20
-188.387
 21
-188.405
  0
LINE
  8
0
 10
-26.952
 11
-27.094
 20
-188.405
 21
-188.405
  0
LINE
  8
0
 10
-27.094
 11
-27.235
 20
-188.405
 21
-188.387
  0
LINE
  8
0
 10
-27.235
 11
-27.373
 20
-188.387
 21
-188.352
  0
LINE
  8
0
 10
-27.373
 11
-27.505
 20
-188.352
 21
-188.299
  0
LINE
  8
0
 10
-27.505
 11
-27.629
 20
-188.299
 21
-188.231
  0
LINE
  8
0
 10
-27.629
 11
-27.744
 20
-188.231
 21
-188.148
  0
LINE
  8
0
 10
-27.744
 11
-27.847
 20
-188.148
 21
-188.05
  0
LINE
  8
0
 10
-27.847
 11
-27.938
 20
-188.05
 21
-187.941
  0
LINE
  8
0
 10
-27.938
 11
-28.014
 20
-187.941
 21
-187.821
  0
LINE
  8
0
 10
-28.014
 11
-28.074
 20
-187.821
 21
-187.693
  0
LINE
  8
0
 10
-28.074
 11
-28.118
 20
-187.693
 21
-187.558
  0
LINE
  8
0
 10
-28.118
 11
-28.145
 20
-187.558
 21
-187.418
  0
LINE
  8
0
 10
-28.145
 11
-28.154
 20
-187.418
 21
-187.277
  0
LINE
  8
0
 10
-18.85
 11
-18.85
 20
-390.15
 21
-386.8
  0
LINE
  8
0
 10
-18.85
 11
-11.85
 20
-386.8
 21
-386.8
  0
LINE
  8
0
 10
-11.85
 11
-11.85
 20
-386.8
 21
-390.15
  0
LINE
  8
0
 10
-11.85
 11
-18.85
 20
-390.15
 21
-390.15
  0
LINE
  8
0
 10
-18.85
 11
-18.85
 20
-183.6
 21
-180.25
  0
LINE
  8
0
 10
-18.85
 11
-11.85
 20
-180.25
 21
-180.25
  0
LINE
  8
0
 10
-11.85
 11
-11.85
 20
-180.25
 21
-183.6
  0
LINE
  8
0
 10
-11.85
 11
-18.85
 20
-183.6
 21
-183.6
  0
LINE
  8
0
 10
11.85
 11
11.85
 20
-390.15
 21
-386.8
  0
LINE
  8
0
 10
11.85
 11
18.85
 20
-386.8
 21
-386.8
  0
LINE
  8
0
 10
18.85
 11
18.85
 20
-386.8
 21
-390.15
  0
LINE
  8
0
 10
18.85
 11
11.85
 20
-390.15
 21
-390.15
  0
LINE
  8
0
 10
11.85
 11
11.85
 20
-183.6
 21
-180.25
  0
LINE
  8
0
 10
11.85
 11
18.85
 20
-180.25
 21
-180.25
  0
LINE
  8
0
 10
18.85
 11
18.85
 20
-180.25
 21
-183.6
  0
LINE
  8
0
 10
18.85
 11
11.85
 20
-183.6
 21
-183.6
  0
LINE
  8
0
 10
25.893
 11
25.902
 20
-383.123
 21
-382.982
  0
LINE
  8
0
 10
25.902
 11
25.929
 20
-382.982
 21
-382.842
  0
LINE
  8
0
 10
25.929
 11
25.972
 20
-382.842
 21
-382.707
  0
LINE
  8
0
 10
25.972
 11
26.033
 20
-382.707
 21
-382.579
  0
LINE
  8
0
 10
26.033
 11
26.109
 20
-382.579
 21
-382.459
  0
LINE
  8
0
 10
26.109
 11
26.199
 20
-382.459
 21
-382.35
  0
LINE
  8
0
 10
26.199
 11
26.303
 20
-382.35
 21
-382.252
  0
LINE
  8
0
 10
26.303
 11
26.418
 20
-382.252
 21
-382.169
  0
LINE
  8
0
 10
26.418
 11
26.542
 20
-382.169
 21
-382.101
  0
LINE
  8
0
 10
26.542
 11
26.674
 20
-382.101
 21
-382.048
  0
LINE
  8
0
 10
26.674
 11
26.812
 20
-382.048
 21
-382.013
  0
LINE
  8
0
 10
26.812
 11
26.952
 20
-382.013
 21
-381.995
  0
LINE
  8
0
 10
26.952
 11
27.094
 20
-381.995
 21
-381.995
  0
LINE
  8
0
 10
27.094
 11
27.235
 20
-381.995
 21
-382.013
  0
LINE
  8
0
 10
27.235
 11
27.373
 20
-382.013
 21
-382.048
  0
LINE
  8
0
 10
27.373
 11
27.505
 20
-382.048
 21
-382.101
  0
LINE
  8
0
 10
27.505
 11
27.629
 20
-382.101
 21
-382.169
  0
LINE
  8
0
 10
27.629
 11
27.744
 20
-382.169
 21
-382.252
  0
LINE
  8
0
 10
27.744
 11
27.847
 20
-382.252
 21
-382.35
  0
LINE
  8
0
 10
27.847
 11
27.938
 20
-382.35
 21
-382.459
  0
LINE
  8
0
 10
27.938
 11
28.014
 20
-382.459
 21
-382.579
  0
LINE
  8
0
 10
28.014
 11
28.074
 20
-382.579
 21
-382.707
  0
LINE
  8
0
 10
28.074
 11
28.118
 20
-382.707
 21
-382.842
  0
LINE
  8
0
 10
28.118
 11
28.145
 20
-382.842
 21
-382.982
  0
LINE
  8
0
 10
28.145
 11
28.154
 20
-382.982
 21
-383.123
  0
LINE
  8
0
 10
28.154
 11
28.145
 20
-383.123
 21
-383.265
  0
LINE
  8
0
 10
28.145
 11
28.118
 20
-383.265
 21
-383.404
  0
LINE
  8
0
 10
28.118
 11
28.074
 20
-383.404
 21
-383.539
  0
LINE
  8
0
 10
28.074
 11
28.014
 20
-383.539
 21
-383.668
  0
LINE
  8
0
 10
28.014
 11
27.938
 20
-383.668
 21
-383.788
  0
LINE
  8
0
 10
27.938
 11
27.847
 20
-383.788
 21
-383.897
  0
LINE
  8
0
 10
27.847
 11
27.744
 20
-383.897
 21
-383.994
  0
LINE
  8
0
 10
27.744
 11
27.629
 20
-383.994
 21
-384.078
  0
LINE
  8
0
 10
27.629
 11
27.505
 20
-384.078
 21
-384.146
  0
LINE
  8
0
 10
27.505
 11
27.373
 20
-384.146
 21
-384.198
  0
LINE
  8
0
 10
27.373
 11
27.235
 20
-384.198
 21
-384.234
  0
LINE
  8
0
 10
27.235
 11
27.094
 20
-384.234
 21
-384.251
  0
LINE
  8
0
 10
27.094
 11
26.952
 20
-384.251
 21
-384.251
  0
LINE
  8
0
 10
26.952
 11
26.812
 20
-384.251
 21
-384.234
  0
LINE
  8
0
 10
26.812
 11
26.674
 20
-384.234
 21
-384.198
  0
LINE
  8
0
 10
26.674
 11
26.542
 20
-384.198
 21
-384.146
  0
LINE
  8
0
 10
26.542
 11
26.418
 20
-384.146
 21
-384.078
  0
LINE
  8
0
 10
26.418
 11
26.303
 20
-384.078
 21
-383.994
  0
LINE
  8
0
 10
26.303
 11
26.199
 20
-383.994
 21
-383.897
  0
LINE
  8
0
 10
26.199
 11
26.109
 20
-383.897
 21
-383.788
  0
LINE
  8
0
 10
26.109
 11
26.033
 20
-383.788
 21
-383.668
  0
LINE
  8
0
 10
26.033
 11
25.972
 20
-383.668
 21
-383.539
  0
LINE
  8
0
 10
25.972
 11
25.929
 20
-383.539
 21
-383.404
  0
LINE
  8
0
 10
25.929
 11
25.902
 20
-383.404
 21
-383.265
  0
LINE
  8
0
 10
25.902
 11
25.893
 20
-383.265
 21
-383.123
  0
LINE
  8
0
 10
25.893
 11
25.902
 20
-187.277
 21
-187.135
  0
LINE
  8
0
 10
25.902
 11
25.929
 20
-187.135
 21
-186.996
  0
LINE
  8
0
 10
25.929
 11
25.972
 20
-186.996
 21
-186.861
  0
LINE
  8
0
 10
25.972
 11
26.033
 20
-186.861
 21
-186.732
  0
LINE
  8
0
 10
26.033
 11
26.109
 20
-186.732
 21
-186.612
  0
LINE
  8
0
 10
26.109
 11
26.199
 20
-186.612
 21
-186.503
  0
LINE
  8
0
 10
26.199
 11
26.303
 20
-186.503
 21
-186.406
  0
LINE
  8
0
 10
26.303
 11
26.418
 20
-186.406
 21
-186.322
  0
LINE
  8
0
 10
26.418
 11
26.542
 20
-186.322
 21
-186.254
  0
LINE
  8
0
 10
26.542
 11
26.674
 20
-186.254
 21
-186.202
  0
LINE
  8
0
 10
26.674
 11
26.812
 20
-186.202
 21
-186.166
  0
LINE
  8
0
 10
26.812
 11
26.952
 20
-186.166
 21
-186.149
  0
LINE
  8
0
 10
26.952
 11
27.094
 20
-186.149
 21
-186.149
  0
LINE
  8
0
 10
27.094
 11
27.235
 20
-186.149
 21
-186.166
  0
LINE
  8
0
 10
27.235
 11
27.373
 20
-186.166
 21
-186.202
  0
LINE
  8
0
 10
27.373
 11
27.505
 20
-186.202
 21
-186.254
  0
LINE
  8
0
 10
27.505
 11
27.629
 20
-186.254
 21
-186.322
  0
LINE
  8
0
 10
27.629
 11
27.744
 20
-186.322
 21
-186.406
  0
LINE
  8
0
 10
27.744
 11
27.847
 20
-186.406
 21
-186.503
  0
LINE
  8
0
 10
27.847
 11
27.938
 20
-186.503
 21
-186.612
  0
LINE
  8
0
 10
27.938
 11
28.014
 20
-186.612
 21
-186.732
  0
LINE
  8
0
 10
28.014
 11
28.074
 20
-186.732
 21
-186.861
  0
LINE
  8
0
 10
28.074
 11
28.118
 20
-186.861
 21
-186.996
  0
LINE
  8
0
 10
28.118
 11
28.145
 20
-186.996
 21
-187.135
  0
LINE
  8
0
 10
28.145
 11
28.154
 20
-187.135
 21
-187.277
  0
LINE
  8
0
 10
28.154
 11
28.145
 20
-187.277
 21
-187.418
  0
LINE
  8
0
 10
28.145
 11
28.118
 20
-187.418
 21
-187.558
  0
LINE
  8
0
 10
28.118
 11
28.074
 20
-187.558
 21
-187.693
  0
LINE
  8
0
 10
28.074
 11
28.014
 20
-187.693
 21
-187.821
  0
LINE
  8
0
 10
28.014
 11
27.938
 20
-187.821
 21
-187.941
  0
LINE
  8
0
 10
27.938
 11
27.847
 20
-187.941
 21
-188.05
  0
LINE
  8
0
 10
27.847
 11
27.744
 20
-188.05
 21
-188.148
  0
LINE
  8
0
 10
27.744
 11
27.629
 20
-188.148
 21
-188.231
  0
LINE
  8
0
 10
27.629
 11
27.505
 20
-188.231
 21
-188.299
  0
LINE
  8
0
 10
27.505
 11
27.373
 20
-188.299
 21
-188.352
  0
LINE
  8
0
 10
27.373
 11
27.235
 20
-188.352
 21
-188.387
  0
LINE
  8
0
 10
27.235
 11
27.094
 20
-188.387
 21
-188.405
  0
LINE
  8
0
 10
27.094
 11
26.952
 20
-188.405
 21
-188.405
  0
LINE
  8
0
 10
26.952
 11
26.812
 20
-188.405
 21
-188.387
  0
LINE
  8
0
 10
26.812
 11
26.674
 20
-188.387
 21
-188.352
  0
LINE
  8
0
 10
26.674
 11
26.542
 20
-188.352
 21
-188.299
  0
LINE
  8
0
 10
26.542
 11
26.418
 20
-188.299
 21
-188.231
  0
LINE
  8
0
 10
26.418
 11
26.303
 20
-188.231
 21
-188.148
  0
LINE
  8
0
 10
26.303
 11
26.199
 20
-188.148
 21
-188.05
  0
LINE
  8
0
 10
26.199
 11
26.109
 20
-188.05
 21
-187.941
  0
LINE
  8
0
 10
26.109
 11
26.033
 20
-187.941
 21
-187.821
  0
LINE
  8
0
 10
26.033
 11
25.972
 20
-187.821
 21
-187.693
  0
LINE
  8
0
 10
25.972
 11
25.929
 20
-187.693
 21
-187.558
  0
LINE
  8
0
 10
25.929
 11
25.902
 20
-187.558
 21
-187.418
  0
LINE
  8
0
 10
25.902
 11
25.893
 20
-187.418
 21
-187.277
  0
LINE
  8
0
 10
27.146
 11
27.152
 20
-371.56
 21
-371.458
  0
LINE
  8
0
 10
27.152
 11
27.172
 20
-371.458
 21
-371.358
  0
LINE
  8
0
 10
27.172
 11
27.203
 20
-371.358
 21
-371.26
  0
LINE
  8
0
 10
27.203
 11
27.247
 20
-371.26
 21
-371.168
  0
LINE
  8
0
 10
27.247
 11
27.301
 20
-371.168
 21
-371.082
  0
LINE
  8
0
 10
27.301
 11
27.367
 20
-371.082
 21
-371.003
  0
LINE
  8
0
 10
27.367
 11
27.441
 20
-371.003
 21
-370.933
  0
LINE
  8
0
 10
27.441
 11
27.524
 20
-370.933
 21
-370.873
  0
LINE
  8
0
 10
27.524
 11
27.613
 20
-370.873
 21
-370.823
  0
LINE
  8
0
 10
27.613
 11
27.708
 20
-370.823
 21
-370.786
  0
LINE
  8
0
 10
27.708
 11
27.807
 20
-370.786
 21
-370.76
  0
LINE
  8
0
 10
27.807
 11
27.909
 20
-370.76
 21
-370.748
  0
LINE
  8
0
 10
27.909
 11
28.011
 20
-370.748
 21
-370.748
  0
LINE
  8
0
 10
28.011
 11
28.113
 20
-370.748
 21
-370.76
  0
LINE
  8
0
 10
28.113
 11
28.212
 20
-370.76
 21
-370.786
  0
LINE
  8
0
 10
28.212
 11
28.307
 20
-370.786
 21
-370.823
  0
LINE
  8
0
 10
28.307
 11
28.396
 20
-370.823
 21
-370.873
  0
LINE
  8
0
 10
28.396
 11
28.479
 20
-370.873
 21
-370.933
  0
LINE
  8
0
 10
28.479
 11
28.553
 20
-370.933
 21
-371.003
  0
LINE
  8
0
 10
28.553
 11
28.619
 20
-371.003
 21
-371.082
  0
LINE
  8
0
 10
28.619
 11
28.673
 20
-371.082
 21
-371.168
  0
LINE
  8
0
 10
28.673
 11
28.717
 20
-371.168
 21
-371.26
  0
LINE
  8
0
 10
28.717
 11
28.748
 20
-371.26
 21
-371.358
  0
LINE
  8
0
 10
28.748
 11
28.768
 20
-371.358
 21
-371.458
  0
LINE
  8
0
 10
28.768
 11
28.774
 20
-371.458
 21
-371.56
  0
LINE
  8
0
 10
28.774
 11
28.768
 20
-371.56
 21
-371.662
  0
LINE
  8
0
 10
28.768
 11
28.748
 20
-371.662
 21
-371.762
  0
LINE
  8
0
 10
28.748
 11
28.717
 20
-371.762
 21
-371.86
  0
LINE
  8
0
 10
28.717
 11
28.673
 20
-371.86
 21
-371.952
  0
LINE
  8
0
 10
28.673
 11
28.619
 20
-371.952
 21
-372.038
  0
LINE
  8
0
 10
28.619
 11
28.553
 20
-372.038
 21
-372.117
  0
LINE
  8
0
 10
28.553
 11
28.479
 20
-372.117
 21
-372.187
  0
LINE
  8
0
 10
28.479
 11
28.396
 20
-372.187
 21
-372.247
  0
LINE
  8
0
 10
28.396
 11
28.307
 20
-372.247
 21
-372.297
  0
LINE
  8
0
 10
28.307
 11
28.212
 20
-372.297
 21
-372.334
  0
LINE
  8
0
 10
28.212
 11
28.113
 20
-372.334
 21
-372.36
  0
LINE
  8
0
 10
28.113
 11
28.011
 20
-372.36
 21
-372.372
  0
LINE
  8
0
 10
28.011
 11
27.909
 20
-372.372
 21
-372.372
  0
LINE
  8
0
 10
27.909
 11
27.807
 20
-372.372
 21
-372.36
  0
LINE
  8
0
 10
27.807
 11
27.708
 20
-372.36
 21
-372.334
  0
LINE
  8
0
 10
27.708
 11
27.613
 20
-372.334
 21
-372.297
  0
LINE
  8
0
 10
27.613
 11
27.524
 20
-372.297
 21
-372.247
  0
LINE
  8
0
 10
27.524
 11
27.441
 20
-372.247
 21
-372.187
  0
LINE
  8
0
 10
27.441
 11
27.367
 20
-372.187
 21
-372.117
  0
LINE
  8
0
 10
27.367
 11
27.301
 20
-372.117
 21
-372.038
  0
LINE
  8
0
 10
27.301
 11
27.247
 20
-372.038
 21
-371.952
  0
LINE
  8
0
 10
27.247
 11
27.203
 20
-371.952
 21
-371.86
  0
LINE
  8
0
 10
27.203
 11
27.172
 20
-371.86
 21
-371.762
  0
LINE
  8
0
 10
27.172
 11
27.152
 20
-371.762
 21
-371.662
  0
LINE
  8
0
 10
27.152
 11
27.146
 20
-371.662
 21
-371.56
  0
LINE
  8
0
 10
27.146
 11
27.152
 20
-333.46
 21
-333.358
  0
LINE
  8
0
 10
27.152
 11
27.172
 20
-333.358
 21
-333.258
  0
LINE
  8
0
 10
27.172
 11
27.203
 20
-333.258
 21
-333.16
  0
LINE
  8
0
 10
27.203
 11
27.247
 20
-333.16
 21
-333.068
  0
LINE
  8
0
 10
27.247
 11
27.301
 20
-333.068
 21
-332.982
  0
LINE
  8
0
 10
27.301
 11
27.367
 20
-332.982
 21
-332.903
  0
LINE
  8
0
 10
27.367
 11
27.441
 20
-332.903
 21
-332.833
  0
LINE
  8
0
 10
27.441
 11
27.524
 20
-332.833
 21
-332.773
  0
LINE
  8
0
 10
27.524
 11
27.613
 20
-332.773
 21
-332.723
  0
LINE
  8
0
 10
27.613
 11
27.708
 20
-332.723
 21
-332.686
  0
LINE
  8
0
 10
27.708
 11
27.807
 20
-332.686
 21
-332.66
  0
LINE
  8
0
 10
27.807
 11
27.909
 20
-332.66
 21
-332.648
  0
LINE
  8
0
 10
27.909
 11
28.011
 20
-332.648
 21
-332.648
  0
LINE
  8
0
 10
28.011
 11
28.113
 20
-332.648
 21
-332.66
  0
LINE
  8
0
 10
28.113
 11
28.212
 20
-332.66
 21
-332.686
  0
LINE
  8
0
 10
28.212
 11
28.307
 20
-332.686
 21
-332.723
  0
LINE
  8
0
 10
28.307
 11
28.396
 20
-332.723
 21
-332.773
  0
LINE
  8
0
 10
28.396
 11
28.479
 20
-332.773
 21
-332.833
  0
LINE
  8
0
 10
28.479
 11
28.553
 20
-332.833
 21
-332.903
  0
LINE
  8
0
 10
28.553
 11
28.619
 20
-332.903
 21
-332.982
  0
LINE
  8
0
 10
28.619
 11
28.673
 20
-332.982
 21
-333.068
  0
LINE
  8
0
 10
28.673
 11
28.717
 20
-333.068
 21
-333.16
  0
LINE
  8
0
 10
28.717
 11
28.748
 20
-333.16
 21
-333.258
  0
LINE
  8
0
 10
28.748
 11
28.768
 20
-333.258
 21
-333.358
  0
LINE
  8
0
 10
28.768
 11
28.774
 20
-333.358
 21
-333.46
  0
LINE
  8
0
 10
28.774
 11
28.768
 20
-333.46
 21
-333.562
  0
LINE
  8
0
 10
28.768
 11
28.748
 20
-333.562
 21
-333.662
  0
LINE
  8
0
 10
28.748
 11
28.717
 20
-333.662
 21
-333.76
  0
LINE
  8
0
 10
28.717
 11
28.673
 20
-333.76
 21
-333.852
  0
LINE
  8
0
 10
28.673
 11
28.619
 20
-333.852
 21
-333.938
  0
LINE
  8
0
 10
28.619
 11
28.553
 20
-333.938
 21
-334.017
  0
LINE
  8
0
 10
28.553
 11
28.479
 20
-334.017
 21
-334.087
  0
LINE
  8
0
 10
28.479
 11
28.396
 20
-334.087
 21
-334.147
  0
LINE
  8
0
 10
28.396
 11
28.307
 20
-334.147
 21
-334.197
  0
LINE
  8
0
 10
28.307
 11
28.212
 20
-334.197
 21
-334.234
  0
LINE
  8
0
 10
28.212
 11
28.113
 20
-334.234
 21
-334.26
  0
LINE
  8
0
 10
28.113
 11
28.011
 20
-334.26
 21
-334.272
  0
LINE
  8
0
 10
28.011
 11
27.909
 20
-334.272
 21
-334.272
  0
LINE
  8
0
 10
27.909
 11
27.807
 20
-334.272
 21
-334.26
  0
LINE
  8
0
 10
27.807
 11
27.708
 20
-334.26
 21
-334.234
  0
LINE
  8
0
 10
27.708
 11
27.613
 20
-334.234
 21
-334.197
  0
LINE
  8
0
 10
27.613
 11
27.524
 20
-334.197
 21
-334.147
  0
LINE
  8
0
 10
27.524
 11
27.441
 20
-334.147
 21
-334.087
  0
LINE
  8
0
 10
27.441
 11
27.367
 20
-334.087
 21
-334.017
  0
LINE
  8
0
 10
27.367
 11
27.301
 20
-334.017
 21
-333.938
  0
LINE
  8
0
 10
27.301
 11
27.247
 20
-333.938
 21
-333.852
  0
LINE
  8
0
 10
27.247
 11
27.203
 20
-333.852
 21
-333.76
  0
LINE
  8
0
 10
27.203
 11
27.172
 20
-333.76
 21
-333.662
  0
LINE
  8
0
 10
27.172
 11
27.152
 20
-333.662
 21
-333.562
  0
LINE
  8
0
 10
27.152
 11
27.146
 20
-333.562
 21
-333.46
  0
LINE
  8
0
 10
27.146
 11
27.152
 20
-198.84
 21
-198.738
  0
LINE
  8
0
 10
27.152
 11
27.172
 20
-198.738
 21
-198.638
  0
LINE
  8
0
 10
27.172
 11
27.203
 20
-198.638
 21
-198.54
  0
LINE
  8
0
 10
27.203
 11
27.247
 20
-198.54
 21
-198.448
  0
LINE
  8
0
 10
27.247
 11
27.301
 20
-198.448
 21
-198.362
  0
LINE
  8
0
 10
27.301
 11
27.367
 20
-198.362
 21
-198.283
  0
LINE
  8
0
 10
27.367
 11
27.441
 20
-198.283
 21
-198.213
  0
LINE
  8
0
 10
27.441
 11
27.524
 20
-198.213
 21
-198.153
  0
LINE
  8
0
 10
27.524
 11
27.613
 20
-198.153
 21
-198.103
  0
LINE
  8
0
 10
27.613
 11
27.708
 20
-198.103
 21
-198.066
  0
LINE
  8
0
 10
27.708
 11
27.807
 20
-198.066
 21
-198.04
  0
LINE
  8
0
 10
27.807
 11
27.909
 20
-198.04
 21
-198.028
  0
LINE
  8
0
 10
27.909
 11
28.011
 20
-198.028
 21
-198.028
  0
LINE
  8
0
 10
28.011
 11
28.113
 20
-198.028
 21
-198.04
  0
LINE
  8
0
 10
28.113
 11
28.212
 20
-198.04
 21
-198.066
  0
LINE
  8
0
 10
28.212
 11
28.307
 20
-198.066
 21
-198.103
  0
LINE
  8
0
 10
28.307
 11
28.396
 20
-198.103
 21
-198.153
  0
LINE
  8
0
 10
28.396
 11
28.479
 20
-198.153
 21
-198.213
  0
LINE
  8
0
 10
28.479
 11
28.553
 20
-198.213
 21
-198.283
  0
LINE
  8
0
 10
28.553
 11
28.619
 20
-198.283
 21
-198.362
  0
LINE
  8
0
 10
28.619
 11
28.673
 20
-198.362
 21
-198.448
  0
LINE
  8
0
 10
28.673
 11
28.717
 20
-198.448
 21
-198.54
  0
LINE
  8
0
 10
28.717
 11
28.748
 20
-198.54
 21
-198.638
  0
LINE
  8
0
 10
28.748
 11
28.768
 20
-198.638
 21
-198.738
  0
LINE
  8
0
 10
28.768
 11
28.774
 20
-198.738
 21
-198.84
  0
LINE
  8
0
 10
28.774
 11
28.768
 20
-198.84
 21
-198.942
  0
LINE
  8
0
 10
28.768
 11
28.748
 20
-198.942
 21
-199.042
  0
LINE
  8
0
 10
28.748
 11
28.717
 20
-199.042
 21
-199.14
  0
LINE
  8
0
 10
28.717
 11
28.673
 20
-199.14
 21
-199.232
  0
LINE
  8
0
 10
28.673
 11
28.619
 20
-199.232
 21
-199.318
  0
LINE
  8
0
 10
28.619
 11
28.553
 20
-199.318
 21
-199.397
  0
LINE
  8
0
 10
28.553
 11
28.479
 20
-199.397
 21
-199.467
  0
LINE
  8
0
 10
28.479
 11
28.396
 20
-199.467
 21
-199.527
  0
LINE
  8
0
 10
28.396
 11
28.307
 20
-199.527
 21
-199.577
  0
LINE
  8
0
 10
28.307
 11
28.212
 20
-199.577
 21
-199.614
  0
LINE
  8
0
 10
28.212
 11
28.113
 20
-199.614
 21
-199.64
  0
LINE
  8
0
 10
28.113
 11
28.011
 20
-199.64
 21
-199.652
  0
LINE
  8
0
 10
28.011
 11
27.909
 20
-199.652
 21
-199.652
  0
LINE
  8
0
 10
27.909
 11
27.807
 20
-199.652
 21
-199.64
  0
LINE
  8
0
 10
27.807
 11
27.708
 20
-199.64
 21
-199.614
  0
LINE
  8
0
 10
27.708
 11
27.613
 20
-199.614
 21
-199.577
  0
LINE
  8
0
 10
27.613
 11
27.524
 20
-199.577
 21
-199.527
  0
LINE
  8
0
 10
27.524
 11
27.441
 20
-199.527
 21
-199.467
  0
LINE
  8
0
 10
27.441
 11
27.367
 20
-199.467
 21
-199.397
  0
LINE
  8
0
 10
27.367
 11
27.301
 20
-199.397
 21
-199.318
  0
LINE
  8
0
 10
27.301
 11
27.247
 20
-199.318
 21
-199.232
  0
LINE
  8
0
 10
27.247
 11
27.203
 20
-199.232
 21
-199.14
  0
LINE
  8
0
 10
27.203
 11
27.172
 20
-199.14
 21
-199.042
  0
LINE
  8
0
 10
27.172
 11
27.152
 20
-199.042
 21
-198.942
  0
LINE
  8
0
 10
27.152
 11
27.146
 20
-198.942
 21
-198.84
  0
LINE
  8
0
 10
30.7
 11
30.7
 20
-307.591
 21
-300.591
  0
LINE
  8
0
 10
30.7
 11
34.05
 20
-300.591
 21
-300.591
  0
LINE
  8
0
 10
34.05
 11
34.05
 20
-300.591
 21
-307.591
  0
LINE
  8
0
 10
34.05
 11
30.7
 20
-307.591
 21
-307.591
  0
LINE
  8
0
 10
30.7
 11
30.7
 20
-232.027
 21
-225.027
  0
LINE
  8
0
 10
30.7
 11
34.05
 20
-225.027
 21
-225.027
  0
LINE
  8
0
 10
34.05
 11
34.05
 20
-225.027
 21
-232.027
  0
LINE
  8
0
 10
34.05
 11
30.7
 20
-232.027
 21
-232.027
  0
ENDSEC
  0
SECTION
  2
OBJECTS
  0
DICTIONARY
  0
ENDSEC
  0
EOF
