  0
SECTION
  2
BLOCKS
  0
ENDSEC
  0
SECTION
  2
ENTITIES
  0
LINE
  8
0
 10
-35.55
 11
-35.55
 20
-388.65
 21
-178.75
  0
LINE
  8
0
 10
-35.55
 11
-35.538
 20
-178.75
 21
-178.562
  0
LINE
  8
0
 10
-35.538
 11
-35.503
 20
-178.562
 21
-178.377
  0
LINE
  8
0
 10
-35.503
 11
-35.445
 20
-178.377
 21
-178.198
  0
LINE
  8
0
 10
-35.445
 11
-35.364
 20
-178.198
 21
-178.027
  0
LINE
  8
0
 10
-35.364
 11
-35.264
 20
-178.027
 21
-177.868
  0
LINE
  8
0
 10
-35.264
 11
-35.143
 20
-177.868
 21
-177.723
  0
LINE
  8
0
 10
-35.143
 11
-35.006
 20
-177.723
 21
-177.594
  0
LINE
  8
0
 10
-35.006
 11
-34.854
 20
-177.594
 21
-177.484
  0
LINE
  8
0
 10
-34.854
 11
-34.689
 20
-177.484
 21
-177.393
  0
LINE
  8
0
 10
-34.689
 11
-34.514
 20
-177.393
 21
-177.323
  0
LINE
  8
0
 10
-34.514
 11
-34.331
 20
-177.323
 21
-177.277
  0
LINE
  8
0
 10
-34.331
 11
-34.144
 20
-177.277
 21
-177.253
  0
LINE
  8
0
 10
-34.144
 11
-34.05
 20
-177.253
 21
-177.253
  0
LINE
  8
0
 10
-34.05
 11
-34.05
 20
-177.253
 21
-177.25
  0
LINE
  8
0
 10
-34.05
 11
34.05
 20
-177.25
 21
-177.25
  0
LINE
  8
0
 10
34.05
 11
34.05
 20
-177.25
 21
-177.253
  0
LINE
  8
0
 10
34.05
 11
34.144
 20
-177.253
 21
-177.253
  0
LINE
  8
0
 10
34.144
 11
34.331
 20
-177.253
 21
-177.277
  0
LINE
  8
0
 10
34.331
 11
34.514
 20
-177.277
 21
-177.323
  0
LINE
  8
0
 10
34.514
 11
34.689
 20
-177.323
 21
-177.393
  0
LINE
  8
0
 10
34.689
 11
34.854
 20
-177.393
 21
-177.484
  0
LINE
  8
0
 10
34.854
 11
35.006
 20
-177.484
 21
-177.594
  0
LINE
  8
0
 10
35.006
 11
35.143
 20
-177.594
 21
-177.723
  0
LINE
  8
0
 10
35.143
 11
35.264
 20
-177.723
 21
-177.868
  0
LINE
  8
0
 10
35.264
 11
35.364
 20
-177.868
 21
-178.027
  0
LINE
  8
0
 10
35.364
 11
35.445
 20
-178.027
 21
-178.198
  0
LINE
  8
0
 10
35.445
 11
35.503
 20
-178.198
 21
-178.377
  0
LINE
  8
0
 10
35.503
 11
35.538
 20
-178.377
 21
-178.562
  0
LINE
  8
0
 10
35.538
 11
35.55
 20
-178.562
 21
-178.75
  0
LINE
  8
0
 10
35.55
 11
35.55
 20
-178.75
 21
-388.65
  0
LINE
  8
0
 10
35.55
 11
35.538
 20
-388.65
 21
-388.838
  0
LINE
  8
0
 10
35.538
 11
35.503
 20
-388.838
 21
-389.023
  0
LINE
  8
0
 10
35.503
 11
35.445
 20
-389.023
 21
-389.202
  0
LINE
  8
0
 10
35.445
 11
35.364
 20
-389.202
 21
-389.373
  0
LINE
  8
0
 10
35.364
 11
35.264
 20
-389.373
 21
-389.532
  0
LINE
  8
0
 10
35.264
 11
35.143
 20
-389.532
 21
-389.677
  0
LINE
  8
0
 10
35.143
 11
35.006
 20
-389.677
 21
-389.806
  0
LINE
  8
0
 10
35.006
 11
34.854
 20
-389.806
 21
-389.916
  0
LINE
  8
0
 10
34.854
 11
34.689
 20
-389.916
 21
-390.007
  0
LINE
  8
0
 10
34.689
 11
34.514
 20
-390.007
 21
-390.077
  0
LINE
  8
0
 10
34.514
 11
34.331
 20
-390.077
 21
-390.123
  0
LINE
  8
0
 10
34.331
 11
34.144
 20
-390.123
 21
-390.147
  0
LINE
  8
0
 10
34.144
 11
34.05
 20
-390.147
 21
-390.147
  0
LINE
  8
0
 10
34.05
 11
34.05
 20
-390.147
 21
-390.15
  0
LINE
  8
0
 10
34.05
 11
-34.05
 20
-390.15
 21
-390.15
  0
LINE
  8
0
 10
-34.05
 11
-34.05
 20
-390.15
 21
-390.147
  0
LINE
  8
0
 10
-34.05
 11
-34.144
 20
-390.147
 21
-390.147
  0
LINE
  8
0
 10
-34.144
 11
-34.331
 20
-390.147
 21
-390.123
  0
LINE
  8
0
 10
-34.331
 11
-34.514
 20
-390.123
 21
-390.077
  0
LINE
  8
0
 10
-34.514
 11
-34.689
 20
-390.077
 21
-390.007
  0
LINE
  8
0
 10
-34.689
 11
-34.854
 20
-390.007
 21
-389.916
  0
LINE
  8
0
 10
-34.854
 11
-35.006
 20
-389.916
 21
-389.806
  0
LINE
  8
0
 10
-35.006
 11
-35.143
 20
-389.806
 21
-389.677
  0
LINE
  8
0
 10
-35.143
 11
-35.264
 20
-389.677
 21
-389.532
  0
LINE
  8
0
 10
-35.264
 11
-35.364
 20
-389.532
 21
-389.373
  0
LINE
  8
0
 10
-35.364
 11
-35.445
 20
-389.373
 21
-389.202
  0
LINE
  8
0
 10
-35.445
 11
-35.503
 20
-389.202
 21
-389.023
  0
LINE
  8
0
 10
-35.503
 11
-35.538
 20
-389.023
 21
-388.838
  0
LINE
  8
0
 10
-35.538
 11
-35.55
 20
-388.838
 21
-388.65
  0
LINE
  8
0
 10
-34.05
 11
-34.05
 20
-306.091
 21
-299.091
  0
LINE
  8
0
 10
-34.05
 11
-30.7
 20
-299.091
 21
-299.091
  0
LINE
  8
0
 10
-30.7
 11
-30.7
 20
-299.091
 21
-306.091
  0
LINE
  8
0
 10
-30.7
 11
-34.05
 20
-306.091
 21
-306.091
  0
LINE
  8
0
 10
-34.05
 11
-34.05
 20
-230.527
 21
-223.527
  0
LINE
  8
0
 10
-34.05
 11
-30.7
 20
-223.527
 21
-223.527
  0
LINE
  8
0
 10
-30.7
 11
-30.7
 20
-223.527
 21
-230.527
  0
LINE
  8
0
 10
-30.7
 11
-34.05
 20
-230.527
 21
-230.527
  0
LINE
  8
0
 10
-28.774
 11
-28.768
 20
-370.06
 21
-369.958
  0
LINE
  8
0
 10
-28.768
 11
-28.748
 20
-369.958
 21
-369.858
  0
LINE
  8
0
 10
-28.748
 11
-28.717
 20
-369.858
 21
-369.76
  0
LINE
  8
0
 10
-28.717
 11
-28.673
 20
-369.76
 21
-369.668
  0
LINE
  8
0
 10
-28.673
 11
-28.619
 20
-369.668
 21
-369.582
  0
LINE
  8
0
 10
-28.619
 11
-28.553
 20
-369.582
 21
-369.503
  0
LINE
  8
0
 10
-28.553
 11
-28.479
 20
-369.503
 21
-369.433
  0
LINE
  8
0
 10
-28.479
 11
-28.396
 20
-369.433
 21
-369.373
  0
LINE
  8
0
 10
-28.396
 11
-28.307
 20
-369.373
 21
-369.323
  0
LINE
  8
0
 10
-28.307
 11
-28.212
 20
-369.323
 21
-369.286
  0
LINE
  8
0
 10
-28.212
 11
-28.113
 20
-369.286
 21
-369.26
  0
LINE
  8
0
 10
-28.113
 11
-28.011
 20
-369.26
 21
-369.248
  0
LINE
  8
0
 10
-28.011
 11
-27.909
 20
-369.248
 21
-369.248
  0
LINE
  8
0
 10
-27.909
 11
-27.807
 20
-369.248
 21
-369.26
  0
LINE
  8
0
 10
-27.807
 11
-27.708
 20
-369.26
 21
-369.286
  0
LINE
  8
0
 10
-27.708
 11
-27.613
 20
-369.286
 21
-369.323
  0
LINE
  8
0
 10
-27.613
 11
-27.524
 20
-369.323
 21
-369.373
  0
LINE
  8
0
 10
-27.524
 11
-27.441
 20
-369.373
 21
-369.433
  0
LINE
  8
0
 10
-27.441
 11
-27.367
 20
-369.433
 21
-369.503
  0
LINE
  8
0
 10
-27.367
 11
-27.301
 20
-369.503
 21
-369.582
  0
LINE
  8
0
 10
-27.301
 11
-27.247
 20
-369.582
 21
-369.668
  0
LINE
  8
0
 10
-27.247
 11
-27.203
 20
-369.668
 21
-369.76
  0
LINE
  8
0
 10
-27.203
 11
-27.172
 20
-369.76
 21
-369.858
  0
LINE
  8
0
 10
-27.172
 11
-27.152
 20
-369.858
 21
-369.958
  0
LINE
  8
0
 10
-27.152
 11
-27.146
 20
-369.958
 21
-370.06
  0
LINE
  8
0
 10
-27.146
 11
-27.152
 20
-370.06
 21
-370.162
  0
LINE
  8
0
 10
-27.152
 11
-27.172
 20
-370.162
 21
-370.262
  0
LINE
  8
0
 10
-27.172
 11
-27.203
 20
-370.262
 21
-370.36
  0
LINE
  8
0
 10
-27.203
 11
-27.247
 20
-370.36
 21
-370.452
  0
LINE
  8
0
 10
-27.247
 11
-27.301
 20
-370.452
 21
-370.538
  0
LINE
  8
0
 10
-27.301
 11
-27.367
 20
-370.538
 21
-370.617
  0
LINE
  8
0
 10
-27.367
 11
-27.441
 20
-370.617
 21
-370.687
  0
LINE
  8
0
 10
-27.441
 11
-27.524
 20
-370.687
 21
-370.747
  0
LINE
  8
0
 10
-27.524
 11
-27.613
 20
-370.747
 21
-370.797
  0
LINE
  8
0
 10
-27.613
 11
-27.708
 20
-370.797
 21
-370.834
  0
LINE
  8
0
 10
-27.708
 11
-27.807
 20
-370.834
 21
-370.86
  0
LINE
  8
0
 10
-27.807
 11
-27.909
 20
-370.86
 21
-370.872
  0
LINE
  8
0
 10
-27.909
 11
-28.011
 20
-370.872
 21
-370.872
  0
LINE
  8
0
 10
-28.011
 11
-28.113
 20
-370.872
 21
-370.86
  0
LINE
  8
0
 10
-28.113
 11
-28.212
 20
-370.86
 21
-370.834
  0
LINE
  8
0
 10
-28.212
 11
-28.307
 20
-370.834
 21
-370.797
  0
LINE
  8
0
 10
-28.307
 11
-28.396
 20
-370.797
 21
-370.747
  0
LINE
  8
0
 10
-28.396
 11
-28.479
 20
-370.747
 21
-370.687
  0
LINE
  8
0
 10
-28.479
 11
-28.553
 20
-370.687
 21
-370.617
  0
LINE
  8
0
 10
-28.553
 11
-28.619
 20
-370.617
 21
-370.538
  0
LINE
  8
0
 10
-28.619
 11
-28.673
 20
-370.538
 21
-370.452
  0
LINE
  8
0
 10
-28.673
 11
-28.717
 20
-370.452
 21
-370.36
  0
LINE
  8
0
 10
-28.717
 11
-28.748
 20
-370.36
 21
-370.262
  0
LINE
  8
0
 10
-28.748
 11
-28.768
 20
-370.262
 21
-370.162
  0
LINE
  8
0
 10
-28.768
 11
-28.774
 20
-370.162
 21
-370.06
  0
LINE
  8
0
 10
-28.774
 11
-28.768
 20
-331.96
 21
-331.858
  0
LINE
  8
0
 10
-28.768
 11
-28.748
 20
-331.858
 21
-331.758
  0
LINE
  8
0
 10
-28.748
 11
-28.717
 20
-331.758
 21
-331.66
  0
LINE
  8
0
 10
-28.717
 11
-28.673
 20
-331.66
 21
-331.568
  0
LINE
  8
0
 10
-28.673
 11
-28.619
 20
-331.568
 21
-331.482
  0
LINE
  8
0
 10
-28.619
 11
-28.553
 20
-331.482
 21
-331.403
  0
LINE
  8
0
 10
-28.553
 11
-28.479
 20
-331.403
 21
-331.333
  0
LINE
  8
0
 10
-28.479
 11
-28.396
 20
-331.333
 21
-331.273
  0
LINE
  8
0
 10
-28.396
 11
-28.307
 20
-331.273
 21
-331.223
  0
LINE
  8
0
 10
-28.307
 11
-28.212
 20
-331.223
 21
-331.186
  0
LINE
  8
0
 10
-28.212
 11
-28.113
 20
-331.186
 21
-331.16
  0
LINE
  8
0
 10
-28.113
 11
-28.011
 20
-331.16
 21
-331.148
  0
LINE
  8
0
 10
-28.011
 11
-27.909
 20
-331.148
 21
-331.148
  0
LINE
  8
0
 10
-27.909
 11
-27.807
 20
-331.148
 21
-331.16
  0
LINE
  8
0
 10
-27.807
 11
-27.708
 20
-331.16
 21
-331.186
  0
LINE
  8
0
 10
-27.708
 11
-27.613
 20
-331.186
 21
-331.223
  0
LINE
  8
0
 10
-27.613
 11
-27.524
 20
-331.223
 21
-331.273
  0
LINE
  8
0
 10
-27.524
 11
-27.441
 20
-331.273
 21
-331.333
  0
LINE
  8
0
 10
-27.441
 11
-27.367
 20
-331.333
 21
-331.403
  0
LINE
  8
0
 10
-27.367
 11
-27.301
 20
-331.403
 21
-331.482
  0
LINE
  8
0
 10
-27.301
 11
-27.247
 20
-331.482
 21
-331.568
  0
LINE
  8
0
 10
-27.247
 11
-27.203
 20
-331.568
 21
-331.66
  0
LINE
  8
0
 10
-27.203
 11
-27.172
 20
-331.66
 21
-331.758
  0
LINE
  8
0
 10
-27.172
 11
-27.152
 20
-331.758
 21
-331.858
  0
LINE
  8
0
 10
-27.152
 11
-27.146
 20
-331.858
 21
-331.96
  0
LINE
  8
0
 10
-27.146
 11
-27.152
 20
-331.96
 21
-332.062
  0
LINE
  8
0
 10
-27.152
 11
-27.172
 20
-332.062
 21
-332.162
  0
LINE
  8
0
 10
-27.172
 11
-27.203
 20
-332.162
 21
-332.26
  0
LINE
  8
0
 10
-27.203
 11
-27.247
 20
-332.26
 21
-332.352
  0
LINE
  8
0
 10
-27.247
 11
-27.301
 20
-332.352
 21
-332.438
  0
LINE
  8
0
 10
-27.301
 11
-27.367
 20
-332.438
 21
-332.517
  0
LINE
  8
0
 10
-27.367
 11
-27.441
 20
-332.517
 21
-332.587
  0
LINE
  8
0
 10
-27.441
 11
-27.524
 20
-332.587
 21
-332.647
  0
LINE
  8
0
 10
-27.524
 11
-27.613
 20
-332.647
 21
-332.697
  0
LINE
  8
0
 10
-27.613
 11
-27.708
 20
-332.697
 21
-332.734
  0
LINE
  8
0
 10
-27.708
 11
-27.807
 20
-332.734
 21
-332.76
  0
LINE
  8
0
 10
-27.807
 11
-27.909
 20
-332.76
 21
-332.772
  0
LINE
  8
0
 10
-27.909
 11
-28.011
 20
-332.772
 21
-332.772
  0
LINE
  8
0
 10
-28.011
 11
-28.113
 20
-332.772
 21
-332.76
  0
LINE
  8
0
 10
-28.113
 11
-28.212
 20
-332.76
 21
-332.734
  0
LINE
  8
0
 10
-28.212
 11
-28.307
 20
-332.734
 21
-332.697
  0
LINE
  8
0
 10
-28.307
 11
-28.396
 20
-332.697
 21
-332.647
  0
LINE
  8
0
 10
-28.396
 11
-28.479
 20
-332.647
 21
-332.587
  0
LINE
  8
0
 10
-28.479
 11
-28.553
 20
-332.587
 21
-332.517
  0
LINE
  8
0
 10
-28.553
 11
-28.619
 20
-332.517
 21
-332.438
  0
LINE
  8
0
 10
-28.619
 11
-28.673
 20
-332.438
 21
-332.352
  0
LINE
  8
0
 10
-28.673
 11
-28.717
 20
-332.352
 21
-332.26
  0
LINE
  8
0
 10
-28.717
 11
-28.748
 20
-332.26
 21
-332.162
  0
LINE
  8
0
 10
-28.748
 11
-28.768
 20
-332.162
 21
-332.062
  0
LINE
  8
0
 10
-28.768
 11
-28.774
 20
-332.062
 21
-331.96
  0
LINE
  8
0
 10
-28.774
 11
-28.768
 20
-197.34
 21
-197.238
  0
LINE
  8
0
 10
-28.768
 11
-28.748
 20
-197.238
 21
-197.138
  0
LINE
  8
0
 10
-28.748
 11
-28.717
 20
-197.138
 21
-197.04
  0
LINE
  8
0
 10
-28.717
 11
-28.673
 20
-197.04
 21
-196.948
  0
LINE
  8
0
 10
-28.673
 11
-28.619
 20
-196.948
 21
-196.862
  0
LINE
  8
0
 10
-28.619
 11
-28.553
 20
-196.862
 21
-196.783
  0
LINE
  8
0
 10
-28.553
 11
-28.479
 20
-196.783
 21
-196.713
  0
LINE
  8
0
 10
-28.479
 11
-28.396
 20
-196.713
 21
-196.653
  0
LINE
  8
0
 10
-28.396
 11
-28.307
 20
-196.653
 21
-196.603
  0
LINE
  8
0
 10
-28.307
 11
-28.212
 20
-196.603
 21
-196.566
  0
LINE
  8
0
 10
-28.212
 11
-28.113
 20
-196.566
 21
-196.54
  0
LINE
  8
0
 10
-28.113
 11
-28.011
 20
-196.54
 21
-196.528
  0
LINE
  8
0
 10
-28.011
 11
-27.909
 20
-196.528
 21
-196.528
  0
LINE
  8
0
 10
-27.909
 11
-27.807
 20
-196.528
 21
-196.54
  0
LINE
  8
0
 10
-27.807
 11
-27.708
 20
-196.54
 21
-196.566
  0
LINE
  8
0
 10
-27.708
 11
-27.613
 20
-196.566
 21
-196.603
  0
LINE
  8
0
 10
-27.613
 11
-27.524
 20
-196.603
 21
-196.653
  0
LINE
  8
0
 10
-27.524
 11
-27.441
 20
-196.653
 21
-196.713
  0
LINE
  8
0
 10
-27.441
 11
-27.367
 20
-196.713
 21
-196.783
  0
LINE
  8
0
 10
-27.367
 11
-27.301
 20
-196.783
 21
-196.862
  0
LINE
  8
0
 10
-27.301
 11
-27.247
 20
-196.862
 21
-196.948
  0
LINE
  8
0
 10
-27.247
 11
-27.203
 20
-196.948
 21
-197.04
  0
LINE
  8
0
 10
-27.203
 11
-27.172
 20
-197.04
 21
-197.138
  0
LINE
  8
0
 10
-27.172
 11
-27.152
 20
-197.138
 21
-197.238
  0
LINE
  8
0
 10
-27.152
 11
-27.146
 20
-197.238
 21
-197.34
  0
LINE
  8
0
 10
-27.146
 11
-27.152
 20
-197.34
 21
-197.442
  0
LINE
  8
0
 10
-27.152
 11
-27.172
 20
-197.442
 21
-197.542
  0
LINE
  8
0
 10
-27.172
 11
-27.203
 20
-197.542
 21
-197.64
  0
LINE
  8
0
 10
-27.203
 11
-27.247
 20
-197.64
 21
-197.732
  0
LINE
  8
0
 10
-27.247
 11
-27.301
 20
-197.732
 21
-197.818
  0
LINE
  8
0
 10
-27.301
 11
-27.367
 20
-197.818
 21
-197.897
  0
LINE
  8
0
 10
-27.367
 11
-27.441
 20
-197.897
 21
-197.967
  0
LINE
  8
0
 10
-27.441
 11
-27.524
 20
-197.967
 21
-198.027
  0
LINE
  8
0
 10
-27.524
 11
-27.613
 20
-198.027
 21
-198.077
  0
LINE
  8
0
 10
-27.613
 11
-27.708
 20
-198.077
 21
-198.114
  0
LINE
  8
0
 10
-27.708
 11
-27.807
 20
-198.114
 21
-198.14
  0
LINE
  8
0
 10
-27.807
 11
-27.909
 20
-198.14
 21
-198.152
  0
LINE
  8
0
 10
-27.909
 11
-28.011
 20
-198.152
 21
-198.152
  0
LINE
  8
0
 10
-28.011
 11
-28.113
 20
-198.152
 21
-198.14
  0
LINE
  8
0
 10
-28.113
 11
-28.212
 20
-198.14
 21
-198.114
  0
LINE
  8
0
 10
-28.212
 11
-28.307
 20
-198.114
 21
-198.077
  0
LINE
  8
0
 10
-28.307
 11
-28.396
 20
-198.077
 21
-198.027
  0
LINE
  8
0
 10
-28.396
 11
-28.479
 20
-198.027
 21
-197.967
  0
LINE
  8
0
 10
-28.479
 11
-28.553
 20
-197.967
 21
-197.897
  0
LINE
  8
0
 10
-28.553
 11
-28.619
 20
-197.897
 21
-197.818
  0
LINE
  8
0
 10
-28.619
 11
-28.673
 20
-197.818
 21
-197.732
  0
LINE
  8
0
 10
-28.673
 11
-28.717
 20
-197.732
 21
-197.64
  0
LINE
  8
0
 10
-28.717
 11
-28.748
 20
-197.64
 21
-197.542
  0
LINE
  8
0
 10
-28.748
 11
-28.768
 20
-197.542
 21
-197.442
  0
LINE
  8
0
 10
-28.768
 11
-28.774
 20
-197.442
 21
-197.34
  0
LINE
  8
0
 10
-28.154
 11
-28.145
 20
-381.623
 21
-381.482
  0
LINE
  8
0
 10
-28.145
 11
-28.118
 20
-381.482
 21
-381.342
  0
LINE
  8
0
 10
-28.118
 11
-28.074
 20
-381.342
 21
-381.207
  0
LINE
  8
0
 10
-28.074
 11
-28.014
 20
-381.207
 21
-381.079
  0
LINE
  8
0
 10
-28.014
 11
-27.938
 20
-381.079
 21
-380.959
  0
LINE
  8
0
 10
-27.938
 11
-27.847
 20
-380.959
 21
-380.85
  0
LINE
  8
0
 10
-27.847
 11
-27.744
 20
-380.85
 21
-380.752
  0
LINE
  8
0
 10
-27.744
 11
-27.629
 20
-380.752
 21
-380.669
  0
LINE
  8
0
 10
-27.629
 11
-27.505
 20
-380.669
 21
-380.601
  0
LINE
  8
0
 10
-27.505
 11
-27.373
 20
-380.601
 21
-380.548
  0
LINE
  8
0
 10
-27.373
 11
-27.235
 20
-380.548
 21
-380.513
  0
LINE
  8
0
 10
-27.235
 11
-27.094
 20
-380.513
 21
-380.495
  0
LINE
  8
0
 10
-27.094
 11
-26.952
 20
-380.495
 21
-380.495
  0
LINE
  8
0
 10
-26.952
 11
-26.812
 20
-380.495
 21
-380.513
  0
LINE
  8
0
 10
-26.812
 11
-26.674
 20
-380.513
 21
-380.548
  0
LINE
  8
0
 10
-26.674
 11
-26.542
 20
-380.548
 21
-380.601
  0
LINE
  8
0
 10
-26.542
 11
-26.418
 20
-380.601
 21
-380.669
  0
LINE
  8
0
 10
-26.418
 11
-26.303
 20
-380.669
 21
-380.752
  0
LINE
  8
0
 10
-26.303
 11
-26.199
 20
-380.752
 21
-380.85
  0
LINE
  8
0
 10
-26.199
 11
-26.109
 20
-380.85
 21
-380.959
  0
LINE
  8
0
 10
-26.109
 11
-26.033
 20
-380.959
 21
-381.079
  0
LINE
  8
0
 10
-26.033
 11
-25.972
 20
-381.079
 21
-381.207
  0
LINE
  8
0
 10
-25.972
 11
-25.929
 20
-381.207
 21
-381.342
  0
LINE
  8
0
 10
-25.929
 11
-25.902
 20
-381.342
 21
-381.482
  0
LINE
  8
0
 10
-25.902
 11
-25.893
 20
-381.482
 21
-381.623
  0
LINE
  8
0
 10
-25.893
 11
-25.902
 20
-381.623
 21
-381.765
  0
LINE
  8
0
 10
-25.902
 11
-25.929
 20
-381.765
 21
-381.904
  0
LINE
  8
0
 10
-25.929
 11
-25.972
 20
-381.904
 21
-382.039
  0
LINE
  8
0
 10
-25.972
 11
-26.033
 20
-382.039
 21
-382.168
  0
LINE
  8
0
 10
-26.033
 11
-26.109
 20
-382.168
 21
-382.288
  0
LINE
  8
0
 10
-26.109
 11
-26.199
 20
-382.288
 21
-382.397
  0
LINE
  8
0
 10
-26.199
 11
-26.303
 20
-382.397
 21
-382.494
  0
LINE
  8
0
 10
-26.303
 11
-26.418
 20
-382.494
 21
-382.578
  0
LINE
  8
0
 10
-26.418
 11
-26.542
 20
-382.578
 21
-382.646
  0
LINE
  8
0
 10
-26.542
 11
-26.674
 20
-382.646
 21
-382.698
  0
LINE
  8
0
 10
-26.674
 11
-26.812
 20
-382.698
 21
-382.734
  0
LINE
  8
0
 10
-26.812
 11
-26.952
 20
-382.734
 21
-382.751
  0
LINE
  8
0
 10
-26.952
 11
-27.094
 20
-382.751
 21
-382.751
  0
LINE
  8
0
 10
-27.094
 11
-27.235
 20
-382.751
 21
-382.734
  0
LINE
  8
0
 10
-27.235
 11
-27.373
 20
-382.734
 21
-382.698
  0
LINE
  8
0
 10
-27.373
 11
-27.505
 20
-382.698
 21
-382.646
  0
LINE
  8
0
 10
-27.505
 11
-27.629
 20
-382.646
 21
-382.578
  0
LINE
  8
0
 10
-27.629
 11
-27.744
 20
-382.578
 21
-382.494
  0
LINE
  8
0
 10
-27.744
 11
-27.847
 20
-382.494
 21
-382.397
  0
LINE
  8
0
 10
-27.847
 11
-27.938
 20
-382.397
 21
-382.288
  0
LINE
  8
0
 10
-27.938
 11
-28.014
 20
-382.288
 21
-382.168
  0
LINE
  8
0
 10
-28.014
 11
-28.074
 20
-382.168
 21
-382.039
  0
LINE
  8
0
 10
-28.074
 11
-28.118
 20
-382.039
 21
-381.904
  0
LINE
  8
0
 10
-28.118
 11
-28.145
 20
-381.904
 21
-381.765
  0
LINE
  8
0
 10
-28.145
 11
-28.154
 20
-381.765
 21
-381.623
  0
LINE
  8
0
 10
-28.154
 11
-28.145
 20
-185.777
 21
-185.635
  0
LINE
  8
0
 10
-28.145
 11
-28.118
 20
-185.635
 21
-185.496
  0
LINE
  8
0
 10
-28.118
 11
-28.074
 20
-185.496
 21
-185.361
  0
LINE
  8
0
 10
-28.074
 11
-28.014
 20
-185.361
 21
-185.232
  0
LINE
  8
0
 10
-28.014
 11
-27.938
 20
-185.232
 21
-185.112
  0
LINE
  8
0
 10
-27.938
 11
-27.847
 20
-185.112
 21
-185.003
  0
LINE
  8
0
 10
-27.847
 11
-27.744
 20
-185.003
 21
-184.906
  0
LINE
  8
0
 10
-27.744
 11
-27.629
 20
-184.906
 21
-184.822
  0
LINE
  8
0
 10
-27.629
 11
-27.505
 20
-184.822
 21
-184.754
  0
LINE
  8
0
 10
-27.505
 11
-27.373
 20
-184.754
 21
-184.702
  0
LINE
  8
0
 10
-27.373
 11
-27.235
 20
-184.702
 21
-184.666
  0
LINE
  8
0
 10
-27.235
 11
-27.094
 20
-184.666
 21
-184.649
  0
LINE
  8
0
 10
-27.094
 11
-26.952
 20
-184.649
 21
-184.649
  0
LINE
  8
0
 10
-26.952
 11
-26.812
 20
-184.649
 21
-184.666
  0
LINE
  8
0
 10
-26.812
 11
-26.674
 20
-184.666
 21
-184.702
  0
LINE
  8
0
 10
-26.674
 11
-26.542
 20
-184.702
 21
-184.754
  0
LINE
  8
0
 10
-26.542
 11
-26.418
 20
-184.754
 21
-184.822
  0
LINE
  8
0
 10
-26.418
 11
-26.303
 20
-184.822
 21
-184.906
  0
LINE
  8
0
 10
-26.303
 11
-26.199
 20
-184.906
 21
-185.003
  0
LINE
  8
0
 10
-26.199
 11
-26.109
 20
-185.003
 21
-185.112
  0
LINE
  8
0
 10
-26.109
 11
-26.033
 20
-185.112
 21
-185.232
  0
LINE
  8
0
 10
-26.033
 11
-25.972
 20
-185.232
 21
-185.361
  0
LINE
  8
0
 10
-25.972
 11
-25.929
 20
-185.361
 21
-185.496
  0
LINE
  8
0
 10
-25.929
 11
-25.902
 20
-185.496
 21
-185.635
  0
LINE
  8
0
 10
-25.902
 11
-25.893
 20
-185.635
 21
-185.777
  0
LINE
  8
0
 10
-25.893
 11
-25.902
 20
-185.777
 21
-185.918
  0
LINE
  8
0
 10
-25.902
 11
-25.929
 20
-185.918
 21
-186.058
  0
LINE
  8
0
 10
-25.929
 11
-25.972
 20
-186.058
 21
-186.193
  0
LINE
  8
0
 10
-25.972
 11
-26.033
 20
-186.193
 21
-186.321
  0
LINE
  8
0
 10
-26.033
 11
-26.109
 20
-186.321
 21
-186.441
  0
LINE
  8
0
 10
-26.109
 11
-26.199
 20
-186.441
 21
-186.55
  0
LINE
  8
0
 10
-26.199
 11
-26.303
 20
-186.55
 21
-186.648
  0
LINE
  8
0
 10
-26.303
 11
-26.418
 20
-186.648
 21
-186.731
  0
LINE
  8
0
 10
-26.418
 11
-26.542
 20
-186.731
 21
-186.799
  0
LINE
  8
0
 10
-26.542
 11
-26.674
 20
-186.799
 21
-186.852
  0
LINE
  8
0
 10
-26.674
 11
-26.812
 20
-186.852
 21
-186.887
  0
LINE
  8
0
 10
-26.812
 11
-26.952
 20
-186.887
 21
-186.905
  0
LINE
  8
0
 10
-26.952
 11
-27.094
 20
-186.905
 21
-186.905
  0
LINE
  8
0
 10
-27.094
 11
-27.235
 20
-186.905
 21
-186.887
  0
LINE
  8
0
 10
-27.235
 11
-27.373
 20
-186.887
 21
-186.852
  0
LINE
  8
0
 10
-27.373
 11
-27.505
 20
-186.852
 21
-186.799
  0
LINE
  8
0
 10
-27.505
 11
-27.629
 20
-186.799
 21
-186.731
  0
LINE
  8
0
 10
-27.629
 11
-27.744
 20
-186.731
 21
-186.648
  0
LINE
  8
0
 10
-27.744
 11
-27.847
 20
-186.648
 21
-186.55
  0
LINE
  8
0
 10
-27.847
 11
-27.938
 20
-186.55
 21
-186.441
  0
LINE
  8
0
 10
-27.938
 11
-28.014
 20
-186.441
 21
-186.321
  0
LINE
  8
0
 10
-28.014
 11
-28.074
 20
-186.321
 21
-186.193
  0
LINE
  8
0
 10
-28.074
 11
-28.118
 20
-186.193
 21
-186.058
  0
LINE
  8
0
 10
-28.118
 11
-28.145
 20
-186.058
 21
-185.918
  0
LINE
  8
0
 10
-28.145
 11
-28.154
 20
-185.918
 21
-185.777
  0
LINE
  8
0
 10
-18.85
 11
-18.85
 20
-388.65
 21
-385.3
  0
LINE
  8
0
 10
-18.85
 11
-11.85
 20
-385.3
 21
-385.3
  0
LINE
  8
0
 10
-11.85
 11
-11.85
 20
-385.3
 21
-388.65
  0
LINE
  8
0
 10
-11.85
 11
-18.85
 20
-388.65
 21
-388.65
  0
LINE
  8
0
 10
-18.85
 11
-18.85
 20
-182.1
 21
-178.75
  0
LINE
  8
0
 10
-18.85
 11
-11.85
 20
-178.75
 21
-178.75
  0
LINE
  8
0
 10
-11.85
 11
-11.85
 20
-178.75
 21
-182.1
  0
LINE
  8
0
 10
-11.85
 11
-18.85
 20
-182.1
 21
-182.1
  0
LINE
  8
0
 10
11.85
 11
11.85
 20
-388.65
 21
-385.3
  0
LINE
  8
0
 10
11.85
 11
18.85
 20
-385.3
 21
-385.3
  0
LINE
  8
0
 10
18.85
 11
18.85
 20
-385.3
 21
-388.65
  0
LINE
  8
0
 10
18.85
 11
11.85
 20
-388.65
 21
-388.65
  0
LINE
  8
0
 10
11.85
 11
11.85
 20
-182.1
 21
-178.75
  0
LINE
  8
0
 10
11.85
 11
18.85
 20
-178.75
 21
-178.75
  0
LINE
  8
0
 10
18.85
 11
18.85
 20
-178.75
 21
-182.1
  0
LINE
  8
0
 10
18.85
 11
11.85
 20
-182.1
 21
-182.1
  0
LINE
  8
0
 10
25.893
 11
25.902
 20
-381.623
 21
-381.482
  0
LINE
  8
0
 10
25.902
 11
25.929
 20
-381.482
 21
-381.342
  0
LINE
  8
0
 10
25.929
 11
25.972
 20
-381.342
 21
-381.207
  0
LINE
  8
0
 10
25.972
 11
26.033
 20
-381.207
 21
-381.079
  0
LINE
  8
0
 10
26.033
 11
26.109
 20
-381.079
 21
-380.959
  0
LINE
  8
0
 10
26.109
 11
26.199
 20
-380.959
 21
-380.85
  0
LINE
  8
0
 10
26.199
 11
26.303
 20
-380.85
 21
-380.752
  0
LINE
  8
0
 10
26.303
 11
26.418
 20
-380.752
 21
-380.669
  0
LINE
  8
0
 10
26.418
 11
26.542
 20
-380.669
 21
-380.601
  0
LINE
  8
0
 10
26.542
 11
26.674
 20
-380.601
 21
-380.548
  0
LINE
  8
0
 10
26.674
 11
26.812
 20
-380.548
 21
-380.513
  0
LINE
  8
0
 10
26.812
 11
26.952
 20
-380.513
 21
-380.495
  0
LINE
  8
0
 10
26.952
 11
27.094
 20
-380.495
 21
-380.495
  0
LINE
  8
0
 10
27.094
 11
27.235
 20
-380.495
 21
-380.513
  0
LINE
  8
0
 10
27.235
 11
27.373
 20
-380.513
 21
-380.548
  0
LINE
  8
0
 10
27.373
 11
27.505
 20
-380.548
 21
-380.601
  0
LINE
  8
0
 10
27.505
 11
27.629
 20
-380.601
 21
-380.669
  0
LINE
  8
0
 10
27.629
 11
27.744
 20
-380.669
 21
-380.752
  0
LINE
  8
0
 10
27.744
 11
27.847
 20
-380.752
 21
-380.85
  0
LINE
  8
0
 10
27.847
 11
27.938
 20
-380.85
 21
-380.959
  0
LINE
  8
0
 10
27.938
 11
28.014
 20
-380.959
 21
-381.079
  0
LINE
  8
0
 10
28.014
 11
28.074
 20
-381.079
 21
-381.207
  0
LINE
  8
0
 10
28.074
 11
28.118
 20
-381.207
 21
-381.342
  0
LINE
  8
0
 10
28.118
 11
28.145
 20
-381.342
 21
-381.482
  0
LINE
  8
0
 10
28.145
 11
28.154
 20
-381.482
 21
-381.623
  0
LINE
  8
0
 10
28.154
 11
28.145
 20
-381.623
 21
-381.765
  0
LINE
  8
0
 10
28.145
 11
28.118
 20
-381.765
 21
-381.904
  0
LINE
  8
0
 10
28.118
 11
28.074
 20
-381.904
 21
-382.039
  0
LINE
  8
0
 10
28.074
 11
28.014
 20
-382.039
 21
-382.168
  0
LINE
  8
0
 10
28.014
 11
27.938
 20
-382.168
 21
-382.288
  0
LINE
  8
0
 10
27.938
 11
27.847
 20
-382.288
 21
-382.397
  0
LINE
  8
0
 10
27.847
 11
27.744
 20
-382.397
 21
-382.494
  0
LINE
  8
0
 10
27.744
 11
27.629
 20
-382.494
 21
-382.578
  0
LINE
  8
0
 10
27.629
 11
27.505
 20
-382.578
 21
-382.646
  0
LINE
  8
0
 10
27.505
 11
27.373
 20
-382.646
 21
-382.698
  0
LINE
  8
0
 10
27.373
 11
27.235
 20
-382.698
 21
-382.734
  0
LINE
  8
0
 10
27.235
 11
27.094
 20
-382.734
 21
-382.751
  0
LINE
  8
0
 10
27.094
 11
26.952
 20
-382.751
 21
-382.751
  0
LINE
  8
0
 10
26.952
 11
26.812
 20
-382.751
 21
-382.734
  0
LINE
  8
0
 10
26.812
 11
26.674
 20
-382.734
 21
-382.698
  0
LINE
  8
0
 10
26.674
 11
26.542
 20
-382.698
 21
-382.646
  0
LINE
  8
0
 10
26.542
 11
26.418
 20
-382.646
 21
-382.578
  0
LINE
  8
0
 10
26.418
 11
26.303
 20
-382.578
 21
-382.494
  0
LINE
  8
0
 10
26.303
 11
26.199
 20
-382.494
 21
-382.397
  0
LINE
  8
0
 10
26.199
 11
26.109
 20
-382.397
 21
-382.288
  0
LINE
  8
0
 10
26.109
 11
26.033
 20
-382.288
 21
-382.168
  0
LINE
  8
0
 10
26.033
 11
25.972
 20
-382.168
 21
-382.039
  0
LINE
  8
0
 10
25.972
 11
25.929
 20
-382.039
 21
-381.904
  0
LINE
  8
0
 10
25.929
 11
25.902
 20
-381.904
 21
-381.765
  0
LINE
  8
0
 10
25.902
 11
25.893
 20
-381.765
 21
-381.623
  0
LINE
  8
0
 10
25.893
 11
25.902
 20
-185.777
 21
-185.635
  0
LINE
  8
0
 10
25.902
 11
25.929
 20
-185.635
 21
-185.496
  0
LINE
  8
0
 10
25.929
 11
25.972
 20
-185.496
 21
-185.361
  0
LINE
  8
0
 10
25.972
 11
26.033
 20
-185.361
 21
-185.232
  0
LINE
  8
0
 10
26.033
 11
26.109
 20
-185.232
 21
-185.112
  0
LINE
  8
0
 10
26.109
 11
26.199
 20
-185.112
 21
-185.003
  0
LINE
  8
0
 10
26.199
 11
26.303
 20
-185.003
 21
-184.906
  0
LINE
  8
0
 10
26.303
 11
26.418
 20
-184.906
 21
-184.822
  0
LINE
  8
0
 10
26.418
 11
26.542
 20
-184.822
 21
-184.754
  0
LINE
  8
0
 10
26.542
 11
26.674
 20
-184.754
 21
-184.702
  0
LINE
  8
0
 10
26.674
 11
26.812
 20
-184.702
 21
-184.666
  0
LINE
  8
0
 10
26.812
 11
26.952
 20
-184.666
 21
-184.649
  0
LINE
  8
0
 10
26.952
 11
27.094
 20
-184.649
 21
-184.649
  0
LINE
  8
0
 10
27.094
 11
27.235
 20
-184.649
 21
-184.666
  0
LINE
  8
0
 10
27.235
 11
27.373
 20
-184.666
 21
-184.702
  0
LINE
  8
0
 10
27.373
 11
27.505
 20
-184.702
 21
-184.754
  0
LINE
  8
0
 10
27.505
 11
27.629
 20
-184.754
 21
-184.822
  0
LINE
  8
0
 10
27.629
 11
27.744
 20
-184.822
 21
-184.906
  0
LINE
  8
0
 10
27.744
 11
27.847
 20
-184.906
 21
-185.003
  0
LINE
  8
0
 10
27.847
 11
27.938
 20
-185.003
 21
-185.112
  0
LINE
  8
0
 10
27.938
 11
28.014
 20
-185.112
 21
-185.232
  0
LINE
  8
0
 10
28.014
 11
28.074
 20
-185.232
 21
-185.361
  0
LINE
  8
0
 10
28.074
 11
28.118
 20
-185.361
 21
-185.496
  0
LINE
  8
0
 10
28.118
 11
28.145
 20
-185.496
 21
-185.635
  0
LINE
  8
0
 10
28.145
 11
28.154
 20
-185.635
 21
-185.777
  0
LINE
  8
0
 10
28.154
 11
28.145
 20
-185.777
 21
-185.918
  0
LINE
  8
0
 10
28.145
 11
28.118
 20
-185.918
 21
-186.058
  0
LINE
  8
0
 10
28.118
 11
28.074
 20
-186.058
 21
-186.193
  0
LINE
  8
0
 10
28.074
 11
28.014
 20
-186.193
 21
-186.321
  0
LINE
  8
0
 10
28.014
 11
27.938
 20
-186.321
 21
-186.441
  0
LINE
  8
0
 10
27.938
 11
27.847
 20
-186.441
 21
-186.55
  0
LINE
  8
0
 10
27.847
 11
27.744
 20
-186.55
 21
-186.648
  0
LINE
  8
0
 10
27.744
 11
27.629
 20
-186.648
 21
-186.731
  0
LINE
  8
0
 10
27.629
 11
27.505
 20
-186.731
 21
-186.799
  0
LINE
  8
0
 10
27.505
 11
27.373
 20
-186.799
 21
-186.852
  0
LINE
  8
0
 10
27.373
 11
27.235
 20
-186.852
 21
-186.887
  0
LINE
  8
0
 10
27.235
 11
27.094
 20
-186.887
 21
-186.905
  0
LINE
  8
0
 10
27.094
 11
26.952
 20
-186.905
 21
-186.905
  0
LINE
  8
0
 10
26.952
 11
26.812
 20
-186.905
 21
-186.887
  0
LINE
  8
0
 10
26.812
 11
26.674
 20
-186.887
 21
-186.852
  0
LINE
  8
0
 10
26.674
 11
26.542
 20
-186.852
 21
-186.799
  0
LINE
  8
0
 10
26.542
 11
26.418
 20
-186.799
 21
-186.731
  0
LINE
  8
0
 10
26.418
 11
26.303
 20
-186.731
 21
-186.648
  0
LINE
  8
0
 10
26.303
 11
26.199
 20
-186.648
 21
-186.55
  0
LINE
  8
0
 10
26.199
 11
26.109
 20
-186.55
 21
-186.441
  0
LINE
  8
0
 10
26.109
 11
26.033
 20
-186.441
 21
-186.321
  0
LINE
  8
0
 10
26.033
 11
25.972
 20
-186.321
 21
-186.193
  0
LINE
  8
0
 10
25.972
 11
25.929
 20
-186.193
 21
-186.058
  0
LINE
  8
0
 10
25.929
 11
25.902
 20
-186.058
 21
-185.918
  0
LINE
  8
0
 10
25.902
 11
25.893
 20
-185.918
 21
-185.777
  0
LINE
  8
0
 10
27.146
 11
27.152
 20
-370.06
 21
-369.958
  0
LINE
  8
0
 10
27.152
 11
27.172
 20
-369.958
 21
-369.858
  0
LINE
  8
0
 10
27.172
 11
27.203
 20
-369.858
 21
-369.76
  0
LINE
  8
0
 10
27.203
 11
27.247
 20
-369.76
 21
-369.668
  0
LINE
  8
0
 10
27.247
 11
27.301
 20
-369.668
 21
-369.582
  0
LINE
  8
0
 10
27.301
 11
27.367
 20
-369.582
 21
-369.503
  0
LINE
  8
0
 10
27.367
 11
27.441
 20
-369.503
 21
-369.433
  0
LINE
  8
0
 10
27.441
 11
27.524
 20
-369.433
 21
-369.373
  0
LINE
  8
0
 10
27.524
 11
27.613
 20
-369.373
 21
-369.323
  0
LINE
  8
0
 10
27.613
 11
27.708
 20
-369.323
 21
-369.286
  0
LINE
  8
0
 10
27.708
 11
27.807
 20
-369.286
 21
-369.26
  0
LINE
  8
0
 10
27.807
 11
27.909
 20
-369.26
 21
-369.248
  0
LINE
  8
0
 10
27.909
 11
28.011
 20
-369.248
 21
-369.248
  0
LINE
  8
0
 10
28.011
 11
28.113
 20
-369.248
 21
-369.26
  0
LINE
  8
0
 10
28.113
 11
28.212
 20
-369.26
 21
-369.286
  0
LINE
  8
0
 10
28.212
 11
28.307
 20
-369.286
 21
-369.323
  0
LINE
  8
0
 10
28.307
 11
28.396
 20
-369.323
 21
-369.373
  0
LINE
  8
0
 10
28.396
 11
28.479
 20
-369.373
 21
-369.433
  0
LINE
  8
0
 10
28.479
 11
28.553
 20
-369.433
 21
-369.503
  0
LINE
  8
0
 10
28.553
 11
28.619
 20
-369.503
 21
-369.582
  0
LINE
  8
0
 10
28.619
 11
28.673
 20
-369.582
 21
-369.668
  0
LINE
  8
0
 10
28.673
 11
28.717
 20
-369.668
 21
-369.76
  0
LINE
  8
0
 10
28.717
 11
28.748
 20
-369.76
 21
-369.858
  0
LINE
  8
0
 10
28.748
 11
28.768
 20
-369.858
 21
-369.958
  0
LINE
  8
0
 10
28.768
 11
28.774
 20
-369.958
 21
-370.06
  0
LINE
  8
0
 10
28.774
 11
28.768
 20
-370.06
 21
-370.162
  0
LINE
  8
0
 10
28.768
 11
28.748
 20
-370.162
 21
-370.262
  0
LINE
  8
0
 10
28.748
 11
28.717
 20
-370.262
 21
-370.36
  0
LINE
  8
0
 10
28.717
 11
28.673
 20
-370.36
 21
-370.452
  0
LINE
  8
0
 10
28.673
 11
28.619
 20
-370.452
 21
-370.538
  0
LINE
  8
0
 10
28.619
 11
28.553
 20
-370.538
 21
-370.617
  0
LINE
  8
0
 10
28.553
 11
28.479
 20
-370.617
 21
-370.687
  0
LINE
  8
0
 10
28.479
 11
28.396
 20
-370.687
 21
-370.747
  0
LINE
  8
0
 10
28.396
 11
28.307
 20
-370.747
 21
-370.797
  0
LINE
  8
0
 10
28.307
 11
28.212
 20
-370.797
 21
-370.834
  0
LINE
  8
0
 10
28.212
 11
28.113
 20
-370.834
 21
-370.86
  0
LINE
  8
0
 10
28.113
 11
28.011
 20
-370.86
 21
-370.872
  0
LINE
  8
0
 10
28.011
 11
27.909
 20
-370.872
 21
-370.872
  0
LINE
  8
0
 10
27.909
 11
27.807
 20
-370.872
 21
-370.86
  0
LINE
  8
0
 10
27.807
 11
27.708
 20
-370.86
 21
-370.834
  0
LINE
  8
0
 10
27.708
 11
27.613
 20
-370.834
 21
-370.797
  0
LINE
  8
0
 10
27.613
 11
27.524
 20
-370.797
 21
-370.747
  0
LINE
  8
0
 10
27.524
 11
27.441
 20
-370.747
 21
-370.687
  0
LINE
  8
0
 10
27.441
 11
27.367
 20
-370.687
 21
-370.617
  0
LINE
  8
0
 10
27.367
 11
27.301
 20
-370.617
 21
-370.538
  0
LINE
  8
0
 10
27.301
 11
27.247
 20
-370.538
 21
-370.452
  0
LINE
  8
0
 10
27.247
 11
27.203
 20
-370.452
 21
-370.36
  0
LINE
  8
0
 10
27.203
 11
27.172
 20
-370.36
 21
-370.262
  0
LINE
  8
0
 10
27.172
 11
27.152
 20
-370.262
 21
-370.162
  0
LINE
  8
0
 10
27.152
 11
27.146
 20
-370.162
 21
-370.06
  0
LINE
  8
0
 10
27.146
 11
27.152
 20
-331.96
 21
-331.858
  0
LINE
  8
0
 10
27.152
 11
27.172
 20
-331.858
 21
-331.758
  0
LINE
  8
0
 10
27.172
 11
27.203
 20
-331.758
 21
-331.66
  0
LINE
  8
0
 10
27.203
 11
27.247
 20
-331.66
 21
-331.568
  0
LINE
  8
0
 10
27.247
 11
27.301
 20
-331.568
 21
-331.482
  0
LINE
  8
0
 10
27.301
 11
27.367
 20
-331.482
 21
-331.403
  0
LINE
  8
0
 10
27.367
 11
27.441
 20
-331.403
 21
-331.333
  0
LINE
  8
0
 10
27.441
 11
27.524
 20
-331.333
 21
-331.273
  0
LINE
  8
0
 10
27.524
 11
27.613
 20
-331.273
 21
-331.223
  0
LINE
  8
0
 10
27.613
 11
27.708
 20
-331.223
 21
-331.186
  0
LINE
  8
0
 10
27.708
 11
27.807
 20
-331.186
 21
-331.16
  0
LINE
  8
0
 10
27.807
 11
27.909
 20
-331.16
 21
-331.148
  0
LINE
  8
0
 10
27.909
 11
28.011
 20
-331.148
 21
-331.148
  0
LINE
  8
0
 10
28.011
 11
28.113
 20
-331.148
 21
-331.16
  0
LINE
  8
0
 10
28.113
 11
28.212
 20
-331.16
 21
-331.186
  0
LINE
  8
0
 10
28.212
 11
28.307
 20
-331.186
 21
-331.223
  0
LINE
  8
0
 10
28.307
 11
28.396
 20
-331.223
 21
-331.273
  0
LINE
  8
0
 10
28.396
 11
28.479
 20
-331.273
 21
-331.333
  0
LINE
  8
0
 10
28.479
 11
28.553
 20
-331.333
 21
-331.403
  0
LINE
  8
0
 10
28.553
 11
28.619
 20
-331.403
 21
-331.482
  0
LINE
  8
0
 10
28.619
 11
28.673
 20
-331.482
 21
-331.568
  0
LINE
  8
0
 10
28.673
 11
28.717
 20
-331.568
 21
-331.66
  0
LINE
  8
0
 10
28.717
 11
28.748
 20
-331.66
 21
-331.758
  0
LINE
  8
0
 10
28.748
 11
28.768
 20
-331.758
 21
-331.858
  0
LINE
  8
0
 10
28.768
 11
28.774
 20
-331.858
 21
-331.96
  0
LINE
  8
0
 10
28.774
 11
28.768
 20
-331.96
 21
-332.062
  0
LINE
  8
0
 10
28.768
 11
28.748
 20
-332.062
 21
-332.162
  0
LINE
  8
0
 10
28.748
 11
28.717
 20
-332.162
 21
-332.26
  0
LINE
  8
0
 10
28.717
 11
28.673
 20
-332.26
 21
-332.352
  0
LINE
  8
0
 10
28.673
 11
28.619
 20
-332.352
 21
-332.438
  0
LINE
  8
0
 10
28.619
 11
28.553
 20
-332.438
 21
-332.517
  0
LINE
  8
0
 10
28.553
 11
28.479
 20
-332.517
 21
-332.587
  0
LINE
  8
0
 10
28.479
 11
28.396
 20
-332.587
 21
-332.647
  0
LINE
  8
0
 10
28.396
 11
28.307
 20
-332.647
 21
-332.697
  0
LINE
  8
0
 10
28.307
 11
28.212
 20
-332.697
 21
-332.734
  0
LINE
  8
0
 10
28.212
 11
28.113
 20
-332.734
 21
-332.76
  0
LINE
  8
0
 10
28.113
 11
28.011
 20
-332.76
 21
-332.772
  0
LINE
  8
0
 10
28.011
 11
27.909
 20
-332.772
 21
-332.772
  0
LINE
  8
0
 10
27.909
 11
27.807
 20
-332.772
 21
-332.76
  0
LINE
  8
0
 10
27.807
 11
27.708
 20
-332.76
 21
-332.734
  0
LINE
  8
0
 10
27.708
 11
27.613
 20
-332.734
 21
-332.697
  0
LINE
  8
0
 10
27.613
 11
27.524
 20
-332.697
 21
-332.647
  0
LINE
  8
0
 10
27.524
 11
27.441
 20
-332.647
 21
-332.587
  0
LINE
  8
0
 10
27.441
 11
27.367
 20
-332.587
 21
-332.517
  0
LINE
  8
0
 10
27.367
 11
27.301
 20
-332.517
 21
-332.438
  0
LINE
  8
0
 10
27.301
 11
27.247
 20
-332.438
 21
-332.352
  0
LINE
  8
0
 10
27.247
 11
27.203
 20
-332.352
 21
-332.26
  0
LINE
  8
0
 10
27.203
 11
27.172
 20
-332.26
 21
-332.162
  0
LINE
  8
0
 10
27.172
 11
27.152
 20
-332.162
 21
-332.062
  0
LINE
  8
0
 10
27.152
 11
27.146
 20
-332.062
 21
-331.96
  0
LINE
  8
0
 10
27.146
 11
27.152
 20
-197.34
 21
-197.238
  0
LINE
  8
0
 10
27.152
 11
27.172
 20
-197.238
 21
-197.138
  0
LINE
  8
0
 10
27.172
 11
27.203
 20
-197.138
 21
-197.04
  0
LINE
  8
0
 10
27.203
 11
27.247
 20
-197.04
 21
-196.948
  0
LINE
  8
0
 10
27.247
 11
27.301
 20
-196.948
 21
-196.862
  0
LINE
  8
0
 10
27.301
 11
27.367
 20
-196.862
 21
-196.783
  0
LINE
  8
0
 10
27.367
 11
27.441
 20
-196.783
 21
-196.713
  0
LINE
  8
0
 10
27.441
 11
27.524
 20
-196.713
 21
-196.653
  0
LINE
  8
0
 10
27.524
 11
27.613
 20
-196.653
 21
-196.603
  0
LINE
  8
0
 10
27.613
 11
27.708
 20
-196.603
 21
-196.566
  0
LINE
  8
0
 10
27.708
 11
27.807
 20
-196.566
 21
-196.54
  0
LINE
  8
0
 10
27.807
 11
27.909
 20
-196.54
 21
-196.528
  0
LINE
  8
0
 10
27.909
 11
28.011
 20
-196.528
 21
-196.528
  0
LINE
  8
0
 10
28.011
 11
28.113
 20
-196.528
 21
-196.54
  0
LINE
  8
0
 10
28.113
 11
28.212
 20
-196.54
 21
-196.566
  0
LINE
  8
0
 10
28.212
 11
28.307
 20
-196.566
 21
-196.603
  0
LINE
  8
0
 10
28.307
 11
28.396
 20
-196.603
 21
-196.653
  0
LINE
  8
0
 10
28.396
 11
28.479
 20
-196.653
 21
-196.713
  0
LINE
  8
0
 10
28.479
 11
28.553
 20
-196.713
 21
-196.783
  0
LINE
  8
0
 10
28.553
 11
28.619
 20
-196.783
 21
-196.862
  0
LINE
  8
0
 10
28.619
 11
28.673
 20
-196.862
 21
-196.948
  0
LINE
  8
0
 10
28.673
 11
28.717
 20
-196.948
 21
-197.04
  0
LINE
  8
0
 10
28.717
 11
28.748
 20
-197.04
 21
-197.138
  0
LINE
  8
0
 10
28.748
 11
28.768
 20
-197.138
 21
-197.238
  0
LINE
  8
0
 10
28.768
 11
28.774
 20
-197.238
 21
-197.34
  0
LINE
  8
0
 10
28.774
 11
28.768
 20
-197.34
 21
-197.442
  0
LINE
  8
0
 10
28.768
 11
28.748
 20
-197.442
 21
-197.542
  0
LINE
  8
0
 10
28.748
 11
28.717
 20
-197.542
 21
-197.64
  0
LINE
  8
0
 10
28.717
 11
28.673
 20
-197.64
 21
-197.732
  0
LINE
  8
0
 10
28.673
 11
28.619
 20
-197.732
 21
-197.818
  0
LINE
  8
0
 10
28.619
 11
28.553
 20
-197.818
 21
-197.897
  0
LINE
  8
0
 10
28.553
 11
28.479
 20
-197.897
 21
-197.967
  0
LINE
  8
0
 10
28.479
 11
28.396
 20
-197.967
 21
-198.027
  0
LINE
  8
0
 10
28.396
 11
28.307
 20
-198.027
 21
-198.077
  0
LINE
  8
0
 10
28.307
 11
28.212
 20
-198.077
 21
-198.114
  0
LINE
  8
0
 10
28.212
 11
28.113
 20
-198.114
 21
-198.14
  0
LINE
  8
0
 10
28.113
 11
28.011
 20
-198.14
 21
-198.152
  0
LINE
  8
0
 10
28.011
 11
27.909
 20
-198.152
 21
-198.152
  0
LINE
  8
0
 10
27.909
 11
27.807
 20
-198.152
 21
-198.14
  0
LINE
  8
0
 10
27.807
 11
27.708
 20
-198.14
 21
-198.114
  0
LINE
  8
0
 10
27.708
 11
27.613
 20
-198.114
 21
-198.077
  0
LINE
  8
0
 10
27.613
 11
27.524
 20
-198.077
 21
-198.027
  0
LINE
  8
0
 10
27.524
 11
27.441
 20
-198.027
 21
-197.967
  0
LINE
  8
0
 10
27.441
 11
27.367
 20
-197.967
 21
-197.897
  0
LINE
  8
0
 10
27.367
 11
27.301
 20
-197.897
 21
-197.818
  0
LINE
  8
0
 10
27.301
 11
27.247
 20
-197.818
 21
-197.732
  0
LINE
  8
0
 10
27.247
 11
27.203
 20
-197.732
 21
-197.64
  0
LINE
  8
0
 10
27.203
 11
27.172
 20
-197.64
 21
-197.542
  0
LINE
  8
0
 10
27.172
 11
27.152
 20
-197.542
 21
-197.442
  0
LINE
  8
0
 10
27.152
 11
27.146
 20
-197.442
 21
-197.34
  0
LINE
  8
0
 10
30.7
 11
30.7
 20
-306.091
 21
-299.091
  0
LINE
  8
0
 10
30.7
 11
34.05
 20
-299.091
 21
-299.091
  0
LINE
  8
0
 10
34.05
 11
34.05
 20
-299.091
 21
-306.091
  0
LINE
  8
0
 10
34.05
 11
30.7
 20
-306.091
 21
-306.091
  0
LINE
  8
0
 10
30.7
 11
30.7
 20
-230.527
 21
-223.527
  0
LINE
  8
0
 10
30.7
 11
34.05
 20
-223.527
 21
-223.527
  0
LINE
  8
0
 10
34.05
 11
34.05
 20
-223.527
 21
-230.527
  0
LINE
  8
0
 10
34.05
 11
30.7
 20
-230.527
 21
-230.527
  0
ENDSEC
  0
SECTION
  2
OBJECTS
  0
DICTIONARY
  0
ENDSEC
  0
EOF
