999
dxflib 2.2.0.0
  0
SECTION
  2
HEADER
  9
$ACADVER
  1
AC1015
  9
$HANDSEED
  5
FFFF
  9
$DIMASZ
 40
2.5
  9
$PLIMMIN
 10
0.0
 20
0.0
  9
$DIMEXE
 40
1.25
  9
$DIMGAP
 40
0.625
  9
$PLIMMAX
 10
210.0
 20
297.0
  9
$INSUNITS
 70
4
  9
$DIMSTYLE
  2
Standard
  9
$DIMEXO
 40
0.625
  9
$DIMTXT
 40
2.5
  0
ENDSEC
  0
SECTION
  2
TABLES
  0
TABLE
  2
VPORT
  5
8
100
AcDbSymbolTable
 70
1
  0
VPORT
  5
30
100
AcDbSymbolTableRecord
100
AcDbViewportTableRecord
  2
*Active
 70
0
 10
0.0
 20
0.0
 11
1.0
 21
1.0
 12
286.3055555555554861
 22
148.5
 13
0.0
 23
0.0
 14
10.0
 24
10.0
 15
10.0
 25
10.0
 16
0.0
 26
0.0
 36
1.0
 17
0.0
 27
0.0
 37
0.0
 40
297.0
 41
1.92798353909465
 42
50.0
 43
0.0
 44
0.0
 50
0.0
 51
0.0
 71
0
 72
100
 73
1
 74
3
 75
1
 76
1
 77
0
 78
0
281
0
 65
1
110
0.0
120
0.0
130
0.0
111
1.0
121
0.0
131
0.0
112
0.0
122
1.0
132
0.0
 79
0
146
0.0
  0
ENDTAB
  0
TABLE
  2
LTYPE
  5
5
100
AcDbSymbolTable
 70
21
  0
LTYPE
  5
14
100
AcDbSymbolTableRecord
100
AcDbLinetypeTableRecord
  2
ByBlock
 70
0
  3

 72
65
 73
0
 40
0.0
  0
LTYPE
  5
15
100
AcDbSymbolTableRecord
100
AcDbLinetypeTableRecord
  2
ByLayer
 70
0
  3

 72
65
 73
0
 40
0.0
  0
LTYPE
  5
16
100
AcDbSymbolTableRecord
100
AcDbLinetypeTableRecord
  2
CONTINUOUS
 70
0
  3
Solid line
 72
65
 73
0
 40
0.0
  0
LTYPE
  5
31
100
AcDbSymbolTableRecord
100
AcDbLinetypeTableRecord
  2
DOT
 70
0
  3
Dot . . . . . . . . . . . . . . . . . . . . . .
 72
65
 73
2
 40
6.3499999999999996
 49
0.0
 74
0
 49
-6.3499999999999996
 74
0
  0
LTYPE
  5
32
100
AcDbSymbolTableRecord
100
AcDbLinetypeTableRecord
  2
DOT2
 70
0
  3
Dot (.5x) .....................................
 72
65
 73
2
 40
3.1749999999999998
 49
0.0
 74
0
 49
-3.1749999999999998
 74
0
  0
LTYPE
  5
33
100
AcDbSymbolTableRecord
100
AcDbLinetypeTableRecord
  2
DOTX2
 70
0
  3
Dot (2x) .  .  .  .  .  .  .  .  .  .  .  .  .
 72
65
 73
2
 40
12.6999999999999993
 49
0.0
 74
0
 49
-12.6999999999999993
 74
0
  0
LTYPE
  5
34
100
AcDbSymbolTableRecord
100
AcDbLinetypeTableRecord
  2
DASHED
 70
0
  3
Dashed __ __ __ __ __ __ __ __ __ __ __ __ __ _
 72
65
 73
2
 40
19.0500000000000007
 49
12.6999999999999993
 74
0
 49
-6.3499999999999996
 74
0
  0
LTYPE
  5
35
100
AcDbSymbolTableRecord
100
AcDbLinetypeTableRecord
  2
DASHED2
 70
0
  3
Dashed (.5x) _ _ _ _ _ _ _ _ _ _ _ _ _ _ _ _ _
 72
65
 73
2
 40
9.5250000000000004
 49
6.3499999999999996
 74
0
 49
-3.1749999999999998
 74
0
  0
LTYPE
  5
36
100
AcDbSymbolTableRecord
100
AcDbLinetypeTableRecord
  2
DASHEDX2
 70
0
  3
Dashed (2x) ____  ____  ____  ____  ____  ___
 72
65
 73
2
 40
38.1000000000000014
 49
25.3999999999999986
 74
0
 49
-12.6999999999999993
 74
0
  0
LTYPE
  5
37
100
AcDbSymbolTableRecord
100
AcDbLinetypeTableRecord
  2
DASHDOT
 70
0
  3
Dash dot __ . __ . __ . __ . __ . __ . __ . __
 72
65
 73
4
 40
25.3999999999999986
 49
12.6999999999999993
 74
0
 49
-6.3499999999999996
 74
0
 49
0.0
 74
0
 49
-6.3499999999999996
 74
0
  0
LTYPE
  5
38
100
AcDbSymbolTableRecord
100
AcDbLinetypeTableRecord
  2
DASHDOT2
 70
0
  3
Dash dot (.5x) _._._._._._._._._._._._._._._.
 72
65
 73
4
 40
12.6999999999999993
 49
6.3499999999999996
 74
0
 49
-3.1749999999999998
 74
0
 49
0.0
 74
0
 49
-3.1749999999999998
 74
0
  0
LTYPE
  5
39
100
AcDbSymbolTableRecord
100
AcDbLinetypeTableRecord
  2
DASHDOTX2
 70
0
  3
Dash dot (2x) ____  .  ____  .  ____  .  ___
 72
65
 73
4
 40
50.7999999999999972
 49
25.3999999999999986
 74
0
 49
-12.6999999999999993
 74
0
 49
0.0
 74
0
 49
-12.6999999999999993
 74
0
  0
LTYPE
  5
3A
100
AcDbSymbolTableRecord
100
AcDbLinetypeTableRecord
  2
DIVIDE
 70
0
  3
Divide ____ . . ____ . . ____ . . ____ . . ____
 72
65
 73
6
 40
31.75
 49
12.6999999999999993
 74
0
 49
-6.3499999999999996
 74
0
 49
0.0
 74
0
 49
-6.3499999999999996
 74
0
 49
0.0
 74
0
 49
-6.3499999999999996
 74
0
  0
LTYPE
  5
3B
100
AcDbSymbolTableRecord
100
AcDbLinetypeTableRecord
  2
DIVIDE2
 70
0
  3
Divide (.5x) __..__..__..__..__..__..__..__.._
 72
65
 73
6
 40
15.875
 49
6.3499999999999996
 74
0
 49
-3.1749999999999998
 74
0
 49
0.0
 74
0
 49
-3.1749999999999998
 74
0
 49
0.0
 74
0
 49
-3.1749999999999998
 74
0
  0
LTYPE
  5
3C
100
AcDbSymbolTableRecord
100
AcDbLinetypeTableRecord
  2
DIVIDEX2
 70
0
  3
Divide (2x) ________  .  .  ________  .  .  _
 72
65
 73
6
 40
63.5
 49
25.3999999999999986
 74
0
 49
-12.6999999999999993
 74
0
 49
0.0
 74
0
 49
-12.6999999999999993
 74
0
 49
0.0
 74
0
 49
-12.6999999999999993
 74
0
  0
LTYPE
  5
3D
100
AcDbSymbolTableRecord
100
AcDbLinetypeTableRecord
  2
CENTER
 70
0
  3
Center ____ _ ____ _ ____ _ ____ _ ____ _ ____
 72
65
 73
4
 40
50.7999999999999972
 49
31.75
 74
0
 49
-6.3499999999999996
 74
0
 49
6.3499999999999996
 74
0
 49
-6.3499999999999996
 74
0
  0
LTYPE
  5
3E
100
AcDbSymbolTableRecord
100
AcDbLinetypeTableRecord
  2
CENTER2
 70
0
  3
Center (.5x) ___ _ ___ _ ___ _ ___ _ ___ _ ___
 72
65
 73
4
 40
28.5749999999999993
 49
19.0500000000000007
 74
0
 49
-3.1749999999999998
 74
0
 49
3.1749999999999998
 74
0
 49
-3.1749999999999998
 74
0
  0
LTYPE
  5
3F
100
AcDbSymbolTableRecord
100
AcDbLinetypeTableRecord
  2
CENTERX2
 70
0
  3
Center (2x) ________  __  ________  __  _____
 72
65
 73
4
 40
101.5999999999999943
 49
63.5
 74
0
 49
-12.6999999999999993
 74
0
 49
12.6999999999999993
 74
0
 49
-12.6999999999999993
 74
0
  0
LTYPE
  5
40
100
AcDbSymbolTableRecord
100
AcDbLinetypeTableRecord
  2
BORDER
 70
0
  3
Border __ __ . __ __ . __ __ . __ __ . __ __ .
 72
65
 73
6
 40
44.4500000000000028
 49
12.6999999999999993
 74
0
 49
-6.3499999999999996
 74
0
 49
12.6999999999999993
 74
0
 49
-6.3499999999999996
 74
0
 49
0.0
 74
0
 49
-6.3499999999999996
 74
0
  0
LTYPE
  5
41
100
AcDbSymbolTableRecord
100
AcDbLinetypeTableRecord
  2
BORDER2
 70
0
  3
Border (.5x) __.__.__.__.__.__.__.__.__.__.__.
 72
65
 73
6
 40
22.2250000000000014
 49
6.3499999999999996
 74
0
 49
-3.1749999999999998
 74
0
 49
6.3499999999999996
 74
0
 49
-3.1749999999999998
 74
0
 49
0.0
 74
0
 49
-3.1749999999999998
 74
0
  0
LTYPE
  5
42
100
AcDbSymbolTableRecord
100
AcDbLinetypeTableRecord
  2
BORDERX2
 70
0
  3
Border (2x) ____  ____  .  ____  ____  .  ___
 72
65
 73
6
 40
88.9000000000000057
 49
25.3999999999999986
 74
0
 49
-12.6999999999999993
 74
0
 49
25.3999999999999986
 74
0
 49
-12.6999999999999993
 74
0
 49
0.0
 74
0
 49
-12.6999999999999993
 74
0
  0
ENDTAB
  0
TABLE
  2
LAYER
  5
2
100
AcDbSymbolTable
 70
1
  0
LAYER
  5
10
100
AcDbSymbolTableRecord
100
AcDbLayerTableRecord
  2
0
 70
0
 62
7
  6
CONTINUOUS
370
0
390
F
  0
ENDTAB
  0
TABLE
  2
STYLE
  5
3
100
AcDbSymbolTable
 70
1
  0
STYLE
  5
11
100
AcDbSymbolTableRecord
100
AcDbTextStyleTableRecord
  2
Standard
 70
0
 40
0.0
 41
0.75
 50
0.0
 71
0
 42
2.5
  3
txt
  4

  0
ENDTAB
  0
TABLE
  2
VIEW
  5
6
100
AcDbSymbolTable
 70
0
  0
ENDTAB
  0
TABLE
  2
UCS
  5
7
100
AcDbSymbolTable
 70
0
  0
ENDTAB
  0
TABLE
  2
APPID
  5
9
100
AcDbSymbolTable
 70
1
  0
APPID
  5
12
100
AcDbSymbolTableRecord
100
AcDbRegAppTableRecord
  2
ACAD
 70
0
  0
ENDTAB
  0
TABLE
  2
DIMSTYLE
  5
A
100
AcDbSymbolTable
 70
1
100
AcDbDimStyleTable
 71
0
  0
DIMSTYLE
105
27
100
AcDbSymbolTableRecord
100
AcDbDimStyleTableRecord
  2
Standard
 41
2.5
 42
0.625
 43
3.75
 44
1.25
 70
0
 73
0
 74
0
 77
1
 78
8
140
2.5
141
2.5
143
0.03937007874016
147
0.625
171
3
172
1
271
2
272
2
274
3
278
44
283
0
284
8
340
11
  0
ENDTAB
  0
TABLE
  2
BLOCK_RECORD
  5
1
100
AcDbSymbolTable
 70
1
  0
BLOCK_RECORD
  5
1F
100
AcDbSymbolTableRecord
100
AcDbBlockTableRecord
  2
*Model_Space
340
22
  0
BLOCK_RECORD
  5
1B
100
AcDbSymbolTableRecord
100
AcDbBlockTableRecord
  2
*Paper_Space
340
1E
  0
BLOCK_RECORD
  5
23
100
AcDbSymbolTableRecord
100
AcDbBlockTableRecord
  2
*Paper_Space0
340
26
  0
ENDTAB
  0
ENDSEC
  0
SECTION
  2
BLOCKS
  0
BLOCK
  5
20
100
AcDbEntity
  8
0
100
AcDbBlockBegin
  2
*Model_Space
 70
0
 10
0.0
 20
0.0
 30
0.0
  3
*Model_Space
  1

  0
ENDBLK
  5
21
100
AcDbEntity
  8
0
100
AcDbBlockEnd
  0
BLOCK
  5
1C
100
AcDbEntity
 67
1
  8
0
100
AcDbBlockBegin
  2
*Paper_Space
 70
0
 10
0.0
 20
0.0
 30
0.0
  3
*Paper_Space
  1

  0
ENDBLK
  5
1D
100
AcDbEntity
 67
1
  8
0
100
AcDbBlockEnd
  0
BLOCK
  5
24
100
AcDbEntity
  8
0
100
AcDbBlockBegin
  2
*Paper_Space0
 70
0
 10
0.0
 20
0.0
 30
0.0
  3
*Paper_Space0
  1

  0
ENDBLK
  5
25
100
AcDbEntity
  8
0
100
AcDbBlockEnd
  0
ENDSEC
  0
SECTION
  2
ENTITIES
  0
LINE
  5
43
100
AcDbEntity
100
AcDbLine
  8
0
 62
256
370
-1
  6
ByLayer
 10
-35.2000000000000028
 20
-384.1000000000000227
 30
0.0
 11
-35.2000000000000028
 21
-174.9000000000000057
 31
0.0
  0
LINE
  5
44
100
AcDbEntity
100
AcDbLine
  8
0
 62
256
370
-1
  6
ByLayer
 10
-35.2000000000000028
 20
-174.9000000000000057
 30
0.0
 11
-35.1880000000000024
 21
-174.7119999999999891
 31
0.0
  0
LINE
  5
45
100
AcDbEntity
100
AcDbLine
  8
0
 62
256
370
-1
  6
ByLayer
 10
-35.1880000000000024
 20
-174.7119999999999891
 30
0.0
 11
-35.1529999999999987
 21
-174.5269999999999868
 31
0.0
  0
LINE
  5
46
100
AcDbEntity
100
AcDbLine
  8
0
 62
256
370
-1
  6
ByLayer
 10
-35.1529999999999987
 20
-174.5269999999999868
 30
0.0
 11
-35.0949999999999989
 21
-174.3480000000000132
 31
0.0
  0
LINE
  5
47
100
AcDbEntity
100
AcDbLine
  8
0
 62
256
370
-1
  6
ByLayer
 10
-35.0949999999999989
 20
-174.3480000000000132
 30
0.0
 11
-35.0140000000000029
 21
-174.1769999999999925
 31
0.0
  0
LINE
  5
48
100
AcDbEntity
100
AcDbLine
  8
0
 62
256
370
-1
  6
ByLayer
 10
-35.0140000000000029
 20
-174.1769999999999925
 30
0.0
 11
-34.9140000000000015
 21
-174.0180000000000007
 31
0.0
  0
LINE
  5
49
100
AcDbEntity
100
AcDbLine
  8
0
 62
256
370
-1
  6
ByLayer
 10
-34.9140000000000015
 20
-174.0180000000000007
 30
0.0
 11
-34.7929999999999993
 21
-173.8729999999999905
 31
0.0
  0
LINE
  5
4A
100
AcDbEntity
100
AcDbLine
  8
0
 62
256
370
-1
  6
ByLayer
 10
-34.7929999999999993
 20
-173.8729999999999905
 30
0.0
 11
-34.6559999999999988
 21
-173.7439999999999998
 31
0.0
  0
LINE
  5
4B
100
AcDbEntity
100
AcDbLine
  8
0
 62
256
370
-1
  6
ByLayer
 10
-34.6559999999999988
 20
-173.7439999999999998
 30
0.0
 11
-34.5039999999999978
 21
-173.6339999999999861
 31
0.0
  0
LINE
  5
4C
100
AcDbEntity
100
AcDbLine
  8
0
 62
256
370
-1
  6
ByLayer
 10
-34.5039999999999978
 20
-173.6339999999999861
 30
0.0
 11
-34.3389999999999986
 21
-173.5430000000000064
 31
0.0
  0
LINE
  5
4D
100
AcDbEntity
100
AcDbLine
  8
0
 62
256
370
-1
  6
ByLayer
 10
-34.3389999999999986
 20
-173.5430000000000064
 30
0.0
 11
-34.1640000000000015
 21
-173.4730000000000132
 31
0.0
  0
LINE
  5
4E
100
AcDbEntity
100
AcDbLine
  8
0
 62
256
370
-1
  6
ByLayer
 10
-34.1640000000000015
 20
-173.4730000000000132
 30
0.0
 11
-33.9810000000000016
 21
-173.4269999999999925
 31
0.0
  0
LINE
  5
4F
100
AcDbEntity
100
AcDbLine
  8
0
 62
256
370
-1
  6
ByLayer
 10
-33.9810000000000016
 20
-173.4269999999999925
 30
0.0
 11
-33.7939999999999969
 21
-173.4029999999999916
 31
0.0
  0
LINE
  5
50
100
AcDbEntity
100
AcDbLine
  8
0
 62
256
370
-1
  6
ByLayer
 10
-33.7939999999999969
 20
-173.4029999999999916
 30
0.0
 11
-33.7000000000000028
 21
-173.4029999999999916
 31
0.0
  0
LINE
  5
51
100
AcDbEntity
100
AcDbLine
  8
0
 62
256
370
-1
  6
ByLayer
 10
-33.7000000000000028
 20
-173.4029999999999916
 30
0.0
 11
-33.7000000000000028
 21
-173.4000000000000057
 31
0.0
  0
LINE
  5
52
100
AcDbEntity
100
AcDbLine
  8
0
 62
256
370
-1
  6
ByLayer
 10
-33.7000000000000028
 20
-173.4000000000000057
 30
0.0
 11
33.7000000000000028
 21
-173.4000000000000057
 31
0.0
  0
LINE
  5
53
100
AcDbEntity
100
AcDbLine
  8
0
 62
256
370
-1
  6
ByLayer
 10
33.7000000000000028
 20
-173.4000000000000057
 30
0.0
 11
33.7000000000000028
 21
-173.4029999999999916
 31
0.0
  0
LINE
  5
54
100
AcDbEntity
100
AcDbLine
  8
0
 62
256
370
-1
  6
ByLayer
 10
33.7000000000000028
 20
-173.4029999999999916
 30
0.0
 11
33.7939999999999969
 21
-173.4029999999999916
 31
0.0
  0
LINE
  5
55
100
AcDbEntity
100
AcDbLine
  8
0
 62
256
370
-1
  6
ByLayer
 10
33.7939999999999969
 20
-173.4029999999999916
 30
0.0
 11
33.9810000000000016
 21
-173.4269999999999925
 31
0.0
  0
LINE
  5
56
100
AcDbEntity
100
AcDbLine
  8
0
 62
256
370
-1
  6
ByLayer
 10
33.9810000000000016
 20
-173.4269999999999925
 30
0.0
 11
34.1640000000000015
 21
-173.4730000000000132
 31
0.0
  0
LINE
  5
57
100
AcDbEntity
100
AcDbLine
  8
0
 62
256
370
-1
  6
ByLayer
 10
34.1640000000000015
 20
-173.4730000000000132
 30
0.0
 11
34.3389999999999986
 21
-173.5430000000000064
 31
0.0
  0
LINE
  5
58
100
AcDbEntity
100
AcDbLine
  8
0
 62
256
370
-1
  6
ByLayer
 10
34.3389999999999986
 20
-173.5430000000000064
 30
0.0
 11
34.5039999999999978
 21
-173.6339999999999861
 31
0.0
  0
LINE
  5
59
100
AcDbEntity
100
AcDbLine
  8
0
 62
256
370
-1
  6
ByLayer
 10
34.5039999999999978
 20
-173.6339999999999861
 30
0.0
 11
34.6559999999999988
 21
-173.7439999999999998
 31
0.0
  0
LINE
  5
5A
100
AcDbEntity
100
AcDbLine
  8
0
 62
256
370
-1
  6
ByLayer
 10
34.6559999999999988
 20
-173.7439999999999998
 30
0.0
 11
34.7929999999999993
 21
-173.8729999999999905
 31
0.0
  0
LINE
  5
5B
100
AcDbEntity
100
AcDbLine
  8
0
 62
256
370
-1
  6
ByLayer
 10
34.7929999999999993
 20
-173.8729999999999905
 30
0.0
 11
34.9140000000000015
 21
-174.0180000000000007
 31
0.0
  0
LINE
  5
5C
100
AcDbEntity
100
AcDbLine
  8
0
 62
256
370
-1
  6
ByLayer
 10
34.9140000000000015
 20
-174.0180000000000007
 30
0.0
 11
35.0140000000000029
 21
-174.1769999999999925
 31
0.0
  0
LINE
  5
5D
100
AcDbEntity
100
AcDbLine
  8
0
 62
256
370
-1
  6
ByLayer
 10
35.0140000000000029
 20
-174.1769999999999925
 30
0.0
 11
35.0949999999999989
 21
-174.3480000000000132
 31
0.0
  0
LINE
  5
5E
100
AcDbEntity
100
AcDbLine
  8
0
 62
256
370
-1
  6
ByLayer
 10
35.0949999999999989
 20
-174.3480000000000132
 30
0.0
 11
35.1529999999999987
 21
-174.5269999999999868
 31
0.0
  0
LINE
  5
5F
100
AcDbEntity
100
AcDbLine
  8
0
 62
256
370
-1
  6
ByLayer
 10
35.1529999999999987
 20
-174.5269999999999868
 30
0.0
 11
35.1880000000000024
 21
-174.7119999999999891
 31
0.0
  0
LINE
  5
60
100
AcDbEntity
100
AcDbLine
  8
0
 62
256
370
-1
  6
ByLayer
 10
35.1880000000000024
 20
-174.7119999999999891
 30
0.0
 11
35.2000000000000028
 21
-174.9000000000000057
 31
0.0
  0
LINE
  5
61
100
AcDbEntity
100
AcDbLine
  8
0
 62
256
370
-1
  6
ByLayer
 10
35.2000000000000028
 20
-174.9000000000000057
 30
0.0
 11
35.2000000000000028
 21
-384.1000000000000227
 31
0.0
  0
LINE
  5
62
100
AcDbEntity
100
AcDbLine
  8
0
 62
256
370
-1
  6
ByLayer
 10
35.2000000000000028
 20
-384.1000000000000227
 30
0.0
 11
35.1880000000000024
 21
-384.2880000000000109
 31
0.0
  0
LINE
  5
63
100
AcDbEntity
100
AcDbLine
  8
0
 62
256
370
-1
  6
ByLayer
 10
35.1880000000000024
 20
-384.2880000000000109
 30
0.0
 11
35.1529999999999987
 21
-384.4730000000000132
 31
0.0
  0
LINE
  5
64
100
AcDbEntity
100
AcDbLine
  8
0
 62
256
370
-1
  6
ByLayer
 10
35.1529999999999987
 20
-384.4730000000000132
 30
0.0
 11
35.0949999999999989
 21
-384.6519999999999868
 31
0.0
  0
LINE
  5
65
100
AcDbEntity
100
AcDbLine
  8
0
 62
256
370
-1
  6
ByLayer
 10
35.0949999999999989
 20
-384.6519999999999868
 30
0.0
 11
35.0140000000000029
 21
-384.8229999999999791
 31
0.0
  0
LINE
  5
66
100
AcDbEntity
100
AcDbLine
  8
0
 62
256
370
-1
  6
ByLayer
 10
35.0140000000000029
 20
-384.8229999999999791
 30
0.0
 11
34.9140000000000015
 21
-384.9820000000000277
 31
0.0
  0
LINE
  5
67
100
AcDbEntity
100
AcDbLine
  8
0
 62
256
370
-1
  6
ByLayer
 10
34.9140000000000015
 20
-384.9820000000000277
 30
0.0
 11
34.7929999999999993
 21
-385.1270000000000095
 31
0.0
  0
LINE
  5
68
100
AcDbEntity
100
AcDbLine
  8
0
 62
256
370
-1
  6
ByLayer
 10
34.7929999999999993
 20
-385.1270000000000095
 30
0.0
 11
34.6559999999999988
 21
-385.2559999999999718
 31
0.0
  0
LINE
  5
69
100
AcDbEntity
100
AcDbLine
  8
0
 62
256
370
-1
  6
ByLayer
 10
34.6559999999999988
 20
-385.2559999999999718
 30
0.0
 11
34.5039999999999978
 21
-385.3659999999999854
 31
0.0
  0
LINE
  5
6A
100
AcDbEntity
100
AcDbLine
  8
0
 62
256
370
-1
  6
ByLayer
 10
34.5039999999999978
 20
-385.3659999999999854
 30
0.0
 11
34.3389999999999986
 21
-385.4569999999999936
 31
0.0
  0
LINE
  5
6B
100
AcDbEntity
100
AcDbLine
  8
0
 62
256
370
-1
  6
ByLayer
 10
34.3389999999999986
 20
-385.4569999999999936
 30
0.0
 11
34.1640000000000015
 21
-385.5269999999999868
 31
0.0
  0
LINE
  5
6C
100
AcDbEntity
100
AcDbLine
  8
0
 62
256
370
-1
  6
ByLayer
 10
34.1640000000000015
 20
-385.5269999999999868
 30
0.0
 11
33.9810000000000016
 21
-385.5729999999999791
 31
0.0
  0
LINE
  5
6D
100
AcDbEntity
100
AcDbLine
  8
0
 62
256
370
-1
  6
ByLayer
 10
33.9810000000000016
 20
-385.5729999999999791
 30
0.0
 11
33.7939999999999969
 21
-385.59699999999998
 31
0.0
  0
LINE
  5
6E
100
AcDbEntity
100
AcDbLine
  8
0
 62
256
370
-1
  6
ByLayer
 10
33.7939999999999969
 20
-385.59699999999998
 30
0.0
 11
33.7000000000000028
 21
-385.59699999999998
 31
0.0
  0
LINE
  5
6F
100
AcDbEntity
100
AcDbLine
  8
0
 62
256
370
-1
  6
ByLayer
 10
33.7000000000000028
 20
-385.59699999999998
 30
0.0
 11
33.7000000000000028
 21
-385.6000000000000227
 31
0.0
  0
LINE
  5
70
100
AcDbEntity
100
AcDbLine
  8
0
 62
256
370
-1
  6
ByLayer
 10
33.7000000000000028
 20
-385.6000000000000227
 30
0.0
 11
-33.7000000000000028
 21
-385.6000000000000227
 31
0.0
  0
LINE
  5
71
100
AcDbEntity
100
AcDbLine
  8
0
 62
256
370
-1
  6
ByLayer
 10
-33.7000000000000028
 20
-385.6000000000000227
 30
0.0
 11
-33.7000000000000028
 21
-385.59699999999998
 31
0.0
  0
LINE
  5
72
100
AcDbEntity
100
AcDbLine
  8
0
 62
256
370
-1
  6
ByLayer
 10
-33.7000000000000028
 20
-385.59699999999998
 30
0.0
 11
-33.7939999999999969
 21
-385.59699999999998
 31
0.0
  0
LINE
  5
73
100
AcDbEntity
100
AcDbLine
  8
0
 62
256
370
-1
  6
ByLayer
 10
-33.7939999999999969
 20
-385.59699999999998
 30
0.0
 11
-33.9810000000000016
 21
-385.5729999999999791
 31
0.0
  0
LINE
  5
74
100
AcDbEntity
100
AcDbLine
  8
0
 62
256
370
-1
  6
ByLayer
 10
-33.9810000000000016
 20
-385.5729999999999791
 30
0.0
 11
-34.1640000000000015
 21
-385.5269999999999868
 31
0.0
  0
LINE
  5
75
100
AcDbEntity
100
AcDbLine
  8
0
 62
256
370
-1
  6
ByLayer
 10
-34.1640000000000015
 20
-385.5269999999999868
 30
0.0
 11
-34.3389999999999986
 21
-385.4569999999999936
 31
0.0
  0
LINE
  5
76
100
AcDbEntity
100
AcDbLine
  8
0
 62
256
370
-1
  6
ByLayer
 10
-34.3389999999999986
 20
-385.4569999999999936
 30
0.0
 11
-34.5039999999999978
 21
-385.3659999999999854
 31
0.0
  0
LINE
  5
77
100
AcDbEntity
100
AcDbLine
  8
0
 62
256
370
-1
  6
ByLayer
 10
-34.5039999999999978
 20
-385.3659999999999854
 30
0.0
 11
-34.6559999999999988
 21
-385.2559999999999718
 31
0.0
  0
LINE
  5
78
100
AcDbEntity
100
AcDbLine
  8
0
 62
256
370
-1
  6
ByLayer
 10
-34.6559999999999988
 20
-385.2559999999999718
 30
0.0
 11
-34.7929999999999993
 21
-385.1270000000000095
 31
0.0
  0
LINE
  5
79
100
AcDbEntity
100
AcDbLine
  8
0
 62
256
370
-1
  6
ByLayer
 10
-34.7929999999999993
 20
-385.1270000000000095
 30
0.0
 11
-34.9140000000000015
 21
-384.9820000000000277
 31
0.0
  0
LINE
  5
7A
100
AcDbEntity
100
AcDbLine
  8
0
 62
256
370
-1
  6
ByLayer
 10
-34.9140000000000015
 20
-384.9820000000000277
 30
0.0
 11
-35.0140000000000029
 21
-384.8229999999999791
 31
0.0
  0
LINE
  5
7B
100
AcDbEntity
100
AcDbLine
  8
0
 62
256
370
-1
  6
ByLayer
 10
-35.0140000000000029
 20
-384.8229999999999791
 30
0.0
 11
-35.0949999999999989
 21
-384.6519999999999868
 31
0.0
  0
LINE
  5
7C
100
AcDbEntity
100
AcDbLine
  8
0
 62
256
370
-1
  6
ByLayer
 10
-35.0949999999999989
 20
-384.6519999999999868
 30
0.0
 11
-35.1529999999999987
 21
-384.4730000000000132
 31
0.0
  0
LINE
  5
7D
100
AcDbEntity
100
AcDbLine
  8
0
 62
256
370
-1
  6
ByLayer
 10
-35.1529999999999987
 20
-384.4730000000000132
 30
0.0
 11
-35.1880000000000024
 21
-384.2880000000000109
 31
0.0
  0
LINE
  5
7E
100
AcDbEntity
100
AcDbLine
  8
0
 62
256
370
-1
  6
ByLayer
 10
-35.1880000000000024
 20
-384.2880000000000109
 30
0.0
 11
-35.2000000000000028
 21
-384.1000000000000227
 31
0.0
  0
LINE
  5
7F
100
AcDbEntity
100
AcDbLine
  8
0
 62
256
370
-1
  6
ByLayer
 10
-33.7000000000000028
 20
-301.8279999999999745
 30
0.0
 11
-33.7000000000000028
 21
-294.8279999999999745
 31
0.0
  0
LINE
  5
80
100
AcDbEntity
100
AcDbLine
  8
0
 62
256
370
-1
  6
ByLayer
 10
-33.7000000000000028
 20
-294.8279999999999745
 30
0.0
 11
-30.6999999999999993
 21
-294.8279999999999745
 31
0.0
  0
LINE
  5
81
100
AcDbEntity
100
AcDbLine
  8
0
 62
256
370
-1
  6
ByLayer
 10
-30.6999999999999993
 20
-294.8279999999999745
 30
0.0
 11
-30.6999999999999993
 21
-301.8279999999999745
 31
0.0
  0
LINE
  5
82
100
AcDbEntity
100
AcDbLine
  8
0
 62
256
370
-1
  6
ByLayer
 10
-30.6999999999999993
 20
-301.8279999999999745
 30
0.0
 11
-33.7000000000000028
 21
-301.8279999999999745
 31
0.0
  0
LINE
  5
83
100
AcDbEntity
100
AcDbLine
  8
0
 62
256
370
-1
  6
ByLayer
 10
-33.7000000000000028
 20
-226.5159999999999911
 30
0.0
 11
-33.7000000000000028
 21
-219.5159999999999911
 31
0.0
  0
LINE
  5
84
100
AcDbEntity
100
AcDbLine
  8
0
 62
256
370
-1
  6
ByLayer
 10
-33.7000000000000028
 20
-219.5159999999999911
 30
0.0
 11
-30.6999999999999993
 21
-219.5159999999999911
 31
0.0
  0
LINE
  5
85
100
AcDbEntity
100
AcDbLine
  8
0
 62
256
370
-1
  6
ByLayer
 10
-30.6999999999999993
 20
-219.5159999999999911
 30
0.0
 11
-30.6999999999999993
 21
-226.5159999999999911
 31
0.0
  0
LINE
  5
86
100
AcDbEntity
100
AcDbLine
  8
0
 62
256
370
-1
  6
ByLayer
 10
-30.6999999999999993
 20
-226.5159999999999911
 30
0.0
 11
-33.7000000000000028
 21
-226.5159999999999911
 31
0.0
  0
LINE
  5
87
100
AcDbEntity
100
AcDbLine
  8
0
 62
256
370
-1
  6
ByLayer
 10
-28.7740000000000009
 20
-365.8600000000000136
 30
0.0
 11
-28.7680000000000007
 21
-365.7579999999999814
 31
0.0
  0
LINE
  5
88
100
AcDbEntity
100
AcDbLine
  8
0
 62
256
370
-1
  6
ByLayer
 10
-28.7680000000000007
 20
-365.7579999999999814
 30
0.0
 11
-28.7480000000000011
 21
-365.6580000000000155
 31
0.0
  0
LINE
  5
89
100
AcDbEntity
100
AcDbLine
  8
0
 62
256
370
-1
  6
ByLayer
 10
-28.7480000000000011
 20
-365.6580000000000155
 30
0.0
 11
-28.7169999999999987
 21
-365.5600000000000023
 31
0.0
  0
LINE
  5
8A
100
AcDbEntity
100
AcDbLine
  8
0
 62
256
370
-1
  6
ByLayer
 10
-28.7169999999999987
 20
-365.5600000000000023
 30
0.0
 11
-28.6729999999999983
 21
-365.4680000000000177
 31
0.0
  0
LINE
  5
8B
100
AcDbEntity
100
AcDbLine
  8
0
 62
256
370
-1
  6
ByLayer
 10
-28.6729999999999983
 20
-365.4680000000000177
 30
0.0
 11
-28.6189999999999998
 21
-365.382000000000005
 31
0.0
  0
LINE
  5
8C
100
AcDbEntity
100
AcDbLine
  8
0
 62
256
370
-1
  6
ByLayer
 10
-28.6189999999999998
 20
-365.382000000000005
 30
0.0
 11
-28.5530000000000008
 21
-365.3029999999999973
 31
0.0
  0
LINE
  5
8D
100
AcDbEntity
100
AcDbLine
  8
0
 62
256
370
-1
  6
ByLayer
 10
-28.5530000000000008
 20
-365.3029999999999973
 30
0.0
 11
-28.4789999999999992
 21
-365.2330000000000041
 31
0.0
  0
LINE
  5
8E
100
AcDbEntity
100
AcDbLine
  8
0
 62
256
370
-1
  6
ByLayer
 10
-28.4789999999999992
 20
-365.2330000000000041
 30
0.0
 11
-28.3960000000000008
 21
-365.1730000000000018
 31
0.0
  0
LINE
  5
8F
100
AcDbEntity
100
AcDbLine
  8
0
 62
256
370
-1
  6
ByLayer
 10
-28.3960000000000008
 20
-365.1730000000000018
 30
0.0
 11
-28.3069999999999986
 21
-365.1229999999999905
 31
0.0
  0
LINE
  5
90
100
AcDbEntity
100
AcDbLine
  8
0
 62
256
370
-1
  6
ByLayer
 10
-28.3069999999999986
 20
-365.1229999999999905
 30
0.0
 11
-28.2119999999999997
 21
-365.0860000000000127
 31
0.0
  0
LINE
  5
91
100
AcDbEntity
100
AcDbLine
  8
0
 62
256
370
-1
  6
ByLayer
 10
-28.2119999999999997
 20
-365.0860000000000127
 30
0.0
 11
-28.1129999999999995
 21
-365.0600000000000023
 31
0.0
  0
LINE
  5
92
100
AcDbEntity
100
AcDbLine
  8
0
 62
256
370
-1
  6
ByLayer
 10
-28.1129999999999995
 20
-365.0600000000000023
 30
0.0
 11
-28.0109999999999992
 21
-365.0480000000000018
 31
0.0
  0
LINE
  5
93
100
AcDbEntity
100
AcDbLine
  8
0
 62
256
370
-1
  6
ByLayer
 10
-28.0109999999999992
 20
-365.0480000000000018
 30
0.0
 11
-27.9089999999999989
 21
-365.0480000000000018
 31
0.0
  0
LINE
  5
94
100
AcDbEntity
100
AcDbLine
  8
0
 62
256
370
-1
  6
ByLayer
 10
-27.9089999999999989
 20
-365.0480000000000018
 30
0.0
 11
-27.8069999999999986
 21
-365.0600000000000023
 31
0.0
  0
LINE
  5
95
100
AcDbEntity
100
AcDbLine
  8
0
 62
256
370
-1
  6
ByLayer
 10
-27.8069999999999986
 20
-365.0600000000000023
 30
0.0
 11
-27.7079999999999984
 21
-365.0860000000000127
 31
0.0
  0
LINE
  5
96
100
AcDbEntity
100
AcDbLine
  8
0
 62
256
370
-1
  6
ByLayer
 10
-27.7079999999999984
 20
-365.0860000000000127
 30
0.0
 11
-27.6129999999999995
 21
-365.1229999999999905
 31
0.0
  0
LINE
  5
97
100
AcDbEntity
100
AcDbLine
  8
0
 62
256
370
-1
  6
ByLayer
 10
-27.6129999999999995
 20
-365.1229999999999905
 30
0.0
 11
-27.5240000000000009
 21
-365.1730000000000018
 31
0.0
  0
LINE
  5
98
100
AcDbEntity
100
AcDbLine
  8
0
 62
256
370
-1
  6
ByLayer
 10
-27.5240000000000009
 20
-365.1730000000000018
 30
0.0
 11
-27.4409999999999989
 21
-365.2330000000000041
 31
0.0
  0
LINE
  5
99
100
AcDbEntity
100
AcDbLine
  8
0
 62
256
370
-1
  6
ByLayer
 10
-27.4409999999999989
 20
-365.2330000000000041
 30
0.0
 11
-27.3670000000000009
 21
-365.3029999999999973
 31
0.0
  0
LINE
  5
9A
100
AcDbEntity
100
AcDbLine
  8
0
 62
256
370
-1
  6
ByLayer
 10
-27.3670000000000009
 20
-365.3029999999999973
 30
0.0
 11
-27.3009999999999984
 21
-365.382000000000005
 31
0.0
  0
LINE
  5
9B
100
AcDbEntity
100
AcDbLine
  8
0
 62
256
370
-1
  6
ByLayer
 10
-27.3009999999999984
 20
-365.382000000000005
 30
0.0
 11
-27.2469999999999999
 21
-365.4680000000000177
 31
0.0
  0
LINE
  5
9C
100
AcDbEntity
100
AcDbLine
  8
0
 62
256
370
-1
  6
ByLayer
 10
-27.2469999999999999
 20
-365.4680000000000177
 30
0.0
 11
-27.2029999999999994
 21
-365.5600000000000023
 31
0.0
  0
LINE
  5
9D
100
AcDbEntity
100
AcDbLine
  8
0
 62
256
370
-1
  6
ByLayer
 10
-27.2029999999999994
 20
-365.5600000000000023
 30
0.0
 11
-27.1720000000000006
 21
-365.6580000000000155
 31
0.0
  0
LINE
  5
9E
100
AcDbEntity
100
AcDbLine
  8
0
 62
256
370
-1
  6
ByLayer
 10
-27.1720000000000006
 20
-365.6580000000000155
 30
0.0
 11
-27.152000000000001
 21
-365.7579999999999814
 31
0.0
  0
LINE
  5
9F
100
AcDbEntity
100
AcDbLine
  8
0
 62
256
370
-1
  6
ByLayer
 10
-27.152000000000001
 20
-365.7579999999999814
 30
0.0
 11
-27.1460000000000008
 21
-365.8600000000000136
 31
0.0
  0
LINE
  5
A0
100
AcDbEntity
100
AcDbLine
  8
0
 62
256
370
-1
  6
ByLayer
 10
-27.1460000000000008
 20
-365.8600000000000136
 30
0.0
 11
-27.152000000000001
 21
-365.9619999999999891
 31
0.0
  0
LINE
  5
A1
100
AcDbEntity
100
AcDbLine
  8
0
 62
256
370
-1
  6
ByLayer
 10
-27.152000000000001
 20
-365.9619999999999891
 30
0.0
 11
-27.1720000000000006
 21
-366.0620000000000118
 31
0.0
  0
LINE
  5
A2
100
AcDbEntity
100
AcDbLine
  8
0
 62
256
370
-1
  6
ByLayer
 10
-27.1720000000000006
 20
-366.0620000000000118
 30
0.0
 11
-27.2029999999999994
 21
-366.160000000000025
 31
0.0
  0
LINE
  5
A3
100
AcDbEntity
100
AcDbLine
  8
0
 62
256
370
-1
  6
ByLayer
 10
-27.2029999999999994
 20
-366.160000000000025
 30
0.0
 11
-27.2469999999999999
 21
-366.2520000000000095
 31
0.0
  0
LINE
  5
A4
100
AcDbEntity
100
AcDbLine
  8
0
 62
256
370
-1
  6
ByLayer
 10
-27.2469999999999999
 20
-366.2520000000000095
 30
0.0
 11
-27.3009999999999984
 21
-366.3380000000000223
 31
0.0
  0
LINE
  5
A5
100
AcDbEntity
100
AcDbLine
  8
0
 62
256
370
-1
  6
ByLayer
 10
-27.3009999999999984
 20
-366.3380000000000223
 30
0.0
 11
-27.3670000000000009
 21
-366.4169999999999732
 31
0.0
  0
LINE
  5
A6
100
AcDbEntity
100
AcDbLine
  8
0
 62
256
370
-1
  6
ByLayer
 10
-27.3670000000000009
 20
-366.4169999999999732
 30
0.0
 11
-27.4409999999999989
 21
-366.4870000000000232
 31
0.0
  0
LINE
  5
A7
100
AcDbEntity
100
AcDbLine
  8
0
 62
256
370
-1
  6
ByLayer
 10
-27.4409999999999989
 20
-366.4870000000000232
 30
0.0
 11
-27.5240000000000009
 21
-366.5470000000000255
 31
0.0
  0
LINE
  5
A8
100
AcDbEntity
100
AcDbLine
  8
0
 62
256
370
-1
  6
ByLayer
 10
-27.5240000000000009
 20
-366.5470000000000255
 30
0.0
 11
-27.6129999999999995
 21
-366.59699999999998
 31
0.0
  0
LINE
  5
A9
100
AcDbEntity
100
AcDbLine
  8
0
 62
256
370
-1
  6
ByLayer
 10
-27.6129999999999995
 20
-366.59699999999998
 30
0.0
 11
-27.7079999999999984
 21
-366.6340000000000146
 31
0.0
  0
LINE
  5
AA
100
AcDbEntity
100
AcDbLine
  8
0
 62
256
370
-1
  6
ByLayer
 10
-27.7079999999999984
 20
-366.6340000000000146
 30
0.0
 11
-27.8069999999999986
 21
-366.660000000000025
 31
0.0
  0
LINE
  5
AB
100
AcDbEntity
100
AcDbLine
  8
0
 62
256
370
-1
  6
ByLayer
 10
-27.8069999999999986
 20
-366.660000000000025
 30
0.0
 11
-27.9089999999999989
 21
-366.6720000000000255
 31
0.0
  0
LINE
  5
AC
100
AcDbEntity
100
AcDbLine
  8
0
 62
256
370
-1
  6
ByLayer
 10
-27.9089999999999989
 20
-366.6720000000000255
 30
0.0
 11
-28.0109999999999992
 21
-366.6720000000000255
 31
0.0
  0
LINE
  5
AD
100
AcDbEntity
100
AcDbLine
  8
0
 62
256
370
-1
  6
ByLayer
 10
-28.0109999999999992
 20
-366.6720000000000255
 30
0.0
 11
-28.1129999999999995
 21
-366.660000000000025
 31
0.0
  0
LINE
  5
AE
100
AcDbEntity
100
AcDbLine
  8
0
 62
256
370
-1
  6
ByLayer
 10
-28.1129999999999995
 20
-366.660000000000025
 30
0.0
 11
-28.2119999999999997
 21
-366.6340000000000146
 31
0.0
  0
LINE
  5
AF
100
AcDbEntity
100
AcDbLine
  8
0
 62
256
370
-1
  6
ByLayer
 10
-28.2119999999999997
 20
-366.6340000000000146
 30
0.0
 11
-28.3069999999999986
 21
-366.59699999999998
 31
0.0
  0
LINE
  5
B0
100
AcDbEntity
100
AcDbLine
  8
0
 62
256
370
-1
  6
ByLayer
 10
-28.3069999999999986
 20
-366.59699999999998
 30
0.0
 11
-28.3960000000000008
 21
-366.5470000000000255
 31
0.0
  0
LINE
  5
B1
100
AcDbEntity
100
AcDbLine
  8
0
 62
256
370
-1
  6
ByLayer
 10
-28.3960000000000008
 20
-366.5470000000000255
 30
0.0
 11
-28.4789999999999992
 21
-366.4870000000000232
 31
0.0
  0
LINE
  5
B2
100
AcDbEntity
100
AcDbLine
  8
0
 62
256
370
-1
  6
ByLayer
 10
-28.4789999999999992
 20
-366.4870000000000232
 30
0.0
 11
-28.5530000000000008
 21
-366.4169999999999732
 31
0.0
  0
LINE
  5
B3
100
AcDbEntity
100
AcDbLine
  8
0
 62
256
370
-1
  6
ByLayer
 10
-28.5530000000000008
 20
-366.4169999999999732
 30
0.0
 11
-28.6189999999999998
 21
-366.3380000000000223
 31
0.0
  0
LINE
  5
B4
100
AcDbEntity
100
AcDbLine
  8
0
 62
256
370
-1
  6
ByLayer
 10
-28.6189999999999998
 20
-366.3380000000000223
 30
0.0
 11
-28.6729999999999983
 21
-366.2520000000000095
 31
0.0
  0
LINE
  5
B5
100
AcDbEntity
100
AcDbLine
  8
0
 62
256
370
-1
  6
ByLayer
 10
-28.6729999999999983
 20
-366.2520000000000095
 30
0.0
 11
-28.7169999999999987
 21
-366.160000000000025
 31
0.0
  0
LINE
  5
B6
100
AcDbEntity
100
AcDbLine
  8
0
 62
256
370
-1
  6
ByLayer
 10
-28.7169999999999987
 20
-366.160000000000025
 30
0.0
 11
-28.7480000000000011
 21
-366.0620000000000118
 31
0.0
  0
LINE
  5
B7
100
AcDbEntity
100
AcDbLine
  8
0
 62
256
370
-1
  6
ByLayer
 10
-28.7480000000000011
 20
-366.0620000000000118
 30
0.0
 11
-28.7680000000000007
 21
-365.9619999999999891
 31
0.0
  0
LINE
  5
B8
100
AcDbEntity
100
AcDbLine
  8
0
 62
256
370
-1
  6
ByLayer
 10
-28.7680000000000007
 20
-365.9619999999999891
 30
0.0
 11
-28.7740000000000009
 21
-365.8600000000000136
 31
0.0
  0
LINE
  5
B9
100
AcDbEntity
100
AcDbLine
  8
0
 62
256
370
-1
  6
ByLayer
 10
-28.7740000000000009
 20
-327.7599999999999909
 30
0.0
 11
-28.7680000000000007
 21
-327.6580000000000155
 31
0.0
  0
LINE
  5
BA
100
AcDbEntity
100
AcDbLine
  8
0
 62
256
370
-1
  6
ByLayer
 10
-28.7680000000000007
 20
-327.6580000000000155
 30
0.0
 11
-28.7480000000000011
 21
-327.5579999999999927
 31
0.0
  0
LINE
  5
BB
100
AcDbEntity
100
AcDbLine
  8
0
 62
256
370
-1
  6
ByLayer
 10
-28.7480000000000011
 20
-327.5579999999999927
 30
0.0
 11
-28.7169999999999987
 21
-327.4599999999999795
 31
0.0
  0
LINE
  5
BC
100
AcDbEntity
100
AcDbLine
  8
0
 62
256
370
-1
  6
ByLayer
 10
-28.7169999999999987
 20
-327.4599999999999795
 30
0.0
 11
-28.6729999999999983
 21
-327.367999999999995
 31
0.0
  0
LINE
  5
BD
100
AcDbEntity
100
AcDbLine
  8
0
 62
256
370
-1
  6
ByLayer
 10
-28.6729999999999983
 20
-327.367999999999995
 30
0.0
 11
-28.6189999999999998
 21
-327.2819999999999823
 31
0.0
  0
LINE
  5
BE
100
AcDbEntity
100
AcDbLine
  8
0
 62
256
370
-1
  6
ByLayer
 10
-28.6189999999999998
 20
-327.2819999999999823
 30
0.0
 11
-28.5530000000000008
 21
-327.2029999999999745
 31
0.0
  0
LINE
  5
BF
100
AcDbEntity
100
AcDbLine
  8
0
 62
256
370
-1
  6
ByLayer
 10
-28.5530000000000008
 20
-327.2029999999999745
 30
0.0
 11
-28.4789999999999992
 21
-327.1329999999999814
 31
0.0
  0
LINE
  5
C0
100
AcDbEntity
100
AcDbLine
  8
0
 62
256
370
-1
  6
ByLayer
 10
-28.4789999999999992
 20
-327.1329999999999814
 30
0.0
 11
-28.3960000000000008
 21
-327.0729999999999791
 31
0.0
  0
LINE
  5
C1
100
AcDbEntity
100
AcDbLine
  8
0
 62
256
370
-1
  6
ByLayer
 10
-28.3960000000000008
 20
-327.0729999999999791
 30
0.0
 11
-28.3069999999999986
 21
-327.0230000000000246
 31
0.0
  0
LINE
  5
C2
100
AcDbEntity
100
AcDbLine
  8
0
 62
256
370
-1
  6
ByLayer
 10
-28.3069999999999986
 20
-327.0230000000000246
 30
0.0
 11
-28.2119999999999997
 21
-326.98599999999999
 31
0.0
  0
LINE
  5
C3
100
AcDbEntity
100
AcDbLine
  8
0
 62
256
370
-1
  6
ByLayer
 10
-28.2119999999999997
 20
-326.98599999999999
 30
0.0
 11
-28.1129999999999995
 21
-326.9599999999999795
 31
0.0
  0
LINE
  5
C4
100
AcDbEntity
100
AcDbLine
  8
0
 62
256
370
-1
  6
ByLayer
 10
-28.1129999999999995
 20
-326.9599999999999795
 30
0.0
 11
-28.0109999999999992
 21
-326.9479999999999791
 31
0.0
  0
LINE
  5
C5
100
AcDbEntity
100
AcDbLine
  8
0
 62
256
370
-1
  6
ByLayer
 10
-28.0109999999999992
 20
-326.9479999999999791
 30
0.0
 11
-27.9089999999999989
 21
-326.9479999999999791
 31
0.0
  0
LINE
  5
C6
100
AcDbEntity
100
AcDbLine
  8
0
 62
256
370
-1
  6
ByLayer
 10
-27.9089999999999989
 20
-326.9479999999999791
 30
0.0
 11
-27.8069999999999986
 21
-326.9599999999999795
 31
0.0
  0
LINE
  5
C7
100
AcDbEntity
100
AcDbLine
  8
0
 62
256
370
-1
  6
ByLayer
 10
-27.8069999999999986
 20
-326.9599999999999795
 30
0.0
 11
-27.7079999999999984
 21
-326.98599999999999
 31
0.0
  0
LINE
  5
C8
100
AcDbEntity
100
AcDbLine
  8
0
 62
256
370
-1
  6
ByLayer
 10
-27.7079999999999984
 20
-326.98599999999999
 30
0.0
 11
-27.6129999999999995
 21
-327.0230000000000246
 31
0.0
  0
LINE
  5
C9
100
AcDbEntity
100
AcDbLine
  8
0
 62
256
370
-1
  6
ByLayer
 10
-27.6129999999999995
 20
-327.0230000000000246
 30
0.0
 11
-27.5240000000000009
 21
-327.0729999999999791
 31
0.0
  0
LINE
  5
CA
100
AcDbEntity
100
AcDbLine
  8
0
 62
256
370
-1
  6
ByLayer
 10
-27.5240000000000009
 20
-327.0729999999999791
 30
0.0
 11
-27.4409999999999989
 21
-327.1329999999999814
 31
0.0
  0
LINE
  5
CB
100
AcDbEntity
100
AcDbLine
  8
0
 62
256
370
-1
  6
ByLayer
 10
-27.4409999999999989
 20
-327.1329999999999814
 30
0.0
 11
-27.3670000000000009
 21
-327.2029999999999745
 31
0.0
  0
LINE
  5
CC
100
AcDbEntity
100
AcDbLine
  8
0
 62
256
370
-1
  6
ByLayer
 10
-27.3670000000000009
 20
-327.2029999999999745
 30
0.0
 11
-27.3009999999999984
 21
-327.2819999999999823
 31
0.0
  0
LINE
  5
CD
100
AcDbEntity
100
AcDbLine
  8
0
 62
256
370
-1
  6
ByLayer
 10
-27.3009999999999984
 20
-327.2819999999999823
 30
0.0
 11
-27.2469999999999999
 21
-327.367999999999995
 31
0.0
  0
LINE
  5
CE
100
AcDbEntity
100
AcDbLine
  8
0
 62
256
370
-1
  6
ByLayer
 10
-27.2469999999999999
 20
-327.367999999999995
 30
0.0
 11
-27.2029999999999994
 21
-327.4599999999999795
 31
0.0
  0
LINE
  5
CF
100
AcDbEntity
100
AcDbLine
  8
0
 62
256
370
-1
  6
ByLayer
 10
-27.2029999999999994
 20
-327.4599999999999795
 30
0.0
 11
-27.1720000000000006
 21
-327.5579999999999927
 31
0.0
  0
LINE
  5
D0
100
AcDbEntity
100
AcDbLine
  8
0
 62
256
370
-1
  6
ByLayer
 10
-27.1720000000000006
 20
-327.5579999999999927
 30
0.0
 11
-27.152000000000001
 21
-327.6580000000000155
 31
0.0
  0
LINE
  5
D1
100
AcDbEntity
100
AcDbLine
  8
0
 62
256
370
-1
  6
ByLayer
 10
-27.152000000000001
 20
-327.6580000000000155
 30
0.0
 11
-27.1460000000000008
 21
-327.7599999999999909
 31
0.0
  0
LINE
  5
D2
100
AcDbEntity
100
AcDbLine
  8
0
 62
256
370
-1
  6
ByLayer
 10
-27.1460000000000008
 20
-327.7599999999999909
 30
0.0
 11
-27.152000000000001
 21
-327.8620000000000232
 31
0.0
  0
LINE
  5
D3
100
AcDbEntity
100
AcDbLine
  8
0
 62
256
370
-1
  6
ByLayer
 10
-27.152000000000001
 20
-327.8620000000000232
 30
0.0
 11
-27.1720000000000006
 21
-327.9619999999999891
 31
0.0
  0
LINE
  5
D4
100
AcDbEntity
100
AcDbLine
  8
0
 62
256
370
-1
  6
ByLayer
 10
-27.1720000000000006
 20
-327.9619999999999891
 30
0.0
 11
-27.2029999999999994
 21
-328.0600000000000023
 31
0.0
  0
LINE
  5
D5
100
AcDbEntity
100
AcDbLine
  8
0
 62
256
370
-1
  6
ByLayer
 10
-27.2029999999999994
 20
-328.0600000000000023
 30
0.0
 11
-27.2469999999999999
 21
-328.1519999999999868
 31
0.0
  0
LINE
  5
D6
100
AcDbEntity
100
AcDbLine
  8
0
 62
256
370
-1
  6
ByLayer
 10
-27.2469999999999999
 20
-328.1519999999999868
 30
0.0
 11
-27.3009999999999984
 21
-328.2379999999999995
 31
0.0
  0
LINE
  5
D7
100
AcDbEntity
100
AcDbLine
  8
0
 62
256
370
-1
  6
ByLayer
 10
-27.3009999999999984
 20
-328.2379999999999995
 30
0.0
 11
-27.3670000000000009
 21
-328.3170000000000073
 31
0.0
  0
LINE
  5
D8
100
AcDbEntity
100
AcDbLine
  8
0
 62
256
370
-1
  6
ByLayer
 10
-27.3670000000000009
 20
-328.3170000000000073
 30
0.0
 11
-27.4409999999999989
 21
-328.3870000000000005
 31
0.0
  0
LINE
  5
D9
100
AcDbEntity
100
AcDbLine
  8
0
 62
256
370
-1
  6
ByLayer
 10
-27.4409999999999989
 20
-328.3870000000000005
 30
0.0
 11
-27.5240000000000009
 21
-328.4470000000000027
 31
0.0
  0
LINE
  5
DA
100
AcDbEntity
100
AcDbLine
  8
0
 62
256
370
-1
  6
ByLayer
 10
-27.5240000000000009
 20
-328.4470000000000027
 30
0.0
 11
-27.6129999999999995
 21
-328.4970000000000141
 31
0.0
  0
LINE
  5
DB
100
AcDbEntity
100
AcDbLine
  8
0
 62
256
370
-1
  6
ByLayer
 10
-27.6129999999999995
 20
-328.4970000000000141
 30
0.0
 11
-27.7079999999999984
 21
-328.5339999999999918
 31
0.0
  0
LINE
  5
DC
100
AcDbEntity
100
AcDbLine
  8
0
 62
256
370
-1
  6
ByLayer
 10
-27.7079999999999984
 20
-328.5339999999999918
 30
0.0
 11
-27.8069999999999986
 21
-328.5600000000000023
 31
0.0
  0
LINE
  5
DD
100
AcDbEntity
100
AcDbLine
  8
0
 62
256
370
-1
  6
ByLayer
 10
-27.8069999999999986
 20
-328.5600000000000023
 30
0.0
 11
-27.9089999999999989
 21
-328.5720000000000027
 31
0.0
  0
LINE
  5
DE
100
AcDbEntity
100
AcDbLine
  8
0
 62
256
370
-1
  6
ByLayer
 10
-27.9089999999999989
 20
-328.5720000000000027
 30
0.0
 11
-28.0109999999999992
 21
-328.5720000000000027
 31
0.0
  0
LINE
  5
DF
100
AcDbEntity
100
AcDbLine
  8
0
 62
256
370
-1
  6
ByLayer
 10
-28.0109999999999992
 20
-328.5720000000000027
 30
0.0
 11
-28.1129999999999995
 21
-328.5600000000000023
 31
0.0
  0
LINE
  5
E0
100
AcDbEntity
100
AcDbLine
  8
0
 62
256
370
-1
  6
ByLayer
 10
-28.1129999999999995
 20
-328.5600000000000023
 30
0.0
 11
-28.2119999999999997
 21
-328.5339999999999918
 31
0.0
  0
LINE
  5
E1
100
AcDbEntity
100
AcDbLine
  8
0
 62
256
370
-1
  6
ByLayer
 10
-28.2119999999999997
 20
-328.5339999999999918
 30
0.0
 11
-28.3069999999999986
 21
-328.4970000000000141
 31
0.0
  0
LINE
  5
E2
100
AcDbEntity
100
AcDbLine
  8
0
 62
256
370
-1
  6
ByLayer
 10
-28.3069999999999986
 20
-328.4970000000000141
 30
0.0
 11
-28.3960000000000008
 21
-328.4470000000000027
 31
0.0
  0
LINE
  5
E3
100
AcDbEntity
100
AcDbLine
  8
0
 62
256
370
-1
  6
ByLayer
 10
-28.3960000000000008
 20
-328.4470000000000027
 30
0.0
 11
-28.4789999999999992
 21
-328.3870000000000005
 31
0.0
  0
LINE
  5
E4
100
AcDbEntity
100
AcDbLine
  8
0
 62
256
370
-1
  6
ByLayer
 10
-28.4789999999999992
 20
-328.3870000000000005
 30
0.0
 11
-28.5530000000000008
 21
-328.3170000000000073
 31
0.0
  0
LINE
  5
E5
100
AcDbEntity
100
AcDbLine
  8
0
 62
256
370
-1
  6
ByLayer
 10
-28.5530000000000008
 20
-328.3170000000000073
 30
0.0
 11
-28.6189999999999998
 21
-328.2379999999999995
 31
0.0
  0
LINE
  5
E6
100
AcDbEntity
100
AcDbLine
  8
0
 62
256
370
-1
  6
ByLayer
 10
-28.6189999999999998
 20
-328.2379999999999995
 30
0.0
 11
-28.6729999999999983
 21
-328.1519999999999868
 31
0.0
  0
LINE
  5
E7
100
AcDbEntity
100
AcDbLine
  8
0
 62
256
370
-1
  6
ByLayer
 10
-28.6729999999999983
 20
-328.1519999999999868
 30
0.0
 11
-28.7169999999999987
 21
-328.0600000000000023
 31
0.0
  0
LINE
  5
E8
100
AcDbEntity
100
AcDbLine
  8
0
 62
256
370
-1
  6
ByLayer
 10
-28.7169999999999987
 20
-328.0600000000000023
 30
0.0
 11
-28.7480000000000011
 21
-327.9619999999999891
 31
0.0
  0
LINE
  5
E9
100
AcDbEntity
100
AcDbLine
  8
0
 62
256
370
-1
  6
ByLayer
 10
-28.7480000000000011
 20
-327.9619999999999891
 30
0.0
 11
-28.7680000000000007
 21
-327.8620000000000232
 31
0.0
  0
LINE
  5
EA
100
AcDbEntity
100
AcDbLine
  8
0
 62
256
370
-1
  6
ByLayer
 10
-28.7680000000000007
 20
-327.8620000000000232
 30
0.0
 11
-28.7740000000000009
 21
-327.7599999999999909
 31
0.0
  0
LINE
  5
EB
100
AcDbEntity
100
AcDbLine
  8
0
 62
256
370
-1
  6
ByLayer
 10
-28.7740000000000009
 20
-193.1399999999999864
 30
0.0
 11
-28.7680000000000007
 21
-193.0380000000000109
 31
0.0
  0
LINE
  5
EC
100
AcDbEntity
100
AcDbLine
  8
0
 62
256
370
-1
  6
ByLayer
 10
-28.7680000000000007
 20
-193.0380000000000109
 30
0.0
 11
-28.7480000000000011
 21
-192.9379999999999882
 31
0.0
  0
LINE
  5
ED
100
AcDbEntity
100
AcDbLine
  8
0
 62
256
370
-1
  6
ByLayer
 10
-28.7480000000000011
 20
-192.9379999999999882
 30
0.0
 11
-28.7169999999999987
 21
-192.8400000000000034
 31
0.0
  0
LINE
  5
EE
100
AcDbEntity
100
AcDbLine
  8
0
 62
256
370
-1
  6
ByLayer
 10
-28.7169999999999987
 20
-192.8400000000000034
 30
0.0
 11
-28.6729999999999983
 21
-192.7479999999999905
 31
0.0
  0
LINE
  5
EF
100
AcDbEntity
100
AcDbLine
  8
0
 62
256
370
-1
  6
ByLayer
 10
-28.6729999999999983
 20
-192.7479999999999905
 30
0.0
 11
-28.6189999999999998
 21
-192.6620000000000061
 31
0.0
  0
LINE
  5
F0
100
AcDbEntity
100
AcDbLine
  8
0
 62
256
370
-1
  6
ByLayer
 10
-28.6189999999999998
 20
-192.6620000000000061
 30
0.0
 11
-28.5530000000000008
 21
-192.5829999999999984
 31
0.0
  0
LINE
  5
F1
100
AcDbEntity
100
AcDbLine
  8
0
 62
256
370
-1
  6
ByLayer
 10
-28.5530000000000008
 20
-192.5829999999999984
 30
0.0
 11
-28.4789999999999992
 21
-192.5130000000000052
 31
0.0
  0
LINE
  5
F2
100
AcDbEntity
100
AcDbLine
  8
0
 62
256
370
-1
  6
ByLayer
 10
-28.4789999999999992
 20
-192.5130000000000052
 30
0.0
 11
-28.3960000000000008
 21
-192.453000000000003
 31
0.0
  0
LINE
  5
F3
100
AcDbEntity
100
AcDbLine
  8
0
 62
256
370
-1
  6
ByLayer
 10
-28.3960000000000008
 20
-192.453000000000003
 30
0.0
 11
-28.3069999999999986
 21
-192.4029999999999916
 31
0.0
  0
LINE
  5
F4
100
AcDbEntity
100
AcDbLine
  8
0
 62
256
370
-1
  6
ByLayer
 10
-28.3069999999999986
 20
-192.4029999999999916
 30
0.0
 11
-28.2119999999999997
 21
-192.3660000000000139
 31
0.0
  0
LINE
  5
F5
100
AcDbEntity
100
AcDbLine
  8
0
 62
256
370
-1
  6
ByLayer
 10
-28.2119999999999997
 20
-192.3660000000000139
 30
0.0
 11
-28.1129999999999995
 21
-192.3400000000000034
 31
0.0
  0
LINE
  5
F6
100
AcDbEntity
100
AcDbLine
  8
0
 62
256
370
-1
  6
ByLayer
 10
-28.1129999999999995
 20
-192.3400000000000034
 30
0.0
 11
-28.0109999999999992
 21
-192.328000000000003
 31
0.0
  0
LINE
  5
F7
100
AcDbEntity
100
AcDbLine
  8
0
 62
256
370
-1
  6
ByLayer
 10
-28.0109999999999992
 20
-192.328000000000003
 30
0.0
 11
-27.9089999999999989
 21
-192.328000000000003
 31
0.0
  0
LINE
  5
F8
100
AcDbEntity
100
AcDbLine
  8
0
 62
256
370
-1
  6
ByLayer
 10
-27.9089999999999989
 20
-192.328000000000003
 30
0.0
 11
-27.8069999999999986
 21
-192.3400000000000034
 31
0.0
  0
LINE
  5
F9
100
AcDbEntity
100
AcDbLine
  8
0
 62
256
370
-1
  6
ByLayer
 10
-27.8069999999999986
 20
-192.3400000000000034
 30
0.0
 11
-27.7079999999999984
 21
-192.3660000000000139
 31
0.0
  0
LINE
  5
FA
100
AcDbEntity
100
AcDbLine
  8
0
 62
256
370
-1
  6
ByLayer
 10
-27.7079999999999984
 20
-192.3660000000000139
 30
0.0
 11
-27.6129999999999995
 21
-192.4029999999999916
 31
0.0
  0
LINE
  5
FB
100
AcDbEntity
100
AcDbLine
  8
0
 62
256
370
-1
  6
ByLayer
 10
-27.6129999999999995
 20
-192.4029999999999916
 30
0.0
 11
-27.5240000000000009
 21
-192.453000000000003
 31
0.0
  0
LINE
  5
FC
100
AcDbEntity
100
AcDbLine
  8
0
 62
256
370
-1
  6
ByLayer
 10
-27.5240000000000009
 20
-192.453000000000003
 30
0.0
 11
-27.4409999999999989
 21
-192.5130000000000052
 31
0.0
  0
LINE
  5
FD
100
AcDbEntity
100
AcDbLine
  8
0
 62
256
370
-1
  6
ByLayer
 10
-27.4409999999999989
 20
-192.5130000000000052
 30
0.0
 11
-27.3670000000000009
 21
-192.5829999999999984
 31
0.0
  0
LINE
  5
FE
100
AcDbEntity
100
AcDbLine
  8
0
 62
256
370
-1
  6
ByLayer
 10
-27.3670000000000009
 20
-192.5829999999999984
 30
0.0
 11
-27.3009999999999984
 21
-192.6620000000000061
 31
0.0
  0
LINE
  5
FF
100
AcDbEntity
100
AcDbLine
  8
0
 62
256
370
-1
  6
ByLayer
 10
-27.3009999999999984
 20
-192.6620000000000061
 30
0.0
 11
-27.2469999999999999
 21
-192.7479999999999905
 31
0.0
  0
LINE
  5
100
100
AcDbEntity
100
AcDbLine
  8
0
 62
256
370
-1
  6
ByLayer
 10
-27.2469999999999999
 20
-192.7479999999999905
 30
0.0
 11
-27.2029999999999994
 21
-192.8400000000000034
 31
0.0
  0
LINE
  5
101
100
AcDbEntity
100
AcDbLine
  8
0
 62
256
370
-1
  6
ByLayer
 10
-27.2029999999999994
 20
-192.8400000000000034
 30
0.0
 11
-27.1720000000000006
 21
-192.9379999999999882
 31
0.0
  0
LINE
  5
102
100
AcDbEntity
100
AcDbLine
  8
0
 62
256
370
-1
  6
ByLayer
 10
-27.1720000000000006
 20
-192.9379999999999882
 30
0.0
 11
-27.152000000000001
 21
-193.0380000000000109
 31
0.0
  0
LINE
  5
103
100
AcDbEntity
100
AcDbLine
  8
0
 62
256
370
-1
  6
ByLayer
 10
-27.152000000000001
 20
-193.0380000000000109
 30
0.0
 11
-27.1460000000000008
 21
-193.1399999999999864
 31
0.0
  0
LINE
  5
104
100
AcDbEntity
100
AcDbLine
  8
0
 62
256
370
-1
  6
ByLayer
 10
-27.1460000000000008
 20
-193.1399999999999864
 30
0.0
 11
-27.152000000000001
 21
-193.2419999999999902
 31
0.0
  0
LINE
  5
105
100
AcDbEntity
100
AcDbLine
  8
0
 62
256
370
-1
  6
ByLayer
 10
-27.152000000000001
 20
-193.2419999999999902
 30
0.0
 11
-27.1720000000000006
 21
-193.342000000000013
 31
0.0
  0
LINE
  5
106
100
AcDbEntity
100
AcDbLine
  8
0
 62
256
370
-1
  6
ByLayer
 10
-27.1720000000000006
 20
-193.342000000000013
 30
0.0
 11
-27.2029999999999994
 21
-193.4399999999999977
 31
0.0
  0
LINE
  5
107
100
AcDbEntity
100
AcDbLine
  8
0
 62
256
370
-1
  6
ByLayer
 10
-27.2029999999999994
 20
-193.4399999999999977
 30
0.0
 11
-27.2469999999999999
 21
-193.5320000000000107
 31
0.0
  0
LINE
  5
108
100
AcDbEntity
100
AcDbLine
  8
0
 62
256
370
-1
  6
ByLayer
 10
-27.2469999999999999
 20
-193.5320000000000107
 30
0.0
 11
-27.3009999999999984
 21
-193.617999999999995
 31
0.0
  0
LINE
  5
109
100
AcDbEntity
100
AcDbLine
  8
0
 62
256
370
-1
  6
ByLayer
 10
-27.3009999999999984
 20
-193.617999999999995
 30
0.0
 11
-27.3670000000000009
 21
-193.6970000000000027
 31
0.0
  0
LINE
  5
10A
100
AcDbEntity
100
AcDbLine
  8
0
 62
256
370
-1
  6
ByLayer
 10
-27.3670000000000009
 20
-193.6970000000000027
 30
0.0
 11
-27.4409999999999989
 21
-193.7669999999999959
 31
0.0
  0
LINE
  5
10B
100
AcDbEntity
100
AcDbLine
  8
0
 62
256
370
-1
  6
ByLayer
 10
-27.4409999999999989
 20
-193.7669999999999959
 30
0.0
 11
-27.5240000000000009
 21
-193.8269999999999982
 31
0.0
  0
LINE
  5
10C
100
AcDbEntity
100
AcDbLine
  8
0
 62
256
370
-1
  6
ByLayer
 10
-27.5240000000000009
 20
-193.8269999999999982
 30
0.0
 11
-27.6129999999999995
 21
-193.8770000000000095
 31
0.0
  0
LINE
  5
10D
100
AcDbEntity
100
AcDbLine
  8
0
 62
256
370
-1
  6
ByLayer
 10
-27.6129999999999995
 20
-193.8770000000000095
 30
0.0
 11
-27.7079999999999984
 21
-193.9139999999999873
 31
0.0
  0
LINE
  5
10E
100
AcDbEntity
100
AcDbLine
  8
0
 62
256
370
-1
  6
ByLayer
 10
-27.7079999999999984
 20
-193.9139999999999873
 30
0.0
 11
-27.8069999999999986
 21
-193.9399999999999977
 31
0.0
  0
LINE
  5
10F
100
AcDbEntity
100
AcDbLine
  8
0
 62
256
370
-1
  6
ByLayer
 10
-27.8069999999999986
 20
-193.9399999999999977
 30
0.0
 11
-27.9089999999999989
 21
-193.9519999999999982
 31
0.0
  0
LINE
  5
110
100
AcDbEntity
100
AcDbLine
  8
0
 62
256
370
-1
  6
ByLayer
 10
-27.9089999999999989
 20
-193.9519999999999982
 30
0.0
 11
-28.0109999999999992
 21
-193.9519999999999982
 31
0.0
  0
LINE
  5
111
100
AcDbEntity
100
AcDbLine
  8
0
 62
256
370
-1
  6
ByLayer
 10
-28.0109999999999992
 20
-193.9519999999999982
 30
0.0
 11
-28.1129999999999995
 21
-193.9399999999999977
 31
0.0
  0
LINE
  5
112
100
AcDbEntity
100
AcDbLine
  8
0
 62
256
370
-1
  6
ByLayer
 10
-28.1129999999999995
 20
-193.9399999999999977
 30
0.0
 11
-28.2119999999999997
 21
-193.9139999999999873
 31
0.0
  0
LINE
  5
113
100
AcDbEntity
100
AcDbLine
  8
0
 62
256
370
-1
  6
ByLayer
 10
-28.2119999999999997
 20
-193.9139999999999873
 30
0.0
 11
-28.3069999999999986
 21
-193.8770000000000095
 31
0.0
  0
LINE
  5
114
100
AcDbEntity
100
AcDbLine
  8
0
 62
256
370
-1
  6
ByLayer
 10
-28.3069999999999986
 20
-193.8770000000000095
 30
0.0
 11
-28.3960000000000008
 21
-193.8269999999999982
 31
0.0
  0
LINE
  5
115
100
AcDbEntity
100
AcDbLine
  8
0
 62
256
370
-1
  6
ByLayer
 10
-28.3960000000000008
 20
-193.8269999999999982
 30
0.0
 11
-28.4789999999999992
 21
-193.7669999999999959
 31
0.0
  0
LINE
  5
116
100
AcDbEntity
100
AcDbLine
  8
0
 62
256
370
-1
  6
ByLayer
 10
-28.4789999999999992
 20
-193.7669999999999959
 30
0.0
 11
-28.5530000000000008
 21
-193.6970000000000027
 31
0.0
  0
LINE
  5
117
100
AcDbEntity
100
AcDbLine
  8
0
 62
256
370
-1
  6
ByLayer
 10
-28.5530000000000008
 20
-193.6970000000000027
 30
0.0
 11
-28.6189999999999998
 21
-193.617999999999995
 31
0.0
  0
LINE
  5
118
100
AcDbEntity
100
AcDbLine
  8
0
 62
256
370
-1
  6
ByLayer
 10
-28.6189999999999998
 20
-193.617999999999995
 30
0.0
 11
-28.6729999999999983
 21
-193.5320000000000107
 31
0.0
  0
LINE
  5
119
100
AcDbEntity
100
AcDbLine
  8
0
 62
256
370
-1
  6
ByLayer
 10
-28.6729999999999983
 20
-193.5320000000000107
 30
0.0
 11
-28.7169999999999987
 21
-193.4399999999999977
 31
0.0
  0
LINE
  5
11A
100
AcDbEntity
100
AcDbLine
  8
0
 62
256
370
-1
  6
ByLayer
 10
-28.7169999999999987
 20
-193.4399999999999977
 30
0.0
 11
-28.7480000000000011
 21
-193.342000000000013
 31
0.0
  0
LINE
  5
11B
100
AcDbEntity
100
AcDbLine
  8
0
 62
256
370
-1
  6
ByLayer
 10
-28.7480000000000011
 20
-193.342000000000013
 30
0.0
 11
-28.7680000000000007
 21
-193.2419999999999902
 31
0.0
  0
LINE
  5
11C
100
AcDbEntity
100
AcDbLine
  8
0
 62
256
370
-1
  6
ByLayer
 10
-28.7680000000000007
 20
-193.2419999999999902
 30
0.0
 11
-28.7740000000000009
 21
-193.1399999999999864
 31
0.0
  0
LINE
  5
11D
100
AcDbEntity
100
AcDbLine
  8
0
 62
256
370
-1
  6
ByLayer
 10
-28.1539999999999999
 20
-377.4230000000000018
 30
0.0
 11
-28.1449999999999996
 21
-377.2819999999999823
 31
0.0
  0
LINE
  5
11E
100
AcDbEntity
100
AcDbLine
  8
0
 62
256
370
-1
  6
ByLayer
 10
-28.1449999999999996
 20
-377.2819999999999823
 30
0.0
 11
-28.1179999999999986
 21
-377.1419999999999959
 31
0.0
  0
LINE
  5
11F
100
AcDbEntity
100
AcDbLine
  8
0
 62
256
370
-1
  6
ByLayer
 10
-28.1179999999999986
 20
-377.1419999999999959
 30
0.0
 11
-28.0740000000000016
 21
-377.007000000000005
 31
0.0
  0
LINE
  5
120
100
AcDbEntity
100
AcDbLine
  8
0
 62
256
370
-1
  6
ByLayer
 10
-28.0740000000000016
 20
-377.007000000000005
 30
0.0
 11
-28.0139999999999993
 21
-376.8790000000000191
 31
0.0
  0
LINE
  5
121
100
AcDbEntity
100
AcDbLine
  8
0
 62
256
370
-1
  6
ByLayer
 10
-28.0139999999999993
 20
-376.8790000000000191
 30
0.0
 11
-27.9379999999999988
 21
-376.7590000000000146
 31
0.0
  0
LINE
  5
122
100
AcDbEntity
100
AcDbLine
  8
0
 62
256
370
-1
  6
ByLayer
 10
-27.9379999999999988
 20
-376.7590000000000146
 30
0.0
 11
-27.8470000000000013
 21
-376.6499999999999773
 31
0.0
  0
LINE
  5
123
100
AcDbEntity
100
AcDbLine
  8
0
 62
256
370
-1
  6
ByLayer
 10
-27.8470000000000013
 20
-376.6499999999999773
 30
0.0
 11
-27.7439999999999998
 21
-376.5520000000000209
 31
0.0
  0
LINE
  5
124
100
AcDbEntity
100
AcDbLine
  8
0
 62
256
370
-1
  6
ByLayer
 10
-27.7439999999999998
 20
-376.5520000000000209
 30
0.0
 11
-27.6290000000000013
 21
-376.4689999999999941
 31
0.0
  0
LINE
  5
125
100
AcDbEntity
100
AcDbLine
  8
0
 62
256
370
-1
  6
ByLayer
 10
-27.6290000000000013
 20
-376.4689999999999941
 30
0.0
 11
-27.504999999999999
 21
-376.4010000000000105
 31
0.0
  0
LINE
  5
126
100
AcDbEntity
100
AcDbLine
  8
0
 62
256
370
-1
  6
ByLayer
 10
-27.504999999999999
 20
-376.4010000000000105
 30
0.0
 11
-27.3730000000000011
 21
-376.3480000000000132
 31
0.0
  0
LINE
  5
127
100
AcDbEntity
100
AcDbLine
  8
0
 62
256
370
-1
  6
ByLayer
 10
-27.3730000000000011
 20
-376.3480000000000132
 30
0.0
 11
-27.2349999999999994
 21
-376.3129999999999882
 31
0.0
  0
LINE
  5
128
100
AcDbEntity
100
AcDbLine
  8
0
 62
256
370
-1
  6
ByLayer
 10
-27.2349999999999994
 20
-376.3129999999999882
 30
0.0
 11
-27.0940000000000012
 21
-376.2950000000000159
 31
0.0
  0
LINE
  5
129
100
AcDbEntity
100
AcDbLine
  8
0
 62
256
370
-1
  6
ByLayer
 10
-27.0940000000000012
 20
-376.2950000000000159
 30
0.0
 11
-26.9520000000000017
 21
-376.2950000000000159
 31
0.0
  0
LINE
  5
12A
100
AcDbEntity
100
AcDbLine
  8
0
 62
256
370
-1
  6
ByLayer
 10
-26.9520000000000017
 20
-376.2950000000000159
 30
0.0
 11
-26.8120000000000012
 21
-376.3129999999999882
 31
0.0
  0
LINE
  5
12B
100
AcDbEntity
100
AcDbLine
  8
0
 62
256
370
-1
  6
ByLayer
 10
-26.8120000000000012
 20
-376.3129999999999882
 30
0.0
 11
-26.6739999999999995
 21
-376.3480000000000132
 31
0.0
  0
LINE
  5
12C
100
AcDbEntity
100
AcDbLine
  8
0
 62
256
370
-1
  6
ByLayer
 10
-26.6739999999999995
 20
-376.3480000000000132
 30
0.0
 11
-26.5420000000000016
 21
-376.4010000000000105
 31
0.0
  0
LINE
  5
12D
100
AcDbEntity
100
AcDbLine
  8
0
 62
256
370
-1
  6
ByLayer
 10
-26.5420000000000016
 20
-376.4010000000000105
 30
0.0
 11
-26.4179999999999993
 21
-376.4689999999999941
 31
0.0
  0
LINE
  5
12E
100
AcDbEntity
100
AcDbLine
  8
0
 62
256
370
-1
  6
ByLayer
 10
-26.4179999999999993
 20
-376.4689999999999941
 30
0.0
 11
-26.3030000000000008
 21
-376.5520000000000209
 31
0.0
  0
LINE
  5
12F
100
AcDbEntity
100
AcDbLine
  8
0
 62
256
370
-1
  6
ByLayer
 10
-26.3030000000000008
 20
-376.5520000000000209
 30
0.0
 11
-26.1990000000000016
 21
-376.6499999999999773
 31
0.0
  0
LINE
  5
130
100
AcDbEntity
100
AcDbLine
  8
0
 62
256
370
-1
  6
ByLayer
 10
-26.1990000000000016
 20
-376.6499999999999773
 30
0.0
 11
-26.1090000000000018
 21
-376.7590000000000146
 31
0.0
  0
LINE
  5
131
100
AcDbEntity
100
AcDbLine
  8
0
 62
256
370
-1
  6
ByLayer
 10
-26.1090000000000018
 20
-376.7590000000000146
 30
0.0
 11
-26.0330000000000013
 21
-376.8790000000000191
 31
0.0
  0
LINE
  5
132
100
AcDbEntity
100
AcDbLine
  8
0
 62
256
370
-1
  6
ByLayer
 10
-26.0330000000000013
 20
-376.8790000000000191
 30
0.0
 11
-25.9720000000000013
 21
-377.007000000000005
 31
0.0
  0
LINE
  5
133
100
AcDbEntity
100
AcDbLine
  8
0
 62
256
370
-1
  6
ByLayer
 10
-25.9720000000000013
 20
-377.007000000000005
 30
0.0
 11
-25.9289999999999985
 21
-377.1419999999999959
 31
0.0
  0
LINE
  5
134
100
AcDbEntity
100
AcDbLine
  8
0
 62
256
370
-1
  6
ByLayer
 10
-25.9289999999999985
 20
-377.1419999999999959
 30
0.0
 11
-25.902000000000001
 21
-377.2819999999999823
 31
0.0
  0
LINE
  5
135
100
AcDbEntity
100
AcDbLine
  8
0
 62
256
370
-1
  6
ByLayer
 10
-25.902000000000001
 20
-377.2819999999999823
 30
0.0
 11
-25.8930000000000007
 21
-377.4230000000000018
 31
0.0
  0
LINE
  5
136
100
AcDbEntity
100
AcDbLine
  8
0
 62
256
370
-1
  6
ByLayer
 10
-25.8930000000000007
 20
-377.4230000000000018
 30
0.0
 11
-25.902000000000001
 21
-377.5649999999999977
 31
0.0
  0
LINE
  5
137
100
AcDbEntity
100
AcDbLine
  8
0
 62
256
370
-1
  6
ByLayer
 10
-25.902000000000001
 20
-377.5649999999999977
 30
0.0
 11
-25.9289999999999985
 21
-377.7040000000000077
 31
0.0
  0
LINE
  5
138
100
AcDbEntity
100
AcDbLine
  8
0
 62
256
370
-1
  6
ByLayer
 10
-25.9289999999999985
 20
-377.7040000000000077
 30
0.0
 11
-25.9720000000000013
 21
-377.8389999999999986
 31
0.0
  0
LINE
  5
139
100
AcDbEntity
100
AcDbLine
  8
0
 62
256
370
-1
  6
ByLayer
 10
-25.9720000000000013
 20
-377.8389999999999986
 30
0.0
 11
-26.0330000000000013
 21
-377.9680000000000177
 31
0.0
  0
LINE
  5
13A
100
AcDbEntity
100
AcDbLine
  8
0
 62
256
370
-1
  6
ByLayer
 10
-26.0330000000000013
 20
-377.9680000000000177
 30
0.0
 11
-26.1090000000000018
 21
-378.0880000000000223
 31
0.0
  0
LINE
  5
13B
100
AcDbEntity
100
AcDbLine
  8
0
 62
256
370
-1
  6
ByLayer
 10
-26.1090000000000018
 20
-378.0880000000000223
 30
0.0
 11
-26.1990000000000016
 21
-378.1970000000000027
 31
0.0
  0
LINE
  5
13C
100
AcDbEntity
100
AcDbLine
  8
0
 62
256
370
-1
  6
ByLayer
 10
-26.1990000000000016
 20
-378.1970000000000027
 30
0.0
 11
-26.3030000000000008
 21
-378.2939999999999827
 31
0.0
  0
LINE
  5
13D
100
AcDbEntity
100
AcDbLine
  8
0
 62
256
370
-1
  6
ByLayer
 10
-26.3030000000000008
 20
-378.2939999999999827
 30
0.0
 11
-26.4179999999999993
 21
-378.3779999999999859
 31
0.0
  0
LINE
  5
13E
100
AcDbEntity
100
AcDbLine
  8
0
 62
256
370
-1
  6
ByLayer
 10
-26.4179999999999993
 20
-378.3779999999999859
 30
0.0
 11
-26.5420000000000016
 21
-378.4460000000000264
 31
0.0
  0
LINE
  5
13F
100
AcDbEntity
100
AcDbLine
  8
0
 62
256
370
-1
  6
ByLayer
 10
-26.5420000000000016
 20
-378.4460000000000264
 30
0.0
 11
-26.6739999999999995
 21
-378.4979999999999905
 31
0.0
  0
LINE
  5
140
100
AcDbEntity
100
AcDbLine
  8
0
 62
256
370
-1
  6
ByLayer
 10
-26.6739999999999995
 20
-378.4979999999999905
 30
0.0
 11
-26.8120000000000012
 21
-378.5339999999999918
 31
0.0
  0
LINE
  5
141
100
AcDbEntity
100
AcDbLine
  8
0
 62
256
370
-1
  6
ByLayer
 10
-26.8120000000000012
 20
-378.5339999999999918
 30
0.0
 11
-26.9520000000000017
 21
-378.5509999999999877
 31
0.0
  0
LINE
  5
142
100
AcDbEntity
100
AcDbLine
  8
0
 62
256
370
-1
  6
ByLayer
 10
-26.9520000000000017
 20
-378.5509999999999877
 30
0.0
 11
-27.0940000000000012
 21
-378.5509999999999877
 31
0.0
  0
LINE
  5
143
100
AcDbEntity
100
AcDbLine
  8
0
 62
256
370
-1
  6
ByLayer
 10
-27.0940000000000012
 20
-378.5509999999999877
 30
0.0
 11
-27.2349999999999994
 21
-378.5339999999999918
 31
0.0
  0
LINE
  5
144
100
AcDbEntity
100
AcDbLine
  8
0
 62
256
370
-1
  6
ByLayer
 10
-27.2349999999999994
 20
-378.5339999999999918
 30
0.0
 11
-27.3730000000000011
 21
-378.4979999999999905
 31
0.0
  0
LINE
  5
145
100
AcDbEntity
100
AcDbLine
  8
0
 62
256
370
-1
  6
ByLayer
 10
-27.3730000000000011
 20
-378.4979999999999905
 30
0.0
 11
-27.504999999999999
 21
-378.4460000000000264
 31
0.0
  0
LINE
  5
146
100
AcDbEntity
100
AcDbLine
  8
0
 62
256
370
-1
  6
ByLayer
 10
-27.504999999999999
 20
-378.4460000000000264
 30
0.0
 11
-27.6290000000000013
 21
-378.3779999999999859
 31
0.0
  0
LINE
  5
147
100
AcDbEntity
100
AcDbLine
  8
0
 62
256
370
-1
  6
ByLayer
 10
-27.6290000000000013
 20
-378.3779999999999859
 30
0.0
 11
-27.7439999999999998
 21
-378.2939999999999827
 31
0.0
  0
LINE
  5
148
100
AcDbEntity
100
AcDbLine
  8
0
 62
256
370
-1
  6
ByLayer
 10
-27.7439999999999998
 20
-378.2939999999999827
 30
0.0
 11
-27.8470000000000013
 21
-378.1970000000000027
 31
0.0
  0
LINE
  5
149
100
AcDbEntity
100
AcDbLine
  8
0
 62
256
370
-1
  6
ByLayer
 10
-27.8470000000000013
 20
-378.1970000000000027
 30
0.0
 11
-27.9379999999999988
 21
-378.0880000000000223
 31
0.0
  0
LINE
  5
14A
100
AcDbEntity
100
AcDbLine
  8
0
 62
256
370
-1
  6
ByLayer
 10
-27.9379999999999988
 20
-378.0880000000000223
 30
0.0
 11
-28.0139999999999993
 21
-377.9680000000000177
 31
0.0
  0
LINE
  5
14B
100
AcDbEntity
100
AcDbLine
  8
0
 62
256
370
-1
  6
ByLayer
 10
-28.0139999999999993
 20
-377.9680000000000177
 30
0.0
 11
-28.0740000000000016
 21
-377.8389999999999986
 31
0.0
  0
LINE
  5
14C
100
AcDbEntity
100
AcDbLine
  8
0
 62
256
370
-1
  6
ByLayer
 10
-28.0740000000000016
 20
-377.8389999999999986
 30
0.0
 11
-28.1179999999999986
 21
-377.7040000000000077
 31
0.0
  0
LINE
  5
14D
100
AcDbEntity
100
AcDbLine
  8
0
 62
256
370
-1
  6
ByLayer
 10
-28.1179999999999986
 20
-377.7040000000000077
 30
0.0
 11
-28.1449999999999996
 21
-377.5649999999999977
 31
0.0
  0
LINE
  5
14E
100
AcDbEntity
100
AcDbLine
  8
0
 62
256
370
-1
  6
ByLayer
 10
-28.1449999999999996
 20
-377.5649999999999977
 30
0.0
 11
-28.1539999999999999
 21
-377.4230000000000018
 31
0.0
  0
LINE
  5
14F
100
AcDbEntity
100
AcDbLine
  8
0
 62
256
370
-1
  6
ByLayer
 10
-28.1539999999999999
 20
-181.5769999999999982
 30
0.0
 11
-28.1449999999999996
 21
-181.4350000000000023
 31
0.0
  0
LINE
  5
150
100
AcDbEntity
100
AcDbLine
  8
0
 62
256
370
-1
  6
ByLayer
 10
-28.1449999999999996
 20
-181.4350000000000023
 30
0.0
 11
-28.1179999999999986
 21
-181.2959999999999923
 31
0.0
  0
LINE
  5
151
100
AcDbEntity
100
AcDbLine
  8
0
 62
256
370
-1
  6
ByLayer
 10
-28.1179999999999986
 20
-181.2959999999999923
 30
0.0
 11
-28.0740000000000016
 21
-181.1610000000000014
 31
0.0
  0
LINE
  5
152
100
AcDbEntity
100
AcDbLine
  8
0
 62
256
370
-1
  6
ByLayer
 10
-28.0740000000000016
 20
-181.1610000000000014
 30
0.0
 11
-28.0139999999999993
 21
-181.0320000000000107
 31
0.0
  0
LINE
  5
153
100
AcDbEntity
100
AcDbLine
  8
0
 62
256
370
-1
  6
ByLayer
 10
-28.0139999999999993
 20
-181.0320000000000107
 30
0.0
 11
-27.9379999999999988
 21
-180.9120000000000061
 31
0.0
  0
LINE
  5
154
100
AcDbEntity
100
AcDbLine
  8
0
 62
256
370
-1
  6
ByLayer
 10
-27.9379999999999988
 20
-180.9120000000000061
 30
0.0
 11
-27.8470000000000013
 21
-180.8029999999999973
 31
0.0
  0
LINE
  5
155
100
AcDbEntity
100
AcDbLine
  8
0
 62
256
370
-1
  6
ByLayer
 10
-27.8470000000000013
 20
-180.8029999999999973
 30
0.0
 11
-27.7439999999999998
 21
-180.7059999999999889
 31
0.0
  0
LINE
  5
156
100
AcDbEntity
100
AcDbLine
  8
0
 62
256
370
-1
  6
ByLayer
 10
-27.7439999999999998
 20
-180.7059999999999889
 30
0.0
 11
-27.6290000000000013
 21
-180.6220000000000141
 31
0.0
  0
LINE
  5
157
100
AcDbEntity
100
AcDbLine
  8
0
 62
256
370
-1
  6
ByLayer
 10
-27.6290000000000013
 20
-180.6220000000000141
 30
0.0
 11
-27.504999999999999
 21
-180.554000000000002
 31
0.0
  0
LINE
  5
158
100
AcDbEntity
100
AcDbLine
  8
0
 62
256
370
-1
  6
ByLayer
 10
-27.504999999999999
 20
-180.554000000000002
 30
0.0
 11
-27.3730000000000011
 21
-180.5020000000000095
 31
0.0
  0
LINE
  5
159
100
AcDbEntity
100
AcDbLine
  8
0
 62
256
370
-1
  6
ByLayer
 10
-27.3730000000000011
 20
-180.5020000000000095
 30
0.0
 11
-27.2349999999999994
 21
-180.4660000000000082
 31
0.0
  0
LINE
  5
15A
100
AcDbEntity
100
AcDbLine
  8
0
 62
256
370
-1
  6
ByLayer
 10
-27.2349999999999994
 20
-180.4660000000000082
 30
0.0
 11
-27.0940000000000012
 21
-180.4490000000000123
 31
0.0
  0
LINE
  5
15B
100
AcDbEntity
100
AcDbLine
  8
0
 62
256
370
-1
  6
ByLayer
 10
-27.0940000000000012
 20
-180.4490000000000123
 30
0.0
 11
-26.9520000000000017
 21
-180.4490000000000123
 31
0.0
  0
LINE
  5
15C
100
AcDbEntity
100
AcDbLine
  8
0
 62
256
370
-1
  6
ByLayer
 10
-26.9520000000000017
 20
-180.4490000000000123
 30
0.0
 11
-26.8120000000000012
 21
-180.4660000000000082
 31
0.0
  0
LINE
  5
15D
100
AcDbEntity
100
AcDbLine
  8
0
 62
256
370
-1
  6
ByLayer
 10
-26.8120000000000012
 20
-180.4660000000000082
 30
0.0
 11
-26.6739999999999995
 21
-180.5020000000000095
 31
0.0
  0
LINE
  5
15E
100
AcDbEntity
100
AcDbLine
  8
0
 62
256
370
-1
  6
ByLayer
 10
-26.6739999999999995
 20
-180.5020000000000095
 30
0.0
 11
-26.5420000000000016
 21
-180.554000000000002
 31
0.0
  0
LINE
  5
15F
100
AcDbEntity
100
AcDbLine
  8
0
 62
256
370
-1
  6
ByLayer
 10
-26.5420000000000016
 20
-180.554000000000002
 30
0.0
 11
-26.4179999999999993
 21
-180.6220000000000141
 31
0.0
  0
LINE
  5
160
100
AcDbEntity
100
AcDbLine
  8
0
 62
256
370
-1
  6
ByLayer
 10
-26.4179999999999993
 20
-180.6220000000000141
 30
0.0
 11
-26.3030000000000008
 21
-180.7059999999999889
 31
0.0
  0
LINE
  5
161
100
AcDbEntity
100
AcDbLine
  8
0
 62
256
370
-1
  6
ByLayer
 10
-26.3030000000000008
 20
-180.7059999999999889
 30
0.0
 11
-26.1990000000000016
 21
-180.8029999999999973
 31
0.0
  0
LINE
  5
162
100
AcDbEntity
100
AcDbLine
  8
0
 62
256
370
-1
  6
ByLayer
 10
-26.1990000000000016
 20
-180.8029999999999973
 30
0.0
 11
-26.1090000000000018
 21
-180.9120000000000061
 31
0.0
  0
LINE
  5
163
100
AcDbEntity
100
AcDbLine
  8
0
 62
256
370
-1
  6
ByLayer
 10
-26.1090000000000018
 20
-180.9120000000000061
 30
0.0
 11
-26.0330000000000013
 21
-181.0320000000000107
 31
0.0
  0
LINE
  5
164
100
AcDbEntity
100
AcDbLine
  8
0
 62
256
370
-1
  6
ByLayer
 10
-26.0330000000000013
 20
-181.0320000000000107
 30
0.0
 11
-25.9720000000000013
 21
-181.1610000000000014
 31
0.0
  0
LINE
  5
165
100
AcDbEntity
100
AcDbLine
  8
0
 62
256
370
-1
  6
ByLayer
 10
-25.9720000000000013
 20
-181.1610000000000014
 30
0.0
 11
-25.9289999999999985
 21
-181.2959999999999923
 31
0.0
  0
LINE
  5
166
100
AcDbEntity
100
AcDbLine
  8
0
 62
256
370
-1
  6
ByLayer
 10
-25.9289999999999985
 20
-181.2959999999999923
 30
0.0
 11
-25.902000000000001
 21
-181.4350000000000023
 31
0.0
  0
LINE
  5
167
100
AcDbEntity
100
AcDbLine
  8
0
 62
256
370
-1
  6
ByLayer
 10
-25.902000000000001
 20
-181.4350000000000023
 30
0.0
 11
-25.8930000000000007
 21
-181.5769999999999982
 31
0.0
  0
LINE
  5
168
100
AcDbEntity
100
AcDbLine
  8
0
 62
256
370
-1
  6
ByLayer
 10
-25.8930000000000007
 20
-181.5769999999999982
 30
0.0
 11
-25.902000000000001
 21
-181.7179999999999893
 31
0.0
  0
LINE
  5
169
100
AcDbEntity
100
AcDbLine
  8
0
 62
256
370
-1
  6
ByLayer
 10
-25.902000000000001
 20
-181.7179999999999893
 30
0.0
 11
-25.9289999999999985
 21
-181.8580000000000041
 31
0.0
  0
LINE
  5
16A
100
AcDbEntity
100
AcDbLine
  8
0
 62
256
370
-1
  6
ByLayer
 10
-25.9289999999999985
 20
-181.8580000000000041
 30
0.0
 11
-25.9720000000000013
 21
-181.992999999999995
 31
0.0
  0
LINE
  5
16B
100
AcDbEntity
100
AcDbLine
  8
0
 62
256
370
-1
  6
ByLayer
 10
-25.9720000000000013
 20
-181.992999999999995
 30
0.0
 11
-26.0330000000000013
 21
-182.1210000000000093
 31
0.0
  0
LINE
  5
16C
100
AcDbEntity
100
AcDbLine
  8
0
 62
256
370
-1
  6
ByLayer
 10
-26.0330000000000013
 20
-182.1210000000000093
 30
0.0
 11
-26.1090000000000018
 21
-182.2410000000000139
 31
0.0
  0
LINE
  5
16D
100
AcDbEntity
100
AcDbLine
  8
0
 62
256
370
-1
  6
ByLayer
 10
-26.1090000000000018
 20
-182.2410000000000139
 30
0.0
 11
-26.1990000000000016
 21
-182.3499999999999943
 31
0.0
  0
LINE
  5
16E
100
AcDbEntity
100
AcDbLine
  8
0
 62
256
370
-1
  6
ByLayer
 10
-26.1990000000000016
 20
-182.3499999999999943
 30
0.0
 11
-26.3030000000000008
 21
-182.4480000000000075
 31
0.0
  0
LINE
  5
16F
100
AcDbEntity
100
AcDbLine
  8
0
 62
256
370
-1
  6
ByLayer
 10
-26.3030000000000008
 20
-182.4480000000000075
 30
0.0
 11
-26.4179999999999993
 21
-182.5310000000000059
 31
0.0
  0
LINE
  5
170
100
AcDbEntity
100
AcDbLine
  8
0
 62
256
370
-1
  6
ByLayer
 10
-26.4179999999999993
 20
-182.5310000000000059
 30
0.0
 11
-26.5420000000000016
 21
-182.5989999999999895
 31
0.0
  0
LINE
  5
171
100
AcDbEntity
100
AcDbLine
  8
0
 62
256
370
-1
  6
ByLayer
 10
-26.5420000000000016
 20
-182.5989999999999895
 30
0.0
 11
-26.6739999999999995
 21
-182.6519999999999868
 31
0.0
  0
LINE
  5
172
100
AcDbEntity
100
AcDbLine
  8
0
 62
256
370
-1
  6
ByLayer
 10
-26.6739999999999995
 20
-182.6519999999999868
 30
0.0
 11
-26.8120000000000012
 21
-182.6870000000000118
 31
0.0
  0
LINE
  5
173
100
AcDbEntity
100
AcDbLine
  8
0
 62
256
370
-1
  6
ByLayer
 10
-26.8120000000000012
 20
-182.6870000000000118
 30
0.0
 11
-26.9520000000000017
 21
-182.7050000000000125
 31
0.0
  0
LINE
  5
174
100
AcDbEntity
100
AcDbLine
  8
0
 62
256
370
-1
  6
ByLayer
 10
-26.9520000000000017
 20
-182.7050000000000125
 30
0.0
 11
-27.0940000000000012
 21
-182.7050000000000125
 31
0.0
  0
LINE
  5
175
100
AcDbEntity
100
AcDbLine
  8
0
 62
256
370
-1
  6
ByLayer
 10
-27.0940000000000012
 20
-182.7050000000000125
 30
0.0
 11
-27.2349999999999994
 21
-182.6870000000000118
 31
0.0
  0
LINE
  5
176
100
AcDbEntity
100
AcDbLine
  8
0
 62
256
370
-1
  6
ByLayer
 10
-27.2349999999999994
 20
-182.6870000000000118
 30
0.0
 11
-27.3730000000000011
 21
-182.6519999999999868
 31
0.0
  0
LINE
  5
177
100
AcDbEntity
100
AcDbLine
  8
0
 62
256
370
-1
  6
ByLayer
 10
-27.3730000000000011
 20
-182.6519999999999868
 30
0.0
 11
-27.504999999999999
 21
-182.5989999999999895
 31
0.0
  0
LINE
  5
178
100
AcDbEntity
100
AcDbLine
  8
0
 62
256
370
-1
  6
ByLayer
 10
-27.504999999999999
 20
-182.5989999999999895
 30
0.0
 11
-27.6290000000000013
 21
-182.5310000000000059
 31
0.0
  0
LINE
  5
179
100
AcDbEntity
100
AcDbLine
  8
0
 62
256
370
-1
  6
ByLayer
 10
-27.6290000000000013
 20
-182.5310000000000059
 30
0.0
 11
-27.7439999999999998
 21
-182.4480000000000075
 31
0.0
  0
LINE
  5
17A
100
AcDbEntity
100
AcDbLine
  8
0
 62
256
370
-1
  6
ByLayer
 10
-27.7439999999999998
 20
-182.4480000000000075
 30
0.0
 11
-27.8470000000000013
 21
-182.3499999999999943
 31
0.0
  0
LINE
  5
17B
100
AcDbEntity
100
AcDbLine
  8
0
 62
256
370
-1
  6
ByLayer
 10
-27.8470000000000013
 20
-182.3499999999999943
 30
0.0
 11
-27.9379999999999988
 21
-182.2410000000000139
 31
0.0
  0
LINE
  5
17C
100
AcDbEntity
100
AcDbLine
  8
0
 62
256
370
-1
  6
ByLayer
 10
-27.9379999999999988
 20
-182.2410000000000139
 30
0.0
 11
-28.0139999999999993
 21
-182.1210000000000093
 31
0.0
  0
LINE
  5
17D
100
AcDbEntity
100
AcDbLine
  8
0
 62
256
370
-1
  6
ByLayer
 10
-28.0139999999999993
 20
-182.1210000000000093
 30
0.0
 11
-28.0740000000000016
 21
-181.992999999999995
 31
0.0
  0
LINE
  5
17E
100
AcDbEntity
100
AcDbLine
  8
0
 62
256
370
-1
  6
ByLayer
 10
-28.0740000000000016
 20
-181.992999999999995
 30
0.0
 11
-28.1179999999999986
 21
-181.8580000000000041
 31
0.0
  0
LINE
  5
17F
100
AcDbEntity
100
AcDbLine
  8
0
 62
256
370
-1
  6
ByLayer
 10
-28.1179999999999986
 20
-181.8580000000000041
 30
0.0
 11
-28.1449999999999996
 21
-181.7179999999999893
 31
0.0
  0
LINE
  5
180
100
AcDbEntity
100
AcDbLine
  8
0
 62
256
370
-1
  6
ByLayer
 10
-28.1449999999999996
 20
-181.7179999999999893
 30
0.0
 11
-28.1539999999999999
 21
-181.5769999999999982
 31
0.0
  0
LINE
  5
181
100
AcDbEntity
100
AcDbLine
  8
0
 62
256
370
-1
  6
ByLayer
 10
-18.8500000000000014
 20
-384.1000000000000227
 30
0.0
 11
-18.8500000000000014
 21
-381.1000000000000227
 31
0.0
  0
LINE
  5
182
100
AcDbEntity
100
AcDbLine
  8
0
 62
256
370
-1
  6
ByLayer
 10
-18.8500000000000014
 20
-381.1000000000000227
 30
0.0
 11
-11.8499999999999996
 21
-381.1000000000000227
 31
0.0
  0
LINE
  5
183
100
AcDbEntity
100
AcDbLine
  8
0
 62
256
370
-1
  6
ByLayer
 10
-11.8499999999999996
 20
-381.1000000000000227
 30
0.0
 11
-11.8499999999999996
 21
-384.1000000000000227
 31
0.0
  0
LINE
  5
184
100
AcDbEntity
100
AcDbLine
  8
0
 62
256
370
-1
  6
ByLayer
 10
-11.8499999999999996
 20
-384.1000000000000227
 30
0.0
 11
-18.8500000000000014
 21
-384.1000000000000227
 31
0.0
  0
LINE
  5
185
100
AcDbEntity
100
AcDbLine
  8
0
 62
256
370
-1
  6
ByLayer
 10
-18.8500000000000014
 20
-177.9000000000000057
 30
0.0
 11
-18.8500000000000014
 21
-174.9000000000000057
 31
0.0
  0
LINE
  5
186
100
AcDbEntity
100
AcDbLine
  8
0
 62
256
370
-1
  6
ByLayer
 10
-18.8500000000000014
 20
-174.9000000000000057
 30
0.0
 11
-11.8499999999999996
 21
-174.9000000000000057
 31
0.0
  0
LINE
  5
187
100
AcDbEntity
100
AcDbLine
  8
0
 62
256
370
-1
  6
ByLayer
 10
-11.8499999999999996
 20
-174.9000000000000057
 30
0.0
 11
-11.8499999999999996
 21
-177.9000000000000057
 31
0.0
  0
LINE
  5
188
100
AcDbEntity
100
AcDbLine
  8
0
 62
256
370
-1
  6
ByLayer
 10
-11.8499999999999996
 20
-177.9000000000000057
 30
0.0
 11
-18.8500000000000014
 21
-177.9000000000000057
 31
0.0
  0
LINE
  5
189
100
AcDbEntity
100
AcDbLine
  8
0
 62
256
370
-1
  6
ByLayer
 10
11.8499999999999996
 20
-384.1000000000000227
 30
0.0
 11
11.8499999999999996
 21
-381.1000000000000227
 31
0.0
  0
LINE
  5
18A
100
AcDbEntity
100
AcDbLine
  8
0
 62
256
370
-1
  6
ByLayer
 10
11.8499999999999996
 20
-381.1000000000000227
 30
0.0
 11
18.8500000000000014
 21
-381.1000000000000227
 31
0.0
  0
LINE
  5
18B
100
AcDbEntity
100
AcDbLine
  8
0
 62
256
370
-1
  6
ByLayer
 10
18.8500000000000014
 20
-381.1000000000000227
 30
0.0
 11
18.8500000000000014
 21
-384.1000000000000227
 31
0.0
  0
LINE
  5
18C
100
AcDbEntity
100
AcDbLine
  8
0
 62
256
370
-1
  6
ByLayer
 10
18.8500000000000014
 20
-384.1000000000000227
 30
0.0
 11
11.8499999999999996
 21
-384.1000000000000227
 31
0.0
  0
LINE
  5
18D
100
AcDbEntity
100
AcDbLine
  8
0
 62
256
370
-1
  6
ByLayer
 10
11.8499999999999996
 20
-177.9000000000000057
 30
0.0
 11
11.8499999999999996
 21
-174.9000000000000057
 31
0.0
  0
LINE
  5
18E
100
AcDbEntity
100
AcDbLine
  8
0
 62
256
370
-1
  6
ByLayer
 10
11.8499999999999996
 20
-174.9000000000000057
 30
0.0
 11
18.8500000000000014
 21
-174.9000000000000057
 31
0.0
  0
LINE
  5
18F
100
AcDbEntity
100
AcDbLine
  8
0
 62
256
370
-1
  6
ByLayer
 10
18.8500000000000014
 20
-174.9000000000000057
 30
0.0
 11
18.8500000000000014
 21
-177.9000000000000057
 31
0.0
  0
LINE
  5
190
100
AcDbEntity
100
AcDbLine
  8
0
 62
256
370
-1
  6
ByLayer
 10
18.8500000000000014
 20
-177.9000000000000057
 30
0.0
 11
11.8499999999999996
 21
-177.9000000000000057
 31
0.0
  0
LINE
  5
191
100
AcDbEntity
100
AcDbLine
  8
0
 62
256
370
-1
  6
ByLayer
 10
25.8930000000000007
 20
-377.4230000000000018
 30
0.0
 11
25.902000000000001
 21
-377.2819999999999823
 31
0.0
  0
LINE
  5
192
100
AcDbEntity
100
AcDbLine
  8
0
 62
256
370
-1
  6
ByLayer
 10
25.902000000000001
 20
-377.2819999999999823
 30
0.0
 11
25.9289999999999985
 21
-377.1419999999999959
 31
0.0
  0
LINE
  5
193
100
AcDbEntity
100
AcDbLine
  8
0
 62
256
370
-1
  6
ByLayer
 10
25.9289999999999985
 20
-377.1419999999999959
 30
0.0
 11
25.9720000000000013
 21
-377.007000000000005
 31
0.0
  0
LINE
  5
194
100
AcDbEntity
100
AcDbLine
  8
0
 62
256
370
-1
  6
ByLayer
 10
25.9720000000000013
 20
-377.007000000000005
 30
0.0
 11
26.0330000000000013
 21
-376.8790000000000191
 31
0.0
  0
LINE
  5
195
100
AcDbEntity
100
AcDbLine
  8
0
 62
256
370
-1
  6
ByLayer
 10
26.0330000000000013
 20
-376.8790000000000191
 30
0.0
 11
26.1090000000000018
 21
-376.7590000000000146
 31
0.0
  0
LINE
  5
196
100
AcDbEntity
100
AcDbLine
  8
0
 62
256
370
-1
  6
ByLayer
 10
26.1090000000000018
 20
-376.7590000000000146
 30
0.0
 11
26.1990000000000016
 21
-376.6499999999999773
 31
0.0
  0
LINE
  5
197
100
AcDbEntity
100
AcDbLine
  8
0
 62
256
370
-1
  6
ByLayer
 10
26.1990000000000016
 20
-376.6499999999999773
 30
0.0
 11
26.3030000000000008
 21
-376.5520000000000209
 31
0.0
  0
LINE
  5
198
100
AcDbEntity
100
AcDbLine
  8
0
 62
256
370
-1
  6
ByLayer
 10
26.3030000000000008
 20
-376.5520000000000209
 30
0.0
 11
26.4179999999999993
 21
-376.4689999999999941
 31
0.0
  0
LINE
  5
199
100
AcDbEntity
100
AcDbLine
  8
0
 62
256
370
-1
  6
ByLayer
 10
26.4179999999999993
 20
-376.4689999999999941
 30
0.0
 11
26.5420000000000016
 21
-376.4010000000000105
 31
0.0
  0
LINE
  5
19A
100
AcDbEntity
100
AcDbLine
  8
0
 62
256
370
-1
  6
ByLayer
 10
26.5420000000000016
 20
-376.4010000000000105
 30
0.0
 11
26.6739999999999995
 21
-376.3480000000000132
 31
0.0
  0
LINE
  5
19B
100
AcDbEntity
100
AcDbLine
  8
0
 62
256
370
-1
  6
ByLayer
 10
26.6739999999999995
 20
-376.3480000000000132
 30
0.0
 11
26.8120000000000012
 21
-376.3129999999999882
 31
0.0
  0
LINE
  5
19C
100
AcDbEntity
100
AcDbLine
  8
0
 62
256
370
-1
  6
ByLayer
 10
26.8120000000000012
 20
-376.3129999999999882
 30
0.0
 11
26.9520000000000017
 21
-376.2950000000000159
 31
0.0
  0
LINE
  5
19D
100
AcDbEntity
100
AcDbLine
  8
0
 62
256
370
-1
  6
ByLayer
 10
26.9520000000000017
 20
-376.2950000000000159
 30
0.0
 11
27.0940000000000012
 21
-376.2950000000000159
 31
0.0
  0
LINE
  5
19E
100
AcDbEntity
100
AcDbLine
  8
0
 62
256
370
-1
  6
ByLayer
 10
27.0940000000000012
 20
-376.2950000000000159
 30
0.0
 11
27.2349999999999994
 21
-376.3129999999999882
 31
0.0
  0
LINE
  5
19F
100
AcDbEntity
100
AcDbLine
  8
0
 62
256
370
-1
  6
ByLayer
 10
27.2349999999999994
 20
-376.3129999999999882
 30
0.0
 11
27.3730000000000011
 21
-376.3480000000000132
 31
0.0
  0
LINE
  5
1A0
100
AcDbEntity
100
AcDbLine
  8
0
 62
256
370
-1
  6
ByLayer
 10
27.3730000000000011
 20
-376.3480000000000132
 30
0.0
 11
27.504999999999999
 21
-376.4010000000000105
 31
0.0
  0
LINE
  5
1A1
100
AcDbEntity
100
AcDbLine
  8
0
 62
256
370
-1
  6
ByLayer
 10
27.504999999999999
 20
-376.4010000000000105
 30
0.0
 11
27.6290000000000013
 21
-376.4689999999999941
 31
0.0
  0
LINE
  5
1A2
100
AcDbEntity
100
AcDbLine
  8
0
 62
256
370
-1
  6
ByLayer
 10
27.6290000000000013
 20
-376.4689999999999941
 30
0.0
 11
27.7439999999999998
 21
-376.5520000000000209
 31
0.0
  0
LINE
  5
1A3
100
AcDbEntity
100
AcDbLine
  8
0
 62
256
370
-1
  6
ByLayer
 10
27.7439999999999998
 20
-376.5520000000000209
 30
0.0
 11
27.8470000000000013
 21
-376.6499999999999773
 31
0.0
  0
LINE
  5
1A4
100
AcDbEntity
100
AcDbLine
  8
0
 62
256
370
-1
  6
ByLayer
 10
27.8470000000000013
 20
-376.6499999999999773
 30
0.0
 11
27.9379999999999988
 21
-376.7590000000000146
 31
0.0
  0
LINE
  5
1A5
100
AcDbEntity
100
AcDbLine
  8
0
 62
256
370
-1
  6
ByLayer
 10
27.9379999999999988
 20
-376.7590000000000146
 30
0.0
 11
28.0139999999999993
 21
-376.8790000000000191
 31
0.0
  0
LINE
  5
1A6
100
AcDbEntity
100
AcDbLine
  8
0
 62
256
370
-1
  6
ByLayer
 10
28.0139999999999993
 20
-376.8790000000000191
 30
0.0
 11
28.0740000000000016
 21
-377.007000000000005
 31
0.0
  0
LINE
  5
1A7
100
AcDbEntity
100
AcDbLine
  8
0
 62
256
370
-1
  6
ByLayer
 10
28.0740000000000016
 20
-377.007000000000005
 30
0.0
 11
28.1179999999999986
 21
-377.1419999999999959
 31
0.0
  0
LINE
  5
1A8
100
AcDbEntity
100
AcDbLine
  8
0
 62
256
370
-1
  6
ByLayer
 10
28.1179999999999986
 20
-377.1419999999999959
 30
0.0
 11
28.1449999999999996
 21
-377.2819999999999823
 31
0.0
  0
LINE
  5
1A9
100
AcDbEntity
100
AcDbLine
  8
0
 62
256
370
-1
  6
ByLayer
 10
28.1449999999999996
 20
-377.2819999999999823
 30
0.0
 11
28.1539999999999999
 21
-377.4230000000000018
 31
0.0
  0
LINE
  5
1AA
100
AcDbEntity
100
AcDbLine
  8
0
 62
256
370
-1
  6
ByLayer
 10
28.1539999999999999
 20
-377.4230000000000018
 30
0.0
 11
28.1449999999999996
 21
-377.5649999999999977
 31
0.0
  0
LINE
  5
1AB
100
AcDbEntity
100
AcDbLine
  8
0
 62
256
370
-1
  6
ByLayer
 10
28.1449999999999996
 20
-377.5649999999999977
 30
0.0
 11
28.1179999999999986
 21
-377.7040000000000077
 31
0.0
  0
LINE
  5
1AC
100
AcDbEntity
100
AcDbLine
  8
0
 62
256
370
-1
  6
ByLayer
 10
28.1179999999999986
 20
-377.7040000000000077
 30
0.0
 11
28.0740000000000016
 21
-377.8389999999999986
 31
0.0
  0
LINE
  5
1AD
100
AcDbEntity
100
AcDbLine
  8
0
 62
256
370
-1
  6
ByLayer
 10
28.0740000000000016
 20
-377.8389999999999986
 30
0.0
 11
28.0139999999999993
 21
-377.9680000000000177
 31
0.0
  0
LINE
  5
1AE
100
AcDbEntity
100
AcDbLine
  8
0
 62
256
370
-1
  6
ByLayer
 10
28.0139999999999993
 20
-377.9680000000000177
 30
0.0
 11
27.9379999999999988
 21
-378.0880000000000223
 31
0.0
  0
LINE
  5
1AF
100
AcDbEntity
100
AcDbLine
  8
0
 62
256
370
-1
  6
ByLayer
 10
27.9379999999999988
 20
-378.0880000000000223
 30
0.0
 11
27.8470000000000013
 21
-378.1970000000000027
 31
0.0
  0
LINE
  5
1B0
100
AcDbEntity
100
AcDbLine
  8
0
 62
256
370
-1
  6
ByLayer
 10
27.8470000000000013
 20
-378.1970000000000027
 30
0.0
 11
27.7439999999999998
 21
-378.2939999999999827
 31
0.0
  0
LINE
  5
1B1
100
AcDbEntity
100
AcDbLine
  8
0
 62
256
370
-1
  6
ByLayer
 10
27.7439999999999998
 20
-378.2939999999999827
 30
0.0
 11
27.6290000000000013
 21
-378.3779999999999859
 31
0.0
  0
LINE
  5
1B2
100
AcDbEntity
100
AcDbLine
  8
0
 62
256
370
-1
  6
ByLayer
 10
27.6290000000000013
 20
-378.3779999999999859
 30
0.0
 11
27.504999999999999
 21
-378.4460000000000264
 31
0.0
  0
LINE
  5
1B3
100
AcDbEntity
100
AcDbLine
  8
0
 62
256
370
-1
  6
ByLayer
 10
27.504999999999999
 20
-378.4460000000000264
 30
0.0
 11
27.3730000000000011
 21
-378.4979999999999905
 31
0.0
  0
LINE
  5
1B4
100
AcDbEntity
100
AcDbLine
  8
0
 62
256
370
-1
  6
ByLayer
 10
27.3730000000000011
 20
-378.4979999999999905
 30
0.0
 11
27.2349999999999994
 21
-378.5339999999999918
 31
0.0
  0
LINE
  5
1B5
100
AcDbEntity
100
AcDbLine
  8
0
 62
256
370
-1
  6
ByLayer
 10
27.2349999999999994
 20
-378.5339999999999918
 30
0.0
 11
27.0940000000000012
 21
-378.5509999999999877
 31
0.0
  0
LINE
  5
1B6
100
AcDbEntity
100
AcDbLine
  8
0
 62
256
370
-1
  6
ByLayer
 10
27.0940000000000012
 20
-378.5509999999999877
 30
0.0
 11
26.9520000000000017
 21
-378.5509999999999877
 31
0.0
  0
LINE
  5
1B7
100
AcDbEntity
100
AcDbLine
  8
0
 62
256
370
-1
  6
ByLayer
 10
26.9520000000000017
 20
-378.5509999999999877
 30
0.0
 11
26.8120000000000012
 21
-378.5339999999999918
 31
0.0
  0
LINE
  5
1B8
100
AcDbEntity
100
AcDbLine
  8
0
 62
256
370
-1
  6
ByLayer
 10
26.8120000000000012
 20
-378.5339999999999918
 30
0.0
 11
26.6739999999999995
 21
-378.4979999999999905
 31
0.0
  0
LINE
  5
1B9
100
AcDbEntity
100
AcDbLine
  8
0
 62
256
370
-1
  6
ByLayer
 10
26.6739999999999995
 20
-378.4979999999999905
 30
0.0
 11
26.5420000000000016
 21
-378.4460000000000264
 31
0.0
  0
LINE
  5
1BA
100
AcDbEntity
100
AcDbLine
  8
0
 62
256
370
-1
  6
ByLayer
 10
26.5420000000000016
 20
-378.4460000000000264
 30
0.0
 11
26.4179999999999993
 21
-378.3779999999999859
 31
0.0
  0
LINE
  5
1BB
100
AcDbEntity
100
AcDbLine
  8
0
 62
256
370
-1
  6
ByLayer
 10
26.4179999999999993
 20
-378.3779999999999859
 30
0.0
 11
26.3030000000000008
 21
-378.2939999999999827
 31
0.0
  0
LINE
  5
1BC
100
AcDbEntity
100
AcDbLine
  8
0
 62
256
370
-1
  6
ByLayer
 10
26.3030000000000008
 20
-378.2939999999999827
 30
0.0
 11
26.1990000000000016
 21
-378.1970000000000027
 31
0.0
  0
LINE
  5
1BD
100
AcDbEntity
100
AcDbLine
  8
0
 62
256
370
-1
  6
ByLayer
 10
26.1990000000000016
 20
-378.1970000000000027
 30
0.0
 11
26.1090000000000018
 21
-378.0880000000000223
 31
0.0
  0
LINE
  5
1BE
100
AcDbEntity
100
AcDbLine
  8
0
 62
256
370
-1
  6
ByLayer
 10
26.1090000000000018
 20
-378.0880000000000223
 30
0.0
 11
26.0330000000000013
 21
-377.9680000000000177
 31
0.0
  0
LINE
  5
1BF
100
AcDbEntity
100
AcDbLine
  8
0
 62
256
370
-1
  6
ByLayer
 10
26.0330000000000013
 20
-377.9680000000000177
 30
0.0
 11
25.9720000000000013
 21
-377.8389999999999986
 31
0.0
  0
LINE
  5
1C0
100
AcDbEntity
100
AcDbLine
  8
0
 62
256
370
-1
  6
ByLayer
 10
25.9720000000000013
 20
-377.8389999999999986
 30
0.0
 11
25.9289999999999985
 21
-377.7040000000000077
 31
0.0
  0
LINE
  5
1C1
100
AcDbEntity
100
AcDbLine
  8
0
 62
256
370
-1
  6
ByLayer
 10
25.9289999999999985
 20
-377.7040000000000077
 30
0.0
 11
25.902000000000001
 21
-377.5649999999999977
 31
0.0
  0
LINE
  5
1C2
100
AcDbEntity
100
AcDbLine
  8
0
 62
256
370
-1
  6
ByLayer
 10
25.902000000000001
 20
-377.5649999999999977
 30
0.0
 11
25.8930000000000007
 21
-377.4230000000000018
 31
0.0
  0
LINE
  5
1C3
100
AcDbEntity
100
AcDbLine
  8
0
 62
256
370
-1
  6
ByLayer
 10
25.8930000000000007
 20
-181.5769999999999982
 30
0.0
 11
25.902000000000001
 21
-181.4350000000000023
 31
0.0
  0
LINE
  5
1C4
100
AcDbEntity
100
AcDbLine
  8
0
 62
256
370
-1
  6
ByLayer
 10
25.902000000000001
 20
-181.4350000000000023
 30
0.0
 11
25.9289999999999985
 21
-181.2959999999999923
 31
0.0
  0
LINE
  5
1C5
100
AcDbEntity
100
AcDbLine
  8
0
 62
256
370
-1
  6
ByLayer
 10
25.9289999999999985
 20
-181.2959999999999923
 30
0.0
 11
25.9720000000000013
 21
-181.1610000000000014
 31
0.0
  0
LINE
  5
1C6
100
AcDbEntity
100
AcDbLine
  8
0
 62
256
370
-1
  6
ByLayer
 10
25.9720000000000013
 20
-181.1610000000000014
 30
0.0
 11
26.0330000000000013
 21
-181.0320000000000107
 31
0.0
  0
LINE
  5
1C7
100
AcDbEntity
100
AcDbLine
  8
0
 62
256
370
-1
  6
ByLayer
 10
26.0330000000000013
 20
-181.0320000000000107
 30
0.0
 11
26.1090000000000018
 21
-180.9120000000000061
 31
0.0
  0
LINE
  5
1C8
100
AcDbEntity
100
AcDbLine
  8
0
 62
256
370
-1
  6
ByLayer
 10
26.1090000000000018
 20
-180.9120000000000061
 30
0.0
 11
26.1990000000000016
 21
-180.8029999999999973
 31
0.0
  0
LINE
  5
1C9
100
AcDbEntity
100
AcDbLine
  8
0
 62
256
370
-1
  6
ByLayer
 10
26.1990000000000016
 20
-180.8029999999999973
 30
0.0
 11
26.3030000000000008
 21
-180.7059999999999889
 31
0.0
  0
LINE
  5
1CA
100
AcDbEntity
100
AcDbLine
  8
0
 62
256
370
-1
  6
ByLayer
 10
26.3030000000000008
 20
-180.7059999999999889
 30
0.0
 11
26.4179999999999993
 21
-180.6220000000000141
 31
0.0
  0
LINE
  5
1CB
100
AcDbEntity
100
AcDbLine
  8
0
 62
256
370
-1
  6
ByLayer
 10
26.4179999999999993
 20
-180.6220000000000141
 30
0.0
 11
26.5420000000000016
 21
-180.554000000000002
 31
0.0
  0
LINE
  5
1CC
100
AcDbEntity
100
AcDbLine
  8
0
 62
256
370
-1
  6
ByLayer
 10
26.5420000000000016
 20
-180.554000000000002
 30
0.0
 11
26.6739999999999995
 21
-180.5020000000000095
 31
0.0
  0
LINE
  5
1CD
100
AcDbEntity
100
AcDbLine
  8
0
 62
256
370
-1
  6
ByLayer
 10
26.6739999999999995
 20
-180.5020000000000095
 30
0.0
 11
26.8120000000000012
 21
-180.4660000000000082
 31
0.0
  0
LINE
  5
1CE
100
AcDbEntity
100
AcDbLine
  8
0
 62
256
370
-1
  6
ByLayer
 10
26.8120000000000012
 20
-180.4660000000000082
 30
0.0
 11
26.9520000000000017
 21
-180.4490000000000123
 31
0.0
  0
LINE
  5
1CF
100
AcDbEntity
100
AcDbLine
  8
0
 62
256
370
-1
  6
ByLayer
 10
26.9520000000000017
 20
-180.4490000000000123
 30
0.0
 11
27.0940000000000012
 21
-180.4490000000000123
 31
0.0
  0
LINE
  5
1D0
100
AcDbEntity
100
AcDbLine
  8
0
 62
256
370
-1
  6
ByLayer
 10
27.0940000000000012
 20
-180.4490000000000123
 30
0.0
 11
27.2349999999999994
 21
-180.4660000000000082
 31
0.0
  0
LINE
  5
1D1
100
AcDbEntity
100
AcDbLine
  8
0
 62
256
370
-1
  6
ByLayer
 10
27.2349999999999994
 20
-180.4660000000000082
 30
0.0
 11
27.3730000000000011
 21
-180.5020000000000095
 31
0.0
  0
LINE
  5
1D2
100
AcDbEntity
100
AcDbLine
  8
0
 62
256
370
-1
  6
ByLayer
 10
27.3730000000000011
 20
-180.5020000000000095
 30
0.0
 11
27.504999999999999
 21
-180.554000000000002
 31
0.0
  0
LINE
  5
1D3
100
AcDbEntity
100
AcDbLine
  8
0
 62
256
370
-1
  6
ByLayer
 10
27.504999999999999
 20
-180.554000000000002
 30
0.0
 11
27.6290000000000013
 21
-180.6220000000000141
 31
0.0
  0
LINE
  5
1D4
100
AcDbEntity
100
AcDbLine
  8
0
 62
256
370
-1
  6
ByLayer
 10
27.6290000000000013
 20
-180.6220000000000141
 30
0.0
 11
27.7439999999999998
 21
-180.7059999999999889
 31
0.0
  0
LINE
  5
1D5
100
AcDbEntity
100
AcDbLine
  8
0
 62
256
370
-1
  6
ByLayer
 10
27.7439999999999998
 20
-180.7059999999999889
 30
0.0
 11
27.8470000000000013
 21
-180.8029999999999973
 31
0.0
  0
LINE
  5
1D6
100
AcDbEntity
100
AcDbLine
  8
0
 62
256
370
-1
  6
ByLayer
 10
27.8470000000000013
 20
-180.8029999999999973
 30
0.0
 11
27.9379999999999988
 21
-180.9120000000000061
 31
0.0
  0
LINE
  5
1D7
100
AcDbEntity
100
AcDbLine
  8
0
 62
256
370
-1
  6
ByLayer
 10
27.9379999999999988
 20
-180.9120000000000061
 30
0.0
 11
28.0139999999999993
 21
-181.0320000000000107
 31
0.0
  0
LINE
  5
1D8
100
AcDbEntity
100
AcDbLine
  8
0
 62
256
370
-1
  6
ByLayer
 10
28.0139999999999993
 20
-181.0320000000000107
 30
0.0
 11
28.0740000000000016
 21
-181.1610000000000014
 31
0.0
  0
LINE
  5
1D9
100
AcDbEntity
100
AcDbLine
  8
0
 62
256
370
-1
  6
ByLayer
 10
28.0740000000000016
 20
-181.1610000000000014
 30
0.0
 11
28.1179999999999986
 21
-181.2959999999999923
 31
0.0
  0
LINE
  5
1DA
100
AcDbEntity
100
AcDbLine
  8
0
 62
256
370
-1
  6
ByLayer
 10
28.1179999999999986
 20
-181.2959999999999923
 30
0.0
 11
28.1449999999999996
 21
-181.4350000000000023
 31
0.0
  0
LINE
  5
1DB
100
AcDbEntity
100
AcDbLine
  8
0
 62
256
370
-1
  6
ByLayer
 10
28.1449999999999996
 20
-181.4350000000000023
 30
0.0
 11
28.1539999999999999
 21
-181.5769999999999982
 31
0.0
  0
LINE
  5
1DC
100
AcDbEntity
100
AcDbLine
  8
0
 62
256
370
-1
  6
ByLayer
 10
28.1539999999999999
 20
-181.5769999999999982
 30
0.0
 11
28.1449999999999996
 21
-181.7179999999999893
 31
0.0
  0
LINE
  5
1DD
100
AcDbEntity
100
AcDbLine
  8
0
 62
256
370
-1
  6
ByLayer
 10
28.1449999999999996
 20
-181.7179999999999893
 30
0.0
 11
28.1179999999999986
 21
-181.8580000000000041
 31
0.0
  0
LINE
  5
1DE
100
AcDbEntity
100
AcDbLine
  8
0
 62
256
370
-1
  6
ByLayer
 10
28.1179999999999986
 20
-181.8580000000000041
 30
0.0
 11
28.0740000000000016
 21
-181.992999999999995
 31
0.0
  0
LINE
  5
1DF
100
AcDbEntity
100
AcDbLine
  8
0
 62
256
370
-1
  6
ByLayer
 10
28.0740000000000016
 20
-181.992999999999995
 30
0.0
 11
28.0139999999999993
 21
-182.1210000000000093
 31
0.0
  0
LINE
  5
1E0
100
AcDbEntity
100
AcDbLine
  8
0
 62
256
370
-1
  6
ByLayer
 10
28.0139999999999993
 20
-182.1210000000000093
 30
0.0
 11
27.9379999999999988
 21
-182.2410000000000139
 31
0.0
  0
LINE
  5
1E1
100
AcDbEntity
100
AcDbLine
  8
0
 62
256
370
-1
  6
ByLayer
 10
27.9379999999999988
 20
-182.2410000000000139
 30
0.0
 11
27.8470000000000013
 21
-182.3499999999999943
 31
0.0
  0
LINE
  5
1E2
100
AcDbEntity
100
AcDbLine
  8
0
 62
256
370
-1
  6
ByLayer
 10
27.8470000000000013
 20
-182.3499999999999943
 30
0.0
 11
27.7439999999999998
 21
-182.4480000000000075
 31
0.0
  0
LINE
  5
1E3
100
AcDbEntity
100
AcDbLine
  8
0
 62
256
370
-1
  6
ByLayer
 10
27.7439999999999998
 20
-182.4480000000000075
 30
0.0
 11
27.6290000000000013
 21
-182.5310000000000059
 31
0.0
  0
LINE
  5
1E4
100
AcDbEntity
100
AcDbLine
  8
0
 62
256
370
-1
  6
ByLayer
 10
27.6290000000000013
 20
-182.5310000000000059
 30
0.0
 11
27.504999999999999
 21
-182.5989999999999895
 31
0.0
  0
LINE
  5
1E5
100
AcDbEntity
100
AcDbLine
  8
0
 62
256
370
-1
  6
ByLayer
 10
27.504999999999999
 20
-182.5989999999999895
 30
0.0
 11
27.3730000000000011
 21
-182.6519999999999868
 31
0.0
  0
LINE
  5
1E6
100
AcDbEntity
100
AcDbLine
  8
0
 62
256
370
-1
  6
ByLayer
 10
27.3730000000000011
 20
-182.6519999999999868
 30
0.0
 11
27.2349999999999994
 21
-182.6870000000000118
 31
0.0
  0
LINE
  5
1E7
100
AcDbEntity
100
AcDbLine
  8
0
 62
256
370
-1
  6
ByLayer
 10
27.2349999999999994
 20
-182.6870000000000118
 30
0.0
 11
27.0940000000000012
 21
-182.7050000000000125
 31
0.0
  0
LINE
  5
1E8
100
AcDbEntity
100
AcDbLine
  8
0
 62
256
370
-1
  6
ByLayer
 10
27.0940000000000012
 20
-182.7050000000000125
 30
0.0
 11
26.9520000000000017
 21
-182.7050000000000125
 31
0.0
  0
LINE
  5
1E9
100
AcDbEntity
100
AcDbLine
  8
0
 62
256
370
-1
  6
ByLayer
 10
26.9520000000000017
 20
-182.7050000000000125
 30
0.0
 11
26.8120000000000012
 21
-182.6870000000000118
 31
0.0
  0
LINE
  5
1EA
100
AcDbEntity
100
AcDbLine
  8
0
 62
256
370
-1
  6
ByLayer
 10
26.8120000000000012
 20
-182.6870000000000118
 30
0.0
 11
26.6739999999999995
 21
-182.6519999999999868
 31
0.0
  0
LINE
  5
1EB
100
AcDbEntity
100
AcDbLine
  8
0
 62
256
370
-1
  6
ByLayer
 10
26.6739999999999995
 20
-182.6519999999999868
 30
0.0
 11
26.5420000000000016
 21
-182.5989999999999895
 31
0.0
  0
LINE
  5
1EC
100
AcDbEntity
100
AcDbLine
  8
0
 62
256
370
-1
  6
ByLayer
 10
26.5420000000000016
 20
-182.5989999999999895
 30
0.0
 11
26.4179999999999993
 21
-182.5310000000000059
 31
0.0
  0
LINE
  5
1ED
100
AcDbEntity
100
AcDbLine
  8
0
 62
256
370
-1
  6
ByLayer
 10
26.4179999999999993
 20
-182.5310000000000059
 30
0.0
 11
26.3030000000000008
 21
-182.4480000000000075
 31
0.0
  0
LINE
  5
1EE
100
AcDbEntity
100
AcDbLine
  8
0
 62
256
370
-1
  6
ByLayer
 10
26.3030000000000008
 20
-182.4480000000000075
 30
0.0
 11
26.1990000000000016
 21
-182.3499999999999943
 31
0.0
  0
LINE
  5
1EF
100
AcDbEntity
100
AcDbLine
  8
0
 62
256
370
-1
  6
ByLayer
 10
26.1990000000000016
 20
-182.3499999999999943
 30
0.0
 11
26.1090000000000018
 21
-182.2410000000000139
 31
0.0
  0
LINE
  5
1F0
100
AcDbEntity
100
AcDbLine
  8
0
 62
256
370
-1
  6
ByLayer
 10
26.1090000000000018
 20
-182.2410000000000139
 30
0.0
 11
26.0330000000000013
 21
-182.1210000000000093
 31
0.0
  0
LINE
  5
1F1
100
AcDbEntity
100
AcDbLine
  8
0
 62
256
370
-1
  6
ByLayer
 10
26.0330000000000013
 20
-182.1210000000000093
 30
0.0
 11
25.9720000000000013
 21
-181.992999999999995
 31
0.0
  0
LINE
  5
1F2
100
AcDbEntity
100
AcDbLine
  8
0
 62
256
370
-1
  6
ByLayer
 10
25.9720000000000013
 20
-181.992999999999995
 30
0.0
 11
25.9289999999999985
 21
-181.8580000000000041
 31
0.0
  0
LINE
  5
1F3
100
AcDbEntity
100
AcDbLine
  8
0
 62
256
370
-1
  6
ByLayer
 10
25.9289999999999985
 20
-181.8580000000000041
 30
0.0
 11
25.902000000000001
 21
-181.7179999999999893
 31
0.0
  0
LINE
  5
1F4
100
AcDbEntity
100
AcDbLine
  8
0
 62
256
370
-1
  6
ByLayer
 10
25.902000000000001
 20
-181.7179999999999893
 30
0.0
 11
25.8930000000000007
 21
-181.5769999999999982
 31
0.0
  0
LINE
  5
1F5
100
AcDbEntity
100
AcDbLine
  8
0
 62
256
370
-1
  6
ByLayer
 10
27.1460000000000008
 20
-365.8600000000000136
 30
0.0
 11
27.152000000000001
 21
-365.7579999999999814
 31
0.0
  0
LINE
  5
1F6
100
AcDbEntity
100
AcDbLine
  8
0
 62
256
370
-1
  6
ByLayer
 10
27.152000000000001
 20
-365.7579999999999814
 30
0.0
 11
27.1720000000000006
 21
-365.6580000000000155
 31
0.0
  0
LINE
  5
1F7
100
AcDbEntity
100
AcDbLine
  8
0
 62
256
370
-1
  6
ByLayer
 10
27.1720000000000006
 20
-365.6580000000000155
 30
0.0
 11
27.2029999999999994
 21
-365.5600000000000023
 31
0.0
  0
LINE
  5
1F8
100
AcDbEntity
100
AcDbLine
  8
0
 62
256
370
-1
  6
ByLayer
 10
27.2029999999999994
 20
-365.5600000000000023
 30
0.0
 11
27.2469999999999999
 21
-365.4680000000000177
 31
0.0
  0
LINE
  5
1F9
100
AcDbEntity
100
AcDbLine
  8
0
 62
256
370
-1
  6
ByLayer
 10
27.2469999999999999
 20
-365.4680000000000177
 30
0.0
 11
27.3009999999999984
 21
-365.382000000000005
 31
0.0
  0
LINE
  5
1FA
100
AcDbEntity
100
AcDbLine
  8
0
 62
256
370
-1
  6
ByLayer
 10
27.3009999999999984
 20
-365.382000000000005
 30
0.0
 11
27.3670000000000009
 21
-365.3029999999999973
 31
0.0
  0
LINE
  5
1FB
100
AcDbEntity
100
AcDbLine
  8
0
 62
256
370
-1
  6
ByLayer
 10
27.3670000000000009
 20
-365.3029999999999973
 30
0.0
 11
27.4409999999999989
 21
-365.2330000000000041
 31
0.0
  0
LINE
  5
1FC
100
AcDbEntity
100
AcDbLine
  8
0
 62
256
370
-1
  6
ByLayer
 10
27.4409999999999989
 20
-365.2330000000000041
 30
0.0
 11
27.5240000000000009
 21
-365.1730000000000018
 31
0.0
  0
LINE
  5
1FD
100
AcDbEntity
100
AcDbLine
  8
0
 62
256
370
-1
  6
ByLayer
 10
27.5240000000000009
 20
-365.1730000000000018
 30
0.0
 11
27.6129999999999995
 21
-365.1229999999999905
 31
0.0
  0
LINE
  5
1FE
100
AcDbEntity
100
AcDbLine
  8
0
 62
256
370
-1
  6
ByLayer
 10
27.6129999999999995
 20
-365.1229999999999905
 30
0.0
 11
27.7079999999999984
 21
-365.0860000000000127
 31
0.0
  0
LINE
  5
1FF
100
AcDbEntity
100
AcDbLine
  8
0
 62
256
370
-1
  6
ByLayer
 10
27.7079999999999984
 20
-365.0860000000000127
 30
0.0
 11
27.8069999999999986
 21
-365.0600000000000023
 31
0.0
  0
LINE
  5
200
100
AcDbEntity
100
AcDbLine
  8
0
 62
256
370
-1
  6
ByLayer
 10
27.8069999999999986
 20
-365.0600000000000023
 30
0.0
 11
27.9089999999999989
 21
-365.0480000000000018
 31
0.0
  0
LINE
  5
201
100
AcDbEntity
100
AcDbLine
  8
0
 62
256
370
-1
  6
ByLayer
 10
27.9089999999999989
 20
-365.0480000000000018
 30
0.0
 11
28.0109999999999992
 21
-365.0480000000000018
 31
0.0
  0
LINE
  5
202
100
AcDbEntity
100
AcDbLine
  8
0
 62
256
370
-1
  6
ByLayer
 10
28.0109999999999992
 20
-365.0480000000000018
 30
0.0
 11
28.1129999999999995
 21
-365.0600000000000023
 31
0.0
  0
LINE
  5
203
100
AcDbEntity
100
AcDbLine
  8
0
 62
256
370
-1
  6
ByLayer
 10
28.1129999999999995
 20
-365.0600000000000023
 30
0.0
 11
28.2119999999999997
 21
-365.0860000000000127
 31
0.0
  0
LINE
  5
204
100
AcDbEntity
100
AcDbLine
  8
0
 62
256
370
-1
  6
ByLayer
 10
28.2119999999999997
 20
-365.0860000000000127
 30
0.0
 11
28.3069999999999986
 21
-365.1229999999999905
 31
0.0
  0
LINE
  5
205
100
AcDbEntity
100
AcDbLine
  8
0
 62
256
370
-1
  6
ByLayer
 10
28.3069999999999986
 20
-365.1229999999999905
 30
0.0
 11
28.3960000000000008
 21
-365.1730000000000018
 31
0.0
  0
LINE
  5
206
100
AcDbEntity
100
AcDbLine
  8
0
 62
256
370
-1
  6
ByLayer
 10
28.3960000000000008
 20
-365.1730000000000018
 30
0.0
 11
28.4789999999999992
 21
-365.2330000000000041
 31
0.0
  0
LINE
  5
207
100
AcDbEntity
100
AcDbLine
  8
0
 62
256
370
-1
  6
ByLayer
 10
28.4789999999999992
 20
-365.2330000000000041
 30
0.0
 11
28.5530000000000008
 21
-365.3029999999999973
 31
0.0
  0
LINE
  5
208
100
AcDbEntity
100
AcDbLine
  8
0
 62
256
370
-1
  6
ByLayer
 10
28.5530000000000008
 20
-365.3029999999999973
 30
0.0
 11
28.6189999999999998
 21
-365.382000000000005
 31
0.0
  0
LINE
  5
209
100
AcDbEntity
100
AcDbLine
  8
0
 62
256
370
-1
  6
ByLayer
 10
28.6189999999999998
 20
-365.382000000000005
 30
0.0
 11
28.6729999999999983
 21
-365.4680000000000177
 31
0.0
  0
LINE
  5
20A
100
AcDbEntity
100
AcDbLine
  8
0
 62
256
370
-1
  6
ByLayer
 10
28.6729999999999983
 20
-365.4680000000000177
 30
0.0
 11
28.7169999999999987
 21
-365.5600000000000023
 31
0.0
  0
LINE
  5
20B
100
AcDbEntity
100
AcDbLine
  8
0
 62
256
370
-1
  6
ByLayer
 10
28.7169999999999987
 20
-365.5600000000000023
 30
0.0
 11
28.7480000000000011
 21
-365.6580000000000155
 31
0.0
  0
LINE
  5
20C
100
AcDbEntity
100
AcDbLine
  8
0
 62
256
370
-1
  6
ByLayer
 10
28.7480000000000011
 20
-365.6580000000000155
 30
0.0
 11
28.7680000000000007
 21
-365.7579999999999814
 31
0.0
  0
LINE
  5
20D
100
AcDbEntity
100
AcDbLine
  8
0
 62
256
370
-1
  6
ByLayer
 10
28.7680000000000007
 20
-365.7579999999999814
 30
0.0
 11
28.7740000000000009
 21
-365.8600000000000136
 31
0.0
  0
LINE
  5
20E
100
AcDbEntity
100
AcDbLine
  8
0
 62
256
370
-1
  6
ByLayer
 10
28.7740000000000009
 20
-365.8600000000000136
 30
0.0
 11
28.7680000000000007
 21
-365.9619999999999891
 31
0.0
  0
LINE
  5
20F
100
AcDbEntity
100
AcDbLine
  8
0
 62
256
370
-1
  6
ByLayer
 10
28.7680000000000007
 20
-365.9619999999999891
 30
0.0
 11
28.7480000000000011
 21
-366.0620000000000118
 31
0.0
  0
LINE
  5
210
100
AcDbEntity
100
AcDbLine
  8
0
 62
256
370
-1
  6
ByLayer
 10
28.7480000000000011
 20
-366.0620000000000118
 30
0.0
 11
28.7169999999999987
 21
-366.160000000000025
 31
0.0
  0
LINE
  5
211
100
AcDbEntity
100
AcDbLine
  8
0
 62
256
370
-1
  6
ByLayer
 10
28.7169999999999987
 20
-366.160000000000025
 30
0.0
 11
28.6729999999999983
 21
-366.2520000000000095
 31
0.0
  0
LINE
  5
212
100
AcDbEntity
100
AcDbLine
  8
0
 62
256
370
-1
  6
ByLayer
 10
28.6729999999999983
 20
-366.2520000000000095
 30
0.0
 11
28.6189999999999998
 21
-366.3380000000000223
 31
0.0
  0
LINE
  5
213
100
AcDbEntity
100
AcDbLine
  8
0
 62
256
370
-1
  6
ByLayer
 10
28.6189999999999998
 20
-366.3380000000000223
 30
0.0
 11
28.5530000000000008
 21
-366.4169999999999732
 31
0.0
  0
LINE
  5
214
100
AcDbEntity
100
AcDbLine
  8
0
 62
256
370
-1
  6
ByLayer
 10
28.5530000000000008
 20
-366.4169999999999732
 30
0.0
 11
28.4789999999999992
 21
-366.4870000000000232
 31
0.0
  0
LINE
  5
215
100
AcDbEntity
100
AcDbLine
  8
0
 62
256
370
-1
  6
ByLayer
 10
28.4789999999999992
 20
-366.4870000000000232
 30
0.0
 11
28.3960000000000008
 21
-366.5470000000000255
 31
0.0
  0
LINE
  5
216
100
AcDbEntity
100
AcDbLine
  8
0
 62
256
370
-1
  6
ByLayer
 10
28.3960000000000008
 20
-366.5470000000000255
 30
0.0
 11
28.3069999999999986
 21
-366.59699999999998
 31
0.0
  0
LINE
  5
217
100
AcDbEntity
100
AcDbLine
  8
0
 62
256
370
-1
  6
ByLayer
 10
28.3069999999999986
 20
-366.59699999999998
 30
0.0
 11
28.2119999999999997
 21
-366.6340000000000146
 31
0.0
  0
LINE
  5
218
100
AcDbEntity
100
AcDbLine
  8
0
 62
256
370
-1
  6
ByLayer
 10
28.2119999999999997
 20
-366.6340000000000146
 30
0.0
 11
28.1129999999999995
 21
-366.660000000000025
 31
0.0
  0
LINE
  5
219
100
AcDbEntity
100
AcDbLine
  8
0
 62
256
370
-1
  6
ByLayer
 10
28.1129999999999995
 20
-366.660000000000025
 30
0.0
 11
28.0109999999999992
 21
-366.6720000000000255
 31
0.0
  0
LINE
  5
21A
100
AcDbEntity
100
AcDbLine
  8
0
 62
256
370
-1
  6
ByLayer
 10
28.0109999999999992
 20
-366.6720000000000255
 30
0.0
 11
27.9089999999999989
 21
-366.6720000000000255
 31
0.0
  0
LINE
  5
21B
100
AcDbEntity
100
AcDbLine
  8
0
 62
256
370
-1
  6
ByLayer
 10
27.9089999999999989
 20
-366.6720000000000255
 30
0.0
 11
27.8069999999999986
 21
-366.660000000000025
 31
0.0
  0
LINE
  5
21C
100
AcDbEntity
100
AcDbLine
  8
0
 62
256
370
-1
  6
ByLayer
 10
27.8069999999999986
 20
-366.660000000000025
 30
0.0
 11
27.7079999999999984
 21
-366.6340000000000146
 31
0.0
  0
LINE
  5
21D
100
AcDbEntity
100
AcDbLine
  8
0
 62
256
370
-1
  6
ByLayer
 10
27.7079999999999984
 20
-366.6340000000000146
 30
0.0
 11
27.6129999999999995
 21
-366.59699999999998
 31
0.0
  0
LINE
  5
21E
100
AcDbEntity
100
AcDbLine
  8
0
 62
256
370
-1
  6
ByLayer
 10
27.6129999999999995
 20
-366.59699999999998
 30
0.0
 11
27.5240000000000009
 21
-366.5470000000000255
 31
0.0
  0
LINE
  5
21F
100
AcDbEntity
100
AcDbLine
  8
0
 62
256
370
-1
  6
ByLayer
 10
27.5240000000000009
 20
-366.5470000000000255
 30
0.0
 11
27.4409999999999989
 21
-366.4870000000000232
 31
0.0
  0
LINE
  5
220
100
AcDbEntity
100
AcDbLine
  8
0
 62
256
370
-1
  6
ByLayer
 10
27.4409999999999989
 20
-366.4870000000000232
 30
0.0
 11
27.3670000000000009
 21
-366.4169999999999732
 31
0.0
  0
LINE
  5
221
100
AcDbEntity
100
AcDbLine
  8
0
 62
256
370
-1
  6
ByLayer
 10
27.3670000000000009
 20
-366.4169999999999732
 30
0.0
 11
27.3009999999999984
 21
-366.3380000000000223
 31
0.0
  0
LINE
  5
222
100
AcDbEntity
100
AcDbLine
  8
0
 62
256
370
-1
  6
ByLayer
 10
27.3009999999999984
 20
-366.3380000000000223
 30
0.0
 11
27.2469999999999999
 21
-366.2520000000000095
 31
0.0
  0
LINE
  5
223
100
AcDbEntity
100
AcDbLine
  8
0
 62
256
370
-1
  6
ByLayer
 10
27.2469999999999999
 20
-366.2520000000000095
 30
0.0
 11
27.2029999999999994
 21
-366.160000000000025
 31
0.0
  0
LINE
  5
224
100
AcDbEntity
100
AcDbLine
  8
0
 62
256
370
-1
  6
ByLayer
 10
27.2029999999999994
 20
-366.160000000000025
 30
0.0
 11
27.1720000000000006
 21
-366.0620000000000118
 31
0.0
  0
LINE
  5
225
100
AcDbEntity
100
AcDbLine
  8
0
 62
256
370
-1
  6
ByLayer
 10
27.1720000000000006
 20
-366.0620000000000118
 30
0.0
 11
27.152000000000001
 21
-365.9619999999999891
 31
0.0
  0
LINE
  5
226
100
AcDbEntity
100
AcDbLine
  8
0
 62
256
370
-1
  6
ByLayer
 10
27.152000000000001
 20
-365.9619999999999891
 30
0.0
 11
27.1460000000000008
 21
-365.8600000000000136
 31
0.0
  0
LINE
  5
227
100
AcDbEntity
100
AcDbLine
  8
0
 62
256
370
-1
  6
ByLayer
 10
27.1460000000000008
 20
-327.7599999999999909
 30
0.0
 11
27.152000000000001
 21
-327.6580000000000155
 31
0.0
  0
LINE
  5
228
100
AcDbEntity
100
AcDbLine
  8
0
 62
256
370
-1
  6
ByLayer
 10
27.152000000000001
 20
-327.6580000000000155
 30
0.0
 11
27.1720000000000006
 21
-327.5579999999999927
 31
0.0
  0
LINE
  5
229
100
AcDbEntity
100
AcDbLine
  8
0
 62
256
370
-1
  6
ByLayer
 10
27.1720000000000006
 20
-327.5579999999999927
 30
0.0
 11
27.2029999999999994
 21
-327.4599999999999795
 31
0.0
  0
LINE
  5
22A
100
AcDbEntity
100
AcDbLine
  8
0
 62
256
370
-1
  6
ByLayer
 10
27.2029999999999994
 20
-327.4599999999999795
 30
0.0
 11
27.2469999999999999
 21
-327.367999999999995
 31
0.0
  0
LINE
  5
22B
100
AcDbEntity
100
AcDbLine
  8
0
 62
256
370
-1
  6
ByLayer
 10
27.2469999999999999
 20
-327.367999999999995
 30
0.0
 11
27.3009999999999984
 21
-327.2819999999999823
 31
0.0
  0
LINE
  5
22C
100
AcDbEntity
100
AcDbLine
  8
0
 62
256
370
-1
  6
ByLayer
 10
27.3009999999999984
 20
-327.2819999999999823
 30
0.0
 11
27.3670000000000009
 21
-327.2029999999999745
 31
0.0
  0
LINE
  5
22D
100
AcDbEntity
100
AcDbLine
  8
0
 62
256
370
-1
  6
ByLayer
 10
27.3670000000000009
 20
-327.2029999999999745
 30
0.0
 11
27.4409999999999989
 21
-327.1329999999999814
 31
0.0
  0
LINE
  5
22E
100
AcDbEntity
100
AcDbLine
  8
0
 62
256
370
-1
  6
ByLayer
 10
27.4409999999999989
 20
-327.1329999999999814
 30
0.0
 11
27.5240000000000009
 21
-327.0729999999999791
 31
0.0
  0
LINE
  5
22F
100
AcDbEntity
100
AcDbLine
  8
0
 62
256
370
-1
  6
ByLayer
 10
27.5240000000000009
 20
-327.0729999999999791
 30
0.0
 11
27.6129999999999995
 21
-327.0230000000000246
 31
0.0
  0
LINE
  5
230
100
AcDbEntity
100
AcDbLine
  8
0
 62
256
370
-1
  6
ByLayer
 10
27.6129999999999995
 20
-327.0230000000000246
 30
0.0
 11
27.7079999999999984
 21
-326.98599999999999
 31
0.0
  0
LINE
  5
231
100
AcDbEntity
100
AcDbLine
  8
0
 62
256
370
-1
  6
ByLayer
 10
27.7079999999999984
 20
-326.98599999999999
 30
0.0
 11
27.8069999999999986
 21
-326.9599999999999795
 31
0.0
  0
LINE
  5
232
100
AcDbEntity
100
AcDbLine
  8
0
 62
256
370
-1
  6
ByLayer
 10
27.8069999999999986
 20
-326.9599999999999795
 30
0.0
 11
27.9089999999999989
 21
-326.9479999999999791
 31
0.0
  0
LINE
  5
233
100
AcDbEntity
100
AcDbLine
  8
0
 62
256
370
-1
  6
ByLayer
 10
27.9089999999999989
 20
-326.9479999999999791
 30
0.0
 11
28.0109999999999992
 21
-326.9479999999999791
 31
0.0
  0
LINE
  5
234
100
AcDbEntity
100
AcDbLine
  8
0
 62
256
370
-1
  6
ByLayer
 10
28.0109999999999992
 20
-326.9479999999999791
 30
0.0
 11
28.1129999999999995
 21
-326.9599999999999795
 31
0.0
  0
LINE
  5
235
100
AcDbEntity
100
AcDbLine
  8
0
 62
256
370
-1
  6
ByLayer
 10
28.1129999999999995
 20
-326.9599999999999795
 30
0.0
 11
28.2119999999999997
 21
-326.98599999999999
 31
0.0
  0
LINE
  5
236
100
AcDbEntity
100
AcDbLine
  8
0
 62
256
370
-1
  6
ByLayer
 10
28.2119999999999997
 20
-326.98599999999999
 30
0.0
 11
28.3069999999999986
 21
-327.0230000000000246
 31
0.0
  0
LINE
  5
237
100
AcDbEntity
100
AcDbLine
  8
0
 62
256
370
-1
  6
ByLayer
 10
28.3069999999999986
 20
-327.0230000000000246
 30
0.0
 11
28.3960000000000008
 21
-327.0729999999999791
 31
0.0
  0
LINE
  5
238
100
AcDbEntity
100
AcDbLine
  8
0
 62
256
370
-1
  6
ByLayer
 10
28.3960000000000008
 20
-327.0729999999999791
 30
0.0
 11
28.4789999999999992
 21
-327.1329999999999814
 31
0.0
  0
LINE
  5
239
100
AcDbEntity
100
AcDbLine
  8
0
 62
256
370
-1
  6
ByLayer
 10
28.4789999999999992
 20
-327.1329999999999814
 30
0.0
 11
28.5530000000000008
 21
-327.2029999999999745
 31
0.0
  0
LINE
  5
23A
100
AcDbEntity
100
AcDbLine
  8
0
 62
256
370
-1
  6
ByLayer
 10
28.5530000000000008
 20
-327.2029999999999745
 30
0.0
 11
28.6189999999999998
 21
-327.2819999999999823
 31
0.0
  0
LINE
  5
23B
100
AcDbEntity
100
AcDbLine
  8
0
 62
256
370
-1
  6
ByLayer
 10
28.6189999999999998
 20
-327.2819999999999823
 30
0.0
 11
28.6729999999999983
 21
-327.367999999999995
 31
0.0
  0
LINE
  5
23C
100
AcDbEntity
100
AcDbLine
  8
0
 62
256
370
-1
  6
ByLayer
 10
28.6729999999999983
 20
-327.367999999999995
 30
0.0
 11
28.7169999999999987
 21
-327.4599999999999795
 31
0.0
  0
LINE
  5
23D
100
AcDbEntity
100
AcDbLine
  8
0
 62
256
370
-1
  6
ByLayer
 10
28.7169999999999987
 20
-327.4599999999999795
 30
0.0
 11
28.7480000000000011
 21
-327.5579999999999927
 31
0.0
  0
LINE
  5
23E
100
AcDbEntity
100
AcDbLine
  8
0
 62
256
370
-1
  6
ByLayer
 10
28.7480000000000011
 20
-327.5579999999999927
 30
0.0
 11
28.7680000000000007
 21
-327.6580000000000155
 31
0.0
  0
LINE
  5
23F
100
AcDbEntity
100
AcDbLine
  8
0
 62
256
370
-1
  6
ByLayer
 10
28.7680000000000007
 20
-327.6580000000000155
 30
0.0
 11
28.7740000000000009
 21
-327.7599999999999909
 31
0.0
  0
LINE
  5
240
100
AcDbEntity
100
AcDbLine
  8
0
 62
256
370
-1
  6
ByLayer
 10
28.7740000000000009
 20
-327.7599999999999909
 30
0.0
 11
28.7680000000000007
 21
-327.8620000000000232
 31
0.0
  0
LINE
  5
241
100
AcDbEntity
100
AcDbLine
  8
0
 62
256
370
-1
  6
ByLayer
 10
28.7680000000000007
 20
-327.8620000000000232
 30
0.0
 11
28.7480000000000011
 21
-327.9619999999999891
 31
0.0
  0
LINE
  5
242
100
AcDbEntity
100
AcDbLine
  8
0
 62
256
370
-1
  6
ByLayer
 10
28.7480000000000011
 20
-327.9619999999999891
 30
0.0
 11
28.7169999999999987
 21
-328.0600000000000023
 31
0.0
  0
LINE
  5
243
100
AcDbEntity
100
AcDbLine
  8
0
 62
256
370
-1
  6
ByLayer
 10
28.7169999999999987
 20
-328.0600000000000023
 30
0.0
 11
28.6729999999999983
 21
-328.1519999999999868
 31
0.0
  0
LINE
  5
244
100
AcDbEntity
100
AcDbLine
  8
0
 62
256
370
-1
  6
ByLayer
 10
28.6729999999999983
 20
-328.1519999999999868
 30
0.0
 11
28.6189999999999998
 21
-328.2379999999999995
 31
0.0
  0
LINE
  5
245
100
AcDbEntity
100
AcDbLine
  8
0
 62
256
370
-1
  6
ByLayer
 10
28.6189999999999998
 20
-328.2379999999999995
 30
0.0
 11
28.5530000000000008
 21
-328.3170000000000073
 31
0.0
  0
LINE
  5
246
100
AcDbEntity
100
AcDbLine
  8
0
 62
256
370
-1
  6
ByLayer
 10
28.5530000000000008
 20
-328.3170000000000073
 30
0.0
 11
28.4789999999999992
 21
-328.3870000000000005
 31
0.0
  0
LINE
  5
247
100
AcDbEntity
100
AcDbLine
  8
0
 62
256
370
-1
  6
ByLayer
 10
28.4789999999999992
 20
-328.3870000000000005
 30
0.0
 11
28.3960000000000008
 21
-328.4470000000000027
 31
0.0
  0
LINE
  5
248
100
AcDbEntity
100
AcDbLine
  8
0
 62
256
370
-1
  6
ByLayer
 10
28.3960000000000008
 20
-328.4470000000000027
 30
0.0
 11
28.3069999999999986
 21
-328.4970000000000141
 31
0.0
  0
LINE
  5
249
100
AcDbEntity
100
AcDbLine
  8
0
 62
256
370
-1
  6
ByLayer
 10
28.3069999999999986
 20
-328.4970000000000141
 30
0.0
 11
28.2119999999999997
 21
-328.5339999999999918
 31
0.0
  0
LINE
  5
24A
100
AcDbEntity
100
AcDbLine
  8
0
 62
256
370
-1
  6
ByLayer
 10
28.2119999999999997
 20
-328.5339999999999918
 30
0.0
 11
28.1129999999999995
 21
-328.5600000000000023
 31
0.0
  0
LINE
  5
24B
100
AcDbEntity
100
AcDbLine
  8
0
 62
256
370
-1
  6
ByLayer
 10
28.1129999999999995
 20
-328.5600000000000023
 30
0.0
 11
28.0109999999999992
 21
-328.5720000000000027
 31
0.0
  0
LINE
  5
24C
100
AcDbEntity
100
AcDbLine
  8
0
 62
256
370
-1
  6
ByLayer
 10
28.0109999999999992
 20
-328.5720000000000027
 30
0.0
 11
27.9089999999999989
 21
-328.5720000000000027
 31
0.0
  0
LINE
  5
24D
100
AcDbEntity
100
AcDbLine
  8
0
 62
256
370
-1
  6
ByLayer
 10
27.9089999999999989
 20
-328.5720000000000027
 30
0.0
 11
27.8069999999999986
 21
-328.5600000000000023
 31
0.0
  0
LINE
  5
24E
100
AcDbEntity
100
AcDbLine
  8
0
 62
256
370
-1
  6
ByLayer
 10
27.8069999999999986
 20
-328.5600000000000023
 30
0.0
 11
27.7079999999999984
 21
-328.5339999999999918
 31
0.0
  0
LINE
  5
24F
100
AcDbEntity
100
AcDbLine
  8
0
 62
256
370
-1
  6
ByLayer
 10
27.7079999999999984
 20
-328.5339999999999918
 30
0.0
 11
27.6129999999999995
 21
-328.4970000000000141
 31
0.0
  0
LINE
  5
250
100
AcDbEntity
100
AcDbLine
  8
0
 62
256
370
-1
  6
ByLayer
 10
27.6129999999999995
 20
-328.4970000000000141
 30
0.0
 11
27.5240000000000009
 21
-328.4470000000000027
 31
0.0
  0
LINE
  5
251
100
AcDbEntity
100
AcDbLine
  8
0
 62
256
370
-1
  6
ByLayer
 10
27.5240000000000009
 20
-328.4470000000000027
 30
0.0
 11
27.4409999999999989
 21
-328.3870000000000005
 31
0.0
  0
LINE
  5
252
100
AcDbEntity
100
AcDbLine
  8
0
 62
256
370
-1
  6
ByLayer
 10
27.4409999999999989
 20
-328.3870000000000005
 30
0.0
 11
27.3670000000000009
 21
-328.3170000000000073
 31
0.0
  0
LINE
  5
253
100
AcDbEntity
100
AcDbLine
  8
0
 62
256
370
-1
  6
ByLayer
 10
27.3670000000000009
 20
-328.3170000000000073
 30
0.0
 11
27.3009999999999984
 21
-328.2379999999999995
 31
0.0
  0
LINE
  5
254
100
AcDbEntity
100
AcDbLine
  8
0
 62
256
370
-1
  6
ByLayer
 10
27.3009999999999984
 20
-328.2379999999999995
 30
0.0
 11
27.2469999999999999
 21
-328.1519999999999868
 31
0.0
  0
LINE
  5
255
100
AcDbEntity
100
AcDbLine
  8
0
 62
256
370
-1
  6
ByLayer
 10
27.2469999999999999
 20
-328.1519999999999868
 30
0.0
 11
27.2029999999999994
 21
-328.0600000000000023
 31
0.0
  0
LINE
  5
256
100
AcDbEntity
100
AcDbLine
  8
0
 62
256
370
-1
  6
ByLayer
 10
27.2029999999999994
 20
-328.0600000000000023
 30
0.0
 11
27.1720000000000006
 21
-327.9619999999999891
 31
0.0
  0
LINE
  5
257
100
AcDbEntity
100
AcDbLine
  8
0
 62
256
370
-1
  6
ByLayer
 10
27.1720000000000006
 20
-327.9619999999999891
 30
0.0
 11
27.152000000000001
 21
-327.8620000000000232
 31
0.0
  0
LINE
  5
258
100
AcDbEntity
100
AcDbLine
  8
0
 62
256
370
-1
  6
ByLayer
 10
27.152000000000001
 20
-327.8620000000000232
 30
0.0
 11
27.1460000000000008
 21
-327.7599999999999909
 31
0.0
  0
LINE
  5
259
100
AcDbEntity
100
AcDbLine
  8
0
 62
256
370
-1
  6
ByLayer
 10
27.1460000000000008
 20
-193.1399999999999864
 30
0.0
 11
27.152000000000001
 21
-193.0380000000000109
 31
0.0
  0
LINE
  5
25A
100
AcDbEntity
100
AcDbLine
  8
0
 62
256
370
-1
  6
ByLayer
 10
27.152000000000001
 20
-193.0380000000000109
 30
0.0
 11
27.1720000000000006
 21
-192.9379999999999882
 31
0.0
  0
LINE
  5
25B
100
AcDbEntity
100
AcDbLine
  8
0
 62
256
370
-1
  6
ByLayer
 10
27.1720000000000006
 20
-192.9379999999999882
 30
0.0
 11
27.2029999999999994
 21
-192.8400000000000034
 31
0.0
  0
LINE
  5
25C
100
AcDbEntity
100
AcDbLine
  8
0
 62
256
370
-1
  6
ByLayer
 10
27.2029999999999994
 20
-192.8400000000000034
 30
0.0
 11
27.2469999999999999
 21
-192.7479999999999905
 31
0.0
  0
LINE
  5
25D
100
AcDbEntity
100
AcDbLine
  8
0
 62
256
370
-1
  6
ByLayer
 10
27.2469999999999999
 20
-192.7479999999999905
 30
0.0
 11
27.3009999999999984
 21
-192.6620000000000061
 31
0.0
  0
LINE
  5
25E
100
AcDbEntity
100
AcDbLine
  8
0
 62
256
370
-1
  6
ByLayer
 10
27.3009999999999984
 20
-192.6620000000000061
 30
0.0
 11
27.3670000000000009
 21
-192.5829999999999984
 31
0.0
  0
LINE
  5
25F
100
AcDbEntity
100
AcDbLine
  8
0
 62
256
370
-1
  6
ByLayer
 10
27.3670000000000009
 20
-192.5829999999999984
 30
0.0
 11
27.4409999999999989
 21
-192.5130000000000052
 31
0.0
  0
LINE
  5
260
100
AcDbEntity
100
AcDbLine
  8
0
 62
256
370
-1
  6
ByLayer
 10
27.4409999999999989
 20
-192.5130000000000052
 30
0.0
 11
27.5240000000000009
 21
-192.453000000000003
 31
0.0
  0
LINE
  5
261
100
AcDbEntity
100
AcDbLine
  8
0
 62
256
370
-1
  6
ByLayer
 10
27.5240000000000009
 20
-192.453000000000003
 30
0.0
 11
27.6129999999999995
 21
-192.4029999999999916
 31
0.0
  0
LINE
  5
262
100
AcDbEntity
100
AcDbLine
  8
0
 62
256
370
-1
  6
ByLayer
 10
27.6129999999999995
 20
-192.4029999999999916
 30
0.0
 11
27.7079999999999984
 21
-192.3660000000000139
 31
0.0
  0
LINE
  5
263
100
AcDbEntity
100
AcDbLine
  8
0
 62
256
370
-1
  6
ByLayer
 10
27.7079999999999984
 20
-192.3660000000000139
 30
0.0
 11
27.8069999999999986
 21
-192.3400000000000034
 31
0.0
  0
LINE
  5
264
100
AcDbEntity
100
AcDbLine
  8
0
 62
256
370
-1
  6
ByLayer
 10
27.8069999999999986
 20
-192.3400000000000034
 30
0.0
 11
27.9089999999999989
 21
-192.328000000000003
 31
0.0
  0
LINE
  5
265
100
AcDbEntity
100
AcDbLine
  8
0
 62
256
370
-1
  6
ByLayer
 10
27.9089999999999989
 20
-192.328000000000003
 30
0.0
 11
28.0109999999999992
 21
-192.328000000000003
 31
0.0
  0
LINE
  5
266
100
AcDbEntity
100
AcDbLine
  8
0
 62
256
370
-1
  6
ByLayer
 10
28.0109999999999992
 20
-192.328000000000003
 30
0.0
 11
28.1129999999999995
 21
-192.3400000000000034
 31
0.0
  0
LINE
  5
267
100
AcDbEntity
100
AcDbLine
  8
0
 62
256
370
-1
  6
ByLayer
 10
28.1129999999999995
 20
-192.3400000000000034
 30
0.0
 11
28.2119999999999997
 21
-192.3660000000000139
 31
0.0
  0
LINE
  5
268
100
AcDbEntity
100
AcDbLine
  8
0
 62
256
370
-1
  6
ByLayer
 10
28.2119999999999997
 20
-192.3660000000000139
 30
0.0
 11
28.3069999999999986
 21
-192.4029999999999916
 31
0.0
  0
LINE
  5
269
100
AcDbEntity
100
AcDbLine
  8
0
 62
256
370
-1
  6
ByLayer
 10
28.3069999999999986
 20
-192.4029999999999916
 30
0.0
 11
28.3960000000000008
 21
-192.453000000000003
 31
0.0
  0
LINE
  5
26A
100
AcDbEntity
100
AcDbLine
  8
0
 62
256
370
-1
  6
ByLayer
 10
28.3960000000000008
 20
-192.453000000000003
 30
0.0
 11
28.4789999999999992
 21
-192.5130000000000052
 31
0.0
  0
LINE
  5
26B
100
AcDbEntity
100
AcDbLine
  8
0
 62
256
370
-1
  6
ByLayer
 10
28.4789999999999992
 20
-192.5130000000000052
 30
0.0
 11
28.5530000000000008
 21
-192.5829999999999984
 31
0.0
  0
LINE
  5
26C
100
AcDbEntity
100
AcDbLine
  8
0
 62
256
370
-1
  6
ByLayer
 10
28.5530000000000008
 20
-192.5829999999999984
 30
0.0
 11
28.6189999999999998
 21
-192.6620000000000061
 31
0.0
  0
LINE
  5
26D
100
AcDbEntity
100
AcDbLine
  8
0
 62
256
370
-1
  6
ByLayer
 10
28.6189999999999998
 20
-192.6620000000000061
 30
0.0
 11
28.6729999999999983
 21
-192.7479999999999905
 31
0.0
  0
LINE
  5
26E
100
AcDbEntity
100
AcDbLine
  8
0
 62
256
370
-1
  6
ByLayer
 10
28.6729999999999983
 20
-192.7479999999999905
 30
0.0
 11
28.7169999999999987
 21
-192.8400000000000034
 31
0.0
  0
LINE
  5
26F
100
AcDbEntity
100
AcDbLine
  8
0
 62
256
370
-1
  6
ByLayer
 10
28.7169999999999987
 20
-192.8400000000000034
 30
0.0
 11
28.7480000000000011
 21
-192.9379999999999882
 31
0.0
  0
LINE
  5
270
100
AcDbEntity
100
AcDbLine
  8
0
 62
256
370
-1
  6
ByLayer
 10
28.7480000000000011
 20
-192.9379999999999882
 30
0.0
 11
28.7680000000000007
 21
-193.0380000000000109
 31
0.0
  0
LINE
  5
271
100
AcDbEntity
100
AcDbLine
  8
0
 62
256
370
-1
  6
ByLayer
 10
28.7680000000000007
 20
-193.0380000000000109
 30
0.0
 11
28.7740000000000009
 21
-193.1399999999999864
 31
0.0
  0
LINE
  5
272
100
AcDbEntity
100
AcDbLine
  8
0
 62
256
370
-1
  6
ByLayer
 10
28.7740000000000009
 20
-193.1399999999999864
 30
0.0
 11
28.7680000000000007
 21
-193.2419999999999902
 31
0.0
  0
LINE
  5
273
100
AcDbEntity
100
AcDbLine
  8
0
 62
256
370
-1
  6
ByLayer
 10
28.7680000000000007
 20
-193.2419999999999902
 30
0.0
 11
28.7480000000000011
 21
-193.342000000000013
 31
0.0
  0
LINE
  5
274
100
AcDbEntity
100
AcDbLine
  8
0
 62
256
370
-1
  6
ByLayer
 10
28.7480000000000011
 20
-193.342000000000013
 30
0.0
 11
28.7169999999999987
 21
-193.4399999999999977
 31
0.0
  0
LINE
  5
275
100
AcDbEntity
100
AcDbLine
  8
0
 62
256
370
-1
  6
ByLayer
 10
28.7169999999999987
 20
-193.4399999999999977
 30
0.0
 11
28.6729999999999983
 21
-193.5320000000000107
 31
0.0
  0
LINE
  5
276
100
AcDbEntity
100
AcDbLine
  8
0
 62
256
370
-1
  6
ByLayer
 10
28.6729999999999983
 20
-193.5320000000000107
 30
0.0
 11
28.6189999999999998
 21
-193.617999999999995
 31
0.0
  0
LINE
  5
277
100
AcDbEntity
100
AcDbLine
  8
0
 62
256
370
-1
  6
ByLayer
 10
28.6189999999999998
 20
-193.617999999999995
 30
0.0
 11
28.5530000000000008
 21
-193.6970000000000027
 31
0.0
  0
LINE
  5
278
100
AcDbEntity
100
AcDbLine
  8
0
 62
256
370
-1
  6
ByLayer
 10
28.5530000000000008
 20
-193.6970000000000027
 30
0.0
 11
28.4789999999999992
 21
-193.7669999999999959
 31
0.0
  0
LINE
  5
279
100
AcDbEntity
100
AcDbLine
  8
0
 62
256
370
-1
  6
ByLayer
 10
28.4789999999999992
 20
-193.7669999999999959
 30
0.0
 11
28.3960000000000008
 21
-193.8269999999999982
 31
0.0
  0
LINE
  5
27A
100
AcDbEntity
100
AcDbLine
  8
0
 62
256
370
-1
  6
ByLayer
 10
28.3960000000000008
 20
-193.8269999999999982
 30
0.0
 11
28.3069999999999986
 21
-193.8770000000000095
 31
0.0
  0
LINE
  5
27B
100
AcDbEntity
100
AcDbLine
  8
0
 62
256
370
-1
  6
ByLayer
 10
28.3069999999999986
 20
-193.8770000000000095
 30
0.0
 11
28.2119999999999997
 21
-193.9139999999999873
 31
0.0
  0
LINE
  5
27C
100
AcDbEntity
100
AcDbLine
  8
0
 62
256
370
-1
  6
ByLayer
 10
28.2119999999999997
 20
-193.9139999999999873
 30
0.0
 11
28.1129999999999995
 21
-193.9399999999999977
 31
0.0
  0
LINE
  5
27D
100
AcDbEntity
100
AcDbLine
  8
0
 62
256
370
-1
  6
ByLayer
 10
28.1129999999999995
 20
-193.9399999999999977
 30
0.0
 11
28.0109999999999992
 21
-193.9519999999999982
 31
0.0
  0
LINE
  5
27E
100
AcDbEntity
100
AcDbLine
  8
0
 62
256
370
-1
  6
ByLayer
 10
28.0109999999999992
 20
-193.9519999999999982
 30
0.0
 11
27.9089999999999989
 21
-193.9519999999999982
 31
0.0
  0
LINE
  5
27F
100
AcDbEntity
100
AcDbLine
  8
0
 62
256
370
-1
  6
ByLayer
 10
27.9089999999999989
 20
-193.9519999999999982
 30
0.0
 11
27.8069999999999986
 21
-193.9399999999999977
 31
0.0
  0
LINE
  5
280
100
AcDbEntity
100
AcDbLine
  8
0
 62
256
370
-1
  6
ByLayer
 10
27.8069999999999986
 20
-193.9399999999999977
 30
0.0
 11
27.7079999999999984
 21
-193.9139999999999873
 31
0.0
  0
LINE
  5
281
100
AcDbEntity
100
AcDbLine
  8
0
 62
256
370
-1
  6
ByLayer
 10
27.7079999999999984
 20
-193.9139999999999873
 30
0.0
 11
27.6129999999999995
 21
-193.8770000000000095
 31
0.0
  0
LINE
  5
282
100
AcDbEntity
100
AcDbLine
  8
0
 62
256
370
-1
  6
ByLayer
 10
27.6129999999999995
 20
-193.8770000000000095
 30
0.0
 11
27.5240000000000009
 21
-193.8269999999999982
 31
0.0
  0
LINE
  5
283
100
AcDbEntity
100
AcDbLine
  8
0
 62
256
370
-1
  6
ByLayer
 10
27.5240000000000009
 20
-193.8269999999999982
 30
0.0
 11
27.4409999999999989
 21
-193.7669999999999959
 31
0.0
  0
LINE
  5
284
100
AcDbEntity
100
AcDbLine
  8
0
 62
256
370
-1
  6
ByLayer
 10
27.4409999999999989
 20
-193.7669999999999959
 30
0.0
 11
27.3670000000000009
 21
-193.6970000000000027
 31
0.0
  0
LINE
  5
285
100
AcDbEntity
100
AcDbLine
  8
0
 62
256
370
-1
  6
ByLayer
 10
27.3670000000000009
 20
-193.6970000000000027
 30
0.0
 11
27.3009999999999984
 21
-193.617999999999995
 31
0.0
  0
LINE
  5
286
100
AcDbEntity
100
AcDbLine
  8
0
 62
256
370
-1
  6
ByLayer
 10
27.3009999999999984
 20
-193.617999999999995
 30
0.0
 11
27.2469999999999999
 21
-193.5320000000000107
 31
0.0
  0
LINE
  5
287
100
AcDbEntity
100
AcDbLine
  8
0
 62
256
370
-1
  6
ByLayer
 10
27.2469999999999999
 20
-193.5320000000000107
 30
0.0
 11
27.2029999999999994
 21
-193.4399999999999977
 31
0.0
  0
LINE
  5
288
100
AcDbEntity
100
AcDbLine
  8
0
 62
256
370
-1
  6
ByLayer
 10
27.2029999999999994
 20
-193.4399999999999977
 30
0.0
 11
27.1720000000000006
 21
-193.342000000000013
 31
0.0
  0
LINE
  5
289
100
AcDbEntity
100
AcDbLine
  8
0
 62
256
370
-1
  6
ByLayer
 10
27.1720000000000006
 20
-193.342000000000013
 30
0.0
 11
27.152000000000001
 21
-193.2419999999999902
 31
0.0
  0
LINE
  5
28A
100
AcDbEntity
100
AcDbLine
  8
0
 62
256
370
-1
  6
ByLayer
 10
27.152000000000001
 20
-193.2419999999999902
 30
0.0
 11
27.1460000000000008
 21
-193.1399999999999864
 31
0.0
  0
LINE
  5
28B
100
AcDbEntity
100
AcDbLine
  8
0
 62
256
370
-1
  6
ByLayer
 10
30.6999999999999993
 20
-301.8279999999999745
 30
0.0
 11
30.6999999999999993
 21
-294.8279999999999745
 31
0.0
  0
LINE
  5
28C
100
AcDbEntity
100
AcDbLine
  8
0
 62
256
370
-1
  6
ByLayer
 10
30.6999999999999993
 20
-294.8279999999999745
 30
0.0
 11
33.7000000000000028
 21
-294.8279999999999745
 31
0.0
  0
LINE
  5
28D
100
AcDbEntity
100
AcDbLine
  8
0
 62
256
370
-1
  6
ByLayer
 10
33.7000000000000028
 20
-294.8279999999999745
 30
0.0
 11
33.7000000000000028
 21
-301.8279999999999745
 31
0.0
  0
LINE
  5
28E
100
AcDbEntity
100
AcDbLine
  8
0
 62
256
370
-1
  6
ByLayer
 10
33.7000000000000028
 20
-301.8279999999999745
 30
0.0
 11
30.6999999999999993
 21
-301.8279999999999745
 31
0.0
  0
LINE
  5
28F
100
AcDbEntity
100
AcDbLine
  8
0
 62
256
370
-1
  6
ByLayer
 10
30.6999999999999993
 20
-226.5159999999999911
 30
0.0
 11
30.6999999999999993
 21
-219.5159999999999911
 31
0.0
  0
LINE
  5
290
100
AcDbEntity
100
AcDbLine
  8
0
 62
256
370
-1
  6
ByLayer
 10
30.6999999999999993
 20
-219.5159999999999911
 30
0.0
 11
33.7000000000000028
 21
-219.5159999999999911
 31
0.0
  0
LINE
  5
291
100
AcDbEntity
100
AcDbLine
  8
0
 62
256
370
-1
  6
ByLayer
 10
33.7000000000000028
 20
-219.5159999999999911
 30
0.0
 11
33.7000000000000028
 21
-226.5159999999999911
 31
0.0
  0
LINE
  5
292
100
AcDbEntity
100
AcDbLine
  8
0
 62
256
370
-1
  6
ByLayer
 10
33.7000000000000028
 20
-226.5159999999999911
 30
0.0
 11
30.6999999999999993
 21
-226.5159999999999911
 31
0.0
  0
ENDSEC
  0
SECTION
  2
OBJECTS
  0
DICTIONARY
  5
C
100
AcDbDictionary
280
0
281
1
  3
ACAD_GROUP
350
D
  3
ACAD_LAYOUT
350
1A
  3
ACAD_MLINESTYLE
350
17
  3
ACAD_PLOTSETTINGS
350
19
  3
ACAD_PLOTSTYLENAME
350
E
  3
AcDbVariableDictionary
350
293
  0
DICTIONARY
  5
D
100
AcDbDictionary
280
0
281
1
  0
ACDBDICTIONARYWDFLT
  5
E
100
AcDbDictionary
281
1
  3
Normal
350
F
100
AcDbDictionaryWithDefault
340
F
  0
ACDBPLACEHOLDER
  5
F
  0
DICTIONARY
  5
17
100
AcDbDictionary
280
0
281
1
  3
Standard
350
18
  0
MLINESTYLE
  5
18
100
AcDbMlineStyle
  2
STANDARD
 70
0
  3

 62
256
 51
90.0
 52
90.0
 71
2
 49
0.5
 62
256
  6
BYLAYER
 49
-0.5
 62
256
  6
BYLAYER
  0
DICTIONARY
  5
19
100
AcDbDictionary
280
0
281
1
  0
DICTIONARY
  5
1A
100
AcDbDictionary
281
1
  3
Layout1
350
1E
  3
Layout2
350
26
  3
Model
350
22
  0
LAYOUT
  5
1E
100
AcDbPlotSettings
  1

  2
C:\Program Files\AutoCAD 2002\plotters\DWF ePlot (optimized for plotting).pc3
  4

  6

 40
0.0
 41
0.0
 42
0.0
 43
0.0
 44
0.0
 45
0.0
 46
0.0
 47
0.0
 48
0.0
 49
0.0
140
0.0
141
0.0
142
1.0
143
1.0
 70
688
 72
0
 73
0
 74
5
  7

 75
16
147
1.0
148
0.0
149
0.0
100
AcDbLayout
  1
Layout1
 70
1
 71
1
 10
0.0
 20
0.0
 11
420.0
 21
297.0
 12
0.0
 22
0.0
 32
0.0
 14
100000000000000000000.0
 24
100000000000000000000.0
 34
100000000000000000000.0
 15
-100000000000000000000.0
 25
-100000000000000000000.0
 35
-100000000000000000000.0
146
0.0
 13
0.0
 23
0.0
 33
0.0
 16
1.0
 26
0.0
 36
0.0
 17
0.0
 27
1.0
 37
0.0
 76
0
330
1B
  0
LAYOUT
  5
22
100
AcDbPlotSettings
  1

  2
C:\Program Files\AutoCAD 2002\plotters\DWF ePlot (optimized for plotting).pc3
  4

  6

 40
0.0
 41
0.0
 42
0.0
 43
0.0
 44
0.0
 45
0.0
 46
0.0
 47
0.0
 48
0.0
 49
0.0
140
0.0
141
0.0
142
1.0
143
1.0
 70
1712
 72
0
 73
0
 74
0
  7

 75
0
147
1.0
148
0.0
149
0.0
100
AcDbLayout
  1
Model
 70
1
 71
0
 10
0.0
 20
0.0
 11
12.0
 21
9.0
 12
0.0
 22
0.0
 32
0.0
 14
0.0
 24
0.0
 34
0.0
 15
0.0
 25
0.0
 35
0.0
146
0.0
 13
0.0
 23
0.0
 33
0.0
 16
1.0
 26
0.0
 36
0.0
 17
0.0
 27
1.0
 37
0.0
 76
0
330
1F
  0
LAYOUT
  5
26
100
AcDbPlotSettings
  1

  2
C:\Program Files\AutoCAD 2002\plotters\DWF ePlot (optimized for plotting).pc3
  4

  6

 40
0.0
 41
0.0
 42
0.0
 43
0.0
 44
0.0
 45
0.0
 46
0.0
 47
0.0
 48
0.0
 49
0.0
140
0.0
141
0.0
142
1.0
143
1.0
 70
688
 72
0
 73
0
 74
5
  7

 75
16
147
1.0
148
0.0
149
0.0
100
AcDbLayout
  1
Layout2
 70
1
 71
2
 10
0.0
 20
0.0
 11
12.0
 21
9.0
 12
0.0
 22
0.0
 32
0.0
 14
0.0
 24
0.0
 34
0.0
 15
0.0
 25
0.0
 35
0.0
146
0.0
 13
0.0
 23
0.0
 33
0.0
 16
1.0
 26
0.0
 36
0.0
 17
0.0
 27
1.0
 37
0.0
 76
0
330
23
  0
DICTIONARY
  5
293
100
AcDbDictionary
281
1
  3
DIMASSOC
350
295
  3
HIDETEXT
350
294
  0
DICTIONARYVAR
  5
294
100
DictionaryVariables
280
0
  1
2
  0
DICTIONARYVAR
  5
295
100
DictionaryVariables
280
0
  1
1
  0
ENDSEC
  0
EOF
