<?xml version="1.0" encoding="utf-8"?>
<!-- Generator: Adobe Illustrator 15.1.0, SVG Export Plug-In . SVG Version: 6.00 Build 0)  -->
<!DOCTYPE svg PUBLIC "-//W3C//DTD SVG 1.1//EN" "http://www.w3.org/Graphics/SVG/1.1/DTD/svg11.dtd">
<svg version="1.1" id="_x30_" xmlns="http://www.w3.org/2000/svg" xmlns:xlink="http://www.w3.org/1999/xlink" x="0px" y="0px"
	 width="864px" height="576px" viewBox="0 0 864 576" enable-background="new 0 0 864 576" xml:space="preserve">
<path fill="#FF0000" d="M263.32,13.089c-5.284,0-9.567,4.283-9.567,9.567c0,5.283,4.283,9.566,9.567,9.566
	c5.283,0,9.566-4.283,9.566-9.566C272.887,17.372,268.604,13.089,263.32,13.089z M263.32,27.617c-2.739,0-4.961-2.222-4.961-4.961
	s2.222-4.961,4.961-4.961s4.961,2.222,4.961,4.961S266.06,27.617,263.32,27.617z"/>
<circle fill="none" stroke="#00FF00" stroke-width="0.25" stroke-miterlimit="10" cx="263.32" cy="22.656" r="9.744"/>
<path fill="#FF0000" d="M335.32,13.089c-5.284,0-9.567,4.283-9.567,9.567c0,5.283,4.283,9.566,9.567,9.566
	c5.283,0,9.566-4.283,9.566-9.566C344.887,17.372,340.604,13.089,335.32,13.089z M335.32,27.617c-2.739,0-4.961-2.222-4.961-4.961
	s2.222-4.961,4.961-4.961s4.961,2.222,4.961,4.961S338.06,27.617,335.32,27.617z"/>
<circle fill="none" stroke="#00FF00" stroke-width="0.25" stroke-miterlimit="10" cx="335.32" cy="22.656" r="9.744"/>
<path fill="#FF0000" d="M191.32,13.089c-5.284,0-9.567,4.283-9.567,9.567c0,5.283,4.283,9.566,9.567,9.566
	c5.283,0,9.566-4.283,9.566-9.566C200.887,17.372,196.604,13.089,191.32,13.089z M191.32,27.617c-2.739,0-4.961-2.222-4.961-4.961
	s2.222-4.961,4.961-4.961s4.961,2.222,4.961,4.961S194.06,27.617,191.32,27.617z"/>
<circle fill="none" stroke="#00FF00" stroke-width="0.25" stroke-miterlimit="10" cx="191.32" cy="22.656" r="9.744"/>
<path fill="#FF0000" d="M119.321,13.089c-5.284,0-9.567,4.283-9.567,9.567c0,5.283,4.283,9.566,9.567,9.566
	c5.283,0,9.566-4.283,9.566-9.566C128.888,17.372,124.604,13.089,119.321,13.089z M119.321,27.617c-2.739,0-4.961-2.222-4.961-4.961
	s2.222-4.961,4.961-4.961s4.961,2.222,4.961,4.961S122.061,27.617,119.321,27.617z"/>
<circle fill="none" stroke="#00FF00" stroke-width="0.25" stroke-miterlimit="10" cx="47.321" cy="22.656" r="9.744"/>
<path fill="#FF0000" d="M47.325,13.089c-5.284,0-9.567,4.283-9.567,9.567c0,5.283,4.283,9.566,9.567,9.566
	c5.283,0,9.566-4.283,9.566-9.566C56.892,17.372,52.608,13.089,47.325,13.089z M47.325,27.617c-2.739,0-4.96-2.221-4.96-4.961
	c0-2.739,2.221-4.96,4.96-4.96c2.74,0,4.961,2.221,4.961,4.96C52.286,25.396,50.064,27.617,47.325,27.617z"/>
<circle fill="none" stroke="#00FF00" stroke-width="0.25" stroke-miterlimit="10" cx="119.321" cy="22.656" r="9.744"/>
<text transform="matrix(1 0 0 1 159.5 -10)" fill="#0000FF" font-family="'ArialMT'" font-size="12">2mm depth</text>
</svg>
