<?xml version="1.0"?>
<!DOCTYPE svg PUBLIC "-//W3C//DTD SVG 1.1//EN" "http://www.w3.org/Graphics/SVG/1.1/DTD/svg11.dtd">
<svg width="173.4mm" height="26.45mm" viewBox="0 0 173.4 26.45" xmlns="http://www.w3.org/2000/svg" version="1.1">
<g transform="translate(86.7,3.4) scale(1,-1)">
<path id="Pad" d="M -85.0 23.05 L -85.0 23.05 L -85.0 0.0 L -85.0 0.0 L -85.0 23.05 Z" stroke="#191919" stroke-width="0.35 px" style="stroke-width:0.35;stroke-miterlimit:4;stroke-dasharray:none;fill:#cccccc"/>
<path id="Pad" d="M -85.0 0.0 L -85.0 0.0 L 85.0 -2.46519032882e-32 L 85.0 -2.46519032882e-32 L -85.0 0.0 Z" stroke="#191919" stroke-width="0.35 px" style="stroke-width:0.35;stroke-miterlimit:4;stroke-dasharray:none;fill:#cccccc"/>
<path id="Pad" d="M 85.0 -2.46519032882e-32 L 85.0 -2.46519032882e-32 L 85.0 19.05 L 85.0 19.05 L 85.0 0.0 Z" stroke="#191919" stroke-width="0.35 px" style="stroke-width:0.35;stroke-miterlimit:4;stroke-dasharray:none;fill:#cccccc"/>
<path id="Pad" d="M 85.0 19.05 L 85.0 19.05 L 55.8 19.05 L 55.8 19.05 L 85.0 19.05 Z" stroke="#191919" stroke-width="0.35 px" style="stroke-width:0.35;stroke-miterlimit:4;stroke-dasharray:none;fill:#cccccc"/>
<path id="Pad" d="M 55.8 19.05 L 55.8 19.05 L 55.8 9.05 L 55.8 9.05 L 55.8 19.05 Z" stroke="#191919" stroke-width="0.35 px" style="stroke-width:0.35;stroke-miterlimit:4;stroke-dasharray:none;fill:#cccccc"/>
<path id="Pad" d="M 55.8 9.05 L 55.8 9.05 L 45.8 9.05 L 45.8 9.05 L 55.8 9.05 Z" stroke="#191919" stroke-width="0.35 px" style="stroke-width:0.35;stroke-miterlimit:4;stroke-dasharray:none;fill:#cccccc"/>
<path id="Pad" d="M 45.8 9.05 L 45.8 9.05 L 45.8 19.05 L 45.8 19.05 L 45.8 9.05 Z" stroke="#191919" stroke-width="0.35 px" style="stroke-width:0.35;stroke-miterlimit:4;stroke-dasharray:none;fill:#cccccc"/>
<path id="Pad" d="M 45.8 19.05 L 45.8 19.05 L 30.4 19.05 L 30.4 19.05 L 45.8 19.05 Z" stroke="#191919" stroke-width="0.35 px" style="stroke-width:0.35;stroke-miterlimit:4;stroke-dasharray:none;fill:#cccccc"/>
<path id="Pad" d="M 30.4 19.05 L 30.4 19.05 L 30.4 9.05 L 30.4 9.05 L 30.4 19.05 Z" stroke="#191919" stroke-width="0.35 px" style="stroke-width:0.35;stroke-miterlimit:4;stroke-dasharray:none;fill:#cccccc"/>
<path id="Pad" d="M 30.4 9.05 L 30.4 9.05 L 20.4 9.05 L 20.4 9.05 L 30.4 9.05 Z" stroke="#191919" stroke-width="0.35 px" style="stroke-width:0.35;stroke-miterlimit:4;stroke-dasharray:none;fill:#cccccc"/>
<path id="Pad" d="M 20.4 9.05 L 20.4 9.05 L 20.4 19.05 L 20.4 19.05 L 20.4 9.05 Z" stroke="#191919" stroke-width="0.35 px" style="stroke-width:0.35;stroke-miterlimit:4;stroke-dasharray:none;fill:#cccccc"/>
<path id="Pad" d="M 20.4 19.05 L 20.4 19.05 L 5.0 19.05 L 5.0 19.05 L 20.4 19.05 Z" stroke="#191919" stroke-width="0.35 px" style="stroke-width:0.35;stroke-miterlimit:4;stroke-dasharray:none;fill:#cccccc"/>
<path id="Pad" d="M 5.0 19.05 L 5.0 19.05 L 5.0 9.05 L 5.0 9.05 L 5.0 19.05 Z" stroke="#191919" stroke-width="0.35 px" style="stroke-width:0.35;stroke-miterlimit:4;stroke-dasharray:none;fill:#cccccc"/>
<path id="Pad" d="M 5.0 9.05 L 5.0 9.05 L -5.0 9.05 L -5.0 9.05 L 5.0 9.05 Z" stroke="#191919" stroke-width="0.35 px" style="stroke-width:0.35;stroke-miterlimit:4;stroke-dasharray:none;fill:#cccccc"/>
<path id="Pad" d="M -5.0 9.05 L -5.0 9.05 L -5.0 19.05 L -5.0 19.05 L -5.0 9.05 Z" stroke="#191919" stroke-width="0.35 px" style="stroke-width:0.35;stroke-miterlimit:4;stroke-dasharray:none;fill:#cccccc"/>
<path id="Pad" d="M -5.0 19.05 L -5.0 19.05 L -20.4 19.05 L -20.4 19.05 L -5.0 19.05 Z" stroke="#191919" stroke-width="0.35 px" style="stroke-width:0.35;stroke-miterlimit:4;stroke-dasharray:none;fill:#cccccc"/>
<path id="Pad" d="M -20.4 19.05 L -20.4 19.05 L -20.4 9.05 L -20.4 9.05 L -20.4 19.05 Z" stroke="#191919" stroke-width="0.35 px" style="stroke-width:0.35;stroke-miterlimit:4;stroke-dasharray:none;fill:#cccccc"/>
<path id="Pad" d="M -20.4 9.05 L -20.4 9.05 L -30.4 9.05 L -30.4 9.05 L -20.4 9.05 Z" stroke="#191919" stroke-width="0.35 px" style="stroke-width:0.35;stroke-miterlimit:4;stroke-dasharray:none;fill:#cccccc"/>
<path id="Pad" d="M -30.4 9.05 L -30.4 9.05 L -30.4 19.05 L -30.4 19.05 L -30.4 9.05 Z" stroke="#191919" stroke-width="0.35 px" style="stroke-width:0.35;stroke-miterlimit:4;stroke-dasharray:none;fill:#cccccc"/>
<path id="Pad" d="M -30.4 19.05 L -30.4 19.05 L -45.8 19.05 L -45.8 19.05 L -30.4 19.05 Z" stroke="#191919" stroke-width="0.35 px" style="stroke-width:0.35;stroke-miterlimit:4;stroke-dasharray:none;fill:#cccccc"/>
<path id="Pad" d="M -45.8 19.05 L -45.8 19.05 L -45.8 9.05 L -45.8 9.05 L -45.8 19.05 Z" stroke="#191919" stroke-width="0.35 px" style="stroke-width:0.35;stroke-miterlimit:4;stroke-dasharray:none;fill:#cccccc"/>
<path id="Pad" d="M -45.8 9.05 L -45.8 9.05 L -55.8 9.05 L -55.8 9.05 L -45.8 9.05 Z" stroke="#191919" stroke-width="0.35 px" style="stroke-width:0.35;stroke-miterlimit:4;stroke-dasharray:none;fill:#cccccc"/>
<path id="Pad" d="M -55.8 9.05 L -55.8 9.05 L -55.8 19.05 L -55.8 19.05 L -55.8 9.05 Z" stroke="#191919" stroke-width="0.35 px" style="stroke-width:0.35;stroke-miterlimit:4;stroke-dasharray:none;fill:#cccccc"/>
<path id="Pad" d="M -55.8 19.05 L -55.8 19.05 L -80.0 19.05 L -80.0 19.05 L -55.8 19.05 Z" stroke="#191919" stroke-width="0.35 px" style="stroke-width:0.35;stroke-miterlimit:4;stroke-dasharray:none;fill:#cccccc"/>
<path id="Pad" d="M -80.0 19.05 L -80.0 19.05 L -80.0 23.05 L -80.0 23.05 L -80.0 19.05 Z" stroke="#191919" stroke-width="0.35 px" style="stroke-width:0.35;stroke-miterlimit:4;stroke-dasharray:none;fill:#cccccc"/>
<path id="Pad" d="M -80.0 23.05 L -80.0 23.05 L -85.0 23.05 L -85.0 23.05 L -80.0 23.05 Z" stroke="#191919" stroke-width="0.35 px" style="stroke-width:0.35;stroke-miterlimit:4;stroke-dasharray:none;fill:#cccccc"/>
<path id="Pad" d="M -85.0 23.05 L -85.0 0.0 L 85.0 -2.46519032882e-32 L 85.0 19.05 L 55.8 19.05 L 55.8 9.05 L 45.8 9.05 L 45.8 19.05 L 30.4 19.05 L 30.4 9.05 L 20.4 9.05 L 20.4 19.05 L 5.0 19.05 L 5.0 9.05 L -5.0 9.05 L -5.0 19.05 L -20.4 19.05 L -20.4 9.05 L -30.4 9.05 L -30.4 19.05 L -45.8 19.05 L -45.8 9.05 L -55.8 9.05 L -55.8 19.05 L -80.0 19.05 L -80.0 23.05 L -85.0 23.05 Z" stroke="#191919" stroke-width="0.35 px" style="stroke-width:0.35;stroke-miterlimit:4;stroke-dasharray:none;fill:#cccccc"/>
<path id="Pad" d="M -85.0 23.05 L -85.0 0.0 L 85.0 -2.46519032882e-32 L 85.0 19.05 L 55.8 19.05 L 55.8 9.05 L 45.8 9.05 L 45.8 19.05 L 30.4 19.05 L 30.4 9.05 L 20.4 9.05 L 20.4 19.05 L 5.0 19.05 L 5.0 9.05 L -5.0 9.05 L -5.0 19.05 L -20.4 19.05 L -20.4 9.05 L -30.4 9.05 L -30.4 19.05 L -45.8 19.05 L -45.8 9.05 L -55.8 9.05 L -55.8 19.05 L -80.0 19.05 L -80.0 23.05 L -85.0 23.05 Z" stroke="#191919" stroke-width="0.35 px" style="stroke-width:0.35;stroke-miterlimit:4;stroke-dasharray:none;fill:#cccccc"/>
</g>
</svg>