<?xml version="1.0" encoding="UTF-8" standalone="no"?>
<svg
   xmlns:dc="http://purl.org/dc/elements/1.1/"
   xmlns:cc="http://creativecommons.org/ns#"
   xmlns:rdf="http://www.w3.org/1999/02/22-rdf-syntax-ns#"
   xmlns:svg="http://www.w3.org/2000/svg"
   xmlns="http://www.w3.org/2000/svg"
   xmlns:sodipodi="http://sodipodi.sourceforge.net/DTD/sodipodi-0.dtd"
   xmlns:inkscape="http://www.inkscape.org/namespaces/inkscape"
   width="183.6mm"
   height="35.2mm"
   viewBox="0 0 183.6 35.2"
   version="1.1"
   id="svg2"
   inkscape:version="0.48.3.1 r9886"
   sodipodi:docname="top.pdf">
  <metadata
     id="metadata101">
    <rdf:RDF>
      <cc:Work
         rdf:about="">
        <dc:format>image/svg+xml</dc:format>
        <dc:type
           rdf:resource="http://purl.org/dc/dcmitype/StillImage" />
        <dc:title></dc:title>
      </cc:Work>
    </rdf:RDF>
  </metadata>
  <defs
     id="defs99" />
  <sodipodi:namedview
     pagecolor="#ffffff"
     bordercolor="#666666"
     borderopacity="1"
     objecttolerance="10"
     gridtolerance="10"
     guidetolerance="10"
     inkscape:pageopacity="0"
     inkscape:pageshadow="2"
     inkscape:window-width="1600"
     inkscape:window-height="1144"
     id="namedview97"
     showgrid="false"
     inkscape:zoom="0.9863274"
     inkscape:cx="557.08487"
     inkscape:cy="47.154274"
     inkscape:window-x="1600"
     inkscape:window-y="31"
     inkscape:window-maximized="1"
     inkscape:current-layer="svg2" />
  <path
     inkscape:connector-curvature="0"
     style="fill:none;stroke:#000000;stroke-width:0.01;stroke-miterlimit:4;stroke-dasharray:none;stroke-opacity:1"
     d="m 1.8,32.6 0,0 a 1,1 0 0 0 1,1 l 0,0 a 1,1 0 0 1 -1,-1 z"
     id="Pocket002" />
  <path
     inkscape:connector-curvature="0"
     style="fill:none;stroke:#000000;stroke-width:0.01;stroke-miterlimit:4;stroke-dasharray:none;stroke-opacity:1"
     d="m 1.8,32.6 0,0 0,-29.6 0,0 0,29.6 z"
     id="path7" />
  <path
     inkscape:connector-curvature="0"
     style="fill:none;stroke:#000000;stroke-width:0.01;stroke-miterlimit:4;stroke-dasharray:none;stroke-opacity:1"
     d="m 25.8,33.6 0,0 -23,0 0,0 23,0 z"
     id="path9" />
  <path
     inkscape:connector-curvature="0"
     style="fill:none;stroke:#000000;stroke-width:0.01;stroke-miterlimit:4;stroke-dasharray:none;stroke-opacity:1"
     d="m 143.15,11.6 0,-4 -1.1,0 0,4 1.1,0 z"
     id="path11" />
  <path
     inkscape:connector-curvature="0"
     style="fill:none;stroke:#000000;stroke-width:0.01;stroke-miterlimit:4;stroke-dasharray:none;stroke-opacity:1"
     d="m 2.8,2 0,0 a 1,1 0 0 0 -1,1 l 0,0 a 1,1 0 0 1 1,-1 z"
     id="path15" />
  <path
     inkscape:connector-curvature="0"
     style="fill:none;stroke:#000000;stroke-width:0.01;stroke-miterlimit:4;stroke-dasharray:none;stroke-opacity:1"
     d="m 25.8,33.6 0,0 a 1,1 0 0 0 1,-1 l 0,0 a 1,1 0 0 1 -1,1 z"
     id="path17" />
  <path
     inkscape:connector-curvature="0"
     style="fill:none;stroke:#000000;stroke-width:0.01;stroke-miterlimit:4;stroke-dasharray:none;stroke-opacity:1"
     d="m 41.55,7.6 0,0 0,4 0,0 0,-4 z"
     id="path27" />
  <path
     inkscape:connector-curvature="0"
     style="fill:none;stroke:#000000;stroke-width:0.01;stroke-miterlimit:4;stroke-dasharray:none;stroke-opacity:1"
     d="m 41.55,11.6 0,0 -1.1,0 0,0 1.1,0 z"
     id="path29" />
  <path
     inkscape:connector-curvature="0"
     style="fill:none;stroke:#000000;stroke-width:0.01;stroke-miterlimit:4;stroke-dasharray:none;stroke-opacity:1"
     d="m 40.45,11.6 0,0 0,-4 0,0 0,4 z"
     id="path31" />
  <path
     inkscape:connector-curvature="0"
     style="fill:none;stroke:#000000;stroke-width:0.01;stroke-miterlimit:4;stroke-dasharray:none;stroke-opacity:1"
     d="m 40.45,7.6 0,0 1.1,0 0,0 -1.1,0 z"
     id="path33" />
  <path
     inkscape:connector-curvature="0"
     style="fill:none;stroke:#000000;stroke-width:0.01;stroke-miterlimit:4;stroke-dasharray:none;stroke-opacity:1"
     d="m 92.35,7.6 0,0 0,4 0,0 0,-4 z"
     id="path35" />
  <path
     inkscape:connector-curvature="0"
     style="fill:none;stroke:#000000;stroke-width:0.01;stroke-miterlimit:4;stroke-dasharray:none;stroke-opacity:1"
     d="m 92.35,11.6 0,0 -1.1,0 0,0 1.1,0 z"
     id="path37" />
  <path
     inkscape:connector-curvature="0"
     style="fill:none;stroke:#000000;stroke-width:0.01;stroke-miterlimit:4;stroke-dasharray:none;stroke-opacity:1"
     d="m 91.25,11.6 0,0 0,-4 0,0 0,4 z"
     id="path39" />
  <path
     inkscape:connector-curvature="0"
     style="fill:none;stroke:#000000;stroke-width:0.01;stroke-miterlimit:4;stroke-dasharray:none;stroke-opacity:1"
     d="m 91.25,7.6 0,0 1.1,0 0,0 -1.1,0 z"
     id="path41" />
  <path
     inkscape:connector-curvature="0"
     style="fill:none;stroke:#000000;stroke-width:0.01;stroke-miterlimit:4;stroke-dasharray:none;stroke-opacity:1"
     d="m 117.75,7.6 0,0 0,4 0,0 0,-4 z"
     id="path43" />
  <path
     inkscape:connector-curvature="0"
     style="fill:none;stroke:#000000;stroke-width:0.01;stroke-miterlimit:4;stroke-dasharray:none;stroke-opacity:1"
     d="m 117.75,11.6 0,0 -1.1,0 0,0 1.1,0 z"
     id="path45" />
  <path
     inkscape:connector-curvature="0"
     style="fill:none;stroke:#000000;stroke-width:0.01;stroke-miterlimit:4;stroke-dasharray:none;stroke-opacity:1"
     d="m 116.65,11.6 0,0 0,-4 0,0 0,4 z"
     id="path47" />
  <path
     inkscape:connector-curvature="0"
     style="fill:none;stroke:#000000;stroke-width:0.01;stroke-miterlimit:4;stroke-dasharray:none;stroke-opacity:1"
     d="m 116.65,7.6 0,0 1.1,0 0,0 -1.1,0 z"
     id="path49" />
  <path
     inkscape:connector-curvature="0"
     style="fill:none;stroke:#000000;stroke-width:0.01;stroke-miterlimit:4;stroke-dasharray:none;stroke-opacity:1"
     d="m 66.95,7.6 0,0 0,4 0,0 0,-4 z"
     id="path51" />
  <path
     inkscape:connector-curvature="0"
     style="fill:none;stroke:#000000;stroke-width:0.01;stroke-miterlimit:4;stroke-dasharray:none;stroke-opacity:1"
     d="m 66.95,11.6 0,0 -1.1,0 0,0 1.1,0 z"
     id="path53" />
  <path
     inkscape:connector-curvature="0"
     style="fill:none;stroke:#000000;stroke-width:0.01;stroke-miterlimit:4;stroke-dasharray:none;stroke-opacity:1"
     d="m 65.85,11.6 0,0 0,-4 0,0 0,4 z"
     id="path55" />
  <path
     inkscape:connector-curvature="0"
     style="fill:none;stroke:#000000;stroke-width:0.01;stroke-miterlimit:4;stroke-dasharray:none;stroke-opacity:1"
     d="m 65.85,7.6 0,0 1.1,0 0,0 -1.1,0 z"
     id="path57" />
  <path
     inkscape:connector-curvature="0"
     style="fill:none;stroke:#000000;stroke-width:0.01;stroke-miterlimit:4;stroke-dasharray:none;stroke-opacity:1"
     d="m 21.8,17 0,0 0,1.6 0,0 0,-1.6 z"
     id="path59" />
  <path
     inkscape:connector-curvature="0"
     style="fill:none;stroke:#000000;stroke-width:0.01;stroke-miterlimit:4;stroke-dasharray:none;stroke-opacity:1"
     d="m 21.8,18.6 0,0 -15,0 0,0 15,0 z"
     id="path61" />
  <path
     inkscape:connector-curvature="0"
     style="fill:none;stroke:#000000;stroke-width:0.01;stroke-miterlimit:4;stroke-dasharray:none;stroke-opacity:1"
     d="m 6.8,17 0,0 15,0 0,0 -15,0 z"
     id="path63" />
  <path
     inkscape:connector-curvature="0"
     style="fill:none;stroke:#000000;stroke-width:0.01;stroke-miterlimit:4;stroke-dasharray:none;stroke-opacity:1"
     d="m 6.8,18.6 0,0 0,-1.6 0,0 0,1.6 z"
     id="path65" />
  <path
     inkscape:connector-curvature="0"
     style="fill:none;stroke:#000000;stroke-width:0.01;stroke-miterlimit:4;stroke-dasharray:none;stroke-opacity:1"
     d="m 170.7732,26.1 0,0 A 1.4732,1.4732 0 0 1 169.3,27.5732 1.4732,1.4732 0 1 1 170.7732,26.1 z"
     id="path67" />
  <path
     inkscape:connector-curvature="0"
     style="fill:none;stroke:#000000;stroke-width:0.01;stroke-miterlimit:4;stroke-dasharray:none;stroke-opacity:1"
     d="m 15.7732,26.1 0,0 A 1.4732,1.4732 0 0 1 14.3,27.5732 1.4732,1.4732 0 1 1 15.7732,26.1 z"
     id="path69" />
  <path
     inkscape:connector-curvature="0"
     style="fill:none;stroke:#000000;stroke-width:0.01;stroke-miterlimit:4;stroke-dasharray:none;stroke-opacity:1"
     d="m 170.77,7 0,0 A 1.47,1.47 0 0 1 169.3,8.47 1.47,1.47 0 1 1 170.77,7 z"
     id="path71" />
  <path
     inkscape:connector-curvature="0"
     style="fill:none;stroke:#000000;stroke-width:0.01;stroke-miterlimit:4;stroke-dasharray:none;stroke-opacity:1"
     d="m 15.77,7 0,0 A 1.47,1.47 0 0 1 14.3,8.47 1.47,1.47 0 1 1 15.77,7 z"
     id="path73" />
  <path
     inkscape:connector-curvature="0"
     style="fill:none;stroke:#000000;stroke-width:0.01;stroke-miterlimit:4;stroke-dasharray:none;stroke-opacity:1"
     d="m 2.8,2 0,0 178,0 0,0 -178,0 z"
     id="path75" />
  <path
     inkscape:connector-curvature="0"
     style="fill:none;stroke:#000000;stroke-width:0.01;stroke-miterlimit:4;stroke-dasharray:none;stroke-opacity:1"
     d="m 26.8,19.6 0,0 0,13 0,0 0,-13 z"
     id="path77" />
  <path
     inkscape:connector-curvature="0"
     style="fill:none;stroke:#000000;stroke-width:0.01;stroke-miterlimit:4;stroke-dasharray:none;stroke-opacity:1"
     d="m 181.8,3 0,0 a 1,1 0 0 0 -1,-1 l 0,0 a 1,1 0 0 1 1,1 z"
     id="path79" />
  <path
     inkscape:connector-curvature="0"
     style="fill:none;stroke:#000000;stroke-width:0.01;stroke-miterlimit:4;stroke-dasharray:none;stroke-opacity:1"
     d="m 27.8,18.6 0,0 a 1,1 0 0 0 -1,1 l 0,0 a 1,1 0 0 1 1,-1 z"
     id="path81" />
  <path
     inkscape:connector-curvature="0"
     style="fill:none;stroke:#000000;stroke-width:0.01;stroke-miterlimit:4;stroke-dasharray:none;stroke-opacity:1"
     d="m 181.8,3 0,0 0,29.6 0,0 0,-29.6 z"
     id="path83" />
  <path
     inkscape:connector-curvature="0"
     style="fill:none;stroke:#000000;stroke-width:0.01;stroke-miterlimit:4;stroke-dasharray:none;stroke-opacity:1"
     d="m 155.8,18.6 0,0 -128,0 0,0 128,0 z"
     id="path85" />
  <path
     inkscape:connector-curvature="0"
     style="fill:none;stroke:#000000;stroke-width:0.01;stroke-miterlimit:4;stroke-dasharray:none;stroke-opacity:1"
     d="m 180.8,33.6 0,0 a 1,1 0 0 0 1,-1 l 0,0 a 1,1 0 0 1 -1,1 z"
     id="path87" />
  <path
     inkscape:connector-curvature="0"
     style="fill:none;stroke:#000000;stroke-width:0.01;stroke-miterlimit:4;stroke-dasharray:none;stroke-opacity:1"
     d="m 156.8,19.6 0,0 a 1,1 0 0 0 -1,-1 l 0,0 a 1,1 0 0 1 1,1 z"
     id="path89" />
  <path
     inkscape:connector-curvature="0"
     style="fill:none;stroke:#000000;stroke-width:0.01;stroke-miterlimit:4;stroke-dasharray:none;stroke-opacity:1"
     d="m 180.8,33.6 0,0 -23,0 0,0 23,0 z"
     id="path91" />
  <path
     inkscape:connector-curvature="0"
     style="fill:none;stroke:#000000;stroke-width:0.01;stroke-miterlimit:4;stroke-dasharray:none;stroke-opacity:1"
     d="m 156.8,32.6 0,0 0,-13 0,0 0,13 z"
     id="path93" />
  <path
     inkscape:connector-curvature="0"
     style="fill:none;stroke:#000000;stroke-width:0.01;stroke-miterlimit:4;stroke-dasharray:none;stroke-opacity:1"
     d="m 156.8,32.6 0,0 a 1,1 0 0 0 1,1 l 0,0 a 1,1 0 0 1 -1,-1 z"
     id="path95" />
</svg>
