<?xml version="1.0"?>
<!DOCTYPE svg PUBLIC "-//W3C//DTD SVG 1.1//EN" "http://www.w3.org/Graphics/SVG/1.1/DTD/svg11.dtd">
<svg width="183.6mm" height="35.2mm" viewBox="0 0 183.6 35.2" xmlns="http://www.w3.org/2000/svg" version="1.1">
<g transform="translate(91.8,18.6) scale(1,-1)">
<path id="Pocket002" d="M -89.0 16.6 L -89.0 16.6 L 89.0 16.6 L 89.0 16.6 L -89.0 16.6 Z" stroke="#191919" stroke-width="0.35 px" style="stroke-width:0.35;stroke-miterlimit:4;stroke-dasharray:none;fill:#cccccc"/>
<path id="Pocket002" d="M -89.0 16.6 L -89.0 16.6 A 1.0 1.0 0 0 1 -90.0 15.6 L -90.0 15.6 A 1.0 1.0 0 0 0 -89.0 16.6 Z" stroke="#191919" stroke-width="0.35 px" style="stroke-width:0.35;stroke-miterlimit:4;stroke-dasharray:none;fill:#cccccc"/>
<path id="Pocket002" d="M 90.0 15.6 L 90.0 15.6 A 1.0 1.0 0 0 1 89.0 16.6 L 89.0 16.6 A 1.0 1.0 0 0 0 90.0 15.6 Z" stroke="#191919" stroke-width="0.35 px" style="stroke-width:0.35;stroke-miterlimit:4;stroke-dasharray:none;fill:#cccccc"/>
<path id="Pocket002" d="M 50.25 6.0 L 50.25 10.0 L 51.35 10.0 L 51.35 6.0 L 50.25 6.0 Z" stroke="#191919" stroke-width="0.35 px" style="stroke-width:0.35;stroke-miterlimit:4;stroke-dasharray:none;fill:#cccccc"/>
<circle cx="-77.5" cy="10.0" r="1.47" stroke="#191919" stroke-width="0.35 px" style="stroke-width:0.35;stroke-miterlimit:4;stroke-dasharray:none;fill:#cccccc"/>
<path id="Pocket002" d="M -90.0 -14.0 L -90.0 -14.0 L -90.0 15.6 L -90.0 15.6 L -90.0 -14.0 Z" stroke="#191919" stroke-width="0.35 px" style="stroke-width:0.35;stroke-miterlimit:4;stroke-dasharray:none;fill:#cccccc"/>
<path id="Pocket002" d="M 90.0 15.6 L 90.0 15.6 L 90.0 -14.0 L 90.0 -14.0 L 90.0 15.6 Z" stroke="#191919" stroke-width="0.35 px" style="stroke-width:0.35;stroke-miterlimit:4;stroke-dasharray:none;fill:#cccccc"/>
<path id="Pocket002" d="M 50.25 6.0 L 50.25 6.0 L 50.25 10.0 L 50.25 10.0 L 50.25 6.0 Z" stroke="#191919" stroke-width="0.35 px" style="stroke-width:0.35;stroke-miterlimit:4;stroke-dasharray:none;fill:#cccccc"/>
<path id="Pocket002" d="M 51.35 6.0 L 51.35 6.0 L 50.25 6.0 L 50.25 6.0 L 51.35 6.0 Z" stroke="#191919" stroke-width="0.35 px" style="stroke-width:0.35;stroke-miterlimit:4;stroke-dasharray:none;fill:#cccccc"/>
<path id="Pocket002" d="M 51.35 10.0 L 51.35 10.0 L 51.35 6.0 L 51.35 6.0 L 51.35 10.0 Z" stroke="#191919" stroke-width="0.35 px" style="stroke-width:0.35;stroke-miterlimit:4;stroke-dasharray:none;fill:#cccccc"/>
<path id="Pocket002" d="M 50.25 10.0 L 50.25 10.0 L 51.35 10.0 L 51.35 10.0 L 50.25 10.0 Z" stroke="#191919" stroke-width="0.35 px" style="stroke-width:0.35;stroke-miterlimit:4;stroke-dasharray:none;fill:#cccccc"/>
<path id="Pocket002" d="M 24.85 6.0 L 24.85 6.0 L 24.85 10.0 L 24.85 10.0 L 24.85 6.0 Z" stroke="#191919" stroke-width="0.35 px" style="stroke-width:0.35;stroke-miterlimit:4;stroke-dasharray:none;fill:#cccccc"/>
<path id="Pocket002" d="M 25.95 6.0 L 25.95 6.0 L 24.85 6.0 L 24.85 6.0 L 25.95 6.0 Z" stroke="#191919" stroke-width="0.35 px" style="stroke-width:0.35;stroke-miterlimit:4;stroke-dasharray:none;fill:#cccccc"/>
<path id="Pocket002" d="M 25.95 10.0 L 25.95 10.0 L 25.95 6.0 L 25.95 6.0 L 25.95 10.0 Z" stroke="#191919" stroke-width="0.35 px" style="stroke-width:0.35;stroke-miterlimit:4;stroke-dasharray:none;fill:#cccccc"/>
<path id="Pocket002" d="M 24.85 10.0 L 24.85 10.0 L 25.95 10.0 L 25.95 10.0 L 24.85 10.0 Z" stroke="#191919" stroke-width="0.35 px" style="stroke-width:0.35;stroke-miterlimit:4;stroke-dasharray:none;fill:#cccccc"/>
<path id="Pocket002" d="M -0.55 6.0 L -0.55 6.0 L -0.55 10.0 L -0.55 10.0 L -0.55 6.0 Z" stroke="#191919" stroke-width="0.35 px" style="stroke-width:0.35;stroke-miterlimit:4;stroke-dasharray:none;fill:#cccccc"/>
<path id="Pocket002" d="M 0.55 6.0 L 0.55 6.0 L -0.55 6.0 L -0.55 6.0 L 0.55 6.0 Z" stroke="#191919" stroke-width="0.35 px" style="stroke-width:0.35;stroke-miterlimit:4;stroke-dasharray:none;fill:#cccccc"/>
<path id="Pocket002" d="M 0.55 10.0 L 0.55 10.0 L 0.55 6.0 L 0.55 6.0 L 0.55 10.0 Z" stroke="#191919" stroke-width="0.35 px" style="stroke-width:0.35;stroke-miterlimit:4;stroke-dasharray:none;fill:#cccccc"/>
<path id="Pocket002" d="M -0.55 10.0 L -0.55 10.0 L 0.55 10.0 L 0.55 10.0 L -0.55 10.0 Z" stroke="#191919" stroke-width="0.35 px" style="stroke-width:0.35;stroke-miterlimit:4;stroke-dasharray:none;fill:#cccccc"/>
<path id="Pocket002" d="M -51.35 6.0 L -51.35 6.0 L -51.35 10.0 L -51.35 10.0 L -51.35 6.0 Z" stroke="#191919" stroke-width="0.35 px" style="stroke-width:0.35;stroke-miterlimit:4;stroke-dasharray:none;fill:#cccccc"/>
<path id="Pocket002" d="M -50.25 6.0 L -50.25 6.0 L -51.35 6.0 L -51.35 6.0 L -50.25 6.0 Z" stroke="#191919" stroke-width="0.35 px" style="stroke-width:0.35;stroke-miterlimit:4;stroke-dasharray:none;fill:#cccccc"/>
<path id="Pocket002" d="M -50.25 10.0 L -50.25 10.0 L -50.25 6.0 L -50.25 6.0 L -50.25 10.0 Z" stroke="#191919" stroke-width="0.35 px" style="stroke-width:0.35;stroke-miterlimit:4;stroke-dasharray:none;fill:#cccccc"/>
<path id="Pocket002" d="M -51.35 10.0 L -51.35 10.0 L -50.25 10.0 L -50.25 10.0 L -51.35 10.0 Z" stroke="#191919" stroke-width="0.35 px" style="stroke-width:0.35;stroke-miterlimit:4;stroke-dasharray:none;fill:#cccccc"/>
<path id="Pocket002" d="M -25.95 6.0 L -25.95 6.0 L -25.95 10.0 L -25.95 10.0 L -25.95 6.0 Z" stroke="#191919" stroke-width="0.35 px" style="stroke-width:0.35;stroke-miterlimit:4;stroke-dasharray:none;fill:#cccccc"/>
<path id="Pocket002" d="M -24.85 6.0 L -24.85 6.0 L -25.95 6.0 L -25.95 6.0 L -24.85 6.0 Z" stroke="#191919" stroke-width="0.35 px" style="stroke-width:0.35;stroke-miterlimit:4;stroke-dasharray:none;fill:#cccccc"/>
<path id="Pocket002" d="M -24.85 10.0 L -24.85 10.0 L -24.85 6.0 L -24.85 6.0 L -24.85 10.0 Z" stroke="#191919" stroke-width="0.35 px" style="stroke-width:0.35;stroke-miterlimit:4;stroke-dasharray:none;fill:#cccccc"/>
<path id="Pocket002" d="M -25.95 10.0 L -25.95 10.0 L -24.85 10.0 L -24.85 10.0 L -25.95 10.0 Z" stroke="#191919" stroke-width="0.35 px" style="stroke-width:0.35;stroke-miterlimit:4;stroke-dasharray:none;fill:#cccccc"/>
<path id="Pocket002" d="M -85.0 0.0 L -85.0 0.0 L -85.0 1.6 L -85.0 1.6 L -85.0 0.0 Z" stroke="#191919" stroke-width="0.35 px" style="stroke-width:0.35;stroke-miterlimit:4;stroke-dasharray:none;fill:#cccccc"/>
<path id="Pocket002" d="M -70.0 0.0 L -70.0 0.0 L -85.0 0.0 L -85.0 0.0 L -70.0 0.0 Z" stroke="#191919" stroke-width="0.35 px" style="stroke-width:0.35;stroke-miterlimit:4;stroke-dasharray:none;fill:#cccccc"/>
<path id="Pocket002" d="M -85.0 1.6 L -85.0 1.6 L -70.0 1.6 L -70.0 1.6 L -85.0 1.6 Z" stroke="#191919" stroke-width="0.35 px" style="stroke-width:0.35;stroke-miterlimit:4;stroke-dasharray:none;fill:#cccccc"/>
<path id="Pocket002" d="M -70.0 1.6 L -70.0 1.6 L -70.0 0.0 L -70.0 0.0 L -70.0 1.6 Z" stroke="#191919" stroke-width="0.35 px" style="stroke-width:0.35;stroke-miterlimit:4;stroke-dasharray:none;fill:#cccccc"/>
<path id="Pocket002" d="M -76.03 10.0 L -76.03 10.0 A 1.47 1.47 0 0 0 -77.5 8.53 A 1.47 1.47 0 1 0 -76.03 10.0 Z" stroke="#191919" stroke-width="0.35 px" style="stroke-width:0.35;stroke-miterlimit:4;stroke-dasharray:none;fill:#cccccc"/>
<path id="Pocket002" d="M 78.97 10.0 L 78.97 10.0 A 1.47 1.47 0 0 0 77.5 8.53 A 1.47 1.47 0 1 0 78.97 10.0 Z" stroke="#191919" stroke-width="0.35 px" style="stroke-width:0.35;stroke-miterlimit:4;stroke-dasharray:none;fill:#cccccc"/>
<path id="Pocket002" d="M -76.0268 -7.5 L -76.0268 -7.5 A 1.4732 1.4732 0 0 0 -77.5 -8.9732 A 1.4732 1.4732 0 1 0 -76.0268 -7.5 Z" stroke="#191919" stroke-width="0.35 px" style="stroke-width:0.35;stroke-miterlimit:4;stroke-dasharray:none;fill:#cccccc"/>
<path id="Pocket002" d="M 78.9732 -7.5 L 78.9732 -7.5 A 1.4732 1.4732 0 0 0 77.5 -8.9732 A 1.4732 1.4732 0 1 0 78.9732 -7.5 Z" stroke="#191919" stroke-width="0.35 px" style="stroke-width:0.35;stroke-miterlimit:4;stroke-dasharray:none;fill:#cccccc"/>
<path id="Pocket002" d="M -90.0 -14.0 L -90.0 -14.0 A 1.0 1.0 0 0 1 -89.0 -15.0 L -89.0 -15.0 A 1.0 1.0 0 0 0 -90.0 -14.0 Z" stroke="#191919" stroke-width="0.35 px" style="stroke-width:0.35;stroke-miterlimit:4;stroke-dasharray:none;fill:#cccccc"/>
<path id="Pocket002" d="M 89.0 -15.0 L 89.0 -15.0 A 1.0 1.0 0 0 1 90.0 -14.0 L 90.0 -14.0 A 1.0 1.0 0 0 0 89.0 -15.0 Z" stroke="#191919" stroke-width="0.35 px" style="stroke-width:0.35;stroke-miterlimit:4;stroke-dasharray:none;fill:#cccccc"/>
<path id="Pocket002" d="M -66.0 -15.0 L -66.0 -15.0 L -89.0 -15.0 L -89.0 -15.0 L -66.0 -15.0 Z" stroke="#191919" stroke-width="0.35 px" style="stroke-width:0.35;stroke-miterlimit:4;stroke-dasharray:none;fill:#cccccc"/>
<path id="Pocket002" d="M 89.0 -15.0 L 89.0 -15.0 L 66.0 -15.0 L 66.0 -15.0 L 89.0 -15.0 Z" stroke="#191919" stroke-width="0.35 px" style="stroke-width:0.35;stroke-miterlimit:4;stroke-dasharray:none;fill:#cccccc"/>
<path id="Pocket002" d="M -66.0 -15.0 L -66.0 -15.0 A 1.0 1.0 0 0 1 -65.0 -14.0 L -65.0 -14.0 A 1.0 1.0 0 0 0 -66.0 -15.0 Z" stroke="#191919" stroke-width="0.35 px" style="stroke-width:0.35;stroke-miterlimit:4;stroke-dasharray:none;fill:#cccccc"/>
<path id="Pocket002" d="M 65.0 -14.0 L 65.0 -14.0 A 1.0 1.0 0 0 1 66.0 -15.0 L 66.0 -15.0 A 1.0 1.0 0 0 0 65.0 -14.0 Z" stroke="#191919" stroke-width="0.35 px" style="stroke-width:0.35;stroke-miterlimit:4;stroke-dasharray:none;fill:#cccccc"/>
<path id="Pocket002" d="M -65.0 -1.0 L -65.0 -1.0 L -65.0 -14.0 L -65.0 -14.0 L -65.0 -1.0 Z" stroke="#191919" stroke-width="0.35 px" style="stroke-width:0.35;stroke-miterlimit:4;stroke-dasharray:none;fill:#cccccc"/>
<path id="Pocket002" d="M 65.0 -14.0 L 65.0 -14.0 L 65.0 -1.0 L 65.0 -1.0 L 65.0 -14.0 Z" stroke="#191919" stroke-width="0.35 px" style="stroke-width:0.35;stroke-miterlimit:4;stroke-dasharray:none;fill:#cccccc"/>
<path id="Pocket002" d="M -64.0 0.0 L -64.0 0.0 A 1.0 1.0 0 0 1 -65.0 -1.0 L -65.0 -1.0 A 1.0 1.0 0 0 0 -64.0 -2.10942374679e-15 Z" stroke="#191919" stroke-width="0.35 px" style="stroke-width:0.35;stroke-miterlimit:4;stroke-dasharray:none;fill:#cccccc"/>
<path id="Pocket002" d="M 65.0 -1.0 L 65.0 -1.0 A 1.0 1.0 0 0 1 64.0 0.0 L 64.0 0.0 A 1.0 1.0 0 0 0 65.0 -1.0 Z" stroke="#191919" stroke-width="0.35 px" style="stroke-width:0.35;stroke-miterlimit:4;stroke-dasharray:none;fill:#cccccc"/>
<path id="Pocket002" d="M 64.0 0.0 L 64.0 0.0 L -64.0 0.0 L -64.0 0.0 L 64.0 0.0 Z" stroke="#191919" stroke-width="0.35 px" style="stroke-width:0.35;stroke-miterlimit:4;stroke-dasharray:none;fill:#cccccc"/>
</g>
</svg>