G04 (created by PCBNEW-RS274X (2011-05-25)-stable) date Thu 08 Nov 2012 01:14:11 PM PST*
G01*
G70*
G90*
%MOIN*%
G04 Gerber Fmt 3.4, Leading zero omitted, Abs format*
%FSLAX34Y34*%
G04 APERTURE LIST*
%ADD10C,0.006000*%
%ADD11C,0.153900*%
%ADD12R,0.075000X0.055000*%
%ADD13R,0.090900X0.079100*%
%ADD14R,0.090900X0.067200*%
%ADD15R,0.045000X0.065000*%
G04 APERTURE END LIST*
G54D10*
G54D11*
X20685Y-58055D03*
X35685Y-58055D03*
X88685Y-58055D03*
X88685Y-36039D03*
X35685Y-36039D03*
X20685Y-36039D03*
G54D12*
X42185Y-57179D03*
X42185Y-57929D03*
X42185Y-55678D03*
X42185Y-56428D03*
X42185Y-54177D03*
X42185Y-54927D03*
X42185Y-52676D03*
X42185Y-53426D03*
X42185Y-51175D03*
X42185Y-51925D03*
X42185Y-49674D03*
X42185Y-50424D03*
X42185Y-48173D03*
X42185Y-48923D03*
X42185Y-46672D03*
X42185Y-47422D03*
X42185Y-45171D03*
X42185Y-45921D03*
X42185Y-43670D03*
X42185Y-44420D03*
X42185Y-42169D03*
X42185Y-42919D03*
X42185Y-40668D03*
X42185Y-41418D03*
X42185Y-39167D03*
X42185Y-39917D03*
X42185Y-37666D03*
X42185Y-38416D03*
X42185Y-36165D03*
X42185Y-36915D03*
G54D13*
X28956Y-46791D03*
X28956Y-45807D03*
G54D14*
X26160Y-46791D03*
X26160Y-45807D03*
G54D12*
X82185Y-36165D03*
X82185Y-36915D03*
X72185Y-57179D03*
X72185Y-57929D03*
X72185Y-55678D03*
X72185Y-56428D03*
X72185Y-54177D03*
X72185Y-54927D03*
X72185Y-52676D03*
X72185Y-53426D03*
X72185Y-51175D03*
X72185Y-51925D03*
X72185Y-49674D03*
X72185Y-50424D03*
X72185Y-48173D03*
X72185Y-48923D03*
X72185Y-46672D03*
X72185Y-47422D03*
X72185Y-45171D03*
X72185Y-45921D03*
X72185Y-43670D03*
X72185Y-44420D03*
X72185Y-42169D03*
X72185Y-42919D03*
X72185Y-40668D03*
X72185Y-41418D03*
X72185Y-39167D03*
X72185Y-39917D03*
X82185Y-37666D03*
X82185Y-38416D03*
X82185Y-39167D03*
X82185Y-39917D03*
X82185Y-40668D03*
X82185Y-41418D03*
X82185Y-42169D03*
X82185Y-42919D03*
X82185Y-43670D03*
X82185Y-44420D03*
X82187Y-45220D03*
X82187Y-45970D03*
X82185Y-46672D03*
X82185Y-47422D03*
X82185Y-48173D03*
X82185Y-48923D03*
X82185Y-49674D03*
X82185Y-50424D03*
X82185Y-51175D03*
X82185Y-51925D03*
X82185Y-52676D03*
X82185Y-53426D03*
X82185Y-54177D03*
X82185Y-54927D03*
X82185Y-55678D03*
X82185Y-56428D03*
X82185Y-57179D03*
X82185Y-57929D03*
X52185Y-36165D03*
X52185Y-36915D03*
X52185Y-37666D03*
X52185Y-38416D03*
X52185Y-39167D03*
X52185Y-39917D03*
X52185Y-40668D03*
X52185Y-41418D03*
X52185Y-42169D03*
X52185Y-42919D03*
X52185Y-43670D03*
X52185Y-44420D03*
X52185Y-45171D03*
X52185Y-45921D03*
X52185Y-46672D03*
X52185Y-47422D03*
X52185Y-48173D03*
X52185Y-48923D03*
X52185Y-49674D03*
X52185Y-50424D03*
X52185Y-51175D03*
X52185Y-51925D03*
X52185Y-52676D03*
X52185Y-53426D03*
X52185Y-54177D03*
X52185Y-54927D03*
X52185Y-55678D03*
X52185Y-56428D03*
X52185Y-57179D03*
X52185Y-57929D03*
X62185Y-36165D03*
X62185Y-36915D03*
X62185Y-37666D03*
X62185Y-38416D03*
X62185Y-39167D03*
X62185Y-39917D03*
X62185Y-40668D03*
X62185Y-41418D03*
X62185Y-42169D03*
X62185Y-42919D03*
X62185Y-43670D03*
X62185Y-44420D03*
X62185Y-45171D03*
X62185Y-45921D03*
X62185Y-46672D03*
X62185Y-47422D03*
X62185Y-48173D03*
X62185Y-48923D03*
X62185Y-49674D03*
X62185Y-50424D03*
X62185Y-51175D03*
X62185Y-51925D03*
X62185Y-52676D03*
X62185Y-53426D03*
X62185Y-54177D03*
X62185Y-54927D03*
X62185Y-55678D03*
X62185Y-56428D03*
X62185Y-57179D03*
X62185Y-57929D03*
X72185Y-36165D03*
X72185Y-36915D03*
X72185Y-37666D03*
X72185Y-38416D03*
G54D15*
X42504Y-58622D03*
X41904Y-58622D03*
X51904Y-58583D03*
X52504Y-58583D03*
X62504Y-58622D03*
X61904Y-58622D03*
X72504Y-58622D03*
X71904Y-58622D03*
X81904Y-58622D03*
X82504Y-58622D03*
M02*
