G04 (created by PCBNEW-RS274X (2011-05-25)-stable) date Thu 08 Nov 2012 01:14:11 PM PST*
G01*
G70*
G90*
%MOIN*%
G04 Gerber Fmt 3.4, Leading zero omitted, Abs format*
%FSLAX34Y34*%
G04 APERTURE LIST*
%ADD10C,0.006000*%
%ADD11C,0.012000*%
%ADD12C,0.005000*%
%ADD13C,0.015000*%
%ADD14C,0.005900*%
G04 APERTURE END LIST*
G54D10*
G54D11*
X22761Y-35968D02*
X22961Y-35968D01*
X23047Y-36282D02*
X22761Y-36282D01*
X22761Y-35682D01*
X23047Y-35682D01*
X23247Y-36282D02*
X23561Y-35882D01*
X23247Y-35882D02*
X23561Y-36282D01*
X23790Y-35882D02*
X23790Y-36482D01*
X23790Y-35910D02*
X23847Y-35882D01*
X23961Y-35882D01*
X24018Y-35910D01*
X24047Y-35939D01*
X24076Y-35996D01*
X24076Y-36168D01*
X24047Y-36225D01*
X24018Y-36253D01*
X23961Y-36282D01*
X23847Y-36282D01*
X23790Y-36253D01*
X24333Y-36282D02*
X24333Y-35882D01*
X24333Y-35996D02*
X24361Y-35939D01*
X24390Y-35910D01*
X24447Y-35882D01*
X24504Y-35882D01*
X24932Y-36253D02*
X24875Y-36282D01*
X24761Y-36282D01*
X24704Y-36253D01*
X24675Y-36196D01*
X24675Y-35968D01*
X24704Y-35910D01*
X24761Y-35882D01*
X24875Y-35882D01*
X24932Y-35910D01*
X24961Y-35968D01*
X24961Y-36025D01*
X24675Y-36082D01*
X25189Y-36253D02*
X25246Y-36282D01*
X25361Y-36282D01*
X25418Y-36253D01*
X25446Y-36196D01*
X25446Y-36168D01*
X25418Y-36110D01*
X25361Y-36082D01*
X25275Y-36082D01*
X25218Y-36053D01*
X25189Y-35996D01*
X25189Y-35968D01*
X25218Y-35910D01*
X25275Y-35882D01*
X25361Y-35882D01*
X25418Y-35910D01*
X25675Y-36253D02*
X25732Y-36282D01*
X25847Y-36282D01*
X25904Y-36253D01*
X25932Y-36196D01*
X25932Y-36168D01*
X25904Y-36110D01*
X25847Y-36082D01*
X25761Y-36082D01*
X25704Y-36053D01*
X25675Y-35996D01*
X25675Y-35968D01*
X25704Y-35910D01*
X25761Y-35882D01*
X25847Y-35882D01*
X25904Y-35910D01*
X26276Y-36282D02*
X26218Y-36253D01*
X26190Y-36225D01*
X26161Y-36168D01*
X26161Y-35996D01*
X26190Y-35939D01*
X26218Y-35910D01*
X26276Y-35882D01*
X26361Y-35882D01*
X26418Y-35910D01*
X26447Y-35939D01*
X26476Y-35996D01*
X26476Y-36168D01*
X26447Y-36225D01*
X26418Y-36253D01*
X26361Y-36282D01*
X26276Y-36282D01*
X27476Y-36282D02*
X27190Y-36282D01*
X27190Y-35682D01*
X27676Y-35968D02*
X27876Y-35968D01*
X27962Y-36282D02*
X27676Y-36282D01*
X27676Y-35682D01*
X27962Y-35682D01*
X28219Y-36282D02*
X28219Y-35682D01*
X28362Y-35682D01*
X28447Y-35710D01*
X28505Y-35768D01*
X28533Y-35825D01*
X28562Y-35939D01*
X28562Y-36025D01*
X28533Y-36139D01*
X28505Y-36196D01*
X28447Y-36253D01*
X28362Y-36282D01*
X28219Y-36282D01*
X29476Y-35968D02*
X29562Y-35996D01*
X29590Y-36025D01*
X29619Y-36082D01*
X29619Y-36168D01*
X29590Y-36225D01*
X29562Y-36253D01*
X29504Y-36282D01*
X29276Y-36282D01*
X29276Y-35682D01*
X29476Y-35682D01*
X29533Y-35710D01*
X29562Y-35739D01*
X29590Y-35796D01*
X29590Y-35853D01*
X29562Y-35910D01*
X29533Y-35939D01*
X29476Y-35968D01*
X29276Y-35968D01*
X29962Y-36282D02*
X29904Y-36253D01*
X29876Y-36225D01*
X29847Y-36168D01*
X29847Y-35996D01*
X29876Y-35939D01*
X29904Y-35910D01*
X29962Y-35882D01*
X30047Y-35882D01*
X30104Y-35910D01*
X30133Y-35939D01*
X30162Y-35996D01*
X30162Y-36168D01*
X30133Y-36225D01*
X30104Y-36253D01*
X30047Y-36282D01*
X29962Y-36282D01*
X30676Y-36282D02*
X30676Y-35968D01*
X30647Y-35910D01*
X30590Y-35882D01*
X30476Y-35882D01*
X30419Y-35910D01*
X30676Y-36253D02*
X30619Y-36282D01*
X30476Y-36282D01*
X30419Y-36253D01*
X30390Y-36196D01*
X30390Y-36139D01*
X30419Y-36082D01*
X30476Y-36053D01*
X30619Y-36053D01*
X30676Y-36025D01*
X30962Y-36282D02*
X30962Y-35882D01*
X30962Y-35996D02*
X30990Y-35939D01*
X31019Y-35910D01*
X31076Y-35882D01*
X31133Y-35882D01*
X31590Y-36282D02*
X31590Y-35682D01*
X31590Y-36253D02*
X31533Y-36282D01*
X31419Y-36282D01*
X31361Y-36253D01*
X31333Y-36225D01*
X31304Y-36168D01*
X31304Y-35996D01*
X31333Y-35939D01*
X31361Y-35910D01*
X31419Y-35882D01*
X31533Y-35882D01*
X31590Y-35910D01*
X32276Y-35882D02*
X32419Y-36282D01*
X32561Y-35882D01*
X33104Y-36282D02*
X32761Y-36282D01*
X32933Y-36282D02*
X32933Y-35682D01*
X32876Y-35768D01*
X32818Y-35825D01*
X32761Y-35853D01*
X33361Y-36225D02*
X33389Y-36253D01*
X33361Y-36282D01*
X33332Y-36253D01*
X33361Y-36225D01*
X33361Y-36282D01*
X33618Y-35739D02*
X33647Y-35710D01*
X33704Y-35682D01*
X33847Y-35682D01*
X33904Y-35710D01*
X33933Y-35739D01*
X33961Y-35796D01*
X33961Y-35853D01*
X33933Y-35939D01*
X33590Y-36282D01*
X33961Y-36282D01*
X20928Y-54285D02*
X20328Y-54285D01*
X20328Y-53885D02*
X20328Y-53771D01*
X20356Y-53713D01*
X20414Y-53656D01*
X20528Y-53628D01*
X20728Y-53628D01*
X20842Y-53656D01*
X20899Y-53713D01*
X20928Y-53771D01*
X20928Y-53885D01*
X20899Y-53942D01*
X20842Y-53999D01*
X20728Y-54028D01*
X20528Y-54028D01*
X20414Y-53999D01*
X20356Y-53942D01*
X20328Y-53885D01*
X20928Y-52570D02*
X20642Y-52770D01*
X20928Y-52913D02*
X20328Y-52913D01*
X20328Y-52685D01*
X20356Y-52627D01*
X20385Y-52599D01*
X20442Y-52570D01*
X20528Y-52570D01*
X20585Y-52599D01*
X20614Y-52627D01*
X20642Y-52685D01*
X20642Y-52913D01*
X20928Y-52227D02*
X20899Y-52285D01*
X20871Y-52313D01*
X20814Y-52342D01*
X20642Y-52342D01*
X20585Y-52313D01*
X20556Y-52285D01*
X20528Y-52227D01*
X20528Y-52142D01*
X20556Y-52085D01*
X20585Y-52056D01*
X20642Y-52027D01*
X20814Y-52027D01*
X20871Y-52056D01*
X20899Y-52085D01*
X20928Y-52142D01*
X20928Y-52227D01*
X20928Y-51513D02*
X20328Y-51513D01*
X20899Y-51513D02*
X20928Y-51570D01*
X20928Y-51684D01*
X20899Y-51742D01*
X20871Y-51770D01*
X20814Y-51799D01*
X20642Y-51799D01*
X20585Y-51770D01*
X20556Y-51742D01*
X20528Y-51684D01*
X20528Y-51570D01*
X20556Y-51513D01*
X20899Y-50999D02*
X20928Y-51056D01*
X20928Y-51170D01*
X20899Y-51227D01*
X20842Y-51256D01*
X20614Y-51256D01*
X20556Y-51227D01*
X20528Y-51170D01*
X20528Y-51056D01*
X20556Y-50999D01*
X20614Y-50970D01*
X20671Y-50970D01*
X20728Y-51256D01*
X20928Y-50627D02*
X20899Y-50685D01*
X20871Y-50713D01*
X20814Y-50742D01*
X20642Y-50742D01*
X20585Y-50713D01*
X20556Y-50685D01*
X20528Y-50627D01*
X20528Y-50542D01*
X20556Y-50485D01*
X20585Y-50456D01*
X20642Y-50427D01*
X20814Y-50427D01*
X20871Y-50456D01*
X20899Y-50485D01*
X20928Y-50542D01*
X20928Y-50627D01*
X20928Y-49713D02*
X20328Y-49713D01*
X20528Y-49427D02*
X20928Y-49427D01*
X20585Y-49427D02*
X20556Y-49399D01*
X20528Y-49341D01*
X20528Y-49256D01*
X20556Y-49199D01*
X20614Y-49170D01*
X20928Y-49170D01*
X20899Y-48627D02*
X20928Y-48684D01*
X20928Y-48798D01*
X20899Y-48856D01*
X20871Y-48884D01*
X20814Y-48913D01*
X20642Y-48913D01*
X20585Y-48884D01*
X20556Y-48856D01*
X20528Y-48798D01*
X20528Y-48684D01*
X20556Y-48627D01*
X20871Y-48370D02*
X20899Y-48342D01*
X20928Y-48370D01*
X20899Y-48399D01*
X20871Y-48370D01*
X20928Y-48370D01*
X21156Y-47456D02*
X21128Y-47484D01*
X21042Y-47541D01*
X20985Y-47570D01*
X20899Y-47599D01*
X20756Y-47627D01*
X20642Y-47627D01*
X20499Y-47599D01*
X20414Y-47570D01*
X20356Y-47541D01*
X20271Y-47484D01*
X20242Y-47456D01*
X20328Y-46970D02*
X20328Y-47084D01*
X20356Y-47141D01*
X20385Y-47170D01*
X20471Y-47227D01*
X20585Y-47256D01*
X20814Y-47256D01*
X20871Y-47227D01*
X20899Y-47199D01*
X20928Y-47141D01*
X20928Y-47027D01*
X20899Y-46970D01*
X20871Y-46941D01*
X20814Y-46913D01*
X20671Y-46913D01*
X20614Y-46941D01*
X20585Y-46970D01*
X20556Y-47027D01*
X20556Y-47141D01*
X20585Y-47199D01*
X20614Y-47227D01*
X20671Y-47256D01*
X20385Y-46685D02*
X20356Y-46656D01*
X20328Y-46599D01*
X20328Y-46456D01*
X20356Y-46399D01*
X20385Y-46370D01*
X20442Y-46342D01*
X20499Y-46342D01*
X20585Y-46370D01*
X20928Y-46713D01*
X20928Y-46342D01*
X20328Y-45828D02*
X20328Y-45942D01*
X20356Y-45999D01*
X20385Y-46028D01*
X20471Y-46085D01*
X20585Y-46114D01*
X20814Y-46114D01*
X20871Y-46085D01*
X20899Y-46057D01*
X20928Y-45999D01*
X20928Y-45885D01*
X20899Y-45828D01*
X20871Y-45799D01*
X20814Y-45771D01*
X20671Y-45771D01*
X20614Y-45799D01*
X20585Y-45828D01*
X20556Y-45885D01*
X20556Y-45999D01*
X20585Y-46057D01*
X20614Y-46085D01*
X20671Y-46114D01*
X21156Y-45571D02*
X21128Y-45543D01*
X21042Y-45486D01*
X20985Y-45457D01*
X20899Y-45428D01*
X20756Y-45400D01*
X20642Y-45400D01*
X20499Y-45428D01*
X20414Y-45457D01*
X20356Y-45486D01*
X20271Y-45543D01*
X20242Y-45571D01*
X20328Y-44714D02*
X20328Y-44314D01*
X20928Y-44571D01*
X20928Y-44058D02*
X20928Y-43943D01*
X20899Y-43886D01*
X20871Y-43858D01*
X20785Y-43800D01*
X20671Y-43772D01*
X20442Y-43772D01*
X20385Y-43800D01*
X20356Y-43829D01*
X20328Y-43886D01*
X20328Y-44000D01*
X20356Y-44058D01*
X20385Y-44086D01*
X20442Y-44115D01*
X20585Y-44115D01*
X20642Y-44086D01*
X20671Y-44058D01*
X20699Y-44000D01*
X20699Y-43886D01*
X20671Y-43829D01*
X20642Y-43800D01*
X20585Y-43772D01*
X20328Y-43572D02*
X20328Y-43201D01*
X20556Y-43401D01*
X20556Y-43315D01*
X20585Y-43258D01*
X20614Y-43229D01*
X20671Y-43201D01*
X20814Y-43201D01*
X20871Y-43229D01*
X20899Y-43258D01*
X20928Y-43315D01*
X20928Y-43487D01*
X20899Y-43544D01*
X20871Y-43572D01*
X20699Y-42944D02*
X20699Y-42487D01*
X20585Y-42115D02*
X20556Y-42173D01*
X20528Y-42201D01*
X20471Y-42230D01*
X20442Y-42230D01*
X20385Y-42201D01*
X20356Y-42173D01*
X20328Y-42115D01*
X20328Y-42001D01*
X20356Y-41944D01*
X20385Y-41915D01*
X20442Y-41887D01*
X20471Y-41887D01*
X20528Y-41915D01*
X20556Y-41944D01*
X20585Y-42001D01*
X20585Y-42115D01*
X20614Y-42173D01*
X20642Y-42201D01*
X20699Y-42230D01*
X20814Y-42230D01*
X20871Y-42201D01*
X20899Y-42173D01*
X20928Y-42115D01*
X20928Y-42001D01*
X20899Y-41944D01*
X20871Y-41915D01*
X20814Y-41887D01*
X20699Y-41887D01*
X20642Y-41915D01*
X20614Y-41944D01*
X20585Y-42001D01*
X20385Y-41659D02*
X20356Y-41630D01*
X20328Y-41573D01*
X20328Y-41430D01*
X20356Y-41373D01*
X20385Y-41344D01*
X20442Y-41316D01*
X20499Y-41316D01*
X20585Y-41344D01*
X20928Y-41687D01*
X20928Y-41316D01*
X20585Y-40973D02*
X20556Y-41031D01*
X20528Y-41059D01*
X20471Y-41088D01*
X20442Y-41088D01*
X20385Y-41059D01*
X20356Y-41031D01*
X20328Y-40973D01*
X20328Y-40859D01*
X20356Y-40802D01*
X20385Y-40773D01*
X20442Y-40745D01*
X20471Y-40745D01*
X20528Y-40773D01*
X20556Y-40802D01*
X20585Y-40859D01*
X20585Y-40973D01*
X20614Y-41031D01*
X20642Y-41059D01*
X20699Y-41088D01*
X20814Y-41088D01*
X20871Y-41059D01*
X20899Y-41031D01*
X20928Y-40973D01*
X20928Y-40859D01*
X20899Y-40802D01*
X20871Y-40773D01*
X20814Y-40745D01*
X20699Y-40745D01*
X20642Y-40773D01*
X20614Y-40802D01*
X20585Y-40859D01*
X20528Y-40231D02*
X20928Y-40231D01*
X20299Y-40374D02*
X20728Y-40517D01*
X20728Y-40145D01*
G54D12*
X41935Y-56904D02*
X41934Y-56913D01*
X41931Y-56923D01*
X41926Y-56931D01*
X41920Y-56939D01*
X41912Y-56945D01*
X41904Y-56950D01*
X41895Y-56952D01*
X41885Y-56953D01*
X41876Y-56953D01*
X41867Y-56950D01*
X41858Y-56945D01*
X41851Y-56939D01*
X41844Y-56932D01*
X41840Y-56923D01*
X41837Y-56914D01*
X41836Y-56904D01*
X41836Y-56895D01*
X41839Y-56886D01*
X41843Y-56877D01*
X41850Y-56870D01*
X41857Y-56863D01*
X41865Y-56859D01*
X41875Y-56856D01*
X41884Y-56855D01*
X41893Y-56855D01*
X41903Y-56858D01*
X41911Y-56862D01*
X41919Y-56868D01*
X41925Y-56876D01*
X41930Y-56884D01*
X41933Y-56893D01*
X41934Y-56903D01*
X41935Y-56904D01*
X41885Y-57354D02*
X41885Y-56954D01*
X41885Y-56954D02*
X42485Y-56954D01*
X42485Y-56954D02*
X42485Y-57354D01*
X42485Y-57754D02*
X42485Y-58154D01*
X42485Y-58154D02*
X41885Y-58154D01*
X41885Y-58154D02*
X41885Y-57754D01*
X41935Y-55403D02*
X41934Y-55412D01*
X41931Y-55422D01*
X41926Y-55430D01*
X41920Y-55438D01*
X41912Y-55444D01*
X41904Y-55449D01*
X41895Y-55451D01*
X41885Y-55452D01*
X41876Y-55452D01*
X41867Y-55449D01*
X41858Y-55444D01*
X41851Y-55438D01*
X41844Y-55431D01*
X41840Y-55422D01*
X41837Y-55413D01*
X41836Y-55403D01*
X41836Y-55394D01*
X41839Y-55385D01*
X41843Y-55376D01*
X41850Y-55369D01*
X41857Y-55362D01*
X41865Y-55358D01*
X41875Y-55355D01*
X41884Y-55354D01*
X41893Y-55354D01*
X41903Y-55357D01*
X41911Y-55361D01*
X41919Y-55367D01*
X41925Y-55375D01*
X41930Y-55383D01*
X41933Y-55392D01*
X41934Y-55402D01*
X41935Y-55403D01*
X41885Y-55853D02*
X41885Y-55453D01*
X41885Y-55453D02*
X42485Y-55453D01*
X42485Y-55453D02*
X42485Y-55853D01*
X42485Y-56253D02*
X42485Y-56653D01*
X42485Y-56653D02*
X41885Y-56653D01*
X41885Y-56653D02*
X41885Y-56253D01*
X41935Y-53902D02*
X41934Y-53911D01*
X41931Y-53921D01*
X41926Y-53929D01*
X41920Y-53937D01*
X41912Y-53943D01*
X41904Y-53948D01*
X41895Y-53950D01*
X41885Y-53951D01*
X41876Y-53951D01*
X41867Y-53948D01*
X41858Y-53943D01*
X41851Y-53937D01*
X41844Y-53930D01*
X41840Y-53921D01*
X41837Y-53912D01*
X41836Y-53902D01*
X41836Y-53893D01*
X41839Y-53884D01*
X41843Y-53875D01*
X41850Y-53868D01*
X41857Y-53861D01*
X41865Y-53857D01*
X41875Y-53854D01*
X41884Y-53853D01*
X41893Y-53853D01*
X41903Y-53856D01*
X41911Y-53860D01*
X41919Y-53866D01*
X41925Y-53874D01*
X41930Y-53882D01*
X41933Y-53891D01*
X41934Y-53901D01*
X41935Y-53902D01*
X41885Y-54352D02*
X41885Y-53952D01*
X41885Y-53952D02*
X42485Y-53952D01*
X42485Y-53952D02*
X42485Y-54352D01*
X42485Y-54752D02*
X42485Y-55152D01*
X42485Y-55152D02*
X41885Y-55152D01*
X41885Y-55152D02*
X41885Y-54752D01*
X41935Y-52401D02*
X41934Y-52410D01*
X41931Y-52420D01*
X41926Y-52428D01*
X41920Y-52436D01*
X41912Y-52442D01*
X41904Y-52447D01*
X41895Y-52449D01*
X41885Y-52450D01*
X41876Y-52450D01*
X41867Y-52447D01*
X41858Y-52442D01*
X41851Y-52436D01*
X41844Y-52429D01*
X41840Y-52420D01*
X41837Y-52411D01*
X41836Y-52401D01*
X41836Y-52392D01*
X41839Y-52383D01*
X41843Y-52374D01*
X41850Y-52367D01*
X41857Y-52360D01*
X41865Y-52356D01*
X41875Y-52353D01*
X41884Y-52352D01*
X41893Y-52352D01*
X41903Y-52355D01*
X41911Y-52359D01*
X41919Y-52365D01*
X41925Y-52373D01*
X41930Y-52381D01*
X41933Y-52390D01*
X41934Y-52400D01*
X41935Y-52401D01*
X41885Y-52851D02*
X41885Y-52451D01*
X41885Y-52451D02*
X42485Y-52451D01*
X42485Y-52451D02*
X42485Y-52851D01*
X42485Y-53251D02*
X42485Y-53651D01*
X42485Y-53651D02*
X41885Y-53651D01*
X41885Y-53651D02*
X41885Y-53251D01*
X41935Y-50900D02*
X41934Y-50909D01*
X41931Y-50919D01*
X41926Y-50927D01*
X41920Y-50935D01*
X41912Y-50941D01*
X41904Y-50946D01*
X41895Y-50948D01*
X41885Y-50949D01*
X41876Y-50949D01*
X41867Y-50946D01*
X41858Y-50941D01*
X41851Y-50935D01*
X41844Y-50928D01*
X41840Y-50919D01*
X41837Y-50910D01*
X41836Y-50900D01*
X41836Y-50891D01*
X41839Y-50882D01*
X41843Y-50873D01*
X41850Y-50866D01*
X41857Y-50859D01*
X41865Y-50855D01*
X41875Y-50852D01*
X41884Y-50851D01*
X41893Y-50851D01*
X41903Y-50854D01*
X41911Y-50858D01*
X41919Y-50864D01*
X41925Y-50872D01*
X41930Y-50880D01*
X41933Y-50889D01*
X41934Y-50899D01*
X41935Y-50900D01*
X41885Y-51350D02*
X41885Y-50950D01*
X41885Y-50950D02*
X42485Y-50950D01*
X42485Y-50950D02*
X42485Y-51350D01*
X42485Y-51750D02*
X42485Y-52150D01*
X42485Y-52150D02*
X41885Y-52150D01*
X41885Y-52150D02*
X41885Y-51750D01*
X41935Y-49399D02*
X41934Y-49408D01*
X41931Y-49418D01*
X41926Y-49426D01*
X41920Y-49434D01*
X41912Y-49440D01*
X41904Y-49445D01*
X41895Y-49447D01*
X41885Y-49448D01*
X41876Y-49448D01*
X41867Y-49445D01*
X41858Y-49440D01*
X41851Y-49434D01*
X41844Y-49427D01*
X41840Y-49418D01*
X41837Y-49409D01*
X41836Y-49399D01*
X41836Y-49390D01*
X41839Y-49381D01*
X41843Y-49372D01*
X41850Y-49365D01*
X41857Y-49358D01*
X41865Y-49354D01*
X41875Y-49351D01*
X41884Y-49350D01*
X41893Y-49350D01*
X41903Y-49353D01*
X41911Y-49357D01*
X41919Y-49363D01*
X41925Y-49371D01*
X41930Y-49379D01*
X41933Y-49388D01*
X41934Y-49398D01*
X41935Y-49399D01*
X41885Y-49849D02*
X41885Y-49449D01*
X41885Y-49449D02*
X42485Y-49449D01*
X42485Y-49449D02*
X42485Y-49849D01*
X42485Y-50249D02*
X42485Y-50649D01*
X42485Y-50649D02*
X41885Y-50649D01*
X41885Y-50649D02*
X41885Y-50249D01*
X41935Y-47898D02*
X41934Y-47907D01*
X41931Y-47917D01*
X41926Y-47925D01*
X41920Y-47933D01*
X41912Y-47939D01*
X41904Y-47944D01*
X41895Y-47946D01*
X41885Y-47947D01*
X41876Y-47947D01*
X41867Y-47944D01*
X41858Y-47939D01*
X41851Y-47933D01*
X41844Y-47926D01*
X41840Y-47917D01*
X41837Y-47908D01*
X41836Y-47898D01*
X41836Y-47889D01*
X41839Y-47880D01*
X41843Y-47871D01*
X41850Y-47864D01*
X41857Y-47857D01*
X41865Y-47853D01*
X41875Y-47850D01*
X41884Y-47849D01*
X41893Y-47849D01*
X41903Y-47852D01*
X41911Y-47856D01*
X41919Y-47862D01*
X41925Y-47870D01*
X41930Y-47878D01*
X41933Y-47887D01*
X41934Y-47897D01*
X41935Y-47898D01*
X41885Y-48348D02*
X41885Y-47948D01*
X41885Y-47948D02*
X42485Y-47948D01*
X42485Y-47948D02*
X42485Y-48348D01*
X42485Y-48748D02*
X42485Y-49148D01*
X42485Y-49148D02*
X41885Y-49148D01*
X41885Y-49148D02*
X41885Y-48748D01*
X41935Y-46397D02*
X41934Y-46406D01*
X41931Y-46416D01*
X41926Y-46424D01*
X41920Y-46432D01*
X41912Y-46438D01*
X41904Y-46443D01*
X41895Y-46445D01*
X41885Y-46446D01*
X41876Y-46446D01*
X41867Y-46443D01*
X41858Y-46438D01*
X41851Y-46432D01*
X41844Y-46425D01*
X41840Y-46416D01*
X41837Y-46407D01*
X41836Y-46397D01*
X41836Y-46388D01*
X41839Y-46379D01*
X41843Y-46370D01*
X41850Y-46363D01*
X41857Y-46356D01*
X41865Y-46352D01*
X41875Y-46349D01*
X41884Y-46348D01*
X41893Y-46348D01*
X41903Y-46351D01*
X41911Y-46355D01*
X41919Y-46361D01*
X41925Y-46369D01*
X41930Y-46377D01*
X41933Y-46386D01*
X41934Y-46396D01*
X41935Y-46397D01*
X41885Y-46847D02*
X41885Y-46447D01*
X41885Y-46447D02*
X42485Y-46447D01*
X42485Y-46447D02*
X42485Y-46847D01*
X42485Y-47247D02*
X42485Y-47647D01*
X42485Y-47647D02*
X41885Y-47647D01*
X41885Y-47647D02*
X41885Y-47247D01*
X41935Y-44896D02*
X41934Y-44905D01*
X41931Y-44915D01*
X41926Y-44923D01*
X41920Y-44931D01*
X41912Y-44937D01*
X41904Y-44942D01*
X41895Y-44944D01*
X41885Y-44945D01*
X41876Y-44945D01*
X41867Y-44942D01*
X41858Y-44937D01*
X41851Y-44931D01*
X41844Y-44924D01*
X41840Y-44915D01*
X41837Y-44906D01*
X41836Y-44896D01*
X41836Y-44887D01*
X41839Y-44878D01*
X41843Y-44869D01*
X41850Y-44862D01*
X41857Y-44855D01*
X41865Y-44851D01*
X41875Y-44848D01*
X41884Y-44847D01*
X41893Y-44847D01*
X41903Y-44850D01*
X41911Y-44854D01*
X41919Y-44860D01*
X41925Y-44868D01*
X41930Y-44876D01*
X41933Y-44885D01*
X41934Y-44895D01*
X41935Y-44896D01*
X41885Y-45346D02*
X41885Y-44946D01*
X41885Y-44946D02*
X42485Y-44946D01*
X42485Y-44946D02*
X42485Y-45346D01*
X42485Y-45746D02*
X42485Y-46146D01*
X42485Y-46146D02*
X41885Y-46146D01*
X41885Y-46146D02*
X41885Y-45746D01*
X41935Y-43395D02*
X41934Y-43404D01*
X41931Y-43414D01*
X41926Y-43422D01*
X41920Y-43430D01*
X41912Y-43436D01*
X41904Y-43441D01*
X41895Y-43443D01*
X41885Y-43444D01*
X41876Y-43444D01*
X41867Y-43441D01*
X41858Y-43436D01*
X41851Y-43430D01*
X41844Y-43423D01*
X41840Y-43414D01*
X41837Y-43405D01*
X41836Y-43395D01*
X41836Y-43386D01*
X41839Y-43377D01*
X41843Y-43368D01*
X41850Y-43361D01*
X41857Y-43354D01*
X41865Y-43350D01*
X41875Y-43347D01*
X41884Y-43346D01*
X41893Y-43346D01*
X41903Y-43349D01*
X41911Y-43353D01*
X41919Y-43359D01*
X41925Y-43367D01*
X41930Y-43375D01*
X41933Y-43384D01*
X41934Y-43394D01*
X41935Y-43395D01*
X41885Y-43845D02*
X41885Y-43445D01*
X41885Y-43445D02*
X42485Y-43445D01*
X42485Y-43445D02*
X42485Y-43845D01*
X42485Y-44245D02*
X42485Y-44645D01*
X42485Y-44645D02*
X41885Y-44645D01*
X41885Y-44645D02*
X41885Y-44245D01*
X41935Y-41894D02*
X41934Y-41903D01*
X41931Y-41913D01*
X41926Y-41921D01*
X41920Y-41929D01*
X41912Y-41935D01*
X41904Y-41940D01*
X41895Y-41942D01*
X41885Y-41943D01*
X41876Y-41943D01*
X41867Y-41940D01*
X41858Y-41935D01*
X41851Y-41929D01*
X41844Y-41922D01*
X41840Y-41913D01*
X41837Y-41904D01*
X41836Y-41894D01*
X41836Y-41885D01*
X41839Y-41876D01*
X41843Y-41867D01*
X41850Y-41860D01*
X41857Y-41853D01*
X41865Y-41849D01*
X41875Y-41846D01*
X41884Y-41845D01*
X41893Y-41845D01*
X41903Y-41848D01*
X41911Y-41852D01*
X41919Y-41858D01*
X41925Y-41866D01*
X41930Y-41874D01*
X41933Y-41883D01*
X41934Y-41893D01*
X41935Y-41894D01*
X41885Y-42344D02*
X41885Y-41944D01*
X41885Y-41944D02*
X42485Y-41944D01*
X42485Y-41944D02*
X42485Y-42344D01*
X42485Y-42744D02*
X42485Y-43144D01*
X42485Y-43144D02*
X41885Y-43144D01*
X41885Y-43144D02*
X41885Y-42744D01*
X41935Y-40393D02*
X41934Y-40402D01*
X41931Y-40412D01*
X41926Y-40420D01*
X41920Y-40428D01*
X41912Y-40434D01*
X41904Y-40439D01*
X41895Y-40441D01*
X41885Y-40442D01*
X41876Y-40442D01*
X41867Y-40439D01*
X41858Y-40434D01*
X41851Y-40428D01*
X41844Y-40421D01*
X41840Y-40412D01*
X41837Y-40403D01*
X41836Y-40393D01*
X41836Y-40384D01*
X41839Y-40375D01*
X41843Y-40366D01*
X41850Y-40359D01*
X41857Y-40352D01*
X41865Y-40348D01*
X41875Y-40345D01*
X41884Y-40344D01*
X41893Y-40344D01*
X41903Y-40347D01*
X41911Y-40351D01*
X41919Y-40357D01*
X41925Y-40365D01*
X41930Y-40373D01*
X41933Y-40382D01*
X41934Y-40392D01*
X41935Y-40393D01*
X41885Y-40843D02*
X41885Y-40443D01*
X41885Y-40443D02*
X42485Y-40443D01*
X42485Y-40443D02*
X42485Y-40843D01*
X42485Y-41243D02*
X42485Y-41643D01*
X42485Y-41643D02*
X41885Y-41643D01*
X41885Y-41643D02*
X41885Y-41243D01*
X41935Y-38892D02*
X41934Y-38901D01*
X41931Y-38911D01*
X41926Y-38919D01*
X41920Y-38927D01*
X41912Y-38933D01*
X41904Y-38938D01*
X41895Y-38940D01*
X41885Y-38941D01*
X41876Y-38941D01*
X41867Y-38938D01*
X41858Y-38933D01*
X41851Y-38927D01*
X41844Y-38920D01*
X41840Y-38911D01*
X41837Y-38902D01*
X41836Y-38892D01*
X41836Y-38883D01*
X41839Y-38874D01*
X41843Y-38865D01*
X41850Y-38858D01*
X41857Y-38851D01*
X41865Y-38847D01*
X41875Y-38844D01*
X41884Y-38843D01*
X41893Y-38843D01*
X41903Y-38846D01*
X41911Y-38850D01*
X41919Y-38856D01*
X41925Y-38864D01*
X41930Y-38872D01*
X41933Y-38881D01*
X41934Y-38891D01*
X41935Y-38892D01*
X41885Y-39342D02*
X41885Y-38942D01*
X41885Y-38942D02*
X42485Y-38942D01*
X42485Y-38942D02*
X42485Y-39342D01*
X42485Y-39742D02*
X42485Y-40142D01*
X42485Y-40142D02*
X41885Y-40142D01*
X41885Y-40142D02*
X41885Y-39742D01*
X41935Y-37391D02*
X41934Y-37400D01*
X41931Y-37410D01*
X41926Y-37418D01*
X41920Y-37426D01*
X41912Y-37432D01*
X41904Y-37437D01*
X41895Y-37439D01*
X41885Y-37440D01*
X41876Y-37440D01*
X41867Y-37437D01*
X41858Y-37432D01*
X41851Y-37426D01*
X41844Y-37419D01*
X41840Y-37410D01*
X41837Y-37401D01*
X41836Y-37391D01*
X41836Y-37382D01*
X41839Y-37373D01*
X41843Y-37364D01*
X41850Y-37357D01*
X41857Y-37350D01*
X41865Y-37346D01*
X41875Y-37343D01*
X41884Y-37342D01*
X41893Y-37342D01*
X41903Y-37345D01*
X41911Y-37349D01*
X41919Y-37355D01*
X41925Y-37363D01*
X41930Y-37371D01*
X41933Y-37380D01*
X41934Y-37390D01*
X41935Y-37391D01*
X41885Y-37841D02*
X41885Y-37441D01*
X41885Y-37441D02*
X42485Y-37441D01*
X42485Y-37441D02*
X42485Y-37841D01*
X42485Y-38241D02*
X42485Y-38641D01*
X42485Y-38641D02*
X41885Y-38641D01*
X41885Y-38641D02*
X41885Y-38241D01*
X41935Y-35890D02*
X41934Y-35899D01*
X41931Y-35909D01*
X41926Y-35917D01*
X41920Y-35925D01*
X41912Y-35931D01*
X41904Y-35936D01*
X41895Y-35938D01*
X41885Y-35939D01*
X41876Y-35939D01*
X41867Y-35936D01*
X41858Y-35931D01*
X41851Y-35925D01*
X41844Y-35918D01*
X41840Y-35909D01*
X41837Y-35900D01*
X41836Y-35890D01*
X41836Y-35881D01*
X41839Y-35872D01*
X41843Y-35863D01*
X41850Y-35856D01*
X41857Y-35849D01*
X41865Y-35845D01*
X41875Y-35842D01*
X41884Y-35841D01*
X41893Y-35841D01*
X41903Y-35844D01*
X41911Y-35848D01*
X41919Y-35854D01*
X41925Y-35862D01*
X41930Y-35870D01*
X41933Y-35879D01*
X41934Y-35889D01*
X41935Y-35890D01*
X41885Y-36340D02*
X41885Y-35940D01*
X41885Y-35940D02*
X42485Y-35940D01*
X42485Y-35940D02*
X42485Y-36340D01*
X42485Y-36740D02*
X42485Y-37140D01*
X42485Y-37140D02*
X41885Y-37140D01*
X41885Y-37140D02*
X41885Y-36740D01*
G54D13*
X25808Y-47299D02*
X29308Y-47299D01*
X25808Y-45299D02*
X29308Y-45299D01*
X25808Y-47299D02*
X25808Y-45299D01*
X29308Y-47299D02*
X29308Y-45299D01*
G54D12*
X81935Y-35890D02*
X81934Y-35899D01*
X81931Y-35909D01*
X81926Y-35917D01*
X81920Y-35925D01*
X81912Y-35931D01*
X81904Y-35936D01*
X81895Y-35938D01*
X81885Y-35939D01*
X81876Y-35939D01*
X81867Y-35936D01*
X81858Y-35931D01*
X81851Y-35925D01*
X81844Y-35918D01*
X81840Y-35909D01*
X81837Y-35900D01*
X81836Y-35890D01*
X81836Y-35881D01*
X81839Y-35872D01*
X81843Y-35863D01*
X81850Y-35856D01*
X81857Y-35849D01*
X81865Y-35845D01*
X81875Y-35842D01*
X81884Y-35841D01*
X81893Y-35841D01*
X81903Y-35844D01*
X81911Y-35848D01*
X81919Y-35854D01*
X81925Y-35862D01*
X81930Y-35870D01*
X81933Y-35879D01*
X81934Y-35889D01*
X81935Y-35890D01*
X81885Y-36340D02*
X81885Y-35940D01*
X81885Y-35940D02*
X82485Y-35940D01*
X82485Y-35940D02*
X82485Y-36340D01*
X82485Y-36740D02*
X82485Y-37140D01*
X82485Y-37140D02*
X81885Y-37140D01*
X81885Y-37140D02*
X81885Y-36740D01*
X71935Y-56904D02*
X71934Y-56913D01*
X71931Y-56923D01*
X71926Y-56931D01*
X71920Y-56939D01*
X71912Y-56945D01*
X71904Y-56950D01*
X71895Y-56952D01*
X71885Y-56953D01*
X71876Y-56953D01*
X71867Y-56950D01*
X71858Y-56945D01*
X71851Y-56939D01*
X71844Y-56932D01*
X71840Y-56923D01*
X71837Y-56914D01*
X71836Y-56904D01*
X71836Y-56895D01*
X71839Y-56886D01*
X71843Y-56877D01*
X71850Y-56870D01*
X71857Y-56863D01*
X71865Y-56859D01*
X71875Y-56856D01*
X71884Y-56855D01*
X71893Y-56855D01*
X71903Y-56858D01*
X71911Y-56862D01*
X71919Y-56868D01*
X71925Y-56876D01*
X71930Y-56884D01*
X71933Y-56893D01*
X71934Y-56903D01*
X71935Y-56904D01*
X71885Y-57354D02*
X71885Y-56954D01*
X71885Y-56954D02*
X72485Y-56954D01*
X72485Y-56954D02*
X72485Y-57354D01*
X72485Y-57754D02*
X72485Y-58154D01*
X72485Y-58154D02*
X71885Y-58154D01*
X71885Y-58154D02*
X71885Y-57754D01*
X71935Y-55403D02*
X71934Y-55412D01*
X71931Y-55422D01*
X71926Y-55430D01*
X71920Y-55438D01*
X71912Y-55444D01*
X71904Y-55449D01*
X71895Y-55451D01*
X71885Y-55452D01*
X71876Y-55452D01*
X71867Y-55449D01*
X71858Y-55444D01*
X71851Y-55438D01*
X71844Y-55431D01*
X71840Y-55422D01*
X71837Y-55413D01*
X71836Y-55403D01*
X71836Y-55394D01*
X71839Y-55385D01*
X71843Y-55376D01*
X71850Y-55369D01*
X71857Y-55362D01*
X71865Y-55358D01*
X71875Y-55355D01*
X71884Y-55354D01*
X71893Y-55354D01*
X71903Y-55357D01*
X71911Y-55361D01*
X71919Y-55367D01*
X71925Y-55375D01*
X71930Y-55383D01*
X71933Y-55392D01*
X71934Y-55402D01*
X71935Y-55403D01*
X71885Y-55853D02*
X71885Y-55453D01*
X71885Y-55453D02*
X72485Y-55453D01*
X72485Y-55453D02*
X72485Y-55853D01*
X72485Y-56253D02*
X72485Y-56653D01*
X72485Y-56653D02*
X71885Y-56653D01*
X71885Y-56653D02*
X71885Y-56253D01*
X71935Y-53902D02*
X71934Y-53911D01*
X71931Y-53921D01*
X71926Y-53929D01*
X71920Y-53937D01*
X71912Y-53943D01*
X71904Y-53948D01*
X71895Y-53950D01*
X71885Y-53951D01*
X71876Y-53951D01*
X71867Y-53948D01*
X71858Y-53943D01*
X71851Y-53937D01*
X71844Y-53930D01*
X71840Y-53921D01*
X71837Y-53912D01*
X71836Y-53902D01*
X71836Y-53893D01*
X71839Y-53884D01*
X71843Y-53875D01*
X71850Y-53868D01*
X71857Y-53861D01*
X71865Y-53857D01*
X71875Y-53854D01*
X71884Y-53853D01*
X71893Y-53853D01*
X71903Y-53856D01*
X71911Y-53860D01*
X71919Y-53866D01*
X71925Y-53874D01*
X71930Y-53882D01*
X71933Y-53891D01*
X71934Y-53901D01*
X71935Y-53902D01*
X71885Y-54352D02*
X71885Y-53952D01*
X71885Y-53952D02*
X72485Y-53952D01*
X72485Y-53952D02*
X72485Y-54352D01*
X72485Y-54752D02*
X72485Y-55152D01*
X72485Y-55152D02*
X71885Y-55152D01*
X71885Y-55152D02*
X71885Y-54752D01*
X71935Y-52401D02*
X71934Y-52410D01*
X71931Y-52420D01*
X71926Y-52428D01*
X71920Y-52436D01*
X71912Y-52442D01*
X71904Y-52447D01*
X71895Y-52449D01*
X71885Y-52450D01*
X71876Y-52450D01*
X71867Y-52447D01*
X71858Y-52442D01*
X71851Y-52436D01*
X71844Y-52429D01*
X71840Y-52420D01*
X71837Y-52411D01*
X71836Y-52401D01*
X71836Y-52392D01*
X71839Y-52383D01*
X71843Y-52374D01*
X71850Y-52367D01*
X71857Y-52360D01*
X71865Y-52356D01*
X71875Y-52353D01*
X71884Y-52352D01*
X71893Y-52352D01*
X71903Y-52355D01*
X71911Y-52359D01*
X71919Y-52365D01*
X71925Y-52373D01*
X71930Y-52381D01*
X71933Y-52390D01*
X71934Y-52400D01*
X71935Y-52401D01*
X71885Y-52851D02*
X71885Y-52451D01*
X71885Y-52451D02*
X72485Y-52451D01*
X72485Y-52451D02*
X72485Y-52851D01*
X72485Y-53251D02*
X72485Y-53651D01*
X72485Y-53651D02*
X71885Y-53651D01*
X71885Y-53651D02*
X71885Y-53251D01*
X71935Y-50900D02*
X71934Y-50909D01*
X71931Y-50919D01*
X71926Y-50927D01*
X71920Y-50935D01*
X71912Y-50941D01*
X71904Y-50946D01*
X71895Y-50948D01*
X71885Y-50949D01*
X71876Y-50949D01*
X71867Y-50946D01*
X71858Y-50941D01*
X71851Y-50935D01*
X71844Y-50928D01*
X71840Y-50919D01*
X71837Y-50910D01*
X71836Y-50900D01*
X71836Y-50891D01*
X71839Y-50882D01*
X71843Y-50873D01*
X71850Y-50866D01*
X71857Y-50859D01*
X71865Y-50855D01*
X71875Y-50852D01*
X71884Y-50851D01*
X71893Y-50851D01*
X71903Y-50854D01*
X71911Y-50858D01*
X71919Y-50864D01*
X71925Y-50872D01*
X71930Y-50880D01*
X71933Y-50889D01*
X71934Y-50899D01*
X71935Y-50900D01*
X71885Y-51350D02*
X71885Y-50950D01*
X71885Y-50950D02*
X72485Y-50950D01*
X72485Y-50950D02*
X72485Y-51350D01*
X72485Y-51750D02*
X72485Y-52150D01*
X72485Y-52150D02*
X71885Y-52150D01*
X71885Y-52150D02*
X71885Y-51750D01*
X71935Y-49399D02*
X71934Y-49408D01*
X71931Y-49418D01*
X71926Y-49426D01*
X71920Y-49434D01*
X71912Y-49440D01*
X71904Y-49445D01*
X71895Y-49447D01*
X71885Y-49448D01*
X71876Y-49448D01*
X71867Y-49445D01*
X71858Y-49440D01*
X71851Y-49434D01*
X71844Y-49427D01*
X71840Y-49418D01*
X71837Y-49409D01*
X71836Y-49399D01*
X71836Y-49390D01*
X71839Y-49381D01*
X71843Y-49372D01*
X71850Y-49365D01*
X71857Y-49358D01*
X71865Y-49354D01*
X71875Y-49351D01*
X71884Y-49350D01*
X71893Y-49350D01*
X71903Y-49353D01*
X71911Y-49357D01*
X71919Y-49363D01*
X71925Y-49371D01*
X71930Y-49379D01*
X71933Y-49388D01*
X71934Y-49398D01*
X71935Y-49399D01*
X71885Y-49849D02*
X71885Y-49449D01*
X71885Y-49449D02*
X72485Y-49449D01*
X72485Y-49449D02*
X72485Y-49849D01*
X72485Y-50249D02*
X72485Y-50649D01*
X72485Y-50649D02*
X71885Y-50649D01*
X71885Y-50649D02*
X71885Y-50249D01*
X71935Y-47898D02*
X71934Y-47907D01*
X71931Y-47917D01*
X71926Y-47925D01*
X71920Y-47933D01*
X71912Y-47939D01*
X71904Y-47944D01*
X71895Y-47946D01*
X71885Y-47947D01*
X71876Y-47947D01*
X71867Y-47944D01*
X71858Y-47939D01*
X71851Y-47933D01*
X71844Y-47926D01*
X71840Y-47917D01*
X71837Y-47908D01*
X71836Y-47898D01*
X71836Y-47889D01*
X71839Y-47880D01*
X71843Y-47871D01*
X71850Y-47864D01*
X71857Y-47857D01*
X71865Y-47853D01*
X71875Y-47850D01*
X71884Y-47849D01*
X71893Y-47849D01*
X71903Y-47852D01*
X71911Y-47856D01*
X71919Y-47862D01*
X71925Y-47870D01*
X71930Y-47878D01*
X71933Y-47887D01*
X71934Y-47897D01*
X71935Y-47898D01*
X71885Y-48348D02*
X71885Y-47948D01*
X71885Y-47948D02*
X72485Y-47948D01*
X72485Y-47948D02*
X72485Y-48348D01*
X72485Y-48748D02*
X72485Y-49148D01*
X72485Y-49148D02*
X71885Y-49148D01*
X71885Y-49148D02*
X71885Y-48748D01*
X71935Y-46397D02*
X71934Y-46406D01*
X71931Y-46416D01*
X71926Y-46424D01*
X71920Y-46432D01*
X71912Y-46438D01*
X71904Y-46443D01*
X71895Y-46445D01*
X71885Y-46446D01*
X71876Y-46446D01*
X71867Y-46443D01*
X71858Y-46438D01*
X71851Y-46432D01*
X71844Y-46425D01*
X71840Y-46416D01*
X71837Y-46407D01*
X71836Y-46397D01*
X71836Y-46388D01*
X71839Y-46379D01*
X71843Y-46370D01*
X71850Y-46363D01*
X71857Y-46356D01*
X71865Y-46352D01*
X71875Y-46349D01*
X71884Y-46348D01*
X71893Y-46348D01*
X71903Y-46351D01*
X71911Y-46355D01*
X71919Y-46361D01*
X71925Y-46369D01*
X71930Y-46377D01*
X71933Y-46386D01*
X71934Y-46396D01*
X71935Y-46397D01*
X71885Y-46847D02*
X71885Y-46447D01*
X71885Y-46447D02*
X72485Y-46447D01*
X72485Y-46447D02*
X72485Y-46847D01*
X72485Y-47247D02*
X72485Y-47647D01*
X72485Y-47647D02*
X71885Y-47647D01*
X71885Y-47647D02*
X71885Y-47247D01*
X71935Y-44896D02*
X71934Y-44905D01*
X71931Y-44915D01*
X71926Y-44923D01*
X71920Y-44931D01*
X71912Y-44937D01*
X71904Y-44942D01*
X71895Y-44944D01*
X71885Y-44945D01*
X71876Y-44945D01*
X71867Y-44942D01*
X71858Y-44937D01*
X71851Y-44931D01*
X71844Y-44924D01*
X71840Y-44915D01*
X71837Y-44906D01*
X71836Y-44896D01*
X71836Y-44887D01*
X71839Y-44878D01*
X71843Y-44869D01*
X71850Y-44862D01*
X71857Y-44855D01*
X71865Y-44851D01*
X71875Y-44848D01*
X71884Y-44847D01*
X71893Y-44847D01*
X71903Y-44850D01*
X71911Y-44854D01*
X71919Y-44860D01*
X71925Y-44868D01*
X71930Y-44876D01*
X71933Y-44885D01*
X71934Y-44895D01*
X71935Y-44896D01*
X71885Y-45346D02*
X71885Y-44946D01*
X71885Y-44946D02*
X72485Y-44946D01*
X72485Y-44946D02*
X72485Y-45346D01*
X72485Y-45746D02*
X72485Y-46146D01*
X72485Y-46146D02*
X71885Y-46146D01*
X71885Y-46146D02*
X71885Y-45746D01*
X71935Y-43395D02*
X71934Y-43404D01*
X71931Y-43414D01*
X71926Y-43422D01*
X71920Y-43430D01*
X71912Y-43436D01*
X71904Y-43441D01*
X71895Y-43443D01*
X71885Y-43444D01*
X71876Y-43444D01*
X71867Y-43441D01*
X71858Y-43436D01*
X71851Y-43430D01*
X71844Y-43423D01*
X71840Y-43414D01*
X71837Y-43405D01*
X71836Y-43395D01*
X71836Y-43386D01*
X71839Y-43377D01*
X71843Y-43368D01*
X71850Y-43361D01*
X71857Y-43354D01*
X71865Y-43350D01*
X71875Y-43347D01*
X71884Y-43346D01*
X71893Y-43346D01*
X71903Y-43349D01*
X71911Y-43353D01*
X71919Y-43359D01*
X71925Y-43367D01*
X71930Y-43375D01*
X71933Y-43384D01*
X71934Y-43394D01*
X71935Y-43395D01*
X71885Y-43845D02*
X71885Y-43445D01*
X71885Y-43445D02*
X72485Y-43445D01*
X72485Y-43445D02*
X72485Y-43845D01*
X72485Y-44245D02*
X72485Y-44645D01*
X72485Y-44645D02*
X71885Y-44645D01*
X71885Y-44645D02*
X71885Y-44245D01*
X71935Y-41894D02*
X71934Y-41903D01*
X71931Y-41913D01*
X71926Y-41921D01*
X71920Y-41929D01*
X71912Y-41935D01*
X71904Y-41940D01*
X71895Y-41942D01*
X71885Y-41943D01*
X71876Y-41943D01*
X71867Y-41940D01*
X71858Y-41935D01*
X71851Y-41929D01*
X71844Y-41922D01*
X71840Y-41913D01*
X71837Y-41904D01*
X71836Y-41894D01*
X71836Y-41885D01*
X71839Y-41876D01*
X71843Y-41867D01*
X71850Y-41860D01*
X71857Y-41853D01*
X71865Y-41849D01*
X71875Y-41846D01*
X71884Y-41845D01*
X71893Y-41845D01*
X71903Y-41848D01*
X71911Y-41852D01*
X71919Y-41858D01*
X71925Y-41866D01*
X71930Y-41874D01*
X71933Y-41883D01*
X71934Y-41893D01*
X71935Y-41894D01*
X71885Y-42344D02*
X71885Y-41944D01*
X71885Y-41944D02*
X72485Y-41944D01*
X72485Y-41944D02*
X72485Y-42344D01*
X72485Y-42744D02*
X72485Y-43144D01*
X72485Y-43144D02*
X71885Y-43144D01*
X71885Y-43144D02*
X71885Y-42744D01*
X71935Y-40393D02*
X71934Y-40402D01*
X71931Y-40412D01*
X71926Y-40420D01*
X71920Y-40428D01*
X71912Y-40434D01*
X71904Y-40439D01*
X71895Y-40441D01*
X71885Y-40442D01*
X71876Y-40442D01*
X71867Y-40439D01*
X71858Y-40434D01*
X71851Y-40428D01*
X71844Y-40421D01*
X71840Y-40412D01*
X71837Y-40403D01*
X71836Y-40393D01*
X71836Y-40384D01*
X71839Y-40375D01*
X71843Y-40366D01*
X71850Y-40359D01*
X71857Y-40352D01*
X71865Y-40348D01*
X71875Y-40345D01*
X71884Y-40344D01*
X71893Y-40344D01*
X71903Y-40347D01*
X71911Y-40351D01*
X71919Y-40357D01*
X71925Y-40365D01*
X71930Y-40373D01*
X71933Y-40382D01*
X71934Y-40392D01*
X71935Y-40393D01*
X71885Y-40843D02*
X71885Y-40443D01*
X71885Y-40443D02*
X72485Y-40443D01*
X72485Y-40443D02*
X72485Y-40843D01*
X72485Y-41243D02*
X72485Y-41643D01*
X72485Y-41643D02*
X71885Y-41643D01*
X71885Y-41643D02*
X71885Y-41243D01*
X71935Y-38892D02*
X71934Y-38901D01*
X71931Y-38911D01*
X71926Y-38919D01*
X71920Y-38927D01*
X71912Y-38933D01*
X71904Y-38938D01*
X71895Y-38940D01*
X71885Y-38941D01*
X71876Y-38941D01*
X71867Y-38938D01*
X71858Y-38933D01*
X71851Y-38927D01*
X71844Y-38920D01*
X71840Y-38911D01*
X71837Y-38902D01*
X71836Y-38892D01*
X71836Y-38883D01*
X71839Y-38874D01*
X71843Y-38865D01*
X71850Y-38858D01*
X71857Y-38851D01*
X71865Y-38847D01*
X71875Y-38844D01*
X71884Y-38843D01*
X71893Y-38843D01*
X71903Y-38846D01*
X71911Y-38850D01*
X71919Y-38856D01*
X71925Y-38864D01*
X71930Y-38872D01*
X71933Y-38881D01*
X71934Y-38891D01*
X71935Y-38892D01*
X71885Y-39342D02*
X71885Y-38942D01*
X71885Y-38942D02*
X72485Y-38942D01*
X72485Y-38942D02*
X72485Y-39342D01*
X72485Y-39742D02*
X72485Y-40142D01*
X72485Y-40142D02*
X71885Y-40142D01*
X71885Y-40142D02*
X71885Y-39742D01*
X81935Y-37391D02*
X81934Y-37400D01*
X81931Y-37410D01*
X81926Y-37418D01*
X81920Y-37426D01*
X81912Y-37432D01*
X81904Y-37437D01*
X81895Y-37439D01*
X81885Y-37440D01*
X81876Y-37440D01*
X81867Y-37437D01*
X81858Y-37432D01*
X81851Y-37426D01*
X81844Y-37419D01*
X81840Y-37410D01*
X81837Y-37401D01*
X81836Y-37391D01*
X81836Y-37382D01*
X81839Y-37373D01*
X81843Y-37364D01*
X81850Y-37357D01*
X81857Y-37350D01*
X81865Y-37346D01*
X81875Y-37343D01*
X81884Y-37342D01*
X81893Y-37342D01*
X81903Y-37345D01*
X81911Y-37349D01*
X81919Y-37355D01*
X81925Y-37363D01*
X81930Y-37371D01*
X81933Y-37380D01*
X81934Y-37390D01*
X81935Y-37391D01*
X81885Y-37841D02*
X81885Y-37441D01*
X81885Y-37441D02*
X82485Y-37441D01*
X82485Y-37441D02*
X82485Y-37841D01*
X82485Y-38241D02*
X82485Y-38641D01*
X82485Y-38641D02*
X81885Y-38641D01*
X81885Y-38641D02*
X81885Y-38241D01*
X81935Y-38892D02*
X81934Y-38901D01*
X81931Y-38911D01*
X81926Y-38919D01*
X81920Y-38927D01*
X81912Y-38933D01*
X81904Y-38938D01*
X81895Y-38940D01*
X81885Y-38941D01*
X81876Y-38941D01*
X81867Y-38938D01*
X81858Y-38933D01*
X81851Y-38927D01*
X81844Y-38920D01*
X81840Y-38911D01*
X81837Y-38902D01*
X81836Y-38892D01*
X81836Y-38883D01*
X81839Y-38874D01*
X81843Y-38865D01*
X81850Y-38858D01*
X81857Y-38851D01*
X81865Y-38847D01*
X81875Y-38844D01*
X81884Y-38843D01*
X81893Y-38843D01*
X81903Y-38846D01*
X81911Y-38850D01*
X81919Y-38856D01*
X81925Y-38864D01*
X81930Y-38872D01*
X81933Y-38881D01*
X81934Y-38891D01*
X81935Y-38892D01*
X81885Y-39342D02*
X81885Y-38942D01*
X81885Y-38942D02*
X82485Y-38942D01*
X82485Y-38942D02*
X82485Y-39342D01*
X82485Y-39742D02*
X82485Y-40142D01*
X82485Y-40142D02*
X81885Y-40142D01*
X81885Y-40142D02*
X81885Y-39742D01*
X81935Y-40393D02*
X81934Y-40402D01*
X81931Y-40412D01*
X81926Y-40420D01*
X81920Y-40428D01*
X81912Y-40434D01*
X81904Y-40439D01*
X81895Y-40441D01*
X81885Y-40442D01*
X81876Y-40442D01*
X81867Y-40439D01*
X81858Y-40434D01*
X81851Y-40428D01*
X81844Y-40421D01*
X81840Y-40412D01*
X81837Y-40403D01*
X81836Y-40393D01*
X81836Y-40384D01*
X81839Y-40375D01*
X81843Y-40366D01*
X81850Y-40359D01*
X81857Y-40352D01*
X81865Y-40348D01*
X81875Y-40345D01*
X81884Y-40344D01*
X81893Y-40344D01*
X81903Y-40347D01*
X81911Y-40351D01*
X81919Y-40357D01*
X81925Y-40365D01*
X81930Y-40373D01*
X81933Y-40382D01*
X81934Y-40392D01*
X81935Y-40393D01*
X81885Y-40843D02*
X81885Y-40443D01*
X81885Y-40443D02*
X82485Y-40443D01*
X82485Y-40443D02*
X82485Y-40843D01*
X82485Y-41243D02*
X82485Y-41643D01*
X82485Y-41643D02*
X81885Y-41643D01*
X81885Y-41643D02*
X81885Y-41243D01*
X81935Y-41894D02*
X81934Y-41903D01*
X81931Y-41913D01*
X81926Y-41921D01*
X81920Y-41929D01*
X81912Y-41935D01*
X81904Y-41940D01*
X81895Y-41942D01*
X81885Y-41943D01*
X81876Y-41943D01*
X81867Y-41940D01*
X81858Y-41935D01*
X81851Y-41929D01*
X81844Y-41922D01*
X81840Y-41913D01*
X81837Y-41904D01*
X81836Y-41894D01*
X81836Y-41885D01*
X81839Y-41876D01*
X81843Y-41867D01*
X81850Y-41860D01*
X81857Y-41853D01*
X81865Y-41849D01*
X81875Y-41846D01*
X81884Y-41845D01*
X81893Y-41845D01*
X81903Y-41848D01*
X81911Y-41852D01*
X81919Y-41858D01*
X81925Y-41866D01*
X81930Y-41874D01*
X81933Y-41883D01*
X81934Y-41893D01*
X81935Y-41894D01*
X81885Y-42344D02*
X81885Y-41944D01*
X81885Y-41944D02*
X82485Y-41944D01*
X82485Y-41944D02*
X82485Y-42344D01*
X82485Y-42744D02*
X82485Y-43144D01*
X82485Y-43144D02*
X81885Y-43144D01*
X81885Y-43144D02*
X81885Y-42744D01*
X81935Y-43395D02*
X81934Y-43404D01*
X81931Y-43414D01*
X81926Y-43422D01*
X81920Y-43430D01*
X81912Y-43436D01*
X81904Y-43441D01*
X81895Y-43443D01*
X81885Y-43444D01*
X81876Y-43444D01*
X81867Y-43441D01*
X81858Y-43436D01*
X81851Y-43430D01*
X81844Y-43423D01*
X81840Y-43414D01*
X81837Y-43405D01*
X81836Y-43395D01*
X81836Y-43386D01*
X81839Y-43377D01*
X81843Y-43368D01*
X81850Y-43361D01*
X81857Y-43354D01*
X81865Y-43350D01*
X81875Y-43347D01*
X81884Y-43346D01*
X81893Y-43346D01*
X81903Y-43349D01*
X81911Y-43353D01*
X81919Y-43359D01*
X81925Y-43367D01*
X81930Y-43375D01*
X81933Y-43384D01*
X81934Y-43394D01*
X81935Y-43395D01*
X81885Y-43845D02*
X81885Y-43445D01*
X81885Y-43445D02*
X82485Y-43445D01*
X82485Y-43445D02*
X82485Y-43845D01*
X82485Y-44245D02*
X82485Y-44645D01*
X82485Y-44645D02*
X81885Y-44645D01*
X81885Y-44645D02*
X81885Y-44245D01*
X81937Y-44945D02*
X81936Y-44954D01*
X81933Y-44964D01*
X81928Y-44972D01*
X81922Y-44980D01*
X81914Y-44986D01*
X81906Y-44991D01*
X81897Y-44993D01*
X81887Y-44994D01*
X81878Y-44994D01*
X81869Y-44991D01*
X81860Y-44986D01*
X81853Y-44980D01*
X81846Y-44973D01*
X81842Y-44964D01*
X81839Y-44955D01*
X81838Y-44945D01*
X81838Y-44936D01*
X81841Y-44927D01*
X81845Y-44918D01*
X81852Y-44911D01*
X81859Y-44904D01*
X81867Y-44900D01*
X81877Y-44897D01*
X81886Y-44896D01*
X81895Y-44896D01*
X81905Y-44899D01*
X81913Y-44903D01*
X81921Y-44909D01*
X81927Y-44917D01*
X81932Y-44925D01*
X81935Y-44934D01*
X81936Y-44944D01*
X81937Y-44945D01*
X81887Y-45395D02*
X81887Y-44995D01*
X81887Y-44995D02*
X82487Y-44995D01*
X82487Y-44995D02*
X82487Y-45395D01*
X82487Y-45795D02*
X82487Y-46195D01*
X82487Y-46195D02*
X81887Y-46195D01*
X81887Y-46195D02*
X81887Y-45795D01*
X81935Y-46397D02*
X81934Y-46406D01*
X81931Y-46416D01*
X81926Y-46424D01*
X81920Y-46432D01*
X81912Y-46438D01*
X81904Y-46443D01*
X81895Y-46445D01*
X81885Y-46446D01*
X81876Y-46446D01*
X81867Y-46443D01*
X81858Y-46438D01*
X81851Y-46432D01*
X81844Y-46425D01*
X81840Y-46416D01*
X81837Y-46407D01*
X81836Y-46397D01*
X81836Y-46388D01*
X81839Y-46379D01*
X81843Y-46370D01*
X81850Y-46363D01*
X81857Y-46356D01*
X81865Y-46352D01*
X81875Y-46349D01*
X81884Y-46348D01*
X81893Y-46348D01*
X81903Y-46351D01*
X81911Y-46355D01*
X81919Y-46361D01*
X81925Y-46369D01*
X81930Y-46377D01*
X81933Y-46386D01*
X81934Y-46396D01*
X81935Y-46397D01*
X81885Y-46847D02*
X81885Y-46447D01*
X81885Y-46447D02*
X82485Y-46447D01*
X82485Y-46447D02*
X82485Y-46847D01*
X82485Y-47247D02*
X82485Y-47647D01*
X82485Y-47647D02*
X81885Y-47647D01*
X81885Y-47647D02*
X81885Y-47247D01*
X81935Y-47898D02*
X81934Y-47907D01*
X81931Y-47917D01*
X81926Y-47925D01*
X81920Y-47933D01*
X81912Y-47939D01*
X81904Y-47944D01*
X81895Y-47946D01*
X81885Y-47947D01*
X81876Y-47947D01*
X81867Y-47944D01*
X81858Y-47939D01*
X81851Y-47933D01*
X81844Y-47926D01*
X81840Y-47917D01*
X81837Y-47908D01*
X81836Y-47898D01*
X81836Y-47889D01*
X81839Y-47880D01*
X81843Y-47871D01*
X81850Y-47864D01*
X81857Y-47857D01*
X81865Y-47853D01*
X81875Y-47850D01*
X81884Y-47849D01*
X81893Y-47849D01*
X81903Y-47852D01*
X81911Y-47856D01*
X81919Y-47862D01*
X81925Y-47870D01*
X81930Y-47878D01*
X81933Y-47887D01*
X81934Y-47897D01*
X81935Y-47898D01*
X81885Y-48348D02*
X81885Y-47948D01*
X81885Y-47948D02*
X82485Y-47948D01*
X82485Y-47948D02*
X82485Y-48348D01*
X82485Y-48748D02*
X82485Y-49148D01*
X82485Y-49148D02*
X81885Y-49148D01*
X81885Y-49148D02*
X81885Y-48748D01*
X81935Y-49399D02*
X81934Y-49408D01*
X81931Y-49418D01*
X81926Y-49426D01*
X81920Y-49434D01*
X81912Y-49440D01*
X81904Y-49445D01*
X81895Y-49447D01*
X81885Y-49448D01*
X81876Y-49448D01*
X81867Y-49445D01*
X81858Y-49440D01*
X81851Y-49434D01*
X81844Y-49427D01*
X81840Y-49418D01*
X81837Y-49409D01*
X81836Y-49399D01*
X81836Y-49390D01*
X81839Y-49381D01*
X81843Y-49372D01*
X81850Y-49365D01*
X81857Y-49358D01*
X81865Y-49354D01*
X81875Y-49351D01*
X81884Y-49350D01*
X81893Y-49350D01*
X81903Y-49353D01*
X81911Y-49357D01*
X81919Y-49363D01*
X81925Y-49371D01*
X81930Y-49379D01*
X81933Y-49388D01*
X81934Y-49398D01*
X81935Y-49399D01*
X81885Y-49849D02*
X81885Y-49449D01*
X81885Y-49449D02*
X82485Y-49449D01*
X82485Y-49449D02*
X82485Y-49849D01*
X82485Y-50249D02*
X82485Y-50649D01*
X82485Y-50649D02*
X81885Y-50649D01*
X81885Y-50649D02*
X81885Y-50249D01*
X81935Y-50900D02*
X81934Y-50909D01*
X81931Y-50919D01*
X81926Y-50927D01*
X81920Y-50935D01*
X81912Y-50941D01*
X81904Y-50946D01*
X81895Y-50948D01*
X81885Y-50949D01*
X81876Y-50949D01*
X81867Y-50946D01*
X81858Y-50941D01*
X81851Y-50935D01*
X81844Y-50928D01*
X81840Y-50919D01*
X81837Y-50910D01*
X81836Y-50900D01*
X81836Y-50891D01*
X81839Y-50882D01*
X81843Y-50873D01*
X81850Y-50866D01*
X81857Y-50859D01*
X81865Y-50855D01*
X81875Y-50852D01*
X81884Y-50851D01*
X81893Y-50851D01*
X81903Y-50854D01*
X81911Y-50858D01*
X81919Y-50864D01*
X81925Y-50872D01*
X81930Y-50880D01*
X81933Y-50889D01*
X81934Y-50899D01*
X81935Y-50900D01*
X81885Y-51350D02*
X81885Y-50950D01*
X81885Y-50950D02*
X82485Y-50950D01*
X82485Y-50950D02*
X82485Y-51350D01*
X82485Y-51750D02*
X82485Y-52150D01*
X82485Y-52150D02*
X81885Y-52150D01*
X81885Y-52150D02*
X81885Y-51750D01*
X81935Y-52401D02*
X81934Y-52410D01*
X81931Y-52420D01*
X81926Y-52428D01*
X81920Y-52436D01*
X81912Y-52442D01*
X81904Y-52447D01*
X81895Y-52449D01*
X81885Y-52450D01*
X81876Y-52450D01*
X81867Y-52447D01*
X81858Y-52442D01*
X81851Y-52436D01*
X81844Y-52429D01*
X81840Y-52420D01*
X81837Y-52411D01*
X81836Y-52401D01*
X81836Y-52392D01*
X81839Y-52383D01*
X81843Y-52374D01*
X81850Y-52367D01*
X81857Y-52360D01*
X81865Y-52356D01*
X81875Y-52353D01*
X81884Y-52352D01*
X81893Y-52352D01*
X81903Y-52355D01*
X81911Y-52359D01*
X81919Y-52365D01*
X81925Y-52373D01*
X81930Y-52381D01*
X81933Y-52390D01*
X81934Y-52400D01*
X81935Y-52401D01*
X81885Y-52851D02*
X81885Y-52451D01*
X81885Y-52451D02*
X82485Y-52451D01*
X82485Y-52451D02*
X82485Y-52851D01*
X82485Y-53251D02*
X82485Y-53651D01*
X82485Y-53651D02*
X81885Y-53651D01*
X81885Y-53651D02*
X81885Y-53251D01*
X81935Y-53902D02*
X81934Y-53911D01*
X81931Y-53921D01*
X81926Y-53929D01*
X81920Y-53937D01*
X81912Y-53943D01*
X81904Y-53948D01*
X81895Y-53950D01*
X81885Y-53951D01*
X81876Y-53951D01*
X81867Y-53948D01*
X81858Y-53943D01*
X81851Y-53937D01*
X81844Y-53930D01*
X81840Y-53921D01*
X81837Y-53912D01*
X81836Y-53902D01*
X81836Y-53893D01*
X81839Y-53884D01*
X81843Y-53875D01*
X81850Y-53868D01*
X81857Y-53861D01*
X81865Y-53857D01*
X81875Y-53854D01*
X81884Y-53853D01*
X81893Y-53853D01*
X81903Y-53856D01*
X81911Y-53860D01*
X81919Y-53866D01*
X81925Y-53874D01*
X81930Y-53882D01*
X81933Y-53891D01*
X81934Y-53901D01*
X81935Y-53902D01*
X81885Y-54352D02*
X81885Y-53952D01*
X81885Y-53952D02*
X82485Y-53952D01*
X82485Y-53952D02*
X82485Y-54352D01*
X82485Y-54752D02*
X82485Y-55152D01*
X82485Y-55152D02*
X81885Y-55152D01*
X81885Y-55152D02*
X81885Y-54752D01*
X81935Y-55403D02*
X81934Y-55412D01*
X81931Y-55422D01*
X81926Y-55430D01*
X81920Y-55438D01*
X81912Y-55444D01*
X81904Y-55449D01*
X81895Y-55451D01*
X81885Y-55452D01*
X81876Y-55452D01*
X81867Y-55449D01*
X81858Y-55444D01*
X81851Y-55438D01*
X81844Y-55431D01*
X81840Y-55422D01*
X81837Y-55413D01*
X81836Y-55403D01*
X81836Y-55394D01*
X81839Y-55385D01*
X81843Y-55376D01*
X81850Y-55369D01*
X81857Y-55362D01*
X81865Y-55358D01*
X81875Y-55355D01*
X81884Y-55354D01*
X81893Y-55354D01*
X81903Y-55357D01*
X81911Y-55361D01*
X81919Y-55367D01*
X81925Y-55375D01*
X81930Y-55383D01*
X81933Y-55392D01*
X81934Y-55402D01*
X81935Y-55403D01*
X81885Y-55853D02*
X81885Y-55453D01*
X81885Y-55453D02*
X82485Y-55453D01*
X82485Y-55453D02*
X82485Y-55853D01*
X82485Y-56253D02*
X82485Y-56653D01*
X82485Y-56653D02*
X81885Y-56653D01*
X81885Y-56653D02*
X81885Y-56253D01*
X81935Y-56904D02*
X81934Y-56913D01*
X81931Y-56923D01*
X81926Y-56931D01*
X81920Y-56939D01*
X81912Y-56945D01*
X81904Y-56950D01*
X81895Y-56952D01*
X81885Y-56953D01*
X81876Y-56953D01*
X81867Y-56950D01*
X81858Y-56945D01*
X81851Y-56939D01*
X81844Y-56932D01*
X81840Y-56923D01*
X81837Y-56914D01*
X81836Y-56904D01*
X81836Y-56895D01*
X81839Y-56886D01*
X81843Y-56877D01*
X81850Y-56870D01*
X81857Y-56863D01*
X81865Y-56859D01*
X81875Y-56856D01*
X81884Y-56855D01*
X81893Y-56855D01*
X81903Y-56858D01*
X81911Y-56862D01*
X81919Y-56868D01*
X81925Y-56876D01*
X81930Y-56884D01*
X81933Y-56893D01*
X81934Y-56903D01*
X81935Y-56904D01*
X81885Y-57354D02*
X81885Y-56954D01*
X81885Y-56954D02*
X82485Y-56954D01*
X82485Y-56954D02*
X82485Y-57354D01*
X82485Y-57754D02*
X82485Y-58154D01*
X82485Y-58154D02*
X81885Y-58154D01*
X81885Y-58154D02*
X81885Y-57754D01*
X51935Y-35890D02*
X51934Y-35899D01*
X51931Y-35909D01*
X51926Y-35917D01*
X51920Y-35925D01*
X51912Y-35931D01*
X51904Y-35936D01*
X51895Y-35938D01*
X51885Y-35939D01*
X51876Y-35939D01*
X51867Y-35936D01*
X51858Y-35931D01*
X51851Y-35925D01*
X51844Y-35918D01*
X51840Y-35909D01*
X51837Y-35900D01*
X51836Y-35890D01*
X51836Y-35881D01*
X51839Y-35872D01*
X51843Y-35863D01*
X51850Y-35856D01*
X51857Y-35849D01*
X51865Y-35845D01*
X51875Y-35842D01*
X51884Y-35841D01*
X51893Y-35841D01*
X51903Y-35844D01*
X51911Y-35848D01*
X51919Y-35854D01*
X51925Y-35862D01*
X51930Y-35870D01*
X51933Y-35879D01*
X51934Y-35889D01*
X51935Y-35890D01*
X51885Y-36340D02*
X51885Y-35940D01*
X51885Y-35940D02*
X52485Y-35940D01*
X52485Y-35940D02*
X52485Y-36340D01*
X52485Y-36740D02*
X52485Y-37140D01*
X52485Y-37140D02*
X51885Y-37140D01*
X51885Y-37140D02*
X51885Y-36740D01*
X51935Y-37391D02*
X51934Y-37400D01*
X51931Y-37410D01*
X51926Y-37418D01*
X51920Y-37426D01*
X51912Y-37432D01*
X51904Y-37437D01*
X51895Y-37439D01*
X51885Y-37440D01*
X51876Y-37440D01*
X51867Y-37437D01*
X51858Y-37432D01*
X51851Y-37426D01*
X51844Y-37419D01*
X51840Y-37410D01*
X51837Y-37401D01*
X51836Y-37391D01*
X51836Y-37382D01*
X51839Y-37373D01*
X51843Y-37364D01*
X51850Y-37357D01*
X51857Y-37350D01*
X51865Y-37346D01*
X51875Y-37343D01*
X51884Y-37342D01*
X51893Y-37342D01*
X51903Y-37345D01*
X51911Y-37349D01*
X51919Y-37355D01*
X51925Y-37363D01*
X51930Y-37371D01*
X51933Y-37380D01*
X51934Y-37390D01*
X51935Y-37391D01*
X51885Y-37841D02*
X51885Y-37441D01*
X51885Y-37441D02*
X52485Y-37441D01*
X52485Y-37441D02*
X52485Y-37841D01*
X52485Y-38241D02*
X52485Y-38641D01*
X52485Y-38641D02*
X51885Y-38641D01*
X51885Y-38641D02*
X51885Y-38241D01*
X51935Y-38892D02*
X51934Y-38901D01*
X51931Y-38911D01*
X51926Y-38919D01*
X51920Y-38927D01*
X51912Y-38933D01*
X51904Y-38938D01*
X51895Y-38940D01*
X51885Y-38941D01*
X51876Y-38941D01*
X51867Y-38938D01*
X51858Y-38933D01*
X51851Y-38927D01*
X51844Y-38920D01*
X51840Y-38911D01*
X51837Y-38902D01*
X51836Y-38892D01*
X51836Y-38883D01*
X51839Y-38874D01*
X51843Y-38865D01*
X51850Y-38858D01*
X51857Y-38851D01*
X51865Y-38847D01*
X51875Y-38844D01*
X51884Y-38843D01*
X51893Y-38843D01*
X51903Y-38846D01*
X51911Y-38850D01*
X51919Y-38856D01*
X51925Y-38864D01*
X51930Y-38872D01*
X51933Y-38881D01*
X51934Y-38891D01*
X51935Y-38892D01*
X51885Y-39342D02*
X51885Y-38942D01*
X51885Y-38942D02*
X52485Y-38942D01*
X52485Y-38942D02*
X52485Y-39342D01*
X52485Y-39742D02*
X52485Y-40142D01*
X52485Y-40142D02*
X51885Y-40142D01*
X51885Y-40142D02*
X51885Y-39742D01*
X51935Y-40393D02*
X51934Y-40402D01*
X51931Y-40412D01*
X51926Y-40420D01*
X51920Y-40428D01*
X51912Y-40434D01*
X51904Y-40439D01*
X51895Y-40441D01*
X51885Y-40442D01*
X51876Y-40442D01*
X51867Y-40439D01*
X51858Y-40434D01*
X51851Y-40428D01*
X51844Y-40421D01*
X51840Y-40412D01*
X51837Y-40403D01*
X51836Y-40393D01*
X51836Y-40384D01*
X51839Y-40375D01*
X51843Y-40366D01*
X51850Y-40359D01*
X51857Y-40352D01*
X51865Y-40348D01*
X51875Y-40345D01*
X51884Y-40344D01*
X51893Y-40344D01*
X51903Y-40347D01*
X51911Y-40351D01*
X51919Y-40357D01*
X51925Y-40365D01*
X51930Y-40373D01*
X51933Y-40382D01*
X51934Y-40392D01*
X51935Y-40393D01*
X51885Y-40843D02*
X51885Y-40443D01*
X51885Y-40443D02*
X52485Y-40443D01*
X52485Y-40443D02*
X52485Y-40843D01*
X52485Y-41243D02*
X52485Y-41643D01*
X52485Y-41643D02*
X51885Y-41643D01*
X51885Y-41643D02*
X51885Y-41243D01*
X51935Y-41894D02*
X51934Y-41903D01*
X51931Y-41913D01*
X51926Y-41921D01*
X51920Y-41929D01*
X51912Y-41935D01*
X51904Y-41940D01*
X51895Y-41942D01*
X51885Y-41943D01*
X51876Y-41943D01*
X51867Y-41940D01*
X51858Y-41935D01*
X51851Y-41929D01*
X51844Y-41922D01*
X51840Y-41913D01*
X51837Y-41904D01*
X51836Y-41894D01*
X51836Y-41885D01*
X51839Y-41876D01*
X51843Y-41867D01*
X51850Y-41860D01*
X51857Y-41853D01*
X51865Y-41849D01*
X51875Y-41846D01*
X51884Y-41845D01*
X51893Y-41845D01*
X51903Y-41848D01*
X51911Y-41852D01*
X51919Y-41858D01*
X51925Y-41866D01*
X51930Y-41874D01*
X51933Y-41883D01*
X51934Y-41893D01*
X51935Y-41894D01*
X51885Y-42344D02*
X51885Y-41944D01*
X51885Y-41944D02*
X52485Y-41944D01*
X52485Y-41944D02*
X52485Y-42344D01*
X52485Y-42744D02*
X52485Y-43144D01*
X52485Y-43144D02*
X51885Y-43144D01*
X51885Y-43144D02*
X51885Y-42744D01*
X51935Y-43395D02*
X51934Y-43404D01*
X51931Y-43414D01*
X51926Y-43422D01*
X51920Y-43430D01*
X51912Y-43436D01*
X51904Y-43441D01*
X51895Y-43443D01*
X51885Y-43444D01*
X51876Y-43444D01*
X51867Y-43441D01*
X51858Y-43436D01*
X51851Y-43430D01*
X51844Y-43423D01*
X51840Y-43414D01*
X51837Y-43405D01*
X51836Y-43395D01*
X51836Y-43386D01*
X51839Y-43377D01*
X51843Y-43368D01*
X51850Y-43361D01*
X51857Y-43354D01*
X51865Y-43350D01*
X51875Y-43347D01*
X51884Y-43346D01*
X51893Y-43346D01*
X51903Y-43349D01*
X51911Y-43353D01*
X51919Y-43359D01*
X51925Y-43367D01*
X51930Y-43375D01*
X51933Y-43384D01*
X51934Y-43394D01*
X51935Y-43395D01*
X51885Y-43845D02*
X51885Y-43445D01*
X51885Y-43445D02*
X52485Y-43445D01*
X52485Y-43445D02*
X52485Y-43845D01*
X52485Y-44245D02*
X52485Y-44645D01*
X52485Y-44645D02*
X51885Y-44645D01*
X51885Y-44645D02*
X51885Y-44245D01*
X51935Y-44896D02*
X51934Y-44905D01*
X51931Y-44915D01*
X51926Y-44923D01*
X51920Y-44931D01*
X51912Y-44937D01*
X51904Y-44942D01*
X51895Y-44944D01*
X51885Y-44945D01*
X51876Y-44945D01*
X51867Y-44942D01*
X51858Y-44937D01*
X51851Y-44931D01*
X51844Y-44924D01*
X51840Y-44915D01*
X51837Y-44906D01*
X51836Y-44896D01*
X51836Y-44887D01*
X51839Y-44878D01*
X51843Y-44869D01*
X51850Y-44862D01*
X51857Y-44855D01*
X51865Y-44851D01*
X51875Y-44848D01*
X51884Y-44847D01*
X51893Y-44847D01*
X51903Y-44850D01*
X51911Y-44854D01*
X51919Y-44860D01*
X51925Y-44868D01*
X51930Y-44876D01*
X51933Y-44885D01*
X51934Y-44895D01*
X51935Y-44896D01*
X51885Y-45346D02*
X51885Y-44946D01*
X51885Y-44946D02*
X52485Y-44946D01*
X52485Y-44946D02*
X52485Y-45346D01*
X52485Y-45746D02*
X52485Y-46146D01*
X52485Y-46146D02*
X51885Y-46146D01*
X51885Y-46146D02*
X51885Y-45746D01*
X51935Y-46397D02*
X51934Y-46406D01*
X51931Y-46416D01*
X51926Y-46424D01*
X51920Y-46432D01*
X51912Y-46438D01*
X51904Y-46443D01*
X51895Y-46445D01*
X51885Y-46446D01*
X51876Y-46446D01*
X51867Y-46443D01*
X51858Y-46438D01*
X51851Y-46432D01*
X51844Y-46425D01*
X51840Y-46416D01*
X51837Y-46407D01*
X51836Y-46397D01*
X51836Y-46388D01*
X51839Y-46379D01*
X51843Y-46370D01*
X51850Y-46363D01*
X51857Y-46356D01*
X51865Y-46352D01*
X51875Y-46349D01*
X51884Y-46348D01*
X51893Y-46348D01*
X51903Y-46351D01*
X51911Y-46355D01*
X51919Y-46361D01*
X51925Y-46369D01*
X51930Y-46377D01*
X51933Y-46386D01*
X51934Y-46396D01*
X51935Y-46397D01*
X51885Y-46847D02*
X51885Y-46447D01*
X51885Y-46447D02*
X52485Y-46447D01*
X52485Y-46447D02*
X52485Y-46847D01*
X52485Y-47247D02*
X52485Y-47647D01*
X52485Y-47647D02*
X51885Y-47647D01*
X51885Y-47647D02*
X51885Y-47247D01*
X51935Y-47898D02*
X51934Y-47907D01*
X51931Y-47917D01*
X51926Y-47925D01*
X51920Y-47933D01*
X51912Y-47939D01*
X51904Y-47944D01*
X51895Y-47946D01*
X51885Y-47947D01*
X51876Y-47947D01*
X51867Y-47944D01*
X51858Y-47939D01*
X51851Y-47933D01*
X51844Y-47926D01*
X51840Y-47917D01*
X51837Y-47908D01*
X51836Y-47898D01*
X51836Y-47889D01*
X51839Y-47880D01*
X51843Y-47871D01*
X51850Y-47864D01*
X51857Y-47857D01*
X51865Y-47853D01*
X51875Y-47850D01*
X51884Y-47849D01*
X51893Y-47849D01*
X51903Y-47852D01*
X51911Y-47856D01*
X51919Y-47862D01*
X51925Y-47870D01*
X51930Y-47878D01*
X51933Y-47887D01*
X51934Y-47897D01*
X51935Y-47898D01*
X51885Y-48348D02*
X51885Y-47948D01*
X51885Y-47948D02*
X52485Y-47948D01*
X52485Y-47948D02*
X52485Y-48348D01*
X52485Y-48748D02*
X52485Y-49148D01*
X52485Y-49148D02*
X51885Y-49148D01*
X51885Y-49148D02*
X51885Y-48748D01*
X51935Y-49399D02*
X51934Y-49408D01*
X51931Y-49418D01*
X51926Y-49426D01*
X51920Y-49434D01*
X51912Y-49440D01*
X51904Y-49445D01*
X51895Y-49447D01*
X51885Y-49448D01*
X51876Y-49448D01*
X51867Y-49445D01*
X51858Y-49440D01*
X51851Y-49434D01*
X51844Y-49427D01*
X51840Y-49418D01*
X51837Y-49409D01*
X51836Y-49399D01*
X51836Y-49390D01*
X51839Y-49381D01*
X51843Y-49372D01*
X51850Y-49365D01*
X51857Y-49358D01*
X51865Y-49354D01*
X51875Y-49351D01*
X51884Y-49350D01*
X51893Y-49350D01*
X51903Y-49353D01*
X51911Y-49357D01*
X51919Y-49363D01*
X51925Y-49371D01*
X51930Y-49379D01*
X51933Y-49388D01*
X51934Y-49398D01*
X51935Y-49399D01*
X51885Y-49849D02*
X51885Y-49449D01*
X51885Y-49449D02*
X52485Y-49449D01*
X52485Y-49449D02*
X52485Y-49849D01*
X52485Y-50249D02*
X52485Y-50649D01*
X52485Y-50649D02*
X51885Y-50649D01*
X51885Y-50649D02*
X51885Y-50249D01*
X51935Y-50900D02*
X51934Y-50909D01*
X51931Y-50919D01*
X51926Y-50927D01*
X51920Y-50935D01*
X51912Y-50941D01*
X51904Y-50946D01*
X51895Y-50948D01*
X51885Y-50949D01*
X51876Y-50949D01*
X51867Y-50946D01*
X51858Y-50941D01*
X51851Y-50935D01*
X51844Y-50928D01*
X51840Y-50919D01*
X51837Y-50910D01*
X51836Y-50900D01*
X51836Y-50891D01*
X51839Y-50882D01*
X51843Y-50873D01*
X51850Y-50866D01*
X51857Y-50859D01*
X51865Y-50855D01*
X51875Y-50852D01*
X51884Y-50851D01*
X51893Y-50851D01*
X51903Y-50854D01*
X51911Y-50858D01*
X51919Y-50864D01*
X51925Y-50872D01*
X51930Y-50880D01*
X51933Y-50889D01*
X51934Y-50899D01*
X51935Y-50900D01*
X51885Y-51350D02*
X51885Y-50950D01*
X51885Y-50950D02*
X52485Y-50950D01*
X52485Y-50950D02*
X52485Y-51350D01*
X52485Y-51750D02*
X52485Y-52150D01*
X52485Y-52150D02*
X51885Y-52150D01*
X51885Y-52150D02*
X51885Y-51750D01*
X51935Y-52401D02*
X51934Y-52410D01*
X51931Y-52420D01*
X51926Y-52428D01*
X51920Y-52436D01*
X51912Y-52442D01*
X51904Y-52447D01*
X51895Y-52449D01*
X51885Y-52450D01*
X51876Y-52450D01*
X51867Y-52447D01*
X51858Y-52442D01*
X51851Y-52436D01*
X51844Y-52429D01*
X51840Y-52420D01*
X51837Y-52411D01*
X51836Y-52401D01*
X51836Y-52392D01*
X51839Y-52383D01*
X51843Y-52374D01*
X51850Y-52367D01*
X51857Y-52360D01*
X51865Y-52356D01*
X51875Y-52353D01*
X51884Y-52352D01*
X51893Y-52352D01*
X51903Y-52355D01*
X51911Y-52359D01*
X51919Y-52365D01*
X51925Y-52373D01*
X51930Y-52381D01*
X51933Y-52390D01*
X51934Y-52400D01*
X51935Y-52401D01*
X51885Y-52851D02*
X51885Y-52451D01*
X51885Y-52451D02*
X52485Y-52451D01*
X52485Y-52451D02*
X52485Y-52851D01*
X52485Y-53251D02*
X52485Y-53651D01*
X52485Y-53651D02*
X51885Y-53651D01*
X51885Y-53651D02*
X51885Y-53251D01*
X51935Y-53902D02*
X51934Y-53911D01*
X51931Y-53921D01*
X51926Y-53929D01*
X51920Y-53937D01*
X51912Y-53943D01*
X51904Y-53948D01*
X51895Y-53950D01*
X51885Y-53951D01*
X51876Y-53951D01*
X51867Y-53948D01*
X51858Y-53943D01*
X51851Y-53937D01*
X51844Y-53930D01*
X51840Y-53921D01*
X51837Y-53912D01*
X51836Y-53902D01*
X51836Y-53893D01*
X51839Y-53884D01*
X51843Y-53875D01*
X51850Y-53868D01*
X51857Y-53861D01*
X51865Y-53857D01*
X51875Y-53854D01*
X51884Y-53853D01*
X51893Y-53853D01*
X51903Y-53856D01*
X51911Y-53860D01*
X51919Y-53866D01*
X51925Y-53874D01*
X51930Y-53882D01*
X51933Y-53891D01*
X51934Y-53901D01*
X51935Y-53902D01*
X51885Y-54352D02*
X51885Y-53952D01*
X51885Y-53952D02*
X52485Y-53952D01*
X52485Y-53952D02*
X52485Y-54352D01*
X52485Y-54752D02*
X52485Y-55152D01*
X52485Y-55152D02*
X51885Y-55152D01*
X51885Y-55152D02*
X51885Y-54752D01*
X51935Y-55403D02*
X51934Y-55412D01*
X51931Y-55422D01*
X51926Y-55430D01*
X51920Y-55438D01*
X51912Y-55444D01*
X51904Y-55449D01*
X51895Y-55451D01*
X51885Y-55452D01*
X51876Y-55452D01*
X51867Y-55449D01*
X51858Y-55444D01*
X51851Y-55438D01*
X51844Y-55431D01*
X51840Y-55422D01*
X51837Y-55413D01*
X51836Y-55403D01*
X51836Y-55394D01*
X51839Y-55385D01*
X51843Y-55376D01*
X51850Y-55369D01*
X51857Y-55362D01*
X51865Y-55358D01*
X51875Y-55355D01*
X51884Y-55354D01*
X51893Y-55354D01*
X51903Y-55357D01*
X51911Y-55361D01*
X51919Y-55367D01*
X51925Y-55375D01*
X51930Y-55383D01*
X51933Y-55392D01*
X51934Y-55402D01*
X51935Y-55403D01*
X51885Y-55853D02*
X51885Y-55453D01*
X51885Y-55453D02*
X52485Y-55453D01*
X52485Y-55453D02*
X52485Y-55853D01*
X52485Y-56253D02*
X52485Y-56653D01*
X52485Y-56653D02*
X51885Y-56653D01*
X51885Y-56653D02*
X51885Y-56253D01*
X51935Y-56904D02*
X51934Y-56913D01*
X51931Y-56923D01*
X51926Y-56931D01*
X51920Y-56939D01*
X51912Y-56945D01*
X51904Y-56950D01*
X51895Y-56952D01*
X51885Y-56953D01*
X51876Y-56953D01*
X51867Y-56950D01*
X51858Y-56945D01*
X51851Y-56939D01*
X51844Y-56932D01*
X51840Y-56923D01*
X51837Y-56914D01*
X51836Y-56904D01*
X51836Y-56895D01*
X51839Y-56886D01*
X51843Y-56877D01*
X51850Y-56870D01*
X51857Y-56863D01*
X51865Y-56859D01*
X51875Y-56856D01*
X51884Y-56855D01*
X51893Y-56855D01*
X51903Y-56858D01*
X51911Y-56862D01*
X51919Y-56868D01*
X51925Y-56876D01*
X51930Y-56884D01*
X51933Y-56893D01*
X51934Y-56903D01*
X51935Y-56904D01*
X51885Y-57354D02*
X51885Y-56954D01*
X51885Y-56954D02*
X52485Y-56954D01*
X52485Y-56954D02*
X52485Y-57354D01*
X52485Y-57754D02*
X52485Y-58154D01*
X52485Y-58154D02*
X51885Y-58154D01*
X51885Y-58154D02*
X51885Y-57754D01*
X61935Y-35890D02*
X61934Y-35899D01*
X61931Y-35909D01*
X61926Y-35917D01*
X61920Y-35925D01*
X61912Y-35931D01*
X61904Y-35936D01*
X61895Y-35938D01*
X61885Y-35939D01*
X61876Y-35939D01*
X61867Y-35936D01*
X61858Y-35931D01*
X61851Y-35925D01*
X61844Y-35918D01*
X61840Y-35909D01*
X61837Y-35900D01*
X61836Y-35890D01*
X61836Y-35881D01*
X61839Y-35872D01*
X61843Y-35863D01*
X61850Y-35856D01*
X61857Y-35849D01*
X61865Y-35845D01*
X61875Y-35842D01*
X61884Y-35841D01*
X61893Y-35841D01*
X61903Y-35844D01*
X61911Y-35848D01*
X61919Y-35854D01*
X61925Y-35862D01*
X61930Y-35870D01*
X61933Y-35879D01*
X61934Y-35889D01*
X61935Y-35890D01*
X61885Y-36340D02*
X61885Y-35940D01*
X61885Y-35940D02*
X62485Y-35940D01*
X62485Y-35940D02*
X62485Y-36340D01*
X62485Y-36740D02*
X62485Y-37140D01*
X62485Y-37140D02*
X61885Y-37140D01*
X61885Y-37140D02*
X61885Y-36740D01*
X61935Y-37391D02*
X61934Y-37400D01*
X61931Y-37410D01*
X61926Y-37418D01*
X61920Y-37426D01*
X61912Y-37432D01*
X61904Y-37437D01*
X61895Y-37439D01*
X61885Y-37440D01*
X61876Y-37440D01*
X61867Y-37437D01*
X61858Y-37432D01*
X61851Y-37426D01*
X61844Y-37419D01*
X61840Y-37410D01*
X61837Y-37401D01*
X61836Y-37391D01*
X61836Y-37382D01*
X61839Y-37373D01*
X61843Y-37364D01*
X61850Y-37357D01*
X61857Y-37350D01*
X61865Y-37346D01*
X61875Y-37343D01*
X61884Y-37342D01*
X61893Y-37342D01*
X61903Y-37345D01*
X61911Y-37349D01*
X61919Y-37355D01*
X61925Y-37363D01*
X61930Y-37371D01*
X61933Y-37380D01*
X61934Y-37390D01*
X61935Y-37391D01*
X61885Y-37841D02*
X61885Y-37441D01*
X61885Y-37441D02*
X62485Y-37441D01*
X62485Y-37441D02*
X62485Y-37841D01*
X62485Y-38241D02*
X62485Y-38641D01*
X62485Y-38641D02*
X61885Y-38641D01*
X61885Y-38641D02*
X61885Y-38241D01*
X61935Y-38892D02*
X61934Y-38901D01*
X61931Y-38911D01*
X61926Y-38919D01*
X61920Y-38927D01*
X61912Y-38933D01*
X61904Y-38938D01*
X61895Y-38940D01*
X61885Y-38941D01*
X61876Y-38941D01*
X61867Y-38938D01*
X61858Y-38933D01*
X61851Y-38927D01*
X61844Y-38920D01*
X61840Y-38911D01*
X61837Y-38902D01*
X61836Y-38892D01*
X61836Y-38883D01*
X61839Y-38874D01*
X61843Y-38865D01*
X61850Y-38858D01*
X61857Y-38851D01*
X61865Y-38847D01*
X61875Y-38844D01*
X61884Y-38843D01*
X61893Y-38843D01*
X61903Y-38846D01*
X61911Y-38850D01*
X61919Y-38856D01*
X61925Y-38864D01*
X61930Y-38872D01*
X61933Y-38881D01*
X61934Y-38891D01*
X61935Y-38892D01*
X61885Y-39342D02*
X61885Y-38942D01*
X61885Y-38942D02*
X62485Y-38942D01*
X62485Y-38942D02*
X62485Y-39342D01*
X62485Y-39742D02*
X62485Y-40142D01*
X62485Y-40142D02*
X61885Y-40142D01*
X61885Y-40142D02*
X61885Y-39742D01*
X61935Y-40393D02*
X61934Y-40402D01*
X61931Y-40412D01*
X61926Y-40420D01*
X61920Y-40428D01*
X61912Y-40434D01*
X61904Y-40439D01*
X61895Y-40441D01*
X61885Y-40442D01*
X61876Y-40442D01*
X61867Y-40439D01*
X61858Y-40434D01*
X61851Y-40428D01*
X61844Y-40421D01*
X61840Y-40412D01*
X61837Y-40403D01*
X61836Y-40393D01*
X61836Y-40384D01*
X61839Y-40375D01*
X61843Y-40366D01*
X61850Y-40359D01*
X61857Y-40352D01*
X61865Y-40348D01*
X61875Y-40345D01*
X61884Y-40344D01*
X61893Y-40344D01*
X61903Y-40347D01*
X61911Y-40351D01*
X61919Y-40357D01*
X61925Y-40365D01*
X61930Y-40373D01*
X61933Y-40382D01*
X61934Y-40392D01*
X61935Y-40393D01*
X61885Y-40843D02*
X61885Y-40443D01*
X61885Y-40443D02*
X62485Y-40443D01*
X62485Y-40443D02*
X62485Y-40843D01*
X62485Y-41243D02*
X62485Y-41643D01*
X62485Y-41643D02*
X61885Y-41643D01*
X61885Y-41643D02*
X61885Y-41243D01*
X61935Y-41894D02*
X61934Y-41903D01*
X61931Y-41913D01*
X61926Y-41921D01*
X61920Y-41929D01*
X61912Y-41935D01*
X61904Y-41940D01*
X61895Y-41942D01*
X61885Y-41943D01*
X61876Y-41943D01*
X61867Y-41940D01*
X61858Y-41935D01*
X61851Y-41929D01*
X61844Y-41922D01*
X61840Y-41913D01*
X61837Y-41904D01*
X61836Y-41894D01*
X61836Y-41885D01*
X61839Y-41876D01*
X61843Y-41867D01*
X61850Y-41860D01*
X61857Y-41853D01*
X61865Y-41849D01*
X61875Y-41846D01*
X61884Y-41845D01*
X61893Y-41845D01*
X61903Y-41848D01*
X61911Y-41852D01*
X61919Y-41858D01*
X61925Y-41866D01*
X61930Y-41874D01*
X61933Y-41883D01*
X61934Y-41893D01*
X61935Y-41894D01*
X61885Y-42344D02*
X61885Y-41944D01*
X61885Y-41944D02*
X62485Y-41944D01*
X62485Y-41944D02*
X62485Y-42344D01*
X62485Y-42744D02*
X62485Y-43144D01*
X62485Y-43144D02*
X61885Y-43144D01*
X61885Y-43144D02*
X61885Y-42744D01*
X61935Y-43395D02*
X61934Y-43404D01*
X61931Y-43414D01*
X61926Y-43422D01*
X61920Y-43430D01*
X61912Y-43436D01*
X61904Y-43441D01*
X61895Y-43443D01*
X61885Y-43444D01*
X61876Y-43444D01*
X61867Y-43441D01*
X61858Y-43436D01*
X61851Y-43430D01*
X61844Y-43423D01*
X61840Y-43414D01*
X61837Y-43405D01*
X61836Y-43395D01*
X61836Y-43386D01*
X61839Y-43377D01*
X61843Y-43368D01*
X61850Y-43361D01*
X61857Y-43354D01*
X61865Y-43350D01*
X61875Y-43347D01*
X61884Y-43346D01*
X61893Y-43346D01*
X61903Y-43349D01*
X61911Y-43353D01*
X61919Y-43359D01*
X61925Y-43367D01*
X61930Y-43375D01*
X61933Y-43384D01*
X61934Y-43394D01*
X61935Y-43395D01*
X61885Y-43845D02*
X61885Y-43445D01*
X61885Y-43445D02*
X62485Y-43445D01*
X62485Y-43445D02*
X62485Y-43845D01*
X62485Y-44245D02*
X62485Y-44645D01*
X62485Y-44645D02*
X61885Y-44645D01*
X61885Y-44645D02*
X61885Y-44245D01*
X61935Y-44896D02*
X61934Y-44905D01*
X61931Y-44915D01*
X61926Y-44923D01*
X61920Y-44931D01*
X61912Y-44937D01*
X61904Y-44942D01*
X61895Y-44944D01*
X61885Y-44945D01*
X61876Y-44945D01*
X61867Y-44942D01*
X61858Y-44937D01*
X61851Y-44931D01*
X61844Y-44924D01*
X61840Y-44915D01*
X61837Y-44906D01*
X61836Y-44896D01*
X61836Y-44887D01*
X61839Y-44878D01*
X61843Y-44869D01*
X61850Y-44862D01*
X61857Y-44855D01*
X61865Y-44851D01*
X61875Y-44848D01*
X61884Y-44847D01*
X61893Y-44847D01*
X61903Y-44850D01*
X61911Y-44854D01*
X61919Y-44860D01*
X61925Y-44868D01*
X61930Y-44876D01*
X61933Y-44885D01*
X61934Y-44895D01*
X61935Y-44896D01*
X61885Y-45346D02*
X61885Y-44946D01*
X61885Y-44946D02*
X62485Y-44946D01*
X62485Y-44946D02*
X62485Y-45346D01*
X62485Y-45746D02*
X62485Y-46146D01*
X62485Y-46146D02*
X61885Y-46146D01*
X61885Y-46146D02*
X61885Y-45746D01*
X61935Y-46397D02*
X61934Y-46406D01*
X61931Y-46416D01*
X61926Y-46424D01*
X61920Y-46432D01*
X61912Y-46438D01*
X61904Y-46443D01*
X61895Y-46445D01*
X61885Y-46446D01*
X61876Y-46446D01*
X61867Y-46443D01*
X61858Y-46438D01*
X61851Y-46432D01*
X61844Y-46425D01*
X61840Y-46416D01*
X61837Y-46407D01*
X61836Y-46397D01*
X61836Y-46388D01*
X61839Y-46379D01*
X61843Y-46370D01*
X61850Y-46363D01*
X61857Y-46356D01*
X61865Y-46352D01*
X61875Y-46349D01*
X61884Y-46348D01*
X61893Y-46348D01*
X61903Y-46351D01*
X61911Y-46355D01*
X61919Y-46361D01*
X61925Y-46369D01*
X61930Y-46377D01*
X61933Y-46386D01*
X61934Y-46396D01*
X61935Y-46397D01*
X61885Y-46847D02*
X61885Y-46447D01*
X61885Y-46447D02*
X62485Y-46447D01*
X62485Y-46447D02*
X62485Y-46847D01*
X62485Y-47247D02*
X62485Y-47647D01*
X62485Y-47647D02*
X61885Y-47647D01*
X61885Y-47647D02*
X61885Y-47247D01*
X61935Y-47898D02*
X61934Y-47907D01*
X61931Y-47917D01*
X61926Y-47925D01*
X61920Y-47933D01*
X61912Y-47939D01*
X61904Y-47944D01*
X61895Y-47946D01*
X61885Y-47947D01*
X61876Y-47947D01*
X61867Y-47944D01*
X61858Y-47939D01*
X61851Y-47933D01*
X61844Y-47926D01*
X61840Y-47917D01*
X61837Y-47908D01*
X61836Y-47898D01*
X61836Y-47889D01*
X61839Y-47880D01*
X61843Y-47871D01*
X61850Y-47864D01*
X61857Y-47857D01*
X61865Y-47853D01*
X61875Y-47850D01*
X61884Y-47849D01*
X61893Y-47849D01*
X61903Y-47852D01*
X61911Y-47856D01*
X61919Y-47862D01*
X61925Y-47870D01*
X61930Y-47878D01*
X61933Y-47887D01*
X61934Y-47897D01*
X61935Y-47898D01*
X61885Y-48348D02*
X61885Y-47948D01*
X61885Y-47948D02*
X62485Y-47948D01*
X62485Y-47948D02*
X62485Y-48348D01*
X62485Y-48748D02*
X62485Y-49148D01*
X62485Y-49148D02*
X61885Y-49148D01*
X61885Y-49148D02*
X61885Y-48748D01*
X61935Y-49399D02*
X61934Y-49408D01*
X61931Y-49418D01*
X61926Y-49426D01*
X61920Y-49434D01*
X61912Y-49440D01*
X61904Y-49445D01*
X61895Y-49447D01*
X61885Y-49448D01*
X61876Y-49448D01*
X61867Y-49445D01*
X61858Y-49440D01*
X61851Y-49434D01*
X61844Y-49427D01*
X61840Y-49418D01*
X61837Y-49409D01*
X61836Y-49399D01*
X61836Y-49390D01*
X61839Y-49381D01*
X61843Y-49372D01*
X61850Y-49365D01*
X61857Y-49358D01*
X61865Y-49354D01*
X61875Y-49351D01*
X61884Y-49350D01*
X61893Y-49350D01*
X61903Y-49353D01*
X61911Y-49357D01*
X61919Y-49363D01*
X61925Y-49371D01*
X61930Y-49379D01*
X61933Y-49388D01*
X61934Y-49398D01*
X61935Y-49399D01*
X61885Y-49849D02*
X61885Y-49449D01*
X61885Y-49449D02*
X62485Y-49449D01*
X62485Y-49449D02*
X62485Y-49849D01*
X62485Y-50249D02*
X62485Y-50649D01*
X62485Y-50649D02*
X61885Y-50649D01*
X61885Y-50649D02*
X61885Y-50249D01*
X61935Y-50900D02*
X61934Y-50909D01*
X61931Y-50919D01*
X61926Y-50927D01*
X61920Y-50935D01*
X61912Y-50941D01*
X61904Y-50946D01*
X61895Y-50948D01*
X61885Y-50949D01*
X61876Y-50949D01*
X61867Y-50946D01*
X61858Y-50941D01*
X61851Y-50935D01*
X61844Y-50928D01*
X61840Y-50919D01*
X61837Y-50910D01*
X61836Y-50900D01*
X61836Y-50891D01*
X61839Y-50882D01*
X61843Y-50873D01*
X61850Y-50866D01*
X61857Y-50859D01*
X61865Y-50855D01*
X61875Y-50852D01*
X61884Y-50851D01*
X61893Y-50851D01*
X61903Y-50854D01*
X61911Y-50858D01*
X61919Y-50864D01*
X61925Y-50872D01*
X61930Y-50880D01*
X61933Y-50889D01*
X61934Y-50899D01*
X61935Y-50900D01*
X61885Y-51350D02*
X61885Y-50950D01*
X61885Y-50950D02*
X62485Y-50950D01*
X62485Y-50950D02*
X62485Y-51350D01*
X62485Y-51750D02*
X62485Y-52150D01*
X62485Y-52150D02*
X61885Y-52150D01*
X61885Y-52150D02*
X61885Y-51750D01*
X61935Y-52401D02*
X61934Y-52410D01*
X61931Y-52420D01*
X61926Y-52428D01*
X61920Y-52436D01*
X61912Y-52442D01*
X61904Y-52447D01*
X61895Y-52449D01*
X61885Y-52450D01*
X61876Y-52450D01*
X61867Y-52447D01*
X61858Y-52442D01*
X61851Y-52436D01*
X61844Y-52429D01*
X61840Y-52420D01*
X61837Y-52411D01*
X61836Y-52401D01*
X61836Y-52392D01*
X61839Y-52383D01*
X61843Y-52374D01*
X61850Y-52367D01*
X61857Y-52360D01*
X61865Y-52356D01*
X61875Y-52353D01*
X61884Y-52352D01*
X61893Y-52352D01*
X61903Y-52355D01*
X61911Y-52359D01*
X61919Y-52365D01*
X61925Y-52373D01*
X61930Y-52381D01*
X61933Y-52390D01*
X61934Y-52400D01*
X61935Y-52401D01*
X61885Y-52851D02*
X61885Y-52451D01*
X61885Y-52451D02*
X62485Y-52451D01*
X62485Y-52451D02*
X62485Y-52851D01*
X62485Y-53251D02*
X62485Y-53651D01*
X62485Y-53651D02*
X61885Y-53651D01*
X61885Y-53651D02*
X61885Y-53251D01*
X61935Y-53902D02*
X61934Y-53911D01*
X61931Y-53921D01*
X61926Y-53929D01*
X61920Y-53937D01*
X61912Y-53943D01*
X61904Y-53948D01*
X61895Y-53950D01*
X61885Y-53951D01*
X61876Y-53951D01*
X61867Y-53948D01*
X61858Y-53943D01*
X61851Y-53937D01*
X61844Y-53930D01*
X61840Y-53921D01*
X61837Y-53912D01*
X61836Y-53902D01*
X61836Y-53893D01*
X61839Y-53884D01*
X61843Y-53875D01*
X61850Y-53868D01*
X61857Y-53861D01*
X61865Y-53857D01*
X61875Y-53854D01*
X61884Y-53853D01*
X61893Y-53853D01*
X61903Y-53856D01*
X61911Y-53860D01*
X61919Y-53866D01*
X61925Y-53874D01*
X61930Y-53882D01*
X61933Y-53891D01*
X61934Y-53901D01*
X61935Y-53902D01*
X61885Y-54352D02*
X61885Y-53952D01*
X61885Y-53952D02*
X62485Y-53952D01*
X62485Y-53952D02*
X62485Y-54352D01*
X62485Y-54752D02*
X62485Y-55152D01*
X62485Y-55152D02*
X61885Y-55152D01*
X61885Y-55152D02*
X61885Y-54752D01*
X61935Y-55403D02*
X61934Y-55412D01*
X61931Y-55422D01*
X61926Y-55430D01*
X61920Y-55438D01*
X61912Y-55444D01*
X61904Y-55449D01*
X61895Y-55451D01*
X61885Y-55452D01*
X61876Y-55452D01*
X61867Y-55449D01*
X61858Y-55444D01*
X61851Y-55438D01*
X61844Y-55431D01*
X61840Y-55422D01*
X61837Y-55413D01*
X61836Y-55403D01*
X61836Y-55394D01*
X61839Y-55385D01*
X61843Y-55376D01*
X61850Y-55369D01*
X61857Y-55362D01*
X61865Y-55358D01*
X61875Y-55355D01*
X61884Y-55354D01*
X61893Y-55354D01*
X61903Y-55357D01*
X61911Y-55361D01*
X61919Y-55367D01*
X61925Y-55375D01*
X61930Y-55383D01*
X61933Y-55392D01*
X61934Y-55402D01*
X61935Y-55403D01*
X61885Y-55853D02*
X61885Y-55453D01*
X61885Y-55453D02*
X62485Y-55453D01*
X62485Y-55453D02*
X62485Y-55853D01*
X62485Y-56253D02*
X62485Y-56653D01*
X62485Y-56653D02*
X61885Y-56653D01*
X61885Y-56653D02*
X61885Y-56253D01*
X61935Y-56904D02*
X61934Y-56913D01*
X61931Y-56923D01*
X61926Y-56931D01*
X61920Y-56939D01*
X61912Y-56945D01*
X61904Y-56950D01*
X61895Y-56952D01*
X61885Y-56953D01*
X61876Y-56953D01*
X61867Y-56950D01*
X61858Y-56945D01*
X61851Y-56939D01*
X61844Y-56932D01*
X61840Y-56923D01*
X61837Y-56914D01*
X61836Y-56904D01*
X61836Y-56895D01*
X61839Y-56886D01*
X61843Y-56877D01*
X61850Y-56870D01*
X61857Y-56863D01*
X61865Y-56859D01*
X61875Y-56856D01*
X61884Y-56855D01*
X61893Y-56855D01*
X61903Y-56858D01*
X61911Y-56862D01*
X61919Y-56868D01*
X61925Y-56876D01*
X61930Y-56884D01*
X61933Y-56893D01*
X61934Y-56903D01*
X61935Y-56904D01*
X61885Y-57354D02*
X61885Y-56954D01*
X61885Y-56954D02*
X62485Y-56954D01*
X62485Y-56954D02*
X62485Y-57354D01*
X62485Y-57754D02*
X62485Y-58154D01*
X62485Y-58154D02*
X61885Y-58154D01*
X61885Y-58154D02*
X61885Y-57754D01*
X71935Y-35890D02*
X71934Y-35899D01*
X71931Y-35909D01*
X71926Y-35917D01*
X71920Y-35925D01*
X71912Y-35931D01*
X71904Y-35936D01*
X71895Y-35938D01*
X71885Y-35939D01*
X71876Y-35939D01*
X71867Y-35936D01*
X71858Y-35931D01*
X71851Y-35925D01*
X71844Y-35918D01*
X71840Y-35909D01*
X71837Y-35900D01*
X71836Y-35890D01*
X71836Y-35881D01*
X71839Y-35872D01*
X71843Y-35863D01*
X71850Y-35856D01*
X71857Y-35849D01*
X71865Y-35845D01*
X71875Y-35842D01*
X71884Y-35841D01*
X71893Y-35841D01*
X71903Y-35844D01*
X71911Y-35848D01*
X71919Y-35854D01*
X71925Y-35862D01*
X71930Y-35870D01*
X71933Y-35879D01*
X71934Y-35889D01*
X71935Y-35890D01*
X71885Y-36340D02*
X71885Y-35940D01*
X71885Y-35940D02*
X72485Y-35940D01*
X72485Y-35940D02*
X72485Y-36340D01*
X72485Y-36740D02*
X72485Y-37140D01*
X72485Y-37140D02*
X71885Y-37140D01*
X71885Y-37140D02*
X71885Y-36740D01*
X71935Y-37391D02*
X71934Y-37400D01*
X71931Y-37410D01*
X71926Y-37418D01*
X71920Y-37426D01*
X71912Y-37432D01*
X71904Y-37437D01*
X71895Y-37439D01*
X71885Y-37440D01*
X71876Y-37440D01*
X71867Y-37437D01*
X71858Y-37432D01*
X71851Y-37426D01*
X71844Y-37419D01*
X71840Y-37410D01*
X71837Y-37401D01*
X71836Y-37391D01*
X71836Y-37382D01*
X71839Y-37373D01*
X71843Y-37364D01*
X71850Y-37357D01*
X71857Y-37350D01*
X71865Y-37346D01*
X71875Y-37343D01*
X71884Y-37342D01*
X71893Y-37342D01*
X71903Y-37345D01*
X71911Y-37349D01*
X71919Y-37355D01*
X71925Y-37363D01*
X71930Y-37371D01*
X71933Y-37380D01*
X71934Y-37390D01*
X71935Y-37391D01*
X71885Y-37841D02*
X71885Y-37441D01*
X71885Y-37441D02*
X72485Y-37441D01*
X72485Y-37441D02*
X72485Y-37841D01*
X72485Y-38241D02*
X72485Y-38641D01*
X72485Y-38641D02*
X71885Y-38641D01*
X71885Y-38641D02*
X71885Y-38241D01*
X42654Y-58872D02*
X41754Y-58872D01*
X41754Y-58872D02*
X41754Y-58372D01*
X41754Y-58372D02*
X42654Y-58372D01*
X42654Y-58372D02*
X42654Y-58872D01*
X51754Y-58333D02*
X52654Y-58333D01*
X52654Y-58333D02*
X52654Y-58833D01*
X52654Y-58833D02*
X51754Y-58833D01*
X51754Y-58833D02*
X51754Y-58333D01*
X62654Y-58872D02*
X61754Y-58872D01*
X61754Y-58872D02*
X61754Y-58372D01*
X61754Y-58372D02*
X62654Y-58372D01*
X62654Y-58372D02*
X62654Y-58872D01*
X72654Y-58872D02*
X71754Y-58872D01*
X71754Y-58872D02*
X71754Y-58372D01*
X71754Y-58372D02*
X72654Y-58372D01*
X72654Y-58372D02*
X72654Y-58872D01*
X81754Y-58372D02*
X82654Y-58372D01*
X82654Y-58372D02*
X82654Y-58872D01*
X82654Y-58872D02*
X81754Y-58872D01*
X81754Y-58872D02*
X81754Y-58372D01*
G54D14*
X40996Y-57673D02*
X40996Y-57378D01*
X41066Y-57378D01*
X41109Y-57392D01*
X41137Y-57420D01*
X41151Y-57448D01*
X41165Y-57504D01*
X41165Y-57546D01*
X41151Y-57603D01*
X41137Y-57631D01*
X41109Y-57659D01*
X41066Y-57673D01*
X40996Y-57673D01*
X41446Y-57673D02*
X41277Y-57673D01*
X41361Y-57673D02*
X41361Y-57378D01*
X41333Y-57420D01*
X41305Y-57448D01*
X41277Y-57462D01*
X41713Y-57378D02*
X41572Y-57378D01*
X41558Y-57518D01*
X41572Y-57504D01*
X41600Y-57490D01*
X41671Y-57490D01*
X41699Y-57504D01*
X41713Y-57518D01*
X41727Y-57546D01*
X41727Y-57617D01*
X41713Y-57645D01*
X41699Y-57659D01*
X41671Y-57673D01*
X41600Y-57673D01*
X41572Y-57659D01*
X41558Y-57645D01*
X40996Y-56172D02*
X40996Y-55877D01*
X41066Y-55877D01*
X41109Y-55891D01*
X41137Y-55919D01*
X41151Y-55947D01*
X41165Y-56003D01*
X41165Y-56045D01*
X41151Y-56102D01*
X41137Y-56130D01*
X41109Y-56158D01*
X41066Y-56172D01*
X40996Y-56172D01*
X41446Y-56172D02*
X41277Y-56172D01*
X41361Y-56172D02*
X41361Y-55877D01*
X41333Y-55919D01*
X41305Y-55947D01*
X41277Y-55961D01*
X41699Y-55975D02*
X41699Y-56172D01*
X41628Y-55863D02*
X41558Y-56074D01*
X41741Y-56074D01*
X40996Y-54671D02*
X40996Y-54376D01*
X41066Y-54376D01*
X41109Y-54390D01*
X41137Y-54418D01*
X41151Y-54446D01*
X41165Y-54502D01*
X41165Y-54544D01*
X41151Y-54601D01*
X41137Y-54629D01*
X41109Y-54657D01*
X41066Y-54671D01*
X40996Y-54671D01*
X41446Y-54671D02*
X41277Y-54671D01*
X41361Y-54671D02*
X41361Y-54376D01*
X41333Y-54418D01*
X41305Y-54446D01*
X41277Y-54460D01*
X41544Y-54376D02*
X41727Y-54376D01*
X41628Y-54488D01*
X41671Y-54488D01*
X41699Y-54502D01*
X41713Y-54516D01*
X41727Y-54544D01*
X41727Y-54615D01*
X41713Y-54643D01*
X41699Y-54657D01*
X41671Y-54671D01*
X41586Y-54671D01*
X41558Y-54657D01*
X41544Y-54643D01*
X40996Y-53170D02*
X40996Y-52875D01*
X41066Y-52875D01*
X41109Y-52889D01*
X41137Y-52917D01*
X41151Y-52945D01*
X41165Y-53001D01*
X41165Y-53043D01*
X41151Y-53100D01*
X41137Y-53128D01*
X41109Y-53156D01*
X41066Y-53170D01*
X40996Y-53170D01*
X41446Y-53170D02*
X41277Y-53170D01*
X41361Y-53170D02*
X41361Y-52875D01*
X41333Y-52917D01*
X41305Y-52945D01*
X41277Y-52959D01*
X41558Y-52903D02*
X41572Y-52889D01*
X41600Y-52875D01*
X41671Y-52875D01*
X41699Y-52889D01*
X41713Y-52903D01*
X41727Y-52931D01*
X41727Y-52959D01*
X41713Y-53001D01*
X41544Y-53170D01*
X41727Y-53170D01*
X40996Y-51669D02*
X40996Y-51374D01*
X41066Y-51374D01*
X41109Y-51388D01*
X41137Y-51416D01*
X41151Y-51444D01*
X41165Y-51500D01*
X41165Y-51542D01*
X41151Y-51599D01*
X41137Y-51627D01*
X41109Y-51655D01*
X41066Y-51669D01*
X40996Y-51669D01*
X41446Y-51669D02*
X41277Y-51669D01*
X41361Y-51669D02*
X41361Y-51374D01*
X41333Y-51416D01*
X41305Y-51444D01*
X41277Y-51458D01*
X41727Y-51669D02*
X41558Y-51669D01*
X41642Y-51669D02*
X41642Y-51374D01*
X41614Y-51416D01*
X41586Y-51444D01*
X41558Y-51458D01*
X40996Y-50168D02*
X40996Y-49873D01*
X41066Y-49873D01*
X41109Y-49887D01*
X41137Y-49915D01*
X41151Y-49943D01*
X41165Y-49999D01*
X41165Y-50041D01*
X41151Y-50098D01*
X41137Y-50126D01*
X41109Y-50154D01*
X41066Y-50168D01*
X40996Y-50168D01*
X41446Y-50168D02*
X41277Y-50168D01*
X41361Y-50168D02*
X41361Y-49873D01*
X41333Y-49915D01*
X41305Y-49943D01*
X41277Y-49957D01*
X41628Y-49873D02*
X41657Y-49873D01*
X41685Y-49887D01*
X41699Y-49901D01*
X41713Y-49929D01*
X41727Y-49985D01*
X41727Y-50056D01*
X41713Y-50112D01*
X41699Y-50140D01*
X41685Y-50154D01*
X41657Y-50168D01*
X41628Y-50168D01*
X41600Y-50154D01*
X41586Y-50140D01*
X41572Y-50112D01*
X41558Y-50056D01*
X41558Y-49985D01*
X41572Y-49929D01*
X41586Y-49901D01*
X41600Y-49887D01*
X41628Y-49873D01*
X41278Y-48667D02*
X41278Y-48372D01*
X41348Y-48372D01*
X41391Y-48386D01*
X41419Y-48414D01*
X41433Y-48442D01*
X41447Y-48498D01*
X41447Y-48540D01*
X41433Y-48597D01*
X41419Y-48625D01*
X41391Y-48653D01*
X41348Y-48667D01*
X41278Y-48667D01*
X41587Y-48667D02*
X41643Y-48667D01*
X41672Y-48653D01*
X41686Y-48639D01*
X41714Y-48597D01*
X41728Y-48540D01*
X41728Y-48428D01*
X41714Y-48400D01*
X41700Y-48386D01*
X41672Y-48372D01*
X41615Y-48372D01*
X41587Y-48386D01*
X41573Y-48400D01*
X41559Y-48428D01*
X41559Y-48498D01*
X41573Y-48526D01*
X41587Y-48540D01*
X41615Y-48555D01*
X41672Y-48555D01*
X41700Y-48540D01*
X41714Y-48526D01*
X41728Y-48498D01*
X41278Y-47166D02*
X41278Y-46871D01*
X41348Y-46871D01*
X41391Y-46885D01*
X41419Y-46913D01*
X41433Y-46941D01*
X41447Y-46997D01*
X41447Y-47039D01*
X41433Y-47096D01*
X41419Y-47124D01*
X41391Y-47152D01*
X41348Y-47166D01*
X41278Y-47166D01*
X41615Y-46997D02*
X41587Y-46983D01*
X41573Y-46969D01*
X41559Y-46941D01*
X41559Y-46927D01*
X41573Y-46899D01*
X41587Y-46885D01*
X41615Y-46871D01*
X41672Y-46871D01*
X41700Y-46885D01*
X41714Y-46899D01*
X41728Y-46927D01*
X41728Y-46941D01*
X41714Y-46969D01*
X41700Y-46983D01*
X41672Y-46997D01*
X41615Y-46997D01*
X41587Y-47011D01*
X41573Y-47025D01*
X41559Y-47054D01*
X41559Y-47110D01*
X41573Y-47138D01*
X41587Y-47152D01*
X41615Y-47166D01*
X41672Y-47166D01*
X41700Y-47152D01*
X41714Y-47138D01*
X41728Y-47110D01*
X41728Y-47054D01*
X41714Y-47025D01*
X41700Y-47011D01*
X41672Y-46997D01*
X41278Y-45665D02*
X41278Y-45370D01*
X41348Y-45370D01*
X41391Y-45384D01*
X41419Y-45412D01*
X41433Y-45440D01*
X41447Y-45496D01*
X41447Y-45538D01*
X41433Y-45595D01*
X41419Y-45623D01*
X41391Y-45651D01*
X41348Y-45665D01*
X41278Y-45665D01*
X41545Y-45370D02*
X41742Y-45370D01*
X41615Y-45665D01*
X41278Y-44164D02*
X41278Y-43869D01*
X41348Y-43869D01*
X41391Y-43883D01*
X41419Y-43911D01*
X41433Y-43939D01*
X41447Y-43995D01*
X41447Y-44037D01*
X41433Y-44094D01*
X41419Y-44122D01*
X41391Y-44150D01*
X41348Y-44164D01*
X41278Y-44164D01*
X41700Y-43869D02*
X41643Y-43869D01*
X41615Y-43883D01*
X41601Y-43897D01*
X41573Y-43939D01*
X41559Y-43995D01*
X41559Y-44108D01*
X41573Y-44136D01*
X41587Y-44150D01*
X41615Y-44164D01*
X41672Y-44164D01*
X41700Y-44150D01*
X41714Y-44136D01*
X41728Y-44108D01*
X41728Y-44037D01*
X41714Y-44009D01*
X41700Y-43995D01*
X41672Y-43981D01*
X41615Y-43981D01*
X41587Y-43995D01*
X41573Y-44009D01*
X41559Y-44037D01*
X41278Y-42663D02*
X41278Y-42368D01*
X41348Y-42368D01*
X41391Y-42382D01*
X41419Y-42410D01*
X41433Y-42438D01*
X41447Y-42494D01*
X41447Y-42536D01*
X41433Y-42593D01*
X41419Y-42621D01*
X41391Y-42649D01*
X41348Y-42663D01*
X41278Y-42663D01*
X41714Y-42368D02*
X41573Y-42368D01*
X41559Y-42508D01*
X41573Y-42494D01*
X41601Y-42480D01*
X41672Y-42480D01*
X41700Y-42494D01*
X41714Y-42508D01*
X41728Y-42536D01*
X41728Y-42607D01*
X41714Y-42635D01*
X41700Y-42649D01*
X41672Y-42663D01*
X41601Y-42663D01*
X41573Y-42649D01*
X41559Y-42635D01*
X41278Y-41162D02*
X41278Y-40867D01*
X41348Y-40867D01*
X41391Y-40881D01*
X41419Y-40909D01*
X41433Y-40937D01*
X41447Y-40993D01*
X41447Y-41035D01*
X41433Y-41092D01*
X41419Y-41120D01*
X41391Y-41148D01*
X41348Y-41162D01*
X41278Y-41162D01*
X41700Y-40965D02*
X41700Y-41162D01*
X41629Y-40853D02*
X41559Y-41064D01*
X41742Y-41064D01*
X41278Y-39661D02*
X41278Y-39366D01*
X41348Y-39366D01*
X41391Y-39380D01*
X41419Y-39408D01*
X41433Y-39436D01*
X41447Y-39492D01*
X41447Y-39534D01*
X41433Y-39591D01*
X41419Y-39619D01*
X41391Y-39647D01*
X41348Y-39661D01*
X41278Y-39661D01*
X41545Y-39366D02*
X41728Y-39366D01*
X41629Y-39478D01*
X41672Y-39478D01*
X41700Y-39492D01*
X41714Y-39506D01*
X41728Y-39534D01*
X41728Y-39605D01*
X41714Y-39633D01*
X41700Y-39647D01*
X41672Y-39661D01*
X41587Y-39661D01*
X41559Y-39647D01*
X41545Y-39633D01*
X41278Y-38160D02*
X41278Y-37865D01*
X41348Y-37865D01*
X41391Y-37879D01*
X41419Y-37907D01*
X41433Y-37935D01*
X41447Y-37991D01*
X41447Y-38033D01*
X41433Y-38090D01*
X41419Y-38118D01*
X41391Y-38146D01*
X41348Y-38160D01*
X41278Y-38160D01*
X41559Y-37893D02*
X41573Y-37879D01*
X41601Y-37865D01*
X41672Y-37865D01*
X41700Y-37879D01*
X41714Y-37893D01*
X41728Y-37921D01*
X41728Y-37949D01*
X41714Y-37991D01*
X41545Y-38160D01*
X41728Y-38160D01*
X41278Y-36659D02*
X41278Y-36364D01*
X41348Y-36364D01*
X41391Y-36378D01*
X41419Y-36406D01*
X41433Y-36434D01*
X41447Y-36490D01*
X41447Y-36532D01*
X41433Y-36589D01*
X41419Y-36617D01*
X41391Y-36645D01*
X41348Y-36659D01*
X41278Y-36659D01*
X41728Y-36659D02*
X41559Y-36659D01*
X41643Y-36659D02*
X41643Y-36364D01*
X41615Y-36406D01*
X41587Y-36434D01*
X41559Y-36448D01*
X27341Y-47836D02*
X27341Y-47541D01*
X27454Y-47541D01*
X27482Y-47555D01*
X27496Y-47569D01*
X27510Y-47597D01*
X27510Y-47639D01*
X27496Y-47667D01*
X27482Y-47681D01*
X27454Y-47695D01*
X27341Y-47695D01*
X27791Y-47836D02*
X27622Y-47836D01*
X27706Y-47836D02*
X27706Y-47541D01*
X27678Y-47583D01*
X27650Y-47611D01*
X27622Y-47625D01*
X80996Y-36659D02*
X80996Y-36364D01*
X81066Y-36364D01*
X81109Y-36378D01*
X81137Y-36406D01*
X81151Y-36434D01*
X81165Y-36490D01*
X81165Y-36532D01*
X81151Y-36589D01*
X81137Y-36617D01*
X81109Y-36645D01*
X81066Y-36659D01*
X80996Y-36659D01*
X81418Y-36364D02*
X81361Y-36364D01*
X81333Y-36378D01*
X81319Y-36392D01*
X81291Y-36434D01*
X81277Y-36490D01*
X81277Y-36603D01*
X81291Y-36631D01*
X81305Y-36645D01*
X81333Y-36659D01*
X81390Y-36659D01*
X81418Y-36645D01*
X81432Y-36631D01*
X81446Y-36603D01*
X81446Y-36532D01*
X81432Y-36504D01*
X81418Y-36490D01*
X81390Y-36476D01*
X81333Y-36476D01*
X81305Y-36490D01*
X81291Y-36504D01*
X81277Y-36532D01*
X81727Y-36659D02*
X81558Y-36659D01*
X81642Y-36659D02*
X81642Y-36364D01*
X81614Y-36406D01*
X81586Y-36434D01*
X81558Y-36448D01*
X70996Y-57673D02*
X70996Y-57378D01*
X71066Y-57378D01*
X71109Y-57392D01*
X71137Y-57420D01*
X71151Y-57448D01*
X71165Y-57504D01*
X71165Y-57546D01*
X71151Y-57603D01*
X71137Y-57631D01*
X71109Y-57659D01*
X71066Y-57673D01*
X70996Y-57673D01*
X71418Y-57378D02*
X71361Y-57378D01*
X71333Y-57392D01*
X71319Y-57406D01*
X71291Y-57448D01*
X71277Y-57504D01*
X71277Y-57617D01*
X71291Y-57645D01*
X71305Y-57659D01*
X71333Y-57673D01*
X71390Y-57673D01*
X71418Y-57659D01*
X71432Y-57645D01*
X71446Y-57617D01*
X71446Y-57546D01*
X71432Y-57518D01*
X71418Y-57504D01*
X71390Y-57490D01*
X71333Y-57490D01*
X71305Y-57504D01*
X71291Y-57518D01*
X71277Y-57546D01*
X71628Y-57378D02*
X71657Y-57378D01*
X71685Y-57392D01*
X71699Y-57406D01*
X71713Y-57434D01*
X71727Y-57490D01*
X71727Y-57561D01*
X71713Y-57617D01*
X71699Y-57645D01*
X71685Y-57659D01*
X71657Y-57673D01*
X71628Y-57673D01*
X71600Y-57659D01*
X71586Y-57645D01*
X71572Y-57617D01*
X71558Y-57561D01*
X71558Y-57490D01*
X71572Y-57434D01*
X71586Y-57406D01*
X71600Y-57392D01*
X71628Y-57378D01*
X70996Y-56172D02*
X70996Y-55877D01*
X71066Y-55877D01*
X71109Y-55891D01*
X71137Y-55919D01*
X71151Y-55947D01*
X71165Y-56003D01*
X71165Y-56045D01*
X71151Y-56102D01*
X71137Y-56130D01*
X71109Y-56158D01*
X71066Y-56172D01*
X70996Y-56172D01*
X71432Y-55877D02*
X71291Y-55877D01*
X71277Y-56017D01*
X71291Y-56003D01*
X71319Y-55989D01*
X71390Y-55989D01*
X71418Y-56003D01*
X71432Y-56017D01*
X71446Y-56045D01*
X71446Y-56116D01*
X71432Y-56144D01*
X71418Y-56158D01*
X71390Y-56172D01*
X71319Y-56172D01*
X71291Y-56158D01*
X71277Y-56144D01*
X71586Y-56172D02*
X71642Y-56172D01*
X71671Y-56158D01*
X71685Y-56144D01*
X71713Y-56102D01*
X71727Y-56045D01*
X71727Y-55933D01*
X71713Y-55905D01*
X71699Y-55891D01*
X71671Y-55877D01*
X71614Y-55877D01*
X71586Y-55891D01*
X71572Y-55905D01*
X71558Y-55933D01*
X71558Y-56003D01*
X71572Y-56031D01*
X71586Y-56045D01*
X71614Y-56060D01*
X71671Y-56060D01*
X71699Y-56045D01*
X71713Y-56031D01*
X71727Y-56003D01*
X70996Y-54671D02*
X70996Y-54376D01*
X71066Y-54376D01*
X71109Y-54390D01*
X71137Y-54418D01*
X71151Y-54446D01*
X71165Y-54502D01*
X71165Y-54544D01*
X71151Y-54601D01*
X71137Y-54629D01*
X71109Y-54657D01*
X71066Y-54671D01*
X70996Y-54671D01*
X71432Y-54376D02*
X71291Y-54376D01*
X71277Y-54516D01*
X71291Y-54502D01*
X71319Y-54488D01*
X71390Y-54488D01*
X71418Y-54502D01*
X71432Y-54516D01*
X71446Y-54544D01*
X71446Y-54615D01*
X71432Y-54643D01*
X71418Y-54657D01*
X71390Y-54671D01*
X71319Y-54671D01*
X71291Y-54657D01*
X71277Y-54643D01*
X71614Y-54502D02*
X71586Y-54488D01*
X71572Y-54474D01*
X71558Y-54446D01*
X71558Y-54432D01*
X71572Y-54404D01*
X71586Y-54390D01*
X71614Y-54376D01*
X71671Y-54376D01*
X71699Y-54390D01*
X71713Y-54404D01*
X71727Y-54432D01*
X71727Y-54446D01*
X71713Y-54474D01*
X71699Y-54488D01*
X71671Y-54502D01*
X71614Y-54502D01*
X71586Y-54516D01*
X71572Y-54530D01*
X71558Y-54559D01*
X71558Y-54615D01*
X71572Y-54643D01*
X71586Y-54657D01*
X71614Y-54671D01*
X71671Y-54671D01*
X71699Y-54657D01*
X71713Y-54643D01*
X71727Y-54615D01*
X71727Y-54559D01*
X71713Y-54530D01*
X71699Y-54516D01*
X71671Y-54502D01*
X70996Y-53170D02*
X70996Y-52875D01*
X71066Y-52875D01*
X71109Y-52889D01*
X71137Y-52917D01*
X71151Y-52945D01*
X71165Y-53001D01*
X71165Y-53043D01*
X71151Y-53100D01*
X71137Y-53128D01*
X71109Y-53156D01*
X71066Y-53170D01*
X70996Y-53170D01*
X71432Y-52875D02*
X71291Y-52875D01*
X71277Y-53015D01*
X71291Y-53001D01*
X71319Y-52987D01*
X71390Y-52987D01*
X71418Y-53001D01*
X71432Y-53015D01*
X71446Y-53043D01*
X71446Y-53114D01*
X71432Y-53142D01*
X71418Y-53156D01*
X71390Y-53170D01*
X71319Y-53170D01*
X71291Y-53156D01*
X71277Y-53142D01*
X71544Y-52875D02*
X71741Y-52875D01*
X71614Y-53170D01*
X70996Y-51669D02*
X70996Y-51374D01*
X71066Y-51374D01*
X71109Y-51388D01*
X71137Y-51416D01*
X71151Y-51444D01*
X71165Y-51500D01*
X71165Y-51542D01*
X71151Y-51599D01*
X71137Y-51627D01*
X71109Y-51655D01*
X71066Y-51669D01*
X70996Y-51669D01*
X71432Y-51374D02*
X71291Y-51374D01*
X71277Y-51514D01*
X71291Y-51500D01*
X71319Y-51486D01*
X71390Y-51486D01*
X71418Y-51500D01*
X71432Y-51514D01*
X71446Y-51542D01*
X71446Y-51613D01*
X71432Y-51641D01*
X71418Y-51655D01*
X71390Y-51669D01*
X71319Y-51669D01*
X71291Y-51655D01*
X71277Y-51641D01*
X71699Y-51374D02*
X71642Y-51374D01*
X71614Y-51388D01*
X71600Y-51402D01*
X71572Y-51444D01*
X71558Y-51500D01*
X71558Y-51613D01*
X71572Y-51641D01*
X71586Y-51655D01*
X71614Y-51669D01*
X71671Y-51669D01*
X71699Y-51655D01*
X71713Y-51641D01*
X71727Y-51613D01*
X71727Y-51542D01*
X71713Y-51514D01*
X71699Y-51500D01*
X71671Y-51486D01*
X71614Y-51486D01*
X71586Y-51500D01*
X71572Y-51514D01*
X71558Y-51542D01*
X70996Y-50168D02*
X70996Y-49873D01*
X71066Y-49873D01*
X71109Y-49887D01*
X71137Y-49915D01*
X71151Y-49943D01*
X71165Y-49999D01*
X71165Y-50041D01*
X71151Y-50098D01*
X71137Y-50126D01*
X71109Y-50154D01*
X71066Y-50168D01*
X70996Y-50168D01*
X71432Y-49873D02*
X71291Y-49873D01*
X71277Y-50013D01*
X71291Y-49999D01*
X71319Y-49985D01*
X71390Y-49985D01*
X71418Y-49999D01*
X71432Y-50013D01*
X71446Y-50041D01*
X71446Y-50112D01*
X71432Y-50140D01*
X71418Y-50154D01*
X71390Y-50168D01*
X71319Y-50168D01*
X71291Y-50154D01*
X71277Y-50140D01*
X71713Y-49873D02*
X71572Y-49873D01*
X71558Y-50013D01*
X71572Y-49999D01*
X71600Y-49985D01*
X71671Y-49985D01*
X71699Y-49999D01*
X71713Y-50013D01*
X71727Y-50041D01*
X71727Y-50112D01*
X71713Y-50140D01*
X71699Y-50154D01*
X71671Y-50168D01*
X71600Y-50168D01*
X71572Y-50154D01*
X71558Y-50140D01*
X70996Y-48667D02*
X70996Y-48372D01*
X71066Y-48372D01*
X71109Y-48386D01*
X71137Y-48414D01*
X71151Y-48442D01*
X71165Y-48498D01*
X71165Y-48540D01*
X71151Y-48597D01*
X71137Y-48625D01*
X71109Y-48653D01*
X71066Y-48667D01*
X70996Y-48667D01*
X71432Y-48372D02*
X71291Y-48372D01*
X71277Y-48512D01*
X71291Y-48498D01*
X71319Y-48484D01*
X71390Y-48484D01*
X71418Y-48498D01*
X71432Y-48512D01*
X71446Y-48540D01*
X71446Y-48611D01*
X71432Y-48639D01*
X71418Y-48653D01*
X71390Y-48667D01*
X71319Y-48667D01*
X71291Y-48653D01*
X71277Y-48639D01*
X71699Y-48470D02*
X71699Y-48667D01*
X71628Y-48358D02*
X71558Y-48569D01*
X71741Y-48569D01*
X70996Y-47166D02*
X70996Y-46871D01*
X71066Y-46871D01*
X71109Y-46885D01*
X71137Y-46913D01*
X71151Y-46941D01*
X71165Y-46997D01*
X71165Y-47039D01*
X71151Y-47096D01*
X71137Y-47124D01*
X71109Y-47152D01*
X71066Y-47166D01*
X70996Y-47166D01*
X71432Y-46871D02*
X71291Y-46871D01*
X71277Y-47011D01*
X71291Y-46997D01*
X71319Y-46983D01*
X71390Y-46983D01*
X71418Y-46997D01*
X71432Y-47011D01*
X71446Y-47039D01*
X71446Y-47110D01*
X71432Y-47138D01*
X71418Y-47152D01*
X71390Y-47166D01*
X71319Y-47166D01*
X71291Y-47152D01*
X71277Y-47138D01*
X71544Y-46871D02*
X71727Y-46871D01*
X71628Y-46983D01*
X71671Y-46983D01*
X71699Y-46997D01*
X71713Y-47011D01*
X71727Y-47039D01*
X71727Y-47110D01*
X71713Y-47138D01*
X71699Y-47152D01*
X71671Y-47166D01*
X71586Y-47166D01*
X71558Y-47152D01*
X71544Y-47138D01*
X70996Y-45665D02*
X70996Y-45370D01*
X71066Y-45370D01*
X71109Y-45384D01*
X71137Y-45412D01*
X71151Y-45440D01*
X71165Y-45496D01*
X71165Y-45538D01*
X71151Y-45595D01*
X71137Y-45623D01*
X71109Y-45651D01*
X71066Y-45665D01*
X70996Y-45665D01*
X71432Y-45370D02*
X71291Y-45370D01*
X71277Y-45510D01*
X71291Y-45496D01*
X71319Y-45482D01*
X71390Y-45482D01*
X71418Y-45496D01*
X71432Y-45510D01*
X71446Y-45538D01*
X71446Y-45609D01*
X71432Y-45637D01*
X71418Y-45651D01*
X71390Y-45665D01*
X71319Y-45665D01*
X71291Y-45651D01*
X71277Y-45637D01*
X71558Y-45398D02*
X71572Y-45384D01*
X71600Y-45370D01*
X71671Y-45370D01*
X71699Y-45384D01*
X71713Y-45398D01*
X71727Y-45426D01*
X71727Y-45454D01*
X71713Y-45496D01*
X71544Y-45665D01*
X71727Y-45665D01*
X70996Y-44164D02*
X70996Y-43869D01*
X71066Y-43869D01*
X71109Y-43883D01*
X71137Y-43911D01*
X71151Y-43939D01*
X71165Y-43995D01*
X71165Y-44037D01*
X71151Y-44094D01*
X71137Y-44122D01*
X71109Y-44150D01*
X71066Y-44164D01*
X70996Y-44164D01*
X71432Y-43869D02*
X71291Y-43869D01*
X71277Y-44009D01*
X71291Y-43995D01*
X71319Y-43981D01*
X71390Y-43981D01*
X71418Y-43995D01*
X71432Y-44009D01*
X71446Y-44037D01*
X71446Y-44108D01*
X71432Y-44136D01*
X71418Y-44150D01*
X71390Y-44164D01*
X71319Y-44164D01*
X71291Y-44150D01*
X71277Y-44136D01*
X71727Y-44164D02*
X71558Y-44164D01*
X71642Y-44164D02*
X71642Y-43869D01*
X71614Y-43911D01*
X71586Y-43939D01*
X71558Y-43953D01*
X70996Y-42663D02*
X70996Y-42368D01*
X71066Y-42368D01*
X71109Y-42382D01*
X71137Y-42410D01*
X71151Y-42438D01*
X71165Y-42494D01*
X71165Y-42536D01*
X71151Y-42593D01*
X71137Y-42621D01*
X71109Y-42649D01*
X71066Y-42663D01*
X70996Y-42663D01*
X71432Y-42368D02*
X71291Y-42368D01*
X71277Y-42508D01*
X71291Y-42494D01*
X71319Y-42480D01*
X71390Y-42480D01*
X71418Y-42494D01*
X71432Y-42508D01*
X71446Y-42536D01*
X71446Y-42607D01*
X71432Y-42635D01*
X71418Y-42649D01*
X71390Y-42663D01*
X71319Y-42663D01*
X71291Y-42649D01*
X71277Y-42635D01*
X71628Y-42368D02*
X71657Y-42368D01*
X71685Y-42382D01*
X71699Y-42396D01*
X71713Y-42424D01*
X71727Y-42480D01*
X71727Y-42551D01*
X71713Y-42607D01*
X71699Y-42635D01*
X71685Y-42649D01*
X71657Y-42663D01*
X71628Y-42663D01*
X71600Y-42649D01*
X71586Y-42635D01*
X71572Y-42607D01*
X71558Y-42551D01*
X71558Y-42480D01*
X71572Y-42424D01*
X71586Y-42396D01*
X71600Y-42382D01*
X71628Y-42368D01*
X70996Y-41162D02*
X70996Y-40867D01*
X71066Y-40867D01*
X71109Y-40881D01*
X71137Y-40909D01*
X71151Y-40937D01*
X71165Y-40993D01*
X71165Y-41035D01*
X71151Y-41092D01*
X71137Y-41120D01*
X71109Y-41148D01*
X71066Y-41162D01*
X70996Y-41162D01*
X71418Y-40965D02*
X71418Y-41162D01*
X71347Y-40853D02*
X71277Y-41064D01*
X71460Y-41064D01*
X71586Y-41162D02*
X71642Y-41162D01*
X71671Y-41148D01*
X71685Y-41134D01*
X71713Y-41092D01*
X71727Y-41035D01*
X71727Y-40923D01*
X71713Y-40895D01*
X71699Y-40881D01*
X71671Y-40867D01*
X71614Y-40867D01*
X71586Y-40881D01*
X71572Y-40895D01*
X71558Y-40923D01*
X71558Y-40993D01*
X71572Y-41021D01*
X71586Y-41035D01*
X71614Y-41050D01*
X71671Y-41050D01*
X71699Y-41035D01*
X71713Y-41021D01*
X71727Y-40993D01*
X70996Y-39661D02*
X70996Y-39366D01*
X71066Y-39366D01*
X71109Y-39380D01*
X71137Y-39408D01*
X71151Y-39436D01*
X71165Y-39492D01*
X71165Y-39534D01*
X71151Y-39591D01*
X71137Y-39619D01*
X71109Y-39647D01*
X71066Y-39661D01*
X70996Y-39661D01*
X71418Y-39464D02*
X71418Y-39661D01*
X71347Y-39352D02*
X71277Y-39563D01*
X71460Y-39563D01*
X71614Y-39492D02*
X71586Y-39478D01*
X71572Y-39464D01*
X71558Y-39436D01*
X71558Y-39422D01*
X71572Y-39394D01*
X71586Y-39380D01*
X71614Y-39366D01*
X71671Y-39366D01*
X71699Y-39380D01*
X71713Y-39394D01*
X71727Y-39422D01*
X71727Y-39436D01*
X71713Y-39464D01*
X71699Y-39478D01*
X71671Y-39492D01*
X71614Y-39492D01*
X71586Y-39506D01*
X71572Y-39520D01*
X71558Y-39549D01*
X71558Y-39605D01*
X71572Y-39633D01*
X71586Y-39647D01*
X71614Y-39661D01*
X71671Y-39661D01*
X71699Y-39647D01*
X71713Y-39633D01*
X71727Y-39605D01*
X71727Y-39549D01*
X71713Y-39520D01*
X71699Y-39506D01*
X71671Y-39492D01*
X80996Y-38160D02*
X80996Y-37865D01*
X81066Y-37865D01*
X81109Y-37879D01*
X81137Y-37907D01*
X81151Y-37935D01*
X81165Y-37991D01*
X81165Y-38033D01*
X81151Y-38090D01*
X81137Y-38118D01*
X81109Y-38146D01*
X81066Y-38160D01*
X80996Y-38160D01*
X81418Y-37865D02*
X81361Y-37865D01*
X81333Y-37879D01*
X81319Y-37893D01*
X81291Y-37935D01*
X81277Y-37991D01*
X81277Y-38104D01*
X81291Y-38132D01*
X81305Y-38146D01*
X81333Y-38160D01*
X81390Y-38160D01*
X81418Y-38146D01*
X81432Y-38132D01*
X81446Y-38104D01*
X81446Y-38033D01*
X81432Y-38005D01*
X81418Y-37991D01*
X81390Y-37977D01*
X81333Y-37977D01*
X81305Y-37991D01*
X81291Y-38005D01*
X81277Y-38033D01*
X81558Y-37893D02*
X81572Y-37879D01*
X81600Y-37865D01*
X81671Y-37865D01*
X81699Y-37879D01*
X81713Y-37893D01*
X81727Y-37921D01*
X81727Y-37949D01*
X81713Y-37991D01*
X81544Y-38160D01*
X81727Y-38160D01*
X80996Y-39661D02*
X80996Y-39366D01*
X81066Y-39366D01*
X81109Y-39380D01*
X81137Y-39408D01*
X81151Y-39436D01*
X81165Y-39492D01*
X81165Y-39534D01*
X81151Y-39591D01*
X81137Y-39619D01*
X81109Y-39647D01*
X81066Y-39661D01*
X80996Y-39661D01*
X81418Y-39366D02*
X81361Y-39366D01*
X81333Y-39380D01*
X81319Y-39394D01*
X81291Y-39436D01*
X81277Y-39492D01*
X81277Y-39605D01*
X81291Y-39633D01*
X81305Y-39647D01*
X81333Y-39661D01*
X81390Y-39661D01*
X81418Y-39647D01*
X81432Y-39633D01*
X81446Y-39605D01*
X81446Y-39534D01*
X81432Y-39506D01*
X81418Y-39492D01*
X81390Y-39478D01*
X81333Y-39478D01*
X81305Y-39492D01*
X81291Y-39506D01*
X81277Y-39534D01*
X81544Y-39366D02*
X81727Y-39366D01*
X81628Y-39478D01*
X81671Y-39478D01*
X81699Y-39492D01*
X81713Y-39506D01*
X81727Y-39534D01*
X81727Y-39605D01*
X81713Y-39633D01*
X81699Y-39647D01*
X81671Y-39661D01*
X81586Y-39661D01*
X81558Y-39647D01*
X81544Y-39633D01*
X80996Y-41162D02*
X80996Y-40867D01*
X81066Y-40867D01*
X81109Y-40881D01*
X81137Y-40909D01*
X81151Y-40937D01*
X81165Y-40993D01*
X81165Y-41035D01*
X81151Y-41092D01*
X81137Y-41120D01*
X81109Y-41148D01*
X81066Y-41162D01*
X80996Y-41162D01*
X81418Y-40867D02*
X81361Y-40867D01*
X81333Y-40881D01*
X81319Y-40895D01*
X81291Y-40937D01*
X81277Y-40993D01*
X81277Y-41106D01*
X81291Y-41134D01*
X81305Y-41148D01*
X81333Y-41162D01*
X81390Y-41162D01*
X81418Y-41148D01*
X81432Y-41134D01*
X81446Y-41106D01*
X81446Y-41035D01*
X81432Y-41007D01*
X81418Y-40993D01*
X81390Y-40979D01*
X81333Y-40979D01*
X81305Y-40993D01*
X81291Y-41007D01*
X81277Y-41035D01*
X81699Y-40965D02*
X81699Y-41162D01*
X81628Y-40853D02*
X81558Y-41064D01*
X81741Y-41064D01*
X80996Y-42663D02*
X80996Y-42368D01*
X81066Y-42368D01*
X81109Y-42382D01*
X81137Y-42410D01*
X81151Y-42438D01*
X81165Y-42494D01*
X81165Y-42536D01*
X81151Y-42593D01*
X81137Y-42621D01*
X81109Y-42649D01*
X81066Y-42663D01*
X80996Y-42663D01*
X81418Y-42368D02*
X81361Y-42368D01*
X81333Y-42382D01*
X81319Y-42396D01*
X81291Y-42438D01*
X81277Y-42494D01*
X81277Y-42607D01*
X81291Y-42635D01*
X81305Y-42649D01*
X81333Y-42663D01*
X81390Y-42663D01*
X81418Y-42649D01*
X81432Y-42635D01*
X81446Y-42607D01*
X81446Y-42536D01*
X81432Y-42508D01*
X81418Y-42494D01*
X81390Y-42480D01*
X81333Y-42480D01*
X81305Y-42494D01*
X81291Y-42508D01*
X81277Y-42536D01*
X81713Y-42368D02*
X81572Y-42368D01*
X81558Y-42508D01*
X81572Y-42494D01*
X81600Y-42480D01*
X81671Y-42480D01*
X81699Y-42494D01*
X81713Y-42508D01*
X81727Y-42536D01*
X81727Y-42607D01*
X81713Y-42635D01*
X81699Y-42649D01*
X81671Y-42663D01*
X81600Y-42663D01*
X81572Y-42649D01*
X81558Y-42635D01*
X80996Y-44164D02*
X80996Y-43869D01*
X81066Y-43869D01*
X81109Y-43883D01*
X81137Y-43911D01*
X81151Y-43939D01*
X81165Y-43995D01*
X81165Y-44037D01*
X81151Y-44094D01*
X81137Y-44122D01*
X81109Y-44150D01*
X81066Y-44164D01*
X80996Y-44164D01*
X81418Y-43869D02*
X81361Y-43869D01*
X81333Y-43883D01*
X81319Y-43897D01*
X81291Y-43939D01*
X81277Y-43995D01*
X81277Y-44108D01*
X81291Y-44136D01*
X81305Y-44150D01*
X81333Y-44164D01*
X81390Y-44164D01*
X81418Y-44150D01*
X81432Y-44136D01*
X81446Y-44108D01*
X81446Y-44037D01*
X81432Y-44009D01*
X81418Y-43995D01*
X81390Y-43981D01*
X81333Y-43981D01*
X81305Y-43995D01*
X81291Y-44009D01*
X81277Y-44037D01*
X81699Y-43869D02*
X81642Y-43869D01*
X81614Y-43883D01*
X81600Y-43897D01*
X81572Y-43939D01*
X81558Y-43995D01*
X81558Y-44108D01*
X81572Y-44136D01*
X81586Y-44150D01*
X81614Y-44164D01*
X81671Y-44164D01*
X81699Y-44150D01*
X81713Y-44136D01*
X81727Y-44108D01*
X81727Y-44037D01*
X81713Y-44009D01*
X81699Y-43995D01*
X81671Y-43981D01*
X81614Y-43981D01*
X81586Y-43995D01*
X81572Y-44009D01*
X81558Y-44037D01*
X80998Y-45714D02*
X80998Y-45419D01*
X81068Y-45419D01*
X81111Y-45433D01*
X81139Y-45461D01*
X81153Y-45489D01*
X81167Y-45545D01*
X81167Y-45587D01*
X81153Y-45644D01*
X81139Y-45672D01*
X81111Y-45700D01*
X81068Y-45714D01*
X80998Y-45714D01*
X81420Y-45419D02*
X81363Y-45419D01*
X81335Y-45433D01*
X81321Y-45447D01*
X81293Y-45489D01*
X81279Y-45545D01*
X81279Y-45658D01*
X81293Y-45686D01*
X81307Y-45700D01*
X81335Y-45714D01*
X81392Y-45714D01*
X81420Y-45700D01*
X81434Y-45686D01*
X81448Y-45658D01*
X81448Y-45587D01*
X81434Y-45559D01*
X81420Y-45545D01*
X81392Y-45531D01*
X81335Y-45531D01*
X81307Y-45545D01*
X81293Y-45559D01*
X81279Y-45587D01*
X81546Y-45419D02*
X81743Y-45419D01*
X81616Y-45714D01*
X80996Y-47166D02*
X80996Y-46871D01*
X81066Y-46871D01*
X81109Y-46885D01*
X81137Y-46913D01*
X81151Y-46941D01*
X81165Y-46997D01*
X81165Y-47039D01*
X81151Y-47096D01*
X81137Y-47124D01*
X81109Y-47152D01*
X81066Y-47166D01*
X80996Y-47166D01*
X81418Y-46871D02*
X81361Y-46871D01*
X81333Y-46885D01*
X81319Y-46899D01*
X81291Y-46941D01*
X81277Y-46997D01*
X81277Y-47110D01*
X81291Y-47138D01*
X81305Y-47152D01*
X81333Y-47166D01*
X81390Y-47166D01*
X81418Y-47152D01*
X81432Y-47138D01*
X81446Y-47110D01*
X81446Y-47039D01*
X81432Y-47011D01*
X81418Y-46997D01*
X81390Y-46983D01*
X81333Y-46983D01*
X81305Y-46997D01*
X81291Y-47011D01*
X81277Y-47039D01*
X81614Y-46997D02*
X81586Y-46983D01*
X81572Y-46969D01*
X81558Y-46941D01*
X81558Y-46927D01*
X81572Y-46899D01*
X81586Y-46885D01*
X81614Y-46871D01*
X81671Y-46871D01*
X81699Y-46885D01*
X81713Y-46899D01*
X81727Y-46927D01*
X81727Y-46941D01*
X81713Y-46969D01*
X81699Y-46983D01*
X81671Y-46997D01*
X81614Y-46997D01*
X81586Y-47011D01*
X81572Y-47025D01*
X81558Y-47054D01*
X81558Y-47110D01*
X81572Y-47138D01*
X81586Y-47152D01*
X81614Y-47166D01*
X81671Y-47166D01*
X81699Y-47152D01*
X81713Y-47138D01*
X81727Y-47110D01*
X81727Y-47054D01*
X81713Y-47025D01*
X81699Y-47011D01*
X81671Y-46997D01*
X80996Y-48667D02*
X80996Y-48372D01*
X81066Y-48372D01*
X81109Y-48386D01*
X81137Y-48414D01*
X81151Y-48442D01*
X81165Y-48498D01*
X81165Y-48540D01*
X81151Y-48597D01*
X81137Y-48625D01*
X81109Y-48653D01*
X81066Y-48667D01*
X80996Y-48667D01*
X81418Y-48372D02*
X81361Y-48372D01*
X81333Y-48386D01*
X81319Y-48400D01*
X81291Y-48442D01*
X81277Y-48498D01*
X81277Y-48611D01*
X81291Y-48639D01*
X81305Y-48653D01*
X81333Y-48667D01*
X81390Y-48667D01*
X81418Y-48653D01*
X81432Y-48639D01*
X81446Y-48611D01*
X81446Y-48540D01*
X81432Y-48512D01*
X81418Y-48498D01*
X81390Y-48484D01*
X81333Y-48484D01*
X81305Y-48498D01*
X81291Y-48512D01*
X81277Y-48540D01*
X81586Y-48667D02*
X81642Y-48667D01*
X81671Y-48653D01*
X81685Y-48639D01*
X81713Y-48597D01*
X81727Y-48540D01*
X81727Y-48428D01*
X81713Y-48400D01*
X81699Y-48386D01*
X81671Y-48372D01*
X81614Y-48372D01*
X81586Y-48386D01*
X81572Y-48400D01*
X81558Y-48428D01*
X81558Y-48498D01*
X81572Y-48526D01*
X81586Y-48540D01*
X81614Y-48555D01*
X81671Y-48555D01*
X81699Y-48540D01*
X81713Y-48526D01*
X81727Y-48498D01*
X80996Y-50168D02*
X80996Y-49873D01*
X81066Y-49873D01*
X81109Y-49887D01*
X81137Y-49915D01*
X81151Y-49943D01*
X81165Y-49999D01*
X81165Y-50041D01*
X81151Y-50098D01*
X81137Y-50126D01*
X81109Y-50154D01*
X81066Y-50168D01*
X80996Y-50168D01*
X81263Y-49873D02*
X81460Y-49873D01*
X81333Y-50168D01*
X81628Y-49873D02*
X81657Y-49873D01*
X81685Y-49887D01*
X81699Y-49901D01*
X81713Y-49929D01*
X81727Y-49985D01*
X81727Y-50056D01*
X81713Y-50112D01*
X81699Y-50140D01*
X81685Y-50154D01*
X81657Y-50168D01*
X81628Y-50168D01*
X81600Y-50154D01*
X81586Y-50140D01*
X81572Y-50112D01*
X81558Y-50056D01*
X81558Y-49985D01*
X81572Y-49929D01*
X81586Y-49901D01*
X81600Y-49887D01*
X81628Y-49873D01*
X80996Y-51669D02*
X80996Y-51374D01*
X81066Y-51374D01*
X81109Y-51388D01*
X81137Y-51416D01*
X81151Y-51444D01*
X81165Y-51500D01*
X81165Y-51542D01*
X81151Y-51599D01*
X81137Y-51627D01*
X81109Y-51655D01*
X81066Y-51669D01*
X80996Y-51669D01*
X81263Y-51374D02*
X81460Y-51374D01*
X81333Y-51669D01*
X81727Y-51669D02*
X81558Y-51669D01*
X81642Y-51669D02*
X81642Y-51374D01*
X81614Y-51416D01*
X81586Y-51444D01*
X81558Y-51458D01*
X80996Y-53170D02*
X80996Y-52875D01*
X81066Y-52875D01*
X81109Y-52889D01*
X81137Y-52917D01*
X81151Y-52945D01*
X81165Y-53001D01*
X81165Y-53043D01*
X81151Y-53100D01*
X81137Y-53128D01*
X81109Y-53156D01*
X81066Y-53170D01*
X80996Y-53170D01*
X81263Y-52875D02*
X81460Y-52875D01*
X81333Y-53170D01*
X81558Y-52903D02*
X81572Y-52889D01*
X81600Y-52875D01*
X81671Y-52875D01*
X81699Y-52889D01*
X81713Y-52903D01*
X81727Y-52931D01*
X81727Y-52959D01*
X81713Y-53001D01*
X81544Y-53170D01*
X81727Y-53170D01*
X80996Y-54671D02*
X80996Y-54376D01*
X81066Y-54376D01*
X81109Y-54390D01*
X81137Y-54418D01*
X81151Y-54446D01*
X81165Y-54502D01*
X81165Y-54544D01*
X81151Y-54601D01*
X81137Y-54629D01*
X81109Y-54657D01*
X81066Y-54671D01*
X80996Y-54671D01*
X81263Y-54376D02*
X81460Y-54376D01*
X81333Y-54671D01*
X81544Y-54376D02*
X81727Y-54376D01*
X81628Y-54488D01*
X81671Y-54488D01*
X81699Y-54502D01*
X81713Y-54516D01*
X81727Y-54544D01*
X81727Y-54615D01*
X81713Y-54643D01*
X81699Y-54657D01*
X81671Y-54671D01*
X81586Y-54671D01*
X81558Y-54657D01*
X81544Y-54643D01*
X80996Y-56172D02*
X80996Y-55877D01*
X81066Y-55877D01*
X81109Y-55891D01*
X81137Y-55919D01*
X81151Y-55947D01*
X81165Y-56003D01*
X81165Y-56045D01*
X81151Y-56102D01*
X81137Y-56130D01*
X81109Y-56158D01*
X81066Y-56172D01*
X80996Y-56172D01*
X81263Y-55877D02*
X81460Y-55877D01*
X81333Y-56172D01*
X81699Y-55975D02*
X81699Y-56172D01*
X81628Y-55863D02*
X81558Y-56074D01*
X81741Y-56074D01*
X80996Y-57673D02*
X80996Y-57378D01*
X81066Y-57378D01*
X81109Y-57392D01*
X81137Y-57420D01*
X81151Y-57448D01*
X81165Y-57504D01*
X81165Y-57546D01*
X81151Y-57603D01*
X81137Y-57631D01*
X81109Y-57659D01*
X81066Y-57673D01*
X80996Y-57673D01*
X81263Y-57378D02*
X81460Y-57378D01*
X81333Y-57673D01*
X81713Y-57378D02*
X81572Y-57378D01*
X81558Y-57518D01*
X81572Y-57504D01*
X81600Y-57490D01*
X81671Y-57490D01*
X81699Y-57504D01*
X81713Y-57518D01*
X81727Y-57546D01*
X81727Y-57617D01*
X81713Y-57645D01*
X81699Y-57659D01*
X81671Y-57673D01*
X81600Y-57673D01*
X81572Y-57659D01*
X81558Y-57645D01*
X50996Y-36659D02*
X50996Y-36364D01*
X51066Y-36364D01*
X51109Y-36378D01*
X51137Y-36406D01*
X51151Y-36434D01*
X51165Y-36490D01*
X51165Y-36532D01*
X51151Y-36589D01*
X51137Y-36617D01*
X51109Y-36645D01*
X51066Y-36659D01*
X50996Y-36659D01*
X51446Y-36659D02*
X51277Y-36659D01*
X51361Y-36659D02*
X51361Y-36364D01*
X51333Y-36406D01*
X51305Y-36434D01*
X51277Y-36448D01*
X51699Y-36364D02*
X51642Y-36364D01*
X51614Y-36378D01*
X51600Y-36392D01*
X51572Y-36434D01*
X51558Y-36490D01*
X51558Y-36603D01*
X51572Y-36631D01*
X51586Y-36645D01*
X51614Y-36659D01*
X51671Y-36659D01*
X51699Y-36645D01*
X51713Y-36631D01*
X51727Y-36603D01*
X51727Y-36532D01*
X51713Y-36504D01*
X51699Y-36490D01*
X51671Y-36476D01*
X51614Y-36476D01*
X51586Y-36490D01*
X51572Y-36504D01*
X51558Y-36532D01*
X50996Y-38160D02*
X50996Y-37865D01*
X51066Y-37865D01*
X51109Y-37879D01*
X51137Y-37907D01*
X51151Y-37935D01*
X51165Y-37991D01*
X51165Y-38033D01*
X51151Y-38090D01*
X51137Y-38118D01*
X51109Y-38146D01*
X51066Y-38160D01*
X50996Y-38160D01*
X51446Y-38160D02*
X51277Y-38160D01*
X51361Y-38160D02*
X51361Y-37865D01*
X51333Y-37907D01*
X51305Y-37935D01*
X51277Y-37949D01*
X51544Y-37865D02*
X51741Y-37865D01*
X51614Y-38160D01*
X50996Y-39661D02*
X50996Y-39366D01*
X51066Y-39366D01*
X51109Y-39380D01*
X51137Y-39408D01*
X51151Y-39436D01*
X51165Y-39492D01*
X51165Y-39534D01*
X51151Y-39591D01*
X51137Y-39619D01*
X51109Y-39647D01*
X51066Y-39661D01*
X50996Y-39661D01*
X51446Y-39661D02*
X51277Y-39661D01*
X51361Y-39661D02*
X51361Y-39366D01*
X51333Y-39408D01*
X51305Y-39436D01*
X51277Y-39450D01*
X51614Y-39492D02*
X51586Y-39478D01*
X51572Y-39464D01*
X51558Y-39436D01*
X51558Y-39422D01*
X51572Y-39394D01*
X51586Y-39380D01*
X51614Y-39366D01*
X51671Y-39366D01*
X51699Y-39380D01*
X51713Y-39394D01*
X51727Y-39422D01*
X51727Y-39436D01*
X51713Y-39464D01*
X51699Y-39478D01*
X51671Y-39492D01*
X51614Y-39492D01*
X51586Y-39506D01*
X51572Y-39520D01*
X51558Y-39549D01*
X51558Y-39605D01*
X51572Y-39633D01*
X51586Y-39647D01*
X51614Y-39661D01*
X51671Y-39661D01*
X51699Y-39647D01*
X51713Y-39633D01*
X51727Y-39605D01*
X51727Y-39549D01*
X51713Y-39520D01*
X51699Y-39506D01*
X51671Y-39492D01*
X50996Y-41162D02*
X50996Y-40867D01*
X51066Y-40867D01*
X51109Y-40881D01*
X51137Y-40909D01*
X51151Y-40937D01*
X51165Y-40993D01*
X51165Y-41035D01*
X51151Y-41092D01*
X51137Y-41120D01*
X51109Y-41148D01*
X51066Y-41162D01*
X50996Y-41162D01*
X51446Y-41162D02*
X51277Y-41162D01*
X51361Y-41162D02*
X51361Y-40867D01*
X51333Y-40909D01*
X51305Y-40937D01*
X51277Y-40951D01*
X51586Y-41162D02*
X51642Y-41162D01*
X51671Y-41148D01*
X51685Y-41134D01*
X51713Y-41092D01*
X51727Y-41035D01*
X51727Y-40923D01*
X51713Y-40895D01*
X51699Y-40881D01*
X51671Y-40867D01*
X51614Y-40867D01*
X51586Y-40881D01*
X51572Y-40895D01*
X51558Y-40923D01*
X51558Y-40993D01*
X51572Y-41021D01*
X51586Y-41035D01*
X51614Y-41050D01*
X51671Y-41050D01*
X51699Y-41035D01*
X51713Y-41021D01*
X51727Y-40993D01*
X50996Y-42663D02*
X50996Y-42368D01*
X51066Y-42368D01*
X51109Y-42382D01*
X51137Y-42410D01*
X51151Y-42438D01*
X51165Y-42494D01*
X51165Y-42536D01*
X51151Y-42593D01*
X51137Y-42621D01*
X51109Y-42649D01*
X51066Y-42663D01*
X50996Y-42663D01*
X51277Y-42396D02*
X51291Y-42382D01*
X51319Y-42368D01*
X51390Y-42368D01*
X51418Y-42382D01*
X51432Y-42396D01*
X51446Y-42424D01*
X51446Y-42452D01*
X51432Y-42494D01*
X51263Y-42663D01*
X51446Y-42663D01*
X51628Y-42368D02*
X51657Y-42368D01*
X51685Y-42382D01*
X51699Y-42396D01*
X51713Y-42424D01*
X51727Y-42480D01*
X51727Y-42551D01*
X51713Y-42607D01*
X51699Y-42635D01*
X51685Y-42649D01*
X51657Y-42663D01*
X51628Y-42663D01*
X51600Y-42649D01*
X51586Y-42635D01*
X51572Y-42607D01*
X51558Y-42551D01*
X51558Y-42480D01*
X51572Y-42424D01*
X51586Y-42396D01*
X51600Y-42382D01*
X51628Y-42368D01*
X50996Y-44164D02*
X50996Y-43869D01*
X51066Y-43869D01*
X51109Y-43883D01*
X51137Y-43911D01*
X51151Y-43939D01*
X51165Y-43995D01*
X51165Y-44037D01*
X51151Y-44094D01*
X51137Y-44122D01*
X51109Y-44150D01*
X51066Y-44164D01*
X50996Y-44164D01*
X51277Y-43897D02*
X51291Y-43883D01*
X51319Y-43869D01*
X51390Y-43869D01*
X51418Y-43883D01*
X51432Y-43897D01*
X51446Y-43925D01*
X51446Y-43953D01*
X51432Y-43995D01*
X51263Y-44164D01*
X51446Y-44164D01*
X51727Y-44164D02*
X51558Y-44164D01*
X51642Y-44164D02*
X51642Y-43869D01*
X51614Y-43911D01*
X51586Y-43939D01*
X51558Y-43953D01*
X50996Y-45665D02*
X50996Y-45370D01*
X51066Y-45370D01*
X51109Y-45384D01*
X51137Y-45412D01*
X51151Y-45440D01*
X51165Y-45496D01*
X51165Y-45538D01*
X51151Y-45595D01*
X51137Y-45623D01*
X51109Y-45651D01*
X51066Y-45665D01*
X50996Y-45665D01*
X51277Y-45398D02*
X51291Y-45384D01*
X51319Y-45370D01*
X51390Y-45370D01*
X51418Y-45384D01*
X51432Y-45398D01*
X51446Y-45426D01*
X51446Y-45454D01*
X51432Y-45496D01*
X51263Y-45665D01*
X51446Y-45665D01*
X51558Y-45398D02*
X51572Y-45384D01*
X51600Y-45370D01*
X51671Y-45370D01*
X51699Y-45384D01*
X51713Y-45398D01*
X51727Y-45426D01*
X51727Y-45454D01*
X51713Y-45496D01*
X51544Y-45665D01*
X51727Y-45665D01*
X50996Y-47166D02*
X50996Y-46871D01*
X51066Y-46871D01*
X51109Y-46885D01*
X51137Y-46913D01*
X51151Y-46941D01*
X51165Y-46997D01*
X51165Y-47039D01*
X51151Y-47096D01*
X51137Y-47124D01*
X51109Y-47152D01*
X51066Y-47166D01*
X50996Y-47166D01*
X51277Y-46899D02*
X51291Y-46885D01*
X51319Y-46871D01*
X51390Y-46871D01*
X51418Y-46885D01*
X51432Y-46899D01*
X51446Y-46927D01*
X51446Y-46955D01*
X51432Y-46997D01*
X51263Y-47166D01*
X51446Y-47166D01*
X51544Y-46871D02*
X51727Y-46871D01*
X51628Y-46983D01*
X51671Y-46983D01*
X51699Y-46997D01*
X51713Y-47011D01*
X51727Y-47039D01*
X51727Y-47110D01*
X51713Y-47138D01*
X51699Y-47152D01*
X51671Y-47166D01*
X51586Y-47166D01*
X51558Y-47152D01*
X51544Y-47138D01*
X50996Y-48667D02*
X50996Y-48372D01*
X51066Y-48372D01*
X51109Y-48386D01*
X51137Y-48414D01*
X51151Y-48442D01*
X51165Y-48498D01*
X51165Y-48540D01*
X51151Y-48597D01*
X51137Y-48625D01*
X51109Y-48653D01*
X51066Y-48667D01*
X50996Y-48667D01*
X51277Y-48400D02*
X51291Y-48386D01*
X51319Y-48372D01*
X51390Y-48372D01*
X51418Y-48386D01*
X51432Y-48400D01*
X51446Y-48428D01*
X51446Y-48456D01*
X51432Y-48498D01*
X51263Y-48667D01*
X51446Y-48667D01*
X51699Y-48470D02*
X51699Y-48667D01*
X51628Y-48358D02*
X51558Y-48569D01*
X51741Y-48569D01*
X50996Y-50168D02*
X50996Y-49873D01*
X51066Y-49873D01*
X51109Y-49887D01*
X51137Y-49915D01*
X51151Y-49943D01*
X51165Y-49999D01*
X51165Y-50041D01*
X51151Y-50098D01*
X51137Y-50126D01*
X51109Y-50154D01*
X51066Y-50168D01*
X50996Y-50168D01*
X51277Y-49901D02*
X51291Y-49887D01*
X51319Y-49873D01*
X51390Y-49873D01*
X51418Y-49887D01*
X51432Y-49901D01*
X51446Y-49929D01*
X51446Y-49957D01*
X51432Y-49999D01*
X51263Y-50168D01*
X51446Y-50168D01*
X51713Y-49873D02*
X51572Y-49873D01*
X51558Y-50013D01*
X51572Y-49999D01*
X51600Y-49985D01*
X51671Y-49985D01*
X51699Y-49999D01*
X51713Y-50013D01*
X51727Y-50041D01*
X51727Y-50112D01*
X51713Y-50140D01*
X51699Y-50154D01*
X51671Y-50168D01*
X51600Y-50168D01*
X51572Y-50154D01*
X51558Y-50140D01*
X50996Y-51669D02*
X50996Y-51374D01*
X51066Y-51374D01*
X51109Y-51388D01*
X51137Y-51416D01*
X51151Y-51444D01*
X51165Y-51500D01*
X51165Y-51542D01*
X51151Y-51599D01*
X51137Y-51627D01*
X51109Y-51655D01*
X51066Y-51669D01*
X50996Y-51669D01*
X51277Y-51402D02*
X51291Y-51388D01*
X51319Y-51374D01*
X51390Y-51374D01*
X51418Y-51388D01*
X51432Y-51402D01*
X51446Y-51430D01*
X51446Y-51458D01*
X51432Y-51500D01*
X51263Y-51669D01*
X51446Y-51669D01*
X51699Y-51374D02*
X51642Y-51374D01*
X51614Y-51388D01*
X51600Y-51402D01*
X51572Y-51444D01*
X51558Y-51500D01*
X51558Y-51613D01*
X51572Y-51641D01*
X51586Y-51655D01*
X51614Y-51669D01*
X51671Y-51669D01*
X51699Y-51655D01*
X51713Y-51641D01*
X51727Y-51613D01*
X51727Y-51542D01*
X51713Y-51514D01*
X51699Y-51500D01*
X51671Y-51486D01*
X51614Y-51486D01*
X51586Y-51500D01*
X51572Y-51514D01*
X51558Y-51542D01*
X50996Y-53170D02*
X50996Y-52875D01*
X51066Y-52875D01*
X51109Y-52889D01*
X51137Y-52917D01*
X51151Y-52945D01*
X51165Y-53001D01*
X51165Y-53043D01*
X51151Y-53100D01*
X51137Y-53128D01*
X51109Y-53156D01*
X51066Y-53170D01*
X50996Y-53170D01*
X51277Y-52903D02*
X51291Y-52889D01*
X51319Y-52875D01*
X51390Y-52875D01*
X51418Y-52889D01*
X51432Y-52903D01*
X51446Y-52931D01*
X51446Y-52959D01*
X51432Y-53001D01*
X51263Y-53170D01*
X51446Y-53170D01*
X51544Y-52875D02*
X51741Y-52875D01*
X51614Y-53170D01*
X50996Y-54671D02*
X50996Y-54376D01*
X51066Y-54376D01*
X51109Y-54390D01*
X51137Y-54418D01*
X51151Y-54446D01*
X51165Y-54502D01*
X51165Y-54544D01*
X51151Y-54601D01*
X51137Y-54629D01*
X51109Y-54657D01*
X51066Y-54671D01*
X50996Y-54671D01*
X51277Y-54404D02*
X51291Y-54390D01*
X51319Y-54376D01*
X51390Y-54376D01*
X51418Y-54390D01*
X51432Y-54404D01*
X51446Y-54432D01*
X51446Y-54460D01*
X51432Y-54502D01*
X51263Y-54671D01*
X51446Y-54671D01*
X51614Y-54502D02*
X51586Y-54488D01*
X51572Y-54474D01*
X51558Y-54446D01*
X51558Y-54432D01*
X51572Y-54404D01*
X51586Y-54390D01*
X51614Y-54376D01*
X51671Y-54376D01*
X51699Y-54390D01*
X51713Y-54404D01*
X51727Y-54432D01*
X51727Y-54446D01*
X51713Y-54474D01*
X51699Y-54488D01*
X51671Y-54502D01*
X51614Y-54502D01*
X51586Y-54516D01*
X51572Y-54530D01*
X51558Y-54559D01*
X51558Y-54615D01*
X51572Y-54643D01*
X51586Y-54657D01*
X51614Y-54671D01*
X51671Y-54671D01*
X51699Y-54657D01*
X51713Y-54643D01*
X51727Y-54615D01*
X51727Y-54559D01*
X51713Y-54530D01*
X51699Y-54516D01*
X51671Y-54502D01*
X50996Y-56172D02*
X50996Y-55877D01*
X51066Y-55877D01*
X51109Y-55891D01*
X51137Y-55919D01*
X51151Y-55947D01*
X51165Y-56003D01*
X51165Y-56045D01*
X51151Y-56102D01*
X51137Y-56130D01*
X51109Y-56158D01*
X51066Y-56172D01*
X50996Y-56172D01*
X51277Y-55905D02*
X51291Y-55891D01*
X51319Y-55877D01*
X51390Y-55877D01*
X51418Y-55891D01*
X51432Y-55905D01*
X51446Y-55933D01*
X51446Y-55961D01*
X51432Y-56003D01*
X51263Y-56172D01*
X51446Y-56172D01*
X51586Y-56172D02*
X51642Y-56172D01*
X51671Y-56158D01*
X51685Y-56144D01*
X51713Y-56102D01*
X51727Y-56045D01*
X51727Y-55933D01*
X51713Y-55905D01*
X51699Y-55891D01*
X51671Y-55877D01*
X51614Y-55877D01*
X51586Y-55891D01*
X51572Y-55905D01*
X51558Y-55933D01*
X51558Y-56003D01*
X51572Y-56031D01*
X51586Y-56045D01*
X51614Y-56060D01*
X51671Y-56060D01*
X51699Y-56045D01*
X51713Y-56031D01*
X51727Y-56003D01*
X50996Y-57673D02*
X50996Y-57378D01*
X51066Y-57378D01*
X51109Y-57392D01*
X51137Y-57420D01*
X51151Y-57448D01*
X51165Y-57504D01*
X51165Y-57546D01*
X51151Y-57603D01*
X51137Y-57631D01*
X51109Y-57659D01*
X51066Y-57673D01*
X50996Y-57673D01*
X51263Y-57378D02*
X51446Y-57378D01*
X51347Y-57490D01*
X51390Y-57490D01*
X51418Y-57504D01*
X51432Y-57518D01*
X51446Y-57546D01*
X51446Y-57617D01*
X51432Y-57645D01*
X51418Y-57659D01*
X51390Y-57673D01*
X51305Y-57673D01*
X51277Y-57659D01*
X51263Y-57645D01*
X51628Y-57378D02*
X51657Y-57378D01*
X51685Y-57392D01*
X51699Y-57406D01*
X51713Y-57434D01*
X51727Y-57490D01*
X51727Y-57561D01*
X51713Y-57617D01*
X51699Y-57645D01*
X51685Y-57659D01*
X51657Y-57673D01*
X51628Y-57673D01*
X51600Y-57659D01*
X51586Y-57645D01*
X51572Y-57617D01*
X51558Y-57561D01*
X51558Y-57490D01*
X51572Y-57434D01*
X51586Y-57406D01*
X51600Y-57392D01*
X51628Y-57378D01*
X60996Y-36659D02*
X60996Y-36364D01*
X61066Y-36364D01*
X61109Y-36378D01*
X61137Y-36406D01*
X61151Y-36434D01*
X61165Y-36490D01*
X61165Y-36532D01*
X61151Y-36589D01*
X61137Y-36617D01*
X61109Y-36645D01*
X61066Y-36659D01*
X60996Y-36659D01*
X61263Y-36364D02*
X61446Y-36364D01*
X61347Y-36476D01*
X61390Y-36476D01*
X61418Y-36490D01*
X61432Y-36504D01*
X61446Y-36532D01*
X61446Y-36603D01*
X61432Y-36631D01*
X61418Y-36645D01*
X61390Y-36659D01*
X61305Y-36659D01*
X61277Y-36645D01*
X61263Y-36631D01*
X61727Y-36659D02*
X61558Y-36659D01*
X61642Y-36659D02*
X61642Y-36364D01*
X61614Y-36406D01*
X61586Y-36434D01*
X61558Y-36448D01*
X60996Y-38160D02*
X60996Y-37865D01*
X61066Y-37865D01*
X61109Y-37879D01*
X61137Y-37907D01*
X61151Y-37935D01*
X61165Y-37991D01*
X61165Y-38033D01*
X61151Y-38090D01*
X61137Y-38118D01*
X61109Y-38146D01*
X61066Y-38160D01*
X60996Y-38160D01*
X61263Y-37865D02*
X61446Y-37865D01*
X61347Y-37977D01*
X61390Y-37977D01*
X61418Y-37991D01*
X61432Y-38005D01*
X61446Y-38033D01*
X61446Y-38104D01*
X61432Y-38132D01*
X61418Y-38146D01*
X61390Y-38160D01*
X61305Y-38160D01*
X61277Y-38146D01*
X61263Y-38132D01*
X61558Y-37893D02*
X61572Y-37879D01*
X61600Y-37865D01*
X61671Y-37865D01*
X61699Y-37879D01*
X61713Y-37893D01*
X61727Y-37921D01*
X61727Y-37949D01*
X61713Y-37991D01*
X61544Y-38160D01*
X61727Y-38160D01*
X60996Y-39661D02*
X60996Y-39366D01*
X61066Y-39366D01*
X61109Y-39380D01*
X61137Y-39408D01*
X61151Y-39436D01*
X61165Y-39492D01*
X61165Y-39534D01*
X61151Y-39591D01*
X61137Y-39619D01*
X61109Y-39647D01*
X61066Y-39661D01*
X60996Y-39661D01*
X61263Y-39366D02*
X61446Y-39366D01*
X61347Y-39478D01*
X61390Y-39478D01*
X61418Y-39492D01*
X61432Y-39506D01*
X61446Y-39534D01*
X61446Y-39605D01*
X61432Y-39633D01*
X61418Y-39647D01*
X61390Y-39661D01*
X61305Y-39661D01*
X61277Y-39647D01*
X61263Y-39633D01*
X61544Y-39366D02*
X61727Y-39366D01*
X61628Y-39478D01*
X61671Y-39478D01*
X61699Y-39492D01*
X61713Y-39506D01*
X61727Y-39534D01*
X61727Y-39605D01*
X61713Y-39633D01*
X61699Y-39647D01*
X61671Y-39661D01*
X61586Y-39661D01*
X61558Y-39647D01*
X61544Y-39633D01*
X60996Y-41162D02*
X60996Y-40867D01*
X61066Y-40867D01*
X61109Y-40881D01*
X61137Y-40909D01*
X61151Y-40937D01*
X61165Y-40993D01*
X61165Y-41035D01*
X61151Y-41092D01*
X61137Y-41120D01*
X61109Y-41148D01*
X61066Y-41162D01*
X60996Y-41162D01*
X61263Y-40867D02*
X61446Y-40867D01*
X61347Y-40979D01*
X61390Y-40979D01*
X61418Y-40993D01*
X61432Y-41007D01*
X61446Y-41035D01*
X61446Y-41106D01*
X61432Y-41134D01*
X61418Y-41148D01*
X61390Y-41162D01*
X61305Y-41162D01*
X61277Y-41148D01*
X61263Y-41134D01*
X61699Y-40965D02*
X61699Y-41162D01*
X61628Y-40853D02*
X61558Y-41064D01*
X61741Y-41064D01*
X60996Y-42663D02*
X60996Y-42368D01*
X61066Y-42368D01*
X61109Y-42382D01*
X61137Y-42410D01*
X61151Y-42438D01*
X61165Y-42494D01*
X61165Y-42536D01*
X61151Y-42593D01*
X61137Y-42621D01*
X61109Y-42649D01*
X61066Y-42663D01*
X60996Y-42663D01*
X61263Y-42368D02*
X61446Y-42368D01*
X61347Y-42480D01*
X61390Y-42480D01*
X61418Y-42494D01*
X61432Y-42508D01*
X61446Y-42536D01*
X61446Y-42607D01*
X61432Y-42635D01*
X61418Y-42649D01*
X61390Y-42663D01*
X61305Y-42663D01*
X61277Y-42649D01*
X61263Y-42635D01*
X61713Y-42368D02*
X61572Y-42368D01*
X61558Y-42508D01*
X61572Y-42494D01*
X61600Y-42480D01*
X61671Y-42480D01*
X61699Y-42494D01*
X61713Y-42508D01*
X61727Y-42536D01*
X61727Y-42607D01*
X61713Y-42635D01*
X61699Y-42649D01*
X61671Y-42663D01*
X61600Y-42663D01*
X61572Y-42649D01*
X61558Y-42635D01*
X60996Y-44164D02*
X60996Y-43869D01*
X61066Y-43869D01*
X61109Y-43883D01*
X61137Y-43911D01*
X61151Y-43939D01*
X61165Y-43995D01*
X61165Y-44037D01*
X61151Y-44094D01*
X61137Y-44122D01*
X61109Y-44150D01*
X61066Y-44164D01*
X60996Y-44164D01*
X61263Y-43869D02*
X61446Y-43869D01*
X61347Y-43981D01*
X61390Y-43981D01*
X61418Y-43995D01*
X61432Y-44009D01*
X61446Y-44037D01*
X61446Y-44108D01*
X61432Y-44136D01*
X61418Y-44150D01*
X61390Y-44164D01*
X61305Y-44164D01*
X61277Y-44150D01*
X61263Y-44136D01*
X61699Y-43869D02*
X61642Y-43869D01*
X61614Y-43883D01*
X61600Y-43897D01*
X61572Y-43939D01*
X61558Y-43995D01*
X61558Y-44108D01*
X61572Y-44136D01*
X61586Y-44150D01*
X61614Y-44164D01*
X61671Y-44164D01*
X61699Y-44150D01*
X61713Y-44136D01*
X61727Y-44108D01*
X61727Y-44037D01*
X61713Y-44009D01*
X61699Y-43995D01*
X61671Y-43981D01*
X61614Y-43981D01*
X61586Y-43995D01*
X61572Y-44009D01*
X61558Y-44037D01*
X60996Y-45665D02*
X60996Y-45370D01*
X61066Y-45370D01*
X61109Y-45384D01*
X61137Y-45412D01*
X61151Y-45440D01*
X61165Y-45496D01*
X61165Y-45538D01*
X61151Y-45595D01*
X61137Y-45623D01*
X61109Y-45651D01*
X61066Y-45665D01*
X60996Y-45665D01*
X61263Y-45370D02*
X61446Y-45370D01*
X61347Y-45482D01*
X61390Y-45482D01*
X61418Y-45496D01*
X61432Y-45510D01*
X61446Y-45538D01*
X61446Y-45609D01*
X61432Y-45637D01*
X61418Y-45651D01*
X61390Y-45665D01*
X61305Y-45665D01*
X61277Y-45651D01*
X61263Y-45637D01*
X61544Y-45370D02*
X61741Y-45370D01*
X61614Y-45665D01*
X60996Y-47166D02*
X60996Y-46871D01*
X61066Y-46871D01*
X61109Y-46885D01*
X61137Y-46913D01*
X61151Y-46941D01*
X61165Y-46997D01*
X61165Y-47039D01*
X61151Y-47096D01*
X61137Y-47124D01*
X61109Y-47152D01*
X61066Y-47166D01*
X60996Y-47166D01*
X61263Y-46871D02*
X61446Y-46871D01*
X61347Y-46983D01*
X61390Y-46983D01*
X61418Y-46997D01*
X61432Y-47011D01*
X61446Y-47039D01*
X61446Y-47110D01*
X61432Y-47138D01*
X61418Y-47152D01*
X61390Y-47166D01*
X61305Y-47166D01*
X61277Y-47152D01*
X61263Y-47138D01*
X61614Y-46997D02*
X61586Y-46983D01*
X61572Y-46969D01*
X61558Y-46941D01*
X61558Y-46927D01*
X61572Y-46899D01*
X61586Y-46885D01*
X61614Y-46871D01*
X61671Y-46871D01*
X61699Y-46885D01*
X61713Y-46899D01*
X61727Y-46927D01*
X61727Y-46941D01*
X61713Y-46969D01*
X61699Y-46983D01*
X61671Y-46997D01*
X61614Y-46997D01*
X61586Y-47011D01*
X61572Y-47025D01*
X61558Y-47054D01*
X61558Y-47110D01*
X61572Y-47138D01*
X61586Y-47152D01*
X61614Y-47166D01*
X61671Y-47166D01*
X61699Y-47152D01*
X61713Y-47138D01*
X61727Y-47110D01*
X61727Y-47054D01*
X61713Y-47025D01*
X61699Y-47011D01*
X61671Y-46997D01*
X60996Y-48667D02*
X60996Y-48372D01*
X61066Y-48372D01*
X61109Y-48386D01*
X61137Y-48414D01*
X61151Y-48442D01*
X61165Y-48498D01*
X61165Y-48540D01*
X61151Y-48597D01*
X61137Y-48625D01*
X61109Y-48653D01*
X61066Y-48667D01*
X60996Y-48667D01*
X61263Y-48372D02*
X61446Y-48372D01*
X61347Y-48484D01*
X61390Y-48484D01*
X61418Y-48498D01*
X61432Y-48512D01*
X61446Y-48540D01*
X61446Y-48611D01*
X61432Y-48639D01*
X61418Y-48653D01*
X61390Y-48667D01*
X61305Y-48667D01*
X61277Y-48653D01*
X61263Y-48639D01*
X61586Y-48667D02*
X61642Y-48667D01*
X61671Y-48653D01*
X61685Y-48639D01*
X61713Y-48597D01*
X61727Y-48540D01*
X61727Y-48428D01*
X61713Y-48400D01*
X61699Y-48386D01*
X61671Y-48372D01*
X61614Y-48372D01*
X61586Y-48386D01*
X61572Y-48400D01*
X61558Y-48428D01*
X61558Y-48498D01*
X61572Y-48526D01*
X61586Y-48540D01*
X61614Y-48555D01*
X61671Y-48555D01*
X61699Y-48540D01*
X61713Y-48526D01*
X61727Y-48498D01*
X60996Y-50168D02*
X60996Y-49873D01*
X61066Y-49873D01*
X61109Y-49887D01*
X61137Y-49915D01*
X61151Y-49943D01*
X61165Y-49999D01*
X61165Y-50041D01*
X61151Y-50098D01*
X61137Y-50126D01*
X61109Y-50154D01*
X61066Y-50168D01*
X60996Y-50168D01*
X61418Y-49971D02*
X61418Y-50168D01*
X61347Y-49859D02*
X61277Y-50070D01*
X61460Y-50070D01*
X61628Y-49873D02*
X61657Y-49873D01*
X61685Y-49887D01*
X61699Y-49901D01*
X61713Y-49929D01*
X61727Y-49985D01*
X61727Y-50056D01*
X61713Y-50112D01*
X61699Y-50140D01*
X61685Y-50154D01*
X61657Y-50168D01*
X61628Y-50168D01*
X61600Y-50154D01*
X61586Y-50140D01*
X61572Y-50112D01*
X61558Y-50056D01*
X61558Y-49985D01*
X61572Y-49929D01*
X61586Y-49901D01*
X61600Y-49887D01*
X61628Y-49873D01*
X60996Y-51669D02*
X60996Y-51374D01*
X61066Y-51374D01*
X61109Y-51388D01*
X61137Y-51416D01*
X61151Y-51444D01*
X61165Y-51500D01*
X61165Y-51542D01*
X61151Y-51599D01*
X61137Y-51627D01*
X61109Y-51655D01*
X61066Y-51669D01*
X60996Y-51669D01*
X61418Y-51472D02*
X61418Y-51669D01*
X61347Y-51360D02*
X61277Y-51571D01*
X61460Y-51571D01*
X61727Y-51669D02*
X61558Y-51669D01*
X61642Y-51669D02*
X61642Y-51374D01*
X61614Y-51416D01*
X61586Y-51444D01*
X61558Y-51458D01*
X60996Y-53170D02*
X60996Y-52875D01*
X61066Y-52875D01*
X61109Y-52889D01*
X61137Y-52917D01*
X61151Y-52945D01*
X61165Y-53001D01*
X61165Y-53043D01*
X61151Y-53100D01*
X61137Y-53128D01*
X61109Y-53156D01*
X61066Y-53170D01*
X60996Y-53170D01*
X61418Y-52973D02*
X61418Y-53170D01*
X61347Y-52861D02*
X61277Y-53072D01*
X61460Y-53072D01*
X61558Y-52903D02*
X61572Y-52889D01*
X61600Y-52875D01*
X61671Y-52875D01*
X61699Y-52889D01*
X61713Y-52903D01*
X61727Y-52931D01*
X61727Y-52959D01*
X61713Y-53001D01*
X61544Y-53170D01*
X61727Y-53170D01*
X60996Y-54671D02*
X60996Y-54376D01*
X61066Y-54376D01*
X61109Y-54390D01*
X61137Y-54418D01*
X61151Y-54446D01*
X61165Y-54502D01*
X61165Y-54544D01*
X61151Y-54601D01*
X61137Y-54629D01*
X61109Y-54657D01*
X61066Y-54671D01*
X60996Y-54671D01*
X61418Y-54474D02*
X61418Y-54671D01*
X61347Y-54362D02*
X61277Y-54573D01*
X61460Y-54573D01*
X61544Y-54376D02*
X61727Y-54376D01*
X61628Y-54488D01*
X61671Y-54488D01*
X61699Y-54502D01*
X61713Y-54516D01*
X61727Y-54544D01*
X61727Y-54615D01*
X61713Y-54643D01*
X61699Y-54657D01*
X61671Y-54671D01*
X61586Y-54671D01*
X61558Y-54657D01*
X61544Y-54643D01*
X60996Y-56172D02*
X60996Y-55877D01*
X61066Y-55877D01*
X61109Y-55891D01*
X61137Y-55919D01*
X61151Y-55947D01*
X61165Y-56003D01*
X61165Y-56045D01*
X61151Y-56102D01*
X61137Y-56130D01*
X61109Y-56158D01*
X61066Y-56172D01*
X60996Y-56172D01*
X61418Y-55975D02*
X61418Y-56172D01*
X61347Y-55863D02*
X61277Y-56074D01*
X61460Y-56074D01*
X61699Y-55975D02*
X61699Y-56172D01*
X61628Y-55863D02*
X61558Y-56074D01*
X61741Y-56074D01*
X60996Y-57673D02*
X60996Y-57378D01*
X61066Y-57378D01*
X61109Y-57392D01*
X61137Y-57420D01*
X61151Y-57448D01*
X61165Y-57504D01*
X61165Y-57546D01*
X61151Y-57603D01*
X61137Y-57631D01*
X61109Y-57659D01*
X61066Y-57673D01*
X60996Y-57673D01*
X61418Y-57476D02*
X61418Y-57673D01*
X61347Y-57364D02*
X61277Y-57575D01*
X61460Y-57575D01*
X61713Y-57378D02*
X61572Y-57378D01*
X61558Y-57518D01*
X61572Y-57504D01*
X61600Y-57490D01*
X61671Y-57490D01*
X61699Y-57504D01*
X61713Y-57518D01*
X61727Y-57546D01*
X61727Y-57617D01*
X61713Y-57645D01*
X61699Y-57659D01*
X61671Y-57673D01*
X61600Y-57673D01*
X61572Y-57659D01*
X61558Y-57645D01*
X70996Y-36659D02*
X70996Y-36364D01*
X71066Y-36364D01*
X71109Y-36378D01*
X71137Y-36406D01*
X71151Y-36434D01*
X71165Y-36490D01*
X71165Y-36532D01*
X71151Y-36589D01*
X71137Y-36617D01*
X71109Y-36645D01*
X71066Y-36659D01*
X70996Y-36659D01*
X71418Y-36462D02*
X71418Y-36659D01*
X71347Y-36350D02*
X71277Y-36561D01*
X71460Y-36561D01*
X71699Y-36364D02*
X71642Y-36364D01*
X71614Y-36378D01*
X71600Y-36392D01*
X71572Y-36434D01*
X71558Y-36490D01*
X71558Y-36603D01*
X71572Y-36631D01*
X71586Y-36645D01*
X71614Y-36659D01*
X71671Y-36659D01*
X71699Y-36645D01*
X71713Y-36631D01*
X71727Y-36603D01*
X71727Y-36532D01*
X71713Y-36504D01*
X71699Y-36490D01*
X71671Y-36476D01*
X71614Y-36476D01*
X71586Y-36490D01*
X71572Y-36504D01*
X71558Y-36532D01*
X70996Y-38160D02*
X70996Y-37865D01*
X71066Y-37865D01*
X71109Y-37879D01*
X71137Y-37907D01*
X71151Y-37935D01*
X71165Y-37991D01*
X71165Y-38033D01*
X71151Y-38090D01*
X71137Y-38118D01*
X71109Y-38146D01*
X71066Y-38160D01*
X70996Y-38160D01*
X71418Y-37963D02*
X71418Y-38160D01*
X71347Y-37851D02*
X71277Y-38062D01*
X71460Y-38062D01*
X71544Y-37865D02*
X71741Y-37865D01*
X71614Y-38160D01*
X41289Y-58741D02*
X41190Y-58600D01*
X41120Y-58741D02*
X41120Y-58446D01*
X41233Y-58446D01*
X41261Y-58460D01*
X41275Y-58474D01*
X41289Y-58502D01*
X41289Y-58544D01*
X41275Y-58572D01*
X41261Y-58586D01*
X41233Y-58600D01*
X41120Y-58600D01*
X41570Y-58741D02*
X41401Y-58741D01*
X41485Y-58741D02*
X41485Y-58446D01*
X41457Y-58488D01*
X41429Y-58516D01*
X41401Y-58530D01*
X53021Y-58702D02*
X52922Y-58561D01*
X52852Y-58702D02*
X52852Y-58407D01*
X52965Y-58407D01*
X52993Y-58421D01*
X53007Y-58435D01*
X53021Y-58463D01*
X53021Y-58505D01*
X53007Y-58533D01*
X52993Y-58547D01*
X52965Y-58561D01*
X52852Y-58561D01*
X53133Y-58435D02*
X53147Y-58421D01*
X53175Y-58407D01*
X53246Y-58407D01*
X53274Y-58421D01*
X53288Y-58435D01*
X53302Y-58463D01*
X53302Y-58491D01*
X53288Y-58533D01*
X53119Y-58702D01*
X53302Y-58702D01*
X61289Y-58741D02*
X61190Y-58600D01*
X61120Y-58741D02*
X61120Y-58446D01*
X61233Y-58446D01*
X61261Y-58460D01*
X61275Y-58474D01*
X61289Y-58502D01*
X61289Y-58544D01*
X61275Y-58572D01*
X61261Y-58586D01*
X61233Y-58600D01*
X61120Y-58600D01*
X61387Y-58446D02*
X61570Y-58446D01*
X61471Y-58558D01*
X61514Y-58558D01*
X61542Y-58572D01*
X61556Y-58586D01*
X61570Y-58614D01*
X61570Y-58685D01*
X61556Y-58713D01*
X61542Y-58727D01*
X61514Y-58741D01*
X61429Y-58741D01*
X61401Y-58727D01*
X61387Y-58713D01*
X71289Y-58741D02*
X71190Y-58600D01*
X71120Y-58741D02*
X71120Y-58446D01*
X71233Y-58446D01*
X71261Y-58460D01*
X71275Y-58474D01*
X71289Y-58502D01*
X71289Y-58544D01*
X71275Y-58572D01*
X71261Y-58586D01*
X71233Y-58600D01*
X71120Y-58600D01*
X71542Y-58544D02*
X71542Y-58741D01*
X71471Y-58432D02*
X71401Y-58643D01*
X71584Y-58643D01*
X83021Y-58741D02*
X82922Y-58600D01*
X82852Y-58741D02*
X82852Y-58446D01*
X82965Y-58446D01*
X82993Y-58460D01*
X83007Y-58474D01*
X83021Y-58502D01*
X83021Y-58544D01*
X83007Y-58572D01*
X82993Y-58586D01*
X82965Y-58600D01*
X82852Y-58600D01*
X83288Y-58446D02*
X83147Y-58446D01*
X83133Y-58586D01*
X83147Y-58572D01*
X83175Y-58558D01*
X83246Y-58558D01*
X83274Y-58572D01*
X83288Y-58586D01*
X83302Y-58614D01*
X83302Y-58685D01*
X83288Y-58713D01*
X83274Y-58727D01*
X83246Y-58741D01*
X83175Y-58741D01*
X83147Y-58727D01*
X83133Y-58713D01*
M02*
